<?xml version="1.0" encoding="utf-8" ?>
<svg baseProfile="full" height="400" version="1.1" width="400" xmlns="http://www.w3.org/2000/svg" xmlns:ev="http://www.w3.org/2001/xml-events" xmlns:xlink="http://www.w3.org/1999/xlink"><defs /><rect fill="black" height="100%" width="100%" x="0" y="0" /><circle cx="200" cy="200" fill="yellow" r="10.000000000088571" stroke="orange" stroke-width="2" /><polyline fill="none" points="201.11893140769803,200.0 201.12937216864705,200.0592868797897 201.13302443220562,200.11928593854068 201.12960428376016,200.17921540925798 201.11890389878508,200.23823929473028 201.10079945910184,200.29547404534975 201.07525856200022,200.34999627278313 201.0423469963379,200.40085147281278 201.00223475918767,200.447063716321 200.95520118758955,200.487646252597 200.90163908258128,200.52161295405324 200.84205770699964,200.5479905162181 200.77708454462817,200.56583131170262 200.7074657161563,200.5742267819157 200.63406495713335,200.5723212358236 200.55786107465062,200.55932591122777 200.47994381284326,200.5345331410854 200.4015080724283,200.49733045553893 200.3238464463132,200.44721443977483 200.24834005172795,200.38380415881684 200.17644765922776,200.3068539530914 200.10969314013812,200.21626540328614 200.04965127638997,200.1120982598583 199.99793200002333,199.99458013171878 199.95616315369222,199.8641147302856 199.92597188803575,199.72128846941737 199.90896483651213,199.56687522882393 199.9067072329344,199.40183909850532 199.92070116118185,199.2273349346619 199.952363150065,199.04470657338163 200.00300134874854,198.85548256724744 200.07379253914064,198.66136933178578 200.16575926087495,198.464241613318 200.27974734159102,198.26613021716892 200.4164041398007,198.0692069651735 200.5761578193635,197.8757668838014 200.75919798314854,197.68820765875407 200.96545799851373,197.50900642828583 201.1945993484848,197.34069402543957 201.44599833970344,197.18582681849523 201.7187354910913,197.0469563387977 202.01158791554775,196.92659692531822 202.32302499070954,196.8271916553257 202.6512075937359,196.7510768698987 202.99399114918648,196.70044564115634 203.34893270833498,196.67731056447315 203.71330224275923,196.68346629299927 204.08409829489878,196.7204522629522 204.45806808365512,196.7895160857974 204.83173211428866,196.89157810701553 205.20141328916293,197.0271976500958 205.56327045969695,197.19654147815388 205.91333630067749,197.3993550136297 206.24755932638726,197.63493685839168 206.5618498044244,197.9021171518249 206.85212925828884,198.19924029272528 207.1143831845136,198.52415253173527 207.34471654510776,198.8741949143906 207.5394115321753,199.2462020204196 207.69498703965348,199.63650690265985 207.8082592180778,200.040952578831 207.87640243305427,200.45491037152163 207.8970098976481,200.8733053263191 207.8681532041263,201.2906488653355 207.78843994235746,201.7010787538863 207.6570685615984,202.0984063722858 207.47387961026476,202.4761711932876 207.23940247543948,202.8277022693719 206.95489674109334,203.14618643374243 206.62238729199123,203.424742815515 206.2446923096535,203.6565031642495 205.8254433380594,203.83469737286742 205.36909664042685,203.9527434823831 204.88093512466045,204.00434134810223 204.3670601840773,203.9835690464192 203.83437288178905,203.88498100554864 203.29054400147865,203.70370675395648 202.74397259392913,203.43554909845227 202.20373276703603,203.07708047139744 201.67950859647746,202.6257361248025 201.18151717385965,202.07990279972242 200.72041995794507,201.43900146374895 200.30722275126786,200.70356268891015 199.95316478762746,199.87529323818612 199.66959758403087,198.95713244228318 199.46785438186237,197.95329698028755 199.35911117447827,196.86931272918403 199.35424048998982,195.71203241863813 199.4636592665147,194.48963791935265 199.69717232035273,193.21162610595383 200.0638130629795,191.88877736872533 200.57168326800684,190.53310600231436 201.22779382183862,189.15779187324702 202.03790850915854,187.77709296087332 203.00639298414507,186.40623857710054 204.136071157995,185.06130329754592 205.42809129061746,183.75906187882575 206.88180410701813,182.51682569157822 208.4946552648761,181.352261464179 210.26209447726285,180.28319340535097 212.1775035417316,179.3273900521214 214.232145442752,178.50233746971716 216.41513657761865,177.82500070864805 218.71344400578883,177.3115756978502 221.1119094377449,176.9772340175986 223.59330146195995,176.83586324807166 226.1383972578233,176.89980582497242 228.7260947593514,177.179599548438 231.33355592052578,177.68372308154028 233.9363813899982,178.41834993597624 236.50881653299834,179.38711457112902 239.02398834438492,180.59089432476256 241.45417238218135,182.02761094560253 243.7710884194138,183.69205550662085 245.94622306784726,185.5757404399669 247.95117717498056,187.66678234753658 249.75803534049308,189.94981910293228 251.3397544457098,192.4059645693321 252.67056764536383,195.01280401237995 253.72639984107158,197.74443298705694 254.48529024681324,200.5715421226658 254.9278172748071,203.46154982130446 255.03752062205322,206.37878442399622 254.80131513009775,209.28471688720876 254.20989072976548,212.1382444538257 253.25809257511122,214.89602520052532 251.9452753228057,217.5128627025454 250.27562543041924,219.94213938235023 248.25844533500282,222.13629640690093 245.90839343687327,224.04735727597696 243.24567395686034,225.62749150890818 240.29617096203208,226.82961409744462 237.0915211678494,227.60801565721164 233.66912052568776,227.9190174887072 230.07206009461203,227.7216450609975 226.3489872750693,226.97831276742153 222.55388914851508,225.65551218325982 218.74579541849528,223.7244954911402 214.98839928171728,221.16194524165687 211.3495954672623,217.9506211948828 207.90093566212536,214.07997465352736 204.71700258425165,209.54672046041708 201.87470506140372,204.35535670120527 199.4524976155265,198.51862213650531 197.52952922653864,192.0578814939052 196.1847271442611,185.00342898647452 195.49582281901635,177.3947007961752 195.53832821580954,169.28038777250208 196.38447194858236,160.71844025171634 198.10210580371094,151.77595770163074 200.7535932990038,142.5289568408059 204.3946929288237,133.0620129671287 209.07344966024553,123.46777045508433 214.82910905195928,113.84631973764607 221.69106904970633,104.30443956953883 229.67788505255453,94.95470496361578 238.7963442270671,85.91446288900777 249.04062525608595,77.30467960427467 260.39155973121626,69.24866535469371 272.8160112203584,61.87068407173257 286.2663876525879,55.29445765448557 300.6803020530228,49.64157636544732 315.9803958228544,45.029828812881675 332.07433768961465,41.571466894238824 348.8550101477306,39.371422913397765 366.2008936700017,38.52549783179845 383.97665720025316,39.11854124196168 402.0339614426532,41.22264513325018 420.21247925378884,44.895374825709524 438.3411350327283,50.178061550475974 456.2395624084192,57.094182027181944 473.7197767628064,65.64785100375286 490.58805622528666,75.82245305710164 506.64702175616577,87.57943998146048 521.6979038334873,100.8573197936802 535.5429801018279,115.57086274366769 547.9881651691828,131.6105487181585 558.8457305872281,148.84227905566007 567.9371299616689,167.10737404187762 575.095901155735,186.22287522469105 580.1706147151979,205.9821691766804 583.0278350029337,226.15594644709793 583.5550581307949,246.49350619477127 581.6635886623891,266.7244133947783 577.291315277741,286.5605115862817 570.4053441841265,305.69828990360367 561.004448069266,323.8215986399328 549.1212878639296,340.604702870972 534.8243645481255,355.7156587577372 518.2196587320618,368.81999210219396 499.45191679934493,379.58465360004544 478.70554403966025,387.68222007995456 456.20506744022225,392.7953059001778 432.2151336619811,394.62114365820196 407.0400112035842,392.87628852571623 381.02256985171516,387.30139592196076 354.54271522114163,377.6660179566953 328.01526148386347,363.77336018425774 301.88723124791113,345.4649367870899 276.63457793751536,322.62505942452765 252.7583329035535,295.1850927126392 230.78018680339127,263.1274077127298 211.2375224705203,226.48896396521963 194.67792447606973,185.36445057247005 181.6531987871376,139.90891766324907 172.71294426377838,90.3398313104279 168.39772611257774,36.93848766132342 169.23190972856196,-19.949274292870484 175.7162215010745,-79.91311721604399 188.3201110205475,-142.47905742795604 207.47399658506995,-207.11116796136014 233.5614828487474,-273.2141685619908 266.9116457569345,-340.1369298899822 307.79148545523066,-407.17690963647146 356.3986525197447,-473.5855278647532 412.8545565185401,-538.5744776932537 477.19796846603344,-601.3229555443663 549.3792300671596,-660.9857826895964 629.255182668458,-716.7023768430591 716.5849274503774,-767.6065192208318 811.0265255323843,-812.8368489351923 912.134742256368,-851.5480029845673 1019.35993391583,-882.9223065973608 1132.04816757639,-906.1819054657251 1249.4426553733606,-920.6012186471712 1370.6865737800256,-925.5195788073981 1494.8273258419215,-920.353915221197 1620.822290315892,-904.6113247367168 1747.5460861084955,-877.9013669386372 1873.7993634699228,-839.9479122127332 1998.3191151849035,-790.6003655079006 2119.790481651562,-729.8440844942388 2236.8600034180427,-657.8098086995699 2348.1502536424928,-574.7819162307078 2452.2757612647943,-481.2053269929389 2547.8601136597167,-377.69087603584273 2633.5541054318674,-265.0189878782799 2708.054778081885,-144.14149247834746 2770.1251738057854,-16.181435966720784 2818.6146059830453,117.56924562414508 2852.4792292726797,255.65430363682123 2870.802673986195,396.46009869937643 2872.8164928615797,538.2249379937621 2857.9201538438324,679.050873288649 2825.700300300899,816.9179775649243 2775.948990577883,949.7010884145845 2708.6806222130062,1075.1889749074262 2624.147242785296,1191.1058515633003 2522.8519494939187,1295.1351287467453 2405.560083414611,1384.9452535578937 2273.3079321404193,1458.2174595053425 2127.408666357822,1512.6752073217074 1969.4552519615606,1546.1150636589898 1801.3200996539715,1556.4387295413733 1625.1512386419377,1541.6858968432755 1443.3648300193415,1500.0675792014677 1258.6338686332483,1429.9995341758586 1073.872959548667,1330.135366663946 892.2190964601526,1199.398880068707 717.008414298416,1037.0152220328393 551.7489365334128,842.5403561842995 400.0893889063459,615.8883807693746 265.78420509393015,357.35620973308403 152.65490562024763,67.64513216041118 64.54808862701844,-252.1212276089439 5.290329278668366,-600.3830141098697 -21.35965705083953,-975.1347546339757 -11.76117479965339,-1373.9209021234265 37.55643816324613,-1793.8366931115886 129.84046748530022,-2231.5346664949707 268.06072569250784,-2683.237141673157 454.8553258004851,-3144.75490046802 692.4769924481957,-3611.5122564427543 982.7406158775078,-4078.5786280952634 1326.9727859065974,-4540.706659309128 1725.964067832749,-4992.376851919278 2179.9247991704888,-5427.848591901709 2688.4451945503097,-5841.217363242222 3250.4605452925134,-6226.477852788173 3864.222289524185,-6577.592556252089 4527.275707696511,-6888.565401011645 5236.444966553136,-7153.519806522093 5987.826191670621,-7366.7805091840955 6776.789194427922,-7522.958386617122 7597.988413579369,-7617.037427759631 8445.383554558044,-7644.4629113793535 9312.270321419637,-7601.229777785474 10191.321537301554,-7483.97010816387 11074.638839925363,-7290.038564378998 11953.815019682339,-7017.594590655043 12820.006940045683,-6665.680138586505 13664.018844451366,-6234.291649697308 14476.395711543006,-5724.445016460827 15247.526173113609,-5138.2322444089 15967.754357674121,-4478.868555679894 16627.499868964638,-3750.7287089368165 17217.38495466161,-2959.3713627251323 17728.367767908156,-2111.5503795629083 18151.880475101563,-1215.2120567018567 18479.970819698785,-279.477376697505 18705.44561580137,685.3915034109763 18822.014519164946,1668.041161712846 18824.432309275377,2656.0936958698894 18708.6378164708,3636.230680342571 18471.887544972116,4594.294400620508 18112.88197824982,5515.406260679482 17631.882509460054,6384.102039245163 17030.8169186595,7184.483439058401 16313.371321934046,7900.385133367411 15485.066547050426,8515.556267727134 14553.316947135741,9013.85512551684 13527.469749341333,9379.455415261029 12418.82315029938,9597.062389926683 11240.621514977132,9652.136766118178 10008.02621047817,9531.124177892301 8738.06081127409,9221.687679276178 7449.529646734923,8712.94060507753 6162.908924718524,7995.676914854991 4900.209955016184,7062.595983586821 3684.814311845357,5908.518668214591 2541.2811131050476,4530.591375321507 1495.1269531024418,2928.4747850635413 572.5794018270144,1104.5138532418 -199.69462592824476,-936.1142800288931 -794.8839281460178,-3185.2777976539082 -1186.3493906418944,-5631.796357937737 -1347.9591636621178,-8261.378981061114 -1254.4397214198452,-11056.596570918706 -881.7394926343568,-13996.891737121547 -207.40137165319356,-17058.628296526444 789.059938196005,-20215.1824994976 2125.78012892904,-23437.077644127294 3818.1717190913555,-26692.163313400306 5878.559652116523,-29945.839997989282 8315.831219333959,-33161.32935397069 11135.105632661245,-36299.98979385739 14337.428684565139,-39321.6765253183 17919.497985327573,-42185.1445398321 21873.42425533171,-44848.492419038965 26186.53406880534,-47269.644176108675 30841.21929161574,-49406.865690053084 35814.83822635578,-51219.31163018312 41079.673170895316,-52667.59811397896 46602.948710404584,-53714.39570308838 52346.91459709797,-54325.0367279736 58268.99652706252,-54468.130351164786 64322.01750099979,-54116.17824161535 70454.49175807076,-53246.18324787137 76610.99250294278,-51840.24303522425 82732.59381037005,-49886.1203011294 88757.38619513279,-47377.78091311732 94621.06438500436,-44315.891132969715 100257.58483882461,-40708.2650083211 105599.88952008568,-36570.253035664755 110580.69137910605,-31925.063333768114 115133.3159252925,-26804.00681956614 119192.59219758287,-21246.658254460803 122695.78537910551,-15300.925531175702 125583.56226542188,-9023.020202080243 127800.9797989686,-2477.323010003504 129298.4859406031,4263.86092880943 130032.92127787632,11120.66162522482 129968.50898434549,18006.12160022904 129077.82006044907,24826.793096853144 127342.70021949815,31483.45570676904 124755.14434705678,37871.953538203205 121318.10417264176,43884.14950583172 117046.21466264165,49408.992703882555 111966.4246849121,54333.693145999154 106118.51771963782,58544.996436485824 99555.50880720642,61930.549195984415 92343.90453967999,64380.344320563556 84563.81372370958,65788.23342817146 76308.8973729598,66053.49216314986 67686.14792845256,65082.42241175426 58815.48905437254,62789.97395389894 49829.189010746086,59101.36666367699 40871.082456144395,53953.69309886632 32095.597573399788,47297.48021285779 23666.5876264832,39098.18800609346 15755.968431333604,29337.622232305046 8542.16573875535,18015.237810750525 2208.379161556879,5149.309390882007 -3059.3279938383357,-9222.054409576418 -7074.100836718433,-25040.076200574073 -9650.511957388406,-42224.6768732092 -10606.909629923624,-60674.06592557654 -9767.874532099062,-80264.57513322216 -6966.761629293094,-100850.75395422649 -2048.3012436567474,-122265.74303530534 5128.769148395761,-144321.93982256894 14689.073137587497,-166811.96758539695 26737.996430506028,-189509.95614554605 41359.15532529188,-212173.13928210305 58611.9686947288,-234543.77017712634 78529.37068838478,-256351.3524026083 101115.70210957603,-277315.1798574807 126344.81874478293,-297147.17477944534 154158.45479046204,-315555.00852089305 184464.87890617145,-332245.48523605854 217137.8792988533,-346928.16402725363 252016.11259097487,-359319.19049491535 288902.8490301752,-369145.30408626865 327566.1438510694,-376147.9832008395 367739.4612981301,-380087.6857506569 409122.77396605955,-380748.13885350456 451384.1557216642,-377940.6276251981 494161.881557747,-371508.2296983582 537067.0423208101,-361329.9391970132 579686.6763847801,-347324.6215042104 621587.4140546259,-329454.73833730706 662319.6238267523,-307729.7814534921 701422.0426656307,-282209.3528035033 738426.8652441595,-253005.82918673733 772865.2597120012,-220286.55048261353 804273.2700820657,-184275.47238112983 832198.0578473433,-145254.2272424283 856204.4280510661,-103562.54030463932 875881.5778307066,-59597.95294583685 890849.9985426941,-13814.81009384436 900768.4560552059,33277.52483978107 905340.9677785942,81117.25696619648 904323.6895953905,129093.57032560233 897531.6211624545,176550.87434455837 884845.0341932253,222793.88943963253 866215.5253915541,267093.564628393 841671.5937988026,308693.80917768815 811323.6415254277,346819.00898614177 775368.297251999,380682.28667019337 734091.9635777572,409494.45232033683 687873.4923324856,432473.57974719314 637185.8964013971,448855.1308874017 582597.0124817848,457902.539037739 524769.036517072,458918.14989172906 464456.8623453497,451254.4081323271 402505.1643442094,434325.166758365 339844.17652144184,407616.98656602134 277484.1335422916,370700.2844459414 216508.3535281294,323240.18156745675 158064.958017423,265006.8962764503 103357.24113547622,195885.52180055017 53632.71764099867,115885.02579467358 10170.897950614437,25146.307521474497 -25730.142687976404,-76050.85081749887 -52768.31419192563,-187282.09928091677 -69653.07438563368,-307974.2576083089 -75121.87832803257,-437402.6232928503 -67957.36857127177,-574689.989143629 -47005.14171149021,-718807.4972119064 -11191.908382667476,-868577.4416136127 40456.15331049213,-1022678.1160777512 108795.06674105348,-1179650.783037116 194544.9781014097,-1337908.8198356049 298272.57243036793,-1495749.0742703797 420374.23670798884,-1651365.436366386 561060.2300264213,-1802864.6061780376 720340.125748087,-1948284.0087471094 898009.7924987635,-2085611.7773679825 1093640.179590015,-2212808.695306928 1306568.1678248555,-2327831.954407937 1535889.7384434808,-2428660.5569408187 1780455.7010760545,-2513322.1549824285 2038870.205887513,-2579921.089968815 2309492.2455664626,-2626667.364236328 2590440.329411259,-2651906.2468220643 2879600.4845337006,-2654148.1879716483 3174637.7082165573,-2632098.6911669495 3473010.960859261,-2584687.7685028706 3771991.7509149523,-2511098.5853748415 4068686.322005338,-2410794.884142891 4360061.408296385,-2283546.764155746 4642973.477583436,-2129454.3876713393 4914201.332779887,-1948969.178193061 5170481.892092711,-1742912.0799146963 5408548.916618008,-1512488.4546523495 5625174.401965169,-1259299.206112166 5817212.298428805,-985347.7408180042 5981644.172823911,-693042.4006637447 6115626.375068089,-385194.03395384963 6216538.2246473,-65008.40997688646 6282030.68697742,263926.7734363938 6310074.968120634,597660.4894193646 6299010.41909194,931902.7323187905 6247591.108847734,1262054.7004317755 6155030.398727333,1583244.825875697 6021042.831336323,1890370.5944603158 5845882.634301359,2178146.02255799 5630378.134630261,2441154.5786669846 5375961.383164054,2673907.25539139 5084692.30132738,2870905.413759677 4759276.684513826,3026707.937092601 4403077.42833784,3136002.1470029727 4020118.385901947,3193677.8506227382 3615080.316317215,3194903.80692217 3193288.447009892,3135205.822173502 2760691.2447555284,3010545.611413469 2323830.072681425,2817399.4953960706 1889799.5023071035,2552835.9422272546 1466198.15054635,2214590.910859742 1061070.0208237674,1801139.9111017515 682836.4442651279,1311765.662921509 340218.840359528,746620.2177214554 42152.645469405594,106780.39694751568 -202307.10914874743,-605704.5901581637 -384087.95192778687,-1387774.4668221166 -494209.10262879566,-2235329.2278453773 -523896.6880005523,-3143211.5261581875 -464704.01283672726,-4105201.0669235424 -308635.72593241115,-5114021.8842503885 -48274.59416750953,-6161363.273957795 323090.520782117,-7237915.037784667 811336.9978016266,-8333417.560335451 1421382.7161285519,-9436727.09048149 2157063.936101737,-10535896.434727073 3021018.566082749,-11618271.092259992 4014576.6321009076,-12670600.671341646 5137659.79895261,-13679165.225892164 6388691.80282606,-14629915.941374466 7764521.644485927,-15508629.38238194 9260361.357278774,-16301074.292923529 10869740.104551444,-16993189.716712706 12584476.275586588,-17571272.981435485 14394669.137185398,-18022175.870797 16288711.45918928,-18333507.09408175 18253324.36645352,-18493838.95807412 20273615.477329668,-18492915.953644738 22333161.170182943,-18321862.792331476 24414113.57584404,-17973389.27007703 26497332.62651228,-17441989.199158046 28562543.202237986,-16724130.538418371 30588517.106828663,-15818433.76927444 32553279.27837224,-14725835.513513137 34434337.29844312,-13449734.371380785 36208932.91173836,-11996115.977360943 37854313.90800134,-10373654.328555457 39348024.35461302,-8593786.538595844 40668210.80543856,-6670758.310009234 41793941.75397463,-4621637.6010168 42705537.25134324,-2466294.189458655 43384905.2772302,-227343.10702344734 43815881.13959587,2069949.7692232707 43984565.89214696,4397801.324868685 43879659.502411835,6726084.975712171 43492784.28305503,9022545.1194138 42818793.91994167,11253052.324686421 41856063.29741086,13381898.808161015 40606754.23896157,15372133.217610773 39077052.25454001,17185933.185386013 37277369.41786726,18785013.543024004 35222508.592334785,20131067.50297333 32931784.384944648,21186237.5226736 30429096.436997395,21913611.976835612 27742950.959447302,22277743.183076303 24906426.79101984,22245181.761905365 21957082.69847552,21785021.77254577 18936803.15006645,20869450.55956537 15891580.37362966,19474296.78031651 12871231.157270126,17579569.668285802 9929047.559594478,15169982.231165864 7121381.463328606,12235450.793128824 4507163.725228238,8771563.07649794 2147359.5397718097,4780006.886461153 104362.53650921065,268951.42083583 -1558668.9375700795,-4746626.718289007 -2778528.9483263036,-10244680.577157717 -3492729.1551897693,-16195900.469151193 -3640305.7225810653,-22563599.286553003 -3162660.699265088,-29303682.143076524 -2004429.6870081748,-36364706.3806671 -114366.74442595143,-43688037.254285604 2553763.3495940836,-51208103.77426746 6040296.102202226,-58852758.24015064 10378792.883896695,-66543741.946880564 15595192.954501852,-74197258.38992529 21707004.28274618,-81724654.04765747 28722545.849391237,-89033205.48662564 36640254.33413076,-96027010.12893754 45448068.150397666,-102607976.55352223 55122901.69914744,-108676908.68864186 65630222.453302,-114134676.70742044 76923743.05091627,-118883465.87846711 88945239.96099262,-122828093.06835337 101624509.48678286,-125877379.0614216 114879470.8849138,-127945563.37577653 128616425.20449628,-128953746.83386837 142730477.09055045,-128831345.81389445 157106125.25509804,-127517540.88681923 171618025.60415316,-124962701.45574489 186131929.12930533,-121129767.082152 200505794.64093727,-115995565.429159 214591074.25151142,-109552046.19677055 228234167.22955206,-101807410.0883079 241278035.4584494,-92787111.7497315 253563971.2720711,-82534715.78153467 264933505.92700696,-71112585.35148042 275230444.4369094,-58602383.648420766 284303009.9679591,-45105369.42294905 292006078.5078837,-30742469.16680938 298203482.1078235,-15654110.093728084 302770356.6915702,199.9999996292135" stroke="white" stroke-width="1.5" /></svg>