<?xml version="1.0" encoding="utf-8" ?>
<svg baseProfile="full" height="400" version="1.1" width="400" xmlns="http://www.w3.org/2000/svg" xmlns:ev="http://www.w3.org/2001/xml-events" xmlns:xlink="http://www.w3.org/1999/xlink"><defs /><rect fill="black" height="100%" width="100%" x="0" y="0" /><circle cx="200" cy="200" fill="yellow" r="20" stroke="orange" stroke-width="2" /><polyline fill="none" points="198.82695771495588,200.0 198.7783098292291,199.93586684681495 198.73472261603112,199.86679033922755 198.6968506169459,199.79325109388668 198.66531364612646,199.71581586588604 198.64068650770008,199.6351362156409 198.6234885763228,199.55194602976775 198.6141733610719,199.46705784999696 198.61311818111324,199.3813579758977 198.6206140887832,199.29580032015312 198.6368561817221,199.21139900921804 198.66193445033184,199.12921973731588 198.69582530995982,199.0503698977723 198.73838396868572,198.97598753249716 198.7893377812904,198.90722915786196 198.84828073778883,198.84525654309493 198.91466923072355,198.79122253544412 198.98781923915172,198.7462560445274 199.06690505886039,198.71144631627402 199.15095969777354,198.68782664443276 199.23887704275188,198.67635768452598 199.32941588905064,198.67791055111428 199.42120590662634,198.6932498940437 199.51275559834343,198.72301716271093 199.60246228402426,198.76771427903947 199.6886241213414,198.82768794955413 199.76945414993375,198.90311485441723 199.84309631902914,198.99398795630796 199.9076434315049,199.10010417435856 199.96115690896585,199.22105366779942 200.0016882533575,199.35621097032174 200.02730205117047,199.50472820928016 200.03610033677214,199.66553063359964 200.02624810218555,199.83731466051702 199.99599971210998,200.01854863402423 199.94372595553799,200.20747646705672 199.86794143939153,200.40212431511546 199.7673320055917,200.60031040118466 199.64078183132466,200.79965808062812 199.48739985339586,200.99761220037405 199.30654514189627,201.19145876934962 199.09785083634952,201.37834791706334 198.8612462494564,201.55532007477473 198.59697673987418,201.71933526920446 198.30562095649992,201.8673053726405 197.9881050627717,201.99612910605245 197.6457135608218,202.10272954395094 197.28009635212098,202.18409382176998 196.89327169370372,202.23731469910265 196.4876247372597,202.2596335858091 196.06590137234718,202.24848459348695 195.6311971346993,202.20153913273168 195.18694098593878,202.1167505376937 194.73687382180916,201.9923981643678 194.28502162200024,201.82713037851204 193.83566321544248,201.62000582377726 193.393292700141,201.37053234119966 192.96257662569093,201.0787028982978 192.54830611897015,200.74502788022653 192.1553442084551,200.370563097318 191.7885686793992,199.9569328733742 191.4528108699126,199.50634759769048 191.15279089589134,199.02161515132735 190.89304986979863,198.50614565485998 190.67787975348605,197.96394903088665 190.51125155749733,197.39962493001264 190.39674266752579,196.8183446337908 190.337464141783,196.2258246220094 190.3359888798466,195.62829157446515 190.3942816129679,195.03243866850968 190.5136317067188,194.4453731326366 190.69458979817097,193.87455512247854 190.93690931048644,193.32772809796663 191.23949389690057,192.81284099808983 191.6003518626954,192.33796263157086 192.01655859710746,191.9111888266128 192.48422801650295,191.54054300931205 192.9984939750333,191.2338710069115 193.55350253894332,190.9987309972207 194.14241594549054,190.8422796475998 194.75742897696765,190.77115560417232 195.38979837470393,190.79136160261046 196.0298857974536,190.9081465741168 196.66721469376645,191.12588921226208 197.29054130949166,191.44798454630848 197.8879398904249,191.87673513274433 198.44690196742525,192.4132485272264 198.95444942847843,193.05734273229956 199.3972608907562,193.80746133056647 199.76181068753212,194.66060000697072 200.03451958186506,195.6122461362506 200.20191611346885,196.65633306131403 200.25080727952684,197.78521061438263 200.1684570469371,198.98963333459545 199.94277099527372,200.25876771294435 199.56248519942562,201.58021964781273 199.01735728132647,202.9400831221805 198.2983573943661,204.32301091723824 197.3978567549654,205.71230795754556 196.30981120636804,207.09004764115065 195.02993719289083,208.43721124578025 193.55587744151583,209.73385022119953 191.88735359452306,210.9592708803729 190.02630301439868,212.09224069072457 187.97699699284843,213.111215044551 185.7461376414796,213.99458305774988 183.3429308243745,214.7209306120959 180.7791326138051,215.26931852219647 178.0690669108004,215.6195733781427 175.229612072814,215.75258829311136 172.28015463154733,215.65063047632592 169.24250846475275,215.2976522605674 166.1407981057677,214.67960194463092 163.00130523224658,213.78473056960556 159.85227776914928,212.6038905384402 156.72370146801558,211.1308218157037 153.64703428183253,209.36242131336823 150.6549043387201,207.29899098324904 147.78077282398948,204.94446010155625 145.05856360406824,202.30657724963805 142.52226196199703,199.39706757079833 140.20548535683412,196.2317510189328 138.14102966204055,192.83061751298965 136.36039487400768,189.21785517362375 134.89329480422214,185.4218281459182 133.76715576971728,181.47500090497377 133.00660976878288,177.41380639901516 132.6329880645888,173.27845590607865 132.66382149054897,169.11268906310877 133.112354130062,164.96346316724924 133.98707730198865,160.88058154420037 135.29129099437955,156.9162615227031 137.02270002538512,153.12464334153134 139.1730522652696,149.56124213892198 141.7278262208726,146.28234602633145 144.66597515824765,143.34436412007636 147.95973471589915,140.80312928627546 151.57450063626197,138.71316123626858 155.46878281407288,137.1268964803726 159.59424132541878,136.09389249586945 163.89580946008476,135.66001427843753 168.31190803321,135.86661221239805 172.77475440243,136.74970090145774 177.2107686672864,138.33914923529215 181.54107848386514,140.65789251558635 185.6821227960485,143.72117791548843 189.54635357362193,147.53585488667116 193.0430333665107,152.09972234674166 196.07912514488885,157.4009445657041 198.5602695095418,163.4175476136323 200.39184293984493,170.1170080237925 201.48008931354138,177.455944958629 201.7333154999202,185.37992663420326 201.06314041385977,193.82340105742497 199.38578554134918,202.70976025710817 196.6233936271462,211.9515461438729 192.7053609724149,221.45080491662003 187.56966764512524,231.09959554843644 181.16418887949268,240.78065633830974 173.44797005348576,250.36823181538767 164.3924469058086,259.7290604405769 153.98259210550523,268.7235215794301 142.2179689372727,277.2069381363994 129.11367273133305,285.0310290619984 114.70114076442914,292.04550369196306 99.02881170248848,298.09978757421834 82.16261625796265,303.04486711058485 64.18628160559828,306.73523801295 45.20143324659682,309.0309402771545 25.327479436912995,309.7996601427298 4.701265001860065,308.91887736477344 -16.52351665623206,306.27803410857655 -38.1771622938646,301.7806999216198 -60.075054723334006,295.3467055750449 -82.0190195209911,286.91421713130524 -103.79894319883203,276.44172041947945 -125.19465028448082,263.9098852167387 -145.97803336470395,249.32327787425265 -165.9154266046416,232.71189091698122 -184.77020959284278,214.13245831545746 -202.30562461840998,193.66952569703383 -218.28778670235687,171.43624575384143 -232.48886192489067,147.5748705307973 -244.6903858611107,122.25691415083571 -254.6866903093843,95.6829618628236 -262.2884030213034,68.08210408181876 -267.3259818731176,39.71097732734003 -269.65324191039304,10.852397643145366 -269.15083100524976,-18.186423814512864 -265.72960754349685,-47.076088826593036 -259.333871661074,-75.46764472473114 -249.94440012738056,-102.99563727527897 -237.58123407692642,-129.28157402554905 -222.30616846666697,-153.93778254148458 -204.22489242665728,-176.5716420112464 -183.4887306139173,-196.79016060353922 -160.29593730550863,-214.20486481971608 -134.89249730239425,-228.43696093706836 -107.57239077916108,-239.1227225841614 -78.67728301675857,-245.91905259867195 -48.595604498214385,-248.50916167829365 -17.760992123964314,-246.6083010329055 13.34993170255342,-239.9694813698494 44.220458683519325,-228.3891061830734 74.29738215525181,-211.71244355982265 102.99527381699265,-189.83885765270526 129.70144244684826,-162.7267186747186 153.78155841892374,-130.3979088407043 174.58591846308283,-92.94184117582694 191.45631542618148,-50.51890860869304 203.7334679007523,-3.363282324443958 210.76495459294492,48.21501897678712 211.91358832359015,103.82886344698478 206.56615471976332,163.01361360683092 194.1424310910101,225.2276703283489 174.10439183173628,289.8540091894092 145.96549809048443,356.2027565032692 109.29996154191856,423.514842558891 63.751865033191734,490.9667587193111 9.044016797219228,557.6764330759208 -55.01359002722211,622.710226423932 -128.51584451763534,685.0910365035193 -211.4552459761125,743.8074838545969 -303.7154278465494,797.8241373905296 -405.06561171506576,846.0927220536631 -515.1561229938114,887.5642348357306 -633.5150955049822,921.2018792063886 -759.5464859226412,945.9947117846923 -892.5295108472042,960.971879114972 -1031.619609153804,965.217306884689 -1175.8510201672407,957.8846890708555 -1324.1410541916273,938.2126105530504 -1475.2961160075047,905.5396239191527 -1628.019524214213,859.3190897500161 -1780.9211498394852,799.1335798356478 -1932.5288765884748,724.7086347780076 -2081.301862615757,635.9256614967071 -2225.6455599596247,532.8337524854203 -2363.928422989779,415.6602074664962 -2494.5002116254186,284.81953953922994 -2615.711768945523,140.92075217281354 -2725.9361264254594,-15.227319406446014 -2823.590763705471,-182.61279863546406 -2907.160823858569,-360.0198726681473 -2975.223059926709,-546.0303783425001 -3026.4702643978544,-739.02801561832 -3059.7359106763747,-937.2053121760628 -3074.018714835375,-1138.57343693066 -3068.506807414576,-1340.9749313241568 -3042.601189121959,-1542.0993955796732 -2995.9381313846793,-1739.502132833561 -2928.41017313572,-1930.625717465714 -2840.1853593615174,-2112.824415319524 -2731.7243650921605,-2283.391343186427 -2603.7951509823342,-2439.58821331502 -2457.4848036661965,-2578.677466221443 -2294.208225889954,-2697.956552195921 -2115.7133582081183,-2794.794079128822 -1924.0826358933664,-2866.667502154668 -1721.7304117277722,-2911.2019897052364 -1511.396107520432,-2926.2100614599776 -1296.1328944817574,-2909.7315569945335 -1079.291744853039,-2860.073460270055 -864.5007442526735,-2775.8490751041872 -655.6396057897506,-2656.016021030915 -456.8093827762825,-2499.9124981034165 -272.2974364256069,-2307.2912538023666 -106.53777776961323,-2078.350675842821 35.933031400237724,-1813.7624318440628 150.524166096927,-1514.6950810121718 232.64269267690062,-1182.8330946024964 277.7491991384958,-820.3907413319305 281.4164404767393,-430.12032137862116 239.39046997984434,-15.314268338369232 147.65366093998136,420.19931738870844 2.488959797026837,872.06808781871 -199.45534777337662,1335.4341424663503 -461.10113087289767,1804.9602536696223 -784.8769891348297,2274.86379988198 -1172.6567734911273,2738.9585006619645 -1625.7009489034035,3190.7039562958307 -2144.6017207911805,3623.2628980840927 -2729.2328618644497,4029.5659530888083 -3378.7051803973,4402.383620505197 -4091.328563889847,4734.405046805232 -4864.581512890192,5018.3230745600085 -5695.089047904789,5246.924926613357 -6578.609827373967,5413.1877744087615 -7510.033256298684,5510.378328179778 -8483.387293113625,5532.155478913897 -9491.857576782819,5472.674919042956 -10527.818397011071,5326.694572312163 -11582.875918239464,5089.679574862756 -12647.923943248199,4757.90547087443 -13713.21236542928,4328.558218781528 -14768.428311020147,3799.829549701104 -15802.78981490881,3171.0061798350894 -16805.151707327095,2442.551354699688 -17764.123215335323,1616.1771964603302 -18668.196604149838,694.9063376524366 -19505.88600093273,-316.87864375828144 -20265.875359683407,-1413.3994207543562 -20937.174342528942,-2587.461104268578 -21509.280712325133,-3830.4476845657514 -21972.34765650175,-5132.334873218242 -22317.354295044217,-6481.721352217062 -22536.27746901632,-7865.879275212188 -22622.26276274655,-9270.824682996918 -22569.79258538779,-10681.4082919883 -22374.849028671404,-12081.426891764972 -22035.069129899373,-13453.755347184244 -21549.890105066606,-14780.498944006464 -20920.682078853122,-16043.165546423863 -20150.865828292877,-17222.856752855874 -19246.01307722666,-18300.47694557223 -18213.926930949296,-19256.958833167075 -17064.700126263593,-20073.50378593887 -15810.748892630125,-20731.83496638909 -14466.82037607475,-21214.46096411524 -13049.971769425098,-21504.94736031605 -11579.519520311505,-21588.19337607818 -10076.957251759544,-21450.71050481326 -8565.841328225077,-21080.899796979036 -7071.643331190849,-20469.32425888039 -5621.569071060064,-19608.972651205455 -4244.344153637592,-18495.51083122347 -2969.9665370508833,-17127.51667932507 -1829.4269550760423,-15506.694589678762 -854.398541537397,-13638.06548980742 -76.89746327923945,-11530.128388118334 471.083148769687,-9194.989534715487 757.9631950845221,-6648.455421602368 752.9862703752237,-3910.086045538287 426.6472588205263,-1003.2051116764867 -248.86733437077072,2045.135830635362 -1299.2309509809309,5204.241956839842 -2747.5254949270184,8439.910648519573 -4613.792218486556,11714.619609100615 -6914.590737730869,14987.768796358509 -9662.572220219408,18215.976763788276 -12866.073016854723,21353.431365601526 -16528.735175960013,24352.29410069148 -20649.160374855728,27163.156654993065 -25220.603826649854,29735.547455718865 -30230.71466233237,32018.485282243244 -35661.329145934316,33961.07619497613 -41488.3228495709,35513.14925416988 -47681.5275925767,36625.92571466263 -54204.718532535386,37252.71561008807 -61015.67628470026,37349.63489158204 -68066.32834010418,36876.33557241237 -75302.97335275773,35796.74066246465 -82666.59107515527,34079.77506652009 -90093.23984258708,31700.08307920658 -97514.54254556436,28638.722648738825 -104858.26099241932,24883.826212193493 -112048.95745869027,20431.217637806367 -119008.74105536856,15284.974654806929 -125658.09533508237,9457.926118046875 -131916.78230558144,2972.0735517206126 -137704.81674661426,-4141.073348676114 -142943.5034437013,-11840.257198035031 -147556.52867572434,-20074.338800833884 -151471.0960389703,-28782.27716121139 -154619.095475396,-37893.23152257428 -156938.29321513994,-47326.79234651929 -158373.52926096087,-56993.34699979481 -158877.90805383565,-66794.5846287899 -158413.96708297433,-76624.1432697315 -156954.80745845576,-86368.40067768624 -154485.16986859473,-95907.40866911954 -151002.43891438926,-105115.96897389501 -146517.55856647788,-113864.8466981897 -141055.84144127992,-122022.11552702614 -134657.65475625012,-129454.62676325811 -127378.9662116523,-136029.5922302298 -119291.73366813867,-141616.26898117363 -110484.12335365058,-146087.7316846615 -101060.5424452499,-149322.7165185875 -91141.47323420097,-151207.51843304854 -80863.09769575816,-151637.92176395844 -70376.7031454518,-150521.14242392933 -59847.86176452033,-147777.75829497335 -49455.37910858208,-143343.60302911274 -39390.00926204814,-137171.59725796743 -29852.937049012777,-129233.49025011409 -21054.03063861016,-119521.48436371464 -13209.87096466136,-108049.71424831782 -6541.567587883638,-94855.55267870866 -1272.3739325551467,-80000.71517769872 2374.881806399562,-63572.13622349979 4180.5304032097865,-45682.59085730944 3930.936936482876,-26471.036920795457 1421.4913606901168,-6102.654970091716 -3540.3152466445163,15231.434862895756 -11131.761370759306,37314.79716002661 -21511.748133898924,59906.66172303753 -34817.672809799435,82743.27193898718 -51162.363127217504,105539.60885071503 -70631.11466027884,127991.49462897803 -93278.87515681822,149778.07467001767 -119127.62076789848,170564.67277946803 -148163.96976892484,190006.0088905534 -180337.0794649541,207749.76354706884 -215556.87151348824,223440.4680108936 -253692.62984541216,236723.69338631953 -294572.0136919749,247250.50665074744 -337980.52591238456,254682.15600955562 -383661.4738482719,258694.94262215073 -431316.4563012291,258985.23055005906 -480606.405938652,255274.54183272802 -531153.2114902653,247314.67898075862 -582541.9385208916,234892.81296911248 -634323.6613811585,217836.47109413013 -686018.9121831344,196018.35590691143 -737121.7453682004,169360.92392897923 -787104.4086852488,137840.6510685408 -835422.6032433746,101491.91065742444 -881521.3068190616,60410.3898852389 -924841.1258668719,14755.971177491374 -964825.1327968289,-35244.993200098674 -1000926.1361413054,-89298.08228494282 -1032614.3223468892,-147039.94849674025 -1059385.1992063846,-208038.2609904368 -1080767.7625126082,-271792.50469537213 -1096332.7994931242,-337735.68245367287 -1105701.2351006938,-405236.95961303706 -1108552.4204172948,-473605.2813419087 -1104632.2564096635,-542093.98286277 -1093761.041179434,-609906.4018013077 -1075840.9248068077,-676202.4900000434 -1050862.8530136207,-740106.4095355654 -1018912.8792841983,-800715.0844142202 -980177.7248860429,-857107.6656234402 -934949.4675230462,-908355.8530206472 -883629.2422150571,-953535.0030989074 -826729.8424987227,-991735.9371411903 -764877.1162395865,-1022077.3498383876 -698810.0582708392,-1043718.7042858498 -629379.5117470303,-1055873.4855836348 -557545.4015183724,-1057822.6722488939 -484372.43596774427,-1048928.272511886 -411024.2285597751,-1028646.7615197187 -338755.8067572908,-996542.2457246862 -268904.4938678909,-952299.1724953107 -202879.16867021812,-895734.3964612716 -142147.9281881601,-826808.4094843654 -88224.20055898695,-745635.5386216687 -42651.37738077183,-652492.9161856975 -6986.058003980342,-547828.0281646027 17219.978292402364,-432264.6519785404 28438.93269392874,-306607.00192864967 25187.116815205427,-171841.91082952608 6045.866243258487,-29138.889263130455 -30316.970554591448,120152.08032138659 -85125.19729300389,274505.13881671714 -159472.33791816066,432225.637718226 -254299.87456512623,591459.7970547816 -370375.9381261351,750206.9858893887 -508274.7474562198,906334.6481356471 -668357.1037762355,1057595.8650466367 -850752.2542594214,1201649.5123484067 -1055341.4428056797,1336082.9348925678 -1281743.4663395784,1458437.0252134951 -1529302.5513626295,1566233.5548559322 -1797078.8577288312,1657004.5691861596 -2083841.904513176,1728323.6180467124 -2388067.196265568,1777838.5565242674 -2707936.306793873,1803305.6127645292 -3041340.651856708,1802624.3837016728 -3385889.151780174,1773873.3853066454 -3738919.9501128285,1715345.7520456035 -4097516.3151304615,1625584.6512314137 -4458526.80749025,1503417.95240258 -4818589.749872534,1347991.6703250508 -5174161.983363722,1158801.683219524 -5521551.84101812,935723.2158857483 -5856956.211949352,679037.5710137836 -6176501.509969094,389455.5915905895 -6476288.299797072,68137.34333650053 -6752439.271863261,-283292.48110748694 -7001150.194410734,-662733.9146786447 -7218743.4097433,-1067606.2763924543 -7401723.3808435155,-1494848.3566052811 -7546833.73605243,-1940924.6017497953 -7651115.203920662,-2401837.623723865 -7711963.7785991,-2873147.3022219837 -7727188.409138763,-3349996.684258934 -7695067.464715496,-3827144.814266515 -7614403.1929777125,-4299006.550869624 -7484573.361306423,-4759699.343300306 -7305579.251613407,-5203096.852028834 -7078089.169175479,-5622889.20532798 -6803476.625642299,-6012649.586995695 -6483852.3664212525,-6365906.751300248 -6122089.433707151,-6676222.960434192 -5721840.48896317,-6937276.738515697 -5287546.663035757,-7142949.735685956 -4824437.258540355,-7287416.897419302 -4338519.697794756,-7365239.039152503 -3836559.190363449,-7371456.836160358 -3326047.6870202017,-7301685.154704587 -2815161.7912811884,-7152206.574322982 -2312709.415090818,-6920062.884174544 -1828065.0910582792,-6603143.280061905 -1371093.9889801585,-6200267.944530264 -952064.8281936595,-5711265.661648755 -581552.0283668053,-5137044.102000877 -270327.5982519611,-4479651.413228871 -29243.423147798225,-3742327.7682606955 130895.22438525969,-2929545.558024391 199463.96149467313,-2047036.9687914697 166160.20739491007,-1101807.7568726132 21149.4189847833,-102136.12560378385 -244784.81662940112,942444.2784249432 -640088.4453694734,2021178.1011987242 -1172284.1138978393,3122139.4493043 -1847819.713939989,4232301.020295204 -2671920.283745674,5337621.537558868 -3648445.3382384926,6423151.6270222645 -4779753.770754726,7473158.0527784 -6066578.518748585,8471265.99474072 -7507913.2113614855,9400618.805726923 -9100913.016397214,10244054.430211158 -10840811.876282293,10984297.404901635 -12720858.265522717,11604165.09509945 -14732271.514752943,12086786.5535075 -16864220.627770044,12415832.123039257 -19103827.367327705,12575751.645668123 -21436195.202681012,12552018.889064826 -23844465.497029833,12331379.56542185 -26309902.066641796,11902100.096281642 -28812004.966492135,11254214.077234102 -31328654.05114244,10379763.220901612 -33836282.52613807,9273029.409505038 -36310080.3467625,7930754.373233965 -38724226.94032506,6352343.431204174 -41052152.32852741,4540049.69135082 -43266825.31154951,2499135.10729132 -45341066.94946848,238004.8367998565 -47247887.14401168,-2231688.55950902 -48960841.6894058,-4894974.397381134 -50454406.73050086,-7733529.749918397 -51704367.14502668,-10725684.80823119 -52688214.9606374,-13846470.301280621 -53385553.532396674,-17067709.204047915 -53778502.8487379,-20358154.561573207 -53852101.01001067,-23683674.805182446 -53594696.639762774,-27007487.43865606 -52998326.751128316,-30290441.42922011 -52059074.405137256,-33491348.054840215 -50777400.37025494,-36567359.33993099 -49158442.92844976,-39474392.56152244 -47212279.97764705,-42167598.633221895 -44954147.65808432,-44601871.481687255 -42404609.88475926,-46732394.827212706 -39589673.4031067,-48515222.07446916 -36540843.302700564,-49907884.320048764 -33295114.32573452,-50870020.79934509 -29894893.793948065,-51364025.435998425 -26387852.5491644,-51355702.532520734 -22826700.957232688,-50814924.06085251 -19268887.76036829,-49716280.48673774 -15776220.37489671,-48039716.60213075 -12414406.115277324,-45771143.45545845 -9252514.77482454,-42903017.17026528 -6362364.001354005,-39434875.238012485 -3817829.9634157997,-35373820.769447155 -1694086.9000092468,-30734945.19920191 -66780.27271768003,-25541680.06745795 988860.6180162848,-19826068.75698256 1398963.5443316973,-13628949.448861254 1091999.6459191733,-7000041.079732229 -194.14650892156664,2075.2601736059205 -1941366.8844103129,7310086.254344741 -4789790.9098095875,14848193.44686419 -8597196.97767411,22532482.25614176 -13407720.321515832,30271416.48507109 -19256871.535604842,37966460.574855804 -26170546.76859838,45512830.410883166 -34164092.20613422,52800371.94371807 -43241438.148720406,59714565.24865265 -53394318.151685774,66137649.92736689 -64601588.672748104,71949865.97111991 -76828664.45801437,77030802.3744111 -90027084.47866392,81260843.93089709 -104134222.59974873,84522704.78084622 -119073156.31308262,86703035.43434227 -134752705.7940312,87694088.19095986 -151067654.24555513,87395424.13992569 -167899158.97325256,85715643.28096314 -185115360.8963051,82574117.7817228 -202572198.2481271,77902707.00991814 -220114428.06719065,71647431.7739598 -237576856.73625997,63770084.20163714 -254785778.31349316,54249748.90807373 -271560616.731384,43084210.57664761 -287715765.14223266,30291222.823152214 -303062612.787893,15909613.25569894 -317411746.79602283,200.00000038871752" stroke="white" stroke-width="1.5" /></svg>