<?xml version="1.0" encoding="utf-8" ?>
<svg baseProfile="full" height="400" version="1.1" width="400" xmlns="http://www.w3.org/2000/svg" xmlns:ev="http://www.w3.org/2001/xml-events" xmlns:xlink="http://www.w3.org/1999/xlink"><defs /><rect fill="black" height="100%" width="100%" x="0" y="0" /><circle cx="200" cy="200" fill="yellow" r="20" stroke="orange" stroke-width="2" /><polyline fill="none" points="199.61251639463902,200.0 199.69498166603816,199.98398793081566 199.78449225197937,199.97731113005622 199.8803316119169,199.98101421935638 199.98165401579135,199.99609373571425 200.0874863313529,200.02348287876043 200.19673151344077,200.06403603642568 200.30817386571454,200.11851326706758 200.420486127999,200.1875649285972 200.532238423252,200.27171665609202 200.64190907730497,200.3713548985566 200.7478973021047,200.48671323265813 200.848537709379,200.61785967620398 200.94211659665848,200.7646852266253 201.02688992164482,200.9268938495949 201.1011028542833,201.10399413996257 201.16301076885512,201.29529287128298 201.21090151126486,201.49989064122164 201.24311874979293,201.71667980794987 201.25808619125675,201.9443448972271 201.2543324191509,202.18136564118615 201.2305160862905,202.42602278790307 201.18545117215166,202.67640679569814 201.11813199488512,202.9304294978816 201.02775765026033,203.18583879246577 200.9137555349718,203.44023637740946 200.77580360018075,203.69109851547242 200.61385097323756,203.93579977402672 200.42813658157817,204.17163964452715 200.21920541311934,204.39587190416157 199.98792205238507,204.60573653890705 199.735481141318,204.7984940032738 199.46341442846818,204.97146154792645 199.1735940901651,205.12205130267338 198.86823203245578,205.24780975957637 198.54987491308373,205.34645825975443 198.2213946585566,205.4159340484489 197.88597429231942,205.45443142671928 197.54708893605186,205.46044249538258 197.20848189690687,205.43279695813544 196.87413580879195,205.37070042683823 196.5482388551808,205.27377065330288 196.23514616396076,205.1420710992075 195.93933653093697,204.97614124950732 195.66536469720745,204.77702307543993 195.41780947600836,204.54628306139 195.20121809605183,204.2860292258793 195.02004720001707,203.99892259111104 194.8786010078369,203.68818258806678 194.7809672238138,203.35758592528862 194.73095133343938,203.0114584992403 194.7320099990676,202.65465998248783 194.78718432228874,202.29256079272187 194.89903379392268,201.93101122059443 195.06957179896543,201.5763025770774 195.3002035825558,201.23512031106094 195.59166761308379,200.91448914456308 195.94398129898443,200.62171037546324 196.3563920256499,200.36429160521706 196.82733447742157,200.1498692605567 197.35439519604805,199.98612439261254 197.93428530067587,199.88069235297277 198.56282225484668,199.84106706260005 199.2349215127161,199.87450070481754 199.9445988095282,199.98789978625385 200.68498378018253,200.18771861812183 201.4483454945866,200.47985137286634 202.2261303896462,200.8695239663876 203.0090129556466,201.36118710204204 203.7869594000472,201.95841188775583 204.54930436518615,202.66378950020044 205.28484061909526,203.47883641845166 205.98192147180293,204.40390678233666 206.6285754945833,205.43811344630882 207.2126329382327,206.57925929683475 207.72186306044176,207.82378037872695 208.14412138368425,209.1667023325743 208.46750571593861,210.6016115805578 208.68051957930834,212.12064261085425 208.77224150867548,213.7144826011198 208.7324985064652,215.3723944890594 208.5520417730741,217.08225944294838 208.2227226782278,218.83063950759455 207.73766679922485,220.60286100232554 207.09144373043068,222.38311902819567 206.28023026720317,224.15460320308318 205.30196448929192,225.89964448737595 204.15648821616563,227.5998826915453 202.84567528205585,229.23645397241773 201.37354308393594,230.79019733004168 199.74634489313044,232.24187881468043 197.97264049245015,233.5724318469034 196.06334280704849,234.76321174653228 194.0317383396199,235.79626226210257 191.89347939976133,236.65459159551665 189.6665463335253,237.32245513086366 187.37117821219795,237.78564180627458 185.0297707284531,238.03176081757118 182.66674037208853,238.05052511680825 180.30835431484724,237.83402797204317 177.98252582215073,237.37700869117919 175.7185754261686,236.67710348678173 173.5469585362277,235.73507737444316 171.49896062530834,234.55503295840407 169.60636161094342,233.14459196826326 167.90107154038805,231.51504547287075 166.4147401881536,229.68146881462656 165.1783436731464,227.6627974816097 164.221751696571,225.4818603679035 163.57327948395647,223.16536716519053 163.25922897835832,220.74384698153582 163.3034242699679,218.25153569589025 163.72674665286837,215.7262100281031 164.5466750652777,213.20896683219672 165.77683798809215,210.7439467025587 167.42658314077215,208.37800161491953 169.5005715166733,206.16030700201628 171.99840243520057,204.14191938232304 174.91427634942195,202.37528141293387 178.2367021293095,200.9136770175406 181.94825543746302,199.8106400395711 186.0253946216209,199.11932068029736 190.43834026289002,198.8918147927218 195.15102413776967,199.17846190430217 200.12111287403894,200.02711862451298 205.30011100487064,201.48241484583377 210.63354745273753,203.58500085760514 216.06124870666525,206.37079414966595 221.51770109632557,209.87023527502396 226.93250361890097,214.10756265628896 232.23091174550427,219.10011664765014 237.3344715305473,224.85768349157567 242.16174217857665,231.3818900264034 246.62910399888221,238.66566009748618 250.65164741016525,246.69274359128372 254.14413735855908,255.43732884047242 257.02204619642197,264.8637488316743 259.202646751801,274.9262911799884 260.60615601557777,285.5691212118566 261.1569186022426,296.7263267172593 260.7846179189495,308.32209199295414 259.4255018244946,320.2710077014847 257.02360849406955,332.4785218191015 253.5319772461542,344.8415355447537 248.9138282537947,357.2491464993576 243.14369437253177,369.5835398693146 236.20848778964094,381.72102635272483 228.10848385155623,393.53322386518056 218.85820427474422,404.8883779710254 208.48718200489898,415.6528139442563 197.0405902735476,425.69251125178823 184.57971892149672,434.8747891135059 171.18228182434854,443.0700896531964 156.94254027349913,450.1538430386023 141.97122844081605,456.0083969454008 126.39526858791889,460.5249906980943 110.35726546987101,463.6057525706974 94.01477142300186,465.16569700251097 77.53931590899708,465.13469693016305 61.11519580012731,463.4594050874921 44.9380254177228,460.1050970101871 29.21304825817637,455.05740763200305 14.153215434564913,448.3239328021476 -0.022960899565333648,439.9356668156207 -13.093767525198388,429.94824715423044 -24.836848480107363,418.4429781074374 -35.03194320173577,405.527605797697 -43.463782486698506,391.3368183896363 -49.92511682638752,376.0324469274175 -54.21984832800021,359.8033443266723 -56.16623421393933,342.8649225485747 -55.600126858951285,325.45833090084466 -52.37821252352825,307.849261735342 -46.38120842447401,290.3263735303731 -37.51697559936875,273.1993254379708 -25.723503220497918,256.796421816365 -10.971718643688774,241.46187002369544 6.731923415665705,227.55265978271777 27.343119560260135,215.43507769382302 50.777711036731375,205.4808759252493 76.91003772323548,198.06311968945195 105.57169738653621,193.55174376235817 136.5507527615227,192.30885395199311 169.59142628419485,194.68381500454376 204.39431890942433,201.00817187533997 240.61718536412752,211.59045651229007 277.8762934300259,226.7109372203861 315.74838943182397,246.61637221674738 353.77328604949076,271.51483306435637 391.45708190994446,301.5706672074606 428.27601518609805,336.89967174217065 463.68094569211394,377.56455276410156 497.1024517747085,423.57074606638025 527.9565197333865,474.8626755463068 555.6507946386137,531.3205253532656 579.5913523467038,592.7576005173413 599.1899433325221,658.9183484887145 613.8716497830072,729.4771106530089 623.0828883301233,804.0376684384831 626.2996819715675,882.1336430800674 623.0361162568662,963.2298014479619 612.8528868349167,1046.724312593639 595.365838098564,1131.9519908365378 570.2543860556411,1218.1885513483553 537.2697128367321,1304.655893342098 496.2426155483271,1390.528414208746 447.0908886225981,1474.9403453510417 389.8261165226994,1556.9940871422884 324.5597527484854,1635.7695065053813 251.50836165552715,1710.3341461958091 170.99790174250987,1779.7542801294196 83.46693285726695,1843.106734182492 -10.531364716644902,1899.4913769821844 -110.32846405640186,1948.0441704855964 -215.14115397802414,1987.9506558112296 -324.073674832194,2018.4597360416733 -436.1213999085412,2038.8976047715626 -550.1761202487056,2048.681657244536 -665.0329745955366,2047.3342102238958 -779.399048537101,2034.4958474891066 -891.9036477529912,2009.938200256362 -1001.1102297756104,1973.575966091807 -1105.5299570056486,1925.4779662166686 -1203.6368110594935,1865.8770396781758 -1293.8841850926929,1795.1785738469255 -1374.7228467775167,1713.9674742493899 -1444.6201403766665,1623.0133829810607 -1502.080272132696,1523.2739639738602 -1545.6654992860663,1415.8960852854048 -1574.0180197621937,1302.2147433817042 -1585.882337261949,1183.7495921094583 -1580.127855492351,1062.1989596744966 -1555.7714359341505,939.431260396608 -1511.9996362118163,817.4737341958842 -1448.1903311594492,698.4984755390586 -1363.933406407638,584.8057447515764 -1259.050205084885,478.8045879554272 -1133.6114023511893,382.9908271550104 -987.952980258636,299.92251885264164 -822.6899771366886,232.19301768018508 -638.7276915698342,182.40182049303465 -437.27003127898706,153.1234057601248 -219.82471200021502,146.87432243711635 11.794969104121066,166.07882133795454 255.472036796217,213.03335980416634 508.79164025427065,289.8703466717394 769.0509434639891,398.5215285957855 1033.2732540503905,540.6814501464177 1298.2264984381134,717.7714481640317 1560.4461043773854,930.9046650896739 1816.2623011243174,1180.8525858073876 2061.8317932883847,1468.0136174085528 2293.17370699636,1792.3842406973395 2506.209647076218,2153.5332657175177 2696.8076420110647,2550.579720654064 2860.8296900866444,2982.174893755458 2994.1825561531627,3446.4890311017957 3092.871404493919,3941.2031688426505 3153.0557902392984,4463.506546753373 3171.1074704285875,5010.100010497704 3143.669437081695,5577.205762814414 3067.715519402603,6160.583769036288 2940.6098514181135,6755.555060071648 2760.16545588758,7357.032106506777 2524.701156125482,7959.556361203445 2233.095995366824,8557.342985163441 1884.8403193551992,9144.332683114773 1480.082662781604,9714.250481958878 1019.6715748334145,10260.671187730966 505.19152414140336,10777.091155999055 -61.0079605271668,11257.005907698243 -675.790729850702,11693.99301839908 -1335.2208101998126,12081.799605162449 -2034.5582809925468,12414.433632742743 -2768.264893167086,12686.258161336782 -3530.020011819273,12892.087562764833 -4312.747376683277,13027.284642384138 -5108.653072639248,13087.857521673464 -5909.274989259191,13070.555062793668 -6705.543924182105,12972.959553031387 -7487.856350642377,12793.575315338612 -8246.158725750858,12531.91187262089 -8970.043064313668,12188.560269360667 -9648.853344415098,11765.261145857496 -10271.802147210032,11264.963168985134 -10828.09676605602,10691.870449932754 -11307.073851108817,10051.47762478376 -11698.341486798476,9350.591338688708 -11991.927433314973,8597.336959308725 -12178.432101591743,7801.14945042362 -12249.184676606734,6972.74746217096 -12196.400658513725,6124.089840103548 -12013.338957605618,5268.313920664857 -11694.45655984968,4419.655165043795 -11235.558677157069,3593.3478856576435 -10633.942213051358,2805.507038409863 -9888.530312299878,2072.9912877673673 -8999.995724570868,1413.2477986937427 -7970.87069934104,844.1394673665211 -6805.641143979516,383.7555689191606 -5510.822820836422,50.20707243317773 -4095.01743367738,-138.59185194080754 -2568.946560054732,-165.1543347693932 -945.461524990588,-12.6612489992076 760.4725168749936,334.7907399574151 2531.819818677548,891.9360981680596 4349.545888699924,1672.0851393029168 6192.718968621622,2686.8695675053723 8038.641863255354,3945.992074758321 9863.014513008993,5456.983386460692 11640.127344014621,7224.970283801193 13343.085050267706,9252.458231531811 14944.060060329026,11539.132301325051 16414.57452173757,14081.680100705471 17725.809203303266,16873.640392534973 18848.937273369203,19905.28101751045 19755.480465845583,23163.509609823443 20417.684700592483,26631.820422222147 20808.91178617326,30290.280349912733 20904.04340701942,34115.556962318966 20679.89318978278,38080.99101758725 20115.622261419452,42156.71554743328 19193.153360785906,46309.82316073726 17897.578252702595,50504.58272519737 16217.552924983775,54702.706050082685 14145.674831158356,58863.66461320217 11678.83628061875,62945.05575592152 8818.547979536193,66903.01711647252 5571.226695490918,70692.6873897511 1948.4410613160176,74268.71079787343 -2032.8903465015865,77585.78193723358 -6350.354318689801,80599.22694265192 -10975.957092427338,83265.61618600776 -15876.102207316148,85543.40301460841 -21011.636688617895,87393.58234310646 -26337.969563153914,88780.36225198147 -31805.26608181359,89671.84112576027 -37358.72030689705,90040.68229569141 -42938.90792579785,89864.77764503955 -48482.220279298985,89127.89120097936 -53921.37964874431,87820.27338547399 -59186.03483856523,85939.23633844762 -64203.43502735676,83489.6805694174 -68899.17875141189,80484.56314731415 -73198.0337400623,76945.29771049309 -77024.82215421725,72902.07677697281 -80305.3646010919,68394.10716468736 -82967.47512324229,63469.74979772671 -84941.99820352985,58186.55578051388 -86163.87770512952,52611.19136943492 -86573.24659342597,46819.245360798945 -86116.5252813151,40894.91344358852 -84747.51551802273,34930.55523184428 -82428.47592116325,29026.1209893727 -79131.16454936187,23288.44648143089 -74837.83334498132,17830.41592474777 -69542.15885941988,12769.994647252312 -63250.0934223671,8229.134798739111 -55980.62084554396,4332.559257863409 -47766.40087377978,1206.4307419014099 -38654.28692320179,-1023.0849757339399 -28705.70218747578,-2231.3509202595005 -17996.859956042532,-2296.873113944147 -6618.814978527174,-1102.982511367338 5322.666070153529,1460.4317576200137 17707.425518764656,5495.156006392923 30401.435839156962,11092.872271249824 43257.52791191973,18333.38654557468 56116.33122023461,27282.887590434453 68807.42845868682,37992.26007990462 81150.72454258753,50495.47675633595 92958.02733480344,64808.0949421921 104034.83459316636,80925.8831562067 114182.31870752535,98823.60368934307 123199.49776984731,118453.97678939432 130885.57843498205,139746.8515635556 137042.45291814988,162608.60782036243 141477.32937484758,186921.81182371546 144005.47185903604,212545.1473136861 144453.02309749936,239313.6411568156 142659.88049508,267039.2006224395 138482.59314126417,295511.4765454709 131797.24516819112,324499.0635394941 122502.28865869319,353751.04498117126 110521.28746520459,382998.88671757554 95805.53182019258,411958.67937714147 78336.48253852982,440333.72482293437 58128.00297214263,467817.4577097058 35228.33671480768,494096.68833494704 9721.78940412292,518855.14805525786 -18269.926141633387,541777.3135240576 -48586.72075661964,562552.4809509692 -81029.57299141261,580879.0565473175 -115360.4210243599,596469.0243699945 -151302.53378469305,609052.5479747388 -188541.38879171477,618382.6577095333 -226726.07975361866,624239.9711909913 -265471.27192334173,626437.3905843404 -304359.717600865,624824.716824188 -342945.33803368197,619293.1179413053 -380756.8713406344,609779.3862715247 -417302.07901869953,596269.9175852763 -452072.4961460278,578804.3441554361 -484548.7026347703,557478.7535378587 -514206.08488953154,532448.4254283016 -540521.0490751927,503930.0204297401 -562977.6389823594,472203.1569562518 -581074.5032979964,437611.31584549503 -594332.1490466997,400562.01657371013 -602300.410174108,361526.21427668043 -604566.0528116554,321036.87307735893 -600760.4318078692,279686.678493634 -590567.1067543175,238124.85992292129 -573729.320093195,197053.10333526577 -550057.2350864368,157220.544300815 -519434.82756892854,119417.84226415255 -481826.32261242607,84470.34847593876 -437282.0655980001,53230.39210617412 -385943.7168317054,26568.721683781863 -328048.65983001806,5365.152011007498 -263933.5158267249,-9501.520047734846 -194036.66097730878,-17164.25415273152 -118899.6482120118,-16779.06941188471 -39167.44275038699,-7536.808539909028 44412.611043251294,11324.752498468635 130993.16351285885,40508.57717381935 219630.63446604589,80645.96249661746 309290.43562722014,132284.203935564 398853.6727058032,195874.48967958125 487125.3427252778,271760.19054910814 572844.0247024227,360165.71809005097 654693.0430579202,461186.12788281665 731313.0634344774,574777.6476971298 801316.0600754605,700749.3106614323 863300.5727761884,838755.8719488374 915868.1498831456,988292.1834829678 957640.8521247689,1148689.1947300953 987279.6704706751,1319111.7386855904 1003503.6900098769,1498558.250625499 1005109.8113017607,1685862.553048684 990992.8210868959,1879697.8234829013 960165.5859564549,2078582.8425032322 911779.125882159,2280890.5974814342 845142.3097176575,2484859.2933539297 759740.9022087471,2688605.7952051004 655255.6819986291,2890141.4988891296 531579.3428796235,3087390.595474201 388831.88640298764,3278210.663241084 227374.21317242988,3460415.4875945286 47819.62294907266,3631799.9748773454 -148957.0597085783,3790166.991074688 -361813.0069846886,3933355.9211523193 -589333.8145798976,4059272.709710357 -829833.0729191282,4165921.1092014727 -1081355.2989023412,4251434.828629986 -1341682.4169801348,4314110.243904334 -1608343.9468315388,4352439.301361469 -1878631.0193495487,4365142.218926597 -2149614.3031722214,4351199.56542586 -2418165.8808630165,4309883.278239383 -2680985.067334902,4240786.163263036 -2934628.1135807447,4143849.409515552 -3175541.6866316716,4019387.6441361103 -3400099.962389407,3868111.0523855425 -3604645.1120999674,3691144.0919713103 -3785530.906342555,3490040.3418953153 -3939169.103139088,3266793.0433526523 -4062078.22983322,3023840.91420435 -4150934.3124729074,2764068.8493566406 -4202623.052323136,2490803.15707646 -4214292.897628659,2207801.0258495184 -4183408.4106563036,1919233.9677503249 -4107803.2861995334,1629665.0422583846 -3985732.3389536287,1344019.7287421948 -3815921.7442907672,1067550.3860668442 -3597616.790784406,805794.3134864491 -3330626.3841252755,564525.5075837355 -3015363.531571302,349700.2948416004 -2652881.0344600347,167397.10770217894 -2244901.6242014775,23750.762822113007 -1793841.7950978328,-75118.30729090265 -1302828.6157559971,-123179.3250151976 -775708.8401166371,-114570.30395704348 -217049.6894579812,-43680.323327549595 367869.2617408564,94765.87504876671 973073.5904891716,305621.86607145116 1591921.3312152931,593233.0740158928 2217140.3991865837,961350.9065301855 2840876.3429663284,1413048.6007943724 3454750.5231097117,1950639.9458345915 4049928.691087562,2575602.087243364 4617199.81128388,3288503.6506428467 5147064.830941305,4088939.4369506272 5629834.959386905,4975472.944764694 6055738.870171903,5945587.961979009 6415038.08946134,6995650.439201844 6698149.682809753,8120881.810949756 6895775.202176901,9315344.866368094 6999034.707604126,10571943.189002255 6999604.535412705,11882435.084730882 6889857.3491990995,13237462.798402242 6663002.883444574,14626597.68324967 6313227.674409172,16038401.833299417 5835831.971336236,17460506.518469844 5227361.935019217,18879707.575908888 4485735.1625994295,20282077.71058882 3610357.529108068,21653095.444805987 2602229.3096710504,22977790.23181732 1464038.543247008,24240903.01543241 200239.62088304738,25427061.277274113 -1182884.8698405812,26520967.36915746 -2677180.9360725004,27507598.682383727 -4272600.393467903,28372417.96165576 -5957200.15493826,29101591.83194485 -7717165.08292266,29682215.375264812 -9536855.700329227,30102540.374353964 -11398881.83282917,30352204.63522709 -13284203.004478483,30422459.613996584 -15172256.13091756,30306393.408819664 -17041110.75130521,29999146.03884169 -18867651.713750906,29498113.822007686 -20627788.881818186,28803139.585917857 -22296693.06460736,27916685.40363569 -23849056.993336685,26843984.542426094 -25259379.77696908,25593169.350408927 -26502272.872419115,24175371.88635679 -27552785.205710728,22604794.223233357 -28386744.683965076,20898745.528022572 -28981112.949388098,19077643.239931926 -29314349.850861013,17164975.936602008 -29366783.751860257,15187225.79342632 -29120983.46094404,13173748.903753253 -28562127.268703207,11156612.136258954 -27678364.3086759,9170385.658138238 -26461163.234975446,7251890.746262721 -24905643.031878565,5439903.039724788 -23010880.645729657,3774811.9521389143 -20780190.062318854,2298237.555938319 -18221367.44808254,1052606.8682331017 -15346897.035301486,80692.10247915701 -12174112.563615877,-574885.9044896805 -8725309.295715744,-872185.231904513 -5027801.9063507235,-770496.8787506985 -1113923.902412117,-230920.0982661898 2979035.331510996,783046.6798261744 7208959.253214414,2304905.661465265 11529101.448581235,4364557.096075999 15888353.617323786,6987701.63132776 20231585.656491067,10195255.39742074 24500058.436041903,14002785.966920286 28631908.996146202,18419977.62260175 32562706.97670087,23450134.566520903 36226080.123579904,29089730.81032432 39554405.712309174,35328015.492076874 42479563.698078446,42146682.261712 44933746.35225814,49519611.15964238 46850318.0917852,57412691.07614775 48164718.161687836,65783730.419077665 48815397.80616714,74582463.03165096 48744782.574208185,83750655.6895594 47900249.46635204,93222322.66758554 46235107.755039275,102924051.90246232 43709571.51709688,112775446.19441472 40291711.21872547,122689681.69011119 35958371.10585304,132574184.58181979 30696038.69067016,142331425.5504198 24501652.302713092,151859829.9844601 17383332.503357463,161054800.4363173 9361023.15839624,169809846.14422157 467028.135615113,178017812.77166098 -9253570.047377594,185572203.8113235 -19742622.747353896,192368583.3886478 -30928771.261294592,198306048.50107226 -42727457.84645694,203288757.06512377 -55041101.94424656,207227496.5377063 -67759450.48903574,210041276.35415217 -80760109.61247908,211658926.00826114 -93909263.28721064,212020679.31342432 -107062582.4998152,211079724.25381204 -120066326.41347608,208803696.88499707 -132758634.69042736,205176096.99820018 -144971007.7109934,200197602.7445286 -156529968.87030834,193887261.1468464 -167258900.47932035,186283531.42722496 -176980042.069858,177445158.36536014 -185516637.13340992,167451853.4935252 -192695211.54142883,156404762.83950096 -198347964.13521463,144426701.1603603 -202315247.27161723,131662134.17349744 -204448112.50434932,118276892.1896152 -204610894.10850072,104457600.78440069 -202683800.85759073,90410816.7058557 -198565484.37845814,76361860.0928752 -192175550.57970995,62553337.263172634 -183456979.11419487,49243351.79583439 -172378414.63375768,36703405.36153613 -158936292.7627187,25215993.712896418 -143156763.29020575,15071907.404811885 -125097373.09313269,6567251.131464849 -104848471.78044753,200.0000001284026" stroke="white" stroke-width="1.5" /></svg>