<?xml version="1.0" encoding="utf-8" ?>
<svg baseProfile="full" height="400" version="1.1" width="400" xmlns="http://www.w3.org/2000/svg" xmlns:ev="http://www.w3.org/2001/xml-events" xmlns:xlink="http://www.w3.org/1999/xlink"><defs /><rect fill="black" height="100%" width="100%" x="0" y="0" /><circle cx="200" cy="200" fill="yellow" r="20" stroke="orange" stroke-width="2" /><polyline fill="none" points="199.5233130157109,200.0 199.5625596137623,199.9770363779859 199.60708115566257,199.958633113475 199.65658497277886,199.94551608423092 199.71069377927665,199.9384003308407 199.76894459840327,199.9379806433904 199.8307886795889,199.94492177644563 199.89559247364895,199.95984838939663 199.96263972471098,199.98333481915253 200.03113472752008,200.0158948014283 200.10020678753315,200.0579712653002 200.16891590875167,200.1099263331537 200.23625972063547,200.17203166444858 200.30118164078135,200.2444592867307 200.3625802544504,200.32727306087136 200.4193198756182,200.42042092948134 200.4702422371538,200.5237280976866 200.51417924017125,200.63689129385736 200.54996667473242,200.75947425434276 200.57645880610735,200.89090457069307 200.59254370294042,201.03047203018988 200.5971591661539,201.177328570699 200.58930910048636,201.33048995889533 200.5680801544621,201.48883928678555 200.53265843957465,201.65113236520438 200.48234612580356,201.816005074643 200.4165776985265,201.98198271347525 200.33493565169965,202.14749136149496 200.23716538410696,202.31087125282116 200.12318905976758,202.4703921268478 199.99311819046764,202.6242704992232 199.84726469806284,202.77068876708944 199.6861502168701,202.90781603426487 199.51051340229932,203.0338305130161 199.3213150210099,203.1469433298685 199.11974061041462,203.24542353389884 198.9072005113732,203.32762407751366 198.68532709744878,203.39200851223288 198.45596904713702,203.43717811587868 198.22118253196746,203.46189914322864 197.98321922322188,203.46512987005212 197.74451105306684,203.44604708093385 197.50765170196416,203.40407163481592 197.27537482305283,203.33889272916807 197.05052905549402,203.25049047451984 196.83604992218784,203.13915638612744 196.63492875240718,203.00551139914958 196.45017881630648,202.85052101817618 196.2847989054559,202.67550722156815 196.14173464099363,202.48215675604453 196.02383783810396,202.2725254774721 195.93382430170905,202.0490384199869 195.87423047287382,201.81448530745845 195.84736938779997,201.57201125888434 195.85528645075706,201.32510248248792 195.89971555817388,201.07756680192134 195.98203614270992,200.83350891181527 196.1032317327608,200.59730031863808 196.2638506438624,200.37354398603236 196.46396943320667,200.16703377099788 196.7031597563643,199.9827088079174 196.98045926576944,199.82560307082977 197.29434718305478,199.70079041981293 197.64272516149452,199.6133255140475 198.02290403025395,199.56818105122204 198.4315969785811,199.57018186947374 198.86491969531681,199.62393652305232 199.31839792706896,199.73376701530623 199.78698285711212,199.9036374413514 200.26507463668523,200.1370823567901 200.746554321128,200.43713574698768 201.22482437561789,200.8062615225729 201.69285781966744,201.24628650989598 202.1432559766751,201.7583369390849 202.56831468548518,202.34277945604367 202.96009871603,202.99916769726366 203.31052401175944,203.72619546676137 203.61144725889065,204.52165754200317 203.85476215784328,205.38241910961585 204.03250164697687,206.30439479142902 204.13694520443653,207.28253816649814 204.16073023215287,208.31084262491922 204.09696640851305,209.38235430433622 203.93935178467277,210.48919776010598 203.68228929569676,211.62261490536088 203.32100226351386,212.7730176281327 202.85164738586147,213.93005434991704 202.2714236357702,215.08269063442523 201.5786754414479,216.2193037878634 200.77298847834663,217.32779121419398 199.8552763853221,218.39569210198067 198.82785671658766,219.4103218253208 197.69451446194674,220.35891824195744 196.46055151070126,221.22879886906145 195.13282050063313,222.00752771369156 193.7197415832607,222.68309033304504 192.23130075066504,223.24407550192643 190.67902850776218,223.67986167412636 189.0759578368924,223.9808062434522 187.43656058860358,224.13843544190064 185.77666164281194,224.1456325598439 184.113330417071,223.99682203907253 182.46474955206475,223.68814687699984 180.85006087690823,223.21763669213647 179.28918904627648,222.58536373980698 177.80264354532474,221.79358413558296 176.41130007400372,220.84686154442315 175.13616264656335,219.7521706281784 173.99810807132488,218.51897761479606 173.01761480642085,217.1592954607749 172.2144785151383,215.68771122534798 171.60751696548738,214.1213834612713 171.214267228203,212.48000765329553 171.05067842094843,210.78574800124832 171.1308035193097,209.06313414950696 171.4664940024577,207.3389218073081 172.06710131833023,205.64191658310486 172.93918933511554,204.00276076873408 174.08626208809295,202.45368325264056 175.50851122908017,201.02821321236794 177.2025876356732,199.7608587309534 179.16140163529508,198.68675199517415 181.3739562413254,197.84126326066914 183.82521768226474,197.25958630416295 186.49602732751737,196.97629862023732 189.36305887306963,197.02490015278343 192.39882434587687,197.43733487249136 195.57173211663545,198.2435000142433 198.84619967707067,199.47074826456924 202.18282344099777,201.14338863171565 205.5386072701454,203.2821921315973 208.8672508089099,205.90390877417275 212.11949804057727,209.02080262892605 215.24354575580085,212.64021197766107 218.1855108578707,216.7641417205445 220.88995462511116,221.38889528049273 223.30046121605972,226.50475324534216 225.36026684625074,232.09570589116578 227.0129351956312,238.13924653873227 228.20307373282327,244.60623240445574 228.87708477727543,251.46081921421782 228.9839442740844,258.66047535118906 228.47600044072004,266.15608070645004 227.3097836722448,273.89211469425317 225.4468183743756,281.80693708397894 222.85442674452,289.8331643913924 219.50651395236474,297.8981435673654 215.38432369617652,305.9245236288932 210.47715274084487,313.83092470269173 204.7830127905109,321.5327027050503 198.30922792336526,328.94280657363845 191.07295582899192,335.9727236097816 183.1016212485604,342.53350709691426 174.4332503331069,348.53687894743257 165.11669511154102,353.8963987122121 155.21173790276552,358.5286888819571 144.78906631855463,362.35470503565114 133.93011048682638,365.3010380678823 122.7267352778996,367.30123447353475 111.28078163626682,368.29711950559 99.70345260210888,368.2401069700875 88.11454124263363,367.0924785021668 76.64149949329968,364.82861439883544 65.41834882060502,361.4361574873856 54.58443564641718,356.9170911021389 44.28303660136373,351.28871204425576 34.659820881784896,344.5844794261062 25.861179249025838,336.85472056787313 18.032431507093605,328.1671756324122 11.315926598538681,318.6073634653011 5.849051740638714,308.2787521584164 1.7621692547056398,297.3027191822686 -0.8234981105695738,285.8182875366653 -1.7980105276678273,273.9816262496976 -1.0648583913738605,261.96530570663265 1.4569128507962148,249.9573007044553 5.830628251506681,238.15973679209287 12.099988454320595,226.7873783543748 20.287184438984013,216.06586000914166 30.39115269007442,206.2296661871946 42.38600187072677,197.5198672255912 56.21964203032087,190.18162389380737 71.81264693260391,184.4614759534785 89.05737923814566,180.60443408615998 107.81740699540666,178.8508982668906 127.92723817536339,179.43342936837604 149.19239781752134,182.57340440279236 171.3898697372115,188.47758929479247 194.26892167769307,197.33466637783482 217.55232928388293,209.3117568628128 240.9380103416222,224.5509812889312 264.10107638768454,243.16610337770464 286.69630407795523,265.239304718374 308.3610236377669,290.81813926500547 328.7184163490082,319.9127176722003 347.3812073996815,352.493171990856 363.9557345857188,388.4874511446693 378.0463673707766,427.77949687341345 389.260244741971,470.2078484271738 397.21229421794,515.5647221994265 401.5304883449685,563.5956096756659 401.86128913616574,613.999433535341 397.8752252503589,666.4292974734127 389.27254135676196,720.4938603079836 375.7888541757411,775.759359225624 357.2007452132758,831.7523006093754 333.3312163049139,887.9628298293904 304.05493084100704,943.8487836965331 269.30316104313397,998.8404210393979 229.06835998272467,1052.3458181300907 183.40827625300048,1103.7569065292778 132.4495293943324,1152.4561214322282 76.39056539354983,1197.8236188704886 15.503913883491663,1239.2450102635628 -49.86232789581851,1276.1195529352358 -119.2838547156386,1307.868725431544 -192.2604211177217,1333.9451069304887 -268.21707490488353,1353.841470851381 -346.5064058000071,1367.099994093179 -426.41184939591574,1373.3214752977653 -507.15207608106346,1372.1744482890924 -587.8864831202626,1363.4040705254436 -667.7217955673104,1346.8406611606238 -745.7197682761183,1322.407759277677 -820.9059670649018,1290.1295701670201 -892.2795921972051,1250.1376662928383 -958.8242919137822,1202.676809940555 -1019.519897936553,1148.1097665655157 -1073.354998841108,1086.9209816558255 -1119.3402511424283,1019.7189995516726 -1156.5223120580138,947.2375101824596 -1183.998262411939,870.3349191245843 -1200.9303732412022,789.9923477582325 -1206.561055587348,707.3099835989497 -1200.227819932079,623.5017160624236 -1181.3780599981455,539.8880099262507 -1149.5834654183375,457.88698749096596 -1104.5538593047488,379.0037107972873 -1046.1502502502062,304.8176770824218 -974.3968839765969,236.96856378241367 -889.4920779105496,177.14028360909302 -791.8176225998238,127.0434353216656 -681.9465372468871,88.39626152007966 -560.648972871602,62.904250831883814 -428.8960658367721,52.23854794467684 -287.8615567641409,58.01336073054054 -138.92100528706794,81.76257887697034 16.351550353044388,124.91584262575806 176.18961817684254,188.7743230604543 338.64306637006166,274.4864965000519 501.5898030837519,383.0242145733781 662.7503684818263,515.1593880881237 819.7054522513462,671.4416164988534 969.9163142722532,852.1771052585324 1110.7480485228325,1057.4092202628508 1239.4955909021933,1286.9010316415263 1353.4123308527285,1540.120198018186 1449.7411448775113,1816.226536784731 1525.7476277232581,2114.062615688961 1578.7552546296083,2432.147685930382 1606.182166154059,2768.6752568612596 1605.5792262219716,3121.5145872135085 1574.6689648001848,3488.2163374900815 1511.3849795469566,3866.0225928071577 1413.9113365586054,4251.881425150315 1280.721479528775,4642.466118883707 1110.616129872456,5034.199133664364 902.7596382471935,5423.280824978527 656.7142310147592,5805.7228847184615 372.47158408805524,6177.386403017187 50.481151826304654,6534.02438848876 -308.3253193409111,6871.328517688161 -702.5136536332643,7184.979816680411 -1130.1320292097676,7470.702908832445 -1588.7012015125756,7724.3233941122835 -2075.2106532850294,7941.82785714988 -2586.1211167674956,8119.425934983398 -3117.37386416288,8253.613811723255 -3664.4071048145815,8341.23844728067 -4222.179761821354,8379.561791820497 -4785.202827300538,8366.324187704477 -5347.578414597403,8299.806117388267 -5903.046537934851,8178.887420003745 -6445.039555934463,8003.103072147436 -6966.744115868545,7772.694610617138 -7461.170331293316,7488.656267344686 -7921.227817850782,7152.774890344435 -8339.80810160876,6767.662739832097 -8709.872802538213,6336.782276364851 -9024.546883902576,5864.462098391816 -9277.216147844812,5355.903240344326 -9461.628049767083,4817.175109548858 -9571.994800732375,4255.200420878697 -9603.097629654252,3677.728582071674 -9550.390987085691,3093.2970897568794 -9410.10539159424,2511.1806159991625 -9179.34754963601,1941.327596943663 -8856.196322104848,1394.2842780880294 -8439.7930668824,881.1063237981984 -7930.424858224313,413.25826068916086 -7329.599072070284,2.5011939970072774 -6640.107832629383,-339.23058853380496 -5866.080840995467,-599.9633312198258 -5013.025152055521,-767.8268677854722 -4087.8505323486206,-831.2058641244203 -3098.879119385774,-778.897909655139 -2055.8382125971443,-600.2769456000234 -969.8351576292791,-285.4603507588229 146.68656100193738,174.5221527595197 1280.0107293311596,787.5597572216869 2415.2318307731007,1560.2941046852436 3536.3587911227355,2497.9573278670487 4626.439109798671,3604.216917483619 5667.703196279071,4881.029807757006 6641.72846712167,6328.508117439632 7529.622483277879,7944.799002112767 8312.224122223575,9725.981062601704 8970.321487647532,11665.979712299219 9484.88496424943,13756.50383143457 9837.313530048048,15987.005927608143 10009.692147160706,18344.667878310953 9985.057768160576,20814.414152111687 9747.67122288906,23378.954190577762 9283.29199416131,26018.85538308795 8579.452654400919,28712.64778223675 7625.72952315815,31436.9613897501 6414.00592197282,34166.69649345275 4938.724252333391,36875.22715707476 3197.1230086303212,39534.63755930663 1189.4547648885668,42115.99044977068 -1080.8188546718527,44589.62654123455 -3606.859192224623,46925.493193718976 -6378.313461416676,49093.50027189525 -9381.212319441565,51063.90057749849 -12597.905706553689,52807.69177903596 -16007.040318693544,54297.03628779525 -19583.581786532726,55505.695068379784 -23298.884284074684,56409.47093027262 -27120.809882449652,56986.65643103296 -31013.89950095135,57218.48113856972 -34939.596789686504,57089.55265646284 -38856.52570926506,56588.28551945524 -42720.821956397005,55707.31182283433 -46486.517724554506,54443.86726605795 -50105.97859132982,52800.14617397055 -53530.39059491428,50783.61901419894 -56710.294808185645,48407.30596220075 -59596.16594794995,45690.00018076595 -62139.03077739117,42656.43468262529 -64291.12128085684,39337.38693647921 -66006.55682148208,35769.715760620005 -67242.04874408664,31996.325525779648 -67957.6201689377,28066.05326021727 -68117.33304737866,24033.47491455562 -67690.0139292002,19958.627799452173 -66649.96933527442,15906.647052547774 -64977.68114865746,11947.314917658072 -62660.47204414914,8154.522622923756 -59693.13068091442,4605.6457182684835 -56078.48619543832,1380.834867385787 -51827.921462377504,-1437.774724448746 -46961.81464753717,-3766.9308394826053 -41509.89876798782,-5523.20307298613 -35511.5293058649,-6623.986027814862 -29015.850399965366,-6988.558685201996 -22081.85076670135,-6539.19051058597 -14778.301281536033,-5202.28363873126 -7183.567084195204,-2909.5393190427117 614.7118456561061,400.86429229572764 8520.07646430453,4783.096913667772 16427.844239733364,10282.518314404464 24225.84646684335,16934.553484989065 31795.30762791484,24763.617035157473 39011.865356974595,33782.103529866945 45746.72772052717,43989.46077303783 51867.96259813774,55371.36315741831 57241.911953065435,67899.0021017105 61734.72174602802,81528.51028066038 65213.97618663904,96200.53580946462 67550.42296127416,111839.98176202545 68619.77404884793,128355.92537713128 68304.56476434098,145641.73003393473 66496.05178217911,163575.3615575175 63096.129116816475,182019.91864909013 58019.23940576634,200824.38522905327 51194.256380713574,219824.61024360103 42566.31315494531,238844.51802915538 32098.54992932431,257697.5496695433 19773.753952677274,276188.3329379907 5595.864092694992,294114.5754127879 -10408.687794598693,311269.17221847223 -28189.826342081233,327442.5166036668 -47672.90011902091,342424.9982556949 -68757.99327831548,356009.67090718995 -91319.50635275977,367995.0674505346 -115206.02947332294,378188.1374839986 -140240.52920435194,386407.2790129968 -166220.8677097324,392485.4329669354 -192920.67008422926,396273.206313994 -220090.55241458662,397641.9869110166 -247459.71949006378,396487.01086203026 -274737.9370821546,392730.3411250453 -301617.8793842213,386323.71445003175 -327777.8475755217,377251.2124972654 -352884.85058825766,365531.712218266 -376598.03405423503,351221.0703220312 -398572.438138392,334413.9969345593 -418463.0595843985,315245.5744225723 -435929.1878618832,293892.3788209183 -450638.9798798399,270573.16339962144 -462274.23238455784,245549.06664697258 -470535.3059647224,219123.31033838633 -475146.1496159675,191640.35740857958 -475859.3701490051,163484.50404040402 -472461.28643781017,135077.88571236134 -464776.904676049,106877.88288457235 -452674.74751944235,79373.9185166905 -436071.46731589676,53083.64665846017 -414936.1716385833,28548.538882427045 -389294.3881105342,6328.883277290636 -359231.5951088944,-13001.780981198137 -324896.2454230656,-28862.761896861288 -286502.2113669646,-40672.80542319501 -244330.58225662133,-47857.12956941704 -198730.7485964242,-49854.84386129942 -150120.71179615412,-46126.6874928293 -98986.56378088328,-36163.01106954128 -45881.08745906061,-19491.918778282332 8578.563330260304,4312.519753722746 63714.137086975876,35622.08559810487 118790.53416043776,74746.35855133213 173021.04491928587,121924.90625993344 225573.57752805707,177319.82797960643 275577.86402702134,241008.76970232738 322133.6204806454,312978.5293473524 364319.62346436124,393119.37132880633 401203.65122893336,481220.16898661567 431853.2236609003,576964.4910125334 455347.06080376793,679927.7440458309 470787.1653874717,789575.4779957924 477311.4207136916,905262.9533291421 474106.5815518756,1026236.0605171277 460421.5226128409,1151633.6710660723 435580.5968869515,1280491.4870751656 398996.944869026,1411747.4421169774 350185.5856503233,1544248.690483692 288776.1122461221,1676760.2045741433 214524.8065484304,1807974.981526674 127325.98414335081,1936525.8402688445 27222.376098223875,2060998.7691205996 -85585.6461211721,2179947.762140675 -210732.19504000203,2291911.059758494 -347679.5294161242,2395428.686120596 -495713.436383133,2489061.1522581307 -653940.5063473415,2571409.17092615 -821287.4615285074,2641134.2060700525 -996502.6842693719,2696979.6576489396 -1178160.073667396,2737792.4613108328 -1364665.3387347092,2762544.8625012725 -1554264.8132362086,2770356.106331149 -1745056.8516964954,2760513.768269892 -1935005.8379486643,2732494.4368020874 -2121958.8072070335,2685983.4479188183 -2303664.6502077524,2620893.3630281882 -2477795.8337419317,2537380.8768647225 -2641972.5362121533,2435861.840537243 -2793789.060020372,2317024.0872360114 -2930842.3450253485,2181837.7545483783 -3050762.3694085963,2031562.8079994295 -3151244.186508848,1867753.4854912849 -3230081.3090039007,1692259.4018682498 -3285200.1157383146,1507223.0769431908 -3314694.92203853,1315073.6789884001 -3316863.322060383,1118516.8088703789 -3290241.382124764,920520.1875819368 -3233638.2376646185,724295.151723852 -3146169.6238760077,533273.9072748661 -3027289.851972877,351082.54146087624 -2876821.729606238,181509.8453226795 -2694983.9160146806,28472.055253005023 -2482415.2002818813,-104026.3201731595 -2240195.1951041333,-211935.361876812 -1969860.9490833632,-291206.0031926049 -1673418.99806724,-337839.34516796673 -1353352.4007022919,-347938.6140106242 -1012622.3353196789,-317763.2900679756 -654663.8746284064,-243784.87914736234 -283375.6014536568,-122743.7410708151 96897.21715707792,48293.66202501814 481386.1189128458,271877.78309517633 864929.7517149568,550120.0013989243 1242011.0743721595,884638.392067245 1606801.4508942063,1276506.0479542154 1953211.5507662862,1726202.7691739798 2274948.87704641,2233570.9484938164 2565581.6497175065,2797776.4840767207 2818608.6743824193,3417275.5442700167 3027534.727127882,4089787.991626938 3185950.8863087767,4812278.244625646 3287619.14230763,5580944.315222013 3326560.5182711994,6391215.70816202 3297145.8397470727,7237760.8037417885 3194188.200419133,8114504.269431705 3013036.0861927867,9014654.95761578 2749666.0421521654,9930744.646944288 2400773.6978530013,10854677.873916637 1963861.9074652933,11777792.979938217 1437324.713850955,12690934.368038144 820525.8111139026,13584535.823674494 113870.1597864978,14448714.606747098 -681132.5961806143,15273375.86841002 -1561814.2499860905,16048326.788024794 -2524305.000562858,16763399.664266588 -3563502.5325025227,17408583.031796675 -4673054.404631777,17974159.712979216 -5845354.859229449,18450850.554909647 -7071557.059002002,18829962.447696723 -8341601.634514193,19103539.072753053 -9644262.281037023,19264512.69210056 -10967208.981223281,19306855.16374236 -12297089.249412935,19225726.25634194 -13619627.595744444,19017617.24112597 -14919743.194921194,18680487.662375525 -16181685.517060451,18213893.132307626 -17389187.43841545,17619101.963663388 -18525635.100077953,16899198.445868637 -19574253.525468446,16059170.58998331 -20518306.74519735,15105980.215359531 -21341310.91366275,14048613.328299025 -22027258.638696026,12898108.851050643 -22560852.48702202,11667563.898941243 -22927745.377787896,10372113.974648636 -23114785.337584157,9028886.651603512 -23110261.866993938,7656927.552853217 -22904150.96456506,6277097.6966142375 -22488355.67304304,4911941.573938818 -21856938.858523685,3585525.6457233783 -21006344.809602823,2323247.2935396694 -19935606.154201943,1151614.628858049 -18646532.539939675,97997.95508256987 -17143877.512853246,-809645.9170980983 -15435480.06182693,-1543074.8821839588 -13532377.374766894,-2074086.2350572997 -11448885.479487063,-2374862.374434413 -9202644.619088866,-2418334.6127728038 -6814626.439475371,-2178561.7709606015 -4309100.346114549,-1631119.829436329 -1713556.718244585,-753498.5198441206 941414.9492707482,474499.6209761401 3622294.474615459,2070362.543735246 6292847.007237266,4048479.4284631116 8914387.130685693,6419764.2269765185 11446090.979952265,9191297.557246357 13845355.701017797,12365992.644710353 16068204.946154336,15942291.088215336 18069738.43814934,19913894.244583286 19804622.956471965,24269535.971131098 21227621.405622903,28992802.33576143 22294155.928273387,34062003.696070574 22960900.3316564,39450104.25961973 23186396.413899146,45124713.86526409 22931688.116880123,51048146.269290425 22160966.803430688,57177547.680150345 20842220.369192056,63465098.66288518 18947878.363261487,69858291.83113395 16455444.81701917,76300286.96424377 13348110.077247309,82730344.3340225 9615332.617628457,89084336.1058058 5253381.571398611,95295334.69874956 265830.5962789062,101294275.95876035 -5336006.340867567,107010693.92362085 -11532706.58038473,112373522.8541628 -18296446.893993206,117311961.07943916 -25590796.88207201,121756390.07035956 -33370605.93590896,125639341.02881631 -41581991.44850415,128896500.17234942 -50162435.21289737,131467742.82302062 -59040994.06622745,133298185.38911724 -68138629.8225972,134339243.37569505 -77368662.39198314,134549682.6911809 -86637348.71137813,133896650.74870494 -95844588.72551098,132356673.20878547 -104884758.15725829,129916601.69039772 -113647666.21358657,126574497.40559906 -122019634.69490255,122340435.46333869 -129884693.22929421,117237214.55428927 -137125883.55547208,111300956.88271087 -143626663.94817883,104581583.56415352 -149272403.03806445,97143151.26816766 -153951950.44659325,89064036.6600051 -157559269.8589911,80436956.18933393 -159995118.41915056,71368809.98954085 -161168754.67536205,61980340.0879878 -160999655.76091787,52405594.78255588 -159419223.08570594,42791192.907000124 -156372454.57046816,33295383.778002568 -151819560.40096065,24086900.87823888 -145737498.4406082,15343609.766906066 -138121404.84230688,7250953.303456415 -128985895.06633797,200.0000001579624" stroke="white" stroke-width="1.5" /></svg>