<?xml version="1.0" encoding="utf-8" ?>
<svg baseProfile="full" height="400" version="1.1" width="400" xmlns="http://www.w3.org/2000/svg" xmlns:ev="http://www.w3.org/2001/xml-events" xmlns:xlink="http://www.w3.org/1999/xlink"><defs /><rect fill="black" height="100%" width="100%" x="0" y="0" /><circle cx="200" cy="200" fill="yellow" r="20" stroke="orange" stroke-width="2" /><polyline fill="none" points="199.63626072784203,200.0 199.6978234687808,199.98413711247804 199.76513545393232,199.97527322711562 199.83767408295415,199.97424646305367 199.91481441732847,199.98186211241298 199.99583002433593,199.9988807047748 200.07989513766492,200.026005838395 200.16608819587728,200.0638719142168 200.2533968069086,200.11303191908075 200.3407241722647,200.1739454137336 200.42689698866846,200.24696688912186 200.5106748277169,200.33233466083612 200.5907609757564,200.43016047626443 200.66581469682336,200.54042001185059 200.73446486130192,200.66294443867352 200.79532486211704,200.79741323322176 200.8470087190233,200.94334840660628 200.88814825010556,201.10011031942574 200.91741116823206,201.26689524098487 200.93351993916104,201.4427348005103 200.93527121758564,201.62649746437444 200.92155565790424,201.81689215712444 200.89137787822625,202.01247412534892 200.84387633937817,202.21165312216309 200.778342885772,202.41270396644975 200.69424168224555,202.61377950509345 200.59122727068512,202.81292597846183 200.46916146268845,203.00810075952526 200.32812877999663,203.19719240551362 200.16845015317733,203.37804292816801 199.99069459131317,203.5484721547738 199.79568854144688,203.70630401761156 199.58452266643081,203.84939457462062 199.35855578376567,203.97566152934675 199.1194157260838,204.08311498408466 198.86899690619123,204.16988912698596 198.609454396033,204.2342745222693 198.34319435953952,204.27475064303178 198.0728607139441,204.29001825902458 197.80131793267384,204.27903126762493 197.53162994508935,204.2410275356141 197.2670351339007,204.175558302745 197.01091747968135,204.08251568593343 196.76677395313433,203.96215781567886 196.5381783091768,203.81513113443867 196.328741491982,203.64248939052118 196.14206891627526,203.44570887096748 195.9817149468014,203.22669943313818 195.85113495428595,202.98781091753574 195.75363538169128,202.73183455392967 195.69232230836352,202.46199900919385 195.67004905100094,202.18196076841613 195.6893633884388,201.89578859072103 195.75245504122978,201.6079418376841 195.86110407607688,201.32324253495187 196.0166309385359,201.0468410963515 196.2198488442468,200.78417571392842 196.47101927850957,200.5409254964261 196.76981136555656,200.32295752207128 197.11526587171136,200.1362680583984 197.5057646001441,199.98691829139085 197.93900591859418,199.88096499750424 198.4119871347721,199.82438668414486 198.9209943968176,199.82300581581106 199.46160074792857,199.88240783320083 200.02867290495212,200.00785775992202 200.61638726034488,200.20421527473886 201.21825552559758,200.47584920524784 201.82716034225916,200.82655247016424 202.43540108451853,201.2594585606899 203.03474996549556,201.77696070539565 203.61651843870143,202.38063490639578 204.17163375745926,203.07116806606328 204.69072541949575,203.84829244195038 205.16422108264567,204.71072767183293 205.582451392032,205.6561315998886 205.93576301071494,206.68106110806934 206.21463899630479,207.78094411299816 206.40982551718892,208.95006382762762 206.51246375572683,210.18155630804387 206.5142257040129,211.46742220897232 206.40745242265834,212.79855355674363 206.1852932066278,214.16477621593395 205.84184398663874,215.5549085760641 205.37228319215995,216.95683681833117 204.77300321477804,218.3576069403179 204.0417355407419,219.74353352019295 203.1776675708741,221.10032499256286 202.18154911667966,222.41322498760132 201.0557865551777,223.66716905535577 199.8045226433486,224.84695586046294 198.43370003755712,225.9374316913689 196.95110663507234,226.92368688524593 195.36640095479336,227.7912625280374 193.69111590315455,228.52636555151798 191.93863942925304,229.116090119177 190.12417076050812,229.54864297347248 188.26465112624734,229.81357021202086 186.37866812076604,229.90198277308235 184.4863331284612,229.80677774480304 182.60913153003335,229.52285247156325 180.76974572848542,229.04730831788154 178.9918513743159,228.37964086892435 177.2998875280649,227.52191329989643 175.71880187197897,226.4789096373399 174.27377246735458,225.25826466627606 172.98990794606888,223.87056731048924 171.89192841950987,222.3294344310113 171.00382978084966,220.6515521515215 170.34853446234925,218.85668202997152 169.9475320828731,216.96762965380307 169.82051377655648,215.01017354161525 169.98500432600162,213.01295258643324 170.45599652677507,211.00731067358745 171.24559247862283,209.02709754773204 172.36265672704243,207.10842548614386 173.81248636110266,205.28938185590223 175.5965033043389,203.6096981869091 177.71197411010806,202.1103769763496 180.15176258625664,200.83327804781138 182.90412052208293,199.8206669139251 185.95252166962445,199.11472822848557 189.27554393815592,198.7570480554004 192.8468044930071,198.7880693198035 196.63495210573615,199.24652543309816 200.6037206814936,200.16885768999188 204.7120473911585,201.58862261286382 208.91425826156052,203.53589595793963 213.1603234288675,206.03668058947588 217.39618354113748,209.11232586318738 221.56414801029538,212.7789665292756 225.6033649667197,217.04698945962787 229.45036186763173,221.92053671438214 233.0396547611236,227.39705358186853 236.30442321957045,233.46689024532398 239.17724693904646,240.1129656428256 241.59089896591766,247.31050188756825 243.47918946966354,255.0268372988711 244.77785294470556,263.22132565621473 245.42547070687579,271.8453287265104 245.3644195660792,280.842308427374 244.54183662014117,290.1480241765688 242.91058924062645,299.6908400417355 240.43023852461357,309.39214524840645 237.06798378211147,319.1668904332152 232.79957503196252,328.92424075001594 227.6101800043182,338.5683455580165 221.49519180917676,347.9992229534672 214.4609632413702,357.11375586226904 206.52545366514536,365.8067948041146 197.71877456728078,373.9723607852824 188.0836201962918,381.50494009439046 177.675570224855,388.30086108225714 166.5632520894632,394.25974132388694 154.82835157978946,399.2859919091138 142.56546137237171,403.2903640112492 129.88175852872115,406.1915213637085 116.89650350391155,407.9176208571532 103.74035493259464,408.4078821786252 90.55449636683585,407.61412627401614 77.48957322294561,405.50226145028876 64.70444043843386,402.0536951678827 52.36472372820512,397.26664902956946 40.64119984108555,391.1573541712804 29.708003830789778,383.7611042231647 19.74067404373949,375.13314325346755 10.914048261353003,365.3493666495626 3.400027185636816,354.5068137427973 -2.634775809019146,342.72393215696263 -7.0314770531794295,330.1405953609989 -9.641432891581616,316.9178567383503 -10.32879126179364,303.2374256475166 -8.973055581268596,289.30085343606004 -5.471629889523427,275.3284201744831 0.2576876538718409,261.55771598329454 8.274297375189292,248.24191421785824 18.61251249219049,235.64773742813924 31.279431890275248,224.053120896278 46.25300831838615,213.7445826413244 63.4803491035467,205.01431303004603 82.87628607430777,198.15700150357623 104.32225049095605,193.46642237549594 127.66548738277164,191.2318061275103 152.71864177348598,191.7340270702029 179.2597468243085,195.24164259122884 207.03264093429974,202.006823421781 235.74783731163492,212.261218352073 265.0838654743479,226.21180055420066 294.6890995705074,244.036746061469 324.18408334788813,265.8813979423591 353.1643560820761,291.8543722306666 381.2037778274612,322.0238636684359 407.8583460331662,356.4142107248498 432.67048891917426,395.00278011543094 455.17381409753403,437.7172311089569 474.8982838179593,484.4332192269298 491.3757809916864,534.9725974707942 504.146022883954,589.102170920942 512.762772151762,646.5330574123712 516.8002878327059,706.920702986944 515.8599520601999,769.865595943326 509.5770017913765,834.9147175551103 497.62728878998024,901.563760918449 479.7339856126273,969.2601419474342 455.67415050809393,1037.4068182953688 425.28506005990545,1105.3669229918328 388.47021518398134,1172.469209911103 345.2049238332108,1238.014297901159 295.54136255186063,1301.2816895913807 239.61301895008307,1361.5375296603345 177.6384183095229,1418.0430557941286 109.92403995217488,1470.0636838233606 36.86633276185481,1516.8786567258192 -41.04725561632992,1557.791175465925 -123.23831482986066,1592.1389181616996 -209.0386440939876,1619.304842984461 -297.6926222767063,1638.72815966999 -388.3608266080887,1649.915344720656 -480.12493870114474,1652.4510664769953 -571.9939631503964,1646.008878405003 -662.9117693403011,1630.3615323511856 -751.7659513493012,1605.3907583261362 -837.3979840980103,1571.0963537476007 -918.6146363036748,1527.6044231553437 -994.2005825295892,1475.174609341298 -1062.9321378388204,1414.2061587440483 -1123.5920194761568,1345.242667945271 -1174.985020827635,1268.9753642673186 -1215.9544638758778,1186.2447818744126 -1245.399277727982,1098.0407054707416 -1262.2915327992196,1005.5002666871366 -1265.694243157135,909.9040935469538 -1254.7792336408709,812.6704309650386 -1228.8448539468343,715.3471699943548 -1187.3333091917477,619.6017453943787 -1129.847365802392,527.2088849223858 -1056.1661832056172,440.03621937862533 -966.2600159598092,360.02778967099823 -860.30352792294,289.18551577296927 -738.6874600170582,229.54872216612935 -602.0283963265334,183.17184489065758 -451.17637983368354,152.10047634784965 -287.22013919515086,138.34593515540453 -111.48970170729928,143.8585792701469 74.44381492837671,170.50011086327078 268.77141821630426,220.01515064046802 469.4526250812609,294.0023870088955 674.2251472866084,393.8856312598391 880.6179784631796,520.8851333095154 1085.9679475565815,675.9895330696595 1287.4397647108792,859.9288397585426 1482.0495438948312,1073.1488449769254 1666.6917422666882,1315.7873847449678 1838.1694097413244,1587.6528705305273 1993.2275939005174,1888.2055092336816 2128.5896957534032,2216.541626798322 2240.9965214400463,2571.381499315617 2327.2477243513113,2951.0610789312645 2384.245281928608,3353.527979389497 2409.0386022598655,3776.342057524845 2398.8708081858886,4216.68089239784 2351.225701680314,4671.350423085394 2263.874869490412,5136.8009594804735 2134.924353157209,5609.148728009438 1962.860273304521,6084.203056203314 1746.592770221597,6557.499236913244 1485.4976009695233,7024.33704507836 1179.4547181941152,7479.824807864881 828.883148167857,7918.928853312701 434.771485899735,8336.528084050955 -1.2966660246991353,8727.473341961135 -477.1229704200979,9086.651147738241 -989.8809687051858,9409.051317062009 -1536.1096259723877,9689.837873544497 -2111.71435296785,9924.42259882881 -2711.9759935317375,10108.540483284858 -3331.5681996926687,10238.326267832063 -3964.5835405590515,10310.391199692325 -4604.568605698142,10321.89906352638 -5244.5682692780265,10270.64049562802 -5877.179178438965,10155.104543815234 -6494.612418877776,9974.546400513542 -7088.765193332232,9729.050212374526 -7651.301225543968,9419.585857646818 -8173.739474500959,9048.058583375341 -8647.550612591693,8617.350409206927 -9064.260588145937,8131.352233868848 -9415.560459216016,7594.985624875936 -9693.4215529993,7014.213332176437 -9890.214875741472,6396.037642565089 -9998.83357309862,5748.485783900762 -10012.817122641176,5080.58169639122 -9926.475830365562,4402.303612179442 -9735.014103675496,3724.5270236950664 -9434.65088623619,3058.9527750109814 -9022.735567302734,2418.0201778307514 -8497.857621439447,1814.8052335566827 -7859.94819576261,1262.9042337463386 -7110.371842638621,776.3032115228817 -6252.006597702598,369.2339242996894 -5289.310627519794,56.01726143213983 -4228.373719398757,-149.10481316799604 -3076.951958772234,-232.14745630666226 -1844.4840379343027,-179.56973637296517 -542.0877642467581,21.531732878038753 817.4645136080702,383.22427096683316 2219.7926662658183,916.5378690183569 3648.978634094973,1631.2635131094523 5087.66004345557,2535.7535790382153 6517.14801444548,3636.726925851625 7917.569313288492,4939.081433161915 9268.032709869423,6445.716818714885 10546.819090406763,8157.370634949777 11731.594549537716,10072.470373682509 12799.645348208947,12187.004604039383 13728.13327710599,14494.416028112219 14494.369613640269,16985.519259549576 15076.10550778324,19648.44601084483 15451.836282609296,22468.62021422145 15601.116793853736,25428.765397979332 15504.884663884608,28508.94639465505 15145.787894165198,31686.647169570657 14508.513071599456,34936.88622905157 13580.11012321351,38232.37069810151 12350.309345534615,41543.68974953248 10811.826244824377,44839.54762297045 8960.649576908942,48087.035995918195 6796.307875423315,51251.944963884984 4322.1097092753,54299.111356841226 1545.3529181110266,57192.802569871696 -1522.5018578229938,59897.13352239404 -4865.697906619604,62376.513788751785 -8464.09378987614,64596.121369960776 -12293.123398405358,66522.39900889149 -16323.808481171072,68123.56839667277 -20522.82700945634,69370.15708433994 -24852.640268951436,70235.53240877888 -29271.68103571023,70696.43627402766 -33734.60458993156,70733.51420630049 -38192.60365739686,70331.83173198676 -42593.787646234145,69481.37082052289 -46883.62577157945,68177.49889640562 -51005.45283877208,66421.40276434153 -54901.035594027846,64220.47971577006 -58511.196658150926,61588.67810037435 -61776.49214276047,58546.77975861626 -64637.93811959175,55122.61692588916 -67037.78018238825,51351.21653976221 -68920.29941917019,47274.86531211533 -70232.64721232974,42943.08946970846 -70925.70041770417,38412.54372062231 -70954.9276545748,33746.80476942859 -70281.25667976591,29016.065578834492 -68871.93213417109,24296.727556357975 -66701.35235258644,19670.88892621667 -63751.873430957414,15225.728722350092 -60014.56836197877,11052.787100014608 -55489.928792805906,7247.144000768278 -50188.49683906523,3906.499607303938 -44131.41441810629,1130.1614774007905 -37350.877751091124,-982.0552644232323 -29890.48503632522,-2331.006789235618 -21805.46582192973,-2819.4690789136916 -13162.781309585685,-2353.4451960415654 -4041.0857058090387,-843.5189483724816 5469.460195841109,1793.7588183111302 15267.530770121233,5634.466394119577 25241.13879567571,10745.906171210303 35268.30471569234,17185.215837238422 45217.894707168365,24998.014198237342 54950.62842836869,34217.1008360166 64320.255261092636,44861.22942301837 73174.89568861006,56933.97493024762 81358.54217043165,70422.71515251284 88712.71151282592,85297.74692242683 95078.2383130571,101511.557074914 100297.19660187875,118998.26764400295 104214.93435121012,137673.27391255568 106682.2030824554,157433.09278518992 107557.36243759075,178155.43750992123 106708.6372933578,199699.53303327726 104016.40284318221,221906.68423856026 99375.47107704896,244601.1069933042 92697.35029212316,267591.02932923817 83912.44770195251,290670.06720999075 72972.18391467242,313618.87622623146 59850.98705481728,336207.07721716387 44548.13364169468,358195.4502776896 27089.403040430436,379338.38790290285 7528.512397862433,399386.59418074496 -14051.700510437615,418090.01300844766 -37538.378141990084,435200.9643215137 -62788.057967093366,450477.4633315655 -89626.429494133,463686.69382068363 -117848.45950864222,474608.6026869561 -147218.90865354514,483039.57923323225 -177473.25915936835,488796.1791945762 -208319.06974588515,491718.8502670179 -239437.76947640305,491675.6129887913 -270486.8976751084,488565.64829300647 -301102.79194582935,482322.7409546 -330903.7208935062,472918.5265497347 -359493.45239072485,460365.4884853821 -386465.2422009889,444719.651190347 -411406.2215248008,426082.9157320612 -433902.1556374116,404604.98497667926 -453542.53930760175,380484.8269784423 -469925.9882004139,353971.6275962031 -482665.8790532999,325365.18641152786 -491396.1851595671,295015.7138768331 -495777.44768364256,263322.9922577467 -495502.8176607133,230734.8683459098 -490304.0982919853,197745.05209152203 -479957.7124301619,164890.20221321186 -464290.5160515458,132746.287449584 -443185.3751238712,101924.22037423594 -416586.42069234565,73064.76954501023 -384503.8953061495,46832.76512826021 -347018.5031743956,23910.622948334378 -304285.17674818856,4991.222068712484 -256536.1738397524,-9229.81858886492 -204083.42196722265,-18062.408550376327 -147320.03040046248,-20830.73244476786 -86720.89541298192,-16882.39801583473 -22842.330538461916,-5597.898341211464 43679.33880616978,13599.708644273505 112130.26814474558,41235.00942482052 181722.71596647563,77770.44758114136 251599.82545128773,123596.66211232783 320841.5840094997,179023.08027806692 388471.9653076576,244268.89931111338 453467.24405244435,319454.5955196054 514765.45856088656,404594.1020246946 571276.9801911238,499587.7975306352 621896.132194531,604216.4479821178 665513.7836450023,718136.2406205777 701030.8269887401,840875.0457159673 727372.4306369582,971830.0350490406 743502.9411069868,1110266.777997088 748441.2927283262,1255319.9258001195 741276.7671031589,1405995.5822451143 721184.9295868918,1561175.4446184593 687443.5562795203,1719622.7823828242 639448.352641397,1879990.3027040765 576728.2541149432,2040829.93178492 498960.0902905276,2200604.519082244 405982.3874367893,2357701.448052549 297808.0798490049,2510448.1122718356 174635.89866538835,2657129.1898298003 36860.20775467532,2796005.622049131 -114920.9398382567,2925335.1751029133 -279899.74444078363,3043394.435295843 -457054.8106883808,3148502.0609625103 -645149.702797527,3239043.0864639604 -842734.083343842,3313494.0469964864 -1048147.5945788412,3370448.6672445023 -1259526.617857918,3408643.832704672 -1474814.0200330708,3426985.5401812284 -1691771.9658015734,3424574.503905993 -1907997.842156807,3400731.076373336 -2120943.3054689155,3355019.128696112 -2327936.4235879164,3287268.524466861 -2526206.845016432,3197595.81411636 -2712913.8849972505,3086422.773942361 -2885177.3747028997,2954492.4156492925 -3040111.075046063,2802882.098674975 -3174858.411439274,2633013.3890224257 -3286630.2406465467,2446658.324956006 -3372744.3162513287,2245941.7719033207 -3430666.075807547,2033339.5763115801 -3458050.3310614494,1811672.2610616593 -3452783.4033693997,1584094.0433013625 -3413025.210241344,1354076.9991074326 -3337250.7764661866,1125390.2480358172 -3224290.615177951,902074.0841085876 -3073369.401142622,688409.0377722129 -2884142.341108025,488879.9154254047 -2656728.634858178,308134.9287568036 -2391741.416205861,150940.0947759096 -2090313.5660532652,22129.15841305894 -1754118.8003023984,-73450.63782149974 -1385387.4541928275,-130996.53918625024 -986916.4118949946,-145811.54771885867 -562072.6661203151,-113368.4310949258 -114790.03725913713,-29375.85696398244 350441.3648418215,110154.02925020781 828593.290973842,308837.32878749236 1314125.3980779874,569850.220609925 1801019.3944733927,895861.7560690758 2282821.4020049656,1288968.5196393498 2752692.557925221,1750632.0954643353 3203467.778330821,2281620.3075617566 3627722.4981879527,2881953.219474803 4017847.09134253,3550854.8860400617 4366128.558485511,4286711.844938957 4664838.953011991,5087039.318076357 4906329.895369497,5948456.0619611535 5083132.407232836,6866668.76164636 5188061.179158764,7836466.804054239 5214322.270833779,8851728.19345149 5155623.133267028,9905437.28439863 5006283.738984648,10989714.905802632 4761347.511167897,12095861.334063197 4416690.657478172,13214412.444221355 3969128.4407502,14335209.22620798 3416516.8585059238,15447480.699653685 2757848.1579865767,16539940.096382301 1993338.5846867398,17600894.005997177 1124506.7516656087,18618363.99841352 154241.02554688783,19580220.049526535 -913145.6457123787,20474324.904356916 -2071874.9874894698,21288688.318094417 -3314678.186734513,22011629.921732508 -4632787.568897364,22631949.26788329 -6015946.399355793,23139101.426430322 -7452437.902490322,23523376.321580105 -8929134.425729578,23776079.834347233 -10431567.487428797,23889714.54035375 -11944019.237168765,23858157.814842597 -13449635.626130152,23676834.91780795 -14930561.335097263,23342884.57487825 -16368096.240203517,22855314.49671837 -17742872.913912937,22215144.23378385 -19035054.36344102,21425532.746644925 -20224550.90367264,20491888.086960636 -21291254.749777496,19421956.632458545 -22215290.599579826,18225889.40259421 -22977280.16101238,16916283.101236347 -23558618.269615438,15508193.689704426 -23941757.93918662,14019120.488305483 -24110501.399667796,12468959.037303576 -24050293.9046306,10879921.218644453 -23748516.840826046,9276421.446908673 -23194776.448774938,7684928.080521798 -22381184.270832427,6133779.580315078 -21302625.286041,4652965.349676372 -19957009.57371122,3273871.6257717884 -18345503.274164658,2028993.2511227601 -16472734.589288007,951612.6351158458 -14346970.591004713,75447.71120171735 -11980260.685576057,-565728.7975042128 -9388542.71845532,-938495.9793571094 -6591707.900344755,-1010213.8658720305 -3613620.9916720414,-749471.2537118779 -482092.50077761617,-126547.88664712926 2771199.9691473907,886113.8018746253 6110843.648508412,2313432.625667153 9497877.728764312,4177213.907469039 12890037.054551661,6495682.072564721 16242053.13380457,9283026.893139161 19506012.55647896,12548969.955955328 22631772.204262607,16298358.115011977 25567429.885653812,20530790.808455247 28259848.249697596,25240288.15895967 30655229.02495039,30415006.733340546 32699733.806234963,36037009.70527711 34340146.77953957,42082097.94043227 35524573.94480889,48519708.20253224 36203172.577811845,55312884.2596731 36328903.87673939,62418326.15086099 35858300.97813083,69786522.25334442 34752243.811913826,77361968.07264103 32976731.60877378,85083474.86160956 30503643.286802705,92884570.26611756 27311475.44042208,100693992.19787364 23386047.244705897,108436276.0563154 18721161.283859134,116032434.26904553 13319209.124570547,123400725.90354823 7191710.393402332,130457512.83266373 359774.1915298032,137118197.6247415 -7145528.101827526,143298236.99010274 -15282889.217114037,148914223.2632005 -24000601.6279753,153885025.05067128 -33236511.79992801,158132976.84625095 -42918101.57562013,161585106.12221807 -52962704.207522966,164174385.17219225 -63277861.377132684,165840993.8209157 -73761826.21070395,166533578.05256814 -84304215.82111889,166210488.65981543 -94786815.28203887,164840983.20067036 -105084533.1845928,162406373.88847882 -115066507.05149202,158901103.55043218 -124597354.9039834,154333731.48958752 -133538567.21107002,148727810.99081978 -141750031.31789523,142122640.33746827 -149091678.273139,134573869.56584674 -155425239.7778426,126153945.79048683 -160616100.7862002,116952380.79284704 -164535231.1302261,107075825.68661535 -167061177.44383293,96647938.8571109 -168082094.6580585,85809035.02117547 -167497794.45904347,74715505.16449729 -165221786.3755761,63538999.27930863 -161183285.62543213,52465366.2369976 -155329160.53105563,41693347.77384382 -147625791.24634364,31433026.42645039 -138060810.74752617,21904030.30535954 -126644698.56088458,13333500.815778926 -113412197.55499648,5953832.794548324 -98423524.33956441,200.0000001205343" stroke="white" stroke-width="1.5" /></svg>