<?xml version="1.0" encoding="utf-8" ?>
<svg baseProfile="full" height="400" version="1.1" width="400" xmlns="http://www.w3.org/2000/svg" xmlns:ev="http://www.w3.org/2001/xml-events" xmlns:xlink="http://www.w3.org/1999/xlink"><defs /><rect fill="black" height="100%" width="100%" x="0" y="0" /><circle cx="200" cy="200" fill="yellow" r="20" stroke="orange" stroke-width="2" /><polyline fill="none" points="199.0002441955255,200.0 198.9713399948923,199.9460000487347 198.94743369981737,199.8891847735806 198.92896429108168,199.83007668644387 198.91632615016147,199.76926195897295 198.90986095625345,199.70738739868904 198.90984968932324,199.64515646841213 198.91650484553466,199.583324334431 198.92996297589215,199.52269193997378 198.95027766232272,199.46409911243157 198.97741304762462,199.40841672537334 199.01123803660892,199.35653794955914 199.05152128526007,199.30936864078268 199.09792709275362,199.2678169263159 199.15001230762041,199.23278206583615 199.2072243541735,199.2051426768236 199.26890047847638,199.18574442835111 199.3342683045976,199.175387320761 199.40244778166468,199.1748126817468 199.4724545903097,199.18469002162539 199.5432050635261,199.20560390190147 199.6135226617912,199.2380409813827 199.68214602562904,199.28237741289502 199.74773861070636,199.33886677087833 199.80889989119365,199.40762869561178 199.8641780966465,199.4886384433446 199.9120844262436,199.58171753301545 199.95110866206358,199.68652567937272 199.97973608041866,199.8025541990189 199.99646553733697,199.92912107007012 199.99982858136354,200.06536781765382 199.98840942422117,200.21025838628805 199.96086557783283,200.3625801462551 199.91594894507662,200.52094716438725 199.85252713173932,200.68380585024894 199.7696047287924,200.84944306658107 199.66634429766103,201.01599676817025 199.5420867769285,201.1814692061488 199.396371017238,201.34374270529517 199.2289521423393,201.50059799040326 199.03981842857922,201.6497350044753 198.82920639293602,201.78879612666017 198.59761378120498,201.91539166183918 198.34581015338782,202.02712743692166 198.07484477291527,202.12163430165918 197.7860515202004,202.19659929455204 197.48105056929225,202.2497981976724 197.16174658914542,202.2791291684538 196.8303232582558,202.28264710220589 196.48923391309822,202.2585983468331 196.1411881868442,202.205455361505 195.7891345350756,202.12195088437835 195.43623858943,202.00711115145427 195.08585732802715,201.86028768978628 194.74150910278527,201.68118719406124 194.4068396179311,201.46989898653345 194.08558401065582,201.22691955686878 193.7815252434333,200.95317368106458 193.49844907739546,200.6500316276255 193.24009595669753,200.3193219749117 193.01011019428935,199.96333958629018 192.811986909189,199.58484831959314 192.64901722342825,199.18707808453274 192.52423228248068,198.77371590615851 192.44034671533538,198.34889070411228 192.39970219857014,197.91715155617453 192.40421183193152,197.48343928014924 192.45530607016858,197.05305124014316 192.55388098633424,196.63159936129492 192.7002496646313,196.2249614204321 192.89409753534227,195.8392257683051 193.13444246970576,195.48062973118545 193.41960044810256,195.15549203484414 193.74715759999611,194.87013969126582 194.11394938821752,194.63082988683206 194.5160476729863,194.4436675089769 194.94875634221776,194.31451904523962 195.40661613401147,194.2489236829274 195.8834192047098,194.25200252789546 196.37223391166597,194.3283669458729 196.8654401841293,194.48202710788408 197.3547757488671,194.7163018912163 197.8313933598781,195.03373134764254 198.28592905457762,195.43599299982787 198.70858132307166,195.92382326367743 199.08920093368926,196.49694531753659 199.41739100808095,197.15400474742398 199.68261678434575,197.89251428976658 199.87432434841824,198.70880896843948 199.98206745406804,199.59801288046052 199.9956413922165,200.5540188237905 199.90522271286127,201.56948188086534 199.70151344982673,202.63582797245934 199.3758883520201,203.74327827820116 198.92054348713194,204.8808902827108 198.3286444570783,206.03661605033324 197.59447235125614,207.19737815750304 196.7135654661845,208.34916352084443 195.68285474059405,209.4771351524335 194.50079079570384,210.56576165273634 193.16746043337287,211.59896401838742 191.68469043199096,212.5602790982527 190.05613649315944,213.43303877947255 188.28735523298346,214.20056372799263 186.38585718149793,214.84637024830113 184.3611388534446,215.35438856775977 182.22469208408015,215.70919059529388 179.9899889853602,215.8962249557293 177.67244107079142,215.9020568632954 175.28933132116566,215.714610174431 172.8597182175801,215.32340875477706 170.40431105146277,214.71981411188253 167.94531613219758,213.89725608743532 165.50625384935046,212.8514532744406 163.11174690596283,211.58061972926203 160.78728041897656,210.0856544892106 158.55893497920763,208.37031038657528 156.45309417258773,206.44133867252967 154.4961284824159,204.3086060317721 152.7140579144954,201.98518068323025 151.13219610829037,199.4873844254153 149.77477911232864,196.83480769827648 148.66458240542292,194.05028499738742 147.8225301310745,191.15982829109572 147.26730087469147,188.19251645638198 147.01493464590953,185.18033916342594 147.07844602523,182.1579941004068 147.4674486892959,179.16263693629418 148.18779673644062,176.2335839670148 149.24124838788302,173.41196797536458 150.62515773460635,170.74034845260343 152.33220023041355,168.26227797431974 154.3501375932157,166.0218271886763 156.6616276651475,164.06307155466948 159.2440845941154,162.4295436540312 162.06959443206907,161.16365558478196 165.10489089667462,160.30609661857426 168.31139561203543,159.89521195878189 171.64532663050312,159.9663690623532 175.05787844230298,160.5513185760322 178.49547600459897,161.6775574767851 181.90010456979326,163.36770248719768 185.20971626851636,165.63888224934354 188.35871351130422,168.50215707546602 191.27850832097883,171.96197534138147 193.89815570303608,176.01567573987506 196.14505811286452,180.65304465819784 197.94573699648254,185.85593787849604 199.2266662768997,191.59797561592256 199.91516154341187,197.84431960062142 199.94031758932013,204.55154047224354 199.23398584874403,211.6675831859524 197.73178222014175,219.13183742524583 195.3741147482039,226.8753191791332 192.1072196827463,234.8209686707135 187.88419355915806,242.88406872417676 182.66600816603102,250.97278643270255 176.42249459785722,258.98883964757056 169.13328204989764,266.8282883578181 160.78867661371606,274.38244948076976 151.39046508992425,281.5389319494093 140.95262876289678,288.18278727748924 129.50195219287576,294.1977690239514 117.07851238483575,299.46769278291845 103.73603419988876,303.8778865141272 89.54209859112548,307.3167192226814 74.57819117676013,309.6771942192179 58.93957981206219,310.85859146602155 42.735011188134166,310.76814186625506 26.08621806768727,309.3227148079535 9.127230560364438,306.45049885790786 -7.996513165377337,302.0926542392674 -25.129259151546307,296.20491464672375 -42.106232957132505,288.75911508008164 -58.755135537470835,279.7446217355923 -74.89783457348625,269.16963960810625 -90.35224335502153,257.06237334780525 -104.93437646217836,243.47201710289386 -118.46056857062075,228.4695495817334 -130.74983976357663,212.1483113992875 -141.62638779967057,194.624342945162 -150.92218489898193,176.0364625321654 -158.4796538087956,156.54606645970722 -164.15439523605227,136.3366348558094 -167.81793622724223,115.61292974103397 -169.3604667808654,94.59987467857016 -168.6935299352525,73.54110862361567 -165.75262882791844,52.69721014357074 -160.49971281321,32.34359202490026 -152.92550369292644,12.768070384145403 -143.05162249798815,-5.7318832743218024 -130.9324770935641,-22.852194101458053 -116.65687119763214,-38.28552244457407 -100.34929623215095,-51.72486654002955 -82.17086879081592,-62.86740222851796 -62.31987842666081,-71.41852779816264 -41.03191294981531,-77.09607737253106 -18.579531487606488,-79.63466171366161 4.728540803650162,-78.7900909703265 28.54871828013617,-74.34382983686572 52.504377750266485,-66.10743186700802 76.1882106654279,-53.92689637949195 99.16511062022674,-37.686888566822404 120.97559596292322,-17.314761142590953 141.13976064213568,7.215685798425625 159.1617393795977,35.880771017836054 174.53466592414753,68.60388902993455 186.7460955803749,105.25292168198784 195.2838554953728,145.6381670756085 199.64227841479428,189.51084624704765 199.3287678774099,236.5622448833761 193.87063520394116,286.4235432877593 182.82214125442516,338.666382809109 165.7716688860982,392.8042110189167 142.34894545110117,448.294441062254 112.23222864232142,504.54145285422703 75.15536363903234,560.9004551737572 30.91461493349351,616.6822182728883 -20.62482745520839,671.1586764346378 -79.52277034732646,723.5693890521445 -145.75847288775333,773.1288373563674 -219.22574006647426,819.0345219920862 -299.72875828739006,860.4758143485299 -386.97877474173526,896.6435020200101 -480.5917186685607,926.7399561435072 -580.0868574450285,949.989835784769 -684.8865738093389,965.6512321821331 -794.3173423610955,973.027143676067 -907.6119738078089,971.4771607269197 -1023.9131842502757,960.4292297328169 -1142.2785341630997,939.3913545865076 -1261.6867676882086,907.9630862369629 -1381.0455675002663,865.8466431305117 -1499.2007239256693,812.857499474912 -1614.9466993260894,748.9342739695849 -1727.0385501399396,674.1477491390813 -1834.2051495788314,588.7088508459781 -1935.1636339901806,492.9754190810909 -2028.634975530911,387.4576048537382 -2113.360563278439,272.82173403398065 -2188.119654478916,149.8924874115322 -2251.747537559474,19.6532570876941 -2303.1542290841107,-116.75544736495385 -2341.343508296054,-258.0396537552251 -2365.4320755542544,-402.75773569807166 -2374.6686051343677,-549.3284465788554 -2368.452448822607,-696.0412281578436 -2346.351734779022,-841.068817906525 -2308.120596573754,-982.4821521834801 -2253.715260384266,-1118.267533602411 -2183.3087143472662,-1246.346000657594 -2097.3036832314247,-1364.5948061265415 -1996.3436341586748,-1470.8708782745466 -1881.321545247661,-1563.0361057810278 -1753.3861789467232,-1638.9842539651079 -1613.9456155934008,-1696.6692867056115 -1464.6678204712118,-1734.1348358527525 -1307.47803937746,-1749.5445283598033 -1144.5528434657492,-1741.2128512843153 -978.310673832171,-1707.6362066943655 -811.3987698700092,-1647.5237828470513 -646.6764026646667,-1559.8278452670093 -487.1943754224068,-1443.77303202135 -336.17079684952944,-1298.8842220328397 -196.9631801907143,-1125.0125341470518 -73.0369699065921,-922.35900830026 32.069350725580136,-691.4955189205791 114.78236497039687,-433.3824749957771 171.53478102459638,-149.38287137320566 198.80912933087762,158.72772791528456 193.183730803565,488.7556709811499 151.38051501783204,838.0885317642753 70.31421616759803,1203.6995882921 -52.85757420869788,1582.1577557317535 -220.68406432987013,1969.6432160333766 -435.3712372978572,2361.968931290914 -698.7327892667647,2754.6081672849054 -1012.1427069404865,3142.7280873749005 -1376.4901856323104,3521.2294054216177 -1792.137607017678,3884.7920102866206 -2258.882305862471,4227.926394312122 -2775.9228567696637,4545.030634756297 -3341.8306047729675,4830.452591267617 -3954.5271469056224,5078.556895028197 -4611.268445258395,5283.796217164793 -5308.636215180624,5440.786216473558 -6042.537184943468,5544.383480551421 -6808.210765263315,5589.765691250042 -7600.245598587221,5572.513166188682 -8412.605379114773,5488.690854131319 -9238.664245455184,5334.929794624475 -10071.251949024338,5108.50699267849 -10902.70889335008,4807.422608721869 -11724.95102310829,4430.473323800941 -12529.544417839164,3977.3207112254745 -13307.789314930755,3448.5534297027716 -14050.813150793116,2845.742050504009 -14749.672069511995,2171.4853433124595 -15395.460206138825,1429.4468729419737 -15979.425908745261,624.3808027766125 -16493.093921162388,-237.8541388949286 -16928.392408764474,-1150.2934961283477 -17277.783574656165,-2104.879598081102 -17534.39648516539,-3092.4885074716217 -17692.160603670556,-4102.972036260546 -17745.938422562635,-5125.215314927116 -17691.655486634965,-6147.210240794489 -17526.426019459333,-7156.144955111813 -17248.672299348436,-8138.509309222287 -16858.235885259946,-9080.216078575982 -16356.478767288525,-9966.737471278155 -15746.372512921182,-10783.256257230543 -15032.57350052468,-11514.830616896777 -14221.482376935273,-12146.571577699591 -13321.28594764661,-12663.83167364411 -12341.979806804931,-13052.40323275443 -11295.370140610301,-13298.724470279478 -10195.053292069686,-13390.091346481586 -9056.371857303046,-13314.872939393032 -7896.3462933713545,-13062.7278885244 -6733.581254108092,-12624.819288491894 -5588.146132541767,-11994.02525526321 -4481.42957465105,-11165.142255539255 -3435.968037447007,-10135.078184948552 -2475.2487923733647,-8903.032106367264 -1623.4881199989268,-7470.657518757751 -905.3858007921588,-5842.206022191767 -345.85737587883216,-4024.6482786718716 30.25397281174429,-2027.7692431561481 198.48369595138803,135.76524336842635 135.06770145665968,2450.37324543546 -182.7232399596121,4897.5554494729395 -776.2398343843917,7455.930093308282 -1665.1050136844024,10101.30609987011 -2866.8630733623722,12806.796064244607 -4396.631465655731,15542.97035791199 -6266.759767266346,18278.053187131223 -8486.50055486618,20978.16097658076 -11061.697090725022,23607.58294768474 -13994.492840364672,26129.103227401254 -17283.067909246456,28504.363262116567 -20921.407491688784,30694.26272781803 -24899.10736846847,32659.396527673798 -29201.221366371432,34360.52485787871 -33808.15550041038,35759.07270904397 -38695.613255270524,36817.6545609266 -43834.59612526573,37500.619430762374 -49191.46312098908,37774.61085812506 -54728.052466095214,37609.1358606166 -60401.86815035045,36977.136383544195 -66166.33337730751,35855.55630193143 -71971.11224979904,34225.89662363128 -77762.50027802358,32074.751196744568 -83483.88347852463,29394.31495159251 -89076.26496411319,26182.85651540396 -94478.8570120709,22445.14693445867 -99629.73564920455,18192.83623090231 -104466.55381684405,13444.769616346624 -108927.3081870959,8227.235387343822 -112951.15370476326,2574.136843615793 -116479.25893942625,-3472.918997861313 -119455.69436201599,-9864.622568741079 -121828.34472318958,-16544.058799950464 -123549.8358208156,-23446.905271204447 -124578.46511513439,-30501.735765002304 -124879.12489705664,-37630.432507803336 -124424.20605206571,-44748.70924881711 -123194.46990357315,-51766.74609199624 -121179.87517926884,-58589.935667873564 -118380.34683542735,-65119.73881907455 -114806.47330994133,-71254.64648862096 -110480.11876674787,-76891.24295716996 -105434.93705287085,-81925.36398940359 -99716.7744237073,-86253.34183775126 -93383.94861004468,-89773.32743178918 -86507.3925074696,-92386.67847365125 -79170.65166919847,-93999.40058440549 -71469.7258786534,-94523.62712537032 -63512.74636776781,-93879.12187433966 -55419.48172801167,-91994.78739278075 -47320.66722784004,-88810.16069966255 -39357.15409445619,-84276.87679415313 -31678.877328304894,-78360.07966615546 -24443.642781783845,-71039.75972319693 -17815.736532533752,-62311.9960662733 -11964.361996865826,-52190.08178642932 -7061.912738150647,-40705.51044712406 -3282.0915034045706,-27908.802181867897 -797.888641433946,-13870.148387118223 220.56431207202283,1320.1451607143565 -391.75251488576225,17551.435778648673 -2792.408999888206,34692.75948473769 -7129.124639550379,52593.10049631471 -13537.33187432295,71081.92827216075 -22137.73107107012,89970.01333801876 -33033.86708747268,109050.53041954253 -46309.75908018295,128100.45440352029 -62027.61667911753,146882.25137514132 -80225.67679657192,165145.86345883098 -100916.19613667311,182630.98244998712 -124083.63488473762,199069.60329661777 -149683.0670565953,214188.84440968663 -177638.85254715814,227714.0175894764 -207843.6050113992,239371.92609719647 -240157.48831955978,248894.36512489922 -274407.87243668706,256021.79467451046 -310389.3771743883,260507.15070343774 -347864.32934593275,262119.75638751365 -386563.6554260814,260649.29155150295 -426188.22788277623,255909.7747842278 -466410.67892418813,247743.5095513926 -506877.690513812,236024.94280628022 -547212.7641779303,220664.3822378849 -587019.4684008167,201611.51644738283 -625885.1553179163,178858.68106438767 -663385.1320278151,152443.81315826057 -699087.2652092283,122453.0363167531 -732556.9909155312,89022.81949929726 -763362.6944993746,52341.65426430523 -791081.4186726565,12651.197251030411 -815304.8508170703,-29753.172108673112 -835645.5339172516,-74522.42474895238 -851743.2389859571,-121254.62733843374 -863271.4306856134,-169496.3956042141 -869943.7521223916,-218745.08494376842 -871520.4495982426,-268451.74044951296 -867814.6535535028,-318024.82050510834 -858698.4281172442,-366834.69943727594 -844108.4987013945,-414218.94538232306 -824051.5650205255,-459488.3596253093 -798609.1058801034,-501933.7532761764 -767941.5821324575,-540833.4263578802 -732291.9454247787,-575461.3033039896 -691988.3628198457,-605095.667616041 -647446.0711100119,-629028.4271426657 -599168.2797076683,-646574.8302508488 -547746.0474064596,-657083.5422102656 -493857.066077654,-659946.9805569651 -438263.29348959675,-654611.7982005024 -381807.38789217005,-640589.3937502909 -325407.90875184245,-617466.3201259049 -270053.26099643926,-584914.4551457142 -216794.37425316445,-542700.791619855 -166736.12374008866,-490696.6996644941 -121027.51558196168,-428886.5106554746 -80850.67622789818,-357375.2705928284 -47408.7031942987,-276395.51078457537 -21912.452365805464,-186312.88579640238 -5566.355367168897,-87630.53265516118 446.6211396303912,19007.98857739365 -5019.255800135002,132817.3044650674 -23056.13646007864,252870.50922552455 -54685.824173148496,378101.2255810047 -100842.77695738537,507307.53900854144 -162357.07125883998,639157.8819289451 -239937.53767221185,772198.9252422358 -334155.2904311761,904865.5134906885 -445427.88243211276,1035492.6569373941 -574004.325311916,1162329.5691498856 -719951.2193978387,1283555.7124677137 -883140.2409543704,1397298.7862348289 -1063237.2338562766,1501654.5641479113 -1259693.1494274586,1594708.4577963266 -1471737.0715372758,1674558.6537625089 -1698371.554003753,1739340.6418536913 -1938370.483814359,1787252.9225118428 -2190279.6665741866,1816583.6525840869 -2452420.3099022876,1825737.960833759 -2722895.5562369074,1813265.638249883 -2999600.188742164,1777888.8837968046 -3280233.602842511,1718529.7641671442 -3562316.1015074807,1634337.026791623 -3843208.53497915,1524711.8892443473 -4120135.265440819,1389332.4156759593 -4390210.394483116,1228176.082407287 -4650467.1464995695,1041540.1306967248 -4897890.254754162,830059.3052999936 -5129451.149274455,594720.5830804715 -5342145.697447851,336874.506868296 -5533034.199788059,58242.75622701992 -5699283.295390059,-239078.39106900274 -5838209.384729282,-552619.0251081818 -5947323.132342549,-879541.2819628285 -6024374.56923092,-1216649.9787886515 -6067398.275242362,-1560408.4055705026 -6074758.085926085,-1906959.422403961 -6045190.737100355,-2252151.9551707963 -5977847.834333626,-2591572.9215267883 -5872335.514377714,-2920584.5537023786 -5728751.1519554965,-3234367.01523373 -5547716.458801612,-3527966.1359917885 -5330406.323041711,-3796346.0144395353 -5078572.746373327,-4034446.158680806 -4794563.254512376,-4237242.759401455 -4481333.183347147,-4399813.609148087 -4142451.2794614215,-4517406.104506051 -3782098.0993193057,-4585507.691648023 -3405056.7465090123,-4599918.042494084 -3016695.5509696733,-4556822.179455486 -2622942.367903651,-4452863.702555522 -2230250.256807473,-4285217.214769974 -1845554.3923094433,-4051658.9908464793 -1476220.157714541,-3750634.8927669902 -1129982.4786295951,-3381324.5025052894 -814876.5669317048,-2943700.420845935 -539160.3636796861,-2438581.670758471 -311229.09224196174,-1867680.1460644458 -139522.45869079707,-1233639.0617071982 -32425.164034617777,-540062.3915330853 1838.479341895712,208465.6763102889 -44685.09184254906,1006372.1770306416 -179564.39678619785,1847098.5360558582 -409865.842401126,2723116.211349606 -742035.1555369952,3625955.45220371 -1181778.6933406857,4546247.695295386 -1733946.1033530266,5473781.984027876 -2402415.886820649,6397575.648574612 -3189985.4867394743,7305959.32254341 -4098267.574572955,8186676.198911402 -5127594.244705556,9026995.244222812 -6276930.841903886,9813837.897577971 -7543801.142896761,10533917.581478471 -8924225.587337974,11173891.147141028 -10412674.204752699,11720521.169664282 -12002035.81166497,12160847.80081547 -13683604.956273155,12482368.681759268 -15447087.96634896,12673225.2174774 -17280629.30933617,12722393.32174724 -19170859.30206052,12619876.559275776 -21102964.01151236,12356899.442899125 -23060777.96862216,11926098.491666362 -25026900.074975114,11321708.52313347 -26982832.81950702,10539741.543257773 -28909144.640265528,9578155.51278796 -30785654.967530668,8437010.212738667 -32591641.17156577,7118607.406015897 -34306066.31394925,5627612.499895977 -35907826.26910101,3971154.95698341 -37376014.445857175,2158904.7823107336 -38690202.001667134,203122.53288778363 -39830731.108333655,-1881319.5456341126 -40779018.502599046,-4076947.451753013 -41517866.24187671,-6363728.387529761 -42031776.2897835,-8719148.422006596 -42307265.282677315,-11118326.216622062 -42333175.58204818,-13534163.812937269 -42100978.503210686,-15937535.088910984 -41605065.43312717,-18297512.061948784 -40843022.41401562,-20581628.758054823 -39815883.67914036,-22756181.880275328 -38528359.58703981,-24786567.000459433 -36989034.4142815,-26637648.47098054 -35210529.53807653,-28274160.71277581 -33209627.671707865,-29661137.988760516 -31007354.010132335,-30764369.223673075 -28629010.402082667,-31550873.889483806 -26104158.989640906,-31989394.44680896 -23466552.146927036,-32050900.324767243 -20754006.005815394,-31709097.942110114 -18008215.377169754,-30940940.829111617 -15274508.458814092,-29727133.51057264 -12601540.363233743,-28052622.463290967 -10040925.194812225,-25907067.174293637 -7646807.1532638045,-23285284.106599536 -5475371.930885092,-20187656.234535944 -3584300.4994336334,-16620500.747477846 -2032168.2400408695,-12596387.5455717 -877793.2478789018,-8134401.269110121 -179538.5327904459,-3260339.819540433 5426.27255965053,1993157.3515039566 -378102.7947379635,7586557.485384262 -1382565.0846827968,13473465.061975393 -3056817.91526375,19600739.780254636 -5445309.630066783,25908706.362754162 -8587252.804026118,32331459.724307697 -12515807.915386943,38797268.096305236 -17257288.36354365,45229075.65262164 -22830398.176315963,51545105.04913712 -29245514.10409244,57659559.073406205 -36504024.03034894,63483419.314277545 -44597733.727290764,68925338.4143323 -53508353.94163835,73892621.07361692 -63207079.599856205,78292287.54548122 -73654272.56665438,82032211.91990101 -84799258.8691113,85022326.0432848 -96580250.60663196,87175878.49434692 -108924401.90136097,88410736.6421052 -121748007.20374759,88650718.47415633 -134956849.0550071,87826939.62149096 -148446701.02569395,85879159.84098555 -162103990.00338396,82757112.16936132 -175806620.3008027,78421797.05372645 -189424960.20940626,72846723.01441848 -202822989.6456811,66019074.82572066 -215859605.44413486,57940789.82825793 -228390078.6603206,48629522.831363544 -240267655.98009747,38119480.14089902 -251345295.01069498,26462103.57251015 -261477520.8803464,13726585.89464684 -270522389.22357255,200.00000033129461" stroke="white" stroke-width="1.5" /><circle cx="154.10328460079143" cy="219.83662056813236" fill="red" opacity="0.7" r="5.0" /></svg>