<?xml version="1.0" encoding="utf-8" ?>
<svg baseProfile="full" height="400" version="1.1" width="400" xmlns="http://www.w3.org/2000/svg" xmlns:ev="http://www.w3.org/2001/xml-events" xmlns:xlink="http://www.w3.org/1999/xlink"><defs /><rect fill="black" height="100%" width="100%" x="0" y="0" /><circle cx="200" cy="200" fill="yellow" r="10.227764242436312" stroke="orange" stroke-width="2" /><polyline fill="none" points="199.24262317527385,200.0 199.1845108165563,199.95719054309035 199.12820963886523,199.9082170441495 199.0743950220679,199.8531497469369 199.02375182563887,199.79213525237148 198.97696634485467,199.7253996719245 198.93471770515262,199.65325099856457 198.897668763909,199.57608061320553 198.86645659965268,199.49436384986174 198.8416826792155,199.4086595492787 198.82390280338274,199.3196085386794 198.8136169410925,199.2279309844457 198.81125907098192,199.13442257500725 198.81718715693785,199.0399495028956 198.83167339111864,198.94544222777483 198.85489484351714,198.85188801620097 198.88692466138596,198.76032226878954 198.92772396459551,198.6718186612638 198.97713458411465,198.5874781423793 199.03487279016363,198.50841684881237 199.10052415408504,198.43575301459248 199.17353968351307,198.37059297035344 199.25323336392105,198.31401634537622 199.3387812310354,198.267060602871 199.42922208788667,198.23070505597047 199.5234599674209,198.20585452823434 199.62026842662553,198.19332283784965 199.7182967410881,198.19381629889673 199.81607804986794,198.20791744578005 199.91203947962788,198.23606919794076 200.00451425427798,198.27855969102293 200.09175577208978,198.3355080075109 200.17195360654176,198.40685104426265 200.24325136028406,198.49233175611118 200.30376627381355,198.5914890135936 200.3516104620166,198.70364930872114 200.3849136229769,198.82792053536696 200.40184703469305,198.96318806020173 200.40064862696687,199.1081132860621 200.37964888808403,199.26113489213736 200.33729733940717,199.42047291439576 200.27218928604668,199.58413580526832 200.18309252877577,199.74993058384194 200.0689737017355,199.9154761568024 199.92902388264426,200.07821985628067 199.762683107597,200.2354572038121 199.56966341150536,200.38435487008394 199.34997000817026,200.52197675834128 199.10392022124952,200.64531309561383 198.83215977930365,200.75131237073037 198.53567609496645,200.8369159118685 198.21580816033352,200.8990948496496 197.87425270809447,200.93488916508113 197.5130663108903,200.9414484755503 197.13466311994773,200.9160741672039 196.74180797824187,200.85626243904383 196.3376046832228,200.75974778359085 195.92547921938743,200.62454639169025 195.50915783148943,200.44899893563192 195.09263986468062,200.2318121559086 194.68016535801155,199.97209865330296 194.27617744204792,199.6694142702213 193.88527965936493,199.32379243389087 193.5121883977632,198.9357748297852 193.1616806995296,198.50643777696004 192.8385377851899,198.03741368833917 192.54748470614393,197.53090701878085 192.29312661644778,196.98970413229998 192.07988222886303,196.41717655735084 191.91191509312938,195.81727714572375 191.7930634041954,195.194528706408 191.72676911378684,194.55400475064002 191.7160071791117,193.9013020580923 191.76321583659274,193.24250485643984 191.87022883518517,192.58414049691638 192.03821060200343,191.93312660636093 192.2675953415983,191.2967098009394 192.5580310883036,190.68239615736167 192.90832973767402,190.09787375302193 193.31642407731766,189.55092770596437 193.77933281862698,189.04934826769073 194.29313459839582,188.60083264523786 194.85295187255744,188.2128813522141 195.45294556291984,187.8926900100486 196.08632124159547,187.64703763895352 196.7453475467765,187.48217259132997 197.42138741773076,187.40369738682142 198.10494261671928,187.41645380615464 198.78571187149004,187.52440968851977 199.45266282482686,187.73054895274421 200.09411781827689,188.0367664241599 200.6978533668104,188.4437690951575 201.2512130011668,188.95098547634404 201.74123296660315,189.55648470546868 202.1547800724869,190.25690707147047 202.4787007886647,191.04740757991564 202.69998048397426,191.92161413268792 202.80591150201062,192.87160181824572 202.7842685718178,193.88788470846563 202.6234898591997,194.9594264337098 202.31286178058312,196.07367065922017 201.84270552865723,197.21659241348368 201.20456310024687,198.3727710233747 200.39138047495896,199.5254851925333 199.3976854709693,200.65683051978624 198.21975770472756,201.7478594950243 196.85578800711028,202.77874373270777 195.30602460225808,203.72895791034665 193.57290333944798,204.57748457348342 191.66115928510652,205.30303865283366 189.57791703344063,205.88431021656658 187.33275718183307,206.30022365479388 184.93775654245513,206.53021116801764 182.40749982545483,206.5544981106524 179.75906073212957,206.35439742908792 177.01195063878222,205.91261013557352 174.18803333310612,205.2135284790928 171.3114045840481,204.2435382170598 168.40823568173388,202.99131616182163 165.50658047423042,201.44811897830638 162.63614585012118,199.60805904832185 159.82802606697925,197.46836309745237 157.11440180215928,195.02960920647772 154.52820529965857,192.29593780471018 152.10275350033874,189.2752322712429 149.87135156724756,185.97926485501824 147.86686974734496,182.4238037685821 146.12129703936748,178.62867751554452 144.66527565821787,174.61779277967338 143.52762079213588,170.41910253506677 142.73483063271362,166.0645214321256 142.31059211206798,161.5897859724278 142.27528819853666,157.03425750561553 142.6455129744518,152.4406666607042 143.43360103922396,147.85479845957184 144.6471780406476,143.32511804763922 146.28873932976933,138.90233771083018 148.35526385294042,134.63892662281117 150.8378704323706,130.58856557534847 153.72152353774163,126.80554977959191 156.98479551104543,123.34414367856571 160.59969197038666,120.25789257168299 164.53154678254964,117.59889671053604 168.73899255618002,115.4170543707285 173.17401206609418,113.75928122572377 177.78207537431172,112.66871413374669 182.50236666599204,112.18390818549263 187.26810397097896,112.338036536385 192.00695399795964,113.15810314987958 196.64154327361797,114.66417909545956 201.0900656603893,116.86867346431359 205.26698513178602,119.7756502754824 209.0838314235412,123.38020293430928 212.4500848632643,127.66789786287765 215.27414532361763,132.61429883928724 217.4643788582696,138.18458335068547 218.9302341814137,144.3332618768572 219.58341975701927,151.0040104712313 219.33913089079286,158.12962629040356 218.1173148846058,165.63211483949092 215.8439610391407,173.42291664856475 212.45240109554348,181.40327987688153 207.8846046110965,189.46478396063904 202.09245278762623,197.49001788284 195.0389734346727,205.35341495920423 186.69951907213613,212.92224421301125 177.06286967827873,220.0577564677954 166.13224128674796,226.61648123591266 153.926181547649,232.4516683414855 140.4793335080035,237.41486600881558 125.84304924980695,241.35762489492186 110.08583566080185,244.13331527243332 93.29361551311221,245.59904230356466 75.56978819446464,245.61764211597958 57.03507587934874,244.05973922711976 37.82714264349306,240.80584379637133 18.0999760114035,235.7484652464715 -1.9769773231699617,228.79421701958452 -22.21992736042651,219.86588565244588 -42.432111255193945,208.90443600160177 -62.405418424961795,195.8709233561576 -81.9222671921541,180.74828237256978 -100.75772651143552,163.54296228335397 -118.68187285361603,144.28637769657303 -135.46236872902972,123.03614454057954 -150.86724567244215,99.8770713407163 -164.66787081926566,74.92187706009011 -176.64207252301253,48.311608209793405 -186.5773968430692,20.215729845378434 -194.27446321902192,-9.168132578434353 -199.5503842938857,-39.61482072349676 -202.2422117060146,-70.87265724471217 -202.210366791451,-102.66485935089139 -199.34201257858575,-134.69136129579067 -193.55432126831414,-166.6310505791535 -184.79758962756642,-198.14441781313656 -173.05815343242682,-228.8766150625388 -158.36105132684293,-258.46091204022827 -140.77238825869085,-286.5225338808332 -120.40134905713148,-312.6828583810351 -97.4018137593888,-336.5639446444259 -71.97352801132575,-357.79335906918107 -44.36278427814264,-376.00925863908515 -14.862572725762305,-390.8656855985174 16.187835521153545,-402.0380218896746 48.403905471594754,-409.2285462882677 81.35748315795064,-412.17203207745183 114.57908979472514,-410.6413184352805 147.56088003507273,-404.45278456556343 179.76027188175303,-393.47165206190607 210.604247955636,-377.61703814458247 239.49431944900044,-356.86668033137676 265.8121352617525,-331.26125187412833 288.9257096158228,-300.90818698468433 308.19623195584205,-265.98493555276895 322.98541327170017,-226.74156878160653 332.66331322872196,-183.50265998350483 336.616582779963,-136.66836872522146 334.2570473860492,-86.71466161837918 325.03054671059556,-34.192609327608096 308.4259378283037,20.27329318121096 283.98416071674933,75.98782752233714 251.30725724229114,132.18880853440197 210.06722813675427,188.05192050102895 160.01460673481537,242.69664492064223 100.98662363966702,295.1932790153622 32.914833139127325,344.5710305397272 -44.16792976829211,389.82716008742375 -130.12139334082025,429.93712712786413 -224.6926245147008,463.8656805799088 -327.51186339741605,490.57881900871917 -438.08953983085974,509.0565296890887 -555.814588563125,518.3062000037773 -679.9541712260757,517.376579139053 -809.6549030699467,505.37215301271726 -943.9456702558291,481.46778104143823 -1081.7421094756185,444.9234299491973 -1221.8528058053982,395.0988275657271 -1362.9872470770342,331.46784869253923 -1503.7655537753403,253.63243585230612 -1642.7299826636017,161.33585030788134 -1778.3581801648304,54.47504335548291 -1909.0781381642328,-66.88806523371733 -2033.284780560919,-202.51661543810894 -2149.3580838214543,-351.9903537661339 -2255.682609236882,-514.6989057934121 -2350.6682988445077,-689.8369740765878 -2432.7723613534163,-876.4016504927324 -2500.5220492351154,-1073.1920184223798 -2552.5381037509587,-1278.8112034687254 -2587.5586214422433,-1491.6710115860064 -2604.46307387271,-1709.9992706157589 -2602.296192558775,-1931.8499653810672 -2580.291413422133,-2155.116227787339 -2537.8935601236835,-2377.5462119911153 -2474.780433647895,-2596.761850835025 -2390.8829668526923,-2810.2804536636295 -2286.4035977127014,-3015.539067631611 -2161.8325139704716,-3209.9214850363846 -2017.9614251503776,-3390.7877384389485 -1855.8945256277243,-3555.5058838072923 -1677.056324885842,-3701.4858300910514 -1483.1960383973699,-3826.214932015515 -1276.3882548425972,-3927.2950219987542 -1059.029622683786,-4002.480517505369 -833.8313314468455,-4049.717202433708 -603.8072003555475,-4067.1812458848262 -372.2572290860636,-4053.3179894847453 -142.74651216150318,-4006.880005933256 80.92053038509188,-3926.96390723268 294.7305983286436,-3813.0453616972372 494.4965660816451,-3665.0117649246768 675.8970187410441,-3483.192001963142 834.5200766869076,-3268.382736427235 965.9112497808543,-3021.8706677596774 1065.6249947065292,-2745.450210594054 1129.2795810275497,-2441.4360705820773 1152.6148039251502,-2112.670219363295 1131.552015182659,-1762.5228077544225 1062.2558797149097,-1394.8866008069722 941.1972037391799,-1014.164571119723 765.216123517296,-625.2503475868615 531.5848914475002,-233.50128539721283 238.0694501340291,155.2960007543504 -117.01105411172279,534.9677150691693 -534.7276981276032,899.002555768194 -1015.4890512960542,1240.6088765006816 -1558.993202329776,1552.7791230323915 -2164.18546043822,1828.3612295254784 -2829.2226387418077,2060.136550954803 -3551.444806773508,2240.903798486748 -4327.3553654412035,2363.5683342106645 -5152.610251501848,2421.2360717857878 -6022.017019135798,2407.3111217549035 -6929.5444734658695,2315.596215956109 -7868.343444856375,2140.394846167499 -8830.779193734837,1876.6139594182525 -9808.47582385859,1519.8659678879767 -10792.372957939588,1066.5687565943726 -11772.794794070423,514.042308722516 -12739.531515378381,-139.39948197303846 -13681.932869886172,-894.3632782669147 -14589.01357397524,-1750.2985328087052 -15449.570022625467,-2705.428977493971 -16252.307614413367,-3756.694843341273 -16985.97782093705,-4899.707250694056 -17639.523950909606,-6128.716154673083 -18202.2343807825,-7436.5931550091 -18663.90184871211,-8814.830382230008 -19014.987239372305,-10253.556553438282 -19246.786126028677,-11741.571150627407 -19351.59618598648,-13266.397512950298 -19322.88346859124,-14814.3554521554 -19155.44537400079,-16370.653798430096 -18845.568098535143,-17919.503063325457 -18391.17622105958,-19444.248168777907 -17791.97204699193,-20927.52093830536 -17049.562294440806,-22351.41178036238 -16167.569702800047,-23697.65971701708 -15151.727169770236,-24947.859626289173 -14009.952079928942,-26083.685276673208 -12752.398578024411,-27087.126440829412 -11391.485664209014,-27940.738085673136 -9941.899147191612,-28627.899351856173 -8420.565685120973,-29133.079760812085 -6846.5973728554,-29442.10982618505 -5241.205597624326,-29542.453002733084 -3627.5831819795544,-29423.475683898683 -2030.754161922253,-29076.71176340084 -477.39090723304355,-28496.11811060352 1004.40132212225,-27678.317178138503 2385.3318780441778,-26622.822867241295 3635.203346464718,-25332.24572521621 4723.219901073745,-23812.473543826753 5618.323536967646,-22072.823470321455 6289.555861499708,-20126.161836972664 6706.442645870944,-17988.988062687247 6839.397870309708,-15681.4791831885 6660.143534109992,-13227.49182564754 6142.141055683769,-10654.518760012645 5261.029663716881,-7993.59753252623 3995.0667852530946,-5279.169116199391 2325.565076913507,-2548.884996746439 237.3204283480794,156.63835170638737 -2280.9750007942803,2794.1180621071812 -5236.340860968364,5317.956372507266 -8631.144110063004,7680.644188278926 -12462.768309329082,9833.215166032327 -16723.323106554788,11725.748044626167 -21399.400223439166,13307.914195803278 -26471.88210904059,14529.566601347724 -31915.809179074036,15341.36569392395 -37700.3112288802,15695.43673422022 -43788.6081842046,15546.052647537936 -50138.08483763612,14850.335518878223 -56700.44360987177,13568.96925758305 -63421.93867530793,11666.915301667903 -70243.69400337093,9114.122649263303 -77102.10699444222,5886.222991207261 -83929.3384373347,1965.201285832674 -90653.88849060997,-2659.968224857973 -97201.25730045454,-7992.730798786826 -103494.6877225538,-14028.41514737839 -109455.986424944,-20753.76293804316 -115006.41842497226,-28146.534104680086 -120067.66886922602,-36175.197969866516 -124562.86461473207,-44798.7197854182 -128417.64692801161,-53966.45175493764 -131561.28540173222,-63618.13690979302 -133927.82201354392,-73684.03336731083 -135457.23313563532,-84085.16550723022 -136096.5962644251,-94733.70746194797 -135801.2472957061,-105533.50303207482 -134535.91333960622,-116380.72471769855 -132275.80536980205,-127164.67300598424 -129007.65445003845,-137768.71538801922 -124730.67489496611,-148071.36280497527 -119457.43751747368,-157947.47936071546 -113214.636105765,-167269.6192020701 -106043.73047365193,-175909.48247835113 -98001.44984837886,-183739.48026940104 -89160.14101137845,-190634.39633955658 -79607.94649591422,-196473.13155800762 -69448.79927653057,-201140.51485021767 -58802.221760707216,-204529.16263768106 -47802.91851240592,-206541.366912643 -36600.15399647922,-207090.99040951973 -25356.908725119596,-206105.3458049736 -14248.809502251268,-203527.03453337797 -3462.8319851063357,-199315.71967284565 6804.223503236645,-193449.80646744682 16347.479091797713,-185928.00343102068 24955.942561042648,-176770.73665283876 32414.67662620888,-166021.3899190909 38507.16107230224,-153747.34359819934 43017.831221478344,-140040.785930964 45734.77291184732,-125019.2714338926 46452.55089045703,-108826.00257760262 44975.14431477962,-91629.81274967515 41118.959960897795,-73624.8307561768 34715.89079880185,-55029.809756956514 25616.38486292081,-36087.106560440196 13692.486866960715,-17061.30061237023 -1159.1871658795915,1762.5542172863218 -19014.583815939164,20081.04783692435 -39919.49771733673,37574.90049508804 -63887.05253601133,53911.811377450686 -90895.42198241575,68749.65798560333 -120885.83536289922,81740.02992459656 -153760.91161726945,92532.07546726616 -189383.36464956278,100776.63392127186 -227575.12100975178,106130.62146037196 -268116.8886069737,108261.6327599924 -310748.212117411,106852.71556770327 -355168.0470868232,101607.27031408375 -401035.88042126026,92254.02210350313 -447973.4200201999,78552.00799422465 -495566.8707532473,60295.51846053055 -543369.8078426389,37318.92840394512 -590906.6520262549,9501.35012284401 -637676.743686055,-23228.961665409173 -683159.0054906695,-60890.52425630432 -726817.175083433,-103444.93316890406 -768105.5810225473,-150793.63243391213 -806475.4266313914,-202775.22033005205 -841381.5377356012,-259163.36006233175 -872289.5215484522,-319665.36200823524 -898683.2753235275,-383921.5002695628 -920072.7749360688,-451505.12133853487 -936002.0653992523,-521923.59670859954 -946057.3675907473,-594620.1642369528 -949875.2082828456,-668976.6950149394 -947150.4740623514,-744317.4134551479 -937644.2840203431,-819913.5883062058 -921191.5713116216,-894989.2014186857 -897708.2599506254,-968727.5893840243 -867197.9206412594,-1040279.0407439389 -829757.7881425349,-1108769.3184267015 -785584.0227515345,-1173309.0635297731 -734976.1000310399,-1233004.0226708117 -678340.2160002541,-1286966.0270197354 -616191.5997084948,-1334324.6369648173 -549155.6314727616,-1374239.352328224 -477967.6731128449,-1405912.2743140408 -403471.52627528034,-1428601.092135909 -326616.44639263983,-1441632.2547296688 -248452.65294873223,-1444414.1763115807 -170125.2914617177,-1436450.3139997213 -92866.81888082685,-1417351.9464797864 -17987.801819115866,-1386850.4749694073 53133.86390941346,-1344809.0617144208 119065.28376354698,-1291233.417125311 178332.39506069772,-1226281.544610753 229435.22576172467,-1150272.2523523136 270864.4869471716,-1063692.2438370676 301119.3815447844,-967201.6040517356 318726.4888605533,-861637.5059470864 322259.56166358583,-748015.9721852248 310360.05027658114,-627531.54033563 281758.1466395232,-501554.6956093355 235294.12096629888,-371626.95390181657 169939.70473143843,-239453.49930617606 84819.25664015506,-106893.30427463674 -20769.566717696875,24053.312874820753 -147335.92632151998,151259.709550935 -295177.0027854957,272490.5050282181 -464360.5921641137,385421.68368783663 -654709.4058741482,487663.1334101496 -865787.3847144436,576783.5013712764 -1096888.3326876618,650337.2127654251 -1347027.1679619518,705893.4607052217 -1614934.0756855526,741066.9381715307 -1899051.8303556272,753550.0458498485 -2197536.5339617454,741146.2734860646 -2508261.9901424902,701804.4175263051 -2828827.9041324817,633653.2647969354 -3156572.063415461,535036.3413666547 -3488586.6148758885,404546.298054348 -3821738.5110590667,241058.47984462467 -4152694.151171138,43763.20628219134 -4477948.192008934,-187803.72574460346 -4793856.450497891,-453732.8160525561 -5096672.763396705,-753715.4164005675 -5382589.611521938,-1087021.5704752086 -5647782.256139747,-1452481.635072926 -5888456.074607366,-1848472.165163051 -6100896.721619611,-2272906.5248260964 -6281522.6822703285,-2723230.6582399043 -6426939.724362952,-3196424.419800633 -6533996.700820308,-3689008.820066164 -6599842.099502832,-4197059.494533913 -6621980.688116722,-4716226.645444339 -6598329.557057579,-5241761.643063277 -6527272.823870587,-5768550.402570848 -6407714.230382336,-6291153.576205784 -6239126.838314876,-6803853.5182203995 -6021599.012138986,-7300707.893138804 -5755875.869821613,-7775609.706529906 -5443395.383671538,-8222353.442859333 -5086318.325315943,-8634706.897923997 -4687551.271488666,-9006488.194943858 -4250761.921223598,-9331647.374722747 -3780386.0205531153,-9604351.85260308 -3281625.2481266297,-9819074.93950984 -2760435.484361297,-9970686.532546345 -2223504.96775521,-10054544.993750852 -1678221.934613283,-10066589.155161686 -1132631.442284799,-10003429.315701064 -595381.1905482581,-9862436.031999763 -75656.28029511399,-9641825.452555448 416897.0177214518,-9340739.903915286 872258.2696459315,-8959322.410213636 1280130.2978783285,-8498783.814607184 1630046.4962051217,-7961461.174072873 1911487.3660810483,-7350866.118681325 2114005.439463822,-6671721.903707059 2227357.593293796,-5929987.938501446 2241643.6020382126,-5132870.650472572 2147449.6197678824,-4288819.636121663 1935995.1341803365,-3407508.16400261 1599281.7940765144,-2499797.226585856 1130242.381336513,-1577682.4889638703 522888.0807460988,-654223.6515160314 -227547.90158069515,256544.06982699485 -1124472.4056705558,1139716.439375659 -2169802.1711740284,1979644.5497383904 -3363843.6208932223,2760076.6678750673 -4705184.738566196,3464316.9833728205 -6190601.199729885,4075400.4128937493 -7814978.881884462,4576282.358231079 -9571254.818948885,4950042.05542673 -11450378.573980346,5180097.891955702 -13441295.882463224,5250432.811277353 -15530956.265620375,5145827.6724820165 -17704346.12896988,4852100.190861482 -19944548.645938378,4356346.856662918 -22232831.480336525,3647185.017782416 -24548763.125916433,2714992.121491376 -26870358.337509166,1552138.9442332888 -29174252.798283517,153213.5007950469 -31435906.813813273,-1484767.781645862 -33629837.44870053,-3362165.109512553 -35729878.12872285,-5476540.105556452 -37709464.324547924,-7822503.835188593 -39541943.516101144,-10391591.529170536 -41200907.21420406,-13172167.354738893 -42660542.392997205,-16149362.4381159 -43895999.26815553,-19305049.14241043 -44883771.947502784,-22617854.355276156 -45602088.08809615,-26063214.240078066 -46031303.32312302,-29613472.55304616 -46154295.87911726,-33238024.227958865 -45956856.49516919,-36903505.48092919 -45428068.48711888,-40574031.19327183 -44560672.577204436,-44211479.793275975 -43351410.939141236,-47775825.28183935 -41801344.79575413,-51225515.436910145 -39916139.856326744,-54517894.59282868 -37706313.89860863,-57609668.728983074 -35187440.89024409,-60457409.92438629 -32380306.20997497,-63018096.54821629 -29311007.773320124,-65249684.86896442 -26010998.192801997,-67111707.08513291 -22517063.510540627,-68565890.11736324 -18871234.53162005,-69576788.86483638 -15120627.359492434,-70112427.02742232 -11317210.38821217,-70144938.03926124 -7517495.737747952,-69651198.1591609 -3782153.924139528,-68613443.32839088 -175551.43077247977,-67019861.04686851 3234788.2157042352,-64865148.24396589 6378798.268767946,-62151025.939207494 9184554.849503411,-58886701.40964867 11579031.586963706,-55089268.61240405 13488917.99828928,-50784037.75978963 14841495.679612853,-46004785.21668914 15565565.26192486,-40793915.29005811 15592415.982070232,-35202526.01246126 14856828.642443048,-29290371.687391452 13298101.699027225,-23125715.76463048 10861089.241849689,-16785068.547971755 7497238.730791148,-10352805.30276061 3165615.539142764,-3920661.5222376334 -2166099.346440734,2412896.5765518616 -8520652.702073906,8543426.832970753 -15910318.194287645,14361390.179500299 -24336066.224775326,19753151.300624795 -33786819.58116468,24602096.589361224 -44238809.92676738,28789863.327382892 -55655049.915429905,32197672.22341771 -67984935.27045842,34707753.63129125 -81163990.51100592,36204855.95450469 -95113771.13976297,36577822.95128005 -109741934.01847602,35721224.906125695 -124942486.3519947,33537026.95611965 -140596222.17848605,29936276.277663935 -156571353.52790582,24840788.37866518 -172724341.46978918,18184811.428126484 -188900930.13565722,9916646.416341035 -204937384.48398572,200.00000025097614" stroke="white" stroke-width="1.5" /></svg>