<?xml version="1.0" encoding="utf-8" ?>
<svg baseProfile="full" height="400" version="1.1" width="400" xmlns="http://www.w3.org/2000/svg" xmlns:ev="http://www.w3.org/2001/xml-events" xmlns:xlink="http://www.w3.org/1999/xlink"><defs /><rect fill="black" height="100%" width="100%" x="0" y="0" /><circle cx="200" cy="200" fill="yellow" r="10.000000320501464" stroke="orange" stroke-width="2" /><polyline fill="none" points="200.70736752973824,200.0 200.64404002024645,200.03380915903557 200.57260738659662,200.06028467487903 200.49355209593796,200.07830365211544 200.40748826014885,200.08676322945533 200.3151629614446,200.08459531333565 200.21745601746022,200.07078185498358 200.11537808437384,200.0443705169335 200.01006701052364,200.00449055981713 199.90278236887715,199.9503687661622 199.7948981145761,199.88134520518835 199.68789333350693,199.79688863142638 199.58334106932259,199.69661130065245 199.48289523940892,199.5802829793636 199.38827567477307,199.44784391905196 199.30125134451916,199.29941656407777 199.2236218522308,199.135315762196 199.15719731893452,198.9560572499359 199.1037767950755,198.76236419121963 199.06512537178577,198.5551715569665 199.04295018931697,198.33562814605327 199.0388755674914,198.10509606395686 199.05441750901502,197.86514749471138 199.0909578511071,197.61755862445642 199.14971836373397,197.36430060077734 199.23173511338615,197.10752744113682 199.3378334294052,196.8495608358243 199.46860382495163,196.59287182580624 199.62437923642156,196.34005937340075 199.8052139530941,196.09382588353188 200.01086461267587,195.85694977509905 200.2407736378809,195.63225524533675 200.49405548395225,195.42257941450217 200.7694860568512,195.23073708334059 201.06549564649944,195.05948338101615 201.3801656988103,194.9114746260093 201.7112297241848,194.7892277662851 202.05607860863978,194.69507880721355 202.4117705568059,194.63114067564342 202.77504585377937,194.5992610055461 203.142346585402,194.60098036409897 203.50984140422145,194.6374914663164 203.87345537147584,194.70959995071414 204.22890484434603,194.81768730737804 204.57173731291243,194.96167656260204 204.89737602329382,195.14100133039364 205.20116915297035,195.35457884009443 205.47844323200823,195.60078754066257 205.72456043058983,195.87744986540875 205.9349792597499,196.18182071583428 206.10531815943213,196.51058218944306 206.2314213768603,196.8598450338284 206.30942646976274,197.225157257912 206.33583270422847,197.60152027098357 206.30756955696023,197.98341285131275 206.22206447748798,198.3648231688607 206.07730901858113,198.73928900140504 205.8719224036982,199.0999461907362 205.60521156985664,199.43958528613976 205.27722670377645,199.75071621692967 204.88881127946374,200.02564072525263 204.44164560740592,200.2565321757752 203.93828292000285,200.4355222413504 203.3821770454156,200.5547938446013 202.7777007632087,200.6066796159332 202.1301539903951,200.58376501025634 201.44576101601788,200.47899510922346 200.731656086314,200.28578402467454 199.99585674071633,199.99812571392 199.2472244112067,199.610704920183 198.49541192336858,199.11900686370245 197.75079767625493,198.51942423239058 197.0244064290216,197.80935995725142 196.3278167841102,196.9873242086541 195.6730556283227,196.0530240166055 195.07247997292853,195.0074439028733 194.53864682029914,193.8529159165444 194.08417187559502,192.593177488593 193.7215781156754,191.2334155663378 193.46313542142403,189.78029555614768 193.3206926716984,188.24197369306168 193.30550388459417,186.6280915695217 193.42805017202994,184.94975169232214 193.69785944408224,183.2194730970195 194.12332595725104,181.45112623198256 194.711531943101,179.65984652924777 195.46807367769833,177.8619263053062 196.3968944551779,176.07468488047698 197.5001270079397,174.3163170688755 198.77794796881622,172.60572047008165 200.22844699464375,170.9623022860328 201.8475131637992,169.4057666896653 203.6287412204251,167.95588408234525 205.56336016356374,166.63224389180385 207.64018656884681,165.45399287748842 209.84560488271197,164.43956122207192 212.16357674368413,163.6063789922265 214.57568116185482,162.97058584437036 217.06118712654356,162.54673712752012 219.59715991396277,162.3475097910935 222.15860203275253,162.38341173594713 224.7186293772681,162.6624984475361 227.24868275878643,163.1901009163568 229.71877455619742,163.96856897841144 232.09776977365684,164.9970342931315 234.35370031704582,166.2711972140966 236.45411080837687,167.78314179537406 238.36643375249835,169.5211831101644 240.05839135904677,171.46975093589947 241.49842081049806,173.60931367874932 242.65611926070054,175.91634616897656 243.5027043541116,178.36334465569675 244.01148558107747,180.918891965019 244.15834133609115,183.5477753596535 243.92219613138994,186.21115915207403 243.28549204493348,188.86681357923607 242.23464815714308,191.4694008475478 240.76050146208289,193.9708186060342 238.8587225331121,196.320600408068 236.5301990872187,198.4663719832129 233.78138053262236,200.35436136705403 230.6245766066572,201.9299601356801 227.07820332062647,203.1383321708392 223.16696962974206,203.92506555063645 218.92199854306205,204.23686232860285 214.38087678321386,204.02226014133507 209.58762760029646,203.23237878254946 204.5926019392168,201.82168411064856 199.45228385415462,199.74876092946812 194.22900685588573,196.97708580971025 188.9905787640219,193.4757902137339 183.8098136121262,189.2204037609024 178.7639702130007,184.19356703642893 173.93409812662566,178.38570301512803 169.4042929752145,171.79563595367597 165.26086430816034,164.43114651123219 161.59142052240247,156.3094518980518 158.48387667771055,147.45760003347254 156.02539239706056,137.9127670256372 154.30124839398303,127.72244777138945 153.39367150474504,116.94453012029234 153.38061940582278,105.64724385432784 154.33453744787784,93.90897670532637 156.32110121734434,81.81795076440558 159.39795952634063,69.47175392839966 163.61349351133353,56.97672247199944 169.00560837126312,44.4471724233745 175.60057497742665,32.00447914539728 183.41193912164604,19.776006371812173 192.43951651824224,7.893887903075438 202.66849182236516,-3.5063327869807495 214.06863985692652,-14.287197664376748 226.59368693907874,-24.310954430547127 240.18082965313434,-33.44129026786476 254.75042762056762,-41.54516510695237 270.2058857622736,-48.494728318045475 286.43374022935177,-54.169300614101246 303.3039605951178,-58.457400923786224 320.6704790547719,-61.258796078823195 338.3719552755609,-62.48654939404628 356.23278318829745,-62.06904263173385 374.06434342335274,-59.9519444661118 391.66650228714445,-56.10009743062079 408.82935516891195,-50.499294469937325 425.33520908627156,-43.157915659795066 440.96079574953797,-34.10839542755838 455.4797030806194,-23.408490730116313 468.6650095975569,-11.142321145142546 480.29210250891737,2.578847273881536 490.1416567948496,17.616101224021776 498.0027490279817,33.80268757985948 503.6760762542763,50.944151986265354 506.9772469602108,68.81882899808551 507.7401080485536,87.17870113705538 505.82006888186373,105.75064080764724 501.09738088239646,124.2380451817906 493.4803289509744,142.3228699481389 482.9082891362918,159.66806325160672 469.3546055993275,175.92039625628635 452.8292390220509,190.71368158883985 433.38113824946254,203.6723655054203 411.1002871695531,214.41547402457456 386.11937966287184,222.56088753852873 358.61507692273267,227.7299126184104 328.8088035834029,229.55211393293905 296.967041915,227.6703634770769 263.4010868610561,221.74605873315704 228.46622891064982,211.46445604141724 192.56033670600704,196.5400604214591 156.12181687386956,176.72200844433365 119.62693481068428,151.79937659083734 83.5864870138916,121.606343928952 48.54182299059863,86.0271349846589 15.060222736628958,45.00066644543884 -16.270355800515915,-1.475180098992837 -44.84713605601104,-53.3397377374078 -70.05895665439033,-110.4662641242474 -91.29323804951343,-172.6592582895684 -107.94343093882321,-239.6524585747233 -119.416885977157,-311.10759239886244 -125.14307502122824,-386.6139439497656 -124.58208508714029,-465.6888001500472 -117.23329752891249,-547.7788283721306 -102.64415677897404,-632.2624313720353 -80.41892546749665,-718.4531158072964 -50.22731599297009,-805.6039005374755 -11.812882787640916,-892.9127797324086 34.99894525776486,-979.5292437048804 90.29331634552675,-1064.561847429007 154.05901773096284,-1147.0868030075947 226.1822754012821,-1226.1575580318763 306.4414181366021,-1300.815306971792 394.5025303506165,-1370.1003675959842 489.9162141433562,-1433.0643391140552 592.1155752698079,-1488.7829434384696 700.4155401889373,-1536.369435870824 814.0136019805991,-1574.9884568285577 931.9920816961269,-1603.8701821530133 1053.3219786586392,-1622.3246162946707 1176.8684683907195,-1629.7558604764488 1301.3980902851936,-1625.676177013318 1425.5876489397879,-1609.7196615373534 1548.0348333654815,-1581.655327158941 1667.270537194998,-1541.3993987977622 1781.772840732585,-1489.0266122423973 1889.9825923956994,-1424.7803111325784 1990.3205030258,-1349.081136175075 2081.2056419363435,-1262.5341046553317 2161.075198691521,-1165.9338848218654 2228.4053497606938,-1060.2680791034236 2281.7330446823084,-946.7183424450989 2319.6785025241297,-826.6591773629782 2340.9681865857096,-701.6542656270237 2344.4580038052554,-573.4502177616429 2329.1564555647287,-443.967645736955 2294.2474488950847,-315.2894912049155 2239.1124618270205,-189.64657126475237 2163.351744164364,-69.40033583055612 2066.804225619405,42.97713501418693 1949.5657973676098,144.92582903276605 1812.005630957945,233.8230926973929 1654.7802004331181,307.0113732275177 1478.8446797173979,361.8282301296282 1285.4613980289341,395.6383941386943 1076.2050514360885,405.86761109109705 852.9643888247451,390.03796844907856 617.9401155456553,345.80436348028525 373.6387878817039,270.9917350276885 122.86250616903111,163.63264595654312 -131.30574618525281,22.00477131827347 -385.52122659706436,-155.3321813874751 -636.2010806727012,-369.5006181584191 -879.5525213796072,-621.2707890912532 -1111.6054925160736,-911.0286371303512 -1328.2497099925026,-1238.746307869524 -1525.2759128271912,-1603.9558666051037 -1698.4210921144374,-2005.7267655578253 -1843.417401197414,-2442.647593927658 -1956.0443845889067,-2912.8126258802445 -2032.1840976026688,-3413.8136564149822 -2067.8786240098966,-3942.7375821380992 -2059.389436185603,-4496.170143147752 -2003.257982061008,-5070.206193511834 -1896.3668266796512,-5660.466811259415 -1736.0006242127222,-6262.123494592003 -1519.9061498759256,-6869.929619438165 -1246.3505812540116,-7478.259254920521 -914.1771860097288,-8081.153348289054 -522.8575487331265,-8672.373200023689 -72.53945463173648,-9245.461053861134 435.9104573261387,-9793.807526308805 1000.8701535933349,-10310.725496735071 1619.932642375436,-10789.529973436122 2289.8842230893706,-11223.623344342921 3006.691343748177,-11606.585314505575 3765.496807248494,-11932.266727513997 4560.626000892526,-12194.886365994646 5385.603743981075,-12389.1297287315 6233.182256093818,-12510.248690301807 7095.380644026971,-12554.160864937743 7963.536188751997,-12517.54742116581 8828.367585844293,-12397.948029179528 9680.05015444153,-12193.85157037869 10508.302881946527,-11904.78119952015 11302.487015596054,-11531.372325864291 12051.715749064699,-11075.442071867554 12744.97438402819,-10540.048777546552 13371.25017481318,-9929.540146672793 13919.670890810134,-9249.588678336388 14379.650958267885,-8507.213094845594 14741.043872603885,-7710.784564916419 14994.299406745844,-6870.016629928853 15130.623982652962,-5995.937870730151 15142.14242450811,-5100.846502834467 15022.059175620925,-4198.246258414517 14764.816939354505,-3302.7631034364895 14366.25059988539,-2430.042546590297 13823.734193778975,-1596.6275219505067 13136.318640586596,-819.8170679047788 12304.857902203084,-117.50627883879935 11332.12122867009,491.99172889538795 10222.88916439215,990.1408216318563 8984.031035043286,1358.3925292987722 7624.561713216812,1578.410826341249 6155.675571251685,1632.309155266507 4590.755673463185,1502.897558537952 2945.35643766518,1173.937515664563 1237.1582074543364,630.4018253336965 -514.1075781320023,-141.26336868979064 -2286.763653063186,-1152.8775303615548 -4057.32335694835,-2414.2689824814133 -5800.658618772217,-3933.0259448492598 -7490.199511958326,-5714.258985169575 -9098.165009476319,-7760.378609508626 -10595.824154596305,-10070.891780612 -11953.786431865237,-12642.2211708926 -13142.319678100168,-15467.55092929093 -14131.693419274177,-18536.70266474661 -14892.545061145454,-21836.0452213806 -15396.265904772898,-25348.441639832687 -15615.403508442505,-29053.23646422703 -15524.076481064129,-32926.286264232054 -15098.397375099818,-36940.03589656431 -14316.898956045214,-41063.64263066269 -13160.958767004166,-45263.14981044715 -11615.21658761713,-49501.71122014766 -9667.979113122768,-53739.86676999472 -7311.605958116902,-57935.86952073016 -4542.870926878209,-62046.063428869464 -1363.2923938989843,-66025.31052265807 2220.5733899713478,-69827.4655177244 6196.882203547809,-73405.89515832925 10548.300984982108,-76714.03883236575 15251.861987027933,-79706.00626404237 20278.877464109766,-82337.2073463547 25594.9200133604,-84565.00844536413 31159.873218318546,-86349.40879985686 36928.056680965965,-87653.72996339489 42848.42887624326,-88445.31060165705 48864.8705252942,-88696.19837703565 54916.55036284065,-88383.83013547934 60938.3742749441,-87491.69116828573 66861.51781190893,-86009.94396444844 72614.04104445963,-83936.0166073946 78121.58363811985,-81275.14081315933 83308.13688074837,-78040.82956422027 88096.88822248523,-74255.28437250761 92411.13268817251,-69949.72241372294 96175.24431298664,-65164.61411910721 99315.69954690465,-59949.822294971986 101762.14338801411,-54364.6344680295 103448.48785461923,-48477.68092762497 104314.0313082722,-42366.73185450307 104304.5861114363,-36118.367988053586 103373.60116191025,-29827.52048649236 101483.26500892587,-23596.876971571623 98605.57454039821,-17536.152213554848 94723.3536542021,-11761.223493659034 89831.20590505529,-6393.13236809445 83936.38486823389,-1556.9563363497302 77059.56589650815,2619.4442295456565 69235.50308059945,6006.796626387393 60513.55556774969,8475.89461408605 50958.06795749287,9899.174279941126 40648.59028614151,10152.373832184065 29679.92413725008,9116.26225660974 18161.98267727295,6678.419903078281 6219.453913910944,2735.052287198366 -6008.741793575617,-2807.183275511317 -18370.206983414646,-10029.360111893347 -30700.039933187945,-18998.496974686004 -42822.02754408634,-29765.82958951112 -54550.058143078786,-42365.1643186089 -65689.75133360225,-56811.33997272792 -76040.29913228714,-73098.82420232223 -85396.50961403664,-91200.470996967 -93551.0411798115,-111066.46559624175 -100296.81239317518,-132623.48254738824 -105429.56913840993,-155774.0817189736 -108750.58767287465,-180396.36578311358 -110069.48901967498,-206343.92100287587 -109207.13711613214,-233446.06110164535 -105998.59024311682,-261508.39154756023 -100296.07255538751,-290313.708763171 -91971.93005971241,-319623.2455780262 -80921.53319204412,-349178.27069489914 -67066.08627328405,-378702.0460592443 -50355.30262016409,-407902.1418320706 -30769.90299690647,-436473.10420025 -8323.894455757756,-464099.46655238577 16933.4135314826,-490459.08964517515 44915.698368455465,-515226.8113325529 75498.26083605856,-538078.3812806539 108517.0490616886,-558694.6509033164 143768.10809421362,-576765.9835874393 181007.49048413997,-591996.8452008301 219951.65990582653,-604110.5299562543 260278.41587226753,-612853.9720160386 301628.36299075757,-618002.5888355557 343606.94300563907,-619365.0982359698 385787.04209686996,-616788.2476420674 427712.1795837016,-610161.390894404 468900.27736358705,-599420.8456192923 508848.0021489589,-584553.9623858744 547035.6649090982,-565602.8358634389 582932.6539502458,-542667.5879762437 616003.3698520896,-515909.1536938473 645713.6221091865,-485551.5016415897 671537.4388951235,-451883.2242099147 692964.2329763497,-415258.43531508633 709506.2585586181,-376096.9184399991 720706.2858641676,-334883.47307354974 726145.4126289492,-292166.41417014325 725450.9245961923,-248555.1867542654 718304.1105870383,-204717.0662723172 704447.9319730515,-161372.92470486287 683694.441480374,-119292.05274258486 655931.8423394971,-79286.03942937597 621131.0759725583,-42201.72250236971 579351.8247900263,-8913.235112801227 530747.8163512503,19686.812419481746 475571.3162198511,42696.96380810576 414176.69939534133,59217.295344349535 347022.99429353257,68360.46246896862 274675.2989326692,69263.32142614375 197804.97629574884,61099.01966599992 117188.54480025296,43089.43569996957 33705.19041343407,14517.836766729757 -51667.16081728791,-25258.388869632618 -137857.25723696768,-76795.07869548378 -223707.45514917484,-140548.8848248653 -307982.18681246426,-216865.27592313045 -389377.9601376276,-305967.1294437008 -466534.868113325,-407944.0959848509 -538049.5657292497,-522742.920156322 -602489.6510759518,-650158.9028079906 -658409.3655853923,-789828.687666959 -704366.5062645769,-941224.5512258803 -738940.4205147246,-1103650.3680158257 -760750.9319872973,-1276239.4140971361 -768478.0241892684,-1457954.1596536853 -760882.0875106931,-1647588.1869512366 -736824.5153163848,-1843770.352621573 -695288.4160371283,-2044971.293297046 -635399.1911358347,-2249512.351116584 -556444.7137327063,-2455576.9706618222 -457894.8298705667,-2661224.5916069425 -339419.8941995338,-2864407.031962579 -200908.04456017408,-3062987.3254856607 -42480.91583147034,-3254760.9438755168 135492.50725106575,-3437479.3000819827 332384.1955716421,-3608875.3937498275 547297.8297383906,-3766691.42388778 779062.2821423798,-3908708.157684296 1026228.0910801573,-4032775.8084302633 1287067.171525092,-4136846.1402122043 1559575.9832603214,-4219005.482892241 1841482.3488686602,-4277508.308394645 2130256.0815734505,-4310810.988987892 2423123.5462560495,-4317605.330608546 2717086.2363177645,-4296851.449843021 3008943.4046449126,-4247809.54248379 3295318.739076688,-4170070.0751159713 3572691.0218311525,-4063581.9194571306 3837428.658741676,-3928677.9426295706 4085827.9083835776,-3766097.565620007 4314154.583777309,-3577005.8072641836 4518688.94094517,-3363008.3425222733 4695773.409832197,-3126162.121868167 4841862.764686092,-2868981.12352154 4953576.273675011,-2594436.8421539837 5027751.312093463,-2305953.156672121 5061497.870781159,-2007395.2657098512 5052253.342193811,-1703052.4324485199 4997836.921768436,-1397614.3401352176 4896502.922669607,-1096140.9258951563 4746992.268530055,-804025.6327437643 4548581.402233481,-526952.0976062269 4301127.829922203,-270844.37605131645 4005111.5089980154,-41810.891647503755 3661671.2876165197,153917.61144643757 3272635.6116820285,310055.7407281297 2840546.734180938,420336.2855671789 2368677.6913026213,478587.643028362 1861041.3505430745,478815.1820465883 1322390.888106136,415285.79562222166 758211.1165233954,282614.8007282603 174700.1584853727,75854.26006915451 -421258.9507530802,-209418.27993468518 -1022137.052678612,-577011.7131626739 -1619808.2589645106,-1030035.102087356 -2205610.0437582894,-1570814.4067556388 -2770414.00272598,-2200813.4537458844 -3304707.111884598,-2920560.414723332 -3798683.177413756,-3729581.0807907763 -4242344.020137247,-4626340.22051777 -4625609.7866617665,-5608192.295311986 -4938437.624858562,-6671342.774782627 -5170947.80621973,-7810821.246198514 -5313556.223487823,-9020467.445493093 -5357112.04083027,-10292931.252130952 -5293039.1277916655,-11619687.586347587 -5113479.769462879,-12991067.02484815 -4811439.01596957,-14396302.81027235 -4380927.916745553,-15823594.7711332 -3817103.7813663334,-17260190.493288003 -3116405.5211974937,-18692483.892347213 -2276682.056935099,-20106131.130084783 -1297311.72836846,-21486183.59846284 -179310.6163550145,-22817237.464178592 1074572.3151095046,-24083599.02679485 2459775.3250650647,-25269464.896906633 3969861.2672468587,-26359115.75002944 5596474.1648578625,-27337122.159821644 7329316.817033566,-28188560.763915554 9156151.126480337,-28899238.770263888 11062822.668339022,-29455924.574891124 13033310.820641592,-29846582.03678994 15049805.547246123,-30060605.7460044 17092811.66571568,-30089054.430349953 19141281.146525353,-29924879.478378765 21172773.677945793,-29563145.41472351 23163645.39510254,-29001239.052364204 25089265.31463721,-28239063.968061738 26924258.641111024,-27279216.90537691 28642775.72125108,-26127142.707323357 30218785.021203425,-24791264.42045066 31626388.09438592,-23283085.296345234 32840154.097950254,-21617259.54711288 33835471.009232886,-19811628.889831305 34588910.29514908,-17887222.14223837 35078601.40277497,-15868215.408484308 35284612.07406638,-13781850.719487766 35189330.14763812,-11658311.366540888 34777842.20167808,-9530552.58788642 34038304.12034431,-7434086.733956821 32962298.43724673,-5406722.545026165 31545173.129576627,-3488258.7216811357 29786356.41061552,-1720132.5495521997 27689642.001934953,-145024.95023545926 25263439.364381388,1193576.0353438363 22520983.43326888,2251850.673015755 19480498.541831702,2986158.5503256232 16165311.431043027,3353581.194261989 12603908.535769347,3312491.645110503 8829933.108490234,2823145.692809844 4882118.193159466,1848288.8577115934 804151.9929748696,353772.60495617875 -3355527.2144058114,-1690827.2697274722 -7544008.774637963,-4311597.645485862 -11704261.3690254,-7529688.475703612 -15775559.315869456,-11360734.95378047 -19693983.145593554,-15814310.108341273 -23392993.18906073,-20893416.69311599 -26804073.925502032,-26594027.342212833 -29857445.804998633,-32904681.962480463 -32482840.200760305,-39806151.22410291 -34610332.06980855,-47271174.78239703 -36171223.81936524,-55264282.512952134 -37098972.80340174,-63741706.56490766 -37330153.82334159,-72651391.43078755 -36805446.99338418,-81933108.49478112 -35470640.369424276,-91518680.65514556 -33277635.84651902,-101332321.62258244 -30185446.018945217,-111291093.37883708 -26161168.984745022,-121305484.04398292 -21180927.478760775,-131280107.05437472 -15230758.24958454,-141114521.10537508 -8307437.271099852,-150704168.77494714 -419226.2120355134,-159941430.12912756 8413474.410184477,-168716785.93319902 18157579.780666895,-176920083.36975068 28766897.057038248,-184441895.41518682 40181836.79671896,-191174963.26950333 52329272.19914719,-197015709.49174914 65122557.8300314,-201865807.78812099 78461718.29261388,-205633793.75480366 92233815.89819935,-208236699.3180021 106313504.76821934,-209601692.1642075 120563776.97919887,-209667700.14002398 134836904.34934,-208386999.4482923 148975577.27322516,-205726744.50088593 162814239.65465286,-201670416.5329813 176180616.48510766,-196219167.56224266 188897427.9882486,-189393036.01148695 200784281.52336335,-181232010.32540447 211659729.6402278,-171796917.2192487 221343479.83413824,-161170111.81599715 229658738.69559854,-149455947.8715298 236434670.31895006,-136781007.5647935 241508946.06504527,-123294071.94830877 244730360.10337672,-109165815.11638476 245961482.628724,-94588207.45264162 245081320.2973001,-79773615.95921162 241987951.29870054,-64953592.63690271 236601100.6142163,-50377345.163698934 228864619.44980016,-36309887.68819168 218748831.61331475,-23029873.39011099 206252708.76835188,-10827114.532043654 191405836.0773574,199.9999997655957" stroke="white" stroke-width="1.5" /></svg>