<?xml version="1.0" encoding="utf-8" ?>
<svg baseProfile="full" height="400" version="1.1" width="400" xmlns="http://www.w3.org/2000/svg" xmlns:ev="http://www.w3.org/2001/xml-events" xmlns:xlink="http://www.w3.org/1999/xlink"><defs /><rect fill="black" height="100%" width="100%" x="0" y="0" /><circle cx="200" cy="200" fill="yellow" r="10.000015056800791" stroke="orange" stroke-width="2" /><polyline fill="none" points="200.08016091107575,200.0 200.00756539751382,200.00039714881012 199.93048372093557,199.9926812570353 199.84958982633339,199.97613693466133 199.76565073232663,199.9501018771034 199.67952323969294,199.9139783690612 199.59214930308391,199.86724474575948 199.50455003398585,199.80946666582284 199.41781831787668,199.7403080426037 199.33311004462712,199.6595414747622 199.25163396838482,199.56705801245178 199.174640231316,199.4628760927581 199.1034076045062,199.34714947721986 199.03922951884942,199.22017402546638 198.98339897868834,199.0823931423571 198.93719247107882,198.93440174160588 198.90185300360932,198.77694857679958 198.87857242344938,198.61093680102923 198.86847318946982,198.4374226290814 198.87258978759192,198.25761199128362 198.89184999669737,198.07285508563913 198.92705622817758,197.88463875476282 198.97886717622595,197.69457663625334 199.04778002799335,197.50439705937674 199.13411349244686,197.31592868714066 199.237991913925,197.1310839308062 199.3593307407043,196.9518401933889 199.4978236201418,196.78021902947674 199.65293138991058,196.618263340444 199.82387322931248,196.4680127565348 200.0096202254588,196.33147738997016 200.2088915961367,196.210610175809 200.4201537943247,196.10727804935613 200.64162269854086,196.02323224002276 200.87126906849554,195.96007799126085 201.10682741692037,195.91924404404278 201.34580841605333,195.9019522468783 201.58551492122407,195.9091876780698 201.82306165450916,195.9416696853405 202.05539854877406,195.99982426366404 202.27933770690495,196.08375820363077 202.49158388303402,196.19323544958797 202.68876834250722,196.32765610868555 202.86748590571753,196.48603854849506 203.02433492826927,196.66700501172645 203.15595991683267,196.8687711614786 203.25909642712492,197.08913994921846 203.33061783838647,197.3255001701368 203.36758354821086,197.57483003660187 203.3672880833687,197.8337060601155 203.32731057709367,198.0983174855469 203.24556402193667,198.36448646863175 203.1203436705122,198.62769412902492 202.95037392502635,198.88311254691564 202.7348530311326,199.12564270178447 202.47349487313843,199.34995827781412 202.16656715656566,199.55055518237995 201.81492526119203,199.7218065426348 201.42004105355332,199.85802286126423 200.98402596297137,199.95351692689016 200.50964764993108,200.0026729883034 200.00033963039238,200.00001961573057 199.46020326463332,199.9403055877813 198.89400157460173,199.8185780607253 198.3071444195123,199.6302621985047 197.70566463543943,199.37124136862246 197.0961848306666,199.0379369420054 196.48587462415702,198.62738667537263 195.8823982191648,198.13732060378788 195.2938523170115,197.56623333015287 194.72869449656653,196.913451568585 194.1956623119909,196.1791957810273 193.7036834936938,195.36463474210356 193.26177777391646,194.471931877094 192.878950997478,193.50428224279796 192.56408231843852,192.46593906166717 192.325805423085,191.36222877648072 192.1723848569496,190.19955366637578 192.11158866666528,188.98538115544685 192.1505586944076,187.72821905238305 192.2956799814783,186.43757608352416 192.5524508462292,185.12390722185484 192.9253552979732,183.7985434701669 193.41773953076554,182.4736059270057 194.03169430698935,181.161904147944 194.76794508863713,179.876819010811 195.62575180223791,178.6321705001248 196.6028201298544,177.44207104126153 197.69522620194167,176.32076523675383 198.8973565267765,175.2824570832187 200.20186492450736,174.34112597524532 201.59964814075911,173.51033302940675 203.07984169453377,172.80301948450742 204.6298373675692,172.2312991502062 206.2353235673442,171.80624708211155 207.88034959390123,171.5376868540954 209.54741461229193,171.43397897462597 211.2175818788186,171.5018131500757 212.87061849180253,171.74600723094355 214.48516063822163,172.16931578353433 216.0389039884746,172.77225130676803 217.5088185553995,173.55292115851577 218.87138698354016,174.50688326544895 220.10286487393466,175.62702366237227 221.1795613821691,176.90345883921762 222.0781379572205,178.32346576448523 222.77592272012384,179.87144230150489 223.25123761944474,181.52890053746617 223.48373514985272,183.2744953042315 223.45474108589764,185.08408988451228 223.14759937065224,186.93086056762752 222.54801501354535,188.78544134693212 221.64439059883188,190.61610963786222 220.4281517910536,192.38901344379025 218.8940570517416,194.0684399095448 217.04048665751588,195.61712468321426 214.86970603841718,196.99660096003237 212.38809844117026,198.16758651270274 209.60636196914447,199.0904064260192 206.53966616255204,199.72544865623703 203.2077634618542,200.0336489340461 199.63505114672716,199.9770009313949 195.85057966386074,199.5190870244585 191.88800365011303,198.62562441576506 187.78547242308872,197.26502083622285 183.58545724808505,195.40893354108044 179.334513296665,193.03282485138948 175.0829748849776,190.1165070830397 170.88458331543376,186.64466935754118 166.79604743851235,182.60737851088987 162.87653789630818,178.00054611722123 159.18711689889182,172.82635353025037 155.7901063105562,167.09362682488782 152.74839777650237,160.8181536003956 150.12470959144457,154.022933790696 147.9807959890908,146.7383569217301 146.3766155037414,139.0022986637777 145.36946600992104,130.86013005095273 145.01309496994935,122.36463338193128 145.35679429911625,113.575819575248 146.44449007975643,104.56064262762003 148.31383810489254,95.39260781161227 150.9953368950827,86.15127134478547 154.51147039462688,76.92163045988434 158.87589300163157,67.79340409651923 164.09266990738425,58.86020580938924 170.1555859015181,50.21861193486629 177.0475358289304,41.967129563581324 184.74000975184188,34.205070416695975 193.19268556654174,27.031338301540757 202.3531413415612,20.5431394104408 212.15669897628274,14.834626305792312 222.52640992224119,9.995487984536254 233.3731926615999,6.109499914863051 244.59613039874233,3.2530493652476764 256.0829359942311,1.4936526781389148 267.710589560691,0.8884823548914937 279.34615235526417,1.4829228917915032 290.84775865359995,3.309175216534072 302.06578518912875,6.3849302979377 312.8441955045988,10.712133017588286 323.0220542092842,16.275857680175704 332.43520368635563,23.043316580652856 340.918093274724,30.96302282399509 348.30574838479197,39.96412809235912 354.43586442690787,49.955955262400096 359.1510078659494,60.82774468276 362.30090419830367,72.44863152176974 363.7447902131138,84.66786988498575 363.35380558384384,97.31531738188012 361.01339667573086,110.20219149511351 356.62570348683244,123.12210648286522 350.1118989025017,135.8523966373848 341.4144479722845,148.1557285483821 330.4992537505877,159.78200159969117 317.35765541286344,170.47053228791412 302.00824390044875,179.9525141230471 284.49846029014685,187.95374088838727 264.9059424567389,194.19757693954034 243.3395864219791,198.40815405338705 219.94029008237482,200.31377014447634 194.88134879567815,199.65046099905354 168.3684745930785,196.1657120893573 140.63941357555063,189.62227357914128 111.96313934774706,179.8020378738392 82.63860413395632,166.50993556514598 52.993033494052526,149.57780243062012 23.379755292170586,128.86816733495309 -5.824441260942166,104.27790850093854 -34.22241510458525,75.74172373364773 -61.40024405453909,43.23535884741938 -86.93124322243352,6.778537815435271 -110.38041111484375,-33.56246191450171 -131.3092767378236,-77.67264487225697 -149.28111425712638,-125.38659836043769 -163.86648495127474,-176.48731103761384 -174.64905942609806,-230.7055588107741 -181.2316664225553,-287.7199038220617 -183.24250813601128,-347.15734775915416 -180.34147586934438,-408.59467534509986 -172.22649416145765,-471.5605176840719 -158.63981636543195,-535.5381581772841 -139.37419009534665,-599.9690960124069 -114.27880711536915,-664.2573738159542 -83.26494920446629,-727.7746669990481 -46.31123938678331,-789.8661226919279 -3.4684067580385545,-849.8569260331485 45.13652695740538,-907.0595610482842 99.2967299434331,-960.7817225243593 158.72280050738667,-1010.3348242748959 223.04085006561158,-1055.0430381212045 291.79150920655763,-1094.252786922157 364.429931034356,-1127.3426042089861 440.3268585595551,-1153.7332625723745 518.7708141388366,-1172.8980630602168 598.9714588920558,-1184.3731686338092 680.064158680656,-1187.7678563580116 761.1157806721509,-1182.7745556272164 841.1317308161711,-1169.1785335126135 919.0642278122936,-1146.8670834119596 993.821793472045,-1115.8380697397342 1064.2799228996828,-1076.2076795540447 1129.292880789948,-1028.2172319069434 1187.7065525356097,-972.2388974444025 1238.372260940235,-908.7801844733203 1280.1614413452944,-838.4870534403074 1311.9810501232114,-762.1455295958223 1332.78956399016,-680.6816935908984 1341.6134106960271,-595.1599418916795 1337.563655604367,-506.7794231934563 1319.852753739292,-416.8685734373182 1287.8111633088017,-326.877690517204 1240.9036047757845,-238.36951022114562 1178.7447394962724,-153.00776725548815 1101.114034030957,-72.54374920115134 1007.9695707021704,1.199123238357771 899.4605620426761,66.3426295327279 775.9383266757599,120.9729081478591 637.965487068464,163.16132425638835 486.32315567678717,190.98690060622624 322.01588539012477,202.560136591863 146.27417298762327,196.048011565825 -39.44567938969098,169.6999400143081 -233.4645199386768,121.8744187947232 -433.8862719389706,51.06608060107041 -638.6069526508501,-44.067156397121835 -845.3268813594627,-164.67717478246863 -1051.5661382456497,-311.6993313527077 -1254.6832994518331,-485.8270854403818 -1451.8974346520743,-687.487962479358 -1640.3133119302772,-916.8212421009314 -1816.9497111719973,-1173.6577646884123 -1978.770701886151,-1457.5022503770733 -2122.719694842141,-1767.5185196471446 -2245.756029632814,-2102.5179946548787 -2344.893812790947,-2460.9518450577793 -2417.242673974407,-2840.9071211464866 -2460.0500616034155,-3240.107190485973 -2470.744654821723,-3655.9167619438304 -2446.9804264246204,-4085.351742963251 -2386.680852128723,-4525.094132314509 -2288.0827259378702,-4971.512101498226 -2149.779010074092,-5420.685363723184 -1970.760121671844,-5868.435870268286 -1750.453037840122,-6310.363810471633 -1488.7575864170615,-6741.8888240629885 -1186.0792823763081,-7158.296263643143 -843.3580699473341,-7554.788271470967 -462.09233858330083,-7926.539359079511 -44.35759738216703,-8268.756101413177 407.18078220210464,-8576.7404800352 889.2613112586248,-8845.95633343798 1398.0271283563866,-9072.098297590257 1929.0342041868969,-9251.162547616479 2477.267403569514,-9379.51858300184 3037.1647313650465,-9453.981235052439 3602.65000890659,-9471.882017631287 4167.174139199255,-9431.138891554765 4723.76502289509,-9330.323470571337 5265.086083588821,-9168.724663635356 5783.503251104115,-8946.407725261703 6271.1601360886325,-8664.267674079054 6720.061009476751,-8324.07604018934 7122.161077405665,-7928.519915395409 7469.4634172986825,-7481.232307480631 7754.1218154855505,-6986.812841090971 7968.54862244026,-6450.837903820385 8105.526620099527,-5879.859407121502 8158.323778472573,-5281.391417775403 8120.809667613789,-4663.884016793258 7987.5721877995065,-4036.6838585423293 7754.033187239411,-3409.9810331312287 7416.561454678036,-2794.741978998401 6972.581505594967,-2202.628349346382 6420.676527138842,-1645.901904459861 5760.683810107688,-1137.3156807273322 4993.780977796085,-689.9918748254348 4122.561322825084,-317.28707628075915 3151.0965854639717,-32.64568155034274 2084.9855515780046,150.5574742816677 931.3869161263731,219.1840284294783 -300.96505020091473,160.50710230530615 -1601.7633776219184,-37.607224732564674 -2959.1510230762897,-386.5138092264151 -4359.764286183224,-896.5997148136937 -5788.797867388073,-1577.0950379124158 -7230.092208162637,-2435.885616561639 -8666.243518773283,-3479.3300837867478 -10078.7366440413,-4712.0838378392355 -11448.100643469068,-6136.932588076099 -12754.086671243202,-7754.6381943799 -13975.867436434677,-9563.799547309713 -15092.257207038518,-11560.731233255143 -16081.950996500156,-13739.362691618579 -16923.78124154957,-16091.160497640216 -17596.989949285093,-18605.076293396407 -18081.513963563608,-21267.522739603617 -18358.28068014288,-24062.379671414907 -18409.511231158456,-26971.03241210894 -18219.02786703267,-29972.443929628444 -17772.561992543076,-33043.262213018184 -17058.059068309707,-36157.96390015802 -16065.976374185371,-39289.03480656058 -14789.569451678986,-42407.18758974421 -13225.162903209162,-45481.616337710635 -11372.40113109067,-48480.28739684555 -9234.474552856542,-51370.26525818673 -6818.316835641555,-54118.071806083855 -4134.768754336459,-56690.07670497743 -1198.7043990358954,-59052.91616402855 1970.8843606179903,-61173.936781782635 5350.84900140732,-63021.66064053648 8913.894600574748,-64566.267299569394 12628.642381462636,-65780.08783515249 16459.74727568028,-66638.10560082279 20368.072724823614,-67118.45794146981 24310.924381608518,-67202.93269713869 28242.34374874608,-66877.45298486722 32113.462117811545,-66132.54345703378 35872.9144444969,-64963.77101007083 39467.31202668276,-63372.152765150015 42841.77204434494,-61364.524069319574 45940.50118296412,-58953.85927778358 48707.42970323755,-56159.538181109056 51086.89144875009,-53007.55113994633 53024.344409862926,-49530.63628828807 54467.125597130645,-45768.34256732356 55365.23313239251,-41767.01285746174 55672.12765214236,-37579.6820868057 55345.54434809494,-33265.885909705976 54348.306256552954,-28891.376367116063 52649.1287638907,-24527.741858026304 50223.40473283522,-20251.929763502434 47053.95918572167,-16145.671165560198 43131.76211865845,-12294.808284497078 38456.587776176515,-8788.526511083275 33037.608600393956,-5718.49422337988 26893.91209207821,-3177.914939640322 20054.928992222405,-1260.497755028589 12560.761519666927,-59.353425733159156 4462.4008892391,334.1751168535852 -4178.1760093722305,-168.26236568843632 -13288.040066234327,-1650.7547281529019 -22783.481837031657,-4191.829808887043 -32570.328991478214,-7863.137983787621 -42544.41512230391,-12728.134192661739 -52592.204218121995,-18840.77476740891 -62591.57345512475,-26244.246302199237 -72412.75517076087,-34969.74456310196 -81919.43696000699,-45035.32201876261 -90970.01679672192,-56444.822965876265 -99419.00794646882,-69186.92540561978 -107118.58622312605,-83234.30878357202 -113920.26987191045,-98542.9664213797 -119676.72006059787,-115051.68093092661 -124243.6476552997,-132681.68010077116 -127481.80967551385,-151336.48967245544 -129259.07659527333,-170901.99807612033 -129452.54951440006,-191246.7465689856 -127950.70419848936,-212222.45631829672 -124655.5371113443,-233664.80179749313 -119484.68687257949,-255394.43742942717 -112373.50309934845,-277218.2817263367 -103277.03336752555,-298931.0602595153 -92171.89808614292,-320317.1056630153 -79058.02245006953,-341152.4095599631 -63960.19434859143,-361206.9178259206 -46929.41718813431,-380247.0570037385 -28044.02705952552,-398038.47599493066 -7410.544564261448,-414348.98341366457 14835.767073184528,-428951.6572441564 38530.66422652949,-441628.0997368055 63481.02983980196,-452171.8068615668 89465.346914619,-460391.6181597245 116234.55717508766,-466115.20955004974 143513.32003116593,-469192.5886060455 171001.6829943761,-469499.5490818354 198377.17032837356,-466941.03907945025 225297.29196835018,-461454.3952732604 251402.46965137805,-453012.39408988465 276319.3718049425,-441626.0697338483 299664.6430899103,-427347.2484972035 321049.00864013174,-410270.7489380587 340081.7270430467,-390536.19829685695 356375.3600290422,-368329.41697322065 369550.82075219136,-343883.32503691764 379242.65652649157,-317478.3276141265 385104.51600927504,-289442.1395868074 386814.7451797411,-260149.01437286948 384082.0511312308,-230018.34661312815 376651.16776824463,-199512.62436368706 364308.4530614548,-169134.712855331 346887.3436541639,-139424.45900067672 324273.58941851865,-110954.61356056019 296410.1881135383,-84326.0761682278 263301.93868027756,-60162.477187534874 225019.53099791156,-39104.11957320508 181703.0901876049,-21801.313420640876 133565.09485079302,-8907.145643352302 80892.59101819087,-1069.7370919559776 24048.627108704037,1075.950684569032 -36527.160114441416,-3083.312940648868 -100318.87272990882,-14130.15918105286 -166735.64906195475,-32607.545145032105 -235113.98012916924,-59009.572259952794 -304721.08455835807,-93772.3051169788 -374759.3708557464,-137264.70523141173 -444372.00433518743,-189779.8004603157 -512649.5834189107,-251526.2159828093 -578637.9165407706,-322620.19669193163 -641346.8766020368,-403078.25343936484 -699760.2949804543,-492810.56669321767 -752846.8416152451,-591615.2807015433 -799571.8218413419,-699173.8191000875 -838909.8045976366,-815047.348975693 -869857.9805727986,-938674.5146270184 -891450.1329770683,-1069370.554600031 -902771.0881494381,-1206327.905985656 -902971.4983459185,-1348618.3884413692 -891282.7950321025,-1495197.0469510506 -867032.1380529384,-1644907.71700673 -829657.1744073895,-1796490.3587466392 -778720.4102476574,-1948590.1877075902 -713922.9913807162,-2099768.609365431 -635117.6811960822,-2248515.942692446 -542320.8207901258,-2393265.894729935 -435723.054302966,-2532411.7238610326 -315698.6033115817,-2664324.0043030335 -182812.87769475713,-2787369.8785758815 -37828.21684133512,-2899933.6586247007 118292.43547421852,-3000438.610182829 284384.1066926794,-3087369.7291809446 459080.7900286669,-3159297.293879576 640819.007660863,-3214900.9522828585 827844.0702990127,-3252994.0816481085 1018219.1358856531,-3272548.135914185 1209837.1422522487,-3272716.678009898 1400435.6578086116,-3252858.77764953 1587614.6609967414,-3212561.441746792 1768857.2235254329,-3151660.734342127 1941553.0346061296,-3070261.236285543 2103024.663864148,-2968753.4921703995 2250556.4196774284,-2847829.0934691834 2381425.617814439,-2708493.052743467 2492936.032860273,-2552073.1344121294 2582453.2625291916,-2380225.82304706 2647441.6930898125,-2194938.6306577735 2685502.713331031,-1998528.4700056128 2694413.785352458,-1793635.851677588 2672167.9435703764,-1583214.6984096768 2617013.2592984135,-1370517.6108741902 2527491.7777065216,-1159076.4646617775 2402477.407495578,-952678.2682504928 2241212.221850557,-755336.266043525 2043340.6127383995,-571256.3286817975 1808940.7299560667,-404798.7343313979 1538552.6320329206,-260435.50896926667 1233202.578629547,-142703.56023337884 894422.9038781611,-56153.90748624506 524266.9275437416,-5297.3796199029175 125318.38624228102,5452.778997951982 -299305.0995497275,-28159.113970505958 -745954.9651950832,-110169.19252218308 -1210461.4407378233,-244330.6853708879 -1688150.423017055,-434049.88639408303 -2173867.7488176515,-682322.2056606301 -2662011.062681965,-991669.1037306075 -3146569.391491337,-1364076.7547486003 -3621170.4495565994,-1800937.3190341578 -4079135.6033729413,-2302993.7324574348 -4513542.325157123,-2870288.936967907 -4917293.85967336,-3502120.483370593 -5283195.720663034,-4197001.433040215 -5604038.5225289455,-4952628.469038582 -5872686.540998809,-5765858.098464764 -6082171.284611719,-6632691.786345711 -6225789.248431428,-7548270.806621004 -6297202.913861577,-8506881.527584542 -6290543.955352467,-9501971.767465638 -6200517.5177279,-10526178.76077662 -6022506.338433233,-11571369.167908082 -5752673.408838289,-12628691.439687891 -5388061.799435571,-13688640.715891926 -4926690.216948786,-14741136.292850263 -4367642.818548274,-15775611.541384399 -3711151.7810319066,-16781115.993573282 -2958671.1123465034,-17746429.146713275 -2112940.200457714,-18660185.356933583 -1178035.6214421699,-19511009.01505301 -159409.77572936137,-20287659.01538987 936085.0105715313,-20979181.346490856 2100188.192804957,-21575068.453401823 3323239.685549517,-22065423.846547503 4594206.539958286,-22441130.26501874 5900728.494571293,-22694019.54464875 7229183.097259597,-22817042.196315147 8564770.899223384,-22804434.570067037 9891621.005822528,-22651881.368581276 11192917.034853995,-22356671.181670833 12451043.282414448,-21917842.644613937 13647750.631720994,-21336318.77932642 14764341.46354534,-20615027.06109578 15781872.540887173,-19759002.76677316 16681374.548110116,-18775473.20479536 17444086.669192333,-17673920.504716296 18051704.294475295,-16466120.755313504 18486637.654017333,-15166157.426691929 18732278.892266307,-13790407.193653686 18773274.82731091,-12357496.49506443 18595802.382630087,-10888227.416688194 18187843.444289465,-9405471.772218289 17539455.68622131,-7934032.57772981 16643035.724835988,-6500472.466762695 15493570.815946631,-5132908.974444782 14088875.195900252,-3860777.0266926982 12429807.098777484,-2714559.401288366 10520462.4561657,-1725486.3777082376 8368341.308635785,-925206.2576772432 5984483.031592479,-345428.9137497588 3383566.6051200153,-17545.003558487497 583972.3398017855,27776.032921505295 -2392198.2902974845,-238994.39731889364 -5519147.759407746,-845810.8349486564 -8767455.243765369,-1818611.4778939222 -12104199.302380847,-3180871.7111215815 -15493132.301899994,-4953158.742730857 -18894907.880556814,-7152692.973144282 -22267362.17310277,-9792922.017689582 -25565848.898116957,-12883113.54238425 -28743627.745803196,-16427973.251681127 -31752304.803641424,-20427294.47901948 -34542323.02530776,-24875645.87039303 -37063499.99209476,-29762103.61240735 -39265609.44347364,-35070034.53474129 -41099002.27292553,-40776936.20848622 -42515261.90591972,-46854339.86330076 -43467888.20871516,-53267781.55536877 -43913003.32979757,-59976846.53345275 -43810072.16096312,-66935291.17165242 -43122629.43335467,-74091246.16570275 -41819004.84640298,-81387503.92691968 -39873037.07592448,-88761892.25759564 -37264767.03285879,-96147735.4584993 -33981100.35733936,-103474403.00919032 -30016428.844689213,-110667944.88254909 -25373200.32071022,-117651811.41501226 -20062426.42281993,-124347654.46365233 -14104117.809856072,-130676205.3518238 -7527636.524418714,-136558223.8493504 -371955.57396904036,-141915511.16497007 7314183.71423953,-146671978.66294938 15472225.37022721,-150754762.76831368 24033871.504734855,-154095375.31280777 32921281.149285063,-156630877.4138761 42047401.18774358,-158305063.88963687 51316434.11124744,-159069644.21225956 60624445.94319818,-158885405.10875103 69860116.16148485,-157723339.15018952 78905629.8010355,-155565723.04589027 87637710.16335681,-152407128.8952042 95928788.7052165,-148255351.3631923 103648306.74254827,-143132233.65270185 110664141.60666285,-137074375.25852102 116844147.84854545,-130133704.82168175 122057802.02600785,-122377901.96423829 126177937.55204964,-113890652.78533834 129082554.05682908,-104771724.74410038 130656683.7474685,-95136847.94715638 130794295.36776437,-85117391.39910525 129400214.59305629,-74859824.56013936 126392038.07355855,-64524956.580834046 121702016.89248076,-54286947.840560466 115278883.9627007,-44332090.89038274 107089598.87706976,-34857360.577652045 97120982.98050314,-26068735.987848517 85381216.97401206,-18179299.856360193 71901173.21643622,-11407124.251761934 56735555.082068846,-5972954.582579437 39963816.28130775,-2097707.297707569 21690833.97449324,199.99999997343664" stroke="white" stroke-width="1.5" /><circle cx="191.49830218033995" cy="249.27191019417847" fill="red" opacity="0.7" r="12.173560908995228" /><circle cx="180.69113542661592" cy="246.1212288310569" fill="red" opacity="0.7" r="12.173560908995228" /></svg>