<?xml version="1.0" encoding="utf-8" ?>
<svg baseProfile="full" height="400" version="1.1" width="400" xmlns="http://www.w3.org/2000/svg" xmlns:ev="http://www.w3.org/2001/xml-events" xmlns:xlink="http://www.w3.org/1999/xlink"><defs /><rect fill="black" height="100%" width="100%" x="0" y="0" /><circle cx="200" cy="200" fill="yellow" r="10.964824813807782" stroke="orange" stroke-width="2" /><polyline fill="none" points="198.91207587871844,200.0 198.84128442404105,199.93917272536947 198.77378630758855,199.87090300350718 198.71043160735496,199.79540576237483 198.6520688656379,199.71299576027565 198.59953420188506,199.62409020887364 198.55363984339215,199.52921029247784 198.51516217729565,199.428981490607 198.48482944018102,199.32413261950538 198.4633091739161,199.2154935185634 198.4511955878333,199.10399131948884 198.44899697792516,198.9906452495387 198.45712336308975,198.87655993508918 198.47587450647194,198.76291718821471 198.50542849640036,198.65096627665073 198.54583106613543,198.54201269640063 198.59698583444595,198.43740548615884 198.65864564975507,198.33852314347783 198.73040521909684,198.24675822400874 198.8116951992673,198.16350072696758 198.90177792123276,198.09012039197987 198.99974490998432,198.02794805437335 199.10451635054096,197.97825622754365 199.21484263667426,197.94223910191835 199.32930812214997,197.92099216998758 199.44633717489182,197.91549170554114 199.56420261253393,197.92657434233615 199.68103657344224,197.95491701259712 199.79484385059493,198.00101751870395 199.90351768689092,198.06517602184445 200.00485799972162,198.1474777389958 200.09659197024956,198.247777144071 200.17639689907756,198.3656839701559 200.24192519519494,198.500551307232 200.29083132961364,198.65146608341573 200.32080054935525,198.817242207373 200.32957911184423,198.99641663504386 200.31500576475736,199.18724860504398 200.27504416244824,199.38772226404248 200.20781587770526,199.59555287605036 200.11163363731637,199.80819677794355 199.98503438222392,200.02286520779532 199.82681172847077,200.23654209287685 199.63604738418567,200.44600584072475 199.41214106102706,200.64785512976565 199.1548384062938,200.8385386459786 198.86425647477347,201.0143886593844 198.5409062577655,201.17165827924921 198.18571179097722,201.3065621703156 197.8000253734846,201.41532045471803 197.38563844696543,201.49420546614766 196.94478770817554,201.53959096499344 196.4801560583042,201.5480033663447 195.99486803049336,201.51617447766355 195.49247938143768,201.4410951904296 194.97696058451012,201.32006952094855 194.45267402010026,201.15076835064147 193.92434472353884,200.93128217632926 193.39702462173338,200.66017214713844 192.87605026598834,200.33651863749313 192.3669941498481,199.9599665860129 191.87560978651123,199.5307668187579 191.4077708096401,199.04981257284095 190.9694044533633,198.5186704435981 190.5664198609718,197.93960499582062 190.2046317661976,197.31559630747174 189.8896801849031,196.65034975320123 189.6269468473065,195.9482973850813 189.42146919025953,195.2145903294461 189.2778528142787,194.45508169152214 189.20018338966,193.67629954353765 189.1919390687264,192.8854096669057 189.25590452569168,192.0901678244335 189.39408780042152,191.29886145371205 189.60764116620493,190.52024079710864 189.8967872732354,189.76343961618463 190.26075183762939,189.03788577778596 190.6977041493525,188.35320214424354 191.20470666036033,187.7190983496528 191.77767488569563,187.1452541965065 192.41134880446631,186.64119556032577 193.09927688397548,186.21616384253127 193.83381376838022,185.8789801616719 194.6061325729189,185.6379056182342 195.40625260597994,185.50049910646757 196.223083204331,185.47347427579706 197.04448421217168,185.5625573622423 197.85734346305406,185.77234771459675 198.6476714361329,186.10618292874136 199.4007130559229,186.56601057421742 200.10107638928932,187.15226854798667 200.7328777665766,187.8637761191952 201.27990261764614,188.69763773390332 201.7257810704682,189.64916162849372 202.0541771123423,190.7117952533732 202.24898986459493,191.87707943342943 202.29456527370803,193.13462308754794 202.17591627843964,194.4721001956889 201.87894927694128,195.87527053824687 201.3906944936066,197.32802553870096 200.69953763595163,198.81246031731123 199.79545004082473,200.30897281162711 198.67021434028604,201.79639054005878 197.31764253416068,203.25212527935403 195.73378324205368,204.65235559758486 193.91711482589153,205.97223683368392 191.86872102801573,207.18613774560856 189.59244576246195,208.26790266521186 187.0950237309939,209.1911376026312 184.3861836130679,209.92951834063257 181.47872070214595,210.45711815439753 178.38853603116846,210.7487523895797 175.13463924858752,210.78033673624662 171.73911277365028,210.52925565397973 168.22703507555016,209.97473703954586 164.62636128495612,209.09822888894323 160.96775975697236,207.8837733961131 157.28440365979108,206.31837365705908 153.6117171605054,204.3923479163429 149.98707631537718,202.099666108609 146.4494653422252,199.43826331640065 143.03908955272868,196.41032469224797 139.79694684686166,193.02253638263676 136.76436031423643,189.28629704834586 133.9824751410672,185.2178847035704 131.49172367938914,180.8385737983926 129.33126318916936,176.17469774797712 127.53839140562111,171.25765246902148 126.14794570457812,166.12383692028638 125.19169222906163,160.81452715933852 124.6977118908083,155.37568102084052 124.68979066202317,149.8576711906576 125.18682201543767,144.31494519146696 126.20222974545729,138.80561160508404 127.74341970055093,133.39095272885282 129.8112691681809,128.13486479152743 132.3996627701036,123.10322783029797 135.49508373999106,118.36320834606661 139.07626936000815,113.98249889875866 143.11393912206944,110.02849986730949 147.57060384789423,106.56744966800326 152.4004635456979,103.66351078716939 157.54940119774875,101.37782002619419 162.95507896079462,99.76751236405838 168.54714242078342,98.88472880030697 174.24753757621565,98.7756194342663 179.97094413443986,99.47935384899033 185.6253274975504,101.027151585367 191.11261049642712,103.44134609770718 196.32946451185674,106.73449606200941 201.1682181114633,110.9085582475151 205.5178797430675,115.95413634752892 209.26526937363252,121.8498201841422 212.2962522644297,128.56162954206914 214.49706634546152,136.04257653933837 215.75573291504338,144.23235989881488 215.9635386647453,153.05720373805343 215.0165753378665,162.42985254154306 212.81732169455532,172.249732816967 209.2762509027568,182.40329056614777 204.31344502613018,192.76451212496082 197.86019696303484,203.19563415053196 189.86057902979266,213.54804656720836 180.272956401597,223.6633901367967 169.07142284996632,233.37484800808937 156.24713566992358,242.50862814347875 141.80952639523127,250.88563093722433 125.7873638764816,258.32329365439637 108.2296465631274,264.63760055820444 89.20630140269137,269.6452447856377 68.80866766181992,273.16592520888355 47.14974519481771,275.0247587169983 24.36418824270362,275.054785604942 0.6080277428184502,273.0995431032675 -23.9418926352663,269.01567956074774 -49.08877894246331,262.6755794442886 -74.61705721313137,253.96996718641088 -100.29385765692382,242.81045603126654 -125.87081540458786,229.1320064460146 -151.08618667266802,212.8952574148991 -175.6672752142378,194.08869305651706 -199.33315972120556,172.73060653636765 -221.79770847689173,148.87082322005708 -242.77286306879836,122.59214545738128 -261.97216840845255,94.01148232998102 -279.1145217196799,63.280629156960856 -293.9281086041973,30.58666355037414 -306.1544898328816,-3.8480726431623964 -315.55279820409896,-39.76643308228279 -321.90400072092575,-76.8773922732289 -325.0151775324417,-114.85745624766747 -324.7237656268013,-153.3525735947964 -320.9017122218622,-191.98055664988766 -313.459480238561,-230.3340169535881 -302.34984622690365,-267.98381297630124 -287.57142970614683,-304.4830015971744 -269.17189213754284,-339.37127799267626 -247.25074372375053,-372.1798814884269 -221.96169697214282,-402.4369376303407 -193.51450751189907,-429.6731993148742 -162.17624505187155,-453.42814236755305 -128.27194063451674,-473.2563635644008 -92.1845604983643,-488.73422184813285 -54.354261915379396,-499.46665650027217 -15.276892317340895,-505.09410939559245 24.498300147044347,-505.29947229281584 64.37176880128774,-499.81497451307735 103.69759905676528,-488.42892143320296 141.78827387407145,-470.99219008097407 177.92027052794828,-447.42438486834044 211.3404745490272,-417.7195542359643 241.27338559763348,-381.9513678029133 266.9290784761383,-340.2776536059191 287.5118706216083,-292.94419625197247 302.2296353662417,-240.28769936427557 310.3036881465318,-182.73781963116335 310.9791608304013,-120.81818511360353 303.5357675704144,-55.14631725774268 287.2988542437696,13.567615693182006 261.65061277489644,84.52327649323618 226.04133162709093,156.83391937153925 180.00054467083078,229.53147215586353 123.14793266347228,301.5729651669759 55.20382488118548,371.8483169314869 -24.0008568018238,439.18947054885086 -114.51537272730548,502.38085732672346 -216.26082237288608,560.1711462147451 -329.02284655811127,611.286218787166 -452.4455360525162,654.4432902366657 -586.0267034948608,688.3660772509465 -729.1146690927869,711.8008939739448 -880.9067018291605,723.5335377438556 -1040.4492468102162,722.4068072043185 -1206.6400559317963,707.3384769681405 -1378.2323232224346,677.3395355495136 -1553.840908084563,631.5324770518729 -1731.9507092680394,569.1694223889535 -1910.9272298763208,489.64983291090726 -2089.029349161745,392.5375684869845 -2264.424290482992,277.57703363547546 -2435.2047467801694,144.70814945355443 -2599.4080955099093,-5.920113867069233 -2755.037604447179,-173.93790901945886 -2900.0854984066414,-358.7446496966651 -3032.557725099752,-559.5013695591526 -3150.5002263879574,-775.125546213885 -3252.026489507192,-1004.2886200635542 -3335.346121836433,-1245.4164197665639 -3398.794162894807,-1496.6926840832468 -3440.8608189243505,-1756.0658440871448 -3460.2212791057705,-2021.2592001562602 -3455.7652486246448,-2289.7845949432653 -3426.625812918954,-2558.959646825127 -3372.207229951035,-2825.928568373274 -3292.2112337051612,-3087.6865514461147 -3186.661422741467,-3341.107654918956 -3055.9253029417746,-3582.9760832233364 -2900.73355393418,-3810.0206942121863 -2722.196094414459,-4018.952523895119 -2521.8145329829035,-4206.505063845871 -2301.4906084228346,-4369.476975163532 -2063.5302467419997,-4504.776871404485 -1810.6428918972151,-4609.469752563834 -1545.935802973289,-4680.824623675503 -1272.903052662116,-4716.362785644599 -995.4090100800977,-4713.9062432669525 -717.6661450829819,-4671.625636781345 -444.20705100884936,-4588.087069489473 -179.85064783921848,-4462.297175711672 70.33740234160408,-4293.745751343516 301.0899615327803,-4082.4452542343042 506.9891797667278,-3828.966474176252 682.5224921882143,-3534.469673074411 822.1435017586232,-3200.730505403281 920.3373159827132,-2830.1600478142664 971.6898216918675,-2425.8182951223584 970.9602983213467,-1991.4205181619623 913.1566883810722,-1531.3359273474457 793.6127650804547,-1050.5781442769257 608.0663625092259,-554.7870523320612 352.7377646044662,-50.20167577429834 24.407286571050548,456.3761749916294 -379.5089723108406,957.6276569758681 -860.886271256509,1445.7721060588292 -1420.8223681819059,1912.6316516759475 -2059.5737839567123,2349.7050593813897 -2776.498328883414,2748.2504993548523 -3570.0050279758084,3099.3768076067163 -4437.512565761001,3394.1426719216443 -5375.417340479211,3623.663037907384 -6379.072171081506,3779.221893451508 -7442.776637864067,3852.3904541158754 -8559.77995862381,3835.149639288977 -9722.297206763205,3720.0156011286576 -10921.539565891342,3500.1669473797283 -12147.759187456777,3169.572187006105 -13390.309074318271,2723.1158262199897 -14637.718254651325,2156.721453904086 -15877.78233817823,1467.470081564771 -17097.669361611617,653.7119457296271 -18284.040633866767,-284.8300580625406 -19423.18608571907,-1346.967159119054 -20501.173415080357,-2529.9635595640025 -21504.010100086805,-3829.4691663378235 -22417.817130091058,-5239.46797638686 -23229.013081983612,-6752.243808044385 -23924.506948767088,-8358.36496928499 -24491.897911861357,-10046.689324575698 -24919.68004124305,-11804.391066271102 -25197.449711344056,-13617.010314044463 -25316.113338837433,-15468.526457200516 -25268.092884254882,-17341.45592071581 -25047.52641602431,-19216.974777713305 -24650.460916172175,-21075.066350394707 -24075.03441469561,-22894.693640209054 -23321.644477433834,-24653.996108598007 -22393.100042947426,-26330.509994784312 -21294.75361001284,-27901.41100989279 -20034.610821152415,-29343.777890705915 -18623.41457112965,-30634.874935397864 -17074.70089416775,-31752.451281823098 -15404.824051006086,-32675.054330797662 -13632.948447565312,-33382.35436700749 -11781.005271226337,-33855.47709361832 -9873.612028294378,-34077.340478415295 -7937.9535063211315,-34032.9920145572 -6003.623066212533,-33709.942233033085 -4102.423589468822,-33098.490071885404 -2268.127862882911,-32192.03551438219 -536.1986733256931,-30987.37475960198 1056.5305949956778,-29484.973089141953 2472.2135236985964,-27689.21054739931 3672.3844821197195,-25608.595564262294 4618.386227509858,-23255.94172180381 5271.82821643956,-20648.5030038966 5595.071972517034,-17808.06307218762 5551.739273803255,-14760.974385534102 5107.238355323484,-11538.143324038912 4229.302775807312,-8174.957893666275 2888.537081490365,-4711.155072650613 1058.9629219089609,-1190.6254152077015 -1281.4411583682213,2338.8468508483647 -4150.213403697011,5825.9093113405415 -7559.903470397748,9216.032772654054 -11517.595692089348,12451.968125268 -16024.46885059099,15474.267355199789 -21075.400388640806,18221.86650869381 -26658.622979829877,20632.727497463806 -32755.441250448872,22644.53469100489 -39340.01622220656,24195.441289102102 -46379.22470977797,25224.85951269504 -53832.600459729445,25674.28770648945 -61652.363255578806,25488.166524566732 -69783.54153691517,24614.75548372315 -78164.19328934276,23007.02033178523 -86725.7290586985,20623.52090339622 -95393.3399312815,17429.288437590163 -104086.53220699212,13396.680723685366 -112719.76928135792,8506.202938241266 -121203.21995396321,2747.281649273743 -129443.61100514972,-3881.0207927302586 -137345.18044194547,-11369.364372323756 -144810.72632155058,-19697.57489261551 -151742.74453148234,-28834.185481952907 -158044.64735623373,-38736.08840976026 -163622.05310894537,-49348.30894866271 -168384.13557230288,-60603.91228841057 -172245.02049589032,-72424.05358961328 -175125.21495864846,-84718.18016085337 -176953.0540467402,-97384.39345260298 -177666.1480412864,-110309.97708912638 -177212.8121795675,-123372.09551132897 -175553.46006985864,-136438.6659880343 -172661.9410261821,-149369.4047818244 -168526.80096638214,-162017.0461424322 -163152.44610562193,-174228.73056253823 -156560.188496953,-185847.55638716696 -148789.15253870396,-196714.28644077686 -139897.02190090073,-206669.1988502119 -129960.60693333673,-215554.06872392076 -119076.21351724218,-223214.2648274334 -107359.7955190012,-229500.9429031798 -94946.87450294822,-234273.31485229457 -81992.21216263722,-237400.97066138603 -68669.22303396412,-238766.22775383043 -55169.11745320599,-238266.4804091878 -41699.76740836724,-235816.52006238681 -28484.290888901967,-231350.79570280388 -15759.353548329796,-224825.58227820636 -3773.1899334720506,-216221.0240046183 7216.649824389848,-205543.0188237908 16945.818148930048,-192824.9099664446 25145.939334436916,-178128.95070048966 31547.612342010543,-161547.50889458315 35883.62528861508,-143203.97903064112 37892.35574623369,-123253.37077207511 37321.32692094725,-101882.54515069631 33930.885835514986,-79310.07188246647 27497.965849845452,-55785.68426301838 17819.89227925795,-31589.311524567504 4718.186569498269,-7029.67244665427 -11957.67848052769,17557.58161240641 -32326.62253319179,41812.181281818055 -56472.4527740339,65352.01313626253 -84440.5640497003,87776.34924262359 -116234.8989677313,108669.5225681771 -151815.22328922065,127605.0323226153 -191094.77173230395,144150.05688886045 -233938.31839142507,157870.3454282086 -280160.72432900104,168335.4525956127 -329526.0124836778,175124.2741481646 -381747.0168416634,177830.83465661004 -436485.64882184507,176070.27212314942 -493353.81902783294,169484.95815969908 -551915.0469266474,157750.6865829288 -611686.7846408172,140582.8579314231 -672143.473915267,117742.58260273316 -732720.3474807339,89042.62114006619 -792817.9775313071,54353.076764608566 -851807.5649263656,13606.752641890218 -909036.9530894744,-33195.915323088215 -963837.340493192,-85982.44006471438 -1015530.6551848057,-144604.46883824284 -1063437.5441300059,-208834.66061970714 -1106885.919346004,-278364.3407311012 -1145219.9919885502,-352802.01404614554 -1177809.7148828655,-431672.8129038058 -1204060.5435885156,-514418.94933150965 -1223423.4161105137,-600401.2333520019 -1235404.841965661,-688901.7100272537 -1239576.9826399852,-779127.4575063088 -1235587.59768682,-870215.576736452 -1223169.7239719182,-961239.3907306618 -1202150.9500256532,-1051215.8574404928 -1172462.143262099,-1139114.1854622934 -1134145.4851130806,-1223865.626124997 -1087361.6680353193,-1304374.3991070404 -1032396.1090030551,-1379529.691764182 -969664.0366055627,-1448218.6549922784 -899714.3133216396,-1509340.30088904 -823231.8610164686,-1561820.189921415 -741038.5662550764,-1604625.7779692202 -654092.5526834414,-1636782.2767312406 -563485.7205019157,-1657388.8647877015 -470439.4679288902,-1665635.0713606928 -376298.5264810242,-1660817.1407541453 -282522.86080708855,-1642354.1728424511 -190677.60460302213,-1609803.824065559 -102421.02667337039,-1562877.3444278475 -19490.54532561835,-1501453.7192306637 56313.16520499576,-1425592.6799251847 123143.90592608691,-1335546.346769343 179129.42389184053,-1231769.2671083158 222392.49645977607,-1114926.617248473 251073.47428214192,-985900.3432094989 263354.0997878363,-845793.0262406712 257482.38975386805,-695929.272961825 231798.34315181387,-537854.447390793 184760.20917558603,-373330.5829591695 114971.02561486022,-204329.3368686771 21205.114944503464,-33021.876727797295 -97565.79493174105,138234.37978705388 -242147.17600282,306912.2176473115 -413097.39673469646,470334.2782796617 -610704.8860201446,625695.8839268793 -834967.1475541306,770090.9605215117 -1085572.0103536681,900540.9436455362 -1361881.4991801167,1014026.507292408 -1662918.7017563314,1107521.909280376 -1987357.9976578874,1178031.7007905052 -2333518.9964013547,1222629.5011622715 -2699364.509411432,1238498.4933527943 -3082502.8521396806,1222973.2509627412 -3480194.7386107612,1173582.4650880725 -3889364.9911364955,1088092.0991272484 -4306619.242984733,964548.4627259393 -4728265.761614919,801320.6629481569 -5150342.464969997,597141.8621942351 -5568649.143600477,351148.74900014355 -5978784.837523481,62918.61028812342 -6376190.249207813,-267496.61749734206 -6756195.003517349,-639539.945071262 -7114069.492516475,-1052123.1981294313 -7445080.968489348,-1503605.7682699347 -7744553.4731690455,-1991778.839241162 -8007931.115897268,-2513855.6523200423 -8230844.139180799,-3066468.3372848853 -8409177.13787068,-3645671.789058575 -8539138.728997603,-4246955.014631129 -8617331.904216379,-4865260.310407468 -8640824.236929506,-5495010.556866309 -8607217.062568124,-6130144.835681868 -8514712.704294862,-6764162.4847002225 -8362178.778627535,-7390175.608956181 -8149208.587201299,-8000969.961975581 -7876176.583075006,-8589074.001772642 -7544287.893570029,-9146835.811195264 -7155620.887449025,-9666507.453691015 -6713161.793044299,-10140336.214380678 -6220830.40636821,-10560662.053870052 -5683495.974788153,-10920020.479939803 -5106982.402896099,-11211249.921663346 -4498062.002954941,-11427602.573224885 -3864437.102809005,-11562857.562426355 -3214708.9292601435,-11611435.19331468 -2558333.30431061,-11568510.915293433 -1905562.8248260783,-11430127.584279198 -1267375.3423447635,-11193304.506694289 -655388.7180035146,-10856141.696086671 -81761.9967097683,-10417917.726618279 440916.67661433836,-9879179.539163597 899754.8892362604,-9241822.545812024 1281692.8389670495,-8509159.38853079 1573651.359366123,-7685975.738835251 1762689.993487571,-6778571.578554946 1836173.8191793752,-5794786.477999943 1781947.533091892,-4744007.487611954 1588515.1101474033,-3637158.382868093 1245223.1730012496,-2486669.149850451 742446.0348027016,-1306424.7702739083 71770.22120636946,-111692.5593330209 -773823.8630211559,1080972.4733799675 -1799785.5784386445,2253844.5316230897 -3009825.5605932716,3388166.24307148 -4405757.722463559,4464309.931591972 -5987354.422840341,5461960.41941057 -7752217.489211548,6360318.523796241 -9695667.766717564,7138324.099381954 -11810655.813371064,7774897.157030073 -14087696.274338009,8249195.266765103 -16514828.343317257,8540885.129545797 -19077604.555993415,8630425.884593174 -21759109.958629064,8499361.409899049 -24540013.45402421,8130618.577859731 -27398652.84768468,7508808.150284263 -30311154.800007645,6620524.741978485 -33251590.53703089,5454642.054392991 -36192167.784772694,4002599.3851085007 -39103458.972934455,2258675.259793949 -41954665.30584853,220243.9151410662 -44713915.82566802,-2111989.711631916 -47348600.09913857,-4733780.854867579 -49825732.64960311,-7637165.993316121 -52112346.73544394,-10810318.378001744 -54175914.5507077,-14237442.125854267 -55984790.39940573,-17898708.785593636 -57508672.87851393,-21770240.01582318 -58719081.6029832,-25824139.685629923 -59589843.526328236,-30028578.315078516 -60097583.460036434,-34347932.31747283 -60222212.98169418,-38742979.98861332 -59947411.55300422,-43171155.61285304 -59261093.35230833,-47586862.42473161 -58155853.069298655,-51941844.48252263 -56629383.7194758,-56185616.78117241 -54684859.41942164,-60265952.16280887 -52331276.02750232,-64129422.78012761 -49583742.60400074,-67721993.0392458 -46463716.7850403,-70989660.10264231 -42999177.40034352,-73879137.17892979 -39224727.99933854,-76338573.97454865 -35181625.385814816,-78318307.84374551 -30917727.79962207,-79771638.35872975 -26487358.02496055,-80655617.2434306 -21951077.44754497,-80931844.88390614 -17375367.924904875,-80567263.95849277 -12832219.271484189,-79534940.1336017 -8398621.187758438,-77814819.25900008 -4155959.5735401656,-75394450.08146667 -189318.35178019715,-72269661.18965694 3413310.819251494,-68445180.71681382 6561907.2616691375,-63935187.27211753 9165383.390320221,-58763780.65524635 11132623.815354524,-52965361.140592724 12373593.640966117,-46584906.50441254 12800506.782645982,-39678136.515702076 12329043.763139015,-32311555.323653184 10879607.12501541,-24562363.053278465 8378601.334478826,-16518228.966595814 4759722.866358536,-8276919.757569864 -34754.925746666806,54222.07891701974 -6052718.517477241,8358953.337000136 -13330989.691630185,16512960.508441523 -21894157.647921383,24384845.561442576 -31753486.09932885,31837265.211031005 -42905914.00735512,38728219.766457185 -55333168.69396464,44912485.51726984 -69001009.92614232,50243182.428971075 -83858623.18628423,54573466.68386559 -99838179.70685735,57758335.34800726 -116854579.95168905,59656528.19750125 -134805396.0628223,60132509.5255241 -153571027.3573415,59058510.60494758 -173015081.2529594,56316611.43170043 -192984990.02719828,51800838.45275798 -213312871.5795965,45419253.22258429 -233816639.8795053,37096005.36551212 -254301368.0581521,26773321.881522525 -274560904.16038644,14413403.750886228 -294379736.43114907,200.00000036051145" stroke="white" stroke-width="1.5" /></svg>