<?xml version="1.0" encoding="utf-8" ?>
<svg baseProfile="full" height="400" version="1.1" width="400" xmlns="http://www.w3.org/2000/svg" xmlns:ev="http://www.w3.org/2001/xml-events" xmlns:xlink="http://www.w3.org/1999/xlink"><defs /><rect fill="black" height="100%" width="100%" x="0" y="0" /><circle cx="200" cy="200" fill="yellow" r="20" stroke="orange" stroke-width="2" /><polyline fill="none" points="199.7934531724113,200.0 199.85108431812878,199.99218260696074 199.9132166271096,199.9908633602324 199.9793387154239,199.9967220197158 200.04885399978684,200.01040209303642 200.12108236963658,200.03250064966986 200.19526300888194,200.06355803872324 200.2705584091693,200.1040476321018 200.34605960449696,200.15436572263806 200.42079264380743,200.2148217135187 200.49372630389917,200.28562874086307 200.56378102972437,200.3668948754278 200.62983907300318,200.45861505199474 200.69075578322688,200.56066387590775 200.74537198771026,200.67278945533164 200.7925273795598,200.7946084050099 200.8310748144502,200.9256021624975 200.85989539915562,201.06511475097247 200.8779142370907,201.21235211372718 200.88411667891586,201.36638313427974 200.87756490979936,201.52614244272087 200.85741468945886,201.69043509344172 200.82293204688685,201.85794318182508 200.7735097189576,202.02723444790107 200.70868311117883,202.19677289348027 200.62814554994154,202.36493141601972 200.53176258898532,202.5300064376219 200.4195851286674,202.69023448131753 200.29186110522028,202.84381061936898 200.14904550870818,202.9889086900199 199.99180849301865,203.1237031501982 199.82104134910875,203.2463924024708 199.63786012398018,203.35522340539995 199.44360668257335,203.44851734772 199.23984702799467,203.52469613883525 199.02836671723128,203.58230944142753 198.81116323473097,203.62006194687527 198.59043521484813,203.63684057114162 198.3685684360538,203.631741228213 198.14811854479967,203.604094820482 197.93179050478565,203.55349207108253 197.7224148078283,203.47980681250223 197.5229205252342,203.38321733919778 197.336305323167,203.2642254297769 197.16560261153174,203.1236726469137 197.01384604290917,202.96275353081535 196.88403162553618,202.78302531500333 196.7790777616859,202.58641381160288 196.70178356945797,202.37521513739023 196.6547858913166,202.15209298160414 196.64051543605848,201.92007115200022 196.66115254158484,201.6825211767519 196.71858308320435,201.4431447864512 196.81435508552073,201.20595115242287 196.94963662457556,200.97522881454702 197.1251756301511,200.7555122934164 197.34126221534095,200.5515434474784 197.59769417104985,200.36822770529145 197.8937462664113,200.2105853755412 198.22814399168735,200.08369831231468 198.59904236757524,199.99265228954644 199.00401042359712,199.94247551568318 199.44002191807925,199.93807379655064 199.90345283291492,199.98416293017982 200.39008612772622,200.08519899093682 200.89512418017844,200.24530723064095 201.41320927215375,200.46821039035578 201.9384524054802,200.7571572770877 202.4644706462779,201.11485251360568 202.98443310420802,201.5433884158938 203.49111555259537,202.04417999027626 203.97696358828767,202.6179040699547 204.43416411709225,203.26444362757087 204.85472483270047,203.98283830551702 205.2305612353145,204.77124219821152 205.55359061198737,205.62688989968484 205.81583227535634,206.5460717949482 206.00951323247259,207.52411952423873 206.12717833238767,208.55540248499253 206.16180382170725,209.6333361570978 206.10691312319287,210.75040294259782 205.95669354546044,211.8981861017167 205.7061125336932,213.06741724322654 205.35103198387813,214.24803768933077 204.88831906818982,215.42927388418346 204.31595195855837,216.59972685189032 203.6331187908769,217.74747553556 202.8403081853568,218.8601936651226 201.93938963074336,219.92527960985404 200.93368205283576,220.92999847369381 199.82800892223668,221.86163548957575 198.62873831350834,222.7076595653469 197.34380640875332,223.45589563084607 195.98272304363834,224.09470423591716 194.55655802335428,224.61316665524367 193.07790708997985,225.00127357072031 191.5608366009192,225.25011522850764 190.02080617991686,225.35207080889074 188.4745688266931,225.30099460552543 186.94004821721182,225.09239648954764 185.43619319237104,224.72361403621167 183.98280971650894,224.1939736199909 182.6003708862171,223.50493774105996 181.30980588185798,222.6602358342363 180.1322690758792,221.66597583303255 179.0888908401511,220.5307338184201 178.20051192548087,219.26561917589913 177.48740361624056,217.88431281681733 176.96897618751393,216.4030761915022 176.66347850692165,214.84072903316738 176.58769192376187,213.21859402275436 176.7566218696079,211.56040685542067 177.18319085226534,209.89219051830082 177.8779367542093,208.2420929549325 178.84872054253577,206.64018769226672 180.10044765540113,205.11823743882104 181.63480744538344,203.70942112405254 183.45003512889508,202.44802533561753 185.54070070872373,201.36910161847473 187.89752930035306,200.5080916228518 190.50725719873049,199.90042262148222 193.35252786791736,199.58107645428885 196.41183181946252,199.58413549444086 199.65949406490247,199.94230975664928 203.06571248271817,200.6864497795408 206.59665003033982,201.84505040154045 210.2145832581474,203.44375100626556 213.878109046483,205.50483823123096 217.54241089096135,208.04675750489434 221.15958540924998,211.0836400939941 224.67902903831893,214.62485259817035 228.04788414021115,218.6745760146972 231.21154294286416,223.23142160584212 234.11420691755242,228.28809082844515 236.69949834414092,233.83108652390666 238.9111199484181,239.84048241172178 240.6935576219911,246.2897576766672 241.9928203649859,253.14570308531285 242.75721073616248,260.3684046093136 242.93811826565457,267.91130996969036 242.490827494451,275.7213828480081 241.37533156435407,283.7393487382676 239.5571416050895,291.9000355401246 237.00808156416775,300.1328110238005 233.70705761256954,308.36211823534865 229.64079084766024,316.50810876484604 224.80450171580205,324.48737257823416 219.20253440220142,332.2137618260162 212.84890939507852,339.5993047005009 205.76779253479143,346.55520403079305 197.99386911444185,352.99291389575603 189.57261201375513,358.8252861154517 180.56043342816656,363.9677770680404 171.02471050389602,368.3397038898072 161.0436761093219,371.86553776977064 150.70616706317372,374.47622076686514 140.11122339882766,376.11049137712746 129.3675336669137,376.7162029811768 118.59272285885446,376.2516183290957 107.91248126271223,374.68666239104186 97.4595344282649,372.00411523751035 87.37245640651885,368.200726132399 77.79433052337208,363.28822974319917 68.87126412893005,357.29424531272866 60.750766011754735,350.2630398112413 53.579997457540145,342.2561365100406 47.50391023871745,333.35275109922003 42.663287117718426,323.65003842172786 39.19270270277926,313.26313411980254 37.218424680499425,302.3249769910085 36.85627753194629,290.98589962961006 38.20949278613185,279.41297698124407 41.366571642882576,267.7891247576152 46.39918737303819,256.31194223225356 53.360156244408415,245.19229675332423 62.28150679454063,234.65265034616544 73.17267804481514,224.92513201373856 86.01887769503625,216.2493627505556 100.77963142597135,208.8700438340446 117.38755414423974,203.03432261200774 135.7473733076602,198.9889537275057 155.73523335131634,196.97727747136867 177.19830868082593,197.2360406827492 199.95475069976726,199.9920892820163 223.7939918879224,205.45896506783419 248.47742704624713,213.8334427895509 273.73948847918086,225.29204666373306 299.28912810690906,239.98758838570438 324.81171530750987,258.04577123896416 349.971354705929,279.5619070735286 374.41362318431334,304.59779465586735 397.7687201238199,333.17880913745944 419.65501934546677,365.2912530978704 439.6830054473345,400.8800197471046 457.4595712938767,439.8466183802318 472.5926473627826,482.04761102958236 484.69612756369764,527.2935074264439 493.3950500841967,575.3481628420868 498.3309858692546,625.928720111246 499.16758158243687,678.7061331420175 495.5961984145465,733.3063044851667 487.34158298520646,789.3118640829623 474.1675019127534,846.2646101623285 455.882267496134,903.6686264088389 432.3440784466759,960.9940820968563 403.4660968132156,1017.6817138071906 369.2211802434474,1073.147978798277 329.64618759564803,1126.7908610815239 284.84577573049796,1177.9963018682581 234.9956061381383,1226.145216396691 180.34488194822075,1270.6210493141893 121.21813887847148,1310.817810893649 58.01621783744926,1346.1485265216368 -8.783647764818795,1376.05402223651 -78.6286904163344,1400.0119597491903 -150.89246531361522,1417.5460254849097 -224.877749394518,1428.2351698821078 -299.82051637471056,1431.7227856174402 -374.89501044728354,1427.7257067372036 -449.2199291562888,1416.0429050072407 -521.8657128619587,1396.5637552844876 -591.8629242775926,1369.2757384976132 -658.2116868923843,1334.271449028144 -719.8921358345057,1291.7547730245929 -775.8758190246293,1242.0461055666228 -825.1379704873646,1185.5864777169752 -866.6705616069241,1122.9404694332252 -899.4960201273032,1054.7977911196372 -922.681491011499,981.9734253220563 -935.3534981040416,905.4062307258955 -936.7128511097774,826.1559232055956 -926.0496289382074,745.3983631663625 -902.7580581992827,664.4190947627385 -866.3510948062003,584.6051006943019 -816.4745074741643,507.4347560598365 -752.920254626823,434.4659860631938 -675.6389410511389,367.3226550441328 -584.7511377822532,307.6792381652075 -480.55734834286284,257.24385190337097 -363.54640677880764,217.73974502794027 -234.40209807405103,190.88537772515764 -94.00779961968522,178.3732426606188 56.551046450731064,181.84760773923276 215.98680599717312,202.88138579444023 382.8120292250579,242.9523610638801 555.3444686670987,303.41902572459793 731.7148531865181,385.49630159492233 909.8775057650874,490.2314419847526 1087.6238633361368,618.4804262127376 1262.598924718465,770.8851741329647 1432.3206180217023,947.8519197592628 1594.2020419923213,1149.5310913896528 1745.5764969632319,1375.7990501840034 1883.7251807130426,1626.2420396251437 2005.9073830330235,1900.142694419895 2109.392970578675,2196.4694489274743 2191.496911126773,2513.8691719367303 2249.6155441801207,2850.6633363944056 2281.264263504089,3204.8480094087436 2284.116237210957,3574.0979194673027 2256.04175302059,3955.7748243260166 2195.147740923823,4346.940364523091 2099.8169932721403,4744.37354408941 1968.746573928517,5144.59293197968 1800.9848841481578,5543.883625320414 1595.9668339086975,5938.328959121634 1353.5465540493692,6323.846887060998 1074.0270773473394,6696.2308948291575 758.1864160583749,7051.195241902358 407.29946992885016,7384.424260130603 23.155212641038844,7691.625368913413 -391.9313735895222,7968.5853977572715 -835.1131157352263,8211.22973850292 -1303.010682433756,8415.6837823608 -1791.7192473263553,8578.33603202622 -2296.82214474953,8695.902217520532 -2813.4118165056966,8765.48968700565 -3336.118277752275,8784.661291644667 -3859.145251790401,8751.49793762694 -4376.31403817343,8664.658939734738 -4881.115086674885,8523.439280261351 -5366.767151963553,8327.822855627484 -5826.283801156165,8078.530781560715 -6252.546939697923,7777.063827011623 -6638.386911315878,7425.738057812692 -6976.668616264631,7027.71279407943 -7260.382980002753,6587.010021034383 -7482.742993159553,6108.524441711368 -7637.283434613632,5598.0234221394785 -7717.963284212604,5062.136155234698 -7719.269731679179,4508.331458706963 -7636.322595171738,3944.8837246114545 -7464.977878417093,3380.8266533516107 -7201.9291209342955,2825.8945324050346 -6844.805133224033,2290.4509590290427 -6392.262659477067,1785.4050557536048 -5844.072475862529,1322.1153864327666 -5201.197414214233,912.2819476539937 -4465.860800256954,567.8267838611407 -3641.6038135894014,300.7639529088334 -2733.3303144970428,123.05975003709449 -1747.337741159896,46.48428037484763 -691.3327606043409,82.45565084137577 425.5695417465776,241.87822937518592 1592.8640256463566,534.9765903308521 2798.692359172945,971.1269271075394 4029.899161126635,1558.687864008566 5272.108014707029,2304.8327363457624 6509.817736919269,3215.385528259473 7726.519061892499,4294.6627590159505 8904.831652905475,5545.323688127192 10026.661099282554,6968.231265068312 11073.375282646444,8562.326278338172 12025.999214797594,10324.517158987544 12865.427159539413,12249.587863606483 13572.650556171504,14330.126199449629 14128.999966484413,16556.47485850532 14516.398973503714,18916.70729682743 14717.627672753762,21396.6304296519 14716.593119428355,23979.815911410784 14498.60383169479,26647.66153285851 14050.645205642792,29379.483995704 13361.652475402932,32152.64401944455 12422.77765698375,34942.704397057125 11227.646750645707,37723.62124785683 9772.603348274844,40467.96831973508 8056.9347032052965,43147.193772213766 6083.076274008401,45731.908429871466 3856.7907543754905,48192.20403680305 1387.3176514809513,50497.99957143526 -1312.510422179926,52619.41320226209 -4226.188421294136,54527.15698434841 -7333.499968927497,56192.9509196352 -10610.522079900265,57589.952537336925 -14029.676371106141,58693.197700561 -17559.829237153972,59480.04791838589 -21166.443026623772,59930.63904589677 -24811.779756145337,60028.32589503909 -28455.15834894323,59760.11696357456 -32053.26578478267,59117.09322479417 -35560.521903562265,58094.804713649886 -38929.4969201418,56693.63850205917 -42111.37998920798,54919.15158338111 -45056.49641272062,52782.36218905894 -47714.870316192304,50299.99314421316 -50036.82884193029,47494.66103792386 -51973.64312629102,44395.00524165302 -53478.20055348943,41035.75115847608 -54505.70202064473,37457.702528301386 -55014.377218065434,33707.65815079094 -54966.21023619887,29838.249017890455 -54327.66716735995,25907.692570160285 -53070.41678760838,21979.461602651256 -51172.0348932741,18121.86624277927 -48616.682438808035,14407.548399067246 -45395.74728873775,10912.889128933006 -41508.439166982265,7717.330487732721 -36962.32727148138,4902.614590515304 -31773.81003009141,2551.9438315267485 -25968.50661316362,749.067452328592 -19581.56009621655,-422.69908589707666 -12657.842588464586,-881.514201151643 -5252.05321407883,-548.1007777666488 2571.29944420013,653.1229714749101 10738.03795394462,2792.883767603995 19164.586181600273,5935.877175123502 27758.37429070427,10139.58872520665 36418.38257763195,15453.126762855669 45035.82667246668,21916.082355474733 53494.9850430576,29557.43229196687 61674.16803266663,38394.50174007356 69446.82584913484,48432.00349828599 76682.79102174997,59661.17096129799 83249.64886865673,72059.00189992132 89014.22749245836,85587.62992441929 93844.19676634738,100193.84004290316 97609.76371122188,115808.74403437212 100185.44962099683,132347.63042204833 101451.93229537766,149710.00265228338 101297.93481462268,167779.81765567505 99622.14046811071,186425.93529129616 96335.11175737693,205502.78725633174 91361.18986452083,224851.27188966438 84640.34963837634,244299.87891997976 76129.98403301029,263666.04562140413 65806.59106468126,282757.7430606767 53667.3357618544,301375.28817117197 39731.45929411531,319313.37429599604 24041.5075037495,336363.3096337363 6664.351449751585,352315.44972842874 -12308.026673395681,366961.80680524494 -32758.00774547631,380098.8154036786 -54542.094034548405,391530.23044164723 -77490.97366277376,401070.13060026744 -101409.91094008181,408545.9967955046 -126079.47954870916,413801.8325463571 -151256.65243437747,416701.2903076237 -176676.258750784,417130.76535716956 -202052.81433127465,415002.4166614498 -227082.72794884923,410257.0723366406 -251446.88110266175,402866.97592269356 -274813.5742714358,392838.32873863325 -296841.82754295366,380213.58313137473 -317185.0183109858,365073.44150604 -335494.83337912156,347538.5166678645 -351425.5073825333,327770.6102441562 -364638.3139961072,305973.567814103 -374806.2710075175,282393.6718728189 -381619.01506709063,257319.5369057171 -384787.79685661657,231081.47465446973 -384050.54262284905,204050.30211308406 -379176.92357620934,176635.56989014323 -369973.37064006244,149283.1942905711 -356287.9685296125,122472.4827777462 -338015.16021961486,96712.54933545587 -315100.19060238625,72538.12361067419 -287543.216614446,50504.765524566 -255403.01038962812,31183.505223128035 -218800.18214145745,15154.936723993002 -177919.85054412115,3002.80231673984 -133013.69041791948,-4692.886403215884 -84401.29057131706,-7363.1361440107075 -32470.758737364253,-4457.604692107732 22321.48431393001,4547.493177056691 79451.77319678682,20141.28691057258 138331.17330585327,42770.04655110891 198308.39932110158,72828.96951845758 258673.70364139258,110654.0595520894 318663.7512954315,156514.20524291968 377467.4867138635,210603.570302157 434232.985766267,273034.41135583754 488075.273766715,343830.4414981901 538085.0768407026,422920.8589745278 583338.4602495357,510135.1600934094 622907.293124726,605198.8536973324 655870.4647273391,707730.1911728684 681325.7629808523,817238.0209908359 698402.3118077725,933120.8700869966 706273.4499168608,1054667.3459938373 704169.9203343302,1181057.9435034585 691393.2273505626,1311368.3277906687 667329.005869728,1444574.1523863089 631460.2376112533,1579557.455218862 583380.1394273036,1715114.6592170103 522804.54137424746,1849966.1857911334 449583.5663076033,1982767.6700165702 363712.4188500751,2112122.745680116 265341.0897902169,2236597.346702664 154782.7824697478,2354735.449018085 32520.870657984906,2465076.1539981426 -100785.79708092776,2566171.9912142456 -244299.42334498206,2656608.2949879123 -397001.7840678284,2735023.4860911146 -557694.899081193,2800130.067418875 -725003.9867068778,2850736.1207869006 -897382.8186922749,2885767.071534594 -1073121.5697359436,2904287.4686732967 -1250357.2311315774,2905522.5112495422 -1427086.63082029,2888879.0367306108 -1601182.0725523948,2853965.6748980167 -1770409.5751315395,2800611.861277156 -1932449.6590974417,2728885.397847311 -2084920.592990379,2639108.2459566793 -2225403.974862314,2531870.237279286 -2351472.487324782,2408040.3935326072 -2460719.6265576524,2268775.554732188 -2550791.16778381,2115526.029159455 -2619418.0922105033,1950037.9960849744 -2664450.663843258,1774352.4146990462 -2683893.309409041,1590800.219680146 -2675939.921414451,1401993.6153494343 -2639009.173656713,1210813.3163287549 -2571779.4108499438,1020391.6228907167 -2473222.649974526,834091.2635496788 -2342637.2110443935,655479.9856139673 -2179678.479740634,488300.9260584587 -1984387.2942818794,336438.8497724027 -1757215.4444646458,203882.39951473658 -1499047.7724423842,94682.56122803218 -1211220.372907933,12907.609122316562 -895534.4052308289,-37405.14351926259 -554265.0520496862,-52300.40025154515 -190165.18802958264,-27958.295618478365 193536.64091174395,39250.340350017046 593144.2835875856,152707.43226978122 1004508.3990239577,315490.443013154 1423047.4671092168,530315.1594363949 1843775.5744807513,799479.1936667438 2261337.0834831423,1124806.9523244144 2670048.2136175963,1507596.858236514 3063945.480869635,1948571.6337785353 3436840.8513202835,2447832.4711398166 3782383.3722905014,3004817.921787316 4094126.9478188376,3618268.334495419 4365603.826507763,4286196.657892741 4590403.269767808,5005866.3990126215 4762254.768402028,5773777.493386988 4875115.076546105,6585660.794471936 4923258.235519298,7436481.830440457 4901367.6675147675,8320454.404563972 4804629.331672037,9231064.531613871 4628824.8543698555,10161105.107189229 4370423.473003094,11102721.600019129 4026671.569512697,12047468.939665167 3595678.51794618,12986379.644410234 3076497.5307233245,13910043.097375067 2469200.1623880086,14808695.734147292 1774943.1186846474,15672321.75370488 996026.0239427792,16490763.807597797 135938.8219999338,17253842.961814944 -800602.4738906685,17951487.063253526 -1807632.9078310817,18573866.480120197 -2877929.732310942,19111536.02493697 -4003018.633497426,19555581.712235976 -5173195.96359537,19897770.852721255 -6377567.776454026,20130703.843946118 -7604106.306905087,20247965.886735935 -8839724.360230949,20244276.73904321 -10070367.88661456,20115636.51699667 -11281126.80762758,19859465.468921594 -12456363.939268311,19474735.584306754 -13579861.620545577,18962091.858220726 -14634985.410179691,18323961.014547344 -15604863.958995206,17564645.500465006 -16472583.90460483,16690400.60147048 -17221398.37088185,15709492.592358317 -17834947.390561495,14632235.93604232 -18297488.3083849,13471007.669778973 -18594133.967963398,12240237.27773312 -18711096.241608337,10956370.540041806 -18635932.232465934,9637806.07134995 -18357790.26621811,8304803.515547187 -17867652.59918999,6979362.647047836 -17158571.604765993,5685072.940897926 -16225896.064311123,4446933.512278325 -15067484.085975617,3291143.6881612004 -13683899.108306391,2244864.8570610373 -12078585.418762162,1335954.643642054 -10258019.633017011,592674.8695956338 -8231834.642000753,43375.18645329126 -6012912.6422308795,-283845.30478299176 -3617444.0229791715,-361495.7031361203 -1064949.0925242936,-163067.05842647914 1621740.114027752,336581.35730260477 4416540.390907684,1160827.2342186188 7290222.364098267,2330886.214448607 10210561.608745279,3865413.3804225754 13142537.088327857,5780110.243567906 16048577.61441546,8087342.502036104 18888856.47518757,10795774.055413578 21621633.791511975,13910022.930062026 24203645.53601875,17430344.87521183 26590537.49872357,21352350.43188308 28737341.80857799,25666761.2493176 30598992.93072215,30359211.32254522 32130879.361744646,35410098.64631302 33289426.54806551,40794492.521917656 34032705.86433894,46482101.41233474 34321063.81868858,52437305.8161628 34117765.00918524,58619260.12196158 33389641.75111139,64982066.8122841 32107742.73725075,71475025.71284236 30247972.59383002,78042960.22974989 27791713.762891065,84626621.69073139 24726421.787702225,91163172.00988375 21046184.810930844,97586743.93651652 16752237.92486945,103829077.13454519 11853422.947603716,109820227.27875352 6366584.246490977,115489344.2581206 316891.3976459135,120765514.45552658 -6261920.236747062,125578660.93981008 -13327399.507779162,129860494.27359568 -20828327.992560834,133545505.5227232 -28704774.263274834,136571991.9653426 -36888260.32504643,138883104.95637274 -45302045.6693628,140427908.42203322 -53861533.29153268,141162435.55587977 -62474800.794823214,141050730.47863525 -71043258.35708506,140065860.92549396 -79462433.87657356,138190887.45257312 -87622884.05290891,135419774.2243932 -95411228.50929593,131758226.17155021 -102711302.33782382,127224437.2060432 -109405420.66731994,121849734.26370613 -115375747.0311559,115679102.22020578 -120505755.47058468,108771575.20868438 -124681774.4692268,101200480.5610793 -127794598.99921963,93053522.50701667 -129741155.19357792,84432693.89723507 -130426200.46769159,75454005.57341833 -129764040.32168786,66247024.581163764 -127680241.59109259,56954214.21268296 -124113320.60257643,47730070.862884074 -119016383.56114031,38740054.87573738 -112358695.57105501,30159314.933156967 -104127154.00047964,22171208.078658346 -94327641.46313512,14965620.152237955 -82986233.5322226,8737094.21751027 -70150236.44259027,3682777.4603164922 -55889030.495223835,200.00000006844456" stroke="white" stroke-width="1.5" /></svg>