<?xml version="1.0" encoding="utf-8" ?>
<svg baseProfile="full" height="400" version="1.1" width="400" xmlns="http://www.w3.org/2000/svg" xmlns:ev="http://www.w3.org/2001/xml-events" xmlns:xlink="http://www.w3.org/1999/xlink"><defs /><rect fill="black" height="100%" width="100%" x="0" y="0" /><circle cx="200" cy="200" fill="yellow" r="20" stroke="orange" stroke-width="2" /><polyline fill="none" points="198.813291310377,200.0 198.83270588081334,199.93872239103752 198.86098281797896,199.88008313880147 198.89813463060787,199.82518546011045 198.94405670500532,199.77516640513286 198.9985205132333,199.73118519195933 199.06116789974462,199.69441049114056 199.13150658950113,199.66600674828078 199.20890705498857,199.64711965065072 199.29260087182746,199.63886086153826 199.38168068284025,199.642292163458 199.4751018784416,199.65840916815594 199.57168608708156,199.68812476732103 199.6701265532222,199.73225251279766 199.76899546202318,199.79149012862422 199.86675324964784,199.8664033691443 199.96175991599364,199.95741044748928 200.05228833285315,200.06476726667026 200.13653951520777,200.18855369109627 200.2126597967583,200.32866109933158 200.27875982314893,200.4847814591062 200.33293524791952,200.65639816280972 200.3732889873235,200.84277885576552 200.39795486110714,201.04297048036224 200.40512241750807,201.25579674650712 200.39306271247168,201.4798582227904 200.36015478579301,201.71353522318168 200.30491255097243,201.95499364102295 200.22601179144164,202.20219385559864 200.12231693389083,202.45290280674385 199.99290725012983,202.70470929995008 199.83710212266038,202.9550425684388 199.6544849963312,203.2011940799442 199.444925629481,203.44034253477867 199.20860025321596,203.66958195849207 198.94600924725958,203.8859527474812 198.65799194545988,204.08647547970259 198.34573819381012,204.26818725568063 198.01079629895648,204.42818028781983 197.6550770257977,204.56364240919385 197.28085332904206,204.6718991271037 196.89075553552632,204.7504568024056 196.4877617317006,204.79704649356398 196.07518315385582,204.8096679652613 195.65664442725253,204.78663332587365 195.23605855405722,204.72660972688593 194.81759660858555,204.62866053104509 194.4056521613823,204.4922843353974 194.00480052065413,204.31745122095464 193.61975294993854,204.10463559318836 193.2553060939969,203.85484497740754 192.91628692003258,203.56964414083677 192.60749355765748,203.25117392930713 192.3336324976925,202.90216423126247 192.09925268596075,202.52594051554067 191.90867712272814,202.12642343229524 191.76593265033318,201.70812101855572 191.67467867975896,201.27611311125446 191.63813567033577,200.83602764092754 191.65901423432007,200.39400855845673 191.7394457886592,199.95667523476368 191.8809157187261,199.53107326876673 192.0842000521261,199.124616741507 192.3493066638054,198.7450220633463 192.67542204566473,198.4002336756118 193.06086467379953,198.09834198694796 193.503045993548,197.84749404676043 193.99844001602688,197.65579758218618 194.542562479196,197.5312191495957 195.12996047127308,197.4814772752038 195.75421334423066,197.51393158033588 196.4079456600248,197.63546900358514 197.08285281218218,197.85238834276552 197.7697398506542,198.17028444243635 198.45857390887483,198.59393344604283 199.1385504893844,199.12718061358203 199.79817370906517,199.77283227438215 200.4253504380571,200.53255353833578 201.00749808907807,201.40677342609104 201.53166562767422,202.39459909769892 201.98466718059794,203.4937408585931 202.35322742097728,204.70044960022972 202.62413770732647,206.00946828910938 202.78442175105118,207.41399905130393 202.82150938639103,208.90568730930704 202.7234168203259,210.4746243135556 202.4789315505806,212.10936927213396 202.07779996032414,213.79699211906978 201.5109154313647,215.5231377746646 200.77050466652187,217.27211254119885 199.85030977933943,219.0269930451775 198.74576359828322,220.76975788444707 197.45415554586663,222.48144186677797 195.97478539347108,224.1423124379869 194.30910216253076,225.73206759483259 192.46082544458685,227.23005426356656 190.43604644860076,228.61550580229658 188.2433061556828,229.86779695768013 185.89364807055406,230.96671427765338 183.40064320675884,231.89273965593082 180.78038512962766,232.62734436512898 178.0514531075623,233.1532906280134 175.2348416882052,233.45493748514008 172.35385532079738,233.51854744676268 169.43396698832896,233.33259017206294 166.50264019119373,232.888039204297 163.5891140356795,232.1786576110303 160.72415162287018,231.20126823884263 157.9397524029646,229.95600419611335 155.26882965260165,228.44653512988586 152.74485474395345,226.6802648671764 150.40147039898295,224.66849605086682 148.27207565474544,222.426557518465 146.38938579983787,219.97389035097513 144.78497107153868,217.33408876074085 143.48877842092818,214.5348922925908 142.52864115210994,211.6081261824166 141.9297817140928,208.5895871511448 141.71431336229875,205.51887240882644 141.90074680329786,202.43915020129322 142.5035082835073,199.39687084766143 143.53247587259102,196.44141788713696 144.99254091772804,193.62469967338953 146.8832017986472,191.00068251858977 149.198197188645,188.62486729048706 151.92518601751397,186.55371219718936 155.04548123287054,184.84400534725637 158.53384426197098,183.55219153817455 162.35834678281032,182.73365859432033 166.48030601812766,182.4419894355075 170.8542992669922,182.72818689792103 175.42826278516605,183.63987913891438 180.14367941794637,185.22051422363558 184.93585857950617,187.50855320232532 189.73431126411987,190.53667162983166 194.46322177173508,194.3309800408415 199.0420167393194,198.91027436315264 203.38603089791883,204.28532761492096 207.40726773261426,210.45823447865308 211.01525191923054,217.42182046388024 214.11796905990116,225.15912735191415 216.62288685298938,233.64298645085609 218.43805042633025,242.83569086934094 219.4732431524491,252.68877753697612 219.64120286762272,263.1429290532949 218.85888205165827,274.12800463221936 217.04873921118633,285.5632084243816 214.14004746584982,297.357402346021 210.07020518422502,309.40956922364535 204.78603247505427,321.6094305834712 198.24503642981102,333.83822178152946 190.4166272548895,345.9696253943008 181.28326684540824,357.8708618833499 170.84153095651763,369.40393452565627 159.10306593986326,380.4270234816015 146.09542104874635,390.79602167470205 131.86273759011425,400.3662029032391 116.46627672734958,408.99401031828756 99.98476852522617,416.53895111151417 82.51456588505678,422.8655809877079 64.16958834887288,427.84555978102526 45.0810423582555,431.3597574414647 25.396906434663492,433.3003876012699 5.281171898764455,433.57314406262094 -15.087167842344371,432.0993138612856 -35.51538375158205,428.81783908905544 -55.79853478227216,423.68729843344556 -75.7212469802156,416.6877784481141 -95.05974309581899,407.82260393225215 -113.5841142868947,397.1198965004016 -131.06082191885469,384.6339304921983 -147.25541380502767,370.44625582796414 -161.93543551526517,354.6665582812216 -174.87351365871672,337.4332289297154 -185.85058436242178,318.9136162748074 -194.65923656956375,299.30393669299565 -201.10713632043263,278.8288215056069 -205.02049490756326,257.74048202081923 -206.24754076751452,236.31747740779795 -204.66195223931248,214.86307419154232 -200.16620593748308,193.70319048856078 -192.69479350902532,173.18392281073366 -182.21725802020546,153.6686583143664 -168.7410002001498,135.5347807235471 -152.31380430035694,119.16998376520215 -133.02603345515695,104.96821176507507 -111.01244518600885,93.32525301057467 -86.45357911528527,84.63401752364913 -59.57667106964408,79.27953693483278 -30.656050579268168,77.63373013386989 -0.012982329698616013,80.04998421412839 31.985083598012068,86.85760584516463 64.92588285989436,98.35620351537679 98.3543538018952,114.81006599790375 131.77531827990805,136.4426068201845 164.6568373401159,163.43094837336668 196.4342450896059,195.9007224958308 226.5148558692523,233.92116682163015 254.2833311331671,277.5005978194222 279.1076833171153,326.58234218510904 300.3458845279102,381.0412080226588 317.3530382025084,440.6805759905619 329.48906207417303,505.230188252878 336.1268209571342,574.344709610469 336.66063814192785,647.6031305676465 330.51510470904276,724.5090762918852 317.15409695241766,804.4920784430108 296.08990349472276,886.9098586907006 266.89235571430623,971.0516634280948 229.1978479315626,1056.1426787632963 182.71812756244074,1141.3495433846429 127.24873027888083,1225.7869644217296 62.676931256253226,1308.5254280512347 -11.010919033457952,1388.5999824308901 -93.72280718469614,1465.0200557095159 -185.2553496673645,1536.7802564955737 -285.2890962864065,1602.8720884270426 -393.3849706519095,1662.2964945419628 -508.9819683461361,1714.0771311869134 -631.3962259190533,1757.274255416884 -759.821564376042,1790.999094443002 -893.331599430129,1814.42855089183 -1030.8834974892025,1826.8200836759042 -1171.3234411737192,1827.5265913690384 -1313.3938511758392,1816.0111133632417 -1455.7423925667372,1791.8611539876053 -1596.9327733525888,1754.8024264207083 -1735.4573213167444,1704.711806847949 -1869.7513021392247,1641.629285114863 -1998.2089176551335,1565.7686963052467 -2119.20089812944,1477.527018410776 -2231.0935768393724,1377.4920247189316 -2332.269309346264,1266.448085867927 -2421.148073906232,1145.3799258138297 -2496.210063834831,1015.4741483098195 -2556.019057643764,878.1183659617535 -2599.246328761351,734.8977825136908 -2624.6948339978294,587.5891007098861 -2631.323398994377,438.15165281402506 -2618.2706000769626,288.7156785381276 -2584.878025597739,141.5677055949551 -2530.7125863573283,-0.8669788527264473 -2455.587534419201,-136.04474215299496 -2359.581842895633,-261.3268443446879 -2243.057596424625,-374.0054001167563 -2106.675043363775,-471.33192347905526 -1951.4049664632184,-550.5482724814614 -1778.5380391707415,-608.9197692090763 -1589.690849950387,-643.7702281474742 -1386.8082971961662,-652.5185843760199 -1172.1620825763223,-632.7167724605082 -948.345060975387,-582.0884679538307 -718.2612405738487,-498.5682666687193 -485.11126691623235,-380.3408429652194 -252.37326989687773,-225.8795978087831 -23.7790021974819,-33.9842809117213 196.71474847251943,196.18295052880882 404.95943333971564,465.0635905569684 596.6526017356812,772.6715255013165 767.380180635765,1118.5650266762636 912.6629436700599,1501.8225617907851 1028.006871093436,1921.0229826137675 1108.9570337699674,2374.2306293743777 1151.154565776118,2858.9858674388397 1150.3962226067947,3372.3015387850614 1102.695956075739,3910.6657695638337 1004.3478737720569,4470.051525551464 851.9898913328853,5045.933249628389 642.6673308027591,5633.310849729299 373.89566896596284,6226.741232283448 43.721596748926146,6820.377495394121 -349.218484430539,7408.015808407201 -805.6434301966863,7983.149910721981 -1325.5767027513245,8539.033063455241 -1908.3010275584493,9068.747183752297 -2552.319278316066,9565.278784130498 -3255.322495617806,10021.601229337646 -4014.165916656718,10430.762712011752 -4824.853852480264,10785.979237231932 -5682.534195324107,11080.731796242706 -6581.503271220836,11308.86680266843 -7515.221672343932,11464.698761935942 -8476.341609513674,11543.114047960205 -9456.746218238337,11539.674572017982 -10447.60113205192,11450.72004875379 -11439.418505385756,11273.467495038205 -12422.133525612939,11006.106540510891 -13385.193301265163,10647.889085625666 -14317.657851967611,10199.211815336323 -15208.312756786405,9661.690065589297 -16045.792843040346,9038.221546782217 -16818.71611898056,8333.038454417554 -17515.826973038962,7551.746543284851 -18126.147481704687,6701.349808410819 -18639.13548975263,5790.259504283587 -19044.847952897504,4828.286343820136 -19334.10786645325,3826.614850288749 -19498.672946789953,2797.758988740799 -19531.404087901945,1755.4983779880115 -19426.431485853038,714.7945790279546 -19179.316211857018,-308.31282998761964 -18787.204922855188,-1296.8304499999997 -18248.975329157092,-2232.955337845937 -17565.369994389213,-3098.238910268853 -16739.11602587841,-3873.769747146953 -15775.028225711978,-4540.3742819600375 -14680.093315874878,-5078.834077095351 -13463.532926610456,-5470.118087918734 -12136.843146718234,-5695.628026045657 -10713.808578803442,-5737.454642600563 -9210.489022047253,-5578.642470313642 -7645.177120013083,-5203.460293094652 -6038.325561030819,-4597.67435739052 -4412.442703051648,-3748.8211054047974 -2791.955812301443,-2646.4760003929778 -1203.0414538466666,-1282.5148329897347 326.57704991408895,348.63625095593363 1767.8647725594844,2249.7658722220553 3090.742201124319,4420.661631902009 4264.382923429401,6857.917385814194 5257.540329190554,9554.767527632046 6038.901196749933,12500.952157351478 6577.463560036969,15682.6168873299 6842.935773571615,19082.25085874533 6806.153222929393,22678.666305483228 6439.508670376471,26447.02270931473 5717.39178689764,30358.89823959533 4616.633009321461,34382.4107630948 3116.9464815668057,38482.39024622469 1201.3664991161932,42620.603854893474 -1143.3284174464536,46756.03448932124 -3926.2099338369726,50845.21287604772 -7151.819092273928,54842.60268157078 -10819.816687955798,58701.037416850755 -14924.671280814668,62372.2071754973 -19455.391255634357,65807.19249772176 -24395.307225537188,68957.0418848344 -29721.910869549225,71773.38871360647 -35406.75600121866,74209.10252531388 -41415.42727975181,76218.96890043258 -47707.581496492516,77760.39138697274 -54237.065797521675,78794.10823896824 -60952.11653856015,79284.9160526446 -67795.64171328048,79202.39177242715 -74705.58905391245,78521.60398848153 -81615.40097830615,77223.80397309599 -88454.55655636462,75297.08651590366 -95149.19959831556,72737.0103283682 -101622.85083634006,69547.16760626358 -107797.20098962735,65739.69227454568 -113592.98028229714,61335.6965007101 -118930.89873639641,56365.62525813362 -123732.65030205078,50869.519056516896 -127921.97262865891,44897.17543761305 -131425.7530405525,38508.200464697205 -134175.17007439176,31771.942215848852 -136106.85878107895,24767.299224499387 -137164.0869099148,17582.397894415495 -137297.92809531285,10314.134146888684 -136468.41727483558,3067.5759299587708 -134645.6727998502,-4044.7752746105652 -131810.9690745762,-10903.864180918827 -127957.74309297407,-17385.101157320805 -123092.5179522959,-23359.518065847886 -117235.72632256745,-28695.05521325156 -110422.41695680865,-33257.9721594543 -102702.82764987956,-36914.373101668454 -94142.8086050029,-39531.83550456677 -84824.08095466899,-40981.128602765246 -74844.3162128388,-41138.006387194815 -64317.023711544025,-39885.05772872748 -53371.234597733805,-37113.594418821696 -42150.97273312023,-32725.55614694032 -30814.504845196112,-26635.409817574506 -19533.364512560518,-18772.019165569687 -8491.147019773201,-9080.459386639406 2117.9252298001115,2476.249510535273 12090.664219827724,15915.517675328747 21216.799228826905,31233.696219028763 29281.07249795095,48404.75151519321 36065.53578961127,67379.13048035925 41352.032672093475,88082.84378518043 44924.848037536314,110416.79304138715 46573.503039937634,134256.36672067374 46095.67036806495,159451.3278780698 43300.18158923457,185826.01466905855 38010.09525965901,213179.87216583008 30065.791642542627,241288.33109764976 19328.057254287465,269904.0458726705 5681.120120310431,298758.5005983567 -10964.405386961482,327563.9878253137 -30668.70688726199,356015.9604208421 -53460.139477508914,383795.7523658462 -79332.81307479652,410573.6593994704 -108244.44656653504,436012.36535343167 -140114.53341075528,459770.69477143465 -174822.8624476368,481507.66705251916 -212208.4361979663,500886.82195000956 -252068.8268135741,517580.7808638161 -294160.007093187,531276.0030510984 -338196.6905758892,541677.6907203221 -383853.21067233005,548514.7920409836 -430764.96409773466,551545.046472225 -478530.43854598224,550560.0125662332 -526713.8386146547,545390.0146151235 -574848.3174903336,535908.9412607867 -622439.8148739582,522038.82655250456 -668971.4941201778,503754.14199088933 -713908.763643341,481085.72690919315 -756704.8593771285,454124.2841798716 -796806.9565445108,423023.36875525623 -833662.7702880363,388001.79800891125 -866727.5959240207,349345.41528344847 -895471.7308219912,307408.1415066014 -919388.2112832657,262612.2542352926 -938000.7894162685,215447.8390411493 -950872.0670021675,166471.36476205775 -957611.6958370247,116303.34180142263 -957884.5471526629,65625.03133467125 -951418.7465853074,15174.182941623814 -938013.4659051737,-34260.21123084181 -917546.3584658392,-81844.14622843193 -889980.5221994985,-126705.8062088272 -855370.8720869587,-167943.71387114617 -813869.803476041,-204635.78930202842 -765732.0285056742,-235849.26627442305 -711318.4703006605,-260651.39988197287 -651099.1036061009,-278120.8851130893 -585654.6361879937,-287359.89173364924 -515676.93267753377,-287506.60683570104 -441968.0916038141,-277748.1628108937 -365438.0971442814,-257333.81551844397 -287100.97960606235,-225588.2252406595 -208069.43279213173,-181924.68186024405 -129547.8521395789,-125858.10575983327 -52823.7747538217,-57017.64744105043 20742.278911271584,24841.298010598 89728.54210031842,119825.85053262432 152665.27693888458,227895.3707137571 208049.52529597405,348852.3442402326 254361.25031932956,482334.616462847 290080.76063136995,627809.1644136866 313707.2859711854,784567.5870314261 323778.54994357686,951723.4850956303 318891.16278257454,1128211.8903588108 297721.63496203604,1312790.8885649971 259047.79140991604,1504045.5634527518 201770.34633469576,1700394.3684908391 124934.38058680709,1900098.010054429 27750.44739106016,2101270.9001252623 -90384.9814679463,2301895.20853651 -229870.02801938952,2499837.5144675807 -390879.18616836116,2692868.0245524626 -573346.6774171604,2878682.290863873 -776951.6975013555,3054925.3264809707 -1001105.864670274,3219217.9796852707 -1244943.1737821614,3369185.390440327 -1507312.7496016033,3502487.315111619 -1786774.6775329532,3616850.0678221746 -2081599.1703939799,3710099.7898935997 -2389769.3056733133,3780196.722992225 -2708987.539020474,3825270.127406024 -3036686.166541737,3843653.454855278 -3370041.870931581,3833919.3559324904 -3705994.444732215,3794914.0762207345 -4041269.7383211795,3725790.772897406 -4372406.830883195,3626041.2657238683 -4695789.369995829,3495525.723263187 -5007680.969984647,3334499.777445907 -5304264.501381852,3143638.5576711386 -5581685.044214299,2924057.1398981432 -5836096.217074957,2677326.9170152945 -6063709.532674331,2405487.4144731797 -6260846.369554081,2111053.0999764046 -6423992.089649973,1797014.7681121281 -6549851.773230244,1466835.1202407056 -6635406.987253915,1124438.2067871261 -6677972.951262125,774192.4531628545 -6675255.417418155,420887.0517297688 -6625406.539135062,69701.57020678715 -6527078.966756769,-273831.29867708724 -6379477.379850128,-603869.8411553748 -6182406.644656644,-914314.1892537446 -5936315.772931904,-1198863.769459303 -5642336.855504692,-1451081.0581696327 -5302318.151083607,-1664461.2719411894 -4918850.5287121,-1832507.5217710142 -4495286.491317172,-1948810.861098954 -4035751.0483992337,-2007134.5580971832 -3545143.75833914,-2001501.825381116 -3029131.3251939192,-1926286.1458560952 -2494130.2112155734,-1776303.2433839533 -1947278.8145084195,-1546903.6627262922 -1396398.8609352696,-1234064.8462338592 -849945.7701218526,-834481.5264462753 -316947.87655420584,-345653.195574473 193065.48249429275,234032.63383884358 670146.8611149815,905222.6965959988 1104024.28309323,1667527.1100355587 1484205.0535734682,2519456.7202359717 1800089.1956415905,3458369.9906283747 2041091.74284221,4480430.734942318 2196772.9568943726,5580577.948768661 2256975.378856803,6752508.927588696 2211966.463777664,7988676.773463132 2052585.3955972774,9280303.287470266 1770392.5329945,10617408.120437894 1357819.8002771335,11988854.910775507 808320.2126480703,13382414.97578401 116514.61457587956,14784848.942469245 -721666.3841143358,16182006.506654797 -1708847.3651612815,17558944.29640587 -2846082.096918682,18900061.589039166 -4132738.7440052703,20189253.392195687 -5566398.474397229,21410080.150753524 -7142769.626458146,22545953.0851888 -8855619.549791504,23580333.906038836 -10696726.155642597,24496947.386314712 -12655851.103861948,25280005.012186255 -14720736.413478814,25914437.675370548 -16877126.112368353,26386135.12189473 -19108814.338348392,26682189.634918492 -21397721.06972136,26791141.20782358 -23723996.398616273,26703221.26160941 -26066153.966737676,26410591.78157204 -28401233.86200689,25907576.596074518 -30704994.928242367,25190881.39862915 -32952136.071094554,24259799.027065102 -35116545.754995696,23116396.463631768 -37171578.48144309,21765680.01061099 -39090356.62245411,20215735.130229246 -40846095.55889716,18477837.517855443 -42412449.64637087,16566532.105722493 -43763876.10650373,14499676.872351171 -44876013.52439713,12298448.561587479 -45726071.22915319,9987307.69525569 -46293225.44992516,7593920.59482861 -46559017.78077979,5149036.509539692 -46507751.16003107,2686318.3796466906 -46126878.27979143,242126.24203917608 -45407377.095402844,-2144747.191731931 -44344107.908175446,-4433388.69116252 -42936146.35423896,-6581123.702040513 -41187086.55278713,-8543921.255085237 -39105308.65363956,-10276842.60405925 -36704205.0814716,-11734530.932269897 -34002359.906278424,-12871738.776957603 -31023675.9800271,-13643889.127145788 -27797444.770617638,-14007665.46043344 -24358354.198013894,-13921625.30678657 -20746430.234596714,-13346831.271903967 -17006908.57233814,-12247492.828823246 -13190033.282159854,-10591611.603964329 -9350780.093566379,-8351622.352807169 -5548502.701970048,-5505021.350918509 -1846501.3624640952,-2034973.5280368226 1688486.0535995385,2069110.643861619 4986869.385994769,6811037.723783316 7976865.715762318,12187342.67820457 10585229.847196925,18186858.42179961 12738051.38984852,24790352.787213128 14361612.96816783,31970241.970824562 15383302.95890141,39690389.15647318 15732575.035384752,47905996.54278991 15341945.697880149,56563598.389243856 14148019.905143507,65601161.94986019 12092533.910135208,74948302.28201579 9123403.458261814,84526615.9026453 5195764.646041756,94250137.11930484 272993.9779562703,104025919.59437016 -5672306.484342856,113754744.31467533 -12657373.497535344,123331953.6455224 -20688411.51757217,132648409.55863503 -29759801.268460598,141591572.45158583 -39853403.20763596,150046695.2368036 -50937970.93560118,157898125.58857277 -62968689.238465115,165030707.41535795 -75886850.88625044,171331270.79290754 -89619685.53049412,176690197.77294645 -104080353.04716694,181003049.69628042 -119168112.45307475,184172239.912342 -134768676.08605966,186108734.1650388 -150754757.08467466,186733759.3733647 -166986816.33758613,185980500.14100185 -183314013.0058956,183795761.0986808 -199575360.46504727,180141572.14260793 -215601087.08240598,174996712.80750683 -231214198.66050172,168358131.42843765 -246232236.65615645,160242234.42497522 -260469223.45703915,150686021.00612533 -273737783.08761007,139748038.86416855 -285851422.756646,127509137.01746313 -296626957.68206674,114072992.89034605 -305887058.67149407,99566391.99359988 -313462899.0370125,84139240.198934 -319196874.6197681,67964290.58897617 -322945368.03583646,51236569.209702134 -324581525.7715592,34172486.74976037 -323998014.49734557,17008626.2108214 -321109720.9768327,200.00000039324624" stroke="white" stroke-width="1.5" /></svg>