<?xml version="1.0" encoding="utf-8" ?>
<svg baseProfile="full" height="400" version="1.1" width="400" xmlns="http://www.w3.org/2000/svg" xmlns:ev="http://www.w3.org/2001/xml-events" xmlns:xlink="http://www.w3.org/1999/xlink"><defs /><rect fill="black" height="100%" width="100%" x="0" y="0" /><circle cx="200" cy="200" fill="yellow" r="10.596294528122048" stroke="orange" stroke-width="2" /><polyline fill="none" points="198.7957629531465,200.0 198.71303647241663,199.93244029375631 198.63371729894334,199.85615639903708 198.55878772924981,199.7713469657973 198.48923357659905,199.6783245392173 198.42603189014312,199.57751911955847 198.37013795225988,199.46948049332565 198.32247166721612,199.35487922424673 198.2839034694375,199.23450620177985 198.2552398942235,199.10927065594458 198.237208967503,198.98019656023902 198.2304455839543,198.84841735920915 198.23547705428976,198.71516897382335 198.25270901249806,198.58178105608457 198.282411882128,198.4496664841711 198.32470810706434,198.32030911069467 198.37956035648517,198.19524979922988 198.44676091560302,198.07607080791138 198.52592247319902,197.96437860338486 198.61647051370454,197.8617852134959 198.71763751552302,197.76988825252738 198.82845914830992,197.69024977826373 198.9477726499547,197.62437416534908 199.07421754898252,197.5736852039893 199.20623888000003,197.53950265667547 199.34209301866645,197.52301852792047 199.47985623853907,197.52527332263813 199.6174360651186,197.5471325873841 199.75258547265014,197.589264044852 199.88291993690348,197.65211564541366 200.00593732249484,197.7358948697581 200.11904054659402,197.84054962347872 200.2195629224077,197.96575106746886 200.30479604600086,198.11087872691962 200.3720200492201,198.2750082163117 200.41853600015415,198.45690190782975 200.44170019119093,198.65500285592532 200.43896001381475,198.86743227117555 200.4078910793735,199.09199081204613 200.34623520669777,199.32616393364498 200.25193886125226,199.56713149807646 200.12319159704003,199.8117818116765 199.95846402236162,200.05673021038618 199.75654478435072,200.29834226604345 199.51657604555936,200.53276163374014 199.2380869093152,200.75594250398262 198.9210242396756,200.9636865636592 198.56578031706576,201.15168430727326 198.17321677258707,201.315560475141 197.74468425293617,201.45092332893086 197.28203728424498,201.55341740776166 196.78764382723296,201.61877934085544 196.26438904806923,201.64289622629033 195.71567286940802,201.6218660206009 195.1454009142271,201.5520593217392 194.5579685113088,201.43018186919062 193.9582374952958,201.25333703079616 193.3515056059612,201.01908749704438 192.74346837026957,200.72551536123322 192.14017343647865,200.37127972892068 191.5479674213213,199.95567097341504 190.97343542848574,199.47866073658716 190.42333349832813,198.9409467668538 189.90451435404472,198.34399168954542 189.4238469173321,197.6900548197166 188.9881301756966,196.98221615436648 188.6040020927742,196.22439172048178 188.27784436093137,195.42133950764867 188.01568390061013,194.57865527940905 187.82309211186387,193.70275763612992 187.70508297876754,192.8008617938109 187.66601121530584,191.88094164771348 187.70947172036364,190.95167980650916 187.8382016779824,190.02240541119195 188.0539866955532,189.10301969246595 188.35757241557934,188.2039093696996 188.74858306462002,187.33584815263944 189.2254484146669,186.50988677251542 189.78534062627233,185.73723214037952 190.42412241813318,185.02911640575715 191.13630796359706,184.3966568660457 191.91503784993193,183.85070785450154 192.75206935062397,183.40170590991386 193.63778315410477,183.05950970184387 194.56120756405878,182.83323634918997 195.5100610369921,182.7310959243193 196.47081375248683,182.76022607753552 197.42876872125336,182.92652884465403 198.3681627267452,183.23451181136784 199.27228716904884,183.68713589938287 200.12362863664382,184.285672108531 200.90402877439243,185.02956959389508 201.59486274702033,185.91633747520814 202.17723531893927,186.94144276541343 202.63219328638587,188.09822676450182 202.94095270960906,189.3778421920556 203.08513910460127,190.76921322608334 203.04703846921632,192.25902047583014 202.80985674123133,193.83171274174595 202.35798501993602,195.4695472065505 201.67726763223456,197.15265945761683 200.75526989317052,198.85916446343433 199.58154220341711,200.56528931689417 198.14787694677798,202.24553821724612 196.44855450322225,203.87288979297085 194.48057458140138,205.41902647218015 192.2438690027666,206.85459518867083 189.7414920408752,208.14949827409293 186.97978443749855,209.2732129340124 183.96850728461652,210.19513724257362 180.72094208077624,210.88496012206645 177.25395344359794,211.3130523054444 173.58801118888104,211.45087481755786 169.7471687716665,211.271401060715 165.75899542596304,210.74954815856927 161.6544597371826,209.86261280587254 157.46776283346227,208.59070649706354 153.23611988701427,206.9171846707809 148.99948917170605,204.82906401696678 144.80024852467454,202.31742195491796 140.68281970355696,199.3777721109018 136.69324181168633,196.0104095089424 132.8786956753712,192.22071914386538 129.28698179336385,188.0194416369386 125.96595523129588,183.42288978615147 122.96292159497455,178.45311001933294 120.32399897708171,173.13798304213384 118.09345152250918,167.51125834673226 116.31300098829195,161.61251771234484 115.02112337443398,155.4870633855635 114.25233836111555,149.18572727641262 114.03649989486726,142.76459824285888 114.398096810252,136.2846653590966 115.35557284341462,129.81137596679068 116.92067577873523,123.4141082877765 119.09784575926798,117.16555942437424 121.88365297567977,111.14105068100208 125.26629501766617,105.41775329841401 129.2251641177699,100.07383888859114 133.7304943325686,95.18756008180927 138.74309838387222,90.83626813426201 144.21420341767592,87.09537548035301 150.0853943273995,84.0372724329228 156.28867252819606,81.73020842097704 162.7466371603462,80.23714929096806 169.3727946432882,79.61462326688469 176.07200130091945,79.9115691485027 182.74104243870246,81.16820120821569 189.26934978117342,83.4149060070235 195.53985758415965,86.67118697196481 201.42999603099992,90.94467304351691 206.81281872012855,96.2302079960494 211.55825916845274,102.50903714214085 215.53450930901437,109.74810803859069 218.6095109724831,117.89950150600359 220.65254933192705,126.9000087444229 221.53593528264062,136.6708695662751 221.13676174872285,147.11768576878364 219.33871698206048,158.13052242753636 216.03393607496628,169.58420841028652 211.12487017336224,181.33884568758197 204.5261512820247,193.24053505979413 196.16642912617942,205.12232373720576 185.99015530366358,216.8053778130332 173.9592889574657,228.1003800741028 160.05489744731838,238.80915081936308 144.2786250274697,248.72648642499624 126.65400237035183,257.6422073325728 107.22756993512665,265.34340397274593 86.06978868580622,271.6168659040434 63.275712532835314,276.25167617989933 38.96539811814577,279.04194969562053 13.284029196520777,279.7896910513842 -13.598265108786649,278.3077443406979 -41.48691647977006,274.4228042808648 -70.16376350222174,267.97845528907885 -99.38824999576133,258.8382025218774 -128.89898432651552,246.88845658416642 -158.41566455121796,232.04143162404745 -187.6413700175081,214.2379149074881 -216.2652155305688,193.44986475733614 -243.96535942775216,169.68279298691198 -270.4123519227387,142.97788769934934 -295.27280493688,113.41383259634907 -318.2133593807175,81.10827977627984 -338.90492054119454,46.218934428963024 -357.0271269322567,8.944211874843404 -372.27301274497677,-30.476569934757038 -384.3538189580594,-71.76349603308194 -393.0039033135374,-114.59688780024146 -397.98569480077515,-158.6186891251004 -399.0946341010074,-203.43442522286114 -396.16403770148963,-248.6157481727447 -389.069820169591,-293.7035768858128 -377.7350064578429,-338.21183233707427 -362.1339641639346,-381.6317615493889 -342.29628446409606,-423.4368360590752 -318.3102400389048,-463.0882024935802 -290.32574877628997,-500.0406545279229 -258.55677341951576,-533.749086945267 -223.28308967242134,-563.6753839022094 -184.85135861547116,-589.2956848929882 -143.67544364936583,-610.1079634270508 -100.23591758227559,-625.6398451952487 -55.078711914412224,-635.4565846200661 -8.812867839148197,-639.1691112866473 37.892643050899665,-636.4420509584446 84.31305092948232,-627.0016198190048 129.672885002836,-610.6432853741605 173.15203691187804,-587.239083218716 213.89277935004637,-556.744475736725 251.00771635523122,-519.2046368769867 283.58862856046704,-474.7600465302505 310.7161630884733,-423.65127882746594 331.4703038904202,-366.22287096359923 344.9415443130624,-302.92616300064685 350.24266969620055,-234.3210045732635 346.52104403047986,-161.07623155168602 332.97128132926275,-83.96882453146719 308.84816958057235,-3.8816715215399995 273.47970314440954,78.20013062668141 226.280068449101,161.19448770552836 166.76241802094145,243.929068840921 94.55125945626537,325.1496358250917 9.394279112397868,403.52994231188313 -88.82658475466224,477.68318463907644 -200.0850077601928,546.1749655105423 -324.20127336850123,607.5377103462504 -460.83458303323107,660.2864539970185 -609.4768666815289,702.9358929524338 -769.4482714064045,734.0185753947485 -939.8944972791658,752.104078738182 -1119.7861375409198,755.8190019287076 -1307.9201660428262,743.8675780656191 -1502.9236976747966,715.0526921566428 -1703.260127681323,668.2970693558395 -1907.2377332762435,602.6643811862741 -2113.0207959380946,517.380001347643 -2318.6432753353874,411.8511290808724 -2522.025036176943,285.68598702892973 -2720.990597626709,138.71179240668627 -2913.29034152445,-29.00880463131898 -3096.624080813056,-217.16312298267565 -3268.6668536258953,-425.1759982231987 -3427.0967718072993,-652.1997749092684 -3569.6247156328823,-897.1070322283406 -3694.025629602715,-1158.4863170142821 -3798.1711378657837,-1434.6411390990088 -3880.063162589193,-1723.592460479654 -3937.8681949206193,-2023.0848818357226 -3969.951836631998,-2330.596697582791 -3974.913201609673,-2643.353954005567 -3951.618740608813,-2958.3486042425748 -3899.235030649008,-3272.360809226443 -3817.260052618184,-3581.9853854148587 -3705.552467576455,-3883.6623486345966 -3564.358394391083,-4173.711449029864 -3394.335189135362,-4448.3705354432495 -3196.571730554003,-4703.83752911114 -2972.6047261943745,-4936.3157269337225 -2724.430570829079,-5142.062094445814 -2454.512312789242,-5317.438148681719 -2165.781314958377,-5458.96297215501 -1861.6332355342988,-5563.367841960425 -1545.9179992580137,-5627.651903379036 -1222.9234825511212,-5649.138266182725 -897.3526957208514,-5625.52985495766 -574.294311806772,-5554.964303068964 -259.1864643800544,-5436.067144238047 42.226184818183384,-5268.002526946416 323.9420236839534,-5050.520655836121 579.758539896385,-4784.001151725571 803.3345781370917,-4469.491518524378 988.2584440842959,-4108.739911872007 1128.12139796576,-3704.2214213220946 1216.5959827323884,-3259.157105835818 1247.518534548927,-2777.5250616195167 1214.9751275250962,-2264.0628522147 1113.390111726755,-1724.2606933651832 937.6163148627186,-1164.3448595562236 683.0258950238992,-591.2508651041634 345.6007558678673,-12.58606998176046 -77.97863189016232,563.4185312584527 -590.2472164935027,1127.9674606706326 -1192.8734189201784,1671.7708435234686 -1886.5825485459136,2185.125289235519 -2671.086894866388,2658.0052817563715 -3545.0238144931254,3080.164644636087 -4505.903121607786,3441.24749151814 -5550.065062020825,3730.907915264919 -6672.650105138406,3938.937510135188 -7867.581723880089,4055.3996632739763 -9127.563249468634,4070.7693962529556 -10444.08978580816,3976.0773866278196 -11807.476046868469,3763.0566556504646 -13206.90084033276,3424.290273642843 -14630.468762224604,2953.3583113971317 -16065.289491047104,2344.9821566139744 -17497.574877154813,1595.1642211115866 -18912.753814922184,701.3209895701094 -20295.604663331127,-337.59269392338285 -21630.40474671507,-1520.9702372451118 -22901.096223676028,-2846.45295279134 -24091.467361007486,-4309.8448758964505 -25185.347993437164,-5905.044827514792 -26166.81769200731,-7623.9977243451685 -27020.424907016015,-9456.667034397748 -27731.41509892178,-11391.030140171159 -28285.965625895682,-13413.098204760656 -28671.424923362894,-15506.961938351033 -28876.553292568733,-17654.864434050654 -28891.762415661695,-19837.30198368156 -28709.35053774003,-22033.153497171894 -28323.730105474355,-24219.838835254603 -27731.644530927206,-26373.506026358944 -26932.370661542824,-28469.246977437273 -25927.903486303567,-30481.340907996335 -24723.11959683419,-32383.524340241675 -23325.915953580494,-34149.28606985742 -21747.32058355932,-35752.185125810654 -20001.571959637968,-37166.18930834888 -18106.163983467904,-38366.03147705456 -16081.853716194031,-39327.58035075617 -13952.629273462437,-40028.22218385843 -11745.635624040879,-40447.24930504049 -9491.056403910248,-40566.2511502424 -7221.950278678968,-40369.50309846973 -4974.040854621467,-39844.348132261206 -2785.4596498461187,-38981.566100717944 -696.4421886269761,-37775.72516768021 1251.0221303733895,-36225.50988664234 3013.5851222917286,-34334.02026271583 4546.977946326335,-32109.036145391878 5806.489699720769,-29563.241348563228 6747.483220700312,-26714.40202021672 7325.944164343908,-23585.49398675093 7499.058737456432,-20204.774078612765 7225.814812568978,-16605.7908066815 6467.620496326938,-12827.330203474396 5188.933613160101,-8913.29316975842 3357.894990950192,-4912.501274458817 946.9579112542771,-878.4286417168535 -2066.494377622214,3131.1416796999747 -5699.551580996135,7054.537637115455 -9963.20852324705,10826.69425958595 -14861.835596802859,14379.72482700116 -20392.696662763563,17643.565034315136 -26545.523595517276,20546.687014244475 -33302.15657525125,23016.87900223343 -40636.25902464706,24982.085328082376 -48513.11575387535,26371.30031171343 -56889.52241706615,27115.50853937383 -65713.77379083012,27148.66291523296 -74925.75765970175,26408.690836595644 -84457.16023468765,24838.51784417335 -94231.7880411898,22387.097167766882 -104166.01009499717,19010.432738303498 -114169.32294508992,14672.582485480523 -124145.03980699895,9346.628102180635 -133991.10354946845,3015.5969478978777 -143601.02174131892,-4326.67860137641 -152864.92032769075,-12674.77925581841 -161670.71080013915,-22011.009300958274 -169905.36397008967,-32304.814258895825 -177456.28166841922,-43512.320164732264 -184212.75589547824,-55576.0083564997 -190067.50315732582,-68424.53892259137 -194918.25996823137,-81972.73498240928 -198669.4238006148,-96121.73879135847 -201233.72214652225,-110759.34926068095 -202533.8908450654,-125760.54886890097 -202504.34145393627,-140988.22612063686 -201092.79622622282,-156294.09768900054 -198261.8682221267,-171519.83217159632 -193990.563264016,-186498.37501216054 -188275.67985689547,-201055.47160825887 -181133.08286785145,-215011.3829613771 -172598.82670866532,-228182.78545346425 -162730.10401492452,-240384.84348076227 -151605.99637949723,-251433.44077167692 -139328.00459221748,-261147.5532932039 -126020.33707210775,-269351.74374516663 -111829.93676075515,-275878.7547905554 -96926.22867930506,-280572.17541266105 -81500.57263632878,-283289.15216602414 -65765.4082046966,-283903.1146401003 -49953.08205299021,-282306.48222420196 -34314.351006520694,-278413.3172920024 -19116.557805363656,-272161.8882556486 -4641.480397559067,-263517.10461432196 8817.140274756679,-252472.78517931144 20956.384704584023,-239053.7201347316 31467.237664273034,-223317.48752452811 40037.951025279464,-205355.98517364077 46357.663393585295,-185296.63998150322 50120.24865234507,-163303.25799225067 51028.36078382508,-139576.48066569446 48797.6377129315,-114353.81535829307 43161.02243818281,-87909.21117971023 33873.15545881723,-60552.15511706936 20714.788536488097,-32626.267607549642 3497.166215295329,-4507.381574806525 -17933.681666501972,23398.905697732604 -43692.7959377359,50660.21263496319 -73852.35413221095,76820.88385792024 -108438.0097229648,101406.022866673 -147425.56850505824,123926.03164386556 -190738.06617185927,143881.6345725912 -238243.310432097,160769.35652037713 -289751.9494826537,174087.41726903614 -345016.1262482623,183341.99675467736 -403728.7744955023,188053.81791632588 -465523.6087055905,187764.98643408128 -529975.854439432,182046.0193720042 -596603.7598511216,170502.98783418184 -664870.9220161507,152784.69230467142 -734189.4538638683,128589.783484756 -803924.0087787603,97673.73627587901 -873396.670413674,59855.58019439792 -941892.7050053366,15024.286052938245 -1008667.16257688,-36855.293693443025 -1072952.3019456249,-95737.03486155807 -1133965.8025322047,-161488.80575952915 -1190919.7137068985,-233888.48858924015 -1243030.0799408036,-312620.8583850185 -1289527.1674943944,-397275.4158997626 -1329666.2059254292,-487345.2654444665 -1362738.54549276,-582227.1217878246 -1388083.1197406529,-681222.5218150732 -1405098.091344001,-783540.306733194 -1413252.5488571806,-888300.4292151402 -1412098.1125194167,-994539.1270420592 -1401280.2989090155,-1101215.490592147 -1380549.4871871371,-1207219.4360227438 -1349771.3241045182,-1311381.0793048078 -1308936.4010304145,-1412481.488524259 -1258169.034161188,-1509264.773212681 -1197734.9789242228,-1600451.4500818823 -1128047.9115442107,-1684753.0046048313 -1049674.5148990548,-1760887.5476207905 -963338.0122580932,-1827596.4457751145 -869920.0013399995,-1883661.7843806513 -770460.4524007321,-1927924.5014690585 -666155.7477858736,-1959303.0126603898 -558354.6565500584,-1976812.1283017828 -448552.15632133523,-1979582.0474011588 -338381.0355005973,-1966877.1975043642 -229601.23203193635,-1938114.6761290429 -124086.89022053931,-1892882.0379672544 -23811.14423698264,-1830954.1630864711 69171.33417876113,-1752308.9350688814 152743.9559581462,-1657141.454690211 224749.90350351835,-1545876.5145910007 283015.75625335454,-1419179.0636510756 325376.88828238443,-1277962.3966288 349704.440110108,-1123393.815227228 353933.6340397877,-956897.5212171886 336093.1701671639,-780154.5206632429 294335.40912940557,-595099.3406965337 226967.0181711158,-403913.38664747763 132479.7296580133,-209014.79762884259 9580.836248689087,-13044.692730988176 -142776.97498017905,181150.26231361824 -325366.8655957099,370538.9970463882 -538660.5966929131,551930.8716216176 -782803.2283449484,722004.1434308995 -1057590.2136672358,877337.9535211603 -1362447.3336538826,1014447.6700411782 -1696413.9135135645,1129823.3732682448 -2058129.7499550874,1219971.2132346013 -2445826.161498972,1281457.317201362 -2857321.5502284733,1310953.8708687972 -3290021.8333148044,1305286.9449575604 -3740926.0661011445,1261485.5883695625 -4206637.535529844,1176831.6612896153 -4683380.553350173,1048909.8370876194 -5167023.1230384335,875657.1615034394 -5653105.592976398,655411.5221215002 -6136875.341539032,386958.3513386821 -6613327.4677981585,69574.86264883062 -7077251.385117005,-296928.8961702245 -7523283.134636645,-712172.8977940675 -7945963.1522845635,-1175174.6228008766 -8339799.137295082,-1684321.8955619012 -8699333.583235966,-2237351.765735286 -9019215.445176728,-2831336.104042497 -9294275.32997344,-3462674.54229857 -9519603.511808112,-4127095.338530896 -9690629.993285611,-4819664.688369394 -9803205.75477571,-5534804.933761105 -9853684.262541397,-6266322.03962543 -9839002.240781145,-7007442.6186331045 -9756758.655295888,-7750860.684317399 -9605290.808321977,-8488794.203815099 -9383746.406368503,-9213051.404444491 -9092150.436829336,-9915106.663965361 -8731465.675812418,-10586185.683793174 -8303645.650060246,-11217359.50886479 -7811678.890940742,-11799646.818626216 -7259623.349064257,-12324123.77222407 -6652629.884783411,-12782040.549042609 -5996953.813160444,-13164943.584970282 -5299953.562262553,-13464802.367030365 -4570075.601012356,-13674139.516185693 -3816824.9072045116,-13786162.762211911 -3050720.3774242233,-13794897.297554614 -2283234.727953476,-13695316.89109563 -1526718.598583834,-13483472.049810825 -794308.7485799224,-13156613.438433228 -99820.42462074831,-12713308.706421202 542375.817096266,-12153550.829668265 1117492.339999646,-11478856.053274093 1610476.9924673317,-10692349.522970324 2006179.0679044176,-9798836.717950828 2289527.488342367,-8804858.848176237 2445719.8096939432,-7718730.455768558 2460420.4181536734,-6550557.563685936 2319966.063555869,-5312234.845995255 2011576.659905277,-4017420.452950923 1523569.0790033708,-2681487.310629079 845571.4734040784,-1321449.928586373 -31264.506815757624,44134.0109259884 -1114056.3894557604,1395287.7434814174 -2407991.359639844,2710765.3653346715 -3916137.5532978172,3968227.491050894 -5639269.241903723,5144442.159105367 -7575709.01915793,6215510.17316791 -9721190.09731632,7157113.708265104 -12068741.779025234,7944786.643037449 -14608601.08774737,8554204.705830617 -17328153.414435893,8961493.147648323 -20211904.868745614,9143549.283634432 -23241488.80891913,9078376.881584056 -26395708.765223056,8745429.02607709 -29650619.66763219,8125955.755420457 -32979648.940150186,7203352.4610418985 -36353758.633087546,5963504.76072106 -39741649.33279548,4395125.313496018 -43110006.118415624,2490077.840599247 -46423786.3304541,243683.45857243022 -49646548.38035775,-2344995.6772177434 -52740820.268369265,-5272900.473377897 -55668505.893990315,-8532751.791923257 -58391326.64523237,-12112865.115056608 -60871295.14590298,-15997007.823788473 -63071217.43143761,-20164303.727330916 -64955219.22067111,-24589189.203184992 -66489291.3613551,-29241424.95804712 -67641848.95939016,-34086166.99655675 -68384298.1641867,-39084099.88885382 -68691604.08399923,-44191634.86018593 -68542852.85433576,-49361174.58868983 -67921800.48839548,-54541445.89420029 -66817400.80967229,-59677900.73589117 -65224304.51182197,-64713185.115060225 -63143321.21773707,-69587674.60788938 -60581836.32616402,-74240074.33904418 -57554174.44715307,-78608080.25903378 -54081901.34346903,-82629097.61586308 -50194056.51925106,-86241011.52511892 -45927308.93417657,-89383003.5535997 -41326028.774496205,-91996407.25201572 -36442268.783732295,-94025594.61500916 -31335649.346370056,-95418884.52514893 -26073142.326917112,-96129463.36551438 -20728749.592126284,-96116307.17714256 -15383073.182268139,-95345094.00734448 -10122775.242708424,-93789094.45692502 -5039927.072664248,-91430027.90291226 -231247.98506329078,-88258871.4621105 4202763.9105629,-84276608.48297252 8158805.403502126,-79494903.2211411 11531841.21539462,-73936688.37916584 14216269.65078816,-67636652.38332494 16107172.540451827,-60641613.6392539 17101639.546163924,-53010769.560165614 17100155.30454901,-44815808.902469434 16008036.333165538,-36140876.8768692 13736903.126180043,-27082383.629796296 10206171.452215413,-17748648.009413596 5344545.556258626,-8259370.038639204 -908505.215747691,1255072.7911252608 -8601305.883712996,10654508.426717382 -17768591.76474894,19790033.35369138 -28430201.90549052,28505254.707965165 -40589871.497749515,36637707.9089493 -54234144.96858194,44020443.9063996 -69331431.38860217,50483777.62650884 -85831223.52290952,55857186.6329543 -103663501.24271569,59971346.41315556 -122738339.11136763,62660286.0892191 -142945736.74685875,63763645.76876713 -164155689.0390074,63129014.2272801 -186218511.4608692,60614323.18590811 -208965433.5629079,56090272.15381733 -232209471.28030455,49442755.67921679 -255746585.92907315,40575262.93631062 -279357134.72926825,29411217.904119536 -302807614.3928766,15896227.004814064 -325852695.77288216,200.0000003990547" stroke="white" stroke-width="1.5" /></svg>