<?xml version="1.0" encoding="utf-8" ?>
<svg baseProfile="full" height="400" version="1.1" width="400" xmlns="http://www.w3.org/2000/svg" xmlns:ev="http://www.w3.org/2001/xml-events" xmlns:xlink="http://www.w3.org/1999/xlink"><defs /><rect fill="black" height="100%" width="100%" x="0" y="0" /><circle cx="200" cy="200" fill="yellow" r="10.00114451503023" stroke="orange" stroke-width="2" /><polyline fill="none" points="199.65247559993608,200.0 199.5913074567926,199.9785455084225 199.52908873027414,199.95042199339932 199.46645593407342,199.91535149121964 199.40409115205233,199.8731178756167 199.342716532114,199.82357349143663 199.28308791048514,199.7666453743213 199.225987587405,199.70234095109006 199.17221628717598,199.6307531149039 199.12258434788336,199.55206456997365 199.0779021987062,199.46655134260388 199.03897019548083,199.37458535881592 199.00656789789065,199.27663599371544 198.9814428841849,199.17327050420258 198.96429921150045,199.0651532645844 198.9557856415063,198.95304373414584 198.95648376202362,198.83779309674887 198.9668961453163,198.72033952502753 198.98743469270946,198.60170203566972 199.01840932289613,198.4829729175502 199.06001716755136,198.36530873100108 199.11233244251682,198.2499198941573 199.1752971656802,198.13805889094635 199.24871289359763,198.0310071547449 199.332233647752,197.93006070180434 199.42536019798234,197.836514609053 199.52743586495185,197.7516464515821 199.63764399546054,197.67669883577466 199.75500725389517,197.6128611843792 199.87838886010687,197.56125094959108 200.00649588851374,197.52289444909766 200.13788472526713,197.49870753777617 200.27096875995278,197.48947634400795 200.40402836561594,197.4958383140876 200.53522319602814,197.518263820664 200.6626068022172,197.55703860125817 200.78414354155797,197.61224730037716 200.8977277224061,197.68375839331623 201.00120489562093,197.77121077115854 201.09239517167026,197.87400226451834 201.16911840867883,197.9912803780227 201.2292210831432,198.12193549822194 201.27060462148395,198.2645968244213 201.2912549375682,198.41763125474031 201.2892728892539,198.57914543847846 201.26290533634798,198.7469911805901 201.21057645360628,198.91877435479012 201.13091892602398,199.09186744862163 201.02280463015364,199.26342582686894 200.8853743850329,199.43040775919982 200.7180663399769,199.5895982141396 200.52064255445597,199.73763637473687 200.2932133179685,199.87104678196226 200.03625875564407,199.9862739604293 199.75064726864284,200.07972032793361 199.43765036757804,200.1477871361287 199.09895347246209,200.1869181349903 198.73666227427412,200.1936455992181 198.3533042813326,200.16463830106872 197.95182520830537,200.09675096203418 197.53557990692,199.9870746660279 197.10831758516912,199.83298767008998 196.67416111588477,199.63220600586533 196.23758029573474,199.38283322702978 195.80335898162983,199.08340862523536 195.37655610279148,198.73295321078032 194.96246062278482,198.33101273483447 194.56654060604396,197.8776970183721 194.19438662709135,197.3737148496431 193.85164984696596,196.8204037176535 193.54397516943246,196.2197536642516 193.2769299783646,195.5744245624819 193.05592904622856,194.8877561642206 192.8861562907145,194.16377030600043 192.77248414109755,193.40716471849794 192.7193913566311,192.6232979524088 192.7308802149222,191.81816501125246 192.81039405753268,190.99836336976603 192.96073624170248,190.1710491545644 193.18399159982297,189.34388337110104 193.48145155084757,188.5249681769508 193.85354403899953,187.72277332519096 194.29976949377718,186.9460530321558 194.81864401028793,186.20375365991478 195.40765093939623,185.50491274415378 196.063202052184,184.85855004126222 196.78060940207507,184.2735514127535 197.55406895009713,183.75854650895576 198.37665694374257,183.32178135538138 199.24033994753256,182.97098708240205 200.13599931366977,182.71324616982469 201.05347075429174,182.55485770064107 201.98159953323167,182.50120323052218 202.90831163552943,182.55661497946025 203.82070109811715,182.72424813724606 204.70513349629485,183.00595914317407 205.54736537922273,183.40219185052578 206.3326792353494,183.9118735161282 207.04603334738147,184.532322562879 207.67222566822838,185.25917004699915 208.1960706167056,186.0862967205238 208.60258745724585,187.0057875120088 208.87719869424015,188.00790515368814 209.00593668187895,189.08108456072776 208.97565642760148,190.21194941743843 208.77425235473447,191.3853522463272 208.3908765909305,192.58443902901604 207.8161561669942,193.79073921404898 207.0424063490014,194.98428168653265 206.0638371886531,196.14373698990502 204.8767502658642,197.24658578278985 203.47972251685425,198.26931318618423 201.87377399351922,199.1876283308453 200.06251638842477,199.97670805481033 198.05227918694294,200.61146333000053 195.8522103760916,201.06682661870047 193.47434875042867,201.3180579795922 190.93366501038076,201.34106736350444 188.24806904868365,201.11275016593356 185.43838106672231,200.61133274178258 182.5282644544838,199.8167242429084 179.54411870501775,198.7108708163842 176.5149310155691,197.27810790636636 173.47208565111998,195.50550614063275 170.44913060951103,193.3832060597038 167.48150162751566,190.9047367673446 164.60620410045215,188.06731345134364 161.86145404971228,184.8721086476902 159.28627985789473,181.3244921041922 156.92008709433892,177.43423414533322 154.80218936846023,173.21566755240093 152.97130876750697,168.68780315468376 151.46505005180347,163.87439458122705 150.31935338635293,158.80394794991867 149.5679309746046,153.5096726724011 149.24169351967274,148.02937002946703 149.3681729615293,142.4052567212466 149.970948416747,136.68372121772683 151.0690826712671,130.91501142501943 152.67657693750314,125.15285293732407 154.80185187616553,119.45399795867007 157.44726309208426,113.87770584611775 160.60865943406648,108.48515713995182 164.2749924540314,103.33880389822994 168.4279853036118,98.50166013356225 173.04186916120983,94.03653714891871 178.0831949841983,90.00522957538487 183.5107279657092,86.46765891609698 189.2754315405801,83.48098238428008 195.32054712917648,81.09867577599695 201.58177503103244,79.36960002593683 207.98756098411297,78.33706194304371 214.45949189316235,78.03788039747582 220.91280310685812,78.50146991671303 227.25699839487734,79.74895423214363 233.39658245074713,81.79232278400846 239.23190433451097,84.63364352852825 244.66010878257003,88.2643455834536 249.57619076402102,92.6645852851612 253.87414706857015,97.80270910088122 257.4482170873871,103.63482653415814 260.1942033133008,110.10450567223003 262.0108604601166,117.14260334442555 262.80134050334635,124.66724098664217 262.4746793981094,132.58393623633788 260.94730975704266,140.78589901537958 258.14458239499606,149.15449939716024 254.00227839170037,157.55991290481214 248.46809221215722,165.86194705697974 241.50306548070378,173.91105097715206 233.0829502515137,181.54950772546562 223.19948007784302,188.6128067145298 211.8615268755917,194.9311911523772 199.09612152319426,200.33137293807474 184.94931635709855,204.6384048435299 169.48686822557548,207.67769717584804 152.79472156623171,209.2771634579079 134.979272084419,209.2694770225073 116.16739303763647,207.4944178213125 96.50620787836863,203.80128623942923 76.16259507434692,198.05135831652504 55.32241330648952,190.12035454388885 34.18943793236036,179.90089237195915 12.984002583885285,167.30489076319026 -8.058656975136927,152.26589359878363 -28.690356095533247,134.74127753208612 -48.65220721921327,114.71430901227171 -67.677150277784,92.19601471330141 -85.49275511168491,67.22682952665602 -101.82427929447914,39.87798664052005 -116.39796045773772,10.252615057937732 -128.94451789556757,-21.513488777192038 -139.20283393613244,-55.251446758297334 -146.92378135557811,-90.75927147768397 -151.87415903528938,-127.80225149861917 -153.84069418632055,-166.11377249468154 -152.6340658465774,-205.39659333143214 -148.09290105924168,-245.324591786616 -140.08769222755552,-285.54498975025285 -128.5245816733664,-325.6810624436615 -113.34895746530356,-365.3353304826436 -94.54880318545122,-404.0932275282987 -72.15774352606951,-441.52722987024686 -46.257727501469134,-477.2014276297557 -16.98129167082979,-510.6765104199957 15.486652863967862,-541.515133329536 50.90756376191328,-569.2876220820309 88.98859214727588,-593.5779692541615 129.3825360022002,-613.9900665948893 171.68846487909542,-630.1541118758469 215.4530530664527,-641.7331224126527 260.1726520135048,-648.429481529997 305.2961256837961,-649.99143890077 350.22846459995543,-646.219480972991 394.3351857084085,-636.972483708371 436.9475158922037,-622.173556691304 477.36834706364664,-601.8154854216828 514.8789403590938,-575.9656773684902 548.7463461314139,-544.7705172168463 578.2314952977965,-508.45903776382795 602.5979062696196,-467.3458151734785 621.1209402949827,-421.83300084347536 633.0975267206557,-372.4114070070266 637.8562685742984,-319.6605694221623 634.7678281326555,-264.2477181001433 623.2554819353697,-206.92559599247 602.8057251894866,-148.5290758720439 572.9787968513706,-89.97053727042805 533.418989035548,-32.23397821285906 483.8645979475466,23.632149450293014 424.15736842946694,76.5233771789787 354.2512805965853,125.28890930587085 274.22052507589217,168.7425280529377 184.26651316761806,205.67465942213008 84.7237699599366,234.8655272722275 -23.935437858925923,255.0993044771075 -141.09788193994933,265.1791515434548 -266.00769444481426,263.9430146718255 -397.7663567560977,250.28003721109556 -535.3344666305227,223.14742103111655 -677.535381074886,181.5875577793734 -823.0608154100249,124.74523455866627 -970.4784600469006,51.88470453182762 -1118.241655523799,-37.59359940549015 -1264.7011434694653,-144.13694017655553 -1408.1188865205106,-268.0249818355343 -1546.6839240218712,-409.35557097876983 -1678.5302027976259,-568.0318437224648 -1801.7562936488443,-743.7509079484594 -1914.446874798667,-935.9943476643009 -2014.6958335746822,-1144.0207902068053 -2100.6308075339734,-1366.8607674973007 -2170.4389563615464,-1603.3140895227855 -2222.3937265926274,-1851.9499315960184 -2254.882342929413,-2111.1098167073146 -2266.43373306034,-2378.9136504293065 -2255.7465678750305,-2653.2689384290725 -2221.717076235479,-2931.8832857824596 -2163.4662734490616,-3212.2802431254845 -2080.3662257231003,-3491.8185274217044 -1972.0649595845093,-3767.714605028506 -1838.5096159258671,-4037.068582117704 -1679.9674433734565,-4296.893302707686 -1497.0442254169545,-4544.146508007726 -1290.6997405129646,-4775.765862920804 -1062.2598644529432,-4988.706606908553 -813.4249399007939,-5179.981537542568 -546.274059331926,-5346.702986542645 -263.26493476248123,-5486.126400562551 32.77093930366925,-5595.695093084099 338.6380843781303,-5673.085690202163 650.792007930701,-5716.253752524721 965.3595044771718,-5723.479018578833 1278.1643918788914,-5693.409682714416 1584.7587262604284,-5625.105093232764 1880.4594736880347,-5518.07623501824 2160.3905473881887,-5372.323345976747 2419.5300464111156,-5188.370008703263 2652.762455929074,-4967.293058585361 2854.9354915567164,-4710.747657517495 3020.9211910173817,-4420.986898999964 3145.68077705481,-4100.87533599885 3224.332736668374,-3753.895857834008 3252.223484551795,-3384.149386728129 3224.999904110106,-2996.3469185750027 3138.68298872453,-2595.793495938422 2989.741740163523,-2188.3637741229927 2775.1664213497015,-1780.468923087288 2492.540208236502,-1379.0146985882534 2140.1082414619164,-991.3506147078399 1716.8430438387138,-625.2102561362661 1222.505245676691,-288.6428814484708 657.6985474176915,10.063412847427372 23.917849028296217,262.46657458297204 -676.4105111263307,460.0630051279672 -1439.8974378837886,594.3868476175946 -2262.169669355437,657.1153772601872 -3137.859206399161,640.1795887467458 -4060.604439961642,535.8789504327437 -5023.063746761839,336.99917403163965 -6016.942220313131,36.93173384810245 -7033.032085582241,-370.20623706938204 -8061.267212110752,-889.4531431949604 -9090.791992857448,-1524.886769469744 -10110.044695242626,-2279.51239645838 -11106.855218007804,-3155.1568690828426 -12068.557003885253,-4152.370338954996 -12982.112665267221,-5270.33742018114 -13834.252679855443,-6506.799498052487 -14611.626307655555,-7857.989907909487 -15300.963671850797,-9318.583656501514 -15889.24773643119,-10881.663289384594 -16363.894705517574,-12538.702414570194 -16712.941165808512,-14279.56827427422 -16925.236097321515,-16092.544613014463 -16990.635691521846,-17964.375921560684 -16900.198743033056,-19880.33394277182 -16646.380224435386,-21824.307107910405 -16223.220516215351,-23778.91333170287 -15626.527648732323,-25725.63633267472 -14854.049823039659,-27644.98536395564 -13905.635415341665,-29516.677941003978 -12783.377638431788,-31319.84483909778 -11491.74103508357,-33033.25630788665 -10037.667015245981,-34635.56811604194 -8430.65572293387,-36105.585699659656 -6682.821631469498,-37422.544347442985 -4808.920418411974,-38566.403017966695 -2826.3448648836998,-39518.14905390561 -755.0877583862506,-40260.11073959462 1382.3299465780376,-40776.27434643218 3560.9671403835623,-41052.60203031933 5753.607818668828,-41077.34669147361 7930.9442758242085,-40841.35968449372 10061.798490025074,-40338.38708035842 12113.381500341175,-39565.35003685712 14051.590090352696,-38522.60473433205 15841.339582569188,-37214.177283845675 17446.93101851813,-35647.96901893669 18832.450455939845,-33835.92764354741 19962.19756291496,-31794.17983056778 20801.140135276164,-29543.121050285572 21315.39061507784,-27107.45865777599 21472.700151365636,-24516.204584143445 21242.965227486202,-21802.614359047977 20598.741389445833,-19004.069640814516 19515.758155280317,-16161.901944488607 17973.428774052158,-13321.155835446712 15955.348142954808,-10530.29049364017 13449.771889984522,-7840.819247351751 10450.069395445174,-5306.887420617464 6955.143365569452,-2984.7896293896297 2969.80849272795,-932.4284913066112 -1494.8782545231363,791.2824251261216 -6421.34306618008,2127.067702675266 -11785.283604485496,3015.9866230635503 -17555.527047883144,3400.1716551521627 -23693.964308144277,3223.6024875374305 -30155.56634770883,2432.9083383182474 -36888.48790011968,978.1904356664635 -43834.263164505996,-1186.1442316641953 -50928.097207271356,-4100.547531755773 -58099.25586379376,-7799.503479220877 -65271.55589487968,-12310.72108448138 -72363.95602330769,-17654.35813651971 -79291.24826297055,-23842.287670691174 -85964.84766638817,-30877.419130012608 -92293.67726677636,-38753.08635300865 -98185.1435909869,-47452.514503298116 -103546.19668354082,-56948.37788631437 -108284.46712510005,-67202.46026882016 -112309.47106778307,-78165.42882058206 -115533.8728626396,-89776.73212973554 -117874.79344029611,-101964.63190082466 -119255.15124403436,-114646.37692600851 -119605.02122585406,-127728.52672638652 -118862.99622131595,-141107.430894936 -116977.5339393075,-154669.86864063525 -113908.27185947458,-168293.85134288794 -109627.29154378473,-181849.58908677977 -104120.31325980804,-195200.62017594508 -97387.80140132457,-208205.10052636312 -89445.96099504981,-220717.24764934366 -80327.60561752548,-232588.93165572901 -70082.87732861415,-243671.40337885413 -58779.79977062646,-253817.14734619696 -46504.64639557558,-262881.8449561793 -33362.10687540217,-270726.4308663342 -19475.236126352,-277219.22330287035 -4985.172040909784,-282238.1067917316 9949.390032739298,-285672.74372079497 25152.97579799634,-287426.78920592845 40434.37074221728,-287420.08198461944 55587.923579319046,-285590.7825340871 70395.11589438174,-281897.4283401355 84626.39626954538,-276320.87526144576 98043.27376426113,-268866.09327308106 110400.66205233739,-259563.78456243305 121449.46181663682,-248471.79201799622 130939.36520699614,-235676.2666206512 138621.86231889785,-221292.56313969268 144253.42579397513,-205465.83486892196 147598.84582595676,-188371.29992459086 148434.68412728747,-170214.15387505075 146552.81182473214,-151229.1061845552 141763.99286087058,-131679.52112810305 133901.47133781342,-111856.147462063 122824.51840559105,-92075.42520166581 108421.89182625638,-72677.3623402131 90615.15929084359,-54022.97921812681 69361.83498344987,-36491.32347825905 44658.277826071935,-20476.06408591062 16542.299347630673,-6381.678699861127 -14904.570754853892,5380.745300061107 -49555.21251610365,14398.069653466859 -87235.48674924299,20259.991198680666 -127723.29674138343,22564.215995845294 -170748.18517938853,20921.876398544828 -215991.50721603743,14963.139825117407 -263087.2161610212,4342.95215928952 -311623.2931051654,-11253.146791848283 -361143.8458741245,-32103.20344631925 -411151.8960838132,-58443.09845722149 -461112.8657687145,-90460.93883921919 -510458.76712143014,-128291.67378605195 -558593.0903738445,-172012.01630555154 -604896.3758342798,-221635.75450006666 -648732.4466492523,-277109.53709289065 -689455.2690716024,-338309.21757344104 -726416.3969877773,-405036.840041482 -758972.9472943504,-477018.34741812 -786496.0425351448,-553902.08911406 -808379.647140959,-635258.2004697886 -824049.7137865062,-720578.920287317 -832973.5469323003,-809279.9055517389 -834669.2816958467,-900702.5940008732 -828715.367942603,-994117.6555659866 -814759.9420504102,-1088729.562915912 -792529.9623286835,-1183682.2994476685 -761839.9787105985,-1278066.2101532035 -722600.4032239612,-1370925.9869462189 -674825.1450193092,-1461269.765365139 -618638.4725186713,-1548079.2942052924 -554280.965661817,-1630321.1237201036 -482114.4233726853,-1706958.7417286567 -402625.5953362173,-1776965.5704519025 -316428.6130378198,-1839338.720363532 -224266.00282807634,-1893113.380988393 -127008.17356737,-1937377.7126267862 -25651.28318979281,-1971288.0876524656 78686.59771009262,-1994084.5155582111 184771.091459077,-2005106.0725426336 291258.9366666855,-2003806.1443853665 396707.258614224,-1989767.2808842552 499584.69489606586,-1962715.4514628388 598284.36200328,-1922533.4849288312 691138.6246742909,-1869273.4719927572 776435.6048478209,-1803167.9072465387 852437.3411760076,-1724639.3480427251 917399.4835525395,-1634308.3712748915 969592.3802698333,-1532999.6155830459 1007323.3885518254,-1421745.7061117114 1028960.212647406,-1301788.8717198588 1032955.0477648681,-1174580.0805343254 1017869.283246033,-1041775.538968305 982398.4948981528,-905230.4217718411 925397.4347082485,-766989.7262781007 845904.7066475699,-629276.172649987 743166.800322142,-494475.1034642523 616661.1402215133,-365116.3701959748 466117.79763339454,-243853.2308396494 291539.50528220204,-133438.32173203168 93219.61174794423,-36696.80728759776 -128242.38596598266,43503.14656397762 -371928.0874489066,104282.38636493644 -636590.556496943,142785.04004701256 -920648.1406106465,156214.76463448635 -1222182.0507837608,141872.65344776007 -1538937.98387838,97196.44146429276 -1868332.0385080844,19800.607112862763 -2207461.1387558524,-92483.06931162099 -2553118.1383406715,-241564.96559498762 -2901811.7311938996,-429057.60251160746 -3249791.2430619714,-656236.6877258382 -3593076.3230410283,-924003.775348213 -3927491.4942720523,-1232851.1150275578 -4248705.459858672,-1582829.275695548 -4552274.993966247,-1973518.1337902064 -4833693.179646033,-2404001.813474007 -5088441.684897912,-2872848.1565890014 -5312046.697602765,-3378093.282477579 -5500138.069046088,-3917231.772037384 -5648511.145697382,-4487212.976247023 -5753190.700634614,-5084443.906759729 -5810496.310478294,-5704799.114976005 -5817108.461924272,-6343637.906337231 -5770134.614958323,-6995829.168605025 -5667174.398627922,-7655784.016895144 -5506383.070861605,-8317496.374627548 -5286532.337274533,-8974591.518867515 -5007067.596158142,-9620382.521418765 -4668160.658859434,-10247934.41426847 -4270756.987385318,-10850135.80047419 -3816616.4951261543,-11419777.520342948 -3308346.9727916904,-11949637.868920257 -2749429.2306068777,-12432573.745621694 -2144233.090015747,-12861617.001643432 -1498023.413953126,-13230075.137016593 -816955.4343824963,-13531635.388331 -108058.71932400712,-13760471.141824597 620790.7810995954,-13911349.506337488 1360911.0592768965,-13979738.788226554 2102867.071249502,-13961914.527392646 2836536.644091973,-13855062.681759447 3551189.3116027913,-13657378.48849605 4235577.962328749,-13368159.485585943 4878043.016750527,-12987891.148528632 5466628.675586749,-12518323.585443141 5989210.6002873685,-11962537.740919974 6433634.201733584,-11324999.585804312 6787862.525962682,-10611600.81767318 7040132.5385778705,-9829684.665892992 7179118.424715371,-8988055.486392232 7194100.34148346,-8096970.9450077005 7075136.8872196395,-7168115.724546719 6813239.3893777635,-6214555.849373408 6400545.963048623,-5250672.90189658 5830493.157750984,-4292077.607029818 5097982.8939137105,-3355502.4824228357 4199542.295060579,-2458673.4926009364 3133473.9496921143,-1620160.9023630358 1899994.0906934761,-859209.796802284 501356.16209019575,-195551.01973677048 -1058042.7447646887,350806.42353578156 -2771575.0590849356,759800.1524260351 -4630317.897992127,1011554.7352308962 -6623012.515490629,1086635.596285932 -8736050.166116612,966314.2509645496 -10953486.33063099,632842.3212312704 -13257085.02879813,69731.50440626312 -15626394.68561458,-737963.5958425883 -18038856.723111026,-1803363.1101163118 -20469947.72132301,-3137483.56699762 -22893355.631003805,-4748967.31940185 -25281190.129448432,-6643823.627244219 -27604226.792262513,-8825185.40613108 -29832184.311410513,-11293085.725709215 -31934033.527324572,-14044258.169392252 -33878336.56465165,-17071965.14600675 -35633613.87226904,-20365858.170428135 -37168736.473862246,-23911874.001915365 -38453340.24144021,-27692170.343538336 -39458258.51680512,-31685104.562286403 -40155968.93173263,-35865258.586302646 -40521049.823207885,-40203512.7729737 -40530641.21249126,-44667171.11985526 -40164904.92317802,-49220139.71092234 -39407478.06093244,-53823159.755494416 -38245913.77336405,-58434095.98933458 -36672102.959582016,-63008280.57063216 -34682670.412126586,-67498911.92251368 -32279338.75569751,-71857507.253868 -29469253.503461123,-76034406.73800197 -26265262.588249642,-79979326.55113369 -22686143.847589724,-83641957.17797342 -18756774.152393702,-86972602.58835816 -14508234.172680425,-89922855.08654179 -9977843.172279393,-92446299.84330477 -5209118.719531986,-94499242.3511522 -251656.79283238942,-96041451.30551155 4839071.552430315,-97036908.72138798 10002010.007491546,-97454558.45693967 15170895.504563842,-97269043.74457876 20274726.60478597,-96461423.83803989 25238321.965982884,-95019859.48182747 29982967.9680566,-92940256.60855982 34427153.40264194,-90226857.48051037 38487387.910096,-86892768.42393611 42079099.58260035,-82960413.36753081 45117605.860198826,-78461902.5975797 47519150.5411359,-73439306.48878117 49201998.42429135,-67944824.46678603 50087577.81611102,-62040840.11006161 50101659.88448479,-55799854.1070901 49175562.64536292,-49304287.750466496 47247366.24309151,-42646150.77084509 44263125.151161976,-35926568.58720445 40178061.995387495,-29255165.470092654 34957726.90512044,-22749301.673350114 28579105.648687396,-16533164.27735957 21031659.324462947,-10736713.290592562 12318278.076220145,-5494486.461633635 2456131.196277666,-944268.2438895222 -8522603.91265593,2774369.5890728016 -20570151.113573454,5521646.079516942 -33622699.8770096,7159256.253342102 -47600140.40286733,7552149.48245327 -62405984.271490544,6570385.116905375 -77927484.05367394,4091047.4327965025 -94035963.7340824,200.0000001151611" stroke="white" stroke-width="1.5" /></svg>