<?xml version="1.0" encoding="utf-8" ?>
<svg baseProfile="full" height="400" version="1.1" width="400" xmlns="http://www.w3.org/2000/svg" xmlns:ev="http://www.w3.org/2001/xml-events" xmlns:xlink="http://www.w3.org/1999/xlink"><defs /><rect fill="black" height="100%" width="100%" x="0" y="0" /><circle cx="200" cy="200" fill="yellow" r="10.000000122419936" stroke="orange" stroke-width="2" /><polyline fill="none" points="200.685826292134,200.0 200.64113118994965,200.03365645873274 200.5894887442665,200.06206196099595 200.53120860707938,200.08427798060592 200.46670811023483,200.0993724404285 200.3965144294621,200.1064314862657 200.3212655315851,200.10457181426142 200.24170981179054,200.0929534352667 200.15870433789075,200.07079274635336 200.07321163029243,200.0373757671394 199.98629491982908,199.99207138699774 199.89911184068214,199.93434445876414 199.81290653222575,199.86376856544953 199.72900014167615,199.7800382789001 199.64877973878464,199.6829807235305 199.57368567432627,199.57256625437392 199.50519743562998,199.44891805692225 199.44481807466545,199.3123204767373 199.39405730702603,199.16322588974188 199.35441340327367,199.0022599295767 199.32735401727922,198.8302248965372 199.31429611911045,198.64810118345835 199.31658522238865,198.45704656754472 199.3354741175421,198.25839323356405 199.37210134269915,198.05364241301487 199.42746964275855,197.8444565457937 199.5024246841103,197.63264889543143 199.59763430722467,197.42017057601322 199.71356861154604,197.20909497827313 199.85048117650564,197.00159961385455 200.00839172869175,196.79994543009926 200.18707056800082,196.60645368268402 200.3860250646745,196.4234804896328 200.60448853426539,196.25338922733056 200.84141178857004,196.0985209667476 201.09545764725016,195.96116318571774 201.36499867711387,195.84351703033278 201.64811840376981,195.74766343483142 201.9426162135722,195.67552844425788 202.24601613247592,195.62884811711675 202.55557963270488,195.60913341571543 202.86832257815038,195.6176355193175 203.18103637537388,195.65531201908595 203.49031334926391,195.72279447353813 203.79257631113413,195.82035781834225 204.0841122327522,195.94789213426193 204.36110988293478,196.10487728143033 204.61970122446394,196.29036090648177 204.856006308774,196.50294032100044 205.06618134477878,196.7407487349372 205.24646955706783,197.00144630682442 205.39325438824747,197.2822164435917 205.50311454124554,197.57976774642904 205.57288030076026,197.89034195541686 205.59969051958439,198.2097281946009 205.58104960614517,198.53328376097252 205.51488380516193,198.85596163567075 205.39959602471566,199.17234482399323 205.23411843112368,199.4766875529439 205.01796200865974,199.7629632716126 204.75126226516778,200.02491931133773 204.43482025774225,200.25613797012386 204.070138115587,200.45010369003782 203.65944825053845,200.60027589826728 203.20573547008,200.70016698325878 202.7127512434154,200.7434247780094 202.1850194186267,200.72391882440098 201.627832748313,200.63582959673522 201.04723965245,200.47373977070686 200.4500207304374,200.2327265373413 199.84365462917825,199.90845388134787 199.23627298015592,199.49726367134153 198.63660423527566,198.99626434690242 198.05390635798284,198.4034159358858 197.49788846194457,197.71761009614025 196.978621633303,196.93874385015036 196.5064393229233,196.06778567032342 196.0918278507402,195.10683257781383 195.74530772367433,194.0591569399335 195.47730662990406,192.9292416911871 195.2980251336676,191.72280276150175 195.21729625422665,190.44679757279835 195.24444026803812,189.10941856199054 195.388116222348,187.72007080488876 195.65617178906615,186.28933295118154 196.05549321758684,184.82890083527286 196.5918572618396,183.3515133006154 197.2697870579623,181.87085996536442 198.09241401227882,180.4014708634826 199.06134782251578,178.95858811636626 200.17655679626893,177.55802002386505 201.4362606476436,176.21597820818744 202.83683794390635,174.94889869730451 204.37275033727695,173.7732480935003 206.0364856512622,172.705316234847 207.8185217950628,171.760997019551 209.70731335274385,170.95555932206375 211.68930253555538,170.30341018213858 213.74895599587694,169.81785269006306 215.86882877999557,169.5108412194012 218.02965644495288,169.3927368689751 220.2104760830966,169.47206616469552 222.38877668826547,169.75528623542243 224.54067896169053,170.24655981157514 226.64114429614023,170.94754349709163 228.66421229645718,171.85719283110956 230.58326579676591,172.97158768216667 232.37132192305467,174.28378150183283 234.00134732874994,175.7836779038521 235.44659530491464,177.45793792684105 236.68096204077608,179.28992118153474 237.67935888973858,181.25966387617163 238.41809708644035,183.34389645506687 238.8752809676135,185.5161032755317 239.03120537950417,187.74662638747105 238.86875261354223,190.00281506930978 238.37378390599338,192.24922231512693 237.53552027264294,194.4478489635078 236.34690723220425,196.55843561187055 234.80495780798992,198.53880187485476 232.91106809203916,200.3452319264762 230.67129961460518,201.93290461860036 228.09662278947906,203.25636579901845 225.2031158063307,204.27003976787407 222.01211351872632,204.92877611887445 218.55030113367312,205.18842751972048 214.84974784758168,205.006453303135 210.94787599569054,204.34254307485253 206.8873617875846,203.15925390743894 202.7159642897492,201.42265408860803 198.48627998536548,199.1029658397599 194.25542098886316,196.17519892482338 190.08461581403196,192.61976664114945 186.03873248449668,188.42307533300516 182.1857247276069,183.57807830369867 178.59600299961033,178.08478483361574 175.34173314249352,171.95071494698377 172.4960665610545,165.19129061778378 170.13230692147326,157.83015427181897 168.32301949766222,149.89940573341735 167.1390904158439,141.43974918632466 166.64874415707743,132.50054227249362 166.91652875703357,123.13974014168605 168.0022791767923,113.4237280895748 169.96007029190852,103.42703738115983 172.83717184327108,93.23193994687874 176.67301849604468,82.9279188560163 181.4982088459836,72.61101280925811 187.3335477796729,62.38303434087118 194.1891470213041,52.35066297048931 202.0635989686723,42.62441618229184 210.94323902138447,33.317502821041614 220.8015115221819,24.54456526364268 231.59845415659228,16.420318533430844 243.28031517732737,9.058096352451912 255.77931713026427,2.56831595308347 269.0135798529557,-2.9431247283274047 282.887214391208,-7.376502100701799 297.29059813361596,-10.639957156712399 312.10083990006643,-12.651202268151195 327.1824419429416,-13.33922445317728 342.38816383689095,-12.645963730405384 357.5600910555018,-10.527944053779265 372.5309086750262,-6.957833406101344 387.12537812375564,-1.9259089430758536 401.1620122311147,4.558597352260591 414.45494104662185,12.466297200435491 426.8159580222015,21.746613296224552 438.0567332114758,32.326939417323075 447.99117716898684,44.11201668257979 456.43793626567225,56.98354814196642 463.22299721152535,70.80007239941966 468.1823757313675,85.39711513187112 471.1648616158321,100.58763517213694 472.0347898090008,116.16277927323037 470.6748048394207,131.89295677506584 466.98858379557805,147.5292421642604 460.9034812331665,162.80510997165473 452.37305792177926,177.4385026132224 441.37945423378176,191.13422767636675 427.93556828690544,203.58667681850307 412.0869987108688,214.48285391677794 393.91371215021525,223.50569543012702 373.53139636989783,230.33766115583146 351.09246112190067,234.6645687349425 326.7866507802678,236.1796404411975 300.84123517264766,234.58772603684622 273.5207480370389,229.60966085983404 245.12624611433313,220.98671388637 215.99406604487524,208.48507635931847 186.49406095745906,191.9003377556495 157.02730390085193,171.06189245535202 128.02325104200474,145.83721753944337 99.93636380391165,116.13595975433452 73.24219579382279,81.91376790007804 48.432957424759536,43.17580579393808 26.012578497418787,-0.02011941283629426 6.491296614860204,-47.56087837447399 -9.620192929619293,-99.27585370939022 -21.816982306038256,-154.93534862063638 -29.606540027801856,-214.2496283938225 -32.51558452776919,-276.8686492322061 -30.09717590168671,-342.38252399030625 -21.93795211760215,-410.32276852456494 -7.665429253496512,-480.16436560178306 13.044720861602144,-551.3286756148044 40.46150775158233,-623.1872147849796 74.79167103836738,-695.0663121298409 116.17304158444574,-766.2526463036106 164.66831865446136,-835.9996525525362 220.25936848583584,-903.5347785552945 282.8421502341862,-968.0675559429603 352.2223745555333,-1028.7984419284385 428.111998027016,-1084.9283728497262 510.12665312583647,-1135.6689586844323 597.7841085305104,-1180.2532348749992 690.5038480422829,-1217.9468752754933 787.6078484267706,-1248.0597578597376 888.3226269438543,-1269.9577631929074 991.7826182829837,-1283.0746747444512 1097.0349280873947,-1286.9240400933961 1203.0454962907856,-1281.110843132451 1308.7066881819442,-1265.3428296986388 1412.8463145567357,-1239.4413228257258 1514.2380646352617,-1203.3513592020117 1611.6133167593503,-1157.1509755918978 1703.6742724083588,-1101.0594730959199 1789.1083389673124,-1035.4444883227304 1866.6036661588823,-960.827703952242 1934.8657203365851,-877.8890368874795 1992.6347601762884,-787.4691503071814 2038.7040569566245,-690.5701465015303 2071.938682860913,-588.3543104325362 2091.294671848602,-482.14078951278873 2095.838339926538,-373.40011311500086 2084.765535398257,-263.746475751148 2057.420575183177,-154.9277306011208 2013.314610875568,-48.81306499882902 1952.143158148391,52.62164356497317 1873.8025156825074,147.31076358900972 1778.4047952865333,233.11808016034072 1666.2912835180998,307.85811063011175 1538.0438571514708,369.3194433013504 1394.4941804616558,415.2899437030969 1236.7304216814086,443.583639362966 1066.1012392701816,452.0690604251481 884.2168059089387,438.698780416949 692.9466594541357,401.5398693902055 494.41419545387066,338.8049410180837 290.9876452048924,248.8834464899405 85.26741661365382,130.3728417023794 -119.93028783427263,-17.890769218623632 -321.59362110375264,-196.802931126881 -516.5390108771705,-406.96250911425375 -701.4388024752659,-648.6451790905143 -872.8525304558464,-921.7791901739765 -1027.2616723955095,-1225.923853453929 -1161.107685211913,-1560.251208242602 -1270.8330701599389,-1923.531307649323 -1352.925157936838,-2314.121549906982 -1403.9622508078478,-2729.960460142989 -1420.6617050046673,-3168.5662990594924 -1399.9294845800946,-3627.0408401873347 -1338.910668177347,-4102.0786159981335 -1235.0403435675105,-4589.981885272395 -1086.0942821119936,-5086.681519889669 -890.2387473119204,-5587.763948877999 -646.0787591000986,-6088.504231477639 -352.7041092861783,-6583.905259574314 -9.732404327123959,-7068.743013672346 382.6515999279092,-7537.617716235219 823.6611100168012,-7985.010642442106 1311.8775858384815,-8405.34626200461 1845.2269281603837,-8793.059297558435 2420.9622547161266,-9142.666196271031 3035.6539213666047,-9448.840422743076 3685.187398664748,-9706.490894152406 4364.769557350567,-9910.84279407472 5068.943848797598,-10057.519920739214 5791.614788361971,-10142.627649905042 6526.082061211109,-10162.835523353371 7265.084471941958,-10115.458412470824 8000.853851698321,-9998.535153832367 8725.178920276036,-9810.903511327208 9429.478976732458,-9552.270288421729 10104.88716131668,-9223.27539576913 10742.34289528311,-8825.54867462434 11332.692964667649,-8361.758286379389 11866.800570857498,-7835.649503854357 12335.661526368018,-7252.072781480745 12730.526630372671,-6617.000039769193 13043.029117041688,-5937.528174855133 13265.31593254947,-5221.868896677772 13390.18146570713,-4479.324109477383 13411.2022346117,-3720.246175586074 13322.870919563173,-2955.9825475048315 13120.728032877583,-2198.8044133332587 12801.489431194941,-1461.8191758315045 12363.167807482134,-758.8667745816872 11805.186250127612,-104.40006246075791 11128.481927180279,486.65033973049805 10335.597946635507,999.0260650328586 9430.761460295687,1417.3050246165092 8419.946120508454,1726.078327866911 7310.917067187741,1910.1387568586624 6113.2567178590325,1954.6792200873927 4838.369756682886,1845.4993805464908 3499.465869833974,1569.2184305115268 2111.5189542502058,1113.4917729737745 691.2017342757788,467.2291708774799 -743.2050446137674,-379.1882564497637 -2171.9294150960604,-1433.694971627793 -3573.851265110428,-2702.334811816761 -4926.671669674314,-4189.0646655181 -6207.10812602142,-5895.571143684167 -7391.114994786994,-7821.103402075543 -8454.128089581718,-9962.325282513057 -9371.331985928986,-12313.189912697171 -10117.94824207446,-14864.839835367115 -10669.542342844583,-17605.53562586228 -11002.346798084764,-20520.615801153363 -11093.597454082526,-23592.49062210246 -10921.879714855295,-26800.672143561766 -10467.481025531695,-30121.842573934362 -9712.745647694775,-33529.962667570966 -8642.427461990372,-36996.42149104124 -7244.036272059718,-40490.2284797037 -5508.1728614122885,-43978.248236550164 -3428.8478765803175,-47425.47802413285 -1003.7794809660154,-50795.367366272665 1765.335350886628,-54050.17861362746 4872.581044725597,-57151.38674116312 8307.620242776717,-60060.11604184908 12055.532210052763,-62737.610765795165 16096.697632868054,-65145.73613448312 20406.73435633185,-67247.5055430997 24956.48827863514,-69007.62915814121 29712.083216487772,-70393.07853067615 34635.03307813875,-71373.66128650759 39682.419128982016,-71922.59943178044 44807.13451174574,-72017.10433526349 49958.19749164518,-71638.94102558994 55081.13414065862,-70774.9740820681 60118.43035933617,-69417.68710997565 65010.05226544097,-67565.66758394016 69694.0330634897,-65224.04872404624 74107.12355619483,-62404.9000460844 78185.50247724324,-59127.55830657974 81865.54182508047,-55418.890750788036 85084.62137061339,-51313.48287263164 87781.98551006545,-46853.74331342596 89899.63465041686,-42089.91906385753 91383.24236236622,-37080.01479234452 92183.0886285137,-31889.61090256062 92254.9986668119,-26591.57582193812 91561.2760357764,-21265.669038192696 90071.61804310465,-15998.032527482424 87764.00089765749,-10880.56944919114 84625.52158038187,-6010.210310173656 80653.18307630348,-1488.0682156012167 75854.6094201366,2581.5136875291128 70248.67697432855,6092.017918121606 63866.048491332745,8935.905267891347 56749.59682110666,11005.856430304717 48954.70561821612,12196.093138425624 40549.43508668418,12403.767671312815 31614.541679105918,11530.407990956854 22243.341741667424,9483.404225517583 12541.41036835184,6177.520742500758 2626.1081931413955,1536.4166807738422 -7374.069496818299,-4505.843443410906 -17320.32510928315,-12003.308550244694 -27064.574333586916,-20996.709664732305 -36450.64458209618,-31512.09962396543 -45315.653601397884,-43559.585544041845 -53491.56314621219,-57132.176069506895 -60806.90008835922,-72204.7654766369 -67088.63473848361,-88733.27647904099 -72164.20351698031,-106653.98307453355 -75863.66045240572,-125883.03396315925 -78021.93934253558,-146316.19594767247 -78481.2058190178,-167828.83529278185 -77093.27604684304,-190276.1532648682 -73722.0764014665,-213493.68999996045 -68246.11623721667,-237298.1084590058 -60560.943829005446,-261488.26753449213 -50581.55377382748,-285846.59038432536 -38244.71261723263,-310140.73080502794 -23511.16826018352,-334125.5369389767 -6367.707839378147,-357545.3078663339 13170.971706785063,-380136.3346928889 35060.616242356424,-401629.71364618355 59226.02569032429,-421754.4144743777 85559.95858375634,-440240.5831497485 113922.36322681508,-456823.05355998426 144139.96695049523,-471245.0385774928 176006.25260332745,-483261.96668488963 209281.84855318893,-492645.426261519 243695.35509360864,-499187.1757612847 278944.6262538805,-502703.1743976657 314698.5216211044,-503037.58466000896 350599.1379153304,-500066.69507863245 386264.52474490885,-493702.7091967685 421291.8832441631,-483897.3447556052 455261.24020328815,-470645.1857128862 487739.58389216,-453986.72895079624 518285.4411139356,-434011.06743641436 546453.868166903,-410858.15222396364 571801.8214161234,-384720.5770727618 593893.8661590483,-355844.83163180726 612308.1754960074,-324531.9721373114 626642.764076891,-291137.66240070254 636521.8949836205,-256071.54254007438 641602.5917216275,-219795.88842609103 641581.1814324483,-182823.53116175355 636199.7901051966,-145715.01307086227 625252.7058587135,-109074.96459751298 608592.5223891914,-73547.6951715998 586135.9715283883,-39812.000414038084 557869.3516297999,-8575.197968940782 523853.4572837266,19433.58532522029 484227.9157399848,43470.84137277196 439214.83646392764,62786.77916410891 389121.6825326009,76634.03748251937 334343.276147689,84276.9445291087 275362.85544227064,85001.2456925764 212752.10601739766,78124.209583865 147170.0982753469,63005.01172298728 79361.07061604511,39055.28506522758 10151.008911141995,5749.717048903375 -59557.015671451525,-37363.43579813044 -128788.77550894927,-90652.05227606102 -196506.09296024026,-154390.21296904638 -261615.32016021945,-228748.77683711317 -322977.0718045874,-313786.61962334445 -379417.1736008001,-409442.6876906399 -429738.7714322618,-515529.0210561622 -472735.5281570311,-631724.8976431118 -507205.8165314604,-757572.2470130628 -531967.7982220933,-892472.4759899644 -545875.2604698873,-1035684.840571526 -547834.0639368884,-1186326.4882999833 -536819.0378455552,-1343374.2828113118 -511891.1419729601,-1505668.5076055815 -472214.69965029776,-1671918.529215017 -417074.4919102801,-1840710.4809534624 -345892.4905894269,-2010517.00740532 -258243.99779444947,-2179709.086879156 -153872.95094090284,-2346569.9243683554 -32706.146817290508,-2509310.8813185096 105133.86494576803,-2666089.380920787 259317.46879608673,-2815028.6989854896 429298.4974437605,-2954239.5209846525 614306.8139940844,-3081843.1158998767 813343.1931194903,-3195995.9474113886 1025176.7192467813,-3294915.5130812065 1248344.9030333709,-3376907.172903836 1481156.6970808657,-3440391.700326672 1721698.5678971845,-3483933.2619982334 1967843.7536250527,-3506267.5075154146 2217264.806109212,-3506329.4277464454 2467449.4816305754,-3483280.6203395096 2715720.007298055,-3436535.584219634 2959255.709915409,-3365786.6516492986 3195118.9514405755,-3271027.15718493 3420284.2702909997,-3152572.437984565 3631670.5811335887,-3011078.2597645205 3826176.2378944512,-2847556.2675824515 4000716.7160414364,-2663386.07081799 4152264.621285336,-2460323.5874592923 4277891.683306243,-2240505.294259314 4374812.345568933,-2006448.0566162104 4440428.516403601,-1761044.245208973 4472375.002976915,-1507551.8854636983 4468565.109262008,-1249579.630745194 4427235.842342085,-991066.4005923215 4346992.13905832,-736255.5810912591 4226849.497839422,-489663.74527392443 4066274.379210609,-256043.91681813422 3865221.723629678,-40343.46980747111 3624168.9275570503,152343.1697100124 3344145.6186073995,316826.7788155515 3026758.5787684093,447880.2300342805 2674211.1814543707,540299.6223122105 2289316.733959653,588969.1726273415 1875505.1519723043,588929.3113597604 1436822.437386856,535447.3473439281 977922.4847990946,424089.99404061306 504050.8057408921,250796.97760456003 21019.83276627135,11954.881922056029 -464824.4523495948,-295529.6739003828 -946644.7312016783,-674158.4824485034 -1417163.4680686137,-1125772.8201032567 -1868722.8954589425,-1651488.179554863 -2293353.7123541716,-2251633.7218097425 -2682852.2229037145,-2925697.5190579346 -3028865.520052691,-3672278.65955126 -3322984.191972359,-4489047.27208751 -3556841.900565837,-5372713.500078266 -3722221.0522058452,-6319006.412899977 -3811163.6527974787,-7322663.784832991 -3816086.313911826,-8377433.59908375 -3729898.255845905,-9476088.046035472 -3546121.038833826,-10610450.681036465 -3259008.64710861,-11771437.287974805 -2863666.4539616466,-12949110.861058313 -2356167.5112357805,-14132750.96929792 -1733664.5356664718,-15310937.607078295 -994495.908952786,-16471649.461010814 -138283.97012474432,-17602376.33934786 833976.1406946596,-18690245.317161884 1919838.8271509253,-19722159.95005013 3115343.287574386,-20684951.703310736 4414963.3439196795,-21565542.534554515 5811573.451390982,-22351117.357953414 7296432.397532927,-23029304.910340715 8859186.080628566,-23588365.33587271 10487890.613054473,-24017382.609775983 12169056.825899536,-24306459.7357592 13887717.057082111,-24446914.478972293 15627514.887157407,-24431473.23997937 17370818.246100683,-24254460.538113534 19098856.052046433,-23911981.45779817 20791878.261093218,-23402094.321880452 22429338.908038054,-22724970.794522237 23990101.403848983,-21883040.58538554 25452665.029730078,-20881117.929167178 26795411.23304104,-19726507.052168466 27996867.990683857,-18429083.91243804 29035990.164753985,-17001351.613645393 29892453.437429395,-15458467.046428276 30546959.081645243,-13818236.505264793 30981546.505675886,-12101078.264264466 31179910.208094046,-10329950.371475266 31127717.499561597,-8530242.23766014 30812923.09447371,-6729628.950767477 30226076.453553602,-4957887.639688071 29360617.572952505,-3246675.6379613024 28213156.77099128,-1629270.6568769559 26783733.92494564,-140273.66433415868 25076052.56150017,1184724.3233098907 23097684.209645055,2309509.799089401 20860238.487401605,3197646.3916876726 18379494.516912453,3812903.7267716476 15675489.44863972,4119712.1362943226 12772560.126592182,4083639.27991552 9699334.24386804,3671884.206150314 6488667.7218483165,2853783.864005302 3177525.496788913,1601326.5864534257 -193196.58681817912,-110333.38694588872 -3578910.4979585917,-2302366.6916351486 -6931636.438755882,-4991771.626477019 -10200365.349691745,-8190895.951577431 -13331483.141360369,-11906984.931038655 -16269255.50153226,-16141763.014715774 -18956371.29536423,-20891056.63024905 -21334541.714650054,-26144465.546084005 -23345151.447707288,-31885090.16212407 -24929957.24434451,-38089321.88212208 -26031828.350645833,-44726703.41682618 -26595522.397075016,-51759865.456191234 -26568489.452282883,-59144545.630669706 -25901696.116194237,-66829695.05496269 -24550460.732045107,-74757677.01317352 -22475290.06092584,-82864561.50398584 -19642707.097083505,-91080518.42163749 -16026059.120775115,-99330311.10796787 -11606294.600678653,-107533890.87904799 -6372697.182278046,-115607091.9148649 -323564.74421984947,-123462424.61173546 6533178.617323949,-131009964.14568207 14179449.795372983,-138158329.59351 22586565.015991844,-144815747.5209044 31714900.932120785,-150891192.48893768 41513669.580234304,-156295595.46876076 51920817.64098484,-160943109.7068507 62863059.5984005,-164752422.16896802 74256053.36961457,-167648097.329766 86004725.77936925,-169561938.78726077 98003753.88387972,-170434352.9880719 110138206.61256905,-170215698.2716423 122284349.50165139,-168867601.50068247 134310613.4510422,-166364223.76176393 146078726.45858434,-162693456.01454708 157445005.18869337,-157858025.16008464 168261801.03431398,-151876490.8062467 178379093.0521112,-144784113.04842615 187646217.81402302,-136633571.87136 195913723.8489155,-127495519.32618569 203035335.9733306,-117458946.4563124 208870012.45946226,-106631348.04436487 213284075.69232655,-95138669.6353343 216153394.75887102,-83125022.96000825 217365596.3227718,-70752157.83612874 216822278.203977,-58198680.85731822 214441198.3360567,-45659013.68252932 210158410.25140244,-33342086.49856001 203930314.97836894,-21469765.227977872 195735598.25821608,-10275014.273280764 185577021.33510756,199.99999977273393" stroke="white" stroke-width="1.5" /></svg>