<?xml version="1.0" encoding="utf-8" ?>
<svg baseProfile="full" height="400" version="1.1" width="400" xmlns="http://www.w3.org/2000/svg" xmlns:ev="http://www.w3.org/2001/xml-events" xmlns:xlink="http://www.w3.org/1999/xlink"><defs /><rect fill="black" height="100%" width="100%" x="0" y="0" /><circle cx="200" cy="200" fill="yellow" r="10.000024362416172" stroke="orange" stroke-width="2" /><polyline fill="none" points="200.01952511727785,200.0 199.93120668963323,199.9963886654592 199.83794337054027,199.98293851695306 199.74056797101488,199.9588402612157 199.6400203603251,199.9233524026804 199.53734294811946,199.87581466397134 199.4336745884643,199.81566128350454 199.33024287593676,199.74243401616656 199.22835482192292,199.65579465506474 199.12938591862908,199.55553688609828 199.03476761887407,199.44159728277802 198.94597328131852,199.31406524650666 198.86450265320354,199.17319169759048 198.79186498569325,199.01939632473753 198.7295609002938,198.85327320584037 198.67906314829585,198.6755946205487 198.6417964284641,198.48731288559486 198.61911645098,198.28956005709452 198.61228845761323,198.08364536013062 198.62246542892476,197.87105022482717 198.6506662286568,197.6534208297888 198.69775395300132,197.43255807813173 198.76441476781795,197.2104049582455 198.85113752976255,196.98903127073223 198.95819449735697,196.77061573447418 199.08562344496843,196.5574255182301 199.23321149617678,196.35179327927344 199.4004809928134,196.15609182703614 199.58667771181598,195.97270656714414 199.79076173374125,195.80400591922623 200.01140125414184,195.6523099400116 200.24696961190554,195.5198574210384 200.4955457869956,195.40877176728293 200.7549185937756,195.32102599867275 201.02259476527956,195.2584072502334 201.2958110884657,195.2224811779917 201.57155071081803,195.21455670616834 201.84656369482698,195.23565157608533 202.1173918491627,195.28645917804494 202.38039781408062,195.3673171636752 202.63179832417094,195.47817834737265 202.8677015144473,195.61858441102632 203.0841480764944,195.7876429257338 203.2771560105534,195.98400819732336 203.44276865767077,196.20586642883214 203.5771056340738,196.45092567237344 203.67641622852804,196.71641101484443 203.7371347633714,196.99906540653888 203.7559373620511,197.29515649888165 203.72979951117532,197.60048980722786 203.65605375421896,197.91042845709586 203.53244680799088,198.2199197075582 203.35719535267214,198.52352837412747 203.12903971255926,198.81547719578327 202.8472946184542,199.08969410733408 202.5118962247614,199.33986628974725 202.12344454556035,199.5595007781718 201.68324047493914,199.74199131098501 201.19331656834174,199.88069100428103 200.65646078416145,199.96899033585274 200.07623241875712,200.00039982204117 199.45696951382843,199.9686366710803 198.80378707287946,199.86771459904372 198.12256549341552,199.69203590057268 197.4199287034992,199.4364847776356 196.70321158512232,199.09652084708338 195.98041637216335,198.66827167317632 195.26015782694802,198.1486231060264 194.5515971259038,197.53530615246058 193.86436452060738,196.82697906356506 193.20847098460345,196.02330329446323 192.59420920748602,195.1250119779691 192.03204445446835,194.13396955581436 191.53249597045541,193.05322123020713 191.10600977074026,191.88703093545303 190.76282382400268,190.64090658498708 190.51282679528876,189.32161142399121 190.36541167497225,187.93716041215583 190.32932577213256,186.49680067522874 190.412518695031,185.01097519767072 190.6219900750915,183.49126908166372 190.96363891162102,181.95033786927277 191.44211652007314,180.40181761386685 192.06068515463184,178.86021659278396 192.82108444399435,177.3407887742373 193.72340782529037,175.85938938586003 194.76599118303233,174.43231317806172 195.94531589596986,173.07611623021967 197.25592846302186,171.80742240909373 198.6903788186297,170.6427158539174 200.23917935671656,169.59812112832896 201.89078656005424,168.68917294240617 203.63160697766259,167.9305776051039 205.44602910668527,167.3359686147652 207.31648251717115,166.91765902935595 209.22352530892522,166.68639347485575 211.14596071008236,166.65110284597017 213.06098331875467,166.81866492417214 214.94435515391356,167.1936742802365 216.77061132196323,167.77822493821202 218.5132947240727,168.57170935164822 220.1452188295529,169.57063727753152 221.63875712613492,170.76847812573064 222.9661574331006,172.15553030906707 224.09987883241817,173.71882101904947 225.0129485413153,175.44203970291483 225.67933562237852,177.30550831745813 226.07433800992277,179.28619118329271 226.1749789298777,181.3577469593436 225.9604084108543,183.49062490182524 225.4123052325695,185.65220716565818 224.51527434067597,187.8069984508879 223.25723448051406,189.91686379456428 221.62979057253105,191.94131476283323 219.62858517509358,193.83784371255757 217.25362326188207,195.56230517123933 214.50956448639784,197.06934273372934 211.40597712028932,198.31285920028193 207.95754793964977,199.24652698973884 204.1842424979706,199.82433516147563 200.11141046917515,200.00116867829374 195.76983107142456,199.73341484833563 191.19569399364823,198.97959120645945 186.43051174250425,197.70098844387118 181.52095990722032,195.8623213790201 176.5186425019105,193.43238039288053 171.47978028679535,190.3846752379326 166.46482078736915,186.69806268256298 161.5379696188839,182.35734908123794 156.7666436762113,177.35385867537835 152.220847758688,171.68595823969557 147.972477257176,165.35952860257572 144.09455062635186,158.38837359496142 140.6603764880927,150.79455712725664 137.74266134960612,142.6086593642528 135.41256505949076,133.86994336897277 133.73871225216533,124.62642412140346 132.7861691312123,114.93483248966272 132.61539599965124,104.86046754001791 133.2811869439685,94.476931517462 134.83160900253537,83.86574290763976 137.30695398132835,73.11582419934705 140.73871680413725,62.32286229820849 145.14861488446866,51.588540988162976 150.54766346633312,41.01964638773012 156.93532218594845,30.727047990400536 164.29872824191122,20.824559598605163 172.6120315145562,11.427686242406708 181.83584673441703,2.6522649992412255 191.9168373549136,-5.3869905200324695 202.78744512750268,-12.578030402293109 214.3657785024986,-18.813079933378248 226.55567188188488,-23.99030713626948 239.24692643046356,-28.01552939713136 252.3157416101322,-30.803940610044748 265.62534484325573,-32.28183877378041 279.0268247423394,-32.38833262583444 292.3601711749651,-31.077004727015748 305.45552307880615,-28.31750744045752 318.13462241834713,-24.09706750770485 330.2124700027618,-18.42187443597456 341.499176086504,-11.318327697805813 351.8019957769441,-2.834117828244132 360.9275363062117,6.960883095747505 368.6841202195192,17.973945377613376 374.8842855244999,30.089042732943597 379.347400872716,43.166671707384836 381.9023709447719,57.04394896597975 382.3904044254174,71.53500378519135 380.66781432696064,86.43168056497241 376.608817991454,101.50456331152385 370.1083019180653,116.50433083394209 361.08451466531244,131.1634478668391 349.4816495112568,145.19819349847432 335.27227735992165,158.31102417746234 318.45958959888355,170.1932642234453 299.079410278496,180.52811221617125 277.20193713175246,188.9939469262025 252.9331716158995,195.2679116268579 226.41599935870119,199.0297507434553 197.8308841549876,199.96586790917965 167.39614099834614,197.77356966756878 135.36775655813085,192.16545435356562 102.03872902617952,182.87390116504653 67.73790335648627,169.65561017351035 32.82828259273967,152.2961400864336 -2.295198796647526,130.61438703553637 -37.20844790657907,104.46694459551775 -71.46153479840422,73.75228270628388 -104.58255772774282,38.414681245829456 -136.08204053374646,-1.552147254718534 -165.45784312508,-46.10181178737628 -192.20055833782828,-95.1324397071283 -215.79936059997698,-148.48438091081073 -235.74826390134575,-205.93848205588262 -251.55273862935195,-267.2149906331723 -262.7366289882679,-331.9731448836578 -268.849305076683,-399.8115007728313 -269.47297636318405,-470.26904150285884 -264.2300863856971,-542.8271083598191 -252.79070211962767,-616.9121840803057 -234.8798057291047,-691.8995514110799 -210.2843914490203,-767.1178401730014 -178.86026625614193,-841.8544659855111 -140.5384498849969,-915.3619529339337 -95.33106773319832,-986.8651209556401 -43.3366293794399,-1055.569106683799 15.25541410445797,-1120.668174032959 80.16093904839752,-1181.3552580662358 150.99834604104342,-1236.8321727884268 227.28678177543492,-1286.3204006133606 308.44547665688583,-1329.0723685176 393.79428114619304,-1364.3831034852792 482.55547445580385,-1391.602147946991 573.856908318825,-1410.1456047009647 666.7365361428124,-1419.5081704629154 760.1483639955106,-1419.2750079091047 852.9698446227342,-1409.1332980416155 944.0107191669173,-1388.883308099295 1032.0232935577362,-1358.4488052400402 1115.7141178259383,-1317.8866429999803 1193.757017012419,-1267.395346251927 1264.8074020927097,-1207.3225211847314 1327.5177686192044,-1138.1709198365347 1380.5542698263212,-1060.6029940491007 1422.6142299919177,-975.4437814565747 1452.4444431627064,-883.6819763453748 1468.860082207369,-786.4690509613303 1470.7640238453662,-685.1163081054325 1457.1663771077715,-581.0897636303024 1427.2039859206805,-476.0027776720726 1380.1596614655643,-371.6063760397619 1315.4808869675937,-269.77722801369725 1232.7977268901523,-172.50327371739047 1131.9396644603996,-81.86702302826916 1012.9510862925488,-0.026578450021872868 876.1051308704368,70.80553378496276 721.9156190351965,128.38560718362868 551.1467896071608,170.46392215209812 364.82057203261536,194.8116519100343 164.2211406295216,199.24928818246403 -49.103488282714835,181.67633409571985 -273.34303428492683,140.1019789991659 -506.42989880300127,72.67643858699846 -746.0476431347961,-22.27738581432868 -989.6431296441565,-146.23230210745555 -1234.4424204152,-300.4256741057221 -1477.4704872310137,-485.82913874866824 -1715.574742933952,-703.1196298085372 -1945.4523573586935,-952.6521570207776 -2163.6812714822117,-1234.4347978326668 -2366.7547716434055,-1548.1063620918046 -2551.1194321441117,-1892.917187608317 -2713.216179799943,-2267.7135162801655 -2849.5241786664287,-2670.9258860822492 -2956.607177869581,-3100.5619534525877 -3031.1619109126086,-3554.2041332952535 -3070.068081739916,-4029.012409860923 -3070.4394219741293,-4521.732631139053 -3029.6752558838807,-5028.710552159955 -2945.511965586326,-5545.911838905666 -2816.0737095411596,-6068.948184599969 -2639.9217133520506,-6593.109624319192 -2416.1014240424047,-7113.40306256041 -2144.186798076036,-7624.596952141833 -1824.3209801754556,-8121.271982209617 -1457.2526251303634,-8597.877548896826 -1044.3671189053944,-9048.793695129769 -587.7119690009138,-9468.398117098224 -90.0156576607252,-9851.137744976304 445.3007144679375,-10191.604315655648 1014.119621962475,-10484.61326665741 1611.6317178272102,-10725.285194206772 2232.349352268224,-10909.129035919166 2870.1294360168795,-11032.126060931923 3518.2059896607784,-11090.813678912213 4169.232622813782,-11082.368015488122 4815.33507975865,-11004.68414658315 5448.173872116412,-10856.452839157606 6059.016894989355,-10637.232612214582 6638.821791891428,-10347.51591078477 7178.327696784357,-9988.78817806776 7668.155839991122,-9563.578617982474 8098.918360115587,-9075.501462954364 8461.334517951096,-8529.286600601872 8746.353362429445,-7930.798468684877 8945.281754773063,-7287.042200678561 9049.916517095979,-6606.1560948900515 9052.679337759275,-5897.389588190976 8946.752939890295,-5171.066041028649 8726.216903727232,-4438.529783010458 8386.181429972274,-3712.0770273939747 7922.91724223425,-3004.8704373821924 7333.979753989855,-2330.837316086813 6618.325571293682,-1704.5515939957827 5776.419368633714,-1141.100001123972 4810.329163645155,-655.9330338453082 3723.8080284890916,-264.70155656329354 2522.3603130171923,16.919886496223228 1213.29051860366,173.42173658346448 -194.26694729071028,189.6585129445743 -1689.3387864502017,51.05654900682205 -3259.126097921961,-256.1716384823163 -4889.041265082499,-744.8085754341197 -6562.769563365595,-1426.4110837942212 -8262.356377850443,-2311.090182224382 -9968.320660865798,-3407.2944216113037 -11659.794975534567,-4721.599587089241 -13314.692163610736,-6258.507815620432 -14909.898347312093,-8020.259265469615 -16421.49162780208,-10006.659528038439 -17824.985480610343,-12214.925990596777 -19095.59547408343,-14639.556337821803 -20208.52755478875,-17272.22231839674 -21139.28575787767,-20101.69179824995 -21863.996815294802,-23113.781972751032 -22359.7487552463,-26291.346415195338 -22604.940217610674,-29614.298397567374 -22579.636857293517,-33059.672631770874 -22265.930876359438,-36601.72724572062 -21648.299421679614,-40212.08742998237 -20713.957313406325,-43859.93176872045 -19453.19933639328,-47512.221805927424 -17859.727137184855,-51133.974897287 -15930.955628679209,-54688.5798632515 -13668.293718061235,-58138.154394364756 -11077.394145794877,-61443.94257056694 -8168.367258634889,-64566.75024784053 -4955.953641549806,-67467.41544439693 -1459.6507053424727,-70107.31023153427 2296.211428842001,-72448.87000871301 6282.449088198244,-74456.14542618989 10465.063196145455,-76095.37162001914 14805.33988586675,-77335.54885198474 19260.016511714115,-78149.02810997561 23781.515373506125,-78512.09473147015 28318.24678143381,-78405.54267327022 32814.98233569268,-77815.2316734412 37213.29848001498,-76732.61924545214 41452.08951801604,-75155.25921834592 45468.1483628106,-73087.25839855209 49196.81233189848,-70539.68288630573 52572.6703101122,-67530.90563948579 55530.32659370105,-64086.887046146585 58005.21570958946,-60241.380549276146 59934.46148754799,-56036.05576748717 61257.77266227027,-51520.53207633698 61918.36631065732,-46752.316258407795 61863.90950100774,-41796.638596350254 61047.46865972731,-36726.18267048062 59428.45536229984,-31620.70512831745 56973.55654338276,-26566.542813068612 53657.636510672295,-21656.005865219857 49464.597653040684,-16986.656737978046 44388.18636929717,-12660.476483541273 38432.73052299849,-8782.921161386985 31613.79466337357,-5461.872778622121 23958.739353882647,-2806.490780881736 15507.171228077465,-925.9717535732661 6311.27085567612,71.7733507372509 -3564.013843273496,81.51349195361814 -14040.920046893278,-997.8492629858365 -25028.978703040888,-3261.781800160216 -36425.2885347596,-6798.592949779984 -48114.963043811156,-11687.894497646179 -59971.756537637244,-17999.06860114774 -71858.87338151877,-25789.761146964007 -83629.96267972204,-35104.42157483176 -95130.29843020292,-45972.91048976162 -106198.14289305321,-58409.19697135209 -116666.28848226399,-72410.16784187857 -126363.77095532304,-87954.57125461404 -135117.7440602053,-105002.11679216688 -142755.5031316448,-123492.75380546498 -149106.64243782638,-143346.1489638165 -154005.32839675786,-164461.38291454752 -157292.6681425267,-186716.88455951077 -158819.15036110254,-209970.61974119674 -158447.13287043438,-234060.5490929345 -156053.34912848528,-258805.36744943223 -151531.40375431307,-284005.53454359947 -144794.2252803936,-309444.6037454475 -135776.44275778913,-334890.8523459084 -124436.65154749289,-360099.21337402606 -110759.53268797479,-384813.50518643914 -94757.78966547274,-408768.95111428364 -76473.86626237282,-431694.9773301202 -55981.40944956569,-453318.27284617035 -33386.4420469584,-473366.09121934016 -8828.21112424168,-491569.76916651474 17520.320131176668,-507668.43293731584 45452.36707832505,-521412.8590062525 74727.63201883642,-532569.4514900218 105073.05019987398,-540924.2947289244 136183.99345364995,-546287.2357560531 167725.94715178016,-548495.9479771528 199336.67131462708,-547419.9243611537 230628.85141879815,-542964.3458593177 261193.23872527157,-535073.7686913899 290602.27384896646,-523735.57261953613 318414.1808583784,-508983.1114317952 344177.5124890542,-490898.50662888685 367436.12014229153,-469615.0257992065 387734.51529264404,-445318.98841882957 404623.58182320156,-418251.14386175765 417666.59173076635,-388707.4692781747 426445.4696838005,-357039.3387148598 430567.2451689996,-323653.0194221608 429670.6245254717,-289008.4567165813 423432.60913979175,-253617.3150367338 411575.0805631192,-218040.2499217696 393871.2684160151,-182883.39352222753 370152.01276985725,-148794.04487846053 340311.72933590296,-116455.56551392902 304313.98335066653,-86581.49081985178 262196.576611115,-59908.878171813165 214076.05177055098,-37190.92362359223 160151.5188333243,-19188.89026254076 100707.71085182711,-6663.40276690537 36117.1791897822,-365.1742505754313 -33158.456583456486,-1025.2429771850677 -106568.28303067642,-9344.807827045692 -183472.96281977263,-25984.7623533863 -263146.76288715,-51555.03770924189 -344780.79312810284,-86603.874499092 -427487.49639653845,-131607.15254343217 -510306.41776101745,-186957.91547255503 -592211.2669213564,-252956.2338219285 -672118.2725338,-329799.55572312954 -748895.8110370943,-417573.6982146434 -821375.2755503887,-516244.63448686013 -888363.1326810784,-625651.2328874768 -948654.0968089094,-745499.1021213067 -1001045.3327933764,-875355.6936722831 -1044351.5792929506,-1014646.8069626341 -1077421.0662110813,-1162654.635072363 -1099152.0814330387,-1318517.4789209326 -1108510.024239597,-1481231.2456366539 -1104544.7658377872,-1649652.8324081893 -1086408.1216019061,-1822505.4804551841 -1053371.2251405169,-1998386.1649295765 -1004841.5814691812,-2175775.065654712 -940379.5656435544,-2353047.1407465455 -859714.1244573155,-2528485.8004934466 -762757.4324887542,-2700298.6525845444 -649618.2501298089,-2866635.26208934 -520613.7304764828,-3025606.8407545695 -376279.42430303537,-3175307.750479651 -217377.23796247056,-3313838.675570724 -44901.10810225323,-3439331.287894687 139919.83032620224,-3549974.19872355 335620.79007229215,-3644039.961262561 540503.7790348963,-3719912.8589998707 752643.1130431424,-3776117.1875230633 969894.1307007924,-3811345.7117514596 1189905.2163485656,-3824487.957073423 1410133.2031484358,-3814657.9720960157 1627862.1910666795,-3781221.183048782 1840225.7743795468,-3723819.945762001 2044232.6305500155,-3642397.3909760253 2236795.3772829226,-3537219.152923897 2414762.557667139,-3408892.570027453 2574953.5650165626,-3258382.95048737 2714196.269833883,-3087026.5048189946 2829367.061794134,-2896539.5622292995 2917432.9703727877,-2689023.7083352935 2975495.4793556,-2466966.508220046 3000835.603625391,-2233237.5112736905 2990959.7520111017,-1991079.2726691675 2943645.8583112494,-1744093.1705967013 2856989.2245820346,-1496219.8483693425 2729447.487127783,-1251714.1659756338 2559884.0870594378,-1015114.6062711871 2347609.6044907533,-791207.1463595622 2092420.2990925454,-584983.6743191609 1794633.190457971,-401595.1047054615 1455117.0101355098,-246299.4225307097 1075318.363795469,-124404.96394859352 657282.4572766868,-41209.321823018574 203667.76460522017,-1934.344839676192 -282245.9502122566,-11657.778859604356 -796556.802530275,-75242.17779163532 -1334747.6394866665,-197261.78729912528 -1891701.0048176437,-381928.1770401367 -2461722.573210496,-633015.4647239881 -3038573.3298939983,-953786.0368886358 -3615510.6808373723,-1346917.725796852 -4185338.5802433514,-1814433.4480593232 -4740466.655647854,-2357634.347390135 -5272978.197685935,-2977037.5101963636 -5774706.762399473,-3672319.33746834 -6237321.009932128,-4442265.658714784 -6652417.275799242,-5284729.6626126245 -7011619.2409800915,-6196598.693858472 -7306683.936321378,-7173770.925786444 -7529613.186734526,-8211142.863163832 -7672769.473084411,-9302608.558858972 -7728995.066252336,-10441071.341632014 -7691733.1704256395,-11618468.750150358 -7555149.703082813,-12825811.250696814 -7314254.239294011,-14053235.183344435 -6965018.559738668,-15290070.234262247 -6504491.167127538,-16524921.571154036 -5930906.076343931,-17745766.60570616 -5243784.141350373,-18940066.162656475 -4444025.158417466,-20094889.64123458 -3533988.9820677754,-21197053.55303411 -2517563.9086927767,-22233272.612848867 -1400220.6243178123,-23190322.347823087 -189050.07848015823,-24055211.977817964 1107216.2635609228,-24815366.10873504 2478205.2225092626,-25458813.573384725 3911921.0517290994,-25974381.554177865 5394786.053448307,-26351892.93141249 6911703.597189322,-26582364.6232457 8446144.256930279,-26658204.52165532 9980255.54388406,-26573404.485880908 11494995.450188393,-26323726.73404494 12970289.73700527,-25906880.87785767 14385212.600688031,-25322688.777381532 15718190.035309695,-24573234.355477463 16947224.881840378,-23662995.507291302 18050142.216847446,-22598955.271230735 19004853.390340995,-21390689.496319972 19789636.677171577,-20050428.34823938 20383432.16337721,-18593089.14404737 20766148.152482446,-17036278.194394607 20918976.051603504,-15400259.562380776 20824710.388108537,-13707888.919998407 20468070.319440015,-11984510.995734273 19836018.73651629,-10257819.459220745 18918074.829891674,-8557678.479111155 17706615.79251637,-6915905.616285994 16197163.178339485,-5366016.173172143 14388649.32678337,-3942929.607857554 12283659.203692295,-2682639.1347016576 9888643.003791904,-1621846.166575147 7214094.911666323,-797561.8024438401 4274693.530973027,-246678.12193057826 1089399.6677407883,-5512.609431893972 -2318492.6048157425,-109329.58755627259 -5921355.364095906,-591843.0859065938 -9687280.126739219,-1484706.099022578 -13580187.953042252,-2816991.688828064 -17559998.802558783,-4614671.854194657 -21582862.002279498,-6900100.515130808 -25601449.053188432,-9691507.333510127 -29565309.30757675,-13002509.408126095 -33421288.303011402,-16841648.131352734 -37114007.74504147,-21211958.670254 -40586405.29627695,-26110579.629478548 -43780331.462072946,-31528410.46011321 -46637199.97124099,-37449824.09185816 -49098687.143498115,-43852442.08028369 -51107474.82399551,-50706979.27218642 -52608030.56028311,-57977164.59688545 -53547417.81015393,-65619744.087472595 -53876128.112208165,-73584571.62254365 -53548926.33737378,-81814792.15608124 -52525699.382012546,-90247121.3725937 -50772297.97481807,-98812224.7694789 -48261360.66364928,-107435198.1334751 -44973108.53782136,-116036150.24919812 -40896098.83891989,-124530887.46288659 -36027925.331177816,-132831698.43295361 -30375853.15242128,-140848236.04168755 -23957375.85927308,-148488492.0319813 -16800682.525327735,-155659858.48321876 -8945023.05680301,-162270268.76688287 -440960.3636750198,-168229409.14175534 8649501.329131164,-173449990.67873538 18252921.922752284,-177849069.76528698 28284573.528488457,-181349404.04930705 38648738.90684661,-183880829.36233482 49239166.619427554,-185381641.93371752 59939687.72785136,-185799969.09195182 70624997.1879827,-185095110.6684279 81161601.24974771,-183238832.4933757 91408930.19542782,-180216592.72467324 101220613.6477888,-176028681.29719394 110445913.4715658,-170691252.54231945 118931306.99801512,-164237231.02147532 126522210.94526893,-156717070.85972962 133064834.01213947,-148199349.36915663 138408143.71708566,-138771176.52811593 142405930.6664979,-128538402.94044554 144918951.09813172,-117625610.24341951 145817126.28894562,-106175869.56782328 144981775.27515748,-94350255.57653606 142307855.34056526,-82327105.81517431 137706182.92166117,-70301017.59101716 131105605.98990786,-58481577.34239371 122455097.63685776,-47091820.45319775 111725739.54053204,-36366422.6857386 98912563.26352192,-26549627.824608974 84036216.95548967,-17892919.715784278 67144425.03282017,-10652450.615410041 48313208.81194207,-5086241.594765981 27647836.901720162,-1451174.6406782828 5283475.433117541,199.99999999352985" stroke="white" stroke-width="1.5" /><circle cx="191.49830218033995" cy="249.27191019417847" fill="red" opacity="0.7" r="14.854497299884601" /><circle cx="180.69113542661592" cy="246.1212288310569" fill="red" opacity="0.7" r="14.854497299884601" /></svg>