<?xml version="1.0" encoding="utf-8" ?>
<svg baseProfile="full" height="400" version="1.1" width="400" xmlns="http://www.w3.org/2000/svg" xmlns:ev="http://www.w3.org/2001/xml-events" xmlns:xlink="http://www.w3.org/1999/xlink"><defs /><rect fill="black" height="100%" width="100%" x="0" y="0" /><circle cx="200" cy="200" fill="yellow" r="10.01269286620035" stroke="orange" stroke-width="2" /><polyline fill="none" points="199.01646339542387,200.0 198.90641001181888,199.94259152122882 198.79682236044673,199.87332826205179 198.68890491436662,199.79199048221935 198.5839157789212,199.69848446638284 198.48315442629763,199.59285181862427 198.38794808718683,199.4752776857987 198.29963687866737,199.34609773530562 198.2195577684541,199.20580371671116 198.14902749682773,199.05504744282223 198.08932459864474,198.89464303445615 198.04167068855278,198.72556728430314 198.00721119261854,198.5489580089815 197.98699572872442,198.36611027463303 197.98195835600362,198.17847040016656 197.99289792995583,197.9876276634686 198.02045881441109,197.79530365945922 198.065112213882,197.60333928464507 198.12713839976774,197.41367935063406 198.2066101110576,197.2283548587235 198.30337741435795,197.04946299890324 198.4170543089749,196.87914496915144 198.54700736020388,196.71956174441894 198.69234663769575,196.5728679588548 198.85191922562663,196.44118409923158 199.0243055572537,196.3265672417781 199.20781880820877,196.2309805982796 199.40050756051033,196.1562621699046 199.60016192277044,196.1040928382856 199.80432326148386,196.07596425243 200.01029766372307,196.07314689657142 200.21517321318518,196.09665874758886 200.41584111957076,196.1472349506325 200.60902069599797,196.22529895760954 200.79128813091367,196.3309355847417 200.9591089501538,196.46386645206 201.10887401189217,196.62342826904296 201.23693882271547,196.80855442626066 201.33966590754198,197.0177603425282 201.41346991019148,197.24913300042888 201.45486504577468,197.5003250799215 201.46051447142,197.76855406995367 201.42728108893516,198.05060670148617 201.35227924258803,198.34284900209977 201.2329267280764,198.641242222488 201.0669964857534,198.9413648288204 200.85266731308715,199.23844069245226 200.58857289896767,199.5273735401256 200.27384845661723,199.80278765411362 199.90817421326477,200.05907473325854 199.49181500413508,200.2904467432036 199.02565521634114,200.49099449806607 198.51122833555826,200.65475162718838 197.9507403654314,200.77576349036553 197.34708641696386,200.84816051409612 196.70385980300188,200.86623533102542 196.02535302160217,200.82452301600557 195.31655007166813,200.71788362629528 194.58310961475127,200.54158617162403 193.8313385781969,200.29139306344496 193.06815588657207,199.96364402300554 192.3010461101131,199.55533836619642 191.5380029301732,199.06421453079636 190.78746244158856,198.48882566999472 190.05822643960187,197.82861010616938 189.3593759734188,197.08395542199318 188.70017558840425,196.25625496311545 188.08996882297527,195.34795553889705 187.53806567290255,194.36259513582087 187.05362288334302,193.30482950297412 186.64551807571567,192.18044653095677 186.32221886062644,190.99636742509557 186.09164822746632,189.76063377112104 185.96104763400763,188.48237970647244 185.93683934320063,187.17178854289526 186.02448966729978,185.84003333550172 186.2283748792824,184.49920105926614 186.5516516361468,183.16220023504317 186.9961338260193,181.84265204240745 187.56217779906507,180.55476516442837 188.24857796909586,179.31319482817688 189.05247477674936,178.13288673231457 189.96927698459137,177.02890678730745 190.99260022808045,176.01625783216357 192.11422367287722,175.10968473143384 193.3240665275804,174.32346949464818 194.61018603101635,173.67121829433222 195.95879837440546,173.16564248504375 197.35432383112015,172.81833594116313 198.77945715073608,172.63955123204505 200.21526403045132,172.6379773361298 201.6413042068853,172.8205217572452 203.0357814163571,173.1921000431623 204.37572015399266,173.75543581513944 205.63716882383787,174.51087449445666 206.7954285164043,175.45621395474697 207.82530627999003,176.58655533442632 208.70139137134993,177.89417720914685 209.3983525838492,179.36843624770282 209.8912543615057,180.99569735433732 210.15588901999467,182.75929613448184 210.16912201574058,184.639536308632 209.90924683687126,186.613724439853 209.35634574047532,188.65624403440387 208.49265223483744,190.73867072283795 207.30291090875556,192.8299298319774 205.77472994831834,194.89649721829926 203.8989214602258,196.90264375311313 201.66982454533502,198.8107233327282 199.0856059418588,200.5815037365546 196.14853298951175,202.17453907739008 192.8652136584902,203.54858198630356 189.24679844464904,204.66203305547575 185.3091390582311,205.4734244326458 181.0728990310334,205.94193382755716 176.56361163829152,206.02792456163988 171.81168087840797,205.6935066752068 166.852321676664,204.9031135101744 161.72543597809562,203.62408761954458 156.47542196865086,201.82726932662868 151.15091431046227,199.48758077641122 145.80445399339024,196.5845978977082 140.4920871866716,193.1031023369522 135.27289331619565,189.03360514139894 130.2084434881753,184.3728337698277 125.36219132123139,179.12417390046565 120.79879922754044,173.29805749636947 116.58340419002884,166.91228868458563 112.780828105982,159.99229921296194 109.45473879626381,152.57132557237236 106.66676880119581,144.69050031611602 104.47560008583552,136.39885067487413 102.93602374510827,127.75319825601959 102.09798471867438,118.81795442997615 102.00562238188289,109.66480694185884 102.69631865779509,100.3722943403099 104.19976598116357,91.025265982066 106.53706802367724,81.71422664341657 109.7198865463364,72.53456613960009 113.74964806565954,63.585675809806276 118.61682419246857,54.969955256493705 124.30029951313772,46.791714319142244 130.76684072251695,39.155976898563864 137.97068037573473,32.16719491114338 145.85322809486146,25.92788232399539 154.34292133991227,20.53718088178036 163.35522692783513,16.089370762353838 172.7928033561417,12.672340969102265 182.54583266023954,10.366035759421635 192.49252900839207,9.24089479751919 202.4998295213091,9.356305981351625 212.42427090317247,10.759091003875653 222.1130533987908,13.482044643928816 231.40529136180865,17.542549518587293 240.1334473486644,22.941288544335663 248.12494416236333,29.661077627570364 255.2039466820226,37.66584111625619 261.19330265424225,46.89975227624001 265.91662891891485,57.28656049245026 269.20052682584037,68.72912602418714 270.8769079023852,81.10918195518016 270.7854081913039,94.28734146657976 268.77586712827036,108.1033667216514 264.7108444084904,122.3767134856628 258.4681460397543,136.90736311840172 249.94332873473044,151.47695077936248 239.0521499975114,165.85019559085285 225.7329297472941,179.77663513068813 209.9487881335727,192.99266299700554 191.6897233687619,205.2238643311525 170.9744929702133,216.18764013324414 147.85226179592794,225.59610699625117 122.40398070556178,233.15925456016268 94.743460605472,238.58833859392726 65.01810806415762,241.59948319951155 33.40929062827456,241.91746125312113 0.13230243983488776,239.27961791016457 -34.564096243231916,233.43989786233686 -70.39858849001939,224.1729331087978 -107.05867791813739,211.2781443518445 -144.2025479515376,194.5838058145733 -181.46141233273977,173.9510203676632 -218.44236061559667,149.2775494077783 -254.73169645871786,120.50144001276493 -289.89876026528395,87.60439056798512 -323.50022112560976,50.614795369611215 -355.0848161753195,9.61040871608941 -384.19850845253256,-35.2794302553327 -410.39002719700045,-83.87206920383034 -433.2167473640601,-135.93036556860284 -452.25085801384625,-191.162112597989 -467.08576227375283,-249.2201160858521 -477.3426448562583,-309.7029645784297 -482.6771367451429,-372.15653005650427 -482.7860007431083,-436.0762294934026 -477.4137562067376,-500.9100702646916 -466.3591565843402,-566.062494177829 -449.4814294210847,-630.8990259491346 -426.706185404007,-694.751722343433 -398.03090088294437,-756.9254079831693 -363.52987721277714,-816.7046731157706 -323.35858030120494,-873.3615974997765 -277.7572649897688,-926.1641531427281 -227.0537914092037,-974.385227019068 -171.6655442872198,-1017.3121932470228 -112.10037138849378,-1054.25695265133 -48.95646385949229,-1084.5663463341743 17.07889075384631,-1107.6328389769099 85.23174265528478,-1122.905357262826 154.64515018811002,-1129.9001592128766 224.38412344176206,-1128.211601530563 293.44186468337483,-1117.5226644276713 360.7473146650814,-1097.6150870158158 425.1739982129121,-1068.3789613622944 485.55014589211027,-1029.8216298782493 540.6700511086076,-982.0757289795586 589.3066039090377,-925.406222071776 630.2249241625952,-860.216266981585 662.1969979464167,-787.0517670941105 684.0172020274039,-706.6044617450253 694.5185825686788,-619.7134199245372 692.5897358325128,-527.3648121199251 677.192120959323,-430.68984817170974 647.3776181387241,-330.96078433612854 602.3061299244376,-229.58492029482255 541.2630093540126,-128.09652656257953 463.6760861907455,-28.146664515225524 369.13205227956496,68.50911504039468 257.3919589643982,160.025183369774 128.40557400479037,244.48231697581548 -17.67565730775283,319.9061856544084 -180.48730187803682,384.2877492402731 -359.44253097967885,435.6054366391269 -553.724859666367,471.8489500875562 -762.2832679105647,491.0445068275026 -983.8299240455167,491.2812999038911 -1216.8407134981226,470.73892998927744 -1459.5587545090632,427.7155314243339 -1710.0010575595113,360.65628846775087 -1965.9684566245073,268.1820125137652 -2225.05890826516,149.11742820516812 -2484.6842191191176,2.518796389550687 -2742.0902237690443,-172.29951482414492 -2994.380393531989,-375.73991262476034 -3238.542812743084,-607.8983262350138 -3471.4804129821155,-868.5432327167423 -3690.04430784089,-1157.09737619788 -3891.0700217324425,-1472.6225891441616 -4071.416356427396,-1813.8081131026106 -4228.0065890398855,-2178.9627994548478 -4357.871645687145,-2566.0115479650394 -4458.194846659466,-2972.4963121798246 -4526.357772338568,-3395.58196599419 -4559.986754989731,-3832.067284965226 -4556.99946064435,-4278.401249343571 -4515.650988305975,-4730.704823483378 -4434.578881378837,-5184.798308556785 -4312.846419246774,-5636.234302692707 -4149.983536016599,-6080.336235223407 -3946.024699249626,-6512.242370185142 -3701.5430746653233,-6926.955099196761 -3417.6803038886546,-7319.395266031494 -3096.1712318456835,-7684.4611853845245 -2739.362938837353,-8017.091937380948 -2350.227460005189,-8312.334438195128 -1932.367612120699,-8565.413706759713 -1490.015394558984,-8771.80566898236 -1028.0224880213057,-8927.311765260907 -551.8424410024566,-9028.134555530984 -67.50420998028972,-9070.953449756005 418.42319546807664,-9052.999631854052 898.8751173872225,-8972.129192725019 1366.3447565095078,-8826.893444451338 1812.945724415008,-8616.605354026564 2230.483467134636,-8341.401012198041 2610.5352645093058,-8002.295042208736 2944.5383830848677,-7601.228855326005 3223.8858305665976,-7141.110675890244 3440.0290282744195,-6625.846288924772 3584.5865861484835,-6060.359508715669 3649.4582342711306,-5450.601427637056 3626.9428373095984,-4803.547581146648 3509.85929553298,-4127.182257411858 3291.669019965515,-3430.4692883597777 2966.598561697127,-2723.308782786915 2529.7608782915972,-2016.479401014427 1977.2736355206312,-1321.565923708958 1306.3728721910318,-650.8720339607172 515.5203014535437,-17.318410341593307 -395.49751456301453,565.6735819528574 -1425.479897006036,1084.3121162741277 -2571.7344657148938,1524.5783546475925 -3830.0129877685663,1872.3822205596032 -5194.462359304948,2113.7293782645193 -6657.592346435331,2234.898088185355 -8210.261611560538,2222.624395890839 -9841.683426228225,2064.2939050213135 -11539.452320692379,1748.138185315791 -13289.592743696097,1263.4336785694643 -15076.630604176715,600.7007909976614 -16883.688340410987,-248.0992967970505 -18692.60391276141,-1289.3727081636182 -20484.073845201845,-2527.7085568297825 -22237.82015011396,-3965.7050488727937 -23932.780662754027,-5603.808866310791 -25547.32198895697,-7440.170725291857 -27059.47393510135,-9470.51999457471 -28447.183946484816,-11688.061216330954 -29688.589732758282,-14083.395289361764 -30762.30791095402,-16644.46795306332 -31647.73615220877,-19356.54804775061 -32325.36598205801,-22202.237822532283 -32777.10306089351,-25161.51731557435 -32986.59146572312,-28211.824543552873 -32939.53821174552,-31328.172908168504 -32624.033997493687,-34483.30685912994 -32030.86593544855,-37647.896446946244 -31153.81784604384,-40790.77095773525 -29989.95355169511,-43879.191349192006 -28539.878513511452,-46879.16070561638 -26807.975111026593,-49755.77140482488 -24802.606878597948,-52473.58714579603 -22536.287084633135,-54997.057428530585 -20025.80717457638,-57290.96151288345 -17292.320798111727,-59320.87831757215 -14361.379407175009,-61053.678161170035 -11262.915745262493,-62458.03170102851 -8031.171950562275,-63504.930901426706 -4704.56946518165,-64168.216366777146 -1325.5184788895795,-64425.10491754082 2059.834763886182,-64256.71087381366 5401.923803737911,-63648.55415252739 8648.141244374641,-62591.04798692376 11743.28099093778,-61079.958849237606 14630.042154784038,-59116.83100686002 17249.592476881142,-56709.36807568266 19542.18823737191,-53871.763958308715 21447.846712738356,-50624.97567511999 22907.066324171723,-46996.93081776982 23861.588701862223,-43022.66268155973 24255.195981320274,-38744.36656832971 24034.53576152303,-34211.371296797246 23149.9653031665,-29480.02061331047 21556.405741512328,-24613.459961983637 19214.196345450622,-19681.32494700449 16089.938185775733,-14759.328797891341 12157.315994577639,-9928.747225438914 7397.886517183138,-5275.800225265437 1801.8212909522092,-890.9316388861098 -4631.408456397253,3132.0113908815692 -11892.417200985943,6696.695544184223 -19961.37317888296,9705.310063681804 -28807.5612741443,12059.66067199496 -38389.05254468129,13662.340738071589 -48652.49165651058,14417.970270612477 -59533.012785531966,14234.49184100995 -70954.29365561031,13024.511099275145 -82828.75631142677,10706.668164512152 -95057.92197567674,7207.024867661938 -107532.92591620127,2460.451619923846 -120135.19665560198,-3588.0034028772093 -132737.30210228107,-10981.781010088707 -145203.9632787214,-19751.532706663696 -157393.23428385085,-29913.916982394177 -169157.8449677912,-41470.490185414965 -180346.70053800291,-54406.71214985632 -190806.5299771766,-68691.08667206045 -200383.67275897498,-84274.45659932184 -208925.99092393438,-101089.47269669182 -216284.89115268658,-119050.25458050481 -222317.43907724807,-138052.26084420417 -226888.54573514836,-157972.3840480581 -229873.2038287731,-178669.2844980753 -231158.74933764368,-199983.97470301136 -230647.12207928087,-221740.66407768588 -228257.0970600027,-243747.8708657513 -223926.45693556964,-265799.8053994866 -217614.0746474923,-287678.0257161811 -209301.87434761084,-309153.3632325511 -198996.63810324756,-329988.11266694125 -186731.62561778972,-349938.4767245177 -172567.97433458,-368757.2522580221 -156595.8478398585,-386196.74072476686 -138935.30146429865,-402011.8618217417 -119736.83541927703,-415963.44524087355 -99181.60770592352,-427821.6715945861 -77481.28140971126,-437369.6297694909 -54877.48384296602,-444406.9543270937 -31640.85831859251,-448753.5031404197 -8069.693120770371,-450253.03229112824 15511.883533783113,-448776.82241008454 38756.14909990148,-444227.2081825283 61294.474385755624,-436540.9607129819 82740.44942444302,-425692.4709092123 102693.43793385294,-411696.6810509013 120742.54478636131,-394611.7113058691 136470.97472640715,-374541.1281892528 149460.7542470088,-351635.8028686986 159297.78213490182,-326095.3088353112 165577.16779285073,-298168.8108131276 167908.81012646042,-268155.39988936 165923.1636254976,-236403.83372557347 159277.13236385485,-203311.6453594768 147660.02707820432,-169323.58952204487 130799.51535519575,-134929.40155913934 108467.49035357955,-100660.85093406696 80485.77950353097,-67088.07886057982 46731.61135163555,-34815.21782608736 7142.756244858623,-4475.299553149955 -38277.7450454013,23275.53275713209 -89457.35128843064,47764.48233501776 -146250.3754739847,68309.19128608356 -208435.00883010234,84225.42166512855 -275711.09614696424,94835.26887308226 -347698.74052202114,99475.84067069045 -423937.8105591211,97508.32483662384 -503888.41672307113,88327.35850131842 -586932.4159660452,71370.60260370829 -672375.9949139296,46128.41589290341 -759453.371855665,12153.514580503683 -847331.6465603068,-30929.503707467815 -935116.8146159084,-83414.89947673283 -1021860.9496203938,-145506.92749562013 -1106570.542254244,-217311.50658492307 -1188215.9701433731,-298828.5626908383 -1265742.05661116,-389945.1858489355 -1338079.6600716996,-490429.7409479204 -1404158.219099432,-599927.0697157065 -1462919.1613066,-717954.9169882219 -1513330.0672671688,-843901.7080122902 -1554399.4640547673,-977025.7952253722 -1585192.1067353769,-1116456.282617271 -1604844.5906042594,-1261195.52340395 -1612581.1223197822,-1410123.3723494082 -1607729.2646077413,-1562003.257701738 -1589735.4571338147,-1715490.1194355483 -1558180.1057128527,-1869140.2404144746 -1512792.0234821076,-2021422.9753335803 -1453462.0012439652,-2170734.3590306416 -1380255.2801038008,-2315412.551155149 -1293422.6979982033,-2453755.0484716957 -1193410.2829176874,-2584037.5694956225 -1080867.069744443,-2704534.488985749 -956650.9247933326,-2813540.6723501566 -821832.1724785118,-2909394.5325784446 -677694.8321119838,-2990502.10524027 -525735.2897230248,-3055361.9107473264 -367658.2499796168,-3102590.3478408926 -205369.83676510619,-3130947.3385273535 -40967.73764317184,-3139361.922835666 123271.68278533312,-3126957.4822120317 284909.34293236444,-3093076.253494333 441362.48456382856,-3037302.781612477 589926.7624438154,-2959485.9488183293 727801.312270246,-2859759.211719837 852116.6840684041,-2738558.67501594 959965.4849898275,-2596638.6329083266 1048435.5312907295,-2435084.215976959 1114645.2646228701,-2255320.793079665 1155781.1431842912,-2059119.7947586256 1169136.6743060756,-1848600.6468424385 1152152.7122823033,-1626228.5304990415 1102458.604296272,-1394807.7179385247 1017913.7287879741,-1157470.271236118 896648.9351883696,-917659.9352247921 737107.3622628422,-679111.1039022781 538084.0850037774,-445822.7930414901 298764.0177232283,-222027.60934182713 18757.48433448328,-12155.768089794115 -301867.1436400225,179205.72358930364 -662554.3444916558,347358.5327879507 -1062236.4787759206,487542.86080761405 -1499313.545129215,594991.3699069802 -1971638.2284612549,664986.7770856109 -2476506.781830116,692922.6427499753 -3010656.2470161407,674366.8106986998 -3570268.473807866,605126.8864316667 -4150981.344273908,481317.0743296201 -4747907.54590419,299425.6317929026 -5355661.166655408,56382.14101507752 -5968392.305949199,-250376.25224895304 -6579829.808979507,-622840.5277329648 -7183332.137854462,-1062368.338340896 -7771946.292814621,-1569626.3741071247 -8338474.590849942,-2144537.516802361 -8875548.998423014,-2786233.7652717307 -9375712.600756338,-3493015.905503757 -9831507.673435654,-4262320.880818295 -10235569.70420702,-5090697.78582133 -10580726.595189719,-5973793.362419903 -10860102.159769095,-6906347.816874036 -11067222.915730294,-7882201.703387588 -11196127.068363512,-8894314.532071603 -11241474.475983597,-9934795.657392342 -11198656.29725976,-10994947.887766907 -11063902.936652582,-12065324.128307333 -10834388.83280775,-13135797.227556407 -10508332.57662725,-14195643.046324588 -10085090.80254374,-15233636.603550429 -9565244.26980163,-16238160.981799325 -8950674.541732727,-17197328.495117083 -8244629.681417656,-18099113.436199225 -7451777.412898804,-18931495.530139558 -6578244.249245418,-19682613.03047789 -5631639.163040686,-20340924.202140506 -4621060.471830422,-20895375.74756053 -3557084.731051009,-21335576.54930818 -2451736.569993689,-21651974.92759339 -1318438.5722258368,-21836037.446732268 -171940.4900436101,-21880427.153856967 971772.7078734075,-21779178.998570967 2095594.2265672898,-21527870.066676065 3181430.2949916623,-21123782.16722452 4210356.2330410415,-20566054.242611308 5162793.211840106,-19855822.028705604 6018704.891113945,-18996342.378458787 6757812.815413511,-17993099.680137023 7359829.142602438,-16853891.8521898 7804704.966732666,-15588893.482360916 8072892.186926346,-14210693.800245628 8145616.568053232,-12734307.330989717 8005159.341964844,-11177155.273715837 7635144.414102623,-9559015.881614989 7020827.97384783,-7901942.391067155 6149387.062508833,-6230147.353767551 5010203.434863354,-4569852.567249511 3595138.8631737293,-2949104.1734922896 1898797.8809706427,-1397552.9000253773 -81226.14808131538,53800.149895913666 -2344125.8192287674,1372891.2954206879 -4885679.537420757,2526914.3260391033 -7698080.603631255,3482670.9697242454 -10769799.626516538,4206949.450435408 -14085484.208732676,4666928.298313383 -17625899.65822561,4830602.071474295 -21367914.21581587,4667225.151655455 -25284531.970636703,4147769.29378307 -29344976.254356027,3245390.1487846468 -33514825.86427638,1935897.5468258155 -37756205.96582034,198223.93190418533 -42028034.968843445,-1985115.0142863998 -46286328.06281554,-4627573.823811138 -50484557.43718003,-7738151.2787011145 -54574068.510031134,-11320991.721617125 -58504550.746409036,-15375020.439812737 -62224560.873654164,-19893619.953119684 -65682095.50284637,-24864353.985729937 -68825209.35069183,-30268745.762859903 -71602674.43434289,-36082117.042800985 -73964674.79229341,-42273493.969103076 -75863530.47803482,-48805585.404374 -77254443.79051253,-55634838.885170825 -78096259.95786817,-62711578.71653498 -78352233.79019701,-69980230.00605237 -77990793.17491156,-77379631.62324066 -76986289.71669437,-84843440.16433749 -75319726.33480203,-92300626.0103225 -72979451.23523371,-99676061.49378754 -69961807.38522391,-106891200.04607055 -66271726.4433017,-113864843.98928355 -61923256.04972796,-120513997.37935008 -56940009.468471095,-126754799.00806762 -51355526.800997056,-132503529.34806773 -45213537.37072185,-137677683.8890657 -38568113.410314284,-142197103.98283556 -31483705.87586873,-145985155.0047642 -24035054.064313833,-148969940.36939433 -16306961.723409789,-151085538.7244161 -8393933.515494676,-152273250.5111313 -399667.0228134422,-152482839.0386946 7563603.042322755,-151673750.2938313 15375910.143537955,-149816294.91642526 22910510.718136247,-146892775.1332781 30034986.58014603,-142898538.97553524 36612491.07892753,-137842943.82721114 42503133.11669996,-131750211.2788295 47565491.01765142,-124660155.40622346 51658246.08886888,-116628766.97279444 54641923.54305173,-107728636.67483225 56380726.290763155,-98049201.4225645 56744444.98315061,-87696798.78017262 55610425.623582326,-76794516.07957211 52865574.09832965,-65481822.375164144 48408375.13322438,-53913973.317251064 42150901.496258624,-42261181.18356759 34020787.76704734,-30707544.711694043 23963141.713906843,-19449736.00590356 11942365.288904702,-8695444.633138278 -2056143.500182144,1338417.9473206399 -18024437.026105594,10427747.282009872 -35930642.08264196,18343498.4819351 -55717790.5791455,24854149.342607632 -77302885.31511201,29728357.427807376 -100576228.2412073,32737790.9927947 -125401037.184832,33660110.110327855 -151613375.17079303,32282070.909064323 -179022414.19659498,28402722.485909943 -207411052.62646806,21836662.860102586 -236536902.25431898,12417317.34756199 -266133657.56330246,200.00000032591998" stroke="white" stroke-width="1.5" /><circle cx="150.12137650011238" cy="203.4817980637104" fill="red" opacity="0.7" r="14.738476308781951" /></svg>