<?xml version="1.0" encoding="utf-8" ?>
<svg baseProfile="full" height="400" version="1.1" width="400" xmlns="http://www.w3.org/2000/svg" xmlns:ev="http://www.w3.org/2001/xml-events" xmlns:xlink="http://www.w3.org/1999/xlink"><defs /><rect fill="black" height="100%" width="100%" x="0" y="0" /><circle cx="200" cy="200" fill="yellow" r="20" stroke="orange" stroke-width="2" /><polyline fill="none" points="198.7317393917893,200.0 198.70785210875374,199.9321681383466 198.69100197085814,199.86218738624186 198.68162488053716,199.79083548107343 198.6800848950964,199.71896099027134 198.68666461985947,199.64747755418804 198.70155596241466,199.5773569356872 198.72485138687895,199.50962088304513 198.75653581016908,199.44533182797565 198.79647928378486,199.3855824565439 198.8444306044373,199.33148420728685 198.9000119948896,199.28415476784605 198.96271499252214,199.24470465865267 199.0318976773063,199.21422300949672 199.10678336301916,199.193762651943 199.18646086560744,199.1843246673044 199.26988645060743,199.18684254601848 199.35588754745132,199.20216612954513 199.44316830237906,199.23104552007476 199.53031702359235,199.27411515614807 199.6158155523249,199.33187826349587 199.6980505717855,199.4046918997614 199.7753268426081,199.4927528190274 199.84588232870024,199.59608438700653 199.90790515142925,199.71452478014768 199.959552283168,199.84771670156513 199.99896986360662,199.9950988434296 200.0243149942228,200.15589931911788 200.03377883821102,200.32913127887295 200.02561082534467,200.51359090988214 199.99814373405061,200.70785800547907 199.94981939678954,200.91029926858826 199.87921475005638,201.11907449158045 199.78506792734052,201.3321457284493 199.66630407262502,201.54728954576188 199.52206053386382,201.7621124063306 199.3517110807558,201.9740692041987 199.15488877942644,202.18048493157963 198.93150714870492,202.37857941813562 198.68177921889912,202.56549504077384 198.4062341146476,202.73832725836832 198.10573078885568,202.89415778092933 197.78146854515478,203.03009013721604 197.43499400196242,203.14328735915012 197.0682041722238,203.23101145619853 196.6833453593757,203.29066430874107 196.28300760203354,203.31982956694662 195.87011443732743,203.31631510148677 195.44790779560665,203.2781955151725 195.0199278872197,203.2038541909699 194.58998799501208,203.09202432249452 194.16214414373496,202.94182834865214 193.74065967932313,202.75281519522045 193.32996485648914,202.52499471345908 192.93461160173075,202.2588686998642 192.559223690016,201.9554578824757 192.2084426463782,201.6163242681689 191.88686975763554,201.24358826252444 191.59900465359362,200.83993999950263 191.34918099048167,200.4086443524979 191.1414998410529,199.95353914157414 190.979761464739,199.47902610383784 190.86739619644686,198.99005425494272 190.80739525296138,198.4920953394729 190.802242310397,197.9911111461377 190.85384675364628,197.49351254991964 190.96347953825554,197.00611023701882 191.13171263557817,196.53605716895916 191.3583630524366,196.09078294878074 191.64244242593603,195.67792036390819 191.9821131916632,195.30522449601608 192.3746523085138,194.98048490683908 192.81642349516207,194.7114315291145 193.30285889118375,194.50563501231258 193.82845099966627,194.3704023920194 194.3867556975393,194.31266906822347 194.9704070147441,194.33888818968123 195.57114428382178,194.4549186473091 196.1798521478072,194.66591297744174 196.7866137869355,194.9762065640615 197.38077758426888,195.38920960600265 197.95103729780655,195.90730337894365 198.48552564303733,196.53174237105532 198.97192101652163,197.26256390387098 199.39756690945575,198.09850686478524 199.7496033719795,199.0369411731907 200.01510969613867,200.07380957739235 200.18125728999803,201.2035833330349 200.23547151967392,202.4192332449781 200.16560110243245,203.71221746270732 199.96009344503133,205.0724873040799 199.60817413983077,206.48851224333862 199.10002865961198,207.94732503702267 198.42698413333042,209.43458777612756 197.58168894202842,210.93467944536653 196.5582877496744,212.4308053417675 195.3525894805675,213.90512845652813 193.96222567586352,215.33892265781594 192.38679660933283,216.7127472301559 190.62800251908786,218.00664203064025 188.68975731995866,219.20034221620898 186.57828220244403,220.27351118277758 184.30217660044337,221.2059900394344 181.87246412267572,221.97806162296737 179.3026111928559,222.5707267435376 176.60851633196285,222.96599004554483 173.80846824251384,223.1471525729545 170.9230711193935,223.0991078500505 167.97513591374053,222.80863803130742 164.98953661440348,222.26470644244787 161.9930309837588,221.45874263336708 159.01404558889118,220.38491589699694 156.0824254023902,219.0403930807467 153.22914870586615,217.42557643310803 150.48600850973673,215.54431719129968 147.88526220036005,213.4041006300756 145.45925163513834,211.01619836027228 143.23999642225579,208.3957837910977 141.2587636382601,205.5620068548264 139.54561774735953,202.53802433813306 138.12895498433377,199.35098247178976 137.03502694130768,196.03194880019888 136.2874585500468,192.61579078379978 135.90676606847367,189.14099907954522 135.90988105529212,185.64945399533005 136.3096866424663,182.18613422053832 137.11457268447793,178.79876759293782 138.3280165686303,175.53742436727129 139.948196605353,172.4540541974596 141.96764497508,169.60196882582014 144.3729471829389,167.0352732817413 147.1444948589744,164.80824922061765 150.2562985354216,162.97469487252718 153.67586673001702,161.58722690938365 157.36415726279128,160.69655036872 161.2756062315889,160.35070358087467 165.35823946822006,160.59428582271082 169.55387059338918,161.46767615328056 173.798388986403,163.00625256298855 178.02214008851578,165.23962117564201 182.15039947142924,168.19086577016125 186.10394103116096,171.87582832371407 189.79969851993832,176.30243160903606 193.15151841412882,181.47005509461513 196.07100084509952,187.36897548686827 198.4684240043406,193.97988320888547 200.25374608757525,201.2734859222802 201.3376774795856,209.2102098598861 201.63281451796848,217.74000924160853 201.05482482692196,226.80229338933484 199.52367289931132,236.32598033682356 196.96487334529525,246.22968474617147 193.31075803792757,256.42204679503953 188.50174228998972,266.8022073916495 182.48757421163475,277.2604336132139 175.22855054494536,287.67889665578167 166.69668156863915,297.9326028396629 156.87678713271015,307.89047634723164 145.76750553677317,317.4165903939352 133.38219682412267,326.3715414660776 119.74972214147844,334.61395912000046 104.91508112581016,342.00214164845437 88.93988983627158,348.39580570513726 71.90268256062964,353.65793576338547 53.899021898613796,357.65671709736733 35.04140286350284,360.2675338429215 15.458938349171234,361.3750116506713 -4.70318481938159,360.87508251748307 -25.28448790379548,358.67704760559786 -46.11022660976491,354.70561226396507 -66.99266543763025,348.9028660854982 -87.73260084112911,341.23017969864844 -108.121130970548,331.66998913241866 -127.94166656198581,320.22743803990755 -146.97217417233514,306.93184784400967 -164.98763948183978,291.8379860050278 -181.76273482823996,275.02710312595025 -197.07467153745688,256.6077105260164 -210.7062140174927,236.71607124228348 -222.4488290296108,215.51637917340946 -232.10594009106399,193.20060326648402 -239.49625364605106,169.98797626815232 -244.45712051688304,146.12411061200186 -246.84789326738405,121.87972748604798 -246.55323752756578,97.54898900219416 -243.48635309459388,73.44742765271053 -237.59205879118986,49.90947185983586 -228.84969367851318,27.285571370039122 -217.27578633358007,5.938931474483837 -202.9264435557119,-13.75812949417545 -185.89941010298236,-31.42817928343132 -166.33575191412962,-46.69300157200823 -144.42111677474048,-59.1782248122787 -120.38652856342185,-68.51821247989199 -94.50867408218681,-74.36117137641764 -67.10964504606767,-76.37442901363096 -38.55610208261058,-74.24982572384772 -9.25783256643976,-67.70916207205926 20.33432022755676,-56.509637476715795 49.73117285127208,-40.44921176170919 78.40857154712211,-19.371817746915156 105.81141798226413,6.827649978316543 131.35834453882876,38.19864718456921 154.44702433679447,74.73067154117122 174.4600922715895,116.34941261013998 190.771644153073,162.9134389329487 202.7542716305748,214.2114994342793 209.7865810831621,269.9605138979994 211.26113515665153,329.8043237064195 206.59274625772983,393.31326934537697 195.227042195941,459.9846553478926 176.64921542653553,529.2441563741738 150.39285912552108,600.4482100155785 116.04878575955155,672.8874326898083 73.27371703541228,745.7910847042842 21.798728264102124,818.3325992608029 -38.562674612245615,889.6361779299194 -107.90697067528447,958.7844420273143 -186.23365998648336,1024.8271154826523 -273.4390483030532,1086.7907003263185 -369.3109083105604,1143.6890909691601 -473.5241427909574,1194.535058168468 -585.6375710901782,1238.3525181277926 -705.0919544137917,1274.189486749984 -831.2093678158503,1301.1316038451876 -963.194017227913,1318.3160972918502 -1100.1345884964392,1324.9460429709181 -1241.008202174317,1320.3047629597309 -1384.6860327873703,1303.770192205002 -1529.9406345349748,1274.8290329176875 -1675.4549969785116,1233.09050646971 -1819.8333343401875,1178.2995048422029 -1961.613590724297,1110.348937889687 -2099.2816210556734,1029.2910690464394 -2231.2869840051717,935.3476307993723 -2356.0602588649663,828.918512458752 -2472.0317734970195,710.5888166269813 -2577.651605379689,581.1340874266323 -2671.41069271518,441.52352310614407 -2751.8628678483983,292.92099817012684 -2817.647601216714,136.68373572407145 -2867.5132210448874,-25.641510710587113 -2900.340352374626,-192.32488509482283 -2915.1652991357196,-361.4625611801371 -2911.203075189245,-530.9886466172732 -2887.8697749652465,-698.6898962834687 -2844.803961833494,-862.2232398002177 -2781.886743030677,-1019.1360935324542 -2699.2601941488992,-1166.8893907256231 -2597.3437941753577,-1302.8832251742413 -2476.848534141231,-1424.484964291195 -2338.7883688368775,-1529.0596470682217 -2184.488691991162,-1614.0024416302974 -2015.591530962889,-1676.7728963692794 -1834.0571774728512,-1714.9306785073275 -1642.1619962846437,-1726.1724549257715 -1442.4921840334678,-1708.369532761049 -1237.9332855570854,-1659.6058421931837 -1031.6553149898787,-1578.2158116211585 -827.0933733618851,-1462.8216566253866 -627.9237032525941,-1312.3695793485751 -438.0351738667231,-1126.164354760155 -261.49624633788966,-903.9017652654813 -102.51752866637366,-645.6983358115409 34.589908070628326,-352.1178185229593 145.46021633157196,-24.193879429401477 225.722160004052,336.5515495810299 271.05183575403714,728.0947724875521 277.2282938574001,1147.9021778285676 240.19155935907943,1592.9278941762661 156.1024910665693,2059.6176707785107 21.403855299720902,2543.919352341104 -167.11806557387763,3041.3002596128003 -412.2720620343879,3546.7717224093844 -716.401562590113,4054.9209392641883 -1081.325994170574,4559.950258424401 -1508.2847892316374,5055.7238889437895 -1997.8849152346907,5535.821958788784 -2550.052817050005,5993.601739921824 -3163.991667644431,6422.265759122816 -3838.1448164080016,6814.936408824691 -4570.166307004989,7164.736565556485 -5356.899307151603,7464.8756158858505 -6194.36325078677,7708.74018230344 -7077.750438402156,7889.988735648533 -8001.4327736591185,8002.649177863319 -8958.979233817225,8041.218380562927 -9943.184578067021,8000.762572646189 -10946.109691901853,7877.0173855002595 -11959.133847658499,7666.486288830708 -12973.019031965543,7366.536085332807 -13977.986350910176,6975.488079829779 -14963.804374301091,6492.703499614981 -15919.889122692965,5918.6617189481985 -16835.415236251396,5255.029833278315 -17699.437694664633,4504.7221389869555 -18501.023283910596,3671.9481033223133 -19229.390830682503,2762.247457607974 -19874.05905073605,1782.511115476105 -20425.00068554845,740.9867072891732 -20872.80143478862,-352.73236764312753 -21208.822032601627,-1487.7353379409467 -21425.36166608803,-2651.8407206716997 -21515.820797129883,-3831.661887376405 -21474.861326423117,-5012.691985242428 -21298.56193373601,-6179.408452360667 -20984.566343503346,-7315.397138220007 -20532.22220227675,-8403.495797410993 -19942.70821655316,-9425.956467928434 -19219.147188221872,-10364.62597777144 -18366.702602228786,-11201.143547328751 -17392.656468764148,-11917.154173169682 -16306.466201769661,-12494.536194465269 -15119.798427976957,-12915.641159708788 -13846.537766838377,-13163.543832274574 -12502.76880203141,-13222.299902415354 -11106.729679758859,-13077.208714472334 -9678.736017450015,-12715.078075390344 -8241.074087869283,-12124.487988190534 -6817.862556770574,-11296.049955980203 -5434.8823953280735,-10222.658332469911 -4119.374959363903,-8899.730057835553 -2899.8086231250586,-7325.429017991703 -1805.6147727829953,-5500.871204619929 -866.8944001985769,-3430.306836058806 -114.09698660037901,-1121.275628539202 422.3261760020778,1415.2685140047352 712.2916156987462,4164.866992875726 726.4731932379942,7109.503607651762 436.70797234276824,10227.59242785744 -183.58551597573114,13494.00932745627 -1158.980998863385,16880.169716410608 -2511.614954187403,20354.15459865987 -4260.759008121677,23880.886627351763 -6422.399696442899,27422.357318169838 -9008.831322601438,30937.906022998854 -12028.267867074434,34384.55066267415 -15484.480064719792,37717.36957366029 -19376.463863844387,40889.93314450703 -23698.146506904734,43854.78320993481 -28438.13642310517,46563.95744026815 -33579.52299318524,48969.555219267226 -39099.73203263484,51024.340752499724 -44970.44253847016,52682.37840016057 -51157.56985446451,53899.69449218354 -57621.31992924371,54634.95916956565 -64316.31877085205,54850.181114401705 -71191.82054133093,54511.407392863046 -78191.99698776203,53589.42005108218 -85256.31007556952,52060.420584501204 -92319.96878039412,49906.692957520674 -99314.47001258556,47117.23549283556 -106168.22260064173,43688.35168888389 -112807.25215541391,39624.18986907837 -119155.98348554007,34937.22152697943 -125138.09604752524,29648.648315505336 -130677.44670357811,23788.727842883854 -135699.05284017586,17397.008789432202 -140130.1276849628,10522.466352161087 -143901.1584643572,3223.5296620183417 -146947.01688540954,-4432.00639693485 -149208.09031987682,-12367.191605912323 -150631.42103344455,-20496.258630673234 -151171.839856171,-28725.093387515528 -150793.0798492301,-36951.84054874775 -149468.85480542004,-45067.64569944555 -147183.88684390372,-52957.53405834742 -143934.8669398439,-60501.42397078068 -139731.33198272815,-67575.27158463832 -134596.44189791635,-74052.34124784908 -128567.64050759545,-79804.59423572908 -121697.18416156172,-84704.18644922062 -114052.52274492838,-88625.06374229767 -105716.51847669749,-91444.64156238592 -96787.48895549901,-93045.55364661677 -87379.06218952117,-93317.45263550123 -77619.83286675655,-92158.84367158194 -67652.81087622869,-89478.93037194521 -57634.655074801194,-85199.4510287698 -47734.68749819218,-79256.48153009497 -38133.68562621003,-71602.18033218868 -29022.452914958067,-62206.449883254434 -20600.170583162057,-51058.488222606524 -13072.53656294026,-38168.204085482495 -6649.700570791512,-23567.468755064445 -1544.0073926626724,-7311.178141630124 2032.436325170497,10521.900847026734 3870.353265792281,29828.52463378852 3766.022890863415,50480.63166868884 1524.1202762250837,72325.28746026698 -3039.361593104018,95184.93581800204 -10094.13690657506,118857.97370437012 -19792.633050892364,143119.6642350465 -32267.013619793397,167723.39913334756 -47626.25666428323,192402.31835544857 -65953.3283143005,216871.29067697513 -87302.49340690409,240829.25479553032 -111696.80584305557,263961.9159895362 -139125.82202348128,285944.7886189761 -169543.58084539406,306446.5698012253 -202866.8933411116,325132.82449355454 -238973.984076201,341669.9570165685 -277703.52487297804,355729.43881800014 -318854.0992649211,366992.257066571 -362184.1333049344,375153.54354754876 -407412.3249384072,379927.33837495756 -454218.6001107741,381051.43831260025 -502245.61911726237,378292.27508163394 -551100.8514357599,371449.76500183664 -600359.2314375269,360362.0677428705 -649566.4009786698,344910.18892598135 -698242.537980805,325022.3588892245 -745886.7627643523,300678.1181814791 -791982.10616361,271912.03934946447 -836001.0153992688,238817.01439011894 -877411.3653901641,201547.03791468553 -915682.9347390132,160319.41766026797 -950294.297121284,115416.34653097074 -980740.0703442498,67185.77388648866 -1006538.4570328818,16041.518343425214 -1027239.0028539266,-37537.43007514059 -1042430.4905273159,-93008.46401400228 -1051748.8807159127,-149767.8070554412 -1054885.2043532277,-207153.8855731611 -1051593.3051874773,-264451.6440368212 -1041697.3264114156,-320897.81322570157 -1025098.8313300685,-375687.1295874931 -1001783.4452081559,-427979.4920259188 -971826.9038447415,-476908.02981867135 -935400.3941455102,-521588.04226939194 -892775.073095175,-561126.7572123163 -844325.654153635,-594633.8417579392 -790532.954277284,-621232.5848466551 -731985.3005531855,-640071.6574308254 -669378.7028646886,-650337.3426100927 -603515.7081001458,-651266.1149847418 -535302.8621697788,-642157.4360590206 -465746.7184870401,-622386.6209173889 -395948.34555551346,-591417.6208112037 -327096.3018131988,-548815.5569315642 -260458.06283228318,-494258.8327044198 -197369.9042395209,-427550.6456205955 -139225.26317130247,-348629.71509296104 -87461.6215456821,-257580.04029261635 -43545.97573467047,-154639.50151991614 -8958.97914476047,-40207.120562857344 14822.13346898066,85151.20018512232 26341.708671201,220698.63322506833 24184.770382719707,365525.23998087883 6996.87375570117,518547.79512737703 -26495.479841779124,678511.7581488759 -77464.08363401177,843995.5115212256 -146958.1577672201,1013416.9647127521 -235883.62604395492,1185042.6004152123 -344982.80510468275,1356999.01415538 -474814.78693882714,1527286.9708487855 -625736.8058140395,1693797.9721279137 -797886.8879817441,1854333.2966331798 -991168.0865622238,2006625.4421623657 -1205234.6045672945,2148361.8639363507 -1439480.1058424078,2277210.8675970044 -1693028.5065923834,2390849.479282834 -1964727.5289204812,2486993.0786387203 -2253145.282323423,2563426.54434728 -2556570.1192528503,2618036.626186616 -2873013.9866324165,2648845.2232113215 -3200219.4666168867,2654043.2149276086 -3535670.6669571064,2632024.461808335 -3876608.0842132475,2581419.563697488 -4220047.521918933,2501128.9401145275 -4562803.100883009,2390354.775710201 -4901514.350430003,2248631.3576587206 -5232677.31789465,2075853.320088894 -5552679.57953219,1872301.3042243295 -5857838.9796804795,1638664.5421522404 -6144445.867067226,1376059.877461447 -6408808.53820812,1086046.7477231205 -6647301.538555543,770637.6722166302 -6856416.413148736,432303.8136458874 -7032814.440740471,73975.21499824568 -7173380.829530538,-300964.6477640983 -7275279.799543406,-688690.3098329667 -7336009.927193883,-1084952.0174846218 -7353459.082545265,-1485099.8823046347 -7325958.250039149,-1884114.6211907202 -7252333.489915028,-2276644.9404837624 -7131955.2709703045,-2657051.5438194405 -6964784.386537572,-3019457.6595137217 -6751413.655331336,-3357805.8952010376 -6493104.607839695,-3665921.1358407866 -6191818.367840623,-3937579.1070007235 -5850239.957958093,-4166580.1295124455 -5471795.288398021,-4346827.495258532 -5060660.129471765,-4472409.798156674 -4621760.421463319,-4537686.460587012 -4160763.339934328,-4537375.604856861 -3684058.610663449,-4466643.3331525065 -3198729.655910723,-4321193.399164465 -2712514.252257628,-4097356.1815819982 -2233754.4894154426,-3792175.8053311473 -1771335.9384684009,-3403494.202157439 -1334616.06620929,-2930030.859279841 -933342.0685472076,-2371456.9746602923 -577558.4392726481,-1728462.7211728154 -277504.7394343711,-1002816.3207480079 -43504.18574615051,-197413.64443983114 114156.16782790211,683682.913799041 185352.72462694725,1635217.492297327 160259.02986050755,2650726.8806356946 29484.606718008243,3722540.750753885 -215782.44159588768,4841796.94321762 -583630.5892837109,5998472.627561277 -1081279.460374415,7181432.013015459 -1714935.589959567,8378491.125358278 -2489651.252206922,9576499.987889122 -3409188.3208686765,10761442.350675706 -4475889.197186088,11918552.903600747 -5690556.888600196,13032451.68694219 -7052346.347521087,14087295.180133699 -8558669.180746952,15066943.30711725 -10205113.81530091,15955141.347715586 -11985383.154025447,16735715.491365798 -13891251.6730435,17392780.51523774 -15912543.802246498,17910957.816299107 -18037135.288688324,18275601.779539853 -20250979.07088122,18473032.22575965 -22538156.989590134,18490770.455591347 -24880958.428284805,18317776.19541118 -27259986.714805342,17944682.559152845 -29654293.826341443,17364025.97147566 -32041543.62423993,16570467.85588289 -34398203.50562633,15561004.779797083 -36699763.99796578,14335163.670688365 -38920985.44356883,12895178.676349845 -41036170.52714649,11246146.2412951 -43019460.9947629,9396155.012709752 -44845156.50122023,7356387.275752732 -46488053.10972377,5141188.751208762 -47923798.557622954,2768103.770020784 -49129261.00043176,257873.0700598464 -50082907.55874216,-2365608.2589526284 -50765188.62483661,-5075374.826325137 -51158923.54366832,-7841518.752120195 -51249682.972393125,-10631362.578511827 -51026162.94978021,-13409678.1481078 -50480545.477531195,-16138951.802742658 -49608840.235543475,-18779695.70360653 -48411201.92803254,-21290804.486396108 -46892217.69239239,-23629955.848447677 -45061159.00256643,-25754053.02423223 -42932192.56786742,-27619706.4475264 -40524544.870414056,-29183751.230048843 -37862615.202753626,-30403796.41496065 -34976032.364210725,-31238801.297561586 -31899650.55161119,-31649673.453390777 -28673480.43794114,-31599882.4848147 -25342551.970945433,-31056082.900427774 -21956706.041332867,-29988738.986787003 -18570312.86476425,-28372744.028868105 -15241915.689657614,-26188025.793880325 -12033799.279420912,-23420129.822328445 -9011483.517200308,-20060771.77981484 -6243143.4366476275,-16108349.922041629 -3798957.9854164133,-11568408.622278707 -1750390.869818016,-6454043.913049048 -169407.89892597887,-786242.1089919164 872363.6670136977,5405857.188081211 1304527.1681266772,12084782.042983433 1058852.3187530246,19204640.955170237 70245.96704368622,26711134.680424128 -1722251.9173826664,34541673.59842159 -4374457.753593266,42625606.24035847 -7936030.982790989,50884563.58413142 -12449470.265816053,59232922.593152545 -17949132.40058739,67578391.22443905 -24460287.71477401,75822715.76976459 -31998226.157427505,83862509.92982721 -40567428.63622576,91590203.4670197 -50160818.31057476,98895106.6506949 -60759106.542410456,105664585.01496318 -72330248.01471144,111785337.20993203 -84829019.1425757,117144766.96150073 -98196733.31508948,121632438.38255897 -112361105.71190543,125141602.1212825 -127236279.43244843,127570778.1130867 -142723023.45630103,128825379.04559213 -158709111.5214777,128819357.07545565 -175069889.3665451,127476854.8774558 -191669035.9393411,124733840.78547235 -208359522.1387038,120539706.62756857 -224984768.43860227,114858805.88866493 -241380000.36179906,107671909.07893571 -257373798.2412723,98977552.6677727 -272789835.0536822,88793257.68425226 -287448793.3549033,77156594.10613869 -301170449.5204925,64126067.47899945 -313775910.6243319,49781804.84106292 -325089986.4093451,34226017.99115753 -334943675.95036274,17583223.436429877 -343176745.8180528,200.00000042027054" stroke="white" stroke-width="1.5" /></svg>