<?xml version="1.0" encoding="utf-8" ?>
<svg baseProfile="full" height="400" version="1.1" width="400" xmlns="http://www.w3.org/2000/svg" xmlns:ev="http://www.w3.org/2001/xml-events" xmlns:xlink="http://www.w3.org/1999/xlink"><defs /><rect fill="black" height="100%" width="100%" x="0" y="0" /><circle cx="200" cy="200" fill="yellow" r="20" stroke="orange" stroke-width="2" /><polyline fill="none" points="198.54668253813986,200.0 198.5588156423572,199.92434440467153 198.5811671852731,199.8506238708308 198.61386270271845,199.78008479023012 198.65689820505605,199.71402403305066 198.7101312469541,199.65377641196912 198.7732731114446,199.6007008417412 198.84588227979887,199.55616527934814 198.9273593542346,199.5215305506252 199.01694359356893,199.4981331902473 199.11371121257994,199.48726744272562 199.21657558398186,199.49016659240453 199.32428946754194,199.50798381005637 199.43544937397587,199.54177272225766 199.54850215189734,199.59246792699903 199.6617538643398,199.66086569462496 199.7733809973274,199.74760510691743 199.8814440167899,199.85314989863056 199.98390326197946,199.97777127475686 200.0786371336706,200.12153198298145 200.16346250406767,200.28427192389466 200.23615724279307,200.46559558133973 200.29448471991452,200.66486155155417 200.3362201130435,200.8811744423296 200.35917831149106,201.11337940210976 200.36124317671522,201.3600595236504 200.34039788527707,201.61953634750265 200.29475604869774,201.88987366711982 200.22259327445548,202.1688848098443 200.1223788043638,202.45414353647752 199.99280684122414,202.74299866669193 199.83282715244084,203.03259249839388 199.64167452070865,203.31988304652677 199.41889659740988,203.60167008101305 199.16437970444173,203.87462489492958 198.8783721252645,204.13532368300912 198.56150442641345,204.38028435763496 198.2148063569063,204.6060065751769 197.83971988520884,204.80901469038545 197.43810795195114,204.98590330125003 197.01225854160157,205.13338499191207 196.56488370793286,205.24833982762013 196.09911322640048,205.32786610406882 195.61848259146961,205.36933180455196 195.12691512835875,205.37042617297243 194.62869804640908,205.32921076968861 194.12845232504816,205.24416934124102 193.63109639269868,205.11425580498138 193.14180363350712,204.93893962629116 192.66595383584388,204.71824785016622 192.20907877948412,204.45280304115104 191.77680224443841,204.14385638657424 191.37477481270614,203.79331522833914 191.0086039238217,203.4037643086565 190.68377973492733,202.97848004548032 190.40559742513395,202.52143719432783 190.1790766709647,202.03730730483133 190.0088791034912,201.53144844285652 189.8992246371183,201.00988572227982 189.85380763355772,200.47928227435366 189.87571393105847,199.94690037666965 189.96733982712453,199.42055256757325 190.13031415147248,198.90854268484807 190.36542460360735,198.41959688878168 190.67254955493087,197.96278485839724 191.05059652761048,197.54743148457604 191.49744856049648,197.1830195237519 192.00991965524207,196.87908381941918 192.58372046265825,196.64509784431993 193.21343531955722,196.49035346218997 193.8925116794149,196.4238349525542 194.61326289579202,196.4540884833814 195.36688521548143,196.58908835245276 196.14348971888006,196.8361014470267 196.9321498084393,197.2015514907005 197.72096469277005,197.69088475416302 198.49713914486617,198.30843900068962 199.24707962900214,199.05731751566657 199.95650669345764,199.93927013011748 200.6105833168704,200.95458318919646 201.1940586765298,202.10198043608145 201.69142657934208,203.37853677796457 202.0870975628164,204.77960687238516 202.36558343675472,206.29877041768503 202.51169279909826,207.92779594981903 202.510735824506,209.65662483833037 202.34873639479363,211.4733770364879 202.0126494195627,213.36437997420362 201.49058098652688,215.31422178755068 200.7720087875924,217.30582985601117 199.84800009211162,219.32057536889974 198.71142438633228,221.33840436703005 197.35715767129764,223.33799540632486 195.78227531360673,225.2969436688307 193.98623027767255,227.19197100602028 191.9710135373885,228.99916104228888 189.74129347215487,230.69421809651743 187.30453109947268,232.25274830021863 184.67106808588625,233.65056090618944 181.85418461166574,234.8639873962085 178.87012434355952,235.87021561487114 175.73808399501416,236.647635784166 172.48016522475766,237.17619489509303 169.12128694228934,237.43775563391495 165.6890564517686,237.4164556870463 162.21359827255023,237.0990629857037 158.727339923064,236.4753222048369 155.2647544420798,235.53828762603962 151.86205994419117,234.28463731644086 148.55687706044924,232.71496347012257 145.38784569570026,230.8340337102103 142.39420313586237,228.65101816286256 139.6153261550606,226.17967719289547 137.09024039754541,223.43850483813023 134.85710093543506,220.45082319852037 132.95264852283077,217.24482332877113 131.411646671607,213.8535485508081 130.26630525566156,210.3148165455267 129.54569689983313,206.67107710130495 129.27517291807203,202.9692029883631 129.4757860237122,199.26021209077248 130.16372743377457,195.5989196582719 131.34978632021523,192.0435203334876 133.03883981522785,188.65510046102546 135.22938194681726,185.49708208647573 137.91309995707772,182.63460099781963 141.07450643176128,180.1338221401779 144.69063553940927,178.06119673739659 148.73081143602337,176.48266646977314 153.1564965324987,175.4628210745292 157.9212268434782,175.0640167418881 162.97064103585762,175.34546366155305 168.2426090721677,176.36229201816207 173.66746549927882,178.16460662562548 179.1683514686617,180.796541214525 184.66166849478995,184.29532412923206 190.0576457688886,188.69036783736442 195.26102155356125,194.00239518915163 200.1718377990854,200.24261577412926 204.6863456553397,207.41196599384872 208.69801801717765,215.500426589329 212.09866365003785,224.48643131914775 214.77963581282143,234.33638026802296 216.6331266442305,245.004270867536 217.5535369259872,256.4314591230611 217.43890920206215,268.5465627586152 216.19241063880688,281.2655170109203 213.72385047922143,294.4917926243957 209.95121549873633,308.11678422143234 204.80220553358447,322.0203756509983 198.2157499500425,336.0716871599809 190.1434848774355,350.13000729498526 180.55117016336774,364.0459103397799 169.42002434904825,377.66255784022144 156.74795552767534,390.8171803822816 142.55066576016705,403.3427332904795 126.86260679891276,415.06971732719484 109.73776522845957,425.8281528242537 91.2502557865788,435.4496929956032 71.49470259166273,443.76985949498714 50.5863892815417,450.6303806285258 28.661160669879024,455.8816100440713 5.875060450933489,459.3850012338012 -17.596308270598428,461.0156108414894 -41.55871028714557,460.6646015998444 -65.80050123082492,458.24171377516916 -90.0941507948695,453.67767230520553 -114.19806745514205,446.9264954195957 -137.85872224591327,437.96766946810294 -160.8130652619667,426.80815398499897 -182.7912244957273,413.48418072220835 -203.5194724119538,398.06281051937685 -222.7234413563201,380.6432124732321 -240.1315645348414,361.35763094476533 -255.47871493922486,340.3720075197592 -268.5100102829441,317.88622712994993 -278.98474781124804,294.13396015711237 -286.68042881495603,269.38207548308884 -291.39682887419195,243.92960311140695 -292.96006634693384,218.10622916001023 -291.2266184615722,192.2703106921423 -286.08723163577923,166.80640298847695 -277.4706703878841,142.12229743576847 -265.34724749194953,118.64557417542598 -249.73207691144654,96.81967997180531 -230.68799058277102,77.09954836939656 -208.3280603583462,59.94678604787589 -182.81766740378526,45.82445628452615 -154.3760631122576,35.19149751849338 -123.2773681823166,28.49682209825704 -89.85095992546115,26.173147294515957 -54.48120214005465,28.630617482569363 -17.606477012850036,36.25028294438002 20.282515518380933,49.37750691089272 58.64521870517433,68.31537815798606 96.89446039213375,93.31821158179531 134.40048668081175,124.58522360863131 170.49579057952462,162.2544729404754 204.48072865242472,206.39715990121604 235.6299084049171,257.0123794379847 263.1993183925881,314.02242355859056 286.43416191921574,377.2687285699406 304.5773438096153,446.5085608521167 316.87854822929853,521.412531997405 322.60383400947086,601.563029913868 321.0456625659549,686.4536469027507 311.5332624253337,775.4896787468122 293.44322374839106,867.9897604865007 266.2102062322614,963.1886948239733 229.33763454423007,1060.2415180101093 182.40824715891358,1158.2288356846009 125.09435730303659,1256.1634475208548 57.16767882197661,1352.9982647626332 -21.491434671520153,1447.6355089350527 -110.88549187194332,1538.9371632956968 -210.89226272042686,1625.736631108976 -321.2582291266882,1706.8515367449484 -441.5932396918678,1781.0975871069113 -571.3665158773997,1847.30339218318 -709.9041501379853,1904.3261248155138 -856.388227398056,1951.0678813130726 -1009.857689866288,1986.4925865622456 -1169.2110515429924,2009.6432700452901 -1333.2110528991689,2019.659522948539 -1500.491328141511,2015.7949315833534 -1669.5651373027831,1997.4342689313296 -1838.8361932213884,1964.1102145299728 -2006.6115894395457,1915.5193634020836 -2171.1168093309375,1851.5372775591857 -2330.512769572605,1772.2323290224983 -2482.914822642591,1677.878081534517 -2626.4136136241455,1568.9639593907496 -2759.0976565310693,1446.2039562918824 -2879.0774649659916,1310.5431449611103 -2984.511041539773,1163.1617596179804 -3073.630500495378,1005.4766383423981 -3144.76956879286,839.1398309552287 -3196.391682940275,666.0342002984559 -3227.1183725278565,488.26587068672814 -3235.7575971771257,308.1534067444665 -3221.331681893878,128.21363871014748 -3183.104477053696,-48.855913597047305 -3120.6073538820638,-220.1980268259873 -3033.663634737427,-382.8201369790768 -2922.4110501632604,-533.622001708399 -2787.3218119180187,-669.4265383481606 -2629.219893361244,-787.0136662012626 -2449.295115972956,-883.1569327207849 -2249.113653669943,-954.66265381726 -2030.6245851641702,-998.4112491588626 -1796.162149035386,-1011.4004046312232 -1548.4433865496396,-990.7896467366127 -1290.5608935679,-933.9458683165064 -1025.9704451009281,-838.489302274618 -758.4733040481605,-702.3394006713468 -492.19307919917105,-523.7600413713467 -231.54705638258463,-301.4034540674918 18.788009659734655,-34.35223267792844 253.9155869809381,277.8412175025834 468.76441404270594,635.1184612725378 658.1387003378024,1036.8827112826284 816.773199391424,1481.9710660264338 939.3927940605316,1968.6319597719869 1020.7761537567505,2494.5084549840735 1055.8229430240208,3056.6279773671854 1039.6239818113868,3651.3990537374175 967.5336808517014,4274.615563367199 835.2440018905454,4921.468954212183 638.8591232411112,5586.56880661263 374.9699274264144,6263.9720488772755 40.72737067459616,6947.2210419510275 -366.086255084737,7629.390654620017 -846.9891971767345,8303.144347036803 -1402.7363135260916,8960.799169514481 -2033.260418639186,9594.399466440835 -2737.6199891333254,10195.798952838153 -3513.9543073351083,10756.750704713691 -4359.447101240229,11269.004475211883 -5270.299704377316,11724.410618109949 -6241.714709312578,12115.029769934037 -7267.891023277402,12433.247313541018 -8342.03115347715,12671.89152113617 -9456.361453003277,12824.35415517053 -10602.165946071596,12884.712193227011 -11769.834223901067,12847.849239742383 -12948.923760497295,12709.575095115688 -14128.236841697462,12466.741873302855 -15295.912132081907,12117.354994243293 -16439.530724001357,11660.677329197146 -17546.236322472883,11097.324746993336 -18602.869020753667,10429.351298895926 -19596.111915920486,9660.32229073806 -20512.649603878806,8795.37352443815 -21339.337381219433,7841.255048093773 -22063.37976972361,6806.357835415015 -22672.516770752183,5700.721921938125 -23155.216054039538,4536.024657606275 -23500.869091459896,3325.5478929783476 -23699.98906414404,2084.1230992781448 -23744.408203954736,828.0536301422615 -23627.47208084855,-424.9864356646726 -23344.228219124267,-1656.0771774108507 -22891.606320983148,-2845.2014735628004 -22268.58729810769,-3971.4171395696367 -21476.358263873975,-5013.051990952959 -20518.450622925244,-5947.920936809272 -19400.85841350898,-6753.563874708053 -18132.134113300723,-7407.502816752421 -16723.459213164544,-7887.516332029787 -15188.686996850272,-8171.9290468802665 -13544.35513899376,-8239.9136056783 -11809.665949546628,-8071.802165710422 -10006.432349993765,-7649.404184977297 -8158.98796500487,-6956.32696622927 -6294.060051547421,-5978.295149225992 -4440.60436443766,-4703.465101087168 -2629.6014707192207,-3122.729946641673 -893.814472434708,-1230.0108117609827 732.4914250083402,977.4702725048961 2213.866557479535,3498.940434096546 3514.0301921159075,6329.853646023199 4596.257651740826,9461.70065620487 5423.798608154076,12881.855691567116 5960.323418857567,16573.46431303737 6170.393823276238,20515.376579508553 6019.9537644416705,24682.12939389112 5476.835567833959,29043.981552172147 4511.276198329824,33567.00459681268 3096.437836912093,38213.23208955151 1208.9265790262657,42940.869367330306 -1170.6973356595236,47704.56523110754 -4057.424688752949,52455.74634423179 -7461.325043353712,57143.01438922657 -11387.104499955434,61712.60525465209 -15833.700971960283,66108.90870356775 -20793.924542332254,70275.04611929867 -26254.15040898365,74153.50304100424 -32194.071775562006,77686.81230008947 -38586.51979176426,80818.28265878954 -45397.357289490625,83492.76694506577 -52585.452595459385,85657.46278471741 -60102.7391259056,87262.73816439716 -67894.36578451926,88262.97323055139 -75898.94239201651,88617.40895206858 -84048.88347729646,88290.99256173443 -92270.85276011989,87255.20905665499 -100486.30955927976,85488.88749370725 -108612.15717553721,82978.97037568213 -116561.49203396574,79721.23409951734 -124244.45103615127,75720.9482416815 -131569.15318088085,70993.46139838433 -138442.73007598688,65564.70138987889 -144772.438498776,59471.57788750929 -150466.8466842575,52762.275936827304 -155437.084546709,45496.429435959035 -159598.1465895997,37745.16438962298 -162870.23485115994,29591.002698053104 -165180.12788828154,21127.61835681767 -166462.5605409595,12459.439236107899 -166661.59806441146,3701.089072259741 -165731.98718779068,-5023.334066694008 -163640.46577834594,-13581.144794971447 -160367.0120788045,-21832.122927493445 -155906.01396386814,-29629.729469814654 -150267.33834817455,-36822.48187590938 -143477.28079071819,-43255.48210647801 -135579.3754958117,-48772.088685543444 -126635.04632250624,-53215.72157130683 -116724.08009502834,-56431.78625500889 -105944.90446579595,-58269.701107418114 -94414.65382665554,-58585.00963686641 -82269.00829673641,-57241.55703734776 -69661.79263703723,-54113.70822323022 -56764.32404922982,-49088.58250267936 -43764.500202089024,-42068.27816958501 -30865.621482432172,-32972.05862845337 -18284.944373377413,-21738.470242949636 -6251.9660018626155,-8327.360950434873 4993.556753716068,7278.232155325279 15203.846673793132,25070.358571996156 24125.593522380077,45014.62589848097 31502.67488651205,67048.89927624766 37079.09225922032,91082.26025222767 40602.10019133677,116994.2554365746 41825.50244828949,144634.46375923223 40513.08528258717,173822.40909652348 36442.15422277979,204347.84253710843 29407.13723920339,235971.4155853558 19223.2138311656,268425.7621649632 5729.926545708061,301417.0033982291 -11205.271258737032,334626.6848147612 -31683.579893423783,367714.15091231547 -55771.58040877936,400319.35688333976 -83498.17594800281,432066.11187184555 -114851.79988003647,462565.7423815136 -149777.9434073222,491421.15846918203 -188177.05490186255,518231.29918621667 -229902.8621016654,542595.9274381552 -274761.1664671189,564120.7380906922 -322509.1564283758,582422.7368329894 -372855.2829330859,597135.8410977804 -425459.7366197267,607916.6483162036 -479935.56109501346,614450.3110412114 -535850.4311937204,616456.4530969841 -592729.1187648682,613695.0559944549 -650056.6614893671,605972.240486728 -707282.2425309534,593145.8644141204 -763823.780506449,575130.8549961433 -819073.2203949051,551904.1915531087 -872402.5066618191,523509.45336509316 -923170.2101386166,490060.8470768782 -970728.7701636046,451746.6288031603 -1014432.3032636959,408831.83793961554 -1053644.9193506525,361660.2626933096 -1087749.4761442184,310655.56155043904 -1116156.692448059,256321.47032840998 -1138314.5311301127,199241.03112725183 -1153717.7533391353,140074.7874023241 -1161917.5367704176,79557.89851087175 -1162531.042824625,18496.137407587496 -1155250.8104336332,-42239.25336967474 -1139853.8483044405,-101717.85973951938 -1116210.2925018198,-158957.54692060576 -1084291.4927921202,-212933.04742940882 -1044177.3891374378,-262585.655382014 -996063.0392847053,-306833.9804150639 -940264.1596498386,-344585.6982262459 -877221.5447513731,-374750.21811083093 -807504.235383533,-396252.17112384207 -731811.3125996616,-408045.60582754674 -650972.2034487707,-409128.76220357744 -565945.3952927727,-398559.27844141447 -477815.4684299825,-375469.6701917921 -387788.37163550005,-339082.907732868 -297184.882049358,-288727.90358044056 -207432.20951913032,-223854.71162378238 -120053.72592693356,-144049.2291263959 -36656.822064499436,-49047.18513180903 41081.081902033955,61252.80681446146 111428.32160912234,186777.35695910282 172616.49279430092,327267.7946414219 222859.5716708023,482271.2744807772 260374.52131283787,651133.7122964452 283403.2267738437,832994.7615105042 290235.57458133466,1026785.0295259077 279233.4656526687,1231225.7190780146 248855.52491902738,1444830.8617921222 197682.2464071026,1665912.2901439543 124441.28959618855,1892587.4697571613 28032.621935492672,2122790.2865674454 -92446.81613324172,2354284.8529676264 -237679.26305839384,2584682.3637981713 -408103.4569661536,2811460.9971876317 -603893.4864068803,3031988.817048065 -824939.5372834101,3243549.5938108345 -1070830.9031445687,3443371.41811231 -1340841.6224850027,3628657.939018332 -1633919.098389419,3796622.0144628165 -1948676.0425806418,3944521.517363142 -2283386.0675082477,4069696.9968930767 -2635983.226432732,4169610.851205672 -3004065.772461478,4241887.626093846 -3384904.3731818683,4284355.014268216 -3775454.977985187,4295085.092749631 -4172376.490522895,4272435.301955126 -4572053.349198841,4215088.640042249 -4970623.064466112,4122092.520602584 -5364008.70333064,3992895.7214812655 -5747956.249308356,3827382.837944311 -6118076.70065869,3625905.6451864834 -6469892.701618292,3389310.773794579 -6798889.431254153,3118963.107731228 -7100569.403182574,2816764.3280992103 -7370510.757561796,2485166.0477337823 -7604428.555325004,2127177.011822146 -7798238.514492283,1746363.8784500177 -7948122.560544384,1346845.1403159546 -8050595.498255154,933277.8048252421 -8102572.0520859575,510836.51425729913 -8101433.467280238,85184.86046370941 -8045092.815202861,-337561.27075551 -7932058.105275658,-750878.4023015702 -7761492.273078275,-1147888.1971499636 -7533269.090781128,-1521418.0990008435 -7248024.032975654,-1864069.6563275862 -6907199.129019153,-2168294.1931917183 -6513080.842987536,-2426475.376208348 -6068830.044904816,-2631018.1110324264 -5578503.172656426,-2774443.085000051 -5047063.733330231,-2849486.156504034 -4480383.355962742,-2849201.677798673 -3885231.684942495,-2767068.727777347 -3269254.494616187,-2597099.1264679935 -2640939.510760143,-2333946.0052083116 -2009569.5431381257,-1973011.6173810086 -1385162.6647911058,-1510552.9958999418 -778399.3172231413,-943783.9970161587 -200536.3752841555,-270972.21709527954 336691.62987393484,508470.76861967944 821183.7582578585,1393907.4171110976 1240595.8272902104,2383402.053116732 1582474.7599287818,3473660.086954001 1834403.1891530391,4659980.135316933 1984153.2036418926,5936220.507125253 2019847.9309537539,7294781.435799716 1930129.4695943743,8726604.336041583 1704331.5025626526,10221189.23708342 1332654.7549338692,11766631.395493228 806343.2994755612,13349677.91928064 117859.56993412013,14955805.041901683 -738944.1857726978,16569316.470726611 -1768660.3879501915,18173463.000892714 -2974169.0039968244,19750583.33379726 -4356491.345144057,21282265.771724883 -5914657.335655409,22749530.178498324 -7645588.812717853,24133029.303169042 -9544001.38732549,25413268.262511652 -11602327.335179662,26570840.671645653 -13810661.89053857,27586679.603935186 -16156735.183908518,28442321.25513945 -18625911.895712562,29120178.88654039 -21201220.492241096,29603824.33159486 -23863413.66735924,29878274.07482702 -26591061.334165256,29930276.654593963 -29360677.196088303,29748597.907464053 -32146879.578333404,29324300.365720395 -34922586.82018774,28651012.945350427 -37659247.11910401,27725186.92412367 -40327102.28180203,26546334.112150326 -42895484.37956929,25117243.06456814 -45333143.82867686,23444169.18136911 -47608606.92707834,21536994.58612502 -49690560.38050465,19409353.77636058 -51548259.85036171,17078721.195939712 -53151959.05851272,14566457.095894422 -54473355.49651444,11897808.32587469 -55486048.31588928,9101861.034392603 -56166003.528521255,6211442.6521321125 -56492021.2294018,3262970.9878944866 -56446199.17497052,296248.77955226117 -56014386.71642687,-2645797.389840662 -55186622.80583035,-5517434.281264995 -53957551.57054849,-8270495.098047283 -52326808.795400195,-10854807.588101398 -50299372.56803557,-13218675.49977081 -47885871.337600425,-15309410.966392841 -45102842.71484372,-17073914.59843567 -41972936.508192725,-18459299.25252177 -38525055.74876759,-19413552.633026965 -34794429.81079649,-19886233.074082594 -30822614.184386328,-19829192.05814049 -26657412.006001487,-19197316.26272886 -22352713.098038774,-17949281.200945448 -17968247.01105302,-16048307.8452251 -13569247.397712214,-13462913.009736115 -9226025.97227888,-10167643.726184962 -5013455.317814347,-6143785.392501466 -1010360.8884352666,-1380033.11520619 2701176.2925387803,4126884.5848349896 6036603.525592134,10371640.666760422 8909762.946650907,17339814.033399034 11233835.390297575,25007474.403207358 12922355.021776395,33340858.15549886 13890286.83301927,42296145.290375724 14055157.78571139,51819347.06662404 13338231.09895579,61846313.14500439 11665711.938172707,72302866.16946806 8969971.583896967,83105070.66531521 5190776.062989508,94159641.923687 276504.22957068303,105364499.1806289 -5814660.592145893,116609465.8930734 -13113582.027061129,127777118.27248791 -21639082.33302759,138743781.47098884 -31396931.95533129,149380670.93802616 -42378934.769282565,159555174.4942675 -54562126.83238781,169132268.6212244 -67908106.25014336,177976060.36078304 -82362511.30857907,185951444.08059865 -97854663.3321762,192925860.2135593 -114297389.7800697,198771140.94834077 -131587041.8914432,203365425.76107505 -149603719.73051426,206595127.66423786 -168211715.76337826,208356929.13803875 -187260186.12730542,208559784.9324557 -206584056.5354585,207126907.31574574 -226005167.30751094,203997707.9288298 -245333659.34408695,199129669.21514958 -264369599.98880932,192500117.46240306 -282904844.6683336,184107868.84480983 -300725126.9939621,173974719.51935074 -317612366.67798626,162146750.83194843 -333347181.1968799,148695421.0523388 -347711583.65840364,133718415.7990785 -360491845.84012824,117340230.45491579 -371481501.90540993,99712459.42003816 -380484464.91421753,81013769.01453458 -387318224.9776391,61449533.22532082 -391817094.804959,41251114.295199245 -393835465.51083565,20674773.36585312 -393251032.9377253,200.00000048159387" stroke="white" stroke-width="1.5" /></svg>