<?xml version="1.0" encoding="utf-8" ?>
<svg baseProfile="full" height="400" version="1.1" width="400" xmlns="http://www.w3.org/2000/svg" xmlns:ev="http://www.w3.org/2001/xml-events" xmlns:xlink="http://www.w3.org/1999/xlink"><defs /><rect fill="black" height="100%" width="100%" x="0" y="0" /><circle cx="200" cy="200" fill="yellow" r="20" stroke="orange" stroke-width="2" /><polyline fill="none" points="198.52652660992777,200.0 198.51062508793743,199.9218146207029 198.5035456614224,199.8424517996377 198.5056825817744,199.76292166069237 198.5173324721642,199.68430741323303 198.53868378971103,199.60775688194693 198.56980691731292,199.534472669188 198.61064505023674,199.46570098073963 198.661006043724,199.40271916461043 198.72055538703907,199.34682203181694 198.78881046643906,199.29930704788174 198.8651362743817,199.26145850377088 198.9487427148183,199.23453079497813 199.03868364458685,199.21973095718198 199.13385777868712,199.21820062609683 199.23301157257586,199.23099760753368 199.3347441775897,199.2590772609992 199.43751454623398,199.3032739161043 199.53965074245596,199.36428255533738 199.63936148826508,199.44264100909103 199.7347499523271,199.5387129189339 199.8238297586272,199.65267173271238 199.9045431641952,199.78448599989142 199.9747813244668,199.93390623735112 200.03240653341268,200.1004536344238 200.07527629342192,200.28341086108404 200.10126903742986,200.48181523472377 200.10831129331862,200.6944544887167 200.09440604859077,200.9198653699076 200.05766204215467,201.1563352721873 199.99632368020966,201.4019070894293 199.90880124513654,201.6543874432954 199.79370104045475,201.9113584098591 199.64985509177177,202.17019283377726 199.47635000369206,202.42807328006438 199.2725545563348,202.68201463163095 199.03814561287518,202.92889029595045 198.77313190180374,203.16546193687637 198.47787523478485,203.3884125981629 198.15310872345833,203.59438303412207 197.79995156658413,203.7800110106015 197.41991999285983,203.94197328666613 197.01493396475738,204.07702993463226 196.58731927499468,204.1820706040966 196.13980469986592,204.25416228501743 195.67551391262265,204.29059807647062 195.19795190536885,204.2889464221605 194.71098571936216,204.24710023187853 194.21881934097598,204.1633252706357 193.72596268355662,204.03630716491102 193.2371946435976,203.86519634910482 192.75752029254977,203.64965025558996 192.29212234260308,203.38987203940493 191.84630710522578,203.08664512427694 191.42544524436383,202.74136286088998 191.03490771112888,202.35605260164485 190.67999733260302,201.93339351903896 190.36587661305296,201.4767275275773 190.09749239030225,200.99006271207165 189.87949807212294,200.47806871843238 189.71617425610373,199.94606362664217 189.61134861031044,199.39999189941597 189.56831595994788,198.84639308387233 189.58975958590887,198.29236103698764 189.6776747933229,197.74549354816386 189.83329585077445,197.2138323432452 190.05702743257578,196.7057935729537 190.34838171622616,196.23008901401326 190.7059222939257,195.7956383420867 191.127216049779,195.41147297079942 191.60879413227687,195.08663208917955 192.14612311406725,194.8300516692789 192.73358737734227,194.65044735491418 193.36448369297108,194.5561922796319 194.03102887456058,194.55519099531384 194.72438128489114,194.6547508203866 195.43467685181596,194.86145203640345 196.15108011411593,195.1810184718246 196.8618506655774,195.6181901101066 197.55442519855686,196.17659944371582 198.21551516759754,196.85865336442666 198.83121990060593,197.66542243134674 199.3871547812474,198.59653938970365 199.8685939133984,199.65010882384038 200.26062645874106,200.82262981554305 200.54832561417584,202.1089334424043 200.7169289691383,203.50213688923873 200.75202875680824,204.99361585769714 200.63977029044253,206.57299684450643 200.36705665963734,208.22817071682542 199.9217575543511,209.94532884399402 199.29291989020126,211.7090228487439 198.47097773015363,213.5022488183638 197.44795883853467,215.30655656837868 196.21768506658492,217.10218427939003 194.7759636577386,218.8682185336172 193.1207664785634,220.58277946354326 191.25239413077514,222.22323039347572 189.17362188370805,223.76641100873343 186.8898243875828,225.18889272990407 184.40907618808586,226.46725460487636 181.74222516403526,227.57837766317573 178.902936153749,228.4997553098696 175.90770222321666,229.20981697459376 172.77582126089357,229.68826187994793 169.5293358599665,229.91639945769506 166.19293476881796,229.87749262607858 162.79381455309738,229.55709985246065 159.3615005166471,228.94341166771625 155.92762637126066,228.02757707769894 152.52567262397025,226.8040151378319 149.1906641617188,225.27070682450443 145.95882805268792,223.42946225625684 142.86721314640656,221.28615829318102 139.9532736356212,218.85094157861678 137.25441933574987,216.1383921866713 134.80753603599527,213.16764320537027 132.648479872774,209.96245182076902 130.81155026349865,206.5512177738207 129.32894650900136,202.96694544015165 128.23021371777241,199.2471462332457 127.54168421622016,195.43367855309984 127.2859210777266,191.57252309347714 127.48117082068806,187.71349197873596 128.14083268338572,183.90987092216187 129.27295217296518,180.21799437701569 130.87974679885212,176.6967544833586 132.95717202982638,173.40704549128904 135.4945355514712,170.4111462566791 138.47416784023306,167.77204434996938 141.8711569060449,165.55270628227385 145.65315478248476,163.81529932525487 149.78026295787262,162.62037137042844 154.20500343980302,162.02599622749403 158.87238152788512,162.0868926870638 163.72004563476452,162.85352655738723 168.67854864514396,164.3712057135479 173.6717143393333,166.67917895712975 178.61711133626574,169.8097501604224 183.42663583698834,173.7874197478485 188.00720318112204,178.6280660347407 192.2615468751245,184.33817928659295 196.08912232353313,190.91416156787875 199.3871110054974,198.34170550670973 202.0515193032682,206.59526499933804 203.9783646228574,215.63763060737207 205.06493986723956,225.41962195264426 205.21114574799654,235.87990878366995 204.3208788721462,246.94497156916154 202.3034620380205,258.5292114657327 199.07510173925544,270.53521830857824 194.5603565316377,282.8542038877198 188.693598686499,295.36660620304565 181.4204504594643,307.94286864606937 172.69917536737606,320.4443961450604 162.50200411142526,332.72468824557996 150.81637423244476,344.6306468959218 137.646062255397,356.00405438468067 123.01218699336647,366.683214456496 106.9540628541332,376.5047471354733 89.52988243989303,385.30552523985807 70.8172084657349,392.9247380045973 50.91325605519421,399.2060646710079 29.93494780866294,403.99993838732576 8.018725686429377,407.1658783245306 -14.679894297184944,408.57486558399273 -37.987036312351876,408.1117362935797 -61.71145707154835,405.6775632939234 -85.64582265061568,401.1919960438088 -109.56827300515977,394.59552686000137 -133.24427405393016,385.8516503885121 -156.42875361697008,374.94888231620394 -178.86851371869386,361.9026028069603 -200.30490782866366,346.756690016225 -220.4767675539764,329.584909329619 -239.1235591591817,310.4920247101833 -255.9887461187488,289.61459974535313 -270.82332975293986,267.1214576753365 -283.3895359133254,243.21377187054702 -293.46461172463256,218.1247609130951 -300.84469261266713,192.11896562627282 -305.3486963130648,165.491089080317 -306.82219732266225,138.56438476993486 -305.141232384845,111.68858278956999 -300.2159851523307,85.2373488996232 -291.9942962042069,59.60527684702808 -280.4649431653653,35.20442013566202 -265.66063483960414,12.460375587726077 -247.66066307262042,-8.192062558993229 -226.59315655329914,-26.313652673532715 -202.63688198108815,-41.465827803090804 -176.0225400072831,-53.21615094469678 -147.03350612514055,-61.14405792000309 -116.00597025611364,-64.84683562264223 -83.32843316669954,-63.945776979620916 -49.4405230523937,-58.09244783945206 -14.831101631926913,-46.974995266377334 19.96436411453024,-30.324421479930862 54.36718088710478,-7.920743030469993 87.75956676101558,20.401049158418118 119.4895468035251,54.74531642513483 148.8765962919294,95.15047552647465 175.2180112138447,141.58416949420788 197.7959753163966,193.93899766147018 215.88528224088438,252.02889550088403 228.76166034637274,315.58625290557416 235.71063681196082,384.2598562963889 236.0368666446947,457.6137354110502 229.07384144808535,535.1269897943884 214.19388237171128,616.1946628481422 190.81831171784034,700.1297228144455 158.4276883829174,786.1662002759796 116.57198381909068,873.4635206921063 64.88056767328109,961.1120582065456 3.0718658568976025,1048.1399235294325 -69.03745132690966,1133.5209842049537 -151.52389707030773,1216.1841001348062 -244.34936016346307,1295.0235409655554 -347.35420994304343,1368.910535012423 -460.2514613255547,1436.705881948242 -582.6221438488403,1497.2735437174615 -713.9120133172194,1549.4951102404718 -853.4297372372359,1592.2850186672515 -1000.3466756946336,1624.6063874488689 -1153.6983676351522,1645.4873095595203 -1312.3878186733348,1654.037433068317 -1475.1906705928407,1649.4646421833706 -1640.7623146752665,1631.0916381293548 -1807.646990988216,1598.3722070327558 -1974.2888938931192,1550.9069516336413 -2139.045280447238,1488.458255370501 -2300.201553249885,1410.9642414378106 -2455.9882628305068,1318.5514860244116 -2604.5999471356254,1211.546244317748 -2744.215697312523,1090.4839501976621 -2873.0213101081695,956.1167560132144 -2989.2328581264464,809.4188875783906 -3091.1214802638788,651.5896016480788 -3177.039166244017,484.05354872013584 -3245.4452816815233,308.4583630904779 -3294.9335539318627,126.66932466258237 -3324.2592145352123,-59.23903696576633 -3332.3659717632536,-246.99449624085167 -3318.41246704657,-434.1419107307622 -3281.797852315722,-618.0612574460072 -3222.186111939045,-795.9889199135159 -3139.528743378512,-965.042178630566 -3034.0854052841055,-1122.2468144920504 -2906.442140852922,-1264.5676899935313 -2757.526788204922,-1388.9421269032603 -2588.6211985466234,-1492.3158521541038 -2401.369897236029,-1571.6812364590699 -2197.7848427052395,-1624.117503169751 -1980.245963662434,-1646.8325387766229 -1751.4971861427225,-1637.2058918266578 -1514.6376988003378,-1592.832504561235 -1273.108247255115,-1511.5666819291296 -1030.6722961714045,-1391.565766487564 -791.3919508264861,-1231.3329557532018 -559.5985879073415,-1029.7586714828883 -339.8582077664048,-786.1598688139686 -136.931586893077,-500.31665781439915 44.270620638683,-172.5056013885536 198.73761114361142,196.47094778374893 321.4126921500685,605.2601020227853 407.25170320851976,1051.9389010258642 451.2851470431248,1534.0005742142303 448.68350508425885,2048.347162957244 394.8251365275757,2591.2890209802463 285.36608763034894,3158.5516604283366 116.31106904374072,3745.2903510044293 -115.91520531640339,4346.112810456282 -414.3971829287401,4955.110246704833 -781.6590576581764,5565.896925463351 -1219.5977356784176,6171.658342802789 -1729.4191777043495,6765.207980414405 -2311.5791376425677,7339.052513081989 -2965.729331466268,7885.465224013215 -3690.6700718760835,8396.567265229065 -4484.310393302506,8864.416278343208 -5343.636667317855,9281.10176706237 -6264.6906699596,9638.846488006187 -7242.5580093591625,9930.113002483851 -8271.367754107105,10147.714410267057 -9344.304019817986,10284.92816883667 -10453.630173414052,10335.611789787506 -11590.72620194022,10294.319099826838 -12746.139665668461,10156.415658901706 -13909.650514466972,9918.19184424454 -15070.34989273037,9576.97203832286 -16216.732892638847,9131.218302567931 -17336.805039405313,8580.626879018095 -18418.20210695802,7926.215840237893 -19448.322669891615,7170.402205538261 -20414.47259939753,6317.06685995541 -21304.020509354283,5371.60565280994 -22104.56295609898,4340.9651159296 -22804.09799405494,3233.6613285246 -23391.205491953908,2059.78056675733 -23855.232423581976,830.9605114838965 -24186.4811656112,-439.6490525887227 -24376.39866604641,-1737.4469293475065 -24417.76419304645,-3046.463271304152 -24304.873238304506,-4349.464853887531 -24033.715034703426,-5628.083060446221 -23602.14105743101,-6862.964504978355 -23010.021813880892,-8033.943933034885 -22259.389193058065,-9120.238739949114 -21354.56164223893,-10100.664132291971 -20302.249469469167,-10953.867636333502 -19111.637636988453,-11658.58132972258 -17794.443514421808,-12193.889843286375 -16364.947202768584,-12539.511852779695 -14839.992221662407,-12676.092459800357 -13238.954573440631,-12585.503551352616 -11583.67845815065,-12251.148933265322 -9898.37721314186,-11658.270758553721 -8209.498388226608,-10794.253522613217 -6545.552240876039,-9648.921677617183 -4936.903343324408,-8214.82673337994 -3415.52543199161,-6487.519565847164 -2014.7200959271504,-4465.803551717732 -768.8003910893026,-2151.964092671993 287.25902330136876,448.02991084462667 1118.2031063985442,3324.3570248645415 1688.90636301183,6463.21096524044 1964.8082891063875,9846.709108087727 1912.3706168151944,13452.845703751047 1499.5521196481975,17255.493374344715 696.296235830949,21224.456114161032 -524.9737097380674,25325.576587277115 -2188.857348921827,29520.90002850472 -4316.484247004827,33768.89650426979 -6925.031435805311,38024.74268177738 -10027.258225773889,42240.663591590725 -13631.06525534568,46366.33415505772 -17739.084900788534,50349.339489382124 -22348.31025721319,54135.692205971485 -27449.769905002064,57670.4040893419 -33028.255590014116,60898.10869254092 -39062.109765607165,63763.73051980771 -45523.07966570675,66213.19559786277 -52376.24419771753,68194.17737435087 -59580.01945994126,69656.87103670907 -67086.24809941418,70554.7885287977 -74840.3770330309,70845.56576813651 -82781.72725910568,70491.77284592485 -90843.85859116873,69461.71733778 -98955.0311552719,67730.23027788647 -107038.76441232275,65279.423865449804 -115014.49330544459,62099.4095921447 -122798.31989805121,58188.96521430669 -130303.85757169269,53556.13885494731 -137443.16350574492,48218.77851846447 -144127.75377706822,42204.975444341675 -150269.69401156754,35553.4100231439 -155782.75710719646,28313.58945531538 -160583.63814645022,20545.966955731234 -164593.21524404304,12321.933097929857 -167737.8437511952,3723.6708529496923 -169950.6699815269,-5156.132991883518 -171172.9494551235,-14214.726051728045 -171355.35359731762,-23339.88275917259 -170459.24789759223,-32410.653920645847 -168457.92375197067,-41298.274601543075 -165337.7655990082,-49867.22963675944 -161099.3345340006,-57976.47405486763 -155758.34936614614,-65480.80359493219 -149346.54608561995,-72232.36830439494 -141912.39694672005,-78082.31995640499 -133521.67086232087,-82882.58173941338 -124257.8175544457,-86487.72637684825 -114222.15892400117,-88756.94655816145 -103533.87239492327,-89556.09933404831 -92329.75255642207,-88759.80397911764 -80763.7392706995,-86253.57078677014 -69006.20252793975,-81935.93636632324 -57242.97670735646,-75720.5792946895 -45674.1395306573,-67538.38846740608 -34512.53385655186,-57339.45522936663 -23982.03354196136,-45094.95937619321 -14315.557863574984,-30798.91843360583 -5752.842424361286,-14469.769273294529 1462.0219680694931,3848.2488634806814 7083.267306339517,24083.94046504673 10866.324411812837,46138.2586969576 12570.874398203647,69883.6976954158 11964.049283995346,95163.99903858305 8823.751848901367,121794.19711739363 2942.061340711889,149561.02556812693 -5871.311668344672,178223.7039225426 -17785.5610488304,207515.12018529224 -32945.354061320046,237143.42117603947 -51467.47848040954,266794.01819483924 -73437.61493645971,296132.0109098795 -98907.28311198417,324805.02735914465 -127891.01152748422,352446.4726408844 -160363.78120434287,378679.1732874159 -196258.79345674723,403119.3985245337 -235465.6114015325,425381.2336724733 -277828.72345056327,445081.2749076468 -323146.5750370083,461843.6085463383 -371171.11210348026,475305.0320060378 -421607.87643286743,485120.4677254532 -474116.68872616405,490968.5156622536 -528312.9504289009,492557.0846229639 -583769.5896910025,489629.0376987678 -640019.6705365429,481967.78257207246 -696559.6773516157,469402.733509082 -752853.4792132006,451814.5685500179 -808336.9704324506,429140.2028353881 -862423.3750357701,401377.39724467293 -914509.1938305756,368588.9206493256 -963980.7632841098,330906.18416536396 -1010221.3857772643,288532.26689515 -1052618.9809847984,241744.25482788144 -1090574.198291096,190894.8178688194 -1123508.92039678,136412.95442223782 -1150875.0787335879,78803.83858451301 -1172163.6921159746,18647.711820364413 -1186914.0313555412,-43402.23100842037 -1194722.804489533,-106623.00223681725 -1195253.24996989,-170226.0593093406 -1188244.0187668633,-233362.63935911577 -1173517.7210019182,-295130.1974506683 -1150989.0085754385,-354579.9422196374 -1120672.0624268274,-410725.4485678819 -1082687.3516817826,-462552.3123079878 -1037267.5321178961,-509028.7963345 -984762.3532171439,-549117.402183881 -925642.4466613043,-581787.284899851 -860501.8745357833,-606027.4131286981 -790059.3227940896,-620860.360525822 -715157.8347339346,-625356.5990674408 -636762.9903605006,-618649.1499465082 -555959.4505534216,-599948.4336133653 -473945.79987742886,-568557.1474283844 -392027.638623042,-523884.98755747447 -311608.89314684947,-465463.02139324055 -234181.33368715036,-392957.5081531351 -161312.3104187224,-306182.9586135647 -94630.74141088151,-205114.22039870638 -35811.410168802795,-89897.37305530733 13442.344654702607,39140.782505136005 51417.43924128517,181484.85256215135 76411.22023250973,336424.8036058859 86752.845964723,503051.93742345297 80825.68754606634,680257.0739403889 57090.53886197248,866731.1124831749 14109.40038815795,1060968.1239772826 -49430.421214108865,1261271.105330911 -134692.17697464325,1465760.5029334885 -242665.80139446183,1672385.5849179486 -374144.61531078315,1878938.7117380213 -529702.9349798891,2083072.521882181 -709674.9273025711,2282320.014414602 -914135.0584038469,2474117.4727780162 -1142880.4862345932,2655830.1352337035 -1395415.7471886587,2824780.4768156703 -1670940.0816564802,2978278.9261467746 -1968337.7337339034,3113656.798351795 -2286171.5457832846,3228301.1830907743 -2622680.1490610084,3319691.484944111 -2975779.0270915697,3385437.2725570793 -3343065.6988498974,3423317.053667787 -3721829.2341389623,3431317.5559915854 -4109064.2739115795,3407673.0595213315 -4501489.683844236,3350904.294738056 -4895571.92045799,3259856.3941213326 -5287553.135801057,3133735.3618057836 -5673483.989535741,2972142.5088348296 -6049261.076660269,2775106.2897770894 -6410668.815567523,2543110.971022115 -6753425.575291946,2277121.562345857 -7073233.753287351,1978604.4517669466 -7365833.446641215,1649543.1996773235 -7627059.291053055,1292448.9720299963 -7852899.974030919,910365.1242327588 -8039559.862482371,506865.4874718903 -8183522.121124034,86045.95752774515 -8281612.637872677,-347490.9573062426 -8331064.016590529,-788658.9079787541 -8329578.847235069,-1231918.0024813344 -8275391.419598548,-1671312.756242233 -8167327.010394694,-2100517.734915788 -8004857.845410862,-2512890.8363192007 -7788154.819702685,-2901534.0596474386 -7518134.050222482,-3259361.5067592612 -7196497.337628828,-3579174.2532427595 -6825765.628025849,-3853741.617218229 -6409304.591633364,-4075888.2426065668 -5951341.474387458,-4238586.302167619 -5456972.430582496,-4335052.015367493 -4932159.610121545,-4358845.568517709 -4383717.352821746,-4303973.42115705 -3819286.934441574,-4164991.8848833544 -3247299.414405355,-3937110.770386182 -2676926.2531632315,-3616295.816897186 -2118017.49712162,-3199368.5472741583 -1581027.4702997592,-2684102.1330568423 -1076928.0633063402,-2069311.808621012 -617109.8706881674,-1354938.343491364 -213271.59578603896,-542123.0683387463 122701.683634729,366727.0455362905 378870.6172965216,1367885.7302102104 543383.0994114914,2456266.6224580677 604624.0672893535,3625396.6923377374 551372.269007648,4867405.183787797 372962.5128741391,6173029.245105871 59451.743479598175,7531637.298479959 -398212.8694524469,8931271.047380248 -1008025.7898658405,10358706.84900444 -1776757.0143602309,11799536.986814538 -2709790.2188172857,13238271.166525006 -3810967.455264819,14658458.329025185 -5082442.774462187,16042828.62728482 -6524547.197907812,17373455.153255705 -8135667.484270734,18631934.727417987 -9912141.127563724,19799586.780495945 -11848169.98586142,20857669.066859476 -13935754.868436903,21787608.655376676 -16164653.30455615,22571246.349396568 -18522362.57787481,23191092.39675091 -20994129.9358413,23630591.067016754 -23562991.673529167,23874391.400772523 -26209842.546145227,23908621.178357318 -28913536.684775572,23721160.91792276 -31651020.876914423,23301914.498613715 -34397500.7286211,22643072.818786122 -37126639.85095105,21739366.745450243 -39810791.812271215,20588305.49369231 -42421264.17340164,19190396.497563865 -44928613.47791575,17549342.80048762 -47302969.6095885,15672214.006967843 -49514387.45756194,13569586.901292475 -51533223.352440454,11255651.955546618 -53330533.258764096,8748282.12069869 -54878489.237059444,6069060.522310995 -56150810.22817202,3243263.967505925 -57123202.77037212,299799.51247943804 -57773806.84250248,-2728908.260314405 -58083641.64108636,-5807081.150321392 -58037045.75275446,-8895803.817428755 -57622105.88249413,-11953293.654568639 -56831068.04987197,-14935224.26884881 -55660724.97615411,-17795102.13298971 -54112773.26143481,-20484695.277891114 -52194133.89843367,-22954512.173962656 -49917229.69394706,-25154328.20026519 -47300213.27489147,-27033756.334138244 -44367139.54759579,-28542857.918169603 -41148076.75985859,-29632788.585129507 -37679150.68774815,-30256473.654446702 -34002516.93469481,-30369306.5661347 -30166256.889561776,-29929863.200361155 -26224193.542371854,-28900624.254031315 -22235624.099344645,-27248697.220992487 -18264967.16969763,-24946528.961011514 -14381323.210840344,-21972599.355760857 -10657947.910351107,-18312086.1487163 -7171639.245335528,-13957490.760852357 -4002040.083921579,-8909214.675554229 -1230859.3699211173,-3176075.903864018 1058983.8510658946,3224244.916159976 2784288.0600055745,10264839.056726893 3862561.782329624,17909294.830015775 4213072.969341203,26111522.806152448 3757945.971317932,34815690.006470285 2423295.6166132027,43956271.19889201 140386.74628405532,53458224.510093674 -3153193.5441039004,63237297.506100796 -7512364.716689048,73200468.68223606 -12983397.328256154,83246527.95007232 -19602788.750578392,93266798.22051033 -27396186.181278225,103145998.56777361 -36377373.54387436,112763247.73065594 -46547339.19366971,121993204.87859167 -57893441.47503744,130707342.65714091 -70388689.10115854,138775345.54838446 -83991153.03669567,146066624.5567445 -98643526.04638496,152451937.181986 -114272845.31932613,157805099.59250084 -130790392.58345748,162004775.88895687 -148091784.88345137,164936327.37783667 -166057267.7070635,166493702.88438475 -184552220.41176307,166581349.3538905 -203427881.93043578,165116120.34856227 -222522302.53054246,162029158.5742018 -241661524.97731557,157267727.29612678 -260660995.82376686,150796964.45638955 -279327204.73756844,142601532.51262683 -297459546.799813,132687136.50977725 -314852399.5994262,121081882.69470555 -331297403.72914004,107837450.1135796 -346585931.99742216,93030048.11325713 -360511729.3414697,76761133.51844525 -372873702.09835184,59157862.49021098 -383478832.00600773,40373253.698816925 -392145187.10686946,20586041.47097461 -398704998.6598921,200.00000048827306" stroke="white" stroke-width="1.5" /></svg>