<?xml version="1.0" encoding="utf-8" ?>
<svg baseProfile="full" height="400" version="1.1" width="400" xmlns="http://www.w3.org/2000/svg" xmlns:ev="http://www.w3.org/2001/xml-events" xmlns:xlink="http://www.w3.org/1999/xlink"><defs /><rect fill="black" height="100%" width="100%" x="0" y="0" /><circle cx="200" cy="200" fill="yellow" r="10.00000001785982" stroke="orange" stroke-width="2" /><polyline fill="none" points="201.10587110818085,200.0 201.0681141726844,200.0560711148332 201.02102613201495,200.10749464616123 200.9647814812675,200.1530657332799 200.8996873530405,200.19156326177688 200.8261888120309,200.22176369046605 200.74487279595778,200.24245582550657 200.65647056337644,200.25245642105 200.56185851818918,200.2506264673876 200.46205729214134,200.23588800969398 200.35822898032163,200.20724132334425 200.25167244064008,200.16378225567894 200.1438165863887,200.10471952927574 200.03621162121846,200.02939178852822 199.93051818807947,199.93728415989838 199.82849442772755,199.82804408686874 199.73198096812146,199.70149619362323 199.642883893216,199.55765592708252 199.56315576805196,199.39674172533438 199.4947748263878,199.2191854619418 199.4397224571041,199.02564092026844 199.39995915591197,198.8169900599849 199.37739913915695,198.59434684944182 199.37388384634554,198.3590584527029 199.39115458704083,198.1127035787777 199.43082461555284,197.85708782299028 199.4943509429662,197.59423585642986 199.58300622006257,197.32638034897582 199.69785104616864,197.05594754433477 199.83970707745794,196.785539441697 200.00913132332278,196.51791257777302 200.20639203069786,196.25595344482514 200.43144656326416,196.0026506245227 200.68392168491596,195.761063763629 200.96309665440373,195.53428956523487 201.26788953036618,195.32542501799105 201.59684707278421,195.13752813502774 201.948138608026,194.97357652339977 202.31955419995654,194.8364241533489 202.70850743897668,194.72875674377497 203.1120431243187,194.6530462253838 203.5268500725163,194.61150478533185 203.94927923682042,194.60603903610806 204.3753672686628,194.63820488616827 204.80086559337698,194.7091637197546 205.22127500864897,194.81964051769685 205.63188574606306,194.96988456912794 206.02782286417954,195.15963343530768 206.40409676647388,195.38808083054124 206.7556585599023,195.65384908094813 207.0774598906333,195.9549668091048 207.36451681347938,196.28885247093442 207.61197717171447,196.6523043403237 207.8151908852787,197.0414974965761 207.96978246890802,197.45198831982788 208.0717250285834,197.87872693993756 208.11741491600202,198.31607801520815 208.10374615768836,198.75785013883348 208.02818371904294,199.19733408353042 207.88883461522562,199.62734999891285 207.6845158414231,200.04030357240768 207.41481806584864,200.42825105367206 207.08016401081417,200.78297292544843 206.68186044136843,201.0960558816343 206.22214268820315,201.35898264721644 205.7042106525721,201.5632290459365 205.13225527651412,201.70036759153152 204.51147451224563,201.76217674867098 203.8480778905739,201.74075488192003 203.149278869785,201.62863778691903 202.42327424371445,201.4189185792691 201.67921000045197,201.10536860519375 200.9271331509978,200.68255793578277 200.17792918960095,200.14597391539863 199.44324500367065,199.4921361565148 198.73539722004128,198.7187063096974 198.06726615473593,197.82459089041564 197.45217572374526,196.8100354155622 196.9037598710117,195.6767080935675 196.4358162748748,194.42777132422972 196.06214830356478,193.0679392991368 195.79639640161085,191.60352005189245 195.65186029976365,190.0424403901388 195.64131364855234,188.3942522491915 195.77681287711798,186.67011914031355 196.06950227157122,184.88278152528682 196.52941744782325,183.04650013273246 197.16528955958822,181.17697643997207 197.9843527299922,179.29124977617323 198.99215732189967,177.4075707567727 200.19239176470077,175.54525103405425 201.586715731004,173.72448964223395 203.17460750270047,171.96617652507257 204.953228379653,170.29167415711868 206.91730696348048,168.7225785030713 209.05904609150156,167.28046089997713 211.36805510013266,165.98659279027123 213.8313099615248,164.86165557596402 216.43314366099642,163.92543820125047 219.15526896534237,163.19652539791514 221.97683547331198,162.69197984040346 224.874522539908,162.4270217504568 227.82266932665246,162.4147097598172 230.7934428521499,162.66562707872177 233.75704450328715,163.18757722277795 236.6819550199694,163.9852937164959 239.53521748873146,165.06016831356033 242.28275737680374,166.41000234740278 244.88973811276776,168.02878584663202 247.32095017789112,169.90650901461936 249.54123111921552,172.0290105776885 251.51591333763366,174.3778673491128 253.21129594814397,176.93032913425628 254.59513646225554,179.65930281413716 255.63715751153075,182.53338908959495 256.30956332418856,185.51697494603434 256.5875601914608,188.57038441015237 256.44987472504107,191.65008961676972 255.87926331957928,194.70898358842538 254.8630059027797,197.69671545625116 253.3933767881424,200.56008812227213 251.46808524934002,203.24351758611476 249.09067831788053,205.68955233953676 246.2708982737965,207.83945037758932 243.02498735874593,209.63381049385632 239.375932397498,211.0132536282649 235.3536422718519,211.9191491294305 230.99505155419067,212.2943798901568 226.344144078619,212.08413942600498 221.45189080732956,211.23675310482034 216.3760970385691,209.7045149122577 211.1811547990696,207.44453036754985 205.9376971653809,204.41955549808264 200.72215226101278,200.59882115392182 195.61619577394725,195.95883140731988 190.7061020246503,190.4841243502088 186.0819948793172,184.16798328709268 181.8370011363063,177.0130861333237 178.0663104035521,169.0320807803868 174.8661469177086,160.24807429045052 172.33266021691176,150.69502404078287 170.56074305209322,140.4180193620469 169.6427863891749,129.4734428087434 169.66738279761773,117.92900096923124 170.71799092009257,105.86361566895624 172.87157505315372,93.36716754385711 176.19723511881494,80.54008525926248 180.75484345060198,67.49277511853845 186.59370583364338,54.34488743841533 193.75126510546363,41.22441785499683 202.25186632160614,28.266643654016434 212.10560299799954,15.61289727651689 223.30726424107263,3.409181319742288 235.83540264931327,-8.195368386864487 249.65154270020278,-19.050162721104243 264.69954891010553,-29.00497093872289 280.905172359865,-37.91185039782738 298.17579320624145,-45.62717827602316 316.4003755423863,-52.01376687601848 335.44964942590593,-56.94304184425124 355.1765330606547,-60.29726046103963 375.41680600174516,-61.97174513382049 395.99004185965964,-61.877105371776054 416.7008063200408,-59.94141987523511 437.34012338598427,-56.11234897108022 457.68720960891756,-50.35914649972375 477.5114727259992,-42.67453944254447 496.5747675941956,-33.07644310183778 514.6338986356168,-21.609479537084013 531.4433542211898,-8.346267247624098 546.7582545598943,6.611549204393242 560.3374907717975,23.13255979651703 571.9470289513806,41.05516844755144 581.363349222546,60.187517737460496 588.3769860999557,80.3077829430543 592.796132956815,101.16485639752226 594.4502701121485,122.47943973086313 593.1937730471016,143.94555764763032 588.9094545962439,165.2325025665545 581.5119926921338,185.98721470855529 570.9511934242528,205.83709710709175 557.21503785963,224.39325956632624 540.3324603121023,241.2541798533827 520.3758055867121,256.00976443305 497.4629132074418,268.2457848949617 471.7587777973102,277.5486599491133 443.4767366508612,283.51054654583953 412.87913814457727,285.7346973866367 380.2774479875019,283.84103591273345 346.0317544309229,277.47189387333106 310.54963843206315,266.29785087245017 274.2843803924867,250.02360996213912 237.73248144770517,228.39383848167023 201.43048433993278,201.1988990288123 165.95108662033056,168.28039178114886 131.89854724847055,129.53642645155463 99.90339652231661,84.92654004801993 70.61646860791168,34.476175395238414 44.70228565954295,-21.719364860817876 22.831832533323336,-83.49157323538424 5.67477129479812,-150.59608393091605 -6.108845010089652,-222.71079039449603 -11.877289634526647,-299.43480913168963 -11.01623074038082,-380.28835951790916 -2.9480619025315775,-464.7136226297166 12.85860418025814,-552.0766341658999 36.87938610132636,-641.6702573582018 69.52464351143723,-732.7182714165136 111.13016844015627,-824.380599562845 161.94818631188144,-915.7596881491877 222.13879953041143,-1005.9080348113171 291.76200990556,-1093.8368491861015 370.77045812755205,-1178.525814534496 459.0030188374517,-1258.9339028040042 556.179388483958,-1334.0111793880271 661.8958000015306,-1402.7115172661274 775.6219933109896,-1464.0061235254768 896.6995636679808,-1516.8977646692692 1024.3418009241843,-1560.4355608257056 1157.6351217989982,-1593.730203203723 1295.5421842879255,-1615.9694341304846 1436.906758385133,-1626.433614988218 1580.4604104251594,-1624.5111945851163 1724.831039633544,-1609.7138791884086 1868.55328502777,-1581.691295857082 2010.080798766563,-1540.244933071138 2147.8003585747038,-1485.3411371894672 2280.047767168472,-1417.122940193161 2405.1254608986983,-1335.9204936836104 2521.3217233660107,-1242.2598863844805 2626.9313728258826,-1136.870127600639 2720.277765091784,-1020.688087346341 2799.735926689689,-894.8611952715448 2863.7566065615724,-760.7477151584095 2910.8910090220625,-619.9144296638298 2939.8159463173297,-474.13159114403084 2949.3591264044544,-325.36501876855675 2938.524270854375,-175.76524962535456 2906.515739475121,-27.653682003301725 2852.762322743162,116.49431766555274 2776.9398507997057,254.069336840597 2678.9922589822245,382.3508223270393 2559.150744965559,498.53288340780864 2417.950651903695,599.7528650998077 2256.2457157830395,683.122520956425 2075.2193237748825,745.7615710529672 1876.392443920855,784.8333867399222 1661.6279051646422,797.5824999608693 1433.1307306675453,781.3735919697303 1193.4442565684817,733.7315747357411 945.4418028618489,652.382338805616 692.3137027944235,535.2937045282602 437.54954198011933,380.7160799744705 184.91550808153787,187.2222992404346 -61.573193883383,-46.253910258685835 -297.6848471510501,-320.38140280262974 -519.0085741347082,-635.3976171156514 -720.9963916887446,-991.0777000754238 -899.009761751118,-1386.707345543262 -1048.3703584523064,-1821.0599360884983 -1164.4147016153345,-2292.378561251839 -1242.5522349953262,-2798.363463782968 -1278.3263564815916,-3336.165434731797 -1267.4778377254372,-3902.3856391917852 -1206.0100032218645,-4493.082306802534 -1090.2549747577305,-5103.784664834871 -916.9402273628486,-5729.51442692832 -683.2546484977377,-6364.815077567961 -386.9132442194814,-7003.789111531276 -26.219595511225805,-7640.143299283919 399.8748641558318,-8267.241954259816 891.7157016719509,-8878.168076852993 1448.8954315905803,-9465.792143627077 2070.209523158389,-10022.848199687563 2753.6194216609483,-10542.016798454008 3496.2235153929305,-11016.014217416116 4294.236943139573,-11437.68726216955 5142.981087064577,-11800.112855508867 6036.88353204874,-12096.701495091222 6969.489194683933,-12321.303553741714 7933.48323332583,-12468.317292460775 8920.726245055455,-12532.797359277125 9922.302136486265,-12510.56245894776 10928.57892366321,-12398.300800820436 11929.282572616934,-12193.67186661405 12913.583837444488,-11895.40298806523 13870.197888273056,-11503.37918789939 14787.496348515942,-11018.724717893449 15653.631181036597,-10443.87472627535 16456.669677974547,-9782.635504585816 17184.73962101713,-9040.231802492055 17826.18348995497,-8223.339758781445 18369.720409718855,-7340.104078567252 18804.61434218773,-6400.138191067761 19120.846851414906,-5414.506249384442 19309.292602175203,-4395.685983447565 19361.8955945851,-3357.5115893748 19271.843994719344,-2315.096032254192 19033.741295380572,-1284.732353860853 18643.771435180126,-283.7738107666335 18099.855420498625,669.507079903879 17401.796936257142,1556.080242116781 16551.414400147078,2356.3398636723277 15552.65691325213,3050.305421350005 14411.701589862621,3617.840689196196 13137.029812463841,4038.88920516888 11739.480055828233,4293.724364327801 10232.275057964398,4363.212001952653 8631.021286110237,4229.083031326496 6953.678853338661,3874.2134125633793 5220.500285563361,3282.908455066314 3453.936819221433,2441.188201353496 1678.5112256067168,1337.070408527262 -79.34349283487006,-39.152559973052774 -1791.479808052224,-1694.6467910993138 -3428.2656377763615,-3633.783821057552 -4958.848011178944,-5857.905664206536 -6351.449399597808,-8365.112009604625 -7573.695207637101,-11150.073724392763 -8592.970431327682,-14203.87675339656 -9376.802993476924,-17513.900400324786 -9893.270767490894,-21063.733815398056 -10111.4288058687,-24833.13429537138 -10001.752804660111,-28798.03072353523 -9536.594367155425,-32930.57513886757 -8690.643185895215,-37199.24502525393 -7441.390848869822,-41568.99845454376 -5769.590600736502,-46001.48370290663 -3659.707060239881,-50455.30439106472 -1100.3496179200524,-54886.3405789332 1915.3169794034836,-59248.12557827852 5389.1915022790945,-63492.27753836487 9317.891294194444,-67568.98411523867 13692.450233386464,-71427.53776213308 18498.066242132652,-75016.91838419695 23713.904813510428,-78286.41929378356 29312.964762413943,-81186.31159210022 35262.01204958681,-83668.54129894802 41521.58707266992,-85687.45276501024 48046.090265957035,-87200.53114160335 54783.95020103124,-88169.15596227636 61677.877635294055,-88559.35722072516 68665.20811746492,-88342.56472189873 75678.33483262475,-87496.3409496407 82645.23235990253,-86005.08724633484 89490.07093046566,-83860.71274912683 96133.91962047463,-81063.25528421269 102495.53570293229,-77621.44329568806 108492.23612509294,-73553.18788799514 114040.84578681065,-68885.99419959213 119058.71598369464,-63657.28160749924 123464.80506216905,-57914.60269394842 127180.81202751584,-51715.75149211294 130132.3525676977,-45128.75227087398 132250.16572297373,-38231.72102007776 133471.33826239977,-31112.59285714714 133740.53274209332,-23868.709790629186 133011.20423566605,-16606.264641607704 131246.7898635791,-9439.598432934885 128421.85452415668,-2490.3501998471443 124523.17566299166,4113.540057741618 119550.74952711366,10238.972684847602 113518.70115216551,15748.969376991801 106456.08034031457,20504.087271154716 98407.52611748995,24363.95741213547 89433.78262272936,27188.936752663474 79612.05008981081,28841.860706002397 69036.15553942022,29189.881148333585 57816.52901372499,28106.372692510347 46079.97265642151,25472.88805372581 33969.211669045486,21181.141431127413 21642.218154258302,15134.99706802978 9271.301081225434,7252.43855809031 -2958.041934219744,-2532.5069334130976 -14848.512666139446,-14267.916534638136 -26192.638887947352,-27982.219533116004 -36774.63525843138,-43682.57378417004 -46372.490984490265,-61353.39951744509 -54760.27343590028,-80955.09937331632 -61710.63347453253,-102422.99311685712 -66997.49479604863,-125666.49471341805 -70398.90610582386,-150568.558290686 -71700.03150519199,-176985.41794543547 -70696.25109392837,-204746.64437110873 -67196.34054720409,-233655.5388817904 -61025.69534864448,-263489.8825908781 -52029.56250535022,-294003.0552759586 -40076.239986090215,-324925.5348377648 -25060.201860673853,-355966.7842591304 -6905.105226439389,-386817.5286140508 14433.366464763685,-417152.41999773536 38964.87007233975,-446633.08328249055 66662.02631566075,-474911.53039399633 97458.34704291547,-501633.9253964203 131246.5124181129,-526444.6771270607 167877.04296764242,-548990.8304913511 207157.4095280011,-568926.7218815845 248851.62157388811,-585918.8585867403 292680.33116835635,-599650.9765894283 338321.4858591409,-609829.2258755255 385411.5592508436,-616187.4273916523 433547.3827232168,-618492.3411561113 482288.5958621687,-616548.8808419222 531160.7266526708,-610205.2064879773 579658.9053914454,-599357.6239368088 627252.2086619583,-583955.2172234333 673388.6216343073,-564004.1385247074 717500.5984778649,-539571.4794934229 759011.1918835419,-510788.64791133825 797340.7136737782,-477854.1746591085 831913.8793287326,-441035.87806932477 862167.3800815636,-400672.31584304356 887557.8171467346,-357173.45890170964 907569.9237617751,-311020.526835229 921724.9921690881,-262764.9310007975 929589.4145687809,-213026.27882046 930783.2395675726,-162489.4013986898 924988.6388652971,-111900.37620016656 911958.1729923188,-62061.527142823266 891522.7399693244,-13825.396006775269 863599.0869328823,31912.308545388365 828196.7621782041,74220.76489453633 785424.3838297718,112143.06210893962 735495.101566686,144706.14578206226 678731.1295977893,170931.62387757166 615567.2324837864,189847.35552385115 546553.0505066898,200499.73079157603 472354.15814155486,201966.53472451074 393751.75782371,193370.27446900427 311640.92163820344,173891.83446378427 227027.3057780908,142784.31151756432 141022.27659123988,99386.86943123666 54836.402705962144,43138.441829986885 -30228.714987833704,-26408.897725795403 -112790.28492966003,-109577.08727057936 -191395.82730732957,-206549.94469828895 -264536.30516973766,-317361.9520155914 -330660.82967679447,-441888.1567988307 -388192.8616836038,-579835.3916588775 -435547.80802046764,-730735.0095822499 -471151.88666247024,-893937.3274231417 -493462.11076067283,-1068607.961461083 -500987.21752898616,-1253726.2277315517 -492309.3445612207,-1448085.7657306832 -466106.2336204127,-1650297.5270717472 -421173.72063691844,-1858795.2507464758 -356448.25092023966,-2071843.5238723839 -271029.140782958,-2287548.501280513 -164200.29124389665,-2503871.329149517 -35451.04656733632,-2718644.287296293 115504.11955806572,-2929589.6319074854 288707.4140712805,-3134341.0856986004 483941.3577851313,-3330467.8860195354 700714.5680227085,-3515501.2636286463 938250.0119641061,-3686963.1861133967 1195476.042823665,-3842397.160662236 1471020.5172803178,-3979400.8515436677 1763208.2742560608,-4095660.228708252 2070062.2320988877,-4188984.925909479 2389308.3334473786,-4257344.450174841 2718384.534562971,-4298904.8499016315 3054453.998800979,-4312065.416866636 3394422.612305022,-4295494.968595839 3734960.894169644,-4248167.232408813 4072530.323507542,-4169394.831593129 4403414.05243519,-4058861.358123437 4723751.917376432,-3916651.0056398604 5029579.601767769,-3743275.231531383 5316871.741789167,-3539695.918383801 5581588.703761217,-3307344.513151631 5819726.698024488,-3048136.6375456853 6027370.8301878935,-2764481.685576309 6200750.627388582,-2459286.9541670177 6336297.515477929,-2135955.8903854494 6430703.663707021,-1798380.0841732724 6480981.557428701,-1450924.6884458906 6484523.607478378,-1098407.008929531 6439161.058169656,-746068.0738585751 6343221.415168401,-399537.0683119684 6195583.580800505,-64788.59905967096 5995729.85849155,251907.15726219935 5743793.970877041,544041.277712098 5440604.228457284,804929.646920076 5087720.988231177,1027782.8999169018 4687467.555182252,1205782.3101576602 4242953.704369616,1332161.0752498405 3758091.0381519776,1400290.3490251787 3237599.4420849206,1403769.2658683672 2687003.9644895573,1336518.102988771 2112621.5186634134,1192873.6300075364 1521536.8931102564,967685.6042922443 921567.6537624787,656413.2863958023 321217.6325470647,255220.77425096405 -270381.1817793885,-238930.11106071057 -843538.4025923539,-828190.7096264048 -1388086.5647238719,-1513741.5404561097 -1893473.7648496982,-2295714.8435460827 -2348867.226710324,-3173125.0491904146 -2743267.2324250783,-4143808.572902733 -3065630.6947109625,-5204374.31203346 -3305003.4762415136,-6350166.17928286 -3450660.393630744,-7575238.948078949 -3492251.6766904816,-8872348.604667578 -3419954.4908890603,-10232958.301408486 -3224627.974636914,-11647260.885088632 -2897970.0955128493,-13104218.833184024 -2432674.4932477735,-14591622.270327441 -1822585.3546476848,-16096165.557445318 -1062848.259104563,-17603542.74806746 -150054.8453165551,-19098561.991435573 917620.9173483816,-20565278.731778547 2140297.113526396,-21987147.309324052 3516271.20220013,-23347190.313395053 5041922.54420327,-24628184.77371507 6711632.371444219,-25812864.005495314 8517723.365200378,-26884133.64994644 10450420.912168449,-27825300.17772447 12497837.975951746,-28620309.8518895 14645985.3577841,-29253995.882800784 16878808.923370987,-29712331.253743906 19178255.14300746,-29982684.45683795 21524366.030271646,-30054075.157847345 23895404.271694437,-29917426.609893683 26268009.01744166,-29565811.463703416 28617382.45324247,-28994687.47982552 30917506.89908033,-28202119.540013812 33141391.78351656,-27188984.284303144 35261349.42741332,-25959153.670613967 37249298.14118223,-24519653.768117897 39077090.699890114,-22880795.156846996 40716865.815384015,-21056271.41652354 42141419.77924045,-19063222.349238593 43324595.01031941,-16922258.794834375 44241681.81185532,-14657446.165509064 44869829.23141095,-12296244.147502892 45188460.52894959,-9869400.392348656 45179688.40013847,-7410796.446980494 44828724.78024757,-4957244.649180223 44124279.77508776,-2548235.2398374034 43058944.03569182,-225633.51298114803 41629548.71901316,1966672.5655999982 39837497.063695684,3983173.194977307 37689061.56344838,5777184.279566165 35195640.745793045,7301339.223454722 32373969.66542952,8508121.813584568 29246278.403035544,9350436.303296924 25840393.125075903,9782210.084167872 22189774.61043502,9759023.619367829 18333489.58676295,9238761.615478717 14316110.74372389,8182278.741681781 10187541.90117434,6554072.575692272 6002765.505871521,4322955.875174448 1821510.4076550703,1462719.7521194369 -2292161.2790601254,-2047221.1237318662 -6270348.495607664,-6221210.537589764 -10041886.015886264,-11066769.484730558 -13532997.904429842,-16584061.375769215 -16668026.782328192,-22765413.4726906 -19370234.891613256,-29594904.29232046 -21562671.786521714,-37048026.54594397 -23169102.30432458,-45091434.8855414 -24114987.292892143,-53682787.293583356 -24328508.411481693,-62770688.38085421 -23741627.190823566,-72294742.14316228 -22291167.454531103,-82185720.87247865 -19919909.18275838,-92365855.9221642 -16577680.957801685,-102749254.89249311 -12222437.287034597,-113242448.53651564 -6821306.368186205,-123745069.29432037 -351593.26222723746,-134150661.85482332 7198277.013768259,-144347624.52928382 15827892.25199971,-154220278.5127949 25524077.56954866,-163650060.32407948 36260227.48993647,-172516830.8669785 47995761.12822847,-180700292.66799113 60675715.52728701,-188081504.93377343 74230491.48275328,-194544484.16294554 88575765.25847217,-199977876.1617488 103612578.42879441,-204276683.47809955 119227616.68868913,-207344030.50960153 135293686.8487941,-209092946.88506454 151670399.38532764,-209448148.19352087 168205061.85223216,-208347791.7673991 184733786.19620472,-205745184.0449308 201082810.5589711,-201610415.0682653 217070033.52309662,-195931894.94439304 232506755.97902218,-188717766.63097268 247199622.88631493,-179997169.23197576 260952754.19908288,-169821326.1202434 273570051.15481013,-158264432.6645909 284857661.0212785,-145424319.14434227 294626580.2940487,-131422865.59714489 302695373.27596813,-116406146.8761224 308892979.991145,-100544288.09541495 313061584.53143203,-84031012.92026113 315059512.24740344,-67082869.80566843 314764121.7229413,-49938124.29835603 312074655.2577699,-32855308.87682849 306915009.670594,-16111425.495804574 299236387.67073125,199.99999963354136" stroke="white" stroke-width="1.5" /></svg>