<?xml version="1.0" encoding="utf-8" ?>
<svg baseProfile="full" height="400" version="1.1" width="400" xmlns="http://www.w3.org/2000/svg" xmlns:ev="http://www.w3.org/2001/xml-events" xmlns:xlink="http://www.w3.org/1999/xlink"><defs /><rect fill="black" height="100%" width="100%" x="0" y="0" /><circle cx="200" cy="200" fill="yellow" r="20" stroke="orange" stroke-width="2" /><polyline fill="none" points="198.29572005945224,200.0 198.21601718042103,199.90634905135124 198.14317469414917,199.80451158596526 198.07822898620705,199.69510475155903 198.02217676820726,199.57887785326773 197.9759596637753,199.4567117732931 197.94044843569017,199.3296167111916 197.91642702599313,199.19872816031713 197.90457659468456,199.06530105221495 197.90545975506362,198.93070201898067 197.91950521457187,198.79639974366162 197.94699303893088,198.66395339055293 197.98804076418284,198.53499913057803 198.04259058572296,198.4112348016543 198.11039785534183,198.29440276981234 198.19102111648155,198.18627108362162 198.28381390417366,198.0886130419006 198.38791852932596,198.00318532245856 198.50226205703262,197.93170484740838 198.62555467531357,197.8758245880577 198.7562906340866,197.8371085391691 198.892751914224,197.81700611809762 199.03301476326834,197.8168262685751 199.1749592078471,197.83771157131693 199.3162816231418,197.88061268377345 199.45451040709767,197.94626344883514 199.58702477160574,198.0351570267297 199.71107662490914,198.1475234153395 199.8238154792805,198.28330873134877 199.9223162759393,198.4421566276594 200.0036099756249,198.6233922210759 200.0647167186565,198.82600889807193 200.10268131317864,199.0486583552723 200.1146107651378,199.28964421492122 200.09771351892107,199.54691953391358 200.04934003410122,199.81808849785645 199.96702428199384,200.10041255907657 199.84852570637506,200.3908212395366 199.69187115638172,200.68592777637772 199.49539626697748,200.98204973945573 199.25778573406697,201.27523469703635 198.97811190802267,201.56129094810584 198.65587111167542,201.83582327794565 198.29101707730823,202.09427362821387 197.88399089244174,202.33196650434112 197.43574684671887,202.54415887223357 196.94777358244363,202.7260942238038 196.42210996969402,202.87306041751052 195.8613551537248,202.9804508267335 195.2686722578377,203.04382825635753 194.64778526915964,203.05899101734227 194.0029686878747,203.02204048132356 193.33902958233477,202.9294493734573 192.66128176294276,202.77813000283257 191.97551186646166,202.56550157691566 191.28793722902714,202.28955570069525 190.60515552007917,201.94891912353185 189.9340862100022,201.54291276817665 189.28190405066493,201.07160605798987 188.65596485934807,200.53586555095703 188.06372401168312,199.93739689350627 187.51264816702442,199.27877912410608 187.01012086884924,198.56349038680403 186.56334278194123,197.79592415876002 186.17922744577217,196.98139515380595 185.86429353809706,196.12613413634804 185.62455475268132,195.23727096658004 185.46540849861094,194.3228052988756 185.3915247240761,193.39156447007892 185.40673625314076,192.45314824271716 185.5139320980896,191.51786020922336 185.71495527078767,190.59662581618167 186.01050666244925,189.7008971312817 186.4000565907267,188.8425446487794 186.8817656246265,188.0337366102841 187.45241629009203,187.28680650490637 188.1073572309711,186.61410960429313 188.8404613504842,186.02786958174795 189.6440993864102,185.54001645822572 190.50913027840895,185.16201730908472 191.4249095678489,184.90470135153288 192.37931692911698,184.77808121106565 193.35880376684958,184.7911723331275 194.34846162633625,184.9518126609474 195.33211195532317,185.26648483919544 196.29241752571687,185.74014332297781 197.21101557473543,186.37604886998636 198.0686724586786,187.1756129676714 198.84545933084186,188.1382547945736 199.52094806065824,189.26127333304657 200.0744263067257,190.53973723734782 200.48513034508323,191.96639501454038 200.73249393934674,193.53160799417464 200.79641122479467,195.22330844498916 200.65751126812438,197.026985041913 200.29744166252965,198.9256976939057 199.69915822828497,200.90012351250127 198.84721761661237,202.9286354326608 197.72806936377998,204.98741469249848 196.3303437177061,207.05059803796757 194.64513136536212,209.09046014453116 192.66625103045277,211.07763134260455 190.39050079153418,212.9813503000954 187.81788889503449,214.7697508571853 184.95183980943736,216.41018172963607 181.79937128970198,217.86955730193907 178.37123829795863,219.11473722563517 174.68203976030682,220.11293202667025 170.75028433229306,220.8321314147164 166.59841159890735,221.24155148337033 162.2527654496177,221.3120964997725 157.74351674525144,221.01683051248983 153.10453283088438,220.33145356469228 148.37319194595466,219.23477689310306 143.59014113739738,217.70919112932296 138.79899689064894,215.74112120631216 134.04598835297057,213.3214614163138 129.379543728864,210.44598387434934 124.84982117269018,207.11571352030947 120.50818628235886,203.33726274887044 116.4066391026858,199.12311879570444 112.59719436943516,194.49187713579957 109.13121955614548,189.46841436947767 106.05873611580046,184.08399438734773 103.42769012786599,178.37630201945916 101.28319935721035,172.3893988877585 99.66678449355082,166.17359679489644 98.61559305657701,159.78524469554674 98.16162511081897,153.28642610646014 98.33097052360044,146.74456471488912 99.14306800705066,140.23193693680872 100.60999659935814,133.8250912500979 102.73581054982323,127.60417527566793 105.51592876593377,121.65217279211164 108.93659004849431,116.05405413605014 112.97438527350103,110.89584474883996 117.59587746876569,106.26361796718741 122.75732037226693,102.24241950577961 128.40448554227174,98.91513242839716 134.47260741240424,96.36129273319077 140.88645484576088,94.65586697007234 147.56053674044446,93.86800454494319 154.39944807608984,94.05977852764126 161.29836147075062,95.28492984859444 168.14366784579354,97.58763072362089 174.81376818136616,101.00128396764248 181.1800165970496,105.54737552713163 187.10781312432516,111.2343980593751 192.45784256467908,118.05686369647879 197.0874537670512,125.99442423697283 200.85217153068905,135.01111689287956 203.60733116624064,145.0547533718764 205.20982355308954,156.0564694814467 205.5199363403561,167.93045159562325 204.4032747802037,180.5738552186936 201.73274358407022,193.8669295103496 197.390569185371,207.67336000264754 191.270339907143,221.84083984341012 183.27903980164314,236.20187774941863 173.33905038290303,250.57484845555484 161.39009314432877,264.765288816311 147.39108467269082,278.5674398709293 131.32187536733608,291.76603214382993 113.18484227779044,304.1383082427258 93.00630641082384,315.45627346646154 70.83774505386839,325.4891616753887 46.756770236960136,334.00610014473705 20.867845428347295,340.7789535550042 -6.697286055849361,345.5853237149548 -35.779485639718445,348.21167810719544 -66.19243954890186,348.4565769406179 -97.72323415516132,346.1339651373487 -130.13330332367082,341.0764926246885 -163.15976097719602,333.1388234962841 -196.5171281868965,322.2008921031384 -229.8994598178353,308.17106198546696 -262.98287112640793,290.9891418112819 -295.42845976103473,270.62921119575174 -326.88561339699686,247.1022084832503 -356.9956877878893,220.45823232490272 -385.3960343921574,190.7885092178543 -411.7243509920095,158.22698012323258 -435.6233229270306,122.95146087743302 -456.7455167846683,85.18433337933486 -474.75848269729977,45.192727491049794 -489.3500158675123,3.2881572410622653 -500.2335226592875,-40.1744207326461 -507.15343163513273,-84.79815352307776 -509.89058537133053,-130.14646438946323 -508.2675448293978,-175.74586623831402 -502.1537345851308,-221.08942412929247 -491.4703543991319,-265.64086724674064 -476.19498053367295,-308.8393427291266 -456.36577895555297,-350.10479525586027 -432.08525218337934,-388.84394742952486 -403.52344210453043,-424.4568468473443 -370.92051265829787,-456.3439364233367 -334.58863890511634,-483.91359510565667 -294.9131327152429,-506.59008674356755 -252.35274014050935,-523.8218456139425 -207.43905149458277,-535.0900181428873 -160.7749722621682,-539.9171717838116 -113.03221117338649,-537.8760739724634 -64.94775108904958,-528.5984367078476 -17.31927870313305,-511.78351574213605 29.00043957794429,-487.2064477382794 73.11023594854596,-454.7262042040244 114.06826098094893,-414.2930376640902 150.90071832076538,-365.9552935104922 182.61157334256535,-309.86546038835013 208.1931799390898,-246.28533293465546 226.63775444730268,-175.5901632817537 236.94961041127715,-98.27168204287989 238.1580526269894,-14.939875575088678 229.33081390052106,73.67658579161291 209.58790338186427,166.73136413776052 178.11572142247064,263.2629989561085 134.18128286288055,362.1990513833198 77.14637870782775,462.36190310437166 6.481495512001345,562.4762484972819 -78.22069729951875,661.1783001005929 -177.23248930025488,757.0267075128548 -290.6791026332559,848.5151685209376 -418.5277030268429,934.0866887778035 -560.5776548857662,1012.1494229120815 -716.4522254654211,1081.094005778494 -885.5919388552327,1139.312257901418 -1067.249773432386,1185.2171242979516 -1260.4883865004401,1217.2636810872077 -1464.1795369292004,1233.9710199129695 -1677.0058607262577,1233.9447965578247 -1897.4651355933465,1215.9002075510643 -2123.8771486874334,1178.6851374231323 -2354.3932570904735,1121.3031998946608 -2587.0087030075274,1042.9363790685507 -2819.5777156170907,942.9669619771757 -3049.8313989894586,820.9984419742103 -3275.39837081149,676.8750637905064 -3493.828080095682,510.69967591766107 -3702.6166939364043,322.84955464082736 -3899.235404076813,113.98986678592938 -4081.1609639757207,-114.91555468426759 -4245.90822666147,-362.5964364948294 -4391.064413410135,-627.471590291342 -4514.324803699187,-907.6480141884322 -4613.529498501916,-1200.9238216060428 -4686.700872360681,-1504.7952175705198 -4732.081295381564,-1816.467707061437 -4748.170674912242,-2132.871679708864 -4733.763338784554,-2450.6824703771636 -4687.983758204673,-2766.3449461665055 -4610.320589225977,-3076.1026174476197 -4500.658497793587,-3376.031214116313 -4359.307225125143,-3662.0766087766847 -4187.02734817747,-3930.0969065742065 -3985.0521945824485,-4175.908457502338 -3755.105383106387,-4395.335481867748 -3499.413479721652,-4584.262933946449 -3220.7132860330325,-4738.692163477974 -2922.2533112536594,-4854.798870359035 -2607.789021270059,-4928.992785585453 -2281.571508574304,-4957.978452057982 -1948.32928487777,-4938.816423247236 -1613.2429638556769,-4868.984146852126 -1281.912674396713,-4746.43575543623 -960.3181245289256,-4569.659947532477 -654.7713223293625,-4337.735111791297 -371.86205195370553,-4050.3808243068133 -118.39629968165178,-3708.0048361300865 98.67207430767704,-3311.744664964634 272.31601882319626,-2863.502912839598 395.515823721909,-2365.975450812619 461.34488896375393,-1822.6716429779246 463.0600122634334,-1237.9258256772748 394.19537254206693,-616.8993141006462 248.65928522399645,34.42772241232805 20.832708982293184,709.275093120352 -294.3316066716349,1400.0926088162353 -701.2105259963683,2098.6016701487524 -1203.4137499875085,2795.8486777537487 -1803.6901861318233,3482.270390698378 -2503.838843291522,4147.771219546438 -3304.6256661753805,4781.812290936768 -4205.7077447925285,5373.511963171432 -5205.566338772426,5911.757308359606 -6301.45014331376,6385.325907757655 -7489.3301917789995,6783.017134854459 -8763.867738728193,7093.79192740147 -10118.396395817996,7306.919877051888 -11544.919701019948,7412.132295753147 -13034.125188794353,7399.779753840915 -14575.415895212884,7260.992428315858 -16156.960077802143,6987.841453500165 -17765.75975564749,6573.499332685102 -19387.738481851433,6012.397350990609 -21007.848548930615,5300.377828968136 -22610.197599556748,4434.83897591445 -24178.194371944643,3414.8700437868547 -25694.71305316709,2241.37444923968 -27142.275447076445,917.1785247149994 -28503.249888917588,-552.8764184130841 -29760.065559033916,-2161.8609792733346 -30895.440566413443,-3900.705690096621 -31892.621892582934,-5758.172235765037 -32735.635011109633,-7720.849783799426 -33409.54073147004,-9773.178154109224 -33900.69656219752,-11897.499339817325 -34197.01965103198,-14074.138639061004 -34288.248143326,-16281.516373749015 -34166.19760830235,-18496.29085617647 -33825.009019943966,-20693.532920001067 -33261.38464929914,-22846.9319606838 -32474.808131601614,-24929.033034905737 -31467.744918468583,-26911.5041519951 -30245.819315891546,-28765.432456812905 -28817.964345826265,-30461.64755710501 -27196.540755566926,-31971.06979371664 -25397.421637003983,-33265.08079440795 -23440.039309022897,-34315.91319677048 -21347.391361921902,-35097.055978779346 -19146.003063373184,-35583.671402908716 -16865.843681097263,-35753.01916786435 -14540.194687295327,-35584.88297732056 -12205.468272555536,-35061.99438424759 -9900.975110160238,-34170.44845905029 -7668.640872510405,-32900.10556644702 -5552.671605926905,-31244.973326157906 -3599.1687138267266,-29203.56268230563 -1855.6949757947882,-26779.21192174507 -370.7937352400087,-23980.3724678648 806.5358858077789,-20820.85033856105 1627.4041472568351,-17319.997299495622 2043.6318856751723,-13502.84596990325 2008.3826624635994,-9400.183451000032 1476.820058921073,-5048.558448325879 406.783609389641,-490.2173500469472 -1240.5238046549732,4227.034696680831 -3499.844900529163,9050.051001091624 -6401.1816498086755,13920.641371884316 -9969.12251542694,18775.95268812868 -14222.192568338416,23548.93278510653 -19172.2361204291,28168.87745829186 -24823.8417518924,32562.059341236174 -31173.819746177145,36652.436311089215 -38210.741964943576,40362.43592873695 -45914.55409135869,43613.81124051884 -54256.26993543523,46328.562067475505 -63197.757124273085,48429.914699777044 -72691.62298835702,49843.35171277809 -82681.2087995713,50497.68244260322 -93100.69971568421,50326.14351932336 -103875.35684012616,49267.51777155173 -114921.87671680986,47267.25880474341 -126148.88235166199,44278.60763420155 -137457.54849125425,40263.68694017699 -148742.3624025972,35194.55782391576 -159892.0197968053,29054.22339692673 -170790.45383520084,21837.563147486795 -181317.99336389432,13552.181813851352 -191352.6446581751,4219.156467123792 -200771.489039721,-6126.334318815632 -209452.1867778078,-17434.514946241237 -217274.57572252516,-29640.666048961397 -224122.35116704035,-42664.940814479865 -229884.81152241182,-56412.35759218081 -234458.65253851083,-70772.98069950845 -237749.79104566356,-85622.29979511297 -239675.19755157744,-100821.81641261136 -240164.71553535806,-116219.84424749143 -239162.84396339025,-131652.52757254004 -236630.4584387175,-146945.07973712275 -232546.4455137871,-161913.24109919273 -226909.22407250866,-176364.9529659932 -219738.12734658373,-190102.2412034302 -211074.61909608575,-202923.30014164792 -200983.31777637682,-214624.76428545755 -189552.8031507818,-225004.15216586876 -176896.18080631518,-233862.46347903225 -163151.38139977466,-241006.90748979812 -148481.17321174397,-246253.73756984083 -133072.86871993993,-249431.16373747255 -117137.70842030557,-250382.31221238428 -100909.90801843486,-248968.19833906807 -84645.35837466164,-245070.67681354797 -68619.97119750129,-238595.33101576695 -53127.66742048951,-229474.2614498637 -38478.00944006612,-217668.73187180492 -24993.482904219803,-203171.63068075382 -13006.438485300296,-186009.70460843138 -2855.7090020138353,-166245.5216964816 5117.07767344982,-143979.12104008967 10571.464330832287,-119349.30782566784 13172.377983941027,-92534.5538266761 12594.555355788529,-63753.46576262487 8527.139317141282,-33264.7867855946 678.4004345813441,-1366.899841058461 -11219.466846324392,31603.19424516528 -27405.52817008741,65271.44638478754 -48085.33210015866,99228.8936679058 -73426.23396788871,133034.36986395 -103552.88581251421,166217.79680445933 -138542.95977953804,198284.05456496534 -178423.1739569124,228717.42102162185 -223165.6904907742,256986.563642663 -272684.9558735324,282550.05835506384 -326835.0524826167,304862.40208341 -385407.628719616,323380.4771775998 -448130.47241769003,337570.417524264 -514666.78851943044,346914.81777561136 -584615.2373570672,350920.21893642226 -657510.7841837794,349124.79563911556 -732826.403910582,341106.1629245502 -809975.677314622,326489.21335358446 -888316.3063295999,304953.88892236387 -967154.5664515065,276242.786665466 -1045750.7038491599,240168.49212542013 -1123325.2735323291,196620.53116302795 -1199066.4029858469,145571.82799292152 -1272137.9531285805,87084.55596024221 -1341688.535415913,21315.267525663694 -1406861.3305037739,-51480.80871353649 -1466804.640272968,-130946.41329173264 -1520683.0913303406,-216619.94836031133 -1567689.3945231326,-307934.3163205622 -1607056.551701454,-404216.99590483983 -1638070.388124663,-504691.4377303339 -1660082.2767215923,-608479.8504317822 -1672521.9090771417,-714607.4359456949 -1674909.9577270197,-822008.1184168858 -1666870.4652959313,-929531.7955988407 -1648142.7884087793,-1035953.1246160455 -1618592.9183299905,-1139981.8356670102 -1578223.9961272,-1240274.5478121922 -1527185.8379846707,-1335448.0405765509 -1465783.286270139,-1424093.9138906726 -1394483.2042296445,-1504794.5471076574 -1313919.936874322,-1576140.245697888 -1224899.0678339852,-1636747.4419917362 -1128399.3117649413,-1685277.7942824194 -1025572.3943645144,-1720458.007002105 -917740.7871865014,-1741100.173845223 -806393.1822595743,-1746122.425942075 -693177.6119429541,-1734569.648802657 -579892.1424306969,-1705634.015074534 -468473.0947238476,-1658675.0655142667 -360980.7745735295,-1593239.058274052 -259582.72266756397,-1509077.2969679919 -166534.52795621703,-1406163.1412997367 -84158.28022129385,-1284707.4005904172 -14818.772478931201,-1145171.8105980356 39102.400772285,-988280.2978054355 75234.66746875041,-815027.7430708263 91248.00595156153,-626685.9683560065 84883.92304447835,-424806.6862947128 53987.59322384449,-211221.1727254799 -3459.163962368835,11963.55297725179 -89304.42314607691,242372.22589992417 -205192.5937911134,477372.66473706043 -352531.17399811966,714091.0474794738 -532458.2529242964,949431.2076553289 -745811.2171627207,1180097.9800688631 -993097.1319749594,1402624.5765316074 -1274465.2790059599,1613403.9206324308 -1589682.3375717613,1808723.8165767817 -1938110.696381777,1984805.771050038 -2318690.376254972,2137847.2294766814 -2729925.0316906087,2264066.9295794102 -3169872.4797825688,2359753.0164504126 -3636140.1787224556,2421313.505153671 -4125886.0448801555,2445328.6199325654 -4635824.9571322305,2428604.4841996664 -5162241.249749878,2368227.583449501 -5701007.440884796,2261619.374905031 -6247609.382706645,2106590.3739283867 -6797177.951867883,1901393.0088506197 -7344527.325602331,1644772.5037387912 -7884199.809922157,1336015.0235428433 -8410517.102670476,974992.2988314324 -8917637.78633798,562201.9386766955 -9399620.75436762,98802.64086496469 -9850494.18107112,-413356.48089467274 -10264329.550262392,-971713.2121861805 -10635320.162364189,-1572976.9231966883 -10957863.445231076,-2213121.308859881 -11226646.301482948,-2887385.8142474922 -11436732.636051338,-3590286.309819467 -11583652.123234255,-4315635.503908295 -11663489.194201875,-5056573.491342719 -11672971.154974077,-5805608.737758704 -11609554.282780487,-6554669.689407679 -11471506.696779327,-7295167.078823988 -11257986.758679297,-8018066.868390797 -10969115.731153153,-8713973.637648476 -10606043.408250531,-9373224.077287694 -10171005.43342196,-9985990.104492841 -9667371.038241047,-10542390.962129371 -9099679.969325881,-11032613.509839809 -8473667.423011178,-11447039.760190986 -7796275.877551745,-11776380.55950049 -7075652.801381192,-12011814.162859853 -6321133.323352018,-12145128.308269974 -5543207.076850201,-12168864.257868959 -4753468.573890871,-12076461.147190303 -3964550.6271889997,-11862398.868475981 -3190040.5169251417,-11522337.613527803 -2444378.7934058732,-11053252.117634058 -1742740.815674451,-10453558.580891563 -1100901.3477373153,-9723232.198851112 -535082.7665222366,-8863913.212760977 -61787.676818194916,-7878999.392595508 302383.0241604057,-6773722.895105994 540925.3389438483,-5555209.495749371 637639.0733507777,-4232518.278633532 576844.6566848501,-2816659.983473286 343607.84012390755,-1320592.3534808434 -76029.9998679429,240808.9966196339 -694818.448434111,1850805.4678620372 -1524064.2308506996,3490877.159947336 -2573399.870209531,5140832.126432544 -3850557.8745336905,6778943.687772563 -5361153.639318733,8382115.971211089 -7108480.356661434,9926077.506604182 -9093319.29342738,11385602.34673343 -11313768.835135499,12734757.802574532 -13765095.686524708,13947177.49191199 -16439611.571477048,14996357.997519631 -19326578.68188916,15855977.023238601 -22412146.98533547,16500230.527323691 -25679326.313581567,16904185.907444343 -29107995.917313777,17044147.916011725 -32674953.88648497,16898033.60358849 -36354008.5007465,16445752.227783708 -40116113.191368625,15669585.731062315 -43929546.36645638,14554565.089270776 -47760136.877299964,13088837.569274034 -51571535.388356246,11264019.714789396 -55325531.3602129,9075530.709939567 -58982414.768352605,6522900.655696509 -62501381.06560781,3610048.240349673 -65840977.25869602,345522.2961361951 -68959586.31549543,-3257298.1855799393 -71815946.45687883,-7180050.855045761 -74369701.22254527,-11399288.666227113 -76581975.54258697,-15886435.138624057 -78415972.40408573,-20607800.570503768 -79837584.08391513,-25524663.088608924 -80816011.33439603,-30593417.87316293 -81324383.36708342,-35765797.27264365 -81340370.99134739,-40989163.8228658 -80846784.8381776,-46206877.41304708 -79832150.24525855,-51358737.00251166 -78291250.10607551,-56381496.39147107 -76225626.80241306,-61209452.59496683 -73644034.25444503,-65775104.36887731 -70562831.14329247,-70009877.40019271 -67006306.494297564,-73844911.61104059 -63006929.06119458,-77211904.94864911 -58605512.326698445,-80044006.95402594 -53851287.437318645,-82276754.33384751 -48801877.02175778,-83849039.71698578 -43523163.60381444,-84704103.7738582 -38089047.21156433,-84790539.92857787 -32581087.80226624,-84063300.01611058 -27088029.262829084,-82484688.44505873 -21705203.002742063,-80025331.73677175 -16533810.52236468,-76665109.738775 -11680085.804630075,-72394034.36983173 -7254339.931011545,-67213061.45979196 -3369891.9495344036,-61134821.11303347 -141891.70846503196,-54184252.06234676 2313957.903000247,-46399125.70139017 3882770.114838969,-37830445.898127854 4451923.8910698015,-28542711.3064571 3912581.3182003917,-18614027.714600928 2161258.392423109,-8136059.000115711 -898566.7975638825,2786193.495970565 -5354826.0335335415,14034791.910772499 -11285232.041094994,25479450.1932859 -18755668.920603115,36978315.048846215 -27818623.299453128,48378942.66594664 -38511678.49527987,59519472.17333808 -50856094.69009719,70229994.39106758 -64855498.58734624,80334111.91282034 -80494706.235517,89650683.91090773 -97738702.63318433,97995746.31400949 -116531801.36327566,105184595.19943735 -136797006.8234846,111034018.39630313 -158435600.61270195,115364657.44682594 -181326972.2905461,118003479.25495765 -205328713.04305536,118786334.00198689 -230276988.76013908,117560573.26630759 -255987206.66203713,114187699.78943236 -282254986.9090774,108546018.0232284 -308857447.60302734,100533252.51579747 -335554808.2549881,90069099.38641995 -362092313.17526305,77097674.64430414 -388202472.36051196,61589821.96084099 -413607613.3439248,43545241.7485223 -438022733.17052495,22994403.06694148 -461158635.2028859,200.0000005647567" stroke="white" stroke-width="1.5" /></svg>