<?xml version="1.0" encoding="utf-8" ?>
<svg baseProfile="full" height="400" version="1.1" width="400" xmlns="http://www.w3.org/2000/svg" xmlns:ev="http://www.w3.org/2001/xml-events" xmlns:xlink="http://www.w3.org/1999/xlink"><defs /><rect fill="black" height="100%" width="100%" x="0" y="0" /><circle cx="200" cy="200" fill="yellow" r="20" stroke="orange" stroke-width="2" /><polyline fill="none" points="198.6915407258325,200.0 198.6774200134655,199.93057059236028 198.67113341111371,199.860095604521 198.67303101800064,199.7894720367118 198.6833762385023,199.7196617898061 198.70233642444663,199.65168414373622 198.7299740765591,199.58660702155638 198.76623875166206,199.52553706660726 198.81095982326656,199.46960857684056 198.86384024245578,199.41997135753562 198.92445144334457,199.3777775712 198.99222953281247,199.3441676812018 199.0664728975766,199.32025560342737 199.14634135293917,199.30711319776805 199.23085694668072,199.30575424828555 199.31890651856764,199.31711809723947 199.4092461008176,199.34205311353492 199.50050722766812,199.38130019030544 199.59120520299314,199.43547647903023 199.67974935381875,199.50505957853795 199.76445527473422,199.5903724062197 199.84355904374678,199.69156898551748 199.91523336428537,199.80862138803798 199.97760556104643,199.94130807024732 200.02877732945376,200.08920384342954 200.06684610995794,200.25167171126654 200.08992792954652,200.427856801865 200.09618152400625,200.61668261019906 200.08383352604017,200.81684975266646 200.05120447666926,201.0268374177197 199.9967353908412,201.24490767532285 199.9190145832306,201.46911278332618 199.81680443726586,201.6973056008263 199.68906777987263,201.92715318730558 199.534993506701,202.15615363199925 199.35402108811212,202.3816561207382 199.14586357533716,202.60088420773423 198.91052871936395,202.81096221773436 198.64833781261018,203.00894466004223 198.3599418656271,203.19184849050902 198.04633473823407,203.35668801119934 197.7088628568507,203.50051215054916 197.34923116757196,203.62044382000443 196.9695049978562,203.71372099694662 196.57210752865342,203.7777391387921 196.1598126134061,203.81009449014067 195.7357327205547,203.80862780440725 195.30330182185,203.771467964174 194.86625309971373,203.69707495122938 194.42859140281408,203.5842815885922 193.9945604395744,203.43233345341685 193.56860476406808,203.24092634218545 193.15532667714152,203.010240658627 192.75943823705038,202.74097209093543 192.38570864770148,202.43435794861142 192.03890736800773,202.0921985410931 191.72374336205462,201.7168730006572 191.4448009858484,201.3113489811867 191.20647308141218,200.87918570253518 191.01289192191564,200.42452985750327 190.86785872131452,199.95210395490648 190.77477248756713,199.46718673776232 190.73655905878158,198.97558539005786 190.75560121553139,198.4835993285405 190.8336708089535,197.99797546704878 190.97186388203525,197.52585493947225 191.17053978965905,197.07471137277915 191.42926534051006,196.6522809128176 191.74676498993313,196.2664843217962 192.1208781064028,195.92534158636465 192.54852431469251,195.63687959780887 193.02567788545915,195.4090335896958 193.5473520932889,195.24954314189105 194.10759440291224,195.16584368167588 194.69949326608727,195.16495453107373 195.31519721953222,195.25336466275894 195.9459468674083,195.4369174333086 196.58212021055516,195.7206956602903 197.21329164950413,196.10890849695718 197.82830483999328,196.60478163336097 198.41535941924698,197.21045241374244 198.96211144984466,197.92687150541755 199.45578724698467,198.75371278243378 199.8833100659609,199.689293096516 200.23143893152792,200.7305035968795 200.4869186915529,201.87275422814426 200.63664017613672,203.10993298080788 200.66780914261244,204.43438139070383 200.56812248901576,205.8368876820004 200.32595002643643,207.30669882225405 199.9305199168627,208.83155260776806 199.37210571057537,210.397730723272 198.64221275873123,211.99013352228835 197.73376163541525,213.59237705438463 196.64126608203867,215.18691262404954 195.36100288836246,216.75516890476032 193.89117105138476,218.27771635285302 192.23203750846972,219.73445337134885 190.38606672685717,221.1048133665507 188.35803145030627,222.36799152296666 186.1551019570584,223.50318979822538 183.78691127322736,224.4898783127033 181.2655939134556,225.30807098245225 178.6057958871648,225.93861292280826 175.8246539144962,226.36347683810308 172.94174204115447,226.56606531469222 169.97898412542327,226.53151565468474 166.96053099268516,226.2470036310261 163.91260141139264,225.70204231568368 160.8632864375847,224.88877193633004 157.84231710015217,223.80223655773125 154.88079585296765,222.44064326649914 152.01089269900336,220.80559946620633 149.26550739138005,218.90232386805724 146.67789963209555,216.73982679396823 144.28128971563123,214.33105549721995 142.10843259588881,211.69300035350514 140.1911688846814,208.84675798433852 138.55995681160056,205.81754764694207 137.24338968147248,202.63467756070236 136.26770384947727,199.3314582402107 135.6562826878099,195.94506036805086 135.4291624338529,192.51631526536661 135.60254618050078,189.08945660242435 136.188332586877,185.71180263159215 137.19366614470482,182.43337891717334 138.6205160247839,179.30648227522025 140.46529064248128,176.3851874157491 142.71849511444503,173.72479859270803 145.3644387250373,171.38124940575045 148.38099937510043,169.41045475363475 151.73945174326082,167.8676198024022 155.40436554758404,166.80651169214445 159.333579850587,166.27870055327548 163.47825880206622,166.33277722532458 167.78303356178154,167.01355585646527 172.18623438891035,168.3612702980486 176.62021602986596,170.4107738828721 181.01177858449003,173.19075277627383 185.28268498816638,176.72296360295624 189.3502751209523,181.0215064675396 193.128175352758,186.0921447914298 196.52710106583143,191.93168357148716 199.4557483736759,198.52741771675963 201.821769891863,205.8566620287272 203.53282802517552,213.8863741497348 204.4977178326005,222.5728814065234 204.62755013354547,231.86172191543582 203.8369841429826,241.68760958905855 202.0454975886554,251.9745317886555 199.178680989364,262.63598730260225 195.1695415795773,273.5753711000748 189.95980127243124,284.68651091563675 183.50117208090455,295.85435917052234 175.75659158580024,306.9558420391832 166.70140036889694,317.8608656362654 156.32444283938835,328.43347734330854 144.6290725896397,338.5331782322555 131.63404333928102,348.01638039283256 117.37426668007556,356.73800075390113 101.9014182313756,364.5531807280762 85.28437446870593,371.3191187294334 67.60946340507058,376.89700034312 48.980513492257955,381.1540086919414 29.51868657107744,383.9653953788023 9.36208243524888,385.21659031672834 -11.334895419633597,384.8053268224146 -32.402421019875476,382.64375657772075 -53.65637974369753,378.66052748932384 -74.89975762762373,372.80279613260785 -95.92428603525502,365.0381453839886 -116.51233839195129,355.3563770572397 -136.43907233436357,343.77114889345586 -155.4748071273238,330.3214251384867 -173.38762259628652,315.07271020088064 -189.9461621489438,298.11803553947703 -204.92261875582705,279.578671001222 -218.0958790707749,259.6045333310215 -229.25479724496125,238.37426651661684 -238.2015664720587,216.09497101786468 -244.75515294814807,193.00156176160706 -248.7547537908759,169.3557380550558 -250.06323759146113,145.44455227113224 -248.57052372417542,121.57856827112728 -244.19685436416404,98.08960502980455 -236.8959114180783,75.32806578564971 -226.65772930331093,53.6598582179152 -213.51135376847532,33.462916609511865 -197.52719677456588,15.123342641419896 -178.81903789329942,-0.9688126752556627 -157.5456237619623,-14.42409745044128 -133.91181889237942,-24.858503251516026 -108.16926358882881,-31.89856483421491 -80.6164979020308,-35.186668886749715 -51.59851444221445,-34.3865196977832 -21.505707493699788,-29.188704216478015 9.227808792576866,-19.31629388157299 40.12653432212076,-4.530415943174916 70.67658359131917,15.364277127071887 100.32936000226994,40.514315058043906 128.50590322015267,71.01237177382819 154.60190040788345,106.89256174303331 177.9933432948052,148.12615165058938 198.04280378784884,194.61776861799228 214.10629130522275,246.20218546293853 225.54064530396536,302.6417617037194 231.71140669241808,363.62461612961806 232.00110208361195,428.76360273801095 225.81786527991326,497.5961566559405 212.60431111334654,569.5850703051792 191.84656793515785,644.1202525356018 163.08336679138444,720.521514757057 125.91507777961736,798.0424182752746 80.012577397497,875.8752061292594 25.125825006309014,953.1568307992148 -38.907978019079394,1028.976076285328 -112.15677616722269,1102.3817593460137 -194.5867262983041,1172.3919802432602 -286.05607476866396,1238.004378303765 -386.30997592138306,1298.2073321143018 -494.9763797482941,1351.9920283908252 -611.5631117976026,1398.3653076702267 -735.4562618224794,1436.3631791615146 -865.9199891975968,1465.0648815614616 -1002.0978427515101,1483.6073516005786 -1143.0156803741338,1491.199947758568 -1287.5862595853055,1487.1392632001973 -1434.615554242731,1470.823849762283 -1582.8108348018263,1441.76866400034 -1730.7905301189892,1399.6190371077535 -1877.0958678451698,1344.1639631744754 -2020.2042681458706,1275.3484949713334 -2158.544441993738,1193.2850334343016 -2290.5131208235257,1098.2632964698134 -2414.4933191560217,990.7587547789373 -2528.8740061523617,871.4393272554556 -2632.071036240852,741.1701362762176 -2722.5491632746443,601.0161339697199 -2798.8449374590764,452.24242438801286 -2859.5902598768694,296.31212345124345 -2903.53634619561,134.88161858049943 -2929.5778294324805,-30.206886958082862 -2936.7767118486295,-196.93563388985854 -2924.385858524302,-363.1244309021911 -2891.871710296421,-526.4466710795914 -2838.935881885361,-684.4482350407425 -2765.5353025467643,-834.5692387093013 -2671.9005517881915,-974.1685454365143 -2558.5520418963324,-1100.5509224188488 -2426.313702506543,-1210.9966804083529 -2276.323830455788,-1302.7935940282696 -2110.042780895901,-1373.2708580503963 -1929.2571932650012,-1419.8347932680836 -1736.0804683282847,-1440.0059746434047 -1532.9492401589953,-1431.4574147809149 -1322.6156196295447,-1392.0533980644539 -1108.1350236525532,-1319.8885255854095 -892.8494469163879,-1213.3264988966166 -680.3660799943656,-1071.0381422531216 -474.531229195225,-892.0381389519198 -279.3995490157818,-675.7199382461608 -99.19865713258577,-421.8882756520627 61.71073596675467,-130.78874182606825 198.87898592680637,196.86616593656393 307.8156986856816,559.8750696921479 384.04160874388015,956.5303612416725 423.1437522553399,1384.6060029558987 420.83346788096475,1841.3509762358083 373.00669183985326,2323.4888378697337 275.8059492705516,2827.2237994072398 125.68338282002448,3348.253691341381 -80.53589771750529,3881.7901124906957 -345.59091290143397,4422.585995723151 -671.7231724153345,4964.970744402158 -1060.6171481281476,5502.893010111866 -1513.3437453526585,6029.971091904434 -2030.30767816775,6539.550841194912 -2611.199666834821,7024.770855318075 -3254.954376897525,7478.634637576146 -3959.715009780587,7894.089293387263 -4722.805432958195,8264.110222030478 -5540.7107035152585,8581.791152719321 -6409.066791764742,8840.43876365721 -7322.660251232189,9033.671014747866 -8275.438507642506,9155.518220237598 -9260.531352568703,9200.525788293007 -10270.284127317578,9163.857461943586 -11296.302969801776,9041.3978115462 -12329.512372131227,8829.852654561424 -13360.22516018824,8526.846015557267 -14378.224859459799,8131.012189528864 -15372.860255014113,7642.08143633383 -16333.151789038682,7060.957814707009 -17247.90926831356,6389.787662244005 -18105.860178059065,5632.01724411107 -18895.78771963628,4792.43812908245 -19606.677509615096,3877.2189076834693 -20227.87169892699,2893.9219443906236 -20749.22909549423,1851.50395445606 -21161.2897042864,760.2993161919846 -21455.441937699452,-368.0148285753048 -21624.090599049876,-1520.4724700103104 -21660.823605426984,-2682.892222012747 -21560.57529575478,-3839.9708068540644 -21319.784068265402,-4975.396707154229 -20936.542011193884,-6071.98392038934 -20410.734133795973,-7111.825496642563 -19744.16477406012,-8076.46627275947 -18940.66875684768,-8947.093937896609 -18006.204903576185,-9704.74727940731 -16948.929553617843,-10330.540167124509 -15779.2478497177,-10805.899541669454 -14509.840666002514,-11112.81538197232 -13155.665218274578,-11234.100342482428 -11733.927592592467,-11153.656475498618 -10264.025659546425,-10856.746192730907 -8767.461107614039,-10330.264376785219 -7267.719628538468,-9563.00833197027 -5790.1186193276,-8545.942068893106 -4361.622127254858,-7272.451252929392 -3010.623153666774,-5738.585016917205 -1766.693846475842,-3943.2807472616296 -660.3045464402529,-1888.567903771031 277.48689529294757,420.2530695852431 1015.3736458570603,2974.4606401028386 1522.1639102381682,5761.794687812127 1767.1676112832174,8766.375261825702 1720.6024278958182,11968.661033867425 1354.0154268644953,15345.45062810347 640.7160773195767,18869.929686041007 -443.7839871596666,22511.766147888327 -1921.3294884861552,26237.255798256127 -3810.683694352338,30009.51963606664 -6127.099982753832,33788.75408842212 -8881.908750427734,37532.534499231864 -12082.125844217253,41196.171689628296 -15730.088840874,44733.12071352604 -19823.12757844229,48095.44022378722 -24353.275345558242,51234.30012887128 -29307.02705871723,54100.53446386782 -34665.15059744082,56645.235631467585 -40402.5572196858,58820.385396454774 -46488.23664201017,60579.5172510691 -52885.26193909597,61878.404017992485 -59550.86889441287,62675.76383315886 -66436.61381837365,62933.976962824556 -73488.61314372972,62619.80526938124 -80647.86731287147,61705.105559416785 -87850.6705921036,60167.527536709764 -95029.10748913213,57991.18665322448 -102111.63541855688,55167.30181354846 -109023.75216408444,51694.787652945015 -115688.7455347541,47580.79098605295 -122028.52141633387,42841.16102130533 -127964.50519008486,37500.84306349878 -133418.61024237834,31594.185690696646 -138314.26603443339,25165.151797645303 -142577.49695689915,18267.4244506217 -146138.0419753454,10964.399201024215 -148930.5038967602,3329.0553583934206 -150895.51597143136,-4556.300272623729 -151980.91250701022,-12600.422534975301 -152142.88923024695,-20703.65398966891 -151347.13830502488,-28758.590529444988 -149569.94222086255,-36650.88758995216 -146799.21022147918,-44260.20633387822 -143035.44056517284,-51461.29739996415 -138292.59171350306,-58125.217935797555 -132598.84554674622,-64120.67568804463 -125997.24591700276,-69315.49192570242 -118546.1962841398,-73578.17294235865 -110319.80084538533,-76779.57784546011 -101408.03447358796,-78794.66831901233 -91916.72792665013,-79504.32406721325 -81967.35618343051,-78797.20573772347 -71696.61939862436,-76571.64531305053 -61255.80784676141,-72737.54227599363 -50809.94433624768,-67218.24232973342 -40536.69990769142,-59952.374114466766 -30625.081172474474,-50895.61823964676 -21273.89037996618,-40022.38207227727 -12689.962203781788,-27327.35311468655 -5086.184284217905,-12826.903495419285 1320.6882726553115,3439.6818918176964 6312.4109904096695,21409.18071253544 9671.8039646656,40993.63837591405 11185.46159364101,62079.82838521414 10646.594754352745,84528.9916813318 7857.978868733245,108176.87693253977 2634.9782057582215,132834.10145072278 -5191.386171159394,158286.84974465426 -15771.3601304288,184297.9236606996 -29233.40966271044,210608.15462270437 -45681.24349312214,236938.18468313804 -65190.94688806064,262990.61895992566 -87808.2698467056,288452.5475866505 -113546.11384221427,312998.4305825505 -142382.26176851452,336293.33409331605 -174257.39571695396,357996.50131012005 -209073.44661824315,377765.23609390936 -246692.31860916043,395259.0719713126 -286935.0291956899,410144.19378892484 -329581.303865872,422098.0739797819 -374369.6607445467,430814.2801790904 -420998.01717337564,436007.4058983864 -469124.84574588033,437418.071203441 -518370.9023394777,434817.93591835507 -568321.5430846147,428014.6638743338 -618529.6410232193,416856.7732143381 -668519.1064728302,401238.30483117537 -717789.0078759756,381103.2387315303 -765818.2822330229,356449.5865537336 -812071.0161567272,327333.08769052563 -856002.2702229605,293870.436542118 -897064.410708225,256241.9694054982 -934713.904092681,214693.74144172342 -968418.5209673925,169538.92709382577 -997664.8873230129,121158.48128400292 -1021966.312727361,70001.00371953596 -1040870.8167394655,16581.754690080594 -1053969.2671798775,-38519.222160207086 -1060903.5367064828,-94659.90647196172 -1061374.5776583517,-151140.0644800182 -1055150.3094535933,-207205.98617358584 -1042073.208085818,-262056.2025209663 -1022067.4835792938,-314848.1771938402 -995145.7287516472,-364705.954727636 -961414.9214050098,-410728.73394350713 -921081.6622231342,-452000.32185606885 -874456.5322836353,-487599.40933568426 -821957.4572802444,-516610.5956344602 -764111.9703535787,-538136.074683993 -701558.271899667,-551307.8820038751 -635044.9928940315,-555300.5873070649 -565429.5781478534,-549344.3046436498 -493675.2174932981,-532737.8793871499 -420846.2661472045,-504862.099740549 -348102.11037334654,-465192.76992841123 -276689.4509767086,-413313.47305224376 -207932.9950177514,-348927.843921447 -143224.56530499904,-271871.166229297 -84010.65756006811,-182121.10441165318 -31778.49647553459,-79807.3785835823 11959.33599609715,34779.80874000442 45681.60409675497,161182.78272226002 67876.33442227196,298771.026424639 77059.80267521416,446737.60664286226 71796.4260478487,604097.5602517508 50719.373941787875,769688.3926120216 12551.688234493151,942172.8234734302 -43872.316036365904,1120043.896925732 -119585.61755123366,1301632.550351564 -215467.28815993157,1485117.7131103757 -332221.8047901346,1668538.9789554041 -470359.1660864742,1849811.8671214906 -630176.1156368605,2026745.6558245767 -811738.780113514,2197063.7388305124 -1014867.033725121,2358426.421065413 -1239120.8997779388,2508456.033277039 -1483789.2956392101,2644764.208878204 -1747881.4187804768,2764981.1287066876 -2030121.0586830527,2866786.5019517303 -2328944.1020868407,2947942.014385587 -2642499.4772772733,3006324.9387866957 -2968653.7568036444,3039962.5675567067 -3304999.607230669,3047067.0945431483 -3648868.2393260566,3026070.542519901 -3997345.9726227433,2975659.305191707 -4347294.984770598,2894807.848519259 -4695378.268778821,2782811.0961430483 -5038088.770481037,2639315.008237002 -5371782.62473084,2464344.852745862 -5692716.352421649,2258330.663121777 -5997087.821948511,2022129.3778065997 -6281080.718781332,1757043.1641929937 -6540912.206046028,1464833.4439721748 -6772883.398112242,1147730.1579101775 -6973432.208913785,808435.8363918356 -7139188.077872772,450124.077658898 -7267028.019685733,76432.07859319318 -7354133.390717477,-308553.0868875877 -7398046.7152062,-700314.6893788335 -7396727.869796465,-1093933.2487425325 -7348608.885964115,-1484120.234440861 -7252646.59754893,-1865258.5967948188 -7108372.335711789,-2231450.0818830216 -6915937.856990652,-2576569.1952191945 -6676156.682505452,-2894323.58758198 -6390540.028454256,-3178320.5412784363 -6061326.520476213,-3422139.137663002 -5691504.907769361,-3619407.587960655 -5284829.0274823895,-3763885.110497573 -4845824.316174914,-3849547.639543563 -4379785.223266384,-3870676.5554062854 -3892762.9514396163,-3821949.5335331457 -3391543.03085757,-3698532.523561595 -2883612.3275669217,-3496171.7889324958 -2377115.1912142313,-3211284.865278106 -1880798.5626389422,-2841049.2327467105 -1403945.9873127867,-2383487.4451418347 -956300.6150739787,-1837547.4186055847 -547977.4090928513,-1203176.5558767917 -189364.93626524208,-481388.3701354166 108982.73413891335,325679.7237577892 336463.3383098061,1214718.7621965373 482552.0864269951,2181212.003189893 536934.6853383012,3219411.330676309 489646.54983666365,4322327.43366268 331216.8818238581,5481734.806146068 52816.14752518319,6688192.499493891 -353594.65791178873,7931081.425432755 -895114.6993310242,9198658.85540066 -1577755.8021896884,10478130.591381723 -2406298.7251251223,11755741.09537027 -3384155.2491993373,13016881.660478031 -4513238.193274283,14246216.487862337 -5793841.507788748,15427826.301850563 -7224532.618123343,16545368.892885916 -8802059.181916153,17582255.726502676 -10521272.390490826,18521843.49900857 -12375068.88157222,19347639.259698335 -14354353.237548705,20043517.45827053 -16448022.91984492,20593947.017895684 -18642977.334974967,20984226.282501493 -20924152.541380893,21200723.444850806 -23274582.88844198,21231119.83357101 -25675490.630677957,21064653.22619548 -28106404.282206703,20692358.165285334 -30545306.17042034,20107300.089593697 -32968809.315550677,19304799.95572984 -35352363.40667138,18282645.92149671 -37670489.26757446,17041288.593464654 -39897040.81114053,15584016.311648306 -42005493.07203362,13917106.956354586 -43969254.48892523,12049952.819012493 -45762001.183554366,9995155.18236637 -47358030.559671536,7768585.407656213 -48732631.125552304,5389409.528688811 -49862465.034841694,2880073.6058568866 -50725959.44780197,266247.39744947635 -51303702.4445373,-2423275.7393483636 -51578838.87957466,-5156724.400557708 -51537461.25943116,-7899541.370540318 -51168990.45763585,-10614623.27160021 -50466540.861134455,-13262607.81849965 -49427264.373970516,-15802208.28874498 -48052667.59418841,-18190594.205921937 -46348896.43332709,-20383816.59116088 -44326982.46947508,-22337275.47305945 -42003045.41894309,-24006226.665844075 -39398446.281860024,-25346324.13661676 -36539885.96640319,-26314193.593229964 -33459444.52712361,-26868032.2431888 -30194556.56625995,-26968229.01004201 -26787918.843452897,-26577998.856384754 -23287326.718247656,-25664024.261571325 -19745436.70954237,-24197096.347439364 -16219453.193898907,-22152747.646769285 -12770738.0764293,-19511868.07681609 -9464343.148664491,-16261295.323863167 -6368465.791064951,-12394370.573889796 -3553829.6760943085,-7911450.348202928 -1092993.1723212786,-2820365.1297997404 940410.769057736,2863184.495889142 2472498.357579871,9115303.306410963 3430016.3294496047,15903657.354686366 3741273.8088413896,23187318.760805022 3337116.4311106945,30916707.274975542 2151933.4165068795,39033635.82834337 124687.24865112276,47471466.478368655 -2800045.3628838994,56155382.21149158 -6671033.455972522,65002778.9906714 -11529365.753053736,73923781.23367225 -17407452.289423134,82821882.58613476 -24328068.035983894,91594712.41993412 -32303453.256241277,100134926.95243807 -41334485.61970122,108331222.25831588 -51409939.20830017,116069464.74680556 -62505845.486333326,123233932.91988884 -74584971.04632029,129708662.42862032 -87596426.48369963,135378884.62553853 -101475420.08439289,140132546.99186027 -116143169.12544803,143861902.02169886 -131506980.48672888,146465149.39567158 -147460510.95007804,147848114.59791675 -163884216.02327698,147925945.5493581 -180645994.37405035,146624807.372233 -197602033.0018258,143883554.09282058 -214597856.12259963,139655354.95730522 -231469578.4087381,133909252.10560907 -248045360.72782966,126631625.64497848 -264147063.88282037,117827541.713024 -279592093.09286124,107521958.94124849 -294195423.0967995,95760768.84536861 -307771790.8383471,82611646.09623085 -320138039.7355209,68164685.38038336 -331115596.5816307,52532802.6550037 -340533059.20763916,35851880.04702737 -348228870.19503355,18280635.44642342 -354054049.2048307,200.0000004335914" stroke="white" stroke-width="1.5" /></svg>