<?xml version="1.0" encoding="utf-8" ?>
<svg baseProfile="full" height="400" version="1.1" width="400" xmlns="http://www.w3.org/2000/svg" xmlns:ev="http://www.w3.org/2001/xml-events" xmlns:xlink="http://www.w3.org/1999/xlink"><defs /><rect fill="black" height="100%" width="100%" x="0" y="0" /><circle cx="200" cy="200" fill="yellow" r="10.00000575118541" stroke="orange" stroke-width="2" /><polyline fill="none" points="200.26548689900292,200.0 200.17811942531947,200.0093504561652 200.08424152085323,200.0088690310583 199.98463631064766,199.99756250050166 199.88021230980428,199.97449456127504 199.772000575037,199.93880092157187 199.66115014282414,199.88970449412275 199.54892169621272,199.82653050945387 199.4366794204872,199.74872135550237 199.32588102778232,199.65585094022336 199.21806595216773,199.54763836612216 199.11484173959553,199.42396070005452 199.0178686811952,199.28486461836727 198.9288427635023,199.13057670669667 198.84947703507743,198.96151219568276 198.781481515335,198.778281918648 198.72654179796731,198.5816972850616 198.68629652779708,198.37277307446803 198.6623139558875,198.15272786957257 198.65606780292663,197.92298196438466 198.6689126849167,197.6851526037197 198.7020593776618,197.4410464339154 198.75655021707308,197.19264907124392 198.83323495051846,196.94211172407304 198.9327473699479,196.69173483717697 199.055483069955,196.4439487615031 199.20157868292705,196.20129148990424 199.37089294865086,195.96638353853302 199.56298997685823,195.7419000944187 199.77712505792832,195.5305405918001 200.01223336905917,195.33499592263897 200.26692191046547,195.15791352989834 200.5394649883893,195.00186067513175 200.82780353880787,194.86928621413702 201.12954855763093,194.76248125531149 201.44198886990068,194.68353911430563 201.7621034321066,194.63431501499372 202.0865783183386,194.61638602004325 202.41182849283567,194.6310117038418 202.7340244188151,194.6790961056106 203.04912349665034,194.7611515205932 203.35290626392765,194.87726470166774 203.6410172261601,195.02706605203798 203.90901012054735,195.20970239129775 204.15239734679264,195.4238138716665 204.3667032293408,195.66751560815166 204.54752070526337,195.93838456546356 204.69057096223156,196.23345221542226 204.7917654824736,196.5492034411687 204.8472698822471,196.88158211863131 204.853568873142,197.2260037514111 204.8075316124602,197.57737547264054 204.70647665601015,197.9301236566709 204.5482356789209,198.2782293049814 204.33121508953147,198.61527128494185 204.05445462903126,198.93447740757358 203.71768202626518,199.2287832319434 203.32136276387652,199.49089838011292 202.86674400957193,199.71338003859222 202.35589177551927,199.8887132110725 201.79172039038644,200.0093971740027 201.17801340285993,200.06803747260344 200.51943508306996,200.05744268154675 199.8215317494986,199.9707250432176 199.09072222379862,199.8014039887417 198.33427680449677,199.54351144438772 197.56028425260553,199.19169773015727 196.77760639736366,198.74133677000307 195.9958200981072,198.18862925582144 195.2251464379021,197.53070234178136 194.47636717509397,196.76570439328145 193.7607286392142,195.89289327740974 193.0898334263815,194.91271666067817 192.47552042491736,193.82688277637166 191.92973388263286,192.63842013931347 191.46438241123784,191.3517247212807 191.09118900850035,189.97259315659906 190.82153336292117,188.50824062530535 190.66628788642495,186.96730216116183 190.6356490954278,185.35981625397278 190.73896612705607,183.69718976006294 190.98456833262102,181.99214330112162 191.3795940320315,180.2586365192949 191.92982263796154,178.51177276451745 192.6395124646315,176.76768301739065 193.51124662040587,175.04338909589686 194.54578944355922,173.35664645502476 195.74195597414518,171.72576716278007 197.09649695972175,170.1694239215717 198.60400186675807,168.70643629778297 200.2568223111308,167.35554062136598 202.04501822876895,166.1351453181606 203.9563289800944,165.06307373671845 205.9761714186755,164.15629682486727 208.08766675508642,163.43065829505176 210.27169781141063,162.90059518746062 212.50699799064566,162.5788569918063 214.77027297945307,162.4762267180196 217.03635586372928,162.60124750869937 219.27839596635548,162.95995855759483 221.4680813177254,163.55564423448567 223.57589424530207,164.38860041349196 225.57139912207376,165.45592205525685 227.4235608494506,166.75131610003547 229.1010921724365,168.26494368527074 230.5728274388742,169.98329560494 231.8081199256842,171.88910477646257 232.77725936919117,173.9612992724618 233.4519058601021,176.17499920794955 233.80553580302268,178.50156044796557 233.81389520236024,180.9086677164646 233.45545512803375,183.36047924515628 232.71186384265528,185.81782460268377 231.56838974384195,188.23845679241555 230.01434899808083,190.57735910448096 228.04351152294012,192.7871065586217 225.65447881900042,194.81828108391727 222.8510270678931,196.6199388552932 219.64240890406302,198.14012745157572 216.04360734052557,199.32644972317246 212.07553548752085,200.12667046745278 207.76517595135678,200.4893612155083 203.14565414181124,200.36457764478266 198.25624015218247,199.70456335823636 193.14227440736732,198.46447302291043 187.8550129019922,196.6031071500198 182.45138857121674,194.0836501363643 176.99368614869917,190.87440258437556 171.54912876537665,186.94949838702348 166.18937552382192,182.28959661547412 160.98993033928485,176.88253789294225 156.0294634620043,170.72395468831112 151.38904827650373,163.81782482791454 147.15131720153326,156.1769575127507 143.39954177694418,147.82340124977014 140.21664330770972,138.78876336712304 137.6841417259686,129.1144311904644 135.88105161378542,118.8516855153269 134.88273558573974,108.06169772232116 134.7597264441472,96.8154027489641 135.57653067272298,85.19324115387697 137.39042690840716,73.28476468360603 140.25027400723422,61.188101074992915 144.19534417984354,49.00927529033845 149.25419739701,36.861385979822614 155.44361383736543,24.863637684806037 162.7676015509242,13.140231123506169 171.2164967267116,1.8191158216787073 180.76617396555523,-8.969388652341195 191.37738375624,-19.094094536320284 202.99523392283936,-28.424560408036683 215.54883114322843,-36.83280590899318 228.95109772597482,-44.19511208062772 243.0987776699169,-50.39389069579397 257.87264461552144,-55.31960399850436 273.13792263025164,-58.8727143945095 288.744928855547,-60.9656418941218 304.52994488787544,-61.52470552715408 320.316321381328,-60.49202355822996 335.9158177586917,-57.82734615913955 351.1301761197636,-53.509793272622716 365.75292546142373,-47.53946975715226 379.5714091988908,-39.938929561581375 392.3690257304065,-30.75446066650383 403.9276684505462,-20.057162868018054 414.030348225949,-7.943791188590353 422.46397794002945,5.462661205158895 429.0222953315191,20.01266520444935 433.5088970392494,35.53016580684255 435.7403535683027,51.81292042798506 435.5493718579865,68.6331831745157 432.7879693086951,85.73874965491571 427.3306205618545,102.85437339347392 419.07733607418504,119.68356102798361 407.95662963318887,135.91074923764813 393.92833047270085,151.20386179319792 376.98619461124116,165.21724028160742 357.16026949493653,177.5949369741634 334.5189660208331,187.9743530258618 309.1707925813794,195.99019976870244 281.2657069380258,201.27875534917393 250.9960435269124,203.48238342389288 218.59697624239385,202.25427513417097 184.34647984756083,197.26337020150288 148.56475693064598,188.1994077961468 111.61310175997366,174.77805290732903 73.89217747723973,156.74603936521837 35.83968878987196,133.88626651176176 -2.072561350705371,106.02278286989583 -39.342235705053696,73.0255870977792 -75.44064454391281,34.81517411378934 -109.81753462265755,-8.633247386726254 -141.90646639744386,-57.28594066049857 -171.13075196159957,-111.04730451648715 -196.90991736114609,-169.757088471126 -218.66664399006407,-233.18823122186808 -235.83413477114118,-301.0453912601983 -247.8638419064539,-372.96423445025596 -254.23348424859552,-448.5115383303362 -254.45527392097404,-527.1861667429996 -248.0842638283878,-608.4209611692837 -234.72672027623258,-691.5855868513429 -214.04841818819807,-775.9903624678188 -185.78275050838147,-860.8910918243212 -149.73853842308768,-945.4949048002368 -105.80742516560451,-1028.9671027302772 -53.97073349433796,-1110.4389905889682 5.694334425528183,-1189.0166648975053 73.00927594942512,-1263.790712309936 147.6897653334474,-1333.8467594985582 229.34214604822947,-1398.2768004001834 317.4610496845729,-1456.1912122717308 411.4282465734414,-1506.7313575135838 510.5128249622074,-1549.0826540408796 613.8727855490102,-1582.4879833136104 720.5581263847853,-1606.2612921802 829.5154796374557,-1619.8012326552375 939.5943465273369,-1622.6046728514293 1049.5549599645442,-1614.279902730534 1158.0777861496629,-1594.5593503366906 1263.7746567658494,-1563.311617931937 1365.201502546702,-1520.5526431632893 1460.8726371278904,-1466.4557882376243 1549.2765173846346,-1401.3606602347245 1628.8928831486662,-1325.7804683029576 1698.2111555368283,-1240.4077286882841 1755.7499493796724,-1146.118136454503 1800.0775317022815,-1043.9724334435607 1829.8330351876514,-935.216115552472 1843.7482133662056,-821.2768387901906 1840.669503255422,-703.7594028106511 1819.5801416605905,-584.4382126490661 1779.622063685284,-465.2471441304998 1720.117296531726,-348.26676574659336 1640.5885487362616,-235.7088995412738 1540.7786849143095,-129.89853550133256 1420.668769199483,-33.253147863353064 1280.4943571517838,51.740502665964016 1120.7597162555312,122.55195985428193 942.249659476046,176.63489723686814 746.0386849091644,211.45698048527908 533.4971275152393,224.53153099843763 306.29404641240274,213.4507166327946 66.39659329813605,175.91995810622572 -183.93436569243,109.79320359848273 -442.15257102007865,13.108689969060492 -705.4387940894385,-115.87522262659235 -970.7174850270169,-278.64458456103523 -1234.6777195042555,-476.39522587812394 -1493.7984717984164,-709.9994485454474 -1744.3781892804768,-979.9745458497521 -1982.5685883408137,-1286.4536640317451 -2204.412533885086,-1629.1595266538607 -2405.885804491524,-2007.3815414783085 -2582.9424837217516,-2419.95680240473 -2731.5636555795077,-2865.255484928722 -2847.8090194341503,-3341.1711123515124 -2927.8709776359956,-3845.116141382684 -2968.1306883596126,-4374.023279694598 -2965.215517768482,-4924.35290435638 -2916.057270277345,-5492.106898934412 -2817.9505243943527,-6072.849168528025 -2668.6103552617024,-6661.733026347791 -2466.228684487705,-7253.535572978126 -2209.5284640702084,-7842.6991106411 -1897.814875022083,-8423.379550149606 -1531.022703560267,-8989.501678469558 -1109.759049194697,-9534.821060674492 -635.3405204784638,-10052.992252451684 -109.82408620257326,-10537.64289918611 463.96922700102454,-10982.453196085855 1082.4385648873033,-11381.240081988335 1741.1961311370314,-11728.045438648334 2435.069396746034,-12017.22746877858 3158.11323059951,-12243.554331271844 3903.6324651616987,-12402.299022305737 4664.215315827227,-12489.334407877634 5431.777965502788,-12501.227238213347 6197.620507967471,-12435.32990890892 6952.494315230306,-12289.868679059407 7686.680756366021,-12064.02701441132 8390.081049250632,-11758.022695104211 9052.316873496626,-11373.177314117196 9662.841214134076,-10911.976795278722 10211.058742797613,-10378.121579685769 10686.454878115255,-9776.56516751784 11078.732501553059,-9113.539759261283 11377.95514118355,-8396.567816838415 11574.69527586448,-7634.458461414917 11660.186258381602,-6837.287740864053 11626.476210545454,-6016.361935890435 11466.58210841036,-5184.163229290831 11174.642154097597,-4354.277237126061 10746.064424551543,-3541.3020927881657 10177.669699294618,-2760.7389838787394 9467.82630117283,-2028.8642659895445 8616.574738397674,-1362.5835151272893 7625.739914957653,-779.2681295963176 6499.028681598454,-296.5753503134606 5242.110532755061,67.74716682484876 3862.679317528625,296.0708246295597 2370.4939262307707,371.10793365965975 777.3960390712098,276.14399988324897 -902.6968192096224,-4.721745536148433 -2653.824485350125,-486.33002066491724 -4458.044969009618,-1182.212053920952 -6295.523961049432,-2104.3399329758236 -8144.653846126997,-3262.8798396786906 -9982.202714081108,-4665.9514410689135 -11783.493524475443,-6319.396849204344 -13522.61321385481,-8226.562672299602 -15172.6511486402,-10388.098752974322 -16705.96592149124,-12801.777222901786 -18094.479069201436,-15462.335493740227 -19309.99386000368,-18361.34674916771 -20324.536862201436,-21487.121399752723 -21110.71956934361,-24824.64280934322 -21642.116925112703,-28355.540397206772 -21893.65916937885,-32058.10296340121 -21842.033021428568,-35907.33477549239 -21466.087833339763,-39875.05659309081 -20747.24199210659,-43930.05339374344 -19669.884529751074,-48038.270101199254 -18221.76662260968,-52163.056107398894 -16394.37743047574,-56265.45882590001 -14183.298549367735,-60304.565920785935 -11588.531234168815,-64237.89522612423 -8614.790494681438,-68021.83071219578 -5271.760185762922,-71612.1021722056 -1574.303303615472,-74964.30560392368 2457.3781301657846,-78034.46055225504 6797.638964403031,-80779.59996930695 11415.347627279556,-83158.38744687926 16273.908262329925,-85131.75599167112 21331.35240056297,-86663.56185557232 26540.50368803432,-87721.24631212509 31849.21851514551,-88276.49769581636 37200.70464041977,-88305.90550355459 42533.919071478405,-87791.59790777217 47784.045564619744,-86721.85365818904 52883.051138218005,-85091.67906418418 57760.31997179134,-82903.34056136014 62343.36199094009,-80166.84328307174 66558.59232851853,-76900.34608851217 70332.17671563107,-73130.50365064792 73590.9367046786,-68892.7264860799 76263.30747405565,-64231.35021980838 78280.33982448133,-59199.705924652095 79576.7368653842,-53860.084060006826 80091.91482195017,-48283.58535845509 79771.0763856077,-42549.85297051867 78566.28409942344,-36746.681274854905 76437.52043181102,-30969.497988838884 73353.72046379941,-25320.717566232273 69293.76251328725,-19908.965336013844 64247.40156015858,-14848.173408920218 58216.13003411256,-10256.551043294661 51213.95039687689,-6255.433904977132 43268.044005242205,-2968.018460693981 34419.32099279654,-517.9895924392478 24722.836366390693,971.9486084353732 14248.058186377897,1381.627036000802 3078.9745935535357,595.0370709966955 -8685.972435843323,-1497.9880986442186 -20934.13738159566,-5000.053558218581 -33539.11472379423,-10004.463002775346 -46361.38315854992,-16593.47969480396 -59249.15590396272,-24836.609765890895 -72039.44031404305,-34788.93076363242 -84559.30762968484,-46489.48931765581 -96627.37113689896,-59959.79253936089 -108055.46829374465,-75202.41825420385 -118650.53955241395,-92199.76936980375 -128216.69366854896,-110912.99758658603 -136557.44628593398,-131281.12124111605 -143478.11554393283,-153220.36131948302 -148788.35541279273,-176623.71857591643 -152304.8044559464,-201360.81323055844 -153853.82478854913,-227278.00689411492 -153274.30318923484,-254198.82417423793 -150420.48367031277,-281924.6888617144 -145164.798364108,-310235.98668117175 -137400.66138399218,-338893.4633336069 -127045.18841185956,-367639.96297391667 -114041.80319265752,-396202.50837854535 -98362.69092312717,-424294.7198943625 -80011.05774629032,-451619.56585329666 -59023.15524304429,-477872.4325265873 -35470.028982010874,-502744.49692152557 -9458.950879219521,-525926.3808408624 18865.503643437027,-547112.0596838597 49320.77090650287,-566002.9945258826 81686.04144425139,-582312.4511318774 115702.46153278303,-595769.9648028073 151073.82203055528,-606125.9053907114 187467.75861764944,-613156.0925172535 224517.48277188328,-616666.4070634196 261824.0575131102,-616497.3414361959 298959.2261103337,-612528.428033093 335468.7956166918,-604682.482787484 370876.5703206834,-592929.5987552238 404688.8230326006,-577290.8234610463 436399.28462582343,-557841.453222717 465494.62449468067,-534713.8779678758 491460.3866531575,-508099.91120263044 513787.33816857013,-478252.541824636 531978.1785950254,-445487.0474311564 545554.5511432056,-410181.4126792806 554064.2886008909,-372776.0011262203 557088.819612711,-333772.43481630617 554250.6539511944,-293731.6426802274 545220.858979719,-253271.04655084602 529726.4337380693,-213060.8622453461 507557.4820890462,-173819.50266868665 478574.0822640896,-136308.0801976386 442712.7470479403,-101324.01663346995 399992.3668527311,-69693.78067593418 350519.52714939095,-42264.78506904681 294493.0922396116,-19896.488184237354 232207.94924529793,-3450.7577098247375 164057.8095331506,6218.432833819633 90536.96963521378,8275.89098906871 12240.940112227954,1916.5790245318801 -70134.14124068731,-13622.634811420872 -155793.38592108295,-39050.96864495278 -243846.38396908136,-75011.59545347438 -333311.8363192211,-122069.53060588101 -423123.62655087723,-180699.6907543408 -512138.35285663174,-251275.28444440514 -599144.3242751873,-334056.70143548894 -682872.0072885636,-429181.07271548745 -762005.8899077007,-536652.6763804466 -835197.7105327245,-656334.3657718385 -901080.9783634146,-787940.1953735368 -958286.6911618261,-931029.4168375917 -1005460.1349625547,-1085002.0120212082 -1041278.6291348537,-1249095.92198748 -1064470.059289511,-1422386.1204845235 -1073832.0201709464,-1603785.6674336237 -1068251.37117189,-1792048.8624177093 -1046723.9887538827,-1985776.6000892196 -1008374.483157008,-2183424.008866477 -952475.6316441963,-2383310.4313495215 -878467.2674555922,-2583631.779685604 -785974.3529479912,-2782475.271813241 -674823.9573548468,-2977836.525310561 -545060.8545022295,-3167638.9547047988 -396961.45391570113,-3349755.3858378213 -231045.78029011347,-3522031.767535139 -48087.221480165594,-3682312.8267354565 150880.2258160863,-3828469.4787789765 364557.47052142606,-3958427.7701288243 591378.8425675225,-4070199.096842258 829513.8287802242,-4161911.4090704103 1076872.223481653,-4231841.08021941 1331112.8585598366,-4278445.089639233 1589656.044265685,-4300393.140315445 1849699.8146295678,-4296599.308523431 2108240.030351885,-4266252.801261595 2362094.347578112,-4208847.379999022 2607930.0134438546,-4124208.9963277676 2842295.399054109,-4012521.176951279 3061655.1280874433,-3874347.692490989 3262428.6049924563,-3710652.0472387546 3441031.6913274038,-3522813.3355644564 3593921.22279424,-3312638.0254974924 3717642.003593231,-3082367.2512708046 3808875.8595738625,-2834679.2245140616 3864492.2780205384,-2572686.408406252 3881600.1105561513,-2299927.140466826 3857599.7673642277,-2020351.4377154077 3790235.286527896,-1738300.7725133584 3677645.622573848,-1458481.6682743889 3518414.464099265,-1185933.0310598991 3311617.86244411,-925987.2054255562 3056868.932518881,-684224.8202285582 2754358.8738410072,-466423.57181211736 2404893.555256707,-278501.1773311875 2009924.9113534382,-126452.81915284619 1571576.412755971,-16283.491349413223 1092661.8968147866,46064.249691803554 576697.0800172188,54786.53765979618 27903.11904836617,4297.769260189373 -548798.3560447475,-110687.27182828062 -1147799.2456470418,-295069.5928561301 -1762828.452050276,-553281.4029554548 -2386985.160388245,-889201.7603127044 -3012782.17165843,-1306073.523055167 -3632199.4216437247,-1806422.7266977509 -4236747.701782298,-2391981.556091201 -4817542.472180568,-3063616.113400611 -5365387.524047919,-3821260.204535765 -5870868.110032103,-4663856.373542095 -6324453.017584134,-5589305.406730248 -6716604.914059905,-6594425.504877584 -7037898.144387573,-7674922.281914993 -7279143.01453779,-8825370.691511005 -7431515.448583468,-10039209.90844766 -7486690.765778897,-11308752.099401953 -7436980.188858666,-12625205.907662878 -7275468.5677459985,-13978715.348602112 -6996151.686200787,-15358414.667787265 -6594071.414770924,-16752499.552129071 -6065446.883872633,-18148314.907283798 -5407799.778006911,-19532459.2228522 -4620071.798048569,-20890905.34213234 -3702732.3051466835,-22209137.23696671 -2657874.1488537216,-23472302.162502035 -1489295.6952943003,-24665377.33362097 -202567.1099453839,-25773350.02681868 1194920.9848425065,-26781409.771011867 2693928.2641191087,-27675151.05102553 4283356.531129957,-28440784.711312003 5950264.138683285,-29065356.018004335 7679904.335534934,-29536967.117991086 9455788.664005853,-29845001.427727975 11259776.298857877,-29980347.295431364 13072189.954375723,-29935618.111623578 14871958.698105367,-29705365.898170818 16636787.697670538,-29286285.288383756 18343354.593834005,-28677404.723718323 19967531.841214027,-27880261.63925262 21484633.990943067,-26899058.39333967 22869688.510609347,-25740795.71931347 24097728.349965837,-24415380.54119329 25144104.07041727,-22935705.10299121 25984812.96681359,-21317694.514052447 26596842.226501916,-19580320.011970505 26958522.798084922,-17745575.49065411 27049890.28627887,-15838415.13414368 26853048.8551883,-13886650.336302923 26352533.815847415,-11920804.471424824 25535668.300677475,-9973924.50934599 24392909.193211053,-8081348.938454369 22918177.291544925,-6280431.967913413 21109166.543853033,-4610224.522754459 18967627.108987648,-3111113.117760717 16499616.96945665,-1824418.2931691497 13715716.862195585,-791954.9113855449 10631203.398362892,-55557.242756006475 7266175.420084328,343427.59701003716 3645628.8922157693,364673.66242433136 -200524.0474156598,-30567.171475822717 -4237495.854199861,-878891.3471333178 -8425727.656285837,-2214158.551613197 -12721059.590899704,-4066901.975564311 -17074969.71366819,-6463740.943455679 -21434883.099160105,-9426803.397028837 -25744551.985957388,-12973166.092968633 -29944506.9928194,-17114320.68246863 -33972578.55004575,-21855674.065986272 -37764486.75923979,-27196091.552827347 -41254496.92362554,-33127491.394563228 -44376136.98931504,-39634499.196724795 -47062972.11582659,-46694170.53854247 -49249430.5630871,-54275789.84052673 -50871674.054340295,-62340753.11029415 -51868504.76282628,-70842541.66532989 -52182300.08847239,-79726793.27576852 -51759965.45335189,-88931476.39061742 -50553894.46595794,-98387172.20855634 -48522924.999251656,-108017468.33250174 -45633279.01094389,-117739466.6102571 -41859473.321390726,-127464406.51820795 -37185188.06938637,-137098404.09939957 -31604079.20307511,-146543305.0314671 -25120521.14555146,-155697648.88562807 -17750265.714900106,-164457740.0588257 -9521003.48777971,-172718819.23249245 -472814.0841344125,-180376327.5501867 9341507.673363058,-187327254.03105447 19856262.101334766,-193471555.06655005 30992803.00634104,-198713633.20533013 42659654.48090299,-202963860.8378728 54752795.30973971,-206140132.87136793 67156118.67995752,-208169431.0604881 79742073.22355506,-208989381.35497218 92372489.56875731,-208549784.46480918 104899594.54881904,-206814098.85231936 117167213.026546,-203760854.56122288 129012154.95620836,-199384975.70868745 140265782.84103817,-193698989.11901248 150755752.1762896,-186734096.48727167 160307914.81978133,-178541087.6461485 168748372.5315826,-169191072.98559076 175905665.20211074,-158776013.85631365 181613075.57576746,-147409030.8853218 185711029.60980996,-135224471.5520308 188049569.02154532,-122377720.12115851 188490870.10885206,-109044735.1036083 186911780.6179445,-95421301.81505382 183206344.31771633,-81721990.31587368 177288281.06107607,-68178812.03261836 169093388.5099482,-55039571.6632989 158581830.41004845,-42565914.53429191 145740275.36159176,-31031073.379051227 130583849.47747771,-20717322.516475387 113157866.18445936,-11913151.583787262 93539296.73445658,-4910175.284330229 71837945.77928865,199.99999991202412" stroke="white" stroke-width="1.5" /><circle cx="180.69113542661592" cy="246.1212288310569" fill="red" opacity="0.7" r="14.738476308781951" /></svg>