<?xml version="1.0" encoding="utf-8" ?>
<svg baseProfile="full" height="400" version="1.1" width="400" xmlns="http://www.w3.org/2000/svg" xmlns:ev="http://www.w3.org/2001/xml-events" xmlns:xlink="http://www.w3.org/1999/xlink"><defs /><rect fill="black" height="100%" width="100%" x="0" y="0" /><circle cx="200" cy="200" fill="yellow" r="10.000000000006912" stroke="orange" stroke-width="2" /><polyline fill="none" points="200.99055465020675,200.0 201.0129620120074,200.05317587833724 201.03007766441812,200.1084476004906 201.04152564903148,200.16524144616602 201.04698164015878,200.22292546108548 201.04618064542646,200.28081338968224 201.03892449084472,200.33816954577173 201.02508898302068,200.39421462339476 201.0046306380261,200.44813243848168 200.97759286442655,200.4990775797779 200.94411148724345,200.54618393471452 200.90441950024442,200.58857404272518 200.85885093602337,200.62536921503138 200.807843746912,200.65570034630133 200.75194159491605,200.67871932998028 200.69179445563162,200.69361097567312 200.62815794949577,200.69960531390657 200.56189132376505,200.69599016109785 200.4939540202794,200.6821238057994 200.42540077732465,200.65744766647617 200.35737522869118,200.62149876139347 200.291101979262,200.5739218228526 200.22787715404357,200.51448088119864 200.1690574363482,200.4430701389257 200.11604763069835,200.3597239520026 200.07028680676953,200.2646257343962 200.03323310212764,200.15811560283984 200.00634728342226,200.04069658231094 199.99107518783194,199.91303919855915 199.98882918865996,199.77598429246058 200.00096885077113,199.63054390202578 200.0287809627529,199.47790007160032 200.07345915296932,199.31940146417352 200.13608331574596,199.15655767172825 200.21759909145544,198.9910311401616 200.3187976599466,198.82462664939032 200.44029612025824,198.65927831568786 200.5825187405629,198.49703411191473 200.74567937049866,198.3400379318901 200.92976531317328,198.1905092574572 201.13452295589872,198.05072052053927 201.35944545688545,197.92297228733537 201.60376277947998,197.80956642741157 201.86643435587513,197.7127774664097 202.14614464841947,197.6348223569981 202.44130185858603,197.57782893807715 202.7500400112772,197.54380338665234 203.0702246154269,197.5345969997029 203.3994620708578,197.55187267429918 203.7351129561576,197.5970714826355 204.07430929311212,197.67137976402768 204.41397584019236,197.77569717775606 204.75085542101604,197.91060617840728 205.08153824393682,198.07634338858568 205.40249511635955,198.27277335206327 205.71011440250564,198.49936515317154 206.00074251668607,198.7551723851145 206.27072768626613,199.03881694054317 206.51646666006394,199.34847708187883 206.7344539796045,199.68188022626595 206.9213333731836,200.03630085050514 207.07395077685763,200.4085638847656 207.18940843306598,200.7950539202882 207.26511946744012,201.19173050573812 207.2988622983041,201.5941497495105 207.28883419226491,201.99749238139125 207.23370324397828,202.39659835688676 207.13265802947785,202.78600801171564 206.9854541611774,203.16000969296505 206.79245695955422,203.51269370791113 206.55467945231263,203.838012342253 206.27381491715326,204.12984560736942 205.95226319971218,204.3820722821299 205.59315006426692,204.58864571981843 205.20033887182106,204.7436737959804 204.77843392845077,204.84150227967362 204.33277490647706,204.87680081994986 203.86942181214064,204.84465065272246 203.39513005588213,204.7406330518289 202.91731527480016,204.56091747344846 202.44400766095373,204.3023482764582 201.98379566330638,203.962528844175 201.54575905453214,203.53990188658148 201.13939148570518,203.0338246678661 200.77451279099583,202.44463788316165 200.46117144965459,201.77372690188923 200.2095377623842,201.02357410416306 200.02978845212448,200.19780106220452 199.93198355361088,199.3011993614442 199.92593660999333,198.33974891657363 200.0210793463696,197.32062271669201 200.2263221372592,196.2521770311167 200.54991172568984,195.1439262234252 200.9992877835061,194.00650145566485 201.5809400235105,192.85159271696935 202.3002676818777,191.6918737803617 203.16144328171526,190.54090987734682 204.16728266350168,189.413048080784 205.31912332330296,188.3232906009885 206.61671313315117,187.28715142628343 208.05811152789124,186.32049697528464 209.63960522746433,185.43937167177322 211.3556405214983,184.65980960155972 213.19877407294757,183.99763366152092 215.15964409836403,183.46824386101534 217.22696365347232,183.08639668200206 219.3875375936844,182.86597764307405 221.62630458997518,182.81976944081384 223.9264053614878,182.9592182558346 226.2692780380747,183.2942010069653 228.63478128983627,183.83279651164034 231.00134555817,184.58106366004867 233.34615239586742,185.54282983144623 235.6453415748404,186.71949286981376 237.87424525198193,188.10983998949763 240.00764809977576,189.70988699657718 242.0200719122716,191.5127411856945 243.88608279306436,193.5084912025401 245.58061862444077,195.68412704705185 247.07933411072176,198.02349323003975 248.35896028917935,200.50727788524912 249.3976750141456,203.11304037920505 250.17548054968017,205.8152796524882 250.6745840592017,208.58554516893963 250.87977646269277,211.39259194486934 250.77880484936554,214.2025806805216 250.36273339189142,216.97932352338245 249.62628751320608,219.68457546065957 248.5681759140502,222.2783707703927 247.1913849840801,224.719403361845 245.50344009648748,226.96544921145463 243.51662833007788,228.97382845675315 241.24817727760117,230.7019040539793 238.72038478812567,232.107613242953 235.9606947570099,233.15002740298837 233.00171442139538,233.7899352345863 229.88116904309481,233.99044357215163 226.64179036434365,233.71758953216556 223.33113580418558,232.94095713850416 220.00133602230696,231.6342910514855 216.70876920985506,229.77609956934054 213.51366126900157,227.35023867967425 210.47961190940836,224.3464686234414 207.67304761385066,220.76097420403016 205.1626033994119,216.59683993777819 203.018436316126,211.8644711076165 201.31147467183732,206.58195185577625 200.11260803946112,200.7753316409787 199.49182417885083,194.47883169561445 199.51730007730592,187.73496355332438 200.25445536677304,180.59455228007715 201.76497739769493,173.11665773384604 204.1058282243871,165.3683879993794 207.3282446694962,157.42460009378252 211.47674346999293,149.36748411243113 216.58814424868427,141.2860281781045 222.69062368791313,133.27536286233564 229.80281479079383,125.43598515809876 237.9329654853716,117.87286358654893 247.07817104460764,110.69442760512678 257.22369484715927,104.01144613566082 268.3423918788164,97.93580173307424 280.39424906186406,92.57916865013958 293.32605599090107,88.05160480204921 307.07121894194285,84.46006937553827 321.54973010224376,81.90687953874905 336.6683028387075,80.48812136670152 352.32068248300936,80.29203167896519 368.3881405641856,81.3973689660715 384.74015866985445,83.87179293415065 401.2353061735829,87.77027339786984 417.7223139394379,93.13355027485976 434.0413438196283,99.98666725583092 450.02545131465195,108.33760231973918 465.50223618778034,118.1760186101411 480.2956731403382,129.4721592663331 494.22811188726695,142.17590959198395 507.12243315284326,156.21604942806846 518.8043442657109,171.49971776197484 529.1047952045302,187.9121104397171 537.8624931665361,205.3164303455999 544.9264910390582,223.5541075695815 550.1588225878108,242.44530489697928 553.4371547759295,261.7897214324111 554.6574254352972,281.3677043187537 553.7364325678495,300.9416753459072 550.6143399000644,320.25787578157747 545.2570619887609,339.0484290203319 537.658491219154,357.03371666603084 527.8425284833813,373.92505946946824 515.8648792134601,389.4276901756453 501.8145767975661,403.24400083623186 485.81519625971714,415.077042559544 468.02572245301695,424.6342510542513 448.6410389232862,431.6313667291348 427.8920060554083,435.79651359827085 406.04510012525475,436.87439687053376 383.4015884453461,434.63057493821395 360.29621990527824,428.85575758747314 337.0954148538914,419.3700786999305 314.1949434270925,406.0272885667748 292.0170870632557,388.71880826077046 271.007284029273,367.3775863722426 251.6302662586736,341.9816968751552 234.3657016247503,312.5576160080333 219.70336287451875,279.18311588682826 208.137851763976,241.9897131626983 200.16291438481755,201.16461244088836 196.26539117381293,156.9520864239957 196.9188525585914,109.65423786248705 202.57697852223868,59.631092407020816 213.66674746370995,7.29997637075266 230.58150648770672,-46.86586077534341 253.6740015696498,-102.33941264700934 283.2494518004198,-158.54289683447098 319.5587570129397,-214.85156793810597 362.79193242076656,-270.5983710777882 413.07186735218613,-325.0794343043566 470.44850764045145,-377.56038780117785 534.8935626354714,-427.2834866679293 606.2958380451953,-473.475502528521 684.4572948153277,-515.3563373137174 769.0899319430621,-552.1483004615944 859.8135874350423,-583.0859785916067 956.1547465157232,-607.4266145870553 1057.5464396381572,-624.4609011213302 1163.3293048294195,-633.5240821483222 1272.7538794190068,-634.0072449159179 1384.9841752706445,-625.3686748268722 1499.1025793049232,-607.1451361396149 1614.1161074219563,-578.9629332493453 1728.964024989235,-540.5486002918816 1842.5268309517123,-491.7390612404414 1953.6365854710332,-432.4910986834735 2061.0885429523614,-362.88996723595494 2163.6540335349137,-283.1569871920022 2260.094516790503,-193.6559557041394 2349.1767116968304,-94.8982165886755 2429.688687150704,12.453764096932701 2500.4567775987207,127.5844612058432 2560.3631690418633,249.52512617376692 2608.3639819808577,377.1555159100564 2643.5076600857656,509.2076201366778 2664.9534567782157,644.2714745880434 2671.9897967938227,780.8031273883048 2664.05227643259,917.1348036428033 2640.741054890755,1051.4872889479102 2601.837380076193,1181.9845263037175 2547.318985908623,1306.670393006659 2477.3740945488107,1423.5275947384068 2392.413756522243,1530.4985835211448 2293.082264514474,1625.5083747780802 2180.2653829033625,1706.4891067539484 2055.096145011661,1771.406153373375 1918.957983732385,1818.2855696337365 1773.4849786796924,1845.2426172535047 1620.559024388863,1850.5110879585332 1462.3037493238005,1832.4731129340764 1301.075044493926,1789.6891200576354 1139.448093228446,1720.9275760221306 980.2008299453531,1625.1941288264666 826.293795370863,1501.7597478125613 680.8463983426807,1350.1874439156275 547.1096397413844,1170.357142501878 428.43540185650977,962.4882755054934 328.2424561708491,727.159658925107 249.97939364869677,465.3262264434531 197.0847336003785,178.33220029137345 172.9445194796438,-132.07970326003283 180.8477619214009,-463.76341403531455 223.94014027651582,-814.1693453867221 305.1764231470078,-1180.3492457130471 427.2721152423485,-1558.9663397016534 592.654881520609,-1946.3109875906343 803.4163392914139,-2338.3220373981844 1061.2648439838588,-2730.6139859669393 1367.4799238719893,-3118.510000172345 1722.8690424713984,-3497.08078018765 2127.727383867512,-3861.18917281387 2581.8013652444683,-4205.54036519662 3084.256581734813,-4524.737408471921 3633.650880848497,-4813.341737809509 4227.913246679082,-5065.938270834342 4864.329147421491,-5277.204581460647 5539.532963157879,-5441.983561794561 6249.508064167665,-5555.3589020392355 6989.595053096757,-5612.732638409195 7754.508617203741,-5609.903943111176 8538.363359739498,-5543.148259688072 9334.708892598286,-5409.295822677304 10136.574376130211,-5205.808543837284 10936.522587001613,-4930.854199361154 11726.713481948342,-4583.376814715644 12498.977105058211,-4163.16211715772 13244.89555985605,-3670.8969116729672 13955.893636108833,-3108.2212350479613 14623.33754622001,-2477.772155936506 15238.641088771617,-1783.2181168919508 15793.378418759366,-1029.2827580681594 16279.402467018888,-221.75722214181548 16688.967917029087,632.499983686316 17014.857517557262,1525.5763998414964 17250.51038640058,2448.5330224291747 17390.150845747918,3391.4463031585233 17428.916225432866,4343.465195472501 17362.981978568303,5292.883544456007 17189.68237672448,6227.227947125708 16907.62499086784,7133.361025711213 16516.797121566822,7997.599860933659 16018.662319254467,8805.849126729454 15416.24513422856,9543.748254246137 14714.202258038353,10196.83173336999 13918.878264217523,10750.701436864849 13038.34422803501,11191.209627942957 12082.417602857146,11504.651089470106 11062.661855381457,11677.962594906165 9992.364513657549,11698.927730515665 8886.492460374331,11556.384878475845 7761.623508944676,11240.435984460344 6635.853530683945,10742.653564329838 5528.6786567086065,10056.283255964023 4460.852356543292,9176.439097231407 3454.21749490052,8100.288612750477 2531.513786375197,6827.224723458337 1716.1614021751643,5359.021456913206 1032.0218304093778,3699.9704353456596 503.13744842687925,1856.995155107052 153.45162844267782,-160.25985259979677 6.511562075735952,-2339.3677722775365 85.15635103641002,-4665.088798391695 411.1932653517679,-7119.372402111196 1005.0654123017947,-9681.394751830496 1885.5143835785689,-12327.633177582651 3069.2417498689842,-15031.979235238354 4570.573545832568,-17765.891550445256 6401.13212902126,-20498.58920645407 8569.519998453856,-23197.28598682232 11081.020317225853,-25827.46529661019 13937.318993819119,-28353.195067860277 17136.253234063497,-30737.481411287867 20671.591475731395,-32942.65921121878 24532.84955668169,-34930.81728051986 28705.1478419812,-36664.25510276191 33169.113842763836,-38105.967596847586 37900.83459763902,-39220.153752028964 42871.86275485332,-39972.744406254016 48049.27988954264,-40331.94388608898 53395.82011554338,-40268.77970033168 58870.056506512854,-39757.65399031667 64426.65222863525,-38776.88999637418 70016.6776100463,-37309.26641051982 75587.99363439198,-35342.532158688424 81085.70155275779,-32869.8938999401 86452.65746572438,-29890.468352994023 91630.04984270647,-26409.691469666788 96558.03702718155,-22439.676477213718 101176.4408330976,-17999.51291340316 105425.49137969525,-13115.498984802194 109246.61735018415,-7821.299894640367 112583.27490582633,-2158.025215158656 115381.80755344144,3825.781077257852 117592.32836412797,10074.243626684676 119169.61508750624,16524.356729999334 120074.00791279825,23106.287437003164 120272.29890948624,29743.783780429705 119738.60155003956,36354.690095072634 118455.18818904509,42851.570184149095 116413.28296042971,49142.43780001916 113613.7972701724,55131.592535543205 110067.99491812925,60720.55778338751 105798.07389052698,65809.11592682183 100837.65203437471,70296.43439190062 95232.14416523464,74082.27463379045 89039.01867767161,77068.27456720594 82327.92242870855,79159.29340149317 75180.66355231732,80264.80632503591 67691.04293882597,80300.3350224601 59964.526376334215,79188.89862340587 52117.750798647176,76862.46839578277 44277.85971019476,73263.40833204123 36581.66465460708,68345.88275668456 29174.631549179096,62077.211229384666 22209.69280864957,54439.15035238352 15845.888412232684,45429.08163428288 10246.841408534932,35061.08433450087 5579.075782155115,23366.872231779747 2010.1870991000383,10396.573542460783 -293.12112106650784,-3780.6662260905377 -1167.1198191587378,-19076.27785290003 -453.2375924823715,-35382.07663125826 1999.6757921432531,-52570.30201686713 6333.028405404762,-70493.90371055358 12676.132765992781,-88987.08712997477 21143.847222978366,-107866.12886575628 31834.241165152936,-126930.4700687238 44826.3147640766,-145964.09278985905 60177.805337927035,-164737.1811112073 77923.11349693357,-183008.06548648822 98071.3829643304,-200525.4450813587 120604.76832743612,-217030.87909623937 145476.92493223405,-232261.53410479162 172611.75466529603,-245953.17038809988 201902.4404462031,-257843.34613185227 233210.80086301995,-267674.81422851334 266366.99450870167,-275199.0823391266 301169.60120849573,-280180.1028733463 337386.10446373053,-282398.0556973898 374753.79607849166,-281653.1827356395 412981.1200909565,-277769.63025154936 451749.4688160993,-270599.251537138 490715.43904320523,-260025.32006736472 529513.551249349,-245966.10094497295 567759.4291251589,-228378.22673037596 605053.4308054218,-207259.82257483463 640984.7170050681,-182653.3250053027 675135.7348385961,-154647.93879362175 707087.0895125367,-123381.6771240118 736422.7693968873,-89042.93178794211 762735.6832793995,-51871.52241482742 785633.4619683708,-12159.17681339308 804744.4699219042,29750.60163346307 819723.9663353688,73463.31890231767 830260.3492079064,118534.96149514981 836081.4104291599,164474.18147438485 836960.5249761314,210745.21597337446 832722.6929841925,256771.55403088036 823250.3498513643,301940.3551609202 808488.8567442982,345607.6150121279 788451.5819872372,387104.06386472995 763224.4829153589,425741.77364112943 732970.0979390134,460821.4386618361 697930.8598643255,491640.28466737916 658431.6440086153,517500.5497639826 614881.4683847503,537718.4700612949 567774.2682438267,551633.6919879935 517688.6735837912,558619.0227369673 465286.72586131253,558090.4201536075 411311.47907845443,549517.1137912497 356583.4406306957,532431.7399730174 301995.8187572195,506440.3656769046 248508.55606877082,471232.26905850373 197141.14236460265,426589.3385987941 148964.2146909586,372394.94836396514 105089.96822316998,308642.1638352848 66661.41793684648,235441.1313457618 34840.56801745589,153025.50447207145 10795.56337081772,61757.76288719882 -4313.084748213971,-37866.71672178665 -9347.08927876969,-145216.97194642568 -3205.666845189797,-259525.27423535025 15158.638131089225,-379887.57251601154 46723.74548106773,-505265.6641682059 92381.62383804946,-634491.182090119 152921.85843221608,-766271.4699501465 229015.4058721807,-899197.3990587003 321198.75098989916,-1031753.1597203441 429858.69024360215,-1162328.0375665978 555217.9734300504,-1289230.1613812074 697322.0403175877,-1410702.1835025093 856027.0910541258,-1524938.827241476 1030989.7286262154,-1630106.2081391176 1221658.4080649656,-1724362.8075815937 1427266.920355246,-1805881.9486016359 1646830.1289787467,-1872875.5949520362 1879142.163613505,-1923619.2660946532 2122777.2586628576,-1956477.8329809105 2376093.4039746826,-1969931.9327977502 2637238.9513577553,-1962604.7156196882 2904162.2933713086,-1933288.6125556102 3174624.700467919,-1880971.7939247235 3446216.369067738,-1804863.9676551814 3716375.6967429053,-1704421.1528815425 3982411.761653692,-1579369.052021857 4241529.942010905,-1429724.636822981 4490860.568001518,-1255815.560332282 4727490.453713524,-1058297.0078145918 4948497.110585008,-838165.6055790955 5150985.3972799685,-596770.0177655148 5332126.314199009,-335817.87756801466 5489197.604640945,-57378.72130355045 5619625.7795527475,236117.37874740735 5721029.1394726,541885.7536516113 5791261.326342629,856797.8814706014 5828454.900012477,1177397.1232087177 5831064.40015024,1499919.589503113 5797908.324598726,1820320.2219361083 5728209.430627591,2134304.1135910028 5621632.746683196,2437363.02993777 5478320.669747018,2724817.023829154 5298924.5178605225,2991860.967894919 5084631.909294207,3233615.754606149 4837189.349707637,3445183.839481953 4558919.426874781,3621708.727138446 4252732.03946846,3758437.924012148 3922129.1222568364,3850788.8065645876 3571202.3750152504,3894416.780581117 3204623.5565491626,3885285.0368484077 2827626.9683975587,3819735.14209873 2445983.8248628844,3694557.6427335427 2065968.2866938452,3507061.8035849407 1694315.024603027,3255143.5559373405 1338168.2752756071,2937350.689296013 1005022.4559266453,2552944.291001604 702654.5129732859,2101955.417757707 439048.2950477057,1585235.9744015466 222311.35930899554,1004502.7786738132 60584.74161064142,362373.8071025057 -38053.655774465245,-337604.35292859 -65691.28190634768,-1090938.775766194 -14687.86158658179,-1892183.0669454848 122213.99123617716,-2734941.628337369 351775.6028637443,-3611886.0295505393 680147.7515571952,-4514784.093151372 1112756.2005702443,-5434542.183805856 1654188.6810355622,-6361261.060025313 2308084.830974653,-7284305.502511547 3077030.660915728,-8192387.77605817 3962459.1655850103,-9073664.813701265 4964558.733254983,-9915848.833663028 6082191.018060018,-10706330.913153382 7312819.934522754,-11432316.850047119 8652453.406423826,-12080974.445800437 10095599.45292009,-12639591.142859766 11635238.122605687,-13095740.74957569 13262810.690372221,-13437457.787742916 14968227.412072003,-13653417.804967918 16739894.988001838,-13733121.808848772 18564764.718283016,-13667082.805257764 20428402.141793575,-13447012.261725742 22315078.73623159,-13066004.171939882 24207886.021287967,-12518714.271581525 26088872.15128141,-11801531.851997677 27939200.80979037,-10912741.539285354 29739331.9290021,-9852672.354919558 31469223.453211516,-8623831.352547593 33108553.052023493,-7231019.136282709 34636958.36753021,-5681424.610780267 36034294.054555155,-3984696.3943047873 37280903.547757275,-2152988.444298768 38357903.16802145,-200977.60167695553 39247475.867371485,1854149.0441864987 39933171.61108829,3992738.832854221 40400211.11237425,6192751.841810798 40635789.37345859,8429874.104257997 40629375.252200216,10677666.664170088 40373003.06973159,12907751.013378955 39861552.10710897,15090031.039301138 39093009.71180402,17192951.16628862 38068713.65246531,19183789.902050514 36793569.32672427,21028987.507285636 35276237.44559654,22694505.99626169 33529287.892525624,24146219.153790444 31569315.58812209,25350329.72556086 29417014.3854431,26273810.41028818 27097205.276896413,26884864.76017134 24638815.513521858,27153403.58766021 22074805.620789677,27051531.988750942 19442041.741647005,26554041.633401096 16781111.24602277,25638902.54979367 14136080.114185523,24287748.24874505 11554191.226173434,22486347.705195174 9085503.366993872,20225057.442945823 6782471.482529056,17499246.76392781 4699469.48825562,14309689.03123505 2892257.735257216,10662911.862487175 1417398.067955478,6571499.122740683 331620.2570302118,2054337.729476124 -308855.55014085205,-2863197.4993257057 -449034.8605427453,-8149127.405676774 -35896.99936196103,-13764826.493464079 980831.7676793474,-19665060.882602874 2647888.1193983452,-25798111.10089127 5007673.283104136,-32105983.870884147 8097455.756043117,-38524716.220507726 11948585.159219272,-44984774.32063523 16585727.771453958,-51411548.43547288 22026134.729021885,-57725944.26883671 28278954.206349548,-63845069.80928113 35344599.10476898,-69683015.52902265 43214181.85862435,-75151724.4866972 51869027.91144793,-80161947.53460753 61280279.21085627,-84624277.4510635 71408598.71193883,-88450254.4228235 82203986.35930036,-91553533.90780397 93605716.33329144,-93851106.53156567 105542404.4937726,-95264558.33093642 117932213.93439597,-95721358.37361754 130683205.37326916,-95156159.57343824 143693837.75562206,-93512097.40718485 156853622.93655485,-90742070.24084517 170043936.65537152,-86809984.11087847 183138986.21799305,-81691944.09954506 196006933.38358018,-75377373.91163574 208511168.92124075,-67870044.9214453 220511733.18051156,-59188995.830712095 231866874.82534486,-49369324.176141925 242434737.63817167,-38462831.26300966 252075163.03280967,-26538502.691028696 260651593.64913014,-13682807.489738226 268033061.16676998,199.9999996717544" stroke="white" stroke-width="1.5" /></svg>