<?xml version="1.0" encoding="utf-8" ?>
<svg baseProfile="full" height="400" version="1.1" width="400" xmlns="http://www.w3.org/2000/svg" xmlns:ev="http://www.w3.org/2001/xml-events" xmlns:xlink="http://www.w3.org/1999/xlink"><defs /><rect fill="black" height="100%" width="100%" x="0" y="0" /><circle cx="200" cy="200" fill="yellow" r="20" stroke="orange" stroke-width="2" /><polyline fill="none" points="198.71433671774636,200.0 198.70411882763528,199.93197215814183 198.7017979879467,199.86332400165307 198.7076835823368,199.7949697792298 198.72199544126983,199.72788466903674 198.74485483973208,199.66309683844858 198.77627610919075,199.60167831642076 198.81615900899456,199.54473471263609 198.86428200268014,199.4933938342091 198.9202965831246,199.44879326785167 198.9837227870657,199.41206701282508 199.0539460341164,199.38433126753037 199.13021541796317,199.36666949001267 199.2116435679112,199.36011686974683 199.29720818730797,199.36564436460094 199.38575536163742,199.38414247259664 199.47600471326473,199.4164049227487 199.56655646198132,199.46311248262205 199.65590043073917,199.5248170920335 199.74242701438942,199.60192654230218 199.82444010599812,199.69468992836426 199.9001719505815,199.80318410668545 199.9677998700901,199.92730139499812 200.02546477641414,200.06673875025697 200.07129136134918,200.22098865865544 200.10340982414283,200.38933196591648 200.1199789687645,200.570832867225 200.11921047473874,200.76433626400183 200.0993941176268,200.96846767916045 200.0589236884129,201.18163590350213 199.9963233355408,201.40203852350044 199.91027402956828,201.62767045495283 199.7996398287637,201.85633557792775 199.66349360488107,202.08566153625543 199.5011418722178,202.31311772968792 199.31214835029044,202.5360364890285 199.09635588143416,202.75163738429438 198.853906319709,202.9570545736656 198.58525800701582,203.14936705697716 198.2912004565879,203.3256316522633 197.97286587329964,203.4829184678431 197.63173715473755,203.61834859616476 197.26965203688312,203.7291337096618 196.88880307367597,203.81261719380888 196.49173317071083,203.86631640902243 196.08132642986138,203.88796563166878 195.6607941036364,203.8755591858886 195.23365550540018,203.82739424288087 194.80371377399965,203.7421127333903 194.3750264485218,203.61874179306557 193.95187087046534,203.45673213975624 193.53870449607905,203.25599376731003 193.14012027043938,203.01692833261336 192.7607972863849,202.74045761202922 192.4054470249832,202.42804741051862 192.0787555489995,202.08172632201587 191.7853220960155,201.7040987634172 191.5295945925044,201.29835173711143 191.3158026833388,200.86825481851474 191.14788894188155,200.41815291564927 191.02943899294192,199.95295140740856 190.96361134339415,199.47809333564024 190.95306777207,198.9995284032945 190.99990518055893,198.52367361625193 191.10558984870397,198.05736549954824 191.2708950718165,197.6078039189154 191.49584317993634,197.18248764508854 191.7796529518829,196.78914191028252 192.12069343749192,196.4356383225952 192.51644518951534,196.1299076236881 192.963469881487,195.87984589666556 193.45738924884589,195.69321495323263 193.99287423732488,195.57753775048795 194.56364517475728,195.53998980652528 195.16248369990083,195.58728769873937 195.7812570846654,195.72557583765285 196.41095547448793,195.96031281046044 197.04174244594705,196.29615868055615 197.663019141675,196.73686471030092 198.2635020910401,197.28516704245328 198.8313146619823,197.94268592931488 199.35409191604788,198.709832136098 199.81909845655522,199.58572216475255 200.2133586706107,200.56810394506434 200.52379857125862,201.65329461996146 200.73739824846376,202.83613201052626 200.84135373913222,204.10994128226588 200.8232469293889,205.46651824704762 200.67122190939563,206.8961306242737 200.37416601478594,208.38753845015324 199.92189361207727,209.92803466540278 199.30533052103397,211.50350672974446 198.51669681776312,213.0985199068719 197.54968563120536,214.69642263713772 196.39963543547637,216.27947416844881 195.06369325399086,217.82899435043947 193.540966131124,219.32553521498542 191.83265819584784,220.74907366991636 189.9421906416443,222.07922432511882 187.8753019801325,223.29547115415127 185.64012599407056,224.3774163733931 183.2472449202055,225.30504459826992 180.7097155349909,226.05900001616737 178.0430659972288,226.6208740024054 175.2652615215433,226.97350030344938 172.3966372151218,227.1012546248748 169.4597967067436,226.99035519509084 166.4794755306078,226.62916063412666 163.48236859620468,226.00846124456285 160.49692147720657,225.121759663564 157.55308568431644,223.96553667543472 154.682038545834,222.539497887504 151.915868801491,220.84679692251575 149.28722951540007,218.89423078183094 146.82896042777622,216.69240308902027 144.5736823869388,214.25585103577237 142.5533670270313,211.60313202390338 140.7988853765258,208.75686623045902 139.33953959115576,205.74373161867382 138.20258249538165,202.59440827639324 137.41273008151754,199.34346938524092 136.991672547747,196.02921660728225 136.9575898478548,192.69345821932697 137.32467806900746,189.381228925575 138.10269324183935,186.140450933404 139.29651941213564,183.02153658017036 140.90576795853815,180.07693354548223 142.92441521931985,177.36061446712907 145.34048548727952,174.92751359245972 148.1357863397125,172.83291393236166 151.28570308546273,171.13178923318205 154.75905882933654,169.8781059332471 158.51804627268245,169.12409111470492 162.51823688577497,168.91947328724433 166.70867250199365,169.3107036363461 171.0320436960626,170.34016612319428 175.42495852055535,172.04538552405197 179.81830428953208,174.458243131462 184.13770412007912,177.60421039574913 188.30406887760526,181.50161125080245 192.23424402645617,186.16092423114821 195.84174967265213,191.5841357365027 199.03761081072773,197.7641559245986 201.73127346359013,204.68430870321149 203.83160104624397,212.3179071390955 205.24794390570344,220.62792529726892 205.89127360620787,229.5667770624516 205.6753721578608,239.07621187062625 204.5180650459104,249.08733648960967 202.34248562576198,259.5207710318865 199.0783572248129,270.28694626154237 194.66327815610924,281.2865479727654 189.04399382066364,292.4111127751376 182.17763917506588,303.5437780281753 174.0329340885242,314.5601869340342 164.59131352795217,325.32954793511925 153.8479741096352,335.71584558705024 141.81281835875276,345.5791980040285 128.51127803965332,354.77735382235835 113.98499817465346,363.1673194202921 98.29236386971654,370.60710489216115 81.50885282189124,376.95757502760995 63.727197403575644,382.08438932017197 45.057341507492595,385.8600128524822 25.626178895674258,388.1657778085114 5.57706162446982,388.89397337779883 -14.930930789088933,387.9499399749069 -35.7239684446447,385.2541420317475 -56.61469877086387,380.74419216359416 -77.40372644196424,374.3767982935447 -97.88134403703248,366.1296043762518 -117.82950876544453,356.00289471981387 -137.02405720928584,344.02113159305526 -155.23714653559364,330.23429585001804 -172.23990704259245,314.7190007276395 -187.80528726344812,297.57934979644256 -201.71106920025477,278.9475112841574 -213.74302764470747,258.98398266095353 -223.69820400751297,237.87752148036606 -231.3882616755326,215.8447210150661 -236.6428866950028,193.1292122092066 -239.31319459331792,170.00047688127333 -239.275101453577,146.75226093961163 -236.43261499826633,123.70058059725478 -230.72099947319902,101.18131916736887 -222.1097666009212,79.54741695317404 -210.6054438428045,59.165661977881854 -196.25407071680678,40.41309478594502 -179.14337400549334,23.67304623552664 -159.40457339411665,9.3308330363879 -137.21377043399656,-2.2308582954677263 -112.7928757587477,-10.636862463135174 -86.41003221019082,-15.524658916932225 -58.37949496973255,-16.549679669180733 -29.06093394439381,-13.390747655949184 1.1418714793149434,-5.755586681060862 31.782969638746323,6.61366086380275 62.37682384379738,23.93497668110132 92.40156087913769,46.381141646474305 121.30288448796009,74.07461845655084 148.49864953745515,107.08271947172783 173.38408405409814,145.41313903333514 195.33763739383784,189.00993031236194 213.72742356186745,237.75000658088803 227.91821921200008,291.44024562644836 237.27896623901034,349.8152738009101 241.1907192395159,412.53600286612624 239.05496857643809,479.1889883361594 230.3022604640635,549.286672400006 214.40102652600905,622.268567732034 190.8665268021668,697.503430566373 159.26980233112073,774.2924623476104 119.24652635120499,851.873569110222 70.50563698574197,929.426696536217 12.837629143559894,1006.0802464640037 -53.87762059159812,1080.9185675577178 -129.6636249617324,1152.9904989984614 -214.44078303134836,1221.3189315465124 -308.0207329774791,1284.911335283054 -410.10168852602544,1342.7711879226806 -520.2648832229532,1393.9102219606443 -637.9722412743029,1437.361393261832 -762.5653863922839,1472.1924582045679 -893.2660909133203,1497.5200313651644 -1029.1782563963995,1512.5239811815786 -1169.2915039776506,1516.4620072862147 -1312.4864379850355,1508.6842304735014 -1457.5416297660233,1488.6476147942687 -1603.1423504379286,1455.9300312725727 -1747.8910614485314,1410.243764444857 -1890.3196505751794,1351.448256543285 -2028.9033784612188,1279.5618798924477 -2162.0764771852164,1194.772526156844 -2288.2493179023622,1097.4468016449036 -2405.82703953587,988.1376211042834 -2513.229505100527,867.5899984708329 -2608.912426804208,736.7448419723602 -2691.3894759098016,596.7405729219279 -2759.2551687812897,448.9124025160894 -2811.20829692928,294.78911899887305 -2846.075646570759,136.08725864312964 -2862.8357325901998,-25.297441920921898 -2860.6422532029787,-187.30138753460477 -2838.8469554455046,-347.7073062903813 -2797.0215882120015,-504.1612847842092 -2734.9786092780105,-654.1926357616363 -2652.790305932668,-795.2365404220285 -2550.8059858022425,-924.6593692516162 -2429.666895477179,-1039.7865454864168 -2290.318529913925,-1137.9327745632106 -2134.020005494237,-1216.4344216422503 -1962.3501842701025,-1272.6837779569944 -1777.2102564370323,-1304.1649158747773 -1580.8225125452198,-1308.490792676302 -1375.725066404735,-1283.4412247448713 -1164.7623240342803,-1227.0013176784284 -951.0710332469769,-1137.3999043928184 -738.0617923976433,-1013.1475131720315 -529.3959452014868,-853.0733614382223 -328.95784107062593,-656.3608493501026 -140.82249672684674,-422.5810107650125 30.781245511294173,-151.72336816450849 181.51190492031793,155.77636664044633 306.9606725272685,499.01230236927057 402.7005554804429,876.5886361579471 464.33899980904135,1286.6047106450667 487.57356859978483,1726.645367444308 468.25018623665284,2193.7770722882333 402.4233946081124,2684.5502471772575 286.41800500006985,3195.0081968259924 116.89147070689322,3720.7029606223377 -109.10374882827801,4256.718357362461 -394.0586103156372,4797.700418464894 -739.9475157085152,5337.895326580372 -1148.1708034341284,5871.194890997142 -1619.5005838320599,6391.189499606673 -2154.0308183983793,6891.228390172694 -2751.1325499498143,7364.486982084374 -3409.415187558235,7804.040904628709 -4126.694735382212,8202.94625016036 -4899.969827752734,8554.325471546033 -5725.406393582023,8851.458234183478 -6598.331721008136,9087.876425094248 -7513.238627950031,9257.462416489603 -8463.800365863925,9354.54958029981 -9442.89679255741,9374.023954975379 -10442.652245694966,9311.425877979891 -11454.485432058696,9163.05031838227 -12469.171519334133,8926.044575398148 -13476.916477983743,8598.50195217758 -14467.44357165024,8179.5499710995255 -15430.091736692078,7669.431668750662 -16353.925426269998,7069.578496989535 -17227.855323444117,6382.673362265518 -18040.7691527418,5612.702359777799 -18781.671642525824,4764.993803068894 -19439.832513292746,3846.2432140149535 -20004.94119195848,2864.5230234629907 -20467.266781566388,1829.2758393146028 -20817.82165210272,751.2902667648946 -21048.52686372011,-357.3415854867533 -21152.377491202864,-1483.2856093660862 -21123.605790528145,-2612.0467182910083 -20957.840037444737,-3728.069682240449 -20652.25677663267,-4814.859847858033 -20205.72415066499,-5855.123571731407 -19618.933933008284,-6830.927938176999 -18894.51987086222,-7723.879064179772 -18037.159953754268,-8515.3180161355 -17053.66026426731,-9186.533078552338 -15953.018139605621,-9718.986826995417 -14746.462478142685,-10094.556169655785 -13447.46916454028,-10295.783237573363 -12071.749761030693,-10306.134726517743 -10637.211821161758,-10110.267027768545 -9163.889425443493,-9694.294234597026 -7673.842815190076,-9046.055880276132 -6191.0263102347635,-8155.381056114296 -4741.124036437003,-7014.345378480039 -3351.353357836541,-5617.517126156736 -2050.236303270347,-3962.1887576131867 -867.3396950838603,-2048.5899456864845 167.01487542718854,119.92176169506317 1022.0696291659426,2536.696528517134 1666.9756778329,5191.657872210734 2071.162073002035,8071.202047697382 2204.7258309669387,11158.134689292418 2038.8394768319386,14431.64799787619 1546.172201565531,17867.341476649173 701.3202944384353,21437.28887830887 -518.757892962743,25110.153630081437 -2134.307569389626,28851.354551893266 -4162.349167350836,32623.283179034894 -6616.261791895849,36385.57344665956 -9505.384437877714,40095.42389294686 -12834.641138872006,43707.9718950677 -16604.196326396243,47176.718772406864 -20809.146723178208,50454.003880798235 -25439.256063690318,53491.52508657313 -30478.73882431665,56240.90225753726 -35906.098950346975,58654.279647798634 -41694.02928427961,60684.962293560624 -47809.37702732042,62288.08078705296 -54213.180102097554,63421.27806567843 -60860.77872913374,64045.41115362495 -67702.00588330718,64125.2601343682 -74681.45956133763,63630.236025597755 -81738.85897045604,62535.078684180946 -88809.4858463314,60820.53539881773 -95824.71113080831,58474.0104428241 -102712.60619417447,55490.175569493746 -109398.63668096348,51871.53124770874 -115806.43590244114,47628.90836524038 -121858.65350395198,42781.900180052435 -127477.87391347166,37359.21448348112 -132587.59784239557,31398.93625988004 -137113.27887530145,24948.691590381895 -140983.40596752145,18065.704157635388 -144130.62148416915,10816.73646589634 -146492.86327865027,3277.908797236391 -148014.5182401449,-4465.610021449518 -148647.57375585122,-12320.0447677236 -148352.7526528401,-20183.59227895816 -147100.61642403755,-27947.138134492285 -144872.62092067525,-35495.11189397291 -141662.10822649443,-42706.47951921655 -137475.21813328203,-49455.86980794885 -132331.70252811437,-55614.829787757466 -126265.62609381015,-61053.2020754813 -119325.93702786212,-65640.6152210085 -111576.89201198699,-69248.07604688879 -103098.32042276925,-71749.65098981964 -93985.71376978072,-73024.22147204571 -84350.12758454087,-72957.29640645235 -74317.88446249362,-71442.86309616714 -64030.06867863519,-68385.25605618955 -53641.80475019757,-63701.02168985285 -43321.314498271335,-57320.755325898346 -33248.74955246589,-49190.88589159734 -23614.79883321513,-39275.38249218062 -14619.073316165966,-27557.356414373913 -6468.273309859978,-14040.531598448024 625.8534643598271,1249.4435466368175 6448.751541785905,18263.869954154605 10785.48045597034,36930.08380358268 13423.302612926454,57150.780119534014 14154.415100451171,78803.59842610516 12778.801022703821,101740.99318945405 9107.172826213102,125790.40976199076 2963.9770927503587,150754.7841292366 -5809.572536872902,176413.3819588602 -17352.470229064274,202522.98926943183 -31780.938846131165,228819.46348815775 -49185.53708039649,255019.6497718611 -69628.39468043101,280823.6632490011 -93140.61882800056,305917.5333335199 -119719.91548183665,329976.2015003395 -149328.4697675856,352666.85893965134 -181891.12922591055,373652.60537044826 -217293.9329004863,392596.4050459063 -255383.02782717856,409165.3106821162 -295964.0124531995,423034.9207496917 -338801.7438547391,433894.0303513153 -383620.6423245694,441449.4308373502 -430105.522965762,445430.8084590652 -477902.9793602232,445595.6877997445 -526623.3391955082,441734.3615343773 -575843.2059538455,433674.7443256687 -625108.59442516,421287.08544416266 -673938.6609426318,404488.47207848687 -721830.0219053839,383247.0533508024 -768261.6464079008,357585.91384159296 -812700.3007086336,327586.5250216705 -854606.513918682,293391.7034466345 -893441.0257615101,255208.00594210974 -928671.6686406531,213307.49434121093 -959780.6276558436,168028.80566411396 -986272.0137369181,119777.46797855271 -1007679.676833181,69025.40756382965 -1023575.1782220433,16309.599421826999 -1033575.8336065233,-37770.17937389202 -1037352.7318808131,-92554.52554934549 -1034638.6283815627,-147328.53736488227 -1025235.6062338297,-201326.90652883967 -1009022.3951669165,-253739.97543281087 -985961.2340345032,-303720.74891590665 -956104.1613377458,-350392.83716485626 -919598.6174242579,-392859.29320323607 -876692.2428157331,-430212.294843143 -827736.7593865102,-461543.6071066505 -773190.8249467298,-485955.74712558195 -713621.7572331716,-502573.7595620355 -649706.0304196335,-510557.49683435715 -582228.4560489996,-509114.285069127 -512079.9707645341,-497511.84392177727 -440253.96536092117,-475091.3164149522 -367841.103446661,-441280.25393630104 -296022.5933465361,-395605.3917191292 -226061.89368998757,-337705.04170198453 -159294.85131829954,-267340.9228247566 -97118.28956604445,-184409.2437607776 -40977.08547141922,-88950.84998887543 7650.204137040794,18839.753853756793 47267.08564954823,138606.69407277458 76376.1362129844,269826.51445864676 93497.14848238154,411803.6369681007 97186.2625821821,563667.6653242281 86055.91293103754,724372.6886980307 58795.39588860745,892698.7282847934 14191.843447901121,1067255.4525017503 -48848.63125556752,1246488.2667383666 -131279.8686883052,1428686.8611519504 -233894.94588897057,1611996.2750214126 -357306.0892693357,1794430.508791353 -501925.5098952212,1973888.6853373025 -667947.4620397022,2148173.730379704 -855331.8307485614,2315013.50862935 -1063789.5556338143,2472084.317457578 -1292770.1958647717,2617036.6039871564 -1541451.935135995,2747522.734866735 -1808734.3150706645,2861226.611029605 -2093233.970917955,2955894.882883752 -2393283.624419046,3029369.48510078 -2706934.5652912236,3079621.174956242 -3031962.824906689,3104783.7245320254 -3365879.213471393,3103188.38554712 -3705943.355446445,3073398.2166692563 -4049181.8172674645,3014241.8374119466 -4392410.376835837,2924846.1506722304 -4732260.436074394,2804667.558135993 -5065209.526415977,2653521.179674015 -5387615.802850057,2471607.579953032 -5695756.3655759785,2259536.5032387087 -5985869.189948456,2018347.1211777458 -6254198.385858814,1749524.3085731086 -6497042.447635867,1455010.4791119923 -6710805.095685157,1137212.5369095556 -6892048.252172883,799003.5307618824 -7037546.635898581,443718.63624944544 -7144343.40691474,75145.13630686345 -7209806.240296756,-302493.87650825793 -7231683.1616060445,-684562.2932287244 -7208157.434896159,-1066040.4280761683 -7137900.758448927,-1441561.1827516418 -7020123.994643898,-1805452.9352929075 -6854624.639278568,-2151789.0696882117 -6641830.223045948,-2474443.974188614 -6382836.834465445,-2767155.2442424884 -6079441.960011655,-3023591.7310789665 -5734170.854072402,-3237426.980179277 -5350295.679182625,-3402417.5062737297 -4931846.69611013,-3512485.2542474046 -4483614.834083122,-3561803.4996619415 -4011145.033893787,-3544885.3498006286 -3520719.8307957645,-3456673.9175663264 -3019332.7298987526,-3292633.157590777 -2514651.0238617514,-3048838.277957838 -2014967.8106468217,-2722064.5734167146 -1529143.0873020447,-2309873.468268508 -1066533.9234120531,-1810694.51062739 -636913.8540319231,-1223902.0258146562 -250381.7754822122,-549885.1165032227 82739.22296367223,209890.30793595695 352012.5041742561,1052828.7795538283 547007.2603888543,1975163.0762176504 657425.7193319596,2971923.8154521096 673237.1179761749,4036922.0068682563 584817.2273454557,5162745.649458224 383092.0611047546,6340771.358108436 59684.25695249197,7561191.882688177 -392939.51473031804,8813060.243231032 -981321.8836279338,10084351.046523592 -1710870.731642445,11362039.373584097 -2585719.735777626,12632197.435062995 -3608595.5481298934,13880108.98380726 -4780693.713984533,15090401.252258975 -6101565.461163035,16247193.948838377 -7569017.501536194,17334264.604100794 -9179026.967277057,18335229.30661815 -10925673.558458528,19233737.612844765 -12801090.903723462,20013680.157536007 -14795439.030966477,20659407.234671213 -16896899.709565207,21155956.366550107 -19091696.259322397,21489286.634220503 -21364139.22391916,21646517.309207056 -23696699.0787189,21616168.108314406 -26070106.88498432,21388398.19378755 -28463483.516190253,20955240.86406101 -30854497.768772144,20310830.729427766 -33219553.331449054,19451620.045829672 -35534004.22672999,18376580.792121425 -37772397.95835385,17087389.02490832 -39908745.20264803,15588588.033491325 -41916814.47399021,13887726.848380323 -43770449.77897169,11995470.732708715 -45443908.85515492,9925680.408776378 -46912219.17348132,7695456.943477566 -48151548.47373547,5325149.4376619 -49139586.20557836,2838322.9361088187 -49855931.86933352,261684.2967637446 -50282485.896871775,-2375035.8704502033 -50403838.38966042,-5039246.664858653 -50207650.744371526,-7695706.759421371 -49685024.95241078,-10306781.16117721 -48830855.16421517,-12832744.810119491 -47644155.96787325,-15232132.372184692 -46128361.74991167,-17462132.964064136 -44291591.48899763,-19479027.90388595 -42146873.385353066,-21238668.91874699 -39712323.85385498,-22696993.564552467 -37011275.610442415,-23810573.93321019 -34072349.862186134,-24537194.045074157 -30929467.97299799,-24836450.659261152 -27621798.420385264,-24670371.590169363 -24193635.38386225,-24004045.00461282 -20694205.911544804,-22806252.60012558 -17177403.295957927,-21050099.041011695 -13701445.049920045,-18713629.564473614 -10328454.704128036,-15780427.274423435 -7123967.54416792,-12240181.32492972 -4156361.3593506496,-8089216.9679078255 -1496214.2810611317,-3330978.309356069 784407.1648973069,2023545.4066967054 2612725.5894278623,7955459.079984338 3916090.5542028123,14437675.488637248 4622870.262514926,21434712.033033673 4663389.620775183,28902578.585937098 3970906.084203277,36788763.95519603 2482613.6543865683,45032327.74155086 140664.40026934457,53564103.51752026 -3106804.0564990095,62307018.26568897 -7304647.500118805,71176531.89948988 -12489713.683088943,80081199.45211153 -18689874.290931903,88923357.16665414 -25923104.61709265,97599932.26223955 -34196625.62159661,106003374.59750842 -43506123.25469473,114022706.81774722 -53835059.96320556,121544687.86969182 -65154093.1506186,128455083.0154841 -77420615.02184282,134640031.69278124 -90578427.70102909,139987502.77168298 -104557566.75935984,144388824.9724932 -119274285.32445447,147740278.45428059 -134631209.7617454,149944731.8866972 -150517676.5210993,150913307.70151615 -166810258.1319952,150567056.7113827 -183373484.5135133,148838621.9073032 -200060763.74995014,145673870.0294224 -216715504.28088757,141033468.4734957 -233172438.08084095,134894384.27330613 -249259141.87629095,127251281.31146027 -264797750.78807437,118117791.58049023 -279606856.0190138,107527636.26435882 -293503575.35744923,95535572.65659742 -306305782.3670994,82218143.49234152 -317834477.2149592,67674206.1615142 -327916279.1869381,52025220.50036857 -336386018.09279364,35415275.43596161 -343089399.0067127,18010836.686560456 -347885712.1680721,200.00000042603736" stroke="white" stroke-width="1.5" /></svg>