<?xml version="1.0" encoding="utf-8" ?>
<svg baseProfile="full" height="400" version="1.1" width="400" xmlns="http://www.w3.org/2000/svg" xmlns:ev="http://www.w3.org/2001/xml-events" xmlns:xlink="http://www.w3.org/1999/xlink"><defs /><rect fill="black" height="100%" width="100%" x="0" y="0" /><circle cx="200" cy="200" fill="yellow" r="10.000000839085635" stroke="orange" stroke-width="2" /><polyline fill="none" points="200.5826462058687,200.0 200.50904487242218,200.02672253044364 200.42759827059635,200.0450179709957 200.3389067516009,200.0537686631165 200.24370471366953,200.05189010349335 200.14286056600596,200.03834630277996 200.03737502719844,200.01216555782665 199.92837766785365,199.97245646850038 199.81712162300244,199.91842401582485 199.7049764176171,199.84938550512086 199.5934188682634,199.76478616634466 199.48402204537203,199.66421419415397 199.3784423037069,199.5474150026228 199.2784044131522,199.41430446420577 199.18568484772985,199.26498089974223 199.1020933175555,199.09973558619356 199.02945265597788,198.91906155160365 198.96957720213345,198.72366043262505 198.92424984726242,198.5144471789914 198.89519794103796,198.2925524016419 198.88406828149252,198.05932217688365 198.89240143850648,197.8163151380391 198.92160568586473,197.56529670846317 198.9729308401808,197.30823035556918 199.04744232613385,197.04726577447997 199.14599580605127,196.78472394197507 199.26921272749613,196.5230790163428 199.41745715479388,196.2649370963271 199.59081425897696,196.01301189229216 199.7890708450842,195.77009740467432 200.01169829579533,195.53903774836164 200.25783830571257,195.32269430640753 200.52629177096432,195.12391044196377 200.81551118398613,194.94547404299726 201.12359686317197,194.79007821967468 201.44829732147193,194.6602805186758 201.78701404690133,194.55846106151066 202.13681093133158,194.48678005453408 202.4944285419513,194.44713515611826 202.8563033825722,194.44111922070076 203.2185922397487,194.46997896950987 203.57720165179643,194.53457516302774 203.92782247762867,194.6353448700468 204.26596947735328,194.7722664418938 204.587025748342,194.94482780746284 204.88629178962609,195.1519987045771 205.15903889469678,195.39220745541152 205.40056649887003,195.6633228778387 205.60626303315613,195.96264190026022 205.77166976296053,196.28688341449904 205.89254701788698,196.63218885947927 205.96494214942044,196.994129977635 205.98525848736898,197.367724126307 205.95032450470634,197.74745745794658 205.85746234494596,198.1273162060174 205.70455481747706,198.5008262284565 205.49010992545746,198.86110086794048 205.21332195892523,199.20089708864444 204.8741281637556,199.5126797434554 204.47325998588556,199.78869371460948 204.0122878907229,200.0210435554902 203.49365877062706,200.20178014300618 202.92072497946762,200.32299372982197 202.29776407309055,200.37691266512041 201.6299883884756,200.35600693299793 200.92354366272278,200.2530955405912 200.18549597587807,200.0614566752332 199.42380639893972,199.77493944302125 198.6472928399336,199.38807590187773 197.86557870627348,198.8961920122352 197.0890281400941,198.29551604963257 196.32866773402,197.58328295748788 195.59609479685722,196.7578330667984 194.90337241070867,195.8187035741235 194.2629117015455,194.76671115144572 193.68734193263919,193.6040240627882 193.1893692226028,192.33422218404775 192.78162488504142,190.96234336547215 192.4765045827404,189.49491464147252 192.2859996835313,187.93996688068648 192.2215223949388,186.3070315808486 192.29372643778152,184.60711864824873 192.51232519233244,182.85267416027293 192.88590941164304,181.05751729131657 193.421766742358,179.23675578652677 194.12570542096378,177.40667959332134 195.00188462011923,175.58463250607588 196.0526540027866,173.7888619430434 197.27840509869654,172.03834725442002 198.67743714577819,170.35260725409287 200.2458400362915,168.75148797227325 201.97739697147384,167.2549319388796 203.8635093577912,165.88273062483594 205.8931463709167,164.65426198675465 208.05282146924657,163.58821537588506 210.32659795640186,162.70230638061562 212.6961254714735,162.01298446890902 215.14070902692677,161.53513657837135 217.63741191775225,161.28179006265833 220.16119349281402,161.26381863898627 222.68508241210333,161.4896551880445 225.18038561401178,161.96501543004598 227.61693278759657,162.69263663457684 229.96335568947765,163.67203561307014 232.18740116739903,164.8992902871292 234.25627625704806,166.3668491198867 236.13702321043044,168.06337263779358 237.7969217984062,169.97361115383725 239.20391571282101,172.07832262784595 240.3270593813574,174.35423436347676 241.13698100747558,176.7740519435814 241.60635716562086,179.30651844545756 241.71039382548543,181.9165265553345 241.42730825592952,184.56528571841133 240.7388058766854,187.21054591879331 239.6305457916649,189.80687908555564 238.0925884589578,192.306018470578 236.11981873663208,194.65725564532366 233.7123373971179,196.80789402285853 230.87581413276123,198.70375703450023 227.62179508704162,200.2897482848008 223.96795804531322,201.5104601822006 219.9383086103732,202.31082670453213 215.56331097546573,202.6368151182457 210.87994729334696,202.43615063807667 205.93170012657285,201.65906720077842 200.76845305190412,200.25907674389475 195.44630518012346,198.19374864011698 190.02729613980523,195.4254902516017 184.5790389564904,191.92231894888425 179.17425923273004,187.65861539786994 173.8902400935503,182.61584746781483 168.80817349858145,176.78325376488942 164.01241972744518,170.1584755610367 159.58967810860767,162.7481257769052 155.62807337196534,154.5682837003438 152.21616334874898,145.64490428694955 149.44187510442597,136.01413120394386 147.39137795546472,125.72250324933142 146.14790317232035,114.82704440945109 145.79052149107852,103.39522861255247 146.39289082633292,91.50481119499945 148.02198777891635,79.24352021916506 150.73683764449757,66.70860206505657 154.58725863301194,54.00621715596466 159.61263688466832,41.25068326448417 165.84074959638278,28.56356556925934 173.28665413398517,16.072614482576824 181.95166138228737,3.9105542298451894 191.82241176002665,-7.7862727828585605 202.87007228411346,-18.879398646911596 215.04967279348259,-29.229850325113546 228.299598925077,-38.6998861582301 242.54125866319367,-47.15483472303674 257.6789382512285,-54.46502006594298 273.5998619571235,-60.50775519321314 290.17446861890147,-65.16938363765524 307.25691606616766,-68.347346973573 324.68582242232,-69.95225434853432 342.28525094901823,-69.909928474286 359.86594251148415,-68.16340110199513 377.2267969365,-64.67482983055936 394.1566015244971,-59.42730719178479 410.43600178666156,-52.42653235219407 425.8397061351792,-43.70231549578307 440.13891279098107,-33.30988503063466 453.1039436236109,-21.33096821765048 464.50706604054267,-7.874616671331353 474.1254804399632,6.922250553467421 481.74444717616444,22.894611886755825 487.1605235071568,39.849439658797365 490.18487764893473,57.5661489299992 490.6466439006076,75.79741667433717 488.3962798810645,94.27038584684762 483.30888428318747,112.6882650480812 475.2874312579783,130.73233029172712 464.2658756397227,148.06433081214306 450.2120817643845,164.32929594882484 433.1305276646013,179.15873495373978 413.0647359907979,192.17421613001116 390.09938315030763,202.99130607777158 364.3620389117716,211.22384405216712 336.0244901221786,216.4885205919498 305.3036042544382,218.4097237225545 272.4616912635298,216.624610247286 237.80632569086032,210.78835399058443 201.68959512342963,200.5795174279879 164.50674598215062,185.7054880106632 126.69420316857249,165.90791575227234 88.72694631823525,140.96808437734063 51.11523225906686,110.71214461787947 14.400660711625335,75.01613517218729 -20.848411758429734,33.810714487646464 -54.04209608000917,-12.914475024643878 -84.57481100915862,-65.10688941850026 -111.83170799673206,-122.64769110482138 -135.19563975272155,-185.34895977527174 -154.0546221678262,-252.95158162452202 -167.80972974171567,-325.1238887468759 -175.88335526379916,-401.4611160708199 -177.7277553203092,-481.485737542686 -172.833794390795,-564.6487364722117 -160.73979198147845,-650.3318570161471 -141.04036955895538,-737.8508747236215 -113.39518713333518,-826.4599139368211 -77.53745333267733,-915.3568286861964 -33.28208784592405,-1003.689651611433 19.466588678874814,-1090.5641024642598 80.70776468467491,-1175.0521340103635 150.3377761798876,-1256.2014787648743 228.14460165916398,-1333.0461451050064 313.80333941556887,-1404.6177960556465 406.87278940646115,-1469.9579286047149 506.79325627966375,-1528.1307559544073 612.8856827881723,-1578.2366798432572 724.3522135903812,-1619.4262251843545 840.2782783395071,-1650.9142949680077 959.6362700235076,-1671.994589889825 1081.2908797629952,-1682.054024710118 1204.0061327711971,-1680.5869621513996 1326.4541520152845,-1667.209075421156 1447.2256564070717,-1641.670642427142 1564.8421792347694,-1603.8690686456202 1677.769970194729,-1553.8604316134297 1784.435520988325,-1491.869838334049 1883.2426302354872,-1418.3003876913745 1972.5908986692398,-1333.7405334091584 2050.895520484961,-1238.9696493131376 2116.608211615771,-1134.9616077550656 2168.2390909027145,-1022.8861941233181 2204.379305954406,-904.1081954415822 2223.7241722877498,-780.1840191596996 2225.096572463467,-652.8557193464176 2207.470341738056,-524.0423315411974 2169.9933486116843,-395.8284444091946 2112.0099629224555,-270.44996592587415 2033.0825911786837,-150.2770739078896 1933.0119489789763,-37.79437507363835 1811.8557339765011,64.42166681467475 1669.945360209061,153.72793512398778 1507.9004160250045,227.44235886067233 1326.6405135403545,282.8739272446895 1127.394207780781,317.35480129674323 911.7046785692486,328.2742626030925 681.431887944284,313.11419913834607 438.7509505123868,269.48578877681825 186.14648367265704,195.16700346547296 -73.59726093597601,88.14052154118524 -337.4106442258138,-53.36839706135078 -601.9573803531002,-230.8545473555759 -863.6578388056314,-445.49642770301466 -1118.7169231420219,-698.1214211074478 -1363.1564857144822,-989.1730463055667 -1592.8521785413157,-1318.6808258021445 -1803.5745786093873,-1686.2333221248475 -1991.034361866799,-2090.9548911200027 -2150.9312346662564,-2531.486691666341 -2279.0062651557655,-3005.9724743983274 -2371.097190858098,-3512.049647620921 -2423.1962132591416,-4046.846086356879 -2431.5097265074373,-4606.983110272809 -2392.519366219309,-5188.585008047863 -2303.0437068214205,-5787.295429644242 -2160.299882798779,-6398.300904079079 -1961.9643616122903,-7016.361668956931 -1706.2320548640932,-7635.849919589135 -1391.8729204635129,-8250.795500499562 -1018.2851829944275,-8854.93897111366 -585.5442830793413,-9441.791881180325 -94.44666009206259,-10004.703990829823 453.4525231623454,-10536.93706608382 1055.808589540769,-11031.74477417047 1709.4643385866796,-11482.458095322265 2410.435627664233,-11882.575560106807 3153.906298668766,-12225.857515103122 3934.2331401416914,-12506.423516301775 4744.961496001422,-12718.851850451803 5578.852040618458,-12858.28009122269 6427.919135885264,-12920.505511040588 7283.481069716044,-12902.084092363899 8136.222347686193,-12800.426815533347 8976.268071106932,-12613.891845700047 9793.270286733114,-12341.871200184458 10576.506036714289,-11984.870451362629 11314.986673700743,-11544.580010139545 11997.577836768942,-11023.936542465126 12613.129310765675,-10427.173097248517 13150.613816687142,-9759.8565693517 13599.273605855882,-9028.911186830275 13948.773558118,-8242.626797771016 14189.359316357531,-7410.650839271115 14312.018828713495,-6543.962999382031 14308.645518456535,-5654.831732021118 14172.20116205954,-4756.75195448026 13896.876431114311,-3864.363446490614 13478.246945934778,-2993.349677802396 12913.422600430686,-2160.3170165707693 12201.187851539846,-1382.6545118606534 11342.130624469706,-678.3746983479905 10338.757469367567,-65.93613755367574 9195.592617775363,435.9513148435782 7919.258630070158,808.5372447319018 6518.536399535358,1033.2558630683452 5004.4023859286635,1091.9637978191872 3390.0410922853926,967.1883747684493 1690.8309737118905,642.3839949877972 -75.69782380243572,102.19395561742422 -1889.9352533043802,-667.2851850242431 -3730.2937678607905,-1678.239823009876 -5573.342106542944,-2940.879432354215 -7393.970900664429,-4463.184098307219 -9165.590168741901,-6250.663104736902 -10860.35837644415,-8306.128326756847 -12449.442323347164,-10629.486247056511 -13903.306685288298,-13217.552438709063 -15192.031593652278,-16063.892335379229 -16285.65617562618,-19158.69203901289 -17154.54551736066,-22488.66279286246 -17769.77805049507,-26036.98257216458 -18103.549907428966,-29783.278014553907 -18129.592348142247,-33703.649626571954 -17823.597937621333,-37770.742861246945 -17163.6507545738,-41953.867265202294 -16130.655545765021,-46219.16544333898 -14708.760412686022,-50529.83308682021 -12885.767335035136,-54846.3907586417 -10653.52460521738,-59127.00753407052 -8008.295076076733,-63327.87595504783 -4951.094016423813,-67403.63708346392 -1487.9903312520498,-71307.85373400523 2369.635058996756,-74993.52923978462 6604.879768580811,-78413.66836069534 11195.165313730588,-81521.87619357475 16112.142897301204,-84272.9901936303 21321.664834709904,-86623.73967761814 26783.82637850885,-88533.42646083872 32453.08214197224,-89964.61959247409 38278.44067555026,-90883.85650773182 44203.74001600929,-91262.34232151412 50168.00620981124,-91076.63845778772 56105.89591431844,-90309.33135231129 61948.223208578565,-88949.67159453213 67622.56970689676,-86994.17359759395 73053.97597157756,-84447.16571329026 78165.71107587041,-81321.28065062911 82880.1159852784,-77637.8761207994 87119.51521718212,-73427.37582512357 90807.19001853405,-68729.52123234113 93868.4050835698,-63593.52506228834 96231.47963336209,-58078.11800830237 97828.89251273383,-52251.48099251853 98598.4098443277,-46191.05615698918 98484.22273175174,-39983.23084775537 97438.08154128116,-33722.89004528934 95420.41243228856,-27512.834027725807 92401.40106798342,-21463.05951558702 88362.0278374555,-15689.904128742695 83295.03847414565,-10315.055676500184 77205.83368061803,-5464.429586159848 70113.26127973317,-1266.9196382622888 62050.29452156269,2146.9708998537644 53064.58049561841,4646.608686532602 43218.843139326535,6102.809225714634 32591.126104250743,6389.502277190227 21274.861747118346,5385.468791004574 9378.753756453449,2976.1325063238405 -2973.5375919379376,-944.6124555498832 -15643.916838714482,-6472.5583739983895 -28480.588742719436,-13691.34701787202 -41319.01284819808,-22670.662362237686 -53983.08000409957,-33464.47745009612 -66286.51104696216,-46109.38088617059 -78034.4751086726,-60623.00916792243 -89025.42210755269,-77002.61149915219 -99053.12095163722,-95223.77386980792 -107908.89185587427,-115239.32900000746 -115384.01798267286,-136978.47821741187 -121272.31839307955,-160346.15044854584 -125372.86108198199,-185222.62224341792 -127492.79170564597,-211463.42110957898 -127450.25053623084,-238899.53240146328 -125077.34724005351,-267337.9275927111 -120223.16031993936,-296562.4289574595 -112756.72553344184,-326334.9225103081 -102569.97534474044,-356396.9275183384 -89580.58953508637,-386471.52702204284 -73734.71553029901,-416265.65961077414 -55009.51584804427,-445472.7682233659 -33415.4993643495,-473775.79702262185 -8998.592887070263,-500850.52246562793 18158.090160628046,-526369.1996078365 47932.82626988593,-550004.4994903618 80164.24445314868,-571433.7082244946 114650.71372797474,-590343.153166978 151150.19159127955,-606432.8164401382 189380.56628273526,-619421.0910618749 229020.52169113475,-629049.630183885 269710.9491894811,-635088.2354665336 311056.9255085119,-637339.7265210771 352630.26999793464,-635644.7297002209 393972.68831238395,-629886.3213918048 434599.5027366082,-619994.4584417212 474003.9620822901,-605950.1264723289 511662.1164070659,-587789.1357397112 547038.2337935201,-565605.4938504434 579590.7281597208,-539554.2851935704 608778.5586389647,-509853.9883872668 634068.0525588115,-476788.1654348607 654940.0955687305,-440706.459665599 670897.6241193308,-402024.8439256185 681473.3473969819,-361225.0658971187 686237.6180828529,-318853.2438597567 684806.364055773,-275517.57365639723 676848.9865164914,-231885.11606064063 662096.1241001617,-188677.6431271843 640347.1774867532,-146666.53238486967 611477.4849357342,-106666.70883832307 575445.0361776511,-69529.64659461599 532296.6103015128,-36135.45442884776 482173.22278582765,-7384.08263483281 425314.76772602455,15814.298052155335 362063.7436941477,32549.680964182826 292867.95559749025,41923.29311903884 218282.09043592142,43059.257848778194 138968.07203162988,35116.744784228096 55694.108640481354,17302.4883927304 -30667.642147499362,-11116.456285145467 -119144.8546690349,-50799.86381259876 -208670.31231570686,-102321.54832586281 -298088.71495153196,-166156.79674735788 -386165.0343063775,-242670.19687537127 -471594.41695508175,-332104.0385772399 -553013.615209338,-434567.47113204 -629013.9059198757,-550026.6026338754 -698155.4359927998,-678295.7281114075 -758982.9115720228,-819029.8714920767 -810042.5255571892,-971718.8226073204 -849899.9956617714,-1135682.8439858842 -877159.5628364121,-1310070.2131277695 -890483.7778720721,-1493856.754229496 -888613.882654767,-1685847.4989094727 -870390.572178878,-1884680.598359001 -834774.9043578983,-2088833.589551712 -780869.1072242426,-2296632.095749667 -707937.0176089584,-2506261.016652351 -615423.8721609466,-2715778.23628749 -502975.16092032456,-2923130.8473215224 -370454.24590749334,-3126173.8590931166 -217958.4426183049,-3322691.3236045637 -45833.2611965816,-3510419.779241313 145315.4933668177,-3687073.8764649057 354612.05616868153,-3850374.0135093424 580903.756037714,-3998075.7736104936 822757.0566432418,-4128000.9189472846 1078456.834666869,-4238069.660734214 1346009.1210905584,-4326333.890262902 1623147.5037217764,-4391011.022650506 1907343.3568074964,-4430518.07413335 2195820.027096167,-4443505.565471083 2485571.0651608594,-4428890.818929922 2773382.5464308853,-4385890.194917698 3055859.478489087,-4314049.797162287 3329456.2401375575,-4213274.162854939 3590510.943939261,-4083852.44689206 3835283.557892006,-3926481.6076799226 4059997.5641310634,-3742286.1063146344 4260884.8736917665,-3532833.6416633045 4434233.6570512215,-3300146.461244149 4576438.691117418,-3046707.812063859 4684053.765296646,-2775463.1268794555 4753845.633035511,-2489815.5797910946 4782848.941622906,-2193615.690641966 4768421.522892771,-1891144.7103120023 4708299.381645674,-1587091.5784604815 4600650.677966378,-1286523.311318642 4444127.9650082365,-994848.7493760127 4237917.916077548,-717775.6727594142 3981787.754787826,-461261.3751848085 3676127.5904283463,-231456.87487843586 3321987.858213627,-34645.03202477011 2921111.071393322,122827.06378733221 2475957.1098711607,234620.97696393155 1989721.298480351,294484.5246115216 1466344.5677619039,296333.43908031663 910515.0412484449,234336.34862516273 327660.455999912,103002.23917458128 -276069.10253540415,-102730.52679459403 -893828.584499287,-387404.63960631157 -1518115.8147111498,-754954.7995568472 -2140820.015565501,-1208620.3473230058 -2753281.1248206077,-1750860.7689977898 -3346359.8924798607,-2383275.3219269384 -3910518.605785208,-3106528.0598014416 -4435912.148983164,-3920279.5540031833 -4912488.956278999,-4823126.61185267 -5330101.2637131,-5812551.280126394 -5678623.910177772,-6884880.393082593 -5948080.78118809,-8035256.877492664 -6128777.833200972,-9257623.962221956 -6211441.48323487,-10544723.356328227 -6187361.000366598,-11888108.357239086 -6048533.394543223,-13278172.729346536 -5787809.166270049,-14704196.053564569 -5399037.160383943,-16154406.090525959 -4877206.660561621,-17616058.5249089 -4218584.770696488,-19075534.266895067 -3420847.0570029845,-20518454.2802602 -2483199.372797811,-21929811.68665318 -1406488.7583705932,-23294120.664061807 -193301.30305922843,-24595581.416399103 1151955.1227237673,-25818260.24293116 2622985.309727674,-26946283.483523536 4211560.2938906215,-27964043.861237355 5907491.943387783,-28856417.490721583 7698630.27336223,-29608989.5723565 9570885.045830728,-30208286.55160844 11508273.014516918,-30642012.29408064 13492991.946468066,-30899285.612918474 15505522.295071805,-30970876.290211156 17524757.113743298,-30849436.561525594 19528160.48776695,-30529724.886356115 21491954.42565948,-30008818.71065439 23391333.79352149,-29286312.844153132 25200708.49916314,-28364500.02818603 26893971.740744334,-27248530.26214501 28444792.73111905,-25946545.49135572 29826931.898260225,-24469786.338380557 31014576.148694143,-22832667.68557467 31982691.369754657,-21052820.090692252 32707388.94295436,-19151094.240509335 33166302.650384188,-17151525.920334022 33338971.98453766,-15081259.299839467 33207227.525188714,-12970426.707195513 32755573.730916545,-10851983.482654713 31971564.213541143,-8761496.967535185 30846164.32705739,-6736889.192217574 29374095.714426246,-4818133.373888344 27554157.3213886,-3046904.91715413 25389517.311596096,-1466188.2234393102 22887970.306716505,-119841.2526753429 20062154.433190543,947879.5630763276 16929722.787882682,1692830.7866741298 13513464.14120555,2071525.8843848961 9841367.980919333,2041706.9687310392 5946629.36441295,1562939.113340063 1867589.492689276,597221.3437274452 -2352391.55463367,-890392.1948788505 -6665132.878363672,-2931167.953928034 -11017903.884917215,-5552073.155606991 -15353769.99277262,-8775168.450334884 -19612013.608793337,-12617021.466226878 -23728630.172573403,-17088149.962890662 -27636898.119355947,-22192503.517716862 -31268020.615323093,-27926992.792040516 -34551835.8822224,-34281075.43920806 -37417591.861614436,-41236407.619511604 -39794779.8837656,-48766569.8718732 -41614020.914622806,-56836875.75384526 -42807996.8695524,-65404271.19590072 -43312418.41854954,-74417331.9203757 -43067019.67906713,-83816365.54852007 -42016569.2146245,-93533624.16113088 -40111885.84550568,-103493632.0911107 -37310846.9479076,-113613632.613623 -33579376.18566535,-123804155.96675296 -28892396.99981189,-133969709.79000443 -23234737.691027347,-144009591.6187885 -16601973.58319509,-153818821.5313279 -9001191.566742957,-163289191.42314473 -451662.30108928663,-172310425.69832858 9014594.482022075,-180771446.4327564 19352365.778070796,-188561734.30068386 30502935.8610957,-195572774.78265628 42393924.47390385,-201699577.41082695 54939284.57108687,-206842254.08029994 68039470.34226882,-210907640.78577468 81581784.84355219,-213810945.5562443 95440914.95596415,-215477403.88207054 109479659.57671367,-215843921.58405334 123549854.94121766,-214860683.88882983 137493498.78304502,-212492708.47448906 151144072.68015394,-208721319.4594945 164328059.4271912,-203545518.75079483 176866649.63629964,-196983230.86586756 188577629.02708778,-189072397.31936637 199277435.04722515,-179871896.93683487 208783368.59845167,-169462269.04206136 216915943.7610833,-157946217.3747222 223501355.54826108,-145448873.84155044 228374042.916057,-132117802.79431206 231379321.5459623,-118122728.46473283 232376058.34215376,-103654970.46916862 231239357.18861213,-88926574.91919841 227863223.33198744,-74169131.62842149 222163171.83721673,-59632271.176197596 214078743.94509152,-45581839.15612968 203575893.88510236,-32297748.77649772 190649207.80115128,-20071517.061863925 175323915.96931675,-9203494.19534429 157657659.45906252,199.9999998069253" stroke="white" stroke-width="1.5" /></svg>