<?xml version="1.0" encoding="utf-8" ?>
<svg baseProfile="full" height="400" version="1.1" width="400" xmlns="http://www.w3.org/2000/svg" xmlns:ev="http://www.w3.org/2001/xml-events" xmlns:xlink="http://www.w3.org/1999/xlink"><defs /><rect fill="black" height="100%" width="100%" x="0" y="0" /><circle cx="200" cy="200" fill="yellow" r="10.00000001785982" stroke="orange" stroke-width="2" /><polyline fill="none" points="200.83423488826995,200.0 200.8057522263826,200.04229831114316 200.77023046796415,200.08109062933875 200.72780124670592,200.11546804501546 200.67869625392083,200.1445093873082 200.62325123262173,200.16729165466907 200.56190895043216,200.18290116000463 200.49522104614138,200.19044529932077 200.42384865168972,200.18906483899605 200.34856170003204,200.1779466033207 200.2702368396849,200.1563364310235 200.18985388879847,200.12355225736178 200.10849077527192,200.07899716717324 200.02731692469203,200.0221722542867 199.94758507462984,199.95268911406322 199.87062151197915,199.87028178879328 199.797814749423,199.7748179803969 199.7306026776191,199.66630934155228 199.6704582511157,199.54492065518247 199.6188737881462,199.41097771331775 199.57734398707026,199.2649737098641 199.54734778508808,199.10757396786124 199.53032920768084,198.93961883050622 199.5276773797381,198.76212455661422 199.54070589122347,198.57628207533102 199.5706317311867,198.38345347180584 199.61855402363094,198.18516609515504 199.6854328168609,197.98310420233557 199.77206819413607,197.7790980763998 199.87907998740712,197.57511058488973 200.0068883872954,197.37322117366264 200.15569575097433,197.17560732301638 200.32546991492634,196.98452352633316 200.51592932140147,196.80227788629952 200.72653026554,196.6312064597469 200.956456564313,196.47364551892431 201.20461193849223,196.33190193415606 201.46961538463046,196.20822191991542 201.74979979540288,196.1047584228958 202.04321406357195,196.0235374661932 202.347628877273,195.96642379771623 202.66054638232697,195.93508622289042 202.97921385096612,195.93096303108328 203.30064145587204,195.9552279514095 203.62162420399798,196.00875709614502 203.93876803656812,196.09209736835757 204.24852005026577,196.20543682404244 204.5472027403644,196.34857748754814 204.83105210989518,196.52091112193682 205.0962594304329,196.72139845273307 205.3390163803175,196.94855233391016 205.5555632257736,197.20042532862973 205.74223965015645,197.4746021539473 205.89553777719502,197.76819740824033 206.01215687642133,198.0778589624106 206.0890591837984,198.39977735094078 206.12352621873924,198.72970144671834 206.11321493112152,199.06296064434727 206.0562129694151,199.3944937107132 205.9510923245284,199.71888438921954 205.79696057429666,200.03040376584187 205.59350893150702,200.32305932153275 205.34105628476954,200.59065050723166 205.0405884171347,200.82683058557964 204.69379159279373,201.02517438829406 204.3030797180737,201.1792515410068 203.87161430975317,201.2827046092854 203.40331654187716,201.32933152169755 202.9028706920264,201.3131715293772 202.37571836955553,201.22859386790347 201.82804298167986,201.07038819776014 201.2667439783405,200.83385581559122 200.69940051323553,200.5149005513239 200.1342242658377,200.11011819741202 199.58000128702108,199.61688325737782 199.04602285832374,199.03343175288404 198.54200549093673,198.3589387930924 198.0780003341174,197.59358958833715 197.6642924126009,196.7386425833532 197.31129026727672,195.79648339453178 197.0294067313114,194.77066826189358 196.82893173328137,193.66595577047596 196.71989817784848,192.48832565827797 196.71194211106112,191.24498360924585 196.81415852938227,189.94435103027075 197.03495433684412,188.59603893083877 197.38190009104272,187.2108051626199 197.86158230372376,185.80049443344865 198.47945817315667,184.3779606851263 199.23971472105663,182.9569716162727 200.1451343842351,181.5520953388188 201.1969691682675,180.17856937812155 202.39482550518275,178.85215246028417 203.73656196758108,177.58895977399027 205.2182019759072,176.40528264565626 206.83386359230224,175.31739382336085 208.5757084222104,174.34133982398282 210.43391154269358,173.4927220561925 212.39665424346472,172.78646868614533 214.45014120259455,172.23659945947813 216.57864352362387,171.8559859289463 218.76456883477476,171.65610975809085 220.98855939484002,171.64682197395433 223.2296188653198,171.83610622232 225.4652680960697,172.2298492334974 227.67172993419285,172.83162183166445 229.82414270564874,173.64247391266446 231.8968016390335,174.6607468705844 233.86342710460553,175.8819069692818 235.69745813272877,177.29840312842697 237.37236925872838,178.8995525220778 238.8620083203371,180.67145726918218 240.14095241444628,182.59695532803394 241.1848788070729,184.65560848940646 241.97094718989467,186.8237300952135 242.47818929419145,189.07445479104618 242.68790151453302,191.3778522523752 242.58403586613574,193.7010864068266 242.1535843075775,196.00862121065333 241.38695121056867,198.262473528973 240.2783085566662,200.42251311988213 238.82592829292824,202.44680913628815 237.0324861899866,204.2920219410445 234.90533152194226,205.91383838628727 232.4567169324846,207.26744804299713 229.70398296975796,208.3080571886697 226.66969196718583,208.99143667711868 223.38170622141132,209.274499132982 219.87320577363323,209.11590024308964 216.18264153791856,208.47665826656507 212.3536200396278,207.32078526480257 208.4347166279393,205.61592297099733 204.479214706577,203.33397568656147 200.54476928307758,200.45173211845403 196.6929939649709,196.95146766702297 192.98897142560116,192.8215183480533 189.5006883162966,188.05681729464254 186.29839660733538,182.6593846431321 183.45390438860454,176.6387615708452 181.03980024182943,170.01237932929376 179.12861639848865,162.80585431140238 177.79193700874708,155.0532005107093 177.09945895369958,146.7969511787901 177.1180137218795,138.0881820673818 177.91055992657238,128.9864293554712 179.53515704764158,119.55949620901966 182.0439319245479,109.88314290043125 185.48205038999993,100.04065652299518 189.88670720009856,90.12229756717062 195.2861480709563,80.22462197369427 201.69873815791627,70.44967873409374 209.13209169655315,60.90408466138638 217.58227775026506,51.69797958967939 227.03311706409926,42.94386696633845 237.45558489639086,34.75534655774055 248.80733437816735,27.245747781048692 261.032354426113,20.526673979923004 274.06077550117834,14.706469760083678 287.8088355567213,9.888625268325882 302.179017354836,6.1701330119001625 317.06036694721314,3.639814449176839 332.32900152013326,2.376635111573023 347.84881299754056,2.4480284147627174 363.47237179004094,3.9082495580647674 379.04203288264216,6.796781968645604 394.39124408477767,11.13681959634124 409.3460537404142,16.933848980977245 423.726812534798,24.174355373774773 437.35006126165456,32.82467727609304 450.0305935574812,42.83003354279151 461.5836796978193,54.11374666659097 471.82743461665706,66.57668499952092 480.5853103893969,80.09694546649061 487.6886905493613,94.5297967763184 492.9795608266548,109.70790123314006 496.313228246943,125.44183099602927 497.56105804804224,141.52089203132488 496.6131956064642,157.7142660596434 493.3812385567466,173.77247753173737 487.80082257571246,189.42918909312235 479.8340829329934,204.40332514063576 469.4719529180754,218.4015189639314 456.7362596805167,231.12087463544296 441.68157789896236,242.25203030278436 424.3968020579466,251.48250489191 405.00639898717594,258.5003054963184 383.67130372940636,262.9977679601669 360.58942376854225,264.6755984183838 335.99571918181283,263.2470788952529 310.1618293852931,258.4423955480619 283.39522082041054,250.01304384025065 256.0378341729796,237.7362609068176 228.4642145109067,221.41943170237622 201.07911304913173,200.90441226825558 174.31455506986978,176.0717106879222 148.62637480361622,146.84446408679062 124.49022476428648,113.19214843781234 102.39707407456999,75.1339570193528 82.8482176512374,32.741783193690935 66.34982567300975,-13.85725621544438 53.40707044640257,-64.47881922434152 44.5178755313689,-118.8799186329586 40.16633969580971,-176.7581403582123 40.81589583760385,-237.75155276739605 46.902272341334196,-301.4393545538957 58.82633131705691,-367.3433026981802 76.9468646901033,-434.9299551395112 101.57343506218453,-503.6137549722798 132.9593535327536,-572.7609743127924 171.2948911444165,-641.6945265080723 216.70082418833115,-709.6996451417549 269.22241617010474,-776.0304174107964 328.82394069431336,-839.9171479913014 395.38384978414933,-900.5745175864411 468.69069112833404,-957.2104880710237 548.4398753671162,-1009.0358936448451 634.2313907318222,-1055.2746448212217 725.5685570901296,-1095.174459558754 821.8579046897052,-1128.0180235540474 922.4102546195711,-1153.1344698186613 1026.443068223262,-1169.9110563395943 1133.08412142096,-1177.8049100483215 1241.376547169701,-1176.3546956803673 1350.2852751725861,-1165.1920595780696 1458.7048825222962,-1144.0526912543053 1565.4688523354002,-1112.7868397711206 1669.360219728227,-1071.3691178647348 1769.1235658506296,-1019.907424428502 1863.478301300534,-958.6508155976815 1951.1331602797686,-887.9961563996346 2030.8018065312406,-808.4933888587943 2101.219431647107,-720.8492586762494 2161.160206003536,-625.9293512161073 2209.4554226203645,-524.7582985771436 2245.0121549370087,-418.5180330343303 2266.8322311233064,-308.54397809740533 2274.0313103964945,-196.31908681861148 2265.857831188678,-83.46565772262488 2241.711587199374,28.265118271625937 2201.161675668292,137.0059014501444 2143.9635529013885,240.78823186930433 2070.07492545494,337.55980852069706 1979.6702016890283,425.20395441408647 1873.1532278864127,501.56117135631683 1751.1680360142586,564.452655747348 1614.6073366762869,611.7056136843576 1464.6185010217077,641.1801804335778 1302.6067894684895,650.7977162971499 1130.2356031462868,638.5702184929897 949.4235560092823,602.630557324401 762.3381916046009,541.2632151043397 571.3861984513478,452.9351784900805 379.2000117792672,336.3266095576744 188.62072683053668,190.36089858334603 2.677289822071373,14.233682577505164 -175.4380232789291,-192.55960139778836 -342.39778313324234,-430.1980697568563 -494.7711322175402,-698.5121002733883 -629.0589011862303,-996.9628425358057 -741.731906004953,-1324.624974372607 -829.2721617696739,-1680.1731369875752 -888.2166951305055,-2061.8724647905233 -915.2035835845702,-2467.573602858846 -907.0197972775727,-2894.7125754836843 -860.6503680828484,-3340.31583327771 -773.3283623598561,-3801.0107638626755 -642.5850887008277,-4273.041902306916 -466.29993093454834,-4752.293022427062 -242.7491604523538,-5234.315229072508 29.346948672688114,-5714.361104937018 350.77940253028186,-6187.424893743852 721.8088860718225,-6648.28862537808 1142.128004906173,-7091.5740083341525 1610.8280983666525,-7511.79983144311 2126.371343960348,-7903.444531066057 2686.56885575029,-8261.013492695376 3288.5654517453254,-8579.110568180955 3928.831727660409,-8852.513202655195 4603.1640262429255,-9076.250479787908 5306.6928326408115,-9245.683311441964 6033.900057036254,-9356.585919338277 6778.645586142576,-9405.227683227618 7534.203395457367,-9388.454363575136 8293.307414821898,-9303.767648159537 9048.207231446553,-9149.401922532366 9790.733597867444,-8924.397125201245 10512.373588194343,-8628.666520873872 11204.35511554406,-8263.058210245312 11857.74038792284,-7829.409193662927 12463.527740367112,-7330.590819491551 13012.761139353333,-6770.544476942477 13496.646512952662,-6154.306438194408 13906.673918656128,-5488.020816345054 14234.74442206159,-4778.939684434831 14473.30042560564,-4035.409496637397 14615.458059228122,-3266.843065673181 14655.140126307282,-2483.6764803116193 14587.207990458175,-1697.3104929988 14407.590693912289,-920.0360694578442 14113.4095182343,-164.9439685938736 13703.09613507478,554.1815890188743 13176.502450422844,1222.9849038450106 12535.00022222423,1826.6759588301966 11781.568529936712,2350.1820665399437 10920.867197125348,2778.313082223815 9959.294315862217,3095.9390325540526 8905.026095584308,3288.1787781767653 7768.037360015312,3340.5980982777023 6560.101144327402,3239.4153600758336 5294.766001160984,2971.712718629458 3987.3098083517375,2525.650585798736 2654.6690828066194,1890.6829149589062 1315.3430431226689,1057.7706734496446 -10.728072928297962,19.590721131343543 -1302.3106425984956,-1229.2628158843706 -2537.0511414509438,-2692.087689018462 -3691.6750445601165,-4369.8962723083405 -4742.210369226706,-6261.255030078508 -5664.234724113197,-8362.143829673036 -6433.144361105693,-10665.838184153588 -7024.443351620577,-13162.81743140818 -7414.05063276053,-15840.701735006645 -7578.622295249006,-18684.22062703013 -7495.886119272179,-21675.215603101267 -7144.985011295969,-24792.67902455412 -6506.82565984918,-28012.83128225141 -5564.428416545032,-31309.237831697697 -4303.274125693377,-34652.967321121556 -2711.643377184002,-38012.791605049104 -780.9434482847406,-41355.42796814866 1493.9819641496365,-44645.82338102101 4114.565233769684,-47847.480075034444 7078.25458934569,-50922.82116181095 10378.286266518593,-53833.594439716406 14003.494036635126,-56541.311930529126 17938.16099342462,-59007.722080708576 22161.918279727044,-61195.310950319785 26649.6951663944,-63067.82810610196 31371.724552431173,-64590.832341277164 36293.60753879689,-65732.25177171805 41376.44023831605,-66462.95231454974 46577.005422014445,-66757.30804989424 51848.03097008915,-66593.76650811934 57138.51639679359,-65955.40152247256 62394.12795700282,-64830.44594911831 67557.66202340297,-63212.796291890205 72569.57555346111,-61102.4810856981 77368.58155199508,-58506.084798235446 81892.30648671988,-55437.11901155061 86078.00564004255,-51916.33274959294 89863.33139101243,-47971.954030597706 93187.1484280042,-43639.85504873993 95990.38890749002,-38963.63383135779 98216.93960996132,-33994.60577852814 99814.55221408713,-28791.69917183768 100735.76692839705,-23421.249538379543 100938.83890037346,-17956.688672350632 100388.65608017817,-12478.125146600501 99057.63656472926,-7071.814284844657 96926.5929016666,-1829.51680514421 93985.55040576981,3152.2533219812512 90234.50624591431,7773.089842147497 85684.11591119297,11929.66056800728 80356.29367198146,15516.774125637769 74284.71382588372,18428.54052587811 67515.19986866546,20559.617382011013 60105.989263918804,21806.531981128017 52127.86220794285,22069.067816159823 43664.123701842815,21251.70261971289 34810.429352674866,19265.083431323954 25674.446628804562,16027.522799076436 16375.344788239086,11466.498887790924 7043.108376714626,5520.141062566687 -2182.3289537597184,-1861.3185383263626 -11152.131536664167,-10714.147810251681 -19709.788754726083,-21059.792926575883 -27692.51883465864,-32903.65355150193 -34932.843715223564,-46233.97678915853 -41260.32682281213,-61020.891618738635 -46503.46301415568,-77215.60527573456 -50491.70733234648,-94749.78246326088 -53057.62659995283,-113535.12740300377 -54039.155273717166,-133463.18755349878 -53281.93444296814,-154405.39632822206 -50641.71040392596,-176213.3703350644 -45986.766921188755,-198719.47453350003 -39200.363133379724,-221737.66627157063 -30183.147110155223,-245064.62643124792 -18855.5133604857,-268481.1828917837 -5159.87116480077,-291754.02823477145 10937.21050726228,-314637.73008477973 29443.01649113016,-336877.0287331891 50336.89270609972,-358209.4127623922 73568.68255120075,-378367.9593093074 99057.42726846877,-397084.4214221046 126690.36417602914,-414092.54071705206 156322.25524024895,-429131.55928211 187775.07652321114,-441949.90055246983 220838.09659948692,-452308.98475580587 255268.3690808897,-459987.1405491502 290791.6609219908,-464783.5707046763 327103.83421161945,-466522.32620931056 363872.6947020638,-465056.23998455005 400740.31541113177,-460270.76866991405 437325.83828277234,-452087.6886069407 473228.75114717154,-440468.59036975296 508032.63112598454,-425418.1149698888 541309.3392352927,-406986.87427075324 572623.6443072185,-385273.9982300076 601538.2475476612,-360429.25239068514 627619.1721454147,-332654.6706020409 650441.4754261557,-302205.65030038054 669595.2341883602,-269391.4608420651 684691.7471567722,-234575.11937063752 695369.8920362901,-198172.59352333707 701302.568542061,-160651.29593503312 702203.1531193352,-122527.84196505444 697831.885949345,-84365.04932857899 688002.1063654193,-46768.16632179764 672586.2490755683,-10380.324039662259 651521.510699986,24122.782664666018 624815.0941766374,56038.97081191341 592548.9376520845,84646.37645400332 554883.8346378081,109210.95750582112 512062.8535461437,128994.64533976995 464413.9672864471,143264.08701316384 412351.80745173246,151299.9087518276 356378.46279694233,152406.42017621832 297083.24822643684,145921.66787485068 235141.37837901068,131227.73645624454 171311.48911705808,107761.18530266255 106431.96076734751,75023.50006767763 41416.00878230531,32591.429668010023 -22754.47946897795,-19872.927719199375 -85036.36889197788,-82612.43216889819 -144333.95373502903,-155765.75020294893 -199508.86329381776,-239358.89397843444 -249391.15509615143,-333297.6032597662 -292791.5368749057,-437360.7216551136 -328514.64065627515,-551194.7163829096 -355373.2540589934,-674309.4866144562 -372203.39562807535,-806075.599132201 -377880.10293839657,-945723.0815887313 -371333.78453643277,-1092341.8930102757 -351566.96979073546,-1244884.1783465177 -317671.2746494326,-1402168.3988380425 -268844.3864181846,-1562885.412794274 -204406.85723929675,-1725606.562118226 -123818.48423638218,-1888793.798679996 -26694.044549850343,-2050811.8615605019 87181.85401987712,-2209942.4914241065 217841.05107938385,-2364400.642028584 365119.48707048694,-2512352.621370573 528646.478131806,-2651936.0664520427 707835.854787621,-2781281.626425947 901879.1999178121,-2898536.199252619 1109741.4111296383,-3001887.5373150185 1330158.7988263608,-3089590.0080656772 1561639.9138880405,-3159991.267097177 1802469.2779241228,-3211559.573444841 2050714.164547082,-3242911.450861701 2304234.5521180383,-3252839.3746770527 2560696.337043746,-3240339.1420916202 2817587.8621241814,-3204636.564803928 3072239.7768760705,-3145213.107126905 3321848.2064573187,-3061830.0806530854 3563501.163109283,-2954550.9984550504 3794208.089287825,-2823761.6881347685 4010932.3752905903,-2670187.7641020506 4210626.6466756025,-2494909.065572635 4390270.568618592,-2299370.6781917335 4546910.866130476,-2085390.1741231806 4677703.211346829,-1855160.7280563372 4779955.582535517,-1611249.7949714432 4851172.65470358,-1356593.0697032444 4889100.739397239,-1094483.4883161008 4891772.752171224,-828555.0769406818 4857552.650954859,-562761.5048348095 4785178.757860329,-301349.25474918186 4673805.351549967,-48825.38485208179 4523041.897773691,190080.07794217064 4332989.2727430845,410457.0039062246 4104272.328226641,607263.1035747145 3838068.149182101,775376.6904467171 3536129.3648797404,909653.928558656 3200801.893238737,1004990.1519181743 2835036.525840978,1056384.7644326251 2442393.7980598733,1059009.151472406 2027041.6351036597,1008276.9586012379 1593745.3205754529,899916.0203493842 1147849.3993341727,730041.1533033028 695251.2008189436,495226.96436131577 242365.75226485127,192579.76789513338 -203918.0570500636,-180192.34410497468 -636290.0998033655,-624712.27592142 -1047080.3554061868,-1141870.574505936 -1428328.795039964,-1731766.997613008 -1771863.508049241,-2393658.0620035776 -2069386.6481938006,-3125911.6265999926 -2312567.652700517,-3925969.5486683883 -2493143.0598865286,-4790319.420262184 -2603022.1238253945,-5714476.346723829 -2634397.298671421,-6692975.6686005965 -2579858.542506163,-7719377.452626606 -2432510.2726613944,-8786283.48638415 -2186089.693194557,-9885367.404981822 -1835085.112374439,-11007418.456879575 -1374852.7755228335,-12142399.280359779 -801730.6581925974,-13279517.912808638 -113147.59825751242,-14407314.09287544 692273.9051946268,-15513759.74187739 1614622.9315533754,-16586373.326903999 2652615.1366443695,-17612347.615544096 3803519.2224998507,-18578690.132835645 5063096.564621509,-19472375.42694343 6425555.631718421,-20280508.04342509 7883522.758472237,-20990494.901148394 9428030.733056104,-21590225.55854081 11048526.537506767,-22068258.659581956 12732899.430499684,-22414012.657620545 14467530.38878262,-22617958.734616432 16237363.725983474,-22671813.66675048 18026001.486554768,-22568730.23750537 19815820.96943565,-22303482.669297732 21588115.472132005,-21872644.437469415 23323258.0632401,-21274755.748793207 25000887.892221455,-20510477.91334052 26600118.232095744,-19582731.816157777 28099765.126610834,-18496817.706059694 29478595.181681708,-17260513.565052852 30715590.705067936,-15884149.40525633 31790230.06229574,-14380654.962130817 32682780.784889985,-12765578.414433975 33374602.643471383,-11057073.96323661 33848457.58777139,-9275856.344743589 34088823.16286876,-7445120.634268187 34082205.74077997,-5590426.020681435 33817449.663818955,-3739542.5906319357 33286038.185732212,-1922260.5578729433 32482381.923306733,-170161.8026329932 31404090.399564363,1483645.953975434 30052222.174245607,3004831.528677808 28431509.022192746,4358177.886707682 26550549.63927842,5507953.13620539 24421968.432076268,6418312.518773181 22062535.08444296,7053728.46283311 19493240.793905955,7379445.220580125 16739327.33496101,7361954.0701840725 13830265.436100014,6969484.539625954 10799679.352904666,6172506.604619665 7685214.980338912,4944238.338167633 4528349.372091916,3261153.0512796673 1374140.121226609,1103479.5711689817 -1729086.2987051765,-1544311.0372832327 -4730107.433593796,-4693039.281063517 -7575238.442587432,-8348378.765900051 -10208825.046606677,-12510452.76369596 -12573793.663951956,-17173473.19870406 -14612255.70844809,-22325429.397493497 -16266162.148839278,-27947833.82104498 -17478003.541221082,-34015531.772329375 -18191549.859518446,-40496581.74568526 -18352623.57343692,-47352212.65245437 -17909898.5705667,-54536863.6190086 -16815716.701545395,-61998311.40807786 -15026912.956897805,-69677889.7630252 -12505639.574138079,-77510804.11967547 -9220178.736801008,-85426544.17514709 -5145732.9760931255,-93349395.7530689 -265181.93342533894,-101199052.26627082 5430206.199562771,-108891324.85978733 11940120.466082556,-116338949.02858442 19254622.142807096,-123452484.15718314 27353640.882900007,-130141301.03507271 36206563.7245442,-136314650.97678456 45771928.31641542,-141882808.73431104 55997231.17592659,-146758279.94904286 66818861.090080574,-150857062.4685579 78162166.88971838,-154099949.4693307 89941667.77522638,-156413860.9995085 102061413.14681837,-157733189.30665445 114415497.49903359,-158001142.1645249 126888734.3831673,-157171067.3814764 139357491.73140934,-155207740.78174686 151690688.98351124,-152088599.22017312 163750954.47427282,-147804899.64068967 175395939.44404662,-142362784.83816877 186479782.8432413,-135784236.44949925 196854718.83640808,-128107895.799518 206372816.59505612,-119389733.57482305 214887839.62633684,-109703549.9059518 222257209.54453963,-99141287.31571443 228344056.88321155,-87813140.14581425 233019339.29843047,-75847445.50944348 236164005.36048952,-63390342.53532155 237671180.10497352,-50605188.66613035 237448346.64875278,-37671724.04543222 235419496.50565714,-24784977.56196823 231527219.7944853,-12153910.904886333 225734705.351586,199.99999972355496" stroke="white" stroke-width="1.5" /></svg>