<?xml version="1.0" encoding="utf-8" ?>
<svg baseProfile="full" height="400" version="1.1" width="400" xmlns="http://www.w3.org/2000/svg" xmlns:ev="http://www.w3.org/2001/xml-events" xmlns:xlink="http://www.w3.org/1999/xlink"><defs /><rect fill="black" height="100%" width="100%" x="0" y="0" /><circle cx="200" cy="200" fill="yellow" r="10.000000000020007" stroke="orange" stroke-width="2" /><polyline fill="none" points="201.6011990359088,200.0 201.62920019607566,200.08552556797449 201.6481992209718,200.17352405242747 201.6576661946686,200.26299415623828 201.65716448368008,200.35284683364918 201.6463627522918,200.44191288296025 201.62504648374994,200.52895204233837 201.59312883125244,200.61266357617154 201.55066061924072,200.6916983200146 201.49783931405292,200.764672131882 201.43501678371376,200.83018067664722 201.36270566964305,200.88681544881504 201.28158419847705,200.93318091717887 201.19249927011,200.9679126531141 201.09646766854473,200.98969628275827 200.99467525523514,200.99728708237717 200.88847402031848,200.98953001610772 200.77937688545595,200.96537999631263 200.6690501728678,200.9239221292888 200.55930367848032,200.86439169336023 200.45207831276602,200.7861935827671 200.34943130069757,200.68892093955026 200.25351896204475,200.57237268712075 200.1665771247865,200.43656967368761 200.0908992574108,200.2817691314604 200.02881244001634,200.1084771587941 199.9826513290711,199.91745893742157 199.95473030603475,199.70974640581088 199.947314035408,199.48664312264097 199.96258669269042,199.2497260715256 200.00262015674525,199.00084417949114 200.06934149370238,198.74211334735514 200.164500090281,198.47590782001885 200.28963482276976,198.20484775869548 200.44604167335717,197.9317829150965 200.6347422275399,197.65977234938933 200.85645350445697,197.39206017905155 201.1115595857074,197.13204739425544 201.40008551705012,196.88325982672814 201.72167396091348,196.64931241270205 202.07556507546607,196.43386994608102 202.4605800877588,196.24060457473988 202.87510901384115,196.07315035032096 203.31710295753535,195.93505519932603 203.7840713915443,195.8297307400063 204.27308478966145,195.76040042477365 204.78078293702336,195.7300465408089 205.3033891966468,195.74135665141284 205.8367309550747,195.79667010660995 206.3762664080531,195.89792529273706 206.91711777911513,196.0466083264022 207.45411099018827,196.2437039274613 207.98182172440676,196.48964922774616 208.49462773783478,196.78429128642554 208.98676718952382,197.12684908838776 209.45240266906876,197.51588079824904 209.8856905085185,197.94925702894324 210.28085487214406,198.42414085984282 210.63226602426786,198.93697530460418 210.93452208327193,199.4834788831351 211.18253348025817,200.0586498950778 211.37160925491128,200.65677992394615 211.49754424023024,201.2714770216475 211.55670611329154,201.89569893279574 211.5461212224436,202.5217966173787 211.46355804365092,203.1415682195281 211.30760707144105,203.74632351006326 211.07775591433563,204.3269587020182 210.77445834200182,204.87404140254714 210.39919602278394,205.3779053226367 209.95453169681943,205.82875421928708 209.44415255253966,206.21677439476176 208.8729026137959,206.5322549257958 208.24680300177639,206.76571464406916 207.57305901074915,206.90803473969078 206.86005302975292,206.95059571389717 206.11732245372374,206.88541726772385 205.35552185702747,206.70529958220396 204.586368849573,206.40396432487034 203.82257319996026,205.97619360918364 203.0777489905727,205.41796504017262 202.3663097649963,204.72658090320795 201.70334683720503,203.90078949552054 201.10449115291357,202.94089656381377 200.58575932440004,201.84886479796197 200.16338469875026,200.62839934203967 199.85363456340812,199.2850173212919 199.67261483946388,197.82609944842213 199.63606385937587,196.26092186576884 199.7591370687196,194.60066650231025 200.05618472784766,192.8584083764099 200.5405249156367,191.04907845688552 201.22421435031632,189.1894009060815 202.11781973816298,187.29780376849112 203.23019253602706,185.3943024360572 204.56825016468508,183.50035551509993 206.13676683337061,181.63869303798884 207.93817722815518,179.83311730285268 209.97239637489096,178.10827698406328 212.23665900817866,176.48941553174234 214.72538175852642,175.0020952665363 217.43005140807992,173.67189897239214 220.33914235895188,172.52411119067926 223.43806630560007,171.58338181903468 226.709156902698,170.87337501274635 230.13169197182503,170.41640677004455 233.68195549393675,170.2330749498537 237.33334129041674,170.34188581569032 241.0564999046399,170.75888151671728 244.81952976012983,171.49727320066305 248.58821319297272,172.5670846976082 252.32629743827124,173.97481191285138 255.99582009686748,175.72310321569626 259.5574780238467,177.81046620381142 262.97103796963,180.231006254913 266.1957866736391,182.97420224444448 269.19101746606253,186.02472470571604 271.91654978228473,189.3623015342704 274.333277344709,192.96163608837026 276.4037401261825,196.79238221053572 278.0927145866017,200.819180289898 279.3678160784901,205.0017580015842 280.20010675759954,209.2950987981683 280.5647018202801,213.64968059120298 280.4413664299216,218.011786350826 279.8150952995942,222.32388757235924 278.6766665763189,226.52510071575443 277.02316143310605,230.55171582289066 274.8584406265163,234.33779556642787 272.19356922794475,237.81584199062758 269.0471807933552,240.91752717880925 265.44577240519027,243.5744830345016 261.4239223070917,245.7191443054494 257.02442226120945,247.28563792390918 252.29831729235332,248.21071069639837 247.30484614480216,248.43468636522277 242.11127656650137,247.90244209724824 236.7926304503793,246.56439354747198 231.43129490064993,244.37747681123386 226.1165164485828,241.30611483472714 220.94377691085242,237.3231552140761 216.01405075595957,232.41076579361913 211.43294531020663,226.5612740886492 207.3097266823616,219.77793632051527 203.75623590165964,212.0756217755334 200.8857014316282,203.48139829533142 198.81145592512965,194.03500498541447 197.6455668051693,183.78919869968178 197.4973919711073,172.80996152832046 198.47207361934323,161.17655738994435 200.66898480857154,148.9814269088049 204.18014496868128,136.32991104477372 209.08862202495234,123.3397954354433 215.46694016060445,110.14066910124869 223.37551344606337,96.87309304835301 232.86112659774324,83.68757636957054 243.9554849683813,70.7433596773449 256.6738564915115,58.20700808816824 271.013828682137,46.250818495368776 286.954203913211,35.05104849438922 304.45405602415013,24.785977036214206 323.4519708564985,15.633809652396081 343.8654925388454,7.770443888494924 365.5907962468888,1.3671133686674182 388.50260673712893,-3.4120683425448703 412.454380189655,-6.412640251466968 437.2787647962932,-7.492376444160044 462.7883530986465,-6.5238898294633145 488.77673632420914,-3.3972261626527995 515.0198679003943,1.977584555561009 541.2777399631943,9.668053883030865 567.296373041435,19.716873876431492 592.8101152161271,32.13970609969169 617.5442429591371,46.92315823856691 641.2178515828768,64.02298603896867 663.547018824259,83.36255800911087 684.2482205875247,104.83161956359035 703.041973331633,128.2853920182443 719.6566730624841,153.54404004981154 733.8325964355643,180.39253890122797 745.3260251507335,208.58096973471302 753.9134506904937,237.8252681100234 759.395812580411,267.8084466002986 761.6027198009283,298.18230806600843 760.3966018193875,328.56966110919075 755.6767330050596,358.5670437537202 747.3830720024328,387.7479554788591 735.4998560309228,415.66659141685454 720.0588891113936,441.86206586276637 701.142462946242,465.86310529574627 678.885849650287,487.1931839429066 653.4793067882115,505.37606760423483 625.1695372580243,519.9417240809386 594.2605494982724,530.4325511977931 561.1138673101987,536.4098661754387 526.1480432859495,537.4605930891087 489.8374354211404,533.2040784476287 452.7102129545337,523.2989586453351 415.34556479762466,507.4499972861798 378.3700920587976,485.4148052606561 342.45337508415827,457.0103520784426 308.3027150712245,422.11917342696324 276.6570605904634,380.6951773388914 248.28014018857067,332.76894980552333 223.95283354901363,278.45246025684196 204.46482534020572,217.94306812392765 190.60559776827853,151.5267337762038 183.15482983757104,79.58034054503595 182.87228326512695,2.5730393536633187 190.48726674427638,-78.93346629537211 206.68778164759934,-164.28576955246683 232.10946313578987,-252.74080913685827 267.3244408261124,-343.46917286229586 312.8302524993877,-435.5596987717047 369.0389526140441,-528.025403619518 436.2665644772162,-619.810753921728 514.7230306272513,-709.8002791135606 604.5028201459232,-796.8285096298944 705.5763540874536,-879.6912050927519 817.7824108406318,-957.1578194115598 940.8216718989987,-1027.985130654226 1074.2515650869336,-1090.9319442279702 1217.4825566794816,-1144.7747584337142 1369.7760359844603,-1188.324262058462 1530.2439257734654,-1220.4425145930486 1697.8501394255568,-1240.0606411666522 1871.413990782694,-1246.1968566436399 2049.6156455374985,-1237.9746168091788 2231.003683540542,-1214.6406794584311 2414.004819816337,-1175.582844782401 2596.9358084391674,-1120.3471329918427 2778.0175278982456,-1048.6541479132738 2955.391219368631,-960.4143685931945 3127.136820624702,-855.742107009291 3291.2933084453825,-734.9678690446317 3445.8809315558974,-598.6488581450176 3588.925184751224,-447.57736673726413 3718.4823432023495,-282.78680969416865 3832.666344435507,-105.55516701358516 3929.676774497458,82.59438047985843 4007.827684797758,279.89581815671306 4065.576937489467,484.34583882445946 4101.555750462128,693.7127016776453 4114.598088531929,905.5485207760235 4103.769525682211,1117.2050596892063 4068.3951846879927,1325.8530704552945 4008.0863455966332,1528.505173457151 3922.7653037629025,1722.0422305358409 3812.68805185835,1903.2431170035188 3678.464358871494,2068.8177496093385 3521.0748229306814,2215.443177425702 3341.884484117559,2339.8024915823453 3142.6525985500994,2438.626258354009 2925.5381960980403,2508.7361289167607 2693.1010712891166,2547.0902287822896 2448.297890341855,2550.829881182205 2194.473136819266,2517.32717221788 1935.344664059441,2444.232822146178 1674.983674144172,2329.5237874792847 1417.7890004718477,2171.5499833833483 1168.4556336748,1969.0794859048217 931.9374982437142,1721.3415495583588 713.4045592832289,1428.0667584740263 518.1944147241438,1089.5236192858897 351.75860737173014,706.5509018635863 219.60397260414297,280.58504040042146 127.2294204967643,-186.31807723422196 80.0586347068588,-691.4675791853664 83.36925360966806,-1231.5289511549083 142.2191808699902,-1802.5228181738241 261.37075174843187,-2399.8316805041063 445.21355682196497,-3018.2150530514805 697.6867952563866,-3651.8333832396747 1022.2020940975887,-4294.281038217681 1421.567787038539,-4938.62855894293 1897.915694569121,-5577.474276646883 2452.631486151583,-6203.005277131233 3086.2897329537795,-6807.06758109621 3798.594775640374,-7381.245285240845 4588.3285347744695,-7916.948280323421 5453.306380613228,-8405.508029982062 6390.342153700631,-8838.28075928326 7395.223387006029,-9206.75726620389 8462.697723910293,-9502.678434184765 9586.471453747703,-9718.155391249444 10759.220997693048,-9845.793132773313 11972.618072551657,-9878.816302694711 13217.369138682792,-9811.195713714176 14483.269601295371,-9637.774082790489 15759.273082354432,-9354.389365978044 17033.5759142116,-8957.99399831173 18293.716826947468,-8446.768281937862 19526.6916106408,-7820.226120851961 20719.08233295773,-7079.311275177601 21857.2004834041,-6226.482303520744 22927.243200358404,-5265.7843800247165 23915.461517865766,-4202.9062146138 24808.33934858646,-3045.2203716185704 25592.781699905176,-1801.8053743587418 26256.310404830576,-483.4481018898001 26787.26544089197,897.3748707203121 27175.00971183537,2326.5381655579263 27410.1349816713,3788.331707644507 27484.66648171598,5265.548799272165 27392.263561896907,6739.5986712451595 27128.413630923664,8190.643748882859 26690.61652905617,9597.761579066091 26078.556405119067,10939.131054173964 25294.258128931833,12192.242242060953 24342.225264078275,13334.128791236864 23229.556656287987,14341.62153047903 21966.038761729273,15191.6215259098 20564.210948940716,15861.390500126457 19039.401159308385,16328.856161583313 17409.729504842,16572.929642669522 15696.077618959485,16573.83190659336 13922.021855999496,16313.425661251145 12113.728757643472,15775.549017829315 10299.8115681748,14946.346858137626 8511.146983773244,13814.595632793176 6780.651761469818,12372.017107514606 5143.019287977672,10613.576411966644 3634.416713755691,8537.759629662813 2292.1437891143405,6146.826102969108 1154.2550920885615,3447.0306185019285 259.147906740722,448.81068902152685 -354.881410487174,-2833.0657383559615 -650.109156309828,-6379.396638371564 -589.8800990428742,-10166.490571689763 -139.12282301848836,-14166.163583580395 735.1205171583285,-18345.79187725672 2063.1556709870156,-22668.423345248317 3872.0951207556823,-27092.95051659456 6185.320833840976,-31574.346885015246 9021.957899575076,-36063.96792647209 12396.36634292013,-40509.91739751411 16317.658669967514,-44857.4787334138 20789.25088668472,-49049.61054323375 25808.454834933615,-53027.504334531506 31366.11970169281,-56731.20170131951 37446.33047240988,-60100.26728400267 44026.170912054244,-63074.51286910338 51075.55836321775,-65594.76705028584 58557.1572460153,-67603.68393191253 66426.3776272177,-69046.58343421243 74631.46459489188,-69872.31486780252 83113.68343005065,-70034.13459792154 91807.60471008738,-69490.5878288051 100641.49251325353,-68206.38381982887 109537.79782384401,-66153.25321106688 118413.758070433,-63310.77560033538 127182.10247242867,-59667.165089869355 135751.86153300773,-55220.001221255414 144029.27761042508,-49976.892554183985 151918.8120376617,-43956.06012915894 159324.2427567867,-37186.82819658351 166149.84490523406,-29710.009903420058 172301.64525368,-21578.17611123424 177688.73986800632,-12855.79618147308 182224.6628705491,-3619.2404091194194 185828.79272915528,6043.365183857818 188427.78112787718,16032.439768993296 189956.9881923232,26237.411022834018 190361.9066780063,36537.345933270735 189599.5567037552,46801.75246234836 187639.8317463885,56891.55352655195 184466.77592894423,66660.2327094204 180079.7721534994,75955.14894542575 174494.62037054636,84619.01512674293 167744.4852581383,92491.53320681835 159880.69282191628,99411.17593005794 150973.35593587984,105217.10283141492 141111.8096352088,109751.19565134976 130404.83805567177,112860.19583079302 118980.67629520883,114397.92431937523 106986.77215495087,114227.56158187722 94589.29469844261,112223.96345737207 81972.37884458806,108275.98644850314 69337.09777330792,102288.7941308981 56900.157760406386,94186.11471104533 44892.31315270124,83912.41836080581 33556.50252489113,71434.98185310554 23145.710600157337,56745.80724975485 13920.564237276976,39863.3609805777 6146.674653763189,20834.099632404534 91.74202895877629,-266.25083652919227 -3977.5573291444716,-23331.694903607076 -5798.877010183837,-48225.27745975237 -5117.671447841785,-74778.73333597652 -1690.7995653984422,-102792.50350043621 4709.774912299224,-132036.1423035562 14293.226132017602,-162249.13691740134 27246.094790072264,-193142.15640464815 43728.54889316649,-224398.74367625214 63870.72537054371,-255677.45897601673 87769.20356972613,-286614.4784924714 115483.66344884796,-316826.646278473 147033.782521695,-345914.9718986078 182396.426265572,-373468.56017267576 221503.186719436,-399068.95309600374 264238.3233375054,-422294.85755652026 310437.15878452884,-442727.22590323165 359884.9802321955,-459954.649825567 412316.4938181912,-473579.02145811904 467415.8762445541,-483221.4092153885 524817.4630134552,-488528.08967497287 584107.1075286564,-489176.6709571938 644824.2392426853,-484882.2375886861 706464.6422258194,-475403.44188221253 768483.9680076913,-460548.4625105323 830301.988340897,-440180.7472929288 891307.5847151139,-414224.4543410063 950864.4620782259,-382669.50371413544 1008317.5643775488,-345576.1506979386 1063000.1593101644,-303078.9918185454 1114241.549168484,-255390.3158105064 1161375.353997423,-202802.71402753444 1203748.302564439,-145690.8682724393 1240729.4560135517,-84512.43876385874 1271719.778667283,-19807.9809776531 1296161.9604004943,47800.17258913509 1313550.3854869572,117610.1210885602 1323441.133966387,188843.7399234095 1325461.8935512956,260651.1956912132 1319321.6530448096,332116.6536248786 1304820.0423258145,402265.1863308701 1281856.1793257613,470070.87826860504 1250436.8812159586,534466.1051649486 1210684.0953806103,594351.9515452905 1162841.4057939998,648609.7129358783 1107279.472263049,696113.4122162738 1044500.2637359991,735743.2422588174 975139.9525952757,766399.8295812807 899970.3446085883,787019.1964716975 819898.7290473299,796588.2821450502 735966.0454122564,794160.8671949578 649343.2772250276,778873.7301527557 561325.9994161319,749962.8506103518 473327.0239025285,706779.460353886 386867.1079105616,648805.732544435 303563.71134038246,575669.8894189283 225117.8128358589,487160.5015117772 153298.81903698933,383239.7462483262 89927.62753839542,264055.3911548964 36857.93111611609,129951.2670696313 -4044.121454287594,-18524.000194379 -30921.76447927406,-180610.22512902468 -41950.78253038613,-355331.08078035346 -35363.805883577115,-541491.9033092681 -9475.506929430789,-737680.0701430313 37291.556182147804,-942268.1195284226 106380.72746593297,-1153419.7564375317 199074.97467511735,-1369098.8635831738 316470.8676854414,-1587081.6068752904 459453.1553224788,-1804971.6921424186 628670.2977245126,-2020218.7945504005 824511.3233873774,-2230140.144122623 1047084.388307091,-2431945.210397239 1296197.4187651977,-2622763.386893366 1571341.218961621,-2799674.532093217 1871675.419595581,-2959742.178520501 2196017.6333710346,-3100049.1756904037 2542836.168048989,-3217735.4867477105 2910246.626925837,-3310037.8130587647 3296012.7003813684,-3374330.676473425 3697551.4203711413,-3408168.546046786 4111943.112460185,-3409328.555349843 4535946.237302996,-3375853.318760697 4966017.265537262,-3306093.320978972 5398335.677121008,-3198748.324111115 5828834.118527986,-3052907.2116894163 6253233.689328087,-2868085.6695532035 6667084.264002382,-2644261.090250146 7065809.685938578,-2381904.0810865266 7444757.599063841,-2082005.956700791 7799253.609214891,-1746101.6055327468 8124659.392906123,-1376287.1362243765 8416434.296489947,-975231.7351578156 8670199.894723866,-546183.2002670262 8881806.905429719,-92966.65911878803 9047403.78726632,380023.9688923098 9163506.28167881,867842.1455910365 9227067.098908281,1365012.832076716 9235544.892622504,1865564.7834469734 9186971.619344799,2363071.165631571 9080017.338480102,2850698.545974639 8914051.47740222,3321264.208474783 8689199.564771188,3767301.63772758 8406394.424931712,4181133.9035323537 8067420.827765452,4554954.561869473 7674952.602506734,4880915.568692628 7232581.251452099,5151221.581995154 6744835.14074664,5358229.906289631 6217188.400928625,5494555.213472788 5656058.739922239,5553178.0566057 5068793.455786358,5527556.080064935 4463643.035682084,5411736.722513684 3849721.8409533547,5200470.109940652 3236955.505467564,4889320.746374361 2636014.814780863,4474776.531558613 2058235.9864092437,3954353.5696016913 1515527.4354274294,3326695.182075994 1020263.2834923879,2591663.504857857 585164.0517040548,1750422.0316851353 223165.1667640985,805507.4703665384 -52725.89622095286,-239110.6989388998 -229582.81431494074,-1377984.5288629073 -294722.743612118,-2604157.271294253 -235876.36010718934,-3909149.812329003 -41364.011611646325,-5282965.1685353955 299723.8057708425,-6714112.199296069 797343.6066924711,-8189649.5283113215 1460315.8320579452,-9695250.482485445 2296143.7871300415,-11215289.649122478 3310836.9951800564,-12732951.423703317 4508741.465122117,-14230360.67191779 5892379.453063182,-15688735.362838503 7462301.352562423,-17088560.74725205 9216952.374157375,-18409784.35864444 11152556.669111637,-19632030.806950815 13263021.513338644,-20734835.020018063 15539864.093306776,-21697892.26819405 17972163.32500045,-22501322.98722908 20546538.98863038,-23125950.097696528 23247160.275073636,-23553586.209563106 26055785.61474108,-23767327.802719887 28951835.39593158,-23751853.19271147 31912498.8784562,-23493720.8301626 34912876.270616926,-22981664.247143272 37926156.56528299,-22206879.75856098 40923831.3261177,-21163302.856198136 43875944.1808512,-19847869.10166257 46751375.318286985,-18260755.236543916 49518159.803467415,-16405596.18747377 52143838.025608316,-14289673.654240988 54595836.08110786,-11924072.033915177 56841873.374664165,-9323797.555907933 58850394.201299176,-6507856.684368019 60591019.5572844,-3499290.08698858 62035014.925381236,-325158.77428569563 63155769.29649078,2983520.6189381564 63929280.23308459,6391894.008275868 64334639.35710444,9861443.597793879 64354512.26392387,13350218.738570586 63975606.53197344,16813124.85834754 63189121.2221856,20202270.75409211 61991171.04969612,23467373.832653187 60383178.269182734,26556222.13590711 58372225.25129202,29415191.202326756 55971360.7467778,31989813.00413491 53199852.94256596,34225393.366332166 50083382.61456872,36067673.429951034 46654169.97941643,37463529.876609355 42951029.24414427,38361707.79527927 39019345.35100214,38713579.256139 34910968.014513746,38473919.87193971 30684018.849074595,37601694.88638148 26402608.185789414,36060845.64367104 22136459.073605217,33821066.6759887 17960436.947367936,30858563.108240448 13953984.518049894,27156777.634277117 10200462.59040405,22707075.977416586 6786398.731588595,17509379.521828093 3800646.99028132,11572733.700638587 1333463.1874626146,4915800.761169006 -524498.3459945917,-2432734.2938718055 -1683259.3382075299,-10433855.460694915 -2054654.8315982034,-19038015.56867064 -1553523.1465052275,-28185053.93009792 -98937.25000641085,-37804240.72770933 2384535.046243268,-47814456.08325952 5965555.837310308,-58124510.6073128 10704741.714657089,-68633612.92596358 16653404.083742285,-79231988.2201114 23852321.96876614,-89801650.20481169 32330564.78325249,-100217327.23024361 42104383.095394924,-110347541.31441438 53176185.779963166,-120055836.93581182 65533622.1069558,-129202154.33900063 79148787.25546683,-137644339.9572572 93977569.44541974,-145239784.35552382 109959156.33791101,-151847175.86813578 127015717.55717942,-157328355.87481922 145052279.12643358,-161550259.452927 163956804.28154367,-164386922.9929756 183600493.52952302,-165721538.29864445 203838314.9546691,-165448530.7429145 224509773.64948747,-163475637.25098345 245439926.7690615,-159725958.26039717 266440648.088933,-154139956.40166986 287312143.10441095,-146677373.48038888 307844712.66384697,-137319036.45521256 327820759.9041253,-126068522.52479996 347017031.8814907,-112953653.18820776 365207083.79686826,-98027787.25308289 382163950.13737017,-81370883.25663373 397663003.433813,-63090302.65535493 411484977.7097479,-43321326.44648674 423419130.11574495,-22227359.618843492 433266510.75077844,199.99999946940179" stroke="white" stroke-width="1.5" /></svg>