<?xml version="1.0" encoding="utf-8" ?>
<svg baseProfile="full" height="400" version="1.1" width="400" xmlns="http://www.w3.org/2000/svg" xmlns:ev="http://www.w3.org/2001/xml-events" xmlns:xlink="http://www.w3.org/1999/xlink"><defs /><rect fill="black" height="100%" width="100%" x="0" y="0" /><circle cx="200" cy="200" fill="yellow" r="10.00000000014404" stroke="orange" stroke-width="2" /><polyline fill="none" points="201.27278925615548,200.0 201.28097652213216,200.06724541580664 201.28124065366154,200.1348902896745 201.27329361886513,200.2020121916065 201.25693834603533,200.26762987009346 201.23207753432882,200.33071140273788 201.19872182217404,200.390183519287 201.15699716904763,200.4449420594892 201.10715130640182,200.49386351154973 201.04955911545525,200.53581755988213 200.9847267933914,200.56968055351567 200.91329467531708,200.59434978912492 200.8360385871848,200.60875848540667 200.75386961480905,200.6118913086669 200.66783218613082,200.60280029323368 200.57910037799056,200.58062098491953 200.48897237482777,200.5445886214727 200.39886302486684,200.49405415102854 200.31029445938384,200.42849987825517 200.22488476245434,200.34755451842724 200.14433470200504,200.25100743230232 200.07041255784975,200.13882180964654 200.0049371084686,200.0111465667814 199.94975886534763,199.86832672379845 199.90673967146145,199.7109120303012 199.87773080865662,199.53966361483234 199.86454978695622,199.3555584426653 199.86895601680862,199.15979137947454 199.89262559268275,198.95377467461176 199.93712544278262,198.7391346973349 200.00388712462373,198.51770578233706 200.0941805693751,198.29152106725724 200.20908809881593,198.06280023440632 200.34947905707654,197.83393410156816 200.51598541462442,197.60746604223073 200.70897871382445,197.3860702537203 200.9285487334738,197.1725269321503 201.17448425362738,196.9696944555132 201.4462563014669,196.78047872023802 201.74300425362722,196.60779982167028 202.06352516003108,196.45455631471714 202.40626663868196,196.32358733681514 202.76932366987606,196.21763292085677 203.15043959181196,196.139292870159 203.54701156756622,196.09098461035464 203.95610075589016,196.07490047358658 204.37444737536865,196.09296490793312 204.79849080333412,196.14679213892202 205.22439479780033,196.23764483963873 205.6480778728957,196.3663943906429 206.0652487962438,196.53348333004146 206.47144711094424,196.7388906070115 206.86208851582055,196.9821002582496 207.2325148660623,197.26207412571307 207.57804848302175,197.57722922514148 207.89405038751462,197.92542035779073 208.17598199638215,198.30392853224373 208.41946974820786,198.70945572882857 208.62037205191982,199.13812649591583 208.77484788255495,199.58549681512366 208.8794262827662,200.04657061128003 208.93107596778015,200.51582421303672 208.92727417654848,200.98723899158497 208.86607386385253,201.4543423183932 208.7461682881917,201.91025688880814 208.5669520194383,202.34775835739723 208.32857736947534,202.75934112385724 208.03200523927603,203.1372919960952 207.67904937799946,203.4737713407521 207.27241306442852,203.76090121216245 206.81571724913326,203.9908598298046 206.31351923764151,204.15598165309717 205.77132105104937,204.24886218242148 205.19556667116012,204.26246649807615 204.5936274624962,204.19024043614075 203.97377516329888,204.0262231936436 203.34514195165144,203.76516005672838 202.71766722066138,203.40261385645516 202.1020308375575,202.93507367920242 201.5095728147178,202.36005929409222 200.95219948496168,201.67621971011766 200.44227644761696,200.8834242423237 199.9925087344044,199.98284445099188 199.61580883335355,198.9770253216989 199.32515340287367,197.86994407860385 199.13342970464754,196.6670550694411 199.05327298093442,195.37531922933223 199.09689619673068,194.00321672233315 199.275913757484,192.5607414750126 199.60116099601294,191.05937645545887 200.0825113951838,189.5120487137897 200.72869367291725,187.93306338605427 201.54711100038355,186.33801607160026 202.54366474995166,184.74368322344372 203.722585273772,183.16789044049546 205.08627229406918,181.62935881789133 206.63514753968175,180.14752979503137 208.36752228766267,178.742369237796 210.27948246158,177.43415179899037 212.36479389752694,176.24322691625994 214.61483031301918,175.18976812610995 217.01852640151586,174.29350769255825 219.56235832519621,173.57345886540716 222.23035369019917,173.04762839196903 225.00413286156635,172.7327222029707 227.86298320986623,172.6438474737987 230.7839675786471,172.79421452163973 233.7420679227268,173.19484223278334 236.7103646936614,173.85427091775648 239.66025214288194,174.77828666049558 242.56168927783733,175.9696613569956 245.3834857454921,177.42791272456822 248.09362143469338,179.14908860101247 250.65959808879654,181.12557983998937 253.04882070758063,183.34596604143343 255.22900599845042,185.79489823112203 257.16861461722203,188.45302241927027 258.83730342484296,191.29694772253526 260.2063934849876,194.2992624260461 261.2493490456677,197.4286009916854 261.94226229312045,200.64976458624633 262.2643382457348,203.9238972094931 262.1983737771984,207.20871894961257 261.7312244288958,210.4588172849935 260.8542523992797,213.6259966905206 259.5637488896628,216.65968609834925 257.86132384851624,219.5074030130648 255.75425609637261,222.11527229575512 253.2557968367492,224.42859681824245 250.3854196704097,226.39247635577686 247.16901043532792,227.95247024293866 243.6389904965751,229.05529847310632 239.83436751176794,229.6495750870758 235.80070820035348,229.68656688229177 231.5900282493959,229.12096969218084 227.26059519397572,227.91169374714462 222.8766409147923,226.02264894700676 218.50798129571416,223.42352026135168 214.22954157505083,220.0905229414601 210.12078699998736,216.00712678746163 206.2650595462133,211.16473837856745 202.74882268510885,205.56332995398404 199.66081745827455,199.21200353780998 197.0911344416445,192.1294789425002 195.13020753546888,184.34449447090424 193.86773688736156,175.89610947380208 193.39154962746093,166.83389841421615 193.78640845054102,157.21802674598328 195.13277940169692,147.11919973477913 197.50557149129213,136.61847633582926 200.9728619618784,125.80694139270686 205.59462213506507,114.78523073259706 211.42145975993247,103.66290519966198 218.49339464671058,92.55767128182775 226.83868508055397,81.59444773723399 236.47272305137724,70.90427950213802 247.39701668874713,60.62310214729328 259.5982784387872,50.8903622273215 273.04763744734475,41.8475010177647 287.6999943064383,33.63631133540625 303.4935357673572,26.397179365130853 320.3494262141045,20.267225645134346 338.17169161809835,15.37836156400661 356.84731035488613,11.855279868932342 376.2465236548547,9.813399743528151 396.2233765845663,9.356788955248788 416.6164983188761,10.576087363810501 437.2501280755107,13.546457691373234 457.9353904561037,18.325590850047632 478.47182108751633,24.951794270965024 498.6491404051314,33.44219255085642 518.2492701901665,43.79107029746001 537.0485840941849,55.96838728655567 554.8203798879489,69.91849591576184 571.3375575941891,85.55909043096408 586.3754840438102,102.78041649115409 599.71502077471,121.44476831100823 611.1456886167834,141.3862988663505 620.468938823266,162.4111664588916 627.5014972669157,184.29803831145477 632.0787450706158,206.79896880666738 634.0580961379906,229.64066649993626 633.3223294430209,252.52616014627463 629.7828316807879,275.136869701276 623.3827040259009,297.13508361645404 614.0996853408094,318.166838781857 601.9488432707392,337.8651942141869 586.9849843001714,355.85388409274105 569.3047340684479,371.7513300605508 549.0482400856516,385.17498689218274 526.4004504854852,395.7459897463674 501.5919246244632,403.09406533962175 474.8991342047567,406.8626635695482 446.6442171722765,406.71426046083513 417.19415092498167,402.3357778835916 386.9593163531228,393.44406038562033 356.3914299082559,379.79134477218213 325.9808272368988,361.1706538441131 296.25308888327845,337.4210420528559 267.7650061191845,308.4326178326949 241.09989304273387,274.15126510733023 216.86225963682122,234.58298501730468 195.671869416965,189.797778349139 178.1572145421152,139.9329895326765 164.94845071614844,85.19603446894318 156.66984376879023,25.866436907204474 153.9317893606973,-37.70289835286741 157.3224766892883,-105.08524247024627 167.39927625392292,-175.7804909836135 184.67994054027193,-249.21655785754433 209.63371476919667,-324.75176123692984 242.6724624875621,-401.67823774503154 284.1419176184378,-479.2264118353229 334.31318049796494,-556.5705353608021 393.37458026997274,-632.8353002295246 461.4240296555426,-707.103513861073 538.4620004376638,-778.424813251837 624.3852488831926,-845.8253789195699 718.9814196583379,-908.3185949688057 821.9246544841834,-964.9165861519746 932.7723277441426,-1014.6425472652379 1050.9630254303456,-1056.5437646950918 1175.8158761533632,-1089.705214615582 1306.5313334115847,-1113.2636074309287 1442.1934969166812,-1126.4217337775265 1581.7740475162702,-1128.4629539620344 1724.1378551848409,-1118.7656603422986 1868.0503027351235,-1096.8175310805916 2012.186349426656,-1062.2293841384092 2155.141338634765,-1014.7484325594135 2295.443532338285,-954.2707362158262 2431.5683325603154,-880.8526414772023 2561.954126253689,-794.7209988898784 2685.0196656871153,-696.2819501044471 2799.1828714101225,-586.1280791118969 2902.8809196295383,-465.0437294781932 2994.5914506133236,-334.0082988074273 3072.854709864712,-194.1973341915632 3136.2964096135147,-46.9812679645554 3183.65107499824,106.07834832033018 3213.785617519223,263.235232156631 3225.7228582929665,422.5674764994893 3218.6647056973006,581.9894428350127 3192.014676530519,739.2664793227704 3145.3994371733666,892.0324698495208 3078.6890317874004,1037.8101849967084 2992.0154586377002,1174.0343691160142 2885.789253500927,1298.0774592520734 2760.713741093599,1407.2777919174223 2617.7966217805388,1498.9701131205102 2458.3585717122055,1570.518166020019 2284.0385501623855,1619.34908960971 2096.7955283173924,1642.989321441468 1898.9063791747426,1639.1016581103881 1692.9596985575026,1605.523089618739 1481.845362493341,1540.30298838469 1268.7396662343308,1441.7412011582826 1057.0859348272686,1308.4255630461375 850.5705441378084,1139.2683278197344 653.0943442678265,933.5409882715336 468.739533995068,690.9069451517478 301.7320947466431,411.4514737023926 156.39995516246768,95.70843350572561 37.12712191139903,-255.3168292613929 -51.69592157392725,-640.1289276222607 -105.72518010530871,-1056.7287502230965 -120.71904059505391,-1502.605145388137 -92.59659425926526,-1974.7324363424277 -17.497822892991934,-2469.574189660595 108.15497608568798,-2983.093609495168 287.59520846311636,-3510.7708726835076 523.6501812564801,-4047.6276546107556 818.6802623362985,-4588.259023008213 1174.519824532551,-5126.872797096066 1592.420830079114,-5657.336383155475 2072.999935780923,-6173.231005371935 2616.1900145102227,-6667.913153381045 3221.1969937406225,-7134.582966236208 3886.4629060672764,-7566.35916747932 4609.636029385411,-7956.360058719172 5387.548965048528,-8297.789970787724 6216.2054604600635,-8584.030463431593 7090.7767278505235,-8808.73545796449 8005.607943276382,-8965.929383785759 8954.235529118789,-9050.107320651392 9929.415729690969,-9056.336025600762 10923.164883282401,-8980.354648053657 11926.811675554402,-8818.673860371377 12931.061529315664,-8568.672065684035 13926.073145195085,-8228.687291555909 14901.547057628612,-7798.103338577897 15846.825912114507,-7277.428728650015 16751.006004274623,-6668.366989866806 17603.059450485078,-5973.876824745967 18391.96618546917,-5198.220737105598 19106.854806209973,-4347.000741099477 19737.151105918467,-3427.179844478041 20272.732968795066,-2447.0880875647235 20704.090128278785,-1416.4120300092122 21022.48713081153,-346.16670914158396 21220.127696345342,751.3507535159094 21290.31852842719,1862.626547815332 21227.63050326287,2973.0150299627962 21028.055061221457,4066.8432827370757 20689.15353829135,5127.535398035143 20210.197111439677,6137.756254561617 19592.294992953266,7079.574305671514 18838.508496788876,7934.642623332598 17953.948616675396,8684.397166489856 16945.854802916012,9310.27095866378 15823.6527039829,9793.922573539645 14598.988751241392,10117.47704198674 13285.739611300101,10263.777012985829 11899.994711015392,10216.641728127011 10460.010255138468,9961.13110860845 8986.133405611188,9483.812009070347 7500.695573778471,8773.023468263233 6027.874091005021,7819.137586622449 4593.521867593118,6614.812489422418 3224.9650222350433,5155.233695358859 1950.7688617369286,3438.3401080633994 800.4730101602554,1465.0307859077259 -195.7030759061676,-760.6513730292019 -1007.1825177347937,-3231.3628656241926 -1603.3792015576068,-5936.333494863518 -1954.0691285471994,-8861.274584461926 -2029.781850350284,-11988.324940220238 -1802.2084565696973,-15296.037762558433 -1244.6221377074687,-18759.411419967826 -332.3069239945561,-22349.966642502786 957.0101961693681,-26035.872288493276 2642.728938056852,-29782.121377748386 4740.952646415584,-33550.75857275582 7264.078246178797,-37301.15972863131 10220.405203212757,-40990.36352656638 13613.769644980248,-44573.45455873571 17443.209890291197,-48003.99655039675 21702.669665524216,-51234.51369334369 26380.745236725663,-54217.017330858136 31460.482558321313,-56903.574485459794 36919.23032600425,-59246.91396541897 42728.554520685066,-61201.065033114915 48854.21964008989,-62722.02287744463 55256.241333515754,-63768.43441361592 61889.014583310855,-64302.297247222195 68701.52091487154,-64289.66399620812 75637.61736754749,-63701.34357507699 82636.40912528175,-62513.590521422535 89632.70679281895,-60708.77299646393 96557.5683169232,-58276.00972937448 103338.92449961787,-55211.76591012652 109902.28594066993,-51520.39787711138 116171.52808933971,-47214.636403034674 122069.74989203834,-42315.99846382633 127520.20030540509,-36855.11758783392 132447.26571696668,-30871.98323253158 136777.5100925902,-24416.080128225436 140440.75846684992,-17546.419166198037 143371.2132255604,-10331.452194191163 145508.59151595563,-2848.8640152276685 146799.27107678133,4814.7640352263825 147197.4308256018,12564.423337498576 146666.17169168842,20297.283107235526 145178.60245762285,27903.432945406403 142718.8747885388,35266.76277229229 139283.15120142116,42265.978386308525 134880.48947397954,48775.74908300839 129533.6269280846,54667.981887526366 123279.64816000246,59813.21501331473 116170.52014051077,64082.12118154485 108273.47918237527,67347.10944105119 99671.255078412,69484.01214191981 90462.11875595513,70373.84176200566 80759.74107588227,69904.600391318 70692.85192650688,67973.12287187969 60404.690521781755,64486.93289866475 50052.239803347,59366.08983932199 39805.24005770649,52545.0026554986 29844.979280572723,43974.18613538551 20362.860434067934,33621.933703725976 11558.748529383643,21475.880389052545 3639.1034046881186,7544.4291241595365 -3185.092871040044,-8141.986541355449 -8700.601882679726,-25529.830006407843 -12694.372740679088,-44541.60557281577 -14956.14539736768,-65075.24395769305 -15281.19163798391,-87003.75321430137 -13473.168803688404,-110175.15720835728 -9347.058228713204,-134412.74170374908 -2732.1574411995052,-159515.6256289559 6524.907566774563,-185259.67222794882 18557.186203213518,-211398.75155690426 33474.461703970475,-237666.36218590086 51360.404451541486,-263777.6160236081 72269.8620352416,-289431.5859291465 96226.32900765177,-314314.01124079287 123219.6399364519,-338100.35157360695 153203.92949583035,-360459.1742605376 186095.90295236028,-381055.8556826853 221773.45944560078,-399556.57150776667 260074.70891773398,-415632.5455899614 300797.4213889412,-428964.5220421227 343698.9444917911,-439247.41983953374 388496.6217614068,-446195.1243231999 434868.7401286858,-449545.3652129314 482456.03038941446,-449064.62629096524 530863.7391388388,-444553.0278516375 579664.2847944545,-435849.119407995 628400.5039129491,-422834.5170778201 676589.4870836454,-405438.3176135172 723726.9963025767,-383641.21926411596 769292.4479597536,-357479.27863099443 812754.4374776629,-327047.2324648568 853576.773300673,-292501.3140070884 891224.9794401048,-254061.49505390905 925173.2172235441,-212013.08745879753 954911.5683819093,-166707.64132033216 979953.6132423746,-118563.08165150418 999844.2296937425,-68063.03090432286 1014167.5308716776,-15755.271329638514 1022554.8522959481,37750.69122676101 1024692.6926040077,91786.99188136506 1020330.5061890051,145631.7198563925 1009288.2410883277,198514.1899938931 991463.5115015698,249621.17115476605 966838.2914603216,298104.05801039096 935485.0145362179,343086.9600915789 897571.9641604574,383675.6687948102 853367.840230129,418967.44948806986 803245.3902748495,448061.59205038246 747683.9976199256,470070.6392752484 687271.1247618146,484132.19873539754 622702.5176051246,489421.23012119945 554781.0853155672,485162.6869134219 484414.38131915254,470644.37872542086 412610.6234022723,445229.90894804726 340473.2048959254,408371.53165323986 269193.6644932571,359622.7622609619 200043.0992620895,298650.568448497 134362.0237584258,225246.96137641344 73548.69768409632,139339.8027100498 19045.965098593806,41002.64030747125 -27673.330395175224,-69536.61500997054 -65122.26802886297,-191888.35734016605 -91817.00090426742,-325495.47968917346 -106295.0041878861,-469629.2686935089 -107134.2664955253,-623387.1652469797 -92973.2484378006,-785692.5440595888 -62531.41094898111,-955296.6503155234 -14630.095698374782,-1130782.8140227913 51786.479093201575,-1310573.0423956208 137630.3614131467,-1492937.0677548144 243649.4160779582,-1676003.903080842 370407.5654794141,-1857775.9296578527 518266.01305798045,-2036145.5113915824 687365.7494956716,-2208914.09859651 877611.6457749497,-2373813.750594725 1088658.4378994582,-2528530.9716544147 1319898.9049741095,-2670732.718962072 1570454.53528368,-2798094.4048469025 1839168.9638133028,-2908329.678769385 2124604.4491831735,-2999221.7380894264 2425041.6381295873,-3068655.8808112997 2738482.841409469,-3114652.9788538776 3062659.016341628,-3135403.5174242863 3395040.618186589,-3129301.8153042393 3732852.445327693,-3094980.012821004 4073092.5619289135,-3031341.389500649 4412555.33665236,-2937592.552417101 4747858.587427064,-2813274.0195714235 5075474.770539948,-2658288.7107571946 5391766.097904115,-2472927.851759421 5693023.409745628,-2257893.796831524 5975508.57169384,-2014319.2795902963 6235500.105977823,-1743782.614106813 6469341.706791117,-1448318.3863385993 6673493.230606366,-1130423.2013668965 6844583.694062489,-793056.0843237936 6979465.755809079,-439633.1724886928 7075271.105202221,-74016.38279178829 7129466.130854897,299504.20722058596 7139907.196612961,676234.466221738 7104894.812420201,1051106.9377543393 7023225.953607289,1418718.2512846105 6894243.755226327,1773373.1971572044 6717883.788960117,2109135.3627849063 6494716.119623554,2419884.138884724 6225982.337050181,2699377.812498231 5913626.767857195,2941322.3688168186 5560321.090762678,3139445.5274727833 5169481.609254034,3287575.4420438353 4745278.476834438,3379723.3952202783 4292636.2230458185,3410169.727639616 3817224.9930973235,3373552.1471019043 3325441.9901943128,3264955.4780879756 2824382.6973944823,3080001.8305920246 2321801.5546922483,2814940.0936510605 1826061.8765659807,2466733.5940098823 1346074.9147661224,2033144.7054906122 891228.099859614,1512815.1511985348 471302.6319910374,905340.709996161 96380.7353205185,211339.02195137396 -223256.9596678272,-567490.8141454437 -477243.2878008553,-1428318.1435593702 -655244.8999923207,-2367141.419460036 -747090.1608855622,-3378760.8392287903 -742903.5046656379,-4456764.096846284 -633245.0069842383,-5593526.308453667 -409253.78275826515,-6780225.062706978 -62793.67878747726,-8006871.4231696995 413400.40106688027,-9262357.566993413 1025577.3197160221,-10534521.583054887 1778827.5664109911,-11810229.7743393 2676946.127486265,-13075476.614747409 3722302.413815542,-14315502.300990956 4915719.339860415,-15514927.617435424 6256363.675785281,-16657905.59753176 7741649.796098758,-17728289.222002722 9367158.923989246,-18709814.14361775 11126575.918493403,-19586295.17386371 13011645.570660518,-20341835.010979343 15012150.264021995,-20961043.434765592 17115910.713320483,-21429264.944589417 19308811.32331665,-21732812.576508142 21574851.506647807,-21859205.407006543 23896224.066634465,-21797407.038119227 26253421.48848787,-21538062.165398307 28625370.691868395,-21073728.159987852 30989596.48090546,-20399098.45265007 33322413.586807534,-19511214.394526232 35599146.83567559,-18409662.190153267 37794378.59316413,-17096751.456041265 39882222.24170592,-15577671.955954192 41836620.03906411,-13860625.104639467 43631663.293308966,-11956926.917474316 45241932.37364575,-9881079.216300173 46642853.66387546,-7650806.083098173 47811070.16098952,-5287052.78411758 48724822.0310693,-2813944.668051334 49364333.06408382,-258703.87271607693 49712198.624267794,2348477.945340982 49753770.379547805,4974612.216253208 49477532.817972854,7584132.282037866 48875466.32725672,10139158.810492635 47943391.43115576,12599811.611667376 46681288.64908287,14924567.08091342 45093588.37834657,17070659.8727719 43189425.19660061,18994526.76607401 40982851.04986658,20652290.018979937 38493001.93267731,22000276.840322666 35744212.884636104,22995570.92819113 32766076.42442332,23596591.356390715 29593439.919599842,23763693.432922233 26266337.84915929,23459785.52103571 22829855.455419134,22650955.212144196 19333920.901210606,21307097.68057236 15833023.745081138,19402538.542537794 12385858.317866562,16916643.095693268 9054891.423889596,13834403.440668032 5905854.69338453,10146994.691762194 3007162.8725512186,5852291.279336904 429260.3457402643,955334.2400456516 -1756100.768634093,-4531259.609220779 -3476646.531184203,-10586955.60484615 -4660425.593588004,-17183035.036261246 -5236705.50207249,-24282413.21389687 -5136913.196063029,-31839549.72193932 -4295610.939745096,-39800458.1562315 -2651497.8958980143,-48102821.899301045 -148426.57587094168,-56676221.604513586 3263577.5073429197,-65442479.0518795 7627305.478442611,-74316120.90296474 12977377.249202894,-83204964.62739518 19339290.00163104,-92010827.50615986 26728517.303358622,-100630358.14681679 35149673.482424654,-108955988.38418932 44595758.05735609,-116877001.80048586 55047495.01449722,-124280713.39619705 66472781.53631217,-131053753.1945354 78826260.40192103,-137083444.78629372 92049029.69616456,-142259268.0390557 106068502.66973856,-146474393.4264018 120798429.58630696,-149627273.702124 136139092.17122817,-151623276.9754944 151977679.841463,-152376343.66127512 168188855.25088555,-151810648.30785564 184635514.83599424,-149862245.9744786 201169748.00324628,-146480681.65975484 217633996.37335798,-141630540.30411556 233862412.1053526,-135292914.12330127 249682411.7825673,-127466763.50236505 264916419.67590016,-118170147.41242665 279383791.4310288,-107441299.32634297 292902906.3837624,-95339524.92319585 305293413.8215921,-81945898.50125822 316378615.6127364,-67363735.97815609 325987964.7520066,-51718823.65548459 333959656.5629204,-35159383.569699 340143286.5868648,-17855758.244427677 344402546.62314683,199.99999957822877" stroke="white" stroke-width="1.5" /></svg>