<?xml version="1.0" encoding="utf-8" ?>
<svg baseProfile="full" height="400" version="1.1" width="400" xmlns="http://www.w3.org/2000/svg" xmlns:ev="http://www.w3.org/2001/xml-events" xmlns:xlink="http://www.w3.org/1999/xlink"><defs /><rect fill="black" height="100%" width="100%" x="0" y="0" /><circle cx="200" cy="200" fill="yellow" r="10.000000001609344" stroke="orange" stroke-width="2" /><polyline fill="none" points="201.03765268151142,200.0 201.02694826614814,200.05391009278927 201.00883666286546,200.10621132673185 200.98324756584262,200.15599543791373 200.95020558798575,200.2023197071494 200.90983652960747,200.244216217393 200.8623728153208,200.2807020392847 200.80815797603643,200.3107902801061 200.74765005659512,200.33350191633738 200.68142383493878,200.34787831490945 200.61017174587417,200.35299433331357 200.53470341144592,200.34797187416748 200.4559436907147,200.33199375584425 200.37492917432496,200.3043177475633 200.2928030636055,200.26429060513496 200.21080839001738,200.21136193256496 200.1302795484608,200.14509768517567 200.05263213716555,200.0651931220068 199.97935111747893,199.97148500922654 199.91197732867,199.86396287231335 199.85209241569578,199.74277909304897 199.8013022515119,199.60825764806512 199.76121895971437,199.46090128896293 199.7334416678093,199.30139697000797 199.71953614593943,199.13061933820262 199.72101351014373,198.94963211222696 199.73930819287264,198.75968719137242 199.77575540618818,198.56222135317907 199.83156834450352,198.35885041901258 199.90781539350456,198.1513607902149 200.00539762969416,197.9416982836416 200.12502691045145,197.73195422421557 200.26720486725426,197.52434878339895 200.43220312443543,197.3212115859914 200.62004507220587,197.12495964313277 200.83048952537837,196.93807270651328 201.06301659798388,196.76306617722454 201.31681611854145,196.60246174202715 201.59077890090697,196.45875594963923 201.8834911712163,196.3343869795003 202.1932324323236,196.231699894843 202.5179770232432,196.15291071029003 202.85539960240484,196.1000696410405 203.20288475006936,196.0750239354566 203.55754084711504,196.07938072493894 203.91621834476155,196.11447035380263 204.27553249287297,196.18131067686713 204.63189054357352,196.2805728330772 204.98152339238374,196.4125490191349 205.3205215613796,196.57712279731325 205.64487536849447,196.77374247584982 205.95051906459847,197.00139809813143 206.23337865603605,197.2586025678752 206.4894230655791,197.54337742134268 206.71471822001368,197.8532437340158 206.90548358862503,198.1852186179062 207.05815063453116,198.53581772664722 207.1694225810188,198.90106413868756 207.23633483867656,199.27650393433453 207.25631538712167,199.657228720237 207.22724435842775,200.03790528542316 207.1475120289071,200.41281249658857 207.01607439261343,200.77588545744956 206.8325054646957,201.12076686823835 206.59704544640877,201.44086542752635 206.31064387697018,201.72942102034622 205.97499690127796,201.9795763349743 205.59257779742202,202.18445444676692 205.16665993449055,202.33724180225562 204.70133136984313,202.4312759315205 204.20150034612124,202.46013711299094 203.67289101199236,202.41774311364384 203.12202876703174,202.29844603052558 202.5562147201286,202.09713016809468 201.98348885210342,201.80930980158365 201.41258158640085,201.431225600937 200.85285359616552,200.95993842441703 200.31422381092614,200.3934191371765 199.80708573052604,199.73063306943035 199.34221230668678,198.97161770269855 198.9306498123341,198.1175521622386 198.58360128403288,197.1708171004277 198.31230029188183,196.13504358054118 198.1278759621595,195.01514961401486 198.04121034889673,193.81736306759362 198.062789419243,192.54922974029125 198.20254908175494,191.2196055141305 198.46971784422072,189.83863160727648 198.87265783593205,188.41769210325114 199.41870606596825,186.96935309498542 200.11401791158056,185.50728296681197 200.96341493669306,184.04615354012583 201.97023922743662,182.6015220280454 203.13621649715236,181.18969397939424 204.46133025519006,179.82756764080773 205.94370934998602,178.53246042555406 207.57953118540522,177.321918446277 209.36294286846766,176.2135103435627 211.28600247489103,175.22460691999999 213.3386425151946,174.37214836698692 215.5086575475755,173.67240114547621 217.7817177138817,173.14070684849153 220.14140977164877,172.7912256287828 222.56930695862735,172.63667701549767 225.0450687572253,172.68808116522774 227.54657132599618,172.95450379121652 230.0500690353621,173.44280818587364 232.53038718728678,174.1574178920864 234.9611456162125,175.10009368432702 237.31501246433515,176.26972858758262 239.56398700177664,177.66216468726532 241.6797099254604,179.27003546338173 243.63379912398094,181.08263731458078 245.3982084443819,183.0858338198995 246.94560654581477,185.2619961161968 248.2497724801746,187.58998254603173 249.28600420694548,190.04516045330388 250.0315358348241,192.5994726721539 250.46595899260524,195.22155086890405 250.57164337280417,197.8768774583921 250.33415117010765,200.52799732683863 249.74263985950728,203.13478005607666 248.79024753227816,205.6547327620189 247.47445483803256,208.0433630378995 245.7974174738147,210.25459083513408 243.7662631221445,212.24120742741272 241.3933467741154,213.95537889344232 238.69645848558875,215.34919082788832 235.69897780801932,216.3752302565063 232.42996941354525,216.98719999881666 228.9242147988933,217.14055999913222 225.2221754056581,216.79318944396647 221.3698830358799,215.90606281089228 217.41875407075153,214.4439323611607 213.42532471476915,212.37600900638495 209.45090528455324,209.6766329589904 205.56115243650598,206.32592512751341 201.82555917478413,202.31040985160035 198.31686349381798,197.62359929779126 195.1103775795758,192.26652966546547 192.2832406114865,186.24823929164708 189.91359936168124,179.58617880191855 188.07972196811576,172.3065436397108 186.859051450192,164.44451962391258 186.3272067257015,156.04443263999076 186.55694006132836,147.1597941661961 187.6170610298566,137.8532350759648 189.5713381392593,128.19632104072883 192.4773903251405,118.26924388260674 196.38558144139105,108.16038439066844 201.33793172711728,97.96574341244725 207.36706095370508,87.78823945693128 214.49517854740554,77.73687258716132 222.7331364237122,67.92575602846458 232.07956054448127,58.47301865886564 242.52007730267067,49.499583365882444 254.02665073946415,41.12782813130252 266.5570462926672,33.480138623263315 280.05443625361943,26.67736301190692 294.4471613645176,20.837181658200564 309.6486620132666,16.072406230936593 325.55759127553495,12.4892246588756 342.0581206130323,10.185410096834431 359.02044736544303,9.248513748859295 376.30151127627755,9.754062920550098 393.7459251786395,11.763787038016346 411.18712264730203,15.323895544918344 428.4487229136686,20.46343254416064 445.34611065861134,27.19273376048156 461.68822546673766,35.502011839211065 477.27955276947665,45.360096141198824 491.9223050519596,56.71335302287835 505.4187789814914,69.48481208459057 517.5738709679464,83.57352301350345 528.1977305257767,98.85416642690011 537.1085277130321,115.1769405280768 544.1353079164574,132.3677434154352 549.1209043766626,150.2286685347774 551.924876148071,168.53882803917347 552.426436710266,187.05551572887236 550.5273362360349,205.51571779945692 546.1546586223242,223.63797584911714 539.2634928479276,241.12460251014596 529.8394370791593,257.6642457057618 517.9008932430032,272.9347929267688 503.50110956451925,286.6066021144375 486.7299288564981,298.34604077264373 467.71520118528235,307.81930986508655 446.6238209434149,314.69652393840124 423.6623503580299,318.6560138096095 399.07719406849543,319.3888131309433 373.1542926258557,316.6032852642866 346.21830660137596,310.02984223173337 318.6312674352971,299.4257031304743 290.7906761954562,284.57963538313663 263.12703702577005,265.316618612969 236.10081821525625,241.50236786059574 210.1988404689436,213.04765036778545 185.93009906347064,179.9123283137128 163.82103406422303,142.1090587670502 144.4102706005934,99.7065817749399 128.24285926590397,52.83252800395857 115.86405494507046,1.675678728450265 107.81268068491285,-53.51238672973105 104.61413151077875,-112.41631773553331 106.77308125416543,-174.656750618447 114.76596337926566,-239.79085060833745 129.0333043672935,-307.3136832891666 149.971995318319,-376.6604541862297 177.92759394133228,-447.2096468928921 213.18675490386534,-518.2870810052095 255.96989148298968,-589.1709011187605 306.4241754824602,-659.0974973173695 364.6169853426735,-727.2683460285924 430.5299141630659,-792.8577479306688 504.0534498799622,-855.021426879179 584.98243900528,-912.9059407020554 673.0124430519224,-965.6588413246327 767.7370929823062,-1012.4395081813689 868.646541662944,-1052.4305654072282 975.1271073523986,-1084.8497800500886 1086.4621926714158,-1108.9623256849504 1201.834553300667,-1124.093283527266 1320.3299788413703,-1129.640241627911 1440.9424348965013,-1125.085842180936 1562.580700546736,-1110.0101175830348 1684.076519090002,-1084.1024478450945 1804.1942622941874,-1047.172965462029 1921.6420896104826,-999.163229081455 2035.0845639643005,-940.1559844497938 2143.1566650602576,-870.3838303191737 2244.4791198068624,-790.2366084183113 2337.6749477078342,-700.2673403562188 2421.3870971219917,-601.1965405492439 2494.297026423083,-493.9147430267616 2555.144062571912,-379.4830913401556 2602.745348736814,-259.13185480647195 2636.016172667686,-134.25675096474248 2653.990448854868,-6.412973379230266 2655.8411104034644,122.69315427506422 2640.900151344365,251.2149526642408 2608.6780471014736,377.17861805279244 2558.8822703494857,498.49890995298415 2491.4346118276667,612.9972641549776 2406.4870111060013,718.4222678646136 2304.4356010955066,812.4724000399419 2185.932672494764,892.8209053341516 2051.8962705814,957.1426346827895 1903.5171469685101,1003.1426499110728 1742.2628032926655,1028.5863542067896 1569.8783823804263,1031.3308753565573 1388.3841853066763,1009.3573947517333 1200.0696199135027,960.8040828277082 1007.4834177516642,883.999271312136 813.4199919319117,777.494464939058 620.9018478647845,640.0967706529727 433.1580020997277,470.9003012933002 253.59841116011012,269.31609381793965 85.78446206044173,35.10006977998722 -66.60437132556791,-231.62144152492084 -199.80754717511667,-530.32909864297 -310.02393464300314,-860.0913396341366 -393.45548005290107,-1219.5490369324048 -446.3537296525068,-1606.9044657426725 -465.06882051494665,-2019.9150128466094 -446.1004944174491,-2455.892022332204 -386.1506345126436,-2911.70513743779 -282.17677212918255,-3383.792453411375 -131.44596191884938,-3868.176745112141 68.41162135674432,-4360.487975200013 319.35005099562454,-4855.992224441568 622.8567020970346,-5349.627115275729 979.9037388264437,-5836.0437237993665 1390.9028030179875,-6309.654894321832 1855.663683570905,-6764.689785269926 2373.35774882361,-7195.254386270365 2942.486917269369,-7595.397654562256 3560.858925057551,-7959.182825456748 4225.5696212361945,-8280.763357406591 4932.992983272141,-8554.462878501876 5678.7794957774795,-8774.858409059809 6457.863474444858,-8936.866045681218 7264.479844949223,-9035.828207007042 8092.190803149711,-9067.601461760001 8933.922688612416,-9028.64388686026 9782.013298717073,-8916.10083882371 10628.26975601096,-8727.88796663991 11464.036917798776,-8462.770250210175 12280.2761851392,-8120.43581648389 13067.654429550705,-7701.563266873124 13816.642611066662,-7207.881245483106 14517.623512236078,-6642.218989188016 15161.007860799064,-6008.54662850771 15737.357960779618,-5312.004053354297 16237.517799456817,-4558.917220606915 16652.748448043498,-3756.8008615481313 16974.867428957947,-2914.3466466651466 17196.39058443389,-2041.3959831775169 17310.674852053824,-1148.8967566666483 17312.060234818953,-248.84348187465434 17196.00914879984,645.7995016168873 16959.241242447577,1521.1919665118942 16599.861710435845,2362.7288440936445 16117.48107352416,3155.168141544265 15513.324366352388,3882.7752662293747 14790.327669120043,4529.483057610315 13953.219938430864,5079.066585108138 13008.588138646628,5515.331523386473 11964.923749107193,5822.314667912239 10832.648825497476,5984.494906269732 9624.11992611931,5987.012717704082 8353.608376201537,5815.896038071285 7037.255535628154,5458.290103216292 5693.001957195894,4902.688674323055 4340.489572945113,4139.163857570435 3000.9363240465477,3159.59156108623 1696.9829535583071,1957.8694882908694 452.51200904589706,530.1244517558478 -707.5605488962223,-1125.094290962502 -1757.5203686800867,-3006.6390252234673 -2671.1152141512866,-5110.608245358557 -3421.839415244052,-7430.215320876751 -3983.240321467664,-9955.684408887344 -4329.244412866563,-12674.176737423963 -4434.5003212497595,-15569.750215970975 -4274.73561989335,-18623.35511306115 -3827.123857977737,-21812.868275807 -3070.657952326598,-25113.168052689598 -1986.5257093143287,-28496.25171950804 -558.4829399358285,-31931.39680038297 1226.7806431616832,-35385.36722305902 3379.28779059808,-38822.66475310681 5905.437572607978,-42205.82561833626 8807.692089231705,-45495.761666820035 12084.29147191431,-48652.144804171505 15729.00262661798,-51633.83283352868 19730.90711414682,-54399.334181192484 24074.233438217492,-56907.30833878273 28738.23881270426,-59117.09819644997 33697.14520396911,-60989.289789000286 38920.13409056437,-62486.29433610856 44371.403950035754,-63572.94683789422 50010.293971156316,-64217.114897119114 55791.47690076187,-64390.310888470274 61665.22326956217,-64068.30009329993 67577.73850407687,-63231.6969743217 73471.57362650332,-61866.54138851359 79286.10937632858,-59964.84623707891 84958.11266345534,-57525.10783763555 90422.36329025157,-54552.77018423177 95612.34786812794,-51060.634243125656 100461.01681294217,-47069.203523558375 104901.59924369218,-42606.95736915318 108868.46954254546,-37710.54374223387 112298.05827409087,-32424.88372426756 115129.79912137777,-26803.180533505114 117307.10249013036,-20906.826567031956 118778.34547525596,-14805.202808679604 119497.8669906397,-8575.365904747367 119426.95604959068,-2301.6192927918705 118534.82046465794,3925.0340304165725 116799.52262716657,10007.558204353601 114208.86854367018,15843.670353321331 110761.23596299475,21326.74377418813 106466.32723728498,26346.82506749856 101345.8325360712,30791.760170617108 95433.98918528788,34548.422558504586 88778.02324336354,37504.035155027 81438.45996226165,39547.57576480196 73489.29051913897,40571.254113377145 65017.98334844713,40472.046894148625 56125.3295569039,39153.275587072785 46925.113264437845,36526.21026098089 37543.59927997198,32511.681122858554 28118.832286005658,27041.678258833137 18799.743661787375,20060.91884792738 9745.064209881446,11528.360145736653 1122.0433505584438,1418.6357553481153 -6895.022204893216,-10276.607849586893 -14126.444717715767,-23547.497887579648 -20388.978361856516,-38364.868288656435 -25497.81782797389,-54679.362285483076 -29268.748778561654,-72420.72713113404 -31520.433525788725,-91497.32261998222 -32076.81250620847,-111795.86388135169 -30769.59938329504,-133181.41737329247 -27440.84495758213,-155497.66712284292 -21945.542544145686,-178567.46604013827 -14154.245128426257,-202193.68458168308 -3955.662474615354,-226160.366162482 8740.79552319087,-250234.19553159908 24002.564547771108,-274166.28284999996 41871.59718255811,-297694.2624670184 62362.1972993904,-320544.7014111286 85459.05543879517,-342435.8084255001 111115.52315343096,-363080.4300274445 139252.16385790828,-382189.3155962844 169755.6168051905,-399474.6289438446 202477.80936946013,-414653.6792472297 237235.55084097272,-427452.8396800437 273810.538418813,-437611.6176243683 311949.8030174692,-444886.83604309923 351366.6188840359,-449056.8815041886 391741.8968629359,-449925.97054029687 432726.0764598195,-447328.38256541593 473941.5266689311,-441132.60452039837 514985.459869426,-431245.3298476147 555433.3570050715,-417615.2523651849 594842.8957848869,-400236.59418486315 632758.3668345893,-379152.3060529263 668715.5556526809,-354456.87844416255 702247.0609506231,-326298.70245373814 732888.0125610912,-294881.921052686 760182.1446656997,-260467.71363508826 783688.1727137115,-223374.960015624 802986.4151715294,-183980.2341530478 817685.59425912,-142717.08288650215 827429.7431973291,-100074.55087485677 831905.1413154636,-56594.91971088111 830847.1927590094,-12870.636816426613 824047.1596004684,30459.58182594513 811358.655998574,72715.48183580453 792703.806776552,113180.83030848818 768078.9714983545,151109.79167669278 737559.933907411,185734.09476274878 701306.4565426538,216270.95471648377 659566.1015399056,241931.70170652674 612677.2211317029,261931.0562123489 561071.0252319863,275496.9786868713 505272.63877702603,281881.009371521 445901.06821976317,280369.0023022624 383668.0047536549,270292.1462089447 319375.4014702805,251038.15424947106 253911.77270926966,222062.49450725902 188247.17629777666,182899.52408986425 123426.85313769084,133173.38167336548 60563.51359934677,72608.48661402072 828.2763172113187,1039.4874645863529 -54559.71786884396,-81579.50095040434 -104344.97606908457,-175166.53467512815 -147248.54812489828,-279504.51478690613 -181982.06731625609,-394235.05940331833 -207262.8387600181,-518853.73022763344 -221829.8576400496,-652706.7639798303 -224460.6199382996,-794989.4504168541 -213988.56926810442,-944746.2876605949 -189321.0050113013,-1100873.032205265 -149457.259502908,-1262120.7452753142 -93506.93577136635,-1427101.919188328 -20707.982612507512,-1594298.7471135973 69555.62916444056,-1762073.5772078866 177736.87634949456,-1928681.567690289 304109.5543581542,-2092285.5331572087 448753.3111425713,-2250972.944539864 611540.1085195454,-2402775.0158076743 792122.3754219245,-2545687.78009174 989923.1142635103,-2677695.026647126 1204128.2148197584,-2796792.9383234265 1433681.2196200115,-2901016.237332453 1677280.7707085554,-2988465.6154775927 1933380.9496875517,-3057336.1940521924 2200194.7011730857,-3105946.728753693 2475700.5041901683,-3132769.2466413113 2757652.426666244,-3136458.7758436883 3043593.665168643,-3115882.8048596634 3330873.635536149,-3070150.087352306 3616668.6402994613,-2998638.390769636 3898006.0960455835,-2901020.7733792826 4171792.258489269,-2777289.9648061083 4434843.335357852,-2627780.420314197 4683919.8277146425,-2453187.6192488996 4915763.889534524,-2254584.1835856317 5127139.443746624,-2033432.4037095704 5314874.741161314,-1791592.7756132637 5475906.9973342875,-1531328.1768296629 5607328.692156939,-1255303.337734859 5706435.068498179,-966579.3004071608 5770772.320282242,-668602.5989930084 5798185.917710812,-365188.94340123644 5786868.478674124,-60501.24194040575 5735406.561496253,240978.14204547 5642825.725763562,534480.9397583206 5508633.185815918,814992.3033949751 5332857.366228874,1077295.8062539385 5116083.660936099,1316023.9357662096 4859485.698137203,1525713.8182475904 4564851.422347617,1700867.8315600725 4234603.323344251,1836018.6780032706 3871812.1697296025,1925798.4055927244 3480203.6426702705,1965010.7824470284 3064157.3132544346,1948706.3473871679 2628697.464934137,1872259.3811860895 2179475.3306288063,1731445.9683706106 1722742.392095307,1522522.250275241 1265314.4768104125,1242301.9073964723 814526.4844171789,888231.8542144523 378177.68016728223,458465.08374004706 -35532.39398979333,-48070.43671889556 -418077.2198463566,-631607.9415736411 -760685.5179813037,-1291484.2499214103 -1054431.9496334482,-2026089.489492845 -1290335.7433290626,-2832825.2802887256 -1459466.547887617,-3708072.466353153 -1553056.6766836753,-4647169.4383004075 -1562618.7725264058,-5644402.027347835 -1480067.7899969325,-6693005.873397466 -1297846.064408247,-7785182.07503585 -1009050.1156351507,-8912126.81825957 -607557.7228593697,-10064075.553566637 -88153.70476710919,-11230362.148285422 553347.2490981909,-12399493.283373034 1319982.4243322508,-13559238.192372002 2213529.391197175,-14696733.655966446 3234402.6031837906,-15798603.970072236 4381560.129363159,-16851095.400305063 5652422.362874483,-17840224.42290752 7042804.522412298,-18751938.83391136 8546864.713786662,-19572290.58681422 10157069.243526062,-20287618.99689549 11864176.775314482,-20884742.730210524 13657242.79231294,-21351158.780158196 15523645.673922855,-21675246.427323643 17449135.514432322,-21846473.982163094 19417906.60372111,-21855605.92820841 21412694.257606946,-21694907.91903197 23414896.42869796,-21358346.938452873 25404720.24934746,-20841783.81355032 27361353.358455934,-20143155.17706829 29263159.545775693,-19262641.912714202 31087897.913793094,-18202821.08645053 32812964.411292117,-16968798.3717292 34415654.237825304,-15568318.01901929 35873443.25834361,-14011847.5019165 37164286.20631385,-12312634.095232585 38266929.09619326,-10486730.805961726 39161232.91682772,-8552989.286697377 39828505.34107749,-6533017.613218367 40251836.86881242,-4451101.103353808 40416437.525522195,-2334084.6920930436 40309969.97239698,-211215.7568735073 39922874.65105263,1886053.2949090663 39248682.3922759,3924302.9094425086 38284309.768249415,5868424.4863255685 37030332.36649675,7681937.922349116 35491231.11577702,9327347.284271067 33675606.80353173,10766532.73300645 31596357.99495048,11961176.244702857 29270817.69851339,12873218.089107856 26720844.324602026,13465340.439191353 23972862.754432444,13701473.905367075 21057851.677394994,13547322.220473478 18011273.766352445,12970899.75588649 14872945.742161775,11943076.032958629 11686845.929350568,10438120.91582428 8500857.522279626,8434243.739969049 5366446.462031972,5914119.254316391 2338273.564480253,2865392.941309501 -526258.6657429141,-718841.9623014953 -3167523.2585713384,-4839603.5837191325 -5524247.879723301,-9491624.586982062 -7534152.735537007,-14663007.298490927 -9134643.269236017,-20334938.56621847 -10263552.68560353,-26481471.91204681 -10859928.388253309,-33069384.206204146 -10864855.470658325,-40058113.650251545 -10222309.481219225,-47399785.29849431 -8880029.796865853,-55039329.67635711 -6790404.102350438,-62914699.26881892 -3911353.697176767,-70957186.7545968 -207208.65281673803,-79091847.85605177 4350438.766721202,-87238030.56603056 9781914.514197337,-95310011.30793542 16098689.481322056,-103217737.29280125 23302665.277428802,-110867672.96723925 31385531.92780561,-118163747.01066048 40328210.322426155,-125008394.85269006 50100392.0516028,-131303690.15711387 60660188.90071327,-136952557.17359748 71953903.73470776,-141860054.31057772 83915933.7795011,-145934717.7512615 96468816.39838235,-149089952.43970478 109523426.36612035,-151245456.32652628 122979332.36266991,-152328662.40570587 136725318.94577658,-152276181.81727442 150640078.62339163,-151035230.158015 164593076.84122872,-148565018.1559123 178445590.73930067,-144838087.0461021 192051920.4278045,-139841568.3579206 205260769.30398744,-133578347.40490462 217916787.5968853,-126068109.58147337 229862270.9081033,-117348248.62931862 240939003.03851983,-107474616.35903116 250990229.87980828,-96522093.91183656 259862748.63500535,-84584965.5335728 267409094.1451161,-71777077.01649421 273489801.671606,-58231762.44919754 277975723.1519245,-44101524.702695586 280750371.742197,-29557457.1694335 281712267.42405677,-14788396.656045053 280777254.61765754,199.99999965614728" stroke="white" stroke-width="1.5" /></svg>