<?xml version="1.0" encoding="utf-8" ?>
<svg baseProfile="full" height="400" version="1.1" width="400" xmlns="http://www.w3.org/2000/svg" xmlns:ev="http://www.w3.org/2001/xml-events" xmlns:xlink="http://www.w3.org/1999/xlink"><defs /><rect fill="black" height="100%" width="100%" x="0" y="0" /><circle cx="200" cy="200" fill="yellow" r="10.000000000011914" stroke="orange" stroke-width="2" /><polyline fill="none" points="201.17856627439014,200.0 201.2022273676473,200.06311144492875 201.21942879408087,200.12838267565184 201.2297516285753,200.19510411262533 201.23284196205503,200.26249921898818 201.22841990589635,200.32972963057185 201.2162882867206,200.39590139713943 201.19634090293502,200.4600723315868 201.16857021123053,200.5212604498353 201.13307430952196,200.57845346941687 201.0900630826339,200.63061931943903 201.03986337850782,200.67671759886292 200.98292308592045,200.71571190400562 200.91981398973817,200.74658293006487 200.85123328664866,200.76834223545728 200.77800365314522,200.78004654206518 200.70107176831263,200.7808124293183 200.62150520667217,200.7698312656199 200.54048763095525,200.74638420719026 200.45931223114215,200.70985708217904 200.37937337433638,200.65975496712298 200.30215644994496,200.59571625372908 200.2292259160591,200.51752599677067 200.16221157571647,200.42512832881258 200.10279313568319,200.31863772473568 200.0526831253007,200.19834889880104 200.013608278553,200.0647451194521 199.98728950855352,199.9185047323474 199.97542062983158,199.76050569037085 199.97964600980055,199.59182790067936 200.00153735627725,199.41375321327837 200.0425698725441,199.22776289319836 200.1040980348368,199.03553243906947 200.1873312689283,198.8389236347096 200.29330982228683,198.63997374716627 200.42288114572932,198.44088181434972 200.57667711320144,198.2439919977895 200.75509241992197,198.05177401091368 200.95826450727986,197.8668006703245 201.18605536723848,197.6917226565095 201.43803557926952,197.52924061092796 201.71347092873597,197.38207473804542 202.01131194692505,197.25293212321506 202.33018669939858,197.14447201983813 202.6683971308256,197.05926940146975 203.02391925088614,196.99977711591552 203.39440741714307,196.9682870183271 203.77720293698064,196.96689049824835 204.16934717188525,196.99743885089143 204.56759928364227,197.06150397501 204.9684587136578,197.1603399079751 205.36819243387723,197.29484573243582 205.7628669510256,197.4655304076674 206.14838498557597,197.6724800918037 206.52052668347181,197.91532852807757 206.87499515277256,198.1932310684528 207.20746604971,198.50484290117757 207.51364086985762,198.84830203442465 207.78930353100748,199.22121756599248 208.03037976575635,199.6206637387652 208.23299877461622,200.04318024311388 208.39355652560732,200.48477918058475 208.50878002473615,200.94095904809396 208.57579182448487,201.40672603856015 208.59217398544817,201.87662288269712 208.556030660545,202.3447653779154 208.46604843279775,202.80488666441454 208.32155350747598,203.25038921618474 208.1225648383703,203.6744044164855 207.86984225697353,204.069859484268 207.56492867320873,204.42955141090764 207.21018542778404,204.74622745657345 206.80881989990897,205.01267164376202 206.36490451049693,205.22179657322903 205.88338631050607,205.36673977613393 205.3700864069978,205.44096370711011 204.83168855593658,205.4383583777014 204.27571634066615,205.35334552973038 203.71049845816452,205.18098315528727 203.14512175120356,204.91706908577777 202.58937175283828,204.55824229846561 202.0536606494524,204.10208052680144 201.54894271892067,203.54719271210965 201.0866174601511,202.89330480041292 200.6784207979818,202.14133737073425 200.33630492157792,201.2934735814355 200.07230749337052,200.35321594021457 199.89841114729185,199.32543044231215 199.82639437751843,198.21637668112004 199.8676750999148,197.03372261638415 200.03314834552756,195.78654278797495 200.3330197163498,194.48529888794084 200.77663639561516,193.14180175018217 201.37231765547972,191.7691539852264 202.1271869414722,190.3816726766002 203.04700773289238,188.99479176422656 204.13602547881075,187.6249439678594 205.39681798791787,186.2894223482224 206.83015670475282,185.0062218633456 208.4348813324997,183.7938615503693 210.2077902614525,182.67118824629353 212.14354923050178,181.6571630519591 214.23462058493251,180.77063203885118 216.47121539607144,180.03008299474064 218.8412705758502,179.4533902981142 221.33045295147255,179.05755029896366 223.9221920618148,178.85840986081013 226.59774319808474,178.87039098168708 229.33628193721484,179.10621465596142 232.1150311085367,179.57662736004178 234.90942079403635,180.29013373891962 237.69328159199785,181.25273923287145 240.43907097568183,182.4677065103886 243.11813215596342,183.93532966053084 245.7009844131797,185.65273014168525 248.15764340292998,187.6136784807036 250.45796946783238,189.8084456634937 252.57204150733017,192.22368805266908 254.47055347605374,194.84236950761 256.1252301038531,197.64372416557651 257.50925796364544,200.60326306826272 258.5977275631817,203.69282748594148 259.36808171045084,206.88069140137495 259.8005650066094,210.13171516894036 259.8786689620107,213.4075518626993 259.589566917084,216.66690727298206 258.9245326873724,219.86585390784415 257.8793366476665,222.9581987077055 256.454612830328,225.89590349365326 254.65619054361673,228.62955644818013 252.49538402272822,231.10889217824118 249.98923371431954,233.28335714194435 247.16069296889333,235.10271644018553 244.03875417809812,236.5176971920351 240.65850874847743,237.48066293724577 237.06113575120926,237.94631275100352 233.29381462960458,237.87239802556408 229.4095579821496,237.22044918166193 225.46696116704848,235.95650393073427 221.52986629166682,234.0518281284091 217.66693905280073,231.48361975168055 213.95115787577552,228.23568610791952 210.45921585511795,224.29908405423066 207.27083711870014,219.67271278110653 204.46801041120807,214.36384860467766 202.13414391061116,208.38861122617263 200.35314654079227,201.7723510636101 199.2084423112156,194.54994754627316 198.78192548591352,186.7660086929242 199.15286564359545,178.47496287436218 200.3967729218586,169.74103439258295 202.58423492409486,160.63809539356004 205.77973788994572,151.24938766775463 210.04048577084828,141.6671090792143 215.41523179293543,131.99186069575526 221.94313791190612,122.33195216241182 229.65267825030162,112.80256445902668 238.5606031392498,103.52477089929592 248.67098074721798,94.62441904931745 259.9743334517078,86.23087815304496 272.44688608144713,78.47565863220649 286.0499429133182,71.49091225932295 300.72940983864805,65.40782366258603 316.4154774082617,60.35490588685312 333.0224795178475,56.45621478055904 350.44894130026705,53.82949897712575 368.57782834775514,52.584304163497364 387.27700769583066,52.82005214878572 406.3999290665954,54.62411693308417 425.786532699785,58.06992150040108 445.26438770663106,63.21508039046327 464.6500622791154,70.09961421237992 483.7507242938793,78.7442631201356 502.3659678878922,89.14892684810138 520.2898584775126,101.29125917836348 537.3131854728199,115.12544465685801 553.2259086374867,130.58118497075003 567.8197806965645,147.56292162682098 580.8911254389262,165.94932041477827 592.2437472390121,185.5930415891083 601.6919446774593,206.32081775118388 609.06359781779,227.93385905725984 614.2032957435727,250.2086026199176 616.975468225474,272.8978198178838 617.2674829190348,295.73209169472403 614.9926673403286,318.42165872910095 610.0932130758224,340.65864702224405 602.5429183013314,362.11966840198056 592.3497237575506,382.4687871229926 579.5579968981847,401.3608407915124 564.2505190298209,418.4450979067844 546.5501309348558,433.3692290441026 526.6209937398187,445.7835632629741 504.66942368557426,455.34559587181514 480.9442619913404,461.72470828454107 455.73674419263887,464.6070554354402 429.3798371782516,463.7005711508297 402.2470166491432,458.7400370857101 374.75046286093215,449.49215639914996 347.3386582698164,435.7605693424426 320.49337704976426,417.39074444803583 294.72606334680665,394.2746761126509 270.57360253542345,366.3553171404702 248.59349758384616,333.6306733241797 229.35847085167433,296.15748646103214 213.45052015746836,254.05443239053935 201.45446667986218,207.50476175573343 193.95104109897042,156.75831327939386 191.50956324322007,102.13283244940217 194.68027927106994,44.01453265274694 203.98642897206264,-17.14215899608081 219.91612399683956,-80.81572261321247 242.91412559673591,-146.41957743703824 273.3736176432724,-213.30506042607226 311.6280771779062,-280.7653779556367 357.94335038464817,-348.0405466692624 412.5100465563491,-414.3233283120941 475.43636621673113,-478.7661513327648 546.741481947296,-540.4889992829138 626.3495915405733,-598.5882326801445 714.0847627574942,-652.1462971566201 809.6666871163972,-700.2422565316596 912.7074567064369,-741.9630750763051 1022.7094729355445,-776.4155588471289 1139.0645893455185,-802.7388517332661 1261.0545821250626,-820.1173679723602 1387.8530317159336,-827.7940295436636 1518.5286869490292,-825.0836642422857 1652.0503694997706,-811.3864085840382 1787.2934611717624,-786.2009491940876 1923.0479996858735,-749.1374272029492 2058.0283903732907,-699.9298226151567 2190.884721576902,-638.4476298287211 2320.2156508108446,-564.7066316576902 2444.5828069938257,-478.87857752476805 2562.5266315626895,-381.29957211039607 2672.5835582167992,-272.47698381557234 2773.3044076911788,-153.09468804394623 2863.27385057801,-24.016468636822594 2941.130768100775,113.71258812153874 3005.589318198484,258.86685862496114 3055.460492617582,410.04324118582184 3089.673930265091,565.6666248866629 3107.2997331841875,723.9978612899945 3107.5700145116884,883.1443073588447 3089.899893003835,1041.072980528285 3053.9076365057067,1195.6263371104517 2999.4336474137463,1344.5406533256094 2926.557977049681,1485.4669544833964 2835.6160532178997,1615.9944024859522 2727.2123063233307,1733.6760152217569 2602.2313845205153,1836.0565539372556 2461.846657651022,1920.7023767204719 2307.5257233704015,1985.2330182466656 2141.0326469902284,2027.3542183921634 1964.426689239575,2044.8920857142718 1780.0573034067081,2035.8280466414087 1590.5552151235215,1998.3341980529187 1398.81943431062,1930.8086502979083 1208.0000893578522,1831.9104201580678 1021.4770182567557,1700.5934093500043 842.8340998460498,1536.1389844288399 675.829360231239,1338.186658922092 524.3609443802959,1106.762368693008 392.42910039944303,842.3038273761485 284.09438351246547,545.682450676778 203.43234769880326,218.22134676475983 154.48505462584995,-138.29111474828278 141.20979122300218,-521.59262041463 167.42544822300096,-928.9435526770842 236.75707143251552,-1357.1293502241986 352.5791545460496,-1802.468943013925 517.9582961157348,-2260.8295641552427 735.5958929472596,-2727.648181755215 1007.7715868140384,-3197.9597277758858 1336.2882200754277,-3666.4322282553735 1722.4190876718267,-4127.408860390964 2166.8582971979395,-4574.956877527886 2669.675064509732,-5002.9232537190765 3230.2727788390885,-5404.9968060043875 3847.35366797138,-5774.77645578485 4518.88988006329,-6105.845191627026 5242.101773607834,-6391.849195603754 6013.44417045926,-6626.5814950275435 6828.60127839605,-6804.069402407607 7682.49092923574,-6918.664909975595 8569.278705966159,-6965.137112547511 9482.402447818064,-6938.7656452346255 10414.60752592275,-6835.434042026764 11357.99317458598,-6651.721848999644 12304.070044846087,-6384.994263296246 13243.829018623897,-6033.488017524463 14167.821184339184,-5596.392190184702 15066.248729468745,-5073.9225975130485 15929.066353426675,-4467.38841193531 16746.09264680398,-3779.249658309497 17507.13072201838,-3013.164262297933 18202.097217552975,-2174.023366416908 18821.158635105898,-1267.9736892583485 19354.873808160177,-302.42578257352636 19794.34114384798,713.9528603428366 20131.34912975859,1771.2607731479316 20358.528455821233,2858.402352145715 20469.503970924845,3963.1451925778947 20459.04457688411,5072.195383591879 20323.20906107509,6171.29102721032 20059.485785862766,7245.314037658595 19666.924090075387,8278.420053740783 19146.255217384925,9254.186060389527 18500.0005705444,10155.775068127909 17732.56510084212,10966.116943327997 16850.313680500123,11668.104220444044 15861.62837345864,12244.801462703126 14776.94461817759,12679.666473145127 13608.76446556922,12956.781396716535 12371.645176435648,13061.091499813834 11082.161675946822,12978.649169868495 9758.841587491062,12696.86044800315 8422.071823982922,12204.731196275525 7093.976000315413,11493.109811404578 5798.262244541749,10554.923232967953 4560.041325554575,9385.402859629707 3405.615379028739,7982.296885651996 2362.237898273244,6346.065505241259 1457.8460590094014,4480.055407434454 720.7668631224155,2390.65000222332 179.39901186182664,87.39188209006417 -138.12715087064993,-2416.9258656587294 -204.3088546426959,-5106.202719606302 7.353916679221641,-7961.011170196225 521.9708869702367,-10958.617299883923 1362.8655959937253,-14073.043931278853 2551.175529258908,-17275.178410597848 4105.45298807657,-20532.92667698643 6041.27172546124,-23811.41480307197 8370.844638750292,-27073.238681005703 11102.658026988669,-30278.76197453407 14241.128084341512,-33386.46186533646 17786.28540440172,-36353.32149576479 21733.49330897567,-39135.26735574724 26073.20578392922,-41687.64918521628 30790.770699674464,-43965.75927193214 35866.28381122909,-45925.387325592375 41274.4987695515,-47523.406410831696 46984.798029928,-48718.384732864215 52961.22911332999,-49471.21739930474 59162.6101625896,-49745.77163970491 65542.70813772347,-49509.53836043872 72050.49231561043,-48734.28235683337 78630.46500147799,-47396.68300699845 85223.07052744075,-45478.95684275997 91765.18271203115,-42969.453042372326 98190.66999084258,-39863.212626864115 104431.03640988242,-36162.481976137155 110416.13560901616,-31877.17122084486 116074.9538231358,-27025.248119446944 121336.45680474177,-21633.05820360406 126130.49443579777,-15735.562275160552 130388.75566240835,-9376.482769059254 134045.76526721934,-2608.351062084483 137039.91290646704,4507.551490713315 139314.50379688363,11901.365171282614 140818.81945824315,19494.94157057922 141509.17601658145,27202.25561555039 141349.96676752213,34929.94301490013 140314.6750050631,42577.96483221615 138386.84255474934,50040.39942778468 135560.9790269767,57206.3604418891 131843.39654107293,63961.037835305724 127252.95457770118,70186.8572717628 121821.69970869763,75764.75133890564 115595.38524090454,80575.53427721342 108633.85630345793,84501.37004047327 101011.28661396087,87427.3216685461 92816.25408349154,89242.9681363686 84151.64356661843,89844.07307678484 75134.36643110793,89134.28808424257 65894.88821066548,87026.87171771954 56576.557407846216,83446.4038610598 47334.730525180064,78330.47379397684 38335.69060939902,71631.31920392245 29755.358982175403,63317.39245402664 21777.802383337654,53374.829740646404 14593.54044845016,41808.79834987943 8397.661257929243,28644.697078185018 3387.7556025203944,13929.185038575913 -238.31642000839395,-2268.985451120335 -2284.809862466861,-19858.355392253558 -2560.6108317318167,-38724.38738027627 -881.861279157921,-58729.35645835027 2925.332748663812,-79712.52250616497 9022.13756879464,-101490.60088813743 17554.20377727015,-123858.54549525287 28648.886734590622,-146590.65537560673 42412.51084872136,-169442.0128733979 58927.714699952274,-192150.2576029439 78250.91552990674,-214437.69669663452 100409.9327147681,-236013.74761226136 125401.81052130103,-256577.70539974124 153190.88066695543,-275821.82174887846 183707.10493895804,-293434.67841253936 216844.73734239716,-309104.8327723002 252461.3439189029,-322524.7084395752 290377.21648576064,-333394.6989219871 330375.2140759755,-341427.44759352796 372201.062805007,-346352.2625522814 415564.1412482504,-347919.6204981741 460138.7741911587,-345905.7095844793 505566.0528244864,-340116.95736072765 551456.1941223084,-330394.4865020513 597391.4462900291,-316618.4380810633 642929.5408417115,-298712.09975204925 687607.6851075679,-276645.7744502925 730947.0818385924,-250440.32412520397 772457.9551296227,-220170.32268378916 811645.054196404,-185966.75277482515 848013.5986960654,-148019.1823416312 881075.6213605579,-106577.35905280431 910356.6558127392,-61952.163817876215 935402.7096545635,-14515.868631339914 955787.4553609213,35298.35102346337 971119.5642902281,86997.69303779588 981050.1023460712,140031.83175102386 985279.8996071232,193795.87637168024 983566.8007000859,247634.20519311877 975732.6979367706,300845.186523855 961670.2453834238,352686.78695178666 941349.149186398,402383.0565629164 914821.9277463342,449131.46912907786 882229.0348088566,492111.08316922805 843803.2393112846,530491.4772918173 799873.1579687216,563442.4004714773 750865.8401647975,590144.0650428667 697308.3097837215,609797.9973605095 639827.975218041,621638.3484378927 579151.8269307178,624943.5546124765 516104.3516430049,619048.226562839 451604.1034443865,603355.1340123902 386658.88484049944,577347.14337649 322359.50491127896,540598.9566329106 259872.0972647993,492788.49200485536 200428.99724028615,433707.7408230287 145318.19571195077,363272.93035415723 95871.40572676259,281533.8196150546 53450.79790498689,188681.95438949158 19434.480851761644,85057.70897138883 -4799.176439768947,-28844.054302779154 -17888.262298492788,-152369.8707915008 -18504.94145395135,-284705.25931473216 -5373.8162188025035,-424874.15192728443 22709.149403283514,-571740.2983827171 66857.34088155515,-724010.7601610179 128074.05561871755,-880241.5906351298 207233.14906745416,-1038845.7772262507 305060.0114009582,-1198103.498341339 422113.1340767109,-1356174.7226283618 558766.5356817978,-1511114.1507934448 715193.323819256,-1660888.471101453 891350.6742175672,-1803395.8689679345 1086966.5094668106,-1936487.6990210854 1301528.1575757284,-2057992.1949779834 1534273.2647016086,-2165740.0589831267 1784183.2267589155,-2257591.7380744168 2049979.3910283567,-2331466.1615757532 2330122.261270593,-2385370.679895179 2622813.9181472757,-2417431.9128843886 2926003.84096314,-2425927.185058348 3237398.2869132324,-2409316.196064429 3554473.350249715,-2366272.5483193495 3874491.7862295294,-2295714.730191875 4194523.6435807645,-2196836.132988551 4511470.704804747,-2069133.6637783332 4822094.686244705,-1912434.504232861 5123049.099890378,-1726920.5586016283 5410914.626801227,-1513150.1320952033 5682237.798324169,-1272076.3846869012 5933572.726514475,-1005062.1149910524 6161525.569951199,-713890.444710672 6362801.366128697,-400770.9963854011 6534252.807499792,-68341.18596583391 6672930.485780404,280337.71282846614 6776134.079059789,641790.0333369357 6841463.909380876,1012140.9623068153 6866872.255556339,1387137.7650659606 6850713.76786951,1762177.1256505235 6791794.298769391,2132338.671055296 6689417.437483537,2492424.6764656925 6543428.017393487,2837005.87121736 6354251.853758363,3160473.183949912 6122930.966595946,3457095.180707106 5851153.549840771,3721080.86241086 5541277.963825689,3946647.399112603 5196350.054121903,4128092.2886956325 4820113.136174403,4259869.338335933 4417010.0322295735,4336667.779162381 3992176.6048969827,4353493.739383379 3551426.3003220246,4305753.219906232 3101225.2932384964,4189335.640442129 2648657.915847464,4000696.9545572 2201382.1521117045,3736941.2704005046 1767575.0880905923,3395899.8612019657 1355868.326642626,2976206.4073529346 975273.5003057542,2477367.2811760656 635098.148393123,1899825.6675203817 344852.3621161333,1245018.3091543175 114146.74352964321,515423.67655429634 -47417.6312015409,-285399.61204546987 -130366.40790631415,-1152785.2518420992 -125475.32839838376,-2080943.6658271544 -23898.658181639414,-3062959.367369711 182698.59456897347,-4090802.171648185 502006.0630140491,-5155353.044615778 940932.5262184687,-6246445.24893162 1505471.164552054,-7352921.300177499 2200567.2961574597,-8462706.08439654 3029990.4098607046,-9562896.310471574 3996212.3781620413,-10639866.279294055 5100293.783350552,-11679389.747504177 6341780.318456567,-12666777.448501358 7718611.230947356,-13587029.60937997 9227041.759200534,-14425002.571622899 10861581.468467489,-15165588.388203872 12614950.323099436,-15793906.032840477 14478054.234341249,-16295502.621339155 16439981.697368342,-16656562.813282516 18488022.97713035,-16864124.337892096 20607713.11997834,-16906297.374031164 22782899.857359245,-16772485.314360172 24995837.229791917,-16453604.261043759 27227305.495034937,-15942298.438562013 29456757.595335558,-15233148.57150834 31662492.14686086,-14322870.165091174 33821852.5822042,-13210498.54660931 35911451.72700645,-11897557.480490519 37907420.72739012,-10388208.160393417 39785680.86965093,-8689375.411944153 41522236.45141462,-6810848.011156434 43093486.47853861,-4765350.138351929 44476552.57902279,-2568581.1469285064 45649620.148994304,-239221.03163191225 46592289.381569386,2201100.767419239 47285932.482416846,4727875.290851223 47714053.05161897,7313824.43868715 47862643.3155069,9929053.135984551 47720534.63011182,12541244.189383771 47279736.455263466,15115896.267885625 46535758.82057174,17616604.933656346 45487913.176782966,20005386.108068258 44139586.45323304,22243040.789033826 42498483.12892555,24289559.243148252 40576830.175286226,26104562.2860209 38391539.84654224,27647776.64287479 35964325.48197219,28879540.755981464 33321765.745356902,29761336.783306524 30495313.062460534,30256343.921808172 27521242.428082485,30330007.59751874 24440537.240089994,29950618.501522306 21298709.377845503,29089894.9251119 18145551.374587845,27723561.367804725 15034819.234575799,25831915.967570614 12023845.212068196,23400378.942577448 9173080.69530927,20420013.94674819 6545570.218352135,16888014.035933305 4206358.549425245,12808143.825536594 2221833.768207248,8191129.401434881 659010.2363661045,3054987.6307302224 -415243.6244016617,-2574713.2868362004 -935026.8161936528,-8664669.87718157 -836269.569227949,-15173743.483122356 -57631.53323191947,-22052951.263700303 1458574.5374048387,-29245554.306410722 3765443.4115443295,-36687248.26474312 6910532.981853017,-44306461.020640366 10934926.274837593,-52024760.84156782 15872311.99428321,-59757377.359828845 21748096.30431605,-67413836.4542786 28578559.021557763,-74898708.77009396 36370067.71632614,-82112470.18104099 45118363.40752869,-88952470.9926799 54807931.56275494,-95314009.11792943 65411471.973185666,-101091500.8437655 76889480.7527651,-106179741.1665601 89189957.20468187,-110475244.0221954 102248247.59938201,-113877651.09544641 115987037.01292402,-116291196.28232753 130316499.280436,-117626211.32121913 145134613.82707155,-117800656.62657304 160327656.65095854,-116741659.97633974 175770871.05464885,-114387044.44485496 191329321.86159462,-110686825.8606404 206858934.82320613,-105604659.12715712 222207720.7338624,-99119211.99711782 237217181.4425703,-91225444.35982981 251723892.5003219,-81935770.8072751 265561254.6340342,-71281084.20782955 278561403.616264,-59311618.25429399 290557265.4324717,-46097627.480740406 301384740.96451455,-31729864.073393747 310885001.7426498,-16319831.944339681 318906875.7028618,199.99999960945195" stroke="white" stroke-width="1.5" /></svg>