<?xml version="1.0" encoding="utf-8" ?>
<svg baseProfile="full" height="400" version="1.1" width="400" xmlns="http://www.w3.org/2000/svg" xmlns:ev="http://www.w3.org/2001/xml-events" xmlns:xlink="http://www.w3.org/1999/xlink"><defs /><rect fill="black" height="100%" width="100%" x="0" y="0" /><circle cx="200" cy="200" fill="yellow" r="10.000000000054289" stroke="orange" stroke-width="2" /><polyline fill="none" points="201.48474367031986,200.0 201.50275222376018,200.07888762705258 201.51197947861073,200.15918270253823 201.512009373687,200.239885225829 201.50252185082687,200.31992000961523 201.4833035777751,200.39814491639063 201.45425807179387,200.47336047605688 201.4154150582602,200.54432085739043 201.36693889693697,200.60974614744322 201.30913590900946,200.66833587359704 201.24246044048667,200.7187836831575 201.16751950228826,200.75979307526714 201.0850758343624,200.79009405977556 200.99604925057443,200.808460597772 200.90151613291243,200.8137286590258 200.80270695778887,200.80481471286612 200.701001753862,200.78073445134834 200.5979234098123,200.740621527186 200.4951287718092,200.68374607417147 200.39439749387887,200.6095327649503 200.297618629893,200.51757815034787 200.2067749832527,200.40766701624486 200.1239252593324,200.27978748853388 200.05118409611865,200.1341446142089 199.9907000799463,199.97117214737696 199.94463188547877,199.79154227314163 199.91512271175495,199.59617301006904 199.9042732188503,199.38623304345336 199.91411320207425,199.16314375695757 199.94657227222103,198.9285782494848 200.00344984076384,198.6844571473565 200.08638473756963,198.4329410490142 200.19682481524882,198.17641947044197 200.33599691816144,197.91749619420446 200.50487761490993,197.65897096322226 200.70416511038854,197.40381750192765 200.93425276668077,197.1551578919595 201.19520467086085,196.9162333767182 201.4867336916611,196.69037171849334 201.80818246563487,196.48095128304197 202.15850774654444,196.29136207890733 202.53626853894536,196.12496403186492 202.93961841809033,195.98504282804706 203.36630241316354,195.87476371187086 203.81365879937448,195.79712367618802 204.27862610654944,195.75490253135922 204.75775560760863,195.75061338648786 205.2472294998238,195.78645311906135 205.74288493523096,195.86425344797362 206.2402439943234,195.9854332585706 206.73454962956032,196.15095285621393 207.22080753278274,196.361270846161 207.69383380390423,196.6163043516065 208.1483082179084,196.91539328786442 208.57883280399665,197.25726940828008 208.97999536552862,197.64003082600988 209.346437483115,198.06112269482813 209.67292645685342,198.51732470123648 209.95443055831385,199.004745979085 210.18619687961117,199.51882800649224 210.363830986921,200.0543559830212 210.48337751032219,200.60547911290166 210.54140073212193,201.16574013779163 210.53506417309129,201.7281143704861 210.46220812155974,202.2850583796034 210.32142400531671,202.8285683652412 210.1121244719396,203.35024814769102 209.83460802065682,203.8413865664661 209.4901170192283,204.29304395622566 209.08088794357047,204.69614723090118 208.6101926968434,205.04159296882202 208.0823698992058,205.32035775140713 207.50284509003714,205.52361486766176 206.87813885157786,205.64285635803805 206.2158619469167,205.67001923601475 205.5246966661476,205.59761459594586 204.81436369219838,205.41885819329124 204.0955739319667,205.12780097029503 203.3799649084126,204.71945789855152 202.6800214743544,204.18993342172706 202.00898078784783,203.53654170898213 201.38072168091264,202.75791987430568 200.8096387564692,201.8541322808828 200.3105017608896,200.82676403450543 199.89830099953656,199.6790017775008 199.58807978782517,198.4156999261042 199.39475515823943,197.0434305508692 199.33292827172,195.57051518255977 199.41668620707802,194.00703693573934 199.65939702159898,192.3648314793914 200.073500186664,190.65745554850486 200.67029470082278,188.9001318824256 201.45972736602235,187.10966969435378 202.45018387732387,185.30436002072426 203.64828551912802,183.50384556803095 205.05869437843492,181.72896496624054 206.683930074837,180.00157165018217 208.52420106478013,178.34432792069703 210.57725360130323,176.78047508299315 212.83824141741016,175.3335809172939 215.2996191491269,174.02726610285012 217.95106242120008,172.88491158671155 220.77941738270079,171.92934925900312 223.76868230035413,171.18253866222526 226.90002359351507,170.665232818433 230.15182842617182,170.39663659998422 233.49979565851964,170.39406139165885 236.91706660444734,170.67258008900697 240.3743966432315,171.24468674441573 243.84036829600177,172.1199654032329 247.28164590289643,173.30477286208514 250.6632715287231,174.80194022516602 253.94900118743598,176.610498226868 257.10167991356974,178.72543132612213 260.08365362726823,181.13746555500177 262.85721514465223,183.83289501782642 265.3850810834895,186.79345178398276 267.63089581249164,189.99622369540202 269.5597579985508,193.41362431622224 271.1387647277615,197.0134188865044 272.33756762136375,200.75880970367433 273.12893484531537,204.60858384522209 273.48931243068546,208.51732556562902 273.39937789020917,212.4356950520254 272.84457874284874,216.31077451021602 271.8156482516185,220.0864817800121 270.30909044855537,223.70405085187426 268.32762637246276,227.10257778236135 265.88059338733507,230.21962959148198 262.984289488975,232.99191277947057 259.6622546502556,235.35599713342395 255.94548150691392,237.24908951623456 251.8725480498212,238.60985135277377 247.48966546937726,239.3792525635124 242.8506348947934,239.50145375656155 238.01670748601174,238.9247075888803 233.05634316783738,237.60226935993012 228.04486424203193,235.49330612043633 223.06400116950834,232.56379287933706 218.20132897562345,228.7873838875838 213.54959398944249,224.14624648210562 209.20593197359693,218.6318446004177 205.27098012411997,212.24565883889832 201.84788690688254,204.9998298376909 199.04122523478208,196.91771184350213 196.9558160619012,188.0343235380236 195.69547106020678,178.39668363261447 195.3616646323962,168.0640193259463 196.0521470813624,157.10783650535004 197.85951228154573,145.61184154748446 200.86973465837403,133.6717057403012 205.16069165661662,121.39466470443156 210.800689143913,108.89894673390864 217.8470083289239,96.31302569681175 226.3444937515456,83.77469602656254 236.3242027028623,71.4299693820277 247.80213703312478,59.43179474439967 260.77807868620755,47.93860603326209 275.2345504392034,37.11270374292499 291.1359232082607,27.118479599874547 308.42769089065234,18.120495797380926 327.03593303492715,10.281432945872183 346.86698465505424,3.7599234572996068 367.80733122292526,-1.2917103738853655 389.72374528189823,-4.729791855359366 412.4636792212922,-6.421674838893637 435.85592654069836,-6.248151782073251 459.71156142054406,-4.1058565412143935 483.82516361256023,0.09036832820450513 507.9763325861438,6.40517156933339 531.9314915338996,14.880493617987497 555.445978276301,25.533501458037676 578.2664163402981,38.35469261130689 600.1333555531571,53.306203152521476 620.7841674285071,70.3203544377451 639.9561764682579,89.29847258751411 657.3900043075175,110.11001365180796 672.8330994391303,132.59202578564748 686.0434211225352,156.54897766894243 696.7932420636814,181.75297980502353 704.8730306062456,207.94442222761614 710.0953695588623,234.83304854069428 712.2988654588154,262.09948212092524 711.3519991005903,289.3972157464976 707.1568655984113,316.35507090423494 699.6527501648507,342.5801276015188 688.8194842304017,367.6611197104766 674.6805255564277,391.17228474624335 657.305705657403,412.6776505832183 636.8135881945851,431.735735004454 613.3733830737115,447.9046272277318 587.2063628090953,460.74741373194223 558.5867303337833,469.837903899292 527.8418908603692,474.7666042782069 495.3520846411298,475.1468837484691 461.5493425414732,470.62126562791605 426.91573221919714,460.86777689536393 391.9808693751295,445.6062793155585 357.31867597855904,424.60470243781344 323.5433755321559,397.6850942989422 291.3047242727538,364.7294022897122 261.28248664147463,325.6848941358619 234.18017332235388,280.56912738870574 210.71807055432126,229.47437529967254 191.62560016710327,172.57141754352944 177.63306076651116,110.1126060237445 169.46281157736885,42.43411899714016 167.81997151250692,-30.04267896075646 173.38271693460894,-106.81084803112907 186.7922721678811,-187.27852522114495 208.64269694613256,-270.7706791176132 239.47058449604984,-356.5320194322443 279.74479268954775,-443.73110257240216 329.8563384963711,-531.4656623568048 390.10859266781154,-618.7691817076675 460.70791702761477,-704.6187067759341 541.7548907852238,-787.9438896007449 633.2362747748266,-867.6372291931234 735.0178633267111,-942.5654640118798 846.8383724720895,-1011.5820513294173 968.3045102603419,-1073.540651147293 1098.887370036543,-1127.3095143133694 1237.920280513937,-1171.7866565266982 1384.5982373285299,-1205.9156822193042 1537.9790294520615,-1228.7021051139936 1696.9861603611516,-1239.2299958219057 1860.4136482367796,-1236.6787714178156 2026.9327717503072,-1220.33992777475 2195.100808260201,-1189.6335028133578 2363.3717896075646,-1144.1240479852402 2530.109277301121,-1083.5358765179506 2693.6011338954295,-1007.7673504486222 2852.0762409952104,-916.9039644978791 3003.72308679846,-811.2299836040742 3146.7101176872598,-691.2383926492722 3279.2077193819428,-557.6389217385445 3399.4116639128174,-411.36391849182814 3505.5678294799204,-253.5718502909391 3595.9979715337727,-85.64823437728757 3669.126295506127,90.79618783523405 3723.506554952093,273.9301938772975 3757.849373848701,461.70987694145293 3771.049468851396,651.8896034953011 3762.2124268637017,842.0362069420537 3730.680675747825,1029.5464572481096 3676.0582718088317,1211.6678083687423 3598.2341172222486,1385.5223846404222 3497.4032142244114,1548.1341244051234 3374.0855610011486,1696.4589543718048 3229.142297116191,1827.4178220356102 3063.788714300643,1937.9323663453708 2879.60376171922,2024.9629592574388 2678.5356936291228,2085.5488034026444 2462.9035317872444,2116.8497244214077 2235.394045115607,2116.1892512212944 1999.0539850103446,2081.098534135607 1757.277356213592,2009.3606103857958 1513.7875502225231,1899.0544890599401 1272.614220569721,1748.598494703412 1038.0648366783053,1556.7922802612618 814.6909149955611,1322.8568971863347 607.2489922789516,1046.4722936813423 420.6564757047331,727.8116018940977 259.94257726641786,367.5715720075533 130.19461502345456,-33.001483917088564 36.50004036929562,-472.0908623144644 -16.11537223862848,-947.2943548604394 -22.752659624007748,-1455.6154229759431 21.292460944506246,-1993.461191540418 120.45965056765002,-2556.6477440447666 278.85266852744337,-3140.413142897089 500.16755192437057,-3739.4385308883197 787.6211142477447,-4347.877593155637 1143.88067561891,-4959.39457370278 1570.9959833179403,-5567.210947132931 2070.3343182243602,-6164.160745338602 2642.519809917639,-6742.7544312269365 3287.3779993940407,-7295.251098026233 4003.8866927289705,-7813.738654336292 4790.134140703903,-8290.221533004518 5643.28555767553,-8716.71533739751 6559.558957164558,-9085.3477130834 7534.211231286269,-9388.46460783532 8561.535335885592,-9618.74095979598 9634.869362890062,-9769.294734276353 10746.618185944435,-9833.803115730814 11888.288255015386,-9806.61955473688 13050.53599072862,-9682.890272122215 14223.230090303192,-9458.66873554504 15395.527904871034,-9131.0265496512 16555.965883721758,-8698.159141175594 17692.563905825416,-8159.484576734139 18792.94313430083,-7515.733825189878 19844.45683698126,-6769.030769884575 20834.3334177487,-5922.960290076494 21749.83070093483,-4982.622766825024 22578.400307079177,-3954.673427330431 23307.860755117785,-2847.3450241712903 23926.577726233154,-1670.452452544469 24423.64973084118,-435.378039797896 24789.09723533735,844.9636027347414 25014.053132173405,2156.1820956304164 25090.952278527842,3482.4899014529515 25013.717688225282,4806.803529201977 24777.940841589523,6110.867585691664 24381.053481452615,7375.4016590521205 23822.488193365905,8580.269734457026 23103.825026803548,9704.671541727026 22228.921404257515,10727.354921347604 21204.02258883244,11626.847972719634 20037.85004019835,12381.709419503082 18741.665085208817,12970.795295392669 17329.305464420675,13373.539723531332 15817.192490065043,13570.247238223004 14224.306765186255,13542.393783063524 12572.130667687856,13272.933219647375 10884.556096416007,12746.605900339224 9187.756308156293,11950.245602006029 7510.021042960609,10873.080889890563 5881.554538438961,9507.026786739565 4334.236468851773,7846.962466546766 2901.3463087498926,5890.99057933478 1617.2521096846074,3640.6737475548402 517.0651877336194,1101.2437599020304 -363.7372557048003,-1718.2209717712014 -989.7190226974699,-4804.654029042341 -1325.918221279363,-8140.899855397998 -1338.3033495232776,-11705.656834215375 -994.2480019921586,-15473.468249057712 -263.01952878859885,-19414.764449535967 883.7235093022117,-23495.9591316785 2471.4307012594845,-27679.602163504966 4522.161989417014,-31924.590845998693 7054.0991124968805,-36186.440899441564 10081.072998278478,-40417.61780862268 13612.114067542034,-44567.92845211839 17651.032592626096,-48584.97218603441 22196.03635895711,-52414.64975755994 27239.392899804774,-56001.72759561149 32767.14350745235,-59290.45417283313 38758.87606281968,-62225.22426420179 45187.563466044165,-64751.28605220855 52019.474089253345,-66815.48515751971 59214.16020742825,-68367.03881827509 66724.5297926811,-69358.33261243363 74497.00638151001,-69745.73132795232 82471.78094499776,-69490.39484751016 90583.15881124641,-68559.08924061638 98760.00371176928,-66924.9826589485 106926.27995476453,-64568.4151232225 115001.69257535737,-61477.63088411477 122902.42408474832,-57649.4617476016 130541.96514695292,-53089.94958778918 137832.03516521477,-47814.896238330926 144683.58737339577,-41850.329066329396 151007.89161523554,-35232.87079848382 156717.6865722248,-28010.002595115337 161728.39178592945,-20240.20995902242 165959.3684311084,-11993.001826570258 169335.21645078895,-3348.794119912241 171787.09438335983,5601.349858380954 173254.04701493558,14756.128536005557 173684.3248982449,24004.565599535705 173036.67881273403,33226.73126122111 171281.61141987974,42294.622843913094 168402.56771282895,51073.20438751434 164397.04538970592,59421.60298179394 159277.60601349312,67194.4574265433 153072.76777520793,74243.41262998147 145827.76086652058,80418.75090152657 137605.12690640896,85571.14899925247 128485.14456512718,89553.54748134845 118566.06449644093,92223.11661243375 107964.13793173143,93443.30081908655 96813.42481012554,93085.92150529282 85265.3691170011,91033.3159597638 73488.13117525839,87180.48814609586 61665.66897219598,81437.24539691415 49996.56319845386,73730.29346794318 38692.583509113545,64005.26108056649 27976.996571464395,52228.62402427597 18082.619716030855,38389.498134789916 9249.627429875078,22501.270039041705 1723.1214928909883,4603.034492246307 -4249.520776265989,-15239.19255038205 -8421.501966400974,-36931.51526220486 -10549.64175876638,-60351.482663235685 -10397.570163776789,-85347.7241338471 -7739.0474581761455,-111739.92110021046 -2361.3779267854866,-139319.137785926 5931.118859889202,-167848.5309916548 17313.618648549436,-197064.45548719788 31937.32727105084,-226677.97779061992 49926.08439631135,-256376.80688510468 71373.08323171473,-285827.64581106877 96337.7548457767,-314678.9631000037 124842.86699895975,-342564.17772538133 156871.8880455177,-369105.24567916855 192366.66656162124,-393916.63049086015 231225.4768235095,-416609.63404638856 273301.4790688642,-436797.05799974315 318401.6415957129,-454098.1599690695 366286.16916316666,-468143.8626447868 416668.4788418148,-478582.16798785346 469215.76041123114,-485083.7229434093 523550.1536190883,-487347.47762332985 579250.5691110454,-485106.37180765055 635855.1736334077,-478132.9809675895 692864.5532312833,-466245.0489102511 749745.5606544972,-449310.8306746513 805935.8450929237,-427254.16655598156 860849.053753901,-400059.2061822616 913880.6857394667,-367774.7004926701 964414.5692630868,-330517.77934205194 1011829.9235571171,-288477.1333465121 1055508.9569658835,-241915.52054758565 1094844.9428065084,-191171.5215546416 1129250.7047297342,-136660.47106348793 1158167.43365296,-78874.49906840218 1181073.7490004129,-18381.62169665517 1197494.908108407,44176.170603372186 1207012.05937848,108085.87081445617 1209271.427231067,172567.4922224695 1203993.3102706904,236779.20638231147 1190980.7684627578,299823.5919232492 1170127.870680762,360754.9907698449 1141427.3708444217,418587.95434586273 1104977.6791605938,472306.74759829463 1060988.9948166267,520875.86336183234 1009788.4679655497,563251.4838320698 951824.2620767257,598393.8098950257 887668.3927803364,625280.162952915 818018.2262689631,642918.7478856646 743696.5291737772,650362.9501008824 665649.9726251392,646726.0244679546 584946.0059332359,631196.0195287454 502768.0299548328,603050.7669575595 420408.8166930112,561672.7540395221 339262.1399267521,506563.6861825806 260812.60157782905,437358.5374047319 186623.65995732002,353838.8795703332 118323.88882854789,255945.27610425153 57591.520184881505,143788.5231950186 6137.348549726959,17659.52129783882 -34313.89978422712,-121962.43776367845 -62043.60312053715,-274403.1774727841 -75360.53070037634,-438789.13816091913 -72623.19740046097,-614045.0631611022 -52263.079695997076,-798894.0448562594 -12808.46119455663,-991860.0882931761 47091.34732177751,-1191273.3292797296 128641.6901699142,-1395278.0200369332 232878.44795440513,-1601843.3686276497 360644.4316816164,-1808777.2886634516 512566.61848125776,-2013743.0833777227 689034.5691825891,-2214279.053268786 890180.3761011156,-2407820.979431403 1115860.4937098883,-2591727.3957211464 1365639.805090573,-2763307.5223928858 1638778.272905917,-2919851.69222324 1934220.5148659362,-3058664.0578098977 2250588.630074921,-3177097.3262183215 2586178.584091723,-3272589.2249340573 2938960.436909966,-3342700.361722756 3306582.669321778,-3385153.101071357 3686380.8292833627,-3397871.041975476 4075390.6810329813,-3379018.6465569395 4470365.995968033,-3327040.5369557613 4867801.075886264,-3240699.949759146 5263958.046426851,-3119115.8135150946 5654898.9017736,-2961797.8962236354 6036522.2213434605,-2768679.456676245 6404604.41579101,-2540146.8266626406 6754845.293796767,-2277065.3508821423 7082917.673428994,-1980801.1183335262 7384520.693095368,-1653237.9334032116 7655436.408014016,-1296788.9971495797 7891589.189572101,-914402.7996392933 8089107.377793249,-509562.762792167 8244386.572330294,-86280.2201081904 8354153.885903771,350919.62514575565 8415532.42690223,797019.0583499265 8426105.225950427,1246536.7523305991 8383977.775633109,1693564.3514931628 8287838.314226516,2131810.8003200702 8137014.954201116,2554654.3828562843 7931528.7353432635,2955202.3416222013 7672141.671476227,3326357.8412715257 7360398.859750347,3660893.935201288 6998663.733044595,3951534.083288307 6590145.559810141,4191038.6571440618 6138918.332213222,4372296.757021885 5649930.233097249,4488422.553140608 5129002.935346008,4532855.255152759 4582820.063803738,4499461.70829596 4018904.2399453633,4382640.514988704 3445582.232774188,4177426.487870812 2871937.8555566506,3879594.1561682047 2307752.37640002,3485758.973405709 1763432.3505640065,2993474.8125078618 1249924.9327997281,2401326.28578091 778620.8877639523,1709014.3936651603 361245.6842998218,917433.9889012402 9739.233559586764,28741.543181572644 -263874.9901701732,-953588.2773680553 -447630.5254004777,-2024718.6823847336 -529767.0931899304,-3178420.8677892312 -498887.0768753703,-4407059.480058484 -344117.8508992746,-5701594.644679515 -55278.3271154837,-7051601.644262091 376952.0749210934,-8445309.18496327 960863.9775853449,-9869657.021544527 1703550.1949437258,-11310373.522192607 2610741.682418197,-12752073.545147447 3686649.5863310853,-14178376.771461837 4933815.771621036,-15572046.39345355 6352974.259994601,-16915147.79850344 7942926.038114939,-18189226.61502532 9700429.694003457,-19375505.20420849 11620110.307734352,-20455096.390343957 13694388.958081074,-21409232.92729853 15913435.108664224,-22219510.9023729 18265144.00431572,-22868144.984982423 20735141.04014465,-23338233.14016293 23306814.861882564,-23614028.149820726 25961380.716654133,-23681213.02206706 28677975.298956174,-23527177.125133086 31433784.028416026,-23141289.661543164 34204201.3553933,-22515166.90472291 36963024.31977898,-21642929.45826643 39682679.19000283,-20521445.67181676 42334480.58640394,-19150557.260883834 44888922.04935698,-17533283.134665392 47315996.5520132,-15675997.439498441 49585544.98479897,-13588577.879033748 51667630.15899658,-11284520.478279782 53532933.39529734,-8781017.119503431 55153170.28604963,-6098992.395272539 56501521.75324215,-3263096.598757624 57553076.07458763,-301652.00421357254 58285277.124114245,2753450.018924815 58678373.67834438,5866903.067665082 58715864.28139488,9000192.44994089 58384931.84914739,12111855.564525055 57676861.9308837,15157796.26536521 56587438.34317727,18091652.910991795 55117309.75178139,20865219.111598812 53272320.708835214,23428915.464545947 51063800.660487294,25732309.820090815 48508804.52902724,27724682.85063556 45630298.64814535,29355634.916907966 42457286.09357767,30575729.44224854 39024865.8068151,31337167.23108834 35374220.358492084,31594485.409929994 31552527.741210558,31305273.939250384 27612793.218431957,30430901.953681163 23613597.985059347,28937245.54679569 19618762.21352253,26795408.03715648 15696920.962371599,23982423.24528052 11921012.407035133,20481931.888031527 8367678.907610043,16284820.868535897 5116582.548046412,11389815.016460722 2249637.955260772,5804010.72522096 -149833.57539580687,-456659.05156297196 -1998023.3724914333,-7367038.834140551 -3211621.5553976945,-14892453.783978723 -3708862.2614307306,-22988511.675177924 -3410618.8600536603,-31601012.7595816 -2241538.850552087,-40665975.882038854 -131206.95494713687,-50109788.31606241 2984676.2031911593,-59849485.751629874 7163113.482721275,-69793167.67881994 12452643.25959156,-79840552.07813431 18892199.520739105,-89883671.85759415 26510016.109745875,-99807713.8770919 35322591.74639755,-109491999.68330361 45333732.80061406,-118811105.2571685 56533690.97236722,-127636115.16627812 68898412.99845111,-135836004.5342505 82388919.26122354,-143279140.20825428 96950827.7023363,-149834890.44614807 112514038.73672695,-155375330.37989458 128992595.91180307,-159777028.46738738 146284735.85934764,-162922897.1473138 164273139.6416052,-164704088.98924232 182825395.899574,-165021917.8126584 201794684.27525765,-163789782.5637965 221020685.40831062,-160935070.21770653 240330721.4124791,-156401012.6449785 259541128.13321626,-150148471.2773255 278458857.6933263,-142157622.5525435 296883306.8704142,-132429516.54464148 314608363.74389464,-120987480.91502726 331424661.8293674,-107878342.37929225 347122027.616823,-93173438.29268694 361492104.08187705,-76969391.73409866 374331129.38475615,-59388624.62830398 385442846.6512264,-40579585.00065758 394641517.4867044,-20716666.414302245 401755008.7548944,199.99999950799227" stroke="white" stroke-width="1.5" /></svg>