<?xml version="1.0" encoding="utf-8" ?>
<svg baseProfile="full" height="400" version="1.1" width="400" xmlns="http://www.w3.org/2000/svg" xmlns:ev="http://www.w3.org/2001/xml-events" xmlns:xlink="http://www.w3.org/1999/xlink"><defs /><rect fill="black" height="100%" width="100%" x="0" y="0" /><circle cx="200" cy="200" fill="yellow" r="20" stroke="orange" stroke-width="2" /><polyline fill="none" points="199.76058455536935,200.0 199.82738677420565,199.99093859415711 199.89940644429322,199.98940941045706 199.9760508031463,199.99620038169363 200.05662833081243,200.01205741941658 200.14035068803477,200.03767260713872 200.22633598703572,200.07367228186664 200.3136134434309,200.1206051450571 200.40112944384856,200.178930553195 200.48775504853103,200.24900714602504 200.57229493163285,200.33108197686383 200.6534977442237,200.42528031419664 200.7300678663004,200.53159628675715 200.80067849457248,200.64988454533943 200.86398599260127,200.7798531135602 200.9186454092488,200.92105759654424 200.96332705055696,201.07289691094505 200.99673396937683,201.23461069174354 201.0176202165602,201.40527852083434 201.024809677588,201.58382110947161 201.0172152994295,201.76900355120094 200.99385849449308,201.95944074397258 200.95388849204957,202.15360505977307 200.89660139278016,202.3498363174149 200.82145866942565,202.5463540892161 200.7281048461876,202.74127234534336 200.61638408183822,202.93261641078212 200.4863553767107,203.11834217946873 200.33830612211506,203.29635749834574 200.1727637124915,203.46454560128345 199.9905049459775,203.6207904392898 199.7925629482001,203.76300371957674 199.58023136715312,203.88915343225966 199.35506560407464,203.99729361016824 199.1188808663653,204.08559503488246 198.87374685378745,204.15237657114616 198.62197891842277,204.19613678273214 198.36612557204302,204.21558545611973 198.10895225152328,204.2096746344972 197.85342129348558,204.1776287440973 197.60266811324712,204.11897337820062 197.35997363002943,204.03356229175753 197.12873302988987,203.9216021519297 196.9124210095149,203.78367458734772 196.7145536973759,203.6207550818965 196.53864750323794,203.43422826771092 196.38817520202832,203.22589918706782 196.26651961296523,202.9980001142249 196.1769252889291,202.75319255614073 196.12244868359858,202.49456408550236 196.10590731411548,202.22561970060357 196.12982848421123,201.95026745428717 196.19639817602268,201.67279814823692 196.30741075745723,201.39785894913422 196.46422018513638,201.13042084924354 196.66769340987926,200.87573996542994 196.91816671162837,200.63931274690938 197.21540570295195,200.4268252425703 197.55856974411523,200.24409666275923 197.9461815075835,200.0970175571883 198.37610241516967,199.99148301919814 198.84551464640836,199.9333214160167 199.35091038176856,199.92821923383573 199.88808889874826,199.98164271435726 200.45216208258492,200.09875704476002 201.03756884624633,200.28434394457008 201.63809887665076,200.54271856942256 202.24692603595696,200.8776467218865 202.8566516486649,201.29226342209427 203.45935779772506,201.78899394458284 204.04667063657803,202.369478471253 204.60983359989316,203.03450154246204 205.13979026476667,203.78392750782328 205.62727647744296,204.61664318420856 206.06292121956116,205.5305089197494 206.43735554396,206.52231923844064 206.7413287647987,207.5877741995264 206.96583094188762,208.7214625486128 207.10222055649731,209.91685766298627 207.14235613745868,211.166327201697 207.0787304640735,212.4611572615668 206.9046058482907,213.7915917135895 206.61414888485714,215.14688725062865 206.2025629568324,216.51538451753862 205.66621669705611,217.88459551974103 205.00276653592732,219.24130731703283 204.2112714141792,220.57170180739115 203.29229770809818,221.86149119243214 202.24801240559876,223.09606849388308 201.08226258632473,224.26067226109265 199.80063929891384,225.3405643756106 198.41052399492622,226.3212196228183 196.92111577264356,227.18852546528268 195.34343780565362,227.92899022091436 193.69032148121465,228.52995762427005 191.9763669518704,228.979825534699 190.21787901034784,229.2682663538454 188.4327774317209,229.38644653068457 186.64048118709528,229.327242368212 184.86176621818075,229.08544920552356 183.1185967701889,228.65798093564908 181.4339306092288,228.04405673635637 179.83149879706826,227.24537184128155 178.33556105766783,226.2662491650173 176.97063814278414,225.11376862079584 175.76122298428942,223.7978710354161 174.73147280444263,222.33143367501748 173.90488473761187,220.7303145487086 173.30395789304922,219.01336285599524 172.94984515316114,217.20239318898592 172.86199835001213,215.32212139153037 173.05781078910076,213.4000603142305 173.55226138822556,211.46637408552235 174.35756496495463,209.55368994299732 175.4828334333003,207.69686713339703 176.9337528532763,205.9327228912013 178.71228141084626,204.29971604069257 180.81637348540085,202.83758933040124 183.2397349827043,201.58697219685394 185.97161506902907,200.5889462608469 188.9966393332564,199.8845764777348 192.2946892249466,199.51441148656903 195.84083236531944,199.5179573239304 199.6053080030206,199.93312927908937 203.55357148656492,200.79568725941715 207.64640115040376,202.1386606001539 211.84007046254806,203.9917687818671 216.08658766046284,206.3808450032179 220.33400441141677,209.3272699869565 224.5267942775829,212.84742376442424 228.60630094995787,216.9521634794645 232.51125534471532,221.64633546805382 236.17835973813192,226.92832999710842 239.5429361599841,232.78968707730678 242.5396352796094,239.214761693593 245.10320101394797,246.18045661730173 247.16928507404617,253.65603067054718 248.6753046577773,261.6029899026823 249.56133550474357,269.9750686074999 249.7710315679367,278.71830645696946 249.2525616397511,287.77122725265235 247.9595524117438,297.065123900982 245.8520266627301,306.5244532064339 242.89732457307747,316.0673429519663 239.07099556897376,325.60621250545177 234.35764762326662,335.0485068623525 228.75174059296435,344.2975426186003 222.2583099707196,353.2534628752437 214.89360738073003,361.81429652142504 206.68564426951227,369.8771157397577 197.67462553862325,377.3392839449857 187.9132603477493,384.0997847211603 177.46693798904462,390.06062068410586 166.41375760161736,395.12826958554626 154.84440156091804,399.2151834148216 142.86184364148502,402.24131476641827 130.58088451057512,404.1356533499277 118.12750875957198,404.8377542473095 105.63805951196915,404.2992383942941 93.25822865058798,402.48524480208744 81.14186286910508,399.37581326540806 69.44958805765532,394.96717574560637 58.347256960088714,389.27293429441994 48.00422756944573,382.32510331447463 38.59148233369123,374.17499415482155 30.279600898410536,364.89392052928645 23.23660178730472,354.573704035358 17.62567108295579,343.32696015202487 13.60279878551529,331.2871465135736 11.31434606006431,318.6083569964345 10.894568997377007,305.46484721769184 12.463126769694583,292.05027942267407 16.12260412428307,278.57667742679854 21.95607998424461,265.27308526082174 30.024775479862427,252.3839264315505 40.365815977075556,240.16706422999513 52.99014256622664,228.89156726933385 67.88060898963747,218.83518838466802 84.99030008889903,210.2815691396132 104.2411075130792,203.5171864210533 125.52259762195366,198.82806191846535 148.6912052226283,196.49625962966428 173.5697849768904,196.79620085863385 199.94754999889895,199.99083041804357 227.58042432260652,206.32767186112963 256.1918325559471,216.03481348465863 285.47394616117714,229.31687050490257 315.08940142154944,246.35097214920327 344.673499294618,267.2828253638347 373.8368920401789,292.222909352068 402.1687557819284,321.2428571635352 429.240442059764,354.3720819983555 454.6095950050901,391.5947067111771 477.8247140829933,432.8468551496379 498.4301354580948,478.0143633917443 515.9713980277675,526.930967616321 530.0009531059529,579.3770232155732 540.0841697177323,635.0788068121634 545.8055805689369,693.7084490566587 546.7753070807692,754.8845414456371 542.6355955244653,818.1734549169178 533.0673903559709,883.0914016577622 517.7968654373209,949.107264427048 496.6018290422434,1015.6462097775417 469.31791447979003,1082.0940929158405 435.84446493072335,1147.8026526135627 396.1500187724106,1212.0954846549494 350.27730035964294,1274.2747718560408 298.34762101501974,1333.6287378141906 240.5645959393048,1389.4397803505697 177.2170849459624,1440.9932292104306 108.6812684104794,1487.5866611145107 35.42177464726322,1528.5396938477807 -42.00821888563405,1563.2041698751411 -122.96798058653434,1590.9746291409365 -206.7313770022485,1611.2989603994124 -292.4902331955064,1623.6891107999415 -379.35894034477224,1627.731724679435 -466.38033684182597,1623.0985747612908 -552.5328750705255,1609.5566423900011 -636.7390708735796,1586.9776982041028 -717.8752165584199,1555.3472309227204 -794.7823212937418,1514.7725698390816 -866.2782250599389,1465.4900463143115 -931.1708141134695,1407.8710411696534 -988.272247399088,1342.42676849256 -1036.414084703665,1269.8116520916687 -1074.4631888153506,1190.8251587272828 -1101.3382557699688,1106.4119623547351 -1116.0268096821355,1017.6603259710308 -1117.6024819307854,925.7986022467155 -1105.2423788626072,832.1897709235867 -1078.244327961967,738.3239499034547 -1036.0437798820756,645.8088379517337 -978.2301331068429,556.3580698685232 -904.5622395775679,471.777489683169 -814.9828436247735,393.9493737175202 -709.6317032313096,324.81466301746923 -588.8571422389872,266.3532934192857 -453.2257847969238,220.56274111338968 -303.5302293094547,189.43493168088227 -140.79442852053654,174.93169086751922 33.723444718373,178.95894546066123 218.53084993229044,203.33991216026809 411.9036335329313,249.78754087921374 611.8918453319476,319.8765060503695 816.32874965215,415.01506482647085 1022.8431327663291,536.4171240961275 1228.8749741949905,685.0748785667646 1431.694512065318,861.7323993484438 1628.4246925286727,1066.860566087104 1816.0669504603359,1300.6337453333053 1991.5302236835312,1562.9086231072151 2151.663056180771,1853.2056001737162 2293.2885976421903,2170.693154051277 2413.2422577605703,2514.1755619615 2508.4117244705258,2882.0843635492033 2575.779006438662,3272.4739210843304 2612.4641121718105,3683.0214078747886 2615.769931782191,4111.031522716792 2583.2278434156883,4553.44618939934 2512.643525313636,5006.859455648838 2402.1424171511453,5467.537755614369 2250.214241388673,5931.445644300772 2055.7559675935818,6394.277051585362 1818.112580723809,6851.492038021997 1537.1149988796676,7298.358965043887 1213.1144776477486,7730.0019190121075 847.0128374642063,8141.453152491144 440.28785793573394,8527.710227917216 -4.986800767845239,8883.797469289511 -486.12776411633297,9204.831247559912 -999.8347771297679,9486.088545989143 -1542.1907420240364,9723.0781739017 -2108.669441912629,9911.613922082566 -2694.1513695827966,10047.888881626837 -3292.948007609018,10128.550081520336 -3898.8348241320746,10150.772539751806 -4505.093157920218,10112.33176949022 -5104.5610673840165,10011.673736954175 -5689.69311171466,9847.98123216909 -6252.628919077469,9621.235588929136 -6785.270277775568,9332.272676971763 -7279.366362595838,8982.83208857145 -7726.606581385995,8575.598454315606 -8118.7203976387955,8114.2338494779915 -8447.583354942217,7603.400293764232 -8705.328400167597,7048.771403742815 -8884.46147587777,6457.032329306014 -8977.980230389625,5835.867193168519 -8979.494578030537,5193.933355667285 -8883.3477342392,4540.821945729664 -8684.73625215625,3887.004232384567 -8379.827501111726,3243.763558938789 -7965.872954803338,2623.112723043592 -7441.31559978975,2037.6968592262604 -6805.889734941449,1500.682064721155 -6060.711411346164,1025.6302030430381 -5208.357761381911,626.3605209203823 -4252.933486621888,316.79892095194924 -3200.122818116058,110.81594246733033 -2057.225330394348,22.054714173406467 -833.1740830165729,63.750351694242426 461.4653188473345,248.54247834863514 1814.516010258872,588.2827456184166 3212.2325958380197,1093.8394177989553 4639.366226323896,1774.901260277945 6079.252708610051,2639.7831297066164 7513.924094883677,3695.2358039534097 8924.243934223983,4946.262707139873 10290.066087895628,6395.946277306259 11590.416709784331,8045.286788505141 12803.698678511917,9893.056472702207 13907.917440641317,11935.671787302163 14880.926888290345,14167.086639190027 15700.693552995692,16578.709303948955 16345.577054693887,19159.34566778624 16794.624404381026,21895.171268447488 17027.875425787803,24769.734419217682 17026.67623988266,27763.992466648146 16773.997450976865,30856.382958051345 16254.753389548187,34022.93117972873 15456.118509587075,37237.39517255194 14367.836812266878,40471.448939684065 12982.51997795309,43694.904134265096 11295.929739785974,46875.970055756174 9307.239928891815,49981.55129590099 7019.273568037621,52977.58186306467 4438.710391250236,55829.39408178954 1576.2602251784085,58502.12001806289 -1553.202213087313,60961.122625845754 -4930.545364818121,63172.453253198895 -8532.335740722398,65103.33159364897 -12330.843395970849,66722.64362742077 -16294.101289816972,68001.45257536483 -20386.021402586506,68913.51739358313 -24566.569969211516,69435.81287688369 -28792.003611139444,69549.04502232502 -33015.167510269486,69238.15493831775 -37185.8560734252,68492.80427800784 -41251.23578859184,67307.83493573463 -45156.32918053705,65683.69557970724 -48844.55794026475,63626.82750970941 -52258.34243773641,61150.00233211636 -55339.753939062044,58272.60404163016 -58031.21494741241,55020.84829498037 -60276.24218152981,51427.931960560236 -62020.225807956296,47534.1064327598 -63211.23766463547,43386.668712684324 -63800.860366590336,39039.864878862645 -63745.02838158855,34554.701302029855 -63004.8714180243,29998.65979529213 -61547.54979176505,25445.31383167953 -59347.070846545714,20973.8440004995 -56385.075006589075,16668.452005699106 -52651.579653099085,12617.673725735227 -48145.66875022316,8913.593145762758 -42876.11601243277,5650.960328263675 -36861.92941454071,2926.217994945646 -30132.805007231076,836.4427368171799 -22729.478323211795,-521.7916646873408 -14703.96214866069,-1053.6198515654653 -6119.660096633524,-667.1490258576255 2948.6537431408383,725.2302296506153 12414.997788792767,3205.4996600219965 22182.49610468565,6848.650091898185 32143.847848609203,11721.314957350432 42181.95765026846,17880.417407370907 52170.729850889504,25371.84879316857 61976.0276912847,34229.19709515531 71456.7965563093,44472.54450382783 80466.34828274457,56107.35378401963 88853.80133326144,69123.46326570277 96465.66935175311,83494.21028359744 103147.58826785469,99175.7026189695 108746.16973608776,116106.25696691038 113110.96630507107,134206.02265019945 116096.5313438408,153376.80771830012 117564.55443644272,173502.12320182723 117386.05072492424,194447.45963684187 115443.58056809085,216060.80803092557 111633.47392311697,238173.4352190646 105868.03208390602,260600.92106088402 98077.67785857752,283144.46217438666 88213.02397275127,305592.4439020233 76246.8284786673,327722.2789836782 62175.805264510454,349302.5079932278 46022.257423604955,370095.15301002434 27835.501287103896,389858.31227740954 7693.04937121978,408348.9797844706 -14298.478637619462,425326.06983568 -38002.74642143537,440553.6227902745 -63253.42088425433,453804.16430680896 -89854.2468766407,464862.1866684793 -117579.499644707,473527.7171441927 -146174.83468922132,479619.93491333537 -175358.55109549715,482980.79490428953 -204823.28032724766,483478.6140242691 -234238.10798848604,481011.57274717215 -263251.13117444847,475511.08293228137 -291492.4487897667,466944.9711238172 -318577.57665089134,455320.4254813312 -344111.2733578611,440686.6539623162 -367691.7568723929,423137.201466157 -388915.28553569247,402811.8743928392 -407381.0709671079,379898.22250527196 -422696.4839760483,354632.53013929795 -434482.50837202487,327300.27170166984 -442379.3914528212,298235.99004719045 -446052.4340743595,267822.5607369246 -445197.85764612816,236489.8103459559 -439548.6802434373,204712.4628978744 -428880.5293736647,173007.39513030782 -413017.3148693639,141930.1886070072 -391836.6819966093,112070.97464211141 -365275.16224995424,84049.57653516975 -333332.9375398496,58509.9626641885 -296078.13264321914,36114.033470328395 -253650.55095590837,17534.77520326553 -206264.7698219869,3448.8233816414577 -154212.51407551742,-5471.510850245538 -97864.22996140625,-8566.688038056287 -37669.786337759804,-5198.787825951091 25841.76397545825,5239.327033801475 92063.42263972302,23314.623099943172 160312.53554678694,49544.38713953916 229834.17575685523,84386.7059074476 299805.6507140266,128231.05275274916 369342.15292119153,181389.10557580978 437503.5603148734,244085.92613038688 503302.3786940838,316451.6348852814 565712.8038361596,398513.7184935909 623680.8655034701,490190.10823619313 676135.5995526462,591283.1674920171 722001.1779637238,701474.7242354361 760209.909987392,820322.2806799286 789716.010955963,947256.5264027066 809510.0188227656,1081580.2735418743 818633.7224019319,1222468.9229210368 816195.4498020831,1368972.5582136314 801385.5509170266,1520019.7515224372 773491.8942930835,1674423.1480561346 731915.1864771864,1830886.8799984162 676183.9113035145,1988015.8402782087 605968.6777366333,2144326.825882664 521095.75808677415,2298261.537757078 421559.5938692054,2448201.4003866185 307534.0445024007,2592484.13906115 179382.15461983572,2729422.026821828 37664.21917861479,2857321.686439274 -116856.06806827507,2974505.3057664945 -283207.5876906599,3079333.0977567886 -460210.0815823047,3170226.8096716176 -646474.9302325912,3245694.0598779772 -840408.5774944784,3304353.255516818 -1040218.7376721734,3344958.820593779 -1243923.4941728916,3366426.4420889295 -1449363.3703153483,3367858.021895705 -1654216.4213146789,3348566.0051716166 -1856016.362166148,3308096.7414008575 -2052173.7093726464,3246252.5235065273 -2239999.875494812,3163111.943066169 -2416734.1146859177,3059048.1964160926 -2579573.175090466,2934744.9774873196 -2725703.470663089,2791209.598874829 -2852335.5410725465,2629782.9931406057 -2956740.5244023725,2452146.261883269 -3036288.3238871833,2260323.460816228 -3088487.1075053276,2056680.335072067 -3111023.7384827696,1843918.7502227111 -3101804.696267139,1625066.6010381633 -3058997.011936265,1403463.0216997345 -2981068.7099492378,1182738.7678633612 -2866828.220265561,966791.6923880592 -2715462.2017760356,759757.2923817949 -2526571.2003164333,565974.3650733398 -2300202.5528533193,389945.8734183741 -2036879.9442879588,236295.18874025368 -1737629.0252201194,109717.94646439695 -1403998.5083978444,14929.821434343574 -1038076.1788350338,-43389.39936851181 -642499.2780202103,-60654.99746594757 -220458.75649784083,-32439.2370400542 224303.06847922973,45464.57611101235 687501.8625054888,176976.54569962175 1164327.9834973076,365663.8634881318 1649470.8358506837,614674.4902818669 2137151.0780064394,926671.6663515868 2621160.8084173966,1303770.1233892026 3094911.764019012,1747474.9074034076 3551491.4678996694,2258623.750451832 3983727.1597250844,2837333.947838821 4384257.234491531,3482954.7054962963 4745609.80338445,4194025.9188959952 5060287.876037653,4968244.329289587 5320860.547567596,5802437.974715757 5520059.457743466,6692549.811545986 5650879.674983842,7633631.326990539 5706684.046060618,8619846.893724535 5681309.945024032,9644489.53455222 5569177.253570959,10700008.667903148 5365396.311531157,11778050.294227723 5065874.492022575,12869509.959497066 4667419.982807532,13964598.695671573 4167841.2951164898,15052921.990051227 3566040.975301115,16123571.676915452 2862101.9646640564,17165230.47706777 2057365.04012907,18166288.73528851 1154495.7743789563,19114972.723925576 157539.47987555707,19999483.69476975 -928037.3522077464,20808146.672990162 -2095320.53884921,21529567.798444618 -3335937.948039661,22152798.83345714 -4640066.71472757,22667507.274647553 -5996459.011102946,23064150.332173456 -7392487.29409523,23334150.875460885 -8814209.772492707,23470073.29286409 -10246456.634302326,23465797.07644638 -11672937.352939421,23316685.824929193 -13076369.149975145,23019749.260507494 -14438626.434209457,22573795.781274326 -15740910.76384395,21979573.02292534 -16963940.59288902,21239893.88355452 -18088159.767364893,20359745.475848317 -19093963.434350684,19346378.51372952 -19961939.720805984,18209374.71713291 -20673125.232896253,16960689.93042301 -21209272.124104228,15614670.797954338 -21553124.18571594,14188043.025018277 -21688699.13051962,12699869.474064833 -21601573.974064138,11171476.604363428 -21279170.17199623,9626348.05740361 -20711034.95127315,8089984.519081493 -19889115.08186122,6589729.351300428 -18808019.178230237,5154559.8777321195 -17465264.50077317,3814844.628308939 -15861504.15025078,2602067.291179951 -14000730.517265195,1548518.5854677842 -11890450.867066693,686957.7488005678 -9541831.010778904,50245.82535786525 -6969803.14001697,-329046.5623111994 -4193134.0850028764,-419053.77696801303 -1234450.4982029067,-189048.3939019814 1879782.232845681,390111.0587378721 5119330.1782416245,1345522.4558074689 8450312.577586384,2701777.5688303355 11835377.00530893,4480500.13759828 15233929.388249418,6699890.317415766 18602419.68553619,9374281.609095534 21894683.402512025,12513716.632976664 25062338.427294936,16123548.300297786 28055235.956002485,20204073.0586801 30821963.517048407,24750202.937102057 33310397.323459845,29751183.083997365 35468300.38282227,35190361.37496568 37243961.98599738,41045016.45980249 38586873.38762353,47286250.318699405 39448433.693670526,53878951.00203268 39782679.194602996,60781830.73566843 39547028.63807621,67947543.98378633 38703036.233967304,75322889.37469114 37217143.53855315,82849098.6139882 35061420.78552933,90462214.63725424 32214287.730994146,98093560.29566936 28661203.668991856,105670297.8291389 24395315.964851588,113116078.26975687 19418056.256007962,120351778.74303955 13739673.394176764,127296324.40549245 7379692.257795778,133867590.48652372 367287.75759594806,139983378.60346478 -7258436.30206297,145562460.20476526 -15448273.35233782,150525678.68364653 -24142854.379274048,154797100.4090655 -33272710.82890875,158305203.65997186 -42758467.53106019,160984093.24059972 -52511171.955296084,162774727.41743898 -62432764.83956419,163626142.77150738 -72416695.81103992,163496661.62164795 -82348686.05759387,162355065.86478633 -92107638.41698585,160181720.4160541 -101566693.44175707,156969628.93349856 -110594428.08542599,152725404.19598055 -119056191.65689935,147470135.38497847 -126815571.62403111,141240134.61605066 -133735979.7352326,134087545.38680083 -139682346.7931207,126080796.16645128 -144522912.28143117,117304883.15651385 -148131092.94247437,107861467.30902095 -150387412.3554204,97868772.00214683 -151181471.60488334,87461269.34358718 -150413939.2848622,76789144.8975228 -147998537.3857845,66017532.705694124 -143863998.09318176,55325514.78796353 -137955965.21620268,44904881.85001676 -130238812.89308706,34958654.67918071 -120697353.41814786,25699368.653567504 -109338405.52879207,17347126.90108544 -96192194.30775198,10127430.895752864 -81313554.0189192,4268800.6381279 -64782905.726141706,200.00000007933642" stroke="white" stroke-width="1.5" /></svg>