<?xml version="1.0" encoding="utf-8" ?>
<svg baseProfile="full" height="400" version="1.1" width="400" xmlns="http://www.w3.org/2000/svg" xmlns:ev="http://www.w3.org/2001/xml-events" xmlns:xlink="http://www.w3.org/1999/xlink"><defs /><rect fill="black" height="100%" width="100%" x="0" y="0" /><circle cx="200" cy="200" fill="yellow" r="20" stroke="orange" stroke-width="2" /><polyline fill="none" points="198.358766684506,200.0 198.28201226330174,199.90981349173154 198.21186444755358,199.81174331148685 198.14932128370066,199.706383776766 198.0953426118875,199.5944564735725 198.05083522214787,199.476809697531 198.0166376650325,199.3544162777688 197.99350488212406,199.2283697022028 197.98209283519216,199.09987847855032 197.98294332471713,198.9702586829278 197.99646919891651,198.8409246672206 198.0229401630082,198.71337791737866 198.06246940501003,198.58919407726512 198.11500125868963,198.47000817648285 198.18030012613707,198.35749812551418 198.257940881648,198.25336656730332 198.34730097500739,198.15932120082033 198.44755444571481,198.07705371888898 198.5576680500696,198.0082175293238 198.67639969025552,197.95440445487353 198.80229931857738,197.91712063326156 198.93371247078784,197.89776186337897 199.06878656002678,197.89758866705066 199.20548003734194,197.91770135737136 199.34157449617433,197.9590154240104 199.47468976673,198.02223756272332 199.60230201201773,198.10784269020436 199.72176480075703,198.2160522959977 199.8303330936429,198.34681449009923 199.92519003893275,198.49978610780036 200.00347643137886,198.67431723193772 200.06232264559446,198.86943848675554 200.09888281147832,199.0838514468215 200.11037095584072,199.31592248867844 200.09409879140858,199.56368039202434 200.04751479251027,199.82481797110538 199.96824415654586,200.0966979856593 199.8541292124472,200.376363544198 199.70326980234927,200.6605531707731 199.5140631312641,200.9457206598048 199.28524255229297,201.22805979232336 199.01591473245838,201.50353393139565 198.70559462717893,201.7679104549898 198.35423768032464,202.01679992154362 197.96226866221454,202.24569979759934 197.53060656034424,202.4500425086722 197.06068494750085,202.62524750472892 196.55446726960557,202.7667769610254 196.014456521432,202.8701946644132 195.44369881249557,202.93122756544935 194.84578036803646,202.9458294086624 194.22481756115883,202.91024578809842 193.58543963177877,202.82107991379974 192.93276381589604,202.67535831816267 192.27236268455027,202.4705956802103 191.610223575242,202.20485790172037 190.95270008906215,201.8768225328732 190.30645572362656,201.48583561760324 189.67839981437783,201.03196401108428 189.07561606399673,200.51604221462205 188.50528405054143,199.939712777469 187.97459421837266,199.30545933142508 187.4906569706895,198.61663135315266 187.06040659725002,197.87745979140266 186.69050088416031,197.0930627521832 186.38721736297484,196.2694405045118 186.15634726218968,195.41345915283904 186.00308832391192,194.53282241939866 185.93193774039804,193.63603109034145 185.9465865476078,192.73232980306858 186.0498168842601,191.83164098802598 186.2434035834689,190.94448592548795 186.52802160829862,190.08189303547897 186.903160871002,189.25529368568732 187.36704998686912,188.47640597655237 187.91659050623346,187.75710714299493 188.5473031410992,187.10929539666813 189.25328745508702,186.5447422191145 190.02719641615593,186.07493630264332 190.86022712026875,185.7109205197672 191.7421288804838,185.46312348120873 192.6612297397959,185.34118741424984 193.6044823075976,185.3537942549184 194.55752963936868,185.50849199650256 195.50479167791093,185.81152347044792 196.42957255321602,186.2676598511297 197.3141887983104,186.8800412706531 198.14011828190093,187.65002700114982 198.88816938741527,188.57705770755604 199.53866968448446,189.65853229128362 200.07167304574867,190.88970183243384 200.46718386209005,192.26358309338707 200.70539670628696,193.77089396814495 200.76694949219802,195.40001314842507 200.63318787769785,197.13696612828403 200.28643836868883,198.9654394834294 199.71028730275836,200.86682513924427 198.8898626287168,202.82029608320934 197.8121151567052,204.80291468365337 196.4660957371963,206.78977444887946 194.84322464040923,208.7541757004895 192.937549254718,210.66783524448434 190.7459861077293,212.50112970628925 188.2685431408101,214.22337175462354 185.50851814068525,215.80311797798504 182.4726692536927,217.20850670086818 179.17135358240398,218.4076235395593 175.61862999315616,219.3688920048122 171.83232244865937,220.06148596667325 167.83404042373942,220.45576031135084 163.64915326531283,220.52369564779806 159.30671572006108,220.23935246935002 154.83934227444456,219.5793297502917 150.28302843036462,218.523222565718 145.67691757384557,217.05407297263264 141.0630126806309,215.1588080880217 136.48583273778775,212.828659052629 131.99201443964478,210.05955438411422 127.62986043415452,206.85248110664816 123.44883614571945,203.21380700182556 119.49901797548019,199.15555736356444 115.83049647206177,194.6956397622949 112.49273886611014,189.85801053538444 109.5339161612104,184.67277702471893 107.0002007619627,179.17622998106907 104.93504138653859,173.4108010497021 103.37842274497609,167.4249408429313 102.3661181544703,161.27291379202975 101.92894389746121,155.0145067510289 102.09202469579161,148.71464919491672 102.8740801630636,142.4429438098485 104.2867424962082,136.27310730700304 106.33391596521227,130.282322397077 109.01118894644902,124.55050303013898 112.30530931035732,119.15947622531512 116.19373390936639,114.19208507485526 120.64426270906932,109.73121879456083 125.61476775797792,105.85877699315436 131.0530266933793,102.6545766316471 136.896669828989,100.19521142380653 143.07324906205633,98.55287467328881 149.50043587290938,97.79415773402104 156.08635457014125,97.97883739958579 162.73005566327615,99.15866655595288 169.32213282747313,101.37618335104929 175.74548536949212,104.66355492559924 181.87622642085503,109.041472393971 187.58473528525403,114.51811424359761 192.73685046743498,121.08819561991699 197.19519792687595,128.73212106483084 200.82064705064406,137.4152581659387 203.47388474698064,147.08734923845486 205.01709594752825,157.68207759090524 205.31573669657035,169.11680411071802 204.24038392672867,181.2924888405114 201.6686440001579,194.09381089666988 197.48710016145043,207.38949850813626 191.59327723312262,221.03287912774022 183.89760021714974,234.86265749668462 174.32532197719652,248.70392723430078 162.81839389643875,262.3694189927253 149.33725236510654,275.6609854762453 133.8624931790553,288.3713206979014 116.3964054533428,300.285907755396 96.96433649868976,311.18518618193616 75.61585929727752,320.8469265963812 52.425714768334075,329.04879697538377 27.49450195093857,335.57110143571487 0.9490905654737105,340.1996689881627 -27.05726784390282,342.728866348459 -56.34515182984728,342.96470561099784 -86.70952410260838,340.72801445493116 -117.92064383199175,335.85763360816424 -149.72534991583842,328.21360359234507 -181.84872418035712,317.68030036092375 -213.99613935439044,304.1694773722763 -245.85569220013286,287.62316995932423 -277.1010174199133,268.0164166130316 -307.39447293131286,245.359751034333 -336.3906818560347,219.7014185691553 -363.7404111519861,191.12927096227847 -389.09476128924257,159.77229428135595 -412.1096357899693,125.80172640097118 -432.45045388604785,89.43172262068494 -449.79706406627827,50.91953083670856 -463.848810961446,10.565141203023444 -474.3297029270732,-31.28962059437191 -480.99362290942827,-74.26258247399085 -483.62952080072944,-117.93331802895437 -482.0665215853768,-161.84585592861356 -476.17888023094383,-205.51201433553928 -465.8907115644075,-248.4153607624125 -451.18042137196426,-290.0157900425079 -432.0847637423868,-329.75470490883185 -408.7024493067505,-367.0607751433822 -381.19722957321744,-401.3562424520429 -349.80038406868186,-432.0637292334924 -314.8125395254442,-458.6135003419165 -276.60475392715824,-480.4511179006249 -235.61880287987577,-497.0454203211116 -192.36661151527687,-507.8967480397811 -147.42878196570473,-512.545330227486 -101.45217436249919,-510.5797389836615 -55.14650827422116,-501.64531042795 -9.279961478670629,-485.4524257792847 35.32624610408527,-461.7845400960638 77.80428367332392,-430.5058419693671 117.24714374618935,-391.5684242380239 152.7170537295158,-345.0188438473682 183.2548254220294,-291.00394841242513 207.890088685518,-229.77584797088633 225.65234091460945,-161.69591290954264 235.58272919765813,-87.23768319415223 236.74646737064796,-6.988579885877897 228.24577570784385,78.34968247111034 209.23321696258162,167.96207463393802 178.9252890722584,260.9227035151608 136.61612228223686,356.1988031064117 81.69111693646381,452.65631886326537 13.64034794178417,549.0671226921872 -67.92844684962932,644.1178778790942 -163.2774841715974,736.4205540647249 -272.5273538099408,824.5245718480232 -395.6464361349922,906.9305349540015 -532.4415176872939,982.1054853313141 -682.5498022402567,1048.4995932657328 -845.432510640406,1104.5641708510689 -1020.370255922262,1148.7708732130513 -1206.460370616219,1179.6319280186913 -1402.6163507467684,1195.721210325959 -1607.5695657201122,1195.6959570544257 -1819.8733651212967,1178.3188936168467 -2037.9096924154182,1142.4805248845498 -2259.898291745818,1087.2213240110987 -2483.908567554648,1011.7535360561322 -2707.874127768705,915.4822991793166 -2929.6100099879586,798.0257747505747 -3146.8325567195875,659.2339693734543 -3357.1818704923367,499.2059268534013 -3558.2467429809894,318.3049668502951 -3747.5919144251707,117.17164959669765 -3922.787481034974,-103.26584712894862 -4081.4402291682336,-341.7842414179605 -4221.226636303559,-596.8608379996881 -4339.927240711405,-866.6726630265555 -4435.462044759689,-1149.0992845635553 -4505.926581518172,-1441.7295308142245 -4549.628241298984,-1741.8722838357962 -4565.122424550879,-2046.5714877099585 -4551.248060675728,-2352.6254670231556 -4507.162009417685,-2656.6106043183077 -4432.371843035918,-2954.9093742216874 -4326.766494041585,-3243.7426776071684 -4190.644245359621,-3519.2063618827347 -4024.7375378354736,-3777.311753789497 -3830.2340744692247,-4014.029969569725 -3608.793711998706,-4225.339704631487 -3362.560648783621,-4407.278141613443 -3094.1704436102987,-4555.994552786919 -2806.7514332146425,-4667.806110824882 -2503.920157099071,-4739.255361959879 -2189.770446599175,-4767.168758318474 -1868.8558910454267,-4748.715592656884 -1546.1654570718756,-4681.466629743196 -1227.0921073512045,-4563.451685151802 -917.3943418804292,-4393.215365165688 -623.1506678914004,-4169.87015171058 -350.70709289198294,-3893.145994634603 -106.6178285238654,-3563.4355610070047 102.42050998811257,-3181.8342882072634 269.64082397072275,-2750.174395087495 388.28308423058365,-2271.0520240353508 451.6769272444367,-1747.846716833028 453.32860278942337,-1184.732469216443 387.01148065403527,-586.6796632455001 246.85922665502943,40.552756836551254 27.460665311499213,690.4354206690873 -276.04474034377347,1355.6974440679394 -667.8719407233766,2028.3664788656522 -1151.4971027362799,2699.820147235426 -1729.5674432165,3360.848982322868 -2403.815420083231,4001.730862000014 -3174.9786433640047,4612.316778667471 -4042.726888376924,5182.1276364578225 -5005.597597689719,5700.461609307654 -6060.941245837964,6156.511430708534 -7204.877910213164,6539.490820221961 -8432.266342203213,6838.769084906551 -9736.686763940155,7044.012767653158 -11110.438527440678,7145.3330511746035 -12544.553664280396,7133.437468274722 -14028.827225243824,6999.784318342778 -15551.865160876014,6736.738049146481 -17101.15032607437,6337.723734352894 -18663.12700557037,5797.378663195908 -20223.304153464844,5111.698961743925 -21766.377320243144,4278.179087638266 -23276.369006587207,3295.9419842439656 -24736.786936749162,2165.857648018521 -26130.799487513967,890.6478565609241 -27441.42724434106,-525.0251739466049 -28651.749386938634,-2074.4883827611043 -29745.123335288696,-3749.0078099841116 -30705.415817269004,-5537.760880789336 -31517.243253951627,-7427.832871175374 -32166.21910201682,-9404.239220594316 -32639.205548263424,-11449.97514686079 -32924.56672278321,-13546.093776634756 -33012.42038890517,-15671.81373135372 -32894.88488344687,-17804.65680506708 -32566.317924018746,-19920.616038967742 -32023.54377493775,-21994.354139754985 -31266.06517337919,-23999.43180800506 -30296.256366223282,-25908.565141655585 -29119.533598859165,-27693.91086216341 -27744.499432927703,-29327.377680970563 -26183.057353168075,-30780.961686118364 -24450.493256345657,-32027.10318812284 -22565.520599324747,-33039.06202582627 -20550.286219884478,-33791.30790250928 -18430.33413340063,-34259.92190594446 -16234.524951005002,-34423.00496943479 -13994.908959546432,-34261.088660443886 -11746.55134923317,-33757.54334560124 -9527.308569061937,-32898.97848198121 -7377.555330183092,-31675.629531003484 -5339.862359530592,-30081.725789205273 -3458.6256259701336,-28115.833285525652 -1779.6484136776576,-25781.16681318757 -349.67829654209777,-23085.865151096223 784.0982335979625,-20043.223589530226 1574.6000204633406,-16671.878012044945 1975.4301979900067,-12995.935003295066 1941.4849533716117,-9045.042753698835 1429.5865067324273,-4854.397918302845 399.134039399242,-464.68405974721634 -1187.2343408571905,4078.0621361526923 -3362.976109991277,8722.66004031249 -6156.983373172545,13413.072097911429 -9592.934989479838,18088.770320794974 -13688.670729774145,22685.18301273341 -18455.59674794128,27134.221538020378 -23898.13187829659,31364.88593520589 -30013.20440184238,35303.9471164896 -36789.8089426829,38876.70228897402 -44208.63305564839,42007.79909760981 -52241.76284023196,44622.12283308376 -60852.476558816714,46645.739884297676 -69995.13474439493,48006.88945831898 -79615.17465173638,48637.014455738914 -89649.2161346839,48471.82129169781 -100025.28512131718,47452.35740871382 -110663.15980993958,45526.09425332734 -121474.84352619333,42648.0026013732 -132365.16687068588,38781.60633317472 -143232.52035516888,33900.00009689255 -153969.71718319517,27986.815771898317 -164464.98419008116,21037.122270151616 -174603.07723078105,13058.243006945579 -184266.51550855913,4070.4753468532977 -193336.927489984,-5892.303501299261 -201696.49917214699,-16782.159294232933 -209229.51357745394,-28536.7668367587 -215823.9684725505,-41079.233098754594 -221373.25746518475,-54318.09009679691 -225777.89785130695,-68147.46901175605 -228947.28689082596,-82447.46552774761 -230801.46661106558,-97084.70466818205 -231272.8757994269,-111913.11147756255 -230308.06657845387,-126774.89176255361 -227869.36188453378,-141501.72477531334 -223936.42932232245,-155916.16721205498 -218507.74626614002,-169833.2652294673 -211601.93075121052,-183062.36837350772 -203258.91266393292,-195409.13639481761 -193540.92002167267,-206677.72692150436 -182533.25574631995,-216673.1489049905 -170344.84129682055,-225203.7636826945 -157108.5048452244,-232083.912449441 -142980.99336627673,-237136.64593718856 -128142.69006553099,-240196.52921092088 -112797.02099481988,-241112.49174023673 -97169.53749103767,-239750.69034507225 -81506.66421431114,-235997.35028435272 -66074.10603939508,-229761.54770297252 -51154.9108487194,-220977.89491897775 -37047.18936117102,-209609.0886626931 -24061.49747584569,-195648.28041355443 -12517.8911782125,-179121.2274583412 -2742.6688053067933,-160088.1832518926 4935.179650089526,-138645.48613156955 10187.791550693635,-114926.80644746133 12692.489304064648,-89104.01374606021 12136.042135258927,-61387.62780320538 8219.092488795963,-32026.820055611548 660.7029119461163,-1308.9353339222284 -10797.025187859099,30441.49224659033 -26384.313672079938,62864.25083884372 -46299.107222374274,95565.50634518515 -70702.57017495428,128120.4126484622 -99714.74330174485,160076.28123629565 -133410.42541358233,190956.3082128764 -171815.3462130996,220263.84962256328 -214902.69765538277,247487.22857942176 -262590.0911236471,272105.049973812 -314737.0069428191,293591.9905887121 -371142.8010892773,311425.02438809816 -431545.33137236896,325090.0346295099 -495620.2618332168,334088.75640105904 -562981.0996088226,337945.9852932376 -633180.0130365664,336216.9802977281 -705709.4733275654,328494.98179105966 -780004.7547331362,314418.75872699294 -855447.3197936701,293680.093044446 -931369.10703601,266031.103915682 -1007057.7284280523,231291.30992794235 -1081762.5730782847,189354.32372464376 -1154701.80216544,140194.07113807957 -1225070.2079981696,83870.42552763982 -1292047.897546806,20534.14799070477 -1354809.7478844223,-49568.9745764812 -1412535.5678589027,-126094.89884904509 -1464420.8871416913,-208599.1029210016 -1509688.2807210737,-296535.467900732 -1547599.124098473,-389256.3511776665 -1577465.6620820698,-486013.93035017274 -1598663.262336997,-585962.8862905382 -1610642.7139333487,-688164.4817528363 -1612942.4212231855,-791592.0783493536 -1605200.3346659013,-895138.1196990671 -1587165.4528969345,-997622.5921772489 -1558708.7245813736,-1097802.9570824807 -1519833.1745889762,-1194385.5293217679 -1470683.0769365635,-1286038.2580551635 -1411551.9969228879,-1371404.8443199976 -1342889.527067904,-1449120.1096740027 -1265306.5459843453,-1517826.5085804197 -1179578.8362535893,-1576191.6558485248 -1086648.9068274086,-1622926.719201163 -987625.8774811332,-1656805.5062407828 -883783.2974253382,-1676684.0550172364 -776554.7873322131,-1681520.518361113 -667527.4137092102,-1670395.1144432588 -558432.7266796029,-1642529.8999619673 -451135.4166975805,-1597308.1082567016 -347619.57238520385,-1534292.7828043413 -249972.5503468099,-1453244.4272731694 -160366.49826961887,-1354137.3868744022 -81037.60459943382,-1237174.6724355596 -14263.18129070031,-1102800.9386703176 37663.27975887138,-951713.3317653701 72458.90133233981,-784869.9288362145 87879.85653165093,-603495.503187646 81751.20087997803,-409084.3647683828 51997.82256360993,-203400.04481795622 -3323.800086483765,11528.3825007287 -85993.37566350741,233413.5207239181 -197594.481801714,459720.5611337552 -339482.5488616372,687681.9933511871 -512753.56453659,914316.1877489485 -718213.9378805126,1136449.8775586681 -956351.9762310743,1350744.5218884968 -1227311.438840057,1553726.4813223784 -1530867.6362825613,1741820.885754351 -1866406.544496254,1911389.0201102141 -2232907.396232602,2058768.9981558793 -2628929.200473128,2180319.4382870225 -3052601.621708702,2272465.79867396 -3501620.625706902,2331748.973095062 -3973249.266366217,2354875.693953999 -4464323.949429072,2338770.2361095236 -4971266.463218935,2280626.865035405 -5490102.014301132,2177962.4262859346 -6016483.4472383745,2028668.4310818124 -6545721.762726554,1831061.955875061 -7072822.977741161,1583934.6428040266 -7592531.295399604,1286599.0638012614 -8099378.47163376,938931.6945213379 -8587739.181168187,541411.7359264059 -9051892.097488191,95155.02196150768 -9486086.311344214,-398057.7381416826 -9884612.620835466,-935759.1142615112 -10241879.134294096,-1514780.207234555 -10552490.536174353,-2131243.657563727 -10811330.277122322,-2780565.018080095 -11013644.863605598,-3457463.034282284 -11155129.341198167,-4155979.30169941 -11232012.990161028,-4869507.684426021 -11241144.183661165,-5590833.783295702 -11180073.299159002,-6312184.636481714 -11047132.52348115,-7025288.720283678 -10841511.353159003,-7721446.194283704 -10563326.564981239,-8391609.203898432 -10213685.418533165,-9026471.91573801 -9794740.85384844,-9616569.8183917 -9309737.464127198,-10152387.674716994 -8763047.05661556,-10624475.362993207 -8160192.664866574,-11023570.695109244 -7507859.943233609,-11340728.152119769 -6813894.959907717,-11567452.332946539 -6087287.50823953,-11695834.772748875 -5338139.177393354,-11718692.655617706 -4577615.5622596685,-11629707.823904937 -3817882.1484508584,-11423564.375837604 -3072023.580319488,-11096083.046244377 -2353946.2072236333,-10644350.4843811 -1678264.0043934267,-10066841.480037676 -1060168.1781650214,-9363532.146358766 -515280.98919930245,-8536002.046958333 -59494.55951667067,-7587523.257712894 291204.3325801181,-6523134.38159359 520922.2239095268,-5349697.58942131 614058.2159481787,-4075936.8415572597 555512.7741728828,-2712455.5561478552 330904.1141562962,-1271732.1291112339 -73210.01466176946,231908.12016528484 -669107.550546178,1782345.8056440754 -1467676.9477765206,3361746.135840925 -2478194.3924032426,4950664.127324152 -3708106.3428853545,6528176.8381192 -5162820.46374305,8072042.783763213 -6845508.121636794,9558888.37141589 -8756921.681936605,10964420.840243327 -10895229.876805961,12263666.832187127 -13255874.51032309,13431235.339660123 -15831451.719658129,14441603.389416464 -18611620.92168542,15269422.429045023 -21583044.439831585,15889842.988702817 -24729360.62512175,16278854.800702417 -28031193.057449903,16413639.178490968 -31466198.13771213,16272930.089735026 -35009153.05890146,15837380.011201749 -38632085.77536631,15089926.331508737 -42304448.17573141,14016153.77734513 -45993333.208545335,12604648.08510429 -49663736.213440925,10847335.928671896 -53278860.17791191,8739805.950822474 -56800464.07497304,6281605.635557106 -60189252.84479189,3476508.706675894 -63405306.969463244,332747.7484757873 -66408548.96055037,-3136793.1782549256 -69159243.44069594,-6914431.0042925095 -71618526.86080486,-10977586.06288996 -73748962.26092893,-15298739.006597238 -75515113.8643068,-19845446.420716163 -76884135.69876054,-24580418.874727592 -77826367.87674436,-29461664.6269987 -78315933.64399956,-34442701.59682548 -78331329.83622912,-39472839.54382626 -77856002.97273953,-44497533.651391104 -76878902.87472618,-49458809.90290814 -75395005.4326993,-54295761.77257631 -73405795.97093564,-58945116.8335626 -70919704.5748271,-63341870.92308017 -67952484.76691104,-67419986.50561556 -64527527.04580452,-71113150.85212535 -60676099.04487774,-74355588.61557947 -56437504.42895678,-77082922.34375083 -51859153.131051436,-79233073.44138525 -46996536.139292836,-80747195.08940592 -41913098.77765301,-81570627.66267756 -36680007.281917624,-81653866.2747236 -31375804.452408753,-80953529.23249179 -26085951.263157766,-79433315.42195904 -20902252.51779125,-77064937.98096956 -15922165.957855215,-73829021.0641774 -11247995.640259154,-69715946.08059074 -6985971.895874629,-64726633.50093544 -3245221.748070481,-58873246.20267649 -136635.29345144876,-52179800.35717642 2228364.7891549007,-44682670.07655725 3739141.749303823,-36430972.43679351 4287240.754030141,-27486820.085615333 3767850.1433696523,-17925429.43478389 2081314.109242375,-7835073.429426099 -865318.6134195732,2683130.91618908 -5156726.935810877,13515608.628185304 -10867748.747689571,24536893.34251941 -18061830.891262233,35610379.35987111 -26789518.35004329,46589262.24029294 -37087004.11764932,57317668.85047584 -48974761.895720765,67631975.48042215 -62456284.224638715,77362310.21348093 -77516948.8545684,86334233.18556324 -94123036.09808421,94370585.72952673 -112220919.55218418,101293496.69626848 -131736451.92178765,106926531.50393862 -152574566.70702103,111096966.7229396 -174619115.22348028,113638170.29056822 -197732956.80293778,114392064.80135152 -221758318.06949556,113211648.77440777 -246517434.9054557,109963548.39635926 -271813488.1182051,104530570.0165674 -297431840.9053636,96814221.67076096 -323141583.00540483,86737170.16897231 -348697382.93534046,74245598.84334774 -373841645.9804767,59311429.948716305 -398306971.6436994,41934374.98024517 -421818900.11732525,22143775.852080476 -444098933.04860055,200.0000005438646" stroke="white" stroke-width="1.5" /></svg>