<?xml version="1.0" encoding="utf-8" ?>
<svg baseProfile="full" height="400" version="1.1" width="400" xmlns="http://www.w3.org/2000/svg" xmlns:ev="http://www.w3.org/2001/xml-events" xmlns:xlink="http://www.w3.org/1999/xlink"><defs /><rect fill="black" height="100%" width="100%" x="0" y="0" /><circle cx="200" cy="200" fill="yellow" r="10.964824813807782" stroke="orange" stroke-width="2" /><polyline fill="none" points="199.07640552635982,200.0 199.01630703691373,199.94836061302772 198.95900443086137,199.89040295164716 198.90521938292446,199.82630947920646 198.85567226409333,199.75634741014065 198.81107289896525,199.68087093678687 198.7721108288667,199.60032251918273 198.73944516857833,199.51523315890782 198.7136941554135,199.4262215853775 198.69542449983297,199.3339922917269 198.6851406565546,199.23933236751944 198.6832741440643,199.1431070869443 198.69017304839215,199.04625422387426 198.70609185381568,198.9497770790722 198.73118174863274,198.8547362198644 198.76548155814908,198.76223994863201 198.80890945940408,198.6734335333754 198.8612556327733,198.58948725122733 198.92217600431243,198.51158331396022 198.9911872294329,198.4409017630578 199.0676630631333,198.37860544060044 199.15083225447682,198.3258241608187 199.23977809325413,198.2836382254697 199.33343972477482,198.25306144393392 199.43061533448864,198.23502383586072 199.52996728767485,198.23035421004232 199.63002929081458,198.23976282769956 199.7292156205572,198.26382437124767 199.82583244353418,198.30296145060768 199.9180912258048,198.3574288879762 200.00412420462794,198.42729902840708 200.0820018677547,198.51244832735608 200.14975235677593,198.61254546726343 200.20538268151748,198.72704125310125 200.2469016023619,198.8551605314106 200.2723440070216,198.99589636854606 200.27979657806281,199.14800671151693 200.26742451776138,199.31001373888054 200.23349906806456,199.4802060895597 200.17642553596215,199.65664413422556 200.09477150885883,199.83716842705073 199.98729492103152,200.01941144528857 199.85297161138843,200.2008126904172 199.69102199495583,200.37863718769225 199.5009364562339,200.54999738112815 199.28249906219523,200.71187837847296 199.03580918664053,200.86116645600896 198.76130063623987,200.99468068640175 198.45975787220337,201.10920750479298 198.13232893043616,201.20153797938374 197.78053465747618,201.2685075034381 197.40627389968833,201.30703757653544 197.0118243092206,201.31417929464433 196.59983846219126,201.28715812183188 196.17333502246532,201.22341947184913 195.73568472812397,201.12067458613998 195.29059102717514,200.97694615672322 194.8420652439693,200.79061310860916 194.394396217849,200.56045392764156 193.95211442037623,200.28568789659656 193.5199506265576,199.96601358569396 193.10278928824982,199.6016439340151 192.70561683371994,199.19333725626683 192.33346519541442,198.74242351541852 191.9913509475416,198.25082521643674 191.68421051520278,197.7210723000444 191.41683199655648,197.15631044844704 191.19378421785714,196.56030225751022 191.01934371709729,195.93742078204735 190.8974204243001,195.29263502268554 190.83148287411126,194.63148699408885 190.82448384807236,193.96006009489045 190.87878739866136,193.28493858912813 190.99609825370487,192.61315810677823 191.1773946369788,191.95214717648113 191.4228655676291,191.30965991595195 191.73185371643413,190.69370012393628 192.10280489993798,190.11243714082792 192.53322528324279,189.5741139720132 193.0196473379976,189.0869482973039 193.55760556322483,188.65902712002665 194.14162292258635,188.2981959388829 194.76520888216774,188.0119434529315 195.420869847677,187.80728293323264 196.10013269912795,187.69063151202843 196.79358200480982,187.66768874996433 197.4909113650509,187.74331594190372 198.180989190587,187.92141771046212 198.85193906109728,188.2048275116229 199.4912346377408,188.5951987368591 200.0858089206195,189.09290313931587 200.62217744953253,189.69693833613385 201.0865748459213,190.40484614336023 201.46510388750244,191.21264348270503 201.7438960969103,192.11476755941618 201.90928261409059,193.10403694674483 201.94797391173472,194.17163012404927 201.84724670641847,195.30708290199127 201.59513621812974,196.49830602923998 201.1806317404782,197.73162411064436 200.5938733060787,198.99183677730417 199.82634706944907,200.26230283504304 198.87107688632642,201.52504788049313 197.72280944661992,202.76089561472233 196.37819022125478,203.94962280483006 194.83592741378297,205.07013754632365 193.0969410685512,206.10068016585822 191.16449448094104,207.01904577792544 189.04430508400594,207.80282717351355 186.74463205171386,208.42967637716671 184.27633796363165,208.87758286508696 181.65292202054147,209.12516609508396 178.8905224860527,209.1519796636633 176.00788625618705,208.93882408095212 173.02630372712323,208.46806484526348 169.96950744021288,207.72395221078716 166.86353333191127,206.69293877913483 163.73654380271682,205.36399081323722 160.61861224131593,203.72888897532712 157.5414690950206,201.78251403426597 154.53821006180496,199.5231129759287 151.64296748872476,196.95254088814863 148.89054659160905,194.07647398291826 146.31602865641622,190.90458916683093 143.95434393780363,187.4507056793523 141.83981752900672,183.73288449012284 140.0056920323366,179.77348138319263 138.48363140435828,175.5991499592949 137.30321087662213,171.24079115765875 136.49139835393825,166.73344633633164 136.0720331596449,162.1161314535817 136.06530842306879,157.43161046084404 136.4872637803034,152.72610664710027 137.34929537753735,148.04895136183146 138.6576904186156,143.4521702840823 140.41319367777035,138.99000819306994 142.6106134973854,134.7183940245369 145.23847480264834,130.69434885912057 148.27872658402367,126.97534037589031 151.70651111942948,123.61858820651733 155.49000192648145,120.68032553310135 159.59031704781006,118.21502317454386 163.96151377699925,116.27458329092373 168.55067032805312,114.90751069044029 173.29805923768293,114.1580705365252 178.1374164687006,114.06544201076107 182.99630925742275,114.6628781771583 187.79660472275353,115.97688290199726 192.4550401355948,118.02641619781504 196.88389454206072,120.82213976750205 200.99176015187794,124.36571481262763 204.68441055512668,128.64916432747356 207.86576142846633,133.6543121161 210.43891795002645,139.35231063442077 212.30730167549805,145.70326946428276 213.3758481532175,152.65599576491158 213.5522650909992,160.14785741336647 212.74833945102452,168.1047787362212 210.8812804610074,176.44137774783786 207.87508421064652,185.06125264672593 203.6619042730587,193.85742398320517 198.18341167278152,202.71293740387918 191.39212653639544,211.50163020868902 183.25270292997897,220.08906313446897 173.74314773012358,228.3336168174496 162.85595391194673,236.08775030109064 150.5991283872271,243.1994167625877 136.99709450581062,249.51362935150215 122.09144955949952,254.8741676897415 105.94155811336509,259.1254131984497 88.62496274620561,262.1142990212335 70.23759481841313,263.6923579335496 50.893769207674865,263.7178492956979 30.72594856338509,262.057943853905 9.88426452866068,258.59094305376766 -11.464214439914542,253.20850753704315 -33.136476568419795,245.817867681059 -54.934826772028174,236.34398744456246 -76.64841540028988,224.73165143897543 -98.05503475766784,210.947444083268 -118.92317904176554,194.98158895625895 -139.01435977475097,176.84961606250454 -158.08566509623887,156.59382470525662 -175.89254747514303,134.2845100376236 -192.19182052421058,110.02092216318317 -206.74484170806528,83.93192789820209 -219.32085387076273,56.17634700341034 -229.70045472208756,26.942936853313256 -237.67915976541116,-3.5499978604691194 -243.07102067810126,-35.05539069969399 -245.71225792381,-67.29861107610259 -245.46486344074117,-99.97908662439397 -242.22012666755427,-132.77235867311202 -235.90203499473768,-165.3325743063014 -226.4704980183863,-197.2954133132127 -213.9243437777347,-228.2814428010767 -198.30403452686608,-257.8998864437811 -179.69404957040155,-285.75278931060245 -158.22488332386314,-311.43955302384114 -134.07460807752858,-334.56180969815796 -107.46995297762015,-354.72859678919747 -78.68685351329725,-371.5617887014706 -48.05042932716887,-384.70173485672365 -15.934352457539376,-393.8130479892458 17.24042683003418,-398.5904808019917 51.00762366799566,-398.7648238772632 84.858252193947,-394.1087529795142 118.24396245146478,-384.4425497072143 150.58108603417122,-369.6396159361566 181.2553874659615,-349.63169973647234 209.62750932445581,-324.41374852479976 235.03908967611616,-294.0483042116592 256.8195205871284,-258.6693550961052 274.2933064015719,-218.4855603118786 286.787970244917,-173.7827647994132 293.64244693302516,-124.92572611408087 294.2158902694795,-72.35897891955182 287.8968127294428,-16.606768780253248 274.11246589485074,41.72800613106716 252.33836086688677,101.96589855983201 222.10781938420476,163.35410463168256 183.02143866791437,225.0707783273384 134.7563462457048,286.2304893000772 77.07511532473687,345.89083256589583 9.834206829497646,403.0601848331162 -67.0081988655914,456.70658761803764 -153.38511906844178,505.76772194068826 -249.11457329845842,549.1619234517204 -353.89441199213366,585.8001704668691 -467.2983025932714,614.5989607537829 -588.7730007688974,634.4939762173934 -717.6370270695342,644.4544180672476 -853.0808599366767,643.4978788387834 -994.1687445344269,630.7056020054276 -1139.842203453908,605.2379650927896 -1288.9253199412742,566.3500084287753 -1440.1318469924713,513.4068191757021 -1592.0741765277635,445.89856933421197 -1743.2741820224944,363.4549972228018 -1892.17592557233,265.8591147539969 -2037.160196585657,153.0599178719566 -2176.56082432553,25.183874997693522 -2308.682680600281,-117.45503155872552 -2431.8212622839897,-274.3469333393893 -2544.2837163202494,-444.7795888748724 -2644.411142733745,-627.8339894951373 -2730.601984274978,-822.3822529536454 -2801.336285003937,-1027.0879846221126 -2855.2005747448234,-1240.4092673660352 -2890.9131122953663,-1460.6044193110047 -2907.3491979385694,-1685.7406336115037 -2903.5662455743072,-1913.705586135191 -2878.828287056514,-2142.2220658204087 -2832.629566475439,-2368.865648541132 -2764.7168705431195,-2591.0853988601953 -2675.1102332851856,-2806.227545350702 -2564.121649256074,-3011.562034549097 -2432.371429793044,-3204.3118264482464 -2280.8018416898544,-3381.6847511659876 -2110.687677349456,-3540.9077024979597 -1923.643420168461,-3679.262899985684 -1721.6266887672489,-3794.125907439762 -1506.937668807852,-3883.0050531235056 -1282.2142715772422,-3943.5818556199993 -1050.422794233102,-3973.7520203915283 -814.8438975220738,-3971.666535825212 -579.053762726508,-3935.77236478113 -346.9003403389245,-3864.8521989558676 -122.47465819553071,-3758.062719376993 89.92278386653108,-3614.97078766467 285.820442791718,-3435.586979924844 460.61882842149197,-3220.395868828887 609.6380422810606,-2970.3824600978032 728.1694640234034,-2687.0541977046264 811.5312191209803,-2372.4579680334314 855.126989775169,-2029.1915573132483 854.5076600441482,-1660.4090491273062 805.4352167983814,-1269.8196898411757 703.9482612672787,-861.6797994595004 546.4284226440373,-440.777363671152 329.66690649221346,-12.409009525810518 50.9303575846634,417.65085796272615 -291.9748296606355,843.188898354036 -700.6406587796059,1257.5997076116344 -1175.9990726575409,1653.9406728162676 -1718.2678449911314,2024.9946608979908 -2326.901788074682,2363.3402850582256 -3000.5502418058804,2661.429381078158 -3737.0217953511496,2911.6712113432486 -4533.257166720665,3106.52279838462 -5385.311126048814,3238.584673377426 -6288.344295264196,3300.7012097717193 -7236.625589805351,3286.064599567306 -8223.54598700009,3188.3214212586163 -9241.644210744966,3001.6806457966723 -10282.644813445897,2721.021831709714 -11337.509014246625,2342.0021744767946 -12396.498518005837,1861.1610000430117 -13449.25239311613,1276.020229663173 -14484.876929118906,585.1792946798405 -15492.04822839075,-211.5970530681161 -16459.127111395715,-1113.2996052906099 -17374.285733744662,-2117.6058031347206 -18225.645127398446,-3220.822629935924 -19001.422689799827,-4417.842792763517 -19690.088455684934,-5702.115630035885 -20280.528799130185,-7065.634095616867 -20762.21603048777,-8498.939060325021 -21125.382176811963,-9991.142039541299 -21361.195067832283,-11529.967300704915 -21461.93469519331,-13101.814127356845 -21421.1676732967,-14691.839817735761 -21233.917508378847,-16284.063776783849 -20896.82828114064,-17861.492822133412 -20408.31926993882,-19406.267568903124 -19768.727988764338,-20899.829486945237 -18980.439089341136,-22323.107939893474 -18047.996581856514,-23656.726220625063 -16978.196866028906,-24881.22529553422 -15780.16013511479,-25977.30366357882 -14465.377821429163,-26926.071428938623 -13047.733894031886,-27709.316382081783 -11543.497998068857,-28309.77958707016 -9971.288641089588,-28711.437687210993 -8352.004884281836,-28899.78887098676 -6708.725285293768,-28862.13918997269 -5066.5731629805305,-28587.885694632525 -3452.5476113275154,-28068.79265690661 -1895.3200777557213,-27299.256984759075 -424.9967372576234,-26276.558807596168 927.1526649394013,-25001.093126781896 2128.998367042708,-23476.57838620441 3147.8849262591934,-21710.237827513025 3950.994230488117,-19712.949556412514 4505.734582332679,-17499.361362984382 4780.152752600075,-15087.96651263126 4743.365406610526,-12501.13695656854 4366.0058244438105,-9765.110702856573 3620.6813724976155,-6909.930441148383 2482.436745419449,-3969.330926266063 929.2175917585146,-980.5730962895077 -1057.6712292032041,2015.776571880054 -3493.1188308216206,4976.122385294724 -6387.779258720705,7854.171720333537 -9747.666766332162,10601.322877539691 -13573.782081880074,13167.107394904528 -17861.776404298787,15499.684956431678 -22601.659847870924,17546.388253459136 -27777.560952902913,19254.314357529056 -33367.543688115125,20570.958354214516 -39343.488086023564,21444.884176591673 -45671.04027276042,21826.426774983218 -52309.637176849465,21668.418976747525 -59212.61062685326,20926.935637276023 -66327.37487615312,19562.04697237747 -73595.70082625236,17538.57230450136 -80954.07936109998,14826.82486253339 -88334.17525848644,11403.337758916437 -95663.37211655128,7251.560840159013 -102865.40763111225,2362.5177786322765 -109861.09739166693,-3264.587444330451 -116569.14414065519,-9621.82561153304 -122907.02817340201,-16692.06981458695 -128791.97325792145,-24448.606215465625 -134141.98113852757,-32854.83845514727 -138876.92637017232,-41864.09567359667 -142919.70192789662,-51419.55348423072 -146197.4047649157,-61454.27646709534 -148642.54927157378,-71891.38980736621 -150194.29543423484,-82644.38661051376 -150799.6774270277,-93617.57617561334 -150414.81740931503,-104706.67710902085 -149006.10846687068,-115799.55761938107 -146551.34994380467,-126777.12366135909 -143040.81788348008,-137514.35380152724 -138478.2529474879,-147881.47777977097 -132881.74802855402,-157745.29374992687 -126284.51783106271,-166970.61712287588 -118735.53297512705,-175421.8518248838 -110300.00169834367,-182964.67264652628 -101059.68299285485,-189467.80521782194 -91113.01603111267,-194804.8880296953 -80575.05200596213,-198856.39885856226 -69577.1760407787,-201511.6259688157 -58266.60861157646,-202670.6625973945 -46805.677960218825,-202246.40149618406 -35370.85725757298,-200166.5047527628 -24151.56278552701,-196375.32275888213 -13348.712131452423,-190835.7350795671 -3173.044308416307,-183530.8851234514 6156.793194033432,-174465.77995518284 14416.382187312904,-163668.72635004527 21377.884797616567,-151192.5742936976 26812.592693312094,-137115.73959783558 30493.656029235484,-121542.9781542957 32198.97013469331,-104605.88560075825 31714.19453591117,-86463.09783189959 28835.87555349987,-67300.16986742966 23374.64049867367,-47329.11308499745 15158.428457388907,-26787.573738442727 4035.719849237442,-5937.639001967165 -10121.275571757868,14935.73950552013 -27413.51479407194,35526.71067420325 -47912.1460273104,55510.87885826102 -71655.70728039696,74548.04560339004 -98647.54563468104,92285.32988894872 -128853.50418530319,108360.65336294002 -162199.92344327315,122406.57159998061 -198572.00321561648,134054.4268352917 -237812.56958159525,142938.79198244997 -279721.2895349739,148702.17009477655 -324054.3731476065,150999.90784989524 -370524.7997173977,149505.2761981154 -418803.1002907943,143914.66609502884 -468518.72420141654,133952.84231661004 -519262.0118561171,119378.19381239825 -570586.7899506476,99987.91497093973 -622013.5986416423,75623.04863322098 -673033.5529820205,46173.31877473892 -723112.8331952498,11581.678563137635 -771697.7901819479,-28151.501939515332 -818220.644091826,-72964.68475285874 -862105.7449360611,-122731.92563821274 -902776.3551500886,-177260.22316352915 -939661.9048434529,-236287.52759465625 -972205.6612987012,-299481.47867960983 -999872.7452192208,-366438.93695409974 -1022158.4173968473,-436686.3676569665 -1038596.5509994468,-509681.12969858735 -1048768.1966957548,-584813.714382432 -1052310.140471683,-661410.9697622885 -1048923.3473820821,-738740.3366634801 -1038381.1787573671,-816015.1115583243 -1020537.2656758237,-892400.7397333634 -995332.9179466008,-967022.1296033805 -962803.9455462964,-1038971.9657159473 -923086.7685267138,-1107319.984066873 -876423.6919667965,-1171123.1589437926 -823167.2246700991,-1229436.7357792903 -763783.3240892505,-1281326.029587338 -698853.455454393,-1325878.8936514733 -629075.3603401167,-1362218.7484157002 -555262.4389525384,-1389518.0461950651 -478341.6612623427,-1407012.0335763795 -399349.934736285,-1414012.660431071 -319428.87079102645,-1409922.4725259186 -239817.90814746462,-1394248.31401002 -161845.76891387897,-1366614.6567932065 -86920.2423595099,-1326776.3662240778 -16516.311818033428,-1274630.7067306226 47837.33818195187,-1210228.3873991922 104573.3748152502,-1133783.446021912 152102.3467219874,-1045681.7711068142 188830.58351240793,-946488.0648684576 213179.33366616795,-836951.0564267277 223604.98526082412,-718006.7834414684 218620.19006039933,-590779.7722743031 196815.68822213664,-456581.96154182474 156882.6085698409,-316909.23161652946 97634.99837748939,-173435.42321929272 18032.317255790746,-28003.751667537323 -82798.38761147027,117384.4505051453 -205540.922625044,260583.7011015837 -350669.315356643,399321.0533841388 -518428.4278570235,531215.472842919 -708816.1408850653,653799.8444501538 -921567.4365143549,764545.5124089416 -1156140.7049090578,860889.2163234402 -1411706.595232335,940262.2487782523 -1687139.7204519543,1000121.6199442885 -1981013.5110731372,1037982.9754874946 -2291598.4934376525,1051454.9752370184 -2616864.2441102453,1038274.8022884803 -2954485.2430118467,996344.43601546 -3301850.814395221,923767.2883942806 -3656079.3065955183,818884.7716804794 -4014036.618892001,680312.3373809102 -4372359.137021119,506974.5022121683 -4727481.088186958,298138.3568825013 -5075666.272190092,53445.03862297508 -5413044.067981567,-227061.36106024106 -5735649.555047928,-542907.9854527576 -6039467.527120314,-893171.0276878445 -6320480.112409709,-1276457.691316029 -6574717.650597144,-1690892.7991596323 -6798312.412902454,-2134110.52909407 -6987554.688516831,-2603251.723698486 -7138950.699355926,-3094967.1813365915 -7249281.746349272,-3605427.2891400354 -7315663.935231494,-4130338.303640548 -7335607.778963171,-4664965.522602998 -7307076.928412427,-5204163.522223116 -7228545.243695139,-5742413.5576519575 -7099051.386510476,-6273868.142285981 -6918250.089799033,-6792402.733020868 -6686459.245929431,-7291674.355422423 -6404701.949171098,-7765186.905344973 -6074742.63315118,-8206362.762859004 -5699116.4599557035,-8608620.251468806 -5281151.145060402,-8965456.371641643 -4824980.441795437,-9270534.133850906 -4335548.560874528,-9517773.713960892 -3818604.864828956,-9701446.554217665 -3280688.2540213703,-9816271.437787287 -2729100.7501510056,-9857511.475169802 -2171869.884526495,-9821070.858411787 -1617699.61142219,-9703590.165348278 -1075909.590927245,-9502538.932629747 -556362.8200389816,-9216304.16450331 -69381.7343589031,-8844273.405647729 374346.9455448577,-8386910.982167373 763878.1905854928,-7845826.006404541 1088124.866198564,-7223830.749687934 1335983.3985152317,-6524988.013528959 1496467.9712567446,-5754646.174977059 1558852.152270159,-4919460.646549021 1512816.6823538993,-4027400.5758555564 1348601.997377608,-3087739.715049585 1057163.9000037545,-2111030.51556432 630330.6519590366,-1109060.649101857 60959.62421491392,-94791.32101207289 -656908.476931129,917723.0736683225 -1527899.8925914082,1913434.1991871384 -2555164.7712165588,2876417.9620525874 -3740243.0363819976,3790011.4233221654 -5082941.431813097,4636967.988719631 -6581224.026110177,5399630.167386169 -8231118.4452031115,6060118.923923487 -10026640.05695223,6600538.376540692 -11959736.258116312,7003194.319579465 -14020252.90799389,7250824.774692234 -16195924.81461175,7326840.504934439 -18472392.00792404,7215573.163628089 -20833243.330025475,6902528.498835881 -23260088.63519692,6374641.798535476 -25732660.6234556,5620532.545060112 -28228947.03138046,4630755.0540543385 -30725353.57499775,3398041.7070415956 -33196897.683585145,1917535.2515996976 -35617432.683016226,187006.5428524864 -37959901.68581034,-1792945.9619121763 -40196620.025962226,-4018718.6638527913 -42299584.6439249,-6483550.922155209 -44240808.385285266,-9177402.404243376 -45992676.730583295,-12086863.176442232 -47528324.02866018,-15195099.851510094 -48822025.86746441,-18481840.88318537 -49849603.79031511,-21923403.81802929 -50588838.1583429,-25492766.98128341 -51019884.577524155,-29159687.686752833 -51125688.95781486,-32890868.62211877 -50892395.95886242,-36650173.57257633 -50309745.30802963,-40398893.109984994 -49371450.25834384,-44096060.29535797 -48075552.292576954,-47698815.82375188 -46424746.08076739,-51162821.38752098 -44426668.66754914,-54442719.35230129 -42094146.90757707,-57492636.13654997 -39445397.28649871,-60266725.96727631 -36504172.46500534,-62719750.95970446 -33299849.16744286,-64807692.74559396 -29867452.406341676,-66488390.16290519 -26247611.49120848,-67722196.82805282 -22486443.81414686,-68472651.75110625 -18635363.03541854,-68707155.53424633 -14750809.006857391,-68397644.12502253 -10893897.566855209,-67521251.58897568 -7129989.212982958,-66060952.93147033 -3528176.601455068,-64006177.646310225 -160691.82961711797,-61353384.408884816 2897764.479835949,-58106587.17352089 5570769.165598821,-54277822.88730567 7780993.314176145,-49887551.10377164 9451084.407241458,-44964975.976682 10504607.213169256,-39548281.44255763 10867035.631352887,-33684770.865402326 10466786.541527208,-27430903.02158309 9236285.587760687,-20852217.04883133 7113053.754312019,-14023139.871161237 4040802.584814955,-7026670.63941933 -29475.025688458827,46062.10799659267 -5138432.357512969,7096373.56353912 -11317329.306855032,14018727.626885233 -18587040.903989814,20701573.78302895 -26957129.491414964,27028314.287228134 -36424996.396865994,32878398.33353093 -46975129.008643135,38128538.08063429 -58578459.040300414,42654039.548970446 -71191847.44682394,46330239.50526923 -84757710.91553421,49034037.53670358 -99203804.09422246,50645510.60858542 -114443170.73134014,51049595.52178687 -130374275.68521364,50137822.86380821 -146881328.31127334,47810084.30727495 -163834806.06049237,43976413.47860372 -181092185.22448295,38558759.12536706 -198498883.65147135,31492727.981141865 -215889417.94492227,22729273.589011423 -233088775.15790087,12236306.426326059 -249913996.33023354,200.00000030605662" stroke="white" stroke-width="1.5" /></svg>