<?xml version="1.0" encoding="utf-8" ?>
<svg baseProfile="full" height="400" version="1.1" width="400" xmlns="http://www.w3.org/2000/svg" xmlns:ev="http://www.w3.org/2001/xml-events" xmlns:xlink="http://www.w3.org/1999/xlink"><defs /><rect fill="black" height="100%" width="100%" x="0" y="0" /><circle cx="200" cy="200" fill="yellow" r="10.596294528122048" stroke="orange" stroke-width="2" /><polyline fill="none" points="199.186010369951,200.0 199.13009239464827,199.954333824528 199.0764775479368,199.90277063819065 199.02582980140392,199.84544471604943 198.97881550373512,199.7825673192811 198.93609507961997,199.7144291014199 198.89831424075734,199.64140168407874 198.86609478543505,199.56393832679007 198.8400250733933,199.4825736218246 198.82065027252224,199.3979221523404 198.80846248324187,199.3106760609776 198.80389085501713,199.22160148602185 198.80729181721776,199.13153383347102 198.81893955328738,199.0413718656949 198.8390168527897,198.9520706008012 198.8676064802043,198.8646330312169 198.90468320220856,198.78010068524785 198.950106616476,198.69954307135743 199.00361492462017,198.62404606146268 199.06481978971325,198.5546992865072 199.133202414711,198.49258263475926 199.20811097204972,198.43875196049714 199.28875950658656,198.3942241277704 199.3742284238983,198.3599615305412 199.4634666637235,198.33685624648203 199.5552956440415,198.3257139967879 199.64841504496962,198.32723809831165 199.74141048339456,198.3420136068963 199.83276310912998,198.3704918617111 199.92086113153962,198.41297564945276 200.00401326213446,198.46960521421173 200.0804640338346,198.54034534339684 200.14841093159365,198.62497376214662 200.20602324216225,198.72307106793443 200.25146250318966,198.83401243342345 200.28290440392763,198.956961298893 200.2985619618326,199.09086526561947 200.29670977170565,199.23445438836146 200.27570909703124,199.38624204851124 200.23403354725406,199.54452856952113 200.1702950602637,199.70740771290733 200.08326988674014,199.87277616655106 199.97192425265447,200.03834610725977 199.8354393585236,200.20166088678238 199.67323535938365,200.3601138548972 199.48499395826056,200.51097029506184 199.27067923854932,200.65139240773712 199.03055635751198,200.7784672342211 198.7652077243871,200.88923737005527 198.4755462926565,200.98073427223633 198.16282560708035,201.05001391906973 197.8286462623879,201.0941945360648 197.47495845214675,201.11049605635466 197.10406031341455,201.09628094032436 196.71859180533474,201.04909593706455 196.32152389783292,200.96671433057725 195.91614288989197,200.8471781769961 195.50602972535444,200.68884000610524 195.09503422755785,200.4904034318062 194.68724423201667,200.25096209253692 194.28694965841066,199.9700363246218 193.89860162882508,199.64760695972254 193.5267668079414,199.28414563253696 193.17607721205079,198.8806409871652 192.8511758066268,198.43862018059878 192.55665828596364,197.96016509997474 192.29701150219591,197.44792273690203 192.07654908395853,196.90510919753947 191.89934485604678,196.3355068713321 191.76916473969706,195.74345433443622 191.6893978774813,195.1338286258183 191.66298778623835,194.51201960461853 191.69236439487713,193.88389617633092 191.7793778702158,193.25576426224086 191.92523517221588,192.63431648083144 192.1304403090101,192.02657361084243 192.39473928103513,191.4398180125315 192.7170707114475,190.88151929551512 193.0955231559914,190.35925263729257 193.52730006884877,189.8806102750075 194.00869337110026,189.45310681288115 194.53506652474312,189.08407910766846 195.10084795736714,188.7805816129508 195.69953561035737,188.54927817851583 196.32371329680265,188.39633141184896 196.96507945425626,188.32729081318047 197.61448876241323,188.34698099187221 198.26200696712826,188.45939135844964 198.89697911069294,188.6675687615546 199.50811121481806,188.97351460080387 200.08356529843363,189.37808799333354 200.61106743854467,189.88091660210955 201.07802840048646,190.48031674640455 201.47167617573604,191.17322440782863 201.77919957287563,191.95513871774367 201.98790181247227,192.82007946275814 202.08536288180613,193.7605600734555 202.0596092129727,194.76757746694486 201.89928906045677,195.83061999587105 201.59385177449397,196.93769461508427 201.13372899714642,198.0753742124328 200.51051565182735,199.22886586259554 199.7171484568411,200.38210055331848 198.74807957217675,201.51784470299515 197.59944288907678,202.61783353870234 196.26921039648536,203.66292613637916 194.7573360099278,204.6332816419662 193.0658842290884,205.50855589648788 191.19914100253695,206.26811738207618 189.16370422366188,206.89128109292506 186.96855136256943,207.35755861855412 184.62508185585176,207.6469224102471 182.14713203069488,207.74008188905637 179.55096053237244,207.61876874948993 176.8552024549053,207.2660285212537 174.08079064324158,206.66651517667975 171.25084294092576,205.80678531828553 168.39051449854912,204.67558825387528 165.52681463346136,203.26414807028604 162.68838813786812,201.56643365579885 159.9052613675933,199.57941249974277 157.20855390394178,197.3032840200787 154.63015706220952,194.7416881396585 152.20238101786998,191.90188485297833 149.95757283022624,188.79490060075037 147.92770815778414,185.43563740220685 146.14395997375414,181.8429408869001 144.63624809750996,178.03962362044936 143.4327738517584,174.05244043314767 142.55954462855817,169.91201283679797 142.03989359289756,165.65270005306976 141.89400016290315,161.31241467472492 142.13841727342964,156.9323815370816 142.7856117473509,152.556838988037 143.84352435902397,148.23268240692926 145.31515637004551,144.00905053066896 147.1981894418148,139.9368558941913 149.48464587623448,136.0682614747737 152.1605960993453,132.45610643866104 155.2059201776692,129.15328471544547 158.59412993916413,126.21208096168806 162.2922579564522,123.6834693105478 166.26081923684137,121.6163811282555 170.4538509501165,120.05694880013547 174.81903491080647,119.04773333707294 179.29790681752883,118.62694431603799 183.8261554402691,118.82766133346772 188.33401404062494,119.67706674585406 192.7467453151102,121.1956999857044 196.98522007396983,123.39674416127913 200.9665887154747,126.28535596365751 204.60504333767028,129.85805010378925 207.8126670568075,134.10214957500386 210.5003657863516,138.99531297360227 212.5788763860604,144.50514990334966 213.95984373192056,150.58893513184523 214.55695790067216,157.1934316522113 214.28714132423642,164.25483212821285 213.07177446747744,171.69882736243264 210.83794733602736,179.44080942498132 207.5197229485833,187.3862159159262 203.05939782971097,195.43102051179727 197.4087436144725,203.46237347101533 190.53021302474318,211.35939415300928 182.39809279816612,218.99411585162625 172.9995856429728,226.23258136802102 162.33580297315817,232.93608576675533 150.42265006534353,238.96256068889863 137.29158538631043,244.16809245728962 122.99023618202253,248.40856402385208 107.58285300647151,251.54140860096322 91.15058671098383,253.42746061433712 73.79157251831641,253.93288744133994 55.62080717471548,252.9311832852224 36.76980680784632,250.30520451274666 17.386035016595855,245.94922388132804 -2.3679071257792828,239.77097933390388 -22.315335070410242,231.69369147730433 -42.266782070947045,221.65802251479155 -62.02154816337497,209.6239483069362 -81.36949421821089,195.57251441742469 -100.09307521257284,179.5074464905537 -117.96960350337048,161.4565851320578 -134.77372940591266,141.4731156491035 -150.28012283040448,119.63656357055238 -164.2663361412811,96.0535278334284 -176.51582482332725,70.85812490068784 -186.8210990090792,44.212118879463645 -194.98697549143367,16.304714943961812 -200.83389656299983,-12.648003965819669 -204.20127894030958,-42.404014103641316 -204.95085319821948,-72.69667495634172 -202.9699516096997,-103.2364498695901 -198.17470011053217,-133.71302847158398 -190.5130683379441,-163.79785145852105 -179.96773037613804,-193.14703333980725 -166.55868802679834,-221.4046734973026 -150.34560815268617,-248.20654043811186 -131.42982595724197,-273.18410846712294 -109.95596699794123,-295.9689202320644 -86.11314231588648,-316.1972427640502 -60.1356733226113,-333.51497881918874 -32.30330603432333,-347.5827895950513 -2.9408778934152053,-358.08137932661145 27.582595231476205,-364.71688693997817 58.85543922936645,-367.22632494122024 90.4254707526246,-365.3830011259671 121.80279030490097,-359.0018545977366 152.46322767719985,-347.9446340631513 181.85244043207996,-332.12484351287753 209.3906580544458,-311.5123782780528 234.4780558562992,-286.13777314912136 256.500733818162,-256.0959838282013 274.83726635740715,-221.5496235220217 288.8657796285298,-182.7315780271137 297.97150348628617,-139.9469252606953 301.55473579153596,-93.57408888792969 299.03914743064286,-44.06516051652821 289.88034737775143,8.054669112050135 273.5746184855424,62.188622406845354 249.66772657834179,117.67083493216334 217.76369797826763,173.7698780493653 177.53345395779954,229.69332872431474 128.72318491728714,284.5933996402191 71.16234246744628,337.57363044030456 4.771124184349219,387.6966277742257 -70.43267627897103,433.9928279439795 -154.327581679488,475.4702414632851 -246.68323331548686,511.12512389862223 -347.1562072973594,539.9535021052427 -455.2869651831561,560.9634695765628 -570.498053152864,573.1881492725054 -692.0936560187419,575.6992071754469 -819.260602642771,567.6207851452551 -951.0709077534636,548.1437076194999 -1086.4859217429735,516.5398035494675 -1224.3621448257302,472.17617289895963 -1363.4587450209665,414.52921628423564 -1502.44680087898,343.198237121652 -1639.920269826556,257.91841819208565 -1774.408661609683,158.57296903828126 -1904.391373736696,45.20423728295074 -2028.3136222748526,-81.97642402216303 -2144.6038770552027,-222.58023936306716 -2251.6926855469624,-376.0342461799702 -2348.0327446485876,-541.5763778577397 -2432.120054704896,-718.2525795086492 -2502.515965513173,-904.9161288923317 -2557.8699002577846,-1100.2293189385591 -2596.9425205573934,-1302.6676394495269 -2618.629074475916,-1510.5265736931503 -2621.9826497983718,-1721.9311008299835 -2606.237037469118,-1934.8479675579947 -2570.8288951916584,-2147.100762166455 -2515.418889150959,-2356.3877915633775 -2439.9114829809114,-2560.3027270216107 -2344.4730377864444,-2756.3579476641585 -2229.5478855438155,-2942.010472408675 -2095.8720408183394,-3114.690331584903 -1944.4842226987907,-3271.8311891382473 -1776.7338703563264,-3410.9029856858506 -1594.28585185416,-3529.446332180577 -1399.1215868765023,-3625.108344076637 -1193.5363299726412,-3695.6795672176936 -980.1323917290483,-3739.1316097444583 -761.8081109331193,-3753.655059720832 -541.7424311575513,-3737.6972364921357 -323.3749800867283,-3689.999295604031 -110.38159907208586,-3609.632183013091 93.35467648431172,-3496.030914881546 283.77712865555185,-3349.026645024556 456.6932434157359,-3168.875973594343 607.816792662861,-2956.2869483312516 732.8138682991749,-2712.4412141331445 827.3525593193538,-2439.0117781835906 887.1558968026999,-2138.1758767659485 908.0576258925688,-1812.6224564358467 886.060299109543,-1465.5538166114632 817.3951225612298,-1100.6810029659687 698.5829266937212,-722.2125912761011 526.4955771140876,-334.8365595004441 298.4170896530809,56.30498836573449 12.103668189730286,445.64840999116996 -334.15815522495234,827.2485072456867 -741.4961297979999,1194.8259004045876 -1210.4005197277766,1541.8216986496188 -1740.676850539689,1861.4592743041542 -2331.40405973149,2146.8128469334406 -2980.8989359800253,2390.882479003416 -3686.687712208789,2586.6749783136993 -4445.485646829215,2727.290095088376 -5253.185384031986,2806.0112947025636 -6104.854827819811,2816.400281899229 -6994.745195388857,2752.3943504385115 -7916.3098334757615,2608.405534902493 -8862.234286547331,2379.420450376213 -9824.477998545799,2061.0996224891787 -10794.32791081392,1649.8750363858837 -11762.46408849477,1143.0445701430065 -12719.03736700026,538.8619274769935 -13653.758860123615,-163.3793522522172 -14556.00101327942,-963.2692503529443 -15414.909720614443,-1859.213440147575 -16219.526854947908,-2848.3757095009755 -16958.922386447062,-3926.6320394027616 -17622.3350915543,-5088.537692628244 -18199.32068003756,-6327.308595408285 -18679.90599734698,-7634.818203224323 -19054.747794046736,-9001.610929066588 -19315.294396365687,-10416.933078747656 -19453.948464348978,-11868.782083413422 -19464.228889213962,-13343.974644770697 -19340.929761842017,-14828.234214577813 -19080.274242383093,-16306.298017738725 -18680.06107916721,-17762.043599321874 -18139.801465872668,-19178.634631713816 -17460.843891443514,-20538.685460941368 -16646.48462966812,-21824.443603280855 -15702.061536518117,-23017.98912722909 -14635.028874968599,-24101.449574630533 -13455.010970472764,-25057.228791388072 -12173.832616637983,-25868.24775611251 -10805.524300706278,-26518.195217887984 -9366.300502568754,-26991.785685822786 -7874.509539230514,-27275.0220571358 -6350.553678459203,-27355.459931227248 -4816.778529915991,-27222.470438590593 -3297.331038034554,-26867.498219641348 -1817.985746455896,-26284.31102364548 -405.93937662637916,-25469.23726591151 910.4258395897368,-24421.387786105683 2101.809215045908,-23142.857995609378 3138.287756224344,-21638.906590645012 3989.6396631156827,-19918.107043524487 4625.692980045268,-17992.46816950971 5016.696736942258,-15877.520203681144 5133.711462317253,-13592.363012648884 4949.01549908192,-11159.673311126762 4436.523118453304,-8605.668053942965 3572.210011912476,-5960.021529949091 2334.5413530778837,-3255.73409479082 704.897267056111,-528.9509431710372 -1332.0097689814038,2181.270164137781 -3787.7313369635344,4833.242740680631 -6669.699256939796,7382.986897476396 -9980.867643405212,9784.615417940762 -13719.387035992499,11990.769172994444 -17878.31681799338,13953.09975616685 -22445.38207638325,15622.796488805056 -27402.78091668942,16951.154202369376 -32727.04802151436,17890.177456585832 -38388.979929958856,18393.21610790082 -44353.62711462852,18415.626411761335 -50580.35744237645,17915.451134717343 -57022.99502451427,16854.11147858047 -63630.03779310419,15197.102989515643 -70344.9563845326,12914.687050793122 -77106.57607343605,9982.569049832007 -83849.54258415401,6382.553878859104 -90504.87161934086,2103.1690845044595 -97000.5808937104,-2859.7542649204274 -103262.40235389154,-8502.553065269785 -109214.57111309547,-14813.266109975191 -114780.6864430496,-21771.24046510865 -119884.63895792485,-29346.820048796526 -124451.59690934262,-37501.12580936166 -128409.04330260375,-46185.93638672529 -131687.85435752315,-55343.677487098794 -134223.40868891758,-64907.527400287654 -135956.71548874935,-74801.64514218675 -136835.5489714874,-84941.52661427032 -136815.57541394222,-95234.49294098574 -135861.45829829125,-105580.31378088037 -133947.92636969752,-115871.9669160296 -131060.78886486538,-125996.53381697419 -127197.88177154023,-135836.22916915294 -122369.9287568972,-145269.56054606376 -116601.30036939622,-154172.61254049803 -109930.65528708161,-162420.44773659066 -102411.44776689603,-169888.61494244993 -94112.2860538546,-176454.75312787836 -85117.12734335595,-182000.2775479199 -75525.29595943862,-186412.13260589517 -65451.31271894966,-189584.59414561806 -55024.52499597311,-191421.10208905028 -44388.52877917272,-191836.10268087144 -33700.376020484444,-190756.8780938708 -23129.56279711382,-188125.33981728225 -12856.796236996352,-183899.76112256013 -3072.5407742567895,-178056.423005332 6024.652914189052,-170591.1473650112 14230.030010274866,-161520.69083007777 21334.71536646096,-150883.97259074674 27127.986563531587,-138743.109882757 31399.72055986932,-125184.23539485072 33942.99506783116,-110318.07186356364 34556.822602765285,-94280.24048413393 33048.99202076911,-77231.28151374987 29238.989335492573,-59356.36757686285 22960.966726711315,-40864.69270118679 14066.725969759338,-21988.52301179032 2428.6800715946233,-2981.898278738523 -12057.24525724397,15881.022864875058 -29468.810489203493,34307.97726431774 -49854.803165069934,51990.970115474636 -73232.56344314682,68609.00080862337 -99585.73753995003,83831.13141915722 -128862.30235284707,97319.88256478986 -160972.90408347396,108734.9362509112 -195789.55264501882,117737.12013995252 -233144.7120116394,123992.64246544424 -272830.8244351371,127177.54162981446 -314600.30359959026,126982.30944359906 -358166.0283028764,123116.64205254348 -403202.36414614646,115314.26793054955 -449346.73598755547,103337.79796489849 -496201.76859238505,86983.53870103405 -543338.0070141476,66086.20632292368 -590297.2218053559,40523.47599642041 -636596.2972264051,10220.29887014425 -681731.6932494745,-24847.082618570766 -725184.4644037405,-64647.49137970946 -766425.8104495469,-109091.61457634295 -804923.125582033,-158029.31433919692 -840146.5044369566,-211247.51812257906 -871575.6546985231,-268468.75386967405 -898707.1576931957,-329350.3915015905 -921062.010103364,-393484.64758106606 -938193.3719641337,-460399.4043187712 -949694.438533122,-529559.8873902308 -955206.3465679617,-600371.2393294331 -954426.0191316426,-672182.016590418 -947113.8473946268,-744288.628762825 -933101.1031361781,-815940.7279489785 -912296.9718842212,-886347.5450303827 -884695.0939873246,-954685.1575572266 -850379.4994916908,-1020104.6613868916 -809529.8226002244,-1081741.2050923852 -762425.6828097488,-1138723.832688827 -709450.1226344802,-1190186.06652845 -651091.9961941204,-1235277.1484474912 -587947.2089233593,-1273173.8435785167 -520718.7162794478,-1303092.697845537 -450215.1986010474,-1324302.627221865 -377348.3402003721,-1336137.7045437777 -303128.6533262908,-1338009.9982328468 -228659.80177146266,-1329422.3068855815 -155131.39454165936,-1309980.6245401097 -83810.23706661206,-1279406.1637230658 -16030.045791717564,-1237546.7573083227 46820.348492722165,-1184387.455967757 103310.26271864091,-1120060.135737461 151981.82182482464,-1044851.9301226077 191365.92817519113,-959212.3033662244 219999.42876285603,-863758.5861379079 236443.34648153753,-759279.8020637846 239302.01954031803,-646738.6232984619 227242.97134418116,-527271.3057877085 199017.31216220194,-402185.4700103271 153480.45396935908,-272955.610811442 89612.90129600948,-141216.2404051987 6540.864074537774,-8752.591654923152 -96443.57634049893,122511.16578150989 -219863.0292639623,250526.21607694618 -364036.3759661153,373135.8843853408 -529061.6680686006,488094.87851609057 -714800.6445510137,593090.909770772 -920865.1689435499,685768.5829231343 -1146605.8846099633,763755.4097126194 -1391103.3784025821,824689.764037345 -1653162.1312274558,866250.560686003 -1931307.5180630353,886188.4033808536 -2223786.099644486,882357.9125833354 -2528569.423320077,852750.9094290413 -2843361.5215206295,795530.0998168078 -3165610.2629274614,709062.8725965134 -3492522.6739059575,591954.7985074051 -3821084.306278865,443082.3925397923 -4148082.68229653,261624.6822476634 -4470134.799031412,47093.10873616788 -4783718.622761091,-200640.72392758433 -5085208.449643801,-481319.9408184961 -5370913.952637014,-794280.4196835821 -5637122.676721967,-1138432.4296869994 -5880145.685693473,-1512246.356608359 -6096366.004725251,-1913742.9664800656 -6282289.444343728,-2340488.6334851943 -6434597.334098872,-2789595.9247241905 -6550200.63890518,-3257729.8941376954 -6626294.878562764,-3741120.3904694174 -6660415.222201898,-4235580.6297826385 -6650491.085179021,-4736532.221916772 -6594899.517141841,-5239036.77269375 -6492516.637421638,-5737834.110066959 -6342766.348426023,-6227387.103259647 -6145665.540085049,-6701932.959878588 -5901864.9893948035,-7155540.797729595 -5612685.159394162,-7582175.196421339 -5280146.112120677,-7975765.339735208 -4906990.770759371,-8330279.264168799 -4496700.797765173,-8639802.633118188 -4053504.398545527,-8898621.36102046 -3582375.414551178,-9101307.31866791 -3089023.135436937,-9242806.261124201 -2579872.337270701,-9318527.034561645 -2062033.1424011255,-9324431.039268056 -1543260.3961939397,-9257120.854429059 -1031902.3659118656,-9113926.86746796 -536838.6868740412,-8892990.698091041 -67407.60985315611,-8593344.166079521 366677.2595502129,-8214982.523572624 755420.3952446165,-7758930.658312323 1088647.4753535641,-7227300.975181522 1356117.5609453137,-6623341.680371388 1547643.5371058173,-5951474.226526849 1653219.8687804344,-5217318.72895959 1663156.569260541,-4427706.233027715 1568218.1279988608,-3590676.8014153587 1359765.9987071436,-2715462.497445756 1029903.1106010426,-1812454.4666514117 571618.7374389,-893153.4632863735 -21068.057090215916,29896.669267612422 -752968.280782168,943192.8760035088 -1627588.1493866232,1832374.2423697882 -2647001.5326927323,2682340.7279440495 -3811731.7902436685,3477388.966170489 -5120645.099311718,4201364.58110618 -6570857.37574882,4837830.22978328 -8157656.860043084,5370248.330065293 -9874444.384961996,5782177.181427518 -11712693.256381605,6057478.932809997 -13661930.564418385,6180537.600675008 -15709741.59722768,6136485.094922089 -17841798.854587074,5911432.9737987155 -20041916.952778116,5492707.424933925 -22292134.476844143,4869084.761741961 -24572823.571964625,4031024.536358398 -26862827.773801185,2970897.205648152 -29139628.260021053,1683203.149282104 -31379538.364023276,164779.73194254178 -33557925.829839386,-1585006.971234504 -35649461.90737045,-3564089.2026542425 -37628395.99308539,-5767546.716048893 -39468854.11699406,-8187481.501351496 -41145159.166459665,-10812921.313886061 -42632170.325946756,-13629755.142153058 -43905638.8041312,-16620703.561246078 -44942576.52127466,-19765326.682495818 -45721634.0459423,-23040072.12394636 -46223483.70678905,-26418365.090966843 -46431203.46813808,-29870742.272552423 -46330656.853400156,-33365030.828217898 -45910863.93396318,-36866573.26501935 -45164358.178921826,-40338498.48711399 -44087523.78862642,-43742038.744989835 -42680908.01798868,-47036891.62243042 -40949502.938967444,-50181625.581494175 -38902991.100414574,-53134126.94503741 -36555949.621760614,-55852085.539035335 -33928007.40853774,-58293515.55021628 -31043950.405506656,-60417307.48600047 -27933770.109429337,-62183806.461597234 -24632650.949777946,-63555411.39205417 -21180892.6124302,-64497189.044111125 -17623763.92826677,-64977496.31326633 -14011285.574112415,-64968603.54507454 -10397939.5351481,-64447311.22608044 -6842304.052119562,-63395551.93856166 -3406613.6186289364,-61800969.11404284 -156244.4975592726,-59657463.84253478 2840872.815833572,-56965700.80666402 5514911.751697584,-53733564.32053656 7794874.969768606,-49976555.470182866 9609382.266922759,-45718121.48249815 10887515.461410994,-40989908.69885873 11559713.540842792,-35831930.90276919 11558710.285473604,-30292645.251780696 10820505.527690489,-24428928.69475493 9285360.197477896,-18305948.51717915 6898804.347363413,-11996921.549056903 3612646.4643897307,-5582757.589357204 -614028.4231520223,848416.2558239993 -5813885.034538661,7201852.363504165 -12010402.291963473,13376901.18386799 -19216990.161739275,19267850.830780502 -27436173.402101144,24764885.313946772 -36658856.87943615,29755157.419439632 -46863687.08282989,34123970.550925255 -58016524.2508799,37756062.106891714 -70070039.11491992,40536979.208054416 -82963447.65148506,42354535.8243884 -96622396.41788006,43100338.604424916 -110959010.01464117,42671367.00367387 -125872110.97589499,40971591.66807669 -141247620.93464547,37913613.47719113 -156959150.24846736,33420304.21549466 -172868781.40906987,27426428.544487655 -188828049.50611177,19880225.818580918 -204679120.78458467,10744929.349346993 -220256167.94151556,200.00000026973626" stroke="white" stroke-width="1.5" /></svg>