<?xml version="1.0" encoding="utf-8" ?>
<svg baseProfile="full" height="400" version="1.1" width="400" xmlns="http://www.w3.org/2000/svg" xmlns:ev="http://www.w3.org/2001/xml-events" xmlns:xlink="http://www.w3.org/1999/xlink"><defs /><rect fill="black" height="100%" width="100%" x="0" y="0" /><circle cx="200" cy="200" fill="yellow" r="10.02053748892755" stroke="orange" stroke-width="2" /><polyline fill="none" points="199.12836432067857,200.0 199.0374807545184,199.9494721364787 198.94737251771284,199.88917833226782 198.85904410853016,199.81898362110098 198.77353961256776,199.73885955886493 198.6919321825838,199.64889146119393 198.6153124461036,199.5492847023404 198.54477591300213,199.44036993381746 198.48140947253458,199.32260708526132 198.4262770865988,199.19658801588943 198.38040480315965,199.06303769289175 198.34476523051387,198.9228137831256 198.32026162919718,198.77690455660345 198.30771179358595,198.62642501445487 198.30783190937728,198.47261117027355 198.32122058589349,198.31681243195968 198.3483432732976,198.1604820512451 198.38951728408082,198.00516562991717 198.44489764534774,197.8524876951848 198.51446401325242,197.70413638147116 198.5980088832105,197.56184628195845 198.69512732902965,197.4273795602062 198.8052085006853,197.30250543984525 198.92742910396575,197.18897821841603 199.0607490754953,197.08851397954717 199.2039096536218,197.0027662055155 199.35543402926515,196.93330051942388 199.5136307410461,196.88156881239726 199.67659995586712,196.84888303593797 199.8422427496648,196.83638896248976 200.0082734733981,196.8450402379362 200.17223525664096,196.87557306778862 200.33151866560632,196.92848189380723 200.48338349430057,197.00399642934826 200.62498362708618,197.10206042947567 200.75339486857365,197.22231257545664 200.86564559286046,197.36406985236084 200.95875001913427,197.5263137928104 201.02974387504173,197.70767994923247 201.07572216352148,197.9064509410479 201.0938787035726,198.12055340193257 201.0815470712715,198.3475591255211 201.03624252488308,198.58469067564738 200.95570445777713,198.82883168947262 200.83793888571324,199.07654205873288 200.68126044155974,199.32407812603128 200.48433332132578,199.56741797984992 200.24621060116195,199.8022918740995 199.9663713263572,200.02421773596998 199.64475476093563,200.22854166008514 199.2817911808054,200.41048321806537 198.87842859505838,200.56518534121633 198.43615478942857,200.6877684609052 197.95701410349812,200.77338851705412 197.4436183793137,200.81729837092763 196.89915155389355,200.81491208493466 196.32736741181543,200.76187146047144 195.7325800667304,200.6541141559106 195.119646802193,200.48794264173617 194.49394297246056,200.2600931895997 193.86132874260866,199.96780403780605 193.22810753401447,199.60888182850104 192.6009761354402,199.1817653726879 191.986966540929,198.68558576917113 191.39337968270638,198.12022188360322 190.82771133933227,197.48635018491044 190.29757061541878,196.7854879393547 189.81059150813994,196.02002877810145 189.37433819622444,195.19326968306385 188.9962048077456,194.30942847851165 188.68331054231476,193.37365097286093 188.44239113967066,192.39200696644346 188.27968779849792,191.37147442697182 188.20083475490344,190.31991123477232 188.2107468276014,189.24601401437084 188.3135083247551,188.15926369721114 188.51226478385328,187.0698576014826 188.8091190792402,185.98862796834624 189.20503348030314,184.92694705818428 189.6997392752508,183.89661908454454 190.29165558939084,182.90975944570195 190.977819021462,181.97866190248737 191.75382569566105,181.11565454433355 192.61378727947985,180.33294558125323 193.55030244747178,179.64246019543143 194.55444517796684,179.05566987985225 195.61577115316243,178.58341588033608 196.72234339280828,178.23572853885975 197.86077808804143,178.02164450731698 199.01631141527562,177.94902395913041 200.17288790119326,178.02437006851136 201.3132706799341,178.25265315084198 202.4191737339745,178.63714195983823 203.47141594273162,179.17924471512686 204.45009647973995,179.8783624850455 205.334790802802,180.7317575714211 206.10476617461129,181.73443953356556 206.73921533710114,182.87907144576062 207.21750664460444,184.1558989043804 207.51944864251297,185.5527041861372 207.6255667634458,187.05478780671282 207.51738950613745,188.64497953863074 207.1777411676838,190.30368071844666 206.59103792191786,192.00893940646236 205.7435837801081,193.73655965796576 204.6238627394909,195.4602458247564 203.22282322497642,197.15178243124828 201.53415076423153,198.7812497631118 199.55452471064837,200.31727487115467 197.28385474665765,201.7273172324133 194.72549286538393,202.9779878282643 191.88641654538242,204.0353999003331 188.77737890436651,204.86554913414483 185.41302174618747,205.43472050340412 181.81194760309938,205.7099184905139 177.99674712417462,205.65931688787276 173.99397847162592,205.25272388639706 169.83409576001955,204.46205767966407 165.55132400847504,203.2618273613552 161.18347857166026,201.62961347773074 156.77172756960664,199.5465422231923 152.36029644610255,196.9977469430662 147.99611444681938,193.97281034093328 143.7284035165993,190.46618058527795 139.6082108648301,186.47755437876052 135.6878872319785,182.01221999942283 132.02051370171532,177.08135335248193 128.65928073337696,171.70226018926223 125.65682392970206,165.89855786073377 123.06452189507154,159.70029028065846 120.93176236941831,153.14397018015217 119.30518363153965,146.27254324313176 118.2278989412498,139.1352693210678 117.73871252080154,131.78751663492113 117.8713362501977,124.29046568000334 118.65361685620923,116.71072045231298 120.10678389896866,109.11982560778137 122.24472929096339,101.59368924250222 125.07332940951224,94.21191213462943 128.5898210743004,87.05702550795495 132.78224274590235,80.21364065252209 137.62895224993576,73.76751505688365 143.0982321361237,67.80454105628957 149.1479934348658,62.40966436644979 155.7255880701209,57.66574123761512 162.76773952221964,53.652344311564434 170.20060050512728,50.444528576739 177.93994542899003,48.1115700755592 185.89150426187558,46.71569120360235 193.95144308790427,46.31078753318752 202.00699518814676,46.94117207417193 209.93724485371138,48.64035373269107 217.61406438768867,51.4298674247525 224.9032028767622,55.318173827197484 231.66552332943823,60.29964708560729 237.7583827034266,66.35366893043633 243.03714719946117,73.44384756360996 247.35683300473687,81.51737935433496 250.57386045016443,90.50457081328813 252.54790732775768,100.31853748924108 253.14384492532696,110.85509534472025 252.2337382044147,121.99285881343948 249.6988895044692,133.59355812097004 245.4319032329349,145.5025865636975 239.3387472291781,157.54978629526005 231.3407849021625,169.55047877368415 221.37675086959945,181.30674338938044 209.40464170142602,192.60894494094347 195.40349252352704,203.23750757298146 179.375009697671,212.96492956271794 161.3450295880468,221.55802996818477 141.36477357845368,228.78041466270378 119.51187003928777,234.39514571374428 95.89111487886619,238.16759445826358 70.63494366450519,239.86845502350897 43.90359007614782,239.27689148699264 15.884907665664088,236.1837884093821 -13.206165460273212,230.39507115879738 -43.1285163404028,221.73505932541042 -73.61615505220402,210.04981365320063 -104.3799107057581,195.21043434356756 -135.10953115840738,177.11626636527797 -165.47618742631283,155.69796558815767 -195.13537880171367,130.92037819360885 -223.73022943443328,102.78518495074147 -250.89516164930222,71.33326162689156 -276.2599256000877,36.64670706599304 -299.4539590634741,-1.149508646464625 -320.11104531728927,-41.88632197677498 -337.8742311942366,-85.34982352753002 -352.40096162912675,-131.2810163408369 -363.3683814012061,-179.37612223882712 -370.4787493938886,-229.28746920514158 -373.4649056350522,-280.62498779686376 -372.09572672618435,-332.95833887811636 -366.1815011032421,-385.8196886095284 -355.5791519806305,-438.70713964687036 -340.19723289533454,-491.08881994244723 -320.0006185715258,-542.4076224596146 -295.0148124435894,-592.0865805695415 -265.32979167924486,-639.5348549756528 -231.1033109997985,-684.154298790468 -192.5635880596277,-725.3465579666462 -150.01129567116294,-762.5206547625515 -103.82078978442422,-795.1009924145869 -54.440506880182,-822.5357098128795 -2.3924703292946106,-844.3053058593518 51.729147688814265,-859.9314444583645 107.26045393913279,-868.985842884659 163.47128749918903,-871.0991387283696 219.56972432982445,-865.9696238705344 274.70764726782687,-853.371728132287 327.98738335290966,-833.1641305015785 378.4693972465856,-805.2973723037904 425.18101560418063,-769.8208444712424 467.12614274676247,-726.8890202978533 503.2959129863301,-676.7668058451654 532.6802096395463,-619.8338825887963 554.2799652915813,-556.5879210397553 567.1201424241731,-487.6465500070807 570.2632782948149,-413.7479739325305 562.8234631512179,-335.7501403509094 543.9806066994176,-254.6283710157092 512.9948344339904,-171.47138356102613 469.22084320771785,-87.47564570496286 412.12203449009513,-3.9380208693854684 341.28423436250915,77.75331739763509 256.42880164194986,156.12970477739242 157.4249198268709,229.65452048768293 44.30086502027646,296.73739510799 -82.74595920500445,355.75002688305443 -223.34042770357394,405.04351708671203 -376.92274411890935,442.96711012862966 -542.743332605687,467.88819894140795 -719.8597580997754,478.21343109074724 -907.135849634145,472.4107263225705 -1103.2431854900726,449.03199223027354 -1306.6650802369854,406.73630173831737 -1515.703191981466,344.3132745110677 -1728.4868434858938,260.70638457039246 -1942.9851233409781,155.03589870661762 -2157.021803236503,26.621135057760142 -2368.293074768688,-124.99828113281342 -2574.3880743899626,-300.0424967454516 -2772.812128332663,-498.47318282337653 -2961.012610949236,-719.9772990804569 -3136.4072702776625,-963.9532082693552 -3296.414834171528,-1229.4994711866384 -3438.487669476969,-1515.406641918888 -3560.146225976107,-1820.152367037755 -3659.0149566618743,-2141.9000717136964 -3732.859366902347,-2478.501490071245 -3779.623807756883,-2827.503266544241 -3797.469593698555,-3186.1578195567795 -3784.812992868266,-3551.438618671716 -3740.3626093262797,-3920.059981592938 -3663.155652166675,-4288.50144833219 -3552.592566397332,-4653.036736777141 -3408.4694857207414,-5009.767227216344 -3231.0079583116294,-5354.659863553106 -3020.8813938721173,-5683.5892965077555 -2779.237684105249,-5992.38402966774 -2507.7174596829686,-6276.87626346526 -2208.467465132652,-6532.955065771461 -1884.148559095136,-6756.622431578782 -1537.9378813074954,-6944.051729035254 -1173.5247695419457,-7091.647965774805 -795.1000595998139,-7196.109248969741 -407.3384592333266,-7254.4887557573975 -15.373752357201795,-7264.256478617731 375.2333371802599,-7223.359963866479 758.5347130811948,-7130.283221635817 1128.2419097530046,-6984.102953478734 1477.7804433079837,-6784.541219962937 1800.3513252535522,-6532.013656177578 2088.999452174261,-6227.672338764969 2336.6884799262375,-5873.442414642954 2536.381683935949,-5472.051619648237 2681.1281993026455,-5027.051845450985 2764.1539268276824,-4542.831955702277 2778.956285191186,-4024.6211077821827 2719.40188669814,-3478.481904886798 2579.8261158083637,-2911.2927845451127 2355.1334975767863,-2330.719143847806 2040.8976587177197,-1745.1728083890032 1633.4596088336457,-1163.7595706799852 1130.0230049689098,-596.2146539193816 528.74501058575,-52.82609764064864 -171.17867821282346,455.65378814073347 -969.4360894738268,918.1085953257748 -1864.5299720480552,1323.169146573827 -2853.7189778676175,1659.335340124923 -3932.970445790689,1915.107696331717 -5096.926153531258,2079.127616309206 -6338.88233445735,2140.325188354608 -7650.785165506319,2088.073205811319 -9023.24282086376,1912.3458931752518 -10445.555053360193,1603.8806778863752 -11905.761111995582,1154.3411958992388 -13390.706630120145,556.4795823116513 -14886.129925380585,-195.70402340817645 -16376.767940682814,-1106.8069321951916 -17846.481826525887,-2179.8765788252513 -19278.401920832493,-3416.272734282226 -20655.09162485321,-4815.54161418521 -21958.72940516328,-6375.304250422768 -23171.307874808106,-8091.161474384222 -24274.8486241695,-9956.617810954602 -25251.631187262497,-11963.02650132329 -26084.43424531653,-14099.557758515692 -26756.786890245578,-16353.19221160714 -27253.227499751698,-18708.74131238927 -27559.567517264244,-21148.896261807575 -27663.157187737103,-23654.306763171866 -27553.15007861865,-26203.690625807034 -27220.76301819793,-28773.97492776965 -26659.527915120343,-31340.469101305556 -25865.531787174084,-33877.06993215293 -24837.641228349956,-36356.49806638703 -23577.70748436066,-38750.56519953883 -22090.748291700056,-41030.47068597257 -20385.102667040315,-43167.12585621029 -18472.554915051594,-45131.5038707484 -16368.424255891998,-46895.0124760379 -14091.616660471567,-48429.88656720391 -11664.63572341655,-49709.59700861695 -9113.549701123527,-50709.27172375716 -6467.912195419462,-51406.12464631606 -3760.6343714726127,-51779.88773173618 -1027.8070603360131,-51813.24086907737 1691.5283903052923,-51492.23421391882 4355.661091903759,-50806.697190625855 6920.543385575074,-49750.62819325349 9340.174728895943,-48322.55885491369 11567.035338896638,-46525.88666158534 13552.567520828308,-44369.169663651024 15247.701880120296,-41866.377091954986 16603.424868594888,-39037.08981932637 17571.383363812252,-35906.64482703539 18104.521231344057,-32506.218141485242 18157.74208334476,-28872.84110162195 17688.59173301518,-25049.345303146303 16657.95316383056,-21084.23214164915 15030.746195414107,-17031.46354215077 12776.62344553227,-12950.17121491792 9870.653670770876,-8904.28261332685 6293.9831278354995,-4962.062684127938 2034.4652436990639,-1195.5714876455263 -2912.7513737860013,2319.9611822057286 -8544.686702990182,5506.841939415949 -14850.055005471015,8285.69731499166 -21808.862514907636,10576.330049396543 -29392.086958884258,12298.642370923939 -37561.448395943626,13373.619240345059 -46269.28034992002,13724.363325363118 -55458.50957790342,13277.172272533704 -65062.75201561386,11962.647685667656 -75006.5315044423,9716.824115217509 -85205.62681987151,6482.305330132031 -95567.55129512155,2209.394199778647 -105992.16797251228,-3142.798323503288 -116372.44172604295,-9605.280343278255 -126595.3281920264,-17198.15807239128 -136542.79763239686,-25929.683006729803 -146092.9900517745,-35795.383664139365 -155121.49601081686,-46777.298383597205 -163502.7556431823,-58843.32552827998 -171111.56641185473,-71946.7070712641 -177824.68815470542,-86025.66095451005 -183522.53199276235,-101003.17679287598 -188090.91773294465,-116786.98843991563 -191422.88251646096,-133269.73563844676 -193420.52167216633,-150329.32544643118 -193996.84105917698,-167829.5023606862 -193077.59865357075,-185620.63406353368 -190603.111778882,-203540.7175002019 -186530.00522784723,-221416.60757048117 -180832.87460137895,-239065.46810307316 -173505.83852699012,-256296.44199504342 -164563.95303837198,-272912.5344649963 -154044.46132421432,-288712.7003136408 -142007.85230919768,-303494.1229391635 -128538.70213211137,-317054.66965037276 -113746.27355112358,-329195.50459382706 -97764.84964658268,-339723.8374007765 -80753.7799158693,-348455.78250678 -62897.21896699499,-355219.30104439455 -44403.54051755057,-359857.1943020218 -25504.412288142456,-362230.11502578505 -6453.520634372591,-362219.56036278256 12475.062626834762,-359730.80804993544 30988.874793200357,-354695.7555893055 48779.41759524946,-347075.6206635458 65524.86806287904,-336863.4599777087 80893.13497376935,-324086.4631074098 94545.24594857093,-308807.97782678687 106139.04514225494,-291129.2238175179 115333.17627222584,-271190.6526529144 121791.32048032271,-249172.91353426498 125186.65331056574,-225297.386449971 125206.47996421602,-199826.24724522853 121557.00303847615,-173062.03253780847 113968.17223763511,-145346.67649315935 102198.56114028578,-117059.99617113026 86040.21208914004,-88617.60746023792 65323.38671684547,-60468.25949801081 39921.156607444296,-33090.58190333202 9753.7661922041,-6989.246075136778 -25207.30173850331,17309.450811086263 -64935.62849168058,39262.56271365877 -109346.6006337331,58316.0080665556 -158294.65987836447,73910.58676046811 -211571.13008478665,85488.45950472914 -268902.6871546475,92500.0397917458 -329950.53402783314,94411.24021406421 -394310.3383750436,90711.00656977155 -461512.98495814507,80919.06514859223 -531026.1879790935,64593.80093694125 -602257.0010789345,41340.17733666753 -674555.2540077436,10817.601482305432 -747217.9354060697,-27252.366511243454 -819494.5306748016,-73078.56691226801 -890593.3126344193,-126793.1667635027 -959688.5706721056,-188445.07247842546 -1025928.7514469164,-257993.94335797906 -1088445.4710843482,-335304.92095726513 -1146363.345271372,-420144.1880307258 -1198810.5699040166,-512175.4680882529 -1244930.1710971661,-610957.57233695 -1283891.829606853,-715943.0949124582 -1314904.171215734,-826478.349784395 -1337227.401578168,-941804.6335363956 -1350186.1516043623,-1061060.8873745704 -1353182.387880706,-1183287.8192328901 -1345708.2320755925,-1307433.5327655151 -1327358.5239674516,-1432360.6944129553 -1297842.9548526027,-1556855.252693006 -1256997.5918392676,-1679636.7055147719 -1204795.6090973536,-1799369.8917849534 -1141357.0396880212,-1914678.2630338683 -1066957.3613065323,-2024158.5694223305 -982034.731284459,-2126396.872510173 -887195.690641958,-2219985.7748049027 -783219.1639653759,-2303542.733617614 -671058.5914930981,-2375729.304404056 -551842.0420793216,-2435271.1368488963 -426870.17069809337,-2480978.52576251 -297611.90184319305,-2511767.298714656 -165697.74053391936,-2526679.803548375 -32910.63557773512,-2524905.741825649 98825.65484417678,-2505802.579179684 227460.71746357784,-2468915.2508092094 350834.1504060255,-2413994.870263352 466694.7024090219,-2341016.142534672 572721.8119039765,-2250193.1785889217 666549.4383395067,-2141993.4080795487 745792.0423862556,-2017149.2903614603 808072.5353151101,-1876667.5312423804 851051.9812933076,-1721835.524364237 872460.8000374961,-1554224.7518261417 870131.1816673282,-1375690.898734722 842030.3912078267,-1188370.4608385363 786294.6075019334,-994673.6532614076 701262.9108374091,-797273.4615295839 585511.0058926407,-599090.7134661151 437884.2421933692,-403275.09191930067 257529.4736706887,-213182.0534543072 43925.28263125726,-32345.666758637122 -203089.9180143299,135552.56377993643 -483292.39660465595,286718.7695067005 -796050.7214774622,417285.5076196988 -1140306.9738092877,523354.0355500923 -1514562.0296783287,601039.7761007309 -1916865.3677070534,646520.6204572554 -2344809.8329299474,656087.6572145373 -2795531.754742119,626197.857762709 -3265716.776849969,553528.1925488608 -3751611.7100838893,435030.59969929996 -4249042.66485445,267987.17809988005 -4753439.6591374865,50064.93214709393 -5259867.830465393,-220630.6441402496 -5763065.306879657,-545503.8892685923 -6257487.712671859,-925419.974562532 -6737359.200613876,-1360659.3729135117 -7196729.813965625,-1850876.5961227182 -7629538.88966334,-2395064.001510416 -8029684.119642733,-2991521.4590743165 -8391095.79124357,-3637832.650618809 -8707815.631165344,-4330848.741490968 -8974079.581665516,-5066680.123499145 -9184403.74385175,-5840696.87402409 -9333672.632314822,-6647538.511156944 -9417228.799322372,-7481133.54794588 -9430962.806723056,-8334729.2606834285 -9371402.450991664,-9200931.986953478 -9235800.082873354,-10071758.159372661 -9022216.809243208,-10938696.16126424 -8729602.322433347,-11792778.961718976 -8357869.072689026,-12624667.35061903 -7907959.483822427,-13424743.450390464 -7381904.911668338,-14183214.031829793 -6782875.060631064,-14890223.007806534 -6115216.606329026,-15535972.322608277 -5384479.822832389,-16110850.297941465 -4597432.081805211,-16605566.34103533 -3762057.1783848936,-17011290.767930396 -2887539.5450168736,-17319798.347975202 -1984232.539655287,-17523614.035994932 -1063610.1384410374,-17616159.228767652 -138201.52463007034,-17591896.76461783 778491.7556417838,-17446472.78137892 1672096.2052803885,-17176853.46093746 2527484.280745018,-16781454.620230667 3328909.491326351,-16260262.06103909 4060158.161424417,-15614940.566175424 4704717.081061639,-14848929.42955664 5245956.020227667,-13967522.433807943 5667323.829035998,-12977930.242923014 5952556.59096446,-11889323.260274014 6085896.043749488,-10712853.114840386 6052316.235084696,-9461651.081498213 5837756.141569754,-8150801.914841895 5429355.752918328,-6797291.780188445 4815692.912904191,-5419929.199651627 3987018.017583946,-4039238.1945623653 2935483.503673405,-2677323.096734894 1655364.9192157674,-1357704.8183733143 143270.25841546885,-105128.71157812796 -1601665.83385911,1054655.4891906173 -3577606.421667904,2095140.7678065232 -5779858.6346302405,2989335.7012817296 -8200745.410963819,3710061.433799038 -10829505.927646391,4230270.662893684 -13652227.882767107,4523386.1368645765 -16651814.6110312,4563655.752039172 -19807989.7798699,4326520.9367812555 -23097342.130282145,3788994.621697811 -26493412.39358524,2930044.7281474127 -29966824.133493785,1730978.7657924385 -33485459.83386716,175824.82055922432 -37014683.078224264,-1748296.057037164 -40517607.150605105,-4050811.2807625495 -43955409.83214983,-6737357.37014201 -47287693.57818687,-9809465.322617723 -50472889.641700074,-13264276.296691166 -53468704.066526964,-17094293.183347613 -56232602.813920595,-21287173.570478257 -58722332.61626071,-25825569.459103115 -60896473.47936745,-30687018.867858455 -62715018.08825909,-35843894.16109575 -64139972.718968205,-41263411.554507054 -65135973.63029337,-46907705.789834835 -65670912.31346592,-52733973.42722803 -65716562.424315155,-58694687.58158454 -65249200.721322946,-64737886.23016107 -64250213.89370128,-70807535.44640326 -62706682.79593455,-76843968.07405859 -60611935.318453446,-82784397.45203869 -57966058.92724606,-88563504.84125061 -54776363.80672665,-94114098.19790809 -51057787.547905274,-99367838.89303732 -46833232.44482309,-104256031.90541717 -42133826.70244433,-108710473.92656493 -36999101.22370876,-112664352.72403455 -31477074.136049785,-116053190.02658881 -25624235.840814568,-118815819.13583726 -19505428.12368894,-120895387.44849911 -13193611.749833765,-122240373.10677734 -6769517.981752557,-122805604.09709679 -321180.59692302044,-122553267.30544269 6056653.759874539,-121453894.32656527 12263237.685498431,-119487310.22999357 18192656.913904253,-116643531.02333748 23734783.762525562,-112923595.23735663 28776346.256384395,-108340314.90141952 33202107.357640717,-102918931.19501898 36896146.98467356,-96697660.26225995 39743237.735396035,-89728115.07149869 41630303.45461385,-82075589.7998031 42447948.02652565,-73819194.027518 42092040.05396611,-65051825.04613418 40465337.429618254,-55879967.814147756 37479134.23614424,-46423313.539953284 33054910.957240146,-36814189.52399483 27125967.665899035,-27196794.74817058 19639018.70513975,-17726237.748991698 10555726.415716019,-8567375.53999112 -145849.2807100584,106545.25760249338 -12469909.14180516,8115441.377295527 -26401704.65381072,15274133.600659624 -41906483.78059703,21394266.056328777 -58928615.98897026,26286392.16497551 -77390919.47645356,29762212.39487264 -97194212.54903667,31636946.108981926 -118217109.77888535,31731816.927965745 -140316081.90988973,29876628.241681214 -163325796.4693175,25912402.813434668 -187059753.6889707,19694057.87712301 -211311229.64475575,11093084.768491374 -235854535.50076014,200.00000028883875" stroke="white" stroke-width="1.5" /><circle cx="150.12137650011238" cy="203.4817980637104" fill="red" opacity="0.7" r="13.414709848078965" /></svg>