<?xml version="1.0" encoding="utf-8" ?>
<svg baseProfile="full" height="400" version="1.1" width="400" xmlns="http://www.w3.org/2000/svg" xmlns:ev="http://www.w3.org/2001/xml-events" xmlns:xlink="http://www.w3.org/1999/xlink"><defs /><rect fill="black" height="100%" width="100%" x="0" y="0" /><circle cx="200" cy="200" fill="yellow" r="20" stroke="orange" stroke-width="2" /><polyline fill="none" points="199.1170709069989,200.0 199.17014310652152,199.95643630394642 199.23191561186735,199.9191353120793 199.30203207407226,199.88926510877093 199.38000285560983,199.86798894652642 199.46520200936678,199.85645076000833 199.55686574491972,199.85575996034655 199.65409250060597,199.8669756510296 199.75584472783387,199.89109042334312 199.8609524798993,199.92901390514274 199.9681188812996,199.98155625147012 200.07592753522368,200.04941177887991 200.18285190664216,200.13314295709247 200.28726669634113,200.2331649814605 200.38746119749723,200.34973115749506 200.4816546011545,200.48291933409496 200.56801319045908,200.63261962494178 200.6446693359727,200.79852365755 200.70974217609856,200.98011558651314 200.76135983791374,201.17666510139696 200.79768302483754,201.38722265036878 200.81692976892523,201.61061708791112 200.81740111753612,201.8454559387833 200.79750749706741,202.09012845073644 200.75579547077916,202.3428115853658 200.69097458386773,202.60147906995758 200.60194396729773,202.86391360335608 200.4878183528904,203.12772227589042 200.34795313620248,203.3903552274586 200.1819681112205,203.64912752921884 199.98976949222245,203.90124423328328 199.77156983369161,204.1438284916966 199.52790545923986,204.37395260121326 199.25965101541593,204.5886717844011 198.96803077629846,204.78506047089698 198.6546263401234,204.96025079574292 198.3213803800361,205.11147298522056 197.970596137497,205.23609725507384 197.604932378955,205.33167680210096 197.22739357410953,205.39599142846114 196.84131509732345,205.42709129934923 196.45034330235197,205.4233402996188 196.05841037427516,205.38345842416513 195.6697039210375,205.30656261107922 195.2886313298997,205.1922054064097 194.91977898090644,205.04041083544973 194.56786647960158,204.8517068483881 194.2376961440251,204.62715370848161 193.93409805578318,204.3683676991024 193.6618710608902,204.07753954252237 193.42572018227438,203.75744694846347 193.23019098138795,203.41146074453704 193.07960148028516,203.0435440838903 192.97797232679747,202.65824427774558 192.92895595298313,202.2606768620222 192.93576553976487,201.85650157771684 193.00110465749526,201.4518900239124 193.1270985019998,201.05348482978488 193.31522768735312,200.66835028725038 193.5662655891845,200.30391448827658 193.8802202546628,199.9679031195751 194.25628190652114,199.66826518146726 194.6927770676601,199.41309101611287 195.18713031922,199.21052315183076 195.73583467784806,199.06866059361616 196.3344315366396,198.99545731376347 196.97750105846947,198.99861581922178 197.6586638398778,199.0854767923456 198.37059457821465,199.2629059173808 199.10504837445026,199.53717911461604 199.85290018917095,199.91386750586167 200.60419784026251,200.3977235269992 201.34822878828587,200.99256968398217 202.07360080044938,201.70119151609805 202.76833641745918,202.52523638278996 203.419980970687,203.46511972624256 204.01572371154936,204.51994047969123 204.5425314224671,205.68740728959008 204.98729368119697,206.9637771970761 205.33697874982076,208.34380837948618 205.57879885853393,209.8207284850956 205.7003834550609,211.38622000306694 205.68995879563536,213.0304239953729 205.53653206574495,214.74196337801578 205.23007804106237,216.5079867753166 204.76172613405083,218.31423378381487 204.1239455225496,220.14512227214203 203.3107259261293,221.98385811119184 202.3177514870267,223.8125674764284 201.14256512782757,225.61245159301922 199.7847207004411,227.3639635067816 198.2459202128327,229.04700616215584 196.5301334237767,230.64115075537654 194.6436971336476,232.12587400985194 192.59539157278962,233.48081269492192 190.39649139977413,234.68603338239694 188.06078897098539,235.72231511158134 185.6045877311826,236.5714423170902 183.04666380224904,237.21650506910134 180.4081941140557,237.6422033873248 177.712649726547,237.8351521225938 174.98565333457782,237.78418265832235 172.2548003249262,237.48063747285823 169.54944316595183,236.91865342765854 166.90043935167432,236.09542950976692 164.33986359013883,235.0114746646323 161.90068541679648,233.67083131097658 159.616413922668,232.08127013696617 157.5207118091669,230.25445183975086 155.64698151101155,228.20605159142386 154.02792665956997,225.95584219601966 152.6950926847326,223.52773214610312 151.6783908671232,220.94975509495117 151.0056106469289,218.25400763172502 150.70192546342068,215.47653268203217 150.7893978327411,212.6571463537347 151.28648976306158,209.83920660577152 152.20758494808055,207.06932273322923 153.56252946446196,204.39700533112529 155.35619791883087,201.8742571176278 157.5880921382809,199.55510575908127 160.25197956836084,197.49508063766714 163.33557852808275,195.75063633033307 166.82029736714577,194.37852641644665 170.68103437158413,193.43513209231355 174.88604496655344,192.97575093333506 179.39688236607194,193.05385199856738 184.16841731740857,193.7203043065792 189.14894198177493,195.02258651408138 194.28036228363501,197.00398638772427 199.4984822501794,199.70279936236128 204.73338295362453,203.15153611346412 209.90989766672345,207.3761496247669 214.94818375242517,212.3952926923042 219.7643906397123,218.21961716082006 224.2714219984965,224.8511264265959 228.3797889277717,232.28259285129656 231.9985496251853,240.49705170455076 235.03632962635547,249.46738307979112 237.40241530354672,259.15599290074135 239.00791191184828,269.5146036486151 239.7669560840253,280.48416478790233 239.59797132096872,291.99489204866234 238.4249537221799,303.9664437344592 236.1787739696735,316.30824106847496 232.7984804391517,328.91993826905605 228.23258728461457,341.6920465654145 222.44033044698824,354.50671473214857 215.3928737938685,367.23866694784715 207.07444702552772,379.75629688087264 197.48339660052105,391.92291488953697 186.63313076003558,403.59814311174523 174.55293977962452,414.6394510306203 161.28867286453234,424.9038218597374 146.90325364279684,434.24953781867185 131.4770170087977,442.53807009284895 115.10785113643287,449.6360570192446 97.91112982029475,455.4173518410043 80.01942191672981,459.76511926043315 61.581966542763865,462.5739580231012 42.76390484437161,463.7520249186363 23.745261557578317,463.22313391914633 4.719672243703258,460.928802727077 -14.107145032906715,456.8302178031148 -32.51917172060803,450.91008802303327 -50.292119345812665,443.17435650037066 -67.19570004866728,433.6537398378477 -82.99612495099842,422.4050641605321 -97.45881457236999,409.51236776124904 -110.35130181621929,395.08774107354304 -121.4463043491042,379.2718759959872 -130.52493953779077,362.23429833584066 -137.38005153947017,344.1732593274918 -141.81961671018468,325.3152648142712 -143.67019025754792,305.9142237581542 -142.78035406917422,286.250201252006 -139.02412295151123,266.6277651387631 -132.3042641685011,247.37391967051443 -122.55548322838075,228.83562434070691 -109.74742738121847,211.3769010610708 -93.88745730842874,195.37553819134465 -75.02313705451758,181.21940551799392 -53.24439241291006,169.30240006527137 -28.6852887695633,160.02004854945105 -1.5253808625668626,153.7647982905659 28.009410940660246,150.9210344058942 59.64644039516966,151.85986705144222 93.06653013369818,156.93373827329185 127.9047561033679,166.47090359802598 163.75185134637053,180.76984874596522 200.15625306652754,200.09370670632606 236.62681052198872,224.66474478253102 272.636164235585,254.65899501180849 307.6247993629919,290.20110450036253 341.00576785955457,331.3594846105708 372.1700654047774,378.1418395104313 400.4926399547307,430.49115527322806 425.3389993827937,488.2822304286774 446.0723760337903,551.3188275546372 462.06139626044836,619.3315231084584 472.688193247481,691.9763291867646 477.35689177843915,768.834156240531 475.50238419143307,849.4111799396542 466.59930773508506,933.1401683718823 450.1711250131051,1019.3828175835291 425.7992013349924,1107.4331341470897 393.1317657131152,1196.521893013323 351.8926361040401,1285.8221874279886 301.88958442346166,1374.4560752388834 243.0222130044133,1461.502312576511 175.2892116465909,1546.0051517682343 98.79486334155936,1626.9841655644864 13.75466726526517,1703.4450444562901 -79.50005019552839,1774.3912982017864 -180.51866168785733,1838.8367768261076 -288.72902196297895,1895.8189104981707 -403.436619705,1944.4125520168236 -523.8252005247332,1983.7442903645012 -648.9589520889299,2013.0070891262894 -777.7863290204718,2031.4750897491026 -909.1455800119049,2038.5184068577964 -1041.7720226073334,2033.6177313825922 -1174.3070924173185,2016.3785473144205 -1305.3091732564785,1986.5447597174884 -1433.2661929801527,1944.0115254107332 -1556.6099468184902,1888.837073691027 -1673.7320859648228,1821.2533028072307 -1783.0016842980606,1741.6749387853558 -1882.7842706597467,1650.7070468110364 -1971.4621883426512,1549.1506918334492 -2047.4561176802395,1438.0065544752333 -2109.2475721744263,1318.4763207971735 -2155.4021538013153,1191.961680023317 -2184.5933293428925,1060.0607829952696 -2195.6264671704826,924.5620358696154 -2187.46285322389,787.4351283356893 -2159.243386362317,650.8192233063321 -2110.3116371818974,517.008265472547 -2040.235941166854,388.433399120624 -1948.8301870223445,267.6425209487311 -1836.1729545665107,157.27703100559197 -1702.6246539557492,60.04588397909268 -1548.8423195713365,-21.302916484403482 -1375.7917178673215,-84.01319636094473 -1184.7564390899497,-125.35363678995634 -977.3436582068396,-142.65267876972325 -755.4862707603888,-133.334997863232 -521.4411347623341,-94.95919950797554 -277.783180195657,-25.25634691035657 -27.39518314546774,77.83110286753528 226.54695806382873,216.11041255130027 480.59356226551495,391.10021603049154 731.0451883578331,603.9932214955126 973.9813559670949,855.6205017370224 1205.2939206056817,1146.4179231561566 1420.7249992430154,1476.395275401101 1615.9092786074266,1845.1086676178854 1786.420472762381,2251.6367546084443 1927.8216292242466,2694.561346307213 2035.718914847129,3171.952936560476 2105.8184446885307,3681.361661932003 2133.985649935502,4219.814167953477 2116.306615608746,4783.8168187647425 2049.1507561035055,5369.3656364158105 1929.2341376314484,5971.963298298451 1753.6827022765012,6586.643455415159 1520.0945996570422,7208.002560761698 1226.6007900796274,7830.239316397077 871.9230485430045,8447.201760318241 455.4284729420748,9052.44192068125 -22.820416775853687,9639.277865971311 -562.0209080990697,10200.862876292313 -1160.5915690154825,10730.261354007727 -1816.140863226177,11220.530982614788 -2525.443777450847,11664.8105321726 -3284.4272893975403,12056.412599124596 -4088.1654505216293,12388.920459337927 -4930.884789976728,12656.288107082182 -5805.980665113765,12852.942450998471 -6706.045089633876,12973.886542435137 -7622.906463330254,13014.802623434403 -8547.681507733754,12972.153702751784 -9470.839580561393,12843.282300174931 -10382.279399499275,12626.50494364788 -11271.418053570836,12321.200961823959 -12127.292019378277,11927.894088116656 -12938.66973127927,11448.325382447167 -13694.175080680197,10885.515984943095 -14382.421041875734,10243.818242924806 -14992.15244219353,9528.95379955931 -15512.396714719496,8748.037300322672 -15932.62129483016,7909.584462430571 -16242.896149506512,7023.503362992596 -16434.059763417223,6101.067933887826 -16497.88675057267,5154.872805050651 -16427.255117554905,4198.768812522957 -16216.311076528931,3247.7786825034673 -15860.629196029327,2317.992616635475 -15357.365587444589,1426.443735541058 -14705.401757659734,590.9635854387449 -13905.476715816307,-169.98182543479942 -12960.304906811025,-837.4747202568753 -11874.677557991034,-1392.3459538186194 -10655.545070292143,-1815.3918074502649 -9312.078162329504,-2087.605574635389 -7855.705586895316,-2190.4220416773887 -6300.126384825095,-2105.972680227367 -4661.294821767415,-1817.3490888236176 -2957.3763691300205,-1308.871952835762 -1208.673341057341,-566.3625404803969 562.4809160731206,422.58647891633564 2331.860067715814,1668.3443152545758 4073.5155063906564,3178.9830357770256 5759.979798430378,4960.029985660364 7362.502519303247,7014.235504456986 8851.317708540399,9341.359859791839 10195.941730292147,11937.983343528831 11365.49986582637,14797.343451954188 12329.079494596923,17909.2029974945 13056.107246026539,21259.75287264262 13516.74703044882,24831.553005148453 13682.315390681068,28603.51480573171 13525.710161715217,32550.928114787956 13021.847991535276,36645.53530263919 12148.105867806555,40855.65476937473 10884.761419970102,45146.35562653112 9215.426430997102,49479.68482584107 7127.467704555572,53814.947432902474 4612.409198339351,58109.040129569425 1666.3091593133638,62316.83737266363 -1709.8941121666658,66391.62894358051 -5510.074279206143,70285.60689967689 -9722.653135584478,73950.3991909412 -14330.387170309406,77337.64644203747 -19310.210568195806,80399.61762885404 -24633.140387775627,83089.85960921604 -30264.249269144333,85363.87470914562 -36162.710543032525,87179.81982913485 -42281.920038246775,88499.21982994421 -48569.698218579026,89287.68729536762 -54968.5755244657,89515.64016130927 -61416.16295247859,89159.00815759023 -67845.60898184548,88199.91854226403 -74186.14295764407,86627.35122877402 -80363.70397246012,84437.7531246008 -86301.65316086537,81635.60132618413 -91921.56614407452,78233.90475822586 -97144.10114691878,74254.63391456204 -101889.93706838356,69729.06856019206 -106080.77453410775,64698.0535961743 -109640.39170922605,59212.15377605364 -112495.74541850033,53331.6985979198 -114578.10692437565,47126.70948213676 -115824.22056966522,40676.70228154621 -116177.47241775597,34070.359256980955 -115589.05503756652,27405.065882707047 -114019.11370117987,20786.30921838482 -111437.85850714552,14326.936088646587 -107826.62632965422,8146.270938545039 -103178.87604024341,2369.094970954767 -97501.10017072645,-2875.5099937282557 -90813.6360988682,-7455.447580893745 -83151.35995580097,-11237.015517350934 -74564.24678855216,-14086.427531441328 -65117.781072703336,-15871.437113768243 -54893.20246734196,-16463.049723883778 -43987.572742973534,-15737.308028306203 -32513.651096177113,-13577.132813048072 -20599.56659292166,-9874.20035744415 -8388.278253030177,-4530.835314320973 3963.1847045137806,2538.1034562093114 16284.707700998217,11403.368076302175 28394.303518049102,22119.52306166094 40099.55304566228,34723.22914271017 51199.27137771474,49231.63641416702 61485.39359056962,65640.91417594432 70745.07142707816,83924.94496216529 78762.96889561584,104034.21005586527 85323.74151508177,125894.89323487374 90214.6806284082,149408.22857264386 93228.50090823846,174450.11681317218 94166.2459306932,200871.03314211228 92840.28354042188,228496.24708172746 89077.35971797453,257126.3727447331 82721.67683583136,286538.26479578606 73637.95959988612,316486.272198889 61714.469666763245,346703.8581892803 46865.92795169472,376905.59091998753 29036.302043537416,406789.5049224176 8201.414968034958,436039.828919215 -15628.66916945995,464330.0706738555 -42407.52733485878,491326.44449858816 -72050.57184512344,516691.62181938067 -104433.60020043472,540088.7798676473 -139391.74237914258,561185.9181930148 -176718.84537017383,579660.4073329623 -216167.33194405504,595203.7287016 -257448.5672441822,607526.3596424804 -300233.76271372905,616362.7527032988 -344155.4421678801,621476.3536098046 -388809.48949162243,622664.5982197536 -433757.791514693,619763.8250032907 -478531.4831210177,612654.0364010116 -522634.7946330569,601263.4398311293 -565549.4940241602,585572.6972259333 -606739.908616018,565618.8108446578 -645658.5026842486,541498.5727999617 -681751.9789032532,513371.5063073875 -714467.8628996357,481462.22817337856 -743261.5214484097,446062.1645215258 -767603.5561415929,407530.55525334453 -786987.5057948456,366294.6872732342 -800937.7825506391,322849.30209052726 -809017.7587065581,277755.13004550367 -810837.9138685932,231636.51107874914 -806063.9452277173,185178.07064843256 -794424.737710352,139120.4290577607 -775720.085585053,94254.93302996703 -749828.0529422616,51417.40979067365 -716711.8574202337,11480.956101958798 -676426.1597411429,-24652.21246158253 -629122.6411522222,-56059.81331254478 -575054.7518331849,-81809.39723604555 -514581.5158171139,-100969.03079060197 -448170.28204847703,-112618.67995939728 -376398.31692471495,-115862.20014548331 -299953.1410759599,-109839.82369642606 -219631.52225168244,-93741.02265777004 -136337.04700435276,-66817.61158651131 -51076.2063679882,-28396.943206922955 35047.05511832073,22104.961333541072 120838.36196187533,85170.5156453574 205021.5195443759,161168.0811128144 286248.7143361455,250340.07286896734 363112.28177995974,352791.84675324097 434158.0002312374,468481.5581639553 497899.84756258206,597211.184425576 552836.1345916298,738618.9006619649 597466.9066062634,892172.9950661841 630312.4811959232,1057167.5027698677 649932.967626874,1232719.728150811 654948.5904149929,1417769.8133135221 644060.6178586619,1611082.495601007 616072.6754155188,1811251.1793464972 569912.2042676946,2016704.4266851114 504651.8075533951,2225714.9491875414 419530.21088267234,2436411.156459016 313972.550233657,2646791.2898143744 187609.68946710386,2854740.1388807534 40296.26181540679,3058048.3067208417 -127872.87490538358,3254433.955079269 -316548.08066899003,3441566.9259391082 -525112.5817615872,3617095.099079966 -752672.6272507086,3778672.8081357074 -998050.4442236648,3923991.1001739656 -1259780.2672917712,4050809.58650877 -1536107.6980772729,4156989.595787359 -1824992.6261142315,4240528.304861415 -2124115.9138041367,4299593.48907969 -2430890.014827691,4332558.501956179 -2742473.657841852,4338037.065216441 -3055790.685562792,4314917.424547017 -3367553.0936918296,4262395.4045084305 -3674288.264888467,4180005.8785483786 -3972370.340502889,4067652.157376625 -4258055.617486206,3925632.791619826 -4527521.800300588,3754665.2831115643 -4776910.878315132,3555906.203796221 -5002375.3387188455,3330967.2323924596 -5200127.36408692,3081926.6369724325 -5366490.60312788,2811335.7566999905 -5497954.0435909,2522220.068297818 -5591227.458636871,2218074.462462122 -5643297.843015321,1902852.4024110483 -5651486.204008884,1580948.6909458276 -5613504.025186337,1257175.633631451 -5527508.679426158,936732.4536755747 -5392157.032310928,625167.8884071904 -5206656.4487047,328335.9774301228 -4970812.394936373,52345.137946960225 -4685071.817304883,-196499.28729722343 -4350561.475323703,-411758.7303277481 -3969120.415892187,-586930.9709093702 -3543325.792996063,-715525.1083033319 -3076511.267084209,-791141.3589882557 -2572777.259320862,-807555.0090614085 -2036992.3887316554,-758803.7533321874 -1474785.48497973,-639277.55949023 -892527.6461164409,-443810.10654701595 -297303.89899287006,-167770.76341928635 303125.8802191561,192844.0025262373 900377.0172409043,641320.9644808135 1485501.1734726767,1180143.4574651716 2049058.5426969938,1810908.962245131 2581200.9520553933,2534252.265074617 3071765.562329564,3349775.525115068 3510378.7102238615,4255986.584729953 3886569.2784975045,5250246.844819832 4189890.8200791953,6328729.997011441 4410051.501510038,7486392.856062169 4537050.771130046,8716959.46867859 4561321.500397339,10012919.588657912 4473876.194753898,11365542.502637593 4266455.725757053,12764907.065795055 3931678.9010694996,14199948.662845794 3463191.0656641377,15658523.647151837 2855809.818582189,17127491.630456332 2105665.8370935386,18592815.798759624 1210336.7264035568,20039681.217476245 168971.76030629675,21452630.862876326 -1017594.6515404948,22815718.878806524 -2346742.938835672,24112680.309977822 -3813983.9355994747,25327116.308122456 -5412892.132089244,26442693.54775454 -7135058.631391137,27443356.327034313 -8970065.718510067,28313549.56947639 -10905484.808784705,29038450.68728407 -12926899.370040262,29604208.020436864 -15017954.209096605,29998183.33091874 -17160432.278509352,30209195.61238139 -19334359.894583266,30227763.275855444 -21518140.964040324,30046341.595641837 -23688720.495970014,29659552.14997986 -25821777.33001819,29064400.87217322 -27891945.643805604,28260481.243075904 -29873064.41540214,27250159.10855211 -31738453.613840926,26038735.59881904 -33461215.47610614,24634584.66326014 -35014558.80713394,23049261.816818345 -36372143.81489572,21297580.824471354 -37508444.5706837,19397655.230156183 -38399125.77071746,17370901.866911706 -39021430.07481135,15242003.766468717 -39354571.91699233,13038830.218959104 -39380133.32766401,10792312.11610986 -39082456.98332538,8536271.142847829 -38449031.41410862,6307201.860565921 -37470863.05759621,4144006.247575322 -36142829.655457035,2087680.8249362938 -34464009.35314637,180957.09463070342 -32437979.787647977,-1532103.353121549 -30073081.439040504,-3006557.051443261 -27382639.583072655,-4197067.501300962 -24385139.31790221,-5058431.277190922 -21104348.351992536,-5546137.332519761 -17569382.53442902,-5616954.757751682 -13814709.48533128,-5229543.572087952 -9880086.143427504,-4345082.479514046 -5810426.590057937,-2927906.902077669 -1655597.1326913843,-946150.0270753797 2529863.665822055,1627620.9196066346 6687101.54701896,4815781.424445018 10753380.390056541,8635048.103025554 14662593.087088816,13095907.733849898 18345848.255211048,18202086.079636265 21732130.55489095,23950065.786330435 24749031.31941049,30328662.662293334 27323545.104077604,37318669.53749446 29382926.649429582,44892576.6786007 30855601.63194543,53014377.385265715 31672123.462446835,61639466.91158503 31766167.300730858,70714642.2418045 31075551.40008487,80178209.49967282 29543274.892762627,89960204.88660352 27118560.193230227,99982734.02705283 23757887.346212994,110160433.45398845 19426006.897529606,120401056.69867659 14096917.233437939,130606186.06474355 7754791.834438655,140672069.67609605 394841.53726920247,150490581.8032161 -7975903.291560189,159950302.80597702 -17337905.782679297,168937713.2987206 -27658545.731599707,177338495.36206532 -38891667.47871895,185038931.81460595 -50977266.498102106,191927392.73689774 -63841327.90405141,197895896.6318824 -77395829.07988234,202841731.83354008 -91538917.4096938,206669122.06351548 -106155272.65171209,209290918.4090851 -121116661.83436786,210630298.48109156 -136282692.68981388,210622452.13368973 -151501769.57332134,209216231.91527754 -166612253.56326118,206375745.3979694 -181443826.01061407,202081865.7267879 -195819052.2278674,196333636.16398954 -209555139.29652977,189149544.10166883 -222465879.15525925,180568639.9984553 -234363765.23463303,170651476.9829915 -245062267.96071148,159480847.47483334 -254378251.4910743,147162294.1162853 -262134511.10986885,133824373.59728618 -268162407.83050442,119618653.59684414 -272304573.9757616,104719425.06193201 -274417660.8664281,89323114.39717291 -274375097.29341424,73647382.84061621 -272069825.21731,57929903.34217822 -267416977.1764687,42426808.62684284 -260356458.23224622,27410807.794301324 -250855393.97937095,13168972.755088314 -238910405.24028102,200.00000029258112" stroke="white" stroke-width="1.5" /></svg>