<?xml version="1.0" encoding="utf-8" ?>
<svg baseProfile="full" height="400" version="1.1" width="400" xmlns="http://www.w3.org/2000/svg" xmlns:ev="http://www.w3.org/2001/xml-events" xmlns:xlink="http://www.w3.org/1999/xlink"><defs /><rect fill="black" height="100%" width="100%" x="0" y="0" /><circle cx="200" cy="200" fill="yellow" r="10.000000000379012" stroke="orange" stroke-width="2" /><polyline fill="none" points="201.13420912579582,200.0 201.13450186334498,200.0595561653285 201.12735221152153,200.11868876150842 201.1125697919579,200.1765128314936 201.0900536493142,200.2320964409122 201.05979973423854,200.28446899400873 201.02190768979813,200.33263058318963 200.97658681056333,200.37556232494475 200.924161045066,200.41223761947867 200.8650729156043,200.44163425569235 200.79988623440283,200.46274726738653 200.7292875020177,200.47460243090237 200.6540858826343,200.47627027907785 200.57521166156567,200.46688049158877 200.4937131028086,200.44563650768404 200.41075163892683,200.41183019423775 200.32759534175307,200.36485639015706 200.2456106403496,200.30422713772984 200.16625227223614,200.22958540269872 200.09105147494705,200.14071807792556 200.02160244735774,200.0375680606769 199.9595471337272,199.92024519101602 199.9065584078319,199.78903583871312 199.86432175966337,199.64441092865425 199.83451561266918,199.48703220007906 199.81879042514,199.31775650323422 199.81874675477283,199.13763794828137 199.83591249034657,198.94792773560596 199.87171947848213,198.75007151406706 199.9274797962697,198.5457041341923 200.00436194176584,198.3366416868145 200.1033672336198,198.12487074407105 200.2253067280128,197.91253474891764 200.37077897531873,197.70191753116256 200.54014895006117,197.49542396229273 200.7335284955081,197.29555779776607 200.95075862828494,197.1048967936832 201.19139404840183,196.92606522446738 201.45469019581054,196.76170396898326 201.73959318579625,196.6144383739747 202.0447329419766,196.4868441453306 202.3684198272756,196.38141155898523 202.70864504986702,196.30050832369488 203.06308509269886,196.24634146694092 203.42911038183342,196.2209186522115 203.80379837054934,196.22600937031598 204.18395117309885,196.2631064785837 204.5661178344114,196.33338858919197 204.94662127017313,196.4376838308574 205.3215898559488,196.5764355261342 205.68699358478037,196.74967033903087 206.03868465050294,196.95696945405814 206.3724422494342,197.1974433476705 206.6840213267651,197.469710705925 206.96920492661525,197.77188202767073 207.2238597370822,198.101548430394 207.44399435453738,198.45577614573315 207.6258197257704,198.83110715349102 207.7658111632728,199.22356635664522 207.86077126892533,199.62867564541696 207.9078930455772,200.0414751360439 207.90482242545747,200.45655179975142 207.84971940002157,200.8680756198863 207.74131689867193,201.2698433307366 207.5789765347485,201.6553297007977 207.36274031716428,202.01774622686648 207.09337741591867,202.35010700417106 206.77242507024377,202.64530143271486 206.40222274003472,202.89617331217602 205.98593862509713,203.095605768211 205.5275877131204,203.23661134311564 205.0320405665377,203.31242647483936 204.50502212081219,203.31660948174263 203.9530998422979,203.24314106772542 203.3836606826079,203.08652626496158 202.80487636816133,202.8418966410316 202.2256566778722,202.5051115153359 201.65559048821365,202.0728568578901 201.10487450236323,201.54274048352036 200.5842297278568,200.9133821076204 200.10480592399318,200.18449679747675 199.6780744048011,199.3569703370922 199.31570975417475,198.43292502472235 199.02946118509547,197.41577444212993 198.83101445281045,196.3102657738504 198.7318454103923,195.1225083143673 198.74306647208158,193.85998688163636 198.87526742290345,192.5315589572726 199.13835217984422,191.14743449708752 199.54137326786818,189.71913750043726 200.0923659207038,188.25944859265203 200.79818384904007,186.78232806100448 201.66433883496816,185.30281899029268 202.69484640862703,183.836930367903 203.89207993858122,182.4015002686112 205.25663551908656,181.01403948450243 206.7872100628458,179.69255623304923 208.48049500504501,178.45536285409534 210.33108799153948,177.32086569146978 212.33142485941647,176.30733964413744 214.47173412048204,175.43268916187148 216.74001602650134,174.7141977478509 219.12204812862717,174.16826831159884 221.6014190421274,173.8101569863508 224.1595918914319,173.6537032812238 226.7759986402751,173.71105967628938 229.42816620838403,173.99242398363998 232.09187494131191,174.50577798557953 234.74134963569978,175.2566360180196 237.3494829310209,176.24780728899142 239.8880904637884,177.4791758050179 242.32819674485842,178.94750181829093 244.64035026888783,180.64624870181012 246.79496590174708,182.56543910485007 248.76269212172232,184.69154413473623 250.51480021906238,187.007409150792 252.02359209161406,189.49221954086096 253.26282281804862,192.1215095789877 254.20813375089753,194.8672171342614 254.83749145588683,197.697786615773 255.1316274386377,200.57832209812156 255.07447325151134,203.47079207769002 254.65358526903617,206.3342867645456 253.86055316669922,209.125328221669 252.6913859414576,211.7982330264523 251.14686917941157,214.305526454031 249.23288721257913,216.59840647384658 246.96070381807212,218.627255116485 244.34719520405764,220.34219401468536 241.41502920191215,221.69368015857168 238.19278484637982,222.63313713941747 234.71500687791803,223.113616398001 231.02219014539983,223.09048225278954 227.16068942355403,222.52211377018318 223.18255078746358,221.37061586458316 219.1452614044538,219.60253139110603 215.11141540887036,217.18954542942313 211.1482944134083,214.1091724645547 207.32736217630725,210.34541676041042 203.7236739800587,205.88939590508582 200.41520237611695,200.73991729357257 197.48208210198592,194.90399721321438 195.00577817119103,188.3973122187434 193.06818236101455,181.24457263496666 191.75064456426867,173.47980831293958 191.13294671550165,165.14655719533317 191.2922282335787,156.2979478228287 192.30187312540144,146.99666763841628 194.23037005272465,137.31480982134332 197.1401577581597,127.33359240634614 201.08646925967875,117.14294461391961 206.11618913723146,106.8409566289834 212.26673903245867,96.53319051154584 219.56500714518396,86.33185149487173 228.02633802112095,76.35482061309365 237.6535992675276,66.72455138784352 248.43634199181412,57.56683517689356 260.3500717180982,49.00944172937224 273.3556462855945,41.18064348232525 287.39881675952904,34.207634150681514 302.40992668099057,28.214854183794728 318.303784040049,23.322237661778388 334.97971917239533,19.643397157527886 352.3218403521971,17.283764968172903 370.19949718427694,16.338710894358343 388.4679599916731,16.89165838820705 406.9693212579508,19.012222371793456 425.5336228285015,22.754393318228523 443.9802100161577,28.15479325815855 462.1193110119726,35.23103019764176 479.75383709365553,43.980177982110945 496.68139607713886,54.377408890293225 512.6965082996923,66.3748061683531 527.5930111878122,79.9003832974516 541.1666351848075,94.85733600955908 553.2177305294622,111.1235519122109 563.5541211289152,128.55140104212805 571.9940585986974,146.96782873352674 578.3692464953813,166.17476985721515 582.5279018886974,185.94990076372594 584.3378187573062,206.0477421552556 583.6893952933593,226.20112262999274 580.4985851129742,246.12300880678026 574.7097306396229,265.50870377200346 566.2982356006945,284.03841112379587 555.2730326976582,301.3801571565414 541.6788021181765,317.1930587723184 525.59789669181,331.13091957202107 507.15193018308076,342.8461313193782 486.502986495477,351.99385264298326 463.8544094509387,358.23643150643886 439.4511353288302,361.24803270072505 413.5795335072022,360.71942646546506 386.56672435072517,356.3628893996042 358.77934792986025,347.9171641520595 330.6217622221284,335.152420065808 302.53365511766884,317.87515306194956 274.9870607976011,295.9329596706904 248.48277783585465,269.2191173199606 223.54619364460336,237.6769008533609 200.7225275824553,201.30356383794714 180.57151310610237,160.15391260532007 163.66154769421686,114.34340120743941 150.5633478223457,64.0506766158498 141.84315492653866,9.519505596158325 138.05554696108806,-48.93998221337418 139.73591872473702,-110.95079637153458 147.39270248690468,-176.0693890467332 161.49940847267962,-243.78680976482752 182.4865723406191,-313.5307542451171 210.73370378624807,-384.66854182136615 246.56133670091504,-456.5110467066489 290.2232867849803,-528.3175981898813 341.89922703273083,-599.3018538122084 401.6876949540492,-668.6386377420836 469.5996476600907,-735.4717240431403 545.5526819095927,-798.9225314182167 629.3660357901296,-858.0996824397155 720.7564868069541,-912.1093663791285 819.3352576953671,-960.0664306778801 924.6060361998262,-1001.1061120212446 1035.9642083291033,-1034.3963040614913 1152.697396174232,-1059.1502452697202 1273.9873812564363,-1074.6394973702036 1398.9134825679594,-1080.207072524797 1526.4574450137673,-1075.280556090465 1655.5098789132187,-1059.385061574331 1784.8782746585682,-1032.1558455616678 1913.296598656307,-993.3504030932479 2039.4364574267533,-942.8598584141548 2161.9197963614047,-880.7194623925045 2279.3330783137376,-807.1180063878152 2390.2428651297882,-722.4059630950377 2493.2127026342687,-627.1021680438159 2586.8211867223736,-521.8988611154059 2669.6810653329694,-407.6649157506472 2740.4592084793885,-285.44709453398104 2797.897256489153,-156.4691835946781 2840.832735466266,-22.128874779918192 2868.2204090615,116.00771619563183 2879.153617246228,256.2139854888873 2872.885336265981,396.61329610367346 2848.848679631342,535.1919904774272 2806.6765482120436,669.8149697973925 2746.2201285508827,798.243817834313 2667.565932709046,918.157413929113 2571.0510705766674,1027.1749450835257 2457.276446890843,1122.8811912180026 2327.1175804286095,1202.8539209352864 2181.732752181978,1264.693197966633 2022.568202935356,1306.0523613128348 1851.3601186693193,1324.6704053859517 1670.1331646791696,1318.4054506975933 1481.1953562410465,1285.2689613334937 1287.1290850475236,1223.4603331266926 1090.778156375921,1131.4014466270332 895.2307318927402,1007.7707522023962 703.7981169212494,851.5364314344517 519.9893786264801,661.9881599172187 347.48183255851893,438.7669821434025 190.08748893167177,181.8927998609047 51.71560643038168,-108.21102844140557 -63.66844031305601,-430.6964769834183 -152.08771372495613,-784.2735224948408 -209.6013605455501,-1167.1971704423459 -232.3549667191482,-1577.259291467398 -216.63317369091442,-2011.785692391099 -158.91405182522493,-2467.638809465355 -55.9246709875184,-2941.226367593553 95.30274410546343,-3428.51629806858 297.3747344940775,-3925.058149134489 552.4813076205609,-4426.011158621832 862.3421595845637,-4926.179086388256 1228.1551913677897,-5420.051826772501 1650.5481146250204,-5901.853738304079 2129.5339575382245,-6365.598540169411 2664.4712870463395,-6805.150533190344 3254.029959815839,-7214.291808196936 3896.163199999696,-7586.795007640712 4588.086776631245,-7916.501108164512 5326.266016996669,-8197.40159376341 6106.411344224141,-8423.724292364066 6923.482967440369,-8590.022054406965 7771.705281131695,-8691.26336167989 8644.591446907527,-8722.92386960857 9534.978535952174,-8681.077807874544 10435.073504477887,-8562.488094022705 11336.510158036193,-8364.693954061735 12230.417134352747,-8086.094794343202 13107.496799340304,-7726.02903157937 13958.114808204187,-7284.846564017692 14772.399934344128,-6763.9735577346255 15540.353614495996,-6165.968228848212 16251.968500830977,-5494.566326156539 16897.35515126498,-4754.715060122073 17466.87582989703,-3952.5942839116187 17951.28423228335,-3095.6238108551033 18341.86979725969,-2192.4558504879624 18630.6051204359,-1252.9516623580512 18810.29484655695,-288.14166283998793 18874.72429094694,689.8316251097569 18818.805926543202,1667.7882166818429 18638.721774888647,2631.60315220179 18332.059659144503,3566.3168687167386 17897.941216909498,4456.263278797176 17337.139532472982,5285.215146934428 16652.184234046556,6036.54611121836 15847.451913301547,6693.408447141599 14929.239763766805,7238.92541397106 13905.820402674806,7656.3967649717615 12787.475938752754,7929.515743901635 11586.509477036216,8042.595634859106 10317.232411480094,7980.80368416965 8995.926047058763,7730.399975098944 7640.776314898844,7278.978612441538 6271.7805960847545,6615.708368185281 4910.625951010841,5731.569755253453 3580.538359976724,4619.585337519859 2306.10291513982,3275.0399545522555 1113.0552615063175,1695.6874424279702 28.04496246102906,-118.05962912405818 -921.628139936473,-2162.960704897261 -1708.303091804265,-4432.801959144601 -2304.2706265601596,-6918.278393872313 -2682.1072802910776,-9606.906625386848 -2815.028086801376,-12482.971503703784 -2677.254701095402,-15527.509499289323 -2244.395396793698,-18718.33153089102 -1493.8329969285633,-22030.087596780773 -405.1164346677933,-25434.375210059276 1039.6486931602187,-28899.893227888817 2855.4155152116678,-32392.64220645162 5053.822409855147,-35876.17191061547 7642.836066453128,-39311.87606296117 10626.416642077424,-42659.33383501439 14004.210669780887,-45876.69696891976 17771.27740848628,-48921.12077587388 21917.854289989118,-51749.236594536866 26429.167011347643,-54317.66261520623 31285.289637519512,-56583.549291233605 36461.05981667723,-58505.15487603613 41926.05386716813,-60042.445950687725 47644.62606942672,-61157.71715250057 53576.015988084546,-61816.223688618935 59674.5270598588,-61986.81963013262 65889.77901341135,-61642.59444143767 72167.03594123278,-60761.49971643966 78447.61102487291,-59326.95767759348 84669.34802883153,-57328.44265539463 90767.17873165429,-54762.02651415477 96673.75446295922,-51630.87883364855 102320.1488711435,-47945.712603854736 107636.62796840063,-43725.166249129354 112553.48239855721,-38996.11297548632 117001.915761272,-33793.88873592957 120914.98171642084,-28162.43053852998 124228.56149900444,-22154.31738342747 126882.37241231039,-15830.706810022577 128820.9968506819,-9261.160864566435 129994.92044877414,-2523.356259854411 130361.56707767521,4297.325410330068 129886.31762585629,11108.330323880175 128543.498830606,17810.589538732456 126317.32787916274,24299.3007031881 123202.79809340817,30464.832973664357 119206.4907622046,36193.75211871221 114347.2981047918,41369.96109011756 108657.04244943762,45875.94958885249 102180.97700464253,49594.14436367641 94978.15409488516,52408.350173102175 87121.6474365118,54205.269538576606 78698.61594714099,54876.0876407798 69810.19771682151,54318.10698582654 60571.22412156606,52436.414818719975 51109.74562751843,49145.56471324368 41566.36261183044,44371.252346633206 32093.356506281478,38051.9642000415 22853.61874067157,30140.57683804821 14019.37731085562,20605.883537822137 5770.723303600496,9434.024385753968 -1706.0576432960695,-3370.204440084305 -8220.34120554029,-17782.186607424508 -13579.196971122068,-33756.49102190505 -17589.58427336392,-51226.07042440956 -20060.694821735022,-70101.67613236829 -20806.422765135445,-90271.51071213682 -19647.9399382631,-111601.13886982236 -16416.35124114761,-133933.674995383 -10955.402425408465,-157090.26358890097 -3124.2100498705227,-180870.86624241358 7200.018934830571,-205055.36595393307 20119.312565517666,-229404.99632549647 35712.34056216878,-253664.09966241271 54031.94011797253,-277562.2141695139 75102.7996126201,-300816.48636052496 98919.33971607975,-323134.40049210534 125443.831540316,-344216.81234314735 154604.79120609548,-363761.2700259356 186295.68939261066,-381465.5997868949 220374.01310498186,-397031.7299832687 256660.71500964154,-410169.7216647594 294940.08323663863,-420601.9695060533 334960.0615235748,-428067.53229040594 376433.04597746424,-432326.5478019127 419037.1805645855,-433164.6829123395 462418.16871823353,-430397.56591620133 506191.61320161633,-423875.1448443614 549945.8906080009,-413485.91264052456 593245.5606601582,-399160.93778393365 635635.3038326887,-380877.63725051895 676644.3738184444,-358663.2276856184 715791.5440566405,-332597.79037176626 752590.520006188,-302816.88606751105 786555.7811615206,-269513.6571139744 817208.8090551271,-232940.3563939414 844084.6497631569,-193409.24581456863 866738.7518257382,-151292.8109911015 884754.0131147093,-107023.24374701717 897747.9631354172,-61091.1499168018 905380.0006459961,-14043.446730541302 907358.6004288112,33519.578248103324 903448.3976670485,80948.06610256965 893477.0537763885,127547.25356294966 877341.8038266009,172583.00799942474 855015.5829665666,215288.21958138575 826552.6276391143,254870.0283819106 792093.4469325023,290517.8523284391 751869.0602485873,321412.1696501459 706204.3996485678,346733.9969781787 655520.7788285699,365674.9916557136 600337.335729516,377448.0942602792 541271.3623331069,381298.6149903906 479037.4432576126,376515.6555893274 414445.33434421197,362443.74704486283 348396.52349946863,338494.57259364496 281879.4285946363,304158.6357544792 215963.20115967817,259016.7243985261 151790.11986978227,202751.01441778848 90566.57430347642,135155.65055386486 33552.657030945666,56146.6375683126 -17949.599376238195,-34229.127662941115 -62609.28450380198,-135785.85321425024 -99080.89559402694,-248192.04701151082 -126019.75024900607,-370965.0746496534 -142098.4097280237,-503467.23931366316 -146023.97583492403,-644903.5347233162 -136556.10433513662,-794321.211323723 -112525.55839602726,-950611.28278501 -72853.10699119397,-1112512.084253879 -16568.55583983984,-1278614.9757468337 57170.31743822582,-1447372.263651325 149059.16638638746,-1617107.3906020767 259629.0714731057,-1786027.4191555567 389229.39271736867,-1952237.8078612648 538011.750392565,-2113759.4497255348 705915.4091712438,-2268547.912917944 892654.3420740745,-2414514.7921549855 1097706.2482163566,-2549551.046815161 1320303.7924088968,-2671552.168832792 1559428.3250017732,-2778444.9901531553 1813806.32682992,-2868215.9064058447 2081908.8066381684,-2938940.260887463 2361953.8568832376,-2988812.6013819114 2651912.548330819,-3016177.4922465524 2949518.31443604,-3019560.5360273262 3252279.943217157,-2997699.233115994 3557498.257361558,-2949573.28511009 3862286.5228523784,-2874433.92805891 4163594.58274371,-2771831.8661456537 4458236.666170841,-2641643.365018747 4742922.7736448115,-2484094.0573726594 5014293.488590985,-2299780.011889387 5268958.012447822,-2089685.6206478437 5503535.166994606,-1855197.8699070213 5714697.053526337,-1598116.5750370359 5899215.0046860315,-1320660.182519248 6054007.411883945,-1025466.7705070924 6176188.960000604,-715589.914508602 6263120.752234026,-394489.1263178482 6312460.762277537,-66014.62230539449 6322214.009285691,265613.7685921665 6290781.814082822,595833.6866202423 6217009.463570771,919773.3762612955 6100231.585058228,1232290.867095996 5940314.513998398,1528019.1172316782 5737694.928079895,1801416.9562836462 5493414.018413809,2046825.5818032457 5209146.475284226,2258530.277450675 4887223.582094711,2430826.934007405 4530649.73717962,2558092.8664898057 4143111.7593947435,2634861.333212656 3728980.3800896746,2655899.0767744263 3293303.3813121333,2616286.1237663096 2841789.9078983646,2511497.000760205 2380785.559327067,2337482.450055915 1917237.9555811554,2090750.6610320222 1458652.569353116,1768446.9730215184 1013038.7241763152,1368430.9546839995 588845.7737453997,889349.7241057409 194889.600930055,330706.3445181987 -159730.29523921982,-307077.8862875831 -465722.7212032779,-1022608.4380094801 -713705.1765494241,-1813471.0152167175 -894312.0234145642,-2676194.6372887306 -998309.6105807447,-3606225.435432334 -1016717.3832323889,-4597912.2119972035 -940933.8698921197,-5644504.7310354905 -762866.3030466186,-6738165.61561619 -475062.50139285414,-7869996.616821633 -70843.52150801911,-9030079.891849808 455564.5228658757,-10207534.78467405 1108901.1727616806,-11390590.442961497 1892746.6483879562,-12566674.430350695 2809403.032988672,-13722517.3049178 3859783.510351019,-14844272.934144529 5043311.576942287,-15917654.105614705 6357832.154348748,-16928082.772926547 7799536.508744272,-17860854.050072826 9362902.84018534,-18701312.83718375 11040654.334486699,-19435041.72864433 12823736.37339993,-20048058.62396673 14701314.474196034,-20527022.235375207 16660794.377243668,-20859443.466940947 18687865.519810364,-21033900.4315091 20766568.926467497,-21040254.676880572 22879390.311902087,-20869866.015104458 25007378.931752793,-20515803.191657823 27130292.43282107,-19973047.498067 29226767.64757618,-19238686.325418796 31274516.951614976,-18312093.580349073 33250549.45937231,-17195093.84245798 35131415.97604174,-15892107.135436056 36893476.25585957,-14410271.215986224 38513186.742515326,-12759538.357078725 39967406.5906788,-10952743.716993077 41233719.39302133,-9005642.544405174 42290767.66945198,-6936913.673428321 43118596.81963387,-4768127.011485989 43699004.901411906,-2523673.0171187134 44015894.281950906,-230652.5036809633 44055620.92057306,2081274.5128640302 43807336.78797492,4380081.780037155 43263320.71108999,6631611.983940876 42419292.761636764,8799854.029687645 41274707.18443544,10847261.792572133 39833018.79372128,12735113.146818457 38101917.75637581,14423907.497576665 36093527.734297514,15873799.44383094 33824562.47755641,17045065.591323826 31316436.148473963,17898600.922361694 28595322.91661685,18396440.520813514 25692161.697442763,18502301.85357279 22642602.31372875,18182142.232405353 19486889.83882038,17404725.530971292 16269684.433130408,16142191.719596969 13039814.608154861,14370622.313930027 9849962.542546613,12070594.421808036 6756280.828414145,9227715.724287998 3817940.837866651,5833132.450403255 1096613.7637061293,1884002.209094717 -1344113.7031880438,-2616076.5662767086 -3439386.1521343705,-7656686.818152092 -5123784.806688829,-13220274.877904488 -6332086.585438661,-19281900.26333405 -7000071.005732583,-25809060.922936343 -7065368.078022321,-32761601.164289527 -6468339.369003837,-40091708.96035426 -5152983.474612329,-47744008.66425672 -3067856.25296994,-55655754.380474664 -166995.33678355985,-63757128.34000085 3589162.3111827485,-71971647.61234052 8232881.702672972,-80216681.36306457 13788262.454990905,-88404079.63876292 20270415.66099252,-96440913.33998011 27684698.225735575,-104230323.63720103 36026018.069361836,-111672477.60703743 45278223.61246408,-118665625.32894689 55413590.81113846,-125107252.10232419 66392420.68484462,-130895317.83632462 78162759.77343751,-135929574.0485358 90660255.26435126,-140112947.30311447 103808155.64292192,-143352976.34493473 117517466.63640054,-145563288.66537297 131687270.94573995,-146665100.79000843 146205218.79166317,-146588725.23185134 160948194.64826185,-145275065.82903808 175783163.7065921,-142677082.10669118 190568199.61328256,-138761202.39197135 205153692.87878874,-133508664.69191277 219383737.06305647,-126916763.83712713 233097687.44237268,-118999983.12151307 246131884.36210448,-109790988.64771259 258321530.91060284,-99341464.83740428 269502711.9369955,-87722770.0995616 279514538.80960613,-75026392.48099563 288201401.7039622,-61364186.26134835 295415308.65358335,-46868371.90565211 301018288.12815845,-31691283.55449837 304884829.55893946,-16004850.313971171 306904334.0475905,199.99999962415083" stroke="white" stroke-width="1.5" /></svg>