<?xml version="1.0" encoding="utf-8" ?>
<svg baseProfile="full" height="400" version="1.1" width="400" xmlns="http://www.w3.org/2000/svg" xmlns:ev="http://www.w3.org/2001/xml-events" xmlns:xlink="http://www.w3.org/1999/xlink"><defs /><rect fill="black" height="100%" width="100%" x="0" y="0" /><circle cx="200" cy="200" fill="yellow" r="20" stroke="orange" stroke-width="2" /><polyline fill="none" points="198.68467772683334,200.0 198.69090013676254,199.93127823725507 198.70611121078113,199.86377810204075 198.73046961107593,199.79858485711551 198.7640224581246,199.7368331469766 198.8066969980594,199.67969636758446 198.85829319413534,199.62837484788733 198.9184773960599,199.5840829107842 198.98677723782262,199.5480348996405 199.06257790945696,199.5214302751146 199.14511994080553,199.50543790564066 199.23349862578698,199.50117969321423 199.32666520384814,199.50971369388907 199.42342990122964,199.53201690936416 199.52246691839792,199.56896794195225 199.62232143155597,199.62132971980802 199.72141865562617,199.68973251228354 199.81807499361358,199.77465746640436 199.9105112729571,199.8764209044556 199.99686804354064,199.99515962928263 200.07522288467635,200.13081748789926 200.14360963983762,200.28313344513754 200.20003946848018,200.45163141715608 200.24252357425888,200.63561210947452 200.26909743865107,200.8341470956608 200.27784635880252,201.04607536075025 200.26693205869273,201.27000251783213 200.23462011388284,201.50430288695622 200.1793079025709,201.74712460258476 200.09955276987412,201.9963978892844 199.99410006861405,202.24984661530823 199.86191071884528,202.50500320029693 199.70218791037172,202.75922691672093 199.51440255796763,203.00972558513485 199.29831710837462,203.25358062111394 199.05400729177407,203.48777534724073 198.7818814087026,203.70922643710398 198.48269674661654,203.91481831041602 198.1575727288162,204.101440249542 197.8080004124544,204.26602595851216 197.43584797207507,204.4055952365392 197.0433618306906,204.5172973898099 196.63316313188605,204.59845595851561 196.20823928383723,204.64661429141103 195.77193034938202,204.65958145834256 195.32791010524028,204.63547795287533 194.88016164791358,204.5727806030872 194.43294748339966,204.470366079496 193.99077410223325,204.3275523656364 193.55835111003307,204.14413753967816 193.14054505612873,203.92043520531016 192.74232817830696,203.65730590750323 192.36872235952566,203.35618387424125 192.02473867177991,203.01909843935405 191.71531296228687,202.64868952459074 191.445238016831,202.24821659135824 191.21909291346697,201.8215605143306 191.04117025575187,201.37321788053225 190.91540204716586,200.9082872785127 190.84528503624554,200.43244721274945 190.83380642404384,199.95192535819888 190.88337088068457,199.47345895858643 190.99572986484796,199.00424626908645 191.1719142778791,198.5518890488349 191.41217151176423,198.12432622046575 191.71590796644188,197.7297589316359 192.08163811583893,197.37656737624496 192.50694119278168,197.07321985956827 192.98842653975464,196.82817472048558 193.5217086347253,196.64977585396304 194.10139274841077,196.54614270638132 194.721072121083,196.52505574355428 195.37333746310333,196.5938385146201 196.04979948384718,196.75923755261428 196.74112503871345,197.0273014626029 197.43708735390803,197.40326064889598 198.12663064425732,197.8914092221829 198.79794928127637,198.4949907035728 199.43858149814034,199.2160892036483 200.0355174363711,200.0555277989857 200.57532114746135,201.01277585448497 201.04426596304336,202.0858670457283 201.42848244151824,203.27132982003428 201.71411788944306,204.56413199665468 201.8875062447735,205.95764114462798 201.9353468988003,207.44360229034365 201.84489082697493,209.01213439531227 201.60413219861104,210.6517469076908 201.20200344458922,212.3493775287784 200.62857158368854,214.09045214829948 199.8752334450641,215.85896769047577 198.93490727974782,217.63759837766224 197.80221813090412,219.40782566103667 196.4736742338959,221.15009179021698 194.94783164587415,222.84397669782328 193.2254442633167,224.46839756336337 191.3095963772316,226.00183009622063 189.20581494190134,227.42255024313255 186.92215879608435,228.7088946848702 184.4692821771939,229.83953814368044 181.86047001046367,230.79378518154047 179.11164263739215,231.5518738337501 176.2413278712992,232.09528809743435 173.27059853261215,232.40707598489092 170.22297392199027,232.47216956227666 167.12428403452355,232.2777031298352 164.00249570136523,231.81332546569845 160.8875002640539,231.071501856177 157.81086283863715,230.04780147621543 154.80553370810938,228.7411655689774 151.90552288861124,227.15415180775506 149.1455394427108,225.29315021066122 146.5605976567319,223.1685660225731 144.18559275280796,220.7949650828047 142.05484936390133,218.19117736372112 140.20164655476464,215.38035459708863 138.65772371663934,212.3899782028567 137.45277219094294,209.25181410001323 136.61391797956975,206.00181141110355 136.1652013687871,202.67994257006512 136.12705972200024,199.32998290544063 136.51582007580532,195.9992283950987 137.34320849574394,192.73815097068925 138.61588340517739,189.59999148558163 140.3350002851677,186.64029124341292 142.49581524802898,183.9163638090688 145.08733500565654,181.4867096824377 148.09202067984165,179.4103772992065 151.48555273026744,177.74627472301057 155.2366640023564,176.5524372992903 159.30704751816668,175.88525744237705 163.65134514677055,175.7986836120924 168.21722269482314,176.34339639239258 172.9455362534596,177.5659703997621 177.77059382572148,179.50803151026872 182.6205153423052,182.205419588345 187.41769315696845,185.68736751434454 192.07935400235056,189.97570782871395 196.51822218978106,195.08411872551696 200.6432825619579,201.01742142478014 204.3606403658355,207.77094112010477 207.57447381688823,215.32994372443244 210.1880736888134,223.6691605130259 212.10496279984542,232.75241248010676 213.23008679464326,242.532345777059 213.471066156871,252.95028898012862 212.73949795089422,263.93624214036504 210.9522944011431,275.4090065962928 208.03304409508354,287.2764633807484 203.91338036133854,299.4360067298794 198.5343402495823,311.7751377092938 191.84769654471273,324.1722213169769 183.8172444056208,336.4974086145734 174.42002354927223,348.6137234902435 163.64745642368132,360.3783115823734 151.50638254751374,371.64384671135804 138.01996915697464,382.26008789635296 123.22847850807729,392.0755776976928 107.18987264816843,400.9394702481951 89.9802372061964,408.7034749446625 71.69400676557419,415.2238993933404 52.44397568266413,420.3637728704076 32.361079800797626,423.9950293028297 11.593936383874052,426.000726629278 -9.691868249115544,426.2772773993877 -31.31475147470971,424.7366636469641 -53.0783728907532,421.308607463486 -74.77314106372404,415.9426673366994 -96.17798777283627,408.6102292388181 -117.06240565168798,399.306360682063 -137.1887415787918,388.05149553658134 -156.31473447639598,374.89291735545464 -174.1962823789358,359.9060092991009 -190.59041976841638,343.1952395192597 -205.2584822876562,324.89485206947506 -217.969432080466,305.1692350689732 -228.50331322020583,284.21293996976465 -236.6548030268358,262.2503283672832 -242.23682159154845,239.53482585200118 -245.0841585827722,216.34776591643515 -245.05707345385622,192.9968108958822 -242.04482256746644,169.81394131263855 -235.96906455029483,147.15300978644464 -226.78709344858726,125.38686083568314 -214.4948480226194,104.90402338494333 -199.1296448461166,86.10498856869593 -180.7725828106037,69.39809142512595 -159.55056721624265,55.19502124936906 -135.6379028959695,43.905991656114395 -109.25740779874559,35.934607716713714 -80.6810011736946,31.67247380931721 -50.2297239653459,31.493591971290925 -18.273153258456148,35.74860648656363 14.771822402847931,44.75895608872463 48.442894263762355,58.81100042367555 82.2349121588906,78.15019220210722 115.60316469493098,102.97537069060512 147.96736684358265,133.43325575024937 178.71635257090352,169.6132244447883 207.21346119465952,211.5424542218119 232.80259676862266,259.18151773947284 254.81493002847986,312.4205144938027 272.57620239457776,371.0758234304511 285.4145813186044,434.8875586412276 292.66900600020625,503.5178070016526 293.6979523095097,576.5497221632845 287.8885357641504,653.4875436491321 274.665861762456,733.7576029003382 253.50252311072802,816.710369990814 223.92813634846573,901.6235853822558 185.53880061920455,987.7065105700236 138.00635600498418,1074.1053198227312 81.08731248632866,1159.9096425145813 14.631316150516966,1244.1602518768107 -61.410983913191785,1325.8578814582947 -146.9808062914488,1403.97313530833 -241.90498385074937,1477.4574420175045 -345.89072299836994,1545.2549864323485 -458.521508900168,1606.315536269982 -579.25428463606,1659.6080641881424 -707.4180250069281,1704.13504931596 -842.2138164515175,1738.9473260356403 -982.7165432705781,1763.1593321488954 -1127.878267093752,1775.9645936967136 -1276.5333712936472,1776.651269864972 -1427.4055249086462,1764.6175688422882 -1579.1165016665557,1739.3868344419761 -1730.1968690188417,1700.622093995676 -1879.0985398426928,1648.1398507051936 -2024.2091558166358,1581.9228985251793 -2163.8682466263454,1502.1319349540524 -2296.385083338594,1409.115747029394 -2420.058117750004,1303.419748533208 -2533.195872555344,1185.7926520649794 -2634.1391200942035,1057.1910683632636 -2721.284160553799,918.7818371467703 -2793.106984177415,771.9419088677255 -2848.188076617074,618.2556151520603 -2885.2376024533396,459.50918733240127 -2903.1206794711193,297.6824073094535 -2900.8824359197993,134.93730291034632 -2877.7725250914305,-26.396169190302714 -2833.268756509289,-183.8374762460361 -2767.0994912097563,-334.7758849500242 -2679.2644403860854,-476.4938082362373 -2570.053502386361,-606.1930315009078 -2440.0632730369466,-721.0236843866231 -2290.210868782,-818.115781135727 -2121.744711437196,-894.6131086963212 -1936.251937656697,-947.7091977522443 -1735.6621156630301,-974.6850681827837 -1522.2469764928087,-972.9483977048667 -1298.6158970119327,-940.0737212033298 -1067.7069072333586,-873.8432291270312 -832.7730349435421,-772.2876969494165 -597.3638461546277,-633.7270446976473 -365.30209021960593,-456.80999658215217 -140.65541327322796,-240.55228643810335 72.29683738800925,15.62716436413379 269.1016327548463,311.87268308121736 445.1749543978886,647.8614891599664 595.848940338501,1022.7771383904243 716.4231951059159,1435.2873533104964 802.2199033639786,1883.5268102073271 848.6423149809972,2365.0854296236457 851.2360984913145,2877.0026854681823 805.7529904787933,3415.7684074817917 708.2161014650542,3977.3305028568348 554.9861754071619,4557.109965277832 342.82804092256407,5150.02347368852 68.9764388980557,5750.513808949787 -268.7996357605179,6352.588234609419 -672.1349797974257,6949.864898754665 -1142.0095469901898,7535.627217983267 -1678.6940867395567,8102.886102654344 -2281.701020116715,8644.449775635761 -2949.7415171022035,9153.000825740755 -3680.6897262140383,9621.180023053135 -4471.555082513135,10041.676307592388 -5318.463581560686,10407.32224659622 -6216.648854874763,10711.19414050894 -7160.453816529763,10946.715845062676 -8143.343570652571,11107.765268192612 -9157.930175750029,11188.782397559053 -10196.009754288025,11184.877618820812 -11248.612315154702,11091.938998198091 -12306.064523190507,10906.737126957907 -13358.065504670009,10627.026061914608 -14393.775621488467,10251.6388464808 -15401.917981056113,9780.576062780136 -16370.892274952843,9215.085848311619 -17288.900358862455,8557.733811980734 -18144.08280098993,7812.461305201766 -18924.665438057444,6984.630545277599 -19619.11478922369,6081.055151241441 -20216.30099118424,5110.014737455627 -20705.666734727823,4081.2523179292375 -21077.40050669288,3005.95340470926 -21322.61227423223,1896.7058367204563 -21433.50959325254,767.4395506887334 -21403.571982578145,-366.6542974094575 -21227.72128253117,-1489.225234578795 -20902.485613919023,-2582.886534357304 -20426.15447350077,-3629.3593252041433 -19798.922447391953,-4609.637357537292 -19023.018996930794,-5504.171760273603 -18102.821774460946,-6293.074824131007 -17044.950961251125,-6956.341547670153 -15858.34218806447,-7474.087376313022 -14554.295702116075,-7826.8002578835 -13146.499583359799,-7995.604834322179 -11651.024988914567,-7962.536292101657 -10086.291617235238,-7710.821107658885 -8473.001833184624,-7225.161653159391 -6834.042180828308,-6492.021376505008 -5194.3513314155125,-5499.907042130351 -3580.7538679838367,-4239.644320243497 -2021.7596931615167,-2704.6428461343858 -547.3292603330257,-891.1467422651915 811.3947328550958,1201.5334918385363 2022.3880894120416,3570.8118595079327 3053.076719689522,6210.644648292577 3870.6970433943416,9111.379186618155 4442.682623589939,12259.63753727407 4737.07397105641,15638.238920145122 4722.947963789537,19226.164428980595 4370.862843991017,22998.567319788548 3653.3142903820712,26926.831801232314 2545.197624039626,30978.682850492234 1024.270798343941,35118.349112503936 -928.3875447466903,39306.780418155984 -3327.930991802335,43501.92088061965 -6185.315556481455,47659.03790205354 -9506.89367548513,51731.10674986078 -13294.038658597266,55669.24964780391 -17542.806316874252,59423.22757870709 -22243.640481299095,62941.982219217534 -27381.129028188207,66174.22463094146 -32933.816842885564,69069.0665247955 -38874.08187615665,71576.68910591138 -45168.0800754626,73649.04370482615 -51775.76450421404,75240.57761748975 -58650.98339552961,76308.97782280795 -65741.66122346562,76815.9245333426 -72990.06611590752,76727.8458740253 -80333.1660823851,76016.66438702865 -87703.07559139696,74660.52553998414 -95027.59301121514,72644.49798110507 -102230.82833279808,69961.23494970771 -109233.91943198226,66611.58602488601 -115955.83391057845,62605.14828882432 -122314.25229376447,57960.746003754684 -128226.52706693445,52706.828061213804 -133610.71072290902,46881.77276624061 -138386.64467525316,40534.089973363436 -142477.09959153057,33722.51120005963 -145808.95642876992,26515.959109611656 -148314.41623003053,18993.388679970158 -149932.22558424127,11243.493457424192 -150608.90358024085,3364.2715307115714 -150299.9551192626,-4537.552752385803 -148971.05460700826,-12347.25377513833 -146599.1833456848,-19942.977136178004 -143173.70340621565,-27196.75863277601 -138697.3503987529,-33975.68685803799 -133187.12739202692,-40143.20454645733 -126675.0822741059,-45560.54174961789 -119208.95111231784,-50088.27181975459 -110852.65057003843,-53587.97904608893 -101686.60318229753,-55924.02465196736 -91807.88028780774,-56965.39574615718 -81330.14866650253,-56587.619756980625 -70383.40844058165,-54674.724892335915 -59113.51156185887,-51121.225292057745 -47681.45222406768,-45834.107802149454 -36262.422797458625,-38734.795734144645 -25044.631372675885,-29761.06360813959 -14227.879706025213,-18868.8757453485 -4021.903259628848,-6034.120705009094 5355.5218953404565,8745.787020528054 13680.697322812537,25450.46690304215 20726.334286026995,44035.32264165884 26264.084884018608,64430.51112580751 30067.25404644251,86540.15760985756 31913.670701034345,110241.84339230716 31588.6929934164,135386.39066462373 28888.31908678466,161797.96715124816 23622.37184645613,189274.53070043382 15617.722670094372,217588.6311081173 4721.51690848088,246488.58317188517 -9195.639215731837,275700.02129284816 -26236.572492537267,304927.84188925615 -46474.561544069635,333858.5354823337 -69950.52611490655,362162.90559342783 -96670.43330077664,389499.16658960737 -126602.96759946053,415516.4073757804 -159677.5115285797,439858.40240445646 -195782.48282512685,462167.74591443746 -234764.0728905387,482090.279677268 -276425.4291480251,499279.7788903445 -320526.3213173418,513402.85527789977 -366783.3282748552,524144.0310192224 -414870.5781498135,531210.9318941389 -464421.06961570255,534339.5430983731 -515028.59698157466,533299.4666168592 -566250.2956946178,527899.1149331104 -617609.8182635027,517990.772279003 -668601.1434440073,503475.45167216915 -718693.0138448693,484307.47372565774 -767333.9889741137,460498.6917213121 -813958.0922250297,432122.2867846003 -857991.0214767231,399316.05724862556 -898856.8839463694,362285.12750632205 -935985.4067770524,321304.00387163635 -968819.5656824381,276717.90824285016 -996823.5649109499,228943.32471379577 -1019491.0929573163,178467.6997297839 -1036353.7699630304,125848.24294027883 -1046989.6947385437,71709.78355222041 -1051031.9919404597,16741.645714619102 -1048177.2532793704,-38306.48376994013 -1038193.7608509118,-92629.71135985687 -1020929.3759046682,-145374.12059804276 -996318.9727193139,-195643.97562222584 -964391.2948591693,-242509.92289933117 -925275.1100608838,-285018.15586080315 -879204.5404433834,-322200.49276624754 -826523.4467426802,-353085.3034299974 -767688.7489254817,-376709.20556894306 -703272.5708960482,-392129.4366429874 -633963.1041278038,-398436.7923461804 -560564.0939531587,-394769.00856180064 -483992.8629413692,-380324.4498213286 -405276.7982716532,-354375.95431510237 -325548.2442315484,-316284.67350539216 -246037.75687855258,-265513.7336065768 -168065.69541132552,-201641.53683727418 -93032.14379465581,-124374.5126276994 -22405.176533375878,-33559.12308794183 42292.49596809554,70807.0767941432 99498.44448009202,188565.52536870114 147626.91914263196,319388.0873144724 185086.62358329678,462770.03043861256 210299.7355846252,618024.7373196171 221722.02074165887,784280.334048614 217863.86165432615,960478.406690648 197312.00191009903,1145374.9615524714 158751.7817601575,1337543.7678933442 100989.62131791493,1535382.2013721496 22975.487659983504,1737119.6833471798 -76174.93526271534,1940828.7852328187 -197158.67014227138,2144439.038609056 -340464.77197407116,2345753.4608562305 -506354.8740461259,2542467.7729715444 -694845.2785919585,2732192.2511810176 -905690.91896704,2912476.117296854 -1138371.5188384363,3080834.3348345147 -1392080.268366176,3234776.6390816285 -1665715.3274948571,3371838.5900265053 -1957874.4520962555,3489614.39776497 -2266853.0196847073,3585791.231199346 -2590645.707692346,3658184.6830371898 -2926952.048820476,3704775.0278276512 -3273186.0548135927,3723743.8755941815 -3626490.062231435,3713510.7920984565 -3983752.9115838907,3672769.428472396 -4341632.524771711,3600522.6784511823 -4696582.895437505,3496116.361288493 -5044885.452941032,3359270.913178761 -5382684.703662897,3190110.5601676 -5706027.993711042,2989189.4415851664 -6010909.175422049,2757514.155432851 -6293315.896944018,2496562.2062861207 -6549280.170348819,2208295.85248279 -6774931.809894608,1895170.8729192396 -6966554.269039562,1560139.80487597 -7120642.343432033,1206649.2430566445 -7233961.148245275,838630.8364831385 -7303605.7227878105,460485.6739795295 -7327060.5642203,77061.81054060308 -7302258.346375383,-306375.24435283564 -7227637.040028599,-684179.1798088667 -7102194.6184160765,-1050366.6993766276 -6925540.507216594,-1398668.4333569566 -6697942.922452938,-1722586.7884966538 -6420371.23360669,-2015460.4790010082 -6094532.493400624,-2270535.3824970797 -5722901.290824268,-2481041.261992475 -5308742.110606692,-2640273.7911241497 -4856123.420915391,-2741681.216291784 -4369922.761901715,-2778954.8869138956 -3855822.1710114214,-2746122.7853957103 -3320293.356779188,-2637645.0928762043 -2770572.121024012,-2448510.736893027 -2214621.629691034,-2174333.784261218 -1661084.2446085832,-1811448.4682097533 -1119221.7515373821,-1357001.574658252 -598843.9532927284,-809040.8599186869 -110225.73944976096,-166598.13250199982 335987.10495370184,570234.3935394258 728882.9315530413,1400235.875920455 1057399.5183769825,2320998.147089653 1310448.8671375758,3328877.912848058 1477050.5894726103,4418961.172882899 1546472.795054545,5585041.1263246555 1508379.2282473862,6819610.742337628 1352981.238215724,8113871.072413589 1071193.0123786768,9457756.257384337 654788.3572371386,10839976.038379487 96557.17631272142,12248076.417471476 -609540.3253332595,13668518.931284066 -1468223.7843472173,15086778.800395174 -2482749.329410048,16487462.000224793 -3654774.9617545567,17854441.06685164 -4984236.929404272,19171009.205722526 -6469239.373636258,20420052.0146761 -8105959.513803729,21584235.86754461 -9888570.595273301,22646211.73355251 -11809184.753406145,23588832.93376672 -13857817.843098607,24395385.062192447 -16022378.147566196,25049826.02916982 -18288680.7113242,25537033.92212002 -20640488.840583127,25843060.12717046 -23059584.079840954,25955384.918635644 -25525865.707036667,25863172.505677305 -28017480.49241041,25557522.33069997 -30510983.13982354,25031713.246104527 -32981527.475840308,24281437.058809977 -35403088.0739357,23305017.829232525 -37748711.60184917,22103613.246760316 -39990796.762869395,20681394.38054491 -42101401.27071606,19045700.125705346 -44052573.85710419,17207162.733523156 -45816708.86589585,15179800.93221194 -47366920.543175474,12981077.314213516 -48677433.694217056,10631916.888045846 -49723986.95200392,8156683.96826834 -50484244.49382884,5583114.906292966 -50938211.65883488,2942204.5470503205 -51068649.5665797,268044.7307233719 -50861483.52125532,-2402386.357040396 -50306199.71451788,-5029484.651505587 -49396224.51827376,-7571330.581480762 -48129280.49335044,-9984048.822811037 -46507713.1365628,-12222216.257609745 -44538782.352727294,-14239316.285477342 -42234912.67461555,-15988236.931925679 -39613896.367099345,-17421809.483019263 -36699043.745538235,-18493383.65175377 -33519275.315791115,-19157434.559428718 -30109150.706236567,-19370196.10330121 -26508829.812086597,-19090314.58968362 -22763962.109301314,-18279515.849297035 -18925500.718701854,-16903278.429362014 -15049438.508478994,-14931504.885011729 -11196464.312028414,-12339182.681642383 -7431538.20354995,-9107025.78021403 -3823385.7104928624,-5222087.619524762 -443911.84282892395,-678335.9430245598 2632463.123858394,4522820.247744418 5329543.070757527,10372061.386673456 7570166.483137824,16851755.39500695 9277082.577845257,23935632.615954097 10373886.590552494,31588546.838155713 10786006.528989544,39766331.16021349 10441732.542144509,48415756.8552596 9273278.93182374,57474602.660103224 7217867.758155816,66871841.03750322 4218821.981256565,76527946.94401386 226655.15427912236,86355333.482881 -4799856.14449688,96258917.53681313 -10892631.664076477,106136817.066266 -18073293.719375953,115881180.23437558 -26352235.84683842,125379144.89106078 -35727769.672423206,134513925.2294109 -46185365.87323328,143166020.63257873 -57697005.00810909,151214539.8762654 -70220653.68330544,158538631.95970923 -83699880.99704525,165019012.92775425 -98063629.46358326,170539576.14065918 -113226153.64784896,174989071.57080442 -129087138.54266737,178262837.8816183 -145532008.2915503,180264569.30019662 -162432434.2034465,180908097.658214 -179647049.12704703,180119168.4734276 -197022373.1597211,177837188.60399994 -214393953.37165162,174016921.85758704 -231587717.7442319,168630108.00364307 -248421540.87168545,161666979.9468718 -264707016.17776844,153137653.39698908 -280251426.48035127,143073363.23822927 -294859901.7237366,131527520.98240493 -308337749.62299114,118576568.20050305 -320492941.8603659,104320601.68554752 -331138735.3778513,88883747.31636031 -340096405.26098555,72414261.17676683 -347198062.74843305,55084338.44271077 -352289529.07222426,37089612.88125436 -355233233.1789359,18648332.50657647 -355911098.9471671,200.00000043586564" stroke="white" stroke-width="1.5" /></svg>