<?xml version="1.0" encoding="utf-8" ?>
<svg baseProfile="full" height="400" version="1.1" width="400" xmlns="http://www.w3.org/2000/svg" xmlns:ev="http://www.w3.org/2001/xml-events" xmlns:xlink="http://www.w3.org/1999/xlink"><defs /><rect fill="black" height="100%" width="100%" x="0" y="0" /><circle cx="200" cy="200" fill="yellow" r="20" stroke="orange" stroke-width="2" /><polyline fill="none" points="198.91091631977645,200.0 198.91606846023953,199.94309854565032 198.92866319296039,199.8872085959593 198.9488318898483,199.83322874588197 198.97661356654547,199.7820984783345 199.01194798302438,199.73478936235128 199.05466950934098,199.69229526741603 199.1045018838552,199.65562164996987 199.1610539886459,199.62577398340022 199.2238167625387,199.60374541824876 199.29216136606905,199.59050377476905 199.36533870477646,199.58697798511648 199.44248040744404,199.59404411716 199.52260134425921,199.61251112595772 199.6046037563953,199.64310649211254 199.68728305324572,199.68646191830243 199.76933531655186,199.7430992660358 199.8493665320492,199.8134169238932 199.9259035491342,199.89767680596623 199.9974067475807,199.99599218468197 200.06228436768058,200.10831656550295 200.1189084365563,200.2344338119375 200.16563219901832,200.37394972770952 200.20080893647375,200.52628529867025 200.22281203230847,200.6906717899659 200.23005611716195,200.86614788399672 200.2210191029084,201.05155903175262 200.19426489028183,201.24555917414287 200.1484665122829,201.446614970954 200.0824294541367,201.65301265310273 199.99511487099554,201.86286758897447 199.8856624071625,202.07413662796347 199.75341230571075,202.28463325402348 199.59792648534528,202.4920455492859 199.41900825253916,202.69395693286324 199.21672031170053,202.88786960310568 198.99140073469218,203.0712305731569 198.7436765537075,203.24146015002833 198.4744746485481,203.39598266699633 198.1850296109521,203.5322592383691 197.8768882849509,203.64782226505906 197.55191070339848,203.7403113794417 197.21226716688219,203.80751047922953 196.86043124219006,203.84738546309708 196.49916849332251,203.8581222461441 196.13152079857204,203.83816460156066 195.76078615226686,203.78625134665688 195.39049389912626,203.70145236732193 195.02437540247962,203.58320295556206 194.66633020445767,203.43133592058726 194.3203877962064,203.246110925498 193.99066517866027,203.02824049946142 193.68132045883607,202.77891217980041 193.3965027922994,202.49980625004764 193.14029904868062,202.19310855906517 192.91667764308767,201.86151793306234 192.72943004114194,201.5082477269399 192.58211050826958,201.1370211039446 192.47797473389986,200.75205968313855 192.41991801741506,200.35806525257854 192.41041375410597,199.9601943121573 192.45145300505442,199.5640252834837 192.54448597383723,199.1755183045378 192.6903662442899,198.80096761361006 192.88929865638232,198.4469466195566 193.14079171069062,198.12024585292235 193.4436153951973,197.8278040941107 193.79576532050197,197.57663307953223 194.19443403033276,197.37373629344603 194.63599032298922,197.2260224608259 195.1159673755938,197.14021446375634 195.62906040649315,197.12275450922735 196.16913454167792,197.1797064783201 196.72924346867836,197.31665648416958 197.30165936620114,197.53861275723006 197.8779144901292,197.84990605969665 198.4488546769163,198.25409190489736 199.00470489455705,198.75385592051333 199.5351468300777,199.35092374509688 200.0294083519334,200.04597688407455 200.47636452705933,200.83857597285916 200.8646497070451,201.72709289955964 201.1827800275882,202.70865322690125 201.41928549181887,203.7790903213215 201.56285063321693,204.93291254592822 201.60246257974498,206.1632848024164 201.5275651697247,207.46202561467024 201.3282176042092,208.81962083338627 200.9952559625733,210.22525490664125 200.5204557602445,211.66686050616232 199.89669359244465,213.1311871236755 199.11810578805233,214.6038890569409 198.18024189572876,216.0696329920512 197.0802107427484,217.5122251587058 195.81681674790346,218.91475779020274 194.39068413566525,220.25977436185642 192.804366691574,221.52945281277934 191.06244072048906,222.7058056790936 189.17157892152952,223.77089578455494 187.14060297766133,224.70706585044852 184.98051277504186,225.4971801038421 182.70449031816017,226.12487568547053 180.32787659190544,226.57482138946472 177.86811984093356,226.8329810107588 175.34469398965143,226.886878336353 172.77898621189973,226.72586059777748 170.19415297664273,226.3413570082092 167.61494424281727,225.72712884282637 165.06749585063014,224.87950738913455 162.57909055519002,223.79761599901838 160.17788856810338,222.48357241981532 157.89262890973794,220.9426675711615 155.7523033249975,219.18351697080166 153.78580497392252,217.21818109867243 152.02155457009133,215.06225112662588 150.48710709911825,212.73489663290906 149.20874270065144,210.2588721671764 148.21104573400837,207.66047983398653 147.51647646354826,204.96948542038723 147.1449401885089,202.21898600558742 147.1133589966597,199.44522745638707 147.43525163505296,196.6873707287646 148.12032725776837,193.98720646079454 149.1740990233426,191.3888179510788 150.59752366731732,188.93819326551082 152.38667326209264,186.68278789803745 154.53244539154508,184.67104012193448 157.02031790668028,182.95184190000165 159.83015428657862,181.57396896731748 162.93606540241439,180.58547445039304 166.3063331685394,180.03305113273055 169.90340116158387,179.96136820937332 173.68393679526665,180.41238908200393 177.59896905522612,181.42467742110892 181.59410512590043,183.03269935200612 185.60982848270172,185.2661301962888 189.5818801811057,188.14917470861556 193.4417241547198,191.6999101799921 197.1170963431306,195.9296621222215 200.53263641488718,200.84242249389587 203.61059974018528,206.43432056655504 206.27164611178776,212.69315655153454 208.4357005227993,219.5980080054965 210.02288009864358,227.11891879862858 210.95448006160336,235.21668005811267 211.15401039422753,243.84271198612316 210.5482736783263,252.93905479320475 209.06847343546605,262.43847618285264 206.6513411997571,272.2647018717041 203.24026953164892,282.3327745339477 198.78643725001515,292.5495453223477 193.24991233668678,302.8143007476394 186.6007172702598,313.01952620101395 178.81984099157705,323.0518057911506 169.9001813082143,332.79285645004677 159.84740132518488,342.12069245515306 148.680683458374,350.91091463550083 136.43336475897257,359.0381165951421 123.1534376628462,366.37739831867447 108.90390088785873,372.8059755431326 93.76294604206083,378.20487131191567 77.82396658136943,382.46067419496967 61.195377069300775,385.46734579168526 44.000232243096235,387.1280583564045 26.375637176820504,387.3570417292433 8.471941846185587,386.08141724578263 -9.548284367814944,383.24299496671097 -27.511500262070484,378.8000094411405 -45.23466188120551,372.72876832285067 -62.52690967996551,365.02518752381775 -79.19146744506332,355.706186239402 -95.02774358650208,344.8109151378877 -109.83362226360111,332.40179129488445 -123.40792861153562,318.5653140888972 -135.5530491162948,303.41263727354544 -146.07768498835526,287.079873816369 -154.7997132492206,269.7281118519422 -161.5491272134015,251.5431222419319 -166.17102516613477,232.73474076602884 -168.52861335003507,213.53591087972728 -168.50618692840368,194.20137625705084 -166.01205043574936,175.00601597239887 -160.98133740330115,156.24281914427527 -153.3786874040132,138.2205001376043 -143.2007377411568,121.26075996794486 -130.4783864480696,105.6952043318813 -115.27878321197733,91.861933659417 -97.70700531634088,80.10182569724715 -77.90737674381268,70.75453633220462 -56.06439022049136,64.15424959312546 -32.40319423097307,60.62521296372387 -7.189609905564453,60.477099231859654 19.270353817997886,64.00024102169735 46.63151422735294,71.46078883192885 74.51108078488639,83.09584776096872 102.49079036800165,99.10865206321486 130.11962325249954,119.66384017340202 156.91710482991843,144.8828957837985 182.377191093362,174.8398228883306 205.9727285284358,209.55712434826984 227.16047126887963,249.00215441934768 245.38663029166906,293.0839157484727 260.0929211137296,341.6503705440572 270.7230680001054,394.48633389887004 276.7297141972556,451.3120145581658 277.5816792678316,511.7822647475091 272.7714963337745,575.4865959837309 261.82315404691286,641.9500120791631 244.29996051872064,710.6347038164365 219.81243937467778,780.942642034106 188.02616167658587,852.2190971512186 148.66941180125116,923.7571035147347 101.54058059788343,994.8028764349718 46.51517538819178,1064.5621784533198 -16.447666263280468,1132.2076193504258 -87.2992734875877,1196.886861753716 -165.89626431447186,1257.7316910569016 -251.99620635301642,1313.867894851028 -345.2542263218289,1364.4258833305687 -445.2206743965577,1408.5519683346595 -551.3399433254389,1445.4202049802032 -662.950534600295,1474.2446864174046 -779.2864546460715,1494.2921692749212 -899.4800130112956,1504.8948950534088 -1022.566081930561,1505.4634612699972 -1147.4878624358741,1495.4995857515341 -1273.104186487035,1474.6085983212977 -1398.198367466288,1442.5114864199488 -1521.488592957457,1399.056315139698 -1641.6398341463782,1344.2288379163585 -1757.277225604464,1278.1621118923133 -1867.000847839417,1201.1449318962168 -1969.4018230292636,1113.628899228424 -2063.079612031485,1016.2339461214477 -2146.660378331949,909.7521439671749 -2218.8162623408716,795.1496332476819 -2278.2853876433237,673.566525627303 -2323.8923997716097,546.3146438836679 -2354.569318099127,414.87298326619464 -2369.3764628799686,280.88079842938635 -2367.5232026000836,146.12824321671664 -2348.388251989079,12.544516153688079 -2311.539238587544,-117.81650760868934 -2256.7512459866066,-242.79314716841202 -2184.0240350549743,-360.13524696772913 -2093.597640927963,-467.5258920414668 -1985.9660435156193,-562.6053965846104 -1861.8886130290116,-642.9974192890996 -1722.3990397303837,-706.3370226141332 -1568.8114689539993,-750.3004567125193 -1402.7235785495402,-772.636412580578 -1226.0163563542123,-771.1984535997179 -1040.8503601401903,-743.9783004852609 -849.6582716953487,-689.139612260347 -655.1335902067825,-605.0518757508905 -460.21534779959643,-490.3239887781966 -268.06877174839894,-343.8370982368882 -82.06186327437888,-164.77623410860707 94.26208834826721,47.33973531510517 257.21598580469583,292.63031265580696 403.00427285508266,570.8282363914102 527.7619710023873,881.2574926787555 627.5971640962923,1222.8149589819461 698.6366322836582,1593.9561517508673 737.0742775057647,1992.685530988591 739.2219240170024,2416.5517882084773 701.5620199213882,2862.6485108742017 620.8017102910358,3327.620575882033 493.92769987095517,3807.6765770104207 318.26127453355735,4298.6075366447885 91.51280638063103,4795.812090697182 -188.16497144257693,5294.328267791361 -522.1256667103648,5788.871909885169 -911.1806787947689,6273.881702067813 -1355.5541875487413,6743.570694918009 -1854.8424787913377,7191.984114258966 -2407.978404364717,7613.063161218676 -3013.2017643522195,8000.714411117692 -3668.0363781734295,8348.884323867518 -4369.274579465895,8651.638282371063 -5112.969826584652,8903.243480040386 -5894.438065982608,9098.254885230363 -6708.268419586338,9231.603420428479 -7548.343689599685,9298.68540878341 -8407.871085146053,9295.45226137501 -9279.42347514816,9218.499306918451 -10154.991361348037,9065.152602746135 -11026.045645063725,8833.552513299459 -11883.611132002361,8522.732801329357 -12718.350582208617,8132.693948832815 -13520.658968197113,7664.4694106585575 -14280.767454836088,7120.1835048127505 -14988.856461108651,6503.099660791642 -15635.17700812517,5817.657781631561 -16210.179401474867,5069.499527512458 -16704.648141097205,4265.480399222633 -17109.84180034443,3413.6675889399667 -17417.636469905076,2523.322673750041 -17620.67122395279,1604.8683540221232 -17712.493937510884,669.8385838785055 -17687.70566784076,-269.1883960509684 -17542.10171093675,-1198.674433431761 -17272.807359173574,-2104.2233605500387 -16878.406319979695,-2970.7003157113336 -16359.059710191003,-3782.368169951651 -15716.613518436054,-4523.040505008499 -14954.692430331765,-5176.250345405224 -14078.777940054106,-5725.433598040907 -13096.26872839422,-6154.125899526262 -12016.52137288106,-6446.171317565309 -10850.869570811074,-6585.941101060124 -9612.620201644602,-6558.56042759639 -8317.024731422382,-6350.140859986478 -6981.224668483535,-5948.015999158054 -5624.1700162964435,-5340.977612514926 -4266.509934704341,-4519.509328638023 -2930.4551139776195,-3476.0148245141886 -1639.6116849563055,-2205.037294006352 -418.7868310195521,-703.4668795421018 706.2333690465452,1029.2673236138871 1708.9329571179105,2991.0241164363806 2562.340665271982,5176.7993195451645 3239.3283277877395,7578.600544081167 3712.9310131695374,10185.350890193806 3956.6863411720524,12982.824713249287 3944.9900411131835,15953.61840940025 3653.4644083122143,19077.1589343515 3059.335930869109,22329.752481666983 2141.8179949857545,25684.675410039305 882.4942395295953,29112.30912346742 -734.3021744720537,32580.3201758014 -2721.1183802708656,36053.88639384699 -5087.025930838425,39495.96929412606 -7837.284628492335,42867.63251109314 -10973.031570432317,46128.40536352296 -14491.000977694659,49236.690065965595 -18383.280365305767,52150.21044942619 -22637.108531905487,54826.49939621033 -27234.72069413547,57223.42152528948 -32153.24586163135,59299.726994274184 -37364.66124025009,61015.63162035536 -42835.80806276619,62333.417874085615 -48528.47277714807,63218.050675716964 -54399.536973100876,63637.80133336917 -60401.198799297854,63564.87241519044 -66481.2679191549,62976.015853596255 -72583.53527578175,61853.13614832252 -78648.21809167617,60183.87017598396 -84612.47962178694,57962.134836395635 -90411.02221688666,55188.63357900499 -95976.7512460718,51871.31276478983 -101241.50638208086,48025.75883762588 -106136.85568149998,43675.52741131601 -110594.94680538173,38852.39563017325 -114549.40863685448,33596.52953713219 -117936.29547431582,27956.558687476903 -120695.06492595944,21989.5508807192 -122769.57961842317,15760.880648799006 -124109.12187458982,9343.986034829533 -124669.40962858281,2820.0092207039634 -124413.60104558703,-3722.682290173428 -123313.27461604019,-10189.09596294426 -121349.37091350529,-16478.33664620674 -118513.08175827992,-22484.450287719927 -114806.67222899373,-28097.38656208659 -110244.22082568111,-33204.076381743034 -104852.26312262124,-37689.61856299557 -98670.32446880697,-41438.5681766683 -91751.32770786142,-44336.31734697995 -84161.86250545821,-46270.55749292917 -75982.30369669748,-47132.81025552263 -67306.76710211583,-46820.012644636 -58242.892510381884,-45236.140295198486 -48911.4449869778,-42293.85116857508 -39445.72733729424,-37916.13059685479 -29990.798422746324,-32037.91727088122 -20702.494089946118,-24607.68864288055 -11746.249712802946,-15588.98327667735 -3295.7257497621395,-4961.836957282962 4468.759735766305,7275.891109420927 11361.98497647436,21107.32589506111 17195.75544471335,36495.54176972054 21780.99962741918,53382.70880574553 24930.01455130811,71689.4429442313 26458.84310263161,91314.38179462175 26189.76234195151,112134.00649006672 23953.85923880267,134002.72832909386 19593.66758284236,156753.25689575457 12965.83730752714,180197.26396786145 3943.80513075779,204126.35480285285 -7579.566684054276,228313.35534440735 -21689.418471834033,252513.92053624784 -38446.424755551045,276468.4652836067 -57884.4669853469,299904.4156935287 -80008.48590214034,322538.7740835796 -104792.55234537437,344080.9869105931 -132178.19520939988,364236.1002775927 -162073.0246486842,382708.1830734893 -194349.6875133638,399203.99313649745 -228845.19034307863,413436.85716236563 -265360.6230432862,425130.730460205 -303661.31360494567,434024.3981528567 -343477.4409024517,439875.7750888678 -384505.1287197005,442466.2576449739 -426408.0397210823,441605.07681856386 -468819.4831214894,437133.59860655206 -511345.0443432129,428929.5147080322 -553565.7390124828,416910.8641395626 -595041.6872864456,401039.8244785582 -635316.2977633772,381326.210213891 -673920.9431734958,357830.61514152505 -710380.10274129,330667.13595001085 -744216.9386269941,300005.6151435907 -774959.2662759847,266073.3432903151 -802145.8709182304,229156.16329206782 -825333.1149594485,189598.92297733843 -844101.7736904172,147805.22683105126 -858064.0297142509,104236.443103463 -866870.5498602298,59409.92887586674 -870217.5622259683,13896.442886547813 -867853.8454772126,-31683.275994157 -859587.5377461856,-76662.77784871992 -845292.6685132757,-120335.02190343746 -824915.3138377843,-161958.34101764546 -798479.27332187,-200763.23270006984 -766091.1663419291,-235959.9474048423 -727944.8454496157,-266746.8329783691 -684325.0265077271,-292319.3819626606 -635610.0381502875,-311879.9161432171 -582273.5975946721,-324647.8304031848 -524885.5257265037,-329870.3057629114 -464111.3217488604,-326833.3896065844 -400710.5265438966,-314873.3296933549 -335533.8142262253,-293388.03779287764 -269518.76314383786,-261848.54885166718 -203684.27075415693,-219810.33266584264 -139123.59129960596,-166924.30728591623 -76995.99093730922,-102947.39698583263 -18517.03182810204,-27752.47276184211 35052.485473664354,58662.48985023349 82418.87332181542,156166.20218548764 122269.13464433709,264486.9689867357 153285.6798702509,383206.8732116492 174162.0759964921,511757.39728581114 183619.70064800497,649416.6317086096 180425.15419848412,795308.2122862673 163408.26373574277,948402.1152312641 131480.4941481238,1107517.424918843 83653.56415883018,1271327.1722471756 19058.04903151509,1438365.3223572955 -63038.26279661403,1607035.9690137396 -163212.5044390054,1775624.7693420253 -281869.6122561792,1942312.6270144915 -419226.21798165754,2105191.604556176 -575295.8198256077,2262283.016426979 -749875.5031954858,2411557.6241789344 -942534.4805383364,2550957.8235767283 -1152604.715246187,2678421.6814249684 -1379173.8864019252,2791908.6473183464 -1621080.9392382943,2889426.732999585 -1876914.450434978,2969060.9198797196 -2145014.0177264623,3029002.523971795 -2423474.859719617,3067579.2174578104 -2710155.7843554504,3083285.377808488 -3002690.653175083,3074812.4092737664 -3298503.4335997496,3041078.6581312637 -3594826.892997434,2981258.5227906955 -3888724.946628608,2894810.3431667187 -4177118.6269423845,2781502.6411003806 -4456815.594490283,2641438.2754588155 -4724543.061351634,2475076.0722752754 -4976983.946891671,2283249.492275108 -5210816.033422483,2067181.9056949643 -5422753.836478393,1828498.0577214004 -5609592.8515688535,1569231.327377069 -5768255.787091599,1291826.4084324958 -5895840.342269772,999137.0730169008 -5989668.0402433025,694418.7170689406 -6047333.580543004,381315.4315549889 -6066754.132865027,63841.39435628515 -6046217.956112529,-253643.56533504327 -5984431.693842684,-566464.3156738905 -5880565.67030382,-869666.70158244 -5734296.490896885,-1158059.7000209868 -5545846.23784397,-1426263.3193957196 -5316017.546745516,-1668762.0310819608 -5046223.853152325,-1879963.4379914354 -4738514.110798957,-2054261.8001696987 -4395591.30519345,-2186105.9515049616 -4020824.1181981284,-2270071.055766194 -3618251.1413329877,-2300933.5654375614 -3192577.0879438245,-2273748.6643069712 -2749160.5171397417,-2183929.395674901 -2293992.6554324203,-2027326.6035888514 -1833666.9850814482,-1800308.7459152038 -1375339.3609049448,-1499840.576579842 -926678.5192479935,-1123559.6411831712 -495806.9532594627,-669849.4866445853 -91232.24680732965,-137908.4527386204 278230.91568894195,472187.107521027 603547.7156144177,1159426.3396570995 875558.6597698218,1921815.286726104 1085082.9122276364,2756337.309889568 1223028.7378201683,3658923.6287014885 1280510.1571550549,4624435.026962694 1248968.7754134524,5646655.701187689 1120299.6132349903,6718300.1431638235 886979.6396444652,7831033.845697571 542197.586199909,8975508.501585376 79983.51034987064,10141412.230481908 -504663.5235955645,11317535.21725732 -1215651.3634338935,12491850.97946686 -2055676.0758853545,13651613.301764615 -3026110.48198497,14783468.68279326 -4126901.795249479,15873583.936824916 -5356480.249213825,16907788.380012013 -6711680.59069221,17871729.811556682 -8187678.280855377,18751043.275682844 -9777942.18674434,19531531.36345352 -11474205.46021458,20199354.58688549 -13266456.188836327,20741230.134304635 -15142949.263568046,21144637.098447878 -17090240.740984112,21398026.060560398 -19093245.783724956,21491030.71787129 -21135321.04224503,21414679.061615076 -23198372.09483707,21161601.45149913 -25262986.292659413,20726232.793468647 -27308591.063836012,20105005.914009195 -29313637.41776778,19296533.139174253 -31255808.06013723,18301773.032994196 -33112249.1836193,17124179.230699494 -34859824.64234553,15769828.319806453 -36475390.85336918,14247523.778816843 -37936090.399770446,12568873.08099133 -39219661.94193901,10748335.21089268 -40304763.68060385,8803236.025271248 -41171307.262198046,6753749.11801184 -41800798.679214045,4622840.121406975 -42176682.40052832,2436172.692549384 -42284684.67457586,221974.79315575547 -42113151.68706243,-1989135.7279512063 -41653378.02995388,-4164366.800376468 -40899920.75499136,-6269009.119945737 -39850894.14801479,-8266734.023732503 -38508240.2747485,-10119931.279321142 -36877970.318928085,-11790085.253404045 -34970371.763820626,-13238187.34435948 -32800176.561968394,-14425181.97043971 -30386685.59845242,-15312442.806149736 -27753844.982600667,-15862275.36136473 -24930270.00363126,-16038441.408224741 -21949212.958237678,-15806700.187768301 -18848471.502776206,-15135360.779841352 -15670234.698798386,-13995839.504530082 -12460864.50656258,-12363215.749837276 -9270611.134227978,-10216779.197239667 -6153261.367071793,-7540561.052774702 -3165719.7766098278,-4323841.594889982 -367523.5382432394,-561626.1296632866 2179707.5387468836,3744918.6930156345 4412883.251155617,8588076.294812465 6268114.050277785,13953247.356904054 7681436.473368257,19818680.666618347 8589587.559236623,26155275.245439403 8930821.877550073,32926461.00518408 8645763.84405708,40088164.68796459 7678287.063606187,47588867.23743526 5976411.552898384,55369758.023506485 3493208.859157892,63364990.50137879 187704.32335805788,71502042.93109356 -3974234.94858687,79702186.72010775 -9019038.432119837,87881063.78459723 -14964609.352012731,95949373.06290811 -21819553.531454995,103813664.96608736 -29582473.000799708,111377241.12675917 -38241337.51561577,118541155.32144667 -47772947.0459802,125205309.90704583 -58142498.04291779,131269640.54544479 -69303265.85541373,136635380.4085261 -81196415.05608906,141206393.47769764 -93750948.63083242,144890564.99752894 -106883805.99485438,147601235.6329385 -120500118.61441645,149258664.43547517 -134493630.64182293,149791504.36890873 -148747290.4156284,149138272.90044558 -163134016.94541138,147248799.05430672 -177517643.6006187,144085627.3719765 -191754039.16830292,139625358.45049894 -205692404.2503001,133859905.15844828 -219176738.65439883,126797643.27915166 -232047473.01707667,118464435.2216683 -244143255.40067264,108904505.58938085 -255302881.06129083,98181147.81930535 -265367351.01346007,86377241.81543875 -274182042.4540678,73595563.50705424 -281598971.5835842,59958868.57516022 -287479126.911218,45609734.21149083 -291694848.7877274,30710144.704881404 -294132228.71159077,15440808.886416452 -294693499.93813616,200.00000036089568" stroke="white" stroke-width="1.5" /></svg>