<?xml version="1.0" encoding="utf-8" ?>
<svg baseProfile="full" height="400" version="1.1" width="400" xmlns="http://www.w3.org/2000/svg" xmlns:ev="http://www.w3.org/2001/xml-events" xmlns:xlink="http://www.w3.org/1999/xlink"><defs /><rect fill="black" height="100%" width="100%" x="0" y="0" /><circle cx="200" cy="200" fill="yellow" r="10.368530285684555" stroke="orange" stroke-width="2" /><polyline fill="none" points="198.90720883777286,200.0 198.82790757684515,199.93847050199824 198.75146757159416,199.86855326479505 198.6788202606593,199.79039051896905 198.6109053283079,199.70423113615308 198.54865933753732,199.61043449542726 198.4930036331487,199.5094732279885 198.44483161613837,199.40193473062905 198.4049955053546,199.28852134653283 198.37429271650313,199.1700491216752 198.35345200204807,199.0474450566813 198.34311950813597,198.92174278734 198.3438449161488,198.79407664203782 198.35606784665623,198.6656740410954 198.3801047121687,198.53784622126426 198.41613621198414,198.41197728834646 198.46419566736827,198.28951162189006 198.52415839812133,198.17193967800804 198.59573234208239,198.0607822593732 198.6784501171483,197.9575733451243 198.7716627207926,197.86384159753686 198.87453505474625,197.78109068658932 198.98604345235216,197.71077859770327 199.10497537306702,197.65429611164612 199.2299314126263,197.6129446685286 199.35932975851307,197.58791384967645 199.49141319861903,197.58025873155418 199.6242587664346,197.59087738452286 199.75579007887126,197.62048880566985 199.8837923930635,197.66961158890726 200.00593037642045,197.73854364665806 200.119768550043,197.82734330540478 200.22279432967497,197.93581210185505 200.3124435509454,198.06347960719256 200.38612832715086,198.20959060356873 200.44126704862416,198.37309492942367 200.4753162932861,198.5526402982116 200.48580437874713,198.74656837849747 200.47036624782407,198.95291440209078 200.42677934209016,199.16941054083318 200.3530000826277,199.39349326187147 200.24720054407015,199.62231483578915 200.1078048778686,199.8527591319654 199.9335250140693,200.08146179117537 199.72339514831273,200.30483481700006 199.47680450281135,200.51909557540446 199.19352783726484,200.7203001362694 198.87375317853815,200.90438083218908 198.51810623691955,201.06718784900795 198.127670982323,201.20453459996386 197.70400586626528,201.31224657159117 197.24915519514812,201.38621326543563 196.76565518754168,201.4224427959135 196.25653428296636,201.41711864212905 195.72530731217898,201.3666579910062 195.17596318917668,201.26777105157967 194.61294584292747,201.11752066664428 194.04112817200982,200.91338149910146 193.46577887757823,200.6532980271992 192.89252210894085,200.33574054635628 192.32728994100384,199.95975834628916 191.77626779325476,199.52502921158967 191.24583299506543,199.03190438254697 190.7424868010231,198.48144811163286 190.27278026177387,197.87547096035368 189.84323445940717,197.21655600172087 189.4602557205562,196.50807712589688 189.1300465238808,195.7542086910255 188.85851292010443,194.95992581811163 188.65116938090077,194.13099469820193 188.5130420862196,193.2739523620068 188.448571746624,192.3960754563199 188.46151713637278,191.50533767778 188.55486058282025,190.61035563217087 188.73071671672042,189.7203230158627 188.9902458347612,188.8449331542957 189.33357325870762,187.99429007952656 189.7597160935773,187.17880848356813 190.26651878907387,186.40910304513125 190.85059889295587,185.69586779284086 191.50730435115145,185.04974633629064 192.23068365643587,184.48119396552073 193.01347007474826,184.00033278760753 193.84708108531916,183.61680123387475 194.72163405751544,183.3395994305055 195.62597905372914,183.17693207669623 196.54774949404393,183.1360506155395 197.47343124537736,183.22309661110077 198.38845050616658,183.44294835822046 199.27728064858331,183.79907284699496 200.12356795515657,184.29338527930562 200.91027594728178,184.92611838788957 201.6198477514174,185.6957038371308 202.2343856871308,186.59866798699835 202.73584699213194,187.6295442755716 203.1062543258897,188.78080441980438 203.32791941844997,190.04281054728688 203.3836779580023,191.4037902527639 203.25713354308783,192.84983642139125 202.9329082668069,194.36493347585096 202.39689725478794,195.93101148658533 201.63652424995115,197.52802933404598 200.64099512920586,199.13408782993127 199.40154605415196,200.72557339228928 197.91168280354202,202.277332528962 196.16740771355708,203.76287701747418 194.16743056654641,205.1546192799477 191.91335972327698,206.42413704224361 189.409869791164,207.5424659410621 186.66484216432144,208.48041830538122 183.689474863123,209.2089258940313 180.4983582433964,209.6994039244327 177.1095133400118,209.92413328397888 173.54438985753416,209.85665738095872 169.82782112228207,209.47218967228906 165.98793366541062,208.7480275068906 162.05600951469236,207.66396755266624 158.0662997319591,206.20271773818587 154.05578824140906,204.3503003438198 150.06390554813652,202.0964406275875 146.13219254248025,199.434935174647 142.30391521951555,196.3639940221427 138.62363180886626,192.88655053872128 135.13671450183963,189.01053303565968 131.88882867384086,184.74909215894482 128.92537322252363,180.12077826290783 126.29088636797664,175.14966319954777 124.0284219816181,169.86540127608248 122.17890221604871,164.30322453826585 120.78045288912497,158.50386802936558 119.86772872184308,152.51342125413407 119.47123613090767,146.3831027422504 119.6166618225959,140.1689553540254 120.32421591420982,133.93146079890974 121.60799871264898,127.73507273954385 123.47540059628705,121.64766882450975 125.92654466666781,115.7399230240708 128.9537819513526,110.08460072626802 132.54124894005713,104.75578017577918 136.66449711536282,99.82800499375247 141.2902038901351,95.37537369108337 146.37597398082656,91.47057326694306 151.87023972490059,88.1838651544473 157.71226818890523,85.58203292101032 163.83228211007102,83.7273022362616 170.15170076918827,82.67624466897132 176.58350580821718,82.47867784937428 183.03273578676763,83.1765754175545 189.3971119233807,84.80300095506729 195.5677959985885,87.38108074886814 201.43027981720635,90.9230307474148 206.86540394946914,95.4292534227197 211.75050170875107,100.8875204342373 215.96066249398157,107.2722569869999 219.37010674573193,114.54394357498167 221.85366285634004,122.64865039052656 223.28833445814055,131.5177190529262 223.55494461320117,141.06760545713837 222.53984156761592,151.1998964627473 220.13664893922223,161.8015118317168 216.2480415063372,172.74510128213979 210.78752618413765,183.8896447578278 203.6812063423615,195.08126202705674 194.86950636082355,206.1542355281262 184.30883226522823,216.93224798790567 171.9731434616424,227.2298337688647 157.855410019415,236.8540401701928 141.9689296634712,245.60629204281443 124.34847865012287,253.28445010291415 105.05127103584606,259.6850502737374 84.15770152332335,264.60570828354207 61.771848097748176,267.8476706341181 38.02171205985576,269.21848996719797 13.05917482746878,268.5347998355418 -12.94034698253617,265.6251609735069 -39.778564166530515,260.3329484020161 -67.23530833499211,252.51924613953028 -95.0698659600518,242.06571396896922 -123.02265935237023,228.87738867556638 -150.81727695697674,212.88538046691073 -178.1628511742216,194.0494239573073 -204.75677747079266,172.36024218567587 -230.28776388466997,147.841681678764 -254.43919519028594,120.55257660565226 -276.89279102436,90.58830062788424 -297.3325322320869,58.081966160213994 -315.448824635232,23.20523244311127 -330.9428644100477,-13.831313892648183 -343.53116435909055,-52.77823920538074 -352.9501956353321,-93.34783410933909 -358.96109500019986,-135.2152014734827 -361.3543835416881,-178.01988230175277 -359.95463901762173,-221.3680353719563 -354.6250606958665,-264.83518068745815 -345.2718628098968,-307.9695104578692 -331.8484306052285,-350.2957645163466 -314.3591714872474,-391.3196598550685 -292.8629930575774,-430.53285637888246 -267.476339903033,-467.4184331105671 -238.37572193099777,-501.45684100836445 -205.79966887333592,-532.1322903640332 -170.0500483451384,-558.93952253159 -131.49268857299523,-581.3909075936456 -90.55725161829014,-599.0238016100849 -47.73630862141164,-611.4080894240749 -3.5835752782117822,-618.1538317378829 41.288726586825845,-618.918928433486 86.21340689563385,-613.4167040193664 130.4727607008545,-601.4233157542095 173.30394282133452,-582.7848805477911 213.90525838895195,-557.4242132835736 251.4433522091116,-525.3470668559856 285.061267504468,-486.6477630712337 313.88733181857947,-441.51410371896793 337.04481473159626,-390.23145266840197 353.6622887247763,-333.1858828503223 362.88461117750376,-270.8662865162591 363.884432253064,-203.86535326361837 355.87412050077603,-132.8793280097592 338.11798555293603,-58.70647040027558 309.9446655124173,17.755851961080538 270.75953570191336,95.51549159965613 220.0569855720348,173.49131171784984 157.43240193600218,250.52046490255339 82.59368950421418,325.36716889179485 -4.627845881906438,396.73297026514354 -104.26742969279042,463.2684677927666 -216.21774701582268,523.5864471184932 -340.2210465977163,576.276357650182 -475.86259793039073,619.9200411949575 -622.5656737405852,653.1086002374473 -779.5882228220842,674.460272064553 -946.0213881796303,682.63915345694 -1120.7900128885537,676.3745996766213 -1302.6552608963434,654.4811012758616 -1490.2194622157688,615.878423139214 -1681.933271630746,559.6117724585724 -1876.1052072379193,484.87174634492754 -2070.913609997211,391.013795813925 -2264.4210381186426,277.5769312550617 -2454.591080763812,144.30138550757385 -2639.307544419255,-8.855055391252108 -2816.395932674357,-181.70234657641947 -2983.6471063133686,-373.8053960412195 -3138.842975950124,-584.4734815675483 -3279.784044269139,-812.752152693453 -3404.318579693121,-1057.417885349925 -3510.3731684075924,-1316.9757404946251 -3595.984357596067,-1589.6602575477586 -3659.3310699525764,-1873.439788667567 -3698.7674385365335,-2166.024450913717 -3712.855682322872,-2464.8778402138537 -3700.3986168896354,-2767.232613907258 -3660.4713720841264,-3070.110007681903 -3592.451869722105,-3370.343308203421 -3496.049599889849,-3664.6052549697756 -3371.3322247055235,-3949.4392942918776 -3218.7495338946055,-4221.294555235637 -3039.1542776485394,-4476.564362361622 -2833.819409329323,-4711.628043720025 -2604.45128396749,-4922.8957354098975 -2353.198378431302,-5106.855826751493 -2082.6551258121035,-5260.124633454463 -1795.8604900938171,-5379.497830837481 -1496.2909475956253,-5462.003125943718 -1187.8475889551817,-5504.9535971064015 -874.8371094269162,-5506.001082969697 -561.9465157837799,-5463.188960992538 -254.21144481559332,-5375.003618885537 43.021939103336535,-5240.423892069446 324.1414221646339,-5058.96771689287 583.3194673960344,-4830.7352337670345 814.5699751357143,-4556.4475672798035 1011.8107743563122,-4237.480512397404 1168.9314498275394,-3875.8923676371387 1279.8660172233892,-3474.445178102022 1338.6698652441446,-3036.618683921722 1339.6002917818516,-2566.6163132487814 1277.1998713220385,-2069.362613707738 1146.3818044097725,-1550.4915821504387 942.5163184211751,-1016.325429665927 661.5171134073657,-473.84340681332094 299.9267787647807,69.35958737132654 -144.99995272054122,605.124780417624 -675.2162959802486,1124.7917353458765 -1291.8080700990051,1619.270916793065 -1994.924165249733,2079.1264036226994 -2783.7140764819005,2494.668396908256 -3656.273757019059,2856.0550267500817 -4609.601024196149,3153.4028123904627 -5639.561714995402,3376.904979146465 -6740.867734657631,3516.9566845315017 -7907.068070558468,3564.2860564515477 -9130.55375414236,3510.089800511504 -10402.57764609877,3346.171993308735 -11713.289794264969,3065.08454624952 -13051.78897030051,2660.2677020698993 -14406.190830595038,2126.1888160656454 -15763.712969994142,1458.4775782234979 -17110.776944867306,654.0557531512184 -18433.127136167583,-288.74054598012333 -19715.96610508455,-1370.048073340943 -20944.105865562713,-2588.3751976349317 -22102.134261503674,-3940.5142153843726 -23174.595394286975,-5421.469232725726 -24146.18280096055,-7024.4015586662645 -25001.943837911727,-8740.594465135562 -25727.493482073598,-10559.43905260308 -26309.235524949847,-12468.442814036614 -26734.588907308153,-14453.26231438887 -26992.216727744915,-16497.761197827236 -27072.25525999727,-18584.094501143813 -26966.54013542489,-20692.819990178847 -26668.82669206009,-22803.036948052166 -26175.00136352831,-24892.552531337795 -25483.28088336497,-26938.075475274905 -24594.396016051207,-28915.43657435473 -23511.756498505623,-30799.83499325186 -22241.593887596388,-32566.10907858375 -20793.079062972534,-34189.02994829114 -19178.411232294184,-35643.615736817905 -17412.875429499265,-36905.463975355 -15514.865687362373,-37951.09919214771 -13505.871304060709,-38758.332433464006 -11410.423909997087,-39306.629036723716 -9256.003375400034,-39577.480639113586 -7072.900980263822,-39554.77708349644 -4894.038694397861,-39225.173594343614 -2754.743884450435,-38578.448345551784 -692.4792737927653,-37607.845335030426 1253.471473563671,-36310.39732337185 3042.3615966419306,-34687.22349101907 4632.380956324164,-32743.79642506549 5981.095451653601,-30490.1730676892 7045.923315926417,-27941.184347275208 7784.644827039864,-25116.578373977234 8155.941318432706,-22041.112316612445 8119.958736577177,-18744.588389428005 7638.89036684556,-15261.829766676867 6677.572750531177,-11632.592710456383 5204.08825098435,-7901.4117423087555 3190.3672055481543,-4117.375310074344 612.7821316474423,-333.83009578720134 -2547.273950631868,3391.98712572208 -6302.833351612231,6999.390339237455 -10660.832226865863,10424.75722692619 -15621.630464893828,13602.112626770444 -21178.581706593177,16463.77996448759 -27317.66221894648,18941.09709515986 -34017.167197912015,20965.191950421213 -41247.48281150177,22467.812334260263 -48970.941908990484,23382.20315755973 -57141.77081278063,23644.023361489704 -65706.1339736662,23192.293766610754 -74602.28250754243,21970.366112420314 -83760.81174297408,19926.90263593655 -93105.03189711427,17016.85469290602 -102551.45486653039,13202.428166624317 -112010.39887573013,8454.02275238873 -121386.71137741604,2751.1316652447995 -130580.60915453803,-3916.812090527149 -139488.63304663077,-11549.657015938976 -148004.71312511186,-20135.836207774795 -156021.33848935997,-29651.766413230896 -163430.8241643755,-40061.3569726855 -170126.66587010713,-51315.642140776494 -176004.97172208948,-63352.54964531796 -180965.9582341794,-76096.81751075115 -184915.49634933652,-89460.07013461433 -187766.69164699878,-103341.06336109395 -189441.48138979974,-117626.1068467629 -189872.22970275686,-132189.6703644348 -189003.3009494716,-146895.1788487835 -186792.59030706092,-161595.9989619837 -183212.9896687737,-176136.61776204105 -178253.76634416258,-190354.0117066224 -171921.83160378228,-204079.201739985 -164242.87594973022,-217138.98761185605 -155262.34810425,-229357.85188958526 -145046.2551132323,-240560.0213760704 -133681.76167436098,-250571.6708659196 -121277.56783273583,-259223.25139354743 -107964.0455485368,-266351.92238410463 -93893.1163368644,-271804.0644478058 -79237.85421047482,-275437.8469984206 -64191.80051895447,-277125.82246669853 -48967.979965799044,-276757.5166593329 -33797.610086191075,-274241.98282401956 -18928.499766692068,-269510.28526145336 -4623.135962430504,-262517.87691522215 8843.538408308303,-253246.83430876146 21186.648368723887,-241707.91252138308 32114.201337040282,-227942.38263708263 41330.176508428536,-212023.61429158004 48537.86907616956,-194058.36661266896 53443.46468484179,-174187.75202010182 55759.81499368832,-152587.83904292597 55210.380773521814,-129469.86253824816 51533.30462499531,-105080.01246395432 44485.571251710564,-79698.77567079807 33847.20931227538,-53639.80903178582 19425.485276098727,-27248.326607130115 1059.0364839549409,-898.9884320621115 -21378.112168577587,25006.716114236136 -47972.70578464103,50043.59158193505 -78768.65082728762,73766.36136613012 -113763.70094341783,95713.78268659615 -152906.49830821317,115413.23317902086 -196094.03121788488,132385.7435393324 -243169.5675512152,146151.44339905446 -293921.1217972825,156235.38026767113 -348080.51057720656,162173.66404384264 -405323.04794951377,163519.8823627616 -465267.9272688977,159851.72500864312 -527479.3309638873,150777.74887998338 -591468.3033182598,135944.20865456408 -656695.4142034143,115041.87246694736 -722574.2337456795,87812.73668985837 -788475.629167516,54056.54940842543 -853732.8855712162,13637.048496885436 -917647.6423071855,-33512.18254805197 -979496.6258682807,-87382.33959827853 -1038539.1490717371,-147884.60291616814 -1094025.334737729,-214846.02084676825 -1145205.010267529,-288006.16898800427 -1191337.2075944226,-367014.678487955 -1231700.191067006,-451429.7225831835 -1265601.9240766678,-540717.5445448434 -1292390.8738162334,-634253.102819222 -1311467.042618489,-731321.9003325264 -1322293.1040404919,-831123.054689096 -1324405.5124039112,-932773.6543605631 -1317425.446046289,-1035314.4329916732 -1301069.437255063,-1137716.779708494 -1275159.5359147477,-1238891.0878987205 -1239632.8494616412,-1337696.4284547868 -1194550.298965575,-1432951.516062217 -1140104.4301906233,-1523446.9189325455 -1076626.1194593445,-1607958.443596539 -1004590.0171757472,-1685261.607182672 -924618.5770511037,-1754147.0902194374 -837484.5265039488,-1813437.0436462983 -744111.6434284579,-1862002.10463955 -645573.7165769209,-1898778.9573121457 -543091.5811881871,-1922788.2565969387 -438028.13819207385,-1933152.7169448242 -331881.2842770592,-1929115.1521424046 -226274.70124058073,-1910056.2388592912 -122946.47623062148,-1875511.7647523629 -23735.549583423905,-1825189.1123581538 69433.98621940527,-1758982.7228609214 154570.68462874083,-1676988.2793856335 229635.55872024724,-1579515.3479688792 292563.79853743047,-1467098.2160222472 341288.2489253184,-1340504.6731122897 373764.47318903013,-1200742.4874018154 387997.1964684578,-1049063.343256718 382067.8917345833,-886964.0214146723 354163.2412010347,-716184.6227880706 302604.1771393219,-538703.6604428083 225875.17903368274,-356729.87151886406 122653.47916545712,-172690.63175082993 -8162.193465687891,10783.110331878372 -167423.7200412337,190875.42468631695 -355706.9543027664,364607.52082966885 -573286.7565752112,528863.359375542 -820114.1226993127,680418.6686284975 -1095795.8334492333,815973.2327336558 -1399577.047183261,932186.268218221 -1730327.250200086,1025714.6550537667 -2086529.9652879036,1093253.7371726283 -2466276.5990503724,1131580.356293058 -2867264.782623619,1137597.732589174 -3286801.5282785282,1108381.7568599272 -3721811.486120369,1041228.2121107053 -4168850.5407171245,933700.3985867435 -4624124.937151942,783676.596026701 -5083516.0699314065,589396.7609802611 -5542611.006704863,349507.82619290403 -5996738.752260075,63106.94402906949 -6441012.187252866,-270218.002619032 -6870375.541179539,-650351.3098381516 -7279657.180882548,-1076616.4740695038 -7663627.415144191,-1547748.0119952422 -8017060.933506631,-2061868.7519037663 -8334803.414272635,-2616473.2465407588 -8611841.753671983,-3208417.9248687364 -8843377.286471581,-3833918.557711634 -9024901.288963689,-4488555.559820205 -9152271.979430798,-5167287.588441527 -9221792.160037057,-5864473.826118258 -9230286.578833861,-6573905.25341755 -9175178.03239625,-7288845.1259680325 -9054561.179726958,-8002078.770079853 -8867272.997652492,-8705972.702995205 -8612958.77812547,-9392542.968266021 -8292132.54972285,-10053532.454829738 -7906230.8001978025,-10680496.841143336 -7457658.38512101,-11264898.674467219 -6949825.530246469,-11798208.961427558 -6387174.872940187,-12272015.5108119 -5775197.5413633,-12678137.134772107 -5120437.339483693,-13008742.68192082 -4430482.191619061,-13256473.747004729 -3713942.102105639,-13414569.778783938 -2980413.003668561,-13476994.192356652 -2240426.001746836,-13438559.986388844 -1505381.6707902257,-13295053.271503756 -787469.221554685,-13043353.035399267 -99570.53460466662,-12681545.405004032 544850.7567253474,-12209030.6179986 1131874.7522955406,-11626620.887073927 1647264.7515339614,-10936627.33200511 2076619.8982575107,-10142934.168476067 2405539.984214813,-9251058.379908731 2619801.171956999,-8268193.160436712 2705541.178676469,-7203233.504492981 2649452.2471613856,-6066782.431874179 2438980.0209073657,-4871136.476931646 2062526.2407373744,-3630249.2367542344 1509652.993120448,-2359671.965550172 771286.0689171067,-1076470.42026274 -160085.1613016952,200882.59523569467 -1290214.0797513968,1452639.2746087478 -2622912.1915276297,2657933.442646606 -4159876.4393300097,3794961.4724605186 -5900531.416114827,4841186.858074283 -7841889.441608122,5773567.477721121 -9978431.445191987,6568804.236126209 -12302011.5360965,7203609.420103191 -14801788.04028543,7654992.744847787 -17464183.640511062,7900562.712619045 -20272877.070734456,7918840.555564359 -23208828.587934867,7689583.695009367 -26250341.173225142,7194115.325520905 -29373159.10065275,6415656.428526952 -32550605.15715287,5339656.24238797 -35753757.4024782,3954116.968733994 -38951665.925803535,2249908.283747252 -42111609.58896754,221067.0529169775 -45199392.24844336,-2134922.4765203875 -48179677.42324652,-4816872.805096602 -51016359.82880484,-7819666.451322613 -53672971.632649414,-11134063.141773423 -56113120.712512486,-14746545.598565673 -58300957.617466085,-18639208.43509763 -60201667.35498125,-22789694.436999626 -61781981.558592975,-27171182.202457126 -63010706.03991057,-31752428.743570656 -63859258.203038156,-36497870.208174534 -64302208.30728507,-41367783.37037284 -64317818.11374254,-46318509.95973235 -63888570.051248565,-51302745.25625072 -63001679.6958417,-56269891.67462769 -61649584.083168335,-61166477.301646225 -59830398.17334371,-65936638.54032725 -57548331.669980764,-70522665.16066453 -54814058.36644902,-74865605.1668573 -51645030.25923986,-78905925.97370611 -48065728.836153485,-82584227.44978577 -44107846.22057923,-85842001.4426266 -39810389.23606787,-88622431.46261421 -35219699.95028119,-90871225.27963363 -30389386.865573175,-92537472.29214704 -25380161.644941233,-93574516.67544718 -20259577.095492687,-93940836.5176389 -15101663.074037757,-93600918.42208661 -9986458.026519302,-92526116.40727317 -4999435.018702102,-90695483.38277598 -230822.35223719935,-88096563.03672346 4225179.821423933,-84726129.6483398 8271284.087672055,-80590863.15130617 11808097.307026684,-75707946.73082152 14735193.364731403,-70105574.34982923 16952269.871394582,-63823355.87674479 18360380.02298958,-56912607.935878314 18863229.30387285,-49436519.228442624 18368525.218022227,-41470179.88066439 16789366.781847287,-33100465.368344475 14045659.127813974,-24425766.743997455 10065537.273595335,-15555560.251398554 4786781.92849709,-6609810.947962514 -1841790.840158726,2281793.3390686465 -9858985.151327016,10980779.531300899 -19289945.85168127,19340998.08842276 -30144964.358450707,27209900.71857472 -42418390.40767705,34429982.40067844 -56087670.37561674,40840380.75591544 -71112532.65176712,46278623.38071431 -87434340.08550379,50582511.28326728 -104975628.79204756,53592124.07715087 -123639851.5781976,55151930.10909119 -143311342.92700568,55112982.26463148 -163855520.8603181,53335177.83884158 -185119339.07863232,49689558.613487236 -206932000.56322086,44060625.18280629 -229105941.3233645,36348637.652971596 -251438090.19409823,26471873.141664777 -273711407.5527791,14368809.059556682 -295696702.54683757,200.00000036212427" stroke="white" stroke-width="1.5" /></svg>