<?xml version="1.0" encoding="utf-8" ?>
<svg baseProfile="full" height="400" version="1.1" width="400" xmlns="http://www.w3.org/2000/svg" xmlns:ev="http://www.w3.org/2001/xml-events" xmlns:xlink="http://www.w3.org/1999/xlink"><defs /><rect fill="black" height="100%" width="100%" x="0" y="0" /><circle cx="200" cy="200" fill="yellow" r="10.000024362416172" stroke="orange" stroke-width="2" /><polyline fill="none" points="200.0164993700604,200.0 199.9418673768117,199.99694830283718 199.8630567866945,199.98558248237055 199.7807713525696,199.96521865901613 199.6958052950627,199.9352302444887 199.60903948481345,199.8950592825614 199.5214362911853,199.8442276859783 199.43403307220913,199.7823482224582 199.34793429574674,199.70913509598768 199.2643022982187,199.624413964326 199.18434670461446,199.5281312299914 199.10931255174623,199.42036244012692 199.04046717564975,199.30131963069266 198.9790859434901,199.17135745253177 198.92643693008594,199.03097792111765 198.8837646590017,198.8808336383041 198.8522730478277,198.72172934323592 198.83310771651898,198.55462166078337 198.82733783622967,198.38061692945533 198.83593771367845,198.20096700671763 198.8597683224352,198.01706296795263 198.8995590073364,197.8304266358739 198.95588960123425,197.64269989995148 199.02917320417612,197.45563181017062 199.11963988362018,197.27106345606666 199.22732156015653,197.09091067024673 199.35203834616738,196.91714462527955 199.4933866046976,196.7517704236361 199.65072899230717,196.59680381198808 199.8231867426623,196.45424618327755 200.00963443694405,196.32605806219647 200.20869749269693,196.21413130166178 200.41875258443557,196.12026024912828 200.63793118714338,196.0461121717093 200.86412640774788,195.99319725762626 201.09500323981183,195.96283853801924 201.32801234315096,195.95614209715868 201.56040741305011,195.97396796013214 201.78926616342633,196.01690206468493 202.01151490495852,196.08522973761342 202.2239566532115,196.17891110552162 202.423302653515,196.29755887444296 202.60620715927,196.44041891243018 202.76930524894158,196.60635406338778 202.90925341481355,196.7938316088753 203.02277260422102,197.0009147771026 203.106693342084,197.2252586746938 203.15800251281257,197.46411098689228 203.17389133075406,197.71431775567265 203.15180398203057,197.9723345027414 203.08948637762944,198.23424291575725 202.9850344187075,198.49577326147372 202.8369411410192,198.75233262918366 202.64414207692047,198.9990390421924 202.40605815126784,199.23076140452756 202.12263541242078,199.44216517525587 201.79438089212715,199.62776358426785 201.42239388892955,199.7819741219335 201.00839197942236,199.89917995144984 200.55473108068347,199.97379580788512 200.0644189158904,200.00033786285235 199.54112127379733,199.9734969494519 198.98916050158766,199.88821445971845 198.41350572969807,199.73976014743172 197.8197543964846,199.52381099400614 197.21410471989435,199.23653022546864 196.60331885229718,198.87464550550516 195.9946765528654,198.43552527443316 195.39591931876473,197.91725215795498 194.81518503118045,197.31869233384865 194.2609332939567,196.6395597204931 193.74186177031925,195.88047383937095 193.26681395560175,195.04301020542772 192.844678959763,194.12974211527552 192.48428401131716,193.14427273446873 192.19428053250726,192.09125643208142 191.9830247724495,190.9764083740446 191.85845411876343,189.8065014664602 191.82796033701337,188.589349836513 191.8982611091815,187.33377815156362 192.07527135539397,186.0495762062323 192.363975925225,184.7474383522546 192.768305334115,183.4388875058566 193.2910162947765,182.13618364137452 193.93357885101182,180.85221686660427 194.69607196028673,179.60038537344346 195.57708938995935,178.39445876507668 196.57365778866458,177.24842747631195 197.68116876756758,176.17633922453828 198.8933267747966,175.1921236527621 200.20211446933277,174.30940655071595 201.59777719721745,173.54131526235926 203.06882804265263,172.90027710529606 204.60207476924035,172.397812836671 206.18266978237935,172.04432739782527 207.79418403319738,171.8489003531822 209.41870554820352,171.81907860423382 211.0369630083183,171.96067410386644 212.6284745176936,172.27756941638953 214.1717213987714,172.7715340614021 215.6443465277442,173.4420546420537 217.02337638675218,174.2861817875282 218.28546565894447,175.29839693310936 219.4071628334729,176.4705019166682 220.36519492344883,177.79153428584272 221.13676903507354,179.24771108393685 221.69988816503638,180.82240371342237 222.03367825060087,182.49614626311507 222.11872315752382,184.2466794283409 221.93740397019002,186.04903185295703 221.47423865132885,187.87564037875643 220.71621787069353,189.69651030296632 219.6531325684055,191.479416320253 218.27788862450356,193.19014436450786 216.5868038566478,194.79277407097533 214.57988246776273,196.25000105490474 212.26106201921485,197.52349765339318 209.6384280170998,198.57431020759557 206.7243912731073,199.3632903787514 203.53582334046942,199.85155739982673 200.09414553230917,200.00098757182226 196.42536730625915,199.77472672725477 192.56007014674879,199.13772081069132 188.5333334952862,198.0572591755588 184.3845997689639,196.50352467608704 180.15747606695345,194.45014415167364 175.89947079162465,191.8747324667724 171.66166410184024,188.75942289117637 167.49831186663914,185.09137629174955 163.46638359257963,180.86326136546748 159.62503565110987,176.0736979829283 156.03502202606458,170.7276556386772 152.75804572735666,164.83679902654058 149.85605496578333,158.41977288076282 147.39048914532586,151.50241845229368 145.421480692272,144.1179143283499 144.00701969305362,136.30683475552735 143.2020892423202,128.11711919424536 143.05778029636608,119.60394751582614 143.62039567105623,110.82951605231386 144.9305536040437,101.86271062100096 147.02230200437543,92.77867366679344 149.92225512461835,83.65826379060864 153.64876489767522,74.58740715393765 158.21113956915843,65.65634155979566 163.608922513795,56.958755398140994 169.8312442388515,48.590825097394855 176.8562605379966,40.65015622927913 184.6506895555259,33.234634956531465 193.1694601450157,26.441198075463433 202.3554833513789,20.36453146967378 212.1395581058662,15.095708338202172 222.44042129665223,10.720780070594685 233.16495126222372,7.319334091439458 244.20853245212027,4.963034365926973 255.45558751331487,3.7141615234212964 266.780281396854,3.6241706952387176 278.0474002471378,4.732286153150312 289.1134058468896,7.064152654316786 299.82766425868647,10.630564024717472 310.0338450458465,15.426289925983212 319.57148509115217,21.42902193042957 328.27770858364204,28.598459958169826 335.98909223634234,36.87555979255254 342.5436622585828,46.1819617721585 347.7830070649013,56.41961984809757 351.554487189938,67.47064898616875 353.71352142835934,79.19740737957066 354.12592586539506,91.44282811764727 352.67028024276715,104.03101283182804 349.2402940531701,116.76809741745242 343.74714291087076,129.44339721977155 336.1217441431872,141.8308360885105 326.31693922379554,153.6906604667476 314.30954965914316,164.7714362097589 300.1022722773146,174.8123221555482 283.7253795860462,183.54561062308028 265.23819099210897,190.69952103310143 244.73028123378313,196.00122877031268 222.32239339369613,199.18010727890945 198.1670253488662,199.97115725404535 172.44866049151423,198.11859271082938 145.38361602619767,193.3795497340148 117.21948511844587,185.52787989195542 88.23415263374937,174.35798669583716 58.734368153462015,159.688660158994 29.0538643692351,141.3668615211666 -0.4489861836172224,119.27140760857918 -29.393977821645933,93.31650216147536 -57.38233795865489,63.455059833340044 -84.00044304510783,29.68176750496363 -108.82396809123901,-7.964172887127376 -131.42244719053213,-49.39667558758393 -151.36421583470087,-94.48083097743705 -168.22169910531875,-143.03144723186455 -181.57700311894774,-194.81212422540415 -191.02776047526396,-249.5349069980665 -196.19317399912876,-306.8605620594902 -196.72019686949557,-366.3995149634236 -192.28978138499565,-427.71348193752067 -182.62312322448395,-490.31782192020364 -167.48782321807738,-553.6846281646084 -146.70388444726836,-617.2465706580383 -120.14945903700527,-680.401492024085 -87.76625638085011,-742.5177503856745 -49.564522840937514,-802.9402929441613 -5.627502270312277,-860.9974338576542 43.884712907619445,-916.0082994773193 98.73202879179928,-967.2908932308994 158.59198125497767,-1014.1707215456047 223.05823334442817,-1055.9899113049787 291.6400155387088,-1092.116738571832 363.7625789754171,-1121.955477824733 438.7687238592903,-1144.9564708980724 515.9214560510243,-1160.6263053389507 594.4078143520668,-1168.5379831549094 673.3438992844476,-1168.3409530830895 751.7811212805078,-1159.7708727210813 828.7136722275908,-1142.658961277838 903.0872093580977,-1116.9407994797277 973.8087246560656,-1082.6644304456975 1039.7575564064482,-1039.9976142611856 1099.797482399762,-989.2340896558242 1152.7898167975213,-930.7986987346765 1197.607414954395,-865.251235220305 1233.1494727880076,-793.2888832087534 1258.3569898073033,-715.7471220815836 1272.228747888005,-633.5989839813348 1273.837641561301,-547.952563157424 1262.3471802093204,-460.04669150635596 1237.0279683933288,-371.2447117188775 1197.2739578345017,-283.02629853379636 1142.6182535788798,-196.97729957991038 1072.7482478592347,-114.77759002974551 987.5198483612116,-38.186959626591744 886.9705632422887,30.97092361619636 771.3312035577046,90.82640183398149 641.0359649172449,139.4834688103079 496.73065440784035,175.04103705959068 339.27883622067776,195.61567421489593 169.765680139507,199.3656236779543 -10.500688831866285,184.51589609857905 -199.99052384870475,149.38419061385713 -396.9566357123384,92.40737828791372 -599.4415570833925,12.168255257189088 -805.2878021924057,-92.57774988179267 -1012.1513017286854,-222.87625048771747 -1217.518058424382,-379.5483119197165 -1418.7240318324436,-563.1659656107216 -1612.9782211937572,-774.029206532177 -1797.388873419932,-1012.1448603942624 -1968.9926994527273,-1277.2077095687403 -2124.786937017183,-1568.5842647036638 -2261.7640515256403,-1885.2995620323736 -2376.9488201231966,-2226.0273542202494 -2467.43749713788,-2589.084045043578 -2530.438713096052,-2972.426695113953 -2563.3157146001968,-3373.655397165333 -2563.629509383368,-3790.020285089838 -2529.1824404129197,-4218.43340099261 -2458.0616756892855,-4655.485599158292 -2348.6820670513694,-5097.468615180122 -2199.827802534478,-5540.402372875138 -2010.6922532933663,-5980.0675413539375 -1780.9153984449165,-6412.043290169644 -1510.6182000153885,-6831.750122360604 -1200.4332960702536,-7234.49759402546 -851.531383583143,-7615.536655508694 -465.642674130725,-7970.116274084777 -45.072825476950584,-8293.543922035456 407.28721914904145,-8581.249438109508 887.9580145427093,-8828.851695488469 1392.8755033823325,-9032.22743655451 1917.402440040997,-9187.581565012299 2456.3477108513744,-9291.518120328905 3003.993839367226,-9341.111099118232 3554.1328826674367,-9333.97423411217 4100.110834162439,-9268.328794827665 4634.880550271945,-9143.068436032077 5151.063113468177,-8957.820091677255 5641.017433366974,-8712.999894105966 6096.9177717834755,-8409.863091965632 6510.838758057407,-8050.546946242839 6874.847338725053,-7638.105602908812 7181.100982116794,-7176.535973482709 7421.951335142211,-6670.793701888167 7590.052407934185,-6126.798357666551 7678.47224378865,-5551.42707213135 7680.80691865311,-4952.495925443495 7591.295608030305,-4338.728498714597 7404.935361352878,-3719.7111257738316 7117.594136442157,-3105.834513626494 6726.120571369821,-2508.2215481470157 6228.448909648027,-1938.6412612297113 5623.697448873705,-1409.4091062945586 4912.258854362296,-933.2738693270303 4095.8806694329537,-523.2917309206892 3177.7343642268256,-192.68818928298174 2162.4712964721225,45.29124714535183 1056.2640114890357,177.54048810915936 -133.16861421924335,191.26110130484275 -1396.5537806245422,74.13785632951002 -2723.07599298835,-185.4801263044045 -4100.408232653366,-598.3945038835367 -5514.764017611783,-1174.3711732928869 -6950.971104252741,-1921.9542798102489 -8392.567362791411,-2848.28312844312 -9821.919118697318,-3958.9144751804006 -11220.361992530507,-5257.652774701947 -12568.363992875391,-6746.391034853904 -13845.710323793239,-8424.964973938932 -15031.709062004924,-10291.023192141305 -16105.416542805777,-12339.916050976999 -17045.88097076942,-14564.605902555037 -17832.402445184773,-16955.601221985784 -18444.807264732062,-19500.917070138723 -18863.734055235644,-22186.064149183403 -19070.92895274272,-24994.068509406028 -19049.546776149207,-27905.523722591523 -18784.454843745774,-30898.677055194803 -18262.535831087163,-33949.55085450393 -17472.98583822264,-37032.10000445524 -16407.60363727041,-40118.40591669235 -15061.066911188454,-43178.90709941719 -13431.191175851796,-46182.66589468341 -11519.167004443358,-49097.67049771846 -9329.771149668004,-51891.17087388756 -6871.547189019888,-54530.046674813646 -4156.951404468607,-56981.204730267156 -1202.4597531865431,-59212.00316254514 1971.3680075313914,-61190.69864142062 5339.870708664544,-62886.91277702763 8874.318005691266,-64272.113142269714 12541.99540035833,-65320.103932772305 16306.344525810346,-66007.52081857348 20127.160651353784,-66314.32412527676 23960.84878232889,-66224.28411097522 27760.739093748183,-65725.45178652376 31477.461747705514,-64810.60846818774 35059.3804091612,-63477.68706058033 38453.08299858104,-61730.15795100233 41603.92740997992,-59577.3723602585 44456.63908700805,-57034.85604559962 46955.95649647266,-54124.546393793906 49047.31967756845,-50874.96618085067 50677.59618628333,-47321.32761307746 51795.837908783025,-43505.56070440635 52354.061396467034,-39476.260588649035 52308.043590687405,-35288.54901269601 51618.12406902679,-31003.846006546897 50250.004269959,-26689.54857598962 48175.53355115439,-22418.614209865922 45373.47142103779,-18269.04803083534 41830.214865639806,-14323.29353957205 37540.47938506277,-10667.52809908083 32507.92216719331,-7390.865568483161 26745.69577106074,-4584.469812906468 20276.920777974105,-2340.5841752966544 13135.066103613513,-751.4833829360047 5364.226055710344,91.64423917750592 -2980.7162245858062,99.87498074399095 -11834.048580116085,-812.2222563543215 -21119.3216687809,-2725.3201492397898 -30749.5805072101,-5714.04258101172 -40627.74220353672,-9845.664144514167 -50647.12497089064,-15178.815058150327 -60692.13197224612,-21762.20800329603 -70639.0918588979,-29633.404227075054 -80357.25604023,-38817.63692861683 -89709.950775158,-49326.71044232913 -98555.88012168025,-61157.994030039634 -106750.57363876629,-74293.529178177 -114147.97052508366,-88699.26915109447 -120602.12962479549,-104324.46916363614 -125969.0524568879,-121101.24489365399 -130108.60415821034,-138944.31614936594 -132886.51500032333,-157750.9513308315 -134176.44297650293,-177401.12687595797 -133862.07588922125,-197757.91415906747 -131839.24943235956,-218668.10431726614 -128018.05598908263,-239963.07922335793 -122324.91728869747,-261459.93431417478 -114704.5927166472,-282962.85623433976 -105122.09398315781,-304264.75528570416 -93564.47605893045,-325149.1495042242 -80042.47381011279,-345392.293844952 -64591.953637013,-364765.5444721529 -47275.14966653847,-383037.94455905043 -28181.654689124167,-399979.01433780394 -7429.137085449084,-415361.7244458406 14836.243528887262,-428965.62793345534 38439.7472910895,-440580.1226764043 63178.314696131485,-450007.81242511026 88821.19699390895,-457067.93137003353 115110.97330445355,-461599.79396319826 141764.96769984224,-463466.22886211536 168477.07541308904,-462556.95330789225 194920.00285817974,-458791.8420673926 220747.92131123113,-452124.04331202264 245599.5289466586,-442542.89252329 269101.51048681536,-430076.5747555499 290872.37805775076,-414794.4853937831 310526.671002537,-396809.2399591514 327679.48644798447,-376278.2845730521 341951.3064169395,-353405.0604213658 352973.08129817765,-328439.6779879788 360391.5236051246,-301679.05996712775 363874.56025317026,-273466.5156261281 363116.88614597643,-244190.71397405912 357845.5567692512,-214284.028389235 347825.5528325729,-184220.23135072607 332865.2458629415,-154511.52457875377 312821.6901242569,-125704.89717738017 287605.66339942615,-98377.8122419689 257186.37710791169,-73133.23078439868 221595.77501876914,-50593.9906715284 180932.3395296864,-31396.567487216587 135364.325181609,-16184.25372557699 85132.34082379454,-5599.80240390864 30551.20468391831,-277.5909397187567 -27988.999429891745,-835.370851134564 -90022.73143700718,-7865.6783901822355 -155009.73014023717,-21926.99047405915 -222336.72709100242,-43534.71910578056 -291320.18338985334,-73152.1457338887 -361210.0838847815,-111181.40455050622 -431194.81238344184,-157954.63042651725 -500407.119628831,-213725.39289179712 -567931.1829804494,-278660.54214981763 -632810.743090889,-352832.596437233 -694058.2884841422,-436212.8019741943 -750665.2439571109,-528664.9971836952 -801613.1032855281,-629940.4116817876 -845885.4309815847,-739673.5276621453 -882480.6419990112,-857379.1266399457 -910425.4525015542,-982450.6380201749 -928788.8793036958,-1114159.8975716964 -936696.6505694041,-1251658.4135989551 -933345.8760349664,-1393980.2264084478 -918019.8116306873,-1540046.432591034 -890102.5411422994,-1688671.42973303 -849093.3867061029,-1838570.9195040835 -794620.8506997627,-1988371.6877499877 -726455.88419653,-2136623.1593734976 -644524.2718094807,-2281810.703573187 -548917.9196679854,-2422370.6416137908 -439904.8326307233,-2556706.8849334395 -317937.56881987606,-2683209.1062918277 -183659.96431031506,-2800272.321091498 -37911.92845212173,-2906317.7302490124 118267.87905658515,-2999814.6503620115 283641.66452865215,-3079303.3317388208 456774.5684629905,-3143418.4404732566 636039.3240267037,-3190912.9575152546 819623.6213869127,-3220682.2259736364 1005540.2675116815,-3231787.8580631036 1191640.202285837,-3223481.195546187 1375628.4003292108,-3195226.002592886 1555082.6539742965,-3146720.0580476397 1727475.196713679,-3077915.3055046075 1890197.088366313,-2989036.21467884 2040585.243580846,-2880596.0066297115 2175951.9444816946,-2753410.398722639 2293616.636698258,-2608608.533049703 2390939.766165758,-2447640.764573097 2465358.3724494707,-2272283.00266715 2514423.113455093,-2084637.3221245923 2535836.3568048705,-1887128.5871150275 2527490.935462356,-1682496.8640348946 2487509.1299734134,-1473785.436601386 2414281.4075613217,-1264324.2787845817 2306504.419876336,-1057708.8880407638 2163217.737055778,-857774.4325321445 1983838.7764872974,-668565.2212484459 1768195.3708522762,-494299.56476540177 1516555.412195072,-339330.1562930394 1229653.0074148925,-208100.16711962744 908710.5861620286,-105095.31691374893 555456.415033011,-34792.246908694484 172136.99253167314,-1603.592001275692 -238476.1722500398,-9820.215434035974 -673085.8576984287,-63551.13613058669 -1127874.9202014129,-166661.74300884554 -1598518.9399123644,-322710.95176363975 -2080206.0235534257,-534888.016720635 -2567663.9972340227,-805949.7624358014 -3055195.1459290585,-1138159.0457634358 -3536718.5728689507,-1533225.298164874 -4005820.1622049217,-1992248.0291249983 -4455810.032610576,-2515664.1937648533 -4879787.268766172,-3103200.3402154585 -5270711.612862628,-3753830.4542425857 -5621481.690387175,-4465740.409254055 -5925019.234648757,-5236299.908540748 -6174358.664005978,-6062042.7728669215 -6362741.255900801,-6938656.379919088 -6483713.053987633,-7860981.002364455 -6531225.540357942,-8823019.718222125 -6499738.005627802,-9817959.480931032 -6384320.457054256,-10838203.837094277 -6180755.82047051,-11875417.667748496 -5885640.1172828,-12920584.204694424 -5496479.234635647,-13964074.437660018 -5011780.856680352,-14995728.881770097 -4431140.089163387,-16004951.51908745 -3755317.289701885,-16980815.56417064 -2986306.61343983,-17912180.533159412 -2127393.799466747,-18787819.920529846 -1183201.7584638817,-19596558.609206043 -159722.57738416563,-20327418.9601893 935665.3667602723,-20969774.349427488 2094196.3942823552,-21513508.744596433 3305733.702412727,-21949180.7451966 4558803.687335212,-22268190.348384354 5840649.196845819,-22462946.55281003 7137302.319103631,-22527033.776020832 8433677.110459452,-22455374.940303437 9713682.444292042,-22244388.979770385 10960354.924655773,-21892140.44054261 12156011.555168903,-21398478.78847937 13282421.587077977,-20765165.007341757 14320996.693258164,-19995983.066672772 15252998.329783237,-19096833.864950765 16059760.856640298,-18075809.311404467 16722928.697445827,-16943244.30065135 17224705.52816479,-15711744.459123883 17548113.20057036,-14396187.701801516 17677257.831420325,-13013697.832411055 17597600.227122296,-11583588.649933435 17296227.570170317,-10127277.288434107 16762123.072076267,-8668165.814957915 15986430.102115946,-7231490.440030275 14962707.136142585,-5844138.055233733 13687169.739080194,-4534430.199924902 12158915.702418638,-3331874.9714484722 10380129.407816224,-2266887.826722232 8356261.4832115965,-1370482.6738357202 6096179.861763446,-673935.1158743773 3612288.4491829663,-208420.18064124486 920609.7538556438,-4627.343963470859 -1959171.9617010122,-92356.12511495061 -5003710.188859103,-500095.99449061387 -8186041.2035324415,-1254594.7796706203 -11475677.10805146,-2380420.1798213264 -14838748.942248236,-3899519.3932357095 -18238201.436693035,-5830782.221868413 -21634040.443921607,-8189613.333104954 -24983633.497532398,-10987519.62592808 -28242063.31823003,-14231718.859473597 -31362533.415091738,-17924775.85032472 -34296824.22519709,-22064272.62474439 -36995797.501778185,-26642518.91782231 -39409945.9074377,-31646309.338155847 -41489984.00278091,-37056733.35984302 -43187476.05067131,-42849044.05956956 -44455495.29157676,-48992591.18263352 -45249308.596002504,-55450823.69600182 -45527079.67614898,-62181366.46807511 -45250583.35141073,-69136175.10400079 -44385922.72212874,-76261772.26351722 -42904240.524269246,-83499567.99809264 -40782415.42555849,-90786265.76942202 -38003733.59211081,-98054354.85741903 -34558525.514498726,-105232688.8392286 -30444757.843892165,-112247148.72940536 -25668569.862110965,-119021388.2244777 -20244744.203250688,-125477657.30322836 -14197101.567093933,-131537699.2089361 -7558809.422921777,-137123714.59461105 -372595.1024656612,-142159385.3610227 7309145.772891542,-146570949.47525144 15424353.889949646,-150288316.84063342 23901431.379656117,-153246215.11418858 32659494.007971212,-155385353.2522865 41608755.79427058,-156653589.52734432 50651050.14233988,-157007089.81580856 59680490.14434638,-156411461.12869713 68584269.16502772,-154842844.65846696 77243601.14236343,-152288952.06742904 85534798.26513581,-148750028.36014342 93330481.82209025,-144239724.48107067 100500920.07906018,-138785862.77387732 106915485.04870029,-132431078.6434486 112444217.9935415,-125233322.18726969 116959491.46998768,-117266204.21896352 120337753.70330991,-108619172.00068924 122461339.1077307,-99397501.1375489 123220326.85881123,-89722091.46836004 122514427.61576556,-79729056.41218077 120254876.80821484,-69569097.0950998 116366311.37448409,-59406654.679741874 110788605.49649616,-49418836.64036294 103478639.74846046,-39794115.25516021 94411977.19158351,-30730799.30719734 83584419.33188125,-22435282.874911793 71013414.53893283,-15120078.128136491 56739291.52347758,-9001642.197745794 40826290.81295437,-4298011.425229531 23363367.864515428,-1226259.5880293038 4464742.530602889,199.99999999453252" stroke="white" stroke-width="1.5" /><circle cx="191.49830218033995" cy="249.27191019417847" fill="red" opacity="0.7" r="12.173560908995228" /><circle cx="180.69113542661592" cy="246.1212288310569" fill="red" opacity="0.7" r="12.173560908995228" /></svg>