<?xml version="1.0" encoding="utf-8" ?>
<svg baseProfile="full" height="400" version="1.1" width="400" xmlns="http://www.w3.org/2000/svg" xmlns:ev="http://www.w3.org/2001/xml-events" xmlns:xlink="http://www.w3.org/1999/xlink"><defs /><rect fill="black" height="100%" width="100%" x="0" y="0" /><circle cx="200" cy="200" fill="yellow" r="20" stroke="orange" stroke-width="2" /><polyline fill="none" points="198.50873892973087,200.0 198.50129118492356,199.92132463343268 198.50324353590847,199.84241999156328 198.51491315108657,199.76438612066366 198.53650806312766,199.68839031907697 198.56811695877883,199.61565726512754 198.60969975923715,199.54745777479667 198.6610791608786,199.48509623740733 198.7219333055499,199.42989679724334 198.7917897468986,199.38318836918435 198.8700208742314,199.34628859684827 198.95584094806296,199.32048688215968 199.04830489177834,199.3070266354561 199.14630897164722,199.3070869149325 199.24859348277778,199.32176364313398 199.3537475415063,199.35205060604642 199.46021606522936,199.39882045681333 199.5663089988839,199.46280596092691 199.67021282328108,199.5445817326072 199.7700043544547,199.64454672270605 199.86366681528142,199.7629077265659 199.9491081310892,199.89966418556236 200.02418137005222,200.05459455830612 200.08670721716604,200.2272445364455 200.1344983378305,200.41691737548638 200.16538545389986,200.62266660285482 200.17724492187017,200.84329135342705 200.1680275700803,201.07733456683215 200.13578851983536,201.32308426093542 200.0787176846734,201.57857807201137 199.99517061305926,201.84161122424672 199.8836993130734,202.10974805945597 199.74308267365734,202.38033722237887 199.57235607615578,202.65053055785177 199.37083977273255,202.91730573375 199.13816559519242,203.177492558192 198.87430154925016,203.42780291143987 198.57957384576437,203.6648641626488 198.25468592227105,203.8852558895801 197.90073401564752,204.08554966613698 197.51921886019682,204.26235162868164 197.11205310509928,204.41234747818058 196.6815640712005,204.53234952196794 196.23049149959814,204.6193453070235 195.76197998348022,204.6705473468664 195.27956582010853,204.68344339723183 194.78715807159512,204.65584669239715 194.2890136809691,204.58594551514167 193.78970655366464,204.4723514396376 193.29409058357027,204.31414555884783 192.80725667667156,204.1109219869913 192.33448390349832,203.86282791404267 191.88118499336716,203.570599483721 191.45284646801917,203.23559276960796 191.05496379882126,202.85980913645798 190.69297205928737,202.44591429588715 190.37217263225932,201.9972503978279 190.09765661757524,201.51784054168976 189.87422567029924,201.01238514423065 189.70631108039018,200.48624966477053 189.5978919808122,199.94544326247802 189.55241364127917,199.3965880448154 189.5727068678032,198.8468786604725 189.6609095827213,198.30403209374927 189.81839170465813,197.7762276296945 190.0456844817343,197.27203707956457 190.34241545310215,196.80034548336528 190.70725022249857,196.37026263925864 191.13784222196074,195.99102594719918 191.63079162327756,195.67189519489582 192.18161451839444,195.42204005654213 192.78472343724852,195.25042121705502 193.43342020194217,195.16566617503494 194.11990202950702,195.1759409144421 194.83528169169594,195.28881876612343 195.56962241941483,195.51114790381286 196.31198810193013,195.8489190330185 197.05050917745612,196.3071349332341 197.77246444297538,196.88968360211717 198.46437882825413,197.59921682263396 199.1121369833096,198.43703602872574 199.70111232164737,199.40298737992663 200.21631094523173,200.49536796881048 200.64252965344457,201.71084507556165 200.96452700951843,203.04439034992515 201.16720620660124,204.4892307410863 201.23580824443476,206.03681790967698 201.15611369948718,207.67681774239952 200.9146511493175,209.3971214482777 200.4989100991327,211.18387954619328 199.8975560581949,213.02155985637899 199.10064522927692,214.89303038452132 198.09983610910206,216.7796677370513 196.88859515498464,218.6614914314352 195.46239355599164,220.5173241675861 193.81889205906023,222.3249778080683 191.95811074466516,224.0614644781282 189.88258062567397,225.7032318447363 187.59747395955802,227.2264212701099 185.11071022044064,228.60714716334968 182.43303477553226,229.82179547793672 179.57806745189612,230.84733892730964 176.56231836535446,231.66166612027024 173.40516861434477,232.2439214574945 170.12881371782402,232.57485228511456 166.75816799748597,232.6371594764888 163.32072846961523,232.41584731431266 159.84639721925112,231.89856827758834 156.36726167673532,231.0759581070978 152.9173327012898,229.94195633424525 149.53224089447593,228.49410731661953 146.2488921140237,226.73383673429976 143.10508373075686,224.6666984683967 140.1390837626981,222.30258681179518 137.38917562484238,219.65590905527364 134.89317184389483,216.7457136532979 132.68790069730727,213.59576940536707 130.80867033757517,210.23459139266268 129.2887155479273,206.69540978698527 128.15863283587026,203.01607809977 127.44581009790578,199.2389179626814 127.17385757331924,195.41049812625647 127.36204723839178,191.58134602667656 128.0247681658874,187.80559099933123 129.1710056795589,184.14053900669305 130.8038523613048,180.64617959136285 132.92005911150756,177.38462665613653 135.5096345135177,174.41949560368872 138.55550070439583,171.8152203300556 142.0332137998483,169.63631454862434 145.910756656651,167.9465829139877 150.1484113766421,166.80828840612492 154.69871845962712,166.28128341248933 159.50652889657843,166.4221128956325 164.50915475901178,167.28309894333626 169.6366229865192,168.91141685282594 174.8120361048291,171.34817368619503 179.9520425257594,174.6275009362942 184.96741789401494,178.77567354670052 189.76375766165512,183.8102680219163 194.24227969865427,189.73937273104684 198.30073429844572,196.56086373688368 201.83441742356473,204.2617595604869 204.73728147299317,212.81766820793712 206.90313625569365,222.19233953115057 208.22693124171377,232.3373355602001 208.60610855213693,243.1918308238411 207.94201456228876,254.68255386314112 206.14135645027054,266.7238801375691 203.11768854725383,279.21808532313594 198.7929119598563,292.05576661012424 193.09876966156673,305.11643802802655 185.97831811298795,318.2693040646189 177.38735549288762,331.37421391439796 167.29578582652601,344.28279660152566 155.6888977065665,356.8397749893055 142.56853593612067,368.88445433029 127.95414430275981,380.2523785493553 111.88365783457503,390.77714491014285 94.41422331040917,400.29236511942236 75.62272750966142,408.63375830285327 55.606113703273195,415.6413586702271 34.48146821428617,421.16181811148846 12.385860518012237,425.0507814612969 -10.524077690954215,427.17530977564365 -34.072846768154506,427.4163247162105 -58.067056453882515,425.6710450744972 -82.29669313387774,421.8553846262643 -106.53668074169252,415.90627892534997 -130.54873561626562,407.7839073614704 -154.08351199445264,397.47377585512464 -176.88303098250543,384.98862497830004 -198.68338184689776,370.37012810417957 -219.21768033209145,353.6903444315261 -238.21926449353543,335.05289242549514 -255.42510427510666,314.5938103880271 -270.57939681168097,292.4820725349796 -283.43731525308993,268.91973112603813 -293.7688748417429,244.14165787406233 -301.36287609133393,218.41486105376083 -306.03088126854755,192.037358430133 -307.61117703503845,165.3365903228022 -305.97267312483865,138.6673617942677 -301.0186843741717,112.40930807192673 -292.6905413466658,86.96388285191586 -280.97097326535516,62.75087504636886 -265.88720602903044,40.2044657761727 -247.51371780613187,19.768843922977 -225.97459511148435,1.8934052742414451 -201.44543342126548,-12.972432846153339 -174.1547283048559,-24.384762647789643 -144.3847057764226,-31.911016927970792 -112.47154411408638,-35.13604759840314 -78.80494377110881,-33.668392574612426 -43.82700721301782,-27.146665614002757 -8.030396547941933,-15.245997775560681 28.044256345248158,2.3155462474839794 63.81170487627736,25.770658500831274 98.64621733557559,55.296670565722025 131.88648134945035,91.00971784632853 162.8412739055369,132.9592768814193 190.79587750356328,181.1231687064858 215.01921239605403,235.403121728008 234.7716439573249,295.6209868735733 249.31341307044465,361.51569588298685 257.91362617448596,432.741050449378 259.8597304017602,508.8644254608936 254.46738819853593,589.3664638008781 241.09065511214948,673.6418330203458 219.13235419744353,761.0011056993295 188.05453090556804,850.6738154784696 147.3888635305111,941.8127296017201 96.74689646633502,1033.499366416442 35.829956832937114,1124.7507726986828 -35.56139038100008,1214.5275609987084 -117.5184974789056,1301.7431915440486 -210.0165507266771,1385.2744667234717 -312.9074004015058,1463.973188953129 -425.9134549072072,1536.6789149629276 -548.6227865096193,1602.2327214213099 -680.4855910659912,1659.4918785417838 -820.8121368249181,1707.3453101017453 -968.7723279072377,1744.7297003840229 -1123.3969964158518,1770.6460911666597 -1283.5810232617957,1784.1767952890352 -1448.088371760146,1784.5024377715292 -1615.5590998965088,1770.9189212252186 -1784.518396976783,1742.8540996225047 -1953.387668264625,1699.8839336720816 -2120.497667328521,1641.7478923101387 -2284.103650342727,1568.3633584331892 -2442.4024997227402,1479.8387931928103 -2593.5517364685597,1376.485412169304 -2735.690311709218,1258.8271287398177 -2866.961038490825,1127.6085251330467 -2985.53449515594,983.8006201657998 -3089.6342020775064,828.6042146033902 -3177.5628444111458,663.450610558042 -3247.729285310167,489.9995203810218 -3298.676087117887,310.1340031171273 -3329.10723283329,125.95229273223667 -3337.915717067258,-60.24358809246172 -3324.2106551975826,-245.96250192058676 -3287.3435419194566,-428.54219559531737 -3226.9332762925146,-605.1706227927242 -3142.8895601098357,-772.910547076426 -3035.434270342663,-928.7273387330072 -2905.1204049037874,-1069.519833115731 -2752.848204346825,-1192.154071266358 -2579.878060663578,-1293.499695711444 -2387.839838297024,-1370.4687260745377 -2178.738252041947,-1420.0563910837716 -1954.953971791083,-1439.383646296789 -1719.2401551705716,-1425.7409610526408 -1474.7141459967859,-1376.632914461053 -1224.8441191067118,-1289.8230993373802 -973.4305003197724,-1163.378795583467 -724.5820438549101,-995.7148412997408 -482.6865081452173,-785.6361015859686 -252.37593427294837,-532.3779122272307 -38.48659871529222,-235.64385892364993 153.98621681312002,104.35975697031245 319.938421552569,486.8934174994309 454.21198470947047,910.658497575003 551.6541062556856,1373.7766163834306 607.180240072988,1873.7748393711092 615.8404419253551,2407.577307443172 572.8884379994544,2971.5038287011675 473.8527353868417,3561.2759173058434 314.609024974514,4172.030703886614 91.45306087720292,4798.343072445895 -198.82686008329864,5434.256300165367 -558.8787491332125,6073.321389281855 -990.7180826356912,6708.645184765646 -1495.662278358716,7332.947268542728 -2074.269530375846,7938.6255112287245 -2726.2830575152443,8517.8300466981 -3450.581823649005,9062.545314344454 -4245.138778552791,9564.679689767989 -5106.987644820947,10016.162098159972 -6032.1992387641985,10409.04487725175 -7015.868260856302,10735.61202988301 -8052.111423792523,10988.491881637725 -9134.077703401257,11160.77303829244 -10253.971399515778,11246.122422785118 -11403.088580661644,11238.904063854465 -12571.867358441716,11134.297210256498 -13749.95229541281,10928.412257385327 -14926.27309486733,10618.40289903939 -16089.137553302682,10202.572857772506 -17226.338577745228,9680.47550448305 -18325.274881982634,9053.004653258504 -19373.084779849243,8322.474812531662 -20356.79229192324,7492.689189697844 -21263.46457644414,6568.993784698157 -22080.379488252453,5558.315969707795 -22795.201863568775,4469.186037772595 -23396.166926094324,3311.7403135564373 -23872.269013994588,2097.70455457441 -24213.453640688665,840.3565313763688 -24410.810727950004,-445.5331402126478 -24456.766690621575,-1743.7826331479987 -24345.272911258624,-3036.903496420923 -24071.988023206133,-4306.2284294107885 -23634.451324911806,-5532.0622043638905 -23032.244579466053,-6693.8554073695905 -22267.139414110774,-7770.400362175881 -21343.227527237523,-8740.048282566766 -20267.03093743155,-9580.946370933128 -19047.58957238005,-10271.293246553132 -17696.52359657804,-10789.610750712889 -16228.068017022815,-11115.029841173673 -14659.07728635563,-11227.587959909637 -13008.997843629835,-11108.53493999227 -11299.806794020835,-10740.644214647393 -9555.915229801596,-10108.525808640836 -7804.035034716084,-9198.937334118766 -6073.00839086373,-8001.088984711676 -4393.599619158396,-6506.938327935569 -2798.249428566104,-4711.470541415998 -1320.7921222860618,-2612.9596277717105 3.863193133723115,-213.20608043525488 1140.0858315886235,2482.2535377386334 2051.909086537646,5463.969595899446 2703.4454848084015,8718.43936523514 3059.328547847374,12228.008180364262 3085.1773296112005,15970.815785380062 2748.0794667252944,19920.79156334361 2017.0879602692557,24047.701987792167 863.7264171654948,28317.25320894542 -737.5029795733212,32691.25119665442 -2808.614920645349,37127.82130851158 -5367.646358908164,41581.6885376071 -8428.178668439503,46004.519023744906 -11998.883655557958,50345.32268910809 -16083.100681150992,54550.91608984508 -20678.45225328836,58566.44376531098 -25776.505463868416,62335.955524106066 -31362.48656708703,65803.0362388935 -37415.05582570433,68911.48383939665 -43906.149479128595,71606.030304911 -50800.89531191655,73833.09957480375 -58057.60782015055,75541.5954291511 -65627.86838519367,76683.71155375244 -73456.69516970922,77215.75520659956 -81482.80665106322,77098.97515911497 -89638.98180520412,76300.383907924 -97852.51895421556,74793.56355446638 -106045.79419885126,72559.4442431264 -114136.91918089928,69587.04364620955 -122040.49666816404,65874.15569801682 -129668.47113772138,61427.97662181594 -136931.07016290084,56265.65627318535 -143737.8309996887,50414.76295053143 -149998.7053338223,43913.650106855246 -155625.2337069181,36811.71384298417 -160531.77970598344,29169.530676847695 -164636.8125939653,21058.86586961103 -167864.22569901467,12562.543549270807 -170144.6765868406,3774.17100539568 -171416.93383452276,-5202.289167458319 -171629.21412627219,-14253.103930282396 -170740.49242275857,-23255.51488805234 -168721.7671364848,-32078.645052141663 -165557.26159649552,-40584.566807824274 -161245.54262589684,-48629.52858057931 -155800.53680367052,-56065.33555221274 -149252.42495513722,-62740.87754942283 -141648.39562854014,-68503.79493533423 -133053.23878204543,-73202.2710029596 -123549.76163717384,-76686.93702488315 -113239.00965990893,-78812.87378397842 -102240.27691530688,-79441.69112567513 -90690.8916080921,-78443.66486462513 -78745.76446984272,-75699.90828016501 -66576.68977883982,-71104.55347916938 -54371.39119359838,-64566.916125611104 -42332.307233762745,-56013.6154673448 -30675.114136716296,-45390.62026592791 -19626.9869351173,-32665.19018752331 -9424.602915712223,-17827.681473632474 -311.8951053082076,-893.1853095243748 7462.432946348707,18097.03272670437 13647.61609054921,39074.32339543013 17993.74142464473,61941.705199395336 20254.84446255994,86573.20575286586 20192.1612513423,112813.5207644527 17577.506345066584,140478.01618367707 12196.742963986253,169353.0965046828 3853.308262206086,199196.95920659052 -7628.246544335182,229740.75184569773 -22398.74432106684,260690.14441300018 -40580.944100582026,291727.3252505996 -62266.22492439159,322513.4241081735 -87511.44094469446,352691.3608481749 -116335.99847840896,381889.1129148 -148719.2063429486,409723.3890125712 -184597.95084469134,435803.69054771314 -223864.7461963814,459736.73632773553 -266366.2098735949,481131.2198560061 -311902.0104536817,499602.86236850807 -360224.33279084455,514779.718614394 -411037.9019532174,526307.6863596688 -464000.60317521944,533856.1647776405 -518724.73016309174,537123.8013668228 -574778.8884448562,535844.2618950462 -631690.5740989831,529791.9531971344 -688949.4411607984,518787.62454233295 -746011.263333678,502703.7698252721 -802302.5873765169,481469.750107232 -857226.0667633668,455076.55412604805 -910166.4549897467,423581.1133816098 -960497.2283179366,387110.08836235164 -1007587.7979055956,345863.04347182694 -1050811.261252931,300114.9303003669 -1089552.632847187,250217.8021121718 -1123217.4839014206,196601.68681919723 -1151240.9113063936,139774.55131378453 -1173096.7464753832,80321.2968429061 -1188306.9058019326,18901.733124449336 -1196450.7761134773,-43752.511888791276 -1197174.5209348996,-106842.17933373382 -1190200.186721118,-169505.6851274554 -1175334.4826205396,-230825.55280928753 -1152477.102932305,-289835.9688829352 -1121628.458354723,-345531.4417273226 -1082896.6805173922,-396876.53014417813 -1036503.7642631917,-442816.5920269818 -982790.713804755,-482289.4876246622 -922221.5623150213,-514238.1556048948 -855386.1397999014,-537623.9637810077 -783001.4713006217,-551440.7201520818 -705911.6966230277,-554729.2140277138 -625086.4139073651,-546592.1416873137 -541617.3624284676,-526209.2564865432 -456713.37502149993,-492852.5698040075 -371693.5474047963,-445901.4169558261 -287978.59033445426,-384857.1914309011 -207080.35086264048,-309357.54174942605 -130589.51084211082,-219189.8181494596 -60161.494053977025,-114303.5513803708 2499.3622634666967,5178.25666565651 55657.29036545958,138949.25073114468 97564.12228142419,286511.4658640149 126479.73383483563,447168.9088122686 140693.74226097917,620023.1803065054 138548.2709440784,803971.3296194703 118461.56901346034,997706.1178478849 78952.24866986912,1199718.848222196 18663.879528279213,1408304.9004261997 -63610.34265802873,1621572.0814529124 -168903.1554017301,1837451.8780298587 -298049.33696642774,2053713.665254844 -451662.6965159986,2267981.8929762016 -630114.2929618114,2477756.2358596446 -833512.2364534375,2680434.655282855 -1061683.4304986354,2873339.2815124076 -1314157.6125559877,3053744.983411749 -1590154.046340895,3218910.4506152137 -1888571.2097809871,3366111.57013357 -2207979.808351402,3492676.836222116 -2546619.4242621367,3596024.4895680835 -2902399.0875600837,3673701.039996674 -3272902.0256062825,3723420.7865366545 -3655394.8126144432,3743105.9104290525 -4046841.1010764837,3730926.6811232707 -4443920.072110026,3685341.2831081296 -4843049.692268089,3605134.7431947454 -5240414.810453632,3489456.4142212104 -5632000.070657101,3337855.452686977 -6013627.554733818,3150313.7151239403 -6380999.004886075,2927275.4916160754 -6729742.408511368,2669673.495291849 -7055462.659291311,2378950.5342838657 -7353795.938563133,2057076.3079696158 -7620467.390935678,1706558.7925973625 -7851351.598639036,1330449.7129058456 -8042535.291137068,932343.6362246596 -8190381.66103259,516370.2738574179 -8291595.595233064,87179.63126824178 -8343289.072726166,-350080.2864320164 -8343045.928150621,-789793.4342223073 -8288985.134655302,-1225913.4920406179 -8179821.7213185085,-1652009.4869427134 -8014924.410626891,-2061319.2304269702 -7794369.041125907,-2446810.428730446 -7518986.830232089,-2801249.2188954777 -7190406.533156566,-3117275.7744417097 -6811089.5666593015,-3387486.5126461084 -6384357.191565743,-3604522.3219319694 -5914408.886152656,-3761162.113997564 -5406331.094041335,-3850420.892467928 -4866095.595376649,-3865651.419501276 -4300546.828921592,-3800648.4554647626 -3717377.585196729,-3649754.446105998 -3125092.5967045515,-3407965.4382156 -2532959.6701821545,-3071035.920251089 -1950948.1371125244,-2635581.2104216586 -1389654.5415908794,-2099175.9529430396 -860215.6380870164,-1460447.2351473882 -374208.9344664504,-719160.8053930728 56458.8135641864,123701.14430402932 419674.57323057833,1065872.1649867916 703252.7055187922,2103745.219659696 895078.3864276991,3232329.305750455 983259.644002921,4445220.439952968 956286.6932181149,5734588.330011966 803197.0715934844,7091179.951627422 513744.9058856814,8504341.119996728 78572.47683766318,9962056.994683595 -510617.9025097078,11451012.28389506 -1260893.8163915817,12956671.720553372 -2177926.724960285,14463381.168761248 -3265832.3330525854,15954489.486694604 -4527019.767589694,17412491.02225003 -5962052.034669427,18819188.3528842 -7569520.252746427,20155874.603285845 -9345934.154279646,21403534.386414003 -11285631.312939143,22543062.117905654 -13380707.485252662,23555496.154087376 -15620970.353079587,24422266.903261565 -17993918.815505084,25125456.762264565 -20484749.804999217,25648069.439407073 -23076394.392742336,25974305.94488571 -25749584.702060133,26089844.26479977 -28482952.86759462,25982119.48933492 -31253162.962286197,25640600.943832558 -34035076.466097355,25057062.67769971 -36801951.471806414,24225843.50472561 -39525675.416827746,23144092.663525466 -42177030.699050985,21811997.082538452 -44725992.082864515,20232986.19402567 -47142054.33304953,18413910.249309063 -49394588.033829,16365188.146174038 -51453221.063188896,14100920.8915944 -53288242.70428373,11638966.990929205 -54871026.89228144,9000976.280125208 -56174470.62273969,6212379.001278846 -57173443.09315386,3302327.2645496177 -57845240.71954033,303586.4405521936 -58170042.77179069,-2747625.51408913 -58131362.012151815,-5811852.281216749 -57716484.40760357,-8846667.871827012 -56916891.72609569,-11807000.082756171 -55728660.62534118,-14645508.357740726 -54152831.707653366,-17313014.990011614 -52195741.95123871,-19758987.86861459 -49869313.94306005,-21932072.208817557 -47191295.43587442,-23780667.92594478 -44185442.936667085,-25253548.52020091 -40881643.30898137,-26300516.546638682 -37315967.740239926,-26873089.95915667 -33530652.888723522,-26925212.850579068 -29574004.584012184,-26413983.373268437 -25500220.10886051,-25300390.927469805 -21369125.837878324,-23550054.05906085 -17245827.84598768,-21133949.926089004 -13200274.023036879,-18029125.68588288 -9306727.234436564,-14219381.7329555 -5643150.1441203365,-9695916.393371258 -2290503.457021523,-4457921.464269663 668039.4662826308,1486882.1122791397 3147957.43128816,8121779.1248558005 5064320.206502307,15420676.03971308 6332794.5476689385,23347808.23775388 6870709.4122929815,31857548.309058536 6598171.052042621,40894324.56993098 5439217.425574287,50392658.210442975 3323000.1772160954,60277326.56818227 184981.29586099184,70463658.95729867 -4031869.478146321,80857970.26392958 -9375891.373715125,91358136.1546751 -15885579.134420644,101854312.24117306 -23588475.76704106,112229797.91034897 -32500128.394850243,122362043.77823332 -42623124.46533778,132123799.86922385 -53946225.7187949,141384399.678391 -66443617.27500037,150011173.2602178 -80074288.92682116,157870980.4233439 -94781565.23060654,164831853.01983944 -110492800.24455826,170764733.22344702 -127119251.7809252,175545292.61993077 -144556148.8016699,179055814.91150153 -162682964.0987207,181187123.09467784 -181363902.66071847,181840530.13639504 -200448614.14311138,180929790.476699 -219773135.63579267,178383028.15833876 -239161068.4739277,174144616.05426756 -258424990.178566,168176979.56337264 -277368099.76297945,160462297.30160987 -295786091.62112916,151004070.75793594 -313469250.0524329,139828534.63800994 -330204753.20190436,126985879.70752095 -345779171.8399052,112551260.39252213 -359981145.00767815,96625560.21469952 -372604211.152757,79335889.34992296 -383449770.014473,60835790.20983567 -392330147.23841274,41305128.965408936 -399071730.5462252,20949653.360524993 -403518143.3114248,200.00000049416744" stroke="white" stroke-width="1.5" /></svg>