<?xml version="1.0" encoding="utf-8" ?>
<svg baseProfile="full" height="400" version="1.1" width="400" xmlns="http://www.w3.org/2000/svg" xmlns:ev="http://www.w3.org/2001/xml-events" xmlns:xlink="http://www.w3.org/1999/xlink"><defs /><rect fill="black" height="100%" width="100%" x="0" y="0" /><circle cx="200" cy="200" fill="yellow" r="10.000001357669806" stroke="orange" stroke-width="2" /><polyline fill="none" points="200.4187603922266,200.0 200.35463834939273,200.0186168933262 200.28426568036988,200.02992777341245 200.20818011145226,200.033028454663 200.12702911959968,200.02704729860758 200.04156931607466,200.01115793969686 199.9526644340231,199.98459229040577 199.86128185162747,199.94665368224176 199.76848759610237,199.89672998794737 199.6754397890391,199.83430656004882 199.58338051035466,199.7589788121341 199.49362607625324,199.67046426204908 199.40755574603472,199.56861385077184 199.3265988931278,199.45342234725015 199.25222069720394,199.3250376481387 199.18590643643873,199.18376878231066 199.1291444817014,199.030092433383 199.08340811742255,198.86465779940966 199.050136336847,198.68828961745476 199.03071378203387,198.5019891920343 199.02645002102145,198.3069332804466 199.0385583757117,198.10447070481345 199.06813453392695,197.89611658019834 199.11613519741675,197.68354407039806 199.18335703401402,197.46857360782144 199.27041621632466,197.25315954113987 199.3777288409557,197.03937420394217 199.50549253103156,196.82938942923647 199.65366953030815,196.62545556806072 199.82197159929692,196.42987810539364 200.00984702218685,196.2449920026683 200.21647002778417,196.07313393311043 200.44073291797127,195.91661261344646 200.68124118317027,195.77767747281814 200.93631186586202,195.65848593653018 201.20397541029712,195.56106963805948 201.48198120912272,195.48729990705212 201.76780702577955,195.43885291330432 202.05867243529516,195.41717487642424 202.35155638567008,195.42344777746683 202.64321893764554,195.458556031779 202.9302271925407,195.52305460106197 203.20898536640473,195.6171390367364 203.47576891435992,195.7406179555942 203.7267625521999,195.89288845198237 203.95810196358954,196.07291494796988 204.16591892119942,196.27921197372734 204.34638948945224,196.50983135438597 204.4957849159767,196.76235425668423 204.61052475911265,197.0338885185727 204.6872317406886,197.32107164752773 204.7227877576336,197.62007982859606 204.71439043364336,197.926643231226 204.659609543973,198.2360678448956 204.55644260335262,198.5432640076854 204.40336886989445,198.84278171962654 204.19940098754043,199.12885275434968 203.94413346692232,199.39543949884072 203.63778719026277,199.63629036265482 203.28124912088288,199.84500150553234 202.87610640267093,200.01508453688487 202.42467405011507,200.14003974305933 201.93001545571514,200.2134342997159 201.39595497917716,200.22898482823004 200.82708193205144,200.1806435579845 200.22874533257067,200.0626872620554 199.60703887841018,199.86980804346564 198.9687756698172,199.59720496427954 198.3214523117716,199.24067543175866 197.67320213112174,198.7967051860236 197.03273736238944,198.26255567359019 196.4092802833978,197.6363475421693 195.8124834181058,196.91713895558834 195.25233906792874,196.10499740490098 194.73907858310764,195.20106368389693 194.2830619409197,194.207606705412 193.8946583560985,193.12806786003515 193.58411880900584,191.96709366184504 193.3614415369847,190.7305554873385 193.2362316919115,189.4255552942145 193.21755652014772,188.06041630641607 193.3137975676585,186.64465777085715 193.53250155075855,185.18895302938265 193.88023165945296,183.70507030629003 194.36242117333853,182.2057957864759 194.9832313672153,180.7048387509916 195.7454157626506,179.21671874425192 196.6501928405537,177.75663496880884 197.6971293662598,176.34031833767835 198.88403649074183,174.98386685860407 200.20688077758388,173.7035652770157 201.65971226368848,172.5156901621792 203.2346115910161,171.43630188129896 204.92165814590422,170.48102516604814 206.7089210109249,169.6648202319015 208.58247437138607,169.00174665929262 210.52643882439216,168.50472248342896 212.52304981317778,168.18528116289218 214.55275415392697,168.0533293021784 216.59433533765412,168.11690818631547 218.625067977527,168.3819623428834 220.62090143430464,168.85211847447312 222.5566722918312,169.5284781992854 224.40634497371903,170.4094280958073 226.14327939486162,171.4904705661371 227.74052413106764,172.76407900868494 229.17113317114604,174.21958072209753 230.40850389283295,175.84307084618843 231.4267334820289,177.61736048067988 232.200990599229,179.52196190745616 232.70789869337005,181.53311357610895 232.92592697741253,183.62384719572864 232.83578471780555,185.7640989086902 232.42081415765165,187.92086610579594 231.66737709702238,190.05841097845217 230.56522989957512,192.13851139517524 229.10788148836542,194.12075913997325 227.2929287413206,195.96290496310306 225.1223636037448,197.6212492751603 222.60284620658874,199.05107666895572 219.74593831971993,200.20713178639883 216.56829158319104,201.04413336656324 213.09178515002438,201.51732262379238 209.34360764407188,201.58304141925092 205.3562786880458,201.1993350143873 201.1676056909287,200.32657353944515 196.82057210079032,198.92808568391482 192.3631539276756,196.97079752838437 187.84806201971844,194.42586889854326 183.33240833087808,191.2693191420734 178.87729524644553,187.48263381773432 174.54732792727924,183.05334345282253 170.41005058895985,177.9755652797493 166.53530863987555,172.25049871366016 162.99453965363483,165.88686528913416 159.85999723600614,158.90128384263136 157.2039129535283,151.31857191517278 155.09760260775255,143.1719646623952 153.6105242525216,134.50324300108775 152.80929644769134,125.3627632957532 152.75668630645436,115.80938159736505 153.51057790953374,105.91026628949133 155.1229326121577,95.74059397283038 157.6387536427877,85.38312452471523 161.09506816987343,74.92765250022153 165.51994067836077,64.4703333891986 170.93153203551014,54.11288469993343 177.33721902056277,43.96166339444349 184.73278933043235,34.12662283975209 193.10172714041082,24.720154149280006 202.41460418258438,15.855818552096451 212.62859099444276,7.646979226894956 223.687102476908,0.20534285219068238 235.51959117748265,-6.3605770671740345 248.04150077535547,-11.947061257468107 261.1543910883544,-16.456834551074763 274.7462445463798,-19.80074736407616 288.6919624849004,-21.899470016647854 302.8540578105547,-22.685179721631158 317.0835485872187,-22.103218808075923 331.2210548964458,-20.113701670352384 345.0980989554819,-16.693047065223652 358.5386059468051,-11.835411743801842 371.3606003461755,-5.55400102605941 383.37808975545363,2.1177681755925164 394.4031253789499,11.125276180302933 404.248025357644,21.391904994666106 412.72774422684347,32.81846134222317 419.6623688247811,45.2828400237984 424.8797180895552,58.63994783135871 428.2180213788587,72.72190634910207 429.52864727183305,87.33854973184876 428.67885230695003,102.27823095668117 425.55451681662817,117.30894710792484 420.06283298104984,132.17979099164444 412.1349084827988,146.6227328024612 401.72824774207515,160.35473170640557 388.8290716894935,173.0801730875778 373.45443642795,184.49362286759194 355.65411098223854,194.28288578418315 335.5121746672299,202.13234985288523 313.1482954508288,207.72659448201622 288.718652070486,210.7542349193171 262.416464600508,210.91197093555823 234.4721006749278,207.9088029568848 205.15272765416591,201.47037430732536 174.76148468335933,191.34339388193558 143.63615281911967,177.30008950751426 112.14730618512431,159.14263853083827 80.69593243298426,136.70751887336513 49.71051660281478,109.86972097527635 19.643588759050033,78.54675878805661 -9.032257525721008,42.702416328751866 -35.828861708368095,2.3501653423504365 -60.24748634896969,-42.443810610976755 -81.78427165529848,-91.55804976762857 -99.93611770639251,-144.81376620070841 -114.20694977749002,-201.97338474985133 -124.11431443558496,-262.73971413007604 -129.19624645352354,-326.75581141203565 -129.01833920455414,-393.60558603311506 -123.18094415621323,-462.81518552988257 -111.32641849295896,-533.8551982890096 -93.14633387339074,-606.1437008197231 -68.38855398307538,-679.0501683929405 -36.8640839898886,-751.9002584200676 1.546408645058989,-823.9814657216097 46.88650519559323,-894.5496379389181 99.11848327381537,-962.8363278621689 158.11840608642652,-1028.0569474876502 223.67195747934187,-1089.4196762944223 295.4711246048658,-1146.1350636733248 373.1118263237695,-1197.4262527906549 456.0925802629272,-1242.5397405758522 543.8142947538886,-1280.7565761476671 635.5812636614377,-1311.4038880050578 730.6034323742922,-1333.8666188827183 827.9999919916332,-1347.5993364861454 926.8043460387819,-1352.1379785604486 1025.970479942754,-1347.1113820937796 1124.380748075381,-1332.2524390921942 1220.8550765315572,-1307.4087154660476 1314.1615620784673,-1272.552365310161 1403.0284290357827,-1227.7891704037618 1486.1572863960102,-1173.3665342529334 1562.2376074584222,-1109.68026158494 1629.9623338393478,-1037.2799580006247 1688.0444851649659,-956.872890599001 1735.2346352960615,-869.326158885809 1770.3390958384387,-775.667036219757 1792.238628232492,-677.0813554638379 1799.9074871748942,-574.9098283932556 1792.4325807972136,-470.6422067340594 1769.0325172070104,-365.90921340284194 1729.0762929845057,-262.4721954893875 1672.1013673176872,-162.2104756376346 1597.8308559396041,-67.10640556672968 1506.1895721821268,20.771845671492315 1397.3186385448255,99.28970572003007 1271.58839144087,166.26772061644425 1129.6093044460135,219.50505697548442 972.2406616368652,256.80482428842834 800.5967226230086,276.00102356856564 616.0501347819581,274.98689534029836 420.2323660831928,251.74440733499227 215.0309537815463,204.37459066586817 2.5833901676463142,131.12840316976514 -214.73250356961336,30.437770500664726 -434.31183059272905,-99.05357007927148 -653.3395765885118,-258.4598209567693 -868.8113097884109,-448.6238874821769 -1077.5576156751692,-670.0895857186583 -1276.2722122660514,-923.075738021367 -1461.5436424420125,-1207.4526060833234 -1629.890388349707,-1522.7211121518787 -1777.7991999423737,-1867.9952946519188 -1901.7663758043905,-2241.9884341349048 -1998.3416801289263,-2643.0032690429966 -2064.1745257398507,-3068.926698029575 -2096.0620000596173,-3517.2293363716612 -2090.9982596495634,-3984.9702582768414 -2046.2247701404094,-4468.807214634498 -1959.2808228013878,-4965.012567077629 -1828.0537174501442,-5469.495124282496 -1650.8279646684578,-5977.828005502634 -1426.332829140109,-6485.282589769097 -1153.7875111290377,-6986.868537439888 -832.9432454012003,-7477.379794394767 -464.12158695814696,-7951.446408786235 -48.24815143796303,-8403.591906605558 413.11891446662844,-8828.295886226342 917.7664402127492,-9220.061404455488 1462.8103969217595,-9573.486638438111 2044.6873646657552,-9883.340220090742 2659.1538972657854,-10144.63955370092 3301.294322011966,-10352.73134410959 3965.5374427942406,-10503.373483710742 4645.682535768511,-10592.817372616824 5334.934937161282,-10617.889679019214 6025.951423574325,-10576.0724873029 6710.89547676882,-10465.580731114247 7381.502408124434,-10285.435768569712 8029.154193672752,-10035.533928322788 8644.963739838553,-9716.708839401499 9219.868163980904,-9330.786355636106 9744.730533848426,-8880.630898061027 10210.449367625646,-8370.182066719944 10608.075052958779,-7804.480417518522 10928.932200934807,-7189.681360687918 11164.746811277068,-6533.056215403526 11307.776989933029,-5842.979550323077 11350.945831757006,-5128.902052233032 11287.974961170883,-4401.308294378415 11113.51711459314,-3671.6589219246166 10823.286052132644,-2952.316933649144 10414.182004606591,-2256.4579154337493 9884.410797369279,-1597.9642712197774 9233.594746661507,-991.3036993492362 8462.873399039527,-451.3923749403548 7574.992181611455,6.556479806134746 6574.377051827412,367.19772788681087 5467.193281772574,615.2320113584708 4261.3865844168395,735.5946329440012 2966.704888931128,713.6540201969176 1594.6991995777119,535.4179401646265 158.70212808585725,187.74541320644477 -1326.2171272191288,-341.43793383443676 -2843.322371365603,-1062.9235292170204 -4374.305349932438,-1986.0051635597088 -5899.406548397402,-3118.2687296006184 -7397.562081237513,-4465.389312991554 -8846.57658900261,-6030.938656874293 -10223.321732498292,-7816.206096588382 -11503.959527197678,-9820.036100876467 -12664.189401224541,-12038.685559640244 -13679.5174902657,-14465.703923177241 -14525.546306498103,-17091.839221734386 -15178.282540316397,-19904.972875352305 -15614.460377887934,-22890.08604095707 -15811.877349190796,-26029.260035555715 -15749.739365283931,-29301.713120779546 -15409.0112653773,-32683.875634998105 -14772.768879210016,-36149.505115478976 -13826.548323774135,-39669.84266587562 -12558.688001017013,-43213.8113955913 -10960.658550239867,-46748.25728984503 -9027.375840777897,-50238.23236576763 -6757.491972286371,-53647.319434440586 -4153.659186381636,-56937.997225989115 -1222.761588948574,-60072.044049821 2023.89035885916,-63010.97756064724 5570.407497529235,-65716.52758941689 9396.216495693023,-68151.13838368886 13476.005701177939,-70278.49599166126 17779.726431577335,-72064.0759260006 22272.65340534395,-73475.70566598512 26915.507526695204,-74484.1360078791 31664.643677262935,-75063.6147626419 36472.305536535285,-75192.45583593947 41286.948754850535,-74853.59631687235 46053.63304118113,-74035.1338576549 50714.48290843161,-72730.83635528223 55209.21594778005,-70940.615756264 59475.73658808987,-68670.95770458522 63450.79234503292,-65935.29874839954 67070.68858673243,-62754.34291908132 70272.0568488371,-59156.30970280522 72992.67073327581,-55177.10574449764 75172.30243361776,-50860.41306040545 76753.61195879368,-46257.68709104051 77683.06018935703,-41428.05860195684 77911.8360103991,-36438.1342353469 77396.7869369175,-31361.69142892355 76101.3418953305,-26279.26444653389 73996.41416338627,-21277.619402305343 71061.27191422961,-16449.117400030475 67284.3633728203,-11890.966243394183 62664.08328765737,-7704.362590260116 57209.46726050173,-3993.5279134946386 50940.80047322009,-864.6431780302594 43890.12751452827,1575.311266335707 36101.650349466276,3219.802461461404 27632.00199845865,3964.0685490283727 18550.38420662145,3706.5080623823624 8938.558291394398,2350.121877055531 -1109.3205407193657,-196.00662690541515 -11487.03382016479,-4015.209081807202 -22076.802306049158,-9181.72456257321 -32749.96559174807,-15759.205383400898 -43367.842220357066,-23799.255784721172 -53782.77168739597,-33340.02393416044 -63839.33753728177,-44404.8683712292 -73375.7684536546,-57001.12051595382 -82225.51182128889,-71118.96511609883 -90218.97172140944,-86730.46050701551 -97185.40073779882,-103788.72028543014 -102954.9323256929,-122227.27743882356 -107360.73785902002,-141959.65111319255 -110241.28985611504,-162879.13503457318 -111442.71032357644,-184858.825117605 -110821.18068795734,-207751.9019950117 -108245.38744228141,-231392.18208621608 -103598.97545662601,-255594.94839668038 -96782.97892735002,-280158.0695111898 -87718.19820612663,-304863.4122279912 -76347.4892954984,-329478.54999466916 -62637.931658988564,-353758.7657737429 -46582.839206168675,-377449.3442135553 -28203.578909833042,-400288.14406013704 -7551.1615243132255,-422008.43765481334 15292.43067136651,-442342.00016112893 40213.21326033206,-461022.4268980986 67064.49895149251,-477788.65287358395 95666.55755705059,-492388.64436384384 125806.66509976705,-504583.2282282896 157239.56752901353,-514150.020640003 189688.38107416517,-520887.41311239253 222845.94730828615,-524618.5701717548 256376.65654974274,-525195.389826484 289918.7483168176,-522502.3751781389 323087.0922004274,-516460.3631688833 355476.4467699476,-507030.054623674 386665.18802161183,-494215.2884812029 416219.49247015896,-478066.0024691179 443697.9533317776,-458680.82251632935 468656.60141637095,-436209.22395292285 490654.29541272344,-410853.2090653741 509258.4392908192,-382868.4478832169 524050.97764593305,-352564.83219742804 534634.613059259,-320306.3967663057 540639.1830436916,-286510.5664580363 541728.127978132,-251646.69370690145 537604.9757089751,-216233.8571081156 528019.7633139426,-180837.89921930325 512775.3119818528,-146067.6896377522 491733.26716179185,-112570.6081330835 464819.8131734548,-81027.25197402583 432030.96944002976,-52145.38152253517 393437.3744936709,-26653.12859357995 349188.4639921353,-5291.502897653418 299515.95024606446,11193.757012737244 244736.5132525757,22060.930600719992 185253.61701396748,26581.59100694634 121558.37002950511,24050.329308588003 54229.35530877569,13794.836208021228 -16068.636922916485,-4813.760576681479 -88587.03147933622,-32350.414949822767 -162497.09257123462,-69325.65811780747 -236894.78561061822,-116175.20072287068 -310806.8987749391,-173249.7781953817 -383198.43246449216,-240805.38223270306 -452981.24955535773,-318994.02609010314 -519023.9631871192,-407855.19462965097 -580163.0218683248,-507308.1316743843 -635214.9340909208,-617145.1170262336 -682989.5565940157,-737025.8834097154 -722304.3521010547,-866473.3194975428 -751999.503982944,-1004870.5989755838 -770953.7570977292,-1151459.8672500246 -778100.8362627896,-1305342.606848624 -772446.2766768924,-1465481.7898047983 -753084.4843840421,-1630705.9103486498 -719215.8298217135,-1799714.9741015343 -670163.5638888925,-1971088.5007486204 -605390.3340702439,-2143295.575946202 -524514.0682239383,-2314706.965137163 -427322.98593786807,-2483609.2771615842 -313789.49212698825,-2648221.1392542273 -184082.7050138601,-2806711.31744243 -38579.37101763262,-2957218.68775415 122127.0774359721,-3097873.9343037973 297219.5584151296,-3226822.82055828 485652.6983647508,-3342250.8502396676 686150.7247788555,-3442409.1047600186 897208.0898353842,-3525641.0151947024 1117093.0003368321,-3590409.7989876526 1343854.0048952308,-3635326.2652635523 1575329.7613824336,-3659176.668225441 1809162.0763493935,-3660950.266073722 2042812.2735626078,-3639866.2236261214 2273580.9112254404,-3595399.4807742015 2498630.8271112526,-3527305.196494762 2715013.4480513004,-3435641.369741686 2919698.255362008,-3320789.2345497143 3109605.2512821807,-3183471.0274297823 3281640.2237890754,-3024764.7309350763 3432732.5587870525,-2846115.4083938035 3559875.300169847,-2649342.76145632 3660167.1102434206,-2436644.564454851 3730855.736090022,-2210595.6577270688 3769382.5423129303,-1974142.2160483312 3773427.6279055816,-1730591.0481203164 3740955.005433389,-1483593.7285697476 3670257.285003363,-1237125.414935728 3559999.2743279785,-995458.2584030197 3409259.880257445,-763129.3782231286 3217571.677131791,-544903.4354226023 2984957.493836121,-345729.9110116377 2711963.365135438,-170695.2668743684 2399687.1942780693,-24970.243163152674 2049802.4834875066,86247.37643087684 1664576.5072430635,157794.12153482187 1246882.3305315985,184605.82529189682 800204.1107989007,161785.68112482486 328635.1683065485,84674.7231265387 -163131.63493244478,-51075.98612732981 -669821.6025625658,-249432.24581614224 -1185604.3183987509,-513903.5347700589 -1704128.4056807791,-847470.6644959499 -2218565.0770605006,-1252515.2252577227 -2721660.521712276,-1730751.8250519123 -3205797.0691075507,-2283164.1536071585 -3663062.9557400225,-2909945.925148614 -4085330.402408404,-3610447.763621572 -4464341.5866727745,-4383131.0914583355 -4791801.969038385,-5225530.066989198 -5059480.30365085,-6134222.585545908 -5259314.536283844,-7104811.314616062 -5383522.665740895,-8131915.673654322 -5424717.521143467,-9209175.59407708 -5376024.288676327,-10329267.804467022 -5231199.509007771,-11483935.280188084 -4984750.162629996,-12664030.375749305 -4632051.366631078,-13859572.022850769 -4169461.1247646096,-15059817.22781462 -3594430.5049529043,-16253346.939972486 -2905607.5663174544,-17428166.18870282 -2102933.323176133,-18571818.20256616 -1187728.017774663,-19671512.030968055 -162765.97829712916,-20714262.98880449 967662.6347634478,-21687045.039631773 2197704.841370566,-22576954.02527678 3519914.188115047,-23371380.441856768 4925237.904345778,-24058190.256484687 6403023.222188395,-24625912.05820067 7941044.066698427,-25063928.643725276 9525549.149817592,-25362670.95639387 11141332.30480894,-25513812.12809621 12771825.677251376,-25510459.222213883 14399216.145642659,-25347340.143439993 16004585.080711706,-25020983.070937295 17568071.26955925,-24529885.687427264 19069056.53097464,-23874671.421255168 20486373.234325316,-23058229.89384075 21798532.609232478,-22085838.77356535 22983972.400133237,-20965264.281198084 24021322.082392856,-19706837.67324272 24889683.518782668,-18323505.14957414 25568924.601052154,-16830848.791539393 26039983.09540954,-15247076.33698572 26285177.597581834,-13592977.839682685 26288522.207507532,-11891847.54204713 26036041.260469195,-10169369.61116698 25516080.205506254,-8453466.747518534 24719608.50813385,-6774111.071569723 23640510.277558386,-5163097.12318001 22275858.183392566,-3653777.269268244 20626166.137807254,-2280760.3029609295 18695616.180308495,-1079574.5281075337 16492255.017754253,-86297.15184099591 14028155.74525297,662847.6505958841 11319540.4071753,1131919.0861246716 8386859.254048279,1285715.0476527703 5254822.812362444,1090248.367255784 1952383.2113898252,513239.4853594417 -1487338.3956740026,-475379.50567264704 -5027181.020033293,-1902954.964704831 -8626131.815595964,-3793601.9159210767 -12239574.442322357,-6167700.736516024 -15819598.765174756,-9041407.026710905 -19315372.13971562,-12426181.65660221 -22673571.785926268,-16328348.202281836 -25838876.95832397,-20748685.126472045 -28754518.7899024,-25682060.119815793 -31362884.827627964,-31117113.991687324 -33606174.39694491,-37036001.3783842 -35427100.04155239,-43414195.31705847 -36769629.39297096,-50220362.411872305 -37579760.94317049,-57416314.89177446 -37806326.334451236,-64957045.32524737 -37401810.95603338,-72790849.11586767 -36323183.858964466,-80859539.15431623 -34532727.28283018,-89098756.14975111 -31998855.442275237,-97438377.2098143 -28696911.66140844,-105803024.18909267 -24609932.482469257,-114112672.18722256 -19729367.02400431,-122283357.35823601 -14055739.6350014,-130227981.90190461 -7599243.79600782,-137857212.75707188 -380255.2663309081,-145080469.11904043 7570247.323002764,-151806992.47224736 16210365.870049408,-157946991.38129234 25487081.108758677,-163412851.8347795 35336176.03571219,-168120402.50532514 45682293.79854819,-171990222.89450416 56439138.34106924,-174948980.9932225 67509824.87994213,-176930785.82643652 78787385.89813632,-177878539.0871361 90155436.78665143,-177745269.0190684 101489003.55706817,-176495428.80176646 112655513.1938479,-174106140.94566646 123515945.23047507,-170568368.63944626 133926141.03341658,-165887994.62533963 143738265.0808212,-160086788.02890658 152802410.24978963,-153203239.65405154 160968336.8000613,-145293246.58651462 168087332.38850284,-136430627.54213345 174014178.0952654,-126707451.25994326 178609203.11820084,-116234161.38206145 181740408.52795592,-105139482.68669489 183285638.3042447,-93570095.24869551 183134773.82746556,-81690065.09171128 181191926.11273518,-69680022.16110098 177377598.3799553,-57736078.97783932 171630790.0874839,-46068486.116806544 163911012.3520842,-34900023.67053302 154200183.76625675,-24464131.08969401 142504375.0371738,-15002781.208608273 128855370.63783689,-6764107.837549532 113312015.80782692,199.99999986123305" stroke="white" stroke-width="1.5" /></svg>