<?xml version="1.0" encoding="utf-8" ?>
<svg baseProfile="full" height="400" version="1.1" width="400" xmlns="http://www.w3.org/2000/svg" xmlns:ev="http://www.w3.org/2001/xml-events" xmlns:xlink="http://www.w3.org/1999/xlink"><defs /><rect fill="black" height="100%" width="100%" x="0" y="0" /><circle cx="200" cy="200" fill="yellow" r="20" stroke="orange" stroke-width="2" /><polyline fill="none" points="199.22020060854405,200.0 199.27500042500654,199.96194083417006 199.3379166016491,199.9302952016571 199.40855937704916,199.90616601333954 199.48641179998657,199.89064575547027 199.57082747830802,199.88480250413573 199.66102978192103,199.88966531669234 199.7561126070469,199.90620914051732 199.8550427966084,199.93533939482575 199.9566642973735,199.97787639581688 200.05970411826448,200.03453980877572 200.162780136141,200.1059333227313 200.26441077547892,200.19252975361792 200.3630265668158,200.29465679036025 200.45698356578245,200.4124836046801 200.54457859016722,200.54600854947836 200.62406620698536,200.6950481721786 200.69367737519184,200.85922776823577 200.7516396227504,201.0379736959527 200.7961986095524,201.2305076666616 200.82564090048336,201.4358432141071 200.8383177461041,201.6527845334254 200.83266964230393,201.8799278634048 200.80725141526958,202.11566556572387 200.7607575545801,202.3581930316245 200.6920474955759,202.60551852005878 200.6001705327542,202.85547600186845 200.48439002920856,203.10574105217233 200.34420657344003,203.35384979806284 200.17937972459808,203.59722089119987 199.9899479807183,203.8331804352457 199.77624660214227,204.05898975665522 199.53892292433943,204.2718758645209 199.2789488010732,204.46906440140907 198.99762983048961,204.64781484289472 198.69661103344652,204.80545765932604 198.37787867537418,204.93943310977943 198.04375795024254,205.04733129578338 197.69690627782356,205.12693306180427 197.34030200332822,205.17625129131946 196.97722833155137,205.19357211219642 196.61125237568126,205.17749549368608 196.24619925366173,205.12697469026747 195.88612122209264,205.04135396547431 195.53526189869848,204.92040401229895 195.1980156888939,204.76435447638798 194.878882599355,204.57392298455258 194.58241869112234,204.35034008461406 194.313182495899,204.09536951372732 194.07567779108157,203.81132323144269 193.8742932008298,203.50107068118172 193.7132391612403,203.16804177972492 193.59648285649345,202.8162231788658 193.5276817987064,202.45014739659814 193.51011678612713,202.07487447699017 193.54662503121574,201.69596590806634 193.639534301031,201.31945060525297 193.7905989561413,200.9517828538149 194.00093880998574,200.59979219666064 194.27098175724004,200.27062535323944 194.60041113635378,199.97168036019073 194.98811879714026,199.71053323399943 195.43216483831972,199.49485756911218 195.92974496153127,199.33233760061117 196.47716635693396,199.2305753773481 197.0698329906367,199.196992808038 197.70224110548074,199.23872945773508 198.36798567395448,199.36253708381832 199.0597784552112,199.57467200750102 199.7694782074256,199.88078651728907 200.48813349238466,200.28582059306933 201.20603838177274,200.79389532191414 201.91280123478913,201.40820944755913 202.59742656543867,202.13094055319343 203.2484098561741,202.96315242009248 203.85384500386166,203.90471013120282 204.40154390580588,204.95420449762827 204.87916750951834,206.10888737577395 205.2743674619488,207.36461941252753 205.57493730409195,208.71583170432424 205.76897196747657,210.15550278247605 205.84503414241885,211.67515224119393 205.79232590658697,213.26485220597857 205.600863828989,214.91325769845415 205.26165560164762,216.6076567895009 204.76687610169682,218.33404124623345 204.11004065318366,220.0771981708114 203.28617314321295,221.82082290141867 202.29196655392698,223.5476531994882 201.12593340275853,225.23962448420568 199.7885435409115,226.8780455976377 198.282346746412,228.44379429398137 196.6120775654433,229.9175313472037 194.7847399058808,231.27993186583558 192.80966897156287,232.51193209527833 190.69856824611193,233.59498968031963 188.46551939195848,234.5113550575118 186.1269631241081,235.24435135272614 183.70164934920606,235.7786598777963 181.21055512819777,236.1006080560815 178.67676932449663,236.1984563644512 176.1253431376693,236.0626806630949 173.58310609334112,235.68624609913914 171.07844746088153,235.06486861966474 168.64106349848268,234.19726001858677 166.30167137699283,233.08535237399173 164.0916911052735,231.7344977116676 162.04289726637037,230.15363876012168 160.18704287038202,228.35544674536294 158.55545813107037,226.35642231268162 157.17862747306157,224.17695585960686 156.0857485686169,221.84134382059653 155.30427768078277,219.3777577606054 154.85946604634952,216.81816351158233 154.77389246036034,214.19818802251547 155.06699761669083,211.5569320884401 155.75462610919902,208.93672767459674 156.84858229790476,206.38283915556678 158.35620648751345,203.9431084417605 160.27997804451041,201.66754466223676 162.6171521875008,199.60785980778917 165.35943721740057,197.81695250495616 168.49271890395875,196.34834288270304 171.9968386080538,195.25556230076242 175.84543149112565,194.59150252305506 180.0058308407316,194.40772973158988 184.43904412223523,194.75376957549753 189.09980584979965,195.67637022559143 193.9367117550314,197.21875114584864 198.89243801989792,199.41984598791447 203.90404853428,202.3135486514196 208.90339224142346,205.9279721197492 213.81759165169302,210.28473016619114 218.56962254289044,215.3982524176152 223.0789837318871,221.2751435508916 227.2624546067435,227.91359757057015 231.03493686158316,235.3028781650932 234.31037559031,243.422876054036 237.00275358318612,252.2437540126827 239.0271513469085,261.7256898859939 240.30086404984038,271.81872737644403 240.74456529617316,282.4627437055954 240.28350637357133,293.5875424056354 238.84873841654428,305.11307849427476 236.37834380116368,316.9498221262082 232.81866205488052,328.99926550065624 228.12549464728613,341.1545763434267 222.2652722427465,353.30139968172193 215.21616736259782,365.31880790121556 206.96913494105476,377.08039723057436 197.52886298228648,388.4555268538578 186.9146154522134,399.3106948235225 175.16094968196606,409.51104285578225 162.31829093340988,418.921979957597 148.45334739141796,427.41091268433064 133.64934971116764,434.8490676847076 118.00610036760862,441.11339008225207 101.63981943154677,446.08849919853105 84.68277503272108,449.6686811728599 67.28268866176234,451.75989620623744 49.6019076036076,452.28177648514134 31.816339174867437,451.1695893546038 14.114144043203169,448.37613904066654 -3.305811279320153,443.8735792001788 -20.23573967573782,437.65510783023154 -36.460950139687185,429.7365156281204 -51.762086412324805,420.1575587814647 -65.91757458639,408.98312741045356 -78.70626325693593,396.30418150087837 -89.91023630421415,382.23842717495063 -99.31777491391642,366.93070756068244 -106.72644201767866,350.55308434932033 -111.94625901888958,333.30458837904865 -114.80294150370145,315.4106202520718 -115.14115767431218,297.1219850761781 -112.82777053147566,278.7135489104232 -107.75502242646706,260.4825083713531 -99.84361854962589,242.7462690989832 -89.04566427234494,225.83993336230495 -75.347410059499,210.1134019680286 -58.77175696489115,195.92810078319576 -39.380475555288825,183.6533475457286 -17.276091517103595,173.66238016477593 7.39660778280799,166.32807334706334 34.44948985623569,162.01837606342698 63.65045853294035,161.09150802358667 94.723339052356,163.89095888505415 127.3483019090656,170.74033930830146 161.1628562001178,181.93813810643883 195.76343819477506,197.75244454302953 230.7076151630305,218.41569922436508 265.5169181849784,244.11954093027907 299.6803107551192,275.0098200487073 332.65829254024663,311.1818519438474 363.8876297026269,352.67598551874687 392.7866948277895,399.47356335734776 418.76139077401,451.4933500804049 441.2116237735652,508.5885048625809 459.5382819581511,570.5441723802498 473.1506662549551,637.0757637456256 481.47431141596593,707.8279951971421 483.9591259182663,782.3747474338844 480.0877707301839,860.2198024905952 469.38418860493186,940.7985079495826 451.42218777085634,1023.480410090923 425.83397676877644,1107.572888321079 392.31854087582417,1192.32581293654 350.6497451842914,1276.9372370325557 300.68404510302815,1360.5601212330444 242.36768194307615,1442.3100769877642 175.74323945714744,1521.2741005644045 100.95543683454837,1596.520255679765 18.256034809149952,1667.1082481040892 -71.99226569428401,1732.1008206892982 -169.31304849719015,1790.5758822820776 -273.11464061386965,1841.6392690657956 -382.6899061560399,1884.438022221804 -497.2174678631137,1918.1740516103075 -615.7644368443315,1942.1180416517498 -737.2907177589414,1955.623442954291 -860.6549415698144,1958.1403816980037 -984.6220612559741,1949.229308569157 -1107.8726275577487,1928.574200353666 -1229.0137420777921,1895.9951203581566 -1346.591664021519,1851.4599388334186 -1459.1060247068644,1795.0950117206748 -1565.0255809067162,1727.1946155049122 -1662.8054143337547,1648.2289379035951 -1750.9054603863078,1558.8504286850837 -1827.8102249165063,1459.8983222181444 -1892.0495235510402,1352.4011534944993 -1942.2200542993173,1237.577102404177 -1977.007591149647,1116.8320170104078 -1995.2095644184183,991.7549854644094 -1995.7577731266092,864.1113479816676 -1977.7409559842558,735.8330648927297 -1940.4269310194113,609.0063840653434 -1883.2839998435152,485.8567808119066 -1806.0013013421826,368.73117554547315 -1708.5077915488675,260.0774686852062 -1590.9895219107545,162.42146835203755 -1453.9048873821218,78.34132391011968 -1297.9975190417877,10.439617030993418 -1124.306503458722,-38.68669872052641 -934.1736230149493,-66.47827919952715 -729.2473279872135,-70.44702195056726 -511.4831724907017,-48.21104084852698 -283.14047244976723,2.4693628668196936 -46.77497457669395,83.65511473367793 194.77263915476564,197.19158119120237 438.39254698675995,344.6720287830232 680.7259738145867,527.4018003324888 918.1898110474251,746.3637026964186 1147.0056600301618,1002.1851187887925 1363.2332334561124,1295.1073694850038 1562.807990576203,1624.9578582637407 1741.582821004182,1991.125532547597 1895.3735291288922,2392.540190240002 2020.0078072351241,2827.6561475529757 2111.377321124165,3294.4407645672204 2165.4924680871236,3790.3682978222573 2178.539304338512,4312.419514435389 2146.938078325007,4857.087459714629 2067.4027485774404,5420.389719973873 1937.0008108881227,5997.887464385527 1753.2127104998872,6584.711484427896 1513.990071619352,7175.595377116307 1217.8119398370836,7764.915939175264 863.7382038543495,8346.740754150083 451.4593421476053,8914.882863819188 -18.658371329748604,9462.962319913846 -545.5330698416014,9984.474312951228 -1127.3337632380008,10472.863472914634 -1761.4539118331259,10921.60383264994 -2444.492910391589,11324.2838403626 -3172.246243407206,11674.695703751311 -3939.7050159999317,11966.928246438678 -4741.065495330207,12195.46235885662 -5569.749215454479,12355.268032061882 -6418.43410420481,12441.90187558964 -7279.0969843106,12451.603940904448 -8143.067683111874,12381.392601794905 -9001.09485653701,12229.156183679754 -9843.423494409113,11993.739986711136 -10659.883926664348,11675.027314186758 -11439.991994953714,11274.013099450194 -12173.05989277365,10792.868722400995 -12848.317011322883,10234.996622071483 -13455.039959468191,9605.073345429368 -13982.690756426624,8909.079725442592 -14421.062027085773,8154.316954126868 -14760.42786445825,7349.407409203982 -14991.698863876121,6504.279206333161 -15106.579681539015,5630.133582595283 -15097.727328351795,4739.394370711663 -14958.908281080441,3845.638996798793 -14685.15237917676,2963.5106264484257 -14272.901379605999,2108.611293440319 -13720.14996603605,1297.3760710113409 -13026.576955099954,546.9285855907892 -12193.664413286067,-125.0815747554496 -11224.802395346776,-700.6587425621169 -10125.377040756648,-1161.6572594619283 -8902.839820265615,-1489.9924121269062 -7566.755811299715,-1667.8645809623827 -6128.828999865438,-1677.994692841796 -4602.902758394622,-1503.8688005363565 -3004.9338339388673,-1129.9893519492227 -1352.9383992041546,-542.1304656455806 333.09103038078126,272.4057005872005 2031.298727987574,1324.5346103255044 3718.1095368511797,2623.1403444848243 5368.403562514883,4174.835394199294 6955.7216693004775,5983.732834735126 8452.501283976408,8051.234550814409 9830.341599153293,10375.839230095291 11060.296842288048,12952.973844799526 12113.19583754785,15774.85229867104 12959.985641826072,18830.364825036755 13572.09658797192,22105.001579606058 13921.825623218137,25580.813677160495 13982.734394612991,29236.414673361385 13730.058112007542,33047.025191047665 13141.120819056785,36984.5630347532 12195.752330156556,41017.780728561534 10876.701752738378,45112.45195237406 9170.042216372964,49231.60784247662 7065.561179108165,53335.82356698626 4557.130483658528,57383.55498916866 1643.0501974953286,61331.52459634268 -1673.6398027523828,65135.1552045031 -5384.886545614666,68749.04925504087 -9477.394949350575,72127.51080691314 -13932.44889773019,75225.1066028587 -18725.78799493559,77997.26186004726 -23827.54526930504,80400.88571267384 -29202.25069060967,82395.0205258514 -34808.904872876,83941.50861648409 -40601.1267547133,85005.66926778038 -46527.37838303791,85556.97832008633 -52531.26917652875,85569.74207230259 -58551.94121583452,85023.75674584978 -64524.536203462936,83904.94435739682 -70380.74376364663,82205.95552752652 -76049.42971881424,79926.72952997217 -81457.34189337416,77075.0017692518 -86529.88986733979,73666.74887197126 -91191.99394310705,69726.56169647 -95368.99741077461,65287.936813513945 -98987.63501417302,60393.47739293001 -101977.04934560925,55094.994951661756 -104269.84574745731,49453.50408049982 -105803.17518905278,43539.10307092117 -106519.83353438559,37430.734309598825 -106369.3646367354,31215.81939395784 -105309.15380775233,24989.76514349571 -103305.49742770396,18855.33803233703 -100334.63380760992,12921.90604054528 -96383.71989930105,7304.5485048320015 -91451.73809192191,2123.0362312805737 -85550.31714803053,-2499.3141007961117 -78704.45133307752,-6436.905380017755 -70953.10199109987,-9563.237600578903 -62349.6662277746,-11752.387833268107 -52962.29798847809,-12880.581044145263 -42874.067670493925,-12827.838267866868 -32182.94748950117,-11479.686775434211 -21001.61113287104,-8728.915074914923 -9457.037775270708,-4477.353875276985 2310.087698122793,1362.337444652713 14146.184425687532,8864.900760125067 25885.799225797127,18090.748679426968 37352.84574425274,29084.297800658347 48362.05808479825,41872.39079954481 58720.655178231806,56462.83297591845 68230.20927231811,72843.06918062043 76688.70894125669,90979.02703597896 83892.80394960374,110814.15203152354 89640.21619401008,132268.65940471253 93732.29782244407,155239.02668973594 95976.71453275744,179597.74942494926 96190.229020781,205193.38074392724 94201.55662478168,231850.87343363307 89854.26244166063,259372.24052709708 83009.66661539026,287537.54761358275 73549.7221650697,316106.2468076809 61379.82767384794,344818.85873654264 46431.53544547493,373399.00500325346 28665.114395955374,401555.7893913541 8071.926025477824,428986.52162338165 -15323.428650133224,455379.77281299804 -41461.23330236831,480418.7468991772 -70245.09316907746,503784.9473704886 -101540.72504533398,525162.1135309739 -135175.13913881837,544240.3954843425 -170936.24926463707,560720.7319821235 -208572.94497043794,574319.3903594633 -247795.6556876391,584772.6230380377 -288277.4329011286,591841.3905800271 -329655.5716281906,595316.0971027483 -371533.78721611504,595021.2800838874 -413484.95763385226,590820.1932758148 -455054.4350816851,582619.2186766153 -495763.92391861964,570372.0413460445 -535115.9146632648,554083.5193744263 -572598.6562224089,533813.1805753282 -607691.6406127845,509678.27753782144 -639871.56634486,481856.33359401015 -668618.7384193322,450587.1140781919 -693423.8546416832,416173.96001316153 -713795.1197884076,378984.42508536275 -729265.6211668078,339450.16148215736 -739400.8914101896,298066.0058689041 -743806.5770571687,255388.22347631573 -742136.1246955487,212031.87593261292 -734098.3903272559,168667.28708006724 -719465.0722505212,126015.59051760728 -698077.8632765405,84843.35295207966 -669855.2146151554,45956.2785481093 -634798.6013876661,10192.011253428765 -592998.1785583128,-21587.93555808561 -544637.7162148851,-48507.079954665714 -489998.7046590351,-69683.6474915994 -429463.52276225213,-84240.9537411904 -363517.5675650604,-91318.41121864643 -292750.24919080664,-90083.06534107421 -217854.76284081503,-79741.55108007659 -139626.55894633688,-59552.34947014211 -58960.44346688439,-28838.21130262926 23153.74718428605,13001.395639613691 105636.93808779163,66477.9693749725 187328.10066514686,132001.94878871765 266993.0396168966,209871.15045781396 343334.67306708556,300259.8423386245 415004.77785240737,403208.63323696033 480617.151782045,518615.3588257584 538762.1238339128,646227.1446967005 588022.3218541804,785633.824389488 626989.5856197691,936262.8854163521 654282.8913572473,1097376.1088912664 668567.1322531266,1268068.0584092436 668572.5784220579,1447266.561253857 653114.8195156995,1633735.3098226176 621114.9739610166,1826078.6933635462 571619.9310242647,2022748.9497590356 503822.3758209934,2222055.7042564084 417080.3333481437,2422177.936846687 310935.9559124726,2621178.3925894205 185133.26927247338,2817020.419764798 39634.58668859142,3007587.189536241 -125364.70283848127,3190703.218095932 -309423.26531828125,3364158.078347777 -511843.1604599914,3525732.15339832 -731661.6691468315,3673224.2488511344 -967645.8784014387,3804480.8455397342 -1218290.276251966,3917426.739322417 -1481817.5883821084,4010096.780358882 -1756183.0636619811,4080668.3913724013 -2039082.386634721,4127494.513268234 -2327963.3618528927,4149136.5976360855 -2620041.477753653,4144397.2396238665 -2912319.416725304,4112352.0219430574 -3201610.5334043656,4052380.1218576906 -3484566.2753672684,3964193.2184106084 -3757707.469620892,3847862.2273216397 -4017459.3450900675,3703841.3863958167 -4260190.106146087,3532989.2153125578 -4482252.815673219,3336585.8806924894 -4680030.288841071,3116346.510672001 -4849982.641300107,2874430.023113218 -4988697.078651821,2613443.0582304015 -5092939.458511032,2336438.639944527 -5159707.103055907,2046909.2307291662 -5186282.289456607,1748773.8920428923 -5170285.798810701,1446359.316528671 -5109729.86202476,1144374.5587785318 -5003069.804297545,847879.3582953664 -4849253.659301191,562246.0209184516 -4647769.0006196685,293114.90289936046 -4398686.22225169,46343.62440655975 -4102697.4927352304,-172049.77421668955 -3761150.6093631783,-355949.4304248131 -3376076.9906239407,-499209.61672615045 -2950213.06692484,-595727.5691002972 -2487014.3622548156,-639520.6051080397 -1990661.6030256385,-624806.8578594631 -1466058.24509058,-546088.8618344481 -918818.8759442827,-398239.1398416919 -355248.0262892293,-176586.85846816713 217690.98669900396,122995.45645054242 792417.463325417,504006.22116465826 1360785.1426309203,969231.2485153761 1914144.4927907684,1520663.5413704582 2443415.395690575,2159427.648702767 2939170.016345903,2885709.833298148 3391725.5070661744,3698695.3115102802 3791246.050424527,4596513.8219994595 4127853.5956567335,5576194.761044625 4391746.491692062,6633633.0859808475 4573325.06836831,7763567.134919323 4663323.067372755,8959569.439654395 4652943.678057302,10214051.519243728 4533998.792562035,11518283.534060273 4299049.961778052,12862429.554268857 3941549.410764493,14235599.05303483 3455979.361504013,15625915.073913982 2837987.814528314,17020599.34465328 2084518.861133688,18406074.417161208 1193935.5367355342,19768082.70705553 166133.18539020116,21091822.0876042 -997358.7124707345,22362097.463938907 -2293288.290761012,23563487.51630195 -3716608.6364773065,24680525.55817795 -5260422.666763265,25697893.209106743 -6915947.407128043,26600625.33561577 -8672499.41713548,27374324.470098373 -10517502.963841861,28005382.679808736 -12436522.367536927,28481208.629808575 -14413319.739129756,28790457.368138425 -16429939.094398603,28923260.16224581 -18466817.568266865,28871451.536349103 -20502924.163666066,28628790.50351563 -22515926.156211577,28191172.85729254 -24482382.94009463,27556831.28916744 -26377966.74494815,26726520.03320046 -28177709.28108007,25703680.710934103 -29856272.984891597,24494586.060952935 -31388245.1414268,23108458.290737648 -32748452.761117388,21557558.885897122 -33912295.68754046,19857246.855198994 -34856095.01734316,18026002.580359835 -35557453.527643465,16085414.678083021 -35995624.43564077,14060127.568593469 -36151884.46550835,11977747.779582297 -36009906.87462662,9868707.39607799 -35556129.80066967,7766083.49370847 -34780115.0387597,5705372.862832161 -33674892.14955515,3724221.841134098 -32237282.640274882,1862111.6188459853 -30468198.85657937,159999.95939938613 -28372912.178881016,-1340079.1159924576 -25961285.136607636,-2595455.5043274635 -23247962.14224326,-3563300.239943471 -20252513.707103252,-4201136.289445544 -16999529.235582586,-4467378.804790556 -13518653.806131572,-4321900.074242271 -9844564.736717101,-3726613.7844284815 -6016884.200408014,-2646072.605291532 -2080024.7024020224,-1048072.5424823922 1917035.1482855452,1095743.0219464977 5921046.443754305,3809287.150410971 9874858.464696987,7111448.9904285325 13717860.125947235,11015537.52991025 17386493.766185354,15528758.018084506 20814839.726498485,20651729.769888654 23935269.177394137,26378054.141270082 26679161.63438375,32693941.427804805 28977682.558765467,39577905.292796806 30762615.384117607,47000533.067938685 31967241.252554346,54924339.88513594 32527258.701121494,63303714.08888915 32381734.521649033,72084960.74265382 31474076.041376535,81206449.27929601 29753014.15160979,90598870.4560912 27173585.56274918,100185606.7612845 23698102.0015731,109883219.28635158 19297093.405946855,119602052.83188973 13950211.628180206,129246959.6634037 7647080.745674062,138718140.8859214 388079.81020151346,147912102.87495387 -7814956.241780872,156722724.59924036 -16938131.73403988,165042430.0131627 -26944995.42463412,172763458.00063556 -37786169.250732586,179779220.63612312 -49399113.55600764,185985738.81227705 -61708040.879894406,191283142.58884338 -74623989.34942515,195577221.966468 -88045065.468922,198781012.2053319 -101856864.65211546,200816396.3163569 -115933076.18960887,201615705.97675583 -130136277.49909659,201123300.8868483 -144318920.47633472,199297105.5161287 -158324510.56451988,196110081.30801576 -171988976.80433074,191551611.74813354 -185142228.63539398,185628777.27305797 -197609892.61420202,178367496.82632962 -209215219.51831278,169813512.97558862 -219781149.5495221,160033197.90615055 -229132520.5598194,149114158.3169811 -237098401.43579945,137165618.27663037 -243514530.02463952,124318560.45801246 -248225832.3043175,110725607.86704388 -251088996.93065986,96560630.2124428 -251975076.87339622,82018061.42965963 -250772087.622866,67311917.56388329 -247387569.4487299,52674507.22366953 -241751079.4624055,38354830.12169033 -233816577.81553766,24616662.80123905 -223564671.2961091,11736334.48046581 -211004676.8984372,200.00000025840646" stroke="white" stroke-width="1.5" /></svg>