<?xml version="1.0" encoding="utf-8" ?>
<svg baseProfile="full" height="400" version="1.1" width="400" xmlns="http://www.w3.org/2000/svg" xmlns:ev="http://www.w3.org/2001/xml-events" xmlns:xlink="http://www.w3.org/1999/xlink"><defs /><rect fill="black" height="100%" width="100%" x="0" y="0" /><circle cx="200" cy="200" fill="yellow" r="20" stroke="orange" stroke-width="2" /><polyline fill="none" points="199.37749118042365,200.0 199.44911844120546,199.97108123463522 199.52874544247857,199.95038585171895 199.615797113611,199.9390449571481 199.70956354021527,199.93815967804008 199.80919963389383,199.948785806932 199.91372645717504,199.97191799303383 200.02203429787352,200.0084736472461 200.1328875716514,200.05927674239067 200.2449316140854,200.12504170357312 200.35670140413956,200.20635759554202 200.4666322397166,200.30367282408406 200.5730723630566,200.41728057665077 200.67429750933906,200.54730523331253 200.76852732612957,200.69368998255834 200.8539435845257,200.85618587719364 200.92871007525974,201.03434256344576 200.99099405490048,201.22750091120037 201.03898907897198,201.4347877649249 201.0709390306195,201.6551130231756 201.08516312575424,201.8871692395584 201.08008164878183,202.1294339195839 201.05424214745514,202.38017466602102 201.00634579148996,202.63745730015907 200.93527357775665,202.89915705792177 200.84011204551572,203.16297292817185 200.7201781487145,203.4264451659885 200.57504291919656,203.68697597642088 200.40455354518667,203.9418533245015 200.20885348395942,204.18827778547478 199.98840022652263,204.4233923056386 199.74398033574923,204.6443146993321 199.4767213879468,204.8481726619079 199.18810046158305,205.03214103250946 198.87994883596713,205.1934809946871 198.55445258724095,205.32958085791566 198.21414879912172,205.437998019533 197.86191714145457,205.5165016651453 197.50096661070887,205.56311572678928 197.1348172729375,205.57616158277446 196.76727690119566,205.55429995181223 196.40241245568217,205.49657140743588 196.0445164155467,205.40243491747472 195.69806803593616,205.27180379808516 195.3676896718996,205.10507846315886 195.05809838160903,204.9031753483648 194.77405309429537,204.66755139513953 194.52029770257204,204.40022349405058 194.30150051359473,204.10378230948777 194.12219056788157,203.78139993886586 193.98669140764719,203.43683089965006 193.89905294718378,203.0744059866328 193.86298216511838,202.69901859999428 193.88177340122306,202.31610321164288 193.95823909777332,201.93160571292105 194.09464187615873,201.55194547061075 194.29262888247163,201.1839690097923 194.55316937008752,200.83489534088187 194.87649651179152,200.51225305334546 195.26205444784108,200.22380940928275 195.7084515785969,199.97749178528454 196.21342110019788,199.78130192956164 196.7737897584966,199.6432236220738 197.38545575952242,199.57112444689406 198.04337672364147,199.57265250686837 198.74156850502524,199.65512902922356 199.4731156178689,199.82543792551402 200.23019391603592,200.089913478492 201.00410606364753,200.4542274304118 201.78533021097928,200.92327684017627 202.56358215346575,201.50107415884534 203.32789110245017,202.19064104261045 204.06668903555916,202.99390747768464 204.76791342345857,203.91161783103087 205.4191229496864,204.94324546289067 206.0076256529092,206.08691754024437 206.52061872814502,207.33935167332618 206.94533902727846,208.69580595899646 207.26922310177068,210.15004395418322 207.48007543421355,211.69431601901653 207.56624331281654,213.3193583621814 207.51679661668476,215.0144109901757 207.32171060259185,216.7672556076104 206.97204961868277,218.56427433776653 206.46014952000763,220.3905299319762 205.7797964278542,222.22986791399742 204.92639936234062,224.06504086271192 203.89715418842172,225.87785477484871 202.69119625201523,227.6493371710153 201.30973904789178,229.35992631544593 199.75619625662978,230.98968061522527 198.0362845164234,232.51850695132015 196.15810435870003,233.92640637486042 194.13219683587874,235.19373528135532 191.9715735063833,236.3014798567812 189.6917176170073,237.23154127682565 187.31055453630216,237.9670288383246 184.84838974474468,238.4925579145378 182.32781297748713,238.79454935794337 179.77356744242778,238.8615267303341 177.2123833985737,238.68440752480402 174.67277577505163,238.25678436233446 172.18480593696316,237.57519200160917 169.7798081573165,236.63935589873623 167.49008183068653,235.45241799782332 165.34855095969377,234.0211354276253 163.3883929549654,232.35604782718553 161.64263930755112,230.47160912750715 160.14375121395375,228.38627977930145 158.92317375170526,226.12257564068622 158.01087271110507,223.70707002463303 157.43485867934652,221.1703457545967 157.22070343954252,218.54689448795918 157.39105418169328,215.874961039766 157.96515141788257,213.1963309719673 158.95835684240058,210.55606030338535 160.38169767159263,208.00214683941073 162.24143423073684,205.58514331357404 164.53865771913166,203.3577132703322 167.26892517320084,201.37413139342834 170.42193865464824,199.6897307899236 173.9812756109813,198.3603005684938 177.92417718423462,197.44143789304928 182.22140097645425,196.98785953963048 186.83714441435546,197.05267882561455 191.72904438847564,197.68665460468875 196.84825827315913,198.93741981743207 202.13963076308806,200.84869784391483 207.54195019134107,203.45951560939565 212.98829712601426,206.80342303472867 218.4064870815505,210.90772898722352 223.71960813283107,215.79276436329607 228.84665309198192,221.47118330945943 233.70324470841075,227.94731385164616 238.202451091966,235.21656934375915 242.25568724887447,243.264932154759 245.77369727325421,252.068520880539 248.66761036780855,261.59325208448917 250.85006249132758,271.7946071325245 252.23637406451633,282.61751408947043 252.74577282708935,293.9963538807448 252.30264964651565,305.8550989947428 250.83783385142888,318.1075919077063 248.28987352016765,330.65796915665965 244.6063051170763,343.40123557198797 239.74489595599906,356.2239916164232 233.6748422015506,369.00531507097526 226.3779045134734,381.6177964724257 217.84946301618407,393.92872575558965 208.09947305192262,405.8014255031368 197.15330316789934,417.096724075271 185.05243701002598,427.67455970210875 171.85502126086894,437.3957043964755 157.63624247787004,446.1235943093461 142.48851666765125,453.72625093140596 126.52147667868579,460.07827537093704 109.86174401014117,465.0628958404971 92.65247341841597,468.57404649386206 75.05266075061192,470.5184539023055 57.23620673808276,470.81770577787154 39.390732031791345,469.41027507320774 21.716141539170508,466.25347134475754 4.422939110313251,461.3252902899284 -12.269703203473142,454.62613168921405 -28.136113760400747,446.18035562949495 -42.94651678523144,436.03764688104445 -56.469640090075586,424.27415767169214 -68.47551685992721,410.9933998675888 -78.73845967160628,396.3268587480822 -87.04018131083063,380.43430216519766 -93.1730334232559,363.5037609147359 -96.94333063045366,345.7511586196997 -98.17472451157522,327.41957233615955 -96.71158884780522,308.7781084297787 -92.42237480213896,290.12038202520347 -85.20289231413147,271.76259248155134 -74.97947198005028,254.041191870256 -61.71196011400741,237.3101482951993 -45.39649859381774,221.9378110616894 -26.06804053249607,208.30339012644308 -3.8025528248769263,196.79306789518412 21.281142763019687,187.79576722161408 49.01993703338874,181.69860533965016 79.20545446538908,178.8820693628823 111.5835705119491,179.7149548393816 145.85446427687145,184.54911458025765 181.67324172761238,193.71407050713333 218.65115985446727,207.51154650460177 256.35747674611116,226.20998513440972 294.3219464355691,250.03911548319434 332.0379706105834,279.1846432896384 368.96641191900983,313.7831377455168 404.5400656843649,353.9171919058955 438.1687784406898,399.61093539784633 469.2451928709415,450.8259790097945 497.15108957110664,507.45787070635004 521.2642866544472,569.3331415843121 540.9660486573255,636.2070182108578 555.6489466190567,707.7618746205437 564.7251017000551,783.6064929600395 567.6347353988601,863.2761963365623 563.8549404589253,946.2339108387386 552.9085780542403,1031.8722059616798 534.3731989460392,1119.5163538006545 507.88987914981243,1208.4284374146296 473.1718543813534,1297.8125277524127 430.0128322997497,1386.8209365474522 378.29485746770627,1474.5615397058536 317.99560113356483,1560.1061520363705 249.19494652570305,1642.4999198178393 172.08074045020467,1720.7716828020389 86.95358369689315,1793.9452419571487 -5.769463826196414,1861.0514537324914 -105.55238212263754,1921.1410560469517 -211.7390061809126,1973.2981157613594 -323.5532600953617,2016.653972290469 -440.1009024883592,2050.401537453692 -560.3728628689134,2073.809797872862 -683.2502341090866,2086.238353423342 -807.5109699868527,2087.15181365687 -931.8383188152791,2076.133863966296 -1054.8310046626762,2052.900804776536 -1175.015146703077,2017.3143604395088 -1290.8578849847765,1969.3935499915003 -1400.782657557434,1909.3254096956096 -1503.186049672425,1837.4743575201762 -1596.4561109092315,1754.3899925586818 -1678.9920108494655,1660.8131280180555 -1749.2248786088028,1557.6798649057653 -1805.6396464548945,1446.1235250190916 -1846.7976932141728,1327.4742763384427 -1871.3600595441148,1203.2563014729553 -1878.1109847746784,1075.182380386787 -1865.9814942652101,945.1457821955389 -1834.0727474476794,815.2093872707703 -1781.6788403000157,687.5919900909942 -1708.3087422761803,564.6517650508788 -1613.7070370644974,448.86691156371506 -1497.873129290522,342.8135309984989 -1361.078575743182,249.1408259712918 -1203.8822001759463,170.5437519070244 -1027.1426554816717,109.73329120779881 -832.0281062868521,69.40456137226951 -620.0227189455469,52.203009537630464 -392.9296646752422,60.68898665709085 -152.87036525653815,97.3010343490029 97.72026064940262,164.31825580209403 356.10275895181564,263.82217841873177 619.2464793355036,397.6585495359434 883.8474191186849,567.3995369865304 1146.3506511098503,774.3068328549756 1402.9773630853463,1019.2961809575135 1649.7564809768205,1302.9038657613596 1882.560788951866,1625.2557121060174 2097.147397800557,1986.0391506851433 2289.2023489801454,2384.478903314634 2454.3890759644964,2819.3168341264486 2588.4003779008117,3288.796497620565 2687.013493759866,3790.6528916779894 2746.147798997232,4322.107892959727 2761.924582088329,4879.871813446066 2730.728296065093,5460.151470153098 2649.2686213030483,6058.665105341301 2514.642621241972,6670.664431949603 2324.3962234384257,7290.964008798567 2076.584215311248,7913.978072673459 1769.8279081057876,8533.764870198445 1403.3695948964207,9144.078442042988 977.1229097600227,9738.427716170683 491.71818642106285,10310.142666375947 -51.45808353762706,10852.447188194585 -650.2305796964641,11358.53823746971 -1301.6101308341972,11821.67066855454 -2001.7771663448393,12235.24710058664 -2746.074415231903,12592.912032808978 -3529.00956371167,12888.649324948765 -4344.268506218106,13116.882057670851 -5184.739735361774,13272.573692621141 -6042.550314389781,13351.329363119114 -6909.113761342331,13349.496046725866 -7775.190047994881,13264.260301269847 -8630.957779597382,13093.742188008597 -9466.098474344153,12837.083960949021 -10269.89270558794,12494.532071380348 -11031.327706398544,12067.511022752866 -11739.215866691391,11558.687614409291 -12382.323379520698,10972.024134458608 -12949.508117122063,10312.81910323877 -13429.865640930766,9587.73423013066 -13812.88207526374,8804.80632854506 -14088.592403930328,7973.443037081826 -14247.742585124492,7104.401319280142 -14281.95372502347,6209.747859921048 -14183.886407106702,5302.800642110049 -13947.403144866064,4398.051175678312 -13567.726812858302,3511.067052821509 -13041.592817468209,2658.374730067787 -12367.392696750725,1857.3226750454653 -11545.306790645016,1125.9252702154022 -10577.42360090433,482.6881315450883 -9467.84346628269,-53.58422446384972 -8222.764214673352,-463.9971497077819 -6850.546521562314,-729.7895676220118 -5361.7568046069455,-832.5708222345343 -3769.1856183276027,-754.5686013397062 -2087.839681393179,-478.88558528293424 -334.9058719954753,10.237793192085235 1470.3142358718753,727.1573439201723 3306.500451443572,1684.5589675285921 5150.441514226259,2893.1956648618284 6977.194627316771,4361.631198043119 8760.27713195986,6095.9940448551815 10471.890088752873,8099.745404213928 12083.173118171178,10373.465087635117 13564.489420761969,12914.659166186928 14885.739449499812,15717.593231201377 16016.70124794718,18773.155067056356 16927.395002989677,22068.750423120524 17588.46889539609,25588.235407424196 17971.60287103778,29311.888805258423 18049.9265063596,33216.42735077039 17798.446709960237,37275.06664839899 17194.48059445964,41457.630054048605 16218.088475886954,45730.70738431315 14852.50161836021,50057.864827667254 13084.53904658418,54399.90688695407 10905.007504299652,58715.19059113488 8309.078449719658,62959.99158034243 5296.635855353094,67088.92099683857 1872.588525231885,71055.39141136114 -1952.859337263616,74812.12928617092 -6163.985478296812,78311.73073026506 -10739.380843637497,81507.25654681247 -15651.840444779607,84352.86181661751 -20868.319197305103,86804.45451372521 -26349.957638325406,88820.37691997887 -32052.181889347972,90362.10290476508 -37924.88159991661,91394.94347495069 -43912.66888765112,91888.75238900332 -49955.22048487819,91818.62307946084 -55987.70441517606,91165.56765019857 -61941.29156043188,89917.16832012306 -67743.75144733314,88068.19138346391 -73320.13048979072,85621.15355872845 -78593.50978014854,82586.83051302972 -83485.83833797541,78984.69738451276 -87918.83651276806,74843.29129064982 -91814.96300921403,70200.48611086282 -95098.43777502232,65103.67027359786 -97696.3117769396,59609.81886456336 -99539.57350650006,53785.45210676998 -100564.28092007522,47706.473145016105 -100712.7064451762,41457.87909648164 -99934.48169438643,35133.340502184015 -98187.72763758527,28834.64562626616 -95440.1552100172,22671.00749441895 -91670.12069577821,16758.233130065768 -86867.619740411,11217.7561260246 -81035.20352875709,6175.535466760699 -74188.8005302283,1760.825376575603 -66358.42727719726,-1895.1771054793999 -57588.771915713274,-4660.798152096563 -47939.63476186596,-6405.4561084908755 -37486.21082049611,-7001.320724120199 -26319.200181937445,-6325.048019574428 -14544.733410910205,-4259.574230360781 -2284.100480717104,-695.9504239966963 10326.726516278943,4464.80235318321 23137.784739168383,11309.839149097766 35986.03176971578,19912.66159149546 48696.47995211007,30331.337229875506 61083.55471773628,42606.793208567426 72952.67497907348,56761.21052894409 84102.0507852506,72796.54566775695 94324.69040633354,90693.20652875143 103410.60588274934,110408.90959341943 111149.20287227895,131877.7446838345 117331.83738470652,155009.47293874202 121754.51875127264,179689.08241951113 124220.73497284958,205776.62419496677 124544.37346973353,233107.34979738857 122552.70726146789,261492.1685942685 118089.41378291033,290718.4408849526 111017.59093946964,320551.11941595376 101222.73266711106,350734.248526916 88615.62423825997,380992.82630968344 73135.11588926238,411035.0310100539 54750.7320833308,440554.8084555505 33465.072907673704,469234.8125886118 9315.96377481251,496749.6862642766 -17621.690207400814,522769.6643813746 -47234.38808220669,546964.4762084289 -79368.89665787508,569007.5184968715 -113831.53349994477,588580.2657061411 -150387.90634957876,605376.8784634398 -188763.142820378,619108.9663145215 -228642.64039541056,629510.4559628966 -269673.362285627,636342.5116176617 -311465.6996335703,639398.4498506718 -353595.91487417486,638508.5875782758 -395609.1748282206,633544.9585076161 -437023.17534350464,624425.8306974871 -477332.35206292826,611119.9558514877 -516012.664245712,593650.4796561637 -552526.9305651098,572098.4419639487 -586330.687529423,546605.7959592766 -616878.5327073405,517377.87668931176 -643630.9063765728,484685.2515332151 -666061.2566561273,448864.8883622084 -683663.5247343428,410320.5813333169 -695959.8785793963,369522.5794783281 -702508.6156335965,327006.36950001924 -702912.1475683261,283370.571461536 -696824.9733362633,239273.9143299802 -683961.5406255964,195431.26757586407 -664103.8905211833,152608.71518588116 -637108.9758316781,111617.66945238327 -602915.5402673719,73308.03367901989 -561550.4435635258,38560.4353933421 -513134.31684358616,8277.56467410057 -457886.4331021466,-16625.334340573558 -396128.67974445486,-35230.75693575281 -328288.52372064546,-46629.940549714105 -254900.86499724622,-49934.487103038286 -176608.68095858896,-44288.50155718741 -94162.37285152575,-28881.129978299607 -8417.735584165364,-2959.3675846423635 79667.51595130256,34159.004787271275 169038.71737643253,83072.50845214039 258550.76043778675,144283.24146844668 346976.15548750065,218184.51121782436 433014.6546741537,305049.00315666094 515304.4205219782,405017.66920094984 592434.7043206266,518089.52255246503 662959.97757766,644112.5270219716 725415.437903823,782775.7678973464 778333.7883314805,933603.0880026004 820263.1664549948,1095948.3666798917 849786.0771934222,1268992.6109060603 865539.1606931775,1451743.016559372 866233.6052089767,1643034.1439411442 850675.9940356093,1841531.335022121 817789.3560302254,2045736.480549121 766634.1712905916,2253996.2231735424 696429.0674671507,2464512.658246432 606570.9283120438,2675356.566999396 496654.1247275113,2884483.187670599 366488.57008002,3089750.498953614 216116.29619117957,3288939.957196154 45826.24447911809,3479779.5943474523 -143833.03154255758,3659969.3480767775 -352043.0505725538,3827208.459126422 -577707.763086222,3979224.734220954 -819448.8606527958,4113805.4361618934 -1075604.2911998027,4228829.526552909 -1344230.2137033383,4322300.951409354 -1623106.59864266,4392382.626212018 -1909746.6490322489,4437430.745287804 -2201410.1810336276,4456029.011268362 -2495121.0632109004,4447022.354325002 -2787688.76964883,4409549.688434819 -3075734.054683817,4343075.23361927 -3355718.7062543957,4247417.919417411 -3623979.281270974,4122778.3762924764 -3876764.6704090876,3969763.0186707154 -4110277.281883497,3789404.7262862744 -4320717.574657806,3583179.6398184965 -4504331.611836432,3353019.6027662745 -4657461.245375547,3101319.8043554383 -4776596.484485298,2830941.2081968626 -4858429.5429640915,2545207.388505835 -4899910.006027944,2247895.439976827 -4898300.505818291,1943220.678812627 -4851232.247549644,1635814.9107701008 -4756759.686060848,1330698.1071470224 -4613413.616221667,1033243.4010347431 -4420251.911065437,749135.393435887 -4176907.1194882207,484321.84142755554 -3883630.121654409,244958.88776589153 -3541329.0356070143,37350.0824043422 -3151602.573661677,-132120.4595411127 -2716767.062555344,-257060.32276897802 -2239876.367522783,-331145.94206831366 -1724733.9978839564,-348204.0034058151 -1175896.7206289396,-302296.36589596275 -598669.0690455458,-187807.68197273737 911.7943247577815,465.1956521534353 616101.3173105846,267223.01500004454 1239483.2621175714,616574.2051100155 1863016.129546244,1051946.375253864 2478090.4429912106,1576000.431491663 3075596.9060112527,2190548.5567612303 3646005.3128821333,2896477.3361776867 4179453.9496652293,3693677.3311367347 4665849.07520832,4580980.412986533 5094973.918564238,5556106.158380848 5456606.473149115,6615618.582998795 5740645.210290913,7754894.447306951 5937241.677500534,8968104.30680492 6036938.791813913,10248207.399277687 6030813.487987003,11586961.362719003 5910622.237347318,12974947.659752417 5668947.81794583,14401613.447755815 5299345.592585327,15855330.478927739 4796487.440611057,17323471.4419283 4156301.3943106867,18792503.967441816 3376104.953611869,20248102.315282114 2454729.995646802,21675276.54201119 1392637.1607249375,23058518.717250463 192017.58523368536,24381965.515993115 -1143120.1332830747,25629576.26559313 -2606879.811595455,26785325.272292633 -4191426.398912831,27833406.995953824 -5886955.439513475,28758452.386123735 -7681685.051099581,29545754.440895136 -9561872.028688837,30181500.80562958 -11511853.49160808,30653010.995001744 -13514115.26840154,30948975.602645155 -15549387.961931111,31059694.661609497 -17596771.35577799,30977312.139604356 -19633887.514833633,30696043.3992898 -21637062.599715248,30212392.329304125 -23581537.058825716,29525354.7597928 -25441703.48641956,28636604.720258553 -27191371.04328265,27550660.080682427 -28804054.932374924,26275024.141911946 -30253289.00920731,24820299.81076172 -31512959.19040664,23200273.111233685 -32557654.908789158,21431962.94742293 -33363035.454565104,19535634.247198094 -33906207.64554165,17534771.879301347 -34166110.890121676,15456013.050163187 -34123905.35140439,13329036.249927606 -33763358.594794,11186405.228738671 -33071225.811234865,9063366.942361368 -32037618.45952804,6997602.908119932 -30656355.970015507,5028933.954626791 -28925295.00393491,3198978.927816292 -26846630.67334547,1550768.526633148 -24427164.10075245,128316.07888910582 -21678530.73997993,-1023852.2748733135 -18617383.994513847,-1861204.85100743 -15265528.859863648,-2339745.3308263524 -11650000.585173264,-2416582.817635008 -7803083.698255293,-2050525.889511398 -3762267.16846449,-1202694.8505071374 429868.006546115,162854.23220849314 4725831.912037072,2078500.694324199 9073481.976608887,4572433.160820009 13416354.087070743,7668034.140351345 17694069.445771996,11383283.717368599 21842817.17543296,15730191.056645721 25795911.734300073,20714262.673131052 29484423.21080761,26334016.56288636 32837877.53073279,32580551.330155477 35785022.541143134,39437179.37388936 38254654.845370136,46879133.00780839 40176501.16392601,54873352.07578391 41482146.90077194,63378361.18461963 42106003.51652226,72344244.10613777 41986305.26463576,81712722.19819717 41066124.84855307,91417342.85975723 39294396.62270006,101383783.0699006 36626935.10413353,111530271.96807973 33027435.80029915,121768135.21782517 28468444.707717527,132002462.56565024 22932282.311930202,142132898.56976125 16411907.535680074,152054554.94011998 8911706.854308702,161659041.31510797 448193.73795619846,170835609.61500192 -8949396.29861657,179472405.37507623 -19238629.445311677,187457817.68947425 -30363530.03922029,194681917.61083794 -42254382.87477279,201037973.07123187 -54827693.62404578,206424026.63979843 -67986318.46323359,210744520.73553392 -81619772.63991123,213911953.2942608 -95604726.14212187,215848545.37264115 -109805692.8497813,216487900.78469527 -124075917.5697611,215776636.63365212 -138258463.18958518,213675962.5497644 -152187497.84535363,210163185.59812906 -165689779.5048472,205233117.20392278 -178586332.73734686,198899358.07877555 -190694309.7012603,191195437.04282412 -201829024.5558082,182175779.841748 -211806147.62328905,171916484.57395625 -220444042.72594422,160515881.1844715 -227566228.23081955,148094853.66032597 -233003939.49393484,134796905.08527195 -236598767.6402294,120787947.58354664 -238205346.9882032,106255801.40334372 -237694060.969161,91409389.9563053 -234953734.1423439,76477620.53091371 -229894275.91112936,61707943.62157193 -222449239.84353417,47364587.342842706 -212578261.13345808,33726467.20629138 -200269333.74682125,21084775.597006235 -185540888.21645945,9740259.564528894 -168443630.91611812,200.0000002062842" stroke="white" stroke-width="1.5" /></svg>