<?xml version="1.0" encoding="utf-8" ?>
<svg baseProfile="full" height="400" version="1.1" width="400" xmlns="http://www.w3.org/2000/svg" xmlns:ev="http://www.w3.org/2001/xml-events" xmlns:xlink="http://www.w3.org/1999/xlink"><defs /><rect fill="black" height="100%" width="100%" x="0" y="0" /><circle cx="200" cy="200" fill="yellow" r="10.000270183347503" stroke="orange" stroke-width="2" /><polyline fill="none" points="199.7205953238306,200.0 199.64377569662145,199.9812998513343 199.56460398009625,199.95416107420562 199.4838535806082,199.91811168466853 199.4023675649797,199.87275088595027 199.32105277944692,199.81775855704046 199.24087277934754,199.75290436441415 199.16283957779328,199.6780563580064 199.08800423681117,199.5931889096616 199.01744634040864,199.49838985095457 198.95226240556656,199.3938666676466 198.89355330412576,199.27995161020453 198.84241078572217,199.15710558387048 198.79990320914396,199.02592068779714 198.76706060652154,198.88712128082042 198.74485922138993,198.7415634615574 198.73420567765274,198.5902328627095 198.73592095158187,198.43424067370577 198.75072433296455,198.27481782209455 198.7792175741057,198.11330726232595 198.821869436362,197.95115434065647 198.87900085297917,197.78989522673302 198.95077093398578,197.63114342581693 199.0371640435383,197.47657441040647 199.13797818219751,197.3279084359903 199.25281490594963,197.18689163257494 199.3810710101905,197.05527549119847 199.5219322002149,196.9347948925783 199.674368959875,196.82714485301256 199.83713481689762,196.7339561903236 200.00876718682485,196.65677033963001 200.18759095764676,196.59701357467867 200.37172495394893,196.55597091497233 200.55909139286925,196.53476002158368 200.7474284144559,196.5343054049521 200.93430573629695,196.5553132857089 201.1171434467615,196.59824746427046 201.2932339131013,196.66330656619212 201.45976674031513,196.75040303771428 201.61385667442818,196.85914426921144 201.7525743000791,196.9888162230545 201.87297933748653,197.1383699364295 201.97215629846775,197.3064112586799 202.04725221573187,197.49119416655347 202.0955161147304,197.69061797919326 202.11433985351434,197.90222876772035 202.10129991393373,198.12322522179062 202.05419968776755,198.3504691976006 201.97111176463895,198.58050112857845 201.8504196955105,198.8095604316049 201.69085867682813,199.03361098832437 201.4915545766335,199.2483717232598 201.25206070582558,199.44935223845403 200.97239172582064,199.63189339871812 200.65305407870423,199.7912126928415 200.2950723281025,199.9224541249662 199.90001080888936,200.0207423174613 199.46999000188248,200.08124043285264 199.0076970761909,200.09921144852046 198.51639007709355,200.07008224488786 197.99989528139895,199.9895098966529 197.4625972952064,199.85344948827228 196.90942153079268,199.6582227104249 196.34580876981258,199.4005864346303 195.77768159882487,199.07780040964045 195.21140258992256,198.68769317673184 194.65372419340437,198.2287252626493 194.111730410301,197.70004867971446 193.59277041935874,197.1015617434864 193.10438444485098,196.4339582102651 192.65422226727927,195.69876974049706 192.24995489746266,194.89840071052785 191.89918005440867,194.036154424788 191.60932220731516,193.1162498239129 191.387528060584,192.14382784187333 191.24055847626425,191.12494663715398 191.17467793924357,190.0665650094402 191.1955427750874,188.97651341404352 191.3080894269556,187.86345210112748 191.51642418477059,186.7368160351969 191.8237158350315,185.60674639159797 192.23209276165989,184.48400858004877 192.74254607536645,183.37989690937673 193.3548403796608,182.30612618136644 194.0674337943053,181.27471068339838 194.87740885037732,180.29783123766498 195.78041584394137,179.38769115726805 196.77063018660746,178.55636215432972 197.84072522012514,177.8156214401223 198.9818618680201,177.17678144971586 200.18369637974916,176.65051381120358 201.43440728182983,176.24666935952874 202.72074248606745,175.97409616455923 204.02808731784546,175.84045769952684 205.34055401825754,175.85205341644826 206.64109304377288,176.01364411684986 207.91162623760107,176.3282846062596 209.13320167976087,176.79716619681324 210.2861697402022,177.41947167138366 211.35037956366074,178.19224534246865 212.3053949090445,179.11028082746788 213.13072795318706,180.1660291169717 213.80608935216608,181.3495294326063 214.3116525367775,182.64836525447157 214.62832990610949,184.04764774428207 214.73805827863762,185.5300285983846 214.62409066818893,187.0757441347226 214.27129117697118,188.66269214985076 213.66642954418663,190.2665427770711 212.79847166114263,191.8608842359807 211.65886216681338,193.41740398902527 210.24179507599703,194.9061054144468 208.54446826992256,196.29555967022486 206.56731760055325,197.5531919637458 204.31422632881882,198.64560096102525 201.79270563715212,199.5389095719358 199.01404203119142,200.1991448391325 195.9934075770428,200.59264414379615 192.74992911126856,200.6864844269326 189.3067128123659,200.44893061719569 185.6908208358756,199.84989896179277 181.93319709064227,198.86143048303663 178.06853967063452,197.4581693367853 174.13511795378923,195.61784043777038 170.17453293443396,193.32172034811745 166.23141996593517,190.5550951066457 162.35309375141486,187.3076984151124 158.58913612787265,183.57412340052497 154.99092793714155,179.3542010467474 151.6111270592072,174.65333834020677 148.5030954920797,169.48280920934928 145.72027918934444,163.85999146074988 143.31554520266735,157.80854313082892 141.34048151210976,151.35851198450342 139.84466575167895,144.54637230335925 138.87490984011848,137.41498361759 138.47448829605304,130.0134666483528 138.68235874045448,122.39699243948054 139.5323837559393,114.626481467491 141.0525638695186,106.76821042300458 143.2642919410199,98.8933253500914 146.1816396616103,91.07726090633147 149.81068718416904,83.39906665764107 154.14890710870807,75.94064253890475 159.18461412135406,68.78588688340727 164.8964915252059,62.01976173885237 171.25320569733293,55.72728153187748 178.21311915118724,49.99243250169653 185.72411237207885,44.897031680866746 193.7235239209736,40.51953554023444 202.13821746632007,36.933809717958326 210.88478340435924,34.207872500518164 219.86988156689097,32.402625897586375 228.99073019533427,31.570589233006018 238.13574488693968,31.754651141171166 247.1853296012662,32.98685669222229 256.0128200629471,35.287247051375886 264.4855780231585,38.662769588707704 272.46623286221325,43.10627667802552 279.8140649468586,48.595631540422346 286.3865230179356,55.09293938450176 292.04086569902825,62.54392175763283 296.63591500862896,70.87745143942658 300.03390755308544,80.00526437075719 302.1024269028048,89.82186401243953 302.71639853896625,100.20463216327548 301.76012673264006,111.01415863681942 299.12935081393454,122.09480030236288 294.7332965374071,133.27547784417112 288.4966966834916,144.37071619349456 280.3617536859965,155.18193195349397 270.29001597412014,165.4989682850465 258.2641388942279,175.1018746723151 244.28950056073856,183.76292576570725 228.3956428038604,191.24887013496615 210.63750755926029,197.3233962888644 191.0964396028685,201.7497997660884 169.8809274914812,204.2938315135356 147.12705594145956,204.72670418558593 122.99864467428904,202.8282294659087 97.68705098522486,198.3900560793475 71.41061595076366,191.21897487468144 44.41373727819905,181.14025427032539 16.965555306233654,168.0009665160022 -10.641757426053346,151.67326268612806 -38.09510833530109,132.0575521368704 -65.06299932604452,109.08554037941111 -91.19843938859998,82.72307799608382 -116.14224571223923,52.97277240062985 -139.52671829105435,19.876313962608947 -160.97966734815498,-16.483531681036368 -180.12876713078043,-55.9813123818185 -196.6062037981817,-98.44770498545756 -210.05357930454585,-143.6688010246416 -220.12702744376855,-191.38590309974347 -226.50249264866977,-241.29586881198912 -228.8811168043419,-293.05203477506785 -226.99467432625624,-346.265748197598 -220.61099115255377,-400.50852781629453 -209.53927919114022,-455.314869593709 -193.6353142298974,-510.18570561045897 -172.80638244508162,-564.592517025452 -147.01591850867788,-617.9820939044016 -116.2877569761568,-669.781926192707 -80.70991820274207,-719.4062012094955 -40.43785055371049,-766.2623738507054 4.302947800449289,-809.7582663056455 53.21500163133331,-849.3096446170644 105.9276963927273,-884.3482099612684 161.99694660417288,-914.329933211169 220.90575459070453,-938.7436522966543 282.0657122129434,-957.1198432236445 344.8194900142788,-969.0394674896909 408.44434890197215,-974.1427911766882 472.15669910867524,-972.1380643474679 535.1177198080095,-962.8099436593277 596.4400404569502,-946.027536468104 655.195471799442,-921.7519412606932 710.4237605976211,-890.043157145541 761.1423276825664,-851.0662344645355 806.3569339752936,-805.0965394709225 845.0732038752884,-752.5240085389902 876.3089200170934,-693.8562716108069 899.1069880372521,-629.7205306055915 912.5489548679371,-560.864086362777 915.7689493835559,-488.1534173851128 907.9679001844578,-412.5717251965235 888.4278721257026,-335.2148745114222 856.5263511105394,-257.2856715839819 811.7502958910518,-180.08644099884862 753.7097663742792,-105.00987968381673 682.1509304385786,-33.528186948827425 596.9682457326774,32.819509264101754 498.21560955881904,92.44138717386788 386.11626891836903,143.708760708748 261.0712842932335,184.97341322903645 123.6663448994407,214.58632004798284 -25.32325989282839,230.91761935475273 -184.92969842495938,232.37766619301348 -353.991856533116,217.438979584001 -531.1569560542289,184.658869034924 -714.8846700227299,132.7025038869865 -903.4538507111497,60.36616758669305 -1094.9719619466607,-33.399580629882365 -1287.3872796217163,-149.4671316048025 -1478.503894165177,-288.50974959773964 -1665.9995161492072,-450.98051511864173 -1847.446051418855,-637.0926181818273 -2020.3328754311206,-846.8013382969405 -2182.092698207156,-1079.7880490770883 -2330.1298718051667,-1335.4465828116404 -2461.850951922538,-1612.8722834774867 -2574.6972845818964,-1910.854065243423 -2666.1793483280244,-2227.8697773942254 -2733.9125424749845,-2562.085155650826 -2775.654073233087,-2911.356614026912 -2789.3405525748026,-3273.2381006353635 -2773.1258900436837,-3644.992205294875 -2725.4190259566217,-4023.6056665059587 -2644.921026187072,-4405.809380551819 -2530.661034530689,-4788.102966387421 -2382.030559118573,-5166.7838869330935 -2198.815555012049,-5537.981070782734 -1981.2257565132727,-5897.6929186371035 -1729.9207103487588,-6241.829516514702 -1446.0319651744558,-6566.258813580273 -1131.1808842051605,-6866.856456931511 -787.4915665183481,-7139.558909626799 -417.598388986397,-7380.41941240587 -24.647715034763365,-7585.666284784082 387.70664139324157,-7751.762998367415 815.3145581550742,-7875.469395250838 1253.547657016859,-7953.903368163362 1697.3245034125982,-7984.602267562726 2141.1431187169455,-7965.583255118814 2579.1208899534413,-7895.401783907409 3005.041875508664,-7773.2073540978045 3412.4114133057765,-7598.79566985898 3794.517840766594,-7372.656309483058 4144.501034634857,-7096.015017129714 4455.427374325435,-6770.869731852245 4720.370625993727,-6400.019488312788 4932.498137173156,-5987.085354367838 5085.161624881986,-5536.522613926384 5171.991734911954,-5053.623459449786 5186.995448006574,-4544.509527331757 5124.655311297972,-4016.11369117524 4980.029382221816,-3476.1506225188846 4748.850688718861,-2933.075735537722 4427.624935414036,-2396.03225115137 4013.725122184889,-1874.7862461411928 3505.481690603897,-1379.649693437921 2902.266776623506,-921.3916496423926 2204.5711259568516,-511.13790384454376 1414.0722231802065,-160.2595664865603 533.692197818234,119.74875322572079 -432.35589839965496,317.4003597954055 -1478.5347984372077,421.35647778573053 -2597.9639956009664,420.57368231055955 -3782.416181094402,304.4574131032614 -5022.3302242169875,63.02006601360662 -6306.841642565605,-312.9580021647347 -7623.831355490573,-831.7663674612809 -8959.993339769695,-1500.6032782077534 -10300.921612798877,-2325.4173073747093 -11631.216756673904,-3310.7540872674763 -12934.611967766192,-4459.6103783097815 -14194.11837249473,-5773.297783370036 -15392.18909298613,-7251.318454062206 -16510.90127851635,-8891.255143586623 -17532.155042647497,-10688.67794006917 -18437.88796469991,-12637.069963340064 -19210.303530774407,-14727.774225264255 -19832.111607346433,-16949.9637379947 -20286.778763086404,-19290.636805103546 -20558.7859857897,-21734.639247056755 -20633.891085047748,-24264.715094936528 -20499.39283158481,-26861.587035109344 -20144.39366511062,-29504.067603553798 -19560.057608207684,-32169.2018131424 -18739.859858257743,-34832.44155213451 -17679.824396701515,-37467.85171978833 -16378.745858870509,-40048.34766814586 -14838.39185187846,-42545.96310098129 -13063.681896004373,-44932.147145408104 -11062.839199717408,-47178.088862965946 -8847.511562687616,-49255.0670098571 -6432.857837058942,-51134.82239548673 -3837.5965667094815,-52789.94973009049 -1084.0136684152778,-54194.305401855476 1802.073681605033,-55323.42718768611 4791.399437370613,-56154.961486016284 7851.379421093647,-56669.09327137033 10946.292018682068,-56848.97361536274 14037.509928281806,-56681.1393041924 17083.783495516556,-56155.91881503163 20041.575562984297,-55267.81869952517 22865.447115773084,-54015.884268134534 25508.49232464132,-52404.02838021505 27922.82088023304,-50441.32212700105 30060.084782189526,-48142.24125307532 31872.04600392853,-45526.8623007904 33311.1807055297,-42621.00268515773 34331.31492254072,-39456.29921677754 34888.28592712081,-36070.21998942903 34940.62274975074,-32506.00503797078 34450.23867512065,-28812.531751152626 33383.12789540528,-25044.101691642285 31710.057928753817,-21260.146229656562 29407.24890129573,-17524.849233461508 26457.03035805035,-13906.68597480636 22848.46592234222,-10477.87839392205 18577.935874798164,-7313.7679195756045 13649.667581347765,-4492.108146066797 8076.203673783696,-2092.280820935799 1878.7979844394129,-194.43978323868606 -4912.270534523288,1121.4112999254232 -12257.47531090509,1776.4003349435873 -20107.91996775356,1693.8190679917643 -28405.324698618617,800.1967551102787 -37082.128649105995,-973.5953745395316 -46061.71480681866,-3691.220567444842 -55258.76281341484,-7409.74663408556 -64579.733883913694,-12178.523336909944 -73923.49065544094,-18038.081563057654 -83182.05329827886,-25019.0694670972 -92241.49161643347,-33141.24132721132 -100982.95115514711,-42412.5152579964 -109283.80953314956,-52828.116148754445 -117018.9573443368,-64369.8202333878 -124062.1960453766,-77005.31753367464 -130287.74328274904,-90687.70804034806 -135571.8341370402,-105355.14689645308 -139794.40479764913,-120930.65301747776 -142840.84325260404,-137322.0945176533 -144603.78971234531,-154422.3630091074 -144984.9677105296,-172109.74730053224 -143897.0251672407,-190248.5152479457 -141265.3631890154,-208689.71050838387 -137029.92904442886,-227272.16872762825 -131146.9486219647,-245823.75526836223 -123590.57277628612,-264162.8239718475 -114354.41132648192,-282099.8936643071 -103452.92811070802,-299439.53619190276 -90922.67044929274,-315982.46672224056 -76823.30664404221,-331527.8239156553 -61238.44576371645,-345875.62437920243 -44276.21494989452,-358829.3726062281 -26069.570835735107,-370198.80441326037 -6776.323410612356,-379802.73875473364 13421.147209795376,-387472.0097676498 34316.498136245566,-393052.44801729417 55680.36931753593,-396407.8772272917 77261.6782851784,-397423.09032892546 98789.27128975315,-396006.76650230173 119973.93413948675,-392094.28905169095 140510.76179789958,-385650.4225041637 160081.88127048465,-376671.8062878623 178359.51754834192,-365189.221774912 195009.38742297198,-351269.5894020429 209694.40088982592,-335017.65304386435 222078.6446725653,-316577.3098394205 231831.61718381403,-296132.54528710275 238632.67905436427,-273907.93564561795 242175.67827797995,-250168.6825225987 242173.7041029909,-225220.14800372516 238363.91912726022,-199406.86277294016 230512.41469419614,-173110.98438923893 218419.03071955455,-146750.18820046808 201922.0775774613,-120774.97926354643 180902.89471416094,-95665.42006876555 155290.17831252207,-71927.27578944848 125064.00866967363,-50087.5861443337 90259.50704081715,-30689.680706589985 50970.05160587599,-14287.662549467152 7349.982987869318,-1440.393404782147 -40383.26855869457,7294.97806094633 -91947.69952413953,11369.894772183256 -146995.9546836166,10251.61807079846 -205115.3107541873,3430.7360852037796 -265828.4734572443,-9571.121095464634 -328595.2325919188,-29193.441764320305 -392815.01204010006,-55828.957847656806 -457830.3429646843,-89815.83088481905 -522931.2788721779,-131430.00022702088 -587360.7607457588,-180877.79973148194 -650320.9291869021,-238288.9530123104 -710980.3685191474,-303710.0599791582 -768482.255207632,-377098.6888408854 -821953.369848191,-458318.1878745039 -870513.9185094334,-547133.3299690402 -913288.0955133568,-643206.9001715648 -949415.3059696091,-746097.3321227045 -978061.9527020181,-855257.4933214448 -998433.6787999349,-970034.7115701712 -1009787.9440762125,-1089672.1257052512 -1011446.8014097039,-1213311.4328199762 -1002809.7274895726,-1339997.0916603268 -983366.3520605161,-1468682.027766678 -952708.9205914586,-1598234.8703156596 -910544.3175529032,-1727448.733579163 -856705.4713825228,-1855051.537578939 -791161.9579298673,-1979717.8430161444 -714029.6168744416,-2100082.155060618 -625578.9954688592,-2214753.6292829453 -526242.4361162002,-2322332.091114172 -416619.62887547666,-2421425.257956113 -297481.45710671967,-2510667.0306921806 -169771.97419866937,-2588736.69913514 -34608.36172149227,-2654378.8841814967 106721.2655612423,-2706424.0184231186 252762.32461037178,-2743809.147006402 401900.5953274066,-2765598.8119473667 552371.4914508342,-2771005.7662310917 702271.8190746274,-2759411.249169393 849574.0429907723,-2730384.541982695 992143.0512085746,-2683701.512722862 1127755.376274641,-2619361.8527645674 1254120.7986783131,-2537604.7034468553 1368906.2229845603,-2438922.3713070834 1469761.6817336853,-2324071.833952826 1554348.2859631788,-2194083.7461692994 1620367.9048528762,-2050268.6675310866 1665594.3209112855,-1894220.2487083916 1687905.5717752303,-1727815.1339157186 1685317.1555761774,-1553209.3615837947 1656015.7444414448,-1372831.0743301895 1598393.0205655585,-1189369.3825915644 1511079.22193242,-1005759.2637347283 1392975.9607189354,-825162.4198975855 1243287.8571856432,-650944.0629756879 1061552.5159677071,-486645.64375368494 847668.3606082712,-335953.5938080374 601919.8363859707,-202664.20303944853 324999.4914053962,-90644.81203056962 18026.451926658116,-3791.5563067413254 -317439.17965906445,54016.04161174467 -679386.4566710101,78963.27740742893 -1065348.6762212075,67350.8538435316 -1472403.8168725325,15647.38235822106 -1897180.6790107575,-79456.72896810116 -2335871.0337859606,-220994.57995851012 -2784248.0322250864,-411667.90314571705 -3237691.065100172,-653792.6809122527 -3691217.196662206,-949245.9659738153 -4139519.2218258795,-1299414.648914646 -4577010.317324654,-1705146.9421232191 -4997875.173361405,-2166707.367263877 -5396127.404072407,-2683736.0426082867 -5765672.9435162535,-3255213.0664494038 -6100379.039806761,-3879428.7828091797 -6394148.364434388,-4553960.695190654 -6640997.657853024,-5275657.762769653 -6835140.23721643,-6040632.770831734 -6971071.598967515,-6844263.413214131 -7043657.259106921,-7681202.658914541 -7048221.888735394,-8545398.897921642 -6980638.723248675,-9430126.272895208 -6837418.151751418,-10328025.503916975 -6615794.33023874,-11231155.403650507 -6313808.609241769,-12131055.160552138 -5930388.525287537,-13018817.339100348 -5465421.076965657,-13885171.4093554 -4919818.991839943,-14720577.47468848 -4295578.691007734,-15515329.717563707 -3595828.674802326,-16259668.930298423 -2824867.0868238085,-16943903.34240222 -1988187.2648927243,-17558536.80018038 -1092490.1571950756,-18094403.19967984 -145682.57018328804,-18542805.922768284 843139.6781354151,-18895660.880271558 1863724.5001286496,-19145641.62783496 2904712.832145481,-19286324.89174058 3953704.9742903574,-19312334.72557092 4997344.291885805,-19219483.416609682 6021418.399263712,-19004907.1754464 7010977.737088902,-18667194.575573113 7950471.23205992,-18206505.66391858 8823898.494449288,-17624679.64021677 9614977.766705815,-16925329.004673023 10307328.587663949,-16113918.101197455 10884667.88445276,-15197824.038934963 11331017.950856462,-14186378.059094619 11630924.519744324,-13090885.528054768 11769682.891527995,-11924622.881957754 11733569.84384586,-10702810.022750271 11510078.823355468,-9442556.870736893 11088155.712260993,-8162783.013676604 10458432.273680903,-6884109.656349926 9613454.214835787,-5628723.3659989005 8547900.668931372,-4420211.426329238 7258791.789053687,-3283368.953635538 5745681.073765062,-2243978.290409628 4010829.007582765,-1328561.5714201066 2059354.603072243,-564107.7511776247 -100638.52246269569,22224.214015144225 -2457964.8114782665,403423.9259243598 -4998291.309570516,552967.3310258628 -7704107.039055636,445170.81088004843 -10554729.918500416,55558.25431389579 -13526353.658822509,-638762.5947965417 -16592136.732117848,-1658718.5842703336 -19722335.126434635,-3022888.802690267 -22884480.169817295,-4747126.144055785 -26043602.232290883,-6844187.76857685 -29162500.59795893,-9323379.663416082 -32202059.244660776,-12190220.680663334 -35121607.680026166,-15446131.548039274 -37879325.365324214,-19088154.40560052 -40432687.61798319,-23108708.414293014 -42738950.22647357,-27495386.905293528 -44755669.34447741,-32230801.38901186 -46441252.5625307,-37292477.5163316 -47755536.39285094,-42652807.77990027 -48660384.75548147,-48279065.35853936 -49120302.43025696,-54133483.04257752 -49103056.848794036,-60173400.632513516 -48580301.05329892,-66351483.57929926 -47528190.15415459,-72616014.9341993 -45927983.18566852,-78911261.9032263 -43766621.89859729,-85177917.46034785 -41037277.748391315,-91353616.5708931 -37739858.14845365,-97373525.61896941 -33881462.966456994,-103171002.62845129 -29476782.25664324,-108678324.82560486 -24548426.3489603,-113827479.0231127 -19127179.662860006,-118551009.2216904 -13252169.984474508,-122782914.73904641 -6970945.444408588,-126459591.10001002 -339452.0618673102,-129520804.8702849 6578094.519827315,-131910692.6042313 13709448.591773411,-133578773.11953586 20974689.7001971,-134480961.42419955 28286697.05639644,-134580571.81964073 35551745.104111455,-133849297.00364853 42670220.94359857,-132268149.41390207 49537462.84236011,-129828350.60191812 56044717.504347704,-126532154.123034 62080212.13589907,-122393587.28400855 67530335.65299158,-117439097.11853673 72280921.63762453,-111708086.17363702 76218623.89001215,-105253324.09618412 79232373.65802991,-98141221.61668608 81214905.8777432,-90451954.34276924 82064340.05169842,-82279424.80136521 81685799.7490391,-73731052.40783618 79993053.15802635,-64927382.49085568 76910155.68266757,-56001507.160111636 72373074.27627195,-47098292.662878886 66331272.07159971,-38373409.92575022 58749230.92481322,-29992167.206414383 49607888.76344688,-22128146.171766475 38905968.14024186,-14961645.25375961 26661172.16735412,-8677936.79157399 12911224.059071695,-3465347.222792463 -2285273.1356805847,486827.5902343342 -18848179.361874424,2990556.950439289 -36675384.702888325,3861442.016022461 -55642621.26298299,2921193.935357393 -75603538.53318372,200.00000009258787" stroke="white" stroke-width="1.5" /></svg>