<?xml version="1.0" encoding="utf-8" ?>
<svg baseProfile="full" height="400" version="1.1" width="400" xmlns="http://www.w3.org/2000/svg" xmlns:ev="http://www.w3.org/2001/xml-events" xmlns:xlink="http://www.w3.org/1999/xlink"><defs /><rect fill="black" height="100%" width="100%" x="0" y="0" /><circle cx="200" cy="200" fill="yellow" r="20" stroke="orange" stroke-width="2" /><polyline fill="none" points="198.53977897067793,200.0 198.48296826574767,199.92036276387654 198.43266150462222,199.8349890451452 198.38963800149102,199.74451080899266 198.3546293648986,199.6496643365868 198.32830689493863,199.55128800232262 198.31126887653198,199.45031863048158 198.3040279195735,199.34778638142885 198.30699850623523,199.24480813242505 198.32048491386223,199.14257933451492 198.34466968849327,199.04236434466998 198.3796028489005,198.94548525127416 198.4251920039891,198.85330923099363 198.4811935672699,198.76723449588783 198.54720525075984,198.688674911097 198.62266001694934,198.61904338535768 198.70682166128606,198.55973415871063 198.79878218887663,198.51210413381125 198.89746113773535,198.47745341895535 199.00160698688072,198.45700527199452 199.10980077089027,198.45188565443854 199.22046200320403,198.46310262390438 199.33185698857864,198.49152581036245 199.44210958073995,198.5378662370241 199.54921441459786,198.60265675989396 199.65105261355032,198.6862334106647 199.74540994162908,198.78871793545682 199.82999733777774,198.91000182661705 199.90247373569795,199.04973214611712 199.96047103777707,199.20729943679888 200.0016210759843,199.38182801157478 200.023584356688,199.57216890053792 200.02408035053148,199.77689572161617 200.00091905326047,199.99430372182238 199.95203350920082,200.2224122132515 199.87551295643354,200.4589706007525 199.76963622211875,200.7014681667063 199.6329049683933,200.94714774267572 199.46407636433696,201.19302335802757 199.2621947381791,201.43590191218016 199.0266217467135,201.6724088701949 198.7570645862921,201.89901793135425 198.45360176224227,202.11208456756583 198.11670593153303,202.30788327337387 197.74726333739548,202.48264831258547 197.3465893647271,202.63261768861256 196.9164397617759,202.75408000724397 196.4590170970315,202.84342384238406 195.97697205061596,202.89718915806583 195.4733991768478,202.91212028454092 194.95182681905678,202.88521989327376 194.41620090907003,202.81380336605045 193.87086244190095,202.69555290799508 193.32051848077748,202.52857071391787 192.77020661838048,202.3114304629348 192.2252528965555,202.043226388527 191.69122326823833,201.7236191509392 191.17386877122777,201.35287772680977 190.67906467297195,200.93191652787868 190.2127439378369,200.4623269671754 189.78082546243797,199.9464027078061 189.389137619484,199.38715785681183 189.04333774508098,198.78833740492718 188.74882829736927,198.15441926269563 188.51067050445914,197.49060730442665 188.3334964055796,196.80281490391715 188.22142026981194,196.0976385295696 188.17795045037815,195.38232106123323 188.205902797818,194.66470459633146 188.30731681115208,193.95317262801473 188.48337575095695,193.25658160242722 188.73433197087928,192.58418199476353 189.05943874326744,191.94552918352298 189.45688985915893,191.35038454798092 189.92376827179947,190.80860736397486 190.4560050252722,190.33003822607643 191.0483496649222,189.92437487838302 191.6943532634714,189.60104148967287 192.38636511561165,189.36905255957538 193.11554405422694,189.23687278865896 193.87188522322253,189.21227438480378 194.64426300545864,189.3021934087132 195.42049064997587,189.51258688070592 196.18739697127535,189.8482924767802 196.930920305873,190.31289273214173 197.6362197089335,190.90858574276348 198.28780315802805,191.63606440800518 198.8696723037406,192.49440628787744 199.36548307002707,193.48097615534286 199.7587211632136,194.59134330542597 200.03289129986476,195.81921563738948 200.17171871323714,197.15639245258518 200.15936124865365,198.59273780783926 199.9806301130638,200.11617613171327 199.62121710663737,201.71271164834477 199.06792593793293,203.36647296082648 198.30890501255402,205.05978392360709 197.33387889186545,206.77326168196842 196.13437544692255,208.485942477442 194.70394558686718,210.1754355126858 193.03837232418928,211.81810483989622 191.13586585484097,213.38927888576572 188.99724128244577,214.8634868562316 186.6260756057596,216.21472087914623 184.02884061983298,217.4167223462899 181.21500845637092,218.44329051201356 178.1971266095902,219.26861099875828 174.99085946199077,219.8676014546312 171.61499354096887,220.21627121028584 168.09140400264883,220.29209139699554 164.44498015367705,220.07437162064863 160.70350818436583,219.54463894322816 156.89750969622332,218.6870146100383 153.06003506160647,217.48858368340152 149.2264111503489,215.93975250762836 145.43394349440126,214.03458874146898 141.72157353272306,211.7711385585183 138.12949218012122,209.1517155383831 134.69871158998635,206.1831557566953 131.47059762580147,202.87703363465982 128.48636621311775,199.24983323262208 125.78654740502921,195.32306987034906 123.41042165211732,191.1233572318635 121.39543341394997,186.68241546647857 119.77658787469171,182.03701623101924 118.58583712103759,177.2288611310229 117.85146269712178,172.30439060992683 117.59746195872003,167.31452100276897 117.84294609838264,162.31430821156533 118.60155809460029,157.36253726895137 119.88091914243196,152.52123792943848 121.68211234125714,147.85512735711484 123.99921253897185,143.43098195705153 126.81887125315468,139.31694141616512 130.1199655013677,135.58174906785223 133.87331916857084,132.29393376231528 138.04150521442025,129.52093949914018 142.57873657290958,127.32821014746084 147.43085301864105,125.77823762827656 152.5354105665882,124.92958294879809 157.82187913569612,124.83588044519499 163.21195324280237,125.5448364925082 168.61997940562608,127.0972347632478 173.95350272718719,129.5259608437595 179.1139338160496,132.85505963437862 183.99733577615302,137.09883945061992 188.49532948749913,142.26103709363673 192.49611380725673,148.33405835517473 195.88559566443925,155.2983084524664 198.54862331645964,163.12162674043125 200.37031430054506,171.75883971204968 201.23746786674198,181.1514457644389 201.04004994305566,191.22744447143836 199.6727369794109,201.90132215891958 197.03650336896487,213.07420442444862 193.0402355770675,224.63418487860696 187.60235464472476,236.45683781415138 180.6524273999858,248.40592073698534 172.1327455325509,260.3342707281649 161.99985068913227,272.08489646044563 150.2259829541904,283.49226538075266 136.8004295161948,294.38378310904613 121.73075000583962,304.5814595150075 105.04385495037954,313.9037532404161 86.78691403614401,322.1675836635225 67.02807142568196,329.1904964814227 45.85694625052287,334.79296624920124 23.384897605761324,338.8008163946098 -0.25496508424984654,341.0477344605292 -24.90804357546645,341.3778576523912 -50.398799210307146,339.64840122356003 -76.53160068085941,335.73229985877265 -103.09188072227226,329.5208300551142 -129.8476081097533,320.9261795927702 -156.55107783934454,309.8839285746227 -182.94101860969494,296.35540523442324 -208.74501271812989,280.32987880605594 -233.68221927311043,261.8265512474944 -257.4663872451691,240.896309556028 -279.80914037285396,217.62320082646275 -300.42351135662227,192.12559311779947 -319.0276981639819,164.55698662831216 -335.3490106889118,135.10644165109187 -349.12797151675215,103.99859230341474 -360.12253020412595,71.493218099176 -368.11234635611186,37.88434906296865 -372.9030929354981,3.498884259108877 -374.33072773820265,-31.305291686403535 -372.2656778815408,-66.1417042813768 -366.61687954408853,-100.59820160307737 -357.3356131319939,-134.24038187187523 -344.4190725888461,-166.6155280456299 -327.9136067733108,-197.25703446702425 -307.9175707551833,-225.68930347304808 -284.58372557526354,-251.43308255048532 -258.1211265204589,-274.01120517133194 -228.79644231829866,-292.9546909517999 -196.93465088207216,-307.8091533384596 -162.91906135750827,-318.1414557310612 -127.19061724282324,-323.5465499041791 -90.24644127396397,-323.65442389319765 -52.63758957259569,-318.13708027117616 -14.9659902204221,-306.71546006998756 22.119450087902663,-289.1662226003433 57.9275784002775,-265.32828720819595 91.73056398862731,-235.10903967450048 122.77028947251823,-198.49010362198953 150.2655399570706,-155.5325760320195 173.41995397314037,-106.3816258846789 191.43068809793093,-51.270356095829385 203.49773502512463,9.477168595132184 208.83382268257938,75.44382127570772 206.67480990986778,146.11832825914965 196.29048236349993,220.8952817122793 176.9956408780712,299.0763227987435 148.16136364622918,379.872558969542 109.22631346287594,462.4082679397386 59.70795208537078,545.7259284007368 -0.7864843321101773,628.792603693197 -72.54940159109611,710.50768958917 -155.76281382387413,789.7120211069997 -250.48902189314657,865.1983160339531 -356.66216782205504,935.7229147053619 -474.08082935829077,1000.0187567520293 -602.4018168394184,1056.8095161665196 -741.135330443232,1104.8247963594276 -889.6416295839413,1142.8162671023308 -1047.1293575809154,1169.574605624483 -1212.6556537344568,1183.9470848994226 -1385.128171570813,1184.855633591162 -1563.3091062743658,1171.3151745034957 -1745.821316244562,1142.4520319718854 -1931.1566033679883,1097.5221837417153 -2117.6861940829317,1035.929119775567 -2303.673438769925,957.2410594087503 -2487.2887205965817,861.2072696029778 -2666.626536882235,747.7732209982775 -2839.724686565557,617.0943152836487 -3004.585466728352,469.5479173294808 -3159.198749655138,305.74342875802876 -3301.5667799260104,126.53014635366449 -3429.7304989135964,-66.99734091714032 -3541.7971721734543,-273.4964483808064 -3635.969063994358,-491.3767997722588 -3710.5728732428606,-718.8035313111604 -3764.089616043365,-953.7038623788733 -3795.1846142395625,-1193.7770699634957 -3802.7372244501016,-1436.5079708873545 -3785.8699213257582,-1679.1839791640114 -3743.976330797462,-1918.9157658710692 -3676.7477951225924,-2152.6615059473606 -3584.1980418216663,-2377.2546506608146 -3466.6855235564262,-2589.4351165354474 -3324.9329960078544,-2785.8837317139537 -3160.0439062083137,-2963.2597295637115 -2973.515174858453,-3118.241027352504 -2767.2459731600206,-3247.5669756192337 -2543.5421178057827,-3348.0832120789996 -2305.115737108358,-3416.7882032025195 -2055.0798968739923,-3450.8810077011544 -1796.9379165126288,-3447.8097497590416 -1534.5671539200407,-3405.3202467283336 -1272.1970916866355,-3321.5041968980713 -1014.3816169087995,-3194.846298617327 -765.9654519411805,-3024.2696432454304 -532.0447633806543,-2809.1787018453615 -317.9220508724371,-2549.499209929313 -129.05549534209075,-2245.7142465680263 28.996972736829406,-1898.895804397022 150.63854123900015,-1510.7311560404946 230.2988921595815,-1083.5433407033374 262.50357215498366,-620.3051225454913 241.946760625537,-124.64581024893806 163.566755788183,399.1496248883167 22.623419800166147,946.149636863125 -185.2232512700341,1510.793835110697 -463.83433675812853,2086.919714802026 -816.5139475076484,2667.7986572136833 -1245.9329518414313,3246.1813728308807 -1754.0555410565294,3814.3528539278786 -2342.069740488278,4364.196789526046 -3010.3229972597883,4887.2692747478995 -3758.263988513932,5374.881519696647 -4584.391793228191,5818.191131270984 -5486.213555751481,6208.301406089601 -6460.211739207412,6536.367935396344 -7501.822021246092,6793.711685013778 -8605.42282281566,6971.937576791585 -9764.337382353213,7063.057464336083 -10970.849192933063,7059.616266967247 -12216.231508527797,6954.819903758521 -13490.791497914617,6742.663556140354 -14783.92948139364,6418.058684886965 -16084.213527108797,5976.957137351474 -17379.469511337204,5416.470605536621 -18656.886561845884,4734.9836369071745 -19903.137606750613,3932.2583596072564 -21104.514544931335,3009.5290636759973 -22247.077339880903,1969.5847815597028 -23316.81611903229,816.8380361351694 -24299.82513747545,-442.62202616893103 -25182.48724109993,-1800.993824714125 -25951.667242312975,-3248.746462910635 -26594.912404482264,-4774.623253983481 -27100.65802216464,-6365.666978016447 -27458.435886135663,-8007.268012387794 -27659.08323843532,-9683.236269680721 -27694.949656335313,-11375.897643568409 -27560.099158547324,-13066.215405233119 -27250.504705337473,-14733.936712155886 -26764.23216959729,-16357.76408957909 -26101.610791343097,-17915.551424951795 -25265.387096380942,-19384.523679963597 -24260.859263582795,-20741.519176480186 -23095.988966699806,-21963.252955304557 -21781.487797899812,-23026.599344035312 -20330.87550291682,-23908.891506539265 -18760.507423088533,-24588.23538615178 -17089.568748432906,-25043.835102369445 -15340.033438594231,-25256.326521431823 -13536.585964762933,-25208.115399893788 -11706.504364773518,-24883.71620227096 -9879.503484164696,-24270.08742436848 -8087.537696087724,-23356.959018241472 -6364.562849993114,-22137.14731807762 -4746.2576898027155,-20606.852713699544 -3269.7055029377375,-18765.935214708094 -1973.037307646678,-16618.16299808893 -895.038452471325,-14171.429039593484 -74.72108271820883,-11437.930998153266 449.1344817808532,-8434.309656246747 638.4658223014485,-5181.741420189588 456.4377295286829,-1705.9806547641624 -132.03004831714873,1962.6520322565818 -1159.7219612040751,5789.339027836366 -2656.5785817920037,9734.895462677398 -4649.147646868583,13755.961907859733 -7160.04100049749,17805.26183549266 -10207.404605140804,21831.92497564023 -13804.409104914474,25781.87695776501 -17958.768671235295,29598.294826250465 -22672.29602754975,33222.12717249003 -27940.501629194896,36592.67673786696 -33752.24495990918,39648.24242098841 -40089.44579197931,42326.81667804036 -46926.86303721002,44566.833347275235 -54231.94848651439,46307.95996844363 -61964.78229370731,47491.92771723138 -70078.09650198944,48063.39114592212 -78517.39223886501,47970.80902759168 -87221.1554174723,47167.33675561753 -96121.17488162205,45611.719966916644 -105142.96592186762,43269.17835000706 -114206.30097592578,40112.26798162389 -123225.84811562487,36121.71002191275 -132111.9166228175,31287.17320150125 -140771.30757863628,25607.997266782015 -149108.2659459238,19093.844424556988 -157025.52912724408,11765.26585481479 -164425.46544557647,3654.170550762035 -171211.29443822536,-5195.815893182884 -177288.37929458581,-14729.11438492001 -182565.58022434224,-24878.08844596988 -186956.65603474018,-35563.08353683056 -190381.69974494315,-46692.61870480053 -192768.59269402325,-58163.73837796833 -194054.4603292312,-69862.53066099081 -194187.1117154443,-81664.81684282098 -193126.44380765088,-93437.01501228576 -190845.79069827002,-105037.17870562262 -187333.19741168132,-116316.20939474656 -182592.59739023788,-127119.23938282415 -176644.87261877375,-137287.17932408518 -169528.77538610398,-146658.42214974598 -161301.6909982484,-155070.692686004 -152040.22135291717,-162363.02972028314 -141840.5701694318,-168377.88473746553 -130818.7118511065,-172963.31903994342 -119110.32744346462,-175975.27851694674 -106870.49294335759,-177279.92297421166 -94273.1073091985,-176755.98471020124 -81510.04991548558,-174297.12896615974 -68790.05987561388,-169814.28702098067 -56337.33261172405,-163237.931084884 -44389.83226050455,-154520.25880434123 -33197.32194667603,-143637.2541597232 -23019.117604082418,-130590.59085040365 -14121.574846258518,-115409.34395109826 -6775.3223481455225,-98151.47571712884 -1252.2592582502136,-78905.06194100867 2177.661727933648,-57789.22624056209 3249.839884533615,-34954.75110792283 1708.5907397741355,-10584.336482732391 -2689.164669214529,15107.520959911175 -10170.1231900563,41875.05169286893 -20940.776825368517,69442.16086156144 -35183.58844594588,97503.81601980614 -53053.21352077493,125727.88727982437 -74672.81805499105,153757.447267921 -100130.54509512417,181213.53305168397 -129476.1838231765,207698.36660193556 -162718.09636268058,232799.0244175613 -199820.45790963678,256091.54072528024 -240700.86563206674,277145.42222793325 -285228.37091181125,295528.5457791605 -333221.9878950955,310812.4036809324 -384449.7289447142,322577.654610606 -438628.21442499605,330419.9315688241 -495422.9002871749,333955.85178573395 -554448.962153277,332829.1673219276 -615272.8690264298,326716.9892462339 -677414.6734002201,315336.01286103216 -740351.0374259304,298448.6665741412 -803519.0069618715,275869.1027813172 -866320.5368227264,247468.94562025295 -928127.7614297128,213182.70777834026 -988288.9954070505,173012.78677090112 -1046135.438560569,127033.95033715478 -1100988.5492058417,75397.22090423564 -1152168.0390921382,18333.07051312812 -1199000.4323111214,-43846.159757138674 -1240828.1197116268,-110744.69794184052 -1277018.8295985947,-181882.71382394852 -1306975.4250171157,-256696.69647978895 -1330145.9278598889,-334540.89938522055 -1346033.660541198,-414689.9066470182 -1354207.3872086804,-496342.36356588034 -1354311.328573486,-578625.9031479923 -1346074.917587133,-660603.287423088 -1329322.1575339253,-741279.7685789688 -1303980.4397920088,-819611.6600844413 -1270088.675687177,-894516.0922634905 -1227804.5956566972,-964881.9103397469 -1177411.0694788918,-1029581.6559475812 -1119321.3037185285,-1087484.555677414 -1054082.7768826904,-1137470.4225777057 -982379.779153147,-1178444.3588795336 -905034.4320160032,-1209352.1307606138 -823006.073681926,-1229196.0689551472 -737388.9088906889,-1237051.3326847379 -649407.836506857,-1232082.3589826897 -560412.3851963666,-1213559.3052630478 -471868.70635499276,-1180874.2802026768 -385349.59423839545,-1133557.146915005 -302522.5257881346,-1071290.6732491886 -225135.73679649402,-993924.7970921487 -155002.37661229115,-901489.7700166197 -93982.81033656806,-794207.9407245193 -43965.16513792332,-672503.9406819381 -6844.245650552312,-537013.0383084817 15501.027904988485,-388587.4352224436 21231.476551407268,-228300.28847787317 8572.603667177378,-57447.25655114169 -24159.617904219303,122454.61590200446 -78532.37753917633,309670.8387773469 -155969.36709030153,502256.38284690457 -257724.14254732413,698065.6642708345 -384853.84064459766,894765.6891332939 -538193.601904533,1089852.4060045874 -718332.0663837584,1280670.2778339756 -925588.3196003499,1464435.0451810143 -1159990.673387774,1638259.6112128787 -1421257.6693897003,1799182.9353952147 -1708781.6912548305,1944201.7777972985 -2021615.565023173,2070305.0898774301 -2358462.5154675306,2174510.8010144583 -2717669.82906684,2253904.7034493987 -3097226.5516947657,2305681.0922765615 -3494765.520920092,2327184.7722879695 -3907569.9990112293,2315954.000465528 -4332585.133359428,2269763.8923894553 -4766434.426200993,2186669.78345968 -5205441.345420521,2065050.0022854258 -5645656.153124859,1903647.4845605162 -6082887.968942836,1701609.6318712719 -6512742.021060848,1458525.8018231774 -6930661.9703622535,1174461.8042353003 -7331977.122293466,849990.773513276 -7711954.26790486,486219.7901980562 -8065853.820654915,84811.63556825924 -8388989.839844191,-351998.917553449 -8676793.455841651,-821394.846650322 -8924879.137526097,-1319973.1859383848 -9129113.169582035,-1843748.3832597001 -9285683.63749995,-2388163.1381731792 -9391171.152404595,-2948107.0877633533 -9442619.487260353,-3517943.633616826 -9437605.24167935,-4091545.12180108 -9374305.605581129,-4662336.497964313 -9251563.253396649,-5223347.4624310015 -9068947.371420085,-5767273.046101879 -8826809.802284595,-6286542.417916886 -8526335.283304587,-6773395.61957302 -8169584.760441269,-7219967.804201821 -7759530.777668577,-7618380.434021575 -7300083.973188451,-7960838.768918893 -6796109.759789887,-8239734.854923224 -6253434.327043774,-8447755.100151 -5678839.178197739,-8577991.40762951 -5080043.504638183,-8624054.721152322 -4465673.805492037,-8580189.733702915 -3845220.279033638,-8441389.409786234 -3228979.6455203774,-8203507.885010192 -2627984.20718486,-7863370.230242214 -2053917.1094177647,-7418877.505375616 -1519013.9365383668,-6869105.480873128 -1035950.9545979309,-6214395.375423385 -617720.5008191234,-5456434.946766266 -277494.21275577834,-4598328.2813947955 -28474.988078976967,-3644652.658653614 116261.23411282811,-2601500.9167722655 143932.5797423583,-1476507.8234374563 42225.74609351447,-278859.05222936143 -200523.77167361366,980718.5110182011 -595147.5973560509,2289986.2610455896 -1151458.5703523294,3635244.1235853257 -1878065.2177736023,5001402.327705454 -2782188.940222534,6372075.247839622 -3869486.3724507573,7729697.6253705695 -5143879.480741311,9055663.221950347 -6607396.034373606,10330485.681148402 -8260023.136293443,11533981.083747141 -10099576.515676185,12645471.377625536 -12121588.270198364,13644007.54859683 -14319215.696531596,14508611.077021942 -16683173.762153225,15218531.900044098 -19201693.64867144,15753520.774691839 -21860509.635513216,16094113.616942346 -24642876.392442305,16221925.080403943 -27529618.50985679,16119948.34002546 -30499213.817503855,15772857.765762987 -33527911.7260192,15167310.913111856 -36589887.472936764,14292246.02655553 -39657432.76747232,13139171.05298902 -42701182.90895229,11702439.999645192 -45690380.005318455,9979512.349459251 -48593171.44431789,7971191.1703989 -51376942.274984695,5681835.528044859 -54008679.64556976,3119542.836258238 -56455366.921451315,296296.86233870196 -58684404.57849618,-2771922.7566068065 -60664054.44006412,-6065073.428107503 -62363903.30595581,-9559028.627832908 -63755341.5160673,-13225606.38320875 -64812051.5075735,-17032650.177396785 -65510500.969605274,-20944164.780094914 -65830434.78118811,-24920508.996243726 -65755359.54436164,-28918646.74907176 -65273014.2025018,-32892457.28315093 -64375819.97141337,-36793104.59035601 -63061302.61498952,-40569465.43183199 -61332479.975067064,-44168614.55822135 -59198207.62296061,-47536364.92528785 -56673475.54395091,-50617859.87046936 -53779648.900929846,-53358213.36632645 -50544646.15388641,-55703193.60871265 -47003048.141499035,-57599944.34087297 -43196132.16232218,-58997737.47034809 -39171825.62733243,-59848749.71481981 -34984574.49323776,-60108855.22771794 -30695122.425887387,-59738425.4166031 -26370197.48305113,-58703126.489470445 -22082104.041959487,-56974704.65855377 -17908218.724168047,-54531748.41042655 -13930390.181784831,-51360416.82722725 -10234243.79676628,-47455122.62858114 -6908393.599109969,-42819158.40830449 -4043565.019259114,-37465254.47486778 -1731633.4422499135,-31416056.77923512 -64584.912168914285,-24704513.636712708 866593.2699512899,-17374160.327774562 973082.9199879087,-9479291.202421138 169455.81025414192,-1085009.617307498 -1625066.8638344829,7732853.092803876 -4485329.5029335115,16887957.367632467 -8478945.91847157,26283820.45001789 -13665007.351440866,35814331.87397898 -20092811.084672503,45364423.0708222 -27800626.880635023,54810893.07942898 -36814519.16158538,64023390.53776968 -47147243.356649145,72865550.20007853 -58797235.15305678,81196280.1840598 -71747711.48922805,88871194.0228603 -85965902.00036475,95744179.39812264 -101402429.25886004,101669093.18568161 -117990855.53077407,106501570.17949551 -135647412.88645002,110100930.59869266 -154270932.35170674,112332169.25591378 -173742986.36207405,113068007.10217309 -193928257.08592406,112190983.79563974 -214675141.21572238,109595568.00095262 -235816599.59660238,105190260.34477307 -257171257.57790107,98899662.3649253 -278544759.2503451,90666483.42749551 -299731375.7868806,80453456.48057988 -320515864.9606542,68245132.69606864 -340675575.5949413,54049524.551334634 -359982787.23670477,37899566.748532735 -378207271.7711446,19854364.58538395 -395119060.04626435,200.00000048388154" stroke="white" stroke-width="1.5" /></svg>