<?xml version="1.0" encoding="utf-8" ?>
<svg baseProfile="full" height="400" version="1.1" width="400" xmlns="http://www.w3.org/2000/svg" xmlns:ev="http://www.w3.org/2001/xml-events" xmlns:xlink="http://www.w3.org/1999/xlink"><defs /><rect fill="black" height="100%" width="100%" x="0" y="0" /><circle cx="200" cy="200" fill="yellow" r="20" stroke="orange" stroke-width="2" /><polyline fill="none" points="199.16582740474857,200.0 199.17947447984645,199.9569261584195 199.19935117432712,199.91570689572336 199.2254662809493,199.87711769560423 199.25774626365643,199.8419578242158 199.29603048340985,199.81104213019916 199.34006718209488,199.78519210660886 199.38951032504468,199.7652262766597 199.44391739877213,199.7519499777798 199.5027482550804,199.7461446309345 199.56536508580461,199.74855659442014 199.63103360400765,199.759885713145 199.69892549751617,199.78077368564556 199.7681222092588,199.8117923815468 199.83762008600425,199.85343225168737 199.90633692285056,199.90609098150858 199.97311991527732,199.97006254537519 200.03675501384535,200.0455268250735 200.0959776588401,200.13253995965596 200.14948485345957,200.23102559590652 200.19594851471243,200.34076720884286 200.23403002121432,200.46140165971414 200.26239585675685,200.59241415478326 200.27973422810962,200.73313476170028 200.28477251524515,200.88273663140944 200.27629539231168,201.0402360622314 200.25316343849528,201.2044945290072 200.21433203969391,201.37422278398435 200.15887036496224,201.54798711750823 200.08598018627413,201.7242178456206 199.99501429658483,201.90122006847088 199.88549426974828,202.07718671814575 199.75712729684295,202.25021388730107 199.60982182715753,202.4183184010407 199.44370173874273,202.5794575640763 199.25911876328826,202.73155098360374 199.05666289335113,202.87250433585157 198.83717050683,203.00023491124958 198.60172995420606,203.11269873999606 198.3516843685737,203.20791906688245 198.08863147694413,203.28401591198178 197.81442021375517,203.33923642267368 197.53114396395003,203.37198569292457 197.24113029333702,203.3808576982395 196.9469270580891,203.36466596973304 196.65128482302563,203.32247360880928 196.35713555950338,203.25362222547332 196.06756763805154,203.1577593687767 195.78579717797072,203.03486400777876 195.5151358655798,202.88526961610017 195.25895540418227,202.70968441304456 195.02064881162192,202.50920831971985 194.80358883494753,202.28534619990478 194.61108380559457,202.04001697283195 194.4463313119654,201.77555820878726 194.31237011865537,201.49472584858603 194.2120308121038,201.20068872463114 194.14788570039565,200.897017604369 194.12219853953184,200.5876685264317 194.13687469894333,200.2769602553964 194.19341241456794,199.96954574263097 194.29285580766506,199.67037754775362 194.4357503709636,199.3846672473522 194.62210163999583,199.11783893422552 194.85133777588646,198.87547699087406 195.122276785808,198.66326840453806 195.43309909821852,198.48693997692186 195.7813261913685,198.35219086894557 196.16380594499748,198.2646210084271 196.57670534632578,198.2296559754607 197.01551113217843,198.25246906529128 197.47503888927184,198.33790131050745 197.94945106438428,198.49038032216936 198.43228425549268,198.71383888179867 198.91648606430056,199.01163428171802 199.39446169036094,199.38646946877475 199.8581303378232,199.8403170947571 200.2989913884579,200.3743476145987 200.70820016995418,200.988862599587 201.0766530175997,201.683234446146 201.3950811915565,202.45585366032367 201.65415307239138,203.3040848829697 201.84458391579912,204.22423278993602 201.957252305186,205.21151895481827 201.98332229969577,206.26007069827926 201.91437013719377,207.36292286753053 201.74251421859512,208.51203339195476 201.46054697372068,209.69831334620474 201.06206709161904,210.9116721206879 200.54161049206616,212.14107815165968 199.89477832180378,213.3746354999463 199.1183601810388,214.59967638959233 198.21045072478105,215.8028696267168 197.17055774164857,216.9703446160524 195.99969979161392,218.0878304797664 194.70049148545428,219.14080956219553 193.27721451389283,220.11468437727305 191.73587258486654,220.99495682512085 190.08422850408712,221.76741827314484 188.33182173788478,222.41834886784014 186.48996492876054,222.93472421936 184.57171799333602,223.30442738485416 182.5918386193623,223.51646387187 180.56670819266256,223.56117719303683 178.51423242549401,223.43046233116837 176.45371622360022,223.11797432316308 174.4057126185619,222.61932904496354 172.39184590292322,221.93229318157236 170.43460943554507,221.05696029880164 168.55713893088893,219.99590989996557 166.78296240525364,218.75434635379497 165.135728321768,217.34021462187013 163.6389138502403,215.76428979691423 162.31551553348854,214.0402375890864 161.1877250239321,212.18464306725465 160.27659291816735,210.21700517695055 159.6016840678899,208.15969481665184 159.18072807762047,206.0378745589914 159.02926900785695,203.87937845268053 159.16031858108394,201.71455073297489 159.58401743208304,199.57604270139973 160.30730914783533,197.4985675065333 161.33363200077133,195.51861306362778 162.6626333871838,193.674113887761 164.28991203556296,192.00408317846038 166.20679304308464,190.54820707807283 168.40014072858233,189.34640362571858 170.85221415368576,188.43834953702242 173.5405699576427,187.8629785499855 176.4380168735641,187.65795568187204 179.51262594310472,187.85913233294357 182.72780002239162,188.4999877420176 186.04240567469176,189.61106283761347 189.41096997616165,191.21939302814772 192.78394412231623,193.34794692641242 196.10803501786896,196.01507839858687 199.3266052656754,199.23399965758256 202.38014114703734,203.01228337611386 205.20678731205712,207.35140196839498 207.74294598258302,212.24631227312932 209.92393752009886,217.68509385742732 211.68471823622872,223.64864904514576 212.96065033483046,230.1104725484209 213.68831788330544,237.0364982433954 213.80638172890568,244.38503017694825 213.25646531632793,252.10676431847168 211.98406243918043,260.14490687860354 209.9394570838724,268.43539420590037 207.07864471432157,276.90721834490205 203.36424361394197,285.4828612985797 198.76638426202027,294.0788398901856 193.2635641889584,302.6063618711048 186.84345534273098,310.97209258124644 179.50365072047535,319.07903004735044 171.25233688681547,326.82748491455914 162.1088790257468,334.11616006165343 152.104305365929,340.8433231659966 141.28167818885868,346.90806387757493 129.69633918288025,352.21162565102384 117.41601764874866,356.6588006899934 104.52079099792749,360.159374900534 91.10288811425681,362.62960825120274 77.26632747199764,363.99373451991846 63.12638341501906,364.18546309427404 48.8088756969276,363.149464306401 34.44927925141846,360.84281874886915 20.191653194494194,357.23641015747967 6.187390241060086,352.31624078252287 -7.406209969398674,346.0846477235703 -20.427537719825295,338.561398494242 -32.71243180485459,329.7846441312206 -44.09608885637428,319.81170848261854 -54.41510978834904,308.71969291894175 -63.509667127368175,296.60587661703585 -71.22577440562287,283.5878937822565 -77.41763626401467,269.80367070219677 -81.95005548040388,255.41110736859395 -84.7008708383105,240.58749056070067 -85.5633976222116,225.5286277476169 -84.44884060486021,210.44769392875358 -81.28864771760635,195.57378657635869 -76.0367712039016,181.15018715288988 -68.67180198527694,167.43233122556515 -59.19894225286498,154.68549296257834 -47.651780968668874,143.18219373769276 -34.093837049284076,133.19934865523317 -18.61983553750173,125.01516899465251 -1.3566830673231323,118.90584281758277 17.535889585775863,115.14202023159051 37.86504809088672,113.98513401136927 59.40496600985847,115.68359038448 81.897351825643,120.46886873721144 105.05241275190116,128.55157272698338 128.5502725087336,140.11747873995773 152.0428557502757,155.32363074457228 175.1562468715428,174.2945333020499 197.49352553525253,197.1184967429581 218.63807548270182,223.8441902456659 238.157357071879,254.47745970167477 255.6071275739371,288.97846777131224 270.53608661620126,327.25921337248406 282.49091735320917,369.1814869615863 291.02168705059444,414.55531632187797 295.6875638596806,463.1379551401185 296.0627997287046,514.6334634044795 291.7429227296218,568.6929245814545 282.3510756714705,624.9153396221672 267.5444318193339,682.8492321142817 247.02061294116845,741.9949923507123 220.524029863273,801.807980757575 187.85206132886526,861.7024030500465 148.8609833215414,921.0559607165201 103.47155823199353,979.2152710312241 51.674191403749944,1035.502040837973 -6.466438222197212,1089.21996791946 -70.80736635426075,1139.6623329656668 -141.12404201325427,1186.1202340910972 -217.10782543367355,1227.8914046434131 -298.36437003730293,1264.2895438258367 -384.4129680026697,1294.6540785607767 -474.68693229861003,1318.3602641991329 -568.5350800429036,1334.829521281474 -665.2243726966454,1343.5398957415432 -763.9437579381022,1344.0365208704397 -863.8092461208437,1335.9419511941126 -963.8702410732135,1318.9662313196836 -1063.1171307223376,1292.9165569374939 -1160.4901277280305,1257.7063806809817 -1254.8893341119676,1213.3638125939392 -1345.1859869061402,1160.0391636738054 -1430.234824282502,1098.0114814783078 -1508.8874936404302,1027.6939292150007 -1580.006904916124,949.6378641770763 -1642.4824141493814,864.5354779236101 -1695.2457043241316,773.220869286928 -1737.2872129279183,676.6694321600321 -1767.6729388007525,575.9954530841328 -1785.561444921936,472.4478289048716 -1790.2208590766595,367.4038321522721 -1781.0456611165826,262.3608712506782 -1757.5730340438765,158.92621407715788 -1719.498546666135,58.8046666253683 -1666.690928341933,-36.215776570586144 -1599.205691604883,-124.28026723931038 -1517.2973564436086,-203.48535280030757 -1421.4300309334815,-271.8990412563341 -1312.2861069480825,-327.5825531506242 -1190.772836982464,-368.61360258993795 -1058.0265688246693,-393.11101971728885 -915.4144290113279,-399.26049775108356 -764.5332637548303,-385.3412191777627 -607.2056673506878,-349.7530882971072 -445.4729529381161,-291.04427149046876 -281.5849488226656,-207.938722737835 -117.98653525671284,-99.36335047959028 42.69912855770011,35.52553666883847 197.69069964963114,197.316883164816 344.07204053133466,386.3210282144393 478.81883152654547,602.5477329282775 598.8282903073007,845.686493163842 700.9518363345198,1115.0895366502 782.0304903686589,1409.7578963126598 838.9327511141828,1728.3309397157473 868.5946429454108,2069.079717013752 868.0615811289962,2429.904466587412 834.5316546404356,2808.336588561621 765.3998822259889,3201.5453616153695 658.30295546553,3606.3496379569583 511.1639439381431,4019.2347051627835 322.23640287862304,4436.374451964083 90.14729363521269,4853.658918290612 -186.06189751843993,5266.727248304287 -506.8964754367936,5671.005999223295 -872.3729323946116,6061.752688976919 -1281.9870749310733,6434.10439275512 -1734.6865287409478,6783.131123016452 -2228.8482580470613,7103.893650263853 -2762.2617161709713,7391.505343734815 -3332.1182153087534,7641.197532989151 -3935.007065573657,7848.387814190451 -4566.918986038129,8008.75064968827 -5223.257233756114,8118.289537388328 -5898.856830647471,8173.409958450571 -6588.012192875517,8170.992249203038 -7284.513383269669,8108.463486938546 -7981.691114893234,7983.867430601546 -8672.470533619737,7795.9315173844625 -9349.433700286432,7544.129886016198 -10004.89057950295,7228.741378069493 -10630.958223502534,6850.901460900766 -11219.647716661779,6412.647020751613 -11762.958320737751,5916.952992866696 -12252.978133850082,5367.759827890753 -12681.990449257153,4769.9908408375195 -13042.584874618742,4129.558550968921 -13327.772150372932,3453.3591982188027 -13531.101488822165,2749.2547144015534 -13646.779145312434,2026.0415352347727 -13669.78683133149,1293.405761853699 -13595.998488288978,561.8643174725014 -13422.293862007851,-157.30810459058318 -13146.667253359734,-852.1663421243879 -12768.329771766932,-1510.1961804514092 -12287.803387139043,-2118.429565399279 -11707.005063779328,-2663.573101090108 -11029.319268312069,-3132.149121198339 -10259.657174019694,-3510.6484181818887 -9404.500937222287,-3785.693508559225 -8471.931498350297,-3944.2111060010066 -7471.638461794642,-3973.6122704041054 -6414.910734832505,-3861.978502932341 -5314.606757019213,-3598.2518670700306 -4185.103327187703,-3172.427036956361 -3042.222235075574,-2575.743009622331 -1903.1341277343813,-1800.872070232362 -786.2392860478824,-842.1034720211346 288.9747476776698,304.4808117548566 1302.0984659215064,1640.840985020906 2231.988090422383,3166.8277463109375 3056.974825396918,4880.046816256637 3755.0945054003932,6775.742450303984 4304.336141885735,8846.702661645882 4682.907537053161,11083.188791927087 4869.515798430001,13472.891941182223 4843.660256966885,16000.918602688113 4585.934969697747,18649.807642352163 4078.3376797867995,21399.580515786987 3304.581816814048,24227.826329694697 2250.4078532627054,27109.82302848568 903.8900942327764,30018.695623616542 -744.2652287414236,32925.61198393979 -2700.4348574833984,35800.01627298676 -4967.810824718388,38609.89965672104 -7546.154693370742,41322.107416621446 -10431.578250808936,43902.681092332554 -13616.355165987223,46317.233750408064 -17088.768034428344,48531.35593631166 -20832.9950923871,50511.04932174668 -24829.04067505965,52223.18451496515 -29052.71322271667,53635.97896477571 -33475.65430218937,54719.49036670586 -38065.421709027236,55446.120479659825 -42785.62924848377,55791.12379115842 -47596.14526272015,55733.11503669138 -52453.351379595246,55254.56919177151 -57310.46230839601,54342.30722182215 -62117.90680405375,52987.96060277706 -66823.76916894484,51188.40742172108 -71374.28986639676,48946.17273918312 -75714.42298954338,46269.78584947062 -79788.4474711596,43174.0871188042 -83540.62804338666,39680.47721836471 -86915.9210704791,35817.10180528286 -89860.71949328465,31618.965042757758 -92323.63025220802,27127.965793526077 -94256.2767075692,22392.850870325514 -95614.11776474307,17469.08038309672 -96357.27464874968,12418.600984445378 -96451.35557185346,7309.5236799112645 -95868.2679110338,2215.7038340505833 -94587.00697271388,-2783.7779381272226 -92594.40998243493,-7605.234159074849 -89885.86360936976,-12161.087096127401 -86465.95313127991,-16360.681235177042 -82349.04127554093,-20111.187916580082 -77559.76484604801,-23318.597034094706 -72133.43747291493,-25888.789272440496 -66116.34720930959,-27728.68091955766 -59565.938253435386,-28747.431852769645 -52550.86679783172,-28857.705881871494 -45150.92190523494,-27976.971255682376 -37456.80338062674,-26028.82782159102 -29569.74985110492,-22944.346090458912 -21601.01167488215,-18663.402322665374 -13671.164871738152,-13135.992735951651 -5909.263990894924,-6323.50906281625 1548.166302674334,1800.0430250883303 8558.299149783783,11246.901636081637 14973.329048562224,22014.501858493688 20641.94496125008,34084.54388722242 25410.94463309897,47422.195396022704 29126.97946355908,61975.447099531084 31638.416930737676,77674.63981310444 32797.30523589052,94432.18041226835 32461.42253487265,112142.46291015811 30496.390888922542,130682.0094069247 26777.832930062374,149909.84391908994 21193.54722987042,169668.11007211104 13645.6765181317,189782.9413424853 4052.8412538183006,210065.58997695087 -7647.790361288464,230313.8179099797 -21498.525983140145,250313.54996517708 -37519.2972470162,269840.7863838051 -55705.96383963952,288663.76830090553 -76028.80511791754,306545.3862169209 -98431.23065520522,323245.81782474025 -122828.74047603049,338525.37778682413 -149108.16469612552,352147.5582561981 -177127.21080096212,363882.23514356016 -206714.34486180282,373509.0113982613 -237669.0305974412,380820.6649438231 -269762.3473414992,385626.6654412704 -302738.00467413105,387756.7207996615 -336313.7677340345,387064.3113676274 -370183.3030587408,383430.16707759793 -404018.45023167983,376765.6405304225 -437471.91967329284,367015.9271560995 -470180.41163736273,354163.08221825573 -501768.14590562566,338228.78359527834 -531850.785863561,319276.7890157277 -560039.7346440468,297415.03679186193 -585946.7749053823,272797.3401197824 -609189.0176339387,245624.6267292908 -629394.1192024748,216145.67809589402 -646205.71985065,184657.3255891225 -659289.0508663346,151504.06483520233 -668336.6521200524,117077.05421928328 -673074.1363277312,81812.46883481053 -673265.9315779674,46189.1872875612 -668720.9293488504,10725.79555152004 -659297.9615448702,-24023.1004851542 -644911.0270939367,-57471.25410221821 -625534.1864424418,-89005.84018923999 -601206.0409526732,-117993.18372031623 -572033.7138166219,-143785.12748459727 -538196.2497213548,-165726.0025456493 -499947.352193554,-183160.15495398387 -457617.38036537403,-195439.97220009865 -411614.53088059206,-201934.34288905517 -362425.1358272875,-202037.47326849148 -310613.0139568622,-195177.974683059 -256817.82003006432,-180828.12689799178 -201752.3459058867,-158513.213675084 -146198.73692923493,-127820.81914051178 -91003.59823264998,-88409.96650118456 -37071.97768348182,-40019.97468919267 14639.774699246384,17521.09631589059 63132.25706186114,84288.54428264075 107372.34723396227,160253.80256832048 146303.57154543154,245278.0325268894 178857.45118844285,339106.66495678155 203965.75019952582,441365.0222674801 220573.53282707912,551555.1484256538 227652.92179488126,669053.9672335762 224217.4329780032,793112.8810491835 209336.74649047456,922858.9116537771 182151.75936910417,1057297.472608251 141889.75115633363,1195316.8481343295 87879.48097205805,1335694.437361541 19566.023356447724,1477104.8047684978 -63474.8595023134,1618129.5579209323 -161523.0193397098,1757269.0522993112 -274701.1130764657,1892955.900274922 -402962.90306334285,2023570.2373225167 -546082.8865057897,2147456.6735652722 -703647.472489499,2262942.8329762323 -875047.9204171242,2368359.35627853 -1059475.2460869548,2462061.2170868358 -1255917.2909922798,2542450.1744298274 -1463158.1366219665,2607998.158823122 -1679780.028559583,2657271.3638761844 -1904167.9550079603,2688954.791380723 -2134517.0010460266,2701876.97531836 -2368842.573534321,2695034.589624332 -2604993.5622472283,2667616.626235187 -2840668.470691388,2619027.8143137954 -3073434.5153844804,2548910.9389579454 -3300749.6553758113,2457167.7085197647 -3519987.474795878,2343977.8142350195 -3728464.800577519,2209815.8245027713 -3923471.8955909717,2055465.5591559517 -4102305.0247168345,1882031.596677314 -4262301.148321213,1690947.579756994 -4400874.4547085455,1483981.002026047 -4515554.400955327,1263234.1813527502 -4604024.89064478,1031141.1528171579 -4664164.1780229565,790460.2473858624 -4694085.051592516,544262.160331013 -4692174.816773196,295913.3564443482 -4657134.567610623,49054.70688839647 -4588017.21222863,-192424.69517283438 -4484263.696399688,-424418.5365591078 -4345736.854840385,-642639.039871191 -4172752.3111782605,-842657.3458576255 -3966105.845500683,-1019948.3290032974 -3727096.6534545124,-1169939.5848637982 -3457545.933428898,-1288064.2582302226 -3159810.2587696477,-1369817.311234676 -2836789.2205141275,-1410814.7608321225 -2491926.8629892073,-1406855.3466058627 -2129206.479880277,-1353984.0234735457 -1753138.3920570577,-1248556.6105856583 -1368740.3904270276,-1087304.8685026187 -981510.5971657307,-867401.2226198363 -597392.5765150158,-586522.3027964043 -222732.6114968838,-242910.4282382977 135770.84520700068,164567.86612373329 471125.44000361924,636367.1892878461 776110.6973607322,1172213.4812135475 1043350.9920929939,1771059.9716173369 1265395.2872868262,2431049.846409649 1434803.0973235182,3149486.536933771 1544236.021758445,3922812.513680169 1586554.0826338362,4746597.419450444 1554915.9865877512,5615536.316735364 1442882.325386354,6523458.7501905095 1244520.625824206,7463349.237546902 954511.0639239292,8427379.701256244 568251.5706629985,9406954.238994049 81960.97870931956,10392766.504369995 -507221.2065074832,11374869.830555357 -1201139.8810259833,12342760.07996552 -2000535.7697520533,13285471.043755531 -2904964.7369307512,14191682.047028441 -3912726.514076281,15049837.240837716 -5020804.365441706,15848275.881996345 -6224817.176940629,16575372.718272893 -7518985.399493419,17219687.41182003 -8896112.201351697,17770121.74984801 -10347581.08557032,18216083.21097866 -11863371.108198013,18547653.280854486 -13432090.689959249,18755758.743993368 -15041030.849489396,18832344.023195993 -16676238.500147203,18770542.49570306 -18322610.24594463,18564844.58943139 -19964006.886408225,18211260.355653975 -21583388.596734572,17707474.129021425 -23162970.49026968,17052988.82435312 -24684397.997285496,16249257.3845342 -26128941.209732886,15299798.887332931 -27477707.048893753,14210296.84300608 -28711867.81471907,12988677.270930933 -29812904.37546568,11645164.233655086 -30762861.9576408,10192310.631834684 -31544616.203036163,8645002.224314727 -32142146.87580397,7020433.034489314 -32540816.33224779,5338050.537030063 -32727649.613545634,3619469.2876062742 -32691612.791321546,1888351.9613834328 -32423885.99219334,170257.10242616938 -31918127.354444962,-1507546.7463162343 -31170724.032032173,-3116300.4664786994 -30181026.262283348,-4626006.853229437 -28951560.457755946,-6005715.237514223 -27488217.273321465,-7223836.847038697 -25800410.63991835,-8248489.03543506 -23901203.84935004,-9047866.024445554 -21807398.9223935,-9590633.316176938 -19539585.69715353,-9846342.44739263 -17122147.33731061,-9785862.281627396 -14583219.281283902,-9381822.574152615 -11954599.033296889,-8609065.106255725 -9271604.635092435,-7445097.275863004 -6572880.15101223,-5870542.65827891 -3900147.046966831,-3869582.720802486 -1297900.9422543284,-1430383.5952113944 1186946.1418061377,1454498.4105742185 3505477.2257845127,4787739.039332001 5607233.975359501,8566902.616635384 7440730.178687011,12784139.468314927 8954012.03888588,17425930.735786904 10095261.434950696,22472886.94861575 10813437.511830514,27899606.47118145 11058951.172458988,33674599.60550136 10784366.271297542,39760283.7030909 9945120.561062511,46113054.11425561 8500258.732753372,52683435.18353935 6413169.225162342,59416314.78652843 3652315.8751791455,66251265.09843687 191954.9458856946,73122951.39276177 -3987172.382962877,79961629.6940569 -8897182.336838724,86693733.05913538 -14542436.211119564,93242545.14380589 -20918984.050707504,99528958.5369184 -28014075.035262078,105472314.12080242 -35805745.147507064,110991316.45915368 -44262492.44968365,116005018.93333267 -53343049.89553321,120433871.06035832 -62996265.05736597,124200819.14609455 -73161095.4466025,127232450.17170498 -83766727.25010225,129460167.5976365 -94732824.29389001,130821386.61506423 -105969912.88279259,131260735.29826331 -117379906.85324009,130731247.1313259 -128856775.72348566,129195529.51771422 -140287357.23932087,126626892.14977282 -151552313.90483484,123010418.53557166 -162527231.2699278,118343963.56967337 -173083853.83447617,112639059.80906951 -183091452.44068965,105921715.09078744 -192418314.97996873,98233084.31732573 -200933350.16006035,89629998.65210062 -208507791.98606244,80185336.01947922 -215016990.53005797,69988217.70044196 -220342272.52569473,59144016.960677974 -224372853.35382956,47774167.04537485 -227007780.1126098,36015757.52363731 -228157883.71982452,24020909.861642014 -227747716.4073025,11955925.240311967 -225717449.5668199,200.0000002764244" stroke="white" stroke-width="1.5" /></svg>