<?xml version="1.0" encoding="utf-8" ?>
<svg baseProfile="full" height="400" version="1.1" width="400" xmlns="http://www.w3.org/2000/svg" xmlns:ev="http://www.w3.org/2001/xml-events" xmlns:xlink="http://www.w3.org/1999/xlink"><defs /><rect fill="black" height="100%" width="100%" x="0" y="0" /><circle cx="200" cy="200" fill="yellow" r="10.000015056800791" stroke="orange" stroke-width="2" /><polyline fill="none" points="200.09908090651751,200.0 200.0093510220103,200.0004908859393 199.91407612694272,199.99095384922924 199.81408923431195,199.97050464978113 199.71033839846393,199.93832466243498 199.6038826467552,199.89367509601433 199.49588625887674,199.8359111597087 199.38761135436246,199.76449599663061 199.28040876720877,199.67901419521272 199.1757072064298,199.57918468166736 199.0750007226181,199.4648727912382 198.9798345230007,199.33610131262776 198.8917892008702,199.1930602989734 198.8124634694121,199.03611544023403 198.74345551458367,198.86581479599167 198.68634310655932,198.68289369459143 198.64266263404807,198.48827761433859 198.61388725019145,198.28308287521733 198.60140434244502,198.06861498532547 198.60649256148136,197.84636450494287 198.63029866538258,197.61800031283272 198.67381445485293,197.38536018394245 198.73785409251764,197.15043861501516 198.8230321142266,196.91537186458558 198.9297424522961,196.68242020622202 199.0581387994625,196.45394742844485 199.2081166476647,196.23239765122102 199.37929733731426,196.02026956697387 199.57101445018588,195.82008825329257 199.78230287221623,195.63437474456708 200.0118908411415,195.46561359016675 200.25819527786498,195.31621866704748 200.5193206796156,195.18849755430142 200.79306182727345,195.08461481562003 201.0769105286943,195.00655457236942 201.36806658451363,194.95608278440244 201.66345312287493,194.9347096872734 201.95973640498505,194.94365286259261 202.2533501546082,194.98380144227693 202.54052441189023,195.0556819668507 202.81731885564858,195.15942643217537 203.07966047893518,195.2947430675144 203.32338544080977,195.46089039018491 203.5442848534517,195.6566550777638 203.7381541986507,195.88033418751453 203.90084600207712,196.12972223405382 204.0283253283182,196.4021036100189 204.11672759530978,196.69425080045116 204.1624181443606,197.00242879967453 204.16205294236858,197.32240608961752 204.11263973699351,197.64947248088964 204.01159893442596,197.9784640526792 203.85682342392994,198.30379535498264 203.6467365344811,198.61949895722796 203.38034727749925,198.91927234153403 203.05730200677704,199.19653204730275 202.67793161308674,199.4444748773213 202.24329336739328,199.6561458749273 201.75520653383273,199.8245126780382 201.21628089226473,199.94254575004652 200.62993734080655,200.00330388091473 200.00041979172525,200.0000242455374 199.33279762969784,199.9262162019208 198.63295806990214,199.77575791037958 197.90758783468112,199.54299475823913 197.16414366147833,199.22283848397475 196.41081126105263,198.81086581185392 195.65645246315032,198.30341533451917 194.91054041616704,197.69768131809553 194.18308284701084,196.9918030538266 193.48453353633457,196.18494834339145 192.82569232130828,195.27738968330837 192.2175941017381,194.27057170847104 191.67138749401335,193.167168467054 191.19820394931963,191.97112912979162 190.80901832587134,190.68771078683525 190.51450207752808,189.323497055711 190.32487039087272,187.88640131479954 190.2497247673345,186.38565348849556 190.29789270384998,184.8317694427752 190.47726627240093,183.23650220305854 190.79464153305338,181.6127743794685 191.25556083433597,179.97459137704988 191.86416015644065,178.33693517911274 192.62302373436984,176.71563871920537 193.53304825743135,175.12724109958512 194.59331897616175,173.58882416944417 195.80100005576304,172.11783124224627 197.151241494578,170.73186900575197 198.63710487535053,169.4484939577867 200.24951013462632,168.28498498240847 201.97720542055325,167.25810396150476 203.80676196078238,166.3838465924173 205.72259567975595,165.67718584920885 207.70701708839908,165.15181077975433 209.74031071953237,164.81986356895922 211.80084510005722,164.691678016014 213.8652139374692,164.77552276660666 215.90840885533015,165.0773528053862 217.90402364227737,165.6005728457332 219.82448958475078,166.3458163492302 221.6413410381553,167.3107439625025 223.32550995840043,168.489865170955 224.8476476698999,169.8743869343013 226.1784716918387,171.4520929849868 227.28913498691222,173.2072573353982 228.15161454128298,175.12059535136467 228.7391157369903,177.1692555066711 229.02648854459395,179.32685463550195 228.9906511507602,181.56355914693097 228.61101624931678,183.8462142584741 227.8699148716175,186.13852284575805 226.75301231949257,188.40127499470518 225.24971049820255,190.59262878425596 223.35353073408862,192.6684422252885 221.06247100822856,194.58265563960498 218.37933144925213,196.28772308697188 215.31200191099865,197.735090744356 211.87370551887457,198.8757194165701 208.08319220692525,199.66064761913785 203.96487648941405,200.04159093059067 199.54891401894588,199.97157257152057 194.8712118798356,199.40557944098643 189.97336805149334,198.30123713722708 184.9025360520187,196.61949681937293 179.71121143579256,194.32532614054227 174.45693756827373,191.3883959110912 169.2019289328813,187.7837536446359 164.01261113392593,183.4924747094575 158.9590777399264,178.502281464485 154.1144651558874,172.80812051230248 149.55424781250784,166.41268806108212 145.35545710485476,159.32689336187144 141.5958286915586,151.57025028527923 138.3528839656791,143.17118732933884 135.7029527165732,134.16726671407082 133.72014520387017,124.60530372258415 132.47528304465555,114.54137809660473 132.03479945704245,104.0407300876557 132.45962049071477,93.17753470360022 133.80403989057987,82.03454877193288 136.11460116591482,70.7026266622187 139.4290012568341,59.28010186454958 143.7750308851926,47.87203310092366 149.1695672312041,36.58931524203402 155.61763497376174,25.547657000985765 163.11155195619992,14.866429163707664 171.63017577568218,4.66738897705639 181.1382674305303,-4.926711768494783 191.58598778425312,-13.793625474249296 202.9085420082787,-21.8132028364451 215.02598634005463,-28.8690689148778 227.84321043421673,-34.85036584874845 241.25010728945017,-39.65354504784213 255.12194120280017,-43.184189923009285 269.3199224397638,-45.358848573257205 283.6919953188719,-46.10685434589851 298.0738442032773,-45.37211085962315 312.2901194820065,-43.11481695618676 326.1558830263769,-39.31310615223492 339.47826984238077,-33.964574525107366 352.0583597307603,-27.087670610404444 363.69324973957896,-18.722920837967024 374.17831507908375,-8.933964307754934 383.3096429984051,2.191628673670408 390.8866209339029,14.541778896369351 396.7146570681086,27.97958463960498 400.60800832693985,42.34329367303164 402.3926878338899,57.4465802716193 401.90942097748064,73.07914415229568 399.01661657786053,89.00764536543167 393.59331720610146,104.97698593225607 385.54209056168986,120.71194542577757 374.79182199571596,135.91917376897152 361.30036682402505,150.28954029655785 345.0570200491828,163.50083362789957 326.08476054326024,175.2208021661779 304.44222667292166,185.11052011627586 280.22538080823244,192.82805884921692 253.56882117676693,198.032438288063 224.64670112989091,200.3878278070401 193.67321809763504,199.5679609848212 160.9026373354497,195.26072350055253 126.62881901644742,187.17286857683393 91.18422129536485,175.0348097294554 54.938356656409525,158.60543625309535 18.29568413919219,137.6768929302953 -18.30707411071046,112.07926197290176 -54.40419713197369,81.68508226513923 -89.50480856376953,46.413638648156564 -123.09729015363774,6.234952337158205 -154.65424862510878,-38.826597339867334 -183.6380111682481,-88.68908978693565 -209.50661658302937,-143.21038770453947 -231.72026073080116,-202.18603682953204 -249.7481465279635,-265.34780567421024 -263.07568034988424,-332.36292647391247 -271.2119485098251,-402.8340939345984 -273.6973995502226,-476.3002727409447 -270.1116505491131,-552.2383581436454 -260.08132862287385,-630.0657263067693 -243.28785241949817,-709.1437024905547 -219.47505276626384,-788.7819656141432 -188.4565268826127,-868.2438973430083 -150.1226168112358,-946.7528726485934 -104.44690007117742,-1023.4994768785361 -51.49207910335474,-1097.6496218556163 8.584844039381863,-1168.3535205068422 75.5282200191896,-1234.7554661396643 148.98034104967434,-1296.0043488720214 228.47907141770742,-1351.2648280410376 313.45661895236657,-1399.7290658270947 403.23953915768135,-1440.6289140109507 497.05005453448615,-1473.2484329154634 594.0087607830931,-1496.9366093605663 693.1387791274263,-1511.1201290755712 793.3713999794276,-1515.3160486646086 893.5532476388549,-1509.1442031069378 992.454978791055,-1492.3391770902801 1088.7815093397417,-1464.7616624135328 1181.1837447336338,-1426.4090194391656 1268.2717685788384,-1377.4248582994537 1348.6294231601962,-1318.1074554250965 1420.8301937341118,-1248.9168231149467 1483.4542863337858,-1170.4802544279016 1535.106766596196,-1083.5961727571805 1574.4366050478725,-989.2361251238426 1600.1564526587752,-888.544770554106 1611.0629495892138,-782.8377299078675 1606.0573502232535,-673.5971811966314 1584.1662291208995,-562.4651047263507 1544.5620157516723,-451.23410524818746 1486.583091116166,-341.8357635843612 1409.7531669381108,-236.3264977657688 1313.7996583280524,-136.8709433830216 1198.6707539798726,-45.72289438433879 1064.5508843449177,34.796121314919645 911.874288096432,102.32052262039204 741.3363807843836,154.46646827488766 553.9026370920548,188.85958197726046 350.81470971014414,203.16439335489497 133.59352367192022,195.11524268686583 -95.9608948707197,162.5483621552123 -335.77307196665583,103.43481250217835 -583.4994089995645,15.9139217952889 -836.5393302729958,-101.67315693462461 -1092.0503724607402,-250.7501795924744 -1346.9672921607996,-432.4732707556069 -1598.0252229090395,-647.6995636374462 -1841.7868647302178,-896.9574904498822 -2074.6736380027255,-1180.4192043276896 -2293.0006795244944,-1497.8756197210312 -2493.0155026889724,-1848.714558233747 -2670.9400861668732,-2231.902480903788 -2823.0160970561674,-2645.9702755585904 -2945.5528957729603,-3089.0035488570998 -3034.977911723598,-3558.637846743314 -3087.8889217783676,-4052.0591941458115 -3101.1077085496972,-4566.010304803338 -3071.7345232817684,-5096.802765102667 -2997.202729622243,-5640.335441894787 -2875.3329605188746,-6192.119303615496 -2704.386081814193,-6747.308776981381 -2483.114223640201,-7300.739688466901 -2210.8091152607753,-7846.973761198253 -1887.3469413590456,-8380.349554435035 -1513.2289286633033,-8895.039645160783 -1089.6168719321424,-9385.113760279115 -618.3628182960555,-9844.607474420134 -102.03214931260453,-10267.5959933985 456.0806687213522,-10648.272448014455 1051.9443533072617,-10981.030028312234 1680.7917265055494,-11260.547195833995 2337.129856080704,-11481.875122118543 3014.759908544715,-11640.526417024073 3706.8071177173883,-11732.564131763858 4405.761173618461,-11754.689950214311 5103.527227294538,-11704.330419467411 5791.487588222213,-11579.720018114274 6460.574063048708,-11379.979819699682 7101.350748621997,-11105.190480448746 7704.106949685022,-10756.45826594514 8258.959743583107,-10335.972832045652 8755.965562335594,-9847.055491945815 9185.240008078035,-9294.196734834573 9537.084962952918,-8683.081812706281 9802.121900902022,-8020.603281177973 9971.430158491661,-7314.859467943749 10036.68877697476,-6575.137948934468 9990.320390423187,-5811.883237261284 9825.6355071684,-5036.6480333013105 9536.975416206846,-4262.027545266465 9119.851848903352,-3501.5765674719305 8571.081441476492,-2769.709197203957 7888.9129775317115,-2081.581279227822 7073.14534439434,-1452.955887955551 6125.234114138066,-900.0523892198728 5048.384661805545,-439.3798643238458 3847.6297609964126,-87.55592614970493 2529.889652155578,138.88779203047838 1104.0126626850165,223.71194266559888 -419.20542869816813,151.18578304460897 -2027.0249475599094,-93.6885185769014 -3704.79028982497,-524.9458510804011 -5435.983584995255,-1155.4248869241023 -7202.305109658798,-1996.534257922042 -8983.781242178684,-3058.0210586502994 -10758.900459787685,-4347.744719795384 -12504.777564016864,-5871.459430933837 -14197.345981652878,-7632.608399043738 -15811.57762890527,-9632.13330214235 -17321.729449241142,-11868.302333646208 -18701.615343923342,-14336.560229443307 -19924.90181258564,-17029.40362362862 -20965.425213505223,-19936.284988117026 -21797.52814425764,-23043.548274044882 -22396.412038165134,-26334.39918759358 -22738.502675665935,-29788.912798709152 -22801.824927969406,-33384.080897787586 -22566.382688843,-37093.901182975 -22014.539614956793,-40889.50998015141 -21131.395991806672,-44739.35977042888 -19905.156776769763,-48609.442328295525 -18327.48564915937,-52463.5577602668 -16393.839724927766,-56263.62918266051 -14103.779476373298,-59970.062192212274 -11461.248339980157,-63542.14766971672 -8474.816503087593,-66938.50582042582 -5157.883436698536,-70117.56870194715 -1528.8338910662271,-73038.097827881 2388.857704248171,-75659.73277101197 6566.579191096887,-77943.56603166887 10970.593356992806,-79852.73879350713 15562.115243095934,-81353.05156941222 20297.457454015213,-82413.58315382004 25128.246217139873,-83007.31075397343 30001.710243130565,-83111.72368113701 34861.043670970255,-82709.42255316653 39645.843545327145,-81788.69560157885 44292.62137679848,-80344.06339862966 48735.38738392101,-78376.78313172329 52906.30501784245,-75895.3034620939 56736.41233556585,-72915.66101978786 60156.40572609473,-69461.80971440687 63097.48041705387,-65565.87428679274 65492.22110981731,-61268.31989571368 67275.53502207818,-56618.03002929697 68385.61857214989,-51672.285655784224 68764.9479337303,-46496.639283037766 68361.28273850914,-41164.67848041036 67128.67132232401,-35757.674427777805 65028.44511421579,-30364.112190652886 62030.18907230077,-25079.100671464817 58112.67449129585,-20003.66154758855 53264.74005879291,-15243.897966935077 47486.106735342124,-10910.045320383124 40788.11189058965,-7115.408033685777 33194.34815657789,-3975.1880045665366 24741.192670965916,-1605.2120365532403 15478.212787002927,-120.5673711190683 5468.434931431332,365.8438262681809 -5211.535897987513,-255.18156591574018 -16471.557483223896,-2087.579491626154 -28208.162841236386,-5228.41233832709 -40304.95259821066,-9766.241776549745 -52633.17444928281,-15779.499711255385 -65052.49502274317,-23334.877528622394 -77411.96743030207,-32485.75494754809 -89551.1955702973,-43270.6907211725 -101301.69387441325,-55711.998155747664 -112488.4386693096,-69814.4288988829 -122931.60468427984,-85563.98867466576 -132448.47749942046,-102926.90858922659 -140855.5299233885,-121848.79527894779 -147970.64744593087,-142253.98250915465 -153615.48506080383,-164045.1058410793 -157617.93493453588,-187102.92065966752 -159814.68164275313,-211286.3821884311 -160053.81904721138,-236433.0041079217 -158197.50038325696,-262359.51004353847 -154124.5908100054,-288862.78950268467 -147733.28958541044,-315721.16683166294 -138943.6872067834,-342695.98844504746 -127700.22134489474,-369533.5299750867 -113973.99423603379,-395967.22112164827 -97764.91341917314,-421720.1818848633 -79103.61735024046,-446508.059568492 -58053.14752510101,-470042.15149236 -34710.329326451334,-492032.79379200074 -9206.824902555683,-512192.992062222 18290.176991874338,-530242.2649720246 47577.66709504956,-545910.6673982625 78416.94785834102,-558942.955154938 110534.21868848852,-569102.8490969456 143621.63727906113,-576177.3523165177 177338.8757209032,-579981.0703939972 211315.18517805808,-580360.4812789055 245151.97751251503,-577198.0984296028 278425.92637182836,-570416.4683962036 310692.583959974,-559981.9421558477 341490.5030436315,-545908.1582634419 370345.84676129423,-528259.1753222264 396777.4615668633,-507152.19145989174 420302.3812259133,-482759.7894648818 440441.7222719557,-455311.64803466835 456726.9238086727,-425095.6622461538 468706.27710505726,-392458.41990280844 475951.6831719069,-357804.98485867475 478065.5695323344,-321597.9437712157 474687.8908117727,-284355.67898717494 465503.13168229134,-246649.83740074735 450247.2252108682,-209101.9731117262 428714.29489045363,-172379.35051075937 400763.1246833864,-137189.9039742238 366323.2583830927,-104276.3605942783 325400.6276016717,-74409.54321903449 278082.60681149754,-48380.88243914401 224542.39419413483,-26994.177923364077 165042.61865640694,-11056.661557621606 99938.07632717288,-1369.4270489393332 29677.504202709093,1282.6971241596427 -45195.69559674531,-3858.2575494026205 -124043.86023739055,-17512.437934458972 -206136.66979554476,-40350.95270202348 -290654.0104466721,-72984.52366997534 -376690.1459440048,-115952.13766384947 -463259.23309822124,-169709.84041610532 -549302.2026410236,-234619.8217437393 -633695.0113011369,-310939.9476264671 -715258.2542527393,-398813.8996819972 -792768.1094459903,-498262.08573915885 -864968.5668516061,-609173.4865926645 -930584.8765201503,-731298.6034454041 -988338.1297664802,-864243.6678815525 -1036960.8679534325,-1007466.2713598164 -1075213.5934967436,-1160272.5640845632 -1101902.0380911115,-1321816.163639434 -1115895.0240248982,-1491098.9019144697 -1116142.736079017,-1666973.5246118475 -1101695.204173439,-1848148.4409939165 -1071720.7809178184,-2033194.6025881006 -1025524.3838289616,-2220554.568366388 -962565.2594841097,-2408553.7905854066 -882474.0165681667,-2595414.1301540313 -785068.6669195269,-2779269.583271018 -670369.408545176,-2958184.1723615467 -538611.8824074207,-3130171.9242898063 -390258.6358075312,-3293218.8277192656 -226008.52960664398,-3445306.629648967 -46803.83450386818,-3584438.2989202305 146165.2267248936,-3708664.9522384214 351458.718633712,-3816114.006388709 567388.2224061305,-3905018.289265467 792021.2400480855,-3973745.812522793 1023188.9313704886,-4020829.880542318 1258497.3107728853,-4044999.1844683248 1495341.9963071968,-4045207.506746671 1730926.5655041493,-4020662.6413897853 1962284.5312263456,-3970854.1185336653 2186304.9066675543,-3895579.3092003535 2399761.2819011444,-3794967.4779563798 2599344.2855003052,-3669501.3477626797 2781697.254172108,-3520035.743110569 2943454.8815820715,-3347812.8848571433 3081284.5651599467,-3154473.9232899765 3191930.117281367,-2942066.315091043 3272257.4554650807,-2713046.6751986486 3319301.835798004,-2470278.766182798 3330316.145416958,-2217026.325682183 3302819.724275601,-1956940.4766510683 3234647.1443608226,-1694041.5155010987 3123996.3367554387,-1432694.9294820128 2969475.4242309956,-1177581.5565229165 2770147.5901408396,-933661.8678585812 2525573.2939931313,-706134.425608694 2235849.1309066555,-500388.6434858343 1901642.6268356885,-321952.0583133592 1524222.2645872338,-176432.4022829852 1105482.047770658,-69454.85003363526 647959.931368685,-6594.899769741149 154849.47896086413,6692.567235936197 -369995.8519653192,-34852.57964914872 -922066.3435574822,-136219.1037745256 -1496208.055052454,-302046.09042928607 -2086643.677134226,-536543.8047004262 -2687002.534160011,-843414.648931328 -3290359.9735787353,-1225775.2119267844 -3889286.281111251,-1686080.454990331 -4475905.1510345,-2226051.1233658474 -5041961.624003905,-2846605.504514286 -5578899.281199475,-3547796.675767535 -6077946.354278534,-4328756.39221561 -6530210.276890903,-5187646.760239895 -6926780.06672839,-6121620.822050486 -7258835.788737003,-7126793.141191187 -7517764.211832655,-8198221.427653626 -7695279.63495464,-9329900.173564626 -7783548.7253829,-10514767.18612534 -7775318.084828907,-11744723.803521745 -7664043.138839897,-13010669.462035133 -7444016.834521833,-14302551.148910278 -7110496.532497348,-15609428.126270209 -6659827.393366798,-16919552.147311214 -6089560.4887028765,-18220463.208216645 -5398563.813684624,-19499100.68899365 -4587124.344686142,-20741929.53528908 -3657039.272177468,-21935080.922952365 -2611694.5487294644,-23064506.629692107 -1456128.9251215297,-24116146.115842078 -197081.70571037018,-25076105.09145155 1156977.4617225712,-25930844.12227219 2595838.3357788785,-26667375.605541404 4107560.8073986103,-27273467.230706587 5678507.873725329,-27737849.833486628 7293401.940058418,-28050427.35709565 8935405.312217342,-28202486.45529846 10586225.498470565,-28186903.11148496 12226245.67302252,-27998343.50939818 13834680.36361919,-27633456.277706794 15389756.116238361,-27091053.14538384 16868916.562573735,-26372274.990781713 18249050.973992154,-25480740.24714178 19506745.032103535,-24422672.643564437 20618552.184666302,-23207005.31543937 21561283.59021764,-21845458.413888995 22312314.289858274,-20352587.481454577 22849902.884596273,-18745800.042154785 23153521.646373972,-17045338.078813426 23204193.655377384,-15274224.339341361 22984833.240620654,-13458170.726052279 22480585.710368503,-11625447.377147209 21679162.09900835,-9806711.445646368 20571164.432782773,-8034795.016107059 19150396.833532326,-6344452.070639981 17414157.6422905,-4772064.919575153 15363507.65801245,-3355311.0445588436 13003509.555376707,-2132791.858172279 10343433.573564788,-1143625.4590319092 7396924.658820577,-427006.0488512513 4182126.40050677,-21733.271654932916 721757.3257737756,34284.67173529844 -2956864.5863744398,-295450.30389773694 -6821852.943868431,-1045490.7154053625 -10836842.866994726,-2247896.829187543 -14961142.624916818,-3931684.812752268 -19149949.22919995,-6122276.253699502 -23354629.584989984,-8840956.000985699 -27523068.092114177,-12104345.646098396 -31600080.821442287,-15923900.257823512 -35527895.57199299,-20305436.205470398 -39246696.24813977,-25248698.04396104 -42695229.09155817,-30746972.48284828 -45811467.3678954,-36786757.41344569 -48533330.15320245,-43347493.81800305 -50799449.90043353,-50401368.12722342 -52549982.50314578,-57913192.223419376 -53727452.624015555,-65840367.80338248 -54277626.13264521,-74132941.2159434 -54150400.61362152,-82733754.1739349 -53300704.07554264,-91578694.90993766 -51689391.22866609,-100597053.40244077 -49284126.016913876,-109711983.24804907 -46060238.50314549,-118841071.60197482 -42001543.7285271,-127897017.36073609 -37101109.81072508,-136788416.42692825 -31361962.32412718,-145420651.48697948 -24797711.930125955,-153696882.2614936 -17433092.307406537,-161519130.6681974 -9304395.680682689,-168789453.7853705 -459793.66947752726,-175411195.93603978 9040468.217215523,-181290309.64865103 19124013.324618585,-186336733.70803452 29706423.74018282,-190465815.01200643 40691486.06491563,-193599759.51537544 51971600.45313154,-195669096.19670352 63428358.769333065,-196614136.74644625 74933295.99882476,-196386412.57082722 86348817.17048244,-194950069.75657687 97529300.01799199,-192283201.86969957 108322371.43486936,-188379099.88818473 118570353.48635866,-183247398.21450943 128111872.34826773,-176915095.59794334 136783621.0719908,-169427429.93652216 144422264.55186537,-160848586.33940464 150866472.52354893,-151262218.52529123 155959063.8803194,-140771764.6220075 159549243.09007546,-129500539.72362797 161494907.06309712,-117591589.15888686 161664998.49423584,-105207288.32857849 159941879.51937562,-92528677.1772124 156223697.5212336,-79754519.86803843 150426713.13106892,-67100083.01961113 142487558.93702948,-54795628.92048467 132365396.16310757,-43084623.44666764 120043935.65945496,-32221661.93944467 105533288.97871329,-22470120.030431625 88871615.13453549,-14099540.29281766 70126528.87632744,-7382769.615351769 49396236.992744036,-2592866.2969902703 26810370.297358226,199.999999967167" stroke="white" stroke-width="1.5" /><circle cx="191.49830218033995" cy="249.27191019417847" fill="red" opacity="0.7" r="14.99573603041505" /><circle cx="180.69113542661592" cy="246.1212288310569" fill="red" opacity="0.7" r="14.99573603041505" /></svg>