<?xml version="1.0" encoding="utf-8" ?>
<svg baseProfile="full" height="400" version="1.1" width="400" xmlns="http://www.w3.org/2000/svg" xmlns:ev="http://www.w3.org/2001/xml-events" xmlns:xlink="http://www.w3.org/1999/xlink"><defs /><rect fill="black" height="100%" width="100%" x="0" y="0" /><circle cx="200" cy="200" fill="yellow" r="20" stroke="orange" stroke-width="2" /><polyline fill="none" points="198.8820786341431,200.0 198.92355638144852,199.94349162730836 198.97464739091888,199.89204985803238 199.03514393868872,199.84692243435254 199.10470026440638,199.80937095865727 199.18282739305224,199.7806564184535 199.26888938385918,199.76202375904316 199.36210114832673,199.75468563242646 199.46152796930213,199.75980546975458 199.56608684077034,199.778480042948 199.67454973334864,199.81172169855432 199.78554887354824,199.86044046327112 199.89758410570175,199.9254262355228 200.00903238415114,200.007331290783 200.1181594199668,200.10665333969146 200.22313348128083,200.2237193871628 200.3220413194532,200.35867064735518 200.4129061649719,200.51144877331697 200.49370770747026,200.68178366112218 200.56240394381686,200.86918308613528 200.61695474720753,201.0729244235242 200.6553469789178,201.29204869611326 200.67562093322397,201.52535718001315 200.675897875372,201.77141078209561 200.65440840277898,202.02853238325278 200.6095213313249,202.29481231749332 200.53977278207674,202.56811712932458 200.44389511953372,202.84610172064714 200.32084537094536,203.12622496369025 200.16983273788105,203.40576881854506 199.9903447964645,203.68186095285697 199.78217197195187,203.95150081752917 199.54542986703106,204.2115890862281 199.28057902173128,204.45896031848076 198.98844168649157,204.69041865668697 198.67021519904878,204.90277631694542 198.3274815706182,205.09289458278363 197.96221290755244,205.25772696028554 197.57677232141336,205.39436410337854 197.1739100132502,205.50008006984405 196.7567542568428,205.5723794226594 196.32879705066892,205.60904464828351 195.89387425923184,205.60818332419743 195.4561401208989,205.56827443314174 195.0200360612304,205.48821319178455 194.59025381750337,205.3673537377226 194.17169295126112,205.20554900145405 193.769412900648,205.00318707991954 193.3885798023514,204.76122342599626 193.03440839340018,204.4812081744998 192.71209938502477,204.1653079402874 192.42677278334648,203.81632144836635 192.18339771385098,203.43768838981725 191.98671938736007,203.03349094105818 191.84118392345198,202.60844743762107 191.75086182184674,202.16789775718118 191.71937094199947,201.71778003994663 191.7497999148361,201.26459845742573 191.84463296703015,200.81538183264757 192.0056771862649,200.37763301558886 192.23399329439545,199.9592690261772 192.5298310231955,199.56855209298266 192.89257020338627,199.2140118376108 193.3206686809094,198.90435898176673 193.81161816402914,198.6483910847338 194.36190908004895,198.45489095222592 194.96700548054056,198.33251849174243 195.62133097850295,198.2896969230649 196.31826662943317,198.33449438369186 197.05016158072553,198.47450209601033 197.8083572101268,198.71671038400277 198.58322535437307,199.06738394037137 199.36422109404222,199.5319378481961 200.13995041071445,200.11481595268012 200.89825286861839,200.81937325625418 201.6262992961467,201.6477640724183 202.31070425429905,202.60083771838262 202.93765288081406,203.67804355210228 203.49304149229042,204.87734716408653 203.96263111398747,206.195159516948 204.33221289047424,207.62628078477803 204.58778411229238,209.16386057902108 204.71573337692527,210.79937615674888 204.70303318939818,212.52263009053343 204.537438101682,214.32176873620202 204.20768629375618,216.18332266565028 203.70370231580927,218.09227003693906 203.01679854376044,220.03212365380486 202.13987275223624,221.9850422225224 201.06759908346046,223.93196604719867 199.79660959027416,225.85277711685 198.32566345964946,227.7264832312021 196.6558009823878,229.53142548961335 194.79047932779554,231.2455081317931 192.73568721135666,232.84644937335645 190.50003561082656,234.312051527366 188.09482179347407,235.62048834881432 185.53406406573455,236.75060718675562 182.8345048472236,237.68224318300764 180.01557990434318,238.3965424217552 177.09935185454665,238.87629061590474 174.1104063701293,239.1062436187063 171.07570986903823,239.07345577809275 168.02442787791702,238.76760191151303 164.98770368709478,238.1812884758478 161.99839738554323,237.3103493452581 159.0907858624089,236.15412149431972 156.30022488639622,234.71569581907758 153.66277492025694,233.0021383189116 151.21479288956263,231.02467691115373 148.99249269688164,228.79884926155208 147.03147784799964,226.34460718972764 145.3662501289992,223.68637345186326 144.02969883450325,220.85304701447174 143.05257559048817,217.87795331392513 142.4629603317997,214.79873644638263 142.28572447665957,211.65719075087245 142.5419977797232,208.49902983267265 143.24864573329725,205.37359172197603 144.41776471489607,202.33347957029648 146.05620234033444,199.43413804938183 148.16511066724823,196.7333664287181 150.7395399969493,194.2907701612481 153.76808103604105,192.16715369487574 157.23256309707585,190.42385814096056 161.10781583434664,189.12204836066957 165.36150172217964,188.3219549652575 169.9540260853599,188.08207765583205 174.8385309822135,188.45835723997544 179.96097861927964,189.5033245442199 185.26032924261412,191.26523527981496 190.66881760619242,193.78720070116304 196.11233116571367,197.10632460822168 201.51089209098708,201.25285787253145 206.7792440382383,206.24938219791588 211.82754338295786,212.11003524820842 216.56215329380603,218.83978957297626 220.88653763969586,226.43379792620559 224.7022502781955,234.87681759122333 227.91001378806084,244.14272618778065 230.41088019774398,254.19414113549573 232.10746474218809,264.9821544744809 232.905242170463,276.44619409337906 232.71389364623616,288.5140215834081 231.4486908520956,301.1018759225933 229.03190254846155,314.11477099753455 225.39420756989998,327.44695359347725 220.47609708804512,340.98252693221684 214.22924795304877,354.5962431190833 206.61784806629475,368.15446598508566 197.61985405732057,381.5163037911025 187.22816105794428,394.5349091132239 175.45166410585819,407.05894097012197 162.31619068635405,418.93418190531264 147.86528415054755,430.0053003226111 132.1608182455908,440.1177459175253 115.28342376862912,449.1197635785826 97.3327094206906,456.8645086805074 78.42726029537711,463.2122442873315 58.70439909293705,468.03259846111104 38.31969710234682,471.2068576652645 17.4462242379754,472.63027019583257 -3.7264700551220074,472.21433170491304 -24.993650414688545,469.88902323386344 -46.136966027965485,465.6049707849771 -66.9262969996152,459.3354943637948 -87.12187217420859,451.07851365320994 -106.47665029327061,440.8582770664518 -124.73895254855006,428.7268808979996 -141.65533066770138,414.7655456756099 -156.97365067756482,399.08561763585135 -170.4463684789909,381.8292645187154 -181.83396938419935,363.1698366186105 -190.90853986447348,343.3118662490648 -197.45743598643435,322.49068148116726 -201.28700943506993,300.9716131998795 -202.2263486883703,279.0487781804953 -200.13098987979384,257.0434250059364 -194.88654921897472,235.30183420386678 -186.41222659555172,214.19276895350973 -174.66412822180115,194.1044780614216 -159.6383549308565,175.44125859202418 -141.37380208958768,158.61959151436213 -119.95461705581391,144.06386993629417 -95.51226075090426,132.20174587960872 -68.22712126790424,123.4591280365253 -38.32962952274042,118.25486946602253 -6.100829805297565,116.99519065841345 28.12763828619927,120.06788973487087 63.97418563308494,127.83639766752283 101.00858101900403,140.63374221447623 138.75394813731182,158.75648966966503 176.68947342292066,182.45873843548853 214.2538385247114,211.94624274245936 250.84938314170125,247.37074847117123 285.84699523990935,288.82462588677356 318.59171641449393,336.33588608730764 348.40904044176625,389.8636690120983 374.61187296772357,449.29429087853464 396.5081099040845,514.437937846249 413.4087815599247,585.0260904871126 424.6366989468577,660.7097602181423 429.5355281868593,741.0586141945092 427.47920866045797,825.5610592363246 417.88162060171453,913.6253481649659 400.20639842283776,1004.5817634563193 373.9767772866635,1097.685923400067 338.7853524927357,1192.1232450229259 294.3036242556784,1287.0145859445013 240.29119458451424,1381.4230741598747 176.60447836640927,1474.362120574509 103.20478755999902,1564.8045940641707 20.165645745975922,1651.6931230233463 -72.32080971017388,1733.9514709461816 -173.93847884513656,1810.496916717651 -284.24314094015966,1880.253553159277 -402.65961871579634,1942.1664001688318 -528.480388953148,1995.2162117258135 -660.8657539394094,2038.4348393262544 -798.8456763879904,2070.920998292968 -941.3233666724991,2091.856268121068 -1087.0806953729457,2100.521143809294 -1234.7854863227979,2096.3109422442335 -1383.0007256566334,2078.751356395927 -1530.1957009093167,2047.5134405960355 -1674.7590611577025,2002.4278027434336 -1815.013764703867,1943.4977741473697 -1949.2338550835902,1870.9113250926396 -2075.662979483355,1785.0514942950715 -2192.5345362292082,1686.505103389672 -2298.0933101652777,1576.0695336145193 -2390.6184267853705,1454.7573510500158 -2468.4474282593483,1323.7985792439438 -2530.001247366746,1184.64043386187 -2573.8098291907363,1038.9443531768115 -2598.5381256265796,888.580180738671 -2603.0121647195742,735.6173823869378 -2586.2448759727745,582.3132087891395 -2547.4613344592003,431.09774675562767 -2486.123071236535,284.55583750373745 -2401.9510855840294,145.40587757780196 -2294.9471863358744,16.475557984329413 -2165.413285424535,-99.32536106726548 -2013.9682669976082,-199.0350990057911 -1841.5620604244625,-279.672541929483 -1649.4865554177122,-338.27233717611057 -1439.3830125684167,-371.9221193587939 -1213.245642990868,-377.8015467638178 -973.4210565958945,-353.22278295405886 -722.6033098030218,-295.6720159603933 -463.8243202384482,-202.85156720835488 -200.4394580553914,-72.72210496799079 63.89182920921439,96.45555671134474 325.2304491027543,306.079622255127 579.387188057329,557.1680154764504 821.9572994446587,850.3212099405462 1048.3600639670763,1185.6877948181423 1253.8831624255172,1562.9333888576407 1433.7316302966656,1981.2135145202606 1583.0810910810164,2439.151036084299 1697.134891828469,2934.818749224646 1771.184690450349,3465.727684874262 1800.6739712884703,4028.821656820436 1781.2638938869065,4620.478540315665 1708.9008109982929,5236.518717924553 1579.8847265859356,5872.221068925195 1390.9379040118995,6522.346809987603 1139.2727797973512,7181.171417835584 822.6582903734053,7842.524779555366 439.4836791624596,8499.839623664455 -11.181179831097722,9146.208185646863 -529.5299270011252,9774.446956173617 -1114.9693262010715,10377.169249564233 -1766.075332141792,10946.865215236989 -2480.5565966750805,11475.988797093964 -3255.226367691228,11957.05102625486 -4085.98369387817,12382.718912663575 -4967.804794039434,12745.919082312437 -5894.745380781294,13039.945190708293 -6859.954645057807,13258.568031371979 -7855.701510370908,13396.147152289876 -8873.413653617303,13447.742695043486 -9903.729664099661,13409.226082566047 -10936.564573721165,13277.388103847275 -11961.188840711284,13050.042879142306 -12966.320707446572,12726.12613900732 -13940.231681299854,12305.786216376882 -14870.8647074518,11790.466134424667 -15745.964415909193,11182.975175495098 -16553.218633467703,10487.548339198358 -17280.410157093993,9709.892141903336 -17915.577590416055,8857.215276216983 -18447.183852086797,7938.242738270545 -18864.290776253423,6963.212143164208 -19156.73804385899,5943.851084911502 -19315.324511754436,4893.334556554521 -19331.98984739992,3826.221628371244 -19199.9942331012,2758.3707865341653 -18914.093778082155,1706.8335601492895 -18470.709172019066,689.726309914824 -17868.085032660227,-273.9196850397229 -17106.437345421986,-1164.3294263108091 -16188.086366830197,-1961.1759727515137 -15117.57236860628,-2643.791782155518 -13901.751637099136,-3191.3982945290927 -12549.870215367551,-3583.352117649417 -11073.612983947814,-3799.405859112338 -9487.125822265662,-3819.981335705616 -7807.00877644085,-3626.45258481184 -6052.278381145965,-3201.435807941966 -4244.297542999469,-2529.0830978622384 -2406.671690014682,-1595.3765426400948 -565.1102246805995,-388.4190668819242 1252.74731440901,1101.2818329528786 3017.5405781101394,2880.5414714847525 4698.43298665973,4953.240618549959 6263.390876825785,7320.087635345351 7679.496052880291,9978.404374495844 8913.29008433055,12921.940106683556 9931.148187220268,16140.71767356039 10699.680012694118,19620.915947297715 11186.154152322053,23344.7924990106 11358.942660727334,27290.6501397119 11187.981399038334,31432.85069732318 10645.241524568712,35741.8790312043 9705.207000139071,40184.45986201901 8345.352577958327,44723.7295106787 6546.616335432204,49319.464097570686 4293.860511100491,53928.36515511795 1576.3141154585235,58504.40295665371 -1612.0094191759745,62999.21716723029 -5271.926426499517,67362.57368282718 -9398.735973326307,71542.87574989029 -13981.918530319896,75487.72665445096 -19004.887166244578,79144.5404473937 -24444.797889317597,82461.19633860851 -30272.4254674032,85386.73155744551 -36452.11066864319,87872.06665034899 -42941.78437393775,89870.75637967314 -49693.07342187659,91339.75861182736 -56651.49235587845,92240.21284978143 -63756.7244543253,92538.21938657746 -70942.99454062298,92205.60944495148 -78139.53509601479,91220.69613553437 -85271.14613969767,89568.99562430421 -92258.84820587767,87243.90756058358 -99020.62654482081,84247.34359097808 -105472.2634151531,80590.292682671 -111528.25402947523,76293.31201098111 -117102.80037797395,71386.93233960083 -122110.87579962077,65911.96714482179 -126469.35181342992,59919.71521331444 -130098.17737982997,53472.04708110292 -132921.59945218565,46641.36648204428 -134869.4124193649,39510.43893831139 -135878.2228510228,32172.080752042464 -135892.71485748558,24728.702943321226 -134866.90038539775,17291.706119693976 -132765.3379083151,9980.723848863043 -129564.30225749101,2922.7138291444257 -125252.88779103935,-3749.1020005833593 -119834.02673744458,-9896.445313028566 -113325.40438889804,-15377.332059103408 -105760.25287669234,-20047.558678914604 -97188.00554875477,-23762.314412824046 -87674.7945002157,-26377.908065902422 -77303.77459138921,-27753.59537407034 -66175.25833085431,-27753.490939793584 -54406.64730888495,-26248.546578139143 -42132.147439728134,-23118.57587034382 -29502.257108396414,-18254.302792807528 -16683.019413533486,-11559.410506255734 -3855.0320438005906,-2952.564784689935 8787.789091329403,7630.614831447684 21039.693550723612,20235.664227317597 32684.825439020457,34887.49320233764 43499.192757316654,51588.74278779183 53252.868579109716,70318.31117824397 61712.412152342564,91030.07796054607 68643.49449408293,113651.85584717449 73813.70946530529,138084.59824836763 76995.54773091406,164201.88973435597 77969.50746896194,191849.74473347265 76527.3122397228,220846.7376768915 72475.20310875519,250984.48523404237 65637.26898874418,282028.49828738923 55858.77627421224,313719.4178798048 43009.45624306745,345774.6455465571 26986.70644123563,377890.374237323 7718.66040231104,409744.02146820433 -14832.92136720698,440997.0614521562 -40669.98713759049,471298.2477775925 -69755.80483732343,500287.2127844336 -102012.89628405447,527598.4241756719 -137321.34219193485,552865.4736577423 -175517.50394844412,575725.6665871422 -216393.20605191073,595824.8757813543 -259695.4203123194,612822.6169014234 -305126.4894313744,626397.297207679 -352344.9233897663,636251.5841084386 -400966.7971852965,642117.8348461051 -450567.7728991199,643763.5239795838 -500685.76284236996,640996.6011106515 -550824.2436852198,633670.7076491195 -600456.2240383355,621690.1784001412 -649028.8599962366,605014.7514671719 -695968.7047267244,583663.908472849 -740687.5693743735,557720.766479372 -782588.963422123,527335.4433058728 -821075.0733164806,492727.81925159856 -855554.2287104945,454189.620590871 -885448.7962243742,412085.75364937104 -910203.4312839967,366854.82283134706 -929293.609496382,319008.77166189917 -942234.3502876568,269131.5927426328 -948589.0372964066,217877.06048408773 -947978.2324196753,165965.44955108615 -940088.3735871684,114179.21209877415 -924680.2404283562,63357.59803315318 -901597.0671316356,14390.21462944498 -870772.1781049652,-31790.46520263547 -832236.0196581745,-74217.62300949654 -786122.4599553398,-111899.60590260694 -732674.2300380899,-143830.37651162164 -672247.3808928092,-169000.8344261282 -605314.6354079101,-186410.92640990543 -532467.5197072868,-195082.44731101702 -454417.16580100666,-194072.41842154285 -371993.6867931507,-182486.91526380985 -286144.03703694604,-159495.2026056811 -197928.28261489636,-124344.02115254971 -108514.22230714385,-76371.85804911132 -19170.31573210872,-15023.022272673677 68743.1064903345,60138.663566267765 153784.35600674112,149416.75136268264 234442.60779923646,252969.83788791747 309151.79112478526,370800.22351447126 376306.0890700531,502743.76693736017 434276.9613435575,648461.1425750486 481431.58024913253,807430.703738064 516152.5448230483,978943.1482916797 536858.7131629915,1162098.1743043652 542026.9683413524,1355803.30098842 530214.7093057496,1558775.0150573761 500082.8351681718,1769542.3844346488 450418.96962274227,1986453.2600741414 380160.65227022464,2207683.1625598394 288418.20572712936,2431246.9232420647 174496.97191932195,2655013.1200890183 37918.5982592341,2876721.3163728076 -121558.95517389127,3094002.076002246 -303923.02246168366,3304399.693036175 -508889.79006699973,3505397.5349805425 -735890.1421676832,3694445.86025115 -984058.1228734148,3868991.9300733367 -1252222.3346430215,4026512.1945289606 -1538900.5770962986,4164546.2919251896 -1842298.0104937789,4280732.560654035 -2160309.103367478,4372844.723769637 -2490523.5941073257,4438829.369187935 -2830236.661783806,4476843.813283475 -3176463.4622220485,4485293.903303947 -3525958.141507198,4462871.285033708 -3875237.3909349865,4408589.637099012 -4220608.555233572,4321819.352795454 -4558202.2500532,4202320.134891219 -4884009.385700008,4050270.959050739 -5193922.43239901,3866296.857829714 -5483780.698598389,3651491.9800708275 -5749419.328626545,3407438.390383729 -5986721.660099787,3136220.0905673755 -6191674.515624993,2840431.7696048175 -6360425.938371549,2523181.821430548 -6489344.817866655,2188089.210155341 -6575081.791802676,1839273.8108600904 -6614630.752665482,1481339.9103679166 -6605390.235547075,1119352.6163991943 -6545223.916551284,758806.9949273911 -6432519.410689606,405589.8339919586 -6266244.525030376,65934.01718481634 -6046000.098015566,-253634.41911384725 -5772068.540158868,-546356.3746488146 -5445457.185595447,-805306.6499083777 -5067935.568904826,-1023467.4123044561 -4642065.757929813,-1193807.6837779777 -4171224.9015230965,-1309368.262573044 -3659619.191715507,-1363351.3849326205 -3112288.4930391647,-1349214.3269467233 -2535100.9578417144,-1260766.044142452 -1934737.0254332805,-1092265.8481133399 -1318662.2946974793,-838523.0270574738 -695088.8640862765,-494996.2320722835 -72924.84924491264,-57891.37499227115 538288.0837627042,475743.2819993028 1128449.1933615785,1107926.2182835327 1686985.0213839049,1839657.3415757047 2202947.3556592497,2670839.708018216 2665122.352744192,3600209.722988414 3062150.208650753,4625277.261532975 3382654.593145188,5742277.120394513 3615380.889117887,6946133.1672826875 3749342.104717846,8230436.486640475 3773971.154580732,9587438.734148834 3679278.039852909,11008061.80429639 3456010.297216535,12481924.786466492 3095814.9372131233,13997389.035353353 2591399.954352209,15541622.01158638 1936693.3683031602,17100680.35897294 1126997.6494127181,18659612.476811662 159137.29533570484,20202580.620631322 -968402.7389005644,21713002.3241241 -2255350.095281249,23173710.68092831 -3699531.903337411,24567132.75952093 -5296777.844015453,25875485.150359634 -7040841.679514989,27080985.364387136 -8923343.465670977,28166077.519169465 -10933734.554733595,29113670.466610093 -13059287.354177939,29907386.237918846 -15285111.630978324,30531816.411040183 -17594198.940527584,30972783.746958237 -19967496.51540395,31217606.198190607 -22384011.672263984,31255360.16943815 -24820947.486506324,31077139.71087109 -27253870.14572893,30676308.152992748 -29656908.02658752,30048738.55242146 -32002982.148161486,29193039.21416078 -34264067.241528526,28110760.491668534 -36411482.243623264,26806579.04473355 -38416208.57774863,25288455.759976096 -40249234.127936006,23567763.612468418 -41881920.35472702,21659381.871898342 -43286389.54130677,19581753.234739766 -44435928.70701624,17356900.696393527 -45305406.28620013,15010401.264981905 -45871697.25040525,12571313.961528549 -46114111.95766048,10072059.949082086 -46014823.65055306,7548253.084658811 -45559289.20173776,5038479.690659312 -44736657.42799776,2584026.8938462962 -43540159.06853472,228559.47645749294 -41967472.35607437,-1982254.178837945 -40021058.00663945,-4001165.795848201 -37708457.421038985,-5779818.607305382 -35042547.93335168,-7269263.771793033 -32041749.063434403,-8420518.384169744 -28730173.935588688,-9185160.911565993 -25137720.316982504,-9515959.141903047 -21300096.10942679,-9367524.997956943 -17258774.597838674,-8696989.857145973 -13060875.318356376,-7464693.335736868 -8758967.057663886,-5634877.856620578 -4410790.230522111,-3176380.732967459 -78896.7014690697,-63314.97676606761 4169793.9854738447,3724270.407760791 8264522.0343248965,8199760.250016311 12131297.510356823,13369383.03139641 15693591.0733231,19231670.733680863 18873102.12327578,25776978.805406008 21590599.973233216,32987076.26251501 23766832.460258093,40834815.73853108 25323495.192766424,49283892.96290282 26184253.421457574,58288704.669126965 26275807.329421706,67794313.31330246 25528990.37980978,77736526.21699007 23879889.25366342,88042095.83542277 21270972.873289376,98629046.79479674 17652217.055430703,109407134.14407332 12982210.491018783,120278435.93286651 7229227.021983748,131138081.76513205 372248.5975983544,141875117.3981004 -7598077.140288371,152373503.76895094 -16678560.956245665,162513247.05193195 -26852694.194737595,172171654.49195468 -38089985.296762936,181224708.84501782 -50345426.596255004,189548552.30109093 -63559106.78030111,197021068.79297578 -77655983.61630122,203523551.6285348 -92545830.5343508,208942441.44841954 -108123369.40127368,213171117.6331586 -124268600.33360744,216111724.48937994 -140847337.6730676,217677011.86300123 -157711959.2953112,217792168.28584042 -174702374.25017652,216396623.38992342 -191647211.35124293,213445795.14910987 -208365228.76028985,208912756.55846503 -224666941.8671403,202789795.6649094 -240356463.8700598,195089842.44369274 -255233550.44226414,185847735.89795503 -269095836.755482,175121304.96478012 -281741251.9542048,162992237.35973042 -292970592.96966493,149566711.39907345 -302590236.36869055,134975767.1174513 -310414963.78987384,119375394.65759256 -316270873.4704443,102946319.95264111 -319998347.4561588,85893470.15118647 -321455041.3587177,68445104.04565902 -320518861.0270508,50851595.94703059 -317090888.27664495,33383864.987995286 -311098215.9210942,16331445.712901006 -302496650.817411,200.0000003704518" stroke="white" stroke-width="1.5" /><circle cx="249.92582360940372" cy="197.27747600144508" fill="red" opacity="0.7" r="14.738476308781951" /></svg>