<?xml version="1.0" encoding="utf-8" ?>
<svg baseProfile="full" height="400" version="1.1" width="400" xmlns="http://www.w3.org/2000/svg" xmlns:ev="http://www.w3.org/2001/xml-events" xmlns:xlink="http://www.w3.org/1999/xlink"><defs /><rect fill="black" height="100%" width="100%" x="0" y="0" /><circle cx="200" cy="200" fill="yellow" r="10.000024362416172" stroke="orange" stroke-width="2" /><polyline fill="none" points="200.01756820728139,200.0 199.93810151719464,199.99675061241004 199.85418553870102,199.98464850856305 199.766569614114,199.96296550682283 199.67609941405794,199.93103442821018 199.58371287240115,199.88826117182234 199.4904347012627,199.8341366796783 199.39736945923147,199.7682486344013 199.30569316213482,199.69029272597302 199.2166434431122,199.6000833181776 199.13150828724847,199.49756334146235 199.05161338544633,199.38281323695097 198.9783081723867,199.25605877639617 198.9129506341401,199.11767758509538 198.85689099202898,198.9682041993286 198.8114543904599,198.80833349681527 198.77792273739044,198.6389223480936 198.75751586659385,198.4609893486584 198.7513722106518,198.2757125061655 198.76052919234635,198.08442477401653 198.78590355953418,197.88860734213395 198.8282719043651,197.68988061764728 198.88825162154572,197.48999285242536 198.96628257194544,197.29080640076253 199.06260972690433,197.0942816188701 199.1772670748438,196.90245844792372 199.31006307493868,196.71743575401027 199.46056794243555,196.5413485311145 199.62810304647613,196.3763431069583 199.81173269381594,196.2245505256924 200.01025856045734,196.0880583157523 200.2222170178245,195.96888088520745 200.44587958061723,195.86892882021385 200.67925667985918,195.78997739425975 200.9201049369194,195.7336346262944 201.1659380825074,195.7013092540589 201.41404162894136,195.69417901450095 201.66149136455036,195.71315964555177 201.9051756961369,195.7588750422889 202.14182181929016,195.83162901511747 202.36802564736757,195.9313791076234 202.58028537857103,196.05771293674863 202.77503852720886,196.2098275175113 202.9487021904917,196.38651202829078 203.0977162666466,196.58613446040016 203.2185892843815,196.8066325770304 203.30794644847842,197.04550958147163 203.3625794522535,197.29983486267813 203.3794975555526,197.56625014768886 203.35597937763126,197.8409813451818 203.28962480849376,198.11985631263553 203.17840640084728,198.39832872140624 203.0207195685692,198.67150812979636 202.81543088728355,198.93419630428536 202.56192376907725,199.18092975400697 202.26014076729626,199.4060283638706 201.91062175945174,199.60364992812922 201.51453725718085,199.76785029946257 201.07371610252548,199.89264877964644 200.59066683001822,199.97209828756917 200.06859200460758,200.00035974977231 199.51139488662687,199.97178006894123 198.92367782701342,199.880972938025 198.31073185889142,199.72290168315155 197.6785170253973,199.4929632384878 197.03363306805286,199.1870722819757 196.38328019474878,198.80174449376253 195.73520975099896,198.334177840449 195.09766473192232,197.78233073929744 194.4793101946073,197.14499591853067 193.88915376015134,196.421868764021 193.33645653063627,195.6136089301541 192.83063488732657,194.72189399450036 192.3811537810496,193.74946395307853 191.9974122724779,192.7001553862609 191.6886222271971,191.5789241754149 191.4636812162073,190.39185571770156 191.3310408149603,189.1461616713757 191.29857163119038,187.85016236658345 191.37342652158745,186.51325413693104 191.56190357768142,185.1458609646979 191.8693105700276,183.75936998692876 192.29983263476927,182.36605057996985 192.85640506580978,180.97895692526043 193.54059313710422,179.61181415805174 194.3524809210215,178.27888841163193 195.29057108848497,176.99484129078007 196.35169767298123,175.77456953747873 197.5309537520043,174.63303088708486 198.82163594476884,173.58505735165693 200.21520754300354,172.64515740621658 201.7012819815199,171.82730879045252 203.26762821652494,171.14474386965028 204.90019941212765,170.60972972120825 206.58318613932377,170.23334532363066 208.29909506746083,170.02525841994225 210.02885387668934,169.99350480358595 211.7519428425026,170.1442729285841 213.4465532418731,170.48169687365137 215.08977240683976,171.00766078872743 216.657794908236,171.7216180188641 218.12615899253638,172.6204281315685 219.47000702190468,173.69821506681689 220.6643682852087,174.9462495815484 221.68446216014468,176.3528590704027 222.50601921816275,177.90336771004235 223.10561747937422,179.58006969429988 223.4610306491014,181.36223810079252 223.55158480647702,183.22617165625832 223.35851967395917,185.14528134795256 222.86535028036934,187.0902184628676 222.05822454471706,189.02904522678978 220.92627205925731,190.9274487634253 219.46193914348575,192.74899860281474 217.66130508149882,194.45544744149507 215.5243743484885,196.00707429851943 213.05533958296263,197.36306862633208 210.26281007403605,198.4819533291134 207.16000061181876,199.32204401966868 203.76487569697082,199.84194121595644 200.1002443257027,200.00105154720546 196.19380086096848,199.76013341503 192.07810787063974,199.08186194522918 187.79051725951481,197.93140747962804 183.37302654365791,196.27702130324465 178.87206771134376,194.0906217892998 174.33822678236496,191.3483736822742 169.82589291313056,188.0312528364842 165.3928366942764,184.12558839350189 161.09971814471652,179.62357412492548 157.00952581442655,174.52374049589895 153.18694935987648,168.83137892724216 149.69768894198558,162.5589097573236 146.60770580679005,155.72618553534437 143.98241943275707,148.360721521065 141.88585765400927,140.49784562672644 140.37976718299512,132.1807605183623 139.52269294598997,123.46051119796479 139.36903559629724,114.39585211577052 139.96809746872435,105.05300871247779 141.363128070124,95.50532926214252 143.59038094965868,85.83282397381554 146.67819444412694,76.1215895079268 150.64610933357477,66.46311836451977 155.50403685629485,56.953493995398134 161.25149080660663,47.6924739700097 167.8768975607485,38.78246507260758 175.35699783407378,30.327395811343962 183.65635375607073,22.43149346220929 192.7269744495191,15.197974434348993 202.50807270904218,8.727658408974804 212.92596458698435,3.1175183512756632 223.89412270759414,-1.540819898315533 235.31339294281318,-5.16261320311915 247.07238269591699,-7.671555171408556 259.0480274567105,-9.001330604344105 271.1063405205384,-9.097151082165254 283.10334881244114,-7.917251365689253 294.88621563958225,-5.43432541790807 306.29454892477514,-1.636880183543127 317.16189106958024,3.469515175171722 327.31738407796666,9.861107079751605 336.5876009646847,17.494984791524956 344.79853180270976,26.308279180755164 351.7777100603967,36.21755440902709 357.35646217269544,47.11841295669501 361.3722606154066,58.88533313968037 363.6711581423632,71.37175664796166 364.11027833950305,84.41044169998301 362.5603352851348,97.81409514526698 358.9081529211694,111.37629426812026 353.0591527749448,124.87270615934173 344.93977696462747,138.0626093456347 334.4998120116113,150.69071891799777 321.7145779082528,162.48931270546572 306.58694618447225,173.18065212864488 289.1491504157873,182.47968727265794 269.4643527490041,190.09703148008074 247.62793061753513,195.7421864242807 223.76844889965304,199.12699422948342 198.0482843590537,199.96928880692775 170.66387131187432,197.99671423115788 141.84554009644197,192.95067374432165 111.85692308402601,184.59036890932856 80.9939066569202,172.69688459677747 49.583111783620524,157.07727194889065 17.97989052193546,137.56857828005167 -13.434169045601777,114.04177011152063 -44.25423132636314,86.40549326008635 -74.05569105197873,54.609612167575136 -102.39812993810722,18.64846952832957 -128.8297350156725,-21.4361932006002 -152.8921545872724,-65.55271358674497 -174.12576070772906,-113.55744250037287 -192.07527994734562,-165.2531913001368 -206.29574705357066,-220.38824574541638 -216.35872907009838,-278.65599701379745 -221.85876059549162,-339.6952359043444 -222.4199242638462,-403.09115114861345 -217.70250430845266,-468.37706673822015 -207.40963532857785,-535.036946327795 -191.2938632230301,-602.5086851145367 -169.16353078533552,-670.1882011714671 -140.88889677580647,-737.4343290743286 -106.40789449415615,-803.5745088778987 -65.73143406684409,-867.9112531444916 -18.94815192422095,-929.7293638965402 33.77148864521871,-988.3038601589321 92.1718403406783,-1042.9085652896038 155.90954965183622,-1092.825291693917 224.55195692044785,-1137.3535489148153 297.57650033666727,-1175.8206896310649 374.37119852711726,-1207.592396932081 454.23627797400894,-1232.0834055288265 536.3870016990784,-1248.7683394696116 619.95774448175,-1257.1925396242525 704.0073474057717,-1256.9827458485067 787.5257708097149,-1247.8574915105091 869.4420498419663,-1229.6370621174417 948.6335408974063,-1202.2528652837802 1023.9364303689484,-1165.7560563850957 1094.1574595303396,-1120.3252630867903 1158.086801144489,-1066.273252656334 1214.5120047502173,-1004.0523886770807 1262.2329087236085,-934.2587285813322 1300.077398358188,-857.6346203901187 1326.9178705957868,-775.0696662458771 1341.6882479148524,-687.5999317868112 1343.4013665031805,-596.4052941470059 1331.1665474736444,-502.80483735602786 1304.2071447960695,-408.250222107523 1261.8778500892306,-314.3169771898779 1203.6815227168643,-222.693682212946 1129.2853040284667,-135.1690354803443 1038.5357673394462,-53.616826771233946 931.4728506039733,20.021137799741894 808.3423169297555,83.75408302171284 669.6064893294572,135.56317847293838 515.9530105873453,173.42418329546223 348.3013870031158,195.33165545715605 167.80708618714544,199.3245284711293 -24.137025882489354,183.51282831339333 -225.90210461608575,146.10527385254034 -435.6277770485143,85.43747589962238 -651.2297701536663,0.0004234351972911554 -870.410835184118,-111.5310788853273 -1090.675052878623,-250.27037976280087 -1309.345568003028,-417.0917335698433 -1523.5857622738179,-612.6042282139584 -1730.4238325446242,-837.1272924868156 -1926.7806965548848,-1090.6681942714217 -2109.5011019392505,-1372.9019437930651 -2275.387766021467,-1683.1540139513284 -2421.2383246598447,-2020.3862823523382 -2543.8848186152154,-2383.1865867137944 -2640.235396158039,-2769.762266629388 -2707.3178615419115,-3177.9380401030494 -2742.324651201203,-3605.158532708268 -2742.658773763118,-4048.4957406726307 -2705.980206903073,-4504.661666686271 -2630.2522044337975,-4970.026318915527 -2513.786931525001,-5440.6412097809525 -2355.2898153213087,-5912.268431827778 -2153.901973168384,-6380.415323858487 -1909.240061855115,-6840.374671878713 -1621.4328793866837,-7287.270316885278 -1291.1540464302786,-7716.107965738555 -919.6500982791354,-8121.830923035492 -508.76333045776767,-8499.380381838782 -60.94876236199093,-8843.759830201232 420.71538606996035,-9150.103049601961 932.5242694801217,-9413.745101695376 1470.1505589359308,-9630.295622228825 2028.6566057823127,-9795.713666722291 2602.5150134826113,-9906.383282667073 3185.637924684318,-9959.188918753953 3771.4152429031496,-9951.58972416005 4352.761911764873,-9881.691741376106 4922.174270298985,-9748.316955586968 5471.795391109727,-9551.06813334435 5993.489190259754,-9290.388364246675 6478.922974436645,-8967.61421255954 6919.657963612325,-8585.021392076218 7307.247197259532,-8145.861897830075 7633.340100690972,-7654.391563213344 7889.792856781396,-7115.8870611744205 8068.783598865584,-6536.651433849973 8162.931314711149,-5924.007316466345 8165.4172309493615,-5286.277118660537 8070.107334068863,-4632.7495393734025 7871.674579930142,-3973.631919804211 7565.719250651566,-3319.988082014101 7148.885837545672,-2683.661457836767 6618.974763414151,-2077.1834827793596 5975.047208743234,-1513.667411327014 5217.521275898562,-1006.687902024807 4348.257714905846,-570.1469211981951 3370.633445285191,-218.12672126393267 2289.6011419817587,35.269138855280715 1111.7332108050975,176.08555000023654 -154.7514391657756,190.69499119508632 -1499.9793114047866,65.98444541893758 -2912.4342781615233,-210.45171645821245 -4378.9907705118285,-650.1148883380354 -5884.969211435027,-1263.403606657756 -7414.214491996445,-2059.4155105837817 -8949.198057633439,-3045.752392775929 -10471.143915799035,-4228.330978579936 -11960.178599471208,-5611.202177101043 -13395.504825326343,-7196.381626154786 -14755.598273108424,-8983.694401795536 -16018.42658667977,-10970.636779383334 -17161.689360545108,-13152.257914590677 -18163.077531775347,-15521.064257271742 -19000.550250018918,-18066.949416936037 -19652.626951768183,-20777.15206426439 -20098.6920236073,-23636.244277662503 -20319.309107394405,-26626.152526694725 -20296.541782996752,-29726.213225283173 -20014.27706622043,-32913.26448721901 -19458.547885959822,-36161.775375780235 -18617.85046036829,-39444.01355961127 -17483.45228203119,-42730.25187061696 -16049.686251618725,-45989.0138091762 -14314.226373061352,-49187.357560806806 -12278.340345452105,-52291.19758044638 -9947.114361860404,-55265.66227028056 -7329.645456887711,-58075.48572964828 -4439.196836510753,-60685.430996649644 -1293.3117784246206,-63060.741636860796 2086.118088993985,-65167.61797167658 5672.834034195307,-66973.71368435358 9436.244546959613,-68448.64800328441 13341.51586791819,-69564.52814714042 17349.721361421725,-70296.47623329582 21418.051814759037,-70623.15440749559 25500.0881283033,-70527.28155725478 29546.13718309515,-69996.13463209718 33503.63093910589,-69022.0273184433 37317.58803438608,-67602.75861346128 40931.13632889939,-65742.02371782994 44286.093974446514,-63449.779628988006 47323.60570202115,-60742.557870295685 49984.83010942044,-57643.716943110616 52211.67281502964,-54183.62734275097 53947.55942925968,-50399.78233938289 55138.24139467115,-46336.828193643814 55732.6268715148,-42046.50805575979 55683.62800988483,-37587.5144862067 54949.015165901255,-33025.246334414136 53492.26790053277,-28431.466616999798 51283.411959141726,-23883.859044433193 48299.830880773254,-19465.481949176476 44527.04044159387,-15264.119561993886 39959.413809231155,-11371.531857398933 34600.8450859826,-7882.605533669138 28465.33886005136,-4894.410095474548 21577.513475254003,-2505.1644544020405 13973.005979914107,-813.1209394674505 5698.767132473868,84.62490026630445 -3186.764569327714,93.388833276485 -12613.620102815983,-877.7945066608972 -22500.39770031044,-2914.823811946921 -32754.509392306565,-6097.157137139501 -43272.58320996242,-10496.427155942456 -53941.026468343865,-16175.062180836174 -64636.753911074054,-23184.93052439925 -75228.08269930103,-31566.026669621166 -85575.79428508741,-41345.218434549235 -95534.36113589685,-52535.07484411809 -104953.3340898513,-65132.79473965649 -113678.88384045208,-79119.2562463455 -121555.48769658426,-94458.2070644362 -128427.75036332202,-111095.61513689831 -134142.34506798277,-128959.19856216302 -138550.0589427924,-147958.15265612787 -141507.92420096858,-167983.09081581986 -142881.41433911462,-188906.21429439122 -142546.6823989501,-210581.7241631643 -140392.81625992036,-232846.4866145566 -136324.0840460232,-255520.96035704398 -130262.14105038745,-278410.3921808563 -122148.16814456557,-301306.28384617396 -111944.910480347,-323988.13028343406 -99638.58444313587,-346225.4257216232 -85240.62030893247,-367779.9308029093 -68789.20792090922,-388408.1900326222 -50350.61296299725,-407864.28508836514 -30020.23209019111,-425902.80561078683 -7923.356298126754,-442282.0151647363 15784.386506577575,-456767.18613983865 40916.93672778749,-469134.07350376406 67258.08056693396,-479172.49358183594 94562.12125760033,-486689.9704674136 122554.96206995478,-491515.40932453464 150935.61519191536,-493502.75278439716 179378.14624074244,-492534.5739173248 207534.0593926611,-488525.5569385899 235035.12297077727,-481425.8149353449 261496.62984143815,-471223.9925364003 286521.08118165855,-457950.10063764703 309702.27614738396,-441678.0300908721 330629.78375276853,-422527.69170549617 348893.7669292067,-400666.73103927274 364090.1223403137,-376311.7682970967 375825.89316147345,-349729.11624170246 383724.90577082423,-321234.9323639398 387433.5752277504,-291194.7656725126 386626.81862321385,-260022.4633440317 381014.009964474,-228178.4081146483 370344.90529711713,-196167.06367516116 354415.46236241714,-164533.81242246117 333073.475329933,-133861.0776809325 306223.9421239336,-104763.7308862457 273834.0796646527,-77883.7931580255 235937.901054049,-53884.45010321417 192640.26842745335,-33443.408503697 144120.33593684516,-17245.633654377834 90634.29918981549,-5975.516425775251 32517.370492016642,-308.52951318599423 -29815.096529520975,-902.4426786749407 -95867.40388121738,-8388.176960998322 -165064.29198264063,-23360.387683800345 -236752.7645567005,-46367.87549044731 -310205.0027214361,-77903.93342714736 -384622.4049783398,-118396.74613466441 -459140.77824320004,-168199.96434243288 -532836.6924301479,-227583.5839378585 -604734.9974623991,-296725.263761782 -673817.4870467122,-375702.21981751494 -739032.6782331476,-464483.83564135846 -799306.6598261857,-562925.1290430925 -853554.9462727532,-670761.2141722469 -900695.2568995511,-787602.8948011434 -939661.1234936483,-912933.5197554087 -969416.2124182862,-1046107.2245017316 -988969.2309441798,-1186348.6739757624 -997389.2714803444,-1332754.410777039 -993821.4321411034,-1484295.899873083 -977502.5378271644,-1639824.3459669244 -947776.7729721993,-1798077.342743615 -904111.0255568712,-1957687.3944020318 -846109.732162103,-2117192.3293068637 -773529.005960217,-2275047.6034002253 -686289.8238554117,-2429640.4673603675 -584490.0457008389,-2579305.9465826787 -468415.0378403326,-2722344.5571116074 -338546.6753314406,-2857041.653924647 -195570.50226325047,-2981688.2807411435 -40380.837722235665,-3094603.363104802 125916.3737128367,-3194157.059197638 302003.1534774581,-3278795.0560326483 486351.69117386703,-3347063.5727088433 677229.3048319157,-3397634.807675306 872706.2823058948,-3429332.54382993 1070666.6992323056,-3441157.604170073 1268822.2783359971,-3432312.8320133486 1464729.3213759316,-3402227.2539117625 1655808.7088932728,-3350579.070676238 1839368.9244362623,-3277317.112783579 2012632.0194094353,-3182680.3912062026 2172762.392496542,-3067215.3737134407 2316898.2141501936,-2931790.6202385616 2442185.2823833246,-2777608.419247805 2545813.0515344515,-2606213.0804035463 2625052.5313447723,-2419495.5573535278 2677295.7101472826,-2219694.0983184082 2700096.113820786,-2009390.6513486186 2691210.072022883,-1791502.7856750558 2648638.2257195124,-1569270.930414951 2570666.7758174916,-1346240.7768725075 2455907.9424267793,-1126240.7405787678 2303339.078570854,-913354.4337556573 2112339.861652258,-711888.1576971832 1882726.9712696965,-526333.4871907741 1614785.6536445164,-361325.08503059193 1309297.5714780658,-221593.95330297394 967564.3440082079,-111916.39877935228 591426.195782558,-37059.06169041101 183275.1545711573,-1720.4295687330011 -253937.7308264762,-10469.32986561633 -716701.6431761043,-67680.96574996242 -1200952.1624450618,-177471.12791466166 -1702084.7307648244,-343629.28034499445 -2214975.7380695636,-569551.278813711 -2734011.476478673,-858172.536312968 -3253125.1302152625,-1211902.4986651728 -3765841.8790580966,-1632561.3351335234 -4265332.097612653,-2121319.7819623468 -4744472.530784964,-2678643.100438047 -5195915.2186029395,-3304240.1243465114 -5612163.831930889,-3997018.3737521684 -5985656.965759628,-4755046.202059454 -6308857.819837624,-5575522.920658555 -6574349.578755347,-6454757.809536211 -6774935.686618708,-7388158.872606984 -6903744.096649597,-8370232.132890775 -6954334.465006202,-9394592.184882704 -6920807.15245464,-10453984.629550302 -6797912.798923166,-11540320.911549238 -6581161.146128461,-12644725.958853899 -6266927.704087111,-13757598.892633574 -5852556.790099237,-14868686.93064539 -5336459.415369314,-15967172.451640422 -4718204.456397051,-17041773.022483543 -3998601.527136005,-18080854.01525553 -3179773.9650707263,-19072553.260130774 -2265220.3610677766,-20004916.99309478 -1259863.100211808,-20866046.167549748 -170082.4397642678,-21644252.007701002 996265.2684096048,-22328219.491619468 2229846.4996272884,-22907177.265484635 3519867.784103534,-23371072.310278486 4854112.252383983,-23710747.510788485 6218996.337737333,-23918120.116903797 7599647.280196927,-23986358.94161857 8980001.861343265,-23910058.01165474 10342926.563542759,-23685404.27793413 11670359.093806159,-23310336.906933617 12943470.942641694,-22784695.61283757 14142850.364520717,-22110355.456792016 15248704.871442301,-21291345.535728186 16241082.027486647,-20333949.01119921 17100107.02339825,-19246781.990251105 17806235.19962378,-18040848.867003553 18340517.37759765,-16729571.866503125 18684875.55638946,-15328792.702301126 18822386.23926672,-13856744.466462096 18737568.376601454,-12333992.115262914 18416672.6522864,-10783340.195135206 17847968.604914475,-9229706.770414263 17022025.8669136,-7699962.865623086 15931985.629068384,-6222737.118263906 14573818.298757128,-4828185.75079391 12946563.221963404,-3547728.4094622023 11052546.28565225,-2413750.8792856447 8897571.212092414,-1459276.164410957 6491080.403467674,-717605.9167099338 3846281.296536846,-221934.697456238 980234.3455750634,-4940.061654374749 -2086101.0307960622,-98351.95593703029 -5327865.925759476,-532505.4124540857 -8716349.892062338,-1335880.9960716406 -12219090.011188857,-2534637.913462511 -15800023.275251046,-4152145.1131044384 -19419693.956434686,-6208516.087514328 -23035517.06694194,-8720153.425926732 -26602098.388453104,-11699309.449839666 -30071610.878463637,-15153669.48833787 -33394226.54659796,-19085964.508070838 -36518602.14318637,-23493619.89778625 -39392416.22192503,-28368447.2134709 -41962954.33601012,-33696385.61204145 -44177738.31130098,-39457299.53452626 -45985194.720040925,-45624838.93987708 -47335356.86438111,-52166368.034978196 -48180593.7809313,-59042967.99309117 -48476359.00681106,-66209518.60097224 -48181951.115615174,-73614863.12449217 -47261277.35003076,-81202059.9352655 -45683611.05841821,-88908723.59938516 -43424333.09734841,-96667457.19799507 -40465646.90264374,-104406376.6337115 -36797256.5693509,-112049726.58378749 -32416997.027313195,-119518586.59883472 -27331405.264014095,-126731664.62469323 -21556221.53977897,-133606173.95593865 -15116809.670913331,-140058788.32507017 -8048485.73149732,-146006668.50554338 -396744.9506027556,-151368552.47452375 7782622.836538985,-156065899.858707 16423538.084220998,-160024080.09086218 25449764.778594527,-163173592.45386994 34775178.96558106,-165451305.00144276 44304178.285042204,-166801698.23951334 53932236.86089368,-167178098.44867495 63546608.37988959,-166543884.64538383 73027178.53804438,-164873652.43693486 82247466.25443949,-162154317.44114408 91075771.1612609,-158386140.53408614 99376462.89235744,-153583656.97504616 107011405.62869665,-147776491.45265165 113841509.23835044,-141010041.3140623 119728396.19359943,-133346010.6922765 124536171.28294885,-124862778.94524217 128133278.98758338,-115655587.77228548 130394431.28782365,-105836532.58343332 131202586.63473706,-95534345.16789088 130450958.89524151,-84893956.43823458 128045033.28689675,-74075830.01283126 123904564.69222145,-63255059.632836334 117965532.31338657,-52620225.88086725 110182023.42721727,-42372010.361012086 100528018.0581342,-32721568.395796966 88999045.73167,-23888664.37249037 75613685.13127545,-16099577.102693867 60414877.4811952,-9584785.915546307 43471024.8414946,-4576451.652834126 24876845.247125257,-1305710.2369281028 4753957.7681490695,199.99999999417832" stroke="white" stroke-width="1.5" /><circle cx="191.49830218033995" cy="249.27191019417847" fill="red" opacity="0.7" r="13.414709848078965" /><circle cx="180.69113542661592" cy="246.1212288310569" fill="red" opacity="0.7" r="13.414709848078965" /></svg>