<?xml version="1.0" encoding="utf-8" ?>
<svg baseProfile="full" height="400" version="1.1" width="400" xmlns="http://www.w3.org/2000/svg" xmlns:ev="http://www.w3.org/2001/xml-events" xmlns:xlink="http://www.w3.org/1999/xlink"><defs /><rect fill="black" height="100%" width="100%" x="0" y="0" /><circle cx="200" cy="200" fill="yellow" r="20" stroke="orange" stroke-width="2" /><polyline fill="none" points="198.72129701677088,200.0 198.6715483715898,199.93026235798393 198.62749517400124,199.85550132753787 198.58981986273113,199.77627031513472 198.55916310108304,199.69321407585397 198.53611274076914,199.6070667669352 198.52119269474363,199.51864875733574 198.51485185107796,199.428862149618 198.51745316824164,199.33868498358308 198.52926309928588,199.2491641054183 198.55044149820526,199.16140670163776 198.58103216600787,199.07657051365652 198.6209541966074,198.99585276630998 198.66999428341254,198.92047786186038 198.72780014630013,198.85168390983796 198.79387523540507,198.79070818225858 198.86757486273945,198.73877160312176 198.9481039049927,198.69706240040034 199.0345162109065,198.66671906773524 199.12571583433268,198.64881280149524 199.22046019946765,198.64432959648013 199.31736528783847,198.65415220006597 199.41491291744725,198.67904213973057 199.5114601631549,198.71962205237838 199.60525094401768,198.77635855542485 199.6944297780382,198.84954590893014 199.77705767784312,198.93929072492375 199.85113013237358,199.04549798418793 199.91459709002814,199.16785862193004 199.96538482811613,199.305838941764 200.00141956228236,199.45867211204663 200.02065261809608,199.62535198972284 200.02108695563444,199.8046295042929 200.00080480702738,199.99501181824343 199.95799615698698,200.1947644602292 199.89098776775205,200.40191660345363 199.79827242308554,200.61426963411427 199.67853804142104,200.82940912354923 199.53069628642214,201.04472028298355 199.35391028454742,201.25740694172964 199.14762104414723,201.4645140485957 198.91157215958785,201.66295365240404 198.64583237730858,201.84953427128255 198.35081559894775,202.02099351217936 198.02729790007243,202.17403375233243 197.67643115191228,202.3053606437195 197.29975284809146,202.41172415038398 196.89919175887277,202.48996177758744 196.47706906201736,202.53704360162368 196.03609463209867,202.5501186605245 195.57935820899232,202.52656221949772 195.11031521122584,202.4640233814872 194.63276701075756,202.36047247347582 194.15083554232947,202.21424760379853 193.66893218247984,202.02409975553743 193.19172090019683,201.7892357567504 192.7240757525448,201.50935845053542 192.27103287380913,201.18470337741886 191.83773718510955,200.81607127988852 191.42938413226,200.40485574463264 191.05115684206626,199.95306531268545 190.7081591703286,199.46333941163203 190.40534519756676,198.9389574976152 190.1474458098604,198.38384083834418 189.93889308108973,197.8025464217477 189.78374324812685,197.20025253834694 189.6855991409834,196.582735658728 189.6475329943698,195.95633831041542 189.67201062435996,195.32792775060432 189.7608180026866,194.7048453320667 189.91499130044903,194.09484656843915 190.13475150156296,193.50603202120527 190.41944470305296,192.94676925304742 190.76748922328161,192.42560621975392 191.1763306295213,191.9511766042897 191.64240577210822,191.53209773059604 192.16111687310635,191.17686182968376 192.7268166624219,190.89372156501219 193.33280548328722,190.6905708562941 193.97134120177918,190.5748221689383 194.63366265155494,190.5532815584686 195.3100272254741,190.63202287352513 195.98976309064648,190.8162626255125 196.6613363533314,191.11023712565114 197.3124333358833,191.51708356917595 197.93005795068694,192.03872680980538 198.50064396708387,192.675773613543 199.0101817682324,193.42741620763215 199.44435898745928,194.2913469464448 199.7887141999783,195.26368589978125 200.02880262810547,196.33892312919932 200.15037259872537,197.50987735349878 200.13955127338437,198.76767261451033 199.98303795677998,200.10173443829305 199.668303081511,201.49980684442443 199.18379076877903,202.94799138728166 198.51912267941043,204.43080921839277 197.6653007002614,205.9312869387627 196.61490586095806,207.43106676559347 195.36229074816106,208.910541270432 193.90376258221505,210.34901265728647 192.2377540471251,211.72487624182764 190.36497892211645,213.01582746899226 188.2885695542026,214.19909146906204 186.01419323858872,215.25167380489924 183.55014463945614,216.150630709121 180.90741148945958,216.87335675355456 178.0997109534877,217.3978875386002 175.143494231834,217.70321464166508 172.0579172103768,217.7696097263734 168.86477524065538,217.57895439274077 165.58840045029396,217.1150720479933 162.25552034294964,216.36405780335602 158.89507684513967,215.31460215909922 155.53800539262164,213.95830403353472 152.2169741185332,212.289968526506 148.96608370569479,210.30788468905206 145.82052899216885,208.0140785029153 142.8162239675749,205.41453626066962 139.98939236241495,202.51939358331117 137.37612660783503,199.34308542056073 135.01191852237577,195.9044525526965 132.9311656584161,192.22680035367992 131.166657806812,188.33790588516172 129.74904870595023,184.26996977042847 128.70631852304996,180.05950974640862 128.0632331628122,175.74719330957925 127.84080690307842,171.3776074561558 128.05577525062216,166.99896416551576 128.72008524424504,162.66274098461318 129.8404106988435,158.42325683541253 131.417700075219,154.3371839813068 133.44676476868815,150.4629979452881 135.91591562812175,146.8603680645232 138.80665543966262,143.58949228420394 142.09343493056952,140.71038072843604 145.7434795638509,138.2820935269803 149.71669400002065,136.36193931258157 153.96565059600425,135.00464172241863 158.43566769174157,134.26148212630986 163.06498270249972,134.17942765066041 167.78502419086448,134.8002543573533 172.5207861398582,136.15967615726814 177.19130659220957,138.28649067523088 181.71025166666882,141.20175382344448 185.98660471822726,144.91799527061409 189.9254590846203,149.43848730133675 193.4289114676513,154.75657973282836 196.39705154737092,160.85511358252575 198.72904193422426,167.7059260504273 200.32428104467115,175.26945908536888 201.08363995660835,183.4944833373906 200.91076278055658,192.31794865320978 199.7134185905252,201.66497144464415 197.40489151518835,211.44896824876682 193.90539421671835,221.57194360385085 189.14348870309914,231.92493898933844 183.05749725206587,242.388648026164 175.59688519314358,252.83420141324532 166.723596420524,263.1241231969716 156.41332181517535,273.11345794581024 144.65668026027507,282.65106624715605 131.46029165933538,291.58108367634077 116.84772132938025,299.7445360289976 100.8602753586087,306.9811011809402 83.5576270034602,313.1310054700027 65.0182549658162,318.0370400097432 45.339675446476235,321.5466798754617 24.638451222306344,323.51428668036874 3.0499626445625836,323.80337271720185 -19.272072595656113,322.288902612674 -42.15634184634874,318.8596063642107 -65.41495040105747,313.42027573639257 -88.84471051396389,305.8940143243698 -112.22870904578201,296.2244101788758 -135.33815296740102,284.37759876716143 -157.93448844203903,270.3441832497282 -179.77178551894724,254.14097861584955 -200.5993766361728,235.81254617092696 -220.16473318441166,215.43248523225705 -238.216560370173,193.10444968998664 -254.50808657985056,168.96285834614483 -268.80051943539723,143.17326967162825 -280.8666367988329,115.93239382889051 -290.4944771808877,87.46771750161118 -297.49109039480635,58.03672025079925 -301.68630592721104,27.92566477255494 -302.9364734323507,-2.5520524474333968 -301.12812705244943,-33.05799902380497 -296.1815229831232,-63.23125706634971 -288.05399789550034,-92.69142467673953 -276.74309455014105,-121.04206143895567 -262.28940024352636,-147.8745647962469 -244.77904366346274,-172.77245796989536 -224.3457963381435,-195.31606366032543 -201.17272618239804,-215.08753124725195 -175.4933527049709,-231.67617864639874 -147.5922562665486,-244.6841034650854 -117.80509738584749,-253.73201171167403 -86.51800648783893,-258.465206142526 -54.16630967228585,-258.5596704659407 -21.23256204047118,-253.72818015912418 11.756133168911646,-243.72636568631765 44.231533950282994,-228.35864952882002 75.58840361414688,-207.4839747447473 105.18938705837361,-181.0212398598676 132.3706074201237,-148.95435283882415 156.44796154202135,-111.3368157821605 176.7240825420159,-68.2957519158706 192.4959273470511,-20.03528745641495 203.0629364468531,33.16079689403526 207.73570246606823,90.92722668956674 205.84507356957997,152.81628396463685 196.75160734376226,218.29781829214537 179.85528077886855,286.7602828517977 154.60535246306418,357.51285123060745 120.51026423882193,429.788660963412 77.14746152159832,502.7492188842991 24.173004393206583,575.4899912540191 -38.66916438920944,647.047188426091 -111.5384330341962,716.4057396062083 -194.48935787082667,782.5084381550867 -287.46426763578734,844.2662220119834 -390.286778596928,900.5695373206752 -502.6563625216336,950.3007163853068 -624.1441059226556,992.3472838503426 -754.1897934770288,1025.6160876825725 -892.1004409529132,1049.048134343629 -1037.0503933533853,1061.6339907011397 -1188.0830922762177,1062.4295989681125 -1344.1146027015723,1050.5723355251052 -1503.9389735866991,1025.2971301148173 -1666.2354888289008,985.9524488547315 -1829.5778454435308,932.0159330408883 -1992.4452743109523,863.109476062744 -2153.2355957236005,779.0135131574214 -2310.280177389931,679.6802934338773 -2461.860736734613,565.2459008131979 -2606.2279025119196,436.040790463363 -2741.6214231881145,292.5986101381817 -2866.291881542175,135.6630817194894 -2978.523746801129,-33.807272658919516 -3076.659567707964,-214.6367631577196 -3159.125082578426,-405.43271097433774 -3224.4549960166723,-604.588341694064 -3271.3191469209237,-810.2885391752944 -3298.5487691209564,-1020.518580085173 -3305.1625248561872,-1233.075940170127 -3290.39197273358,-1445.585231236539 -3253.7061162015852,-1655.516292823485 -3194.834666332456,-1860.2054249142757 -3113.78964419772,-2056.8797080474515 -3010.8849437070735,-2242.6843151916196 -2886.753475787603,-2414.7126761286013 -2742.361519505138,-2570.0393102813987 -2579.0199154291117,-2705.755098403733 -2398.391751429494,-2819.0047178359223 -2202.4962113316187,-2907.0259206833707 -1993.7082825480798,-2967.1902898769595 -1774.754050002667,-2997.0450652456534 -1548.701340339939,-2994.3555911085296 -1318.9455224861147,-2957.147899128833 -1089.1903179307972,-2883.7509059282934 -863.4235263964301,-2772.8376748975697 -645.8876295370972,-2623.465166411949 -441.04529656492616,-2435.111880908644 -253.53988076599933,-2207.7127856150782 -88.15106418322029,-1941.6909087143094 50.254121320149494,-1637.9849849276652 156.77459555315667,-1298.0725443651454 226.53247899804717,-923.9878524576727 254.7338399955524,-518.3341331853302 236.73241712836756,-84.2895409134635 168.0957217250906,374.3936118848254 44.672855888255384,853.3968128339927 -137.33668445859144,1347.850875790063 -381.314013246777,1852.3593483319446 -690.1525118943904,2361.030036975302 -1066.1910367962132,2867.5148013066582 -1511.1496133598644,3365.0576754849226 -2026.068585142887,3846.5512758655736 -2611.2522085995547,4304.601347647368 -3266.217695050637,4731.599192326056 -3989.6507008792787,5119.80160239368 -4779.368253854706,5461.41781129768 -5632.290077219405,5748.702846438504 -6544.419233189278,5974.056552311346 -7510.83295338904,6130.127431259554 -8525.684455203356,6209.920332262184 -9582.216459954643,6206.906905354166 -10672.787031281867,6115.137632363506 -11788.908240336135,5929.354145368871 -12921.298038864934,5645.100454381336 -14059.945582568056,5258.831626981635 -15194.190096117618,4768.0183967242 -16312.813208997697,4171.24612573258 -17404.144519102134,3468.3065116706025 -18456.17996030351,2660.280411698597 -19456.712362652845,1749.6101575169027 -20393.473401364787,740.1597574179791 -21254.28593534671,-362.73857549665604 -22027.225539984454,-1552.2530642316049 -22700.78984459383,-2820.037584701903 -23264.07409492095,-4156.234753216038 -23706.951177978546,-5549.498043851894 -24020.25417307751,-6987.033935864916 -24195.959331961374,-8454.664909096926 -24227.367245315254,-9936.913900807289 -24109.279825432328,-11417.110611471926 -23838.17062828947,-12877.519801269029 -23412.34595543015,-14299.491454919427 -22832.09411950199,-15663.632412334915 -22099.820229506426,-16949.99876855462 -21220.163855065613,-18138.308041452747 -20200.09696533535,-19208.169792738314 -19048.999609352813,-20139.33307019584 -17778.710912055547,-20911.94872057945 -16403.553105037452,-21506.844306970415 -14940.32649401744,-21905.80905585939 -13408.273486265563,-22091.885962032833 -11829.010060675977,-22049.667897988016 -10226.423360123079,-21765.59431362796 -8626.534419007523,-21228.244876013418 -7057.325406778475,-20428.626192581665 -5548.531168448135,-19360.447589030482 -4131.395272883557,-18020.381779441257 -2838.3912356013957,-16408.306175426736 -1702.9100609830634,-14527.520537130173 -758.9157448141771,-12384.936675460493 -40.57088685457538,-9991.235975325144 418.1649207081491,-7360.990626667427 583.9607455052035,-4512.7446261742525 424.5603118817353,-1469.0508493467264 -90.7558546133003,1743.5392086414465 -990.6968145507592,5094.536063825584 -2301.4812696278673,8549.62586353381 -4046.3568443800077,12070.83912917508 -6245.124535971258,15616.776212314908 -8913.674607497334,19142.89045555105 -12063.54047861453,22601.829398171056 -15701.477382815388,25943.83366717338 -19829.07270641489,29117.192452459523 -24442.394993805585,32068.75368724745 -29531.688590814352,34744.486248278925 -35081.12079769906,37090.090663305906 -41068.58821084672,39051.653974555724 -47465.58864379211,40576.34356603581 -54237.164630931074,41613.13392997465 -61341.924029460075,42113.55953431788 -68732.14264595663,42032.48617040545 -76353.95312417722,41328.89241953869 -84147.62354192843,39966.65219115584 -92047.92828044308,37915.30866594215 -99984.61275416955,35150.8294365801 -107882.95252829508,31656.33218899532 -115664.40621315327,27422.76991954811 -123247.36031791207,22449.564449839138 -130547.9629809602,16745.176891175593 -137481.04218313043,10327.603734932865 -143961.10270544072,3224.7874117332963 -149903.39472996478,-4525.069520996689 -155225.04561645584,-12873.296930827635 -159846.245035226,-21760.666135888718 -163691.47231629587,-31117.42434174433 -166690.75360452663,-40863.462465742516 -168780.93520946783,-50908.623199982845 -169906.95842661159,-61153.15487846709 -170023.1201034222,-71488.3152730799 -169094.30234866042,-81797.12785431482 -167097.15405664462,-91955.29132597955 -164021.20635815346,-101832.24139073215 -159869.90373478958,-111292.36173982883 -154661.5323608833,-120196.33920289921 -148430.02728210227,-128402.65586120702 -141225.64031685438,-135769.2087422032 -133115.45108744077,-142155.04549787173 -124183.70436258063,-147422.20224997835 -114531.95792874479,-151437.62758918328 -104279.02650931718,-154075.17457095592 -93560.708819574,-155217.64048951108 -82529.28668016983,-154758.8322626983 -71352.78720731793,-152605.63345779158 -60214.00144542534,-148680.04736257799 -49309.25539539253,-142921.18909016458 -38846.93220290419,-135287.19853113304 -29045.74728587837,-125757.04506386627 -20132.781374935053,-114332.19433249565 -12341.279787589552,-101038.10712962042 -5908.229724440743,-85925.54050318495 -1071.730928850423,-69071.62166638188 1931.8213479646245,-50580.66614571469 2870.7185285058454,-30584.712871344203 1521.059922220555,-9243.750607412421 -2330.016625825479,13254.38775446154 -8881.027593291758,36694.48395537802 -18312.796249024326,60834.7641082914 -30785.10375801713,85408.11392633485 -46433.38058291567,110123.69012633822 -65365.48213398762,134668.9344802146 -87658.59451818906,158711.99241082955 -113356.31769352652,181904.53312280425 -142465.97429958166,203884.96306138387 -174956.1928639348,224282.01904914837 -210754.81393609088,242718.72181221837 -249747.16693856363,258816.6648318017 -291774.7641174468,272200.6076060811 -336634.45589619665,282503.33654924494 -384078.0891676858,289370.75096145767 -433812.70658875274,292467.12585199194 -485501.32076485,291480.4979675161 -538764.292334613,286128.11625099904 -593181.335398907,276161.8932179187 -648294.1675094218,261373.78947043588 -703609.8145711788,241601.05986161696 -758604.5735644192,216731.28675412442 -812728.6280075737,186707.12347213717 -865411.3026279238,151530.66949918054 -916066.9348536421,111267.39830075692 -964101.3315737552,66049.55891604142 -1008918.7702242144,16078.973727015831 -1049929.4937505533,-38370.84287259481 -1086557.6394809524,-96953.31678078197 -1118249.5325357532,-159248.26480771502 -1144482.2652247455,-224762.2252892249 -1164772.4750717632,-292929.7235538418 -1178685.2257912683,-363115.51914952317 -1185842.8878601822,-434617.8726655596 -1185933.908418433,-506672.85983633564 -1178721.3542311802,-578459.7494406803 -1164051.1064897794,-649107.4493839883 -1141859.5824492143,-717702.0123567806 -1112180.8564224658,-783295.178707016 -1075153.0515954278,-844913.9197638001 -1031023.8745975373,-901570.9299434941 -980155.1668599537,-952276.0007070134 -923026.3505976723,-996048.1939854324 -860236.6528312964,-1031928.7172293089 -792505.9982679422,-1058994.3869571663 -720674.4711190218,-1076371.5527826336 -645700.2570543177,-1083250.3395987244 -568655.9894634485,-1078899.052109497 -490723.43898006034,-1062678.5734461974 -413186.5017582264,-1034056.5784109532 -337422.46018625185,-992621.372179958 -264891.50946528936,-938095.1572900087 -197124.56462675653,-870346.5256406814 -135709.38494463763,-789401.9682737605 -82275.07612062374,-695456.1940331471 -38475.05485994053,-588881.0490377228 -5968.585266945484,-470232.8323730298 13598.978398266572,-340257.80965895875 18617.082940165255,-199895.7352881193 7531.816945264345,-50281.20623296517 -21131.507668334503,107257.3145628524 -68745.26514441943,271200.9490486076 -136556.17018067828,439846.45187558647 -225661.9509645045,611314.953748194 -336988.3330324811,783563.4719808373 -471266.6417497262,954399.2302958061 -629012.3441457816,1121496.797761297 -810504.8606615775,1282418.0223571102 -1015768.9837259224,1434634.6982439426 -1244558.2426794663,1575553.8677197003 -1496340.553114806,1702545.6194342142 -1770286.4829501149,1812973.2041039139 -2065260.4572838547,1904225.2481607602 -2379815.209115094,1973749.8049608315 -2712189.7632292258,2019089.942874653 -3060311.2158659277,2037920.530319184 -3421800.5431840993,2028085.8401284881 -3793982.6370557956,1987637.5601718766 -4173900.727460177,1914872.7644021574 -4558335.306877828,1808371.3691446225 -4943827.623842003,1667032.574009373 -5326707.760494126,1490109.7659062147 -5703127.252994942,1277243.3488258014 -6069096.154408982,1028490.9518600843 -6420524.377729213,744354.46387353 -6753267.092630228,425803.34576415556 -7063173.883984305,74293.68078150449 -7346141.3138657585,-308217.55975446565 -7598168.462475542,-719263.5334797193 -7815414.95796918,-1155864.292555938 -7994260.9414351825,-1614529.7232730512 -8131368.352157221,-2091269.0368720475 -8223742.860737352,-2581607.1325468333 -8268795.724612876,-3080608.0895965397 -8264404.792929027,-3582905.9742300725 -8208973.846592301,-4082743.0679611806 -8101489.425566175,-4574015.539376591 -7941574.269997662,-5050326.489930086 -7729536.485451341,-5505046.208045389 -7466413.536193136,-5931379.365047912 -7154010.174857033,-6322438.782249368 -6794929.432608128,-6671325.291946606 -6392595.821650214,-6971213.107333146 -5951269.9420725955,-7215440.008619616 -5476053.73792042,-7397601.54636182 -4972885.713200541,-7511648.359517794 -4448525.497349671,-7551985.606575787 -3910527.241381197,-7513573.414733221 -3367201.4302156596,-7392027.1661164425 -2827564.8131301943,-7183716.362972181 -2301278.282204453,-6885860.74719441 -1798572.667268011,-6496622.295003071 -1330162.56416385,-6015191.66654977 -907148.4699334918,-5441867.664102331 -540907.6624219598,-4778128.242582385 -242974.43123054784,-4026691.6238064435 -24910.440176081298,-3191566.0918873423 101833.82345358278,-2278087.0928048384 126065.38257780114,-1292940.3268886867 37001.58402262975,-244169.60940662838 -175572.0786716888,858831.6180725421 -521140.76520656043,2005346.1142943737 -1008297.4945571175,3183376.8421771456 -1644580.67979727,4379709.8192350045 -2436314.039260267,5579996.294235751 -3388451.0392958634,6768854.521440857 -4504426.112010938,7929991.178124214 -5786014.957504872,9046342.229732383 -7233206.281938344,10100232.791985152 -8844087.338156259,11073555.272673145 -10614745.622561507,11947964.800438935 -12539189.038763441,12705090.66625454 -14609286.763723841,13326762.218729282 -16814732.944503665,13795247.37013411 -19143035.212421495,14093501.589671273 -21579529.825962685,14205424.987798953 -24107425.04403445,14116124.83424447 -26707874.08744705,13812180.606728317 -29360078.769580975,13281908.441472964 -32041424.56828962,12515621.65441161 -34727647.571894884,11505883.82775472 -37393033.36483986,10247750.814246748 -40010647.525867134,8738997.904967284 -42552596.99667008,6980328.339621431 -44990321.145494655,4975559.314407723 -47294910.90229679,2731781.664927574 -49437453.884403415,259489.47302797332 -51389402.96920507,-2427324.0306573203 -53122965.30867591,-5311107.720463493 -54611508.325251624,-8370734.206757853 -55829978.785901405,-11581524.778797047 -56755330.62744714,-14915320.251645619 -57366956.80786824,-18340599.91203821 -57647120.092118956,-21822650.30676234 -57581377.35360957,-25323785.11391942 -57158991.69061908,-28803616.785069555 -56373326.42707923,-32219380.04836365 -55222214.89573386,-35526306.723695055 -53708299.79469656,-38678050.62587489 -51839335.871523224,-41627160.62680278 -49628449.72726408,-44325599.21937562 -47094350.65111468,-46725303.18192002 -44261486.598116234,-48778782.19046761 -41160139.710966825,-50439750.47605754 -37826456.16462308,-51663785.88487974 -34302405.58023384,-52409009.98035501 -30635665.813321844,-52636782.138554655 -26879429.569083,-52312399.94227203 -23092130.033194013,-51405797.58545413 -19337083.52627251,-49892233.46941233 -15682048.089620804,-47752957.71618694 -12198697.883192891,-44975849.953173555 -8962014.31675429,-41556017.44705315 -6049595.933428622,-37496343.49388221 -3540890.211531096,-32807975.915183455 -1516351.6347131776,-27510745.575240027 -56531.589803968345,-21633505.030088585 758893.1270608392,-15214377.750012036 852145.1967478982,-8300908.82984462 148415.85578815793,-950108.7184850958 -1423032.1995071275,6771617.737104395 -3927739.5663999184,14788663.727348838 -7424915.0774197765,23016540.132495977 -11966304.423542354,31362326.93107142 -17595076.810905226,39725259.56818266 -24344744.74100874,47997452.02290851 -32238132.604014967,56064756.72981314 -41286410.219388016,63807759.8172511 -51488207.73190396,71102908.33866286 -62828828.35903509,77823764.30815744 -75279575.37447247,83842378.42654085 -88797209.38998844,89030774.41823839 -103323551.45398462,93262532.91526867 -118785246.71168208,96414461.84474114 -135093702.36343065,98368338.32644705 -152145212.4106563,99012705.19303128 -169821280.19325623,98244703.43445757 -187989148.0000901,95971920.16894932 -206502541.08140782,92114230.18306124 -225202631.21721542,86605607.69262843 -243919222.61111936,79395883.782791 -262472160.3005438,70452424.01705705 -280672958.52061665,59761699.98966152 -298326643.55285245,47330728.15805429 -315233802.5571444,33188349.157352623 -331192826.7555704,17386320.987888556 -346002334.14170563,200.0000004237309" stroke="white" stroke-width="1.5" /></svg>