<?xml version="1.0" encoding="utf-8" ?>
<svg baseProfile="full" height="400" version="1.1" width="400" xmlns="http://www.w3.org/2000/svg" xmlns:ev="http://www.w3.org/2001/xml-events" xmlns:xlink="http://www.w3.org/1999/xlink"><defs /><rect fill="black" height="100%" width="100%" x="0" y="0" /><circle cx="200" cy="200" fill="yellow" r="20" stroke="orange" stroke-width="2" /><polyline fill="none" points="199.28371473160254,200.0 199.3205244793124,199.96433063906355 199.3640518307567,199.93304674455806 199.4140668165061,199.9070397865984 199.47023879697574,199.88720216676248 199.53213368300635,199.87441640507546 199.59921225229087,199.8695437331702 199.6708296558222,199.87341219600233 199.7462362000365,199.88680437747803 199.8245794801894,199.91044487776432 199.9049079287449,199.94498768170916 199.9861758292202,199.99100356849783 200.06724983107168,200.04896772222548 200.1469169849091,200.11924771126925 200.22389429969914,200.2020920110094 200.29683980478816,200.29761924939072 200.36436507969748,200.40580835785482 200.42504919389611,200.52648981114712 200.47745397733757,200.65933813825694 200.52014052067784,200.80386588315602 200.5516867820178,200.95941918794128 200.57070615498932,201.12517516237796 200.57586683131376,201.30014119261264 200.565911769893,201.4831563279461 200.53967906435042,201.6728948680204 200.49612248203758,201.86787225360987 200.4343319301763,202.06645334247298 200.35355358933882,202.2668631275224 200.2532094411956,202.46719992803787 200.13291590669795,202.66545105595344 199.992501302906,202.85951092861458 199.83202182181657,203.04720156706472 199.6517757330517,203.226295385182 199.45231551438408,203.3945401401637 199.23445762001558,203.54968587931398 198.99928960647034,203.68951368222048 198.74817435006025,203.81186596163508 198.48275110823022,203.91467805115 198.20493319975077,203.99601077356408 197.91690210570064,204.05408365115315 197.62109782442968,204.08730838840577 197.32020534910532,204.09432222967638 197.0171371758659,204.07402076916128 196.71501179380817,204.02558976913892 196.41712815473906,203.9485355250369 196.12693617047935,203.8427133030892 195.8480033381068,203.70835336858846 195.5839776484011,203.54608412046008 195.33854698937063,203.35695185147705 195.11539531451322,203.14243666324967 194.9181559037507,202.90446408145505 194.75036210308772,202.64541193985144 194.61539598624412,202.36811213161667 194.51643543702548,202.07584686354954 194.4564002042249,201.77233909268418 194.43789753056274,201.4617368758156 194.46316800273138,201.1485914201478 194.53403231017336,200.8378286874913 194.65183963494314,200.53471447478987 194.81741842306386,200.2448129697829 195.03103030839466,199.97393886174615 195.29232797241454,199.7281031728288 195.60031772680406,199.51345306475582 195.95332759962218,199.33620596772403 196.34898168967138,199.20257847223382 196.78418152684043,199.11871051931865 197.25509513843699,199.0905855190412 197.75715447250408,199.12394712001893 198.28506176871454,199.2242134428687 198.83280539564333,199.39638967651248 199.39368559015972,199.6449800169203 199.9603504406384,199.97390000171728 200.52484235109458,200.38639035977621 201.07865510879904,200.88493355109 201.61280155417924,201.47117421753663 202.11789171979117,202.14584479831768 202.58422116593582,202.90869758364963 203.00186909534864,203.75844448556583 203.36080567971595,204.6927057944165 203.65100787812884,205.70796916291349 203.86258287367127,206.79956001558992 203.9858981009868,207.9616245197241 204.01171668681928,209.18712617368448 203.93133697922602,210.46785697006368 203.73673470153668,211.79446397386906 203.4207061363662,213.1564920206458 202.97701062530265,214.54244308618084 202.40051056351197,215.93985270908937 201.68730697764678,217.33538366108687 200.8348687022864,218.71493685834233 199.84215311676166,220.0637792924964 198.70971637262502,221.36668853348755 197.43981103406077,222.60811312029753 196.03646907087824,223.77234791240048 194.5055681878665,224.84372322661324 192.85487954646297,225.80680633396878 191.09409503587707,226.64661364214555 189.23483238169683,227.3488316440502 187.2906165409574,227.9000444756921 185.27683602366972,228.28796569996462 183.21067300153842,228.5016717209043 181.11100631428,228.53183403905211 178.99828676142303,228.37094738630446 176.8943843711344,228.0135506317234 174.82240766545192,227.45643723169175 172.80649529085147,226.6988519119526 170.8715807514416,225.74267021869204 169.04313136593876,224.5925575639098 167.3468629651949,223.2561044196 165.80843225028894,221.74393438812845 164.45310913755407,220.06978199465627 163.30543182153846,218.25053721310482 162.38884768464982,216.30625395107953 161.72534356769336,214.26011998194613 161.33506928306878,212.13838612388568 161.23595859626707,209.97025282563433 161.44335221564228,207.7877127255057 161.96962760933488,205.62534820227094 162.8238407058488,203.52008343094505 164.0113847254173,201.51089099018307 165.53367152740722,199.6384536368167 167.38784093937903,197.9447824623386 169.56650355116432,196.472793270455 172.05752240803918,195.26584365808324 174.8438389168741,194.36723393764126 177.90334808478053,193.81967569882204 181.20882793870013,193.66473246538033 184.72792762482825,193.9422375484017 188.42321825782076,194.68969482328095 192.2523100814223,195.94166875406538 196.16803891548145,197.72917054654002 200.11872420133298,200.0790478209156 204.0485002213689,203.01338564665446 207.8977212635391,206.54892716634683 211.60344063292868,210.69652234334416 215.09996248698732,215.46061359009877 218.3194644961549,220.8387671623739 221.19268831634673,226.82125923076282 223.64969381396196,233.39072545815398 225.6206719187221,240.52188271361257 227.0368099066796,248.18133123436724 227.83120184799103,256.32744510407457 227.9397959051651,264.9103583444497 227.30236915177824,273.8720532172641 225.86351961395934,283.146556504683 223.57366433253546,292.6602485796297 220.39003141808755,302.3322889976985 216.27763333984052,312.0751611432172 211.2102080677158,321.79533715137586 205.17111419009015,331.394062914677 198.15416577237144,340.76826147604123 190.1643925171984,349.81155152526384 181.21871074869188,358.41537606455114 171.34649088232962,366.4702346087379 160.5900073688264,373.86701055435367 149.00475762339352,380.4983836084191 136.65963717755827,386.2603154335831 123.63695922388379,391.0535949631816 110.03230786674263,394.7854281912337 95.95421574456932,397.3710556724999 81.5236582479625,398.7353795012742 66.87335831807343,398.8145801997566 52.146897762472776,397.5577027629099 37.49763315974835,394.92819010168506 23.08741672504877,390.9053413248764 9.085124959193507,385.4856717252592 -4.334999516639641,378.6841510104077 -16.995184853737214,370.5352962634327 -28.716134745160048,361.09409635262625 -39.31918740632179,350.43674504804426 -48.62861226895535,338.66116096120163 -56.47402507348778,325.88727361194697 -62.6928992793741,312.2570564515581 -67.13314903699188,297.9342895367637 -69.65575641752855,283.10403675534724 -70.13741321922924,267.9718250455886 -68.4731455003323,252.76251591990552 -64.57888707202937,237.7188627838635 -58.39396655950986,223.0997510166016 -49.88347134536576,209.17812152413546 -39.040450785603184,196.2385824645056 -25.88792057053547,184.57471803989392 -10.480630024524459,174.48610761746883 7.093445469665596,166.27507293489742 26.7119238476223,160.24317572083453 48.21718305942383,156.68749266372453 71.41590865982116,155.89669923859435 96.07905337558302,158.1469983924577 121.942236687972,163.69793443290203 148.70660887035953,172.78813659752007 176.04019977792996,185.63104063852114 203.57976801334812,202.41064027065346 230.93316091171886,223.27732343477447 257.6821901307252,248.34385095802037 283.3860215358181,277.68153727995747 307.5850715822809,311.31669440021676 329.8053955703277,349.22740102808064 349.56354604842375,391.3406590237752 366.37187233363164,437.5299985655238 379.7442246831308,487.6135920126813 389.202019172012,541.3529341275585 394.28061189909135,598.4521431390826 394.53592385034983,658.5579330613823 389.5512506988388,721.2603027106777 378.9441851144076,786.0939809962124 362.37357290291595,852.5406613079992 339.5464186007642,920.0320502108873 310.2246511249284,987.9537472177245 274.23165582849947,1055.6499632041698 231.45847594179247,1122.4290751066842 181.86958399030237,1187.570003989271 125.5081224685563,1250.3293924624493 62.50051290166539,1309.9495458911915 -6.939666476013741,1365.667089951129 -82.50863178354967,1416.7222850097617 -163.81026687111165,1462.3689256582586 -250.3550073842094,1501.8847416464387 -341.55981723614264,1534.5822046338158 -436.7493310987103,1559.8196337264797 -535.1582269506403,1577.01248189166 -635.9348817151484,1585.6446752024194 -738.1463506131648,1585.2798676396997 -840.784697117824,1575.5724660437832 -942.7746854002589,1556.2782729364117 -1042.9828310091482,1527.264589498522 -1140.2277883505164,1488.5196171504783 -1233.2920354747926,1440.1609940965868 -1320.934797900598,1382.4433030070397 -1401.9061338947745,1315.7643878474516 -1474.962083990007,1240.670321841831 -1538.8807677779528,1157.8588747628296 -1592.4792914049788,1068.181336255761 -1634.6313099728147,972.6425627687205 -1664.2850704723858,872.3991289024993 -1680.481743230498,768.7554796053146 -1682.3738334075824,663.1579975832321 -1669.2434491356237,557.1869205106066 -1640.5201897146299,452.5460650063378 -1595.7984061766708,351.0503387580754 -1534.8535777547268,254.61104846021732 -1457.6575416250212,165.21903918065271 -1364.392309977608,84.92573014986618 -1255.4622082425378,15.822142504045672 -1131.5040713682463,-39.98395409052901 -993.3952415969029,-80.39261708474328 -842.2591213601993,-103.33783803633321 -679.4680488449759,-106.81495815656484 -506.64328152878204,-88.90913840958405 -325.6518945964116,-47.82460000958352 -138.60042660935778,18.085677474598754 52.174865947949286,110.290139860705 244.12125068823067,230.04908761975756 434.48632690003603,378.38573567333236 620.3384279260454,556.0583066912288 798.5906048045558,763.5335750151493 966.0281321627355,1000.9622882493286 1119.3394295632531,1268.1568988267927 1255.1502418464117,1564.5720381032525 1370.0608709702012,1889.2881604099878 1460.6861999733287,2240.998773716951 1523.6981975605438,2618.0016568728843 1555.870540067121,3018.1944406124803 1554.1249368696988,3439.074900526968 1515.5786963748328,3877.7462749284373 1437.5930232607645,4330.927879017973 1317.8214944160554,4794.971239091635 1154.2581217648203,5265.881916866332 945.2843756465871,5739.347134648079 689.7145133762807,6210.769247353423 386.8385347741896,6675.305037777762 36.46207052713467,7127.910737519447 -361.05749911894793,7563.392598244305 -804.7793980174216,7976.462757227039 -1293.1529742668608,8361.800058136785 -1823.997063228389,8714.1154037274 -2394.4858424433664,9028.221132407261 -3001.1417902198223,9299.103826627228 -3639.836312291215,9521.999878728968 -4305.798543392141,9692.473060476228 -4993.632762879294,9806.493267134345 -5697.344785811066,9860.515536873347 -6410.377603484846,9851.55838267473 -7125.656450755023,9777.28041804791 -7835.643372098346,9636.054210919463 -8532.401245086921,9427.036263230953 -9207.66709954999,9150.231988204856 -9852.934444276409,8806.554543982866 -10459.544181799527,8397.87638239908 -11018.783556920964,7927.072385912516 -11521.992447608147,7398.053494961534 -11960.676169303852,6815.789772859621 -12326.623827188736,6186.32191631221 -12612.031117309687,5516.760297020558 -12809.626348585043,4815.27071378791 -12912.798335439684,4091.046144995278 -12915.724697176543,3354.263918001346 -12813.498997147064,2616.0278544545754 -12602.255064331513,1888.295107967621 -12279.286764051567,1183.7875821432997 -11843.161425131912,515.8880013661851 -11293.825089745338,-101.47909734691859 -10632.697731157883,-653.9809774805315 -9862.756585242289,-1127.0242336341255 -8988.605765389513,-1505.9153328132168 -8016.530378576728,-1776.0330368847567 -6954.533433874381,-1923.0113531051252 -5812.353934384197,-1932.9314379047323 -4601.4646700072535,-1792.5206621260452 -3335.0483817596064,-1489.3568366777326 -2027.9511484830082,-1012.0753992093576 -696.6120532877607,-350.5771781237996 641.031580882554,503.76581673603675 1965.6638407385096,1557.9092738281277 3256.734932092873,2816.942949879995 4492.630824028913,4283.907445727466 5650.8673838515615,5959.624369661022 6708.308224360726,7842.542903245311 7641.4051377385385,9928.605782636538 8426.459633837607,12211.137668874344 9039.903738710374,14680.758801442696 9458.597845969294,17325.326708910216 9660.143053444091,20129.90858740515 9623.205065295862,23076.786751232594 9327.846400165023,26145.499309764382 8755.863324146025,29312.91793100702 7891.123628592951,32553.36421571896 6719.901102223067,35838.76582792668 5231.202309957141,39138.85311009979 3417.0810926094077,42421.39645663692 1272.9360469757592,45652.484230863796 -1202.2138600816124,48796.84049225885 -4005.48044271447,51818.18125653927 -7129.889106852325,54679.60744662755 -10564.19814932218,57344.03211299756 -14292.759243688477,59774.638913717274 -18295.42361368977,61935.36825436707 -22547.498128453917,63791.42690315135 -27019.75521644764,65309.81632455395 -31678.500086832042,66459.87442379845 -36485.69826787575,67213.82487242196 -41399.16592353923,67547.32770088888 -46372.82479345893,67440.02440591237 -51357.0229214805,66876.07043655668 -56298.92159777385,65844.64760268868 -61142.94814459738,64340.44870015166 -65831.31333218623,62364.126477030535 -70304.59132624631,59922.69898196719 -74502.3591503898,57029.90334552343 -78363.89170474779,53706.490155204505 -81828.90742605465,49980.450799249615 -84838.35871568194,45887.170478030275 -87335.26031215477,41469.50001816448 -89265.54785600133,36777.7401753537 -90578.95800036375,31869.532778317145 -91229.92057405107,26809.65384747318 -91178.45251836294,21669.704716178392 -90391.04260895206,16527.69818581159 -88841.5153530843,11467.537853646245 -86511.86193461562,6578.389957449034 -83393.02567714284,1953.9483746427886 -79485.62922290161,-2308.4052134858985 -74800.63049311147,-6108.542542463435 -69359.89451567651,-9344.626427006704 -63196.66838838929,-11914.238390270559 -56355.94699864136,-13715.588231427591 -48894.717651139574,-14648.79594512419 -40882.072468578976,-14617.234863325995 -32399.17833000149,-13528.923382115345 -23539.095198957744,-11297.951184238964 -14406.434967632937,-7845.924494450333 -5116.854400447077,-3103.41363126187 4203.62260456193,2988.615031824746 13419.456414461274,10477.401587661412 22386.61773645911,19397.04932887129 30953.787279726963,29767.25607097832 38963.72568124282,41592.140880961946 46254.80803138892,54859.18723545377 52662.71490715092,69538.323593752 58022.26933090873,85581.16206815215 62169.40654780897,102920.41529388566 64943.26098362452,121469.51073187927 66188.35223889837,141122.4204709874 65756.84952692119,161753.72312701656 63510.89160699933,183218.9126616418 59324.93703603588,205354.96686693165 53088.117496934676,227981.1858861646 44706.56509841459,250900.30847856743 34105.68291409799,273899.9107983486 21232.326675346038,296754.0892651319 6056.8644873952735,319225.4256762139 -11424.919264445589,341067.22907792515 -31190.109980785594,362026.04510518163 -53187.17297467198,381844.41955072567 -77334.72124410795,400263.8988783038 -103520.57352170505,417028.2462908334 -131601.13380847176,431886.8478527776 -161401.12169104142,444598.2790959982 -192713.68034172978,454933.99856377975 -225300.88620558925,462682.1309243609 -258894.68099091723,467651.29867079854 -293198.24270864937,469674.4580773375 -327887.8081675381,468612.6920632633 -362614.95454859396,464358.9099828734 -397009.34248371056,456841.4021734755 -430681.91748655034,446027.19540923316 -463228.56067272695,431925.1542817879 -494234.1735120757,414588.7730103306 -523277.1749367581,394118.6023213261 -549934.3825495373,370664.2568736263 -573786.2430081628,344425.95027462585 -594422.369981336,315655.507067085 -611447.3414614366,284656.80418635515 -624486.7017660808,251785.59830789067 -633193.1073554824,217448.70022992964 -637252.5497292003,182102.46296116087 -636390.5832401058,146250.55649295708 -630378.4807721191,110441.00930442562 -619039.2359679656,75262.50443894541 -602253.327159299,41339.9264545215 -579964.1554365901,9329.164626961654 -552183.067488767,-20088.812597289205 -518993.87302605755,-46214.5868262155 -480556.7668503562,-68337.58711406682 -437111.56702400296,-85744.00931259489 -388980.18316902895,-97725.30033633934 -336568.23275258834,-103587.1394422223 -280365.728316033,-102658.83788683225 -220946.7650071218,-94303.06784684779 -158968.1454846451,-77925.82141677053 -95166.88827377351,-52986.49098597636 -30356.575934086683,-19007.953499912157 34577.48908265901,24413.4668147211 98684.34032158459,77598.2895766586 160954.62061924406,140774.56125626003 220329.06369107147,214069.0724662675 275708.15925170877,297499.25484154373 325962.96052063536,390965.90409835667 369946.9759920767,494246.8754127147 406509.06996078935,606991.8949582739 434507.2786825228,728718.627202227 452823.4314137922,858810.1312950217 460378.4481380077,996513.8315493566 456148.1687740281,1140942.1165502095 439179.5523190669,1291074.6688592099 408607.06894859445,1445762.612587746 363669.09383455646,1603734.549355012 303724.0986056003,1763604.5343897867 228266.42521409274,1923882.0238776065 136941.4177457148,2082983.802227683 29559.680652465733,2239247.873897074 -93889.77275766319,2390949.278954534 -233227.71976225867,2536317.7649145722 -388074.5129789064,2673557.2197751584 -557841.684000899,2800866.742930347 -741725.5925090505,2916463.2020086963 -938703.3371945934,3018605.095041709 -1147531.1311909,3105617.50904878 -1366745.3276393674,3175917.938510071 -1594666.260490344,3228042.7006771797 -1829405.0416872178,3260673.659646583 -2068873.4285693828,3272664.9480044935 -2310796.8447722197,3263069.3540587663 -2552730.6042624745,3231164.024618645 -2792079.3516376833,3176475.118374532 -3026119.6927001663,3098801.033563173 -3252025.9479019004,2998233.826158006 -3466898.9179077903,2875178.4316550293 -3667797.505650707,2730369.3049568194 -3851772.993308776,2564884.0991822677 -4015905.7261236836,2380154.0156960785 -4157343.908438369,2177970.4744613986 -4273344.171340835,1960487.7761205027 -4361313.526467077,1730221.4550923796 -4418852.2774747675,1490042.0564691895 -4443797.420106753,1243164.1085553344 -4434266.024288382,993130.1074101448 -4388698.058019718,743789.3795394214 -4305898.083606501,499271.7436661433 -4185075.2326846463,263955.9519492234 -4025880.84817507,42432.95468495623 -3828443.1693734205,-160535.90009220355 -3593398.431408801,-340065.5501818361 -3321917.7528253277,-491198.5310639556 -3015729.1955200494,-608960.586432104 -2677134.4001137433,-688420.172233415 -2309019.227363035,-724751.3734201245 -1914857.872682281,-713299.67791661 -1498709.966376525,-649649.9795116392 -1065210.226833803,-529696.1115303645 -619550.2976164414,-349711.1472904038 -167452.4719405412,-106417.64258860168 284864.91086866864,202943.05910336738 730730.5231470882,580543.3853422945 1163071.5903319342,1027904.9228506364 1574473.8419112458,1545837.6301473347 1957249.6880994579,2134383.8888570894 2303514.3237760714,2792768.4156740266 2605269.3425757517,3519355.0525569743 2854493.3226103657,4311611.435383127 3043238.722462416,5166082.510333514 3163734.3032466723,6078373.822200976 3208492.1712213396,7043145.439214301 3170418.417252557,8054117.3046311755 3042926.2160767945,9104086.716200816 2820050.1414982798,10184958.530758776 2496560.3551698844,11287788.572993457 2068075.2382180037,12402840.595326047 1531170.9584617778,13519656.990588075 883486.4030910172,14627143.301687539 123821.85910053513,15713666.403866883 -747770.2068512121,16767166.056826128 -1729903.9296685813,17775279.33748272 -2819790.040977726,18725477.271232687 -4013178.7023303416,19605212.78224243 -5304316.749702559,20402078.88369191 -6685920.848701659,21103975.829340473 -8149167.962458961,21699285.75078061 -9683704.412789596,22177053.11290945 -11277674.669741958,22527169.136206567 -12917770.835341947,22740558.16118621 -14589303.594666442,22809363.77075909 -16276295.19219088,22727132.34309299 -17961594.75481409,22488991.583783723 -19627016.026586916,22091821.484583568 -21253497.305814065,21534415.07932293 -22821283.085076164,20817626.318638492 -24310126.591380883,19944502.366138827 -25699512.10998925,18920397.63194407 -26968895.654682413,17753066.90713443 -28097962.222856123,16452735.046225673 -29066897.549642134,15032140.765741419 -29856671.955309216,13506552.286261598 -30449333.568750463,11893752.743584102 -30828307.911371086,10213993.531987585 -30978700.54471954,8489914.018686848 -30887599.226437185,6746426.382596216 -30544371.787235536,5010564.681089425 -29940955.74133518,3311297.6336557036 -29072135.47872174,1679305.0287280998 -27935802.764163975,146718.10646526786 -26533196.18944511,-1253175.2577039166 -24869115.195677847,-2486259.250572396 -22952104.305542164,-3517950.871437571 -20794603.28404085,-4313590.385457345 -18413059.08366455,-4838858.603187086 -15827995.627915123,-5060217.582702524 -13064037.747548848,-4945370.831066071 -10149885.907617673,-4463738.57623979 -7118238.750611688,-3586943.1961136214 -4005660.931180451,-2289299.435550358 -852394.2296496264,-548303.6228390485 2297889.4973942502,1654884.278659201 5398394.343921958,4334972.27197643 8399565.49375889,7502088.334511271 11249512.880840411,11161359.784750625 13894492.01099789,15312527.08566662 16279439.78341192,19949599.208782073 18348562.32057437,25060557.643438008 20045970.967965353,30627116.0055753 21316361.76798882,36624541.97489745 22105732.857078858,43021547.96504811 22362133.390992943,49780256.50582117 22036436.78244037,56856245.78793976 21083130.249102402,64198680.189271085 19461111.930896197,71750529.86743943 17134486.15534987,79448882.66993406 14073346.821623182,87225350.68268125 10254538.349383175,95006572.71675472 5662383.210586195,102714812.92706695 289364.74198675127,110268654.57458812 -5863246.264895298,117583786.69448379 -12784832.771085098,124573880.12758759 -20454952.001751125,131151548.02436608 -28842946.55370624,137229384.55281186 -37907657.020143576,142721074.14973292 -47597246.52302321,147542562.26502803 -57849146.84777789,151613277.17818227 -68590135.01210958,154857391.13375387 -79736548.07007697,157205107.76715025 -91194642.75606273,158593961.5932072 -102861105.2143078,158970114.228036 -114623714.54453914,158289631.02946496 -126362162.23120509,156519720.99330384 -137949027.72371787,153639922.0512631 -149250908.51113817,149643213.40083486 -160129701.0025307,144537036.1759295 -170444026.4018296,138344203.6565876 -180050793.57381034,131103682.33213207 -188806888.65831834,122871225.48846562 -196570978.9278821,113719841.59845185 -203205416.1259326,103740080.66381074 -208578222.297392,93040122.79435693 -212565138.96025524,81745654.71952032 -215051718.3970316,69999521.6085735 -215935433.9006047,57961143.527199656 -215127784.02269763,45805688.07271855 -212556364.27760676,33722993.19858862 -208166878.38174343,21916236.94697001 -201925059.99288005,10600353.73855699 -193818475.08279645,200.00000023735942" stroke="white" stroke-width="1.5" /></svg>