<?xml version="1.0" encoding="utf-8" ?>
<svg baseProfile="full" height="400" version="1.1" width="400" xmlns="http://www.w3.org/2000/svg" xmlns:ev="http://www.w3.org/2001/xml-events" xmlns:xlink="http://www.w3.org/1999/xlink"><defs /><rect fill="black" height="100%" width="100%" x="0" y="0" /><circle cx="200" cy="200" fill="yellow" r="20" stroke="orange" stroke-width="2" /><polyline fill="none" points="198.93517986019285,200.0 198.88823457550112,199.94163739384902 198.84573116644958,199.8784774297671 198.80829015663858,199.81093134085518 198.77650387395585,199.73949071543097 198.7509269700829,199.6647267056363 198.7320667663848,199.58728819133728 198.72037353441286,199.50789885212606 198.7162308273048,199.42735311065383 198.71994598551302,199.34651092210063 198.7317409463817,199.26629139725324 198.75174349197948,199.18766526032988 198.7799790731349,199.11164615726202 198.81636334968408,199.03928084549293 198.8606955873971,198.97163831234556 198.9126530507903,198.90979788548907 198.97178652795606,198.8548364158255 199.03751711856475,198.8078146300331 199.1091344092541,198.76976276684303 199.18579615166794,198.74166562767394 199.26652954742178,198.72444718828012 199.35023423125412,198.7189549333492 199.43568702859463,198.72594409027528 199.52154854680072,198.74606195138563 199.60637164045514,198.77983248547451 199.68861177049726,198.82764144934512 199.76663925470854,198.88972221795032 199.83875338336426,198.96614255741852 199.90319834889044,199.05679256854015 199.95818091235572,199.1613740289659 200.0018897028365,199.27939136025233 200.03251601839997,199.4101444408161 200.0482759699615,199.55272347769755 200.04743378191614,199.70600613867492 200.02832603657114,199.86865713164624 199.98938662338196,200.03913040026367 199.92917212919883,200.2156740835715 199.84638738255723,200.39633836290463 199.7399108438876,200.5789862916344 199.60881951477788,200.76130767263942 199.45241302349118,200.9408360148015 199.2702365312057,201.1149685636146 199.0621020942787,201.2809893624158 198.82810811259287,201.43609526012634 198.56865649305055,201.5774247390948 198.2844671608357,201.7020893930785 197.97658955942424,201.80720784104022 197.6464107937115,201.88994181777275 197.29566008920784,201.94753413792995 196.92640926414757,201.977348186408 196.5410689406228,201.9769085457787 196.1423802554853,201.94394233125072 195.73340187168566,201.8764207660549 195.31749213579945,201.7726004958669 194.898286277506,201.63106411053528 194.4796686014472,201.45075931562326 194.06573968083325,201.23103617571942 193.6607786249289,200.97168183673642 193.26920055862897,200.67295212606632 192.8955095211083,200.3355994280287 192.54424706134122,199.96089623801706 192.21993688037773,199.55065381253803 191.92702594283207,199.10723535430031 191.6698225522104,198.63356320192207 191.45243195555386,198.1331195328697 191.2786901114323,197.60994013601606 191.15209632058549,197.06860086669587 191.07574547943915,196.51419646222797 191.05226077227647,195.9523114693284 191.08372766696803,195.38898311630686 191.171630120815,194.83065605193983 191.31678993622154,194.28412896884868 191.5193102296024,193.75649323134792 191.7785239902202,193.25506373521367 192.09294870767485,192.78730233867603 192.46024803675158,192.36073431906257 192.87720144559424,191.98285842670103 193.33968275713838,191.6610512256048 193.84264844396938,191.4024665277028 194.38013647296538,191.2139308424237 194.94527641809742,191.10183587473512 195.53031146760665,191.07202921062571 196.12663284566352,191.12970442782975 196.72482704891618,191.27929195962324 197.31473616563818,191.52435211906004 197.88553140026676,191.86747175837536 198.42579976996709,192.3101660918059 198.92364377365612,192.85278724817107 199.36679365906403,193.49444114071824 199.74273173150087,194.23291424456264 200.03882796081726,195.0646118552813 200.24248595258067,195.9845093647529 200.34129815787776,196.98611803124518 200.32320900570969,198.0614666393296 200.17668445511435,199.20110034096473 199.89088628349697,200.3940978418047 199.455849255836,201.62810794649567 198.86265915918761,202.88940630375274 198.10362954100344,204.16297299699053 197.17247486098242,205.4325914101687 196.0644776572427,206.68096856257736 194.77664724121092,207.88987685214073 193.30786737436907,209.04031687639647 191.65903034631526,210.11270071589252 189.8331548697549,211.08705476892916 187.83548523608366,211.94324092228172 185.67356923694416,212.66119453298253 183.35731245401996,213.22117738492287 180.89900665252253,213.604043474706 178.31333018410436,213.79151517782702 175.61731851266183,213.76646705304415 172.83030322159325,213.51321426407029 169.97381814301153,213.01780233788594 167.07147156712975,212.26829474255732 164.1487838419912,211.25505455894267 161.2329900578112,209.97101634455174 158.35280792381832,208.41194414844443 155.53817138545043,206.57667153761363 152.81993099237386,204.46731944175625 150.22952250881116,202.08948761837067 147.79860575233107,199.45241558704606 145.55867615033486,196.56910898351282 143.54065200927423,193.45642744291942 141.7744409940379,190.13513033972947 140.28848980748035,186.62987698984713 139.10932153593814,182.96917825965053 138.26106557875815,179.18529692639885 137.76498550112962,175.31409459407473 137.63901053256174,171.39482348641724 137.89727677084963,167.46986201213915 138.5496844360801,163.5843936226999 139.6014777440628,159.78602915623037 141.05285412672433,156.1243735771085 142.89860961204118,152.6505387732175 145.12782718205546,149.416604855172 147.72361484904235,146.47503320603363 150.66290002230596,143.8780353477186 153.91628647747842,141.67690251215708 157.447979883607,139.92130162135507 161.21578738873282,138.65854418028982 165.17119621119267,137.93283535899963 169.25953553176498,137.78451127387254 173.42022523254926,138.24927316126028 177.58711418491603,139.35742775727175 181.68890985518163,141.13314374402688 185.6496999784175,143.59373458300675 189.38956595500576,146.74897841892536 192.82528645963282,150.60048599172146 195.87112852824114,155.14112762939698 198.43972211628704,160.35453040084886 200.4430128140952,166.21465637685668 201.7932860760527,172.68547267142634 202.4042549849418,179.7207235084727 202.19220224705097,187.26381397553416 201.0771658149818,195.24781438365233 198.98415628123584,203.5955932492991 195.84439299533196,212.22008585074343 191.5965447494261,221.02470409005133 186.18795987149235,229.90389201760286 179.57586968041437,238.7438298554506 171.7285485129479,247.42328769814958 162.62641294711,255.814628286294 152.2630424380559,263.7849563526745 140.6461033678487,271.1974100497959 127.79815850536579,277.9125878988246 113.75734409100727,283.79010257441035 98.57789721513969,288.6902506798758 82.33051685945082,292.47578549756446 65.102542924401,295.013777546014 46.997938778814955,296.1775456669826 28.137064341656384,295.8486393304051 8.656228440285986,293.9188509143478 -11.292988820102806,290.2922349209424 -31.544650702272463,284.88710945950413 -51.9196200481409,277.6380138959753 -72.22695890696224,268.4975953645488 -92.26557052973556,257.4383958931056 -111.82607959550722,244.45451123804526 -130.6929432966083,229.56309218365402 -148.64678254616052,212.80565906171864 -165.46691911575692,194.24920061149788 -180.93410100107002,173.98702904821246 -194.83339478811757,152.1393643563319 -206.95722029598653,128.85362238460982 -217.10849934831674,104.30438330127487 -225.10388722331186,78.69301937354709 -230.77705219963423,52.24696386421746 -233.98196570365695,25.218606082521063 -234.59616292316667,-2.1161987255524366 -232.52393143474933,-29.460011929386695 -227.6993834472391,-56.49608939652467 -220.08936574090075,-82.8910528705261 -209.69616032867668,-108.29794799091889 -196.55992832644154,-132.3596768342003 -180.76084953484002,-154.71278738467953 -162.42091084298966,-174.99159672634187 -141.7052977961588,-192.8326190417879 -118.82334555197167,-207.87926377680287 -94.0290080029323,-219.7867636489944 -67.62080708023598,-228.22728662003755 -39.94122818049459,-232.89518059063988 -11.375532270501822,-233.51229449540187 17.65003948591874,-229.8333147531476 46.67068679113211,-221.6510517499022 75.18610861053635,-208.80160727944087 102.66420339301182,-191.16935072212328 128.5454079163187,-168.6916292863852 152.2476633947615,-141.3631359454596 173.1719889168461,-109.23985784685311 190.70863338488866,-72.44252802050852 204.24376799541838,-31.159504223354332 213.16667202646758,14.35099921498795 216.87735539146047,63.75939759543516 214.7945521929083,116.66400697598283 206.36401048262184,172.59116180855546 191.06699473434378,230.9962342654312 168.42890928962203,291.2656029111532 138.0279433814992,352.7196097555865 99.50363140783057,414.6165350406317 52.565216051481514,476.15760841610114 -3.000303238673297,536.4930635147184 -67.32055785450507,594.729230423404 -140.43075788897016,649.9366472655502 -222.26732577072283,701.1591581705361 -312.66234107806565,747.4239504417758 -411.33892025413945,787.752468887799 -517.9076516105033,821.1721302113425 -631.8642009508023,846.7287452317629 -752.5881963178185,863.4995417309988 -879.3434917317466,870.6066660581577 -1011.2798993319775,867.2310275071823 -1147.436467066582,852.6263361071697 -1286.7463650247846,826.1331720523459 -1428.0434277332502,787.1929137671499 -1570.0703823177093,735.3613417702145 -1711.4887734739466,670.3217272853615 -1850.8905758292308,591.8972081584207 -1986.8114626660245,500.06225027756267 -2117.745677309833,394.95299055203225 -2242.1624299630967,276.87625775487345 -2358.523718632983,146.31707033654936 -2465.3034483117317,3.944415804558332 -2561.007698004918,-149.38487544957513 -2644.195960866123,-312.62433782539426 -2713.5031589040213,-484.53832153430074 -2767.6622108122365,-663.7048317457736 -2805.526909777426,-848.5208806310332 -2826.094847998473,-1037.2104541763913 -2828.5301064550194,-1227.8351699378052 -2812.185412552595,-1418.3076735387015 -2776.6234549949377,-1606.4077908491267 -2721.637034933342,-1789.801419642423 -2647.267725446082,-1966.0621093662457 -2553.8227080153342,-2132.6952407889485 -2441.8894551800536,-2287.164679035586 -2312.3479332041948,-2426.921734292403 -2166.3800076313755,-2549.436224657589 -2005.475748179817,-2652.2293957063766 -1831.4363477005993,-2732.9084118090523 -1646.3733929651098,-2789.2020956088204 -1452.704252896903,-2818.9975548733737 -1253.1433824943515,-2820.3773007382147 -1050.6893780181201,-2791.6564287332035 -848.6076608916874,-2731.4194045044287 -650.4087139674958,-2638.555970388624 -459.8218440608749,-2512.2956675367527 -280.7644985953139,-2352.2404516726183 -117.30722141077939,-2158.3948693410307 26.365607229717256,-1931.1932561503936 145.99903920264595,-1671.5234195052726 237.31456463638062,-1380.7462760688657 296.060519865926,-1060.710929049182 318.0654966764136,-713.7646926571678 299.2942880743919,-342.75760095923147 235.90584309853426,48.95902402080037 124.31264281342398,457.5403246530425 -38.759147469463755,878.6623069990496 -256.2094476013879,1307.5431527125509 -530.5046992594772,1738.9716409849664 -863.6197571763528,2167.3428027362374 -1256.9820569388144,2586.700847450508 -1711.4189081468585,2990.789315273354 -2227.108779749868,3373.1083139142843 -2803.5374528279963,3726.9786023382353 -3439.459914217214,4045.612182096126 -4132.868851518648,4322.188953456236 -4880.9705856101655,4549.938888373406 -5680.1692403205025,4722.229066983904 -6526.0599000808525,4832.654820035798 -7413.431444914554,4875.134117826486 -8336.279677979997,4844.004248250811 -9287.831274121996,4734.119733943947 -10260.578978741913,4540.950352741679 -11246.328375175466,4260.67804830479 -12236.256416246284,3890.291450286789 -13220.981782505525,3427.676667368886 -14190.646986817594,2871.7029733045897 -15135.011993535594,2222.3019772073903 -16043.558961839026,1480.5388559948078 -16905.60755836921,648.674230380365 -17710.44011575165,-269.7847128368372 -18447.43574276444,-1270.0452092656365 -19106.212320767303,-2346.00331353708 -19676.77515165608,-3490.2329214962747 -20149.670857280857,-4693.990535051536 -20516.144971285903,-5947.236765765573 -20768.30151410114,-7238.675431783688 -20899.262702794495,-8555.810941097676 -20903.32682215731,-9885.024473105046 -20776.12217422411,-11211.669270889694 -20514.754932856955,-12520.185139869041 -20117.948660432812,-13794.232015962602 -19586.173197325348,-15016.842220079583 -18921.760613906772,-16170.590757633907 -18129.005921172396,-17237.782754400356 -17214.250271559344,-18200.656846026217 -16185.944447601767,-19041.603060877078 -15054.690533965448,-19743.393457834 -13833.259799046535,-20289.423505600727 -12536.58497627313,-20663.96192164833 -11181.725332705013,-20852.406430905652 -9787.803143272688,-20841.54266059999 -8375.910452392745,-20619.803162258326 -6968.98529965258,-20177.52334882457 -5591.656911216668,-19507.190958152656 -4270.059711538136,-18603.685507765356 -3031.616388345345,-17464.50409357598 -1904.790644711201,-16089.969810937673 -918.8106918210806,-14483.419043374826 -103.36497088163111,-12651.363875842751 511.7279619464413,-10603.625948189128 896.8730024824235,-8353.438173096918 1023.0726804334143,-5917.510903150877 862.318672620428,-3316.059345269755 387.9969280253715,-572.7892884770774 -424.6977336122661,2285.161466843959 -1598.3420832693828,5227.328213824037 -3152.8649032439507,8220.072784465956 -5105.132594930969,11226.7866613626 -7468.545487797625,14208.144552490989 -10252.650600142939,17122.40865128449 -13462.77678310094,19925.783188424248 -17099.69829855865,22572.818229682867 -21159.332933596765,25016.860991373473 -25632.480733571174,27210.55223794629 -30504.609338443188,29106.364602207734 -35755.691728487494,30657.178935373497 -41360.10192285977,31816.8940602179 -47286.57382532171,32541.064575030716 -53498.22797424572,32787.56064852537 -59952.670428401616,32517.243066267667 -66602.16740658363,31694.646147943415 -73393.89859960902,30288.660562393834 -80270.2912905533,28273.207534467343 -87169.43655745345,25627.895474979025 -94025.58789752511,22338.649682884985 -100769.74160994182,18398.305477318787 -107330.29721335102,13807.154926112738 -113633.79506388506,8573.437255923393 -119605.72718988199,2713.7630654640648 -125171.41618259456,-3746.5373749492655 -130256.95579063316,-10773.151160923504 -134790.20567358544,-18322.61412168766 -138701.83159198888,-26342.244940094388 -141926.38116219454,-34770.189733071544 -144403.38420191145,-43535.58394298532 -146078.46565217208,-52558.83739003029 -146904.4581012477,-61752.04719564888 -146842.50007294453,-71019.54201192132 -145863.1054929871,-80258.55958868233 -143947.18912982187,-89360.05818769388 -141087.03233661008,-98209.66072247717 -137287.17311518465,-106688.72877642162 -132565.20439508857,-114675.5618456406 -126952.46448500031,-122046.71528382109 -120494.60392196132,-128678.42851305497 -113252.01342617301,-134448.15312820207 -105300.09837405494,-139236.1685852402 -96729.386135914,-142927.27125037083 -87645.45379067231,-145412.52072175514 -78168.6651296636,-146591.0255460961 -68433.70749283735,-146371.74876518556 -58588.920838938175,-144675.31217084642 -48795.41352853107,-141435.77674852865 -39225.96158388459,-136602.37557815865 -30063.690668232644,-130141.17446327378 -21500.542680923714,-122036.63480275382 -13735.531673162126,-112293.05272910783 -6972.796726858198,-100935.84833725276 -1419.4624786609597,-88012.6789399628 2716.6789184487093,-73594.35073017287 5229.647456523774,-57775.50402280521 5917.8964702809,-40675.04840323314 4587.052176116713,-22436.325635763784 1052.7453297586003,-3226.9800895537187 -4856.494124721437,16761.481277233 -13296.311278575251,37314.45467445196 -24403.603742522668,58195.34324936093 -38293.63904422613,79147.0077557754 -55057.25055282471,99893.5692894487 -74758.15215617594,120142.56522164877 -97430.41313600261,139587.45514411456 -123076.13547186574,157910.46907014542 -151663.3761179586,174785.78535862715 -183124.35660158668,189883.0208857365 -217354.00155730618,202871.01093339195 -254208.84650888745,213421.85114944653 -293506.35332102724,221215.16882200268 -335024.6692478926,225942.58566259494 -378502.862396871,227312.3293776048 -423641.66270083026,225053.9465941106 -470104.7331557938,218923.06526758338 -517520.4911462571,208706.15060805262 -565484.4941687346,194225.1948927671 -613562.3982054258,175342.27836086656 -661293.4904328663,151963.93578186075 -708194.7909228234,124045.26132529344 -753765.7105609346,91593.68310105037 -797493.2446381889,54672.338251368514 -838857.673535291,13402.979814316222 -877338.7337023821,-32031.65220449515 -912422.2138265977,-81386.06097622745 -943606.9227747667,-134350.88653732796 -970411.9677016895,-190552.52127161645 -992384.2727352402,-249553.50035875227 -1009106.2610018792,-310853.71428387775 -1020203.6155572467,-373892.4834323127 -1025353.0281560719,-438051.52675080876 -1024289.8388543013,-502658.8474780497 -1016815.4643039501,-566993.5490808721 -1002804.5083960538,-630291.5838420981 -982211.4457434065,-691752.4251091769 -955076.7664818638,-750546.6421218727 -921532.4701087466,-805824.3436988627 -881806.7966628708,-856724.4439978192 -836228.0855657709,-902384.6902053241 -785227.6559583461,-941952.3785082819 -729341.607438271,-974595.6712056266 -669211.446772263,-999515.4145067465 -605583.4544475727,-1015957.3436087294 -539306.714844523,-1023224.5492335474 -471329.7453421219,-1020690.0681294207 -402695.67277623026,-1007809.4492921613 -334535.9202971512,-984133.1380382834 -268062.383740672,-949318.5117571824 -204558.09402998615,-903141.3943762078 -145366.38073867376,-845506.8714759084 -91878.57161643945,-776459.2247701269 -45520.28343576387,-696190.8034824495 -7736.380762637766,-605049.6511582234 20025.299030086462,-503545.7097841372 36331.334241106444,-392355.42885936116 39781.07862389217,-272324.6153651575 29025.828666626716,-144469.3714799621 2788.613528878629,-9974.9804221756 -40115.5973465388,129807.38301777063 -100759.4928690843,273366.2218964351 -180083.06653043278,419037.6497683501 -278873.5671655112,565015.7460238604 -397746.02461921674,709365.3672070724 -537124.6316684001,850037.4192790522 -697225.271759266,984886.5655040339 -878039.4872792014,1111691.312635338 -1079320.184920721,1228176.3846463724 -1300569.372968367,1332037.2587104042 -1541028.2198298136,1420966.702836246 -1799669.7136553272,1492683.1189041378 -2075194.189297221,1544960.4592358707 -2366027.97104654,1575659.4497222938 -2670325.357486957,1582759.8183899883 -2985974.1484135073,1564393.1956065712 -3310604.8831172544,1518876.321405268 -3641603.924532754,1444744.1671677574 -3976130.4849373074,1340782.553656824 -4311137.646294634,1206059.8256519542 -4643397.382226849,1039957.1257170433 -4969529.53931564,842196.7964090381 -5286034.683376821,612868.431986046 -5589330.661985016,352452.0978281179 -5875792.678366017,61838.23874203919 -6141796.614405712,-257656.193566698 -6383765.282575567,-604275.8480055687 -6598217.2287302995,-975819.7484835059 -6781817.650718264,-1369639.137948341 -6931430.942325306,-1782640.7587635429 -7044174.319044417,-2211295.8930548755 -7117471.932345909,-2651655.4366881247 -7149108.833351344,-3099371.223818714 -7137284.105929716,-3549723.7557365056 -7080662.454071604,-3997656.4183653714 -6978423.4997774735,-4437816.197718638 -6830308.026414675,-4864600.8224108685 -6636660.389309085,-5272212.17763642 -6398466.310948981,-5654715.746599098 -6117385.283234604,-6006105.744065097 -5795776.8142757565,-6320375.513455195 -5436719.78280587,-6591592.664722321 -5044024.199729301,-6813978.3362879325 -4622234.723923642,-6981989.871715907 -4176625.3383371513,-7090406.111832099 -3713184.6626761556,-7134414.416944066 -3238591.4604560304,-7109698.453014466 -2760179.9906269456,-7012525.701447115 -2285894.956970665,-6839833.58592472 -1824235.921417422,-6589313.052848227 -1384191.1696196557,-6259488.395703772 -975161.1476369749,-5849792.079411334 -606871.7263707618,-5360633.299619033 -289277.6942088853,-4793459.00514185 -32457.02681674558,-4150806.120347936 153503.36539507387,-3436343.729191252 258629.55856076654,-2654904.024558925 273189.1991714793,-1812500.8862646157 187825.5937940429,-916335.0288205291 -6303.997986168729,25215.243694165176 -317387.30972809135,1002618.5237463128 -752814.8267943497,2005230.742689585 -1319038.051167072,3021352.1339526814 -2021430.0733384606,4038301.1139543476 -2864150.3442364796,5042505.29371143 -3850015.6148077333,6019609.6352249 -4980379.0660682805,6954601.554351014 -6255019.686157712,7831952.547727953 -7672043.9613363715,8635775.687434824 -9227801.933257362,9349998.085663501 -10916819.633732257,9958547.185287347 -12731749.83932682,10445549.483543195 -14663342.990471529,10795540.04804638 -16700439.992631277,10993680.940161727 -18829988.460068345,11025986.423650937 -21037083.775793158,10879552.609930918 -23305036.124758344,10542788.978733366 -25615464.41191909,10005649.018036047 -27948417.70358138,9259857.053448923 -30282524.53101987,8299128.188361858 -32595170.071645502,7119378.155613333 -34862700.87743608,5718919.792615449 -37060656.45574855,4098642.798000375 -39164026.62726726,2262173.4119476657 -41147533.19339277,216010.68715270015 -42985934.04490058,-2030363.9146810297 -44654347.43965564,-4464406.752853106 -46128593.774337545,-7070465.056334359 -47385551.77860846,-9829765.575442947 -48403525.67529167,-12720441.36452222 -49162619.48250517,-15717598.918642065 -49645114.28902058,-18793427.534293294 -49835844.018236764,-21917352.364086945 -49722564.91491738,-25056232.190440107 -49296313.748065814,-28174602.45564545 -48551749.52869929,-31234963.55879416 -47487473.398365274,-34198113.86768752 -46106321.25823296,-37023526.30072346 -44415623.68439646,-39669766.71513674 -42427427.71707681,-42094951.69986378 -40158675.22361182,-44257242.72034004 -37631332.720797196,-46115372.90595947 -34872467.803885564,-47629202.1165166 -31914267.66921261,-48760295.28000935 -28793995.63597711,-49472518.36939264 -25553882.07026751,-49732645.78934381 -22240946.69004898,-49510972.38506961 -18906749.88163453,-48781922.77320831 -15607071.383091072,-47524650.23938301 -12401515.48401657,-45723617.05749504 -9353042.748857643,-43369147.77156341 -6527429.186075741,-40457946.75089516 -3992654.7504181135,-36993571.19196644 -1818224.0716923082,-32986850.703680716 -74423.34097782434,-28456244.6836822 1168481.6566323927,-23428128.87864166 1841100.3066937814,-17937002.826065604 1875817.6082827775,-12025610.303607864 1207732.1301030733,-5744965.4668402225 -224377.6994249614,845721.9602478355 -2477069.1153844283,7679228.266216317 -5601243.40684761,14680608.990377882 -9641159.058477487,21767607.641968846 -14633462.264778526,28851182.543310463 -20606248.068600442,35836153.1472207 -27578165.882985312,42621965.782899536 -35557583.52573419,49103577.295410074 -44541824.11547335,55172453.474258184 -54516490.23355687,60717677.53031021 -65454889.636335105,65627162.19353022 -77317576.4967325,69788957.28411737 -90052021.6542492,73092642.87599735 -103592424.6514441,75430796.44468018 -117859679.42813493,76700520.69340864 -132761504.42922658,76805017.10510698 -148192746.55841175,75655188.69706775 -164035866.88024533,73171253.98499711 -180161614.2427524,69284352.81816585 -196429891.0696212,63938123.55294602 -212690813.46645907,57090230.01304906 -228785965.51327065,48713815.86559305 -244549845.19259515,38798863.446425565 -259811496.84940124,27353433.71817964 -274396322.4181589,14404763.961242111 -288128060.9101308,200.00000035285535" stroke="white" stroke-width="1.5" /></svg>