<?xml version="1.0" encoding="utf-8" ?>
<svg baseProfile="full" height="400" version="1.1" width="400" xmlns="http://www.w3.org/2000/svg" xmlns:ev="http://www.w3.org/2001/xml-events" xmlns:xlink="http://www.w3.org/1999/xlink"><defs /><rect fill="black" height="100%" width="100%" x="0" y="0" /><circle cx="200" cy="200" fill="yellow" r="10.000039419218144" stroke="orange" stroke-width="2" /><polyline fill="none" points="199.9394225539113,200.0 199.8412194450206,199.9916647461861 199.73805911769284,199.97242260352024 199.63088120299895,199.9414380971988 199.52073785923233,199.8979545298471 199.40878820661513,199.84130829752365 199.29629105820229,199.77094299412488 199.18459592328648,199.68642311414862 199.07513227950903,199.58744715603046 198.96939713116583,199.47385992246208 198.86894089368826,199.3456638104428 198.7753516677794,199.20302888248548 198.69023799096973,199.04630151157815 198.6152101791762,198.87601139633793 198.55186039592851,198.69287674941953 198.50174161197495,198.49780747175885 198.466345642681,198.29190613771962 198.44708047465784,198.07646663170976 198.44524711606172,197.8529702953533 198.46201622663057,197.62307946581802 198.4984048034155,197.3886283103351 198.55525321595258,197.15161088920436 198.6332028999471,196.91416640950092 198.73267503104978,196.67856166409476 198.85385050964885,196.4471706852285 198.996651593456,196.2224516784843 199.16072551671976,196.0069213411902 199.34543043287917,195.8031267087982 199.54982401112255,195.61361471310664 199.77265500643466,195.4408996769543 200.01235810712566,195.2874290107013 200.26705234342373,195.15554741592408 200.534543315403,195.0474599407496 200.81232946830227,194.96519426857827 201.09761260821213,194.9105626570187 201.38731281128028,194.88512397609406 201.67808783518396,194.89014632358797 201.9663570928914,194.9265707201893 202.24833019599672,194.99497640729305 202.52004001855124,195.09554828535957 202.77738017279145,195.2280470400928 203.01614672600093,195.39178250687667 203.2320839235462,195.5855908204488 203.42093361754945,195.80781588629355 203.57848803443042,196.05629569236268 203.70064544844934,196.32835395420457 203.78346826323522,196.62079755321423 203.8232429399733,196.9299201863886 203.81654115035337,197.25151259667265 203.76028147549187,197.58087969578511 203.65179091978374,197.91286482650582 203.48886546197778,198.24188133907677 203.26982882565804,198.56195157702052 202.99358861868782,198.86675328183063 202.6596889669435,199.14967333426787 202.26835875269276,199.403868653156 201.82055456306546,199.62233397146971 201.31799745995676,199.797976105119 200.76320270004547,199.9236942232362 200.1595015629536,199.99246552114386 199.51105448735555,199.99743558979134 198.82285476938213,199.93201266964877 198.10072214512886,199.78996487426048 197.35128565949776,199.56551937036835 196.58195531684544,199.25346240923977 195.80088211467267,198.84923901912788 195.0169061794012,198.3490510932141 194.2394928524749,197.74995254248506 193.47865671475893,197.04994013030057 192.7448736864519,196.24803856639036 192.04898149725847,195.3443784140753 191.40206898598444,194.34026535694977 190.815354858432,193.238239381281 190.30005670573055,192.0421224590253 189.86725126012217,190.7570533645281 189.52772703966244,189.38950832636564 189.29183070509822,187.94730630491026 189.1693086190285,186.43959779633556 189.16914525693687,184.8768361949592 189.2994002693263,183.2707308978284 189.56704613146758,181.63418150778958 189.977808439658,179.98119268316555 190.5360110178545,178.32676939251485 191.24442808362508,176.68679256038678 192.10414578516063,175.07787533282786 193.11443545933693,173.5172004476512 194.2726409723893,172.0223394618603 195.57408248773126,170.61105486454107 197.0119789581119,169.3010863851392 198.5773915602183,168.10992309120437 200.25919017785262,167.05456315304016 202.0440448941347,166.1512634316729 203.9164442733554,165.4152813173782 205.85874199908673,164.86061150476667 207.8512331873095,164.49972063310082 209.87226141247137,164.3432829429988 211.89835717181393,164.3999202988574 213.90440817077913,164.6759500960996 215.8638614420692,165.17514470971133 217.74895691574733,165.8985062415943 219.53099164086953,166.844060385339 221.18061342426566,168.0066732446773 222.66814220344457,169.37789491297855 223.96391701284492,170.9458335429469 225.03866594087177,172.69506350583367 225.86389601482705,174.6065710561502 226.41229949778077,176.657740679754 226.6581726417653,178.82238500957675 226.57784252176975,181.07082084410052 226.1500971814183,183.36999339959345 225.35661396058885,185.68365046943353 224.1823805542634,187.9725676546836 222.61610307724837,190.1948252723198 220.65059518757874,192.30613694483984 218.28314215872493,194.2602292318782 215.51583369313545,196.00927098622492 212.355859242753,197.50435040936358 208.81575965099785,198.6959970521728 204.9136290597931,199.53474526235127 200.6732612382747,199.97173482971803 196.12423478986096,199.9593438327093 191.3019320834416,199.4518479536221 186.2474872337154,198.4060998163999 181.00765902522613,196.7822212193725 175.63462533338725,194.54430049699388 170.1856963415238,191.66108666008964 164.7229446822436,188.1066714443088 159.3127515395594,183.86114995216968 154.02526872910252,178.9112502158863 148.93379782016746,173.25092174627525 144.1140884665757,166.88187297718775 139.64355926352926,159.8140474741242 135.60044563357138,152.06602885818234 132.0628804541302,143.66536460949672 129.10791435840807,134.6487992639334 126.8104838561,125.06240800781634 125.24233661514994,114.96162231123091 124.47092440429256,104.41114002276981 124.55827530163924,93.48471327753774 125.5598578097448,82.26480864407338 127.52345046485064,70.84213515092489 130.48803136966393,59.31503718428013 134.48270279756355,47.78875072656584 139.5256665943304,36.37452300247611 145.62326652479234,25.18859730149839 152.7691139604075,14.351066540612777 160.94331336511743,3.984601001256266 170.11180389748108,-5.7869423972847756 180.22583309544694,-14.840019960339419 191.22157803628613,-23.052998907319704 203.01992856045013,-30.307839606253964 215.52644610903562,-36.49184713148679 228.63151044730466,-41.499475042161066 242.21066503124297,-45.23416248547656 256.1251700233666,-47.61018405008966 270.2227699839056,-48.55449025996461 284.338681063379,-48.00851523622137 298.2968001150824,-45.92992689255911 311.911135547168,-42.294294096538636 324.9874569633455,-37.09664455135331 337.32515772172314,-30.352886756225672 348.71932149928364,-22.10106931201011 358.96298081460475,-12.402451073542352 367.8495522664539,-1.3423562306766712 375.175430026533,10.96921065827732 380.742715919356,24.397213341371582 384.36206127180265,38.78151821857523 385.8555926621875,53.937134235372156 385.0598907882386,69.65477572946844 381.82898895091193,85.70176278130957 376.0373551629608,101.8232703924262 367.58281968426456,117.74393423189825 356.3894079063891,133.16981677109342 342.41003700201844,147.7907333965296 325.62903366445636,161.28293358208805 306.0644296298085,173.31212745230988 283.7699915382598,183.53684312108487 258.83694208598695,191.61209509298718 231.39533037637898,197.19333882120162 201.61501092407838,199.9406812845836 169.70619291811795,199.5233122394131 135.91952412494248,195.62411568527463 100.54567721560205,187.9444161289189 63.91441033359925,176.2088095073558 26.39307837274677,160.17002421613617 -11.615423308385544,139.61375365630568 -49.67529517219623,114.36339813966302 -87.32105584242663,84.28465095189561 -124.06134966860753,49.28986094046445 -159.38333134813928,9.342102239706179 -192.7576117139833,-35.54111926322835 -223.64374075066644,-85.2845933188446 -251.4961956148996,-139.75263649557098 -275.7708329967119,-198.74689550518048 -295.93175665707776,-262.00478849471733 -311.45854252048775,-329.19864660396206 -321.8537553937524,-399.93561355437896 -326.6506833389566,-473.7583554803624 -325.42120806667276,-550.146626637103 -317.7837225561136,-628.5197290349316 -303.4110005745887,-708.2398954844012 -282.03791698261597,-788.6166160305409 -253.4689127953689,-868.9119173639076 -217.58509504530048,-948.3465935902361 -174.35085866988157,-1026.1073748046374 -123.81991604158583,-1101.355007349737 -66.14061946571331,-1173.2332065542796 -1.5604630872650773,-1240.8784292775283 69.57034674891239,-1303.4303998669359 146.79635948279812,-1360.043309326152 229.5554877019865,-1409.8975937531427 317.1788475081225,-1452.2121846197879 408.89191644384755,-1486.2571104092324 503.81708280914125,-1511.366316697056 600.9776478309975,-1526.9505601533965 699.3033281925818,-1532.510221354921 797.6372909445072,-1527.6478719282645 894.7447359017231,-1512.0804235982753 989.3230223895591,-1485.6506803793675 1080.013317779675,-1448.3381106131126 1165.4137248137304,-1400.2686529969667 1244.0938234354162,-1341.7233703320499 1314.6105409488864,-1273.1457665906505 1375.5252420241802,-1195.1475871967639 1425.4219076289269,-1108.5129292342035 1462.92624964996,-1014.2004977311055 1486.7255860644689,-913.3438562746342 1495.5892803280906,-807.2495350137842 1488.3895284781986,-697.3928766078205 1464.1222586238841,-585.4115208361867 1421.9278903341415,-473.09645132968546 1361.1116862673118,-362.38055310284903 1281.1634155303434,-255.32465711572627 1181.7760380305335,-154.10107778302677 1062.8631117884966,-60.97468095378707 924.5746211062833,21.718446859354117 767.310922895105,91.59462261877349 591.7345116037477,146.24834327514486 398.77931026210064,183.28003741961618 189.65720633993237,200.32557837331436 -34.13843344483894,195.08730876223984 -270.8325154584555,165.3662910559442 -518.3714605532052,109.0954641476469 -774.4301279273428,24.37335332768211 -1036.4225819738638,-90.50204952922695 -1301.5168255935334,-236.99964655268633 -1566.6535823743075,-416.3222707921972 -1828.569165190054,-629.3748557990592 -2083.8224204512126,-876.7342107190505 -2328.8256858175555,-1158.6208854694341 -2559.879645090332,-1474.8736170613752 -2773.21190773174,-1824.926848942874 -2965.0190825688346,-2207.7918099884328 -3131.5120563366922,-2622.04162810772 -3268.964128469135,-3065.8009351045607 -3373.761594666348,-3536.740394167962 -3442.4563140158593,-4032.076549071323 -3471.8197386101056,-4548.577354723545 -3458.897831512905,-5082.573702169332 -3401.066249423325,-5629.977197578588 -3296.0851213245705,-6186.304394393344 -3142.152714645494,-6746.707610909202 -2937.9572468531737,-7306.012392552863 -2682.7260737667334,-7858.761599476368 -2376.271467033783,-8399.266016422916 -2019.0321828970305,-8921.661293833975 -1612.1100233005664,-9419.97093766731 -1157.3005991733235,-9888.174971283928 -657.1175249347215,-10320.283797034876 -114.80930335182353,-10710.416688918354 465.63179880639416,-11052.884252046048 1079.469531085828,-11342.274090887511 1721.232678035662,-11573.538837642413 2384.7338227448163,-11742.085605962278 3063.098274392869,-11843.86585497875 3748.8034806095993,-11875.464575583625 4433.729136485236,-11834.187646543023 5109.218083189823,-11718.146153694386 5766.147961155634,-11526.33642251505 6395.013446637138,-11258.714484066331 6986.018757333158,-10916.26367792822 7529.179963950534,-10501.054094384399 8014.436491578564,-10016.292572819308 8431.771039149435,-9466.362004938945 8771.336988845545,-8856.848740768486 9023.592221970946,-8194.556962983688 9179.438105534116,-7487.50898137983 9230.362266694461,-6744.930504349648 9168.583632481306,-5977.220068083136 8987.198082032282,-5195.901946532815 8680.32294027877,-4413.562025478624 8243.238437795928,-3643.7663014830378 7672.524173672722,-2900.9618600935805 6966.188548934074,-2200.360395996996 6123.789089364265,-1557.8045593548004 5146.541550527648,-989.6176453812443 4037.4156961993313,-512.4373862226691 2801.2156659619845,-143.03485296491948 1444.642899841467,101.8802715076544 -23.66033125895069,205.86653392180327 -1593.0886299870708,152.96789907531974 -3251.0741116134127,-72.06072913089253 -4983.111506058849,-483.5219073325476 -6772.809049233742,-1094.540452989208 -8601.96625805484,-1916.8273363670182 -10450.679422367884,-2960.4455470026896 -12297.475358009246,-4233.580986157934 -14119.473650120019,-5742.321578842419 -15892.577276749795,-7490.447910845802 -17591.691142370477,-9479.23877445949 -19190.967672214912,-11707.295047963693 -20664.078224850415,-14170.385335520881 -21984.508675993893,-16861.31675316674 -23125.877115576935,-19769.834160786013 -24062.27118714672,-22882.55100736799 -24768.60218884875,-26182.914775968988 -25220.972653785604,-29651.20978468493 -25397.053740040865,-33264.59982012197 -25276.468392848623,-36997.21275049671 -24841.175899175792,-40820.26888738105 -24075.853144338125,-44702.25443967237 -22968.26760716642,-48609.14093273288 -21509.636900592734,-52504.650952638134 -19694.969484104808,-56350.57002364683 -17523.38104885799,-60107.103840613134 -14998.381010573077,-63733.2794620927 -12128.123544519702,-67187.38843003009 -8925.617665238547,-70427.46912450888 -5408.89099497779,-73411.82499410816 -1601.1020822380929,-76099.57463154598 2469.4035722737735,-78451.22899864368 6769.098249009828,-80429.2904528497 11259.3415122773,-81998.86759866615 15896.517955074847,-83128.29939065376 20632.24604250819,-83789.78135987167 25413.660217022658,-83959.98633230805 30183.76766215673,-83620.67156581437 34881.88028626908,-82759.26386085442 39444.12158951255,-81369.4139093916 43804.00712318377,-79451.5109444604 47893.09624858314,-77013.14864887291 51641.711861940246,-74069.5332829495 54979.7236831577,-70643.82510518415 57837.38962050093,-66767.40439247126 60146.248633296316,-62480.053722998564 61840.05743346229,-57830.04866900638 62855.76230831784,-52874.149660837065 63134.496326300214,-47677.48852914477 62622.591219188995,-42313.34410830933 61272.59233475164,-36862.80228885598 59044.264238168966,-31414.297036141084 55905.573824954176,-26063.0301410275 51833.637207925865,-20910.268828173255 46815.61617134901,-16062.521809449196 40849.54966120815,-11630.595922527913 33945.105615484965,-7728.537124604122 26124.23844498,-4472.4613034183 17421.737665093395,-1979.2821054036967 7885.6535619241695,-365.344745252665 -2422.4136397258326,255.02346761323037 -13427.17384716355,-228.96660610768845 -25039.66814693365,-1922.9890897679115 -37157.46134934173,-4925.985531223757 -49665.015122665514,-9328.52406737906 -62434.24917176386,-15211.154209474005 -75325.29607579083,-22642.777467291853 -88187.45336663607,-31679.05518900959 -100860.33421590795,-42360.87596368281 -113175.21571917995,-54712.905690648506 -124956.58124036594,-68742.24394076868 -136023.8506280746,-84437.21049610144 -146193.28936419985,-101766.28593667007 -155280.08488033785,-120677.22982700533 -163100.57541013276,-141096.39942503916 -169474.6138681296,-162928.2908785177 -174228.04639329194,-186055.3235793775 -177195.28240519747,-210337.88670801386 -178221.9303319164,-235614.66501441007 -177167.4706209428,-261703.25855318573 -173907.93527947163,-288401.1084206619 -168338.56104938808,-315486.7375445265 -160376.38144727825,-342721.3122658323 -149962.72133164605,-369850.526849218 -137065.5564384574,-396606.8091854881 -121681.69949051095,-422711.8418413045 -103838.77407220012,-447879.38829893136 -83596.9375023741,-471818.4097548513 -61050.314464167604,-494236.4532543574 -36328.10418781965,-514843.2872792226 -9595.32555195129,-533354.7562306874 18946.83341336471,-549496.820617347 49061.09246172769,-563009.7452276298 80474.61010409742,-573652.3932026448 112879.99242146742,-581206.579792607 145936.79916639358,-585481.435745773 179273.5617193552,-586317.7268105521 212490.32207371638,-583592.0727967614 245161.69615556227,-577221.0071077518 276840.4584830927,-567164.8156863952 307061.63848384825,-553431.0929769819 335347.11177424894,-536077.9518507386 361210.6624300917,-515216.8245290886 384163.4848116846,-491014.7924143712 403720.0859334487,-463696.38444460294 419404.54177200195,-433544.7861614152 430757.0533819789,-400902.4051444185 437340.74133344745,-366170.74283776106 438748.6099017657,-329809.52808178205 434610.605736221,-292335.0738600665 424600.6895167276,-254317.82586368435 408443.83348818345,-216379.079431653 385922.85284965264,-179186.85020864054 356884.97487891116,-143450.89341368517 321248.0464976537,-109916.87687000463 279006.27882996935,-79359.72382532996 230235.42627187728,-52576.15300104182 175097.29776051574,-30376.45514025034 113843.49938655419,-13575.557460964581 46818.31030053759,-2983.439730080633 -25539.401921224286,605.0219844443182 -102695.31462110544,-3579.304396453415 -184019.91314406786,-16268.78285351815 -268789.95606310596,-38147.713059278954 -356191.20484278386,-69840.88466348282 -445322.46868006577,-111902.11475010861 -535201.0022990428,-164802.91024759444 -624769.2801754208,-228921.40502564845 -712903.1551160497,-304531.7280339282 -798421.3924280939,-391793.963958504 -880096.5532130429,-490744.87132728775 -956667.1817649063,-601289.5246305896 -1026851.2328137187,-723194.0466960324 -1089360.6546279327,-856079.5951403049 -1142917.0239853724,-999417.7621041188 -1186268.1089724097,-1152527.5395712676 -1218205.2157213255,-1314573.993310522 -1237581.1558066227,-1484568.7768175383 -1243328.6523645709,-1661372.6025574456 -1234478.985357645,-1843699.7713307873 -1210180.6600640144,-2030124.8417499883 -1169717.8681224112,-2219091.500697077 -1112528.4975947193,-2408923.6723460723 -1038221.4378083388,-2597838.878019225 -946592.9164863507,-2783963.8319846597 -837641.6011322206,-2965352.2295081504 -711582.1940576587,-3140004.6532921884 -568857.251058087,-3305890.493154347 -410146.9577561078,-3460971.7417295263 -236376.6052271009,-3603228.4964729357 -48721.51783790348,-3730685.9656678922 151390.79862204424,-3841442.743905693 362281.5013895462,-3933700.091026975 582024.4376567568,-4005791.9182380456 808453.5170074938,-4056215.1564988275 1039173.5616867939,-4083660.1557879923 1271574.7326255743,-4087040.739958062 1502850.591216638,-4065523.5210695895 1730019.815625375,-4018556.059804157 1949951.5462119689,-3945893.445251896 2159394.287790772,-3847622.858483742 2355008.247362597,-3724185.6802579323 2533400.9350876473,-3576396.7043478047 2691165.8041343815,-3405460.0246479996 2824923.6522069187,-3212981.1767066563 2931366.4546304955,-3000975.1328756954 3007303.2465137234,-2771869.775045543 3049707.620397007,-2528504.5000434048 3055766.3566576936,-2274123.650262586 3022928.6575180427,-2012364.5059156977 2948955.4125512377,-1747239.625345843 2831967.8848699783,-1483113.3758806726 2670495.173477658,-1224672.5594801744 2463519.779318362,-976891.1045244836 2210520.5811119233,-744988.8670350233 1911512.5128062447,-534384.6608510861 1567082.228080355,-350643.7161330017 1178419.0393933954,-199419.84828131818 747340.4301387483,-86392.70411242484 276311.45899287966,-17200.53799616941 -231542.59407403952,2630.943352401733 -772430.9501556074,-32236.956310211677 -1341899.9813584697,-126878.85905241306 -1934844.2864020278,-286026.434650901 -2545526.6184694064,-513988.5698464606 -3167607.0103597017,-814571.5163946057 -3794181.3506864826,-1191000.0120495383 -4417829.564290482,-1645840.4231712206 -5030673.440815756,-2180927.0028065983 -5624444.038318448,-2797292.3926765784 -6190558.46476523,-3495103.520361413 -6720205.710413196,-4273604.053049376 -7204441.069568386,-5131064.565515584 -7634288.552458566,-6064741.56165288 -8000850.548422701,-7070846.455132396 -8295423.8619327685,-8144525.5650166115 -8509621.10484878,-9279852.115928356 -8635496.293590391,-10469831.149416983 -8665673.370491056,-11706418.153369075 -8593476.246447764,-12980552.099798463 -8413058.849098416,-14282203.448450683 -8119533.559173271,-15600437.524923809 -7709096.329399894,-16923493.51823371 -7179146.707378513,-18238879.16496602 -6528400.928124016,-19533480.99662913 -5756996.205335762,-20793689.825077865 -4866584.334644807,-22005540.929667123 -3860412.728687671,-23154868.191114094 -2743391.0342885936,-24227471.193119977 -1522141.5375138486,-25209294.086058516 -205031.64388065098,-26086614.780113768 1197813.1707114002,-26846242.81095061 2674517.4072601306,-27475724.002303112 4211485.895238627,-27963549.839851834 5793457.564555194,-28299369.27263793 7403583.537366812,-28474200.47528283 9023530.196907125,-28480639.939742412 10633607.623774482,-28313066.1225013 12212923.500690328,-27967834.75524674 13739562.27665961,-27443462.837277606 15190789.053219829,-26740798.26921226 16543277.311919983,-25863172.062765438 17773359.246573918,-24816530.073050357 18857297.099799797,-23609541.250323035 19771573.534856908,-22253679.499298822 20493198.705099907,-20763276.36771827 21000031.31907119,-19155541.962908562 21271110.64416462,-17450551.716381714 21286996.05095515,-15671196.88224027 21030110.378893167,-13843096.965007255 20485083.10740995,-11994472.625540853 19639089.04991869,-10155978.008456852 18482178.057056975,-8360491.868833883 17007591.025046177,-6642867.347170742 15212057.360340381,-5039640.746209253 13096068.957658751,-3588700.197288392 10664125.709610527,-2328915.6626868173 7924947.586605696,-1299732.2986440028 4891648.409320615,-540729.7955352811 1581866.5858412278,-91150.91055897447 -1982151.6956859431,10596.992699782526 -5773521.038616247,-272537.00822229736 -9760741.031973189,-975708.7426524488 -13907779.492079288,-2131628.225986864 -18174217.67134077,-3770002.927194081 -22515459.778546833,-5916981.5626311535 -26883008.51202091,-8594605.38601404 -31224807.599703398,-11820274.318441065 -35485651.573253974,-15606235.570134742 -39607662.182075076,-19959102.63877423 -43530829.9843645,-24879412.720044944 -47193618.74351641,-30361230.626930214 -50533629.31805633,-36391807.27855686 -53488318.771369345,-42951300.681016356 -55995769.45432275,-50012567.07641409 -57995501.84080819,-57541029.578251176 -59429323.93535823,-65494631.138092786 -60242209.136106245,-73823878.09850946 -60383193.538761616,-82471979.88000034 -59806282.82170286,-91375089.52597287 -58471358.07274529,-100462648.89230077 -56345069.21875254,-109657841.22057223 -53401704.114078276,-118878152.68251023 -49624020.84670805,-128036043.234577 -45004030.445326984,-137039725.7854928 -39543716.92918538,-145794051.26605633 -33255681.547557995,-154201495.71265692 -26163698.117791194,-162163243.94731727 -18303166.600140445,-169580362.87356117 -9721452.452177277,-176355055.8260441 -478099.89218645805,-182391987.8311475 9355092.025417022,-187599670.07535058 19694140.6561483,-191891890.35891184 30443107.312418688,-195189174.85591608 41494488.74776571,-197420265.13032463 52729778.68667506,-198523593.09414437 64020203.8019793,-198448735.4610897 75227636.66638927,-197157828.27004957 86205686.17229225,-194626921.24972105 96800963.73921737,-190847251.1907528 106854521.32890667,-185826413.10542107 116203454.88396661,-179589407.80669975 124682664.32051356,-172179544.64636627 132126758.6635528,-163659178.53135464 138372092.34384784,-154110261.00231925 143258916.10690805,-143634686.119272 146633623.450399,-132354413.1639154 148351071.03971693,-120411349.74174151 148276949.18767187,-107966980.74995139 146290176.2597648,-95201730.86738043 142285288.81808287,-82314050.71288098 136174797.4820328,-69519219.59849076 127891476.89970991,-57047860.857681125 117390556.92657301,-45144169.03771858 104651781.13316652,-34063851.784284666 89681298.14514695,-24071792.98769167 72513351.08779404,-15439447.669996966 53211730.59299094,-8441983.13401132 31870957.45427483,-3355185.0269008954 8617162.107467018,-452151.1476557769 -16391370.312594349,200.00000002007388" stroke="white" stroke-width="1.5" /><circle cx="191.49830218033995" cy="249.27191019417847" fill="red" opacity="0.7" r="14.738476308781951" /><circle cx="180.69113542661592" cy="246.1212288310569" fill="red" opacity="0.7" r="14.738476308781951" /></svg>