<?xml version="1.0" encoding="utf-8" ?>
<svg baseProfile="full" height="400" version="1.1" width="400" xmlns="http://www.w3.org/2000/svg" xmlns:ev="http://www.w3.org/2001/xml-events" xmlns:xlink="http://www.w3.org/1999/xlink"><defs /><rect fill="black" height="100%" width="100%" x="0" y="0" /><circle cx="200" cy="200" fill="yellow" r="20" stroke="orange" stroke-width="2" /><polyline fill="none" points="199.40949541114077,200.0 199.43535845986335,199.97035889847146 199.46651501661148,199.94383417062156 199.50281793055842,199.92112044073158 199.5440424141481,199.90291658309687 199.58988351590372,199.88991748168243 199.63995441716202,199.8828052930907 199.693785628971,199.88224028845033 199.7508251592928,199.88885136014386 199.81043971327492,199.9032262892219 199.8719169807013,199.92590187875487 199.93446905482728,199.95735406709665 199.99723701568587,199.99798814292538 200.05929669867447,200.0481291908293 200.1196656558761,200.10801290196875 200.1773113032244,200.17777688882322 200.2311602314013,200.25745264607735 200.28010864239369,200.34695830118562 200.3230338570741,200.44609229795276 200.3588068221823,200.5545281544689 200.38630552784713,200.67181043284873 200.40442922950336,200.79735205236284 200.4121133509341,200.93043306966072 200.40834492843334,201.07020103982833 200.39217843996684,201.2156730599851 200.36275184795605,201.36573958301597 200.3193026701659,201.51917007289106 200.2611838803946,201.67462055491234 200.18787942949106,201.83064309423642 200.0990191679094,201.98569721428117 199.99439294379383,202.13816324327922 199.87396364569614,202.28635755248231 199.7378789566837,202.42854962355634 199.58648158699506,202.5629808557813 199.4203177557218,202.68788499605358 199.24014369839597,202.8015100466791 199.0469299869651,202.9021414778629 198.84186346154058,202.98812654399345 198.62634658956654,203.05789947564796 198.40199408770124,203.11000729309242 198.17062666471224,203.14313596230787 197.9342617699981,203.15613659164717 197.69510126185915,203.14805134651988 197.4555159421942,203.1181387414217 197.21802693969644,203.06589795357422 196.98528396161282,202.991091790806 196.76004047441555,202.89376793846287 196.54512591596608,202.774278106438 196.34341508553575,202.63329469817748 196.15779490294102,202.47182462904257 195.99112877357362,202.29121993193922 195.84621884172984,202.09318480386636 195.7257664598088,201.87977876813812 195.6323312450659,201.6534156536009 195.56828913805262,201.41685812422617 195.53578991700985,201.17320752998546 195.53671465965454,200.9258888928039 195.5726336773456,200.67863088946842 195.6447654758794,200.4354407463859 195.75393732148973,200.20057401871617 195.90054800938614,199.97849928823817 196.08453344474614,199.77385787985438 196.30533565191223,199.59141876533457 196.56187582611216,199.43602889410138 196.85253203284657,199.3125592638464 197.17512214277298,199.2258471177517 197.5268925641233,199.18063472922248 197.90451330018382,199.1815053083992 198.30407981597943,199.23281663634927 198.7211221459909,199.3386331017312 199.15062161354035,199.50265687983799 199.5870354625792,199.72815905419785 200.02432962428603,200.0179115352667 200.4560197545414,200.37412067811258 200.87522058453027,200.79836354031386 201.27470352609515,201.29152775154068 201.64696236682087,201.85375598647687 201.9842867781,202.48439604194832 202.27884324365246,203.18195751649606 202.52276289732652,203.94407607541567 202.70823563877192,204.76748625581888 202.8276097751414,205.64800372402996 202.87349631782632,206.5805178412085 202.8388769469362,207.55899532224527 202.71721454442778,208.57649568762457 202.50256509116622,209.6251991081734 202.18968962549314,210.6964471287022 201.77416487281994,211.78079662895382 201.2524910791117,212.8680872396861 200.6221955175867,213.94752227899977 199.88193008920197,215.00776311027525 199.0315614051212,216.0370366495938 198.0722517248694,217.0232555688022 197.00652912864385,217.95415055214005 195.83834532750657,218.8174137714927 194.57311956198654,219.60085254995084 193.21776710883003,220.29255198770875 191.78071100789666,220.88104513083846 190.271875736901,221.35548907468146 188.70266170097662,221.70584521217324 187.08589956673666,221.92306166610413 185.43578365616744,221.9992557859358 183.76778382354863,221.92789444716874 182.0985354675417,221.70396976722506 180.44570757919888,221.32416774916015 178.8278489931336,220.78702728595528 177.26421329134973,220.09308690626156 175.77456310478985,219.2450166196981 174.37895486375186,218.2477322283846 173.097505361828,217.10848951330502 171.95014181554734,215.83695578106753 170.9563374197605,214.4452563700327 170.13483471306972,212.94799386566243 169.5033593741247,211.3622379639233 169.0783273640403,209.70748414886748 168.87454860808094,208.00557961584317 168.90493066652448,206.28061517440923 169.18018607566387,204.55878220367217 169.70854724062497,202.86819410563226 170.4954929275501,201.23867210687155 171.5434905293174,199.70149569263816 172.85175836213517,198.28911841662816 174.41605228611914,197.03485031053077 176.22848092771432,195.9725086151475 178.2773537123293,195.13603906456578 180.5470657890432,194.5591104709223 183.01802374347972,194.27468587373613 185.66661574825923,194.31457402823173 188.46522949182616,194.7089655047525 191.38232085560102,195.48595814924226 194.3825358767623,196.67107710557408 197.4268880407733,198.28679501681142 200.4729923961076,200.35205839680685 203.47535737644287,202.8818264884106 206.3857345567224,205.88662919262129 209.15352586365668,209.37215085712484 211.72624701409495,213.33884684601432 214.05004517276288,217.78159986866459 216.0702680115324,222.68942301888254 217.7320805239032,228.04521636034352 218.98112510974792,233.82558368647588 219.76421960636262,240.00071577874115 220.03008711288192,246.5343460840154 219.73011064714694,253.38378422788338 218.81910489861204,260.5000321756464 217.2560966096673,267.8279871474655 215.00510444289839,275.306734590375 212.03590858547267,282.8699336113132 208.32479981616626,290.4462962866558 203.85529732746494,297.960161191274 198.6188242662807,305.3321603415874 192.61532974318607,312.47997753166146 185.85384597205942,319.31919476971945 178.3529692491709,325.764222206584 170.14125367147196,331.729305600922 161.2575068354373,337.12960400344593 151.7509772561001,341.8823289792846 141.68142390520137,345.9079353415425 131.11905909024404,349.13135205745897 120.14435688340069,351.4832407302168 108.84772045940757,352.9012678735443 97.3290030113873,353.3313761024044 85.69687837737938,352.7290383810623 74.06805912032132,351.06047861936577 62.566361550080074,348.30384120854364 51.3216190452531,344.4502915580606 40.46844700985548,339.5050293530087 30.144864868324476,333.4881961139831 20.49078264187881,326.43565872383493 11.64636183830197,318.39965090176656 3.750262601775745,309.4492551667053 -3.0622087163858396,299.6707086481813 -8.66103521891415,289.16751718096157 -12.923489879121576,278.06036346358667 -15.736180194139934,266.48679667179766 -16.997114632620026,254.60069279347067 -16.61776666146079,242.57147708650643 -14.525110545462837,230.583102445943 -10.663601737657672,218.83278008846108 -4.9970735479558925,207.529461804678 2.489479075800176,196.8920760716133 11.788258368138571,187.14752353494023 22.867195096223895,178.52844073488257 35.6686822255794,171.27074442883668 50.10854016346005,165.61097242242573 66.0752419196572,161.78344041977596 83.42942518772244,160.01723800128178 102.00371658729075,160.53309038813518 121.60289111379853,163.54011611015167 142.00438721378526,169.23251400764508 162.9591948457671,177.78621611847285 184.19313040765428,189.35554587610352 205.40850852687524,204.06992362142066 226.28621644000958,222.03066365798742 246.4881920620872,243.3079089065023 265.6603018954631,267.9377505896184 283.43560969421003,295.9195812558846 299.43802132840574,327.2137297870512 313.2862856356559,361.73942678585394 324.5983252626802,399.373147875761 332.9958656511733,439.94738092931635 338.10932447793175,483.2498610530691 339.58291809238926,529.023314276702 337.07993588216084,576.9657473113849 330.2881281190909,626.7313164551351 318.92514777728456,677.9318037371781 302.7439821547999,730.1387227242409 281.5383059570008,782.8860700841325 255.14768389644632,835.6737320504858 223.46254791467354,887.9715474018416 186.4288719157854,939.2240205132642 144.05246549710014,988.8556695244818 96.4028076400282,1036.2769857702679 43.61634175042619,1080.8909714214788 -14.10084512987791,1122.1002128831767 -76.47103363027651,1159.3144379928258 -143.14364498312148,1191.9584955682499 -213.69484197714593,1219.4806864903617 -287.6280184799247,1241.3613663951335 -364.3752310819423,1257.1217313228867 -443.29961828553166,1266.3326894652093 -523.6988434232378,1268.623714597519 -604.8095871826782,1263.6915700262525 -685.8131042953411,1251.308786051146 -765.841846688078,1231.331769179933 -843.9871422878805,1203.7084177656116 -919.3079048190427,1168.4851164896918 -990.8403354595912,1125.8129813049868 -1057.608562269422,1075.9532271848007 -1118.6361480194012,1019.2815333960776 -1172.958381607387,956.2912851024066 -1219.6352528245086,887.5955759728247 -1257.7649950268692,813.9278641705843 -1286.4980654773647,736.1411836490033 -1305.051418961623,655.2058240946469 -1312.7229169695497,572.2054061140245 -1308.905702491992,488.3312933172161 -1293.1023595345764,404.87529974371034 -1264.9386670208412,323.2206695095663 -1224.17674906328,244.83132551144064 -1170.727417835652,171.2394053556983 -1104.6615016854475,104.03112521680643 -1026.219949869623,44.83103586833269 -935.8225065527904,-4.715240553078843 -834.0747506269688,-42.95967964608781 -721.7733046256911,-68.27179120280613 -599.9090256163028,-79.05965946783977 -469.6680035371387,-73.79189893918311 -332.43020804341575,-51.02031343896846 -189.76564354510208,-9.403023201107601 -43.42789373240066,52.272196871152545 104.65503857854252,135.0646444702887 252.39266309481857,239.85777709776062 397.5467419901985,367.3369689096675 537.7488424578578,517.9682593074613 670.520671473333,691.9784246407141 793.2971257072734,889.3367101413202 903.451951244583,1109.7385611529392 998.3258682295412,1352.591690576698 1075.2569751733445,1617.0048129770892 1131.613206876956,1901.7793647710307 1164.826579218583,2205.4045141908337 1172.4289139433781,2526.055744148653 1152.0886976116321,2861.5972656682434 1101.64869157139,3209.588489177786 1019.1638747993316,3567.2947457251234 902.9392692873497,3931.7024101950874 751.5671689330801,4299.538534059166 563.9632682087556,4667.295046317072 339.40116681144616,5031.25752841727 77.54471159771326,5387.538512458696 -221.5223720914006,5732.115192339969 -557.2701106070236,6060.871375265413 -928.699720908814,6369.643436738784 -1334.3253947534736,6654.269976540271 -1772.1609465913818,6910.644806914723 -2239.7118178499554,7134.772838082184 -2733.9728966722014,7322.828361048652 -3251.4325706065592,7471.215164419665 -3788.0833801958784,7576.627861416718 -4339.439583969101,7636.11374650197 -4900.561880186141,7647.134448886795 -5466.089458118689,7607.626603695685 -6030.279472072792,7516.060721632787 -6587.053945294091,7371.497405592468 -7130.054018980082,7173.640038674765 -7652.701364606168,6922.88305337261 -8148.266476519946,6620.354887096424 -8609.943457247075,6267.954735426591 -9030.930801263237,5868.3822321809175 -9404.517575302563,5425.159215104291 -9724.174285866284,4942.642778163175 -9983.647618820085,4426.028866370714 -10177.058133251932,3881.3457369497187 -10298.999893584176,3315.436691482279 -10344.640931821872,2735.93157735965 -10309.823347325499,2151.20666302753 -10191.161776180577,1570.3326097371312 -9986.1388976524,1003.0103920974262 -9693.196592883372,459.49515982797266 -9311.821332383337,-49.49181730375793 -8842.622345381631,-512.8628215375201 -8287.401117056985,-919.2745116607407 -7649.210770226297,-1257.2492655901929 -6932.40391730525,-1515.3062331210872 -6142.667617137741,-1682.101115972237 -5287.044140331114,-1746.5735177617894 -4373.936336528505,-1698.1005347621117 -3413.096507867892,-1526.655091522349 -2415.597824756333,-1222.9673661252803 -1393.7874727875121,-778.6875004398171 -361.2208926558393,-186.54765376615308 667.4233325270634,559.4786637170241 1676.448177111616,1464.0221457834996 2649.262466534529,2530.170385869132 3568.5245278303228,3759.330028422639 4416.304703406302,5151.10072819312 5174.265966631906,6703.163280537894 5823.861601499428,8411.184267951543 6346.548626720624,10268.73951976598 6724.015360264813,12267.258601919197 6938.421236890124,14395.992440701773 6972.646712257962,16642.006037666266 6810.550816522819,18990.198051991145 6437.233661775338,21423.348811489348 5839.300965418553,23922.198064526536 5005.127429576192,26465.553503200084 3925.115619088437,29030.430774519733 2591.9468116402018,31592.225352807156 1000.8201571028231,34124.916275365205 -850.3236168715719,36601.30134742027 -2960.597775896597,38993.2630046764 -5325.988265830405,41272.06358629239 -7939.199324710259,43408.668321905505 -10789.529749000116,45374.093878179425 -13862.783412110362,47139.77984832114 -17141.217448200317,48677.98010760114 -20603.531274484038,49962.17050494631 -24224.899329939846,50967.4689212946 -27977.05005743037,51671.06330598525 -31828.393250412963,52052.64290955238 -35744.197426031795,52094.827571566115 -39686.81837556208,51783.589602321255 -43615.97948382968,51108.6625238519 -47489.10380506753,50063.93071547437 -51261.6972382105,48647.793848125984 -54887.78146518493,46863.4998961392 -58320.37460743269,44719.44049034588 -61512.016825601844,42229.40242759554 -64415.33734264274,39412.769283340094 -66983.65861977593,36294.66728963875 -69171.63266688258,32906.04994372166 -70935.90373329508,29283.716204180153 -72235.790911721,25470.257614026403 -73033.98350748929,21513.930262331687 -73297.24138810582,17468.44815783259 -72997.09194509556,13392.695336531195 -72110.51478215409,9350.35485743612 -70620.60480155436,5409.453751406216 -68517.20400511366,1641.8239715388363 -65797.49206705336,-1877.5195576972665 -62466.52558347184,-5071.081590014304 -58537.71586591306,-7859.666550952824 -54033.23523285176,-10163.231333568172 -48984.341970031244,-11901.805143588505 -43431.61448453303,-12996.469421433112 -37425.08567299889,-13370.38965344268 -31024.269164883244,-12949.889690094195 -24298.069888719874,-11665.558031080416 -17324.57234317962,-9453.374432789875 -10190.701033382253,-6255.844160253001 -2991.7487527855856,-2023.126260623073 4169.230253702894,3285.8586035787657 11182.163726754803,9702.35593836394 17930.841310388598,17246.7565704901 24293.92912456071,25927.6433359528 30146.11536855023,35740.92171632754 35359.38145762384,46669.05089032266 39804.391264873666,58680.39152259859 43351.98907260821,71728.6862538504 45874.79485525278,85752.6882755632 47248.88354202626,100675.95256199763 47355.532967872845,116406.80328560033 46083.02334161272,132838.48965732008 43328.46926846885,149849.54091031762 38999.66368818567,167304.32938724884 33016.91155849606,185053.84870381505 25314.829755428953,202936.71175395895 15844.088505391972,220780.37090769495 4573.06873700149,238402.56014728043 -8510.590929828588,255612.95611084675 -23398.584228461757,272215.0520878213 -40060.691077391755,288008.2359639435 -58443.7217084314,302790.0599751259 -78470.67700961417,316358.68693174765 -100040.15004855236,328515.494354022 -123025.99241501532,339067.8147533249 -147277.26731160126,347831.78714473604 -172618.509224213,354635.29182549316 -198850.30751975,359320.9375471153 -225750.22845198,361749.06749145547 -253074.08681803616,361800.7479793919 -280557.5749127362,359380.70164187945 -307918.25249680155,354420.1449130076 -334857.897254471,346879.4882088282 -361065.2106980042,336750.856077648 -386218.8697186769,324060.38398871006 -409990.9090294291,308870.24830511055 -432050.41464154416,291280.3863982763 -452067.5033203498,271429.8648359172 -469717.5577312152,249497.85513868168 -484685.68177968974,225704.17877270989 -496671.33553511114,200309.38583970536 -505393.1041752363,173614.3353499421 -510593.5506728772,145959.24901632985 -512044.0975386289,117722.21518101152 -509549.87891215313,89317.12476340054 -502954.5007338667,61191.026974855726 -492144.6437045513,33820.89894629639 -477054.4413258713,7709.830317824052 -457669.56358088565,-16617.36880843853 -434030.935827596,-38619.12041089752 -406238.0223027347,-57742.56738712418 -374451.6043237627,-73429.56619259228 -338895.9848839299,-85123.14233529085 -299860.5538996171,-92274.35927713898 -257700.65192320562,-94349.54283367275 -212837.67470053164,-90837.79485768502 -165758.3665405807,-81258.72195400522 -117013.25707525757,-65170.29731926936 -67214.20360538871,-42176.76665340744 -17031.00982784059,-11936.50257141701 32812.89872307038,25830.293821942996 81545.7517648869,71334.15042354749 128353.66189702996,124709.25081632067 172387.78881864925,186006.8430627795 212772.41359075814,255189.2450952864 248613.8832952161,332124.56144325633 279010.3729546701,416582.22487997613 303062.3978465594,508229.4739237791 319883.9955253149,606628.8729232231 328614.4831259716,711236.9756416965 328430.6820356871,821404.2257980371 318559.48897194327,936376.1788989701 298290.66008924186,1055296.1189186664 266989.6631465302,1177209.1309633476 224110.44220505675,1301067.6770495286 169207.9299910348,1425738.7065909468 101950.13514766208,1550012.3162224523 22129.625310619267,1672611.9553043505 -70325.7775431472,1792206.153987172 -175343.27552505364,1907421.7302375545 -292696.53344934515,2016858.4109177971 -421998.4620985645,2119104.780084284 -562695.5262416424,2212755.4453545795 -714063.7506086755,2296429.290741136 -875206.5875130302,2368788.6620317204 -1045054.7976243576,2428559.308899245 -1222368.4805085214,2474550.886747168 -1405741.3739664576,2505677.8011530153 -1593607.5209619002,2520980.1589816106 -1784250.3801013676,2519644.573125391 -1975814.430329757,2501024.552717199 -2166319.292880596,2464660.1978734746 -2353676.363759095,2410296.9078769707 -2535707.918366065,2337902.804501677 -2710168.6165576708,2247684.568204992 -2874769.301783959,2140101.3844289007 -3027202.952299825,2015876.7005033935 -3165172.6061724033,1876007.5008412676 -3286421.0453279256,1721770.8194281156 -3388761.9876290946,1554727.2241802972 -3470112.5004172795,1376721.0276581023 -3528526.3145807856,1189877.0029242996 -3562227.685528535,996593.4120217044 -3569645.4169774875,799531.1875438008 -3549446.6357287555,601599.14496822 -3500569.881140555,405935.1446327134 -3422257.052328861,215883.1672127089 -3314083.739749787,34966.31500268707 -3175987.4562333343,-133144.19716183215 -3008293.276211114,-284663.9433112767 -2811736.3912421796,-415733.9056920959 -2587481.0953795896,-522462.5797124821 -2337135.725775628,-600971.2731822171 -2062763.1024779829,-647442.2492654648 -1766886.0368401427,-658169.3036756373 -1452487.5105036325,-629610.308900475 -1123005.1665757543,-558441.2024484462 -782319.8014081519,-441610.8430786842 -434737.59917378123,-276396.10956109717 -84965.91204297115,-60456.57156770684 261917.54412468013,208111.97732090764 600502.1354252412,530725.8679491604 925088.3749014237,908264.5551462136 1229738.501037307,1341025.057023264 1508333.3757625942,1828680.6325842645 1754635.4163285545,2370244.497031655 1962357.1811884958,2964039.36506515 2125235.1341998214,3607673.5929498747 2237108.015147871,4298024.659713569 2291999.1489388878,5031230.686170255 2284201.9320545765,5802690.637325678 2208367.6442971365,6607073.788986928 2059594.647822407,7438338.963109511 1833517.955332924,8289763.948739834 1526398.0764746005,9153985.426680006 1135207.9873455903,10023049.606703196 657717.0139632558,10888473.666932488 92570.37789235261,11741317.95668415 -560636.877690227,12572268.787652867 -1301292.879207474,13371731.494939288 -2127710.129801886,14129933.300402027 -3037076.2158187106,14837035.357638154 -4025415.2639529826,15483253.202181987 -5087561.350486454,16058984.674030902 -6217144.995881548,16554944.224251833 -7406593.79118004,16962302.365206227 -8647148.09700309,17272828.876951355 -9928892.631521018,17479038.242818035 -11240804.620845435,17574335.657258134 -12570819.024433361,17553161.83106453 -13905911.170080516,17411134.71525443 -15232196.93898854,17145186.177521657 -16535050.432551006,16753691.596382856 -17799238.830531307,16236590.290077489 -19009073.917079978,15595494.67191185 -20148579.50871073,14833786.022899283 -21201673.769323803,13956694.797901018 -22152365.144288305,12971363.434444482 -22984960.391342245,11886889.71518886 -23684282.933729842,10714348.846527847 -24235899.513833053,9466792.557672314 -24626352.886996966,8159223.697010741 -24843398.068830267,6808545.005501527 -24876239.438623205,5433480.979832847 -24715765.81033654,4054472.0002011815 -24354780.414560206,2693540.187501567 -23788222.593557395,1374126.770746923 -23013377.90055573,120901.08545757331 -22030073.21722324,-1040458.3150448304 -20840853.463003844,-2083509.5741086549 -19451136.469654564,-2981319.216561474 -17869342.63660601,-3706757.9435488577 -16106996.06998539,-4232818.465744192 -14178794.042226452,-4532952.890135725 -12102641.791607149,-4581426.765695535 -9899649.912779052,-4353686.491883979 -7594091.8707974665,-3826736.4067073306 -5213319.502158561,-2979521.5036881957 -2787634.7461015433,-1793311.3855294029 -350116.2764775931,-252080.7524268548 2063599.823312349,1657118.5491008223 4415585.685317503,3943799.119441089 6665933.37174948,6613698.622778322 8773111.88150892,9668464.933331259 10694368.033513475,13105371.38053006 12386169.170962978,16917067.66163734 13804684.97247319,21091371.91989328 14906304.987475738,25611109.342735022 15648187.84204732,30454002.41490003 15988837.395559618,35592617.66289431 15888700.47688604,40994373.34884411 15310780.200410912,46621612.112491965 14221258.266132578,52431742.020348676 12590119.094324846,58377448.86209208 10391768.143236456,64406981.83861982 7605636.31787613,70464514.01721267 4216762.008658702,76490578.09172483 216342.0099318904,82422577.08540145 -4397757.6308512725,88195368.6778358 -9620539.883829389,93741920.83386591 -15439473.173297951,98994035.37019514 -21834154.9088017,103883135.02556598 -28776050.803147495,108341108.51389441 -36228318.309530444,112301206.94927849 -44145722.02197678,115698983.95052402 -52474648.265092105,118473270.67486173 -61153225.349581815,120567176.01057604 -70111555.0897461,121929101.19156769 -79272060.17032684,122513757.19902447 -88549950.81663266,122283172.50214498 -97853812.96956715,121207677.97706887 -107086318.80361971,119266855.24635439 -116145058.96059579,116450434.21576013 -124923494.31625217,112759125.2652737 -133312023.46438776,108205371.39105107 -141199160.40844822,102814005.6068467 -148472815.21131495,96622799.10904613 -155021668.5882346,89682886.09837288 -160736629.6560715,82059051.74190389 -165512364.2958243,73829870.55730806 -169248879.86755273,65087683.51122473 -171853150.36143366,55938403.34702441 -173240764.5004244,46501139.09293672 -173337577.85423416,36907632.34602129 -172081348.70671186,27301499.77425808 -169423336.26493916,17837278.318693276 -165329838.83363205,8679271.797653703 -159783648.82753772,200.00000019567878" stroke="white" stroke-width="1.5" /><circle cx="249.92582360940372" cy="197.27747600144508" fill="red" opacity="0.7" r="5.0" /></svg>