<?xml version="1.0" encoding="utf-8" ?>
<svg baseProfile="full" height="400" version="1.1" width="400" xmlns="http://www.w3.org/2000/svg" xmlns:ev="http://www.w3.org/2001/xml-events" xmlns:xlink="http://www.w3.org/1999/xlink"><defs /><rect fill="black" height="100%" width="100%" x="0" y="0" /><circle cx="200" cy="200" fill="yellow" r="10.000437165840184" stroke="orange" stroke-width="2" /><polyline fill="none" points="199.68810730471697,200.0 199.6161308844543,199.9798486249793 199.54228013737293,199.951810797852 199.46728799679866,199.91548350068877 199.3919486989825,199.8705324798032 199.317111942947,199.81670076681988 199.24367596705238,199.75381680099755 199.17257955578762,199.6818020247929 199.1047930045021,199.6006778226209 199.04130808461122,199.51057167222112 198.98312706708936,199.4117223790768 198.9312508776495,199.30448426705658 198.8866664727225,199.18933020292744 198.85033354101023,199.06685333869055 198.8231706507896,198.93776746385947 198.8060409780868,198.80290586985575 198.79973776510133,198.6632186406452 198.80496967161702,198.51976829755097 198.82234619436446,198.3737237418174 198.85236334017006,198.22635245588214 198.89538974801113,198.07901094334977 198.95165346257795,197.9331334082172 199.02122956740408,197.7902186958292 199.10402888886378,197.65181554115793 199.19978798316217,197.51950619409786 199.30806061668542,197.3948885163092 199.42821094558644,197.2795566694746 199.55940859312602,197.17508054036816 199.70062581297304,197.0829840735728 199.85063691331746,197.00472270769498 200.0080201002302,196.94166013517943 200.17116187921567,196.89504462896255 200.33826413137675,196.86598520086636 200.5073539551329,196.85542787644843 200.67629633611185,196.8641323886251 200.84280967684072,196.89264960740164 201.00448418439834,196.9413000351183 201.15880307850648,197.0101537054062 201.30316654493237,197.09901182921158 201.43491831988266,197.20739053248715 201.55137475067735,197.33450702718187 201.6498561368153,197.47926854974668 201.7277201140493,197.64026438930262 201.78239680276553,197.8157613107303 201.81142540134002,198.0037026561232 201.81249186577392,198.20171138124198 201.7834672793632,198.4070972518128 201.72244648102745,198.61686838779195 201.62778648880342,198.82774730219575 201.49814422650698,199.03619153496712 201.332513037273,199.23841893188214 201.1302574481874,199.4304375640271 200.89114563608746,199.60808022531188 200.61537903636304,199.7670433843063 200.30361853473914,199.90293040295012 199.95700668701113,200.0112987690095 199.57718542393184,200.08771102222804 199.16630871825149,200.12778898668947 198.7270497185417,200.12727085478417 198.26260189008235,200.08207060220278 197.7766737468389,199.98833914946897 197.27347681041576,199.84252662460074 196.75770649172793,199.641445024514 196.23451565878648,199.3823305207279 195.70948072911818,199.06290460877233 195.1885602075067,198.6814332614086 194.67804567839767,198.23678321429676 194.18450535678602,197.72847448999744 193.7147204009169,197.15672825304884 193.27561429377732,196.52250908611336 192.87417570712574,195.82756078558072 192.517375370579,195.07443479518034 192.21207757783222,194.26651042863668 191.9649470711192,193.40800607761705 191.78235215213186,192.5039806594611 191.67026497135237,191.5603246305951 191.63416004658944,190.5837399761127 191.67891215389537,189.5817086835798 191.80869481839107,188.56244931934924 192.02688070725452,187.53486144802676 192.3359452906604,186.5084577695059 192.73737518725363,185.49328399228193 193.23158264731487,184.49982661547926 193.8178276477191,183.53890895389512 194.494149076799,182.62157590891243 195.25730647311138,181.75896816171323 196.1027337488348,180.96218664201055 197.02450627522757,180.24214830352466 198.0153226335705,179.60943441452812 199.0665022398395,179.0741327457083 200.16799993477088,178.64567520596825 201.3084384930052,178.33267263714296 202.47515984591627,178.14274862841467 203.65429563310875,178.08237434789586 204.8308574982654,178.15670650983805 205.98884732719753,178.36943069865453 207.11138739107804,178.72261235292171 208.18087010768568,179.21655777133137 209.17912687015905,179.84968753592477 210.08761511863676,180.61842475372833 210.88762254793667,181.5171004942103 211.5604870570693,182.5378787451091 212.0878307571192,183.67070312174116 212.45180606633474,184.9032674437857 212.63535163882474,186.22101213801497 212.62245559993622,187.60714823512552 212.39842330118984,189.04271050376093 211.95014656469783,190.50664100547513 211.26637116545643,191.97590406169718 210.33795910398575,193.42563329913057 209.15814205563456,194.82931108535124 207.72276225053724,196.15898028405957 206.03049694361582,197.38548785239757 204.08306258086722,198.47875937436723 201.88539475990058,199.40810317858393 199.44580012239834,200.14254222974523 196.77607640659244,200.651171516125 193.89159703123906,200.90353818537682 190.81135678070947,200.87004121359516 187.55797541489193,200.52234693393586 184.15765633820473,199.83381630742082 180.64009782907593,198.77993939637264 177.03835475396676,197.3387721069318 173.38864916686975,195.49136990809 169.73012872389623,193.22221291744015 166.10457241997034,190.51961647513718 162.55604377685466,187.37612111398 159.13049227399708,183.78885568140822 155.87530451046507,179.75986728457397 152.8388073111538,175.29641171805906 150.06972573639135,170.41119810031086 147.61659971314845,165.12258159385865 145.52716376971858,159.45469831952082 143.84769511478356,153.4375368989668 142.62233604646286,147.1069414750826 141.89239739703575,140.5045415665341 141.69565040391933,133.67760471156834 142.0656150363052,126.67880854513851 143.03085338856943,119.56592973036354 144.61427726511073,112.40144802635648 146.83247951569118,105.25206471449826 149.69509902494067,98.1881356178982 153.20422950414655,91.2830200263224 157.3538823680265,84.61234797223945 162.12951399484928,78.25320948245708 167.5076275568614,72.2832706424935 173.45545936237406,66.77982254450757 179.9307592651303,61.81877043038381 186.88167416612094,57.473571574442445 194.24674295475822,53.81413165938409 201.95501040877795,50.90567056782325 209.9262665957326,48.80756962288615 218.07141719562065,47.57221334716144 226.29298889821354,47.24383975185478 234.485772626192,47.85741399935387 242.5376058045887,49.437540984753696 250.3302932487066,51.99743293785815 257.74066448927994,55.53794854002001 264.64176350992324,60.04672026412487 270.9041649547735,65.49738666638703 276.3974088925995,71.84894617221187 280.99154421840524,79.04524849365046 284.55876875739153,87.01463918333425 286.97515213340824,95.66977196184126 288.12242550054,104.90760234725188 287.88982033928187,114.60957476488115 286.1759367159168,124.6420137223908 282.8906197239437,134.85672780430446 277.9568212988811,145.0918331771424 271.312423251661,155.17280101217258 262.91199623004917,164.91373074065697 252.72846842028648,174.11884837358653 240.75467716957462,182.58422626481254 227.00477636979508,190.09971769730146 211.51547241767724,196.45109655448235 194.34706187794907,201.42238913316962 175.5842446424686,204.7983818953195 155.33668741544173,206.36728567987032 133.7393137745085,205.9235336427467 110.95229886766522,203.27068700477545 87.16074901037297,198.22441960777127 62.57404904467603,190.6155493540008 37.42486330681774,180.2930818803524 11.967779410440642,167.12722934318444 -13.522412227614126,151.01236501043405 -38.75280613485674,131.8698725210714 -63.414835453730575,109.65084722419364 -87.18708554304084,84.3386059950095 -109.73845663985412,55.95096138427152 -130.7316596418279,24.542215929875255 -149.82702385905134,-9.795167020951254 -166.68659028776977,-46.92925853302748 -180.9784586358956,-86.68776620206108 -192.38135104660063,-128.85758170266337 -200.58935028971803,-173.18480934023103 -205.3167651928548,-219.37530758392325 -206.30307133909605,-267.09577132185075 -203.31787064195612,-315.97537771478153 -196.1658093977793,-365.6080130495818 -184.6913908881533,-415.5550919354804 -168.78361563630676,-465.34897358138153 -148.38038008630792,-514.4969727864378 -123.47256284361856,-562.485955723756 -94.10772675768578,-608.7875026624645 -60.39336510417672,-652.8636115296681 -22.499620992418528,-694.1729077427021 19.338589068622298,-732.1773171339499 64.82011372431575,-766.3491501430731 113.57682992733909,-796.1785368698381 165.17368833744132,-821.1811441759477 219.10959274376233,-840.9060979128335 274.8191583759917,-854.9440256548214 331.67538604019796,-862.9351281568181 388.99328009400017,-864.5771812579342 446.03442840852966,-859.6333642423174 502.0125517106927,-847.939805869755 556.1000181330774,-829.4127355221424 607.4353065097483,-804.0551242935628 655.1313890488682,-771.9626994911016 698.2849906064835,-733.3292160117051 735.9866680134039,-688.4508695084418 767.3316389156804,-637.7297392365928 791.431275538135,-581.6761530413935 807.4251648404892,-520.9098731649127 814.4936228878071,-456.1600094423526 811.8705380904785,-388.2635760420485 798.8564054798934,-318.1626191727448 774.8314025750387,-246.89985610903284 739.268346865706,-175.6127804212814 691.7453656932839,-105.52620436709049 631.958101551264,-37.9432269098605 559.7312697506318,25.765365344729247 475.0293811885247,84.173237007851 377.96644079948885,135.81213427990758 268.81443232131875,179.18693675193967 148.01040241937824,212.7920381612025 16.161962112396566,235.12894088576311 -125.94896906531517,244.72492613247618 -277.3643405650238,240.1526391299616 -436.95022149674423,220.050406477487 -603.3992603439333,183.14308142988202 -775.235471212275,128.26319263656438 -950.8214430361891,54.37215302570914 -1128.3680444870074,-39.4187315371195 -1305.946671156424,-153.82772915247972 -1481.5040530864244,-289.38291223290946 -1652.8796100809122,-446.4034489743417 -1817.8253097028696,-624.9822603932356 -1974.0279487118241,-824.9703507923803 -2119.1337432462597,-1045.9631193411547 -2250.775076658224,-1287.2889564400111 -2366.5992169518545,-1548.0004204767513 -2464.2987786870285,-1826.8682783037511 -2541.6436674348047,-2122.3786761397846 -2596.514208893255,-2432.7336865449633 -2626.9351300898747,-2755.8554515961005 -2631.1100272293825,-3089.39411242201 -2607.4559242234996,-3430.739680918681 -2554.637498298801,-3777.037970886955 -2471.6005248570978,-4125.2106632167915 -2357.604073490421,-4471.979533342091 -2212.250971245842,-4813.894819331756 -2035.5160383901775,-5147.367656055413 -1827.7715965083953,-5468.706445319045 -1589.8097492127906,-5774.156974221594 -1322.8609424300403,-6059.946034816121 -1028.6083245055477,-6322.328238101195 -709.1974464937371,-6557.635655108203 -367.2408701993842,-6762.329858124223 -5.817285932526062,-6933.0558766763515 371.5352164069637,-7066.697526616938 760.8320304218095,-7160.433517333253 1157.6613220168388,-7211.793692620708 1557.2099125802806,-7218.714715979123 1954.2958758089503,-7179.594471889318 2343.407891893692,-7093.344421862052 2718.751321631508,-6959.439128563511 3074.3008769116623,-6777.962143915731 3403.8596736712907,-6549.647448502019 3701.124359675012,-6275.915630579159 3959.755913279121,-5958.904004132957 4173.455611728154,-5601.489887255987 4336.045569619035,-5207.306295121655 4441.553151153034,-4780.749346312139 4484.298464945768,-4326.976737446724 4458.984058805827,-3851.896709036596 4360.785845392567,-3362.1470052051586 4185.444209425574,-2865.0634211549764 3929.3541745600232,-2368.63763467055 3589.653444578934,-1881.4641309923686 3164.307080586947,-1412.6761533923113 2652.187534778758,-971.8707438545418 2053.148733407437,-569.0230783894247 1368.0928880212164,-214.39044847391835 599.0287160044765,81.5936074487359 -250.88023003458977,308.4343620939538 -1177.2783885636588,455.6993281236357 -2174.5933815876324,513.1490795489808 -3236.0247110075493,470.87433012311686 -4353.547004850112,319.43797909138505 -5517.928748420657,50.020686385262394 -6718.767305451941,-345.4316009829847 -7944.5408856207905,-874.0598796649217 -9182.677947980192,-1541.9459037624024 -10419.644345768349,-2353.96951028369 -11641.048317841358,-3313.67147051408 -12831.763217043463,-4423.123947843475 -13976.067637867201,-5682.810687453019 -15057.80236672799,-7091.519084691967 -16060.543330314247,-8646.246275135512 -16967.78946327144,-10342.121358564744 -17763.164158669966,-12172.345810027076 -18430.62870625989,-14128.154042559627 -18954.705867602774,-16198.79596721442 -19320.711487146666,-18371.543246160825 -19514.99179767662,-20631.72075364834 -19525.163850955207,-22962.764547660314 -19340.35629346859,-25346.307412740705 -18951.447516755066,-27762.29276270799 -18351.298045556254,-30189.11739219527 -17534.973888685807,-32603.803240029352 -16499.95747064274,-34982.197977682044 -15246.34269004721,-37299.203865152835 -13777.010617178812,-39529.0339278744 -12097.782350225385,-41645.49410520572 -10217.545600968811,-43622.28960785343 -8148.351677841367,-45433.353302601674 -5905.479679455925,-47053.193522853726 -3507.4649062559956,-48457.25828786492 -976.0887427321297,-49622.312507631024 1663.6724419704656,-50526.824359883154 4383.74148155586,-51151.3566564254 7153.079399668609,-51478.958674157504 9937.870465259377,-51495.553617622005 12701.754096694276,-51190.31661089646 15406.103864437673,-50556.03789309132 18010.353272853383,-49589.46571945214 20472.367398224746,-48291.62335466985 22748.8588277114,-46668.094491725264 24795.845688569392,-44729.271443259495 26569.148885171413,-42490.56053737522 28024.924980435324,-39972.53930966032 29120.23047606315,-37201.06032111575 29813.612570904825,-34207.296749823174 30065.72081767117,-31027.72530403074 29839.933464398935,-27704.042486362898 29102.991668090533,-24283.010802575744 27825.63421360162,-20816.23215214848 25983.224871015605,-17359.846359381023 23556.364089291317,-13974.153598771747 20531.476362631078,-10723.160332329799 16901.3643282502,-7674.049302991401 12665.720469084246,-4896.57511012677 7831.587210958137,-2462.387921736843 2413.7562286780976,-444.2889436844863 -3564.902083618786,1084.5776415876235 -10073.187759709903,2051.590447752962 -17071.407418301264,2385.5674412072453 -24511.305301838012,2017.7252576072176 -32336.096416210166,882.6721842422415 -40480.608204001146,-1080.575314543246 -48871.53626478419,-3927.563623333288 -57427.818586684036,-7707.372546248652 -66061.13157832784,-12461.598225183046 -74676.50989560594,-18223.361913446453 -83173.09065143732,-25016.35869656128 -91444.98108901983,-32853.96069975938 -99382.24720179764,-41738.389618677465 -106872.01911047021,-51659.97354204719 -113799.70727454251,-62596.50299015111 -120050.3218407286,-74512.70085915603 -125509.88563220126,-87359.82052940864 -130066.92948206159,-101075.38575747682 -133614.0568337399,-115583.08512127755 -136049.56279379554,-130792.8327214065 -137279.0911533047,-146601.00555860068 -137217.3113180243,-162890.8665085583 -135789.59563063472,-179533.18010530891 -132933.67625671672,-196387.0264300985 -128601.25966575147,-213300.81629447814 -122759.57579498162,-230113.50861718782 -115392.83826240529,-246656.02844083778 -106503.59151928038,-262752.8814359069 -96113.92062471874,-278223.9580187325 -84266.49940574836,-292886.5173926591 -71025.45315396464,-306557.338935912 -56477.012720315426,-319055.0254374251 -40729.93791542168,-330202.4397566359 -23915.689513606398,-339829.2535913921 -6188.330900277425,-347774.5842178252 12275.857503694908,-353889.6923571593 31279.065462874798,-358040.7117681465 50602.953428482,-360111.3788021936 70009.97483632776,-360005.7280336184 89245.02528435217,-357650.7182322152 108037.41994593389,-352998.75142109155 126103.19658193098,-346030.04659996135 143147.73728653227,-336754.82895148767 158868.69767633983,-325215.2950221444 172959.2276504578,-311487.31451264955 185111.46315828842,-295681.82995605184 195020.2636622754,-277945.91672946635 202387.16523012889,-258463.4675588442 206924.5144940489,-237455.46795029053 208359.7441352984,-215179.83182559622 206439.7461559969,-191930.77005651745 200935.29505315295,-168037.6685779612 191645.4691810621,-143863.45730291933 178402.0151461348,-119802.45614270605 161073.59709176174,-96277.69002753161 139569.8702676363,-73737.67088939327 113845.31640368304,-52652.651068012565 83902.77718619381,-33510.3594792164 49796.621621785285,-16811.23908360007 11635.483327311073,-3063.2116433965975 -30415.49515102881,7223.996618606412 -76132.97196727569,13544.927125605405 -125234.32772597822,15404.809764694 -177377.25380762795,12326.275733406328 -232160.05707990756,3856.298297533358 -289122.7252309015,-10426.70979223332 -347748.79046229814,-30905.720204018013 -407468.02187786857,-57917.91843539605 -467659.96862661,-91747.62849350543 -527658.3667553855,-132619.4274401694 -586756.4128504685,-180691.54837764305 -644212.8969722766,-236049.6734711398 -699259.176197492,-298701.2205634712 -751106.9583757503,-368570.22773946536 -798956.8535951532,-445492.93975599715 -842007.6384553903,-529214.198489301 -879466.1657048276,-619384.7363986514 -910557.8392544138,-715559.4674102279 -934537.5621928063,-817196.8635478822 -950701.0533581844,-923659.4980548238 -958396.4164444412,-1034215.8266555545 -957035.8347095388,-1148043.2680124284 -946107.2542924535,-1264232.6323674666 -925185.9101142575,-1381793.933879217 -893945.5405197588,-1499663.6073392187 -852169.1303872879,-1616713.1338774788 -799759.0175688127,-1731759.0630576839 -736746.1943856474,-1843574.4005585571 -663298.6346515566,-1950901.3115978446 -579728.477466774,-2052465.0705608185 -486497.90194925864,-2146989.16714683 -384223.53225126624,-2233211.458965827 -273679.2197368221,-2309901.240139901 -155797.05913231723,-2375877.0753462976 -31666.507846078865,-2430025.2291458426 97468.50750682798,-2471318.5016534426 230214.5960612361,-2498835.2639124193 365036.09816453105,-2511778.470025752 500264.52840766235,-2509494.4084704462 634110.2991438848,-2491490.9423704576 764676.7312444665,-2457454.9781193133 889976.3308342001,-2407268.8939060583 1007949.2811312178,-2341025.65467619 1116484.0675465174,-2259042.3381032916 1213440.122173268,-2161871.797487209 1296672.3410421815,-2050312.1923349835 1364057.294395513,-1925414.1258952003 1413520.91712601,-1788485.141245494 1443067.4338514323,-1641091.343778802 1450809.2412851942,-1485055.9381564064 1434997.4400732038,-1322454.4920101385 1394052.6795636967,-1155606.766848287 1326595.952537418,-987064.9886642168 1231478.9532305822,-819598.466524484 1107813.5915112689,-656174.5067292128 955000.239291567,-499935.6127394166 772754.2726292275,-354173.006644175 561130.4649287853,-222296.5561273417 320544.78360005,-107801.24126402148 51793.14484400969,-14230.34755116043 -243933.31075700605,54864.37517947798 -565036.8451849441,95965.29448795968 -909506.0556213573,105633.87042924784 -1274913.4893738995,80557.62370098109 -1658418.2846785837,17598.644860353903 -2056774.1414618162,-86156.85684658935 -2466342.8802161454,-233348.51305820892 -2883113.7949270015,-426291.85514829773 -3302728.9477118556,-666929.1016116795 -3720514.488817785,-956781.3363665798 -4131518.016280452,-1296902.7674611912 -4530551.9153824635,-1687837.7760164812 -4912242.539661894,-2129581.478115458 -5271085.013305138,-2621544.527100737 -5601503.350094079,-3162522.8797637587 -5897915.49753588,-3750673.2366654 -6154802.827335129,-4383494.843863338 -6366783.505998411,-5057818.310270787 -6528689.09318437,-5769802.051469968 -6635643.631580435,-6514936.9168989295 -6683144.411799488,-7288059.49288859 -6667143.520282948,-8083374.499144729 -6584129.208730649,-8894486.61117958 -6431206.06142028,-9714441.946273757 -6206172.883194202,-10535779.3463151 -5907597.187118356,-11350591.477988102 -5534885.128060798,-12150595.650103915 -5088345.707837947,-12927214.120343186 -4569248.070209821,-13671663.530459264 -3979870.7108448953,-14375052.971337883 -3323541.4492911855,-15028490.038642582 -2604667.0477164313,-15623194.097641867 -1828751.4153089914,-16150615.83388665 -1002401.4081860771,-16602562.026462099 -133319.32268203003,-16971324.344451945 769718.7149654155,-17249810.83697465 1696899.1374096156,-17431678.66469482 2637422.639671383,-17511466.508119017 3579571.578860922,-17484724.987322476 4510793.281966954,-17348143.341067642 5417799.289787889,-17099670.54258513 6286680.36867578,-16738628.97653998 7103036.91429908,-16265818.768764991 7852124.154943426,-15683610.848936528 8519011.338040031,-14996026.838088876 9088753.854944337,-14208803.889109278 9546577.028004225,-13329442.67032143 9878070.053374648,-12367236.770899696 10069388.365752142,-11333281.92284869 10107462.470262272,-10240463.578014575 9980211.075313553,-9103421.550143555 9676756.161597697,-7938490.631093894 9187637.439895725,-6763616.316307447 8505023.487294588,-5598245.026553847 7622916.711157965,-4463188.489363933 6537349.176002621,-3380462.2426839634 5246566.243473043,-2373098.5429003537 3751194.9228962604,-1464934.2969065255 2054393.812253799,-680374.9903097935 161981.52939300172,-44135.94781937732 -1917459.4068094217,419037.3664375107 -4172506.1838973905,684667.9255611562 -6588849.585375831,728862.1357791688 -9149280.766261851,528638.4247741484 -11833713.283924181,62266.23692989314 -14619242.473657025,-690388.0930989356 -17480243.933870543,-1747512.4392648505 -20388512.517524783,-3125001.1020827894 -23313442.81614285,-4836112.556389854 -26222251.672698807,-6891137.366561242 -29080242.772828363,-9297081.091273628 -31851112.84373898,-12057367.13672105 -34497298.441153504,-15171564.601486139 -36980361.73149254,-18635146.183484998 -39261413.08480527,-22439281.185376428 -41301567.689808,-26570668.5558735 -43062432.79248266,-31011414.737415005 -44506621.55119507,-35738960.853137404 -45598288.901915744,-40726063.456305176 -46303684.24490721,-45940832.682291 -46591715.207577005,-51346831.18671717 -46434516.215731606,-56903236.72424156 -45808015.12598277,-62565070.62240502 -44692490.74440515,-68283493.7366736 -43073113.68950643,-74006170.7400432 -40940462.75978911,-79677702.8081445 -38291008.745978266,-85240127.91452445 -35127557.49331857,-90633487.05764039 -31459643.97759686,-95796453.80903578 -27303869.216473654,-100667023.61017157 -22684172.001257706,-105183258.26341547 -17632027.70848231,-109284080.07164986 -12186566.839525871,-112910109.09252451 -6394606.442920548,-116004536.00007312 -310588.19947102014,-118514022.1013182 6003582.304939277,-120389617.15227886 12478799.731223132,-121587684.77048668 19039130.198090065,-122070824.46403535 25602292.097975813,-121808778.60465075 32080247.870469082,-120779312.07860932 38379906.79582867,-118969051.86851478 44403937.494002886,-116374273.46454531 50051687.361518234,-113001620.78864159 55220204.662642986,-108868746.25127164 59805357.42701987,-104004857.65875077 63703041.709744364,-98451158.95934163 66810470.159300834,-92261172.26652932 69027530.233021,-85500929.2345956 70258199.8189788,-78249020.68925574 70412006.48895884,-70596494.43740138 69405515.14138275,-62646592.39494601 67163827.41883428,-54514319.57847695 63622075.02512859,-46325839.0999993 58726887.94528827,-38217689.07744366 52437817.6112619,-30335819.316530325 44728694.27977249,-22834447.719479926 35588897.317997605,-15874738.617078783 25024516.749060083,-9623307.584553609 13059384.311680509,-4250559.7671892205 -264047.54511613096,71128.715020362 -14883999.865428276,3169374.1197923427 -30718854.982327748,4873878.410948277 -47666857.25856766,5018635.173098549 -65606044.77197703,3444228.1558477553 -84394428.27849156,200.0000001033536" stroke="white" stroke-width="1.5" /></svg>