<?xml version="1.0" encoding="utf-8" ?>
<svg baseProfile="full" height="400" version="1.1" width="400" xmlns="http://www.w3.org/2000/svg" xmlns:ev="http://www.w3.org/2001/xml-events" xmlns:xlink="http://www.w3.org/1999/xlink"><defs /><rect fill="black" height="100%" width="100%" x="0" y="0" /><circle cx="200" cy="200" fill="yellow" r="10.00000051858299" stroke="orange" stroke-width="2" /><polyline fill="none" points="200.36969453834388,200.0 200.33057996739726,200.01735393817208 200.28690121574363,200.03020524519653 200.2389673996253,200.0379129584925 200.18716362629326,200.0398512601267 200.13195137023826,200.03541808167816 200.07386792714018,200.0240439835505 200.01352489064212,200.00520121643999 199.95160560553848,199.97841286421297 199.88886156059414,199.9432619596794 199.8261076949432,199.89940045781054 199.76421660378864,199.8465579449823 199.70411164186476,199.78454995796974 199.64675893673683,199.71328578280776 199.59315833838536,199.63277560139497 199.54433334653172,199.54313685297566 199.50132007265813,199.44459967849335 199.46515530950248,199.33751131836777 199.43686379678977,199.22233933858885 199.41744478791057,199.09967356620643 199.4078580379698,198.9702266233766 199.4090093488973,198.83483295912453 199.42173582191518,198.69444628990843 199.4467909813667,198.55013537389766 199.4848299465024,198.40307805956633 199.53639483905386,198.2545535666814 199.60190062407753,198.1059329769344 199.6816215893936,197.95866793220063 199.77567867475605,197.8142775605601 199.88402786546752,197.67433367359644 200.00644986629493,197.54044430289514 200.1425412700792,197.41423566885945 200.29170743120164,197.29733270068473 200.45315724694404,197.19133825230105 200.625900039648,197.0978111849984 200.80874471937307,197.01824351296497 201.00030139042374,196.9540368327522 201.19898554566288,196.90647828137293 201.4030249699817,196.87671628997433 201.610469448731,196.86573642042973 201.81920334844747,196.87433759038763 202.02696110599413,196.903109007927 202.23134562848082,196.95240814962818 202.42984957028534,197.0223401252248 202.61987941545806,197.11273877771208 202.798782254098,197.22314986954308 202.96387510032247,197.3528167030499 203.11247655763785,197.5006685162389 203.2419405953212,197.66531198340388 203.349692157338,197.8450261334158 203.43326428388366,198.0377609769567 203.49033638540476,198.2411401073056 203.51877327050755,198.4524675075438 203.51666449310014,198.66873876028586 203.48236355104285,198.88665681437618 203.41452643911643,199.1026524166124 203.31214903386237,199.3129092657278 203.17460276740445,199.51339389091686 203.00166803229948,199.69989019853045 202.79356475033742,199.86803856868275 202.5509795355259,200.01337931895026 202.27508888571975,200.1314002857325 201.9675778488985,200.217588205873 201.63065362930456,200.2674835125622 201.26705362580313,200.27673809117618 200.88004743010868,200.24117547340705 200.47343235604484,200.15685288272485 200.05152212277932,200.02012448182018 199.6191283749064,199.82770511418425 199.18153479014308,199.57673377837682 198.74446360094436,199.264836025807 198.3140344391059,198.89018443199566 197.89671550185702,198.45155625826635 197.49926713339474,197.94838739656424 197.12867801647852,197.38082167551443 196.79209427369855,196.74975460173374 196.4967418863287,196.05687061755543 196.24984294915174,195.3046729753785 196.0585263910753,194.49650536037421 195.92973390241295,193.6365644377119 195.87012191898572,192.72990255812027 195.88596061922357,191.7824199266431 195.9830309916768,190.80084562389538 196.1665211252043,189.79270696682377 196.44092296098347,188.7662868065955 196.80993082276683,187.73056848427174 197.27634310789264,186.69516829966688 197.84196857486626,185.67025549435925 198.50753870234823,184.6664599051204 199.27262761767207,183.6947676077819 200.13558109922403,182.76640504229786 201.09345614493103,181.89271228582408 202.14197256764325,181.08500632019263 203.27547802646043,180.35443532121138 204.4869278303206,179.71182517760857 205.7678807559461,179.16751962488735 207.1085120062552,178.73121555144618 208.49764429758818,178.4117951985597 209.92279790481194,178.21715712963373 211.37026031310847,178.1540479849325 212.82517592484518,178.22789716310382 214.27165605052252,178.44265667769366 215.69290917584914,178.80064852288984 217.07139124428022,179.30242194550505 218.38897542796028,179.94662305735613 219.62714058233217,180.72987923154795 220.76717729341308,181.64670070574115 221.7904101348756,182.6894017635391 222.67843445786997,183.8480437802007 223.413365743482,185.1104022998235 223.978099259562,186.46196015713863 224.3565774843016,187.88592846768978 224.53406249243235,189.36329708542374 224.4974102504604,190.87291586702116 224.23534353917003,192.3916077885368 223.7387200189964,193.89431463346986 223.0007917810131,195.35427561411672 222.01745258734866,196.74323890235613 220.78746890383846,198.03170563476687 219.31269076843316,199.18920552359162 217.59823852484786,200.18460275344242 215.65266148536264,200.98643037819105 213.48806467238254,201.56325095806682 211.12019992770834,201.8840406988924 208.56851787331567,201.91859387933007 205.8561774590817,201.63794388404355 203.01001014201296,201.0147967071646 200.06043610811258,200.0239723580043 197.04133037137768,198.6428491963504 193.98983706306433,196.85180585484738 190.9461307560543,194.63465507779014 187.9531242508399,191.97906352605145 185.0561228774246,188.876951373536 182.3024260365916,185.32486535800314 179.7408774089717,181.3243188544856 177.4213659947745,176.88209251858197 175.39428090376236,172.01048910480455 173.70992358613444,166.72753620648706 172.4178819718105,161.0571308923265 171.56637175888432,155.029120533447 171.2015508518976,148.67931452600837 171.36681368671583,142.04942211891307 172.10207288042227,135.18691215405886 173.4430363007403,128.14479121666665 175.4204882488439,120.98129747306425 178.05958398075796,113.75950833924514 181.37916724472262,106.54686107052697 185.39112087397243,99.41458638437643 190.0997607358201,92.4370563172092 195.5012834887485,85.69104866269217 201.58327863011232,79.25493153335815 208.324315219622,73.20777281753428 215.69361343064386,67.62838055678299 223.65081070630683,62.59428153120223 232.14583177563082,58.18064659593304 241.11887111304122,54.459172546034125 250.5004956010089,51.496931481681884 260.21187418025835,49.3551997839366 270.16514014696395,48.08827987516966 280.2638904856001,47.742328909419996 290.40382521565806,48.35420939816714 300.4735281884831,49.950377508143816 310.35538910740473,52.54582535210156 319.9266647726936,56.143094013802425 329.0606756874621,60.73137428872403 337.62813221835177,66.28571216696784 345.49858250473756,72.76633592102922 352.5419722732338,80.1181212764766 358.6303046633831,88.27021052816104 363.63938613012857,97.13580061058514 367.4506424851071,106.61211403309085 369.9529871993352,116.58056524593428 371.04472224291555,126.90713341229757 370.63545001214766,137.44295072712399 368.6479733204892,148.0251133528937 365.02015903689824,158.4777197449938 359.70673977265744,168.61313862856866 352.6810270746304,178.23350618161945 343.9365089067953,187.13244909617467 333.4883038191439,195.09702715467122 321.3744441380246,201.90988579983528 307.6569607868451,207.35160592434875 292.4227429800718,211.2032347956063 275.784147042842,213.24897869817562 257.8793300058262,213.27903456215898 238.87228541883988,211.0925345919786 218.95256102134465,206.50057476170903 198.33464050295638,199.32929504617766 177.25697457690168,189.4229764590722 155.9806499633036,176.64711741836186 134.78768862098246,160.89144970373826 113.97897365419823,142.07285235833365 93.87180272681236,120.13812036449049 74.79707450712448,95.06654383583123 57.09611860295732,66.87225285803316 41.11718458338572,35.60628301807799 27.211610970398027,1.35831712213826 15.729700465006431,-35.741940353022926 7.016333087268549,-75.52379787508289 1.4063542932339317,-117.77506005163679 -0.7802195850729845,-162.24199598964202 0.756868879651222,-208.62982582059453 6.293105527012045,-256.6037541611259 16.074165879006813,-305.7905744053743 30.310911352092887,-355.78086224867 49.17448505188432,-406.1317707482402 72.79157488336152,-456.3704325718163 101.23991416623683,-505.9979679142609 134.54409169330592,-554.4940889303941 172.67174414001644,-601.3222835030681 215.53020386193518,-645.9355528125753 262.9636743453126,-687.7826685788727 314.75100385385457,-726.3149071025656 370.60412509986713,-760.9932084329084 430.1672250274316,-791.2957002471302 493.01670400701386,-816.7255174475386 558.6619778943951,-836.8188401890907 626.5471695036999,-851.1530651624025 696.0537280999791,-859.3550176011086 766.5040065601156,-861.1091047849895 837.1658159255343,-856.1653058988775 907.2579662348755,-844.3468881082517 975.9567908532903,-825.557734748905 1042.4036390964952,-799.7891687187386 1105.713308886709,-767.1261526170013 1164.9833775934922,-727.752747004041 1219.304375239287,-681.95670944687 1267.7707300348804,-630.1331198546219 1309.4924019148566,-572.786922061468 1343.6071055395441,-510.53427773565204 1369.2930103012452,-444.10263651740695 1385.7817914099053,-374.32943583246697 1392.3718933358982,-302.1593550881301 1388.4418549588186,-228.64006191021883 1373.463534917714,-154.91640267398475 1347.0150660871805,-82.22300574856536 1308.793360020053,-11.875283517142208 1258.6259758012372,54.74116176712542 1196.4821632412622,116.18270302153037 1122.4828878843512,170.96137775548 1036.9096450828843,217.56003326623556 940.2118725504745,254.44883628286652 833.0127754818012,280.1030326280912 716.1133856296633,293.0218192387349 590.4946857431395,291.7481678129455 457.3176435524264,274.8894167334629 317.92101506228744,241.1384260629266 173.8167952804392,189.2950696425436 26.683215617925896,118.28781898063387 -121.64478902306837,27.195156028370974 -269.1876941296301,-84.73346355719764 -413.83610235964477,-218.0573881350938 -553.3680542379315,-373.1255905821421 -685.468890901395,-550.0588406292026 -807.7535924674462,-748.7335419889594 -917.7914796752079,-968.7675475031476 -1013.1331295157579,-1209.5082619301907 -1091.33931801765,-1470.0233342947047 -1150.0117656128675,-1749.0942297497625 -1186.8254230330765,-2045.2129545241974 -1199.5619989605561,-2356.5821866492083 -1186.1443951893827,-2681.1190397392097 -1144.6716813659677,-3016.46265715363 -1073.454210012239,-3359.9857994584368 -971.0484440351604,-3708.8105493676367 -836.2910438394456,-4059.828215468342 -668.3317400270989,-4409.723469273726 -466.6645010149956,-4755.0026998287285 -231.15649323798607,-5092.026516600997 37.925674591378,-5417.046275176959 339.89293198083664,-5726.244441867674 673.6144547036541,-6015.77855329057 1037.5025904979288,-6281.828465968792 1429.5024728979988,-6520.646529673477 1847.0867668801352,-6728.610257369381 2287.255955895151,-6902.277004997271 2746.5445383715964,-7038.44011676299 3221.033452927553,-7134.185936957975 3706.3689954398687,-7186.951038482173 4197.788428002217,-7194.578972068045 4690.1524099696035,-7155.375799598084 5177.984305157285,-7068.163640748088 5655.51633736181,-6932.331435331047 6116.742479332781,-6747.882104983846 6555.477868885124,-6515.475288009523 6965.4244508462925,-6236.464820980351 7340.242445923524,-5912.930150767108 7673.627148393206,-5547.700881551776 7959.390454885993,-5144.373693569879 8191.546427676273,-4707.320914169344 8364.400099065195,-4241.690077503451 8472.638630013504,-3753.3938768954704 8511.423847522805,-3249.0899935855155 8476.485102805773,-2736.150377004173 8364.211317466179,-2222.619654562728 8171.741019172629,-1717.1624626918656 7897.04911308129,-1228.9996148142882 7539.0290919326235,-767.8331552433325 7097.569357652312,-343.7604896281266 6573.622311688012,32.822068688662625 5969.264871375084,351.325842545598 5287.749086395703,601.0857725198866 4533.541563786361,771.4850224081775 3712.3504627109596,852.0872329860183 2831.138891925469,832.7752878067847 1898.1236338911451,703.8952975826335 922.7582300091974,456.4043580293467 -84.30040861878683,82.02049221306578 -1111.242551472464,-426.6269452782267 -2145.1738789480655,-1075.8482462583552 -3172.201726527583,-1870.7476593111137 -4177.539474766416,-2815.0830722500373 -5145.629000131536,-3911.1331762262753 -6060.280871293558,-5159.57426939318 -6904.831733536649,-6559.368882786476 -7662.318072737695,-8107.668410338174 -8315.665292385396,-9799.731897013064 -8847.890775116943,-11628.863082465765 -9242.319337234441,-13586.367711147517 -9482.809223829388,-15661.533002520386 -9553.986536882396,-17841.63102635927 -9441.485742564728,-20111.947547783526 -9132.193670621564,-22455.837694784266 -8614.494201924655,-24854.809558125748 -7878.510643847952,-27288.636560540985 -6916.342620852691,-29735.499130497246 -5722.294163329682,-32172.155887309094 -4293.089565000998,-34574.14419130891 -2628.073501550741,-36916.00953789835 -729.3918639522988,-39171.56288080176 1397.8502377522427,-41314.1645613687 3745.456797933036,-43317.03310140971 6302.038970672781,-45153.57669128977 9052.94611969416,-46797.74477770053 11980.23293390019,-48224.39673192085 15062.665436634916,-49409.68416495012 18275.76842245212,-50331.44305644927 21591.916509628674,-50969.59148591083 24980.47060074572,-51306.52840301845 28407.96109893931,-51327.52855593576 31838.318736152607,-51021.12841746031 35233.1533349005,-50379.497715707024 38552.08025042311,-49398.79099419992 41753.09363013386,-48079.4735016525 44792.984987186835,-46426.61564969463 47627.80492074437,-44450.15028232014 50213.36513375825,-42165.0870783323 52505.777207100095,-39591.67856141891 54462.0238946141,-36755.53242486821 56040.55801559526,-33687.665191735236 57201.92334829933,-30424.492628044034 57909.39127975695,-27007.752806984983 58129.606353093644,-23484.358285655326 57833.23328369498,-19906.17450126562 56995.597499949785,-16329.72221834135 55597.3108129964,-12815.802658579503 53624.8734428158,-9429.044815776051 51071.243334821054,-6237.375393536479 47936.36350105109,-3311.412795977469 44227.63802191392,-723.7876428369565 39960.34735618811,1451.606639376435 35157.99373589959,3140.4284901624665 29852.567674978087,4268.762367019067 24084.72700139764,4764.045463853664 17903.880335686335,4556.038965377017 11368.16758672972,3577.8347144125064 4544.330819667362,1766.8871167156924 -2492.5302302635682,-933.940888359692 -9659.322672231552,-4575.329887044556 -16865.448496490746,-9200.467011352259 -24013.418324067028,-14844.033582044889 -30999.59164274275,-21531.231645712513 -37715.042780522585,-29276.864150217265 -44046.550253013535,-38084.483823943345 -49877.70542764196,-47945.62597960638 -55090.13469115494,-58839.140439770854 -59564.82750504793,-70730.63756701746 -63183.56090579742,-83572.06296678752 -65830.40917406087,-97301.4148070326 -67393.32558180479,-111842.61685967853 -67765.7813523848,-127105.55931061735 -66848.44526076043,-142986.3181058967 -64550.88568496358,-159367.56210320874 -60793.27542189404,-176119.15558353902 -55508.07822702983,-193098.96175485212 -48641.69485523675,-210153.85075789117 -40156.04539471103,-227120.91337665424 -30030.06392364429,-243828.8791791155 -18261.08100387638,-260099.73518677833 -4866.069280554228,-275750.5384173194 10117.27249722196,-290595.4127886139 26629.62136366983,-304447.7179435719 44589.341577816915,-317122.3745850333 63892.02824305469,-328438.3279325952 84410.30435622596,-338221.12796529755 105993.89080908376,-346305.60223419557 128469.96677770378,-352538.5942573718 151643.83549149754,-356781.7378886383 175299.907579391,-358914.235622761 199203.01105779063,-358835.6066075496 223100.03356944508,-356468.3682197481 246721.8987256292,-351760.6134698317 269785.87437275145,-344688.4452718353 291998.2063303076,-335258.2277878854 313057.0666669735,-323508.6146703988 332655.8009374981,-309512.31411215774 350486.4540416376,-293377.55120643706 366243.5495392255,-275249.1892423939 379628.09241802176,-255309.4732366828 390351.7605228848,-233778.36124688853 398141.245178895,-210913.41183607964 402742.6970429528,-187009.19946418822 403926.2289660212,-162396.23356771772 401490.42371092836,-137439.3616436823 395266.79081852495,-112535.64175808882 385124.1138180485,-88111.6755270635 370972.6264047952,-64620.39873493349 352767.9542266957,-42537.33331481004 330514.75759544736,-22356.311371696684 304270.00982787285,-4584.689215678192 274145.8460846389,10261.923075022749 240311.9185561014,21665.383300607664 202997.1956916104,29111.1488898264 162491.145913964,32094.76978782006 119144.24993092952,30128.685738626285 73367.79036714516,22749.26362693222 25632.872997899005,9524.003242978393 -23531.35963442618,-9941.167064134528 -73540.35401787124,-35994.589763348165 -123757.63436376215,-68931.66322261424 -173499.16851173004,-108987.80818059087 -222038.61540739154,-156331.715454194 -268613.4478355297,-211058.97792214184 -312431.932777399,-273186.2119520214 -352680.9399080035,-342645.7744001684 -388534.5364692969,-419281.1810197889 -419163.3141723361,-502843.3304827963 -443744.3810317524,-592987.6351856057 -461471.93826695054,-689272.1555122972 -471568.34977368644,-791156.828228117 -473295.599343558,-898003.8721462425 -465967.0189612158,-1009079.4451423377 -448959.1603191144,-1123556.6159943913 -421723.67134071095,-1240519.7024291686 -383799.03018024645,-1358970.0132114675 -334821.9810552419,-1477833.0171895486 -274538.50954869227,-1595966.9460031355 -202814.1898685057,-1712172.8197849076 -119643.73314113989,-1825205.86678015 -25159.564303593423,-1933788.2885322964 80360.74431118858,-2036623.3023160773 196488.3518955998,-2132410.37204683 322638.50480469107,-2219861.518176335 458067.5257511305,-2297718.5763422824 601871.5835874572,-2364771.254026389 752987.3784067663,-2419875.8144660247 910194.8618953843,-2461974.1978386086 1072122.095590193,-2490113.371588751 1237252.3299782856,-2503464.684992741 1403933.3653096003,-2501342.9879545798 1570389.2306912087,-2483225.26090239 1734734.1916475147,-2448768.4917988703 1894989.0680526015,-2397826.527982045 2049099.8143944587,-2330465.625087412 2194958.2829762846,-2246978.4129269877 2330425.0581935565,-2147895.999151661 2453354.2167765386,-2033997.9360116164 2561619.835217241,-1906319.7837360797 2653144.03189855,-1766158.0161257111 2725926.298128499,-1615072.0299972366 2778073.839794482,-1454883.040206649 2807832.6201504725,-1287669.6661256994 2813618.7648093617,-1115760.0436278589 2794049.96281619,-941720.3287739807 2747976.4732153397,-768339.4953396219 2674511.3252831683,-598610.3679039252 2573059.283056628,-435706.87517438876 2443344.131414726,-282957.55424494285 2285433.8322084295,-143815.3852089856 2099763.095203953,-21824.08655011173 1887152.9102872526,79418.94547207477 1648826.5948161017,156302.81617069553 1386421.923493095,205246.1385222831 1101998.9279055255,222742.51925084076 798042.9791115262,205408.12404593872 477462.79945254774,150030.8683063222 143583.089171738,53620.72916022857 -199868.50063179494,-86539.37324654282 -548780.2648145199,-272842.72129678243 -898681.3683029121,-507308.60801602923 -1244772.8906004191,-791533.477867295 -1581965.0138541798,-1126644.0986852364 -1904920.302754346,-1513253.4847658693 -2208102.9452712424,-1951420.3051731673 -2485833.740288093,-2440612.5171794826 -2732350.532344777,-2979675.9618011876 -2941873.7058452806,-3566808.6460710615 -3108676.262155883,-4199541.414530957 -3227157.914067471,-4874725.680048675 -3291922.544218826,-5588528.841180478 -3297858.288442998,-6336437.959744643 -3240219.422822415,-7113272.207994261 -3114709.155772765,-7913204.519860808 -2917562.3550012754,-8729792.795400592 -2645627.174991462,-9556020.91218287 -2296444.495040601,-10384349.692419885 -1868324.0320829155,-11206777.860823303 -1360415.957800052,-12014912.906300662 -772776.8270230562,-12800051.631655127 -106428.61526621702,-13553270.04055285 636590.331590281,-14265522.071452951 1453183.6120386526,-14927746.545382777 2339165.4882564866,-15530981.549939662 3289241.097110082,-16066485.337399872 4296999.169850726,-16525862.672110135 5354918.1900469195,-16901195.42332468 6454386.814415343,-17185176.066305134 7585739.259051619,-17371242.628865894 8738306.214479478,-17453713.50469564 9900481.697532102,-17427920.45081979 11059806.077191552,-17290337.996574793 12203065.326230928,-17038707.417500086 13316406.352168504,-16672153.37160905 14385468.051250456,-16191291.259484602 15395527.50976592,-15598323.35533289 16331660.550056,-14897121.765160266 17178915.58642171,-14093296.302059961 17922499.521306653,-13194245.42844571 18547974.177367754,-12209188.501954647 19041461.529280555,-11149177.676380748 19389855.77343457,-10027087.951836558 19581040.057276644,-8857584.039479502 19604105.486267395,-7657062.905348572 19449569.838613108,-6443571.084541795 19109593.24952152,-5236696.110140226 18578187.981107242,-4057431.6795800957 17851419.274573565,-2928016.482808356 16927594.19116114,-1871746.9393405444 15807435.290666178,-912764.4326742225 14494235.973986855,-75817.98739339369 12993994.331795132,613996.2966702307 11315522.397408094,1131517.3614500696 9470527.800249565,1451820.7854216336 7473664.958563734,1550537.4013182744 5342553.137440381,1404186.105530288 3097758.9314301754,990517.6615041113 762741.0102316776,288865.94826024224 -1636244.7092698317,-719497.225430446 -4070280.9319273513,-2051007.9251393054 -6507966.949133812,-3719460.9698875593 -8915639.301260255,-5735670.578671074 -11257635.24850267,-8107145.669882061 -13496598.635645127,-10837784.844342912 -15593827.180966552,-13927596.1750646 -17509659.639099356,-17372446.96169991 -19203900.68763829,-21163848.580700107 -20636280.773846693,-25288781.469596595 -21766947.537645005,-29729565.122372456 -22556984.80745987,-34463777.73996091 -22968954.55420375,-39464229.87361516 -22967456.5938112,-44698996.01814366 -22519700.258872412,-50131507.65653316 -21596081.72374745,-55720710.727963775 -20170760.174038175,-61421289.889276534 -18222225.569438744,-67183961.268227 -15733850.367731651,-72955834.66902332 -12694417.265853308,-78680845.39147472 -9098614.780039338,-84300254.9703719 -4947492.339213488,-89753219.23842743 -248866.51160321827,-94977421.17218609 4982329.969001259,-99909765.00480527 10723764.557719098,-104487127.09251046 16945494.54892729,-108647158.0138393 23609837.5561794,-112329129.37428153 30671329.85467162,-115474817.79624802 38076778.99750805,-118029417.60870656 45765416.37387888,-119942472.82614334 53669154.513879344,-121168818.13699044 61712952.963698596,-121669517.82181184 69815295.46065925,-121412790.80598174 77888779.93610325,-120374909.43486996 85840821.57316034,-118541059.05594891 93574467.75554205,-115906145.11563231 100989322.27392755,-112475534.24218284 107982574.62129089,-108265715.70207278 114450128.622343,-103304869.69696422 120287823.0214596,-97633329.2219931 125392735.01586616,-91303922.64175968 129664556.0857341,-84382184.76515906 133007027.8606622,-76946425.01877102 135329424.1944362,-69087642.33382846 136548064.11938253,-60909277.57427996 136587838.94132823,-52526795.741352774 135383735.4395745,-44067091.78878737 132882335.97736116,-35667715.66556689 129043275.33039713,-27475914.15951253 123840633.22767399,-19647489.23299937 117264240.99211916,-12345474.805606913 109320880.2904066,-5738636.329455795 100035351.8710834,199.99999987749226" stroke="white" stroke-width="1.5" /></svg>