<?xml version="1.0" encoding="utf-8" ?>
<svg baseProfile="full" height="400" version="1.1" width="400" xmlns="http://www.w3.org/2000/svg" xmlns:ev="http://www.w3.org/2001/xml-events" xmlns:xlink="http://www.w3.org/1999/xlink"><defs /><rect fill="black" height="100%" width="100%" x="0" y="0" /><circle cx="200" cy="200" fill="yellow" r="14.087063497672165" stroke="orange" stroke-width="2" /><polyline fill="none" points="198.82590038567463,200.0 198.76094051139881,199.93495503697332 198.700158678492,199.86315141352406 198.64436401610902,199.78492392322633 198.59435032999937,199.70070621222928 198.55088495477884,199.61103189046074 198.51469718077,199.51653446988811 198.48646637062456,199.41794605192095 198.46680989250743,199.31609469637854 198.45627100738722,199.2119004163169 198.45530685775051,199.1063697563688 198.46427671365342,199.00058892703228 198.48343063925472,198.895715483456 198.51289874865984,198.7929685546045 198.55268122387167,198.69361764711078 198.60263926972414,198.59897006747616 198.6624871807199,198.5103570263854 198.7317856925649,198.42911850956537 198.80993678677083,198.35658702060866 198.89618010988409,198.294070322272 198.98959115962143,198.24283332368577 199.08908137839657,198.20407928140366 199.19340028038928,198.17893050199947 199.30113972144466,198.16840875268332 199.41074040173828,198.1734156038639 199.52050066937426,198.19471294342083 199.62858766900902,198.23290391636553 199.73305085335738,198.28841455526037 199.8318378472212,198.36147637593797 199.92281262370471,198.45211021943305 200.00377592079477,198.56011162434265 200.07248779378654,198.68503801381758 200.1266921654435,198.82619797784017 200.16414320165916,198.98264292416403 200.18263330612155,199.15316136012586 200.18002249348942,199.33627605236126 200.15426886731083,199.53024429219 200.1034598968129,199.73306147104495 200.02584415624395,199.94246814281775 199.9198631621461,200.15596071845098 199.78418291827137,200.37080590264253 199.61772475532717,200.58405894332103 199.41969503383316,200.79258572183835 199.18961326357385,200.9930886659057 198.92733818289423,201.18213641852554 198.6330913358465,201.35619714496175 198.3074776853498,201.51167530661797 197.95150280643537,201.64495167608843 197.56658621562627,201.75242631218978 197.1545704108006,201.8305641581115 196.71772522070796,201.8759428706118 196.2587470947771,201.88530243415488 195.78075300202158,201.85559606178552 195.2872686526954,201.78404183514294 194.78221080776026,201.66817449012814 194.26986349899983,201.50589671315717 193.75484804646194,201.2955292764692 193.24208682944155,201.03585931040305 192.7367608419469,200.72618598668933 192.2442611429418,200.36636287037078 191.77013439494647,199.95683618966197 191.3200227710399,199.4986782735409 190.8995985990695,198.99361541671092 190.51449420199495,198.44404945128568 190.17022748373677,197.853072334549 189.8721238995672,197.22447310274146 189.62523553779988,196.5627365922297 189.43425812408768,195.87303339170938 189.30344683975795,195.1612005622289 189.2365319200086,194.4337127456205 189.2366350651485,193.6976433760528 189.30618775708194,192.96061581340246 189.44685262261547,192.23074433034063 189.65944902364828,191.51656500666058 189.94388408068448,190.82695671347778 190.29909034923716,190.1710525054171 190.72297136753411,189.55814187949724 191.2123562775325,188.9975645037282 191.76296468879758,188.49859616490536 192.36938290561832,188.07032783203593 193.02505257131799,187.7215388774739 193.72227269974013,187.46056564027148 194.45221596221666,187.295166653486 195.20495997903868,187.23238598716205 195.9695342278509,187.27841627933176 196.73398302802315,187.43846313651676 197.48544489069533,187.71661268074564 198.21024833988753,188.1157040999213 198.89402411210168,188.6372091204367 199.52183343176617,189.2811203632875 200.07831183948872,190.0458505657116 200.54782782144164,190.9281446479049 200.91465525359334,191.9230065770842 201.1631584364429,193.02364292777412 201.27798825713992,194.2214249566021 201.24428777930223,195.50587090126933 201.04790532956892,196.86465007620725 200.6756129271797,198.28361017151593 200.11532769199152,199.7468289672578 199.35633367075351,201.23669145254505 198.38950134461288,202.73399308900275 197.20750192617663,204.2180696823958 195.8050134254157,205.66695402616824 194.17891536359002,207.05755915847132 192.32846894637754,208.3658877324713 190.2554794745049,209.56726664127444 187.96443777516075,210.63660566702117 185.4626374828013,211.548678542321 182.76026508576734,212.2784244253245 179.870459787175,212.8012674018014 176.809340406144,213.09345124337403 173.59599676941764,213.13238627556692 170.25244331414194,212.89700484783506 166.80353293975782,212.36812155565698 163.27682950979153,211.52879404768305 159.70243781134536,210.36467996443008 156.11279022919376,208.86438530472313 152.54238987980077,207.0197993075468 149.0275104748617,204.82641077556627 145.60585374000442,202.28360065748265 142.31616579728205,199.39490565445502 139.1978145245913,196.16824762552773 136.29033052509112,192.61612364235648 133.63291496838508,188.7557516879841 131.26391819543903,184.60916721081293 129.22029360319294,180.20326603537927 127.53703193441174,175.5697894974015 126.2465816849567,170.74524811234932 125.37826189551076,165.77078060405339 124.95767410882816,160.69194571126314 125.00612073766686,155.5584448531726 125.54003749359048,150.42377446632662 126.57044786379107,145.34480762046257 128.10244788324002,140.38130537411607 130.13472962443888,135.5953592355005 132.65915190893202,131.05076704245073 135.6603667263015,126.8123455582153 139.11550972111124,122.94518408769598 142.99396287059201,119.51384444048695 147.25719712120014,116.58151359097866 151.85870227710973,114.20911639927539 156.74401083605588,112.45439674642057 161.85082174696726,111.37097638952812 167.10922922020586,111.00740174251372 172.44206075726106,111.40618962152767 177.7653274863494,112.60288374607845 182.9887886991956,114.62513444238205 188.01663118970694,117.49181454007632 192.74826260649135,121.21218487289013 197.07921655916718,125.78512307456023 200.90216567590943,131.19842949044858 204.10803721114067,137.42822399118347 206.58722416383688,144.43844726671057 208.23088320628494,152.18047978834176 208.932309059477,160.59289104534423 208.58837330514626,169.60133088580577 207.10101401738487,179.11857381549785 204.37876105145807,189.04472593203124 200.33828036718478,199.2676027959773 194.90591941296773,209.66328496957692 188.0192343783273,220.09685619363745 179.6284790616871,230.42332723346303 169.69803421990412,240.4887463172661 158.20775558968688,250.13149483046004 145.15421832067736,259.18376453442033 130.55183535631696,267.47321006949613 114.43382736074086,274.82476790282294 96.85302213484353,281.0626302181251 77.8824621070445,286.0123595460051 57.615799435993694,289.50312723045454 36.167459532458,291.3700561537864 13.672555401379753,291.4566455331313 -9.713462875517337,289.6172530938187 -33.81543695327139,285.7196075563638 -58.43941820981854,279.6473221831923 -83.3738829141945,271.3023781578199 -108.39124942771156,260.60754485207553 -133.24969885863317,247.5087026146217 -157.6952969131118,231.9770326239383 -181.46441078925858,214.01103762688496 -204.28641088096214,193.63835706361826 -225.88664283197699,170.91734019183698 -245.9896511515824,145.9383413956987 -264.3226312177699,118.82470292095023 -280.61908210324174,89.73339183712673 -294.62262831776616,58.8552601043867 -306.0909743248986,26.414899225489393 -314.79995162160344,-7.329935904560955 -320.54761432760904,-42.08935568110803 -323.15833568044377,-77.54283456175085 -322.4868546357327,-113.34119281396642 -318.4222189939592,-149.10906898112114 -310.8915691770539,-184.447885224961 -299.8637050217302,-218.93930171736633 -285.3523767994206,-252.14914991555315 -267.41924116966413,-283.6318279183472 -246.17642297481012,-312.93513422917 -221.78862473365047,-339.60550921371396 -194.4747274283975,-363.19364641339985 -164.50882873439429,-383.26042874229563 -132.22066823808086,-399.38313754350577 -97.99539344018297,-411.16187560437857 -62.2726254521811,-418.22613862543903 -25.544789258903023,-420.24146340613936 11.645319778503392,-416.9160752538878 48.707753895422286,-408.007451944668 85.0094277116317,-393.328717067223 119.87893308154509,-372.75477186972716 152.6121475129006,-346.2280718968416 182.47861934682484,-313.7639528502731 208.72870209720674,-275.4554093159716 230.60139917250638,-231.47723035699136 247.33286876205318,-182.08939754513898 258.1655270860545,-127.63965385888719 262.3576766185315,-68.56515605983492 259.19357443892113,-5.393128712351057 247.99384470274174,61.25955504666382 228.12612850273473,130.68793254166752 199.0158542824587,202.10170722417774 160.1570026310476,274.62924671413316 111.1227308988085,347.322856564997 51.57571579613622,419.165349459667 -18.72193386215912,489.0779147443356 -99.89934666841992,555.9292773550885 -191.96829576433873,618.5461184139731 -294.8155002285077,675.7247122142269 -408.1959766990517,726.2437161445497 -531.7275946140064,768.8780315047599 -664.8869837626797,802.4136343425629 -807.0069359881985,825.6632566125879 -957.2754338053996,837.4827793581399 -1114.7364273629146,836.7881814898885 -1278.2924675736817,822.5728703413166 -1446.709287381331,793.9252037835075 -1618.6224050673547,750.0459985525472 -1792.5458033128066,690.2658058546272 -1966.8827155169724,614.0617235390464 -2139.9385267850676,521.0735044356784 -2309.935771201516,411.1187131010861 -2475.0311797112954,284.2066784546007 -2633.334704378599,140.55098784488194 -2782.930415250232,-19.41973081777047 -2921.8991358224944,-195.05298790859638 -3048.3426525245113,-385.46581325334444 -3160.4093030447652,-589.5405697242602 -3256.3207181214952,-805.9234145410067 -3334.399461992898,-1033.0256050394446 -3393.097288478115,-1269.0278234729715 -3431.0237030661365,-1511.8876695547347 -3446.974496867489,-1759.3504400113184 -3439.9598962763853,-2008.9632815257191 -3409.2319531410867,-2258.0927672772264 -3354.31078458338,-2503.945908069355 -3275.009259764954,-2743.594567056674 -3171.455723273614,-2974.0032026764025 -3044.1143417715098,-3192.059817949042 -2893.80266245725,-3394.6099462766924 -2721.7059790509493,-3578.4934547286434 -2529.388113677993,-3740.5838960983488 -2318.798241415357,-3877.8300913248013 -2092.2734085283514,-3987.299574813913 -1852.5364256567555,-4066.2234874239 -1602.6888534317552,-4112.042456073904 -1346.198840169238,-4122.452955798615 -1086.8836192643053,-4095.4536103185255 -828.8865274987909,-4029.390851546953 -576.6484643780075,-3923.0033276302574 -334.8737764565625,-3775.4644238215415 -108.49061893444474,-3586.4222414078763 97.39408094780664,-3356.036367698317 277.5448586471572,-3085.0107653478995 426.6528670110284,-2774.6221126010328 539.3955928638587,-2426.742937883193 610.5006966456393,-2043.8589129775069 634.8134555279139,-1629.0796991341326 607.3672107547611,-1186.142780123298 523.456142395001,-719.4097656043933 378.7096203540588,-233.8547072789625 169.16731051982154,264.9559609587611 -108.6458495302989,770.8921694721461 -457.6457485827344,1277.2978692424288 -880.117266806406,1777.037725533463 -1377.6455418119451,2262.5528723311686 -1951.0514005724185,2725.9256398502057 -2600.3320415866906,3158.9530498664994 -3324.608059049118,3553.228750780843 -4122.07789508655,3900.232937317488 -4989.980786530368,4191.429669914799 -5924.569238520932,4418.370877597434 -6921.09200794407,4572.806196968978 -7973.788514871384,4646.797670568935 -9075.89551958981,4632.838201927917 -10219.666806402132,4523.972544026625 -11396.406503304292,4313.919484374813 -12596.516539238337,3997.1937854638018 -13809.558598441863,3569.2263458155344 -15024.330775245624,3026.480966148091 -16228.9589635146,2366.566039164509 -17411.00283402038,1588.3394319544232 -18557.576061838543,692.0047986970726 -19655.480266070626,-320.8024501212552 -20691.351917709097,-1446.9412859420772 -21651.82126041467,-2681.7050393665527 -22523.682075677698,-4018.7768917984677 -23294.070910794464,-5450.202476180072 -23950.654177969765,-6966.381075527414 -24481.82132847025,-8556.07677638056 -24876.88211002745,-10206.450776998676 -25126.26573163524,-11903.11586738687 -25221.719590581255,-13630.213890606374 -25156.505065084253,-15370.516763213018 -24925.587745363955,-17105.551378362416 -24525.819369366705,-18815.748439758998 -23956.108649643113,-20480.614980225586 -23217.578127814384,-22078.930007618485 -22313.704175279523,-23588.96239586265 -21250.43727569175,-24988.70980314537 -20036.299778381483,-26256.157056240878 -18682.458404117293,-27369.55209331587 -17202.768916814694,-28307.697211463303 -15613.790548059855,-29050.253023971716 -13934.767976202198,-29578.052200524933 -12187.578918404102,-29873.41974590654 -10396.645692021515,-29920.496274257133 -8588.809440085715,-29705.56046148783 -6793.166092964563,-29217.34661312297 -5040.8635524122565,-28447.353073630424 -3364.8600324834947,-27390.137031107162 -1799.6439709028698,-26043.591142781417 -380.9164305485458,-24409.19732670144 854.7625607601739,-22492.253037431215 1870.3617380572127,-20302.065372434103 2628.7978428031934,-17852.108444510417 3093.383267124957,-15160.139607074192 3228.2984213176965,-12248.270335515948 2999.0845929878255,-9142.987851077129 2373.152527510941,-5875.123924496537 1320.301444026709,-2479.767715347996 -186.75728303829663,1003.8800111926366 -2171.8779918231376,4532.713396979902 -4654.966762553466,8059.99022517886 -7651.482562783308,11535.663694126888 -11171.960740562725,14906.777319052855 -15221.566304562162,18117.922270296378 -19799.68455833275,21111.75563341318 -24899.556698491717,23829.577216994276 -30507.96793743239,26211.96164642481 -36604.99556463404,28199.44157532884 -43163.824112094495,29733.23693110262 -50150.634435083186,30756.0241975201 -57524.57305664027,31212.738837395944 -65237.807551526595,31051.403083808258 -73235.67306241347,30223.970491999804 -81456.9142491117,28687.17785875128 -89834.02607312772,26403.394394944422 -98293.69581882865,23341.457393474684 -106757.34765462097,19477.483081831768 -115141.78984990882,14795.64089950251 -123359.963495048,9288.87910738042 -131321.79023232465,2959.589431528042 -138935.11510815073,-4179.801621945923 -146106.73921363195,-12106.327060318154 -152743.53530733456,-20786.071343239746 -158753.63812677556,-30173.871596401128 -164047.69961145637,-40213.13914887046 -168540.1977988287,-50835.8116866885 -172150.78673512116,-61962.44538019616 -174805.67338593208,-73502.455228443 -176439.0062579586,-85354.51057273905 -176994.2592746306,-97407.09126717015 -176425.593406333,-109539.2083633389 -174699.17766172942,-121621.29137884908 -171794.45032151652,-133516.24228584758 -167705.30076006826,-145080.65429158212 -162441.15187320375,-156166.1913043116 -156027.92302980187,-166621.1217044788 -148508.85360761976,-176291.99769476143 -139945.1675739482,-185025.46910774693 -130416.56024194685,-192670.21813308264 -120021.48928340203,-199078.99901563776 -108877.25331509994,-204110.7644028791 -97119.84290292014,-207632.85771532555 -84903.55064546288,-209523.24871190073 -72400.32910451516,-209672.78735649242 -59798.88773592833,-207987.44919787245 -47303.522630694264,-204390.5437874005 -35132.675787190914,-198824.85621244917 -23517.223782577974,-191254.69065237255 -12698.499070816459,-181667.78400113416 -2926.050679200049,-170077.05707781168 5544.845227092663,-156522.17079232662 12455.910627813058,-141070.85487558338 17548.808600225704,-123819.97744422537 20568.281836199745,-104896.32477025822 21265.46070274748,-84457.06218060214 19401.310970517796,-62689.84903232294 14750.187593744997,-39812.58320190654 7103.4573517057,-16072.753492104708 -3726.850188475668,8253.618207651822 -17904.40699818745,32863.45928291786 -35565.01254692762,57428.56322718878 -56813.13007940579,81597.94615534823 -81718.58378580592,105000.64308448369 -110313.46882985164,127248.9386024139 -142589.32703496865,147942.02077848613 -178494.6412637655,166670.0411578842 -217932.70111694033,183018.5574779459 -260759.8914867836,196573.32941750085 -306784.45369532524,206925.43130814802 -355765.76640267606,213676.63937557835 -407414.1901693182,216445.0448200216 -461391.5154873456,214870.83797231747 -517312.0492592266,208622.20296403725 -574744.3691073188,197401.256917026 -633213.7685618593,180949.96268170854 -692205.4091287397,159055.93972703148 -751168.1875211684,131558.0939998879 -809519.3180022832,98351.98451829122 -866649.6208912161,59394.84222744577 -921929.4989063354,14710.155313815625 -974715.5732405704,-35608.26518376027 -1024357.9411797988,-91392.82493495772 -1070208.0067912838,-152399.37471850042 -1111626.8258395377,-218305.2083671532 -1147993.8957550735,-288707.90679681976 -1178716.3113184792,-363125.0992631844 -1203238.196865596,-440995.20634675596 -1221050.316412667,-521679.22127738956 -1231699.7542902965,-604463.5770869855 -1234799.5508113112,-688564.1367551523 -1230038.1703306811,-773131.3320347661 -1217188.6729346083,-857256.4640786591 -1196117.456067088,-939979.165418024 -1166792.4288066372,-1020296.0083693657 -1129290.4793777235,-1097170.2296894449 -1083804.0959454288,-1169542.5253940404 -1030647.0019112099,-1236342.8532609304 -970258.6699021396,-1296503.1638214274 -903207.5835096124,-1348970.963794568 -830193.1226520377,-1392723.5991341847 -752045.9572558427,-1426783.1283549129 -669726.8447944367,-1450231.6408028426 -584323.7400962927,-1462226.859272587 -497047.14070670505,-1462017.8520843985 -409223.60791213595,-1448960.6666657946 -322287.42223261803,-1422533.685075911 -237770.35264940257,-1382352.4920101033 -157289.54092556043,-1328184.037864582 -82533.52593079362,-1259959.8736549662 -15246.457703379603,-1177788.2311863147 42789.42315194976,-1081964.7210676314 89772.93847312396,-972981.4231345578 123904.62852764023,-851534.1487514458 143408.7541656676,-718527.6624439886 146556.46106171302,-575078.661472088 131689.8951643231,-422516.3263647397 97247.03249826402,-262380.2731416967 41786.96169474637,-96415.75894202846 -35984.665548393474,73433.9829741693 -137190.32205802322,245038.3754711618 -262755.7556063151,416093.1631985077 -413385.94295389904,584137.1445211921 -589542.2011581166,746571.9666174613 -791420.8191000858,900684.9423178808 -1018933.5776045297,1043674.8068822743 -1271690.5277276295,1172680.290847372 -1548985.393473148,1284811.3417375432 -1849783.9571043602,1377182.7832674233 -2172715.7721297247,1446950.156172952 -2516069.530782009,1491347.4405178293 -2877792.3892645435,1507726.3158000268 -3255493.525143275,1493596.5730207097 -3646452.1670208937,1446667.2526914119 -4047630.2971066944,1364888.0451764835 -4455690.182631748,1246490.455439169 -4867016.842464473,1090028.2038257935 -5277745.5010433765,894416.3086226992 -5683794.023225408,658968.2753810365 -6080900.261292482,383430.803028223 -6464664.179681163,68015.40814527599 -6830594.554600036,-286573.6329834691 -7174159.975240365,-679115.6193639273 -7490843.801510166,-1107854.6187946615 -7776202.660932463,-1570486.0798663273 -8025927.995411208,-2064149.392564744 -8235910.09790193,-2585426.8891072627 -8402304.01059165,-3130349.7294727457 -8521596.590996185,-3694411.06022836 -8590673.991450349,-4272586.770824761 -8606888.741840554,-4859364.098752034 -8568125.576158056,-5448778.254168443 -8472865.101573853,-6034457.14630212 -8320244.375267421,-6609674.198675628 -8110113.43016239,-7167409.138735899 -7843086.7769610705,-7700416.540633276 -7520588.907287664,-8201301.788651952 -7144892.832129292,-8662604.014239695 -6719150.711788803,-9076885.442920899 -6247415.668805842,-9436826.469912427 -5734653.924211234,-9735325.66640605 -5186746.460359628,-9965603.803726804 -4610479.490592548,-10121310.871494567 -4013523.1071027503,-10196634.960131256 -3404397.583418589,-10186411.779241202 -2792426.926523302,-10086233.493243214 -2187679.405207355,-9892555.475851817 -1600894.925050122,-9602799.517277295 -1043399.2754727706,-9215451.963992001 -527005.4394202398,-8730155.23218226 -63902.33003769607,-8147791.114077687 333468.50037433545,-7470554.292620354 652547.4475859639,-6702014.495672579 880801.8176714795,-5847165.757268002 1005880.0521985708,-4912461.311216665 1015773.9144894291,-3905832.722398705 898987.1487159188,-2836691.9638172714 644708.9432658072,-1715915.2731714281 242990.35816803068,-555807.7713295039 -315078.2838920687,629952.0036827388 -1037191.1895446507,1826388.3003299031 -1929654.3454658017,3017325.5336975674 -2997218.6131783477,4185507.046833737 -4242921.140442577,5312735.205680647 -5667937.624051181,6380032.511317216 -7271447.993780615,7367823.1305111805 -9050518.09256605,8256133.951372874 -10999999.901607921,9024813.968099596 -13112452.799295247,9653770.490593115 -15378088.248038938,10123220.364592187 -17784740.172197424,10413954.079620443 -20317863.122444037,10507610.339459026 -22960560.116794672,10386958.377165772 -25693641.806133825,10036185.018180337 -28495718.332973797,9441183.235196406 -31343324.937360745,8589838.701723699 -34211082.01483396,7472310.642100091 -37071889.95019986,6081303.0985961845 -39897158.64019025,4412322.595530639 -42657071.1809628,2463918.0801726957 -45320880.73654843,237898.9646133909 -47857239.12593806,-2260472.914588419 -50234555.17425396,-5022321.558011031 -52421380.37255656,-8035029.326639416 -54386818.88695309,-11282147.61173634 -56100958.45686245,-14743349.322036352 -57535318.23100153,-18394426.58476204 -58663309.114619724,-22207336.72212341 -59460701.74974115,-26150299.169614673 -59906096.828843564,-30187945.547432497 -59981392.0587945,-34281524.58337288 -59672239.753272526,-38389163.01711244 -58968488.745568484,-42466182.9952205 -57864604.08662228,-46465475.79777098 -56360057.832229555,-50337931.02618479 -54459684.13496891,-54032919.633879684 -52173991.84650284,-57498828.40328992 -49519427.90989232,-60683642.672519445 -46518584.98412234,-63535573.30076435 -43200346.99807813,-66003723.04289316 -39599966.68175668,-68038786.69007124 -35759069.57059389,-69593778.5355516 -31725579.525376443,-70624779.95368268 -27553561.455096472,-71091699.14719386 -23302977.671868086,-70959034.43460523 -19039355.142888103,-70196631.82794271 -14833361.830335366,-68780427.10276338 -10760291.320534928,-66693162.0994574 -6899456.031793835,-63925064.62845266 -3333490.4476754563,-60474481.09323066 -147567.0393953949,-56348450.80452659 2571471.19368759,-51563210.94624022 4736056.3353195265,-46144621.27731239 6258912.761878986,-40128497.92155355 7054138.0663035195,-33560846.01564302 7038338.4910547165,-26497981.55894287 6131808.369271871,-19006533.540816985 4259741.821611151,-11163318.313231105 1353463.7669530564,-3055079.2281366624 -2648333.802816267,5221914.231736527 -7798365.341212317,13562412.238268822 -14139551.003619736,21852878.22110575 -21703858.33548187,29972331.54519172 -30511203.67710528,37793338.74835516 -40568430.98588527,45183150.94159508 -51868386.00027071,52004982.99524071 -64389103.68542063,58119428.07667715 -78093126.69393748,63385998.98993403 -92926972.13420366,67664785.61683649 -108820763.25326163,70818215.59775178 -125688041.70324329,72712903.24362405 -143425774.8645823,73221569.56747067 -161914571.24352404,72225014.29207648 -181019115.2461806,69614118.76114862 -200588830.6608228,65291856.88471606 -220458779.96139166,59175289.61715873 -240450804.08959204,51197517.02936867 -260374904.6948242,41309560.82602774 -280030867.9293152,29482149.205165863 -299210125.83203405,15707375.28899121 -317697848.11551696,200.0000003890679" stroke="white" stroke-width="1.5" /></svg>