<?xml version="1.0" encoding="utf-8" ?>
<svg baseProfile="full" height="400" version="1.1" width="400" xmlns="http://www.w3.org/2000/svg" xmlns:ev="http://www.w3.org/2001/xml-events" xmlns:xlink="http://www.w3.org/1999/xlink"><defs /><rect fill="black" height="100%" width="100%" x="0" y="0" /><circle cx="200" cy="200" fill="yellow" r="10.000063781635497" stroke="orange" stroke-width="2" /><polyline fill="none" points="199.88202885046192,200.0 199.79873065513337,199.98943427880928 199.71166550027414,199.969643857241 199.62164141731697,199.93997217502036 199.52955661550047,199.899832237375 199.43639432284485,199.84871826740633 199.34321622311978,199.78621711832278 199.25115447638885,199.7120192871439 199.16140232750416,199.62592936582243 199.07520332478205,199.5278757617312 198.99383918986987,199.41791951728396 198.91861639933785,199.29626205825238 198.8508515586111,199.16325170224144 198.79185566927808,199.01938876290805 198.7429174113444,198.8653290919523 198.70528558239735,198.70188590975116 198.6801508556406,198.53002978679154 198.668627038079,198.35088665181783 198.67173202849204,198.16573371883092 198.69036869193854,197.97599324372644 198.72530588308868,197.7832240423677 198.77715986438528,197.58911072515355 198.84637637659947,197.39545062852065 198.933213628478,197.20413845114297 199.03772647860774,197.01714863164716 199.15975208608185,196.83651553520517 199.29889730680298,196.66431154811568 199.454528109082,196.5026232121291 199.62576127539668,196.35352556346 199.81145864660698,196.21905487479086 200.0102241504566,196.10118003169723 200.22040383774976,196.00177280738973 200.4400891271344,195.92257733102406 200.66712343296246,195.86517907461237 200.89911232029482,195.8309737113017 201.1334372968866,195.82113622298638 201.36727331409713,195.83659065740534 201.59761000734483,195.8779809535696 201.8212766622552,195.94564326909605 202.0349708453699,196.03958025335035 202.2352905886011,196.15943771579285 202.41876996497922,196.30448413919265 202.58191784017237,196.47359348206572 202.72125953030826,196.6652317035013 202.83338104242532,196.8774474262091 202.91497552006825,197.1078671299533 202.96289146382583,197.35369523740647 202.97418224571126,197.61171941780313 202.94615638796438,197.87832139061234 202.87642803188314,198.1494934618874 202.76296698145475,198.4208609701733 202.6041476706361,198.68771075713832 202.3987963729094,198.94502571081316 202.14623594796512,199.18752535693608 201.8463274037725,199.409712396971 201.49950754357118,199.6059250105431 201.10682196709539,199.77039465606614 200.66995270419395,199.89730901705096 200.19123977743365,199.9808796539054 199.67369601868347,200.015413832958 199.12101450338517,199.99538991703068 198.53756801543415,199.91553561628186 197.92840001541,199.7709083154266 197.29920665527956,199.55697661504087 196.65630946347417,199.26970215173372 196.0066184151117,198.90562069579417 195.35758520263667,198.46192146676606 194.71714663168385,197.93652355853584 194.09365818477318,197.32814832716107 193.49581792060772,196.6363865680072 192.9325810082039,195.86175929490855 192.4130653316241,195.0057709340574 191.94644874134485,194.07095376008044 191.54185867078644,193.06090243208914 191.20825497962545,191.98029753405518 190.9543070274732,190.83491708717315 190.78826612048758,189.63163508226341 190.71783460756353,188.37840617788126 190.75003302992448,187.08423582457667 190.89106684616638,185.75913520740755 191.14619436201926,184.414060546849 191.51959758821664,183.06083646190896 192.01425782885198,181.71206327757437 192.6318378644583,180.38100835042795 193.37257263685598,179.08148168991198 194.23517036476298,177.82769636653197 195.21672601858572,176.63411442031554 196.31264905820197,175.51527921085545 197.51660728760848,174.4856353818349 198.8204886039597,173.55933784541702 200.21438231495,172.7500514224463 201.6865815671573,172.0707430000593 203.2236082686421,171.53346828590435 204.8102617018944,171.14915544446944 206.4296918085996,170.92738809270168 208.06349788648853,170.87619030579611 209.69185317196633,171.00181643638015 211.29365549189893,171.30854867798791 212.84670385588947,171.79850540347442 214.32790052903687,172.4714633777432 215.71347777735372,173.32469697892606 216.9792481169636,174.35283756024893 218.10087652749604,175.54775604381214 219.05417271372178,176.89847175529883 219.81540112172104,178.39109038346044 220.36160604136185,180.0087737788006 220.67094876045752,181.7317440913216 220.72305338277798,183.53732448716715 220.49935758738118,185.4000183786721 219.9834642959175,187.29162875248355 219.16148993310122,189.18141878741852 218.02240471891366,191.03631451956332 216.55836022469865,192.8211498394535 214.76499926439305,194.4989535982909 212.6417430817605,196.03127806102148 210.19205073940765,197.37856737832806 207.42364561996757,198.50056416243424 204.34870401805458,199.35675164894846 200.98400093685618,199.9068283152529 197.35100840833098,200.1112112121677 193.47594193305366,199.93156365729013 189.38975098616368,199.3313423434598 185.12804996018556,198.27635834252303 180.7309864133663,196.73534594155362 176.24304406235234,194.68053274470822 171.7127785982549,192.0882040178407 167.19248511215477,188.93925385375135 162.73779668554937,185.2197154022744 158.4072145277682,180.92126214985717 154.26157091949702,176.0416720560435 150.36342714175618,170.58524626706276 146.77640952439637,164.56317413666088 143.56448772784648,157.99383639776693 140.79120036595637,150.9030385510951 138.51883407492295,143.32416687286923 136.80756312126704,135.29825989695394 135.71455760773705,126.87398879897681 135.29306926636272,118.10754080239909 135.5915047087059,109.0624005383639 136.6524968203866,99.80902522042344 138.51198572576112,90.42441053821643 141.19832139476625,80.99154532549129 144.73140050317434,71.59875431045583 149.12185057595883,62.33892960150348 154.37027472785502,53.30865298836392 160.46657045300117,44.60721263539776 167.3893358952235,36.33551929613151 175.10537684174966,28.594928770652018 183.56932731696915,21.48597894299317 192.72339610197326,15.107051355630347 202.49725076448624,9.552968882759188 212.80804984892214,4.91354263220407 223.56063274632535,1.2720827156234975 234.64787543985145,-1.296111044542755 245.95121880671513,-2.7252610784015587 257.3413744582273,-2.9606081123965566 268.67921122444585,-1.959871658054908 279.8168233506439,0.305345561210288 290.5987792835984,3.848230426761262 300.8635476038421,8.665531122615477 310.4450942254893,14.736449569864163 319.17464246077725,22.02167641315782 326.8825849574595,30.46259006087203 333.40053389151035,39.98064067809281 338.56349316546687,50.4769391286934 342.21213375647017,61.83206965060671 344.1951508118007,73.90614352131021 344.3716786391549,86.53910912644221 342.61373742095964,99.5513316850228 338.8086833343934,112.74445341577638 332.8616318195974,125.90254216044855 324.6978220459114,138.7935334262033 314.2648892174051,151.17096748904618 301.53501027107507,162.77601963720065 286.5068877888266,173.3398178555404 269.2075366006951,182.58603829214516 249.69383763199406,190.23376474286496 228.05382406830742,196.0005941807932 204.4076659028836,199.60596609016594 178.90832041011237,200.77468908760503 151.7418180707594,199.2406340803694 123.12715596842457,194.75055907696475 93.31577368562395,187.06802678811138 62.59059024898434,175.9773723956949 31.264584696804178,161.28767538522231 -0.3210926477221392,142.83668619543377 -31.7994861415267,120.4946556989465 -62.78068056418692,94.16801325114295 -92.85512337897131,63.80283729029418 -121.59741410742231,29.38806129694683 -148.5705449718505,-9.041642621690414 -173.33057028526878,-51.40336011717099 -195.4316752264997,-97.56386768462522 -214.43160770354712,-147.33805754787056 -229.89743006068755,-200.48790702255172 -241.4115405098309,-256.7220417944535 -248.57790745482976,-315.69593847762235 -251.0284534230234,-377.0128069074682 -248.4295192189423,-440.22518688263904 -240.48833327041427,-504.83728751187493 -226.9594060479639,-570.3080899751385 -207.6507650049304,-636.0552264106841 -182.42994180719342,-701.459638841795 -151.22962079412355,-765.8710126211945 -114.052855728554,-828.6139688724509 -70.9777610398645,-888.994989932495 -22.161584020185643,-946.3100409463075 32.15593412945452,-999.8528396434588 91.64999782739662,-1048.923715056968 155.90908266765643,-1092.8389846581224 224.43422715811965,-1130.9407682158 296.63936414258717,-1162.607145792447 371.8527573968206,-1187.2625568147332 449.31959952557554,-1204.3883272637074 528.2058165990968,-1213.5332028789392 607.6031129978335,-1214.323758027221 686.5352767464373,-1206.4745427123303 763.965751294661,-1189.7978242588194 838.806464346057,-1164.212775646404 909.9278880668895,-1129.753959451682 976.1702879689232,-1086.5789550111763 1036.3561001110747,-1034.9749768831716 1089.3033581850107,-975.364335070625 1133.8400737346446,-908.3085918726183 1168.819454421302,-834.5112767379871 1193.1358271116035,-754.8190291616213 1205.7411148731046,-670.2210505283833 1205.661699963187,-581.846758883784 1192.0154888475072,-490.96155587967564 1164.0289804486415,-398.9606325645789 1121.0541254695145,-307.3607601890213 1062.5847530246958,-217.79003367332626 988.2723312072781,-131.97555870377562 897.9408208734775,-51.72909841621396 791.6003770841171,21.069277904752937 669.4596505296553,84.4894739681823 531.9364420925133,136.57147461926468 379.6664676537332,175.34715474836818 213.50999749069908,198.8636309673893 34.556145268818966,205.20796825969774 -155.8754042012389,192.53302435558632 -356.2354215284354,159.08418585995076 -564.749085385536,103.22672256920086 -779.4230080935766,23.473460379280027 -998.0554526172757,-81.48755086579388 -1218.249827676379,-212.7657198732992 -1437.4315127062075,-371.241310829874 -1652.8680264431496,-557.5399343615682 -1861.6925122397538,-772.0085239697685 -2060.9304701536935,-1014.6931971516874 -2247.529620780854,-1285.319403733605 -2418.3927391407765,-1583.2747624800695 -2570.4132491475316,-1907.5949804911784 -2700.5133208292295,-2256.953238002574 -2805.6841640585135,-2629.653403750554 -2883.0281647228735,-3023.627422901177 -2929.8024626315437,-3436.4371905740745 -2943.4635256855804,-3865.281189190484 -2921.712232610623,-4307.006127282465 -2862.538937564004,-4758.123771134152 -2764.2679548811698,-5214.833108881702 -2625.6008718203757,-5673.047929752758 -2445.6580720888787,-6128.429839339305 -2224.017833857235,-6576.426665614323 -1960.7523535295827,-7012.316140350718 -1656.4600413365729,-7431.254667294305 -1312.2934374037454,-7828.330912573945 -929.9821078098037,-8198.623875174346 -511.84989970714673,-8537.265016696925 -60.825963168981275,-8839.503951005372 419.551014696502,-9100.77711667225 925.1358705136498,-9316.77877944137 1451.1877706487487,-9483.533639270754 1992.3891466265325,-9597.470248032078 2542.8730687113894,-9655.494380745964 3096.259282111515,-9655.061446466803 3645.699037526098,-9594.246975735017 4183.928747168341,-9471.814181008127 4703.332389683714,-9287.277555747198 5196.012473409825,-9040.96145791472 5653.869248186559,-8734.052615500232 6068.687732555631,-8368.645496225092 6432.231996945285,-7947.779501579539 6736.346015695375,-7475.466977490218 6973.060273030541,-6956.711080753787 7134.703181923248,-6397.512602303328 7214.016251878656,-5804.864925638236 7204.2718237676545,-5186.736391412433 7099.3920787351735,-4552.039447118973 6894.0679257538895,-3910.586083709226 6583.876280435863,-3273.029198320182 6165.3941680993385,-2650.7896733056473 5636.308018635314,-2055.9691255202 4995.516471189998,-1501.2484551009363 4243.224974757284,-999.77250842472 3381.0304580368465,-565.021363860201 2411.9943498018497,-210.66894954147375 1340.7022608178952,49.57009238535912 173.30869115950892,202.10417299360958 -1082.4347965342326,233.63782568871545 -2417.169396091812,131.3525426934071 -3819.9382012035694,-116.90635515482188 -5278.215854080239,-522.4387407029886 -6777.959704289764,-1095.4967005047122 -8303.683282410782,-1845.0918242888597 -9838.552669441977,-2778.8051845650607 -11364.506096998299,-3902.6025558914516 -12862.396846779291,-5220.657529082374 -14312.159232546916,-6735.185255443608 -15692.997146190877,-8446.289607255903 -16983.594334050944,-10351.826560633444 -18162.34524350262,-12447.28659321797 -19207.604946236883,-14725.698839856703 -20097.956307327888,-17177.559662677348 -20812.492232031313,-19790.788166391183 -21331.110489494276,-22550.711024183736 -21634.818288620645,-25440.07877358016 -21706.0434708461,-28439.11549505111 -21528.948892293654,-31525.603499196084 -21089.746298562928,-34675.004321978384 -20377.005754147853,-37860.61696310944 -19381.95648004931,-41053.773902271685 -18098.774782346423,-44224.07499400293 -16524.854625957047,-47339.65887789623 -14661.05632598201,-50367.511050040106 -12511.928798037537,-53273.80722866306 -10085.900832626618,-56024.29011665004 -7395.4369402455,-58584.67712139464 -4457.153456437873,-60921.09604429353 -1291.8908016998264,-63000.545204502894 2075.2619383262804,-64791.37392119509 5614.993610569363,-66263.77875269762 9293.851865956156,-67390.3103870865 13074.380932463677,-68146.38560476465 16915.31838582006,-68510.7982972062 20771.85242026769,-68466.22313531082 24595.94046975253,-67999.70514363296 28336.689323598832,-67103.12816088737 31940.79612532502,-65773.65496013919 35353.04884486533,-64014.1316711513 38516.883980131075,-61833.44909919473 41374.9983815514,-59246.85357538726 43870.01121183077,-56276.200108755926 45945.17116232985,-52950.14084435444 47545.103157672456,-49304.242168633544 48616.58790254368,-45381.02424555156 49109.36677089906,-41229.917316174135 48976.963720179425,-36907.12975108813 48177.51514421139,-32475.423607863177 46674.59787109036,-28003.794312660622 44438.044879420384,-23567.052052100807 41444.73776068226,-19245.303523331302 37679.36450984838,-15123.333840029083 33135.130892904424,-11289.889621412296 27814.413430336343,-7836.865590265125 21729.3419607948,-4858.398362994892 14902.299819011827,-2449.872516848764 7366.329885461233,-706.8454522135872 -834.5648503098173,276.10098439036767 -9645.237019253613,406.57270541428136 -18999.336979013362,-404.37142108666 -28819.39048372785,-2240.913605916553 -39017.02003337984,-5181.143953786344 -49493.31677485513,-9295.714855641812 -60139.3684143272,-14646.498901669107 -70836.94702550431,-21285.267283573558 -81459.35890938334,-29252.406537532643 -91872.45678965826,-38575.69219911949 -101935.81262755314,-49269.138478611574 -111504.04722684853,-61331.943400518045 -120428.31059299548,-74747.54896720222 -128557.90473061638,-89482.83578700168 -135742.0382348735,-105487.47123797328 -141831.6996798288,-122693.4296071871 -146681.6344586831,-141014.70174265554 -150152.40741618504,-160347.2105735681 -152112.53136358008,-180568.9473905462 -152440.63941353463,-201540.3420304169 -151027.67704981822,-223104.8780823037 -147779.08798804358,-245089.9619300892 -142616.9662235452,-267308.05188081623 -135482.1452344894,-289558.05081353703 -126336.19414583393,-311626.96273694054 -115163.28979507365,-333291.8103890681 -101971.93310449124,-354321.807575148 -86796.47798556623,-374480.7763505745 -69698.44120543615,-393529.79544984194 -50767.56225595524,-411230.0625770287 -30122.583302611823,-427345.94935104577 -7911.720768970022,-441648.22388440475 15687.197956418782,-453917.41221564024 40466.95681321557,-463947.26616329956 66191.55363450902,-471548.30167615775 92597.20094971337,-476551.3684740756 119393.73923962776,-478811.20876181783 146266.47267887462,-478209.9601096471 172878.43281690864,-474660.555284637 198873.07068991757,-468109.9699395877 223877.3725588176,-458542.2676745122 247505.3888764012,-445981.39112864755 269362.16024934367,-430493.64748537017 289048.01813442615,-412189.8371206585 306163.23185526766,-391226.97513521934 320312.96731414954,-367809.55721286905 331112.51657653856,-342190.32366851316 338192.7514017015,-314670.47870593844 341205.74786350556,-285599.3258088926 339830.52353668376,-255373.284839771 333778.8234033323,-224434.26181105187 322800.88575182954,-193267.3484078264 306691.11498577637,-162397.83514775784 285293.5845234249,-132387.52952934892 258507.2899363125,-103830.37859168589 226291.0702343781,-77347.40392911418 188668.11383450023,-53580.966302046945 145729.96532558222,-33188.38647914037 97639.94973469533,-16834.95874482157 44635.93266595761,-5186.403508126015 -12967.662521853963,1099.1844567965875 -74778.65537078734,1379.8255407093188 -140326.79652518017,-4961.4939113874125 -209064.40682027262,-18507.69568867495 -280368.023012709,-39798.304016884584 -353541.0971195456,-69320.06404033917 -427817.7863713925,-107497.59636376379 -502367.8596968659,-154684.20658684275 -576302.7345019957,-211152.9748104578 -648682.6443695066,-277088.2549899326 -718524.9242764391,-352577.71761950874 -784813.3851295024,-437605.0714227106 -846508.7339779416,-532043.6003726247 -902559.9803332019,-635650.6513636721 -951916.7527681388,-748063.2051035359 -993542.43356658,-868794.6582078345 -1026428.0028409527,-997232.9379950785 -1049606.467438224,-1132640.0630489914 -1062167.7343297845,-1274153.2522139032 -1063273.7732553256,-1420787.6723141137 -1052173.899396717,-1571440.9005617003 -1028219.9940317416,-1724899.161386624 -990881.4696971583,-1879845.3793625901 -939759.7766122699,-2034869.0701142803 -874602.2392093278,-2188478.069706408 -795315.0058097834,-2339112.0801919256 -701974.8909882597,-2485157.9849232864 -594839.8891772655,-2624966.862122366 -474358.13976557966,-2756872.599304854 -341175.1284907919,-2879211.984732883 -196138.91745572913,-2990346.1254187245 -40303.20671562318,-3088683.014639105 125071.95583745844,-3172701.0457805744 298521.9825838312,-3240973.243974412 478382.21838118526,-3292191.962762932 662795.1996088454,-3325193.7703456557 849720.7963449974,-3338984.2291675876 1036949.3045506368,-3332762.2541196886 1222117.5229124534,-3305943.7188068256 1402727.8141854904,-3258183.9665775285 1576170.113735715,-3189398.873665565 1739746.8088182777,-3099784.106211205 1890700.3712910507,-2989832.211431489 2026243.584350937,-2860347.186085677 2143592.1609308827,-2712456.1728919195 2239999.5080869426,-2547617.9479111047 2312793.348551462,-2367627.879294322 2359413.868177984,-2174619.0603121095 2377453.016831138,-1971059.3473106504 2364694.550977849,-1759744.0661757407 2319154.3694296386,-1543784.188969284 2239120.659994223,-1326589.8255062182 2123193.344845396,-1111848.9225618206 1970322.2868370214,-903501.1158673645 1779843.6983803972,-705706.7367175982 1551514.179463664,-522811.0354527607 1285541.8024776059,-359303.7477918037 982613.6592452055,-219774.196408929 643919.290505837,-108862.18861705932 271169.43049608124,-31205.040835632513 -133390.48045253725,8618.869102788109 -566972.5339351087,6149.550649260002 -1026244.8239516038,-42892.68985749994 -1507336.5864204278,-142543.48561436145 -2005850.3905853818,-296529.4625049257 -2516881.703092761,-508202.83937405585 -3035046.0752855227,-780476.3604296559 -3554514.126211336,-1115759.3932775157 -4069054.408417816,-1515896.0674782435 -4572084.151380366,-1982106.361788201 -5056727.779067599,-2514931.072451973 -5515882.994509837,-3114181.6091437703 -5942294.1162324,-3778895.5685642078 -6328632.24009888,-4507299.027520256 -6667581.686642514,-5296776.476875214 -6951932.079614295,-6143849.284485508 -7174675.287608241,-7044163.528697121 -7329106.348685056,-7992487.983845759 -7408927.389428089,-8982722.965330271 -7408353.446410647,-10007920.654207224 -7322219.001254511,-11060317.420053871 -7146083.951967599,-12131378.546418723 -6876337.664719117,-13211855.636058554 -6510299.683290619,-14291856.834082652 -6046315.619736982,-15360929.857016666 -5483846.71086032,-16408157.65578653 -4823551.502411663,-17422266.372040577 -4067358.117864048,-18391745.07159384 -3218525.5823857044,-19304976.557804894 -2281692.7063777414,-20150378.383280743 -1262913.0875420012,-20916552.99250877 -169674.86663026887,-21592445.743058097 989096.0297063597,-22167509.371230263 2203050.3049426787,-22631873.291952357 3460448.3706134353,-22976515.95485591 4748212.924197694,-23193438.321521703 6052001.67852586,-23275836.38546928 7356300.687217596,-23218270.52932689 8644538.484195651,-23016829.405398984 9899221.010978,-22669285.939176552 11102087.045068309,-22175242.992720142 12234283.568510002,-21536266.18868808 13276560.23002337,-20756001.38829811 14209481.759899436,-19840274.339716353 15013656.897061922,-18797170.06902685 15669982.085792799,-17637089.675536346 16159897.899153503,-16372782.317860568 16465655.850964045,-15019350.337830076 16570592.972348524,-13594225.66614604 16459411.256499317,-12117115.886890525 16118458.820746219,-10609918.606990524 15536009.402598206,-9096603.080587657 14702536.600529872,-7603058.37554696 13610979.095249917,-6156907.738081077 12256992.947257672,-4787289.209194507 10639186.965762215,-3524602.9703611275 8759337.086378552,-2400226.3420027415 6622575.68403577,-1446197.8228940016 4237551.78649146,-694872.0370308225 1616558.2456068029,-178547.9417429432 -1224377.929508178,70926.85856324031 -4265445.669350011,22572.360555700914 -7483043.700382567,-353290.8397877566 -10849821.169049313,-1084596.0746976116 -14334767.661280304,-2197077.375648293 -17903354.80687303,-3713813.618521221 -21517731.163058825,-5654775.550187303 -25136971.52226703,-8036381.537212434 -28717381.188763678,-10871068.160484027 -32212855.121525124,-14166882.005443376 -35575291.1513134,-17927099.15964625 -38755055.75420881,-22149879.021271404 -41701500.10841631,-26827959.038108625 -44363523.38342151,-31948396.93121424 -46690179.418674216,-37492366.8061598 -48631322.15187174,-43435015.313792095 -50138284.364133395,-49745383.68861965 -51164583.53106514,-56386401.06429781 -51666647.81556769,-63314953.9411826 -51604554.52128723,-70482036.06066221 -50942772.65619503,-77832982.22626422 -49650900.645413294,-85307788.80493005 -47704389.69264577,-92841522.74725094 -45085242.83184011,-100364819.98807333 -41782679.34621942,-107804473.03535348 -37793753.97133477,-115084106.43345973 -33123920.15252343,-122124937.6066839 -27787526.604572143,-128846619.36026981 -21808236.531057794,-135168159.05189565 -15219359.110244721,-141008908.15953013 -8064083.249833512,-146289614.6764708 -395604.15912788967,-150933529.47669542 7722866.012372167,-154867556.52995962 16218211.364721548,-158023435.62365207 25007656.1486114,-160338945.08529848 33999145.09558961,-161759110.9141577 43091864.58087343,-162237407.7413528 52176907.565054774,-161736936.1641434 61138083.669564076,-160231560.25988963 69852874.02591856,-157706988.49712145 78193528.71353005,-154161780.84243098 86028302.68054847,-149608264.6291889 93222824.04436813,-144073341.72270676 99641586.6126963,-137599169.7003088 105149556.37416132,-130243700.17594698 109613879.60295165,-122081058.04765336 112905678.13020158,-113201746.34001368 114901915.28275535,-103712662.45842642 115487314.0055896,-93736913.06953683 114556306.79694872,-83413416.47268453 112014995.32494521,-72896283.22666526 107783095.99159901,-62353967.93783744 101795846.29529114,-51968187.48897805 94005845.64585088,-41932603.57952445 84384803.33715257,-32451270.23904807 72925165.70892029,-23736849.945904437 59641594.15890396,-16008605.10679811 44572265.62399021,-9490174.902135944 27779967.456193153,-4407150.844298431 9352959.296947112,-984467.7961830241 -10594424.383496253,556369.3830246138 -31921455.95227019,200.00000003909275" stroke="white" stroke-width="1.5" /><circle cx="191.49830218033995" cy="249.27191019417847" fill="red" opacity="0.7" r="13.414709848078965" /></svg>