<?xml version="1.0" encoding="utf-8" ?>
<svg baseProfile="full" height="400" version="1.1" width="400" xmlns="http://www.w3.org/2000/svg" xmlns:ev="http://www.w3.org/2001/xml-events" xmlns:xlink="http://www.w3.org/1999/xlink"><defs /><rect fill="black" height="100%" width="100%" x="0" y="0" /><circle cx="200" cy="200" fill="yellow" r="10.000103200854822" stroke="orange" stroke-width="2" /><polyline fill="none" points="199.83761174648942,200.0 199.7632189227971,199.98757007508215 199.68583687813467,199.9669245942264 199.60619669077653,199.93752181870744 199.52510546205738,199.89888448872725 199.44344133341946,199.85060980968942 199.3621472848366,199.79237917206024 199.2822237101103,199.72396746576405 199.20471977944428,199.64525184577874 199.13072361548825,199.5562198028167 199.06135132555417,199.45697639182393 198.99773494979672,199.34775047163305 198.9410094026396,199.22889981157468 198.89229850242674,199.10091492527647 198.85270020198155,198.96442149834184 198.82327115024302,198.82018128515145 198.80501073218574,198.66909136070748 198.79884475057946,198.51218162625116 198.80560892855152,198.3506104823109 198.82603242612922,198.18565859984076 198.86072157670242,198.01872073910968 198.91014406040114,197.85129558690372 198.9746137404792,197.6849736052681 199.0542763956885,197.52142290928535 199.14909658608272,197.36237321705892 199.25884589149152,197.20959794193095 199.3830927608494,197.06489452474503 199.52119420647506,196.93006313239349 199.67228957012168,196.8068838776491 199.8352965770335,196.697092744039 200.00890988026154,196.60235642791565 200.19160228005424,196.52424633753972 200.38162878223613,196.46421201551743 200.57703363514474,196.42355427592474 200.77566045698725,196.4033983704915 200.97516553452067,196.40466751888766 201.17303433992404,196.42805715604194 201.3666012758298,196.47401026411413 201.5530726189884,196.5426941678474 201.7295525912659,196.6339791791595 201.89307244299044,196.7474194796431 202.0406223884855,196.8822366278095 202.16918618741298,197.03730607113533 202.27577811880997,197.2111470310172 202.35748204797977,197.4019161114017 202.41149224027558,197.60740495899591 202.43515553090924,197.82504227448814 202.42601441686338,198.05190044010268 202.38185059644871,198.2847069891174 202.3007284446964,198.51986109781268 202.18103787929084,198.75345522989016 202.0215360428026,198.98130200796984 201.8213872032426,199.19896632670643 201.58020025706702,199.40180265778918 201.29806320733522,199.58499742912744 200.9755739853335,199.74361628947253 200.61386698715282,199.8726559962622 200.21463470791417,199.967100589351 199.78014387597216,200.0219814373288 199.31324551781316,200.03244066722348 198.81737842173405,199.99379741347482 198.29656551487633,199.90161624915984 197.7554027238325,199.75177709258003 197.19903995375535,199.54054581656595 196.63315389449184,199.2646447273045 196.06391244440704,198.92132202525207 195.49793063281507,198.5084193138601 194.9422180197096,198.0244361834866 194.4041176560762,197.46859086904226 193.8912367986276,196.84087596162138 193.41136968835337,196.1421081475281 192.9724128217184,195.37397095357716 192.58227326544824,194.53904949608665 192.24877068927123,193.6408562632284 191.97953391429283,192.6838470068787 191.78189289631996,191.67342588119268 191.6627671818049,190.61593904102756 191.62855198744785,189.51865600411082 191.68500316113932,188.38973818635827 191.83712238006285,187.23819413966388 192.08904402962258,186.07382115528728 192.44392528262824,184.90713304291424 192.90384096010942,183.7492740546204 193.46968480154675,182.6119190931581 194.14107880157906,181.50716052384016 194.91629228086637,180.44738209721578 195.79217234936928,179.44512068392967 196.76408738962917,178.51291672162708 197.8258851346523,177.66315447433422 198.96986683888318,176.9078934050485 200.18677894089362,176.2586921598083 201.46582349246862,175.72642685363363 202.79468848066205,175.3211055326844 204.1595989973568,175.05168085993745 205.54539001542247,174.92586323074514 206.93560131259275,174.94993666690422 208.31259484487916,175.12857996043076 209.657694612252,175.46469563826798 210.95134878234563,175.95924939389027 212.1733135453379,176.6111226785872 213.30285786749806,177.4169811616617 214.3189879951305,178.37116175261878 215.20069023800517,179.46558082767262 215.92719023542327,180.68966621587367 216.478226582642,182.03031537550606 216.83433637456557,183.47188202816255 216.9771499116974,184.99619331551085 216.88969151481717,186.5825993021204 216.55668311430784,188.2080563671983 215.96484702220397,189.8472457095728 215.10320406459564,191.47272783517968 213.96336305369903,193.0551335066205 212.53979741731715,194.5633912126002 210.8301046830334,195.96499076431328 208.83524443956006,197.2262821498001 206.55975037218434,198.3128082801648 204.01191199684257,199.18966974810255 201.2039218012194,199.82191919472692 198.15198364414,200.1749823509983 194.8763784685736,200.215102291374 191.40148365035606,199.90980291627355 187.75574263514602,199.22836717357134 183.971581910315,198.14232504487467 180.08527281578768,196.6259458673126 176.13673621685146,194.65672914358157 172.16928864030368,192.21588761974704 168.22932910979281,189.28881608942638 164.36596660269373,185.8655391219769 160.63058878428473,181.94113071843753 157.07637344938402,177.51609877913484 153.75774491006385,172.59672722750787 150.7297784028185,167.19536868171707 148.04755644099197,161.33068070417292 145.76548189895328,155.02779889366298 143.93655347328541,148.31844041877753 142.61161001232063,141.2409320273466 141.83855102732713,133.84015710599985 141.66154148469693,126.16741700697197 142.12020971641414,118.28020260483133 143.24884796349272,110.24187289150365 145.07562567148636,102.1212383599774 147.62182617617654,93.99204796015444 150.90111783896893,85.93237952768068 154.91887100358647,78.02393478001505 159.67153233713645,70.35124123370457 165.1460681790954,63.00076471161279 171.31948844166223,56.059937466004556 178.15846237586743,49.616108328910144 185.61903713266324,43.75542269969722 193.64646950129256,38.561641574785455 202.17518049451297,34.11491019831365 211.12884156949858,30.490488246839362 220.42060022416237,27.757454736541803 229.95345149300294,25.97740203811199 239.62076048836192,25.20313448238275 249.30693959843222,25.477388018501415 258.8882822710934,26.831588225927646 268.2339534937265,29.284664661961358 277.2071351370249,32.84194002877388 285.666322281396,37.49411294982659 293.4667645061491,43.21635323816608 300.46204391491665,49.96752840295474 306.5057794185569,57.68957976207554 311.45344452408693,66.3070658962398 315.1642836119107,75.72689028457833 317.5033094523557,85.83822879672074 318.34336254641556,96.51267127831841 317.56721080592513,107.60458975544596 315.0696661473818,118.95174380126183 310.75969279402057,130.37613136232125 304.5624804955214,141.68509084220807 296.4214545165947,152.67265750083473 286.30019314676815,163.1211742668608 274.18422267502433,172.8031539001941 260.08265928399624,181.48338610741536 244.02966717673024,188.92127973505313 226.0857024795824,194.87342657755994 206.33851308969182,199.09636967586638 184.9038656733136,201.34955528916856 161.92597248681932,201.39844404092767 137.5775925958519,199.01775311648686 112.05978441553228,193.99479787322514 85.6012892863618,186.1328978656706 58.457529031515435,175.25480913985268 30.909204100830493,161.20614176663724 3.260482978130881,143.8587190163882 -24.1632220114779,123.11383238022107 -51.017892538517145,98.90534486848087 -76.94395065192327,71.202593715261 -101.56970318590402,40.01304283664038 -124.51516801323032,5.384635174444156 -145.39626013399936,-32.592204552765736 -163.8293096386588,-73.78296513827485 -179.4358775832594,-118.00788895912422 -191.8478298346089,-165.04130117651096 -200.7126230591296,-214.61146929913787 -205.69875132136968,-266.40103051205375 -206.50129630908657,-320.0480196198131 -202.84751909676288,-375.14752518557634 -194.50242668484282,-431.25399548481766 -181.27424239489005,-487.8842092611777 -163.01970564765503,-544.5209190104656 -139.64912378632908,-600.6171666749897 -111.13109651281303,-655.6012632628199 -77.49683225828181,-708.8824150844104 -38.843975483017374,-759.8569701013263 4.660135439986988,-807.9152483981626 52.77585839983499,-852.4489111177331 105.18936162741329,-892.858812449146 161.5115335998641,-928.5632695443655 221.2777556054729,-959.0066756846609 283.9485975483142,-983.6683727534803 348.91149014303585,-1002.0716902313825 415.4834180623941,-1013.7930496501879 482.91466888281644,-1018.4710258680482 550.3936618715552,-1015.8152497960225 617.0528688347682,-1005.6150314603913 681.9758264774957,-987.7475776605925 744.2052261099392,-962.185675113232 802.7520521819631,-929.0047079839096 856.605726168758,-888.3888782178931 904.745196910579,-840.6364981944655 946.1509027893231,-786.1642280415953 979.817515279893,-725.5101345362172 1004.7673576336274,-659.335454942857 1020.0643769351161,-588.4249574526995 1024.8285327332273,-513.685800099221 1018.2504511011323,-436.1448021457244 999.606179553482,-356.94405594125465 968.2718659702324,-277.33482307653 923.7381737757021,-198.66967626628139 865.6242363259546,-122.3928676379478 793.6909459909162,-50.02892489053002 707.8533679949676,16.830501054492686 608.1920659055108,76.54148993951915 494.9631249233191,127.42433629505481 368.60666100373084,167.78156743074464 229.75360847553478,195.9173733696447 79.23058635203347,210.1583010545031 -81.93734595381233,208.8750395192173 -252.52621922182692,190.50509752149873 -431.11513036447127,153.57615071688565 -616.0908029873842,96.72981217570545 -805.654849020669,18.745558269083375 -997.8338220706919,-81.43547795078928 -1190.492124486183,-204.687151404088 -1381.3477987860922,-351.67570823377787 -1567.9912002696778,-522.8382802714501 -1747.9065115763583,-718.3628120623721 -1918.4960219834297,-938.1697668576489 -2077.1070546672895,-1181.895959076052 -2221.061384394204,-1448.8808575836485 -2347.686946577555,-1738.1556964911167 -2454.351596803617,-2048.435717819589 -2538.4986382890493,-2378.1158531765186 -2597.6837938198037,-2725.270129400323 -2629.6132590917537,-3087.655055920417 -2632.1824366067494,-3462.7172193391366 -2603.514913968326,-3847.6052735380563 -2542.0012181730754,-4239.186471573997 -2446.336848913043,-4634.067838959064 -2315.559069592118,-5028.622036884037 -2149.081915304104,-5419.017908888494 -1946.7288629892241,-5801.255645819998 -1708.7626009167561,-6171.206442145966 -1435.91133303427,-6524.656452346493 -1129.3910590317157,-6857.354789852442 -790.9232835873398,-7165.065243496404 -422.74762852628976,-7443.621318472032 -27.628849790446736,-7688.984141162592 391.142202630728,-7897.3027007673845 829.7540992336262,-8064.975836331867 1283.887184830125,-8188.715316514663 1748.7330758505395,-8265.609302169301 2219.0215367955952,-8293.18542956255 2689.0548954916576,-8269.472705777873 3152.7500737037294,-8193.06136853952 3603.688220043537,-8063.15983129614 4035.1718366514096,-7879.647811840103 4440.289190630182,-7643.124729887279 4811.985696576435,-7354.952456707469 5143.141848815789,-7017.291508814434 5426.657172236712,-6633.129798538826 5655.5395501633275,-6206.3030875539835 5822.99917783708,-5741.506335523882 5922.546282195887,-5244.295195281984 5948.091644221917,-4721.076978471128 5894.048860707311,-4179.090501366875 5755.437189432457,-3626.3743194914196 5527.983737057241,-3071.722971246972 5208.223674095213,-2524.6309746252614 4793.597097756257,-1995.2244563551967 4282.541112759022,-1494.1804387241589 3674.575663923286,-1032.6339646403026 2970.381633869775,-622.0734049955369 2171.8697157950883,-274.2244625545524 1282.238586240612,-0.9235617642941918 306.0209370766345,186.01850779341808 -750.88401955379,274.9616471023231 -1881.1928841666208,254.5889768831791 -3076.2364548016676,114.06543936622933 -4325.975259515186,-156.7990977036473 -5619.033192274636,-567.3839665161552 -6942.750046848598,-1126.0909363712171 -8283.253561424048,-1840.1785821119204 -9625.55138501986,-2715.5999246786387 -10953.643156482116,-3756.8455874792603 -12250.6526494372,-4966.794794081142 -13498.979683850092,-6346.576591096646 -14680.47123890137,-7895.443712756209 -15776.610925188772,-9610.66150841626 -16768.725689491144,-11487.414329203528 -17638.20833551106,-13518.731713471156 -18366.75415240264,-15695.436621329176 -18936.60965300349,-18006.117845123747 -19330.83113924211,-20437.128564633695 -19533.550537090618,-22972.612822572373 -19530.245681725475,-25594.561467783147 -19308.01198939639,-28282.898850788515 -18855.832230100732,-31015.601260054336 -18164.840918741975,-33768.84775890095 -17228.579676196925,-36517.20372436171 -16043.239779719272,-39233.837002899716 -14607.88802830268,-41890.76618669323 -12924.671996737274,-44459.1400816394 -10999.000745575355,-46909.546988258866 -8839.697096194202,-49212.35195374467 -6459.117673329719,-51338.05968237129 -3873.237064127942,-53257.7003176879 -1101.6926446787522,-54943.234839074335 1832.213116655668,-56367.97635338703 4901.555754456596,-57507.02311591819 8075.87980311287,-58337.698690324265 11321.339770119655,-58839.994261281136 14600.892677795044,-58997.007753265345 17874.543230440097,-58795.37409088142 21099.642080036425,-58225.680667370754 24231.237034644884,-57282.86187496974 27222.4763845521,-55966.56640003211 30025.062817542843,-54281.49090333596 32589.75566289092,-52237.67369734915 34866.918450983154,-49850.74210249034 36807.108009885225,-47142.10731800834 38361.70055027854,-44139.10088367193 39483.549425338664,-40875.047138857146 40127.668502141874,-37389.26650774701 40251.9343563952,-33727.00495410206 39817.799813399135,-29939.285556231604 38791.010716142824,-26082.678851026205 37142.31721742244,-22218.98938261429 34848.17037801764,-18414.856762521376 31891.394418297197,-14741.270498969043 28261.824626923382,-11272.998876640668 23956.90068796178,-8087.933257017732 18982.205056477564,-5266.350314067475 13351.936001687243,-2890.0959101442186 7089.305054117336,-1041.6955406858128 226.84884616227043,196.60247931248142 -7193.35427017484,743.8436631000384 -15119.571904126184,521.4351678720554 -23490.41799181511,-545.7451058596948 -32234.973392902713,-2528.209191942589 -41273.03327421932,-5490.701691734621 -50515.48669831596,-9491.037582260631 -59864.83255319465,-14578.949365306951 -69215.83454050387,-20794.958556982765 -78456.31639167639,-28169.287220135728 -87468.09681547058,-36720.825796636294 -96128.06190895494,-46456.1738861109 -104309.37090213018,-57368.77082630883 -111882.78917122642,-69438.13294322035 -118718.1404663951,-82629.21414305508 -124685.86827716335,-96891.90610168508 -129658.69422659292,-112160.69366058202 -133513.35936716382,-128354.48015424983 -136132.43227409074,-145376.59626778273 -137406.16592238718,-163115.0046522482 -137234.38352080694,-181442.7109107656 -135528.371787833,-200218.3897131948 -132212.75862153756,-219287.23270925498 -127227.35076580773,-238482.0225990408 -120528.90593927301,-257624.43520005894 -112092.8129986499,-276526.56863853603 -101914.65308248332,-294992.69591064675 -90011.61435017436,-312821.2340309545 -76423.73291861048,-329806.91983860877 -61214.93292615229,-345743.17929795414 -44473.83933985506,-360424.6738435109 -26314.338182129322,-373650.004017195 -6875.860299430383,-385224.5473681987 13676.633364126954,-394963.404375536 35152.98478760602,-402694.4230543455 57338.507353996465,-408261.2699656595 79995.00393245008,-411526.5126125862 102862.14530123277,-412374.67572152044 125659.21588679095,-410715.2317229058 148087.22969162426,-406485.4839094583 169831.41487041573,-399653.2993067872 190564.06072421005,-390219.6472863571 209947.71595616368,-378220.89942548686 227638.7219149513,-363730.8461123113 243291.0592941942,-346862.3859401618 256560.48141423255,-327768.8450658325 267108.9018470535,-306644.8854448064 274608.998821369,-283726.9632228306 278748.9936317326,-259293.30156977894 279237.5552454339,-233663.34589418027 275808.7785286295,-207196.67367273805 268227.1790752767,-180291.33605845054 256292.6435966279,-153381.61397456465 239845.27129298693,-126935.17753180256 218770.03865985898,-101449.64428606372 193001.21785249654,-77448.53903689116 162526.47711804576,-55476.66549772981 127390.5909708785,-36094.90818244752 87698.68779697547,-19874.491174701805 43618.96348379487,-7390.728994659949 -4615.208468145936,783.6865399035373 -56703.8370462476,4085.8108429762165 -112279.60686361905,1969.9212173168028 -170907.96224719458,-6084.728088642877 -232088.03422959975,-20565.948316380778 -295254.4553926341,-41920.54176039275 -359780.0994763336,-70546.20328998691 -424979.77363639185,-106783.49718438037 -490114.88124984433,-150908.01436030978 -554399.062294757,-203122.81987238608 -617004.806639819,-263551.30432229023 -677071.023165029,-332230.55540688545 -733711.5346010064,-409105.36715745134 -786024.4544423496,-494023.00437059224 -833102.3883952264,-586728.838215051 -874043.3887092104,-686862.965937995 -907962.5755795804,-793957.9229242495 -934004.3257614571,-907437.5890326449 -951354.9147940163,-1026617.38311282 -959255.4859826133,-1150705.8298798664 -957015.2067269669,-1278807.5719000006 -944024.4611170861,-1409927.8863464303 -919767.9171502038,-1542978.7514716804 -883837.297656767,-1676786.4914855654 -835943.6762640671,-1810101.0108256568 -775929.1136696314,-1941606.6097827167 -703777.4453325479,-2069934.3532454423 -619624.0295980762,-2193675.9431297625 -523764.26541374717,-2311399.023054219 -416660.6913218465,-2421663.821234793 -298948.4824518749,-2523041.014641808 -171439.16989275673,-2614130.6744502583 -35122.417178419,-2693582.130004278 108834.29827629252,-2760114.5662037455 259088.2350784527,-2812538.147716766 414126.2867550477,-2849775.443048062 572272.3259580601,-2870882.902579312 731697.0663166294,-2875072.127575891 890430.4877981733,-2861730.6521588806 1046376.8426189575,-2830441.9477001284 1197332.2277802567,-2781004.349332454 1341004.6774414172,-2713448.5975836483 1475036.6938570372,-2628053.6848317194 1597030.0998228411,-2525360.6966070193 1704573.0588516362,-2406184.34197366 1795269.072030951,-2271621.875515925 1866767.7231247101,-2123059.1260057106 1916796.9064294551,-1962173.3637630183 1943196.2356649328,-1790932.7601266806 1943951.2972751043,-1611592.2183597854 1917228.3784615363,-1426685.385702667 1861409.269602158,-1239012.6910783506 1775125.7129656987,-1051625.2920129537 1657293.0453566199,-867804.8574564478 1507142.562051579,-691039.1601134626 1324252.113636513,-524993.5022902585 1108574.4366219367,-373478.0527381155 860462.7134730425,-240411.2280663132 580692.8583734736,-129779.31048712696 270482.0320353078,-45592.55335733879 -68497.09749106666,8161.913445537454 -434106.81049024,27570.005524201915 -823739.9425263588,8843.000368860954 -1234321.0424900006,-51628.243628112825 -1662313.4393048957,-157217.71400095103 -2103732.5252999743,-311007.9189579664 -2554165.5075496356,-515733.46185057366 -3008797.814858729,-773725.2121176788 -3462446.277846487,-1086855.8087546418 -3909599.1231970363,-1456487.2651281734 -4344462.741130865,-1883421.4693629204 -4761015.09815512,-2367854.391752731 -5153065.5759191755,-2909334.818937674 -5514320.922386998,-3506728.433235036 -5838456.904490087,-4158188.0438901186 -6119195.152988135,-4861130.75457727 -6350384.591570709,-5612222.817788214 -6526086.744493461,-6407372.881459041 -6640664.121535086,-7241734.276095397 -6688870.78712545,-8109716.921677761 -6665944.133513407,-9005009.352827268 -6567696.7972283475,-9920611.268300053 -6390607.585272629,-10848876.907227682 -6131910.213889723,-11781569.440168295 -5789678.609796021,-12709926.438685272 -5362907.482810954,-13624736.353704557 -4851586.851187384,-14516425.791364927 -4256769.187864498,-15375157.226694189 -3580627.8584795687,-16190936.641600763 -2826505.541298163,-16953730.415913068 -1998951.3561362333,-17653590.640232053 -1103745.484569249,-18280787.859024584 -147910.1377930059,-18825950.09364811 860294.1782413287,-19280206.839940898 1911388.038223639,-19635336.585816972 2994708.919440406,-19883916.25321193 4098464.125684915,-20019470.838041198 5209801.29964316,-20036621.40387312 6314896.824038444,-19931229.482108954 7399062.209369658,-19700535.845885027 8446868.348854123,-19343291.558900956 9442287.290896792,-18859879.15605494 10368850.938044732,-18252421.79214505 11209825.831209492,-17524878.199813448 11948402.921472264,-16683121.330020005 12567900.971796023,-15734998.609052489 13051981.970456196,-14690371.836579042 13384876.680168185,-13561134.8703848 13551618.195127964,-12361207.395762678 13538281.136026543,-11106503.261237286 13332223.884206884,-9814872.077206174 12922331.044239832,-8506013.01960899 12299253.133076496,-7201360.0558648985 11455640.327358592,-5923938.113626687 10386366.962151207,-4698190.042490733 9088743.367916372,-3549774.5723395883 7562711.561432948,-2505335.8466847665 5811021.2738343375,-1592245.5019745363 3839382.8079746403,-838318.6706536304 1656593.270614151,-271505.7026986222 -725367.1752616931,80438.17710385127 -3291272.2444345746,190302.6355998854 -6022622.658143164,31788.36211812124 -8897658.227110084,-420113.90436379134 -11891411.34880823,-1188735.3128466792 -14975804.028455965,-2295336.0351615194 -18119790.133107405,-3758712.1740223304 -21289544.140017174,-5594807.32989734 -24448697.146568943,-7816333.981926755 -27558620.372541092,-10432410.06166246 -30578755.81016638,-13448216.270022692 -33466993.067880098,-16864679.80193002 -36180090.81513531,-20678190.194362104 -38674140.57419205,-24880352.997142654 -40905069.92706888,-29457786.877422735 -42829181.519190684,-34391969.60469839 -44403723.5536585,-39659138.12039007 -45587486.78996769,-45230247.5721883 -46341422.397381306,-51070993.78716679 -46629274.37539148,-57141903.16861581 -46418219.65143122,-63398493.43018527 -45679508.40910602,-69791507.92885016 -44389096.69866183,-76267225.62811601 -42528262.945151016,-82767847.91865008 -40084199.60858252,-89231962.65016124 -37050570.97378778,-95595084.79212771 -33428027.86489451,-101790272.14929892 -29224669.99873583,-107748813.51941764 -24456446.721075967,-113400985.60508378 -19147487.016227584,-118676873.89004812 -13330349.950471852,-123507251.57438923 -7046187.10757899,-127824509.54597045 -344809.10427954467,-131563629.26107691 6715351.063009597,-134663189.32979777 14067384.290831968,-137066395.56674692 21636166.779566865,-138722123.29085976 29338741.038552534,-139585959.75525147 37084819.75201272,-139621233.7757271 44777414.46258608,-138800018.92061165 52313589.60740535,-137104096.04106283 59585340.917966604,-134525860.47537395 66480595.58153823,-131069158.96776773 72884329.87268619,-126750041.21568206 78679798.21457018,-121597411.01229699 83749865.83872509,-115653562.19434987 87978435.39861584,-108974585.0489844 91251956.07728627,-101630629.485198 93461001.93552783,-93706012.14144783 94501904.49774496,-85299155.68448767 94278422.8930114,-76522349.85685654 92703433.28405571,-67501325.3498471 89700617.85339029,-58374633.31113455 85206132.2995595,-49292825.233993076 79170229.65406871,-40417430.108084954 71558817.28650568,-31919728.026470028 62354923.24709343,-23979321.92335815 51560047.62604973,-16782511.74220186 39195374.41055916,-10520478.081297442 25302819.413079683,-5387285.207931271 9945890.247955574,-1577716.2435603973 -6789664.9378395965,715043.7303315654 -24795442.20630058,1301857.9473133094 -43940220.853336975,200.0000000538115" stroke="white" stroke-width="1.5" /></svg>