<?xml version="1.0" encoding="utf-8" ?>
<svg baseProfile="full" height="400" version="1.1" width="400" xmlns="http://www.w3.org/2000/svg" xmlns:ev="http://www.w3.org/2001/xml-events" xmlns:xlink="http://www.w3.org/1999/xlink"><defs /><rect fill="black" height="100%" width="100%" x="0" y="0" /><circle cx="200" cy="200" fill="yellow" r="10.000000839085635" stroke="orange" stroke-width="2" /><polyline fill="none" points="200.35933611714006,200.0 200.3139438754836,200.01648061934165 200.2637132117299,200.0277639890832 200.2090143812251,200.03316081428744 200.15030031030267,200.03200224788128 200.08810657404774,200.02364936287037 200.0230503468764,200.0075028795661 199.95582827026976,199.9830130436589 199.88721319174954,199.94968954210958 199.81804974015037,199.9071113357819 199.7492487143844,199.85493628065882 199.68178027612927,199.79291040352086 199.6166659511127,199.72087669327414 199.55496945880446,199.63878326583324 199.49778640623126,199.54669075873136 199.44623289815704,199.44477881157016 199.40143313285373,199.33335149014658 199.36450606994705,199.2128415157035 199.3365512741627,199.0838131663249 199.31863405600689,198.94696372509745 199.31177004727246,198.80312335933144 199.3169093655324,198.65325332688883 199.33492053722463,198.4984424195048 199.36657436329915,198.3399015688722 199.41252792443973,198.1789565591302 199.47330893433468,198.0170388091665 199.54930065911032,197.85567420969073 199.64072762860957,197.69647002321324 199.74764237046895,197.54109987969252 199.8699134006956,197.39128692648276 200.007214704474,197.2487852180861 200.15901693805176,197.11535945882179 200.324580576611,196.99276323957275 200.50295122389227,196.8827159379423 200.69295728690273,196.7868784791035 200.89321020324178,196.70682818199205 201.1021073893905,196.64403294189867 201.31783805574136,196.5998250255676 201.53839200825425,196.57537477820023 201.76157152750557,196.57166456288928 201.9850063837007,196.589463271564 202.20617201113834,196.62930176210415 202.42241082789187,196.69144958848804 202.63095664640008,196.77589339930262 202.82896207857917,196.88231738429968 203.01352879536842,197.01008614860916 203.18174045573815,197.15823038941687 203.33069807460112,197.32543574012624 203.45755755329512,197.51003513203807 203.5595690509039,197.71000500323714 203.634117830246,197.92296565856572 203.67876616950065,198.1461860532433 203.69129588979987,198.37659323588318 203.66975101134742,198.61078664444847 203.61248001639126,198.84505740124493 203.51817716734027,199.07541270060887 203.38592230313165,199.29760532582847 203.21521851726132,199.5071682704366 203.00602710730007,199.69945437380935 202.75879917880775,199.8696808125502 202.47450328686298,200.01297821807557 202.1546485064253,200.1244441178428 201.8013023388542,200.19920032356816 201.41710288647155,200.23245381540474 201.00526476032724,200.21956059730564 200.56957822848483,200.15609192663652 200.11440116325437,200.0379022515348 199.64464340582595,199.86119812357563 199.16574323555224,199.62260729206014 198.68363570842243,199.31924713076918 198.20471271466886,198.94879149939823 197.735774698436,198.50953510117225 197.28397408236663,198.0004543663689 196.85675054604673,197.42126386964827 196.46175841858866,196.77246727813494 196.1067865611926,196.05540182798904 195.79967123414883,195.27227534051207 195.5482025631623,194.42619481533535 195.36002534071568,193.521185678486 195.2425350179633,192.56220081753872 195.20276985980524,191.55511860491228 195.2473003486947,190.50672919376726 195.3821170296939,189.4247084688455 195.6125180885864,188.31757914671033 195.94299804472558,187.19465864576284 196.377139019003,186.0659934854768 196.9175061031308,184.94228012566708 197.56554840766168,183.83477231922322 198.32150740121202,182.7551752243298 199.18433417068056,181.71552670328253 200.15161723047152,180.72806642290655 201.21952248657396,179.80509356441107 202.38274691773373,178.95881414620436 203.63448746998333,178.2011791595004 204.96642657179353,177.54371491107364 206.36873556464198,176.99734715772163 207.83009720768715,176.57222080022154 209.33774825560099,176.27751707806593 210.87754292585703,176.1212703672313 212.434037866625,176.11018682882195 213.9905990099315,176.24946728380388 215.52953044830588,176.5426367953926 217.03222520846327,176.99138352325477 218.47933751476126,177.59540946990617 219.85097584060873,178.35229576707314 221.12691574045553,179.25738514605814 222.28683114150712,180.303684199276 223.31054245626655,181.48178796834299 224.17827955804972,182.77982928596003 224.87095734566282,184.18345515324887 225.37046131459905,185.67583225047133 225.65994025472975,187.23768345692451 225.72410291299371,188.8473569954467 225.54951519860032,190.48092951906767 225.12489427237222,192.11234412308644 224.44139565567943,193.71358389698196 223.49288932251272,195.2548812293258 222.27622060504456,196.70496264809816 220.79145165278078,198.03132852188517 219.0420791421135,199.20056646829389 217.03522394043023,200.17869681902943 214.78178849021637,200.93154798143303 212.29657779665666,201.42515901936073 209.59838007943205,201.62620625803933 206.71000338747695,201.50245020432172 203.6582647755233,201.02319857230214 200.47392900373208,200.15978072156776 197.19159414627015,198.8860283587163 193.84952198020935,197.1787569295884 190.48941157064485,195.01824174744957 187.15611506863192,192.3886825686107 183.89729539171398,189.27865004909464 180.76302615784766,185.68150730113868 177.8053349869072,181.5957996234629 175.07769206326162,177.02560541082028 172.6344466608717,171.9808412623472 170.53021516082134,166.47751440999826 168.8192249312429,160.5379157824841 167.5546192815487,154.19074731041533 166.78772953638946,147.47117746760753 166.5673210888944,140.4208195335109 166.93882107608098,133.08762765315282 167.9435360600449,125.52570646324052 169.61786878458673,117.79503084432032 171.99254369610424,109.96107324590785 175.09185145769487,102.0943370096718 178.93292313446182,94.26979517900186 183.52504507430737,86.566235424103 188.86902574084735,79.06551292111529 194.95662586296106,71.85171429122965 201.77006323922922,65.01023701945829 209.28160336644632,58.626790119387266 217.45324674207038,52.786323175342716 226.23652321478752,47.571892261188594 235.5724031207836,43.063472588606174 245.39133414296265,39.33672905939784 255.61341186521742,36.46175716753095 266.14869086492774,34.501807898077686 276.89764189719176,33.51201138232045 287.7517592791773,33.53811507123791 298.59432098997434,34.61525306358459 309.301302270351,36.76676395032416 319.7424416501574,40.00307509528446 329.78245636346514,44.32067164442785 339.2824020499162,49.70116872600818 348.10116950454676,56.11050525541452 356.0971090491148,63.4982774776733 363.1297708793992,71.79722985532823 369.0617475206586,80.92292012987211 373.7606023248769,90.77357434378615 377.10086579747804,101.23014630292192 378.9660794781242,112.15659438391607 379.25086515119835,123.40038675020007 377.8629953585364,134.79324393803768 374.7254395620975,146.15212541956743 369.77835888969815,157.2804641554321 362.9810212243784,167.9696503314404 354.3136074982028,178.00076245190687 343.7788794537937,187.14654076079714 331.4036788693239,195.17359460836747 317.2402283305035,201.84483190714548 301.36720409895776,206.92209526204297 283.89055248987916,210.16898575364618 264.9440224487932,211.35385174304963 244.68938871954953,210.2529164955593 223.31634213052243,206.65351493627068 201.04202609589936,200.3574065020773 178.11020143103244,191.1841278928408 154.7900250067058,178.9743466010827 131.3744316026132,163.5931734669787 108.17811254506043,144.93339021587536 85.53508930139617,122.91854604043814 63.7958851212324,97.50587583892413 43.32430302295916,68.68899176268508 24.493823878198896,36.5002993048154 7.6836439951983095,1.0130893190233223 -6.725622612493339,-37.656741869873656 -18.35654622616758,-79.34939068336325 -26.839750779221532,-123.86030716263275 -31.819007860322245,-170.9398600431402 -32.95650699458855,-220.29354408958164 -29.93824840106572,-271.582763557684 -22.479499296252357,-324.4262207544823 -10.330250074493847,-378.4019330858197 6.719397568262764,-433.04989573222156 28.833982205707684,-487.8754002150707 56.12764864761502,-542.3530116476353 88.65940533937409,-595.9311994633175 126.4287517684024,-648.0376079403402 169.371755112604,-698.0849439717629 217.35765508603708,-745.477450346047 270.1860746560423,-789.6179233996052 327.58491197314765,-829.9152243810665 389.20898542867394,-865.7922243380644 454.63949920451296,-896.6941129191271 523.3843909863405,-922.0969923003909 594.8796166699398,-941.5166686293951 668.4914189083413,-954.5175450601937 743.5196172483566,-960.7215127725694 819.2019474268899,-959.8167294612879 894.719466194659,-951.5661687869629 969.2030258783644,-935.8158193339398 1041.740809869258,-912.502407854357 1111.3869064404223,-881.6605191170563 1177.1708838673885,-843.4289836434693 1238.108314893427,-798.0564051081826 1293.2121832938087,-745.9057013060433 1341.5050898191816,-687.4575364231727 1382.032159316806,-623.3125279628593 1413.8745355317765,-554.1921191184372 1436.163335181503,-480.93801668362653 1448.0939185866632,-404.51010575521605 1448.9403206490767,-325.98276549951026 1438.0696735138395,-246.5395250847385 1414.9564410642504,-167.46601546365747 1379.1962756974547,-90.14119093493662 1330.519299836624,-16.026814202922225 1268.802608565736,53.34478014955286 1194.0817858299847,116.38460643110777 1106.5612250199224,171.46257204265544 1006.6230456260367,216.92456001400566 894.8344011691398,251.11093992940823 771.9529799138605,272.37637214652256 638.9305090662588,279.1107450602435 496.91408532107005,269.7610603182027 347.2451698071261,242.85405668822196 191.45610369438268,197.0193400534053 31.264021949130324,131.01276512258238 -131.43793310712505,43.73979425425418 -294.5921697683202,-65.72145933405523 -455.9910180692258,-198.09781239841607 -613.2939234748877,-353.8995378848658 -764.0474380528085,-533.400167653934 -905.7079475572425,-736.6179091566025 -1035.6670346879914,-963.2990160502973 -1151.2793393029315,-1212.9034512301535 -1249.8927359677673,-1484.593174926224 -1328.8806083595139,-1777.2233801651919 -1385.6759591785753,-2089.3369828409022 -1417.8070538768934,-2419.1626537541447 -1422.9342572128885,-2764.616655192687 -1398.8876839567595,-3123.308714906985 -1343.7052495690768,-3492.552135735508 -1255.670673949484,-3869.378299749349 -1133.3509619935135,-4250.555681788044 -975.632859294891,-4632.61343888638 -781.7577604695434,-5011.86958965341 -551.3545318187678,-5384.463741540668 -284.46969993124145,-5746.394264577848 18.40554615028634,-6093.5597480825 356.312088940345,-6421.804512656443 727.803892796606,-6726.967884122533 1130.9338135659718,-7004.936869648674 1563.2447060195268,-7251.701809928734 2021.766294996408,-7463.414515770012 2503.0182356950827,-7636.448333645676 3003.0197400653233,-7767.459523618482 3517.306089833476,-7853.449275467252 4040.952292505736,-7891.825635803169 4568.6040650204195,-7880.46457141655 5094.516250948014,-7817.769353002046 5612.5986917733935,-7702.727409717106 6116.469481458204,-7534.963779649762 6599.515436908783,-7314.790265078501 7054.959516017083,-7043.249395217194 7475.934810561956,-6722.152303699171 7855.564634523529,-6354.109644027973 8187.048120445819,-5942.554694175867 8463.750628645268,-5491.757841898965 8679.298167651812,-5006.831695488853 8827.67492070402,-4493.726130791181 8903.32287388097,-3959.212664434872 8901.242448062632,-3410.8576352196455 8817.09295092437,-2856.9837802232487 8647.291588152295,-2306.6199089554525 8389.109706575526,-1769.43850716586 8040.764887480725,-1255.6812408819328 7601.507467487642,-776.0724798992821 7071.700038438604,-341.7211170676484 6452.888468114568,35.98887607397964 5747.862991445317,345.5185470290089 4960.707948305462,575.3039296480652 4096.838789899693,713.8949218295002 3163.0250418673218,750.1019392376462 2167.397999116669,673.1490378337681 1119.4420353377463,472.8320298710329 29.96853920739204,139.67995694941322 -1088.9283606966699,-334.8818677623399 -2223.9349497815997,-958.3691754276269 -3360.6004374355034,-1737.078467617292 -4483.4390915679105,-2675.931312204401 -5576.052039921848,-3778.3254566614573 -6621.26853850031,-5045.995072214533 -7601.306251847017,-6478.882483816719 -8497.949822861596,-8075.02375590012 -9292.746733866486,-9830.450490388668 -9967.219178614472,-11739.110149764307 -10503.090379934183,-13792.80714259745 -10882.523503102188,-15981.166800693212 -11088.371034371057,-18291.624235013078 -11104.432221129853,-20709.439881316383 -10915.715908836695,-23217.743335924253 -10508.705864172907,-25797.606837463616 -9871.625447929267,-28428.149472665307 -8994.698299078895,-31086.672874495896 -7870.40151743323,-33748.82884080956 -6493.707690257513,-36388.81893351727 -4862.31200215142,-38979.62572468062 -2976.8406011076568,-41493.27494014532 -841.0363704294443,-43901.12731702177 1538.0817207045916,-46174.19854265568 4150.089442973669,-48283.50518433276 6981.061940080894,-50200.43405588682 10013.515623205081,-51897.13200505761 13226.390548483736,-53346.91264970406 16595.076211533702,-54524.676147902785 20091.48334951444,-55407.33766293416 23684.163942505777,-55974.25978571364 27338.481153270874,-56207.68381104364 31016.830439824636,-56093.15443685874 34678.91252142367,-55619.93217408819 38282.05827923504,-54781.38752543045 41781.60503243628,-53575.370820580865 45131.32295405319,-52004.55148930902 48283.88968446961,-50076.72051790847 51191.41047102796,-47805.04987408845 53805.980416999664,-45208.30280489688 56080.28467067153,-42310.989115636614 57968.23163423319,-39143.45982804563 59425.61353199871,-35741.935995463224 60410.78795819636,-32148.46692255553 60885.37333646143,-28410.813597633813 60814.950576908224,-24582.253795759083 60169.762623090726,-20721.306048613817 58925.40305119954,-16891.370499224384 57063.48442833025,-13160.2855614558 54572.27676625822,-9599.800279891595 51447.30613217166,-6284.963328082444 47691.903308060915,-3293.4306836669257 43317.69233509373,-704.695167771206 38345.00884668002,1400.7577776894634 32803.23829142607,2942.362489905002 26731.064481050606,3840.4468544066726 20176.61937357183,4017.259415598369 13197.525622228462,3398.0405984662575 5860.824187657696,1912.1276435694388 -1757.2197748798317,-505.9182592533805 -9571.438481479308,-3915.175201266393 -17488.215064806504,-8367.227674304733 -25406.072285521637,-13905.051962733103 -33216.39812848752,-20561.93492829842 -40804.30841419999,-28360.44190656864 -48049.64485973939,-37311.44987649579 -54828.10523327101,-47413.26233612827 -61012.50037768046,-58650.822402768594 -66474.13095032918,-70995.04054139846 -71084.27475712016,-84402.25299902214 -74715.77357186821,-98813.82647458855 -77244.7063498656,-114155.92377630413 -78552.13379252424,-130339.44420472674 -78525.89732435154,-147260.15114788557 -77062.45373163841,-164798.9978833259 -74068.72501226037,-182822.66085407377 -69463.9414265522,-201184.28772660557 -63181.45434912258,-219724.46535794213 -55170.49432936945,-238272.41040821542 -45397.848802430744,-256647.3827501838 -33849.43317950365,-274660.3190673237 -20531.728612733554,-292115.68111995026 -5473.059599287384,-308813.51012034167 11275.315216289238,-324551.6755223796 29638.325143416576,-339128.3033312989 49516.44765280859,-352344.365810288 70785.33061860247,-364006.41124105605 93295.69886769106,-373929.40922582435 116873.56526425396,-381939.6839412751 141320.76412453185,-387877.9048152539 166415.82193963238,-391602.10134026693 191915.17719192174,-392990.66621062247 217554.7574979177,-391945.30871917005 243051.91841762885,-388393.9184215741 268107.74406263354,-382293.2975165348 292409.7051440907,-373631.7192433479 315634.6653642465,-362431.26890565926 337452.2221132615,-348749.9239312599 357528.36233515374,-332683.3297077402 375529.40922520537,-314366.2288242431 391126.2301742845,-293973.50282675313 403998.67114518525,-271720.7876793424 413840.17751863645,-247864.62683129613 420362.5564516164,-222702.1291281181 423300.83102033613,-196570.1027737141 422418.13194918167,-169843.6411445353 417510.56863068446,-142934.14145876927 408412.01749624225,-116286.74309084735 394998.76267843024,-90377.1786607901 377193.92138740566,-65708.03787736624 354971.58457758743,-42804.45142262349 328360.60237455514,-22209.209872934945 297447.9434292558,-4477.340689118203 262381.5579246787,9829.825402472721 223372.67542992564,20151.05886093771 180697.47122083645,25932.058310304536 134698.03809876047,26632.643246893924 85782.60516347035,21734.247314332722 34424.950445333794,10747.638876861094 -18837.039223508087,-6779.212119344897 -73403.7002308693,-31253.209258895935 -128616.84675428375,-63028.24164567234 -183763.96910808957,-102397.43357278661 -238083.3867755726,-149585.6377252363 -290770.3558855606,-204742.2818333906 -340984.119000552,-267934.6816675006 -387855.87254560646,-339141.93503041036 -430497.61413642793,-418249.5118648359 -468011.8185883044,-505044.65464971017 -499501.87764522986,-599212.7008350156 -524083.224613845,-700334.4350870991 -540895.0512846272,-807884.5735322345 -549112.5109481883,-921231.4749569645 -547959.288151786,-1039638.165029317 -536720.4032815411,-1162264.7490445462 -514755.1082959519,-1288172.2764922485 -481509.71917603794,-1416328.1069302831 -436530.22109762544,-1545612.8112992353 -379474.4741711766,-1674828.6260069236 -310123.8410294717,-1802709.4589675155 -228394.05276189497,-1927932.4274302423 -134345.1268748934,-2049130.8870382707 -28190.1502679663,-2164908.8903029263 89697.25819555791,-2273856.9907690766 218776.98694080277,-2374569.2868124284 358338.1476467585,-2465661.5764985257 507496.6336743451,-2545790.4725145386 665194.6748923213,-2613673.304143443 830202.5283152843,-2668108.611885484 1001122.4267409403,-2707997.0199551173 1176394.8876726376,-2732362.2528125606 1354307.4623069565,-2740372.0444522956 1533005.9793602454,-2731358.673692837 1710508.311146132,-2704838.84551664 1884720.6597807314,-2660532.6279128776 2053456.3299053987,-2598381.1459851163 2214456.921139638,-2518562.7305912264 2365415.83890837,-2421507.217753472 2504003.9866652642,-2307908.097758205 2627897.466229978,-2178732.2194719906 2734807.0763774673,-2035226.7661147173 2822509.363399017,-1878923.2336925317 2888878.9415611983,-1711638.162602581 2931921.7667072807,-1535470.3966282522 2949809.0131821297,-1352794.6716478295 2940911.173335888,-1166251.3688260766 2903831.970601415,-978732.3037342586 2837441.6520759496,-793362.4635767526 2740909.2051946633,-613477.6492566798 2613733.025977066,-442598.0270904123 2455769.553953632,-284397.6462195982 2267259.381710148,-142670.03174336575 2048850.3454592065,-21290.01981525443 1801617.1075583235,75827.94113097458 1527076.7527912552,144774.7398505778 1227199.9378052095,181694.4598337201 904417.1575802653,182834.7431470736 561619.724356884,144599.2006622144 202155.09314349058,63601.35246091374 -170183.78623408836,-63280.471443905815 -551175.3576876014,-238847.8900895526 -936192.7954137689,-465527.5560695427 -1320233.9294810137,-745317.2719768942 -1697957.8289628306,-1079733.8797199866 -2063728.0328743623,-1469763.6912650466 -2411662.335797717,-1915816.249268475 -2735688.947284388,-2417682.217497663 -3029608.7526958967,-2974496.203191156 -3287163.3089802265,-3584705.305934666 -3502108.112970262,-4246044.169664838 -3668290.5832073917,-4955517.28558568 -3779732.1001947904,-5709389.253723742 -3830713.3555992027,-6503183.659304525 -3815862.169535371,-7331691.156975003 -3730242.8480226835,-8188987.281135054 -3569446.071371009,-9068460.414426364 -3329678.230027957,-9962850.249064108 -3007849.0587012074,-10864296.967654448 -2601656.3637454216,-11764401.252043402 -2109666.594229282,-12654295.10138758 -1531389.9750839006,-13524723.304990051 -867348.902517593,-14366135.272635799 -119138.29861497469,-15168786.776489282 710523.365237827,-15922851.005535984 1617753.636832331,-16618538.177674768 2597477.4569571437,-17246222.797643058 3643411.4864366762,-17796577.492871758 4748062.450041768,-18260712.206114236 5902740.457826384,-18630317.375373118 7097588.14249217,-18897809.59043229 8321626.310831955,-19056478.083428107 9562816.648655461,-19100630.29062119 10808141.842618696,-19025734.616140056 12043703.290090201,-18828558.438208114 13254836.360893153,-18507299.3264426 14426242.954034584,-18061707.38734746 15542140.860221565,-17493196.626128864 16586429.199177736,-16804943.20829879 17542868.951891236,-16001968.525895525 18395277.354563642,-15091205.022012535 19127734.666043647,-14081542.804921972 19724801.5669795,-12983855.190372895 20171745.200064912,-11811001.448279595 20454771.61999038,-10577805.19832419 20561262.192586415,-9301007.097933255 20480011.26878338,-7999190.695228923 20201462.26410334,-6692680.578076186 19717939.1021281,-5403412.236996587 19023869.834422193,-4154773.372817478 18115999.133302752,-2971416.71734883 16993586.271087017,-1879044.7945593034 15658585.153272996,-904167.4276483727 14115802.966548704,-73833.19063696862 12373034.038307663,584663.5922430696 10441165.584872367,1044098.2842569713 8334252.152881908,1277651.3815237193 6069555.733835034,1259261.12469126 3667548.7566435426,963990.0314707102 1151877.437752483,368401.71373962937 -1450716.7071603897,-549056.028855198 -4110519.012382573,-1807666.1936925247 -6795008.873537112,-3424060.3091562707 -9469072.955552189,-5411843.867538945 -12095264.821911065,-7781234.6426750915 -14634110.86069647,-10538719.26549163 -17044461.798528183,-13686733.56375093 -19283888.47876424,-17223372.24578676 -21309119.940888762,-21142133.517072912 -23076521.180154093,-25431704.158596408 -24542607.29723095,-30075790.463361375 -25664590.074404284,-35053000.21869918 -26400952.345850457,-40336780.63491497 -26712044.873344302,-45895416.753469 -26560699.804401144,-51692094.41958453 -25912854.186702523,-57685031.37503091 -24738176.450287994,-63827679.418034695 -23010688.25713922,-70068999.89105295 -20709373.666191943,-76353813.99686006 -17818767.180134613,-82623228.61353812 -14329511.938029818,-88815137.3852106 -10238879.103888698,-94864795.91452429 -5551239.384433927,-100705468.88300537 -278477.5973479478,-106269145.88562486 5559658.68850016,-111487321.69648011 11935285.200759657,-116291835.59473939 18812190.11693958,-120615763.28624026 26145734.27125573,-124394353.86953904 33882849.762678325,-127566003.22982258 41962143.58011805,-130073254.21456034 50314111.997598834,-131863812.96631476 58861470.49984396,-132891569.87633406 67519602.88057303,-133117612.79323114 76197131.91750285,-132511219.39004996 84796612.67690378,-131050814.97601344 93215348.0458348,-128724881.55153981 101346324.54304327,-125532803.56146377 109079264.83299766,-121485635.61567907 116301791.67657095,-116606777.43157293 122900696.31321111,-110932541.42024408 128763302.50146581,-104512598.69873689 133778915.66749081,-97410289.87179458 137840344.8461886,-89702787.69544452 140845483.36960956,-81481099.71535985 142698932.58616117,-72849900.16746388 143313651.30662388,-63927181.83602531 142612612.19446957,-54843720.182416655 140530444.9740107,-45742343.87959542 137015045.1464681,-36777007.90436064 132029125.90629452,-28111667.53935528 125551690.16322026,-19918954.004668698 117579399.0230598,-12378654.956396956 108127812.78526944,-5676005.735465839 97232480.49810573,199.9999998809248" stroke="white" stroke-width="1.5" /></svg>