<?xml version="1.0" encoding="utf-8" ?>
<svg baseProfile="full" height="400" version="1.1" width="400" xmlns="http://www.w3.org/2000/svg" xmlns:ev="http://www.w3.org/2001/xml-events" xmlns:xlink="http://www.w3.org/1999/xlink"><defs /><rect fill="black" height="100%" width="100%" x="0" y="0" /><circle cx="200" cy="200" fill="yellow" r="10.000039419218144" stroke="orange" stroke-width="2" /><polyline fill="none" points="199.95599275429973,200.0 199.88465187381507,199.99394475029496 199.80970975980478,199.97996605434832 199.73184901904875,199.95745697100745 199.6518340051393,199.92586778797113 199.57050677550387,199.88471642183063 199.48878181067897,199.8335986643915 199.40763947862087,199.77219813721803 199.3281182412959,199.70029581071606 199.2513056162559,199.617778939854 199.17832792224212,199.524649265962 199.11033885493416,199.42103033308615 199.04850695660141,199.3071737682291 198.9940020614443,199.1834643775967 198.94798081663384,199.05042391578246 198.9115713972534,198.90871339173665 198.88585755129102,198.75913378443852 198.87186212828473,198.6026250524488 198.87053026193172,198.44026333497487 198.88271239268545,198.27325625770752 198.90914733081263,198.10293627444284 198.95044557330579,197.9307519953026 199.00707309918036,197.75825747410443 199.07933587677178,197.58709945096737 199.1673653234366,197.41900257139804 199.2711049623141,197.25575262968164 199.39029852229848,197.09917791216594 199.524479725903,196.95112874470954 199.67296400508738,196.81345537787047 199.83484237721242,196.687984373019 200.00897770196306,196.57649368211585 200.19400352525042,196.48068664303725 200.38832569771796,196.40216514065898 200.59012693352554,196.34240221102607 200.79737444960224,196.30271439141444 201.0078307966256,196.28423414250955 201.21906796072938,196.2878826898556 201.4284847795432,196.31434364973776 201.63332767785633,196.36403781933453 201.8307146872529,196.43709952190497 202.01766267082434,196.53335490457633 202.19111762890734,196.6523025886047 202.3479879151569,196.7930970694686 202.4851801446254,196.95453525653025 202.59963752740592,197.13504652901315 202.68838031337557,197.33268666650144 202.7485479862506,197.54513598792445 202.77744279916988,197.76970200296734 202.77257420002155,198.00332684403415 202.73170365339894,198.24259970533961 202.65288932811006,198.48377446855207 202.53453008526586,198.72279264186608 202.3754081728339,198.95531168173952 202.17473000884152,199.17673870416291 201.93216441781237,199.38226952569843 201.6478776741413,199.56693290417402 201.32256470254995,199.72563977547296 200.957475790044,199.85323720702368 200.55443817639355,199.94456671115722 200.1158719114734,199.9945264833093 199.64479939815433,199.9981370520315 199.1448480790552,199.95060975091474 198.62024577447556,199.84741734785965 198.07580823725073,199.68436609572143 197.5169185580096,199.4576684013229 196.94949813114695,199.16401524829305 196.37996897740777,198.80064745428342 195.81520731283376,198.36542479596943 195.26248835533477,197.85689199696165 194.7294224685673,197.2743405454075 194.22388285724261,196.61786529066953 193.753925147429,195.88841476297557 193.32769930870342,195.08783416721548 192.95335450087487,194.2189000228664 192.63893755504643,193.28534545702135 192.39228592550958,192.29187520717858 192.22091607377044,191.2441694551953 192.1319083672144,190.1488756938166 192.13178969077345,189.01358792249013 192.22641507866976,187.84681257960392 192.4208497730387,186.65792074348093 192.71925320514228,185.45708627385858 193.12476647113965,184.2552097183947 193.63940493618767,183.06382797396614 194.26395764626616,181.89500986894268 194.99789525490692,180.7612380187789 195.8392881804134,179.67527750150822 196.78473669678536,178.65003210017073 197.82931462717406,177.69838906378035 198.96652825123962,176.83305354487192 200.1882919564346,176.06637407751717 201.48492205740763,175.41016066236307 202.84515007708535,174.87549722199068 204.25615662751244,174.4725503778737 205.70362684848078,174.21037667650765 207.17182815795186,174.09673055390584 208.6437108412045,174.1378754716271 210.1010317568046,174.33840078083279 211.5245011685319,174.70104697065872 212.89395242531018,175.22654203060355 214.18853390832624,175.91345170100686 215.38692234860656,176.75804639851623 216.46755629239598,177.75418758244936 217.4088881591436,178.89323627114615 218.18965300143338,180.16398632307616 218.78915174178323,181.5526249642875 219.18754633210455,183.042722870803 219.3661639622136,184.61525590127584 219.30780713874168,186.24866032156547 218.99706616985995,187.91892306933306 218.42063032925122,189.59970827426713 217.56759373959466,191.26252087966057 216.4297518163012,192.87690780586703 215.00188395109237,194.41069665834445 213.28201799682245,195.8302715158046 211.27167204405202,197.10088484127945 208.97606896034196,198.18700404510187 206.40431919872904,199.05269069886407 203.56956747561782,199.66200985886834 200.48909907310764,199.97946641244107 197.18440173873728,199.9704648172098 193.68117943828486,199.60178806893367 190.00931456543128,198.84209121496042 186.2027756258322,197.66240423538508 182.2994678916919,196.0366386502332 178.34102506468577,193.9420917863521 174.37254058751913,191.35994226006557 170.4422379041193,188.27572990887631 166.60107968105842,184.67981314527952 162.90231676297313,180.5677965155 159.40097843621783,175.9409211327425 156.1533064105509,170.80641062491426 153.21613579020038,165.17776529670704 150.64622718420904,159.07499736066828 148.49955499172424,152.52480034586537 146.83055778034816,145.5606461494508 145.6913575435865,138.22280365829715 145.13095546506923,130.55827343619723 145.1944126203287,122.62063364697319 145.92202479893947,114.46979316394443 147.34850131797143,106.17164869891198 149.50215830914544,97.79764376502547 152.4041374840673,89.42422836198247 156.06766180196016,81.1322194318412 160.49733977037053,73.00606337060836 165.68853028994408,65.13300318447907 171.62677999890678,57.602154238393126 178.28734497167528,50.50349394524332 185.63480837055633,43.926772171970924 193.62280523262746,37.96035057800768 202.1938649899889,32.68998053489443 211.27938156672337,28.197530685215185 220.7997199680381,24.559676565089262 230.66446717613402,21.846566017461015 240.77283389547645,20.120475342890103 251.01421225168679,19.434472249702708 261.26889294997363,19.831102655363708 271.4089436500686,21.341119235053924 281.299248426671,23.982270291440443 290.798706171631,27.758168011919707 299.7615836731868,32.6572554676475 308.03901689765473,38.651891775185106 315.48065172159477,45.697574670899286 321.9364130414389,53.73231932661497 327.2583888488336,62.67621155085911 331.3028135314172,72.43115256427384 333.9321323700814,82.88081130412165 335.01712698608867,93.89079869799889 334.4390793770866,105.30907655088791 332.0919502032941,116.9666116160856 327.88454517768355,128.67828307648483 321.74264181074886,140.2440490592384 313.61104739503526,151.45037495900635 303.4555580199498,162.07192327182804 291.2647876152099,171.87350136631332 277.05183556173097,180.61226016851995 260.8557613098177,188.04013314276435 242.74283473156444,193.90650124779486 222.80753162969077,197.96106577500993 201.17324494730997,199.95690717498834 177.9926837870255,199.65370419591915 153.4479343633339,196.8210839408444 127.75015948482431,191.24206985058697 101.13891609190533,182.71659118843888 73.88107375592763,171.06501439514184 46.26932086474616,156.1316537532498 18.620249459880796,137.7882162036945 -8.72798567307521,115.93713294888593 -35.41843305741645,90.51472870941323 -61.07852978904367,61.49417822690282 -85.3236944659808,28.888198872699775 -107.76131039413997,-7.248571923882025 -127.9950756600241,-46.81756523172794 -145.6296905294222,-89.67468481611576 -160.27584645627724,-135.62917479568125 -171.5554748418283,-184.44299601606838 -179.1072076492885,-235.83075310506075 -182.59199613611094,-289.46021013839555 -181.6988283998786,-344.9534280678862 -176.15048123279672,-401.88855155364945 -165.70923703283074,-459.80226661964764 -150.182492316212,-518.1929436461312 -129.4281808049803,-576.5244726640314 -103.35993121126029,-634.2307897757416 -71.9518777906859,-690.7210848557793 -35.24304057010215,-745.3856715556836 6.658808057115721,-797.602491133293 53.573872864333595,-846.7442118402282 105.24774205873857,-892.1858756358981 161.3495478670375,-933.3130339636016 221.47095483668357,-969.530304344667 285.1260438680709,-1000.2702697477557 351.75215340509095,-1025.002633206413 420.7117314179725,-1043.2435311278707 491.2952428296526,-1054.5649003026545 562.7251668971168,-1058.6037859325868 634.1611078109529,-1055.0714711898022 704.7060294852442,-1043.7623030452637 773.4136122592805,-1024.562084503102 839.2967151226379,-997.4559000824665 901.3369122241514,-962.5352395301193 958.4950569682318,-920.0042844440757 1009.7228110905611,-870.1852238490917 1053.9750599069394,-813.5224678832301 1090.2231186262889,-750.5856337101081 1117.4686184073335,-682.0711846250834 1134.7579449260302,-608.8026121174493 1141.1970868254748,-531.7290614053355 1135.966736767879,-451.92231367283614 1118.3374741312628,-370.57205288313696 1087.6848459274463,-288.9793615640563 1043.504151498585,-208.54840828388132 985.4247272111954,-130.77630954819665 913.2235199378872,-57.24117041686799 826.8377328182567,10.411668899645434 726.3763238301932,70.48512904629439 612.1301372746218,121.24755357532082 484.58045055534836,160.95143461771684 344.405723774195,187.8535734191139 192.4863477876048,200.23652049391706 29.90719758320563,196.43111381696366 -142.0421877988893,174.83990763195268 -321.869960023147,133.96125946504435 -507.8869913835183,72.41381915798753 -698.21469651581,-11.038858444783045 -890.7957355977724,-117.46387572378922 -1083.4076588989785,-247.73504583827656 -1273.6795199612673,-402.5097691196511 -1459.1114495876714,-582.207075808363 -1637.0971454612397,-786.987187158771 -1804.9491929187163,-1016.7329516494715 -1959.927091526471,-1271.033513627937 -2099.2678200505457,-1549.1705679051806 -2220.218729622393,-1850.1075453500089 -2320.0725118614832,-2172.4820612084222 -2396.2039459426064,-2514.6019395308113 -2446.108086640406,-2874.445103620834 -2467.439514822897,-3249.663593773652 -2458.0522332972,-3637.591939756989 -2416.0397549480144,-4035.260076581032 -2339.774897374341,-4439.4109482455715 -2227.948769345795,-4846.522895558675 -2079.6084099840473,-5252.836871078189 -1894.1925222305044,-5654.388467097684 -1671.5647284683819,-6047.044681818423 -1412.043768674717,-6426.545284930979 -1116.4300606947197,-6788.5485773588125 -786.0280486149878,-7128.681271547439 -422.66377916567126,-7442.59214914082 -28.69716793678637,-7726.009082956869 392.97155279138826,-7974.798940701275 838.9016744566844,-8185.029819738424 1305.1185639543896,-8353.034996406775 1787.1272946437027,-8475.477910797308 2279.933661130019,-8549.41744960425 2778.0728108679773,-8572.372736617112 3275.6456464806092,-8542.386593665791 3766.3630663253966,-8458.086795359066 4243.598017847579,-8318.744209748098 4700.445239360861,-8124.3268950457605 5129.788461917175,-7875.549210626665 5524.374734825688,-7573.914999548212 5876.895427225125,-7221.753910513416 6180.073345080283,-6822.249950188734 6426.755289344417,-6379.461392634871 6610.009268177882,-5898.331221720165 6723.225465494869,-5384.687345041237 6760.219961251279,-4845.231894203363 6715.340097368217,-4287.519016279137 6583.570288627886,-3719.9206646619564 6360.636991924151,-3151.580013975954 6043.11147154532,-2592.3522526194574 5628.508934338097,-2052.732647137898 5115.382558240947,-1543.7719239784853 4503.410902308693,-1076.9791751088821 3793.4771674236167,-664.2126631253601 2987.7387757380416,-317.5590772783529 2089.685754723302,-49.20197256373294 1104.186449560732,128.71969225176375 37.51914637172928,204.26181716752535 -1102.6117308846042,165.83294023057917 -2307.076084673076,2.358070118667399 -3565.3363795653027,-296.55306487243513 -4865.484612891494,-740.4351530468247 -6194.298815377224,-1337.7957756771734 -7537.319687074088,-2095.9453177601144 -8878.947763949345,-3020.830529965437 -10202.561281576925,-4116.874061793962 -11490.654656045894,-5386.822367222847 -12724.99724037322,-6831.604440955585 -13886.811739592264,-8450.20387346581 -14956.971381821848,-10239.546714161343 -15916.214648837125,-12194.407602246227 -16745.37607108821,-14307.336562525375 -17425.63129214017,-16568.60876707282 -17938.754309774362,-18966.199432291178 -18267.384509351683,-21485.78585371335 -18395.300823530004,-24110.778377622086 -18307.700085229335,-26822.38186929821 -17991.47639213262,-29599.688963020526 -17435.498075337615,-32419.806069878585 -16630.878666374887,-35258.01277755925 -15571.238089977342,-38087.954903589954 -14252.950178917261,-40881.87106263942 -12675.372515940146,-43610.8521824853 -10841.054560124589,-46245.13295577932 -8755.920014395408,-48754.41374990347 -6429.419440573453,-51108.211019629765 -3874.6492310108347,-53276.2337820642 -1108.433203807078,-55228.78322599916 1848.636696433996,-56937.172044230385 4972.203837216577,-58374.159603890505 8234.197389258648,-59514.39861298156 11602.932392956362,-60334.88850783281 15043.261475303436,-60815.43038315445 18516.77978877653,-60939.077920728836 21982.084186839904,-60692.57845165338 25395.087043943473,-60066.79801738488 28709.38447539507,-59057.124083443356 31876.67801933727,-57663.83941304993 34847.24811514804,-55892.46053235183 37570.476956642255,-53754.03421993265 39995.41752200667,-51265.38553613801 42071.40479373426,-48449.31107680674 43748.70438993303,-45334.71139496539 44979.19304290479,-41956.65688572085 45717.06459201671,-38356.38187579719 45919.55441630557,-34581.20220070033 45547.67452901432,-30684.352189003013 44566.95090267472,-26724.73770316009 42948.15400087892,-22766.602706774564 40668.012972993354,-18879.107735196023 37709.90353207972,-15135.819634249952 34064.49919525234,-11614.112993905936 29730.3753302188,-8394.484831545413 24714.55533181737,-5559.7852635638465 19032.98825720851,-3194.3681333704812 12710.947386315,-1383.1668261853977 5783.339452300054,-210.70178285911032 -1705.0852887083963,239.97248835795685 -9699.631404303265,-111.62817271205353 -18135.673575749195,-1342.2720587390318 -26938.796474367035,-3523.8364984585073 -36025.06582956285,-6722.11585116891 -45301.43610406877,-10995.6263198642 -54666.29885527046,-16394.422270747116 -64010.17438453459,-22958.93958851383 -73216.54766820403,-30718.882301661557 -82162.8478356038,-39692.1692622157 -90721.56862446236,-49883.95804249834 -98761.52531828922,-61285.76340164862 -106149.24167132001,-73874.68766158984 -112750.45827462662,-87612.78010258023 -118431.75173386642,-102446.54203074155 -123062.25193873148,-118306.59347443709 -126515.44263198209,-135107.51652580296 -128671.02845901359,-152747.88915341577 -129416.84972544035,-171110.52187008108 -128650.82423942226,-190062.90794713437 -126282.89389731533,-209457.89592774585 -122236.95211592913,-229134.59101414 -116452.72685251135,-248919.4894984285 -108887.5928143989,-268627.84778870374 -99518.285573216,-288065.28476934944 -88342.48969145292,-307029.61324921786 -75380.27266855074,-325312.89311894984 -60675.33654350572,-342703.6955884321 -44296.05937324524,-358989.56453967764 -26336.299559476884,-373959.6576451005 -6915.9371368594675,-387407.5465050382 13818.87232610717,-399134.1516929307 35695.7536175681,-408950.7853057603 58516.497614810636,-416682.2704471444 82057.79414888717,-422170.1040683117 106072.32613096584,-425275.62680673663 130290.23552204571,-425883.16094263876 154420.9678104354,-423903.0753889636 178155.49739888,-419274.73478942504 201168.9317253494,-411969.28836897964 223123.48708407875,-401992.25320696033 243671.8240181905,-389385.84612773894 262460.7248696068,-374231.01846656826 279135.0906489432,-356649.1486043384 293342.2288859553,-336803.3484049538 304736.3986030363,-314899.34155790595 312983.57308780577,-291185.87434516056 317766.3757974122,-265954.6225279535 318789.1395816253,-239539.56188998936 315783.0345412254,-212315.77447572374 308511.20532173035,-184697.66771409995 296773.85456001875,-157136.58939875936 280413.20563270565,-130117.82787552412 259318.27487908406,-104156.99372767172 233429.3811647476,-79795.7867003361 202742.31908816504,-57597.15950881995 167312.12138071973,-38139.898463699195 127256.33617480924,-22012.64944100624 82757.74587158595,-9807.426542131823 34066.45637920124,-2112.6497305362154 -18498.711445614506,494.2333019016103 -74549.59220475373,-2545.523092988145 -133628.8670793345,-11763.953917068033 -195211.128261107,-27658.177252495145 -258704.86195077578,-50682.07937877904 -323455.3867833666,-81237.98766462338 -388748.775123925,-119668.43423359715 -453816.7742878834,-166248.11917932043 -517842.7334435152,-221176.18691642358 -579968.5298287421,-284568.9329734838 -639302.4750566073,-356453.0610442658 -694928.1688035941,-436759.6113013441 -745914.2531991246,-525318.6807386825 -791325.0069032492,-621855.0545540649 -830231.7033274481,-725984.8642288416 -861724.6428878856,-837213.3829458877 -884925.7547603932,-954934.0622580554 -899001.6495209369,-1078428.9054477224 -903176.9905020774,-1206870.2627919721 -896748.0388792414,-1339324.121977307 -879096.2156291204,-1474754.9532244997 -849701.5127873231,-1612032.1533438955 -808155.5770842927,-1749938.1160240914 -754174.2812651447,-1887177.9372671165 -687609.5924028367,-2022390.7451512872 -608460.5424885438,-2154162.622184584 -516883.104710208,-2281041.0665870546 -413198.7792776057,-2401550.916116161 -297901.6955697106,-2514211.6347532067 -171664.042896697,-2617555.83895335 -35339.65039017229,-2710148.9164987756 110034.45246000291,-2790609.567575786 263238.6492661737,-2857631.0748290783 422873.66215606104,-2910003.0871521523 587365.907571614,-2946633.6811837237 754975.3785834531,-2966571.4452352664 923806.1248574711,-2969027.3130175564 1091819.37385861,-2953395.859406511 1256849.3069372168,-2919275.7579285027 1416621.4718289857,-2866489.08998047 1568773.7790638763,-2795099.1893451437 1710879.9941174416,-2705426.702611795 1840475.6001842539,-2598063.54693926 1955085.868580876,-2473884.4514435534 2052255.9354048586,-2334055.7775662583 2129582.644629591,-2180041.3272517547 2184747.879776695,-2013604.8657589264 2215553.0691786157,-1836809.1085352423 2219954.5141465436,-1652010.9488150063 2196099.1556331855,-1461852.7344410568 2142360.3637776733,-1269249.438762269 2057373.3065980766,-1077371.6111780491 1940069.429611863,-889624.0377716466 1789709.5578645826,-709620.0912164418 1605915.1162644022,-541151.8014061739 1388696.9537651336,-388155.73363744636 1138481.2522919145,-254674.81918018265 856132.0028014974,-144816.3431634302 542969.5389066854,-62706.35627234859 200784.63340899206,-12440.83913000831 -168152.3148482903,1965.9892963446414 -561087.4469704652,-23364.233857295603 -974785.3691003311,-92118.03145742886 -1405537.198426541,-207732.78437565442 -1849175.040020947,-373338.7374430046 -2301093.145170849,-591700.9899995317 -2756275.935542361,-865162.193243509 -3209333.0044456725,-1195586.7162141062 -3654541.1271296996,-1584307.0750493458 -4085893.226979301,-2032073.4452826388 -4497154.1543981,-2539007.0935488893 -4881923.040817695,-3104558.5723882634 -5233701.89256872,-3727471.519149217 -5545969.9892706685,-4405752.886665507 -5812263.550031689,-5136650.408867894 -6026260.029272388,-5916638.068346279 -6181866.3036524495,-6741410.284772111 -6273309.913711658,-7605885.482821962 -6295232.429820018,-8504219.62574665 -6242783.92329215,-9429830.216088291 -6111717.441517279,-10375431.168500986 -5898482.312158083,-11333078.851581834 -5600315.037348897,-12294229.476643285 -5215326.4858193,-13249807.882203246 -4742584.050390068,-14190287.62455777 -4182187.411674551,-15105782.138241401 -3535336.537331933,-15986146.576743705 -2804390.5510132215,-16821089.784987178 -1992916.127249056,-17600295.692396775 -1105724.1088337852,-18313553.250670414 -148893.10248071514,-18950893.875507478 870221.1128112641,-19502735.188607533 1942991.431805055,-19960029.697375286 3059541.4723098557,-20314416.897200514 4208784.6384960795,-20558377.13725253 5378480.851672962,-20685385.45780139 6555311.425931724,-20690063.487545922 7724972.372298351,-20568327.38567294 8872286.20477618,-20317529.727746595 9981332.096397966,-19936593.1693022 11035593.99494942,-19426133.678381506 12018126.058453284,-18788571.110234708 12911734.512175394,-18028224.905903973 13699174.764457896,-17151392.733061213 14363362.350983018,-16166409.953735566 14887596.009230524,-15083687.900583081 15255790.920242066,-13915729.071985185 15452719.896847941,-12677117.517025007 15464260.049905164,-11384482.874433141 15277642.230613923,-10056436.754686084 14881700.331472447,-8713480.410913438 14267117.334783249,-7377882.931050389 13426664.82970998,-6073529.4992122445 12355432.580514677,-4825739.616572925 11051044.623483876,-3661055.538634321 9513858.3017075,-2607001.5737424195 7747142.618626031,-1691815.2936471377 5757232.306142318,-944152.1269674642 3553654.0638093357,-392765.23633321363 1149221.534468065,-66163.01504068343 -1439904.2594074763,7753.025784763337 -4194192.084127484,-197933.22131170786 -7090758.070941999,-708761.1496008931 -10103426.187967971,-1548493.360138828 -13202833.728932656,-2738711.2164600003 -16356583.52182359,-4298410.781617087 -19529444.093403116,-6243604.200895967 -22683598.511748888,-8586931.865273472 -25778942.07179141,-11337290.914266106 -28773428.392258387,-14499485.806234142 -31623462.86128953,-18073906.793722767 -34284341.70778466,-22056242.185662385 -36710734.29257602,-26437230.25230598 -38857205.51471205,-31202456.52824613 -40678774.521177314,-36332202.090021655 -42131505.20146978,-41801348.124642685 -43173123.25042025,-47579341.76163678 -43763653.902753085,-53630227.71262958 -43866073.79081627,-59912749.74866262 -43446969.76263491,-66380525.44711168 -42477196.93113084,-72982296.95897183 -40932527.71727268,-79662259.78637144 -38794283.210277654,-86360470.7235613 -36049937.806850255,-93013335.20765848 -32693687.81855122,-99554173.3546655 -28726974.56105591,-105913862.92954516 -24158952.369992025,-112021556.4254219 -19006892.03323105,-117805468.31654419 -13296510.296019398,-123193727.41378754 -7062216.389244803,-128115288.10268065 -347266.9573067418,-132500893.09559005 6796178.675942481,-136284079.1961384 14307110.264792094,-139402216.47022736 22115831.946021106,-141797570.1599625 30144246.637528673,-143418373.6804935 38306263.968718044,-144219900.12188023 46508334.94051129,-144165518.855203 54650115.150442876,-143227723.13088107 62625256.94180221,-141389113.97385246 70322329.25593242,-138643325.2407429 77625862.29631963,-134995874.42350554 84417512.36671777,-130464923.67637911 90577340.43988623,-125081935.62131034 95985196.16708726,-118892208.76273009 100522197.17149363,-111955277.82548979 104072291.6030075,-104345165.02782187 106523890.0909001,-96150469.21998899 107771551.4388175,-87474280.96233733 107717704.6894856,-78433912.98438673 106274388.57046342,-69160437.05763894 103364987.84416196,-59798020.1238699 98925944.7524298,-50503054.54014846 92908422.59498382,-41443079.52041617 85279897.53864723,-32795493.257136963 76025654.04611014,-24746057.777558822 65150158.863619745,-17487201.30696451 52678288.33914099,-11216125.75173276 38656383.97750635,-6132729.851168927 23153111.595014513,-2437361.54859293 6260100.229168033,-328416.16629612865 -11907661.898025185,200.00000001458292" stroke="white" stroke-width="1.5" /><circle cx="191.49830218033995" cy="249.27191019417847" fill="red" opacity="0.7" r="10.646424733950354" /><circle cx="180.69113542661592" cy="246.1212288310569" fill="red" opacity="0.7" r="10.646424733950354" /></svg>