<?xml version="1.0" encoding="utf-8" ?>
<svg baseProfile="full" height="400" version="1.1" width="400" xmlns="http://www.w3.org/2000/svg" xmlns:ev="http://www.w3.org/2001/xml-events" xmlns:xlink="http://www.w3.org/1999/xlink"><defs /><rect fill="black" height="100%" width="100%" x="0" y="0" /><circle cx="200" cy="200" fill="yellow" r="10.000000839085635" stroke="orange" stroke-width="2" /><polyline fill="none" points="200.39162765610084,200.0 200.34215626606476,200.01796164097064 200.2874116518389,200.03025898441607 200.22779734155876,200.03614079229536 200.16380696352914,200.03487811196786 200.09602422199032,200.02577459962254 200.02512175339166,200.00817712163715 199.951858802511,199.98148652033896 199.87707766837974,199.945168420982 199.80169888192987,199.89876394798387 199.72671509050778,199.84190021074696 199.653183638827,199.77430041289063 199.5822178514528,199.695793433607 199.5149770384095,199.60632272627637 199.45265526283578,199.50595437758992 199.39646892762528,199.39488417036145 199.3476432564981,199.27344349509056 199.30739776376015,199.1421039592723 199.27693082590562,199.00148054952467 199.25740348697275,198.85233320988854 199.24992264793684,198.6955667101947 199.25552380815452,198.5322286912046 199.27515354370573,198.36350578831303 199.30965192313624,198.1907177529114 199.35973507531756,198.0153095099882 199.4259781366331,197.83884111208798 199.508798815205,197.6629755732345 199.6084418181249,197.48946459168369 199.72496439339582,197.32013219721318 199.85822324128958,197.1568563868492 200.00786304985178,197.00154884221965 200.17330690615012,196.85613285180924 200.3537488283831,196.72251959196365 200.54814865400576,196.60258295119186 200.755229505477,196.4981331127776 200.9734780380136,196.41088914053944 201.20114765282605,196.3424508413565 201.4362648347127,196.29427020537807 201.67663874467158,196.26762275022165 201.9198741664537,196.26357911848925 202.16338787089106,196.28297729815287 202.4044284235993,196.3263958523383 202.64009942054003,196.39412855834124 202.8673860922557,196.48616086493138 203.0831851717268,196.60214858174933 203.28433787317434,196.74139921452087 203.46766578021504,196.90285635457715 203.6300093920901,197.08508752050338 203.76826902680344,197.28627583340509 203.8794477305247,197.5042158851087 203.96069579417968,197.73631413048358 204.00935643144115,197.9795941009392 204.0230121280392,198.23070669603328 203.99953113114842,198.48594576412546 203.93711351029873,198.74126913130428 203.83433618852155,198.99232518066083 203.69019631499535,199.23448502173164 203.50415232899135,199.4628802230147 203.2761620501082,199.6724460093987 203.0067171222543,199.85796975174074 202.69687313916805,200.01414449837594 202.34827478798522,200.13562721881175 201.96317536491736,200.21710134910575 201.5444500438743,200.2533431473663 201.0956023151279,200.23929128744217 200.620763057059,200.1701190402219 200.12468175973265,200.04130831614606 199.61270948446824,199.84872477067123 199.09077321854738,199.5886931076777 198.56534136844246,199.25807165535528 198.0433802280225,198.85432523610345 197.53230135953714,198.3755953076073 197.03989993408516,197.82076631762462 196.57428419389262,197.18952719122706 196.14379632007171,196.48242685730335 195.75692511547305,195.70092272199244 195.4222110415301,194.8474210112208 195.14814427923227,193.92530793340185 194.9430566160581,192.9389706572187 194.8150080912389,191.89380715871465 194.77166945940903,190.79622406695432 194.8202016557482,189.65362172841003 194.96713356229637,188.4743658169079 195.2182394833359,187.26774493816305 195.57841783568517,186.04391381516402 196.05157264552395,184.81382179223158 196.64049951509472,183.5891265605526 197.34677777845863,182.38209318521857 198.17067060367404,181.20547870190018 199.11103481765122,180.0724027486479 200.16524222799157,178.9962049030927 201.3291141919727,177.99028960547625 202.59687113530487,177.06795976121657 203.96109865138504,176.24224033066122 205.41273171477584,175.52569342568893 206.94105842006024,174.9302266401141 208.5337445088855,174.46689654054177 210.1768797740287,174.1457094334105 211.85504723013747,173.9754216993952 213.55141571721657,173.9633421450128 215.24785635608828,174.11513896009325 216.92508300646568,174.4346539856841 218.56281658982846,174.92372708697516 220.13997283323843,175.5820334871052 221.63487266920552,176.40693694755754 223.02547419370455,177.39336167679087 224.28962474279072,178.5336858085634 225.40533130163595,179.81765921317228 226.35104711219176,181.23234828697406 227.10597200133193,182.7621102068831 227.6503636147453,184.3885989363085 227.9658564177405,186.09080502688948 228.03578501736223,187.84513097663324 227.8455080757732,189.6255035803898 227.38272882777107,191.40352434430739 226.63780799060618,193.14865863388872 225.60406466691438,194.8284637879724 224.27806069641022,196.40885596148675 222.6598638136301,197.85441496183873 220.75328492183218,199.12872582160048 218.56608480116452,200.19475530861234 216.11014563600176,201.0152610191752 213.40160287502968,201.55323013663462 210.46093313077063,201.77234437284307 207.3129940847054,201.63746705065384 203.98701269117353,201.1151477390741 200.51651836828154,200.17413932664414 196.9392183267584,198.7859219209276 193.29681271684842,196.92522750078757 189.63474786678253,194.57055883156082 186.00190654105623,191.70469578950622 182.45023485860966,188.31518193904984 179.034306275039,184.3947839722264 175.81082384314624,179.9419164618401 172.83806281547865,174.9610243053046 170.1752565330694,169.4629152513851 167.88192944750656,163.4650350129727 166.01718203899586,156.9916776806051 164.6389333106929,150.07412446781592 163.80312744799576,142.75070424362798 163.56291211878164,135.06676984154836 163.96779674429973,127.07458477899614 165.06279987771924,118.83311577556086 166.8875955750292,110.40772732084692 169.47566931779906,101.86977550938515 172.85349463596424,93.29609942616581 177.03974206820112,84.76840952514253 182.04453247486646,76.37257368638699 187.86874697170617,68.19780295560926 194.50340587011385,60.33574035113034 201.92912898109654,52.879457555135644 210.11568945584781,45.92236577372546 219.02167298780714,39.55704853805483 228.59425368265306,33.87402570955925 238.76909720888577,28.96045942753659 249.47040096937846,24.898814177821947 260.6110799824119,21.765484546699042 272.09310593032615,19.62940553359681 283.8080054283564,18.550661508175892 295.63752199123917,18.579110990481468 307.4544444390126,19.753045385379664 319.1236025969026,22.09790059324297 330.5030291206826,25.62504102711094 341.445284134414,30.33063597255591 351.79893712059567,36.194648411626645 361.41019817457186,43.179956379415785 370.1246883490806,51.23162661573204 377.7893363968875,60.27635970190454 384.2543867974735,70.22212502314781 389.3755015576046,80.95800276223773 393.01593593682986,92.35424870544723 395.04876600048294,104.26259592510435 395.3591437786055,116.51680539655571 393.84655384414737,128.93347531628248 390.42704335289875,141.31311632187834 385.0353960459337,153.44149698705962 377.62721943740894,165.09126089349132 368.18091342994654,176.02381328786075 356.69948794862313,185.99147184340887 343.21219689297743,194.73987239033713 327.7759558021428,202.01061669348928 310.4765111359417,207.54414547682097 291.42933001585794,211.0828159643941 270.7801806615155,212.37415927248355 248.70537561353638,211.1742890954332 225.4116521603714,207.25142933046152 201.13566718753717,200.38952463726093 176.1430869395664,190.39189448227444 150.72725591872504,177.0848880314553 125.20743332465871,160.32149438616136 99.92659004350388,139.9848601615229 75.24876419474121,115.99166434121203 51.55597860353771,88.29529876156356 29.24472924282378,56.888801533487225 8.72205963362407,21.807490251569362 -9.598757651900627,-16.868757988951756 -25.30290493499382,-59.01363190492361 -37.97903498661259,-104.45296725873112 -47.2245779667565,-152.9638323240481 -52.651293197374144,-204.2741628625227 -53.8910130544121,-258.06298809078504 -50.60152034242054,-313.9612845475956 -42.472494925741614,-371.5534894363143 -29.23146022549841,-430.3796989332445 -10.649655544074335,-489.9385701433839 13.452243859014033,-549.6909378876906 43.19864035295714,-609.0641493675473 78.65384514404813,-667.4571110308123 119.81731274142155,-724.2460327292546 166.61936503572218,-778.7908445897261 218.91749104112984,-830.442252012461 276.49330695514385,-878.5493839610403 339.0502586479497,-922.4679793312032 406.2121449588846,-961.5690458004342 477.5225352181459,-995.2479152956864 552.445148207057,-1022.9336102085051 630.3652523138055,-1044.098424876997 710.5921379423016,-1058.2676177885621 792.3627033149886,-1065.0291015855717 874.8461837175888,-1064.0430104286447 957.1500420242807,-1055.0510177391257 1038.3270250927726,-1037.8852719517286 1117.3833764253325,-1012.4768138036027 1193.2881804673548,-978.8633360044757 1264.9837981908342,-937.1961450028518 1331.3973373348326,-887.7461851033311 1391.4530840142543,-830.9089875051834 1444.085805543487,-767.2084110124732 1488.2548174488616,-697.299047284114 1522.9586909726277,-621.9671716020445 1547.2504611225265,-542.1301302696991 1560.2531797250024,-458.83406792061317 1561.175643234822,-373.24991220328536 1549.3281114816666,-286.6675494719444 1524.137821339977,-200.488143185043 1485.1640887359767,-116.21456659717103 1432.1127836955102,-35.439942899604176 1364.849956521096,40.165690935551 1283.4143888892393,108.8705559074915 1188.0288418880855,168.89807205846446 1079.1097739621714,218.44547612295676 957.2753055658867,255.70399592719727 823.3512141955024,278.88043430317487 678.3747534895429,286.2199878679547 523.5961033449121,276.03009894181605 360.4772745436494,246.70511249688604 190.6883112369322,196.7514847162899 16.100657763307282,124.81326588891075 -161.22241738104003,29.69755836096971 -339.0384181635053,-89.60036948951677 -514.9412835935926,-233.8726493994307 -686.3801265136301,-403.675409707384 -850.6810212664454,-599.3067630613914 -1005.0717731363657,-820.7865531148226 -1146.709560863063,-1067.83823075211 -1272.7113004964801,-1339.8732287363482 -1380.1865348351944,-1635.9781973229133 -1466.2726081510991,-1954.9054521008538 -1528.1718413696294,-2295.06696891669 -1563.1903789015848,-2654.532239064562 -1568.7783354944522,-3031.03027090949 -1542.5708303972558,-3421.9559917246306 -1482.4294574420767,-3824.381265812415 -1386.48370397835,-4235.070702055999 -1253.171799598934,-4650.5023760958275 -1081.2804479136894,-5066.8935396070765 -869.9828718904744,-5480.2313320027815 -618.8745861085638,-5886.308448719693 -328.00629824247494,-6280.763655550886 2.086662236751863,-6659.126970839471 370.3589872878607,-7016.869267385072 775.2346940852159,-7349.455974355337 1214.5916594566822,-7652.404487120332 1685.7519281931966,-7921.344820585546 2185.478303019736,-8152.082970191221 2709.9776798979556,-8340.666375222037 3254.9115394884893,-8483.45081242358 3815.413944109989,-8577.167985173295 4386.117319575884,-8618.993015642409 4961.186223175221,-8606.610995566181 5534.359213212881,-8538.281706454303 6098.998842488887,-8412.90158335244 6648.149698552225,-8230.061968606358 7174.604308313492,-7990.102684431711 7670.976614570324,-7694.159946346422 8129.782618239328,-7344.2076444936565 8543.52766376197,-6943.091037292247 8904.799727536401,-6494.551932317014 9206.367951698896,-6003.244473328625 9441.285549604963,-5474.740710300036 9602.996096488396,-4915.5252013382105 9685.442110619413,-4332.9779816222945 9683.174728499822,-3735.3453347515656 9591.463183919748,-3131.6979159110424 9406.402716760427,-2531.875903521516 9125.019464961657,-1946.4209958484844 8745.37083375047,-1386.4952205022664 8266.639791666714,-863.7866867651721 7689.221514665598,-390.40258192259 7014.800789070625,21.250108258459903 6246.418592711181,358.59548977637877 5388.526302377734,609.030407138885 4447.026025765165,760.075801230315 3429.2956281438455,799.5365419841523 2344.197118686011,715.6683111844832 1202.0671790126623,497.34992746631985 14.688757190372968,134.25933005616807 -1204.7571861104611,-382.94872730801694 -2441.7605067899713,-1062.4653727622897 -3680.571802029476,-1911.1529394655063 -4904.313723095246,-2934.375269231872 -6095.113722257292,-4135.835446207978 -7234.258016223872,-5517.4234819461 -8302.366269919936,-7079.076518463531 -9279.58621337876,-8818.65413222225 -10145.807103753963,-10731.83130727514 -10880.890637086344,-12812.011598209132 -11464.917603857897,-15050.262921359847 -11878.4482721803,-17435.278294784235 -12102.794176584754,-19953.363692725903 -12120.298692898356,-22588.45498825693 -11914.623494870442,-25322.165728318236 -11471.037720443412,-28133.867218859334 -10776.706429319693,-31000.802095032137 -9820.974713262885,-33898.23221375945 -8595.643630871336,-36799.621335343094 -7095.233983779927,-39676.852659500706 -5317.233835642931,-42500.480852260276 -3262.3256028918163,-45240.017746984515 -934.5885209420642,-47864.250429460466 1658.3276852926513,-50341.58992800657 4505.062018960559,-52640.44822995662 7590.438274350705,-54729.6408411912 10895.401709722217,-56578.81160151824 14396.999841149664,-58158.8759720083 18068.410555053855,-59442.478527497886 21879.020362717347,-60404.45992534165 25794.555185518777,-61022.32818724338 29777.265566237507,-61276.728731906616 33786.16765177918,-61151.907239639964 37777.34068910149,-60636.15912320076 41704.28112289966,-59722.25912922457 45518.31268554745,-58407.86440848848 49169.05113255546,-56695.88427757363 52604.921506958235,-54594.80985539435 55773.72502096873,-52118.99680116261 58623.25183113761,-49288.89451061599 61101.935163095906,-46131.215348986945 63159.54142340442,-42679.03781558721 64747.890129368854,-38971.8379484329 65821.59670373997,-35055.44378940893 66338.83043128435,-30981.908341297956 66262.07916987628,-26809.297156584602 65558.91176185435,-22601.38750203423 64202.72851379961,-18427.276939026095 62173.48961644553,-14360.900142501892 59458.410972743695,-10480.453844761609 56052.616602415364,-6867.730926381936 51959.736606309365,-3607.365875949395 47192.439613544266,-785.9950924495894 41772.88870783966,1508.6632030313888 35733.11004468678,3188.8033595068223 29115.263734883956,4167.593572552701 21971.80708790574,4360.295295551783 14365.540984459034,3685.430726142359 6369.530983569897,2065.98703557315 -1933.104234027307,-569.3552083505922 -10449.543329215856,-4284.983116484438 -19077.75660729819,-9137.11679213816 -27707.147633642235,-15172.594559406829 -36219.34403518652,-22427.694585229667 -44489.137629963785,-30927.01002642025 -52385.572178241,-40682.395315553695 -59773.17509772119,-51692.00149548044 -66513.32744890398,-63939.418605170344 -72465.76439478822,-77392.94299482899 -77490.19619338089,-92004.98709274673 -81448.03761570138,-107711.64854910453 -84204.23152174748,-124432.45483421256 -85629.15019946208,-142070.29826416422 -85600.55600576784,-160511.57506221998 -84005.6008740335,-179626.54043887052 -80742.8423995916,-199269.88979034743 -75724.25251534795,-219281.57398040313 -68877.19325450956,-239487.8542932262 -60146.33279822379,-259702.60003973957 -49495.4739530842,-279728.82898237015 -36909.26642660171,-299360.48773551884 -22394.77379603023,-318384.46612508077 -5982.865923614613,-336582.8361788402 12270.592216709101,-353735.30300233245 32283.78374878717,-369621.8513072897 53948.24260696573,-384025.567840775 77128.44183122081,-396735.61645415437 101661.69171859886,-407550.3390965583 127358.36987674102,-416280.4526640543 154002.50257367748,-422752.3084318366 181352.71370765078,-426811.17779225006 209143.55424162422,-428324.5252671696 237087.22107523828,-427185.22731008334 264875.6700841651,-423314.69331195304 292183.1234710444,-416665.843525253 318668.9666774906,-407225.8973704946 343981.02494328853,-395018.9248347695 367759.2042130705,-380108.1134549533 389639.47553460544,-362597.7037378368 409258.1764239579,-342634.54683988856 426256.5969543703,-320409.2399393002 440285.81262534973,-296156.79700531246 451011.72045841586,-270156.8156206321 458120.2293220789,-242733.1041508014 461322.55028966453,-214252.73788037847 460360.5279607377,-185124.5177420601 455011.94921255583,-155796.81093468927 445095.7618750433,-126754.7590333301 430477.1324236223,-98516.84610352041 411072.2690395904,-71630.82679678823 386852.934375493,-46669.022369882805 357850.57115729037,-24223.0009703938 324159.96342505,-4897.667291124125 285942.35682211263,10695.204270158914 243427.96294453164,21943.94959411606 196917.77540466934,28244.455321997862 146784.6289819174,29007.997931629598 93473.43805551647,23669.41039138774 37500.55645324686,11695.496538504382 -20547.79209376333,-7406.395108522414 -80018.05553859359,-34079.73429709352 -140192.90055838527,-68710.21217725342 -200295.78818353591,-111617.2944925837 -259496.58990419083,-163046.0401887156 -316918.2439918017,-223159.3052353376 -371644.4388125181,-292030.45469670184 -422728.29624461394,-369636.70801140886 -469202.014066755,-455853.24294270657 -510087.4114960635,-550448.1826340283 -544407.3070776528,-653078.5875614907 -571197.6430275677,-763287.5698402167 -589520.2550885358,-880502.6412552942 -598476.1721634932,-1004035.3985092985 -597219.3156462258,-1133082.6394845753 -584970.4546801972,-1266728.992809025 -561031.2607599356,-1403951.129710382 -524798.2933621237,-1543623.612091387 -475776.73787463346,-1684526.4140270115 -413593.708198331,-1825354.1355705366 -338010.9192414149,-1964726.9079797696 -248936.52931480223,-2101202.968386277 -146435.9493645507,-2233292.8597033345 -30741.4152250677,-2359475.1884028427 97739.87919036884,-2478213.8489131816 238419.28548263529,-2587976.599047808 390522.03174980776,-2687254.846340494 553084.5616047306,-2774584.4807297573 724954.0489956044,-2848567.565012803 904790.2407722228,-2907894.671204675 1091069.7601653216,-2951367.628730443 1282092.982656901,-2977922.429595595 1475993.571190688,-2986652.016676048 1670750.7304188458,-2976828.66440022 1864204.2098603367,-2947925.6467144345 2054072.0536568372,-2899637.875674453 2237971.0602957117,-2831901.185624242 2413439.879510836,-2744909.9330243594 2577964.6358971917,-2639132.5808705282 2729006.9299514624,-2515324.939565372 2864034.0276845684,-2374540.743307475 2980551.010085188,-2218139.2527384344 3076134.6140220696,-2047789.5908954463 3148468.4571629334,-1865471.5405612972 3195379.301689447,-1673472.5569407458 3214873.9755530064,-1474380.7802220725 3205176.536311222,-1271073.8679449623 3164765.231785077,-1066703.5070677544 3092408.784459796,-864675.5100201467 2987201.5032917266,-668625.4475855784 2848596.7079395396,-482389.8238553658 2676437.9369525,-309972.8543400311 2470987.4036344006,-155508.96714759615 2232951.161636329,-23221.208412869437 1963500.447246815,82624.20371373702 1664288.677224234,157766.86789433163 1337463.6001719488,198004.35784099778 985674.1261404961,199247.11207581763 612071.3935258704,157575.55397509705 220303.67450646078,69298.87949897513 -185495.22977962557,-68985.10846507204 -600724.3954700772,-260329.79488040702 -1020341.2096515389,-507379.9021170867 -1438893.9851924386,-812312.764179505 -1850561.8313991518,-1176781.5331247996 -2249201.769876487,-1601861.1552917694 -2628402.9941103444,-2087997.9766583133 -2981548.0756033906,-2634963.849108495 -3301880.81975128,-3241815.6118449173 -3582580.3720214693,-3906860.813927092 -3816841.070466264,-4627630.524337488 -3997957.435339342,-5400860.044559463 -4119413.5818504514,-6222478.294992546 -4174976.2392254295,-7087606.590355042 -4158790.459641718,-7990567.450390688 -4065477.0057428204,-8924904.010715542 -3890230.3167935996,-9883410.504679477 -3628915.8726434256,-10858174.181003917 -3278165.7030398417,-11840628.904205931 -2835470.7289946578,-12821620.556108734 -2299268.574324812,-13791484.217938676 -1669025.4505990949,-14740132.96467189 -945310.6988685732,-15657157.947651427 -129862.56799793831,-16531939.279463472 774356.1767177439,-17353767.0682241 1763114.1886762106,-18111971.778545313 2830880.341311756,-18796062.925422464 3970806.646692058,-19395874.937173277 5174726.450605257,-19901718.856534537 6433168.951011124,-20304538.38737282 7735390.9538185485,-20596068.640559174 9069426.62677047,-20768995.788833514 10422155.839312613,-20817115.709403496 11779391.484526219,-20735489.577072065 13125985.969636708,-20520594.272316743 14445956.835687704,-20170465.390357666 15722631.226406503,-19684830.581159685 16938808.67309912,-19065230.918715067 18076941.398898665,-18315127.99287107 19119331.074442618,-17439994.440249823 20048340.680925157,-16447385.684061658 20846619.858570494,-15346990.737180686 21497341.842238385,-14150660.039787376 21984449.81465021,-12872408.452886464 22292910.245324973,-11528391.712442495 22408970.533599213,-10136854.865687946 22320418.04102412,-8718051.460891314 22016837.386008736,-7294132.543625557 21489862.68582567,-5889004.824985423 20733421.272013266,-4528157.728437445 19743965.278689202,-3238459.3897316926 18520687.413092278,-2047922.0757614442 17065717.16734401,-985437.900144132 15384293.723272407,-80486.14185954894 13484911.841137867,637186.0856965062 11379437.110861536,1137907.6190532066 9083187.083046552,1392448.8346305322 6614974.988392048,1372405.947665231 3997112.9991706847,1050600.4829859785 1255372.2858279285,401489.9545746395 -1581102.5246256816,-598414.614338843 -4479926.474681764,-1970129.076895377 -7405656.514060559,-3731779.544464475 -10320023.867495313,-5898194.159285276 -13182216.995419405,-8480508.909716647 -15949215.011883402,-11485793.344141643 -18576170.78709582,-14916702.184620582 -21016842.29201076,-18771158.921518497 -23224070.045474667,-23042077.480184678 -25150297.807471123,-27717127.985514257 -26748132.932541486,-32778552.505655646 -27970942.06374449,-38203036.42872705 -28773477.11839681,-43961640.81345562 -29112525.801681306,-50019800.65431085 -28947580.192861456,-56337393.51311065 -28241516.291481856,-62868882.392383955 -26961276.798031352,-69563536.06226902 -25078548.845691882,-76365729.30484135 -22570427.90762306,-83215324.7111594 -19420058.688257158,-90048136.76188056 -15617243.477587882,-96796477.94823319 -11159008.21430822,-103389785.65384877 -6050116.376253153,-109755327.42822656 -303520.8035913913,-115818981.14937119 6059256.330588984,-121506085.40761302 13007824.949415902,-126742354.25710857 20502719.07524663,-131454849.2894739 28495288.068658955,-135573000.79976368 36927695.11141178,-139029668.65388146 45733030.143850565,-141762232.34445712 54835543.526582174,-143713698.65583572 64151005.614639096,-144833814.36509356 73587196.21374339,-145080170.50214753 83044526.538697,-144419283.8953323 92416794.8213638,-142827641.0563646 101592075.13025235,-140292688.9270796 110453737.27753817,-136813756.63579175 118881593.91668072,-132402892.20872301 126753169.0908831,-127085598.16576119 133945080.59771621,-120901450.11249574 140334526.6083813,-113904582.83309138 145800865.0431378,-106164029.00026987 150227272.28082994,-97763896.45656696 153502465.8949663,-88803371.08978909 155522474.28754634,-79396533.6274597 156192434.3616189,-69671980.20933716 155428396.76218945,-59772238.36040405 153159116.75034896,-49852971.972337976 149327807.48571086,-40081971.09972273 143893831.40482572,-30637924.77487118 136834304.52566373,-21708977.625803184 128145587.90618302,-13491073.825659914 117844640.16343774,-6186094.785559103 105970204.94100073,199.99999987022417" stroke="white" stroke-width="1.5" /></svg>