<?xml version="1.0" encoding="utf-8" ?>
<svg baseProfile="full" height="400" version="1.1" width="400" xmlns="http://www.w3.org/2000/svg" xmlns:ev="http://www.w3.org/2001/xml-events" xmlns:xlink="http://www.w3.org/1999/xlink"><defs /><rect fill="black" height="100%" width="100%" x="0" y="0" /><circle cx="200" cy="200" fill="yellow" r="20" stroke="orange" stroke-width="2" /><polyline fill="none" points="199.17954209302155,200.0 199.21547668730472,199.95881610985003 199.2587661787338,199.92196216645064 199.3092061132509,199.89040329351926 199.36648416690258,199.8651105198208 199.4301766345135,199.84704932988205 199.4997460631377,199.83716752459875 199.5745401362138,199.83638249678793 199.65379190587956,199.84556804106123 199.7366214606509,199.86554083119165 199.82203910364808,199.8970467112114 199.90895010278817,199.9407469585992 199.99616105891442,199.99720468887844 200.08238792077665,200.06687158053867 200.16626565721867,200.15007510720136 200.24635957699863,200.24700647016954 200.32117826552127,200.3577094287358 200.38918808558094,200.48207022768358 200.44882916620546,200.61980882113815 200.49853278008555,200.77047158914564 200.536739986126,200.93342573795437 200.56192138963772,201.10785556683038 200.5725978488981,201.29276077327714 200.567361933554,201.48695695469527 200.54489991794793,201.6890784477938 200.5040140712565,201.89758362745934 200.44364498667662,202.11076276436123 200.36289367413565,202.32674851540227 200.26104312547739,202.54352909335273 200.13757904813346,202.75896413179348 199.99220945326078,202.9708032290623 199.82488277753248,203.17670712049483 199.63580421451124,203.37427139217596 199.42544993208858,203.56105261200847 199.19457885708925,203.73459671553306 198.94424171703253,203.89246944501792 198.67578704238497,204.03228860131745 198.39086385056666,204.15175782936385 198.09142075556892,204.24870162040128 197.77970127433443,204.3211011777363 197.45823513302085,204.3671307584005 197.12982541282716,204.38519407126608 196.79753141606307,204.37396028338415 196.46464717837267,204.3323991611945 196.1346756022057,204.2598148523426 195.8112982394128,204.15587779767466 195.49834080681532,204.020654252085 195.1997345772765,203.85463288775028 194.91947384963427,203.65874795435192 194.66156976323447,203.434398478562 194.43000078604982,203.18346299969954 194.22866026876338,202.90830936033367 194.0613015199475,202.61179909993348 193.9314809187662,202.29728603657333 193.8424996406018,201.96860866624885 193.79734462677428,201.63007606149642 193.7986294811667,201.2864470106016 193.8485360231844,200.94290220548467 193.948757267131,200.60500936001714 194.1004426318856,200.2786812205948 194.30414621082738,199.97012651670545 194.55977894943422,199.6857939903011 194.86656558609303,199.4323097382327 195.22300720966544,199.21640820093236 195.6268502746081,199.044857231938 196.07506289038722,198.9243777856531 196.56381916609303,198.861558863731 197.08849234321156,198.8627684624076 197.64365738923036,198.93406136262962 198.22310365206744,199.08108470054955 198.81985809029243,199.30898234642586 199.42621949698454,199.62229920371195 200.0338040262445,200.02488661563848 200.63360221141488,200.51981013240658 201.21604753371244,201.10926094674255 201.7710964601621,201.79447234759127 202.288319721553,202.57564256977543 202.75700444589268,203.451865430242 203.16626660197687,204.42107013786648 203.50517304284116,205.47997164264322 203.76287227180367,206.62403285053912 203.92873288647272,207.8474399715948 203.99248849054425,209.1430921904644 203.94438770163038,210.50260675015286 203.7753477280158,211.91634042111662 203.47710984048766,213.37342818926896 203.04239492962313,214.86183983815351 202.4650572165757,216.36845492327637 201.74023407889575,217.87915644124774 200.86448986463722,219.37894328420083 199.8359515002625,220.85206134243955 198.65443365287578,222.28215287722168 197.3215511871797,223.65242353310165 195.8408166641711,224.94582609771436 194.2177206636831,226.14525984892336 192.4597927779081,227.233784057789 190.57664121919944,228.1948439439744 188.57996911363603,229.01250711136169 186.4835657125924,229.67170822933443 184.30327094807092,230.1584994731059 182.05691198360782,230.46030399844872 179.76421067052763,230.5661695061189 177.4466611081193,230.46701875310424 175.12737682441468,230.1558936954949 172.8309074396719,229.62818980514967 170.5830250449313,228.88187699317666 168.41048092018409,227.91770350116158 166.34073362735427,226.7393790894434 164.401649938579,225.35373386365427 162.6211804958637,223.7708491389812 161.02701253936507,222.00415684854624 159.64620248319184,220.0705041598743 158.50479155425947,217.99018017305127 157.62740813561368,215.7869018367507 157.0368608647341,213.48775653410695 156.75372692343134,211.12309915906474 156.7959403127099,208.72640192430626 157.1783852269878,206.33405561237234 157.91249992094833,203.98512149966703 159.00589669276278,201.72103374539344 160.4620037833538,199.58525264009333 162.27973510692317,197.6228697465451 164.45319377766845,195.88016663376067 166.97141537642636,194.40412959639588 169.81815680442742,193.24192346003497 172.97173639557317,192.44032828982438 176.40493070054075,192.04514353749016 180.08493301327343,192.1005648709872 183.9733782816224,192.64853962251533 188.02643852864134,193.7281074546083 192.19499230991272,195.37473347035342 196.42487104703665,197.6196415722232 200.6571843109244,200.48915639408722 204.8287252849074,204.0040625823486 208.8724567222243,208.17899057459758 212.71807673176122,213.02183830777298 216.29266268782558,218.5332384730982 219.52139047330184,224.70608101311566 222.32832514103907,231.5251005188355 224.6372779272051,238.96653802507595 226.37272338513907,246.99788641328584 227.46076924249647,255.57772820845804 227.83017043267827,264.6556739964697 227.4133776289252,274.1724089880684 226.14760953196213,284.0598544151067 223.97593714612188,294.2414494645639 220.84836734122004,304.63255833923637 216.7229121550059,315.1410057854586 211.56662956062908,325.6677430545624 205.3566208218333,336.1076447746681 198.08096910161882,346.35043561359737 189.73960369328157,356.2817439249553 180.34507412045596,365.7842778025466 169.92321841827868,374.7391171400087 158.51371017280206,383.0271134215027 146.17046937038907,390.5303870759095 132.9619228011582,397.1339103332882 118.971100676564,402.7271616519238 104.29555726450673,407.2058359619224 89.04710471694338,410.47359322292004 73.35135086305534,412.4438261457509 57.34703356090526,413.041426408107 41.18514623439438,412.2045273298098 25.02785145924588,409.88619979167055 9.047181887465825,406.05607720998 -6.576469603278468,400.70188464260184 -21.656065901491246,393.830846627377 -35.99984028726445,385.47094816246243 -49.413399210844005,375.67202335277307 -61.70199970242987,364.50664668585546 -72.67298481434875,352.0708026806402 -82.13835742025401,338.48431078668455 -89.91746965827065,323.89098390934976 -95.83980234642183,308.4585008035874 -99.74780586134221,292.3779748171414 -101.49977129861514,275.8632040700079 -100.97269826936895,259.14959112316444 -98.06512347765698,242.4927235030978 -92.69987231110605,226.16661009157295 -84.82669410712538,210.46157233913198 -74.42474057101975,195.68179348739957 -61.504846061164926,182.1425334553557 -46.11156815788618,170.16702171907858 -28.32494713153156,160.0830453485527 -8.261943652309014,152.2192543095603 13.922484633923062,146.90121113930536 38.03470518235878,144.44721710281965 63.84216634830483,145.16395187103745 91.07361892954319,149.34196856500105 119.41983182140312,157.25109061549762 148.53482590482798,169.13576122292594 178.03764545391397,185.21040019639528 207.5146809517732,205.6548265313971 236.52255127164455,230.6098081796403 264.59154675183134,260.1728030017265 291.2296278150799,294.3939568044061 315.9269665108408,333.2724255834911 338.16101075656576,376.7530895596252 357.4020431941973,424.7237262507525 373.1191985409072,477.0127086223973 384.7868951869573,533.3872922521131 391.89162867349546,593.5525524035108 393.9390666705316,657.1510279032335 390.461377277168,723.763123736526 381.0247149937244,792.9083183202821 365.23678168352603,864.0472144850933 342.75437336771165,936.5844653211402 313.29081789743157,1009.8725972510994 276.6232035415619,1083.2167430347395 232.59929442994297,1155.880286946584 181.14402571397218,1227.0914131762754 122.26546935472486,1296.050536671486 56.06016072337758,1361.9385832798005 -17.28232320928541,1423.926073267088 -97.47564132723608,1481.182949226597 -184.13392524293795,1532.8890761887467 -276.77007438619677,1578.2453285514205 -374.79520156152535,1616.4851654391234 -477.519313099629,1646.8865834409978 -584.1532980099339,1668.7843235530959 -693.812289246071,1681.5821977462763 -805.5204473598027,1684.7653900877974 -918.2172024974661,1677.9125779535616 -1030.7649749653126,1660.7077107697032 -1141.9583775576752,1632.9512771042303 -1250.534884629172,1594.5708859731342 -1355.1869336466432,1545.6309851037079 -1454.5754048485426,1486.3415377726046 -1547.3444038615457,1417.0654808550187 -1632.1372508893808,1338.3247900152676 -1707.6135586317037,1250.804983649465 -1772.467259662351,1155.3579053469239 -1825.4454228658105,1053.0026353329836 -1865.367677980576,944.924394628996 -1891.1460476229408,832.4713215228277 -1901.804967668138,717.149018361266 -1896.5012598564936,600.6127875965157 -1874.5438052816662,484.657499349894 -1835.4126543159416,371.2050583681437 -1778.7772978380256,262.28946597560537 -1704.5138166462286,160.0395022655033 -1612.7206209457092,66.65908508550874 -1503.732490053648,-15.594604921571658 -1378.1326242114344,-84.43511017457541 -1236.7624258393541,-137.57263534170812 -1080.7287368973946,-172.74174742117532 -911.4082723695312,-187.73060946302246 -730.4490073717147,-180.4114863616174 -539.7682970547327,-148.77222778416944 -341.5475343433002,-90.94840137050284 -138.22318058135846,-5.2557193361818975 67.52596175431631,109.77762596268565 272.79532710633845,255.37912658327826 474.4750667844963,432.50105394942443 669.2744368044624,641.7909317537399 853.7500513804315,883.5638472159225 1024.3379088966867,1157.777069097052 1177.3890439920342,1464.0074435713736 1309.2086044576035,1801.432036079801 1416.0980955394323,2168.8124782900068 1494.400477571826,2564.483463975234 1540.5477463132097,2986.3458157653126 1551.11056962421,3431.8645161525365 1522.8494999663558,3898.0720607580074 1452.7672303878844,4381.577449664595 1338.1613130028184,4878.58108367003 1176.6767142768836,5384.895776762454 966.3575415308757,5895.974034222922 705.697240775848,6406.941677857511 393.6865381070512,6912.63782639971 29.858376181167046,7407.661160642644 -385.67091547724397,7886.422320001502 -852.1649817594991,8343.202190705491 -1368.2360951893609,8772.215756509047 -1931.819846540437,9167.681091617076 -2540.1565931788564,9523.892983445608 -3189.78034966791,9835.300580975205 -3876.5157584727995,10096.588373957262 -4595.48372084225,10302.759720317494 -5341.1161991004365,10449.22205503742 -6107.180621768619,10531.872834883336 -6886.814232410923,10547.185200921936 -7672.568622271789,10492.292276148317 -8456.464576206992,10365.068960080456 -9230.057241829903,10164.210037149074 -9984.511504084168,9889.303382392725 -10710.68731265598,9540.897027551891 -11399.234568957223,9120.558844262756 -12040.697034201174,8630.92760970034 -12625.624571857032,8075.754244608618 -13144.692888151187,7459.932054948974 -13588.82978505047,6789.514866997572 -13949.34679319644,6071.722022061304 -14218.0749095434,5314.929291297696 -14387.503028042425,4528.644883446855 -14450.91752373189,3723.469848423206 -14402.541333197749,2911.0423272453045 -14237.67076972183,2103.9652630324517 -13952.808221701862,1315.7173678446254 -13545.788810217604,560.5473348053001 -13015.899027976118,-146.64850721776008 -12363.985349243309,-790.4646797941286 -11592.550790569905,-1355.1405365799908 -10705.83741679903,-1824.7288589268242 -9709.892827457987,-2183.277942974797 -8612.618726418279,-2415.0258126114068 -7423.799773633252,-2504.604950230504 -6155.111042524737,-2437.255698544336 -4820.102560562981,-2199.0462550017737 -3434.159593819056,-1777.0969590010936 -2014.4375484327184,-1159.8063644992874 -579.7706023428573,-337.0764003190666 849.4465518361375,699.4662490370365 2251.4041787470505,1956.2555544359336 3603.050196131202,3437.5814748309976 4880.289765484037,5145.398427820385 6058.21109167495,7079.150166369236 7111.336373560041,9235.614345007447 8013.896463728608,11608.770033968103 8740.127403857681,14189.691372690848 9264.586607055311,16966.470442888374 9562.486064737284,19924.172284385993 9610.03956798759,23044.824773083088 9384.820557240231,26307.445829048775 8866.126854935605,29688.110123897797 8035.348199151419,33160.05711073194 6876.332187783581,36693.84180823543 5375.743968381918,40257.52933477751 3523.4147739195914,43816.93371107691 1312.6742151691576,47335.900934277684 -1259.3388986413256,50776.63577601032 -4191.392522490657,54100.07117670099 -7477.909455927136,57266.27850326186 -11108.752833458617,60234.916313186244 -15069.054206607341,62965.71463151542 -19339.089216699966,65418.99110518735 -23894.20560049233,67556.19475957491 -28704.807937559777,69340.47245266293 -33736.40313806069,70737.25251183109 -38949.71018194277,71714.83945546564 -44300.83705679835,72245.01315571267 -49741.52720329196,72303.62529887864 -55219.477067339685,71871.18555558696 -60678.72558105247,70933.42949304082 -66060.11555502209,69481.8599556878 -71301.8260691041,67514.25341697445 -76339.97400481846,65035.12267201361 -81109.28187834038,62056.127206604986 -85543.80811835127,58596.42264917297 -89577.73489832893,54682.94089498996 -93146.20758971937,50350.59279175215 -96186.21886326463,45642.38569626968 -98637.5294437426,40609.448756587226 -100443.6165323794,35310.959443793115 -101552.63996563482,29813.965653171075 -101918.41529372074,24193.09861369863 -101501.38215216855,18530.17288506624 -100269.55558010572,12913.670877554801 -98199.44732467172,7438.1105956124065 -95276.94367687039,2203.296672436365 -91498.12602433361,-2686.543779969537 -86870.02009443007,-7123.73744497132 -81411.25980941344,-10998.248538785352 -75152.651795264,-14198.863700447355 -68137.6268875426,-16614.47004154704 -60422.56546934998,-18135.41666785439 -52076.98416499907,-18654.94829676879 -43183.57230287119,-18070.697934752294 -33838.067654546634,-16286.223970110848 -24148.962254728653,-13212.575502091619 -14237.03060522675,-8769.868291341707 -4234.674261161052,-2888.8524037777393 5714.921319341219,4487.548545583296 15458.819720189851,13402.747635908388 24835.556141217865,23885.07625590945 33676.547063949256,35946.459555347734 41807.68197395466,49581.20853522133 49051.08950144922,64764.95165668843 55227.067659383974,81453.72864688981 60156.1651245843,99583.2686823404 63661.397753073,119068.47432388173 65570.58177843489,139803.13145057336 65718.76244690281,161659.86398606625 63950.714231412676,184490.35042599676 60123.486277305565,208125.8170588641 54108.96440377208,232377.82032983 45796.41885729518,257039.3280354288 35095.005126152064,281886.1059702924 21936.18351809153,306678.4132923968 6276.021915366395,331163.006253511 -11902.654810251202,355075.44608368474 -32588.305779540402,378142.7027548619 -55738.942656950334,400086.04211579927 -81280.66260293858,420624.1795297146 -109106.4816389974,439476.6787031885 -139075.50311323002,456367.5699196104 -171012.45411060893,471029.1574363195 -204707.6202762948,483205.98142843286 -239917.20660655823,492658.8956238594 -276364.1483101181,499169.21773504134 -313739.3918600109,502542.90601721656 -351703.66185645305,502614.7118350948 -389889.7243258507,499252.2550645182 -427905.1516191443,492359.96655736107 -465335.58818072936,481882.8398195215 -501748.5101818064,467809.9325539629 -536697.4654013064,450177.55786103656 -569726.7728537478,429072.1047200862 -600376.6545734812,404632.42794805457 -628188.7647434325,377051.7491849194 -652712.0740846347,346579.01262788917 -673509.0601875364,313519.64225405216 -690162.1473598795,278235.6511538056 -702280.3326858417,241145.05835447295 -709505.9284378587,202720.5741444228 -711521.3448595125,163487.52140124157 -708055.8317501592,124020.96776007717 -698892.0923347857,84942.05159510623 -683872.6787005209,46913.49368088979 -662906.0747264333,10634.295991210342 -635972.3700241394,-23166.36069181387 -603128.4270367124,-53735.99793118913 -564512.443199072,-80306.46592812537 -520347.8110227988,-102102.2698042166 -470946.1812009491,-118349.53898406484 -416709.6373914215,-128285.57097289704 -358131.89627546066,-131168.86907000234 -295798.4528317022,-126289.5820185997 -230385.59853106504,-112980.2424239152 -162658.2493421021,-90626.69013756287 -93466.53102145703,-58679.05687597786 -23741.08111130234,-16662.6792842029 45512.95968168835,35811.20035496769 113223.27957102015,99035.09336301954 178259.04847375464,173195.43687130423 239440.87210619965,258363.43587789068 295552.01051182003,354486.73422682704 345350.8059344938,461382.0739320151 387584.24620913435,578729.1006595242 421002.5707635895,706065.469503113 444374.8071253891,842783.3993450879 456505.10673503974,988127.8160162421 456249.73012886214,1141196.2141051677 442534.51342562656,1300940.3545946537 414372.63079888583,1466169.9005242644 370882.45151413535,1635558.0756252399 311305.27543414687,1807649.411409061 235022.71792516002,1980869.6266084109 141573.5041065458,2153537.65929533 30669.423646530453,2323879.84659614 -97789.80892402824,2490046.219879757 -243703.04688345073,2650128.8548416994 -406755.81597313937,2802182.186300203 -586410.2873342491,2944245.1670545815 -781897.3689636184,3074365.119150538 -992211.1563418653,3190623.094702117 -1216105.969668427,3291160.532411178 -1452096.188205399,3374206.9655005694 -1698459.0715469557,3438108.5073541896 -1953240.733199622,3481356.813169145 -2214265.403733943,3502618.1898167664 -2479148.0890524834,3500762.5023304056 -2745310.6941667437,3474891.5044411034 -3010001.6444938676,3424366.202815012 -3270318.9953336758,3348832.8505456247 -3523236.976183559,3248247.1554410034 -3765635.8702629497,3122896.2831196534 -3994335.081472927,2973418.2342571896 -4206129.191484738,2800818.1798435957 -4397826.759257274,2606481.348309007 -4566291.56459625,2392182.0740967575 -4708485.9469986465,2160088.6388942567 -4821515.841622764,1912763.5644017207 -4902677.066465749,1653159.049285804 -4949502.3694215,1384607.2828184566 -4959808.701554994,1110805.4135527129 -4931744.144395726,835795.0030675841 -4863833.885058362,563935.8520719453 -4755024.6042693155,299874.14865256153 -4604726.619623664,48504.95575921384 -4412853.110301249,-185070.8733770707 -4179855.7406799677,-395595.18789905944 -3906755.999397078,-577706.1977566745 -3595171.5779657424,-725996.9750908798 -3247337.129525959,-835078.393828417 -2866118.77408887,-899646.0203834681 -2455021.752023194,-914550.3865399045 -2018190.6727364373,-874869.995361397 -1560401.8606161962,-775986.3334512314 -1087047.3652962088,-613660.0892043726 -604110.2780517394,-384107.70803540153 -118131.0803319493,-84077.35311772926 363835.1563108042,289076.7148753292 834270.7978868817,737322.3719977806 1285256.8726760778,1261881.5489204943 1708543.345915918,1863166.9280551653 2095628.1749324128,2540724.5294687017 2437844.7478428073,3293183.296263462 2726457.178035934,4118212.777477944 2952762.793507557,5012489.979438647 3108201.026303688,5971676.414232467 3184467.7744230456,6990406.316082628 3173634.178265025,8062286.92257451 3068268.6278789258,9179911.627736691 2861560.697736716,10334886.707985003 2547445.5944233555,11517872.200119652 2120727.6014499906,12718637.373386819 1577200.916284788,13926131.085754463 913766.1995805608,15128567.14891227 128541.0973296162,16313524.648226423 -779037.0449059147,17468062.974330973 -1808118.0787549613,18578851.12382646 -2956357.3651311216,19632310.61950792 -4219847.284916325,20614771.18771598 -5593063.686813953,21512638.11405234 -7068828.94165491,22312569.98128358 -8638293.177738724,23001665.277403686 -10290935.151163377,23567656.150334477 -12014584.058303898,23999107.381526284 -13795463.42471697,24285618.45681728 -15618258.006178947,24418026.432414945 -17466204.41405871,24388607.129924692 -19321205.92989308,24191272.05011295 -21163971.70435682,23821758.273676865 -22974180.245653417,23277808.52172818 -24730666.793941032,22559338.481915735 -26411633.854360335,21668588.470862694 -27994883.82453537,20610256.50242949 -29458072.306411136,19391609.866538934 -30778980.34066145,18022572.396900434 -31935803.4486372,16515784.719614992 -32907455.01622044,14886634.92959086 -33673881.21053741,13153257.338792475 -34216384.28902764,11336497.179957662 -34517950.84577654,9459839.431409312 -34563581.24735339,7549300.252296474 -34340616.24475508,5633279.881787903 -33839056.51455789,3742376.258591697 -33051870.686078165,1909159.0562646673 -31975287.257181138,167904.30207131628 -30609065.69408097,-1445709.7509993017 -28956741.954532765,-2894944.3023107117 -27025843.673355244,-4142377.4874362294 -24828070.307966877,-5150315.3609335385 -22379433.66279951,-5881233.499636202 -19700354.397754513,-6298245.774044047 -16815710.379318662,-6365596.265869633 -13754833.05491791,-6049169.752153465 -10551448.422131477,-5317015.638327924 -7243559.624282969,-4139879.7121958924 -3873268.731558864,-2491737.616193954 -486535.8601472363,-350323.50483329967 2867125.5620266064,2302353.0238321186 6135017.85954719,5479508.951263692 9261692.211647615,9189116.2933212 12189444.68362599,13433464.636669973 14858873.221494455,18208765.495206844 17209492.753405433,23504806.22348697 19180404.626878377,29304661.126284882 20711015.681977246,35584467.204000026 21741801.327963307,42313271.66830558 22215106.065912545,49452957.947935745 22075973.994365204,56958256.37866445 21273000.961838577,64776845.133427024 19759199.20200466,72849546.19859922 17492864.517836854,81110620.34250754 14438435.38356298,89488164.05565004 10567332.72131746,97904610.37371184 5858768.596312206,106277334.33076623 300511.67314282706,114519362.53913698 -6110403.001001054,122540185.06399043 -13367032.461172948,130246666.36615027 -21451965.106230978,137544050.63883197 -30336853.202766012,144337055.37737915 -39982050.688767165,150531045.51158834 -50336367.85392639,156033278.9150588 -61336953.79546193,160754212.6036638 -72909316.68938224,164608857.465282 -84967490.87571177,167518167.9457814 -97414358.53314513,169410451.77310324 -110142132.31691559,170222783.55380464 -123033003.75882675,169902404.94650456 -135959960.48842517,168408093.12631127 -148787773.43972942,165711478.425087 -161374153.17203996,161798291.38551554 -173571072.2719597,156669519.0225816 -185226248.53537002,150342449.8633776 -196184781.27374783,142851587.3527088 -206290930.67247227,134249411.48364416 -215390027.67545438,124606969.0525883 -223330499.40868685,114014273.75898743 -229965992.71515813,102580498.47892874 -235157575.9868395,90433943.44520749 -238775997.1793709,77721765.76614687 -240703973.71613145,64609457.71030365 -240838487.96569514,51280063.469077565 -239093060.1459849,37933126.6752212 -235399968.9053013,24783363.789188385 -229712388.49004984,12059061.549873767 -222006410.36565349,200.00000027187968" stroke="white" stroke-width="1.5" /><circle cx="249.92582360940372" cy="197.27747600144508" fill="red" opacity="0.7" r="12.173560908995228" /></svg>