<?xml version="1.0" encoding="utf-8" ?>
<svg baseProfile="full" height="400" version="1.1" width="400" xmlns="http://www.w3.org/2000/svg" xmlns:ev="http://www.w3.org/2001/xml-events" xmlns:xlink="http://www.w3.org/1999/xlink"><defs /><rect fill="black" height="100%" width="100%" x="0" y="0" /><circle cx="200" cy="200" fill="yellow" r="20" stroke="orange" stroke-width="2" /><polyline fill="none" points="199.60389031221968,200.0 199.6586662783187,199.98208153885204 199.7190342298372,199.97041964441453 199.784541165782,199.96581675219565 199.85463729293167,199.96904907664577 199.92867629963425,199.98085545727506 200.00591684592814,200.00192593120823 200.0855253328228,200.0328901562966 200.16658000186823,200.07430581908807 200.24807640301444,200.1266471711504 200.328934254282,200.1902938452647 200.4080057010218,200.2655201096841 200.48408496564988,200.3524847238086 200.55591936082868,200.45122156209584 200.62222162029346,200.56163117465522 200.68168348205683,200.68347345261387 200.73299043877077,200.8163615638684 200.77483754979335,200.9597573201376 200.80594618923203,201.11296812921472 200.82508158416812,201.27514567691966 200.83107097766552,201.44528647142334 200.82282223231402,201.6222343683493 200.79934267223143,201.8046851783601 200.75975794494246,201.99119343985683 200.70333066966194,202.18018141803407 200.6294786255235,202.3699503679553 200.5377922225066,202.55869407368598 200.42805098950328,202.74451464803155 200.30023880840156,202.92544054828645 200.15455762049749,203.09944673286486 199.99143933221626,203.26447685203664 199.81155565123203,203.41846733355578 199.61582559180542,203.55937319109125 199.4054203996542,203.6851953504334 199.18176566204428,203.7940092558564 198.94654038810526,203.88399448719935 198.7016728676586,203.95346508763234 198.44933314407527,204.0009002731606 198.19192196777897,204.02497516816464 197.9320561318497,204.0245911871513 197.6725501295837,203.99890566187986 197.41639411558359,203.94736029559473 197.16672819669526,203.86970801270198 196.92681312651993,203.766037763306 196.69999752689822,203.63679683798546 196.48968181122353,203.48281024941355 196.29927903717459,203.3052967442517 196.13217296988657,203.1058810214594 195.99167369009632,202.8866017520015 195.88097113473094,202.64991502007604 195.80308700907145,202.39869283753526 195.76082555927954,202.13621642117278 195.75672374097803,201.8661639669547 195.79300136295424,201.59259270596266 195.8715118241363,201.31991508357876 195.9936940959978,201.05286896598116 196.16052663071966,200.7964818459395 196.37248389702933,200.55602909271897 196.6294962599476,200.3369863680444 196.9309139270268,200.1449764108659 197.2754756814564,199.98571047735277 197.6612831110922,199.86492480826624 198.0857810215675,199.78831258270247 198.5457446907849,199.76145190414414 199.03727458098234,199.7897304507401 199.55579907304482,199.87826750561268 200.09608572573262,200.03183416358735 200.65226149009132,200.25477258682778 201.21784222670027,200.55091525219117 201.7857717809478,200.9235051964337 202.3484707696871,201.3751183204389 202.897895122061,201.90758885917077 203.42560429878085,202.52193915886622 203.9228389886468,203.21831492592898 204.38060794969388,203.99592712198572 204.78978352628383,204.85300167562738 205.14120523411262,205.78673816259644 205.42579066398608,206.79327857183748 205.63465281396316,207.86768722428636 205.75922281983162,209.0039428440769 205.79137691770396,210.19494369771328 205.72356634173454,211.43252661560513 205.54894873654277,212.70750059230744 205.26151954991738,214.00969552718732 204.8562417688176,215.32802651661706 204.32917227262178,216.65057394297386 203.67758300401672,217.9646794257518 202.90007510182107,219.2570575072559 201.9966841032661,220.51392274118632 200.96897430756349,221.7211316387162 199.8201203995845,222.8643387054379 198.55497446358478,223.92916557604798 197.18011657336936,224.90138202432632 195.70388722809096,225.76709739650218 194.13640001275087,226.51296078933854 192.4895329998703,227.1263680732022 190.77689757385426,227.5956736481574 189.01378355208016,227.910404620956 187.21707969615238,228.06147490599375 185.40516895214446,228.04139658719066 183.5977980286887,227.84448573365216 181.81592121476143,227.4670597431405 180.0815186528432,226.9076231970094 178.41738961529643,226.16703915135358 176.84692167939903,225.24868276454418 175.3938370562033,224.15857417366246 174.08191769659976,222.9054875839296 172.93471117063788,221.50103362804532 171.9752196889544,219.9597121879998 171.22557500345465,218.29893305159408 170.7067022833027,216.5390020003067 170.4379764067025,214.7030701944829 170.43687443364672,212.81704503575827 170.71862832440704,210.9094610442399 171.29588223763056,209.01130968773606 172.17835897510727,207.15582754009515 173.37254033226816,205.37824262270055 174.88136625912398,203.7154792939241 176.70395783073818,202.20582259177905 178.8353690648395,200.88854350039603 181.26637260259776,199.80348719591217 183.98328418315464,198.99062692594714 186.96783069000404,198.48958678250898 190.19706632516326,198.33913723386254 193.64334117336026,198.57666787907846 197.27432605204723,199.23764247170777 201.0530971036259,200.35504181802173 204.93828307441095,201.95880068196664 208.88427764207896,204.0752453147018 212.8415185021578,206.72653866252327 216.75683420801568,209.93014068437193 220.5738589823775,213.69829152036624 224.23351488724543,218.03752548753002 227.67455985990244,222.94822403012878 230.83419920315737,228.42421581231042 233.64875716687717,234.45243210322366 236.05440428487384,241.01262546338512 237.98793514699852,248.0771594905753 239.38759030234218,255.61087701978283 240.19391501800538,263.57105369162235 240.35064667190485,271.9074432054077 239.80562165099983,280.5624198561911 238.51169177204164,289.4712231205701 236.4276394546365,298.56230810639926 233.51908017034458,307.7578046208501 229.75934008094163,316.97408644527036 225.1302962778356,326.12245114149334 219.62316665652247,335.1099093617689 213.23923621782666,343.84008120426137 205.9905064936227,352.2141956606302 197.9002548598605,360.1321876558501 189.00349073387295,367.49388559893856 179.3472960645294,374.200280763981 168.99103811959023,380.1548682224691 158.00644335952362,385.2650474704524 146.47752216397714,389.44356935837044 134.5003353467686,392.6100144595681 122.18259475600586,394.6922866280334 109.643091803663,395.62810421979714 97.01094949687486,395.3664703089519 84.42469544194823,393.86910224145873 72.03115534944482,391.1118000605437 59.98416876969114,387.08573272856427 48.44313111495612,381.7986206827499 37.57136845679878,375.2757931158301 27.534354101507887,367.5610984852538 18.497778517375508,358.7176471424061 10.625486786543206,348.8283656495339 4.077300350904721,337.99634332796415 -0.9932576164298723,326.3449528644857 -4.441311389492881,314.01772839817784 -6.133032204463433,301.1779864185007 -5.948061650834433,288.0081770243796 -3.7819304096459803,274.708955616494 0.4515580425452015,261.4979679099728 6.818010743608681,248.60834424677725 15.360228856841218,236.28690253631555 26.096125851120746,224.7920627348398 39.01681513862633,214.39147955995654 54.084902286354264,205.359404092682 71.23301672384619,197.97378900811205 90.36261722828965,192.5131563549295 111.34310435743886,189.2532510277547 134.0112714030323,188.46350729517783 158.17112333978628,190.40335990739092 183.59409064025448,195.31843535503467 210.0196617122926,203.43666272723974 237.15645409820115,214.96434726218325 264.6837404640969,230.08225303697583 292.2534408227964,248.9417442440854 319.49258739872613,271.6610370878091 346.00626309166483,298.3216164466471 371.381008667284,328.964873027733 395.1886876438673,363.5890177325359 416.99079141064874,402.14633030709217 436.343160465609,444.54079901792477 452.8010908676522,490.6262070347016 465.9247881346266,540.2047193770281 475.2851239653262,593.0260216671004 480.469644406335,648.7870585017806 481.0887715138483,707.1324150052021 476.7821342706724,767.6553800439957 467.22495860650804,829.8997236894835 452.1344409342122,893.3622148131784 431.2760247555641,957.4958972335638 404.469495706181,1021.7141346344569 371.5948069978738,1085.3954256017284 332.5975446721353,1147.8889806406407 287.49394049028075,1208.5210430177985 236.37533973782968,1266.6019248084972 179.41203178953356,1321.43371872251 116.85635303471275,1372.3186352404725 49.04497475779016,1418.5679034406635 -23.59970714797541,1459.5111627635492 -100.56915815159306,1494.5062619887062 -181.26933731472332,1522.9493710328309 -265.0224380693323,1544.2853009719122 -351.0697902141991,1558.0179181028016 -438.5759648864122,1563.7205290503257 -526.6341120979571,1561.0461060572902 -614.2725470786613,1549.7372148271393 -700.4625872219297,1529.6355017807302 -784.1276259951653,1500.6905934923936 -864.1534138782192,1462.9682585317535 -939.3994993756187,1416.6576810926779 -1008.7117655751881,1362.0776967630616 -1070.9359797783725,1299.6818436885721 -1124.9322556044135,1230.0620873031276 -1169.5903088851642,1153.9510838126532 -1203.8453708471134,1072.2228567798113 -1226.694604761964,985.8917724955825 -1237.2138556856269,896.1097133437021 -1234.5745473546858,804.161364043943 -1218.0605260301463,711.4575434496642 -1187.0846383335083,619.5265343939257 -1141.20481917125,530.003385816208 -1080.139456947129,444.6171849164466 -1003.7817966653779,365.1763222011908 -912.2131374681858,293.55179880320236 -805.7145798480882,231.65865313446994 -684.7770794308008,181.4356125069285 -550.10956901458,144.82310452984336 -402.64491862808495,123.73979254482406 -243.54351485026768,120.05782874129861 -74.19425560776705,135.5770475365834 103.78722482458883,171.99834991600056 288.5632638396124,230.89655630451358 478.08194918654925,313.69303076501603 670.0880770018326,421.6284024652858 862.1373655695672,555.735730998671 1051.613965805721,716.814479858351 1235.7512711853371,905.4056767349435 1411.655988960144,1121.7686499298447 1576.3353913783913,1365.8597366682368 1726.72762060579,1637.3133610997247 1859.7348745891156,1935.4258769646533 1972.2592536842938,2259.14256199348 2061.2410000139043,2607.0481378518257 2123.6988137908784,2977.361170651805 2156.7718838483256,3367.932682584082 2157.7632239835193,3776.2492750092524 2124.183863115968,4199.4410273721405 2053.797396353457,4634.29439463053 1944.664366545809,5077.270278657712 1795.1859124775178,5524.527396500728 1604.1460911970016,5971.951010750299 1370.752258778464,6415.18702498182 1094.6728767153895,6849.681380722827 776.0721007748899,7270.724622236003 415.6405060782881,7673.501422205433 14.621306943369603,8053.144785885552 -425.1685569072207,8404.7945742006 -901.323074405678,8723.65990852257 -1410.8381333360282,9005.084942329033 -1950.109342548602,9244.617408629882 -2514.937192738918,9438.079277982937 -3100.539983647979,9581.638791165573 -3701.5748775989573,9671.883064235972 -4312.16736231436,9705.890402921525 -4925.949320314217,9681.301409145251 -5536.105808360991,9596.38791615941 -6135.430549011318,9450.118751299246 -6716.390028112867,9242.221297860633 -7271.1959779352255,8973.237811049215 -7791.885906570771,8644.575438287578 -8270.41121143796,8258.548902255217 -8698.732289440435,7818.414826625605 -9068.919929975029,7328.39672019284 -9373.26215103933,6793.69968544965 -9604.375514759011,6220.513983041046 -9755.319838413978,5616.006664068255 -9819.715102233595,4988.30057796719 -9791.85924764556,4346.440174464299 -9666.845461125102,3700.3436435478166 -9440.677451130103,3060.7410769049147 -9110.38115064443,2439.098487073275 -8674.111217369355,1847.5276856280123 -8131.250659322004,1298.6821978397923 -7482.501887158194,805.6395769468564 -6729.967487457983,381.77067481446375 -5877.2190248801035,40.59662543194588 -4929.3522167259825,-204.3654986589732 -3893.026882085009,-339.7671915674142 -2776.490150166887,-352.60181084958765 -1589.5815192380596,-230.38509459334279 -343.71848906716696,38.65886771631688 948.1383540313617,465.40816336342834 2271.541739875393,1059.6522109058906 3610.6363407503477,1829.9018280480052 4948.26013010433,2783.2026418823316 6266.068733526929,3924.954391772349 7544.682763256774,5258.73877281798 8763.857840897406,6786.158539122811 9902.676710934007,8506.690628309965 10939.762532754692,10417.55607944317 11853.512114247682,12513.609493455382 12622.347519056868,14787.250726396 13224.984145925011,17228.36140961736 13640.713046206847,19824.268756122936 13849.69491881698,22559.738937779694 13833.262905025915,25417.002103474828 13574.23100323917,28375.810853553263 13057.204640927304,31413.533691492157 12268.889682032439,34505.28464075973 11198.395918293447,37624.08984472165 9837.530896808405,40741.09156242106 8181.079778490303,43825.78953576977 6227.066807405287,46846.319237421376 3976.993903620461,49769.7660172167 1436.0518761359456,52562.51365303228 -1386.7002086319153,55190.625284099755 -4478.191870312767,57620.254166919214 -7821.238479626965,59818.08115177871 -11394.482933840989,61751.7752380592 -15172.385446258828,63390.47303584929 -19125.26480298823,64705.27244710279 -23219.394024661626,65669.73538916346 -27417.152890855836,66260.39392463786 -31677.23924230412,66457.25374215218 -35954.940373180296,66244.28856034033 -40202.46516622431,65609.91871026332 -44369.336911680926,64547.46689699736 -48402.845992294024,63055.583956713366 -52248.56081722805,61138.637318181645 -55850.894555001134,58807.05485377445 -59153.72435743874,56077.61687060282 -62101.0588922622,52973.689152571125 -64637.7491210069,49525.39022322017 -66710.23638204345,45769.68636066 -68267.33097671982,41750.40836201555 -69261.01362179684,37518.18462684644 -69647.25133560596,33130.28580693292 -69386.81858122122,28650.377052295047 -68446.1138101329,24148.17476760839 -66797.96094720592,19699.005775114434 -64422.38484474834,15383.267854018202 -61307.34932271421,11285.791785018266 -57449.44611536443,7495.106263306738 -52854.52287344341,4102.60834380873 -47538.23833562994,1201.643436863692 -41526.53289323493,-1113.4997322704216 -34856.003036224785,-2748.6723654018274 -27574.168593658713,-3611.018768687625 -19739.62227304261,-3610.1897744491835 -11422.051764704016,-2659.605317294796 -2702.125611003379,-677.7537190685478 6328.764854065799,2410.4860540871337 15568.913913808121,6672.5141061243585 24906.865204389516,12166.687342326142 34222.13415587024,18941.02223881348 43386.09076912682,27031.940501445744 52263.002473265056,36463.07612846582 60711.23479916886,47244.16286860419 68584.60548947984,59370.02133946991 75733.88546274326,72819.66512284157 82008.4377812501,87555.54496846155 87257.98346207768,103522.94980258186 91334.4806449054,120649.58254045014 94094.10131623989,138845.3277343099 95399.28751731158,158002.22684423978 95120.86676314827,177994.67539524098 93140.20430542415,198679.85448055953 89351.3679147111,219898.40699214023 83663.27907230305,241475.3666116322 76001.82288153753,263221.3449908056 66311.88766690934,284933.97970374563 54559.30415893758,306399.6424840113 40732.65339517271,327395.40399129834 24844.912032763837,347691.2479113691 6934.9036933239,367052.523611403 -12931.47472851234,385242.6228855424 -34660.28214349367,402025.8625711074 -58128.84694019602,417170.55103695544 -83185.39287508615,430452.2127870702 -109649.00277061384,441656.9417328764 -137309.9431240713,450584.8501174996 -165930.36978829422,457053.57667658146 -195245.4314958074,460901.8144471469 -224964.7841729294,461992.815742997 -254774.5247480345,460217.82925685233 -284339.54852346575,455499.42208030244 -313306.3291849018,447794.63770559354 -341306.1152032278,437097.9398394264 -367958.53078671533,423443.8911667007 -392875.56371654914,406909.5160964199 -415665.9164036911,387616.2970432709 -435939.69040281937,365731.75498237635 -453313.368478577,341470.56689090637 -467415.0522141798,315095.1752817395 -477889.90716105606,286915.84835680766 -484405.7617327639,257290.15336883193 -486658.80053207773,226621.8105787166 -484379.2876543953,195358.90072171553 -477337.2508221495,163991.40512853878 -465348.0530626408,133048.06455765656 -448277.7751337859,103092.55034158683 -426048.3291148627,74718.9495816761 -398642.2215952611,48546.57478080393 -366106.8837921052,25214.117408978032 -328558.48578015546,5373.174369828336 -286185.15289034595,-10318.813916678222 -239249.50428423248,-21206.165181261636 -188090.43678840622,-26643.038109847297 -133124.08131268862,-26001.927755782286 -74843.86460383542,-18682.495300482657 -13819.615714611396,-4120.644495491123 49304.33560566988,18202.25182854442 113812.11238577393,48750.080145512075 178920.32940360587,87922.78206809598 243783.2400310977,136047.3368980803 307499.00104399153,193369.0558312181 369117.0522530561,260043.31725437287 427646.5937311363,336127.8757630869 482066.1285994379,421575.8792822504 531334.0239318875,516229.7288730824 574400.0264902372,619815.9143496706 610217.6538822667,731940.9556147578 637757.3655232209,852088.5745798746 656020.4016720473,979618.2155994734 664053.1630163068,1113765.0234819748 660961.9880102555,1253641.3773236163 645928.1706548845,1398240.065647717 618223.0478776036,1546439.1736507127 577222.9733571336,1697008.7368113927 522423.9837808626,1848619.1967922659 453455.95434971614,1999851.6755602811 370096.03308669024,2149210.0621151435 272281.1383779738,2295134.883302244 160119.30138654864,2436018.9060966386 33899.6347186702,2570224.393695492 -105899.28883367544,2696101.9119964787 -258602.8583558406,2812010.5568413245 -423335.8502872468,2916339.4460638566 -599020.0485720258,3007530.2942188033 -784374.2362570378,3084100.86221829 -977916.7176541339,3144669.04932112 -1177970.509365838,3187977.371372047 -1382671.314540791,3212917.5472498517 -1589978.3677672513,3218554.895534735 -1797688.208162079,3204152.2258289615 -2003451.405646765,3169192.894337533 -2204792.230344284,3113402.6816060753 -2399131.217750209,3036770.1420759605 -2583810.543143686,2939565.070687143 -2756122.0779679697,2822354.7314468473 -2913337.959029572,2686017.4969673087 -3052743.458784204,2531753.556701934 -3171671.902178905,2361092.3651783117 -3267541.333021345,2175896.520094659 -3337892.591198113,1978361.7838171946 -3380428.4218383892,1771012.990636588 -3393053.199314019,1556695.61609891 -3373912.8133922317,1338562.8237418314 -3321434.232531379,1120057.8484934575 -3234364.2308533397,904891.6246119274 -3111806.7413517847,697015.6190682256 -2953258.27900133,500589.88833772996 -2758640.864194622,319946.43722881796 -2528331.86989565,159548.02212529376 -2263190.215561421,23942.60726818425 -1964578.3377027663,-82286.2492066613 -1634379.3813238053,-154572.73354774533 -1275009.0787249669,-188425.42351243878 -889421.8125270994,-179486.75983069726 -481110.3984409982,-123594.78986939133 -54099.170341923746,-16846.566063760918 387069.99441232474,144337.48030610543 837359.0078883894,363148.9271056023 1291262.4896124033,642327.3005999066 1742844.4174540993,984097.4015434255 2185782.5727572814,1390108.8924424248 2613420.748244388,1861379.0508170116 3018828.5885240943,2398239.6145643066 3394868.8293403597,3000288.6567061655 3734271.593974924,3666348.427077319 4029715.2945222408,4394430.087138981 4273913.57327504,5181706.240450727 4459707.606469669,6024492.124871777 4580162.980514092,6918236.282886737 4628670.241011422,7857521.463294445 4599048.108918236,8836076.430743326 4485648.257616448,9846799.269288326 4283460.451141816,10881792.662498618 3988216.7589370534,11932411.516054766 3596493.487917716,12989323.15982893 3105809.4099728675,14042580.225912983 2514718.813846098,15081706.147921141 1822897.8761725442,16095793.06631756 1031222.8287131584,17073611.755868383 141838.39885047876,18003733.016151357 -841784.980620704,18874659.786114234 -1914806.6574257722,19674969.06088022 -3070985.3467027983,20393462.5054299 -4302664.142826534,21019324.477683872 -5600772.176957557,21542285.99522733 -6954844.0158364605,21952793.007933825 -8353057.750051013,22242177.175618593 -9782292.551053373,22402827.198211595 -11228206.28624374,22428358.608432908 -12675333.571424318,22313779.81624509 -14107204.411131753,22055652.093069665 -15506483.331366152,21652241.104451634 -16855128.647957657,21103657.5449931 -18134571.239477497,20411984.40128049 -19325911.908742223,19581388.36933247 -20410136.124421928,18618212.984732404 -21368344.63716707,17531051.087746996 -22181998.16640669,16330794.343748761 -22833174.05817369,15030657.67221322 -23304832.524828803,13646176.606124114 -23581089.79840404,12195175.80809392 -23647495.26463779,10697707.209745152 -23491309.398885228,9175956.516309377 -23101779.102284696,7654117.127918942 -22470406.841147482,6158230.871118427 -21591209.82879401,4715995.306639557 -20460965.361132864,3356537.779866743 -19079438.32916535,2110156.8055581306 -17449586.887056712,1008031.8246477131 -15577742.256924305,81902.83420209763 -13473758.704163821,-636278.1327857766 -11151129.822680917,-1114721.2182009604 -8627067.430039564,-1322195.6960081665 -5922539.589974853,-1228446.2511722462 -3062264.55504372,-804624.6855542808 -74657.75585760982,-23732.70293396029 3008270.6448916774,1138929.0040671208 6151069.666515283,2705310.541101341 9315054.421178395,4694167.01023068 12458566.993141165,7120622.972414721 15537291.651572697,9995753.292416884 18504624.110526863,13326186.690566873 21312093.85797697,17113738.467335872 23909837.849967863,21355078.937265106 26247123.112674303,26041444.102789752 28272915.021999914,31158395.010874137 29936487.245597597,36685632.06174397 31188068.544821493,42596870.27576393 31979520.85375631,48859781.16894264 32265042.289283205,55436006.437883526 32001888.010787982,62281248.11054755 31151101.15159353,69345439.18035513 29678245.397785265,76572998.00957775 27554130.20518255,83903168.96653068 24755519.133191746,91270450.85398692 21265811.34640477,98605113.69902435 17075686.00204716,105833803.41413611 12183699.014229748,112880232.71412948 6596821.574328245,119665955.49280348 330909.8198240959,126111220.63858928 -6588904.810224276,132135900.01154964 -14127914.709166678,137660484.02883944 -22241634.470821433,142607137.02658975 -30875707.654646825,146900803.29879844 -39965930.37653739,150470353.4747956 -49438399.26521242,153249759.7034858 -59209790.28228513,155179286.98276588 -69187773.7116518,156206686.92459086 -79271569.28549866,156288379.29862687 -89352643.93692069,155390605.86881167 -99315553.06192729,153490540.34570345 -109038924.44777028,150577337.74102527 -118396582.19361396,146653106.04639128 -127258806.02928182,141733782.98182958 -135493719.44609937,135849900.58625174 -142968798.01067397,129047220.66467272 -149552487.1598027,121387224.5772441 -155115916.6963615,112947441.56239492 -159534697.14752668,103821600.73769878 -162690781.1348818,94119593.12195377 -164474370.9690939,83967231.47215718 -164785851.848969,73505797.42826608 -163537728.34561285,62891367.402414784 -160656540.31719777,52293910.82980225 -156084733.0586,41896156.80451942 -149782455.37251863,31892227.740296878 -141729258.38358188,22486041.50511241 -131925667.3320089,13889486.457713678 -120394598.30469361,6320376.937730881 -107182591.91307512,200.00000013126106" stroke="white" stroke-width="1.5" /></svg>