<?xml version="1.0" encoding="utf-8" ?>
<svg baseProfile="full" height="400" version="1.1" width="400" xmlns="http://www.w3.org/2000/svg" xmlns:ev="http://www.w3.org/2001/xml-events" xmlns:xlink="http://www.w3.org/1999/xlink"><defs /><rect fill="black" height="100%" width="100%" x="0" y="0" /><circle cx="200" cy="200" fill="yellow" r="10.00000355442761" stroke="orange" stroke-width="2" /><polyline fill="none" points="200.19403903565802,200.0 200.14683276764742,200.00770804955744 200.09577611223608,200.01008340430542 200.04128383817942,200.00654981577304 199.98384246913398,199.99655970565274 199.92400907768035,199.97960269235054 199.86240912226344,199.9552142190924 199.79973328990076,199.92298418282905 199.736733317393,199.88256545641545 199.67421677465396,199.8336821906599 199.6130408055923,199.776137777973 199.5541048346423,199.70982235562673 199.49834226045172,199.63471972418367 199.4467111722784,199.55091355558736 199.40018413918648,199.4585927658273 199.35973713702538,199.35805592909873 199.32633769325562,199.24971461404695 199.30093234477854,199.13409552808952 199.28443351885028,199.0118413629912 199.27770596171152,198.88371024385785 199.2815528535405,198.75057369452676 199.29670176152462,198.6134130449469 199.3237905950291,198.47331422053077 199.36335373779974,198.33146086955557 199.41580854165318,198.18912580241357 199.48144237396846,198.04766073574396 199.5604004172862,197.90848435508775 199.65267442324992,197.77306873152477 199.75809262480016,197.64292415058932 199.8763110097815,197.51958243540398 200.0068061557972,197.40457887017493 200.1488698201106,197.29943285469898 200.30160546954136,197.20562744505293 200.4639269235619,197.12458795986802 200.6345592691139,197.05765985521634 200.81204218802375,197.00608609381348 200.99473581732238,196.9709842556327 201.18082923932548,196.95332365677214 201.36835167210572,196.9539027611676 201.55518640212958,196.9733271851394 201.7390874695202,197.0119886074604 201.917699082868,197.07004490728602 202.0885777050141,197.14740185858034 202.24921671408424,197.2436967122965 202.3970735056083,197.3582839962478 202.52959886221086,197.4902238570904 202.64426837753334,197.63827325891768 202.7386156812084,197.8008803384657 202.81026717235133,197.97618219772716 202.85697793067843,198.16200639078647 202.8766684375561,198.35587633290368 202.8674617045889,198.55502082632253 202.82772037533869,198.75638785906034 202.75608333701442,198.95666279021268 202.65150135405216,199.15229098830815 202.51327121499196,199.3395049382736 202.34106786849526,199.5143557779857 202.13497401426386,199.67274916763083 201.89550661051035,199.81048533467282 201.6236397619389,199.92330307471727 201.3208234613299,200.00692742459123 200.98899767412237,200.0571206592341 200.6306012791325,200.0697361992688 200.24857540993912,200.04077495219843 199.84636078062778,199.9664435479028 199.42788862654814,199.84321386937432 198.9975649454436,199.6678832233496 198.5602477865938,199.43763444358925 198.12121740520357,199.15009517297725 197.6861391758012,198.8033955302856 197.2610192413838,198.39622333429998 196.85215296387096,197.92787603292462 196.4660663353849,197.3983084687276 196.10945060814012,196.80817560595167 195.78909050236675,196.15886934803288 195.51178645566864,195.45254858978717 195.28427148239297,194.69216167520085 195.11312331673707,193.88146047064166 195.00467261712703,193.02500531461948 194.96490811049182,192.1281601691646 194.99937965198876,191.19707737450702 195.11310026702054,190.23867149792665 195.31044832651574,189.26058186913687 195.59507108188888,188.27112350792115 195.96979085133992,187.27922627435095 196.4365152026967,186.29436220697482 196.9961525184002,185.32646115890446 197.64853435409745,184.38581499456785 198.39234601234577,183.48297076971105 199.22506674595962,182.62861348248202 200.14292098049643,181.8334391524362 201.140841901379,181.10801915520818 202.21244868747107,180.4626569114013 203.35003858902897,179.90723819682398 204.54459494353972,179.45107650530184 205.78581209794544,179.1027550525761 207.06213806032514,178.869967157851 208.36083553869622,178.75935687590933 209.66806183992995,178.7763618749051 210.9689678988565,178.92506066048682 212.24781648776658,179.2080263333849 213.48811942129754,179.62618913265266 214.67279332302292,180.17871005814146 215.7843332601355,180.86286788141683 216.80500328390642,181.67396184225998 217.71704263887102,182.60523228645 218.50288612594989,183.647801428225 219.14539682721582,184.79063631651843 219.62810912623064,186.02053594690253 219.9354796914571,187.32214429066144 220.05314383500578,188.67799080843835 219.9681744188315,190.06855977875875 219.66934025944352,191.47238950214833 219.14736078427217,192.86620214072352 218.39515352204833,194.22506462268143 217.40807086984614,195.5225806831841 216.18412247463365,196.7311137303285 214.72417950090892,197.82203982031783 213.03215703168001,198.76602960317345 211.1151708707853,199.53335766339208 208.98366508310744,200.0942372333461 206.65150672795767,200.41917780585334 204.13604441168476,200.47936272150383 201.45812750974895,200.24704336166621 198.64208318689256,199.69594614555444 195.71564867679612,198.8016881155039 192.70985666923744,197.54219650506946 189.6588720920663,195.89812732621024 186.5997790653363,193.85327769122057 183.57231734299467,191.39498630871097 180.61856814014646,188.51451636724732 177.78258986681897,185.2074148514124 175.11000494730268,181.47384222897782 172.64753959171085,177.31886641008137 170.44251909679423,172.7527149148425 168.5423219789719,167.79097929918802 166.99379697598712,162.45476608359314 165.84264768596333,156.77078870901823 165.13279033472892,150.77139541072484 164.9056908644302,144.4945283551427 165.19968820859,137.98360992777714 166.04931125052394,131.2873526904596 167.48459754283178,124.45949024206669 169.53042238490215,117.55842701498794 172.20584730241777,110.64680591569609 175.5234973373349,103.79099366608382 179.48897682866746,97.06048471581227 184.10033353404745,90.52722566654789 189.34758100050567,84.26486326711868 195.21228903204448,78.3479201936034 201.66725191412237,72.85090400824556 208.67624373499194,67.84735588286662 216.1938696860287,63.40884686210265 224.16552162422053,59.60393061436005 232.52744543787367,56.49706275815342 241.2069268709612,54.147497942066224 250.12260143379956,52.60817688111598 259.18489286116977,51.92461649361363 268.2965832787985,52.13381712343178 277.3535168125171,53.26320155571236 286.2454368307052,55.32960112259195 294.8569553611527,58.33830463316687 303.0686514816856,62.2821861330913 310.75829366528023,67.14092758939304 317.80217918240874,72.88035249205375 324.0765817454154,79.45188605391142 329.4592966429933,86.79215716456815 333.83127068015176,94.82275650432128 337.0783023347509,103.4501642449775 339.09279569132775,112.56585955262506 339.77554994316677,122.04662266246353 339.03756459181295,131.75503862001958 336.80183894736626,141.54020988188455 333.00514317104734,151.23868285104413 327.59973693159066,160.6755910987619 320.55501079641635,169.66601551199068 311.8590247737814,178.01655892095755 301.5199179884346,185.52712992782236 289.5671633342599,191.992927699385 276.05264112444013,197.20661643319804 261.05150627180114,200.96067508869058 244.66282439523673,203.04990482754081 227.00995347528868,203.27407346768865 208.24064928213664,201.4406731626397 188.526874777541,197.36776451369298 168.06429604937506,190.8868774507453 147.07145006933916,181.8459365219498 125.78857266238616,170.11217575909387 104.47607852627651,155.57500607974654 83.41268892218024,138.14879629436766 62.893206747577665,117.77552725118112 43.22594307058594,94.42727751670925 24.729803814577167,68.10849829644002 7.7310500922957885,38.85803508625767 -7.440249346656088,6.750853845879618 -20.454050023633613,-28.100569668744527 -30.98441934857911,-65.54523736028824 -38.713846201634766,-105.39303096981007 -43.33773371075799,-147.41456430414905 -44.569031581105406,-191.34151760429955 -42.142959672029264,-236.86748230330352 -35.82177014640902,-283.64933996858736 -25.39949150842864,-331.30919417588973 -10.706594273955687,-379.43686844294143 8.385485043932874,-427.59297719262713 31.960027430723784,-475.31257005778673 60.05098997053224,-522.1093427327119 92.63930828108454,-567.4804000778944 129.64961184107216,-610.9115493618707 170.9474207569836,-651.8830934526289 216.33689111926736,-689.8760855347984 265.55917377151604,-724.3789986191542 318.2914480280069,-754.8947548262387 374.1466876008503,-780.9480512709765 432.67421072534773,-802.0929114601042 493.3610601996314,-817.9203835535916 555.6342517933978,-828.0662997528957 618.8639212544861,-832.2190045825098 682.3673909891801,-830.1269540475109 745.4141674639526,-821.6060826982176 807.231869539225,-806.5468316310239 867.0130763801593,-784.9207275154215 923.9230713906422,-756.7864009688482 977.1084458937829,-722.2949321037523 1025.7065131586487,-681.6944119364944 1068.8554699850117,-635.3336106558836 1105.705229554387,-583.6646475681893 1135.4288357969256,-527.2445629191503 1157.2343562801996,-466.7356987795165 1170.377137776633,-402.90480478959205 1174.1722963978077,-336.6207947915385 1168.0073026873065,-268.85109221745864 1151.354511534154,-200.65651550677228 1123.783477401876,-133.18466973623913 1084.972887358127,-67.66182697545929 1034.7219379273733,-5.383295521791553 972.9609770581773,52.29770301030058 899.7612296721223,103.9826099244849 815.3434245061543,148.24149948874353 720.0851414220976,183.62836194026244 614.5267021665177,208.69759683444212 499.3754338311208,222.0215921795706 375.5081430746343,222.20924293431943 243.97165058287163,207.92524093743174 105.98124929656775,177.9099474793466 -37.08303337147237,130.99963981687773 -183.68246980825643,66.1469042857996 -332.12804159703376,-17.55906840121355 -480.5912783896291,-120.87254525434821 -627.1175540191808,-244.37194304500002 -769.6418389047341,-388.4414332594058 -906.0068771746,-553.2537505592348 -1033.9837246526492,-738.7544998515981 -1151.294550200601,-944.6482582129368 -1255.637568217883,-1170.3867654455014 -1344.7139347296802,-1415.1594907598837 -1416.2564038384753,-1677.8868527951763 -1468.0595057991172,-1957.216355770052 -1498.0109730532308,-2251.521885905471 -1504.1241066998548,-2558.9063893215307 -1484.5707435781535,-2877.208125385587 -1437.7144539007923,-3204.010658027452 -1362.1435717177858,-3536.656711948227 -1256.703635926974,-3872.2659810984956 -1120.5287985915568,-4207.756933515442 -953.0717404796724,-4539.872609876097 -754.1316214909976,-4865.210363295007 -523.8795864402855,-5180.255435382539 -262.8813449564843,-5481.418208857984 27.883651583473664,-5765.074920612182 347.0069027930997,-6027.611561627218 692.6398715192753,-6265.470632228378 1062.4877418214166,-6475.200363456102 1453.8083184350958,-6653.505958637978 1863.4164260202404,-6797.302354284098 2287.694122080703,-6903.767947023439 2722.6069861492538,-6970.398684267916 3163.7266898380985,-6995.061871471059 3606.25998793068,-6976.0490090770645 4045.084200209214,-6912.126938369927 4474.789177642716,-6802.586548243667 4889.725665475814,-6647.288275212322 5284.059890331983,-6446.703617508694 5651.834109447436,-6201.951881576885 5987.032768452166,-5914.831386276094 6283.653820672658,-5587.844367234647 6535.784666791395,-5224.214851487112 6737.682079986791,-4827.898811158129 6883.85538958808,-4403.585954776473 6969.15210706602,-3956.6925759395954 6988.845093146618,-3493.3449515035254 6938.720285317052,-3020.3528650979215 6815.163932350606,-2545.172926272869 6615.248218074935,-2075.8614605239272 6336.814101797378,-1621.016860208632 5978.550158907691,-1189.711410192017 5540.0661734796795,-791.4127340068956 5021.960216398836,-435.8951452890565 4425.877938779886,-133.14133399040753 3754.562822225707,106.76503402999714 3011.8961557116727,273.75507354932336 2202.925554308599,357.89790919481004 1333.8808981685222,349.53034162936854 412.17665159587216,239.3917654608422 -553.6003781824427,18.763008802347656 -1553.7186647607482,-320.39237356994647 -2577.345654706779,-785.2859504783851 -3612.6080600349896,-1382.1631227782289 -4646.669112002452,-2116.1645090131974 -5665.822950375164,-2991.1919159934905 -6655.606120781522,-4009.7808728617774 -7600.9259380772555,-5172.981758212019 -8486.205247586622,-6480.251578997615 -9295.54288070693,-7929.358465483777 -10012.888858972638,-9516.30092671219 -10622.233153815843,-11235.243864404501 -11107.806560704423,-13078.473268722755 -11454.29199906643,-15036.371415884083 -11647.04430657991,-17097.414254642685 -11672.316361341089,-19248.19250577982 -11517.489141564964,-21473.45780600755 -11171.303123354981,-23756.195005490124 -10624.088226292572,-26077.72147731012 -9867.9893477444,-28417.81401885717 -8897.18438343302,-30754.86362091448 -7708.091517458058,-33066.05805221794 -6299.562482954661,-35327.591857952975 -4673.058448119219,-37514.903002948726 -2832.805174379774,-39602.935007574284 -785.9241267171558,-41566.42303029282 1457.4637071036766,-43380.20194962642 3884.164409391154,-45019.534094443785 6477.871089223916,-46460.45386985711 9219.159937425458,-47680.12613173194 12085.524848383851,-48657.21478129471 15051.452762888617,-49372.257688146885 18088.54152391301,-49808.043710924714 21165.661628472495,-49949.987275702755 24249.16280530857,-49786.495698881714 27303.125852836703,-49309.324209528844 30289.659637909193,-48513.91344161042 33169.24258753742,-47399.70403474033 35901.10740755523,-45970.42290813623 38443.667139728655,-44234.335761214425 40754.980028147394,-42204.460410013045 42793.250013621895,-39898.73569520459 44517.35901859838,-37340.1408980046 45887.426532685946,-34556.76087727273 46865.391368636,-31581.792496205915 47415.60983929988,-28453.488341053748 47505.4640168252,-25215.03424713279 47105.973185483286,-21914.3577379815 46192.40109851801,-18603.86514963252 44744.85120678396,-15340.105950465435 42748.84165211673,-12183.363573599232 40195.85152054581,-9197.17294780926 37083.8296384892,-6447.7658378846445 33417.65707734954,-4003.446078431002 29209.554516230924,-1933.8977974653708 24479.425705850812,-309.43076780724203 19255.12848527245,799.8319157698758 13572.66513195181,1324.81756935075 7476.284278743546,1198.4117385580198 1018.4872116338057,356.4017392897524 -5740.067929650722,-1261.5534486181225 -12730.769689592002,-3710.937260063694 -19877.369252198514,-7041.384812683852 -27096.41240719542,-11295.699393138399 -34297.78991788431,-16508.888907332064 -41385.407368462256,-22707.235646415145 -48257.97415423075,-29907.413201113977 -54809.909773216845,-38115.66469779698 -60932.363994929816,-47327.05671707387 -66514.34583576581,-57524.823277050455 -71443.9545771706,-68679.81410722529 -75609.7043399938,-80750.06109548161 -78901.93199598244,-93680.47625142045 -81214.27647596027,-107402.6937880004 -82445.21584607977,-121835.06797578426 -82499.64689185187,-136882.8372680144 -81290.49039852041,-152438.46383068355 -78740.30387045744,-168382.15604272272 -74782.88211664114,-184582.57976327857 -69364.82496903975,-200897.76220437142 -62447.05042068877,-217176.19010966655 -54006.23069468925,-233258.10163825474 -44036.128207612324,-248976.96890387335 -32548.808092931875,-264161.16554551775 -19575.703922576442,-278635.8110285041 -5168.513525937011,-292224.78062220855 10600.097628225843,-304752.8672010363 27636.00713717883,-316048.07820041 45823.38089421459,-325944.04826370516 65024.671732174866,-334282.54537512554 85080.88848236727,-340916.045625307 105812.15022581154,-345710.34924013773 127018.53795598264,-348547.20815897343 148481.25299113977,-349326.93331683194 169964.08828414485,-347970.9479070625 191215.21529734647,-344424.2513166719 211969.2853635063,-338657.757175402 231949.8404696723,-330670.46807968436 250872.0242129718,-320491.44907947775 268445.57932399155,-308181.5619829413 284378.1136777997,-293834.9229707797 298378.6121622443,-277580.0469448931 310161.1671994655,-259580.64348640628 319448.89617508004,-240036.03128275202 325978.00957869616,-219181.14041340296 329501.9893608829,-197286.07496410434 329795.83292908786,-174655.2120686397 326660.31440347043,-151625.81764681608 319926.2112993809,-128566.16380188399 309458.4417624835,-105873.13803673239 295160.05492077844,-83969.34011487114 276976.0148990238,-63299.66849047587 254896.71762676784,-44327.404714665674 228961.17881941237,-27529.811037811625 199259.8314762149,-13393.26350739122 165936.87196830427,-2407.9501375222167 129192.09532574537,4937.828877509778 89282.16271040935,8163.714501657527 46521.247307682315,6803.6439661195745 1281.009002631014,412.44864027120366 -46010.14676686422,-11427.371321643415 -94868.56466896554,-29098.76816831091 -144757.6215414135,-52943.24234852382 -195090.81910418058,-83253.99729032669 -245235.7031035173,-120269.24245790564 -294518.61544444977,-164165.7381242919 -342230.2759439084,-215052.67855536885 -387632.17978914565,-272966.01257368724 -429963.7857050415,-337863.3016647578 -468450.45832167,-409619.21581685066 -502312.1164043363,-488021.7660693914 -530772.5265881896,-572769.3702166516 -553069.1701851296,-663468.8442160836 -568463.5986487009,-759634.4065411942 -576252.1815482478,-860687.7759687918 -575777.1395792828,-965959.4350871983 -566437.744391208,-1074691.122160374 -547701.5570186645,-1186039.6029059878 -519115.5676334048,-1299081.7612854694 -480317.09136459307,-1412821.0346235253 -431044.26823966915,-1526195.2033565121 -371146.0100438334,-1638085.5295571948 -300591.23324586713,-1747327.2212229916 -219477.21524415992,-1852721.181291745 -128036.91119063941,-1953046.981629629 -26645.07067890189,-2047076.9830064182 84177.00225342656,-2133591.502539166 203758.1959680425,-2211394.910468654 331275.9863889911,-2279332.51867262 465756.61093163985,-2336308.104268258 606077.1382551257,-2381301.893278071 750969.5351537109,-2413388.811901717 899026.8138463184,-2431756.796732235 1048711.322621929,-2435724.940561964 1198365.220354276,-2424761.2375251763 1346223.1509478528,-2398499.680501996 1490427.107488527,-2356756.4552352456 1629043.4479498765,-2299544.9697508803 1760081.994988779,-2227089.454671847 1881517.1219221554,-2139836.870103496 1991310.6957142751,-2038466.85815146 2087436.7160547876,-1923899.48698926 2167907.457734132,-1797300.5428700417 2230800.8919130443,-1660084.1406867146 2274289.130947725,-1513912.4417009458 2296667.611601939,-1360692.2889147308 2296384.7031966057,-1202568.5962334808 2272071.400972307,-1041914.3570037025 2222570.7411317644,-881317.1705868436 2146966.5531487484,-723562.2221862632 2044611.1474333906,-571611.6909548275 1915151.5227756032,-428580.6041991105 1758553.6685746051,-297709.2009296293 1575124.5321056917,-182331.91569716192 1365531.2213461755,-85843.14316054217 1130817.0195148007,-11659.99465779544 872413.7987609422,36817.69034475574 592150.4376106625,56249.763260556574 292256.8700163555,43400.249837959185 -24636.576717265598,-4816.5181797136365 -355504.86219723034,-91288.58785070466 -696939.1965933456,-218658.39683245236 -1045163.5049000357,-389274.6653307524 -1396056.555144043,-605144.7599303112 -1745179.8543428679,-867888.1548399039 -2087811.3512098829,-1178691.6443722476 -2418984.914967024,-1538266.9825277987 -2733535.4857080663,-1946811.6406710448 -3026149.7141871555,-2403973.381825188 -3291421.828409088,-2908819.3494649134 -3523914.3817752767,-3459810.3593173777 -3718223.453677346,-4054781.064120651 -3869047.7892896687,-4690926.6331522 -3971261.281920884,-5364796.550336499 -4019988.119729656,-6072296.086681937 -4010679.840029937,-6808695.9446081575 -3939193.4599816557,-7568650.503450097 -3801869.7833892764,-8346225.017239682 -3595610.920829361,-9134932.028078875 -3317956.005618475,-9927777.161475109 -2967154.0424156585,-10717314.36451037 -2542232.7897014255,-11495710.534392664 -2043062.5531095255,-12254819.364680892 -1470413.754667704,-12986264.110314237 -826007.1444035999,-13681528.841687324 -112555.53636683976,-14332057.623705786 666204.0183352076,-14929360.91947332 1505488.6627709246,-15465128.381568357 2399459.7488085628,-15931347.058432778 3341225.3357472103,-16320423.91099231 4322855.978604518,-16625311.407104371 5335414.500362456,-16839634.840699874 6369000.315028979,-16957819.910505213 7412808.725344018,-16975218.9919839 8455205.461076386,-16888234.447594695 9483816.552095054,-16694437.246584766 10485633.445959872,-16392679.108219003 11447133.084109407,-15983196.343414493 12354412.445507841,-15467703.550915983 13193336.85376561,-14849475.326999638 13949701.125401434,-14133414.173637357 14609402.415419616,-13326102.840324732 15158623.394277232,-12435839.410371607 15584024.17033546,-11472653.544130113 15872941.15690493,-10448302.41988014 16013590.876017582,-9376245.068079239 15995276.495196035,-8271593.976287454 15808594.711929582,-7151043.049814144 15445640.436516376,-6032771.246171132 14900206.58061396,-4936321.458552773 14167976.139418513,-3882454.5032096235 13246703.662960796,-2892978.365771558 12136383.149516363,-1990553.1799473553 10839399.364364384,-1198472.745839332 9360659.592653723,-540423.7412448195 7707702.8782450305,-40224.134291134316 5890783.883069229,278457.334257324 3922928.625402563,392398.3698132743 1819959.521720591,279134.4573826609 -399512.6337686888,-82718.6260117456 -2714131.8649133877,-713134.3914367997 -5099877.201602851,-1630340.8999756488 -7530181.33826161,-2850485.590156101 -9976088.861532971,-4387303.820365283 -12406454.727106024,-6251795.507729135 -14788183.210407717,-8451914.437970156 -17086507.06735987,-10992274.969819974 -19265306.123446885,-13873880.957863327 -21287463.96640616,-17093881.76469744 -23115260.855046444,-20645360.222873505 -24710800.379669275,-24517157.33551021 -26036466.824549463,-28693738.368536767 -27055409.596666303,-33155104.784614954 -27732050.504573774,-37876756.196942896 -28032609.1045769,-42829706.179125965 -27925640.786198094,-47980555.3546614 -27382581.7535051,-53291624.70673933 -26378294.581624024,-58721151.49730157 -24891607.597182956,-64223549.56588623 -22905840.955996905,-69749735.0969397 -20409311.97938215,-75247518.20323886 -17395812.070207063,-80662059.87808025 -13865047.368941877,-85936393.0262578 -9823035.235872254,-91012005.40082686 -5282448.6650330555,-95829481.35755225 -262900.85431259935,-100329198.40097594 5208837.620238009,-104452073.54536727 11098696.245352015,-108140353.56139463 17365243.40162949,-111338442.23694661 23959712.800998572,-113993756.86048001 30826123.073416524,-116057605.25057402 37901495.25824995,-117486073.81936534 45116172.05643597,-118240916.38390756 52394241.69201677,-118290432.74203372 59654068.121196166,-117610325.42178668 66808928.120643176,-116184522.50950052 73767754.49293162,-114005954.07437135 80435983.25599334,-111077269.44947734 86716501.24718106,-107411482.5125957 92510689.08445446,-103032532.14568548 97719552.90238918,-97975745.24935713 102244936.73565559,-92288190.05638888 105990805.87519492,-86028908.03322172 108864589.99162555,-79269013.38545421 110778573.32659777,-72091650.09581721 111651317.81696513,-64591797.52202757 111409103.66042636,-56875916.86606173 109987370.5770446,-49061432.29227737 107332141.89103495,-41276042.11326522 103401412.57399744,-33656857.2707973 98166481.57622512,-26349366.303326234 91613208.14847346,-19506228.097276356 83743171.44291629,-13285895.950047765 74574712.49846376,-7851078.80894516 64143837.77954846,-3367047.970053378 52504963.76503498,199.9999999357002" stroke="white" stroke-width="1.5" /></svg>