<?xml version="1.0" encoding="utf-8" ?>
<svg baseProfile="full" height="400" version="1.1" width="400" xmlns="http://www.w3.org/2000/svg" xmlns:ev="http://www.w3.org/2001/xml-events" xmlns:xlink="http://www.w3.org/1999/xlink"><defs /><rect fill="black" height="100%" width="100%" x="0" y="0" /><circle cx="200" cy="200" fill="yellow" r="10.007844622726019" stroke="orange" stroke-width="2" /><polyline fill="none" points="199.28763865148454,200.0 199.20168447210534,199.95809208155603 199.11572708993072,199.906902868989 199.03069799538022,199.8462170709248 198.9475749837084,199.77591552419284 198.86737294282293,199.69598286437227 198.79113355774166,199.60651441054702 198.719913987047,199.5077221257201 198.65477458318787,199.39993951654907 198.59676574518028,199.2836253401178 198.54691400897661,199.15936599143288 198.50620749730132,199.02787645327382 198.47558086687135,198.88999969997408 198.45589990640275,198.7467044586706 198.44794595341702,198.599081245522 198.4524003113615,198.44833661031885 198.46982886070361,198.2957855407266 198.50066706821028,198.14284199701942 198.54520560733826,197.99100756945617 198.60357680931443,197.84185827326596 198.67574216884714,197.69702952036909 198.76148113028208,197.5581993322481 198.86038137920204,197.4270698845641 198.97183086080196,197.30534750092087 199.09501173970503,197.19472124032006 199.2288965061008,197.09684025001135 199.37224642009787,197.01329008228439 199.52361246993797,196.9455681999193 199.6813390001994,196.89505892014 199.843570143347,196.86300807061446 200.00825916203405,196.85049765293263 200.17318078053103,196.85842082866608 200.33594655170998,196.88745756018594 200.49402327134567,196.93805125249824 200.6447544143619,197.01038675307262 200.78538452834422,197.1043700736337 200.91308647850602,197.21961020081847 201.0249913957215,197.35540336116622 201.1182211356595,197.51072009983022 201.18992301294088,197.68419552144135 201.23730653011472,197.87412302552764 201.25768177764857,198.07845184765694 201.24849913863775,198.2947886909393 201.2073898911573,198.52040370067596 201.1322072627324,198.75224099781383 201.02106745592073,198.98693394456564 200.872390132126,199.2208252682656 200.6849378131319,199.44999211750584 200.45785363708893,199.67027606816447 200.19069688841182,199.87731803650487 199.8834757098362,200.06659799257665 199.5366764002827,200.2334793002443 199.15128870468678,200.373257440944 198.72882651201925,200.48121280742626 198.2713433957209,200.5526671820584 197.78144245702202,200.58304344256675 197.26227996632798,200.56792796729133 196.71756234117134,200.50313514303917 196.15153605118883,200.38477331244243 195.56897010111487,200.2093114353608 194.9751308117114,199.97364568134824 194.3757486955813,199.67516511857153 193.77697730952477,199.31181561985693 193.18534405695516,198.88216106977555 192.60769301222757,198.38544092884172 192.05111994276268,197.82162319294156 191.52289981365485,197.19145177891124 191.03040717200582,196.4964873715601 190.58102992337086,195.73914078410056 190.1820771291895,194.92269791352257 189.84068157053142,194.05133541543034 189.56369793847645,193.13012627960657 189.3575976234311,192.16503455830198 189.2283611830717,191.1628985840189 189.18136966975044,190.13140211225647 189.22129609143053,189.0790329370139 189.3519983638386,188.01502865232345 189.57641518385336,186.94930937102566 189.89646631353423,185.8923973615257 190.31295880902414,184.85532372329442 190.8255007573061,183.84952239111735 191.43242409501835,182.8867119350562 192.13071807592385,181.9787658060912 192.91597492602008,181.13757186458093 193.78234917666964,180.37488221796698 194.7225320957276,179.70215458334195 195.727742543854,179.1303865772402 196.7877354676867,178.66994451680512 197.8908291032215,178.3303884907493 199.02395180180116,178.12029562257558 200.17270920803455,178.0470835996483 201.32147231455167,178.11683667714496 202.45348669385885,178.3341364829465 203.55100296413556,178.70190004544733 204.59542828537693,179.22122753848095 205.56749840693513,179.8912622835729 206.44746949967697,180.70906556722622 207.21532870839508,181.6695088177844 207.85102205583914,182.7651856407162 208.33469802210527,183.98634613131279 208.64696481574128,185.3208557684861 208.76915904962948,186.75418104167028 208.6836232395487,188.26940377420277 208.3739892605038,189.84726588087244 207.82546462979573,191.46624603489246 207.02511824081108,193.1026694211919 205.9621619521036,194.73085141992277 204.6282242469624,196.3232756982768 203.01761202368013,197.8508067924456 201.12755646037974,199.28293683773495 198.95843882456757,200.5880656568789 196.51399207032514,201.73381294845305 193.8014740886806,202.68736083342677 190.83180855227607,203.4158245232906 187.61968942657137,203.88664837327886 184.1836454085876,204.0680240848437 180.54606080211107,203.92932732897174 176.73314964622008,203.44156858275386 172.77488028216055,202.57785351267685 168.70484797142893,201.31384780646928 164.56009366409899,199.62824095820096 160.3808675588116,197.50320315595474 156.2103366914493,194.924829114982 152.09423643449674,191.88356244890605 148.0804664787256,188.37459398412344 144.21863259754997,184.398227304615 140.55953625572783,179.96020477203933 137.15461491074694,175.0719873048249 134.05533665914402,169.75098132496862 131.31255369231184,164.02070649658617 128.97581983751184,157.91089818933014 127.09267825966185,151.45753900501956 125.707926177297,144.7028142086083 124.8628641907584,137.69498650524275 124.59453852066432,130.48818630269395 124.93498509835833,123.14211439072011 125.9104850255297,115.72165485239697 127.54084141583768,108.2963969922723 129.83868803563104,100.94006611607506 132.8088404625821,93.72986411893136 136.4477006696367,86.74572202449824 140.7427260071853,80.06946785561419 145.67197348973679,73.78391449609595 151.2037300865953,67.97187351002333 157.29623936229052,62.71510220483049 163.89753430635386,58.09319254224715 170.94538552954808,54.18241180003699 178.36737318262038,51.05450615017628 186.0810899736575,48.77547952743035 193.9944815227128,47.40436129758436 202.00632900116082,46.991977277816886 210.00687756397394,47.57973959374917 217.87861250380132,49.198471659510545 225.49718334661713,51.867285220022325 232.73247428237863,55.59252688053698 239.44981739544912,60.36681185003309 245.51134314563632,66.1681627262665 250.77746047092984,72.95927103643831 255.10845675883417,80.68689890557324 258.3662057880537,89.2814376437817 260.41596960146535,98.656639214823 261.12827816173484,108.70953546551307 260.380868590936,119.32055865496214 258.0606638346026,130.35387522381563 254.06576874914327,141.65794288919622 248.30745992039087,153.06629904684203 240.71214401133795,164.3985861174655 231.22325813977145,175.46181690269034 219.80308473191425,186.05188023382453 206.4344525156986,195.95528422472685 191.12229483488096,204.95113130235805 173.89503630896775,212.81331591322473 154.80577905764147,219.31293242233775 133.93326027308245,224.22087726847397 111.38255387709938,227.31062595363093 87.28549035648274,228.3611619667464 61.80077063960013,227.1600313158239 35.11375206560362,223.50649301465404 7.435887105561875,217.21473268831082 -20.99620148204926,208.11710347488813 -49.922021950414745,196.06735565975967 -79.0589003884682,180.9438140335391 -108.10405795336754,162.65245986612905 -136.73707886654444,141.12987268608276 -164.6227646926767,116.34598579464155 -191.4143653170059,88.3066086726162 -216.75717170993636,57.05566919807006 -240.29245007018352,22.67712892208735 -261.66169132581683,-14.703474417190904 -280.5111443084935,-54.91790139677792 -296.49659526704073,-97.75454446123797 -309.2883508235408,-142.95825966712414 -318.57637607319054,-190.23073218863453 -324.0755343664821,-239.2314068994168 -325.53087046885435,-289.5790104167403 -322.72287435062003,-340.8536854073567 -315.47265890075323,-392.59975173464636 -303.64698146364697,-444.3291022090933 -287.1630363483132,-495.52523333356385 -265.9929434320512,-545.6479035658992 -240.1678567489626,-594.1384033184968 -209.78161658649014,-640.4254122521039 -174.99386917283766,-683.9314104826589 -136.0325795798293,-724.0796011983514 -93.19586603605518,-760.3012929804788 -46.85308748103557,-792.0436809449773 2.5548790814107747,-818.7779567878484 54.51622903889367,-840.0076690489357 108.44973910262048,-855.277246531527 163.7072373470858,-864.1805899604738 219.57706788337862,-866.3696297616793 275.28857356022104,-861.5627414343514 330.01760898510815,-849.5529044968137 382.89308415957214,-830.215486547072 433.0045262168582,-803.5155307162574 479.41063324237655,-769.5144228258729 521.1487800682828,-728.3758139999422 557.2454213995884,-680.3706754316045 586.7273228016006,-625.8813645499873 608.6335351217588,-565.4045860524064 622.0280130106337,-499.5531372187801 626.012763535657,-429.05633465160565 619.7413966454365,-354.75902910865057 602.4329356485198,-277.6191264185496 573.3857331303434,-198.70354557150154 531.9913260614653,-119.18255991430027 477.7480534658463,-40.3224838827019 410.2742511353124,36.52331421900931 329.3208307062798,109.92507335114905 234.78304516163357,178.38895390588908 126.71123967750427,240.370962055653 5.320385882522999,294.29241851591394 -129.00180080033937,338.55688232512773 -275.68835685744915,371.56841614301163 -433.98836863893746,391.7510552641572 -602.9642520290834,397.569318325826 -781.4911806731496,387.54957386373354 -968.258814055622,360.3020537603902 -1161.7754582562404,314.5432825725551 -1360.3747708525816,249.11867106238194 -1562.2250972634836,163.0250033413376 -1765.341498948387,55.43253021942408 -1967.6005044469166,-74.29363301589507 -2166.7575824560704,-226.57311774337415 -2360.4673022367565,-401.5912438811083 -2546.306110897081,-599.2816193139272 -2721.7976198383203,-819.3107249887854 -2884.440254232815,-1061.064811085938 -3031.737080231558,-1323.6394227389753 -3161.227585110017,-1605.8318624164444 -3270.5211462235698,-1906.1368801367453 -3357.331885958148,-2222.7458620575285 -3419.51457235318,-2553.549762604388 -3455.1011892863066,-2896.145995177376 -3462.3377666055803,-3247.849461656856 -3439.7210299423527,-3605.7078615390933 -3386.0344027106266,-3966.521377751945 -3300.3828695640645,-4326.866788282478 -3182.22619189616,-4683.126001009783 -3031.4099523699865,-5031.518953966041 -2848.193897461202,-5368.140765103584 -2633.277045065602,-5689.002955048762 -2387.8190287916304,-5990.078503865276 -2113.4571620072998,-6267.350439182458 -1812.3187233581873,-6516.86358887842 -1487.0279915686765,-6734.779067609645 -1140.707591057412,-6917.431003659866 -776.9737513296045,-7061.384951695669 -399.9251322563689,-7163.497378952041 -14.124924118588183,-7220.975558037899 375.42400451506074,-7231.437149876591 763.3110666909234,-7192.968716209372 1143.7571023405326,-7104.182363512602 1510.6607022838832,-6964.269690016594 1857.6516145517335,-6773.052185637455 2178.1510420183467,-6531.027221868919 2465.4385417810945,-6239.408765799667 2712.725135169197,-5900.16196012004 2913.2321337718167,-5516.030729873204 3060.2750826051392,-5090.557607304781 3147.3521177322723,-4628.0950088749605 3168.2359336321906,-4133.807253597959 3117.0684567734106,-3613.662679510697 2988.4572276263893,-3074.4152952424943 2777.5724052277124,-2523.5754962039414 2480.243227893923,-1969.3694795131441 2093.052692283678,-1420.6871079368511 1613.4291522232181,-887.0181001725491 1039.7334900087687,-378.3765618840001 371.340477695279,94.78598200645165 -391.2870744839785,521.6787393837103 -1246.532789700842,891.2805126993076 -2191.5712103141914,1192.4586306473097 -3222.323660898251,1414.0971417649532 -4333.426801376508,1545.2332925337296 -5518.215113239719,1575.2011439325843 -6768.718471804541,1493.7810147311625 -8075.675847076616,1291.3532793665524 -9428.566045027763,959.0548953672393 -10815.656250244854,488.9368923815333 -12224.06896048669,-125.87907561993234 -13639.867714508246,-891.0471290122202 -15048.16180766958,-1810.8486244045084 -16433.229966738112,-2888.0508707148765 -17778.662717597024,-4123.775347025969 -19067.522929272545,-5517.377702281226 -20282.52375705783,-7066.3418231604555 -21406.222939092822,-8766.190234735006 -22421.232127371954,-10610.413047141297 -23310.43965886895,-12590.41757917989 -24057.244898581455,-14695.500675399211 -24645.80201731551,-16912.845586134 -25061.27080661948,-19227.545099776697 -25290.07188525651,-21622.65240328976 -25320.14341988985,-24079.26090105786 -25141.196271217337,-26576.61394450118 -24744.964289622203,-29092.245116753926 -24125.446325461126,-31602.149379950995 -23279.136392251243,-34080.98502952848 -22205.238329976615,-36502.306013183166 -20905.861264043095,-38838.82376498562 -19386.192146343594,-41062.697281291956 -17654.641701425186,-43145.84972871374 -15722.960185474216,-45060.30943007083 -13606.319500926578,-46778.57262695998 -11323.35839666434,-48273.98497269377 -8896.187724134574,-49521.13827259741 -6350.353013893951,-50496.27856596545 -3714.7519849897167,-51177.72124158417 -1021.5050005042128,-51546.26850298504 1694.2230649220037,-51585.624156961625 4394.45057788561,-51282.80039584414 7038.65700328659,-50628.51098700665 9584.1107585088,-49617.54507835031 11986.246328200077,-48249.115682124735 14199.089240771162,-46527.17681713823 16175.726818405652,-44460.703276488486 17868.82190284663,-42063.92704922115 19231.166036974868,-39356.52456400517 20216.26785535286,-36363.74914451851 20778.971714209576,-33116.5033724859 20876.100882052855,-29651.346447072283 20467.11892594241,-26010.432109515652 19514.80227551766,-22241.373269360316 17985.916337502127,-18397.030122218166 15851.886978097491,-14535.219286277146 13089.458699961995,-10718.342302223404 9681.330424773008,-7012.932734052873 5616.759461897659,-3489.1220703571994 892.1240082546186,-220.0256497498449 -4488.565606659033,2718.9490884348247 -10513.216734762156,5250.868606013326 -17161.274984013507,7298.108944688209 -24403.42502514497,8783.25533202942 -32201.38073862819,9630.058784058278 -40507.77330900643,9764.441599860373 -49266.14523213106,9115.54249190136 -58411.057417165735,7616.790981952588 -67868.31563976896,5206.99963315922 -77555.32153757905,1831.4617006135568 -87381.5521379419,-2556.9591171009 -97249.17057656795,-7996.760937449966 -107053.76921232462,-14516.772748833366 -116685.24477756662,-22135.17557840462 -126028.80353724318,-30858.591468943912 -134966.09267748418,-40681.25616954475 -143376.45232149397,-51584.29146966279 -151138.2806953354,-63535.09293438778 -158130.50305837666,-76486.84841961207 -164234.1330943649,-90378.20214990222 -169333.913552425,-105133.0783222426 -173320.0210572678,-120660.67715060995 -176089.8182002706,-136855.6549872961 -177549.6343045339,-153598.49864748036 -177616.55465483927,-170756.10232709596 -176220.19652539014,-188182.55354694836 -173304.44905209914,-205720.1323879002 -168829.1529094845,-223200.52591556028 -162771.69489185553,-240446.25714447512 -155128.4918902692,-257272.3251808441 -145916.3384251359,-273488.0503320909 -135173.59186207913,-288899.1150073038 -122961.16972605835,-303309.788183953 -109363.33415378374,-316525.31811560784 -94488.23950184224,-328354.4748377285 -78468.22046920717,-338612.22093164554 -61459.79980559517,-347122.4859705039 -43643.396765020145,-353721.0171370135 -25222.719926053607,-358258.27571472473 -6423.830831156038,-360602.3465566942 12506.131913528265,-360641.8252728277 31300.57490499276,-358288.64579509717 49675.421550858904,-353480.80922290165 67331.4318434578,-346184.9734626829 83956.864715028,-336398.8621985185 99230.4727511405,-324153.4512034856 112824.8142185771,-309514.88996178657 124409.86240721615,-292586.117052127 133656.887245599,-273508.12877251994 140242.5790838643,-252460.8620894662 143853.3795069302,-229663.65518884547 144189.97911012545,-205375.2517041573 140971.93740693433,-179893.31810557574 133942.37551466073,-153553.44774910656 122872.68805089616,-126727.6296997307 107567.21684488853,-99822.16563838464 87867.8256966803,-73275.02391446983 63658.31257572561,-47552.62607871991 34868.593410499125,-23146.06798279501 1478.5900494706975,-566.7847098287905 -36478.24586389526,19658.323856348463 -78911.84140422662,36992.28217582781 -125672.91076566487,50893.910205237255 -176550.92935666867,60824.13566116937 -231272.73676595965,66252.69826589533 -289501.8281882477,66665.18867521787 -350838.3893276751,61570.35678207348 -414820.124235731,50507.616359289954 -480923.9189915799,33054.66566539691 -548568.3766116609,8835.136806044715 -617117.2501104528,-22473.819560588872 -685883.7912675857,-61134.11304383834 -754136.0224441786,-107339.55932905087 -821102.9278037271,-161209.10005188745 -885981.5486148772,-222780.50634028294 -947944.9550440924,-292004.67695626046 -1006151.0540984473,-368740.64200941 -1059752.1802792146,-452751.3818758101 -1107905.4021949824,-543700.5681648495 -1149783.4650100316,-641150.3292693495 -1184586.2753319128,-744560.1371632448 -1211552.8221436054,-853286.9046447938 -1229973.4148402035,-966586.3731472988 -1239202.1075241563,-1083615.8605590665 -1238669.167637748,-1203438.4262351666 -1227893.4369601533,-1325028.4965922635 -1206494.4241625154,-1447278.9794232666 -1174203.960689678,-1569009.8784426176 -1130877.2459082243,-1688978.4016907886 -1076503.1034065117,-1805890.5384260945 -1011213.2682230276,-1918414.0591749288 -935290.5247710074,-2025192.8728822188 -849175.5174606164,-2124862.653808261 -753472.0606175454,-2216067.629183272 -648950.7813598266,-2297478.3969035586 -536550.9387000992,-2367810.6209968855 -417380.2743394506,-2425844.4314793907 -292712.7654331991,-2470444.3348650555 -163984.16702939259,-2500579.422274051 -32785.25186530412,-2515343.6441290453 99147.32232108277,-2513975.904143034 229942.5629617109,-2495879.711002708 357609.1282382307,-2460642.114149088 480051.73689144093,-2408051.6406553187 595089.9601639404,-2338114.943690739 700479.3213147774,-2251071.8697162233 793934.5944335618,-2147408.6516309166 873155.1596584818,-2027868.9388140268 935852.2367382455,-1893462.3825744966 979777.7835730407,-1745470.5071000212 1002754.8113541147,-1585449.611709554 1002708.8336503394,-1415230.4701412509 977700.1337394253,-1236914.616785442 925956.5031442306,-1052867.0381836414 845906.0752152755,-865705.1206895525 736209.8512100942,-678283.7418005689 595793.4931694603,-493676.4331331997 423877.9384846548,-315152.5870877019 220008.3758811738,-146150.72661952485 -15918.887914974195,9752.092160388605 -283632.1468665265,148874.62202728426 -582463.0754458976,267469.33397648897 -911329.0391661155,361763.660212811 -1268719.3929461017,428004.28000746825 -1652686.2054603216,462504.1002719677 -2060839.8219276583,461691.5258239285 -2490349.645247803,422161.558673692 -2937950.475941277,340728.21201727167 -3399954.705020961,214477.67378208356 -3872270.6008317196,40821.607357408844 -4350426.871252023,-182450.06561853763 -4829603.616756413,-457117.5930181975 -5304669.718094432,-784481.7545044214 -5770226.62524908,-1165316.9067700973 -6220658.432497926,-1599827.4769727758 -6650188.038512447,-2087608.678001458 -7052939.10129331,-2627612.2185546765 -7423003.4062424265,-3218117.7706923024 -7754513.172797592,-3856710.937029842 -8041717.731864323,-4540268.428646441 -8279063.913911211,-5264951.122753218 -8461279.397254197,-6026205.616008252 -8583458.179000035,-6818774.824983411 -8641147.248654205,-7636718.1097362405 -8630433.46785696,-8473441.309909267 -8548029.590440826,-9321736.985609693 -8391358.296353806,-10173835.04801164 -8158633.062296528,-11021463.847827042 -7848934.652474813,-11855921.664326027 -7462281.985917724,-12668158.404436111 -6999696.123524933,-13448867.181750052 -6463256.1194701595,-14188585.300328428 -5856145.498764324,-14877804.019443352 -5182688.15651767,-15507086.324470565 -4448372.525417755,-16067191.777732607 -3659862.926686185,-16549207.373074744 -2824997.106621364,-16944683.17127659 -1952769.0659127738,-17245771.352118168 -1053296.4121363135,-17445367.18514466 -137771.60689347988,-17537250.297079697 781603.3626214459,-17516224.50161095 1691699.1830648745,-17378254.359111764 2578558.390676653,-17120596.551923342 3427511.4243722074,-16741924.097217081 4223309.240607338,-16242441.37620119 4950271.947184964,-15623987.937432198 5592452.677459458,-14890129.034990646 6133815.684577115,-14046230.890855968 6558427.390068332,-13099518.726318682 6850658.875096983,-12059115.690819064 6995398.058988603,-10936060.92903506 6978269.57148898,-9743305.168896196 6785860.095879971,-8495682.384678882 6405946.7430469245,-7209856.290296264 5827725.815372155,-5904240.647802109 5042039.137486612,-4598892.634066867 4041594.9720057743,-3315378.7932217116 2821180.4059171183,-2076613.412047829 1377861.9906998773,-906669.4878415937 -288828.65018846653,169437.18921093494 -2176727.5660386207,1125989.9474866926 -4280892.889556262,1936837.8642446653 -6593484.179731822,2575685.446734699 -9103669.87190337,3016403.2973190304 -11797565.873123074,3233357.2961297627 -14658208.157099972,3201753.438991903 -17665561.98133787,2897995.0816392335 -20796570.069296766,2300048.9690585197 -24025241.77273442,1387816.0767179702 -27322784.854705945,143502.96419594128 -30657781.11351895,-1448010.9528867751 -33996406.60444765,-3398815.0639286824 -37302696.71206062,-5717623.222786074 -40538855.78517796,-8409448.636389386 -43665610.47299627,-11475303.324772466 -46642605.299763426,-14911927.547199344 -49428838.39215877,-18711554.577933237 -51983134.63452887,-22861716.136345286 -54264652.87922737,-27345093.62595138 -56233423.18997875,-32139420.11269039 -57850909.45340526,-37217437.672132954 -59080592.066080265,-42546914.35698487 -59888564.800475635,-48090724.57968256 -60244139.3821075,-53806996.17056631 -60120450.78133399,-59649326.76145417 -59495055.7460318,-65567071.45992928 -58350516.68518072,-71505703.0248671 -56674962.6674722,-77407244.93334262 -54462619.03244476,-83210776.84889086 -51714296.932958625,-88853011.06808068 -48437834.04518099,-94268937.54459715 -44648477.70309841,-99392534.07663725 -40369201.84560293,-104157537.2046715 -35630949.41114395,-108498268.31370467 -30472792.18250114,-112350508.37924868 -24942000.575913902,-115652413.75227493 -19094016.486806944,-118345464.3591938 -12992323.049437165,-120375434.7127072 -6708206.039212182,-121693377.20304877 -320402.6418070341,-122256606.28176871 6085365.571544056,-122029671.37713885 12416977.393925594,-120985305.706691 18576615.05347988,-119105337.59343582 24461584.76816603,-116381550.46254303 29965252.429607775,-112816477.40868783 34978090.47062705,-108424116.09408818 39388830.32310996,-103230549.7755258 43085713.18411226,-97274460.47614418 45957830.096837915,-90607520.72395901 47896540.63908014,-83294650.88120647 48796957.81609274,-75414129.89274858 48559485.09989529,-67057548.291027926 47091389.96614674,-58329593.51098089 44308396.77687146,-49347658.98928796 40136280.467265956,-40241270.14473832 34512441.24219547,-31151322.153308075 27387439.397816975,-22229126.43352219 18726468.480233904,-13635264.931986999 8510744.300215777,-5538253.63044031 -3261213.1367813633,1886980.8345155723 -16572427.931108106,8460804.96080692 -31386469.896801084,14000753.421612743 -47646632.192906894,18323563.45429351 -65275307.0269726,21247353.9133539 -84173580.49290873,22593931.518467646 -104221066.29108527,22191204.074654683 -125275996.43026109,19875677.754739646 -147175585.02742273,15495012.952340469 -169736679.00451326,8910610.77581937 -192756706.83736324,200.00000023605912" stroke="white" stroke-width="1.5" /><circle cx="150.12137650011238" cy="203.4817980637104" fill="red" opacity="0.7" r="12.173560908995228" /></svg>