<?xml version="1.0" encoding="utf-8" ?>
<svg baseProfile="full" height="400" version="1.1" width="400" xmlns="http://www.w3.org/2000/svg" xmlns:ev="http://www.w3.org/2001/xml-events" xmlns:xlink="http://www.w3.org/1999/xlink"><defs /><rect fill="black" height="100%" width="100%" x="0" y="0" /><circle cx="200" cy="200" fill="yellow" r="10.000000000020007" stroke="orange" stroke-width="2" /><polyline fill="none" points="201.3530661587251,200.0 201.3767280654445,200.07227193442966 201.39278287003734,200.14663356509652 201.40078277601242,200.22223876280722 201.40035881362874,200.29816724786687 201.39123099324576,200.37343100615772 201.37321804110965,200.44698197539844 201.34624656879933,200.51772099096397 201.3103595246493,200.5845079642629 201.2657237742482,200.64617324952516 201.21263665771795,200.70153013710836 201.1515313740183,200.7493883932707 201.0829810470951,200.7885687479734 201.00770133537736,200.8179182138885 200.9265514549864,200.83632610161808 200.84053349808323,200.84274057842683 200.75078994106255,200.8361856007977 200.65859925278087,200.81577803510194 200.56536953064227,200.7807447658925 200.4726301120789,200.73043957805345 200.3820211306523,200.6643595875295 200.29528100952476,200.58216098588485 200.21423191024041,200.48367385674953 200.14076318141076,200.3689158175499 200.07681287978417,200.23810423801316 200.0243474650322,200.0916667879928 199.98533979910908,199.93025007136814 199.9617456109162,199.75472611028476 199.9554786168799,199.56619645495286 199.9683845175576,199.36599370869826 200.00221411913387,199.15568027602737 200.05859585624276,198.93704416313255 200.13900801853788,198.7120916855039 200.2447510073947,198.48303696605083 200.37691997063823,198.25228813924952 200.53637818181085,198.02243021214605 200.72373154580657,197.796204571336 200.93930462428338,197.57648516603183 201.18311858173612,197.36625144069006 201.45487145609482,197.1685581360221 201.75392115587363,196.9865021241212 202.07927157893255,196.82318649142925 202.42956223556934,196.68168213181153 202.80306174072902,196.56498716054008 203.19766551644997,196.47598450790565 203.6108980161685,196.41739809783965 204.03991974715706,196.39174806167455 204.48153932622023,196.40130547931375 204.9322307569418,196.4480471789219 205.3881560644681,196.5336111610825 205.84519336631033,196.65925324349524 206.2989703953202,196.82580554701653 206.74490342429044,197.03363746250605 207.17824147109135,197.28261974990164 207.59411558949913,197.57209242559512 207.98759297459912,197.90083709098613 208.3537355336432,198.26705434355608 208.68766249435512,198.66834689151923 208.98461654383559,199.1017089637374 209.24003291340387,199.56352256788605 209.4496107489599,200.0495611016887 209.60938603384363,200.55500076435982 209.71580526281718,201.07444014829264 209.76579900284003,201.6019283147029 209.75685441988753,202.13100157172278 209.6870858023229,202.65472907979688 209.55530207139049,203.16576730776376 209.3610702393393,203.65642325445137 209.10477375655043,204.11872623584776 208.7876646817937,204.54450791794127 208.41190861526982,204.92549015130237 207.9806213531887,205.25338003667153 207.49789625596225,205.5199715226179 206.96882137019472,205.71725270824007 206.39948540791946,205.83751789749735 205.79697176519358,205.8734833287708 205.16933985626906,205.81840538541857 204.52559314897647,205.666199982218 203.87563341134924,205.41156172052467 203.23020081833877,205.0500813135865 202.60079971996157,204.57835970457762 201.99961003739926,203.9941172353862 201.4393844302345,203.2962961757616 200.93333156472357,202.48515489178328 200.4949860081283,201.56235192132792 200.13806547579327,200.53101823371784 199.87631636378853,199.39581598231135 199.72334870827675,198.16298211352319 199.6924619208654,196.84035527451726 199.79646285446216,195.43738456521834 200.04747795382272,193.96511880871194 200.4567614362075,192.43617516761876 201.0345016273998,190.86468611241483 201.78962774378766,189.26622395036253 202.7296195592474,187.65770234983412 203.86032252318813,186.05725454309757 205.18577100036018,184.48408815949574 206.70802238104207,182.95831692841242 208.4270048592676,181.50076979515802 210.34038169428962,180.13277831022882 212.44343475416957,178.8759434802639 214.728970088173,177.7518836040684 217.1872481847772,176.78196495560232 219.80594144316572,175.98701751387557 222.57012121707191,175.38703827300125 225.46227658016664,175.00088498977686 228.4623667117468,174.8459635364443 231.54790851065405,174.93791231792824 234.69410071505547,175.29028748100296 237.87398543741034,175.91425288257093 241.058647619669,176.81827899067434 244.21745247612222,178.00785506019827 247.31832052354994,179.48521905082188 250.32803930421073,181.24910983320106 253.2126103911509,183.29454625649086 255.93762973224162,185.6126376223646 258.4686988447704,188.19043002431584 260.7718638223205,191.01079286340467 262.81407856654715,194.05234964045977 264.56368811519496,197.2894568484514 265.99092741155584,200.6922344463732 267.06843035711245,204.22665098735524 267.7717435161078,207.85466599951442 268.0798384061796,211.53443167974518 267.97561592095144,215.2205553606628 267.44639609653933,218.86442355256585 266.4843861620841,222.41458764986862 265.0871196122142,225.81721063020603 263.2578589139511,229.01657327053346 261.0059544186957,231.95563756517848 258.34715209770195,234.57666416401452 255.303842862252,236.8218797636626 251.90524647219496,238.63418949066718 248.18752338225175,239.95792842346873 244.19380832713844,240.73964552093295 239.97416000559986,240.92891237100457 235.5854218901071,240.47914835602498 231.0909899621769,239.3484530640397 226.56048405052962,237.50043607090308 222.0693204266819,234.90503358913247 217.69818438460337,231.5393009391545 213.53240269077304,227.38816935948353 209.66121702978396,222.44515534670907 206.17696087845815,216.7130105155984 203.1741436066,210.20429990501762 200.74844701189215,202.94189673664317 198.99564093545212,194.9593818693384 198.01042605730999,186.30133659003326 197.88521342037495,177.02351794785912 198.70885165908396,167.19290657637805 200.56531429564944,156.88761786134856 203.53236079265906,146.19666839891727 207.68018629515794,135.21959094961937 213.07007613732566,124.06589252299005 219.75308220738523,112.8543518194972 227.7687391385121,101.71215400194716 237.14383900269553,90.77386265610286 247.89128370888946,80.18023081596914 260.0090346274579,70.07685505660481 273.47917906225314,60.61267887738964 288.2671330535987,51.93835389001006 304.32099960579967,44.20446966430316 321.57110077957924,37.55966544558615 339.92970116350637,32.14863931129122 359.2909390322713,28.110072652918745 379.5309800098565,25.57449012024543 400.5084062817595,24.662077315890656 422.064852345527,25.480480546305216 444.0258959596523,28.122614785959883 466.2022103580388,32.664507660783244 488.3909809552829,39.16320867068424 510.3775866956942,47.65479401595874 531.9375429190129,58.152498236267064 552.8386991551308,70.64500438300695 572.8436816497057,85.0949245977157 591.7125666972662,101.43750273459067 609.2057670569066,119.57957002135078 625.0871098901338,139.39878368008254 639.1270808363032,160.74317691303554 651.106205076725,183.43104668670378 660.8185325847095,207.25120331495506 668.0751912685105,231.96360294791765 672.7079684416001,257.3003807228184 674.5728780553093,282.9672985371493 673.5536684582172,308.64561718079403 669.5652231599946,333.9943979359638 662.5568052288512,358.6532337524747 652.5150945937046,382.24540476825865 639.466966704375,404.3814473148961 623.4819607718913,424.6631196758593 604.6743862085605,442.68774180788387 583.2050169509388,458.0528800564311 559.2823251096569,470.36134166317777 533.1632078729715,479.2264376509449 505.15316481343143,484.27746655798063 475.6058867186149,485.1653655618304 444.92222178827325,481.568469869075 413.5484905028854,473.19831593940137 381.97412665430244,459.80541925067473 350.72862890931117,441.18495298626453 320.37781481248044,417.182250326547 291.5193772757618,387.6980500412564 264.7777522882579,352.6934028931148 240.7983157387941,312.19415505666143 220.24093679418888,266.29492440458034 203.77292512484053,215.16248618548934 192.06141931382095,159.0384863721414 185.76527391436235,98.24140384818686 185.52651271299746,33.16768666495085 191.96142568372628,-35.70800713476089 205.65139674792127,-107.83352714600153 227.13355864544988,-182.58096200340577 256.8913798309915,-259.2494309696749 295.34529618966627,-337.06897204658935 342.8435073710791,-415.2055517387147 399.65306352493815,-492.76720933124705 465.951373041796,-568.8113352932028 541.818265421126,-642.3530692841591 627.2287454751681,-712.3747883441526 722.0465756086631,-777.8366403157902 826.0188217811275,-837.688061536232 938.7714958622942,-890.88020151143 1059.806422350695,-936.379160827857 1188.4994507755564,-973.1799321638694 1324.100126498111,-1000.3209181420875 1465.7329220462188,-1016.8988841344685 1612.400118555021,-1022.0841892204442 1762.9864123699504,-1015.1361245392679 1916.2653054465786,-995.4181755079101 2070.9073199307336,-962.4130130340134 2225.490057327399,-915.7370091763919 2378.5101011002653,-855.1540649250303 2528.396738547878,-780.5885321125478 2673.527453567073,-692.1370081419384 2812.245116658388,-590.0787814187095 2942.8767724973973,-474.8847072888426 3063.7538988621736,-347.22429906486 3173.2339839668402,-207.97082650332953 3269.7232426233854,-58.204224982580115 3351.700265477197,100.78836730831644 3417.74037019215,267.5146095814052 3466.540399268152,440.2816409824513 3496.943686537669,617.2035666968918 3507.9648936937697,796.2118421204094 3498.814399838229,975.0686198562083 3468.9219113885883,1151.3830917748573 3417.958947124622,1322.6308232666893 3345.859844050364,1486.1760393951756 3252.8409244424242,1639.296783232779 3139.417463269437,1779.212825584831 3006.4180983915435,1903.1161629824278 2854.9963338381367,2008.203897695007 2686.638799231376,2091.7132500601797 2503.16994623961,2150.958410170594 2306.7528859259187,2183.3688934475567 2099.886099062034,2186.529023446542 1885.3957849061599,2158.218125982432 1666.4236525288484,2096.4509819497143 1446.4100023791182,1999.5180526716822 1229.0719942077244,1866.0249618730318 1018.3770504260448,1694.930693056573 818.5114011222211,1485.5839407881742 633.8438378505816,1237.7570397445031 468.8848074494528,951.6768869145035 328.24104394579285,628.052270587521 216.56600541992282,268.0970251792719 138.506452809123,-126.45155604450281 98.64557823860612,-553.3195973426967 101.44316073857588,-1009.6893238157716 151.17329623930232,-1492.198031962967 251.86031559105544,-1996.9437817422868 407.2135680547085,-2519.498189875106 620.5618072481358,-3054.9266412412235 894.7879708939221,-3597.8161641603265 1232.265193872333,-4142.311136490194 1634.7949350255537,-4682.156903247774 2103.5481308920794,-5210.751293456396 2639.010313117613,-5721.203924844999 3240.931639782328,-6206.403080696129 3908.2827934636293,-6659.089834509045 4639.217689753465,-7071.938986271824 5431.043918501967,-7437.646260198707 6280.201805704783,-7749.021099065363 7182.252936252035,-7999.084276138214 8131.878916412767,-8181.1694336051005 9122.891079789535,-8289.02754790507 10148.25175155349,-8316.933219013044 11200.107583244726,-8259.791584193925 12269.835354660348,-8113.244568656548 13348.100510907178,-7873.775107571599 14424.928562314857,-7538.8079077192215 15489.789323538178,-7106.805264210955 16531.693806968,-6577.356409841221 17539.303415869075,-5951.25885313739 18501.050906009037,-5230.5901574594045 19405.272402669758,-4418.768628787179 20240.349574754473,-3520.601415209572 20994.86088130068,-2542.3185774966746 21657.74062031932,-1491.591768203619 22218.444327880385,-377.53625700077055 22667.118899240962,789.3048374098004 22994.775636153303,1996.9951033730993 23193.46426794825,3232.25900778688 23256.445851254193,4480.55632182897 23178.3623269885,5726.177230479932 22955.400406218152,6952.35832683682 22585.44737124856,8141.419445824467 22068.236317387065,9274.921029583058 21405.478326621054,10333.841440740676 20600.979059172798,11298.773352479187 19660.737274538977,12150.138048596515 18593.02285195273,12868.416165770823 17408.431972676248,13434.393107333393 16119.917254283804,13829.417056697896 14742.790790901612,14035.667223038115 13294.69825360684,14036.429665903874 11795.562441805634,13816.377773421158 10267.49494890146,13361.854214849523 8734.674912942077,12661.150956941416 7223.194163710765,11704.783729153198 5760.868449902599,10485.757149643561 4377.014831071322,8999.816586407711 3102.1957458931834,7245.6827299288125 1967.9307173894697,5225.264799253246 1006.3771229810453,2943.8482960025435 249.9819380198897,410.2532637693173 -268.8931493202722,-2363.040893556871 -518.3703617285419,-5359.80782936062 -467.4748157456661,-8560.027493606001 -86.57000484465834,-11939.883512120154 652.1945406964778,-15471.807697306582 1774.4281818271872,-19124.5742958451 3303.041863058659,-22863.446134792044 5257.794120383141,-26650.37432670302 7654.846287012576,-30444.252639431103 10506.333059120889,-34201.22703034716 13819.954805829535,-37875.06019203708 17598.598165194722,-41417.550262025834 21839.99155465585,-44779.002118604614 26536.40223446828,-47908.74892507573 31674.381490809697,-50755.720803163844 37234.56434692837,-53269.0567212393 43191.52996207266,-55398.754883346934 49513.72853604536,-57096.35611046602 56163.480100073575,-58315.65392617774 63097.050041336544,-59013.42430570599 70264.80557913583,-59150.16733123112 77611.4566867299,-58690.85232885953 85076.38413696074,-57605.65745521994 92594.0564459592,-55870.69416592354 100094.53650278902,-53468.7065455452 107504.07761062105,-50389.73512055394 114745.80753504377,-46631.73452351301 121740.49796694494,-42201.13423907914 128407.41557193328,-37113.331649295214 134665.24952768782,-31393.106715902868 140433.10915841997,-25074.947898329956 145631.58397638117,-18203.279313831295 150183.85714981475,-10832.579705706325 154016.8621514947,-3027.3844998176305 157062.47111950343,5137.836899747529 159258.70230024098,13578.935398446525 160550.93286132853,22202.473724834243 160893.10237788025,30906.25948278247 160248.8914283785,39580.02258307653 158592.85900470364,48106.238288979715 155911.52186294537,56361.095381296094 152204.35853494308,64215.60710974302 147484.7205015815,71536.86066458908 141780.6330130216,78189.39889326463 135135.4682420776,84036.72592089429 127608.47388686342,88942.92623333653 119275.14100762793,92774.38467016377 110227.39579806336,95401.59267862189 100573.60115840402,96701.02412502369 90438.35535870533,96557.06197563012 79962.07675512866,94863.95527424221 69300.36544598853,91527.7840885698 58623.13492053679,86468.40850249064 48113.50915124549,79621.37632714416 37966.483195353496,70939.76302062784 28387.348185756797,60395.91637346295 19589.884583181618,47983.07786327884 11794.330705761873,33716.85223421224 5225.136819663763,17636.496839084633 108.51843290988111,-193.9973821098801 -3330.1741516421084,-19685.06070605003 -4869.249537879583,-40720.96153460187 -4293.608300987875,-63159.51023315738 -1397.7881871635898,-86832.07281768355 4010.909000351915,-111543.91509032427 12109.242335804003,-137074.89509277965 23054.84487901172,-163180.5186109107 36983.06389456898,-189593.36893494418 54003.86939308085,-216024.91817484758 74198.87411839329,-242167.72317333738 97618.50960955587,-267698.0044789106 124279.40401671999,-292278.601973614 154162.00790283555,-315562.29563629895 187208.51427764157,-337195.4746089311 223321.11855084207,-356822.1322739297 262360.66292603535,-374088.15950261237 304145.7079598315,-388645.9026616904 348452.0715617068,-400158.94743406476 395012.872596321,-408307.08409357874 443519.1124655209,-412791.4046458679 493620.8235940373,-413339.4772867296 544928.8086319374,-409710.53901514877 597016.988437342,-401700.64305076667 649425.3705437994,-389147.69402593025 701663.6428862308,-371936.30083030026 753215.3901054306,-350002.3745590617 803542.9218314487,-323337.3973289024 852092.6940281728,-291992.28684963327 898301.2958417517,-256080.7816387676 941601.9655201978,-215782.27270027003 981431.5899552357,-171344.0094079948 1017238.133342822,-123082.61028112829 1048488.4314759423,-71384.81334545369 1074676.2793888892,-16707.405861578623 1095330.7315881103,40423.720621514585 1110024.5260573698,99415.43666592526 1118382.535743769,159610.20124386818 1120090.1444469602,220289.87701473254 1114901.4380778961,280680.55330124043 1102647.0972552756,339958.3842017744 1083241.8732936354,397256.4371435923 1056691.5269282686,451672.5342950718 1023099.1077332817,502278.05572411884 982670.4522255722,548127.6591396737 935718.7802047388,588269.8566236217 882668.2720389711,621758.374105872 824056.5144382728,647664.2046227406 760535.7088104497,665088.2518074339 692872.5446061977,673174.4457809434 621946.6501416519,671123.1998405601 548747.545232931,658205.0632868138 474370.0335585435,633774.4135983427 400007.98792918335,597283.0201708662 326946.49851319107,548293.3021939326 256552.3724375442,486491.0951580116 190262.99293075915,411697.7341698389 129573.56714192484,323881.25790252455 76022.81378029172,223166.53480448763 31177.16456838949,109844.11330911117 -3386.423039567016,-15622.399621042445 -26098.920604095285,-152590.62208196914 -35418.805736588125,-300235.52549719706 -29852.592549324105,-457547.57939894276 -7976.123455690692,-623333.0709786441 31543.592095052005,-796216.7412125831 89926.22754636263,-974646.8600509781 168255.93309484393,-1156902.841024127 267459.346563944,-1341105.4707535577 388284.10998192336,-1525229.8013864146 531278.1936190083,-1707120.7240639813 696770.3394246307,-1884511.2094004087 884851.9427936127,-2055043.1668347225 1095360.6950793744,-2216290.8389206645 1327866.3089848356,-2365786.6094669937 1581658.6446484202,-2501049.0663074143 1855738.5456873768,-2619613.120772502 2148811.681485908,-2719061.9470993686 2459285.6744868928,-2797060.4665227868 2785270.769076146,-2851390.063145695 3124584.2718023066,-2879984.1824127496 3474758.961174567,-2880964.428651083 3833055.629204281,-2852676.746252884 4196479.876347687,-2793727.2402174775 4561803.236772872,-2703017.1665083 4925588.6621875735,-2579776.6015671487 5284220.340167045,-2423596.283905414 5633937.767421747,-2234457.109477942 5970873.94021869,-2012756.7570279106 6291097.4637597725,-1759332.920221035 6590658.320331375,-1475482.6305685444 6865636.973135857,-1162977.169219673 7112196.419619962,-824072.0869735423 7326636.745599843,-461511.88053310505 7505451.670361877,-78528.90924116937 7645386.514050024,321163.81964729185 7743496.96291371,733386.317725061 7797207.956291432,1153511.9959872284 7804371.972455641,1576494.9549411808 7763325.949558638,1996904.3071749462 7672946.04379841,2408965.5760199586 7532699.400444232,2806609.128825146 7342692.095366766,3183525.5130547746 7103712.395998449,3533227.4687090074 6817268.491935847,3849118.2923262124 6485619.857341787,4124566.1270459318 6111801.430476563,4352983.650974782 5699639.830547307,4527912.533578236 5253760.878962637,4643111.928276 4779587.75123919,4692650.170176311 4283329.157311574,4670998.752332881 3771957.0317864977,4573127.563484122 3253173.3115352094,4394600.286405905 2735365.4855510723,4131668.780260289 2227550.720656728,3781365.204137967 1739308.4956957465,3341590.583834291 1280701.8153791663,2811198.4811941697 862187.2218872597,2190072.3964720713 494513.97638973675,1479195.52036901 188612.9423996164,680711.4549066988 -44524.13328435718,-202025.45785589976 -193974.08013220574,-1164411.5221550413 -249019.47544980454,-2200568.055682665 -199292.33453962568,-3303329.926670579 -34922.964897775564,-4464249.353383031 253307.5251934939,-5673615.941830383 673812.7200123473,-6920493.800892444 1234046.1839349451,-8192776.417825832 1940348.4581444669,-9477259.80195801 2797797.7886216487,-10759734.211150082 3810066.6966804224,-12025094.565536678 4979286.572176408,-13257469.427607497 6305922.51587609,-14440368.188659612 7788660.679245699,-15556845.851081502 9424310.345184414,-16589684.536177693 11207722.960270017,-17521590.58092114 13131730.266426524,-18335405.817002818 15187103.58635231,-19014331.35494475 17362536.191659972,-19542161.928185187 19644650.52490094,-19903528.59044217 22018031.856276117,-20084147.307994846 24465289.733051006,-20071070.750582367 26967148.325105216,-19852940.3642882 29502566.48467989,-19420235.610976484 32048888.023745663,-18765517.085486714 34582022.37043715,-17883660.077739436 37076655.39912256,-16772075.035910703 39506489.83978635,-15430911.312491 41844514.26487512,-13863240.540740374 44063299.22939639,-12075215.99788505 46135318.70714558,-10076204.36616028 48033294.52713521,-7878886.405878519 49730561.07468341,-5499323.208047182 51201447.086593695,-2956984.899134546 52421670.94515899,-274738.9283015632 53368745.46730351,2521204.6219026293 54022387.79922936,5401392.897056445 54364929.66975355,8333277.085289783 54381722.93348269,11281407.50038661 54061535.054429844,14207677.736899052 53396928.947916426,17071618.143852506 52384621.41969308,19830738.266506553 51025814.32201576,22440917.272888657 49326492.4923909,24856840.71891971 47297682.55690479,27032481.319131102 44955666.77097022,28921620.6861697 42322146.239844784,30478408.28913116 39424348.11254099,31657953.16647348 36295071.67811611,32416943.222682618 32972668.71426729,32714286.248273592 29500953.94514077,32511766.139836904 25929042.057771333,31774707.170722853 22311108.402941156,30472638.583837017 18706071.263697926,28579951.256258655 15177194.40930239,26076537.73131389 11791609.558774732,22948406.53753185 8619759.350004332,19188261.425463453 5734762.439880772,14796035.962130798 3211703.4391460274,9779373.837781394 1126851.502513401,4154045.2688152175 -443187.4612604791,-2055709.9684764305 -1422378.8356321154,-8816922.060103165 -1736220.314636456,-16087722.007685564 -1312747.4615071442,-23817272.03978583 -83574.25606967893,-31945803.120818056 2015041.9963936512,-40404766.26992968 5041123.037801344,-49117103.436176844 9045891.893352423,-57997642.57407078 14072708.398224004,-66953620.329728544 20156032.17698104,-75885334.38896434 27320427.84577117,-84686926.06324598 35579627.67234483,-93247292.10802849 44935667.2355766,-101451123.093198 55378109.76000902,-109180063.8917349 66883374.74878543,-116313990.03681006 79414186.28836593,-122732391.83777036 92919155.9404877,-128315856.2620345 107332514.46272577,-132947634.7046906 122574005.70261307,-136515282.903839 138548954.88788363,-138912357.44214004 155148522.18581662,-140040151.52927062 172250150.82946962,-139809451.11261395 189718217.31226513,-138142290.84157002 207404889.1425146,-134973688.04175302 225151193.43666345,-130253331.66623865 242788297.22833213,-123947202.20886336 260138997.79678103,-116039097.8153808 277019418.5937959,-106532041.33700433 293240903.49589896,-95449542.86087142 308612099.1562693,-82836692.34474361 322941212.2076871,-68761057.397876 336038425.00721335,-53313362.00290687 347718450.5506475,-36607923.07808276 357803204.1580949,-18782823.244972352 366124566.58121586,199.99999955162696" stroke="white" stroke-width="1.5" /></svg>