<?xml version="1.0" encoding="utf-8" ?>
<svg baseProfile="full" height="400" version="1.1" width="400" xmlns="http://www.w3.org/2000/svg" xmlns:ev="http://www.w3.org/2001/xml-events" xmlns:xlink="http://www.w3.org/1999/xlink"><defs /><rect fill="black" height="100%" width="100%" x="0" y="0" /><circle cx="200" cy="200" fill="yellow" r="20" stroke="orange" stroke-width="2" /><polyline fill="none" points="199.2270750154658,200.0 199.29071148382278,199.96276559298855 199.3629010195535,199.9329255860106 199.4431690745667,199.91165695489676 199.53090389805436,199.90011910351765 199.62535479551212,199.899438600532 199.7256319943226,199.91069331344883 199.83070822499909,199.93489609738157 199.93942211314408,199.9729782119644 200.05048346101336,200.0257726549141 200.16248047934388,200.09399761439346 200.27388900990064,200.1782402544081 200.38308375713373,200.27894105768718 200.4883515235686,200.3963789586102 200.58790641825772,200.53065750450412 200.67990698101488,200.6816922868197 200.7624751374772,200.84919988408788 200.83371687156477,201.03268855596883 200.89174447293922,201.23145092196594 200.93470018792226,201.44455884934914 200.9607810733789,201.67086076240415 200.96826482466744,201.90898156922884 200.95553632130017,202.15732538289396 200.9211146078524,202.41408119088624 200.86368000331333,202.67723160040276 200.7821010099171,202.9445647573653 200.6754606729426,203.21368950411872 200.54308202644964,203.4820538048593 200.38455224682986,203.74696642915683 200.1997451267893,204.0056218427797 199.9888414773181,204.25512821175636 199.75234706468092,204.4925383806008 199.4911076937972,204.714883639343 199.20632105883547,204.9192100469229 198.89954499665683,205.10261703116566 198.57270179907258,205.26229793852374 198.22807826585512,205.39558216065734 197.86832121211089,205.4999784203618 197.49642818097558,205.57321875699785 197.11573315554523,205.61330271211284 196.72988711234737,205.6185411800433 196.34283331225163,205.5875993566451 195.9587772831976,205.5195381925881 195.58215151207878,205.41385373654 195.21757493008516,205.2705137386823 194.86980734620445,205.08999087696176 194.54369905676995,204.87329196782963 194.2441359341974,204.62198253047322 193.97598037457564,204.3382060891293 193.74400856069911,204.02469762235754 193.55284457352622,203.68479060142198 193.4068919599266,203.322417102368 193.3102634369148,202.9421005280779 193.26670948128032,202.54894053751602 193.27954661752557,202.1485898493969 193.35158627519365,201.74722266636184 193.48506513789906,201.35149455304446 193.68157794956178,200.96849369662166 193.94201377741274,200.6056835809299 194.2664967552511,200.27083721418944 194.65433234321674,199.97196316489956 195.10396014108485,199.71722377949393 195.61291427998393,199.51484607769714 196.17779239176863,199.37302594590386 196.79423411545937,199.29982637389705 197.45691004573695,199.30307060431915 198.15952195915168,199.39023118590674 198.8948150693387,199.5683160389122 199.6546029631632,199.8437527526282 200.42980575558587,200.22227243871555 201.21050187257015,200.7087945583068 201.98599372918346,201.30731422380774 202.74488741503265,202.0207935461529 203.4751863323789,202.85105865324786 204.16439855499308,203.79870404376584 204.7996574895352,204.86300596077746 205.36785522769247,206.04184647041077 205.85578777840334,207.33164991054608 206.25031116735295,208.7273333322926 206.53850718783914,210.22227249172676 206.70785738554721,211.8082848603569 206.74642366234036,213.47563100954295 206.64303369360826,215.21303558641992 206.38746917284462,217.00772893683404 205.9706547288497,218.8455102447785 205.38484520820833,220.71083284852557 204.62380888142135,222.58691216213293 203.6830040181745,224.455856378652 202.5597461885504,226.2988198599241 201.25336358525124,228.09617882941777 199.7653376296744,229.8277286815865 198.09942612434773,231.47290190650716 196.2617662479266,233.0110053052217 194.260954758539,234.42147484269742 192.10810287827854,235.6841461553822 189.8168634772605,236.77953840296868 187.4034283606509,237.6891488334448 184.88649368678347,238.3957551212379 182.28719180876584,238.8837222448604 179.62898813519854,239.13931039764913 176.9375419466317,239.15098017773195 174.24053048144907,238.90969108602894 171.56743601571992,238.40918917862547 168.94929610335353,237.64627957684343 166.41841761219837,236.62107943921123 164.00805568455735,235.33724694845841 161.7520592623846,233.80218186749835 159.68448534309005,232.02719327457498 157.8391846657974,230.02763020234698 156.2493620639867,227.82297108115134 154.9471152521838,225.43686812492237 153.96295633482546,222.89714310048123 153.32532082740352,220.2357312876824 153.06006945599097,217.48857086896777 153.18998844361352,214.6954354811803 153.73429439289885,211.89970821811022 154.70815022624873,209.14809598639 156.12219893976976,206.49028378629166 157.98212215788922,203.9785292080658 160.28823063479825,201.66719819810592 163.03509392983534,199.6122439509126 166.21121648040378,197.87063161513979 169.79876720238838,196.49971235663372 173.7733695594316,195.5565511891814 178.1039587548325,195.09721385475953 182.75271231018664,195.17601889880237 187.67505980120998,195.84476193114472 192.81977692265463,197.1519198780936 198.1291683512491,199.1418438033659 203.53934306993963,201.8539495929459 208.98058491150613,205.32191644866577 214.37782007947746,209.5729037048789 219.65118231525713,214.6267969595326 224.71667521008473,220.49549488311013 229.48692991802187,227.18224832466225 233.87205522217778,234.6810634625001 237.78057555299196,242.97618073795354 241.12045116808378,252.0416411548122 243.8001732928446,261.8409512167774 245.72992560572678,272.32685730397947 246.82280204934517,283.4412396524398 246.99606957634,295.1151352940817 246.17246311657297,307.268898338251 244.2814987994299,319.8125048294077 241.26079030202737,332.64600810261516 237.0573521414472,345.66014908383397 231.62887280724115,358.7371243533683 224.94493985957982,371.7515130180258 216.9881985182723,384.5713615330851 207.7554248573532,397.05942359384494 197.25849451683126,409.074550095708 185.52522786393575,420.47322196114794 172.6000927955107,431.1112163735329 158.5447468838631,440.84539466588717 143.43840134082342,449.5355978135161 127.37799031696909,457.0466332011251 110.47813036999538,463.2503341073533 92.87085653009194,468.0276712036577 74.7051232596433,471.27089333234625 56.146060744790674,472.88567294322047 37.37397935889186,472.7932298630149 18.5831177903747,470.93240557988196 -0.01986678636771444,467.2616589794385 -18.21766501879503,461.7609535013443 -35.784333395721546,454.4335050266711 -52.48755576176262,445.3073594853687 -68.09113653147284,434.4367692165265 -82.35771013650674,421.90333754571486 -95.05164751425815,407.8169018841765 -105.9421367108755,392.31612692084593 -114.806410971047,375.56878118297334 -121.43309406990221,357.771672392626 -125.62562915935166,339.1502196476978 -127.20575410452369,319.95764350507494 -126.01698322912142,300.47375853230324 -121.92805262561467,281.0033568085477 -114.83628377127394,261.8741751756515 -104.67081817748226,243.4344437391005 -91.39567423945005,226.05001816362386 -75.01257639620889,210.10110365939897 -55.56350620338222,195.97858416637607 -33.13292500689417,184.07997606364845 -7.84961862312025,174.8050316996745 20.111884186600463,168.5510240932138 50.53036558433834,165.70775022449214 83.13748821625465,166.65229634688689 117.61792030114566,171.74361462261737 153.61005183754844,181.31696603925366 190.70733254813024,195.67828991227282 228.46025649413622,215.09856523544315 266.37901191564384,239.80823361759246 303.93680781837185,269.99175745352136 340.57388117814503,305.782390231759 375.70218042398557,347.2572383983016 408.710712154631,394.43269589258716 438.97152891621874,447.26033327378974 465.84632640630446,505.6233231921538 488.69360876646743,569.3334827688777 506.87637078717745,638.1290111750242 519.7702359876184,711.6729973008876 526.7719797709665,789.5527678490598 527.3083573202744,871.2801404462014 520.8451467254137,956.2926394425789 506.89630915577226,1043.9557239614012 485.0331598579228,1133.566068493663 454.8934365051664,1224.3559259461417 416.1901450992808,1315.4985915946104 368.7200583647858,1406.1149739421553 312.3717375193687,1495.281265121956 247.132945581865,1582.0376893203097 173.09731911461748,1665.3982928515513 90.47016560347862,1744.3617241309366 -0.42674434241740755,1817.9229360195234 -99.15151705030496,1885.085727027174 -205.13972961221896,1944.8760218402638 -317.7033915371826,1996.3557757867218 -436.03137890987546,2038.6373723711918 -559.191434436176,2070.898368124572 -686.133813535425,2092.3964249404 -815.6966415360066,2102.484257044744 -946.6130301069522,2100.624407998811 -1077.5199824023061,2086.4036628961585 -1206.9690961230035,2059.5468924176676 -1333.4390519569354,2019.9301188693705 -1455.3498518137237,1967.5925899637878 -1571.078747126034,1902.7476441141698 -1678.9777724706685,1825.792151576912 -1777.3927741229709,1737.3143190646042 -1864.6837971747218,1638.0996516020145 -1939.24666881848,1529.1348745251205 -1999.5355896519013,1411.609630714946 -2044.0865197219573,1286.9157834669631 -2071.541121865871,1156.6441738416574 -2080.6710020781493,1022.578702902965 -2070.401965514878,886.6876338692448 -2039.8379877147786,751.1120367747957 -1988.2845840477617,618.1513286235102 -1915.2712466669836,490.24589502037725 -1820.5726077004845,369.9568146561878 -1704.2279804184657,259.9427455154587 -1566.5589269758882,162.93407095172165 -1408.184502356312,81.70444445894631 -1230.0338295960314,19.039913650686827 -1033.355671478038,-22.29415381143062 -819.7246788380783,-39.58807731017029 -591.0440155589697,-30.224496532192717 -349.54408532988793,8.283716768205295 -97.77711534286863,78.25465538188179 161.39261274384717,181.79810554755588 424.80305412505413,320.7762662980358 689.0133390820714,496.7649482384738 950.327433284989,711.0157675630606 1204.8225415918328,964.4198733149212 1448.382219180937,1257.4737628870994 1676.7340928531044,1590.2477519906597 1885.4920314630438,1962.3576702530959 2070.2025382870606,2372.9403517738033 2226.3950703767264,2820.633480922664 2349.6359213214155,3303.5603370525546 2435.585235141859,3819.319957306415 2480.0566511119655,4364.983204111833 2479.079013053778,4937.095183133618 2428.9595130069874,5531.684408354169 2326.3475791064643,6144.2790536293305 2168.29876199513,6769.93056468535 1952.3378241515716,7403.244832355976 1676.5201931156191,8038.42104729378 1339.4909037290436,8669.298268936454 940.5401271236159,9289.409647791377 479.65436619305245,9892.04414086732 -42.43761046794879,10470.315456195996 -624.2250209030733,11017.237854829491 -1263.3824181641896,11525.808328563433 -1956.745017149165,11989.094560118547 -2700.2928422247505,12400.327960910508 -3489.144484666282,12753.000971230196 -4317.561192276745,13040.967700104673 -5178.961933429114,13258.546878836612 -6065.949984300607,13400.62600479394 -6970.351481508441,13462.765462052077 -7883.266263158871,13441.301324591092 -8795.131190123628,13333.445477536501 -9695.795996988682,13137.381633995215 -10574.611569601253,12852.355780917196 -11420.530384690837,12478.759558586018 -12222.218678069363,12018.205066190169 -12968.179733021527,11473.589591718159 -13646.887501458801,10849.148789285535 -14246.929589180396,10150.496871910082 -14757.158455266555,9384.652453482277 -15166.849496476892,8560.048760815302 -15465.864512911125,7686.5270455450545 -15644.818883587206,6775.312156393491 -15695.250622560034,5838.969384743265 -15609.789340345866,4891.341870154484 -15382.323004365859,3947.46804664895 -15008.160278499325,3023.478824251589 -14484.186128220781,2136.474432057854 -13809.00830669335,1304.381097321044 -12983.092290995128,545.787997737712 -12008.882218606836,-120.23480104672319 -10890.905384445774,-674.3364262911739 -9635.85789992111,-1097.1020098925205 -8252.669189274831,-1369.2846489829287 -6752.54310612865,-1472.050638782566 -5148.973595605863,-1387.235810117842 -3457.733005199513,-1097.6105205042072 -1696.8313608700885,-587.1505756797761 113.55482660283785,158.6888978861453 1951.1853769407066,1152.6998454567706 3791.8917129516353,2405.6513697217415 5609.745078051182,3926.0271218663115 7377.2578090944635,5719.77376143599 9065.61737095478,7790.064363012559 10644.95243193755,10137.080721752665 12084.629812113972,12757.818539676948 13353.580674241291,15645.91945690489 14420.65385382659,18791.533823846337 15254.993746256232,22181.2179891498 15826.43969033952,25797.869701928357 16105.943315059885,29620.70499394173 16065.999856070588,33625.27961711428 15681.089007065046,37783.5577637786 14928.120455348293,42064.030391819186 13786.878867621374,46431.88501565685 12240.462748110464,50849.228308748454 10275.71129364687,55275.36229677483 7883.613125935914,59667.11430656065 5059.690596644639,63979.22017846859 1804.3532423888232,68164.7595548262 -1876.7860798941606,72175.64132997942 -5972.638815935265,75963.13659574163 -10466.418421323664,79478.45564702313 -15335.474279557364,82673.36483466497 -20551.187668905917,85500.83827510146 -26078.935235357334,87915.73865908317 -31878.124954871288,89875.5206545652 -37902.30900037238,91340.94968262574 -44099.377268179735,92276.82817092528 -50411.83456687886,92652.72076793989 -56777.16363225412,92443.66944427705 -63128.27520938634,91630.88892605733 -69394.04544329422,90202.4325106777 -75499.9397498154,88153.81801795655 -81368.72120741384,85488.6034399356 -86921.2403282295,82218.9017800431 -92077.30184421234,78365.82462564328 -96756.60289413815,73959.84418499342 -100879.73573339432,69041.06384692618 -104369.24682543318,63659.387794486865 -107150.74292750214,57874.58082616479 -109154.03357030282,51756.21031253525 -110314.29816890719,45383.463142596665 -110573.26490843963,38844.83159153446 -109880.38754091127,32237.663266774085 -108194.00532748921,25667.571656648503 -105482.47058167434,19247.70530831681 -101725.22763128082,13097.875289104524 -96913.82653815836,7343.542326279568 -91052.85461084689,2114.6668604193546 -84160.76863232546,-2455.57282931244 -76270.61081689599,-6232.187281823733 -67430.5918195938,-9079.898114421694 -57704.524659073526,-10864.764654474911 -47172.09418927812,-11455.901658126848 -35928.94777257165,-10727.272807617686 -24086.594071044095,-8559.542709442294 -11772.098384162162,-4841.968229243455 872.435282385404,525.6917749656598 13690.603235341645,7631.270892361803 26512.66779126493,16548.31780407994 39156.75279764532,27334.272425879964 51430.269473538014,40028.7218714748 63131.570232655635,54651.763330936 74051.82515833172,71202.50144491794 83977.11267203029,89657.70793128057 92690.71270505713,109970.67106306681 99975.5873800379,132070.26208532628 105617.03087090698,155860.24477564124 109405.46677679391,181218.85308552338 111139.36805806594,207998.66013712742 110628.27138586307,236026.75978609486 107695.85469558577,265105.27949579246 102183.04385712353,295012.2404043318 93951.11172822924,325502.77721260494 82884.73049075525,356310.7268934981 68894.93613065944,387150.59123952215 51921.96225905967,417719.8739540501 31937.899229011728,447701.7883818245 8949.133724753528,476768.3271048232 -17001.476272310392,504583.67954306444 -45832.735966361455,530807.978445279 -77423.6016581893,555101.3507857206 -111612.06461434512,577128.2431597963 -148194.47134848117,596561.9863565319 -186925.3180508941,613089.5584481434 -227517.55353280806,626416.5005475996 -269643.4210292979,636271.9344186346 -312935.86453528184,642413.6264559374 -356990.5200474424,644633.038264217 -401368.3061749045,642760.3002322955 -445598.62209580204,636669.0412005656 -489183.153817575,626281.0046337899 -531600.2821975955,611570.3797108418 -572310.0782585456,592567.7744993677 -610759.8630602657,569363.757962568 -646390.300845817,542111.8980078644 -678641.9854527662,511031.22418640996 -706962.471167055,476408.04603360733 -730813.6904004395,438597.0614401535 -749679.6919038626,398021.6938866047 -763074.624804552,355173.60287657054 -770550.8856954235,310611.31846701435 -771707.3384361874,264957.9584081096 -766197.5093733316,218897.99504532805 -753737.654478779,173173.04876419864 -734114.5895716251,128576.69531985758 -707193.1704485909,85948.28582022204 -672923.3065275624,46165.79033921734 -631346.3896197026,10137.689025380818 -582601.0187963314,-21206.05197335895 -526927.9031049664,-46923.86855527943 -464673.82620107726,-66073.28528112694 -396294.56087143085,-77722.320838262 -322356.62698986795,-80961.51833902794 -243537.79370855432,-74916.49236094675 -160626.23567049802,-58760.870959077554 -74518.26373596059,-31729.497802107817 13785.43687136327,6868.252693710798 103185.11401326557,57635.20562852024 192488.83901362398,121073.32973082278 280421.0000984801,197571.07240025615 365632.40043583844,287391.2697721303 446711.94244702667,390659.82108247513 522199.85909438145,507355.31979326654 590602.4309673577,637299.8349376208 650408.1054017165,780151.0348055263 700104.9108080709,935395.8412721462 738199.0361120808,1102345.796654367 763234.4219939986,1280134.3158728469 773813.1877529086,1467715.9848294256 768616.6954188976,1663868.05124628 746427.0315148634,1867194.2367487242 706148.6669584411,2076130.9787377468 646830.037329129,2288956.187657619 567684.7694433852,2503800.579722016 468112.2662168066,2718661.6171629853 347717.35047640756,2931420.0577945053 206328.66003553435,3139859.0833603647 44015.481261660505,3341685.942029782 -138897.29316470842,3534556.0048184893 -341816.39432675915,3716099.098991089 -563869.9007016383,3883947.9440235714 -803899.7505278233,4035768.477888537 -1060457.3231818397,4169291.8237175005 -1331802.3504393892,4282347.609770937 -1615905.3945556548,4372898.319608942 -1910454.1016078985,4439074.31492421 -2212863.405551196,4479209.141210346 -2520289.821053834,4491874.696837806 -2829649.9215736464,4475915.819745488 -3137643.053545129,4430483.82337221 -3440778.2882697424,4355068.495183876 -3735405.5605049003,4249528.05771536 -4017750.8872622345,4114116.583931213 -4283955.502449942,3949508.356374168 -4530118.683287568,3756818.6634315024 -4752343.983503832,3537620.5364726777 -4946788.526876441,3293956.9489081013 -5109714.9534160765,3028348.0226333807 -5237545.550209238,2743792.819028514 -5326918.040432093,2443765.3307717233 -5374742.448177211,2132204.337211248 -5378258.4043677375,1813496.8398319609 -5335092.211056009,1492454.8552780547 -5243312.938706692,1174285.4111678575 -5101486.794532412,864553.6641774906 -4908728.97045067,569139.1400866981 -4664752.157602373,294185.18107416114 -4369910.9014107715,46041.77581808184 -4025240.967606619,-168797.95791159387 -3632492.896175459,-343767.27139994013 -3194158.9373905873,-472300.79807971383 -2713492.5924805715,-547914.5159135193 -2194520.0214397493,-564289.9938923421 -1642042.6323015857,-515362.1595683813 -1061630.2300072447,-395409.7295645445 -459604.1788254689,-199147.35433871803 156989.88002387926,78181.5564553674 780420.11461763,440712.439437129 1402317.6411336148,891868.7943770646 2013736.8430184848,1434274.2521625482 2605226.8677608455,2069668.7811690085 3166914.159234547,2798830.354171089 3688595.7367376476,3621503.41863237 4159842.778770782,4536335.518600171 4570113.911760744,5540823.405411122 4908877.442986379,6631269.946022235 5165741.614697428,7802753.09121012 5330591.794764172,9049108.100490857 5393733.360207308,10362924.135956217 5346038.875791619,11735556.23306347 5179098.022762243,13157153.532745225 4885368.595063382,14616704.516250059 4458326.7543459395,16102099.822379775 3892614.623095512,17600213.047000807 3184183.1996282972,19096999.727906443 2330428.501798719,20577614.50560428 1330318.7902451004,22026546.223988604 184510.68896500958,23427770.496007044 -1104547.9870903129,24764919.01049256 -2532530.869111495,26021464.59973553 -4093163.2610642426,27180920.82578344 -5778172.004276096,28227054.57980989 -7577256.92136135,29144109.926323798 -9478085.642520204,29917041.165837586 -11466313.447205096,30531752.839381967 -13525629.552404504,30975344.15959795 -15637831.045735622,31236355.129784457 -17782925.39796753,31305011.40804992 -19939262.196749106,31173464.792420674 -22083694.422874648,30836026.04819503 -24191769.244520906,30289386.67470697 -26237947.936135784,29532826.118571162 -28195854.14009933,28568400.88780673 -30038549.28442842,27401112.009157285 -31738833.552596424,26039047.30229993 -33269570.376356374,24493495.021985527 -34604031.994039,22779025.544605073 -35716263.190267876,20913537.950875435 -36581459.91381588,18918268.582452867 -37176359.0641332,16817758.92790057 -37479635.34982495,14639780.522555888 -37472300.76014405,12415214.926823199 -37138101.85955995,10177887.276931874 -36463909.821889095,7964352.379226949 -35440097.87047863,5813632.840847365 -34060900.590553954,3766909.292700899 -32324749.434884988,1867163.3607256168 -30234578.659920394,158774.67355103182 -27798095.911596388,-1312926.1468815198 -25028011.73280975,-2502145.886835875 -21942222.392124213,-3363155.2183979545 -18563940.639082696,-3850849.2409712956 -14921769.278199952,-3921337.381518025 -11049712.823170561,-3532557.2676120484 -6987122.945981035,-2644906.5279614967 -2778573.9724422633,-1221885.8466751154 1526334.7049224814,769253.9899138877 5873251.72585874,3356868.851544294 10203424.025513088,6564290.100553733 14454125.064464116,10409214.184122892 18559160.91195587,14903121.983240802 22449453.092239734,20050737.15263396 26053696.075675145,25849532.81989572 29299086.225465015,32289296.038498446 32112117.90807513,39351759.30073563 34419441.35207985,47010308.20631815 36148775.7089937,55229774.04480923 37229869.6441294,63966319.58099721 37595500.68005945,73167425.72871646 37182503.44492881,82771986.05901203 35932815.95835631,92710515.2130186 33794532.13504508,102905476.28026024 30722947.816836927,113271731.0628658 26681586.874173846,123717115.8808587 21643193.264030524,134143144.19061418 15590674.40923491,144445835.79705715 8517980.8890331,154516670.85153684 430907.21728823514,164243665.15479064 -8652201.553688854,173512561.5432036 -18699852.516793363,182208130.34372428 -29666931.64752639,190215570.0572026 -41494368.80763857,197421997.59202078 -54108954.459863834,203718015.54180396 -67423320.55230501,208999342.20608276 -81336096.82367864,213168488.31559426 -95732252.35251105,216136462.76994374 -110483630.52738708,217824488.1507392 -125449683.75743693,218165705.36460933 -140478412.1812987,217106845.52434894 -155407508.38085034,214609846.11917248 -170065707.67832053,210653387.68256384 -184274341.0103443,205234326.5632592 -197849084.65179718,198368999.06513396 -210601898.2305465,190094372.1669736 -222343139.55941755,180469016.28309456 -232883841.84434852,169573876.09782037 -242038135.8413656,157512816.4154218 -249625796.5654321,144412921.22345084 -255474891.2395725,130424525.7791888 -259424502.35282043,115720963.49988402 -261327497.0119548,100498011.76714581 -261053311.26713854,84973023.43930964 -258490715.8086801,69383733.89314811 -253550527.41433704,53986736.773296595 -246168228.81686136,39055625.29456041 -236306458.30166236,24878799.893961173 -223957329.3749372,11756947.235910133 -209144540.30155176,200.00000025612843" stroke="white" stroke-width="1.5" /></svg>