<?xml version="1.0" encoding="utf-8" ?>
<svg baseProfile="full" height="400" version="1.1" width="400" xmlns="http://www.w3.org/2000/svg" xmlns:ev="http://www.w3.org/2001/xml-events" xmlns:xlink="http://www.w3.org/1999/xlink"><defs /><rect fill="black" height="100%" width="100%" x="0" y="0" /><circle cx="200" cy="200" fill="yellow" r="10.08699819918807" stroke="orange" stroke-width="2" /><polyline fill="none" points="199.30560038902388,200.0 199.24578197815995,199.96040699918288 199.18726758099476,199.91443472300526 199.13073831030596,199.8620887936506 199.0768917813284,199.80344991985922 199.02643439283148,199.73867777097368 198.9800729771465,199.66801412318404 198.9385058805982,199.5917851899231 198.9024135469894,199.51040305260995 198.8724486878319,199.42436611351258 198.849226133757,199.33425849942108 198.83331247182403,199.24074835309278 198.82521558311697,199.1445849590397 198.82537420391472,199.04659466114367 198.83414764167807,198.9476755417626 198.85180578395406,198.84879084535777 198.87851954389748,198.75096114414936 198.9143518902943,198.655255258781 198.9592496125987,198.5627799633258 199.01303597242446,198.47466852104444 199.07540439203848,198.39206811495458 199.1459133275796,198.31612625529948 199.2239824698724,198.247976264223 199.3088904087505,198.1887219561457 199.39977388769177,198.13942165027126 199.49562876426742,198.10107166908742 199.59531277841242,198.07458949341748 199.69755021485747,198.06079676026243 199.8009385282711,198.0604023040938 199.90395697982487,198.07398545514528 200.00497731212377,198.10197981934556 200.1022764658793,198.14465777357745 200.19405131651757,198.20211591668854 200.27843538231429,198.27426172087985 200.3535174278669,198.3608016295374 200.41736185802128,198.46123084604415 200.46803076805756,198.574825053439 200.50360748633565,198.70063429682034 200.52222141604838,198.83747924900317 200.52207395360614,198.98395006504512 200.50146523286665,199.138408012806 200.45882141733898,199.29899004469038 200.3927222370468,199.46361645017834 200.30192844336173,199.6300016997571 200.185408834241,199.79566855855458 200.04236648435187,199.957965512527 199.872263799958,200.1140875116938 199.67484600758658,200.26109999393094 199.4501626787723,200.39596610955803 199.19858689095162,200.51557702177317 198.92083162718055,200.61678511133582 198.61796302506832,200.69643986625266 198.2914100983987,200.75142618911312 197.94297057355192,200.77870480671518 197.57481250718013,200.7753544193232 197.18947138170842,200.7386151809439 196.78984241114347,200.6659330580559 196.3791678313154,200.55500457296182 195.9610189959182,200.40382140004527 195.5392731523409,200.21071424940527 195.11808482899957,199.97439544329885 194.70185182831133,199.69399956723328 194.2951758861375,199.36912156006878 193.90281812891692,198.9998515967469 193.529649533185,198.58680611383573 193.18059666802372,198.13115433251144 192.8605830784245,197.63463964634977 192.57446674571568,197.09959526277592 192.32697413918422,196.52895351753872 192.12263144982487,195.92624832135658 191.96569367174416,195.29561024705674 191.86007226805745,194.64175382411167 191.80926222503487,193.96995667536936 191.81626935965264,193.28603020775577 191.88353880045332,192.59628165444943 192.0128856085891,191.90746736000867 192.2054285440061,191.2267373015561 192.46152800986223,190.56157094763816 192.7807292254327,189.919704670894 193.16171168300409,189.30905105016407 193.60224593672174,188.73761052098865 194.09915875027642,188.21337595931826 194.64830759504864,187.74423091027916 195.2445654403615,187.33784230051077 195.88181671246247,187.00154859731495 196.55296521856096,186.74224449894788 197.24995473666877,186.5662633560974 197.96380286128914,186.47925863311514 198.6846485695424,186.48608581709115 199.4018138326736,186.59068627151998 200.10387944484714,186.79597460728436 200.77877507570253,187.10373120518304 201.41388337655164,187.5145015695118 201.99615778378885,188.02750421963026 202.5122534687326,188.64054883446514 202.9486706825922,189.34996635212232 203.29190954064646,190.15055269196466 203.52863508329537,191.03552770862055 203.64585124585372,191.99651090559362 203.63108216639637,193.02351532986353 203.47255906437604,194.10496093778116 203.15941073496057,195.22770856664306 202.6818555280052,196.37711546584947 202.03139251926055,197.53711313711474 201.20098943781474,198.69030800574058 200.18526479084585,199.8181051957739 198.98066152743817,200.90085541259447 197.58560951030512,201.91802464911606 196.00067402043965,202.84838612870598 194.2286875074743,203.67023358184343 192.27486182014334,204.36161462751488 190.1468782086976,204.9005826977675 187.8549524861147,205.26546560841516 185.41187286880537,205.43514854458962 182.83300819117744,205.3893689008945 180.13628440238887,205.10902009679535 177.34212750793847,204.57646118319704 174.4733714129427,203.77582877067718 171.5551294570447,202.6933475483947 168.6146288013544,201.31763543014324 165.68100723352418,199.63999916519393 162.78507239532988,197.65471609120561 159.95902390468845,195.35929758914256 157.23613933704075,192.75472973017114 154.6504255450319,189.84568658595128 152.2362373254484,186.64071171027018 150.02786598289424,183.15236339481777 148.05910088469122,179.39731945780306 146.36276764448917,175.3964375432084 144.9702471061774,171.1747671922756 143.91097981766632,166.76151029812527 143.21196117842527,162.1899269692616 142.89723290759096,157.49718430734438 142.98737690313408,152.72414614738568 143.49901793909535,147.91510241192896 144.44434196942723,143.11743739134792 145.83063706582564,138.38123697576873 147.6598642056862,133.75883562493624 149.9282652379294,129.304304664327 152.62601538235208,125.07288433173287 155.7369275564275,121.12036286027678 159.23821566685342,117.50240676238785 163.10032374723326,114.27384736484474 167.28682746460132,111.48792952705652 171.75441405364404,109.19552934207012 176.45294616716131,107.44434846060761 181.32561445450705,106.27809348049222 186.30918289774172,105.73564959456542 191.33433005070106,105.85025837683061 196.32608834327033,106.64871019626608 201.20438253749006,108.15056226777523 205.88466726087893,110.3673937676208 210.27866230425403,113.30210974438215 214.29518306660967,116.94830573453868 217.84106217006055,121.28970503361343 220.82215686669304,126.29968046973838 223.14443543104952,131.94087226806795 224.71513429285557,138.16491317453247 225.44397623165,144.91227142040418 225.24443854643664,152.11222135115304 224.03505874849702,159.68295061207164 221.740764023986,167.53181167915272 218.29420949531604,175.5557242488435 213.63710919738807,183.64173355900036 207.72154269730157,191.6677281124091 200.51121944496427,199.5033185228341 191.98268226728172,207.0108773134325 182.12643092987054,214.04673748274172 170.94794640606887,220.4625455310229 158.46859643061174,226.1067624287381 144.72640309036154,230.82630373088782 129.7766536306344,234.46830771971491 113.6923363444712,236.88201811986136 96.56438437268262,237.9207656023863 78.50171148089873,237.44403000679586 59.63102539938532,235.31956299455112 40.096406111968236,231.42554873577456 20.058638558460927,225.6527782562909 -0.30570843674266257,217.90681126847102 -20.805462589917454,208.11009771047347 -41.23629066572889,196.20402985801957 -61.38240271986001,182.15089478365957 -81.01851445108042,165.93569615233363 -99.91206058501905,147.56781388895786 -117.82564861651252,127.08247016172383 -134.51973853403422,104.5419704191101 -149.7555303771963,80.0366889214821 -163.2980376789854,53.68576933821933 -174.91932106369939,25.637512553103903 -184.40185255775873,-3.9305741557291753 -191.54197757440693,-34.812089914565036 -196.15343810736198,-66.77243544791605 -198.0709174667602,-99.54990769600948 -197.15356396814542,-132.8572070583624 -193.28844839677424,-166.383366219091 -186.39390786979186,-199.79610486712897 -176.42272696124064,-232.74460961751663 -163.3651056908776,-264.8627331062732 -147.25136325621452,-295.7726006155619 -128.15432625333148,-325.08860673886124 -106.19135062688423,-352.42177857490924 -81.52592774931287,-377.3844758075775 -54.36882688362769,-399.59539185541087 -24.97872885677816,-418.6848141333106 6.337690922396376,-434.30009543837866 39.22626791719327,-446.1112826346249 73.28647541446311,-453.81684325270214 108.07320047577721,-457.1494254288658 143.0991901555299,-455.88158187111355 177.838182335686,-449.83138434936325 211.72872796746984,-438.8678516492821 244.17870335999032,-422.9161110926574 274.57050247641735,-401.96221169453315 302.2668900623962,-376.0575058779408 326.617486921993,-345.3225164743151 346.9658488668708,-309.9502065681184 362.6570908976526,-270.20857165598966 373.0459981445842,-226.44247663256215 377.5055551182005,-179.0746643247408 375.4358150274528,-128.60586769963317 366.2730214468039,-75.61396448113601 349.49888559428337,-20.75212072505957 324.6499140621602,35.254121093961146 291.3266741656275,91.61084377100997 249.2028772880257,147.46086985544457 198.0341548476523,201.88999964416325 137.66639693188293,253.93437013062763 68.04352037480558,302.58891823408305 -10.78546877686125,346.8169167722293 -98.66025373884474,385.56053617606597 -195.3039603439044,417.75236902997005 -300.31901606439453,442.32783832079207 -413.18424050349483,458.23839397956857 -533.253286269189,464.46538609428865 -659.7545403181289,460.0344872699712 -791.792585069149,444.03052123125315 -928.35130584127,415.6125401289678 -1068.2987164959802,374.0289793579017 -1210.3935586117839,318.6327062535317 -1353.293711170575,248.89576804716364 -1495.5664276984257,164.42363515532452 -1635.700396213786,64.9687284892583 -1772.119594358861,-49.55698578624896 -1903.1988879176247,-179.0705535301991 -2027.2812957774445,-323.3079618042249 -2142.696818518089,-481.8156574887712 -2247.782701485348,-653.9438676810555 -2340.904976723592,-838.8419260389403 -2420.481101821408,-1035.4557979671677 -2485.0034879053705,-1242.527983120816 -2533.063684053785,-1458.5999560935295 -2563.3769616625054,-1682.0172853705185 -2574.807020156719,-1910.9375467048076 -2566.390515287302,-2143.34112010614 -2537.3610934631893,-2377.044929748534 -2487.1726005304868,-2609.7191534795447 -2415.5211214869028,-2838.9068934753054 -2322.3654991734297,-3062.0467621988437 -2207.9459753516,-3276.4982984991493 -2072.800597067537,-3479.5700877951513 -1917.7790351060935,-3668.5504182255077 -1744.0534698959655,-3840.740261856411 -1553.1262136457378,-3993.48832700967 -1346.8337559297001,-4124.227885021297 -1127.3469435078744,-4230.515032816771 -897.1670339070711,-4310.068012170492 -659.1173961988652,-4360.807168002001 -416.33067140900005,-4380.895092162939 -172.23124893820352,-4368.776466509516 69.48703594984624,-4323.2170902574135 304.88802539965315,-4243.341552297433 529.8251676236082,-4128.668989913059 739.9781747425491,-3979.1463617649333 930.8942696347386,-3795.178655640206 1098.0338151149206,-3577.655450814878 1236.8200503751123,-3327.9732614015716 1342.692590069151,-3048.053101153884 1411.164271501717,-2740.352732203546 1437.8808659335314,-2407.8730903727346 1418.6831019346719,-2054.1584182042625 1349.6703829446546,-1683.2896837644357 1227.2655187046737,-1299.8709185780822 1048.2797320110399,-909.0081716265761 809.9771493098226,-516.2808479399449 510.13793702382276,-127.70527959105084 147.1192061761605,250.30953661895984 -280.08722317189074,611.0140074026474 -771.8011279767404,947.3776907864346 -1327.6052007851247,1252.156493052328 -1946.3023236298764,1517.9669762541498 -2625.8797291616606,1737.3673265562554 -3363.4809577170495,1902.9444206061246 -4155.386482951293,2007.4063135430417 -4997.003829323296,2043.6793594404928 -5882.867941834074,2005.0090644359173 -6806.652491864015,1885.063666044972 -7761.192712766016,1678.03933077032 -8738.520255258873,1378.7657677175828 -9729.910436019047,982.8109701663018 -10725.942123767363,486.58372155645844 -11716.57036636125,-112.56756123136961 -12691.211710902997,-816.2611245138752 -13638.842007826774,-1624.9948266415201 -14548.106320695182,-2538.067269922415 -15407.440387579407,-3553.508647333524 -16205.202899156633,-4668.022817532919 -16929.817674957976,-5876.942083456405 -17569.924634626805,-7174.196090640615 -18114.538277837215,-8552.296180698871 -18553.21220704751,-10002.336432642058 -18876.208054006493,-11514.01249979244 -19074.667006463635,-13075.659202946601 -19140.78197849093,-14674.307671553119 -19067.968328874984,-16295.762634621668 -18851.030909856487,-17924.700252821687 -18486.32512571999,-19544.78665402013 -17971.909599951883,-21138.817087933625 -17307.68799336604,-22688.87535353564 -16495.537486081605,-24176.51287758534 -15539.42143569114,-25582.94653667243 -14445.483754326715,-26889.2740213434 -13222.122610306955,-28076.70524231384 -11880.041157032854,-29126.807978881327 -10432.273123865301,-30021.765672074227 -8894.181271567304,-30744.64497365799 -7283.426918840407,-31279.670380913205 -5619.908986407185,-31612.503020282078 -3925.6712804141625,-31730.520394830426 -2224.7770465992667,-31623.093685332435 -543.1501691331389,-31281.858996998453 1091.6172387607617,-30700.97877771876 2650.49070395808,-29877.38950338062 4103.25214752769,-28811.03163535196 5418.790501138985,-27505.057808404596 6565.422698085581,-25966.01520768213 7511.243073506805,-24203.99814395427 8224.498723117873,-22232.766940083024 8673.987882466676,-20069.829400615265 8829.477905347505,-17736.48135244154 8662.1389467951,-15257.803018654778 8144.988999623207,-12662.608320586676 7253.3455005614605,-9983.344594285694 5965.2783196454775,-7255.940656474128 4262.058581675477,-4519.601659548678 2128.597448333875,-1816.5497329296022 -446.13127908651416,808.2899843568767 -3468.69108664919,3307.6576617813985 -6940.81170008963,5632.380494271967 -10859.053632419604,7731.846137825408 -15214.51489429922,9554.525427291426 -19992.586350338886,11048.541163226302 -25172.762033888837,12162.278966034668 -30728.51047232317,12845.035403887663 -36627.21272154653,13047.697815769185 -42830.17236063275,12723.449482668755 -49292.70215437519,11828.493059090362 -55964.2914534852,10322.784474740594 -62788.85767075442,8170.7688638137815 -69705.08434960846,5342.109488161883 -76646.84743322417,1812.4001022824657 -83543.73035331885,-2436.1492261976173 -90321.62749472566,-7414.063165988376 -96903.4344632149,-13123.999600399633 -103209.8223993514,-19560.20621094204 -109160.09235149123,-26708.045835583023 -114673.10445857968,-34543.60113055447 -119668.27541174325,-43033.368783818805 -124066.6363774323,-52134.05310123586 -127791.94228974472,-61792.468208646285 -130771.82217216922,-71945.55738159172 -132938.95894670836,-82520.53712804106 -134232.28604913305,-93435.1726089316 -134598.18711140173,-104598.18978918716 -133991.68401466316,-115909.8283728275 -132377.59777735017,-127262.53809663733 -129731.66604107377,-138541.81934665353 -126041.60037025157,-149627.20733170785 -121308.06620682252,-160393.39721191803 -115545.56813522188,-170711.50565308353 -108783.22312995614,-180450.4622783274 -101065.40469199652,-189478.52243603 -92452.24124247384,-197664.89062011515 -83019.95284227257,-204881.44178897497 -72861.01125138752,-211004.52575826042 -62084.10953692341,-215916.8378174492 -50813.928885280955,-219509.33676879772 -39190.69197123644,-221683.18973923646 -27369.49417993441,-222351.72140084242 -15519.406159608698,-221442.34368401213 -3822.343591943471,-218898.44070960375 7528.2973113601765,-214681.18253195324 18329.237261407266,-208771.24040290856 28369.139981918815,-201170.37566575885 37430.65948910888,-191902.87409339595 45292.697862850066,-181016.79752147614 51732.859473745724,-168585.0250164656 56530.08424520745,-154706.05657900288 59467.43913403869,-139504.55353044765 60335.04364892302,-123131.5912764428 58933.10193755478,-105764.60209322794 55075.010805901955,-87606.98794324914 48590.51003479091,-68887.38609432266 39328.83857824998,-49858.573484031454 27161.857714018737,-30795.99932556007 11987.100018463667,-11995.939374512758 -6269.298795701045,6226.730455746349 -27649.82956271019,23541.138859926417 -52163.046217339936,39603.3951560801 -79781.25503405825,54059.924320117 -110438.50229432389,66551.14352154151 -144028.90547810693,76715.45721825934 -180405.37182494963,84193.54236619802 -219378.7462299902,88632.88978265256 -260717.42791259722,89692.5622383432 -304147.4921076446,87048.12451366219 -349353.3491774726,80396.69551425193 -395978.969029671,69462.06767718928 -443629.6935638278,53999.8343906523 -491874.65408008563,33802.46207692698 -540249.804193706,8704.240030790364 -588261.5718522173,-21413.961858558716 -635391.1265941468,-56620.19966710115 -681099.2502794571,-96927.29999141375 -724831.7912297178,-142289.11695023623 -766025.6731182868,-192597.2759418063 -804115.421133884,-247678.47739213632 -838540.1589998176,-307292.431672055 -868751.0214687459,-371130.4932803518 -894218.9180393845,-438815.0582565349 -914442.5749731496,-509899.78358052135 -928956.7743471174,-583870.6810306836 -937340.7009904647,-660148.1306124264 -939226.3008432235,-738089.8502560953 -934306.5476784898,-816994.8490498307 -922343.5093719028,-896108.380868959 -903176.1001132564,-974627.9039531392 -876727.4012587278,-1051710.0398456214 -843011.4310378041,-1126478.5122414036 -802139.2421685711,-1198033.03280391 -754324.2267016185,-1265459.087029262 -699886.5091988068,-1327838.5589042318 -639256.3127380734,-1384261.118573348 -572976.1872841902,-1433836.2826696609 -501701.9967267059,-1475706.0425517268 -426202.5693907633,-1509057.9416156572 -347357.9270849544,-1533138.4693131994 -266156.0197528401,-1547266.626709249 -183687.90650867714,-1550847.506563757 -101141.33920723815,-1543385.7202344341 -19792.721642144195,-1524498.4943788708 59002.5641184721,-1493928.2526954038 133821.45299653767,-1451554.4919830377 203186.0815695667,-1397404.757815641 265578.2079990057,-1331664.5232962028 319455.09034832095,-1254685.7748500064 363266.7231158716,-1166994.1119812166 395474.3081912551,-1069294.1734834765 414569.8127851426,-962473.210867442 419096.4434734726,-847602.6408244191 407669.84264500684,-725937.4224347518 378999.7916683504,-598913.1215691958 331912.1843327183,-468140.5445037714 265371.0149054458,-335397.8451198919 178500.10783132445,-202620.03509998988 70604.30101645914,-71885.8541227841 -58810.217870084234,54598.01296019996 -210016.73225213963,174515.35283758387 -383050.2912290461,285461.42114801734 -577691.7973386399,384966.4317109257 -793454.2060582988,470521.41173376073 -1029571.1506832747,539606.2592720828 -1284988.2970724404,589719.8008386986 -1558357.7192023813,618411.608621115 -1848035.5683951888,623315.2987470201 -2152083.286405195,602182.9949363283 -2468272.5852390775,552920.6062185945 -2794094.384671669,473623.5337163443 -3126771.861995285,362612.3903498995 -3463277.727755199,218468.28926446318 -3800355.796291227,40067.23237194058 -4134546.871109678,-173386.88981454555 -4462218.912796199,-422331.19136329525 -4779601.401766075,-706815.0916859391 -5082823.750114404,-1026474.5429791436 -5367957.556721649,-1380509.7018320623 -5631062.43819922,-1767666.5543260204 -5868235.105892393,-2186222.9889116343 -6075661.296717134,-2633979.7891517635 -6249670.10386517,-3108256.9888633564 -6386790.193182263,-3605895.9951520874 -6483807.333159217,-4123267.8402703064 -6537822.61185222,-4656287.871192 -6546310.663564371,-5200437.126434517 -6507177.182679786,-5750790.583213897 -6418814.962548937,-6302052.38485146 -6280157.664667169,-6848598.078912976 -6090730.4984333515,-7384523.81142726 -5850696.975348037,-7903702.332376256 -5560900.894385313,-8399845.573257685 -5222902.718162764,-8866573.459786529 -4839009.513072724,-9297488.52271272 -4412297.651272607,-9686255.768379651 -3946627.508801192,-10026687.169205386 -3446649.4424225823,-10312830.033992106 -2917800.3882955755,-10539058.420186834 -2366290.498289813,-10700166.656309864 -1799079.3146319143,-10791463.954163363 -1223841.0803247401,-10808869.0085918 -648918.8910327972,-10749003.408956645 -83267.51329008225,-10609282.622578863 463615.1767882897,-10388003.257637199 981768.0415504369,-10084425.272794325 1460857.5771806957,-9698847.774492308 1890279.463438494,-9232677.031676535 2259270.2158682826,-8688485.342823135 2557028.225872484,-8070059.412589164 2772843.3093157634,-7382436.9360572165 2896233.719509893,-6631930.148123048 2917089.4175571552,-5826135.174599082 2825820.2342639323,-4973926.12040131 2613507.405424423,-4085432.948845097 2272056.8185389554,-3172002.3444519825 1794352.1763410766,-2246140.909363324 1174406.1632535905,-1321440.219801174 407507.5974580738,-412483.4630652747 -509637.53400742693,465266.413918407 -1578773.3245348658,1295596.887993927 -2799971.6912398143,2061693.9799671758 -4171522.839434354,2746307.6667238045 -5689840.666477162,3331933.6819813177 -7349385.28602847,3801010.537882715 -9142604.786950838,4136130.3319488694 -11059898.243537793,4320261.636140744 -13089601.8645766,4336982.500268123 -15218000.007445468,4170721.3442254444 -17429362.589866787,3807003.2661980717 -19706010.20633202,3232699.060837744 -22028407.999242943,2436274.0263050986 -24375289.047572523,1408033.445903993 -26723807.71988783,140361.46265936067 -29049723.095896754,-1372050.0725739177 -31327612.19376104,-3131986.30334098 -33531112.352196828,-5139511.211646908 -35633191.71026633,-7391790.222814574 -37606446.30759975,-9882937.174409822 -39423421.89787166,-12603889.19093477 -41056958.13337049,-15542312.896243123 -42480552.34353174,-18682545.235846836 -43668739.70075591,-22005571.97009694 -44597486.148415014,-25489046.63581853 -45244590.064609446,-29107352.4581359 -45590088.25712369,-32831709.32637133 -45616661.53637747,-36630327.52910222 -45310034.80031755,-40468609.47555373 -44659366.29441958,-44309400.11598878 -43657620.48745224,-48113286.21592515 -42301918.83541147,-51838944.04190266 -40593862.59777857,-55443534.384933166 -38539821.8273614,-58883143.187245995 -36151184.68235066,-62113265.35476219 -33444561.311239675,-65089328.63889283 -30441936.74162878,-67767253.76437804 -27170767.465687647,-70104046.27324586 -23664016.760362633,-72058414.85736485 -19960124.210598163,-73591410.27278249 -16102905.419220475,-74667078.27775204 -12141378.48701086,-75253119.42305236 -8129514.5290600695,-75321547.95803937 -4125910.255803346,-74849341.60912174 -193381.485039074,-73819073.54922977 3601522.640627819,-72219517.51737884 7189083.9846918415,-70046216.77639842 10497056.522176985,-67302007.42353888 13451381.371393379,-63997486.5017557 15976971.792907562,-60151415.406877115 17998563.06053794,-55791049.25474508 19441620.96038102,-50952383.1687588 20233301.525791965,-45680306.87688057 20303453.483215746,-40028659.57171092 19585653.780868094,-34060177.689628445 18018265.515292015,-27846329.10590019 15545506.575910537,-21467028.220716078 12118516.411493871,-15010227.523520224 7696407.501506927,-8571382.46473511 2247287.406330817,-2252787.8284509727 -4250763.310473863,3837214.7221045075 -11808772.431398831,9585156.673031934 -20426032.126933835,14873487.337165939 -30089345.21579925,19581738.50800306 -40772377.0873778,23587802.61148427 -52435128.45090252,26769316.030204818 -65023543.58939962,29005137.407820478 -78469268.09452778,30176908.876254898 -92689569.13589463,30170686.308284305 -107587430.17157438,28878622.90758849 -123051830.63493852,26200688.73315238 -138958219.53824562,22046407.141223814 -155169190.1209478,16336587.642877836 -171535360.64797568,9005033.345576588 -187896464.24176913,200.00000023010705" stroke="white" stroke-width="1.5" /></svg>