<?xml version="1.0" encoding="utf-8" ?>
<svg baseProfile="full" height="400" version="1.1" width="400" xmlns="http://www.w3.org/2000/svg" xmlns:ev="http://www.w3.org/2001/xml-events" xmlns:xlink="http://www.w3.org/1999/xlink"><defs /><rect fill="black" height="100%" width="100%" x="0" y="0" /><circle cx="200" cy="200" fill="yellow" r="20" stroke="orange" stroke-width="2" /><polyline fill="none" points="199.03142323079635,200.0 199.01571221434037,199.94832938755982 199.0055135738687,199.89529948045683 199.00113624347225,199.84152700242672 199.00283126404082,199.78768080382957 199.01078457966167,199.7344770843109 199.02511015468428,199.68267370817313 199.0458435183347,199.63306362246627 199.07293584559358,199.58646739964115 199.10624868365628,199.5437249389645 199.14554943257414,199.50568637365242 199.19050768656115,199.47320224370782 199.24069253886543,199.4471130076008 199.29557094800208,199.428237979058 199.3545072564808,199.41736378815776 199.4167639449192,199.4152324784925 199.48150369460666,199.4225293641746 199.54779282018904,199.43987078174246 199.61460612122116,199.46779188237863 199.68083318693644,199.50673461909278 199.7452861727953,199.55703609145692 199.80670905029532,199.61891741692497 199.86378831328796,199.6924733025419 199.91516510479116,199.7776624937781 199.9594487081936,199.87429927815305 199.99523132600106,199.98204622009354 200.02110404809892,200.10040829997473 200.03567389012738,200.2287286244111 200.03758176124245,200.3661858665108 200.0255211995346,200.5117935839185 199.99825769297993,200.66440154901676 199.95464838430127,200.82269920962713 199.89366193982104,200.98522137997796 199.8143983456022,201.15035624064754 199.71610837920744,201.31635570274162 199.59821249256925,201.48134816585878 199.46031883105587,201.6433536716016 199.30224010613264,201.80030142471168 199.1240090343335,201.950049622589 198.92589205383197,202.09040750127497 198.70840103197045,202.21915947225435 198.47230268288186,202.33409119001172 198.21862542399012,202.4330173555423 197.94866341385148,202.51381102638197 197.6639775315901,202.5744341696177 197.36639308014858,202.61296916123206 197.0579940217199,202.62765090350234 196.74111358400708,202.61689920250322 196.41832111027205,202.57935102056197 196.09240506432803,202.5138921942791 195.76635214348386,202.41968818796622 195.4433224976912,202.29621343554956 195.1266211014384,202.14327881162026 194.81966537588116,201.961056764832 194.525949211847,201.7501036446708 194.2490035991794,201.51137875613657 193.99235412383297,201.24625968641558 193.75947565057095,200.95655346347382 193.5537445653782,200.6445031288901 193.37838900708113,200.31278933632956 193.2364375714063,199.9645266229259 193.13066702203812,199.60325404349626 193.0635495913491,199.23291990688435 193.0372004975637,198.85786040964922 193.05332634435692,198.48277202453215 193.1131751024715,198.11267756928984 193.2174884000635,197.7528859551289 193.3664568683889,197.40894569256636 193.55967930138743,197.0865923154252 193.79612639102703,196.79168997011274 194.07410979432007,196.530167506481 194.39125727216722,196.30794949750992 194.74449461416322,196.13088270677054 195.13003502684987,196.00465861402918 195.5433766153672,195.9347326992879 195.97930852989668,195.92624127280112 196.43192627870118,195.9839167219005 196.8946566290723,196.11200212349829 197.36029242636553,196.31416624259973 197.82103755996118,196.5934200007088 198.26856219400997,196.95203555233996 198.69406826094016,197.39146915165475 199.08836508781647,197.91228902327938 199.44195489080064,198.5141094704396 199.74512773238405,199.19553245856648 199.98806539110774,199.9540979024795 200.16095344566298,200.78624385925414 200.2541007262264,201.68727778618717 200.2580651373969,202.65135996329818 200.16378471105276,203.67150010213538 199.96271260581685,204.73956806707275 199.64695463466253,205.8463195217809 199.2094077756284,206.9814371823386 198.64389800478463,208.13358820997098 197.94531568767192,209.29049811134553 197.10974667755164,210.43904133367153 196.13459719807537,211.56534854673205 195.01871053641887,212.6549303958943 193.7624735424666,213.69281729080797 192.36791092206178,214.6637145658961 190.83876532928485,215.5521721130821 189.1805613056218,216.34276734694828 187.4006511839337,217.02030012035985 185.50824117329003,217.56999796740303 183.5143959676429,217.97772981334043 181.43202037733832,218.23022606140273 179.27581666760128,218.31530274695763 177.06221650203264,218.2220872443667 174.80928663108847,217.94124282414808 172.53660773433887,217.46518919142036 170.26512611948797,216.78831599449236 168.01697829870645,215.9071861782969 165.81528880141144,214.8207259744338 163.68394193940952,213.53039827101415 161.6473286120843,212.04035609418963 159.7300696224352,210.3575729618416 157.95671736525603,208.49194694071568 156.3514381422117,206.45637535326082 154.93767775033734,204.26679724109906 153.73781337555732,201.94220089947177 152.77279519596078,199.50459405173396 152.06178145533727,196.9789345349967 151.62177110027972,194.39301971676377 151.4672383783217,191.77733325665776 151.60977406439406,189.16484826523126 152.05773821269955,186.59078639088273 152.8159295153801,184.0923328828409 153.8852764827424,181.7083082291548 155.26255573724873,179.47879754905466 156.94014273025977,177.44473952368085 158.90580014236014,175.64747727211744 161.14250911126015,174.12827421438737 163.6283482425962,172.92779860246225 166.33642509598587,172.08558103676882 169.2348644997295,171.63944991102227 172.28685763170625,171.62495033396144 175.4507753113245,172.07475265385156 178.6803483788231,173.01805725137422 181.9249173957856,174.48000275950852 185.12975318745416,176.48108530595837 188.2364489674567,179.03659674541248 191.18338394410893,182.15609014643562 193.90625741088883,185.84288101242294 196.33869137945246,190.09359283956863 198.4128988302292,194.89775563957772 200.06041364281137,200.23746597395873 201.2128772366616,206.0871168541057 201.80287591367443,212.41320555192362 201.76482186027678,219.17422693549764 201.0358697512474,226.32065939051304 199.55685991413148,233.79504970942008 197.2732780764193,241.53220252677465 194.13622084231335,249.45947895242114 190.10335524693141,257.49720800747104 185.1398600282327,265.5592133063917 179.21933565573565,273.5534561586768 172.32466967482324,281.3827948940902 164.44884358017276,288.94585875672396 155.5956672349452,296.1380331772446 145.78042681620582,302.85255163367435 135.03043240283642,308.9816876645243 123.38545163977174,314.41803892136085 110.8980164199635,319.0558934597903 97.6335902294637,322.792666788626 83.67058470581433,325.5303965481363 69.10021506772759,327.1772800923178 54.026185384654866,327.64923873048747 38.56419616554294,326.871490964148 22.84126845149069,324.7801157604537 6.99488048893798,321.32358575811367 -8.828084872571083,316.4642493294833 -24.47258168509805,310.1797396476122 -39.77682856302329,302.46428835196264 -54.57391725503368,293.32992109305815 -68.69359428236606,282.8075121845113 -81.96420512147978,270.94767581890585 -94.21478768420599,257.8214718277673 -105.27729910561868,243.5209047986452 -114.98895712233985,228.1591965144794 -123.19467464671186,211.87081315899113 -129.74956355185242,194.81123054031548 -134.52148121718437,177.15642272302864 -137.39359108257452,159.10206192164316 -138.26690636136573,140.86242028763706 -137.0627842080974,122.66896730376261 -133.7253360649297,104.76865986567978 -128.2237186602016,87.42192575906469 -120.5542692402729,70.90034510265451 -110.7424481168843,55.48403839184263 -98.84455153928707,41.458774006399835 -84.9491582828008,29.11281239808966 -69.17827420896771,18.73350860347162 -51.68814041859471,10.603699184164043 -32.66967250437051,4.997904127582416 -12.348500825727143,2.1783785888956118 9.015415319294618,2.391053559926604 31.128623263077174,5.861408551144848 53.66548190117442,12.790323105267674 76.2699510833701,23.349957360921906 98.5578755382426,37.67971488776439 120.11976792540283,55.8823435564708 140.52408970416332,78.02023222557702 159.32102222266352,104.11196246213638 176.046713820178,134.1291753075941 190.22798185786354,167.99381320141688 201.38744151723566,205.57579653509538 209.04902600601434,246.6911928865974 212.74385556883087,291.1009347453561 212.01640550295227,338.51013845362763 206.43091631915854,388.56807314333935 195.57798236223005,440.86882362970937 179.0812487147732,494.95268553555957 156.60414015550288,550.3083243758571 127.85654043324654,606.375722954651 92.60133525572796,662.5499332521885 50.66072828149379,718.1856400568969 1.9222361455857992,772.6025339860583 -53.65573375750975,825.0914813136789 -116.03882027427869,874.921467270606 -185.11225795216342,921.3472782985197 -260.67713556507334,963.6178772364768 -342.44745796688017,1000.9854137179293 -430.0481018624819,1032.7148002898289 -523.0137510404079,1058.0937730755745 -620.7888901634865,1076.443344340747 -722.7289283510731,1087.1285432425632 -828.1025145107812,1089.569330514371 -936.0950957103555,1083.2515630230512 -1045.8137578608937,1067.7378752099225 -1156.2933746696783,1042.678336555025 -1266.504076294006,1007.8207375593066 -1375.360033485387,963.0203514838023 -1481.7295363767205,908.2490153780356 -1584.4463295736655,843.6033719213156 -1682.3221470257922,769.3121134290824 -1774.1603714530831,685.7420711672205 -1858.7707240870532,593.4029969793901 -1934.9848713685483,492.9508902566228 -2001.6728162573722,385.1897315346009 -2057.759923197108,271.07149453893896 -2102.2444077985137,151.69432133388435 -2134.2151052228146,28.29876035985282 -2152.8693153345735,-97.73801546490029 -2157.5305082291043,-224.91007381786915 -2147.6656609983893,-351.59271277676805 -2122.9019858560714,-476.0545932573052 -2083.042801263989,-596.472006526447 -2028.0822917468904,-710.9452421618003 -1958.218898891509,-817.5169933736662 -1873.867085826128,-914.1927070311667 -1775.6672204698305,-998.962755330439 -1664.4933292032786,-1069.8262751338498 -1541.4584824921537,-1124.8164899455387 -1407.9175875022752,-1162.0272986457337 -1265.4673799575583,-1179.6408848836002 -1115.9434284419078,-1175.9560718425162 -961.4139890237975,-1149.4171193756674 -804.1705764304576,-1098.6426347068814 -646.7151499101773,-1022.4542444505505 -491.7438472382199,-919.9046550754042 -342.12723883289084,-790.304711564658 -200.88711538815073,-633.2490503437974 -71.16986647867145,-448.6399329745394 43.78344612091084,-236.70884204352063 140.67016856453336,1.9645795283660448 216.16208724351563,266.43665953698576 266.94416177065057,555.3873012120855 289.75565666049533,867.1114487130177 281.4333196275533,1199.5147784217315 238.95620534837974,1550.113952937696 159.49169616041254,1916.0417404914158 40.44222620291265,2294.057262249922 -120.50782633573272,2680.5615837839873 -325.34565218504326,3071.618814978479 -575.6845358925405,3462.982825153728 -872.7200274640704,3850.1296174721856 -1217.1884176252493,4228.295339263988 -1609.3281889670504,4592.519833239334 -2048.845123288444,4937.695559271046 -2534.881745577148,5258.621638225002 -3065.991776742227,5550.062688963101 -3640.12024996774,5806.812048001047 -4254.589919012181,6023.758879300422 -4906.094550641046,6195.958600306545 -5590.699647456897,6318.7059706658765 -6303.851091599059,6387.610113174122 -7040.392134155931,6398.670663560944 -7794.589079825059,6348.3541778818635 -8560.16593165848,6233.6698647484845 -9330.348167067601,6052.2436555705945 -10097.915714197881,5802.389580583726 -10855.265088027229,5483.177382836046 -11594.480528941142,5094.495277609349 -12307.413864087493,4637.106751988016 -12985.772684643112,4112.7002994242475 -13621.21630150081,3523.930998040924 -14205.458809203257,2874.452869813349 -14730.37845472005,2168.9410012957933 -15188.132375508923,1413.1024656803374 -15571.275641937867,613.6751610030324 -15872.883414365815,-221.58622962241606 -16086.674906847942,-1083.9378428194173 -16207.137739449929,-1963.688369124835 -16229.651161450725,-2850.255342835808 -16150.606540216864,-3732.2362612829697 -15967.523437145817,-4597.494641109873 -15679.159534662023,-5433.260940492901 -15285.61263859146,-6226.248086508797 -14788.41296001801,-6962.781147666183 -14190.603881496796,-7628.94048480614 -13496.80943565575,-8210.717501209525 -12713.286770975237,-8694.181897093074 -11847.961950889858,-9065.659117195819 -10910.447529069992,-9311.916465489565 -9912.040466308234,-9420.356150984831 -8865.699103062656,-9379.213326066796 -7785.99807629345,-9177.756986809298 -6689.060269338514,-8806.491426374096 -5592.465108425385,-8257.355771038097 -4515.132767874139,-7523.918986738341 -3477.184116597454,-6601.567625378817 -2499.776529263845,-5487.683487519935 -1604.915994195818,-4181.808314367854 -815.2462740872254,-2685.7925899251272 -153.81621193809224,-1003.9255362744575 356.17338013875406,856.9565764935454 691.6414610830227,2887.3866072697533 829.9149901291705,5075.209892463792 749.0311565469366,7405.557292561706 428.0507802160336,9860.85026299768 -152.6202753653552,12420.840033109635 -1010.9051475084227,15062.682692259026 -2162.7292352421323,17761.05165606501 -3621.696697530739,20488.288619397543 -5398.774438937969,23214.593698183224 -7501.988024676387,25908.255021646648 -9936.134116379257,28535.917563435345 -12702.514122228578,31062.890497841232 -15798.693805840643,33453.49184034175 -19218.29359346751,35671.42858483897 -22950.814254954035,37680.209988742674 -26981.50250732391,39443.59108744726 -31291.26089824886,40926.04294831788 -35856.606068006295,42093.24560800998 -40649.67916158329,42912.599083191395 -45638.31176683436,43353.74731124865 -50786.15029035653,43389.10937232462 -56052.8411512013,42994.41187523957 -61394.27857580529,42149.215965762596 -66762.91611864162,40837.43204459071 -72108.14231611189,39047.81497242925 -77376.72011114631,36774.43229870123 -82513.28886887163,34017.097886263204 -87460.9269465667,30781.7632242577 -92161.77189193807,27080.85873150457 -96557.69443141297,22933.577459556993 -100591.02148449262,18366.093812853665 -104205.30251181738,13411.710217514183 -107346.11258488885,8110.925093401744 -109961.88466633939,2511.416018177994 -112004.76272384323,-3332.0673820261 -113431.46648121653,-9357.905523542262 -114204.15785023686,-15497.909779473986 -114291.29839967984,-21677.725086880742 -113668.48661746646,-27817.336043237894 -112319.2632208734,-33831.677121249006 -110235.87238141225,-39631.34637774722 -107419.96646760328,-45123.420702900905 -103883.2417820827,-50212.36926166718 -99647.99279003644,-54801.06033342683 -94747.57251346113,-58791.855272511966 -89226.74710849812,-62087.78180785461 -83141.93315789785,-64593.777391538584 -76561.30690266142,-66217.99181213092 -69564.7755093232,-66873.13682885008 -62243.80152342947,-66477.86917735072 -54701.07289458619,-64958.19196830084 -47050.01237072576,-62248.858267599884 -39414.12164331203,-58294.75953388635 -31926.15737286103,-53052.28061674393 -24727.13812459752,-46490.60220924765 -17965.183283938553,-38592.93102219271 -11794.187184683275,-29357.63752454586 -6372.333950716856,-18799.280894291016 -1860.4609034569494,-6949.500863259777 1579.7192014506168,6142.243565665736 3787.524399538238,20408.107986986884 4605.323045519385,35761.487661268126 3880.649057913311,52096.851267221464 1468.3929240558552,69289.79939564504 -2766.9537715443475,87197.362123775 -8949.024689529588,105658.54799516397 -17187.302340761573,124495.1544285942 -27574.86714979474,143512.84699908833 -40186.2017461056,162502.51218823245 -55075.08156124513,181241.8851074053 -72272.5838200002,199497.45037799448 -91785.24769208934,217026.61083344306 -113593.41868724726,233580.11501944016 -137649.81030257474,248904.73064524514 -163878.31544153157,262746.1472195948 -192173.09919720367,274852.0871312009 -222398.0032107054,284975.60045228736 -254386.28996551747,292878.51480297063 -287940.75305185793,298335.00776630774 -322834.2166289004,301135.26564258634 -358810.4440294416,301089.1888327797 -395585.4717006492,298030.100902187 -432849.38047082844,291818.41545372544 -470268.511497918,282345.2123938038 -507488.12921941973,269535.6730589848 -544135.5282213846,253352.3220439094 -579823.5752186642,233798.02248313668 -614154.6713394639,210918.6710413275 -646725.1136905533,184805.53900322743 -677129.8288081079,155597.2066680599 -704967.4441420266,123481.03977739859 -729845.6572531606,88694.15896998016 -751386.8560030313,51523.85628268579 -769233.936768497,12307.416517390382 -783056.2617073429,-28568.694126846585 -792555.6904258035,-70670.30440245231 -797472.6161484503,-113517.70547495413 -797591.9317582868,-156588.52878086318 -792748.8469539876,-199321.34601776043 -782834.4743542356,-241119.99480359443 -767801.0997556052,-281358.6247500937 -747667.0500062848,-319387.4493795548 -722521.0711737855,-354539.1795559198 -692526.1299344655,-386136.1039917875 -657922.5524627179,-413497.7720349157 -619030.4176045185,-435949.22344331886 -576251.1248304106,-452829.6993484175 -530068.0624110345,-463501.7582107048 -481046.3074655562,-467360.7104290305 -429831.2970068704,-463844.27551592444 -377146.41783903015,-452442.3565450266 -323789.47312772996,-432706.81806359586 -270627.99462247407,-404261.1459955335 -218593.3818003196,-366809.8613903701 -168673.8625488798,-320147.55435105576 -121906.28431529606,-264167.40024370496 -79366.75980449616,-198869.0174948528 -42160.20718251356,-124365.52504702994 -11408.841179428442,-40889.657991603046 11760.31167497216,51201.19786406869 26228.78339409831,151421.1876179365 30900.813092246924,259153.51412879652 24718.149509903127,373649.4310625438 6675.366790599352,494028.8129498965 -24164.463028445953,619282.4008832289 -68653.91228410737,748275.8082435237 -127545.33998765367,879755.3546085553 -201475.2318534988,1012355.7778181159 -290948.9465472688,1144609.8541580357 -396326.08556852135,1274959.9348972274 -517806.71100166725,1401771.384127411 -655418.6398542579,1523347.878198123 -809006.0456430927,1637948.5012253264 -978219.5970908894,1743806.5444239392 -1162508.3600861416,1839149.8896443315 -1361113.6822872635,1922222.8297775125 -1573065.2697984516,1991309.150955256 -1797179.652119712,2044756.2740533743 -2032061.2150224184,2081000.2262709753 -2276105.96110789,2098591.18788447 -2527508.134593541,2096219.3350528085 -2784269.82040531,2072740.6771781836 -3044213.5980480285,2027202.567206775 -3304998.2981351083,1958868.5457882388 -3564137.8740907786,1867242.1657951984 -3819023.363646253,1752089.4327189287 -4066947.8746382757,1613459.4892711726 -4305134.487634154,1451703.1694782248 -4530766.924449128,1267489.0489676138 -4741022.787131789,1061816.6243009288 -4933109.126954971,836026.2653390913 -5104300.057887281,591805.600934224 -5251976.084493576,331192.0198681776 -5373664.770809436,56570.99599019498 -5467082.3350727,-229330.02103090571 -5530175.715906878,-523452.37006951764 -5561164.619286641,-822421.7756141647 -5558583.02302661,-1122568.9069045992 -5521319.587273992,-1419954.97541781 -5448656.396194697,-1710402.389406386 -5340305.438343252,-1989530.4225238888 -5196442.221694746,-2252795.7883069683 -5017735.914549573,-2495537.943994005 -4805375.406009546,-2713028.876491852 -4561090.689922522,-2900527.0509757204 -4287168.994491805,-3053335.1294112317 -3986465.1064603417,-3166860.993074147 -3662405.374140294,-3236681.530822114 -3318984.9177050614,-3258608.5844036145 -2960757.628131898,-3228756.374472212 -2592818.597911914,-3143609.667241989 -2220778.6969486824,-3000091.8829256017 -1850731.085646613,-2795632.294301403 -1489209.543622825,-2528231.418019854 -1143138.5862117587,-2196523.663622848 -819775.4412940774,-1799836.276724573 -526644.0651642574,-1338243.5943520716 -271461.48722633946,-812615.6229751331 -62056.888217074564,-224659.9540933202 93716.06576921213,423043.9508670329 188072.992225632,1127019.044533357 213397.90397238376,1882874.4408882456 162346.78605681687,2685299.4625347243 27954.645769192164,3528068.7524894155 -196255.06600515742,4404059.128650096 -516159.86725696037,5305278.758443557 -936927.7916218702,6222909.116594392 -1462908.455444613,7147360.060958935 -2097527.1051479015,8068338.220633373 -2843183.1657247553,8974928.737968886 -3701154.857138357,9855690.24281378 -4671511.474970101,10698762.764567893 -5753034.943336605,11491988.106992165 -6943152.240558508,12223042.023887854 -8237880.2701140735,12879577.342652297 -9631784.700030088,13449376.989424411 -11117954.222229442,13920515.676308978 -12687991.588872217,14281528.820426976 -14332022.66503679,14521587.078812912 -16038724.596102908,14630674.705121757 -17795374.024110664,14599769.766442558 -19587916.100675803,14421024.10402561 -21401054.835544426,14087940.7832221 -23218365.09071292,13595546.658198498 -25022426.28167833,12940557.578773944 -26794977.58163257,12121533.6926983 -28517094.14340483,11139022.249381527 -30169383.560174238,9995685.292883962 -31732201.482205916,8696409.645051554 -33185884.996230576,7248396.625968393 -34511002.059987806,5661229.040045785 -35688614.97056528,3946913.0733993966 -36700555.5354057,2119892.902647045 -37529709.31335951,197036.00745703233 -38160306.00422452,-1802412.5907765683 -38578212.79328414,-3856908.6741838735 -38771227.2069459,-5942720.963367431 -38729365.8112535,-8034077.908160984 -38445144.89133118,-10103349.627123687 -37913849.09119019,-12121265.084379759 -37133783.87408998,-14057164.159913117 -36106507.58794105,-15879283.81223604 -34837038.89190819,-17555077.05450229 -33334035.322953105,-19051562.97119088 -31609938.857669175,-20335705.497509744 -29681084.458082486,-21374818.173212137 -27567767.782251205,-22136991.57254738 -25294268.49304761,-22591539.60898049 -22888825.91235895,-22709460.423815172 -20383564.143286776,-22463907.09894627 -17814364.219219454,-21830662.992866907 -15220681.334548166,-20788616.09310659 -12645305.765117487,-19320226.41488793 -10134066.694209922,-17411980.162328385 -7735478.8180459505,-15054824.112229647 -5500332.308623507,-12244573.488398928 -3481227.4555334887,-8982286.473231753 -1732056.0855895334,-5274598.459203676 -307432.66227185266,-1134009.181685945 737921.2121472592,3420883.998817569 1349834.3393790224,8365213.178003514 1475380.131885331,13667733.551073005 1063601.2856686225,19290789.403639212 66257.9264198439,25190357.72348822 -1561408.5245892208,31316174.094146557 -3859904.233959336,37611944.8199223 -6864713.716110726,44015648.424035445 -10605542.185479552,50459928.760200046 -15105579.723902771,56872580.98854023 -20380797.90013455,63177130.59542366 -26439289.78785195,69293504.49149811 -33280664.522510003,75138792.01225659 -40895507.60582291,80628092.38150993 -49264918.10023849,85675443.89235261 -58360133.646325454,90194828.7259967 -68142253.87653175,94101245.98091167 -78562072.28373474,97311844.13891475 -89560025.92835866,99747102.86805837 -101066271.53130645,101332052.77217378 -113000895.50109188,101997520.46223994 -125274264.28392915,101681385.16443284 -137787520.10878474,100329832.01317438 -150433225.73141053,97898586.22431928 -163096160.17024577,94354111.5231993 -175654265.68330097,89674755.53373158 -187979744.3714993,83851824.33664879 -199940300.8256266,76890568.09475069 -211400525.17847857,68811059.53734156 -222223408.80078086,59648947.20974202 -232271982.710804,49456065.7401889 -241411066.57730842,38300885.96688169 -249509114.00928056,26268788.61136857 -256440137.67136103,13462146.28735277 -262085695.66980258,200.00000032096264" stroke="white" stroke-width="1.5" /></svg>