<?xml version="1.0" encoding="utf-8" ?>
<svg baseProfile="full" height="400" version="1.1" width="400" xmlns="http://www.w3.org/2000/svg" xmlns:ev="http://www.w3.org/2001/xml-events" xmlns:xlink="http://www.w3.org/1999/xlink"><defs /><rect fill="black" height="100%" width="100%" x="0" y="0" /><circle cx="200" cy="200" fill="yellow" r="20" stroke="orange" stroke-width="2" /><polyline fill="none" points="199.29835620692896,200.0 199.3476636974241,199.96575532404023 199.4042740837731,199.9372813833398 199.46783666849404,199.9155705492454 199.53788631193834,199.90160581328874 199.61384140677566,199.8963482033506 199.69500316086808,199.9007236392443 199.78055628492564,199.91560935399045 199.86957117030988,199.94182002092612 199.96100762952702,199.98009373984448 200.05372025736366,200.0310780473887 200.14646545433354,200.0953161276967 200.2379101362076,200.1732334086018 200.32664213401168,200.26512473632033 200.41118226813188,200.37114232729394 200.48999805824008,200.49128469950446 200.56151900782984,200.62538678695805 200.62415337845857,200.77311143997085 200.67630634456435,200.93394251023517 200.71639939523573,201.1071797132689 200.74289082484165,201.29193545165563 200.75429713028763,201.4871337703875 200.7492151091711,201.6915116005881 200.7263444306031,201.90362242990818 200.68451042928672,202.1218425169753 200.6226868539543,202.34437974351016 200.54001828381126,202.56928517119457 200.43584191157822,202.79446734124022 200.30970837940453,203.01770932304746 200.16140134468694,203.23668848459013 199.99095544698534,203.44899892149175 199.7986723450857,203.65217644448103 199.5851344950904,203.84372598639092 199.35121634646467,204.02115125048869 199.0980926434382,204.18198638212806 198.82724353422222,204.32382940596625 198.5404562102737,204.44437713178453 198.23982282238748,204.5414611938174 197.92773444974242,204.61308485197617 197.60687093212016,204.65746014901248 197.2801864142545,204.67304498607746 196.95089049447944,204.6585796508708 196.62242491729043,204.61312230821574 196.29843580080757,204.53608294300514 195.9827414450567,204.42725523058635 195.67929582501804,204.2868458003108 195.3921479330192,204.11550035465444 195.12539719768887,203.91432610946075 194.88314527069542,203.6849100308659 194.6694445371655,203.4293323616684 194.48824377025224,203.1501749545709 194.34333141399097,202.85052396204554 194.23827704048782,202.53396647266504 194.1763715867494,202.20458073161933 194.1605670321595,201.86691963873366 194.19341622881572,201.5259872804377 194.2770136427133,201.18720832252902 194.41293780317292,200.85639016784023 194.6021962900382,200.53967786655184 194.84517411212886,200.24350185628327 195.14158634538137,199.97451870351287 195.4904359042519,199.73954511648768 195.88997731457494,199.5454856016398 196.33768733952772,199.39925423957638 196.83024328210348,199.3076911618105 197.3635097471124,199.27747441431111 197.9325345928995,199.31502799735364 198.53155473751414,199.42642697166417 199.15401240595864,199.6173006170227 199.79258231450342,199.89273471983822 200.43921018517636,200.25717414921874 201.08516286887112,200.71432695520468 201.72109022970972,201.2670712866024 202.33709880716265,201.9173664777552 202.92283712696909,202.66616969218137 203.46759237830224,203.5133595349245 203.96039801425368,204.4576680534148 204.39015166710453,205.49662253746956 204.74574260072538,206.62649850172696 205.01618775166392,207.84228518744152 205.19077524005664,209.1376648544647 205.25921406358032,210.5050070479004 205.21178852449887,211.93537891707282 205.03951578380813,213.4185725370374 204.73430478995454,214.94315003510195 204.28911469506218,216.49650715719343 203.69811075152506,218.06495572214467 202.95681557866715,219.6338252071433 202.0622536053622,221.18758348600693 201.01308643237317,222.70997650526786 199.80973681994388,224.1841864331953 198.45449899392955,225.59300755608362 196.95163297938132,226.91903892689763 195.30744071567213,228.14489249648048 193.53032178338904,229.25341518003458 191.63080668144107,230.22792303475848 189.62156573395094,231.052445451853 187.51739188095394,231.7119770012698 185.33515581478764,232.1927343143788 183.09373216496635,232.48241515211657 180.81389570751656,232.57045658813502 178.51818687896275,232.44828904203237 176.23074620869278,232.10958273090813 173.97711764411295,231.55048297216976 171.78402112815516,230.76983067052484 169.67909519516877,229.76936426102722 167.6906107753923,228.55389936127762 165.84715783595797,227.13148241247492 164.17730693320513,225.51351466368033 162.70924820201012,223.71484297868523 161.47041075755135,221.7538141220824 160.48706592773536,219.65228941181826 159.78391816444872,217.43561691036663 159.38368789265644,215.1325586657914 159.30669094175084,212.775170906781 159.57041955696872,210.3986355409404 160.18913030359596,208.0410418011992 161.1734444465756,205.74311742833316 162.52996660665022,203.54790936474276 164.26092765514932,201.50041456142026 166.36385790711267,199.64716216132882 168.8312967011701,198.03574901229797 171.65054440949677,196.71433117434046 174.8034627978604,195.73107481262974 178.2663294505555,195.13357060018535 182.00975168495552,194.96821648490945 185.99864500342747,195.27957439476847 190.192280665316,196.10970715290395 194.54440640849984,197.49750254118854 199.00344370963262,199.47799207582727 203.51276424672665,202.0816726314772 208.01104742055256,205.33383956039566 212.43271990697406,209.25394038977797 216.70847725664987,213.8549585333591 220.7658865386289,219.14283671253895 224.53006794861437,225.1159499382346 227.92445218073956,231.76463794852816 230.87160920442585,239.07080692089585 233.2941429073254,247.00761007428898 235.11564487460788,255.53921643959384 236.2616993880633,264.62067660229735 236.66093056069354,274.19789360518826 236.24608138944757,284.20770643983803 234.95511342694937,294.5780926532862 232.7323147593566,305.22849555243806 229.52940304904533,316.0702803066648 225.306609574901,327.00732193445475 220.03372949675162,337.9367267201301 213.6911230007032,348.74968705120375 206.27065156505935,359.33246800745354 197.77653333754273,369.5675222829559 188.22610154804048,379.3347281978493 177.65045001011353,388.51274367518477 166.094950100541,396.98046713947434 153.61962415888362,404.61859435882184 140.29936102608983,411.31125832483315 126.22396044790044,416.9477373682786 111.49799430806485,421.424214869461 96.24047412835309,424.6455721670892 80.58431597428138,426.5271946256637 64.67559583160468,426.99676931683575 48.67259066002302,425.9960514329475 32.74460267496664,423.48257540885504 17.070566940208295,419.43128580844814 1.8374450544564809,413.8360623613419 -12.76158943830697,406.71111313805704 -26.52916531777194,398.0922097518892 -39.26591597960473,388.0377386937246 -50.772854976380444,376.62954346093886 -60.85390688856586,363.97353304879584 -69.31857247550568,350.2000336448407 -75.98470397706899,335.46386201221947 -80.68136345128096,319.944101071196 -83.25173418534968,303.84356058954364 -83.55605255161856,287.38790866738975 -81.47452524148429,270.82446284098194 -76.91019464480769,254.42063311808113 -69.79171329500872,238.46201307524393 -60.075986815184876,223.25011926872574 -47.75064372097259,209.0997836051794 -32.836289802055205,196.3362079493968 -15.388504653956772,185.29169507222304 4.50046170070263,176.30207501554122 26.7003332468567,169.7028510208693 51.041833124233335,165.82509427700631 77.31612706208533,164.9911218293802 105.27471998760653,167.509996994554 134.6298373913839,173.67289646973938 165.05531911621898,183.74839294852228 196.18804871205668,197.97770637776222 227.6299363852115,216.56998094306522 258.9504678886763,239.6976483773298 289.689825484652,267.49194117513525 319.36258040222435,300.0386216933214 347.4619490626636,337.37399485555284 373.46459781155227,379.481273190186 396.8359730489009,426.2873631551513 417.036125562134,477.6601410853162 433.52598962696857,533.406285588176 445.77406913997976,593.2697307718104 453.26347478319894,656.9308012827721 455.4992481007656,724.0060857387612 452.01590050104534,794.0490997501411 442.3850876995795,866.5517833357718 426.2233331067281,940.9468701650436 403.19970725870036,1016.6111577249342 373.04336471212025,1092.8696982580673 335.5508349896719,1169.000920198402 290.5929602944748,1244.2426789133237 238.12136991626093,1317.799223926826 178.17437963996608,1388.849057544957 110.88220413621923,1456.5536470427494 36.47137135335561,1520.0669394260644 -44.73176957910508,1578.5456143901333 -132.298551418959,1631.1599976091513 -225.69660176056954,1677.1055430693589 -324.28965759538926,1715.6147799732573 -427.33866441404655,1745.9696069744818 -534.0042323593575,1767.513804338583 -643.3505099186935,1779.6656232559703 -754.3505220658117,1781.9303011544343 -865.8930046911041,1773.9123426654135 -976.7907506827617,1755.3273980842807 -1085.7904652503744,1726.0135649199144 -1191.5841091515026,1685.94193363564 -1292.8216885484708,1635.2261961153545 -1388.125429467924,1574.1311349062107 -1476.1052534627947,1503.0798130384599 -1555.3754493097465,1422.6592883314283 -1624.572413659073,1333.6246826693196 -1682.373311751597,1236.9014458547433 -1727.5154879065226,1133.5856653789801 -1758.8164347586248,1024.9422878146663 -1775.1941104860105,912.4011345365826 -1775.687374832744,797.5506140744425 -1759.4762979104785,682.1290555283206 -1725.9020808773018,568.0136120266384 -1674.4863149549992,457.20671003533784 -1604.9492951658476,351.8200492539743 -1517.2270979434684,254.05618864063447 -1411.4871276799897,166.18778653534514 -1288.141836575257,90.53459660653407 -1147.8603250883182,29.438356095605826 -991.5775370644346,-14.764261784289147 -820.5007743947276,-39.77042382593615 -636.1132709949148,-43.34139829459252 -440.1745850564615,-23.334024226292996 -234.71759197306193,22.266922743946168 -22.041888072930476,95.3158113521192 195.29655276550895,197.47305570236762 414.49959148513307,330.1722367814099 632.545087096404,494.58786908600945 846.2090490061062,691.6042573981786 1052.091769554609,921.7859050149141 1246.6478777632435,1185.3499463636258 1426.2202025447798,1482.1410834545857 1587.077278738337,1811.6095066151076 1725.454272834515,2172.7922750342377 1837.5970477523736,2564.298621486751 1919.8090281650116,2984.2996279219924 1968.5004703406653,3430.522694179778 1980.2396840093359,3900.2511907843827 1951.805699155344,4390.329648496959 1880.241818677,4897.174792086831 1762.909449369406,5416.792673709469 1597.5415595112781,5944.802102543429 1382.2950723099805,6476.4645022234345 1115.80147141039,7006.720256496053 797.2148684150816,7530.23152690059 426.2567636763297,8041.431444724755 3.256721244559259,8534.579493687155 -470.8118225212901,9003.822810540214 -994.301388938926,9443.263038945242 -1564.8666794456822,9847.028278516513 -2179.4479153571465,10209.349576918485 -2834.261979835696,10524.64131946024 -3524.80199580341,10787.584778966057 -4245.845911065666,10993.214000070811 -4991.474588152239,11137.003107795892 -5755.099811497255,11214.954051650371 -6529.502528874839,11223.683724926206 -7306.88153795221,11160.509335680481 -8078.9127130419965,11023.530852470292 -8836.818742418953,10811.709305542669 -9571.449213866743,10524.939694152883 -10273.37074655467,10164.117234189393 -10932.96672218714,9731.195678432225 -11540.546019052841,9229.236455569946 -12086.460000705347,8662.447404424758 -12561.22685824756,8036.209927412887 -12955.662253412947,7357.093452666714 -13261.01506079098,6632.856177841036 -13469.106863678791,5872.431170601091 -13572.473721282511,5085.897021105614 -13564.508597513577,4284.432380185286 -13439.602725637833,3480.253872865591 -13193.284080750645,2686.537049629045 -12822.351045657995,1917.3202263307226 -12324.99928738273,1187.391266684886 -11700.939813245022,512.1575771740561 -10951.506149231,-92.50018872553267 -10079.748580966996,-610.3899840367801 -9090.513420687103,-1025.1848037580262 -7990.505313532389,-1320.61247969438 -6788.330674536978,-1480.6573637901208 -5494.520454642384,-1489.7721825514368 -4121.530570650276,-1333.0981034386557 -2683.7185004569337,-996.6908205755672 -1197.2947411370542,-467.750245222598 319.75194697927594,265.148820269167 1847.7563330131916,1211.827834278354 3365.5060864651964,2380.280468382288 4850.3989608841275,3776.456475058127 6278.6276943997555,5404.056695525543 7625.392179906484,7264.342510242931 8865.138088379046,9355.963076291378 9971.820744913837,11674.803698800251 10919.1926624213,14213.858645051385 11681.112736632103,16963.13162764825 12231.874702773415,19909.56705524712 12546.55205380222,23037.01497435475 12601.356227620552,26326.23240262144 12374.00449166271,29754.92348245648 11844.093593251471,33297.82056379433 10993.474908921215,36926.807957181874 9806.626521332393,40611.08968442268 8271.017384294566,44317.40209585747 6377.458510549326,48010.27172371154 4120.435938981269,51652.31820324297 1498.4201132448986,55204.60152182164 -1485.8537624626006,58627.012255392394 -4825.139827847451,61878.70282755595 -8507.475504220676,64918.55718493683 -12516.020503006775,67705.69563039039 -16828.945932917042,70200.01090037798 -21419.37824735232,72362.73092241355 -26255.402409159702,74157.00305130114 -31300.128206570364,75548.49396773387 -36511.82313222739,76505.99883885002 -41844.114637902414,77002.05279689698 -47246.263903066574,77013.53729870214 -52663.51250928568,76522.27349468938 -58037.502598932246,75515.59437109668 -63306.7702215535,73986.88714198509 -68407.31064116862,71936.09716739392 -73273.21340068318,69370.184568896 -77837.36392450302,66303.52471150833 -82032.20739739396,62758.24382834836 -85790.5695977711,58764.48128759787 -89046.52829896663,54360.570345222135 -91736.32779554436,49593.129695299824 -93799.32807710225,44517.058725268405 -95178.97917354623,39195.43010696962 -95823.81024839036,33699.27420568232 -95688.4221354433,28107.250766317455 -94734.4712146638,22505.20443488338 -92931.63182044053,16985.601888701673 -90258.52378529878,11646.849673369892 -86703.59125893816,6592.493268916727 -82265.91862081795,1930.299420995331 -76955.969137721,-2228.774637585388 -70796.23201829246,-5771.719798850745 -63821.76369565189,-8584.714553231297 -56080.609536565076,-10554.456630098732 -47634.09273937072,-11569.576380729575 -38556.95794901285,-11522.11976302694 -28937.358090176782,-10309.087107257976 -18876.67410038647,-7834.012221368097 -8489.158633248338,-4008.5648572479868 2098.6036055493028,1245.8418696274405 12748.424436492316,7996.458810473097 23311.433266446158,16297.643704076887 33629.192042211725,26189.361483353106 43535.00319054117,37695.764509817614 52855.40717541905,50823.875795081156 61411.86371808343,65562.3985330999 69022.6080408295,81880.67525918417 75504.6707388565,99727.81965349763 80676.04708473815,119032.04340223505 84357.99875947597,139700.1996058543 86377.46821676298,161617.5629707965 86569.58315926476,184647.8654325164 84780.22597536207,208633.60393078162 80868.64049111895,233396.63479427702 74710.04607542449,258739.06659622447 66198.22703697732,284444.46042607445 55248.06341072427,310279.34329912864 41797.96768871128,335995.03691573866 25812.190845249526,361329.80020898033 7282.960176435213,386011.2801137811 -13767.588945165806,409759.2607855579 -37285.72527571988,432288.6971315295 -63184.715243377446,453313.0140365978 -91343.73421261963,472547.648115945 -121607.13033840078,489713.8042603442 -153784.0738292935,504542.394713333 -187648.62184384582,516778.1239907558 -222940.22609960494,526183.6786844508 -259364.70658207548,532543.9771469039 -296595.7105104949,535670.4302977056 -334276.67096533254,535405.1613918281 -372023.27433304436,531625.1296101499 -409426.4400087977,524246.0998395339 -446055.80965757294,513226.3990667606 -481463.7368161426,498570.3984787776 -515189.7607787365,480331.65969843615 -546765.5416111288,458615.68364333734 -575720.2258527275,433582.2013230983 -601586.2050717406,405446.94752854714 -623905.2220195776,374482.8608489668 -642234.7717779028,341020.6568062457 -656154.7381010168,305448.72513413645 -665274.1982279206,268212.3073635213 -669238.3228762529,229811.9168965742 -667735.2920403822,190800.97064862703 -660503.1417057471,151782.60907917575 -647336.4517684734,113405.68998319565 -628092.7814192454,76359.95071843157 -602698.7551167714,41370.34353844335 -571155.7001379327,9190.559306765403 -533544.7356420498,-19404.234006415183 -490031.2133116998,-43625.40010065735 -440868.4110092763,-62679.54060607292 -386400.38358365657,-75777.83702150015 -327063.8790297616,-82145.9544683599 -263389.2336868481,-81034.42145513697 -196000.16708550922,-71729.38817133692 -125612.40542904602,-53563.654584110074 -53031.072515160464,-25927.84896425007 20853.20185683419,11718.372406538385 95069.49333416307,59835.242523690715 168573.13773191127,118792.06392762998 240253.63729797973,188856.80445084051 308943.9105273805,270186.26599808526 373430.8602767031,362816.9873469698 432467.2168330124,466657.0436168871 484784.59382186935,581478.9048033679 529107.6755850379,706913.5134870969 564169.4351268596,842445.7373944408 588727.2621435451,987411.3458207034 601579.8612519036,1140995.6499618918 601584.7615771263,1302233.935893087 587676.2606084544,1470013.8052652807 558883.6079612721,1643079.5227798843 514349.218674924,1820038.4511831778 453346.6912108412,1999369.6339750984 375298.3926789006,2179434.5633543367 279792.3632909108,2358490.146264578 166598.28389080797,2534703.8549384153 35682.24490238663,2706171.0202642092 -112779.94758746476,2870934.1968689514 -278391.1924031454,3027004.498291579 -460523.50050240726,3172384.76932352 -658310.6415442666,3305094.4308536346 -870643.2715776489,3423195.800738311 -1096166.7689626622,3524821.6627148353 -1333281.9871671568,3608203.824600695 -1580149.1107791446,3671702.3774043964 -1834694.774962361,3713835.3389606443 -2094622.57872699,3733308.3397505917 -2357427.088911363,3729043.9851372777 -2620411.394846975,3700210.5077972016 -2880708.233537083,3646249.30711582 -3135304.662102386,3566900.95917947 -3381070.2085748506,3462229.272161376 -3614788.384247221,3332642.95776351 -3833191.3911595265,3178914.490305412 -4032997.8074242817,3002195.731372641 -4210952.981508738,2804029.909934601 -4363871.814900059,2586359.565744859 -4488683.561412777,2351530.0878190324 -4582478.221429898,2102288.509955455 -4642554.06130125,1841777.261660952 -4666465.742679896,1573522.6154322706 -4652072.504501467,1301417.6200082607 -4597585.8023508955,1029699.3637502777 -4501615.776863736,762920.4724434373 -4363215.89531304,505914.8111662574 -4181925.0893546306,263757.4299867259 -3957806.6977302455,41718.86755671182 -3691483.5162047325,-154785.99545118475 -3384168.2587340595,-320254.26041791524 -3037688.7443562225,-449156.15700039343 -2654507.1440237826,-536000.5723016227 -2237732.6509282365,-575404.4397978504 -1791126.977081016,-562165.3817235621 -1319102.12818736,-491336.9174812139 -826709.9682387436,-358305.4726248525 -319623.15469565004,-158868.34924444166 195892.89555527025,110688.24964454395 713017.2604327606,453512.11060675356 1224420.1401173954,872109.8376612455 1722318.9043785043,1368274.6844410177 2198543.492319508,1943018.4917033967 2644610.976188208,2596508.853997699 3051808.9742415766,3328012.6495821015 3411287.4664322096,4135847.064549846 3714158.4322226457,5017339.224716375 3951602.593589612,5968795.516393733 4114982.4098288766,6985481.629134944 4195960.335795686,8061614.289419825 4186621.22349469,9190365.573797341 4079597.6203222396,10363880.593105048 3868196.5976809035,11573309.226153385 3546526.633089362,12808852.452013986 3109622.9692782043,14059823.685315069 2553569.7870664503,15314725.359489199 1875617.4570011392,16561340.829738323 1074293.0797021908,17786841.481811658 149502.4883953347,18977908.73600833 -897378.1290649658,20120870.429825682 -2063422.825723221,21201850.849320453 -3344090.516754601,22206933.46068692 -4733175.381239674,23122335.172161292 -6222774.720607856,23934590.734695494 -7803275.845040705,24630745.670647148 -9463363.42772474,25198555.905896366 -11190048.608732082,25626692.075349096 -12968720.945661712,25904946.277829383 -14783224.097516559,26024438.877091307 -16615955.892499518,25977822.784303527 -18447993.170735274,25759482.51708439 -20259241.510993797,25365725.21414844 -22028609.64832701,24794960.695942134 -23734208.069528893,24047867.60321924 -25353570.938285675,23127542.62010117 -26863900.154950913,22039629.79830383 -28242330.00058552,20792427.047146134 -29466210.455098215,19396966.941628218 -30513406.919191014,17867069.129838567 -31362613.713805556,16219361.79239272 -31993678.3835932,14473269.821226832 -32387933.497497037,12650967.64308977 -32528532.32491724,10777294.914199458 -32400784.475292273,8879633.655886514 -31992487.32750229,6987745.785204941 -31294248.84848908,5133570.417396195 -30299797.21302095,3350980.7760841697 -29006272.49358882,1675501.0388620405 -27414495.595770217,143983.9665868954 -25529209.574494135,-1205749.2903207429 -23359288.48459165,-2335305.251115507 -20917908.99846744,-3206147.494443694 -18222680.1678111,-3780056.2587151057 -15295726.917517507,-4019614.5481806365 -12163723.140279675,-3888716.461529815 -8857870.610782744,-3353092.8961301385 -5413820.35941522,-2380849.239869306 -1871533.6364013858,-943009.1521722075 1724919.8431687106,985941.9354429871 5327628.057144912,3427520.392444153 8885168.232041052,6398722.196588228 12343004.04458702,9911522.438984765 15643947.916726606,13972404.220869822 18728687.004638255,18581924.786178842 21536370.595990084,23734326.79663639 24005255.712336015,29417202.624558505 26073406.774656314,35611219.406975836 27679444.23977766,42289912.3679708 28763336.164832078,49419553.57017802 29267225.717842605,56959102.79822478 29136286.737397946,64860246.70465456 28319598.566197358,73067531.66207707 26771030.555402532,81518594.964785 24450125.872898336,90144498.11121963 21322973.562524434,98870164.87933183 17363057.206847344,107614925.7855766 12552068.056612099,116293169.30208561 6880670.118781499,124815098.90429139 349204.4545653369,133087593.64334396 -7031680.15918798,141015168.49615365 -15240482.996658482,148501029.25446883 -24244406.151181802,155448215.18830672 -33999020.489215575,161760821.17490378 -44448054.40787851,167345289.4401974 -55523316.26470385,172111759.5348702 -67144760.4137579,175975463.68144476 -79220705.6616722,178858153.20394284 -91648213.65182021,180689540.40899017 -104313633.1987591,181408739.049186 -117093314.93451162,180965685.388468 -129854498.80225237,179322520.92740306 -142456374.953149,176454917.05582976 -154751316.48277912,172353321.3023079 -166586280.20176163,167024104.46480194 -177804369.29066575,160490587.75394303 -188246549.26419255,152793929.17654094 -197753506.1888181,143993848.7482427 -206167633.5887241,134169172.76364945 -213335131.96614552,123418178.28041446 -219108202.38557738,111858720.19873008 -223347313.1594978,99628124.84374411 -225923516.36076328,86882835.78704925 -226720788.70900777,73797799.77195652 -225638369.37140125,60565583.0294347 -222593065.41831025,47395210.976861715 -217521494.11812288,34510727.2654471 -210382229.9783518,22149471.365299895 -201157823.47673693,10560077.326258505 -189856657.8093983,200.0000002325076" stroke="white" stroke-width="1.5" /></svg>