<?xml version="1.0" encoding="utf-8" ?>
<svg baseProfile="full" height="400" version="1.1" width="400" xmlns="http://www.w3.org/2000/svg" xmlns:ev="http://www.w3.org/2001/xml-events" xmlns:xlink="http://www.w3.org/1999/xlink"><defs /><rect fill="black" height="100%" width="100%" x="0" y="0" /><circle cx="200" cy="200" fill="yellow" r="10.14076604324706" stroke="orange" stroke-width="2" /><polyline fill="none" points="198.86304957914805,200.0 198.7706927707513,199.9354669860402 198.68077560930485,199.8611107447317 198.5943604242732,199.77699069005428 198.51252989282625,199.68328483826872 198.43637469534877,199.5802953114153 198.36698023674862,199.46845265806954 198.305412535927,199.3483188581439 198.25270340297018,199.2205888859649 198.2098350404823,199.08609071535793 198.17772422176873,198.9457836620595 198.1572062140651,198.80075497243988 198.1490186294306,198.652214583231 198.15378539904816,198.50148799465475 198.17200107823638,198.35000721894815 198.20401569923894,198.19929978767013 198.2500203965694,198.05097582420007 198.3100340351214,197.90671321232657 198.38389107418695,197.76824091756887 198.4712309007528,197.63732054463574 198.57148886278367,197.51572624194404 198.68388922749293,197.40522309209933 198.80744028070845,197.30754415536614 198.94093177126703,197.22436636108677 199.08293488884092,197.1572854693833 199.2318049446877,197.10779035192064 199.3856869025258,197.07723686562687 199.54252388112474,197.06682161666131 199.70006872135687,197.07755593318092 199.85589867853017,197.11024038417793 200.00743326599718,197.1654401974413 200.15195523855647,197.24346194213788 200.2866346643138,197.34433185023806 200.408555991793,197.46777615567083 200.51474797556088,197.613203830347 200.6022162788912,197.77969209174685 200.66797852651524,197.9659750473645 200.70910153480202,198.170435826723 200.72274040134167,198.39110253175514 200.70617909144912,198.62564831097728 200.6568721161811,198.87139583201517 200.57248685570485,199.12532639068914 200.45094604391898,199.38409385311562 200.29046989577236,199.6440435802905 200.08961732841394,199.90123643262058 199.84732570178977,200.15147789517448 199.5629484842232,200.39035230342373 199.23629023448296,200.61326208440946 198.86763828444288,200.81547186015032 198.45779050619848,200.99215718932857 198.00807855491894,201.138457650558 197.5203859941909,201.24953389662332 196.99716073450585,201.3206282348238 196.4414212481207,201.34712821485877 195.85675606495514,201.32463263351065 195.24731610456274,201.24901929571217 194.61779945849042,201.11651380546536 193.97342830538818,200.9237585985674 193.31991771778522,200.66788137327097 192.6634362041268,200.34656202593365 192.01055792196178,199.9580971574613 191.36820659744274,199.5014611839567 190.74359129178256,198.97636306244465 190.1441342661078,198.38329763079906 189.57739131123498,197.72359056091506 189.05096502712956,196.99943593653086 188.57241165692784,196.21392549259141 188.14914220103822,195.37106859221916 187.78831865653078,194.47580207064746 187.49674634421257,193.53398914315923 187.28076339885143,192.5524066562827 187.14612860526617,191.53872005817473 187.09790886272557,190.5014455750381 187.1403676505442,189.44989920514442 187.27685594718696,188.39413227994538 187.50970712186646,187.34485349201418 187.8401373698556,186.31333745112937 188.2681532989277,185.311320001438 188.79246829294857,184.35088071285574 189.41042927827354,183.44431314700842 190.1179554979802,182.6039836902325 190.90949085699333,181.8421799413738 191.7779713369251,181.17094983813294 192.7148088922701,180.60193290011233 193.70989312900556,180.14618515699777 194.75161193246535,179.8139995138184 195.82689205366466,179.61472347922816 196.9212604824431,179.55657634444532 198.01892723256617,179.6464680470339 199.1028899393035,179.88982208227645 200.15506042535225,180.29040493266575 201.15641312799303,180.8501645703033 202.087155001102,181.56908064510876 202.92691621247516,182.44502900124388 203.6549606525697,183.47366316275307 204.25041495826488,184.64831539506847 204.69251443793803,185.95991987994014 204.96086396566017,187.39696043606426 205.0357115965267,188.94544507508024 204.8982323461604,190.58890950196573 204.53081927955395,192.30845144987504 203.91737877211077,194.08279748229955 203.04362654354603,195.88840360071714 201.89738082783677,197.6995906647965 200.46884883426716,199.48871526640994 198.75090248036022,201.22637630041228 196.73933924155233,202.88165704714316 194.4331238691159,204.42240212723877 191.83460668107494,205.8155282124843 188.94971413439387,207.02736688152692 185.7881074438774,208.02403750124301 182.3633051268738,208.77184749886487 178.69276552539876,209.23771687250974 174.7979255904908,209.3896232748464 170.70419250862594,209.19706350296403 166.4408851073396,208.63152674406425 162.04112239654626,207.66697446862224 157.54165708235442,206.28032143755203 152.98265242955134,204.45191190515905 148.40740144462407,202.16598476275644 143.86198799955613,199.41112108615687 139.3948902131441,196.18066733103106 135.05652714579122,192.47312727025977 130.89875063929867,188.29251569340244 126.97428493789477,183.64866689626896 123.33611755254655,178.55749108369207 120.03684566863163,173.04117199561966 117.12798323770201,167.12829934940444 114.65923472706328,160.85393007256158 112.67774231534547,154.2595727821481 111.22731410678237,147.39309055003167 110.34764167978062,140.30851767718391 110.07351597451404,133.06578698299433 110.43405114755079,125.73036499434659 111.45192656674892,118.37279338931843 113.14265757482234,111.06813610591368 115.51390600339403,103.89533265979249 118.56484165980314,96.93645941766229 122.2855661258604,90.27590183449666 126.65661019142118,83.99944197130043 131.6485160873486,78.19326695260884 137.22151537462742,72.94290538488117 143.3253128828812,68.33210012276186 149.89898646767406,64.44162712312476 156.8710115687648,61.34807144917633 164.1594185997839,59.12257276018954 171.6720900844354,57.82955382752323 179.30720317820385,57.52544673491349 186.95382178278268,58.25743243080683 194.4926408804141,60.06221018299007 201.7968839967705,62.96481422143847 208.73335285601462,66.97749542517667 215.16362633473327,72.0986862948298 220.945403769389,78.3120676373054 225.93398554394116,85.58575535692513 229.9838817017324,93.87162548419482 232.9505371121117,103.10479506704978 234.69215950304005,113.20327578986434 235.07163447331317,124.06781616524947 233.95850945083993,135.58194685790926 231.2310264967108,147.61224214680456 226.77818189968326,160.00880871299688 220.501788693996,172.60601086063363 212.31851659723884,185.22343894598245 202.1618824364636,197.66712521632272 189.98416294149666,209.7310084627515 175.7582008653343,221.19864588831655 159.47907477207517,231.84516740899264 141.16560254088068,241.43946426730454 120.86164869546428,249.746600378138 98.637206105525,256.5304312782583 74.58922343906615,261.5564119535668 48.842150988828564,264.59457121258964 21.54817916421146,265.42262670543624 -7.11285396031235,263.82921120130715 -36.93390711537458,259.6171773835124 -67.68155043484285,252.60694524944918 -99.0971649016804,242.63985326575872 -130.89853756164,229.5814717781775 -162.78185923500496,213.32483486356222 -194.42412690233988,193.79354488967573 -225.48594805404116,170.94470256656686 -255.6147391137647,144.77161427971228 -284.4483046174453,115.30622803453367 -311.6187782034489,82.62124945590637 -336.7569007021782,46.83189001188836 -359.4966047674445,8.097201000062796 -379.47986963464655,-33.3790511263382 -396.361803794312,-77.34800978749013 -409.81590771006336,-123.51589192698935 -419.5394632671786,-171.54472441379187 -425.258991493816,-221.0536824908432 -426.73571533565917,-271.6210540406177 -423.7709599711683,-322.78684724775576 -416.2114194134117,-374.0560524156541 -403.95421503926764,-424.90256127990244 -386.9516692987752,-474.773739209434 -365.2157162643481,-523.0956372590982 -338.8218699545247,-569.2788222080912 -307.91267157705465,-612.7247935702047 -272.70053804143214,-652.8329471865779 -233.46993634317573,-689.0080355110714 -190.57881176329744,-720.668065182277 -144.4592022878765,-747.2525630618642 -95.61697725398932,-768.2311327304901 -44.6306449761822,-783.1122145991383 7.850818005099427,-791.4519544493385 61.111154406811295,-792.8630774967046 114.37105868674418,-787.0236581166183 166.79347168289303,-773.6856693162358 217.48994249405146,-752.6831910191015 265.5280497445316,-723.9401523793103 309.9398606642296,-687.4774807874937 349.73139205333507,-643.4195290895241 383.89302232393936,-591.9996529195014 411.41078856917557,-533.564812048538 431.2784871695691,-468.5790733537003 442.51048098459984,-397.62589848520713 444.1551008862074,-321.40910660503823 435.3085144715677,-240.75241171787695 415.1289204555435,-156.5974451259304 382.850913706085,-70.00018640056425 337.7998533704957,17.87425906026192 279.40605527100223,105.75858139006016 207.21861994811474,192.29191393222885 120.91869962015828,276.03021499397965 20.33200112114409,355.45837036841965 -94.5596822183984,429.0039810094413 -223.60811857985783,495.0527768848114 -366.4896737058658,551.9655738422521 -522.6979398270857,598.0966655469869 -691.538156217887,631.8135174557882 -872.1236111675894,651.5176046732006 -1063.3742032281477,655.6662107009447 -1264.0173246623594,642.7949798695633 -1472.591212053077,611.5409929745222 -1687.450888064293,560.6661136806154 -1906.776794428789,489.0803329694263 -2128.5861894746427,395.86482064898166 -2350.7473540364404,280.29437708589677 -2570.9966176121884,141.8589652159197 -2786.95818235266,-19.716007113353243 -2996.1666861796143,-204.4509909819733 -3196.092408339261,-412.0955257557612 -3384.168981366296,-642.1137320896977 -3557.823433161298,-893.6724012065322 -3714.508342108378,-1165.6320030782742 -3851.7358473541162,-1456.5409214530614 -3967.113216038564,-1764.6332041708129 -4058.379629948421,-2087.830092818397 -4123.443816307827,-2423.745566464409 -4160.422111808097,-2769.696100020144 -4167.676516091391,-3122.7147987961444 -4143.852261334966,-3479.570027225574 -4087.914398924613,-3836.788601742068 -3999.1828830370596,-4190.683565731312 -3877.3656148369882,-4537.386508698224 -3722.5889004736687,-4872.8843327504865 -3535.424771639891,-5193.060307709543 -3316.9146195962385,-5493.739192207385 -3068.58860267942,-5770.736132662273 -2792.4803037577717,-6019.90898576129 -2491.1361381571437,-6237.213643784078 -2167.619044466545,-6418.76187660273 -1825.5060304727897,-6560.88114035536 -1468.8791943037418,-6660.1757415213015 -1102.3098966219495,-6713.588687358462 -730.8358232400332,-6718.463500350553 -359.93074855831856,-6672.60522641667 4.533111629074597,-6574.339825115376 356.3301846458122,-6422.571095874253 688.9339986702882,-6216.834268310032 995.57685354324,-5957.345367847207 1269.3164439859108,-5645.0454609153885 1503.109070573011,-5281.638887758911 1689.8889673787758,-4869.624605993915 1822.6531675191438,-4412.319795071728 1894.551220103809,-3913.874911215151 1898.9789657262152,-3379.2794345240386 1829.675473971495,-2814.3576150043227 1680.822146982697,-2225.7536023146126 1447.1428994144467,-1620.9054349468922 1124.0042386696007,-1008.0074680940793 707.5139917207558,-395.9609351636334 194.6173576223911,205.68753485052514 -416.81109044697223,786.8194839358299 -1127.8808716235676,1336.8301676379174 -1938.6059773041056,1844.7258094331667 -2847.8336204742054,2299.2321392182753 -3853.182803764032,2688.913619143714 -4950.9941305763,3002.30258701786 -6136.2922392449955,3228.037372497989 -7402.762175655994,3355.008266300979 -8742.740934552081,3372.5100498923634 -10147.225293526899,3270.399624842966 -11605.896936400417,3039.257119673074 -13107.165714434197,2670.548700004838 -14638.231725129552,2156.7891677320104 -16185.166699884005,1491.702309232004 -17733.014984583348,670.3768439181106 -19265.91417259955,-310.58426485224413 -20767.235209279148,-1452.9234419218424 -22219.741532775337,-2756.5994242014167 -23605.76655023457,-4219.671841878791 -24907.40847342729,-5838.201811242693 -26106.741256721183,-7606.170852006763 -27186.040095914293,-9515.420369090085 -28128.019662200608,-11555.613833135278 -28916.082964972553,-13714.223654746387 -29534.57846401553,-15976.544573983714 -29969.06278981001,-18325.73517893847 -30206.56618414617,-20742.888925510248 -30235.857546162362,-23207.135755557683 -30047.705765372677,-25695.775103580843 -29635.133847359,-28184.440744696167 -28993.66219360661,-30647.297571040523 -28121.537288379848,-33057.269992551 -27019.941976302263,-35386.30124446662 -25693.183487916485,-37605.64245152755 -24148.855390155506,-39686.16985183235 -22397.96970719783,-41598.72812623537 -20455.055577022573,-43314.4973170321 -18338.220982075953,-44805.38035790499 -16069.174320220869,-46044.40778145606 -13673.202865391515,-47006.15572720915 -11179.10550631128,-47667.17294806161 -8619.077545767803,-48006.4121133339 -6028.545791065344,-48005.66033845096 -3445.9526664362097,-47649.963541601515 -912.4886276520613,-46928.03894313847 1528.2272457025324,-45832.66979055637 3830.5179681834807,-44361.076216979825 5947.069491634234,-42515.25603027522 7829.399785223804,-40302.28918883094 9428.373537193822,-37734.599753918556 10694.75912008306,-34830.169221950135 11579.82371015355,-31612.695336801997 12035.9617015033,-28111.69076581829 12017.350815305734,-24362.516395417493 11480.629584654807,-20406.344464722453 10385.589205916442,-16290.047308600679 8695.872098906173,-12066.008124123788 6379.668921444372,-7791.850904741753 3410.405249774825,-3530.0875012027454 -232.5913241836264,652.3193370414211 -4563.45330409668,4684.477117297569 -9589.174516121248,8492.168097294036 -15309.060536026956,11998.535163633915 -21714.238464977672,15124.845997850074 -28787.23614434085,17791.331251003034 -36501.64071241463,19918.091239951056 -44821.846082753225,21426.0644579586 -53702.89845975692,22238.049973526253 -63090.44839871846,22279.77458949873 -72920.81716248185,21480.994465724572 -83121.18422483552,19776.619789550885 -93609.90172313998,17107.85002649606 -104296.94047269879,13423.306316131417 -115084.47082838323,8680.146713215026 -125867.58022225428,2845.149229075373 -136535.12762888244,-4104.2529795620185 -146970.73352429768,-12179.000380921527 -157053.90212368142,-21377.516188172984 -166661.27082284747,-31684.91231854193 -175667.97984708182,-43072.30858151465 -183949.1531477987,-55496.28117609954 -191381.47960436658,-68898.45604630932 -197844.88160870882,-83205.2618842784 -203224.25615871046,-98327.8565758339 -207411.27168926026,-114162.23965054938 -210306.20205416903,-130589.56182671365 -211819.77736626094,-147476.64103354822 -211875.02983522287,-164676.69235381976 -210409.11134208966,-182030.2771683801 -207375.05828411086,-199366.47441209215 -202743.47824232202,-216504.27428350598 -196504.132293615,-233254.1920074077 -188667.38633533215,-249420.09635228425 -179265.5046376177,-264801.2445795913 -168353.75900900053,-279194.51237753086 -156011.32747342935,-292396.80414107593 -142341.95722889056,-304207.6257374139 -127474.36790190055,-314431.7986798654 -111562.37273814944,-322882.2914640468 -94784.69738264196,-329383.1407401689 -77344.47830376629,-333772.43204921373 -59468.42570092921,-335905.30708392727 -41405.638895794065,-335656.961894498 -23426.065728579157,-332925.598190228 -5818.601343685024,-327635.2879389342 11111.174072075277,-319738.70988080173 27043.61457096388,-309219.71539714275 41647.97600447122,-296095.68044899864 54585.71820069698,-280419.6000649321 65514.12301746507,-262281.8821474848 74090.20434245902,-241811.7982152251 79974.88087462593,-219178.5501288222 82837.37729605085,-194591.91388651505 82359.81429626317,-168302.42423190866 78241.94291072381,-140601.06710368567 70205.97385412206,-111818.45087387541 58001.44804123169,-82323.43186224818 41410.09036889303,-52521.17476447396 20250.585158147856,-22850.634367671744 -5616.7914988411285,6218.548783239568 -36285.74980269707,34189.73930262367 -71799.84393147599,60543.577734055936 -112148.67971637093,84742.8167748972 -157264.54304151598,106237.70055504126 -207019.51920816404,124471.85630974598 -261223.17210405107,138888.65935494108 -319620.8496692823,148938.0237633627 -381892.6788162017,154083.56265191495 -447653.3086179871,153810.0536318681 -516452.4552155957,147631.1368564955 -587776.2955034297,135097.16534269514 -661049.7492516661,115803.11996461193 -735639.6809317204,89396.49484088377 -810859.0431690365,55585.05288630592 -885971.9735068566,14144.346196044518 -960199.8450929914,-35075.10820369876 -1032728.2600810215,-92141.10975415168 -1102714.9620647435,-157033.62728131728 -1169298.6308514231,-229639.33835769058 -1231608.5094512752,-309746.96919725894 -1288774.7994569181,-397043.54686099023 -1339939.74715919,-491111.67169311846 -1384269.3289585062,-591427.9124509558 -1420965.431058223,-697362.4194933744 -1449278.4052511922,-808179.8426341326 -1468519.8700235994,-923041.6298430897 -1478075.614397189,-1041009.7709100399 -1477418.4511115162,-1161052.0365116133 -1466120.8561122161,-1282048.7479044362 -1443867.2230588247,-1402801.0957933138 -1410465.5548917248,-1522041.0089015954 -1365858.4095908469,-1638442.5535358447 -1310132.9142984846,-1750634.8251466842 -1243529.6611321971,-1857216.2717240064 -1166450.2994331124,-1956770.3670321666 -1079463.6430144347,-2047882.5294163898 -983310.117307755,-2129158.1594429184 -878904.380240238,-2199241.6472386825 -767335.9622773431,-2256836.178355193 -649867.78536758,-2300724.145593987 -527932.437530736,-2329787.9538068622 -403126.09950871347,-2343030.9855422094 -277200.0421827671,-2339598.477873036 -152049.6382498166,-2318798.045138227 -29700.85880311803,-2280119.568979895 87705.74520060034,-2223254.1662837174 197933.54530310485,-2148111.9377316763 298670.75744112604,-2054838.1949493103 387553.68466100347,-1943827.862943396 462192.1464357382,-1815737.7569269135 520196.92416043684,-1671496.438934457 559209.0158888263,-1512311.3700244755 576930.4569881675,-1339673.0884909513 571156.4275941759,-1155356.1634666217 539808.3330260637,-961416.6966477231 480967.5101785136,-760186.1726098338 392909.18186016195,-554261.490264522 274136.2526237127,-346491.0443191441 123412.51436036438,-139956.7659788974 -60205.19166380009,62047.92365906089 -277336.327054386,256044.24631796792 -528248.0062560746,438398.23322321574 -812828.8352297498,605354.8199172724 -1130565.7317777898,753075.7073916038 -1480524.2164046038,877680.7700025265 -1861332.6521957074,975292.7317855714 -2271170.895146416,1042084.7734512612 -2707763.7924376163,1074330.673240219 -3168379.9351776806,1068457.0266875692 -3649836.0340201673,1021097.0339842687 -4148507.240823147,929145.2898457659 -4660343.687222508,789812.960448165 -5180893.451826857,600682.6859249859 -5705332.101982848,359762.50599319406 -6228498.884079944,65538.07134966581 -6744939.558646656,-282977.6246163029 -7248955.793613702,-686197.7797042875 -7734660.94177268,-1143919.3803376015 -8196041.937426454,-1655285.6634428278 -8627026.953396643,-2218754.2368306196 -9021558.363903984,-2832071.6349652475 -9373670.462436348,-3492255.059027857 -9677571.28771673,-4195582.011006544 -9927727.81650037,-4937588.480923164 -10118953.690448627,-5713076.284094952 -10246498.557079788,-6516130.071526333 -10306138.023153774,-7340144.451275084 -10294263.144197889,-8177861.562230421 -10207968.307622831,-9021419.334631136 -10045136.310398847,-9862410.554455996 -9804519.386916874,-10691952.722317256 -9485814.909760786,-11500768.562632995 -9089734.466906572,-12279276.896763587 -8618065.014497444,-13017693.445753202 -8073720.815870804,-13706140.975764504 -7460784.905852608,-14334768.043826487 -6784538.865263873,-14893875.4448743 -6051479.754704484,-15374049.305112695 -5269323.139418634,-15766299.613468783 -4446991.238614578,-16062202.83440365 -3594585.3530134694,-16254047.103791129 -2723341.8633958143,-16334978.377169458 -1845571.250019699,-16299145.77869284 -974579.757258895,-16141844.29182116 -124573.5186449655,-15859652.841441667 689454.836582841,-15450565.743917685 1451856.8548638218,-14914115.44863779 2146475.73592132,-14251484.464003092 2756809.9040921847,-13465604.354322067 3266191.712840291,-12561239.713475388 3657980.06920237,-11545055.067961564 3915765.510366019,-10425662.737285761 4023586.0112393857,-9213649.784591954 3966151.5529705803,-7921582.325632364 3729075.2413073825,-6563985.629968945 3299108.5339769227,-5157298.644692903 2664377.9215291976,-3719801.797537231 1814620.2100014118,-2271517.192247206 741413.3800114172,-834080.5932507229 -561600.1508662229,569415.0926154323 -2098501.153768196,1914604.7944009944 -3870895.4787361952,3176064.3153515165 -5877733.634780439,4327550.655195483 -8115151.494679073,5342268.448803854 -10576335.526821803,6193160.950347832 -13251415.879342047,6853223.58133382 -16127390.518198773,7295837.647286449 -19188083.4491836,7495121.416330654 -22414139.832959678,7426295.348753886 -25783060.53163459,7066057.87532684 -29269278.3050708,6392967.7494578315 -32844277.50579718,5387828.650032426 -36476758.7043167,4034071.3940183357 -40132849.2137955,2318128.836587546 -43776359.97727246,229798.29756535823 -47369088.73504044,-2237413.837732176 -50871168.80886843,-5085970.832161643 -54241462.22809704,-8314013.191654279 -57437995.285910815,-11915100.721913612 -60418433.95850305,-15877994.572794724 -63140595.95231024,-20186484.669185497 -65562995.472485214,-24819267.724478777 -67645416.13738498,-29749880.751785092 -69349506.80761285,-34946694.62714367 -70639394.4630612,-40372971.8172818 -71482307.65675837,-45986991.86202407 -71849203.50971681,-51742247.599380806 -71715390.6960741,-57587714.44175674 -71061140.41239141,-63468194.25794325 -69872276.93865457,-69324734.59194866 -68140739.09073634,-75095123.06186968 -65865103.6439386,-80714455.83666141 -63051061.68332954,-86115778.09372096 -59711838.81692101,-91230793.3247289 -55868550.279511854,-95990637.29134434 -51550482.164595805,-100326711.34737681 -46795290.35435329,-104171568.75214186 -41649109.17754502,-107459846.51399997 -36166562.41488301,-110129234.23748189 -30410669.99254807,-112121470.4165341 -24452644.55677111,-113383355.63540913 -18371573.10399329,-113867771.22315654 -12253979.948502079,-113534691.07325992 -6193268.537274611,-112352173.60259645 -289040.9628231087,-110297320.1991652 5353704.529954433,-107357186.01135613 10625496.208579594,-103529628.57752374 15413428.23653916,-98824079.59744714 19602311.638606496,-93262225.11961648 23075929.978014704,-86878579.57214534 25718391.11197253,-79720939.41046056 27415564.61767412,-71850702.70050465 28056592.71725474,-63343041.708507724 27535460.79966691,-54286916.53191308 25752611.964041013,-44784918.98309795 22616588.417279966,-34952937.32751313 18045681.07381178,-24919634.078051288 11969567.35307944,-14825730.851696586 4330915.976344318,-4823096.294351833 -4913063.446014712,4926364.736920149 -15789149.047223015,14252020.192700764 -28306737.136675883,22976015.006550714 -42456598.326154284,30914964.749409914 -58209783.28146833,37881830.3470677 -75516701.77396156,43687962.62725204 -94306398.13744679,48145302.5966017 -114486045.34157847,51068720.46473387 -135940678.6621401,52278473.56785373 -158533188.35458434,51602760.53443606 -182104588.81648418,48880346.31935791 -206474579.4574769,43963230.15026997 -231442409.88737738,36719326.02228633 -256788059.09345612,27035123.185691673 -282273735.02134025,14818292.13824539 -307645697.41929364,200.00000037675755" stroke="white" stroke-width="1.5" /></svg>