<?xml version="1.0" encoding="utf-8" ?>
<svg baseProfile="full" height="400" version="1.1" width="400" xmlns="http://www.w3.org/2000/svg" xmlns:ev="http://www.w3.org/2001/xml-events" xmlns:xlink="http://www.w3.org/1999/xlink"><defs /><rect fill="black" height="100%" width="100%" x="0" y="0" /><circle cx="200" cy="200" fill="yellow" r="20" stroke="orange" stroke-width="2" /><polyline fill="none" points="199.47838450123658,200.0 199.51504063858349,199.9745418488596 199.55712588925087,199.9533737733676 199.60437953798163,199.93723352148112 199.6564557910095,199.9268518680224 199.71292227025216,199.92294325961277 199.7732594801862,199.9261960428605 199.83686131906333,199.9372623696754 199.90303669793164,199.95674788389442 199.97101232139002,199.9852013031084 200.03993667315976,200.02310401851955 200.1088852374499,200.07085984366952 200.17686697378969,200.12878504979685 200.2428320485868,200.19709883125304 200.30568081124972,200.27591434867014 200.36427398641027,200.36523050028737 200.41744403674167,200.46492457286817 200.46400763325298,200.5747459228493 200.50277915192942,200.69431083564555 200.53258509738126,200.82309870629612 200.55227933597257,200.96044967780006 200.56075900295315,201.1055638644979 200.55698093065266,201.25750227667947 200.53997842806356,201.41518954922648 200.508878226398,201.5774185615541 200.46291739071353,201.74285701844454 200.40145998472912,201.91005604164505 200.3240132647576,202.0774608004428 200.23024316952512,202.24342318596558 200.11998886577683,202.40621650886655 199.9932761052283,202.56405217353108 199.85032914682625,202.7150982542321 199.69158099964656,202.85749987002052 199.51768174625025,202.9894012258645 199.32950471410535,203.10896915796513 199.12815027387728,203.21441799162704 198.91494705808927,203.30403549091722 198.69145041190527,203.3762096509958 198.45943790960266,203.42945605685398 198.22090179564807,203.4624455066645 197.97803823808854,203.47403157446567 197.7332333140937,203.46327776589058 197.48904568275708,203.42948390254332 197.248185938458,203.37221135583863 197.01349267891808,203.29130674005893 196.78790536523113,203.1869236674407 196.57443409621544,203.05954216563094 196.37612646600635,202.90998536019583 196.19603172138957,202.73943303230192 196.03716248345557,202.5494316744794 195.90245434615974,202.34190068571468 195.7947237117058,202.11913437114794 195.71662426869318,201.88379944145694 195.67060256302597,201.63892774260086 195.65885315298834,201.3879039879295 195.6832738779588,201.13444831159725 195.7454218042658,200.88259351455469 195.84647044098472,200.63665693182986 195.98716884236208,200.4012069119872 196.16780323136385,200.1810239661055 196.38816178995788,199.981056713809 196.6475032655622,199.80637282719482 196.9445300390908,199.6621052492204 197.27736628773056,199.55339404046913 197.64354185458194,199.48532428634488 198.039982407276,199.46286057473856 198.4630064284034,199.49077863108357 198.90832953193276,199.573594772437 199.3710765417277,199.71549391372162 199.84580170088998,199.9202569264289 200.32651730417226,200.19118821179427 200.80673096046107,200.53104440557848 201.27949159880328,200.9419651789936 201.73744423024363,201.4254071388974 202.17289336960448,201.98208185906987 202.57787490715137,202.6118990921641 202.94423610086352,203.3139162178383 203.2637232369159,204.08629497575575 203.528076380246,204.92626651182155 203.72913051011653,205.83010573155323 203.85892220888894,206.79311590534078 203.90980094738794,207.80962440616779 203.87454388893977,208.872990380931 203.74647301815585,209.97562506177707 203.51957329160055,211.10902531402715 203.1886104074633,212.26382089263694 202.74924670208517,213.4298357403005 202.19815360450534,214.5961635080278 201.53311901788425,215.7512573143022 200.75314795047188,216.8830335829698 199.85855469036946,217.97898961426614 198.85104480922962,219.02633434950192 197.7337852916587,220.01213158977345 196.5114611206662,220.923454724708 195.1903167061087,221.74755182095936 193.7781806235325,222.47201971436976 192.28447223572837,223.08498554700677 190.72018889900562,223.57529399339592 189.09787261072117,223.93269823203946 187.43155513369436,224.14805254166347 185.73668083622977,224.2135042395394 184.0300067126258,224.1226825346767 182.32947929700913,223.87088174465177 180.6540884514697,223.45523622424267 179.02369829580306,222.8748842797025 177.45885584834258,222.1311182971061 175.98057826269599,221.22751829925346 174.61011987063756,220.170066165384 173.3687205735846,218.9672378034645 172.27733746031768,217.63007065776247 171.3563618629283,216.17220406615598 170.6253243921686,214.6098901531231 170.1025908130033,212.9619731561252 169.80505192660144,211.2498353352129 169.74781091150732,209.49730790770883 169.9438718394647,207.73054578079535 170.4038333154719,205.97786522325197 171.1355913922917,204.2695440213686 172.14405607208872,202.63758410055559 173.43088582754194,201.11543706013782 174.99424464732343,199.73769356043826 176.8285861321916,198.5397380141251 178.92446913441967,197.5573705629656 181.26840934161268,196.8263988610979 183.84277105340206,196.38220273071775 186.62570318386688,196.25927529921478 189.5911232422727,196.49074476142465 192.70875269899977,197.1078814295614 195.94420673227174,198.13959522905668 199.25914087521448,199.61192926323196 202.61145654346163,201.5475554956134 205.9555668234434,203.9652789778732 209.24272324405138,206.87955737599208 212.42140354389502,210.30004280960384 215.437759688148,214.23115321216358 218.23612458924924,218.67168053551458 220.75957515165643,223.61444315503718 222.95054840051205,229.0459897748553 224.75150657642394,234.94636198127628 226.10564619334264,241.28892234230128 226.95764517423518,248.04025459813874 227.25444131109253,255.1601420297127 226.94603445349898,262.6016295278364 225.98630402575768,270.3111742149214 224.33383271895366,278.22888869502356 221.95272651411327,286.28888012929394 218.81342057861892,294.41968735657065 214.89346005300064,302.5448172084499 210.17824432164537,310.583380011828 204.66172305089975,318.450823038206 198.34703209295824,326.05975935818606 191.2470573044935,333.3208882032412 183.3849144249009,340.14400153816376 174.79433340884114,346.43907012116034 165.51993601866155,352.11740089025324 155.61739605994396,357.09285608156495 145.15347239185027,361.2831230753736 134.20590576522474,364.6110225986664 122.86317163570413,367.0058416080999 111.22408236433628,368.40467595525183 99.39723365013454,368.75376681754017 87.50029163094834,368.00981388404216 75.65911883191576,366.14124743638865 64.00673902301503,363.12944078118846 52.68214305476448,358.96984399165405 41.82893985734654,353.67301962084196 31.59385899430933,347.2655609744937 22.125113436084888,339.79087369357046 13.570633537143323,331.30980180908307 6.076185537797812,321.901080106308 -0.21660976032868007,311.66159558116766 -5.172340206957756,300.7064419948027 -8.663927246358753,289.1687530365519 -10.574790316335907,277.1993013908116 -10.801026446366222,264.9658530661539 -9.253578985435865,252.65226867860167 -5.860367780237425,240.45734597417655 -0.5683517510476861,228.5934007138819 6.654506291265392,217.2845861082638 15.817403546264444,206.76495425560503 26.90502127334446,197.27626648063665 39.8760405315748,189.06556305830532 54.661880878806386,182.38250650472887 71.16569261830313,177.47651638634449 89.26163207443943,174.5937173963041 108.79444783136806,173.97372622910598 129.57940386972697,175.8463065021447 151.4025630810557,180.42792457576476 174.02145172760586,187.91824255900562 197.16612205230317,198.49658800259232 220.54062644136334,212.31844271904237 243.82491231840075,229.5119957770067 266.6771423280352,250.1748079384986 288.73643937998946,274.3706365900723 309.6260508088874,302.1264715106611 328.95692030458326,333.4298325707734 346.3316504334682,368.2263806245643 361.34883255969885,406.4178923966806 373.60771484963124,447.86064904350303 382.71317287144325,492.36428625304103 388.28094115872534,539.6911512154536 389.94305807001456,589.5562085304637 387.35347042805495,641.6275331103128 380.19373884838,695.527423387509 368.17877945432093,750.8341626549494 351.0625729138246,807.0844501710461 328.64376751191884,863.7765167837308 300.7710993800183,920.3739323043081 267.3485501263061,976.3101037455721 228.34016003388447,1030.9934548896001 183.77441379465418,1083.8132685411497 133.74811550071607,1134.1461633350864 78.42967038834765,1181.3631671934459 18.06169268095755,1224.8373395721328 -47.037138143984635,1263.951884610428 -116.47104619472822,1298.1086873183754 -189.7670213059647,1326.737195135292 -266.3756361324711,1349.3035577005742 -345.6728721005269,1365.3199286348142 -426.9629991853694,1374.3538246773237 -509.4825443885601,1376.0374298103147 -592.4053725849615,1370.07672516557 -674.8488911600911,1356.2603197004162 -755.8813766473507,1334.4678519871723 -834.5304075009574,1304.6778301199167 -909.792372321622,1266.974774833116 -980.6430074225677,1221.5555305680105 -1046.0489017344632,1168.7346105230522 -1104.9798908661444,1108.9484447789387 -1156.4222458451663,1042.7584054765566 -1199.392545853867,970.8524898092622 -1232.9521083595862,894.0455503120576 -1256.2218346298978,813.2779726106845 -1268.3973139507284,729.6127134317812 -1268.764016158864,644.230626244941 -1256.71238959592,558.4240183569551 -1231.7526705243679,473.58840152892844 -1193.529200651601,391.2124181319388 -1141.8340419143142,312.86594636187385 -1076.6196723030644,240.18641093598163 -998.0105434646248,174.86334980109314 -906.31328030192,118.62131247751267 -802.0253049729108,73.2011914967651 -685.8416727249719,40.34011469431482 -558.6599150182458,21.7500525939696 -421.58269649021724,19.095321451281336 -275.91810656276664,33.969188371565764 -123.1774239258466,67.8698099303414 34.92978725487717,122.17575953290175 196.50336680897848,198.1214209786027 359.46312431176557,296.7725459619501 521.5623419911175,419.0022911631342 680.4042431949838,565.4680657753717 833.4614198225015,736.5895324134029 978.098174858173,932.5281129892729 1111.595696934226,1153.1683559887392 1231.1799430387607,1398.1015223201496 1334.0520634874222,1666.611743253038 1417.4211605266223,1957.6650956671351 1478.5391289184902,2269.9019266864216 1514.7372840889327,2601.632741616082 1523.4644414490406,2950.8379458228724 1502.3260699022342,3315.1717027482573 1449.1241039220731,3691.9701366263394 1361.896962540838,4078.2640697667675 1238.959290748355,4470.796440597738 1078.940909787334,4866.044500256353 880.8244382625531,5260.246832648506 643.9810264604141,5649.435185936886 368.2036323831274,6029.4710427875 53.73726028817319,6396.086792921673 -298.69441850162497,6744.931305163977 -687.8666366284532,7071.61962789954 -1112.0358540060238,7371.786477378066 -1568.927372275516,7641.14310341098 -2055.7287495745154,7875.537052543018 -2569.0894867493475,8071.014280633907 -3105.1274097011797,8223.883000896396 -3659.442117722032,8330.778590771828 -4227.135804571341,8388.728822583564 -4802.841687895179,8395.218629697636 -5380.760203746776,8348.253572953883 -5954.703036894008,8246.42113241193 -6518.144964882718,8088.948917962646 -7064.283395173433,7875.758870031692 -7586.105370913083,7607.51650933879 -8076.461712990831,7285.674293300196 -8528.147855022786,6912.508146919574 -8933.9908149886,6491.146258556364 -9286.941633678656,6025.589266330801 -9580.17249727486,5520.721009543828 -9807.177650733369,4982.309081636981 -9961.877101685275,4416.9944970277 -10038.722012902372,3832.2698736004377 -10032.800586605334,3236.445635513621 -9939.943157664393,2638.6038569176985 -9756.825136702224,2048.539495602207 -9481.066379882312,1476.6889057383864 -9111.325511345409,934.0456698008987 -8647.387688371728,432.06395028130464 -8090.244279842798,-17.450269406164978 -7442.162926795373,-402.45950992602957 -6706.746471010581,-710.8259615501108 -5888.979274715852,-930.4525812877059 -4995.259512476287,-1049.4330281562495 -4033.416095887849,-1056.2091598362751 -3012.7089932125273,-939.734634262531 -1943.8118298252061,-689.6429860912659 -838.7758012189865,-296.4183830183346 289.0259019866515,248.43288676410884 1424.9737687029265,952.2122844267366 2553.298144209457,1820.862459256742 3657.196083518738,2858.806571747441 4718.96880999045,4068.7958984834836 5720.179446729192,5451.768173972659 6641.830413749636,7006.719155592344 7464.5595985038835,8730.589899989232 8168.854113961917,10618.172210636709 8735.2801601296,12662.034655107653 9144.727205062885,14852.471455544888 9378.664403720353,17177.476425718916 9419.40688123226,19622.74396222362 9250.389225382534,22171.698895446752 8856.443265474412,24805.556768058726 8224.076965556924,27503.415835439264 7341.751033563659,30242.381774734713 6200.149648599166,32997.725748636076 4792.441540695321,35743.07609851985 3114.5275250438585,38450.64354185925 1165.2705000215287,41091.47932387231 -1053.2961309330237,43635.76532681856 -3535.785655832273,46053.13467629936 -6273.304863461401,48313.02090696516 -9253.334359205395,50385.03326523701 -12459.646125187588,52239.355239544064 -15872.26184969014,53847.16292503938 -19467.455279895075,55181.05935606251 -23217.801522428705,56215.520482302854 -27092.275828188143,56927.34803048025 -31056.403952390014,57296.12408935153 -35072.46567939471,57304.66188901042 -39099.752547123455,56939.44692283373 -43094.88020113067,56191.06228901661 -47012.15515778836,55054.591915230325 -50803.995064610004,53529.99518107654 -54421.400819358096,51622.44637487866 -57814.478154929326,49342.63241964133 -60933.005521599705,46707.00238287901 -63727.0443102886,43737.96245092413 -66147.58666903105,40464.01030397713 -68147.23537944003,36919.80317638352 -69680.90949077779,33146.15432929205 -70706.56866698354,29189.953200770808 -71185.94849766766,25104.00513133326 -71085.29836898566,20946.78728913727 -70376.11289588362,16782.118236088478 -69035.84739493464,12678.739479610447 -67048.60743818099,8709.808339514677 -64405.80218411938,4952.302518366544 -61106.75094281883,1486.3378888340605 -57159.23230816927,-1605.5978068628904 -52579.96519067777,-4239.491423018258 -47395.011217379455,-6330.72585894594 -41640.0882385515,-7795.070026181324 -35360.78509999156,-8549.729584576771 -28612.668409196784,-8514.449421683521 -21461.272746863604,-7612.657600814135 -13981.966653003203,-5772.639298322672 -6259.687749076049,-2928.728107866715 1611.458458611838,977.4989728985519 9528.740218005782,5996.03752099547 17381.484265184787,12167.298125542771 25051.90470229201,19520.991486786086 32416.075345313555,28075.072935083666 39345.04303698149,37834.76351242338 45706.07749809224,48791.6649557875 51364.05129487327,60922.98591592891 56182.94145058614,74190.89652338428 60027.44214821758,88542.02796411903 62764.675881640906,103907.1330404201 64265.9883404737,120200.92276119054 64408.81028594313,137322.09282479572 63078.56771960892,155153.55242514404 60170.61979294262,173562.8661286405 55592.202183398134,192402.91764023734 49264.3521019623,211512.80210850853 41123.789728497875,230718.95122348846 31124.729724352554,249836.49275145438 19240.595575846422,268670.8433461005 5465.608905313262,287019.53049747145 -10183.774425290654,304674.23635400645 -27667.609575252354,321423.05290809623 -46921.41713808864,337052.93470409594 -67855.37375450884,351352.33184536675 -90353.76484741742,364113.98268235323 -114274.72387738607,375137.8421983613 -139450.28058785465,384234.118817359 -165686.7383714482,391226.38918466994 -192765.3981439553,395954.7574643287 -220443.6429675631,398279.0229046 -248456.39413223354,398081.8168949236 -276517.94550161937,395271.6685224688 -304324.17868141364,389785.95578304154 -331555.1570032027,381593.6981566255 -357878.09147135663,370698.1452677202 -382950.6667357316,357139.115857536 -406424.709876116,340995.0413385616 -427950.179368425,322384.6688173378 -447179.44610543374,301468.37968913896 -463771.8328294709,278449.08175388654 -477398.37286832737,253572.6352951065 -487746.7437198968,227127.77671535328 -494526.32588042255,199445.50713726884 -497473.33243277844,170897.91785630956 -496355.9503838644,141896.42965773103 -490979.4306438106,112889.42876643995 -481191.0599541281,84359.2885543594 -466884.94507592684,56818.773047094335 -448006.5372197127,30806.825701502174 -424556.82310866244,6883.754810164286 -396596.10828693723,-14374.164839929777 -364247.3183775247,-32380.645845884337 -327698.74501760997,-46545.860590731645 -287206.1652031153,-56283.38622005386 -243094.2657985926,-61017.56728319543 -195757.3090448621,-60191.23224993507 -145658.9800443243,-53273.691433254455 -93331.36343052077,-39768.93548860202 -39373.00372910953,-19223.945745248748 15553.987727107653,8762.979715792822 70727.80708903306,44533.98696042129 125371.83089724775,88363.62260434065 178660.4937515342,140451.09909120706 229726.16480083443,200912.98597464265 277667.00428292516,269776.4468851007 321555.76788975456,346973.1430972622 360449.51278072246,432333.92442703526 393400.14475230174,525584.4264864646 419465.7315522385,626341.6900297136 437722.49276690953,734111.9131679245 447277.3622897613,848289.4405656856 447281.00528583775,968157.0853254857 436941.15799940884,1092887.8691067884 415536.1459126547,1221548.2541222486 382428.42386177287,1353102.9270364258 337077.970963539,1486421.1795166687 279055.36381100625,1620284.91333073 208054.3435695494,1753398.2795550688 123903.68654610454,1884398.941780763 26578.183709137524,2011870.9323352452 -83791.4673130058,2134359.0486575756 -206910.05386425118,2250384.7142768786 -342310.7168050679,2358463.2055762494 -489349.4838295391,2457122.1219286183 -647201.6472953337,2544920.9531381186 -814860.1554059336,2620471.5747008463 -991136.1718540833,2682459.478519815 -1174661.942455632,2729665.5246910295 -1363896.0878898087,2760987.9791523586 -1557131.419467007,2775464.5826936094 -1752505.349958282,2772294.3794074208 -1948012.9440711616,2750859.017458306 -2141522.6233139643,2710743.2223992567 -2330794.507966735,2651754.1335002957 -2513501.34492313,2573939.186985372 -2687251.9345774953,2477602.2269993075 -2849616.9330382696,2363317.525817362 -2998156.8681239886,2231941.399509585 -3130452.169250092,2084621.1141909647 -3244134.9728855495,1922800.7912980914 -3336922.427220191,1748224.0381617178 -3406651.182536383,1562933.0525736404 -3451312.718044264,1369263.9771046606 -3469089.1221566726,1169838.3105912688 -3458388.91189984,967550.22038687 -3417882.448935424,765549.6395212132 -3346536.4850643333,567221.0776173264 -3243647.3496415187,376158.12300134526 -3108872.2755867518,196133.66556213543 -2942258.350139582,31065.92516395795 -2744268.5716571775,-115019.57169288116 -2515804.495032842,-238031.86427279838 -2258224.9561154325,-333860.01488341973 -1973360.3801750713,-398421.82452174893 -1663522.2012661174,-427715.4179379899 -1331506.9484912644,-417873.2473825405 -980594.5917999536,-365218.0039851569 -614540.7841055597,-266319.8677154006 -237562.68813336312,-118054.47206687025 145681.86462640556,82339.09111001015 530122.0694312595,337200.9469259234 910308.8120349069,648394.5530477302 1280456.3353487062,1017253.0487370087 1634490.8588709526,1444528.6558854284 1966106.0108584152,1930345.967506274 2268824.8390552835,2474159.9667878943 2536068.068241452,3074719.6174865873 2761228.1729011955,3730037.8534946246 2937748.732026772,4437368.771313523 3059208.431630914,5193192.793446145 3119408.9801986213,5993210.523059643 3112466.1043847133,6832345.950458498 3032902.6981384857,7704759.599873577 2875743.1095365365,8603872.120893754 2636607.4673850806,9522398.732780678 2311804.8755842787,10452394.822307777 1898424.238795833,11385312.877220444 1394421.4295683438,12312070.808668924 798701.4661570061,13223131.577935074 111194.34316960617,14108593.89655586 -667076.8548583877,14958293.61580877 -1533936.9226510015,15761915.26291306 -2486009.930357187,16509113.018816635 -3518682.3512756573,17189640.267849453 -4626079.167203188,17793486.68473315 -5801054.119534456,18311021.661482055 -7035195.176555119,18733142.717760686 -8318846.169826784,19051427.385526754 -9641145.41529349,19258286.91459705 -10990081.978132466,19347120.01249953 -12352570.06507947,19312464.712003715 -13714541.834910767,19150146.355438255 -15061058.70817084,18857419.598655164 -16376441.032600112,18433102.27157165 -17644415.722821925,17877698.888784375 -18848281.243770096,17193511.58486425 -19971089.0494226,16384736.256475544 -20995840.324273925,15457541.729097521 -21905696.607493117,14420129.831304999 -22684202.611986116,13282774.35544331 -23315519.28591741,12057837.010988057 -23784664.906150844,10759758.636432737 -24077761.74518773,9405024.127364859 -24182285.619288206,8012099.76225105 -24087315.409395207,6601341.862710006 -23783779.452131223,5194876.010641811 -23264695.529372983,3816446.358978849 -22525401.045543242,2491234.9140465306 -21563769.875492997,1245651.0331233132 -20380412.296226755,107091.76785436444 -18978854.386057872,-896325.910677227 -17365693.288127188,-1736059.550010501 -15550724.794282747,-2383460.4328853963 -13547039.81243328,-2810115.253004095 -11371086.437535394,-2988207.4956441172 -9042694.554750795,-2890895.3389204107 -6585060.163852334,-2492702.472433951 -4024686.926927769,-1769917.8277350254 -1391282.8064400968,-700999.8355962205 1282389.923299892,733019.5252146216 3960712.5429684916,2548135.937838143 6605456.373135098,4756984.539223045 9176078.061540086,7368467.8425584 11630063.262092968,10387405.510069078 13923317.665232992,13814211.807620736 16010603.680352854,17644606.6191406 17846020.389044467,21869365.875426084 19383523.689926744,26474117.154088706 20577482.849367607,31439186.031402018 21383268.965736277,36739498.50964119 21757870.156697925,42344544.50288741 21660527.598740887,48218406.93886081 21053385.895269934,54319860.52376547 19902150.634163555,60602543.62202078 18176745.42784372,67015206.02486033 15851960.218891278,73502034.62398592 12908082.192283027,80003058.17286214 9331500.27147461,86454631.41409494 5115273.899572849,92789997.8832047 259656.62804476527,98939929.67472234 -5227435.037466958,104833441.38489284 -11330017.043610591,110398574.33651675 -18023706.79538269,115563246.05693503 -25275474.819878075,120256158.83221038 -33043487.72457906,124407760.01260397 -41277050.53014133,127951245.61074695 -49916655.762915365,130823597.6295237 -58894145.85936481,132966644.4973318 -68132994.46414542,134328132.9902443 -77548711.09880467,134862799.1001998 -87049372.44358094,134533424.482343 -96536282.11728948,133311864.39961605 -105904759.36845098,131180032.49502575 -115045055.51526757,128130827.27746803 -123843395.30546784,124168984.9207544 -132183138.62403898,119311842.86168012 -139946056.17402294,113589998.75458516 -147013710.9112733,107047849.60840128 -153268935.14856163,99743996.4075312 -158597391.37940878,91751500.2079567 -162889203.03079945,83157976.61057475 -166040639.56097052,74065516.64831787 -167955838.5993064,64590423.483033285 -168548546.20633817,54862755.8905135 -167743854.83981794,45025671.31275929 -165479917.27482486,35234563.26770171 -161709613.5688907,25655990.117325194 -156402147.21367505,16466394.591259394 -149544545.8985172,7850616.02706673 -141143041.85274568,200.00000017285063" stroke="white" stroke-width="1.5" /></svg>