<?xml version="1.0" encoding="utf-8" ?>
<svg baseProfile="full" height="400" version="1.1" width="400" xmlns="http://www.w3.org/2000/svg" xmlns:ev="http://www.w3.org/2001/xml-events" xmlns:xlink="http://www.w3.org/1999/xlink"><defs /><rect fill="black" height="100%" width="100%" x="0" y="0" /><circle cx="200" cy="200" fill="yellow" r="20" stroke="orange" stroke-width="2" /><polyline fill="none" points="199.0207299459691,200.0 199.05121399894315,199.95019306907642 199.0898000205052,199.90417324134629 199.1363614213546,199.8629809185853 199.19065768398727,199.82767318732948 199.25232951900819,199.79931201838752 199.32089516783046,199.77895162290434 199.39574797431376,199.76762506603134 199.47615534031056,199.76633025527323 199.56125917056326,199.77601543620773 199.65007790092366,199.79756434330113 199.74151019045286,199.83178116773541 199.83434034264874,199.87937551729314 199.9272455038987,199.9409475551789 200.01880466835738,200.0169735149569 200.10750949792438,200.1077917973213 200.191776943987,200.21358986096692 200.26996363427622,200.33439212417707 200.34038196375985,200.4700490956911 200.40131780319786,200.6202279527722 200.4510497130636,200.78440478099887 200.48786952427605,200.96185868401378 200.51010412089246,201.1516679621584 200.5161382339055,201.35270854652236 200.5044380299154,201.56365485938488 200.4735752540637,201.7829832533064 200.42225166359185,202.00897815926166 200.34932346710238,202.23974104925247 200.2538254654301,202.47320229090366 200.1349945733646,202.70713594077466 199.9922923876666,202.93917748970844 199.82542645626506,203.16684453772473 199.634369896547,203.387560338031 199.419379007594,203.5986801100041 199.18100852237032,203.79751997986008 198.92012415150228,203.98138836559784 198.63791208063012,204.14761958013105 198.33588509855642,204.2936093838066 198.01588505368971,204.4168521752754 197.6800813616798,204.51497946849145 197.3309653176857,204.58579926404659 196.97134000237364,204.62733588570796 196.60430561141095,204.63786981851976 196.23324008373038,204.6159770537855 195.8617749539466,204.5605674192763 195.49376640869895,204.4709213507238 195.13326158497833,204.34672454364528 194.78446021021057,204.1880999133765 194.45167174847543,203.99563628638685 194.13926828412548,203.77041324800655 193.85163344255912,203.51402158104113 193.59310771724762,203.22857874675586 193.367930641513,202.91673888468566 193.18018031214407,202.58169684088296 193.0337108388118,202.2271857756986 192.93208835745565,201.85746795203482 192.87852630638673,201.4773183631592 192.87582071978684,201.09200092545427 192.92628634357524,200.70723703562112 193.03169442225987,200.3291663734601 193.19321304139908,199.96429991990246 193.41135093771516,199.61946525482605 193.6859057068045,199.30174429960246 194.01591734592265,199.01840377440686 194.39962806569432,198.7768187490928 194.8344492891116,198.58438977777274 195.31693672822968,198.44845421995097 195.8427743880674,198.376192463807 196.4067682930076,198.37452987863404 197.00285066325324,198.45003543201673 197.62409518756738,198.60881801154787 198.26274394370807,198.85642158914555 198.91024640994195,199.19772045672042 199.55731089023726,199.63681584341876 200.19396854285253,200.17693529530544 200.80965005788673,200.82033625654157 201.3932748749863,201.56821533530194 201.9333526690437,202.42062476637656 202.4180966608045,203.37639759421484 202.8355481324458,204.4330830938258 203.1737113471974,205.58689392129895 203.4206978889268,206.8326664397933 203.5648792544313,208.16383559986076 203.59504635025135,209.57242566435744 203.5005743695439,211.04905795759498 203.27159135543218,212.58297668570896 202.89914859786663,214.162093720633 202.37539086402302,215.7730530640318 201.69372433028585,217.4013155108097 200.84897996956812,219.031263815438 199.8375700537055,220.64632842971244 198.6576353594647,222.22913362935276 197.30918062073465,223.76166358111067 195.79419575098578,225.2254476240893 194.11676037115984,226.60176375143556 192.28312922063105,227.87185898438617 190.30179610433237,229.01718503303803 188.1835341388416,230.01964734065382 185.94141020509588,230.86186531450227 183.5907716960046,231.5274412600822 181.14920386370827,232.0012352611579 178.63645632328908,232.26964298954516 176.07433755663027,232.3208731903111 173.48657658060526,232.14522137430717 170.8986512961211,231.73533606504665 168.3375834164891,231.08647379509395 165.83170028238547,230.19673893246065 163.410364303003,229.06730434391608 161.10367121508537,227.7026088732876 158.94211881907032,226.11052763210176 156.9562483297729,224.3025111702874 155.17626096267207,222.29368971867135 153.63161286027622,220.1029388746944 152.35059194020604,217.75290333965836 151.35988071118513,215.26997561076593 150.68410954845808,212.6842268844499 150.34540533942186,210.02928783852659 150.36294079650654,207.34217742829483 150.75249008055408,204.6630783538206 151.5259966771336,202.03505842944585 152.69115971352372,199.50373770836669 154.2510450888274,197.11690188041993 156.203727907507,194.92406316463402 158.54197275158975,192.9759706534439 161.25295829345782,191.32407282572981 164.31805263466993,190.01993572323005 167.71264555254754,189.1146210708714 171.40604354198865,188.65802940695986 175.36143315273296,188.69821406416605 179.53591764070012,189.28067259648765 183.88063137571143,190.44762297010325 188.3409357777235,192.2372725161471 192.85669979169188,194.68308826961578 197.36266706067724,197.81307787946767 201.78891102245737,201.6490907591381 206.06137814272205,206.20614954301075 210.10251841528446,211.49182221204637 213.8320011153922,217.5056454404595 217.16751259626048,224.23860978541362 220.02563168280972,231.6727172843519 222.32277695294738,239.78062183198392 223.97621891946983,248.5253623744315 224.90514884975602,257.8601984762769 225.0317947018346,267.72855718336507 224.28257343095532,278.0640993179566 222.58926774799457,288.7909124027076 219.89021430792977,299.8238363173712 216.1314892916136,311.0689265504362 211.2680764356942,322.42405852262607 205.2650017822044,333.7796749378672 198.098418779199,345.0196764698378 189.75662688441025,356.02245433055487 180.24100652193846,366.66206140593465 169.5668531331533,376.80951669831785 157.76409316152007,386.3342358062249 144.87786512965806,395.10557811773833 130.96894951636492,402.99449931849654 116.1140319302042,409.87529574272486 100.40578511080149,415.6274250519657 83.95275657279142,420.13738573858876 66.87905024113374,423.3006360482376 49.323792207934815,425.0235311264348 31.440372764385387,425.22525554954746 13.395459118003856,423.8397269292787 -4.632224317407577,420.8174450127685 -22.45334848987423,416.127259666687 -39.869662699455915,409.75803036187557 -56.67590254617261,401.7201492922512 -72.66191420804392,392.0469000932678 -87.61498315394067,380.79562429428495 -101.32235205740545,368.04866816632585 -113.57390930502612,353.91408352927306 -124.16502612599629,338.5260573744941 -132.89951705046434,322.04504685022937 -139.5926951776321,304.65759825350005 -144.0744906466507,286.57583117487025 -146.19259780190254,268.036571847197 -145.81561387780977,249.30012304732227 -142.8361296458034,230.6486615758093 -137.1737304161852,212.38425837389116 -128.77786411807068,194.82652070261832 -117.63053193770259,178.30986047459933 -103.74875622317148,163.18039775582812 -87.18678010312203,149.79251360006833 -68.03795355588642,138.50507169173008 -46.436261536860684,129.67733370030663 -22.55745125399372,123.66459873034316 3.3802822035168845,120.81360272100109 31.116089913756554,121.45771903979241 60.34677745547893,125.91200675360228 90.72765805127769,134.46815807134635 121.87397630955076,147.38940115896622 153.36292298017304,164.9054188499782 184.73625515076753,187.20734763398852 215.50352974176778,214.44292462242902 245.14595105198168,246.71185288766665 273.12082551446406,284.0614575735366 298.86660880711275,326.4827064107851 321.8085220948712,373.9066686731911 341.36470554125344,426.20148611846184 356.9528684053844,483.1699280186111 367.9973861343931,544.5475999518715 373.93678597492544,610.0018725660084 374.2315538736443,679.1315920052853 368.3721869326298,751.4676281058889 355.8874075540848,826.474309805037 336.3524477758037,903.5517894885425 309.39730529282093,982.0393692450951 274.7148664106503,1061.2198122425966 232.06878580994402,1140.3246517471161 181.30100864722849,1218.540498738391 122.33881729344887,1295.0163367228292 55.201283037302574,1368.8717793065846 -19.994997538073846,1439.2062524839153 -103.03100096006278,1505.1090495507908 -193.58132712980944,1565.6701922159557 -291.2113145265599,1619.9920170103574 -395.37532776781893,1667.2013916617593 -505.4163175564936,1706.462451886973 -620.5667439237487,1736.9897352506466 -739.9509428122251,1758.0615755463475 -862.589003457017,1769.0336087778426 -987.402209752559,1769.3522304644894 -1113.2200829071649,1758.567833874365 -1238.7890452728038,1736.3476501108032 -1362.7827064100593,1702.4880039468567 -1483.8137523466169,1656.9257941156052 -1600.4473977769342,1599.7490036104268 -1711.216338820535,1531.2060446034966 -1814.6371211200922,1451.71374401276 -1909.227814755564,1361.863779678202 -1993.5268639348674,1262.4273836665607 -2066.112955974043,1154.3581385042044 -2125.625730996446,1038.7927042075248 -2170.7871313728556,917.0493288755093 -2200.4231685166687,790.6240133342575 -2213.4858645737145,661.1842208469959 -2209.0751081436897,530.5600461577867 -2186.460146780914,400.73278401631444 -2145.1004249845587,273.8208656886514 -2084.6654650349137,152.06316260788293 -2005.0534796838629,37.799689031487645 -1906.4084006692483,-66.55022991987806 -1789.1350055791172,-158.51222247351444 -1653.9118280012492,-235.58342716537595 -1501.7015423842545,-295.2611651661821 -1333.7585258014099,-335.07351237382284 -1151.6333139996957,-352.6115175800162 -957.173688841561,-345.56277553029076 -752.5221585642834,-311.74602731840037 -540.1096211962946,-249.1464258161119 -322.64503492978497,-155.95107127880345 -103.10095714245551,-30.58439243750979 115.30514408577434,128.25707815707364 329.1338559425443,321.5710084834252 534.751064432814,550.0171433717594 728.3594223710827,813.8872585220505 906.0339325426131,1113.077705989822 1063.7614782231392,1447.0650671111448 1197.484072875697,1814.8854247667325 1303.1455392668574,2215.117756173563 1376.7412661479345,2645.871929729538 1414.3706287673463,3104.781764576543 1412.2915986026433,3589.003579317312 1366.9770086490012,4095.2206166286883 1275.171884232231,4619.653683352988 1133.951196509528,5158.0782911055285 940.7773474756192,5705.84852069556 693.5566523060661,6257.927765004847 390.6940481366074,6808.926429794437 31.145228773523797,7353.146590714251 -385.5346167992335,7884.633518179248 -859.1462971019723,8397.233890463987 -1388.807180342027,8884.660420176147 -1972.9176575303622,9340.562521124031 -2609.1343202835483,9758.602542514769 -3294.3506380747076,10132.53699652569 -4024.6858790072383,10456.302104782708 -4795.482965513306,10724.102890428763 -5601.315891581875,10930.504946619383 -6436.007251188828,11070.52792082889 -7292.656338680855,11139.739668725255 -8163.678181258663,11134.349953029461 -9040.853751881372,11051.302493176889 -9915.391488513616,10888.364112197161 -10778.00011347461,10644.209679447205 -11618.97260571302,10318.501513040559 -12428.281030290249,9911.961885319359 -13195.681774546038,9426.437269726131 -13910.830580849184,8864.952979048954 -14563.406603169906,8231.756874207673 -15143.244550765741,7532.35087033024 -15640.473819001754,6773.509033480004 -16045.663346807904,5963.281147481611 -16349.970784689358,5110.980736087919 -16545.294408817754,4227.1566512381905 -16624.426077871307,3323.547483137341 -16581.20340232229,2413.0182118371736 -16410.659183170672,1509.4787021556056 -16109.166081049683,627.7838430813472 -15674.574399490064,-216.38465205066075 -15106.340810154294,-1006.6545389805267 -14405.645815154929,-1726.1169422514422 -13575.497734114013,-2357.4971221722276 -12620.821023193223,-2883.3411104852353 -11548.526781487266,-3286.2169517950165 -10367.563378246645,-3548.9290213952804 -9088.94524341108,-3654.743624891874 -7725.758004605009,-3587.623824335895 -6293.138326448861,-3332.4711830018414 -4808.227012761781,-2875.3718801556165 -3290.09416858056,-2203.8444219414637 -1759.6354860665706,-1307.085968719555 -239.43901506115077,-176.21411666831023 1246.3778964335718,1195.4991839430832 2672.361456400259,2812.405015957609 4011.943668941452,4676.269720231474 5237.6931586624905,6786.085542630005 6321.593368095721,9137.903298598661 7235.346495132311,11724.690617892269 7950.701107658723,14536.219252632623 8439.800939697046,17558.984803807092 8675.551942497994,20776.162042954973 8632.004240729795,24167.598775964292 8284.745233915515,27709.85091403097 7611.299692588241,31376.26108293618 6591.532333411661,35137.08271654803 5208.04802400002,38959.65114519983 3446.5844726399,42808.602706407844 1296.3920067868712,46646.14237706869 -1249.4051568316124,50432.35985636579 -4193.471892557863,54125.59342142202 -7533.955221807415,57682.840238329416 -11264.213286219414,61060.211145335306 -15372.58602414781,64213.427239221404 -19842.213205709926,67098.35489743625 -24650.905271521726,69671.5751651991 -29771.072128359934,71890.98273699118 -35169.71467945439,73716.40907453765 -40808.4834070017,75110.26353795399 -46643.807779859235,76038.18577291367 -52627.09963134335,76469.70200450407 -58705.03294284919,76378.87734803135 -64819.90168200874,75744.95576859122 -70910.05648389757,74552.97891485543 -76910.42003618767,72794.37472811829 -82753.08004114134,70467.50649471322 -88367.95758720482,67578.17287748943 -93683.54768013765,64140.0494385054 -98627.727568711,60175.06225803069 -103128.62736474861,55713.684471000626 -107115.55631444063,50795.1468868045 -110519.97694111937,45467.55433602088 -113276.51816361588,39787.90000142471 -115324.01741418897,33821.970741747384 -116606.58075165651,27644.137305132816 -117074.64900505335,21337.024353137098 -116686.05710736579,14991.056371830726 -115407.07300424068,8703.876828482207 -113213.4018654099,2579.6393329848916 -110091.14080298277,-3271.8289268650065 -106037.66892619443,-8735.989599375422 -101062.45735128298,-13694.677863274717 -95187.78375150471,-18027.304072289964 -88449.33618817662,-21612.16520720082 -80896.6913197966,-24327.857147263432 -72593.65265173724,-26054.776915773073 -63618.435270720125,-26676.702207916172 -54063.68451100021,-26082.43369662284 -44036.31722527008,-24167.483858708827 -33657.175782434606,-20835.794394956374 -23060.486583511836,-16001.462760358334 -12393.116769967279,-9590.456901365837 -1813.624886685075,-1542.2960425380063 8508.896457736455,8188.325697859206 18396.18543306742,19629.996928960994 27662.38021558971,32793.15251324195 36115.78673348479,47668.76800138888 43560.836196770375,64227.21002767786 49800.220731998066,82417.26745645878 54637.19244271762,102165.38748357538 57878.00819917795,123375.13996935812 59334.49946123632,145926.93200108927 58826.74349545241,169677.9930447931 56185.80950127914,194462.6490452386 51256.55045401391,220092.90146971343 43900.40894672264,246359.3245705941 33998.20301327585,273032.2910738864 21452.855883659282,299863.5331006708 6192.031904124455,326588.0414158106 -11829.36050917701,352926.30209859274 -32626.838982950416,378586.8654737441 -56184.23100037166,403269.2376642573 -82451.81211497495,426667.08047056623 -111344.73882727929,448471.700489721 -142741.81541959243,468375.8035139993 -176484.63252385412,486077.4853458358 -212377.11310509502,501284.42529420025 -250185.49886685083,513718.24383930134 -289638.8068188444,523118.9813333646 -330429.7818925702,529249.6502134188 -372216.3670556448,531900.8091074048 -414623.7073771891,530895.1034882494 -457246.69895855157,526091.7142429176 -499653.0875991254,517390.6527451801 -541387.1155571649,504736.83882048615 -581973.7078400175,488123.896435139 -620923.1821757263,467597.601092341 -657736.4592448113,443258.91283253144 -691910.7419622258,415266.5294670406 -722945.624677406,383838.89626808907 -750349.5851945243,349255.6108323895 -773646.8046017912,311858.16525944526 -792384.2521398952,272049.97215870424 -806138.9648422064,230295.6263311835 -814525.4445540452,187119.360258915 -817203.0882987529,143102.65876544215 -813883.5619194731,98881.00635569892 -804338.0216029697,55139.74976398554 -788404.08339965,12609.06808079504 -765992.4373036193,-27941.94657447481 -737092.9999554378,-65712.08359863496 -701780.4986796698,-99875.65758426368 -660219.3794630606,-129590.96273407296 -612667.932702038,-154009.48694680224 -559481.533174003,-172285.82163461368 -501114.8947767723,-183588.1903880122 -438123.2461818171,-187109.5067496775 -371162.34069123777,-182078.8587591882 -300987.22228987847,-167773.30576022613 -228449.68013924916,-143529.86140064246 -154494.33554473158,-108757.52598833987 -80153.31869845923,-62949.22157940103 -6539.507191219213,-5693.47455668491 65161.68568965879,63314.316807299656 133701.96761334775,144261.19803902693 197781.24521047366,237206.72966059664 256060.0805602289,342073.98829824466 307173.46326158755,458641.67222843086 349745.81460301514,586537.4838463657 382407.11941695184,725232.9572188412 403810.06017422624,874039.8921790728 412648.0069941078,1032108.5472598015 407673.6967878482,1198427.7320915777 387718.4150000611,1371826.9256932472 351711.4746559621,1550980.5303581888 298699.76996352966,1734414.3516319934 227867.16586211187,1920514.3732576189 138553.47095736078,2107537.872039867 30272.72953788879,2293626.8914957237 -97269.44087438371,2476824.065090598 -244159.746448144,2655090.750028899 -410262.6318583995,2826327.401223934 -595207.4965240099,2988396.0825054147 -798377.9923906332,3139144.9786561653 -1018903.6762631024,3276434.7378585907 -1255654.2786997978,3398166.4399636355 -1507236.8364943718,3502310.9520841236 -1771995.9167068664,3586939.399799847 -2048017.1370306753,3650254.4502035347 -2333134.1600070205,3690622.072591239 -2624939.307289253,3706603.4142951886 -2920797.9049346778,3696986.403466244 -3217866.4317380097,3660816.6680317367 -3513114.500151807,3597427.3410710813 -3803350.6536592757,3506467.307944087 -4085251.915926965,3387927.4401336024 -4355396.976081091,3242164.35535737 -4610302.841492322,3069921.2434641197 -4846464.735046614,2872345.303316031 -5060398.958603279,2651001.347585982 -5248688.388825923,2407881.1504227403 -5408030.216492001,2145408.1374579435 -5535285.486456106,1866437.0487750373 -5627529.943409437,1574248.2432890432 -5682105.639217563,1272536.3574740621 -5696672.711723037,965393.0824149853 -5669260.703272305,657283.8805555062 -5598318.750671522,353018.5269769585 -5482763.947587065,57715.42919031418 -5322027.156359462,-223240.246225038 -5116095.529537046,-484244.5328211883 -4865550.992861173,-719528.5190693482 -4571603.941595129,-923217.8223585484 -4236121.411568186,-1089397.3173714324 -3861649.0056106853,-1212180.6641587745 -3451425.885602694,-1285784.0910273825 -3009392.180467213,-1304603.7978844934 -2540188.211316947,-1263296.2581079272 -2049144.9966997546,-1156860.6125515096 -1542265.573441392,-980722.2692088984 -1026196.7517772862,-730816.7476352295 -508191.01697489765,-403672.7397697236 3941.6069969275063,3506.700380406729 501891.8036218973,492765.97535348526 976919.2706751768,1065322.9471008067 1419930.9101050277,1721500.3268332426 1821568.5884126453,2460663.6681737546 2172306.0149343717,3281167.1793254935 2462554.141627753,4180308.5541852503 2682774.3419460775,5154293.990569662 2823598.4798237258,6198214.515301834 2875954.8344733035,7306034.670317027 2831198.704505368,8470594.530849127 2681246.3778026784,9683625.926023593 2418711.0236594286,10935783.613872562 2037038.9430277878,12216692.027201401 1530644.503420663,13515008.054403825 895041.989221647,14818500.151016366 126972.5179464899,16114143.894548317 -775475.8895730558,17388233.898196384 -1812757.0400929025,18626511.78999304 -2983766.076499325,19814309.7445257 -4285751.7389404,20936708.82664312 -5714243.327220964,21978711.172807746 -7262994.260862361,22925424.798465364 -8923944.05386449,23762259.581697237 -10687200.413928442,24475132.73741056 -12541043.040165981,25050681.865476213 -14471950.528922316,25476483.433765963 -16464651.604395403,25741274.346298654 -18502201.66973727,25835174.051084295 -20566085.426139854,25749904.465201423 -22636346.03331031,25479004.839608435 -24691740.986396447,25018038.55656752 -26709924.56392681,24364788.75167563 -28667656.361179452,23519439.583523914 -30541035.06650991,22484739.939940587 -32305756.267863225,21266146.37338183 -33937392.69668584,19871942.101786472 -35411694.93080835,18313328.997261148 -36704910.19101662,16604489.615066841 -37794116.482692614,14762616.490869774 -38657568.95910163,12807906.15596044 -39275055.021849506,10763515.588465327 -39628254.3321586,8655479.13326685 -39701099.58944419,6512584.283593996 -39480133.64681767,4366205.121620808 -38954858.28219376,2250092.6618365953 -38118069.7341744,200121.8266955488 -36966175.94918637,-1746004.6942985137 -35499490.37564046,-3549094.897444851 -33722497.087004215,-5168846.844469617 -31644082.023121327,-6564266.981556146 -29277725.2118772,-7694124.792599736 -26641648.974882994,-8517440.554709353 -23758917.334061097,-8994002.335398788 -20657482.12302541,-9084907.748247217 -17370171.669322062,-8753125.37520522 -13934618.351463305,-7964070.177689512 -10393121.847871732,-6686186.663949875 -6792445.482010836,-4891533.065906169 -3183543.7267727517,-2556359.313843953 378780.3417930573,338328.8088824001 3836288.0605460457,3806227.287679985 7127788.235289813,7855221.494029224 10189688.906460045,12486912.194973521 12956615.549885597,17696188.436692838 15362092.458820619,23470855.769481447 17339283.04910256,29791328.160564486 18821783.810642395,36630391.70839226 19744465.60720784,43953047.9227397 20044355.015153326,51716443.86566031 19661547.403624363,59869895.85689797 18540142.507665813,68355012.73292649 16629192.345901899,77105923.81200817 13883650.500667486,86049615.76077397 10265311.02543721,95106381.48466106 5743724.586906286,104190382.98069087 297078.9016962387,113210328.8038263 -6086969.895423414,122070265.41661413 -13410528.600103341,130670480.22685108 -21664774.78660674,138908512.58228397 -30829354.910558194,146680267.3991793 -40871886.22031079,153881224.46905127 -51747575.64809153,160407734.8325045 -63398968.27967451,166158393.95008567 -75755837.23391552,171035479.75766656 -88735225.81747353,174946442.08972037 -102241651.65421025,177805428.41043985 -116167481.12420166,179534829.33324152 -130393480.88767418,180066826.05758026 -144789551.5208605,179344920.6322335 -159215646.3628229,177325428.8902444 -173522876.57671964,173978915.01628643 -187554801.18059453,169291546.02529624 -201148898.41932055,163266343.9739039 -214138212.35139355,155924313.51416913 -226353165.93532166,147305422.45152768 -237623529.24641746,137469413.30264875 -247780528.7646227,126496424.47887474 -256659080.97856158,114487400.65900658 -264100130.88354236,101564273.1704033 -269953073.3467292,87869892.7752944 -274078232.80788237,73567699.16187209 -276349374.4166365,58841113.66517219 -276656217.5160324,43892644.284951426 -274906920.405904,28942694.91628219 -271030503.5978085,14228073.848508812 -264979177.34385186,200.00000032450615" stroke="white" stroke-width="1.5" /><circle cx="249.92582360940372" cy="197.27747600144508" fill="red" opacity="0.7" r="13.414709848078965" /></svg>