<?xml version="1.0" encoding="utf-8" ?>
<svg baseProfile="full" height="400" version="1.1" width="400" xmlns="http://www.w3.org/2000/svg" xmlns:ev="http://www.w3.org/2001/xml-events" xmlns:xlink="http://www.w3.org/1999/xlink"><defs /><rect fill="black" height="100%" width="100%" x="0" y="0" /><circle cx="200" cy="200" fill="yellow" r="10.00000001785982" stroke="orange" stroke-width="2" /><polyline fill="none" points="200.95265854793712,200.0 200.92013263503594,200.0483027600984 200.87956839195417,200.09260183466716 200.83111613841945,200.13185929004442 200.77504045544228,200.16502319072487 200.711724746373,200.19103951064614 200.64167463183145,200.20886486043202 200.56552005838947,200.21747992665306 200.48401600884998,200.2159035033376 200.39804171185844,200.203206980568 200.3085982604099,200.17852914024897 200.21680456255916,200.141091095263 200.12389156326157,200.09021119546617 200.03119469369733,200.02531971255368 199.94014452356828,199.94597310597783 199.8522556125795,199.85186766405147 199.76911357947588,199.74285230834505 199.69236043041812,199.6189403456906 199.62367821294572,199.48031995074058 199.56477108705155,199.32736316327285 199.51734593072516,199.16063318844334 199.4830916234242,198.98088979510112 199.46365717700064,198.78909261720673 199.46062890931148,198.586402176408 199.4755068807413,198.3741784599779 199.50968083779588,198.15397690761176 199.5644059304235,197.927541682988 199.64077849040882,197.69679613144908 199.73971217668284,197.4638303535406 199.86191480932646,197.2308858553042 200.00786622704314,197.00033726995034 200.1777975125816,196.7746711815908 200.371671936658,196.5564621198 200.58916797304389,196.34834583355553 200.82966473535657,196.15298999420537 201.09223017945575,195.9730625190947 201.37561240399765,195.81119774989912 201.67823436544538,195.66996076205305 201.9981923025614,195.55181012340066 202.3332581390402,195.45905946077275 202.68088610146262,195.39383823202328 203.03822375322045,195.35805213754415 203.40212760358344,195.35334363880463 203.76918340484775,195.38105308141945 204.13573119976996,195.442180946021 204.49789512658683,195.53735177120112 204.85161793024682,195.6667803084092 205.19270006651828,195.8302404783967 205.5168432209371,196.0270377020634 205.81969799773708,196.25598517491753 206.09691546565946,196.51538464339245 206.34420217861438,196.80301222261267 206.557378220383,197.11610976858884 206.7324377547653,197.45138228304344 206.86561149670877,197.8050017860105 206.95343045694284,198.17261803999793 206.9927902534703,198.54937644992816 206.98101522892102,198.92994339547784 206.9159215642561,199.30853917711948 206.79587853761686,199.67897867455056 206.61986704321475,200.03471972681314 206.38753446000504,200.36891914792392 206.0992449443717,200.67449619102428 205.7561242160162,200.94420316882434 205.36009791245192,201.1707028294632 204.91392260563336,201.34665197596556 204.42120860487017,201.46479070546695 203.88643371374553,201.51803653262897 203.3149471656,201.49958255157992 202.71296303244026,201.4029986837743 202.08754248591225,201.2223349569111 201.44656438610062,200.9522256640662 200.79868378406852,200.58799316409974 200.1532780467334,200.12575000581137 199.52038044720027,199.56249799085512 198.91060120916399,198.89622273567434 198.33503614936916,198.12598225220395 197.80516322611186,197.25198804227705 197.3327274729161,196.2756771929187 196.92961497317322,195.19977397025488 196.607716711861,194.0283394397024 196.37878332246862,192.76680769035968 196.25427192878846,191.42200731283037 196.24518646000803,190.00216687259595 196.36191299113537,188.5169032358093 196.6140518267137,186.9771917410351 197.01024820144605,185.39531736879255 197.55802361413785,183.78480624023177 198.26360993863221,182.16033697609117 199.1317885645394,180.5376316661083 200.16573690897522,178.93332643585586 201.36688470573554,177.36482185079188 202.73478251798065,175.85011366407633 204.26698493237913,174.40760469302967 205.95895087475859,173.05589889630426 207.80396343785648,171.81357901693045 209.7930715292639,170.69896945213026 211.9150555309194,169.72988630566374 214.15641900969754,168.92337686875908 216.5014083312894,168.2954510574586 218.93206180664063,167.86080760341457 221.42828974208288,167.6325580475979 223.967986471827,167.6219518177777 226.52717512601467,167.83810587670152 229.08018553088974,168.28774260439403 231.59986525220205,168.97493972072067 234.0578233815592,169.90089615929543 236.4247062314746,171.0637178671089 238.67050365221462,172.45822752234088 240.7648842165985,174.07580213244648 242.6775570425067,175.9042423928977 244.37865754230185,177.92767755150152 245.83915390935445,180.12650933208735 247.03127068046595,182.47739822320824 247.9289252555596,184.95329513159896 248.5081728191973,187.5235210364215 248.7476546990904,190.1538968594495 248.62904482173568,192.80692528971264 248.13748859159074,195.4420257709294 247.2620282347222,198.01582327931212 245.99600841740414,200.48249089187104 244.33745578125811,202.79414547584983 242.2894259354423,204.90129512390592 239.86031141890695,206.75333622344522 237.06410419711602,208.29909728926341 233.9206063925268,209.4874259142414 230.45558317044157,210.26781441190533 226.70085201468356,210.59105894647217 222.69430303307894,210.40994618042302 218.47984543210782,209.6799607270464 214.10727589339376,208.36000598655073 209.6320652708468,206.41313028033633 205.1150608039368,203.8072495901053 200.62210190615943,200.51585766799496 196.22354853333505,196.51871382207946 191.99372215769625,191.80249830941636 188.01026046311853,186.36142499694665 184.35338802536106,180.1978007890935 181.10510643846382,173.3225212792469 178.34830858288004,165.7554921690115 176.16582298962737,157.5259662216438 174.63939552370175,148.67278588086006 173.84861687409628,139.24452219811678 173.86980558097022,129.2995013740666 174.77485753594374,118.90571103500118 176.6300740416334,108.14057933279794 179.49498159337958,97.090621075354 183.4211575313409,85.85094635992186 188.45107658635897,74.52462858823283 194.6169940899664,63.221930281778526 201.93988221974504,52.059386777853234 210.428436088676,41.158749659497715 220.0781667447772,30.645793640651704 230.87059820994375,20.648992574797262 242.7725855406622,11.29807226219097 255.735770525987,2.722449776502458 269.69619103960315,-4.95042890654716 284.5740592249347,-11.59683914271966 300.2737226094606,-17.098599860523166 316.6838209137579,-21.344949999233336 333.6776497422535,-24.234459466742294 351.1137405192598,-25.67695319418806 368.8366639718935,-25.595425267814534 386.6780621705951,-23.92791870149233 404.4579116313514,-20.629345205435413 421.9860172781089,-15.673218336937595 439.0637341795922,-9.053272715424498 455.4859109357127,-0.7849415733446392 471.0430454224134,9.093335178831353 485.5236403410269,20.5189999486104 498.71674269313746,33.4044904873127 510.4146479517411,47.63660293216756 520.4157463641732,63.07612947954817 528.5274855443347,79.55779353453272 534.5694203357972,96.89050300951057 538.3763178997474,114.85793986934173 539.8012831500656,133.219501047685 538.7188670704523,151.71160249888754 535.028118153964,170.04935441813114 528.6555352518008,187.92861158090855 519.5578785527803,205.02839834866228 507.7247942831696,221.01370319379834 493.18120806151643,235.5386326532301 475.9894417049048,248.24990946988615 456.25100869802213,258.79069437650037 434.1080445364246,266.80470557108447 409.7443297671738,271.94060448931 383.3858657945424,273.8566110607018 355.30096641017786,272.22530631219394 325.79983155335304,266.73857502680625 295.23357400746755,257.1126362523346 263.99267458531057,243.09310486237075 232.50484683080808,224.46002317829343 201.23229834294963,201.0327979449525 170.66838247318827,172.67497479284646 141.33364131611842,139.29877979220748 113.7712485505214,100.86935588335844 88.5418687303255,57.40862092295441 66.21795799973412,8.99867388225394 47.377539831811845,-44.21532356975189 32.59749817465297,-102.02286121706032 22.446439235308162,-164.14645865647327 17.477181932970637,-230.24077266953174 18.218945697044973,-299.89249368537634 25.1693126545656,-372.6210856255407 38.786049222471775,-447.88041657088104 59.47887956766638,-525.061319791335 87.60131019387937,-603.4951157587793 123.44261093095638,-682.4581158646994 167.22006271225598,-761.1771177452017 219.0715866050669,-838.8358904491449 279.04887148758473,-914.582635259133 347.1111194305139,-987.538394893558 423.1195281364219,-1056.8063701996832 506.83262862019035,-1121.4820894263678 597.9025935956946,-1180.6643608878232 695.8726276974317,-1233.4669254574537 800.1755446565214,-1279.0307110354522 910.1336288314201,-1316.536577098814 1024.9598690459788,-1345.2184238595128 1143.760641513115,-1364.3765276251297 1265.5399057446652,-1373.3909518808446 1389.2049628131017,-1371.7348725998186 1513.5738092084755,-1358.9876465488694 1637.384101918584,-1334.8474430944334 1759.3037313710051,-1299.1432534317858 1877.9429786565074,-1251.8460864527979 1991.8682121736676,-1193.079157818326 2099.61705668808,-1123.1268783813648 2199.714945003402,-1042.4424500710224 2290.6929392364655,-951.6538818303584 2371.1066853352177,-851.568245316081 2439.5563412577167,-743.1739999029788 2494.707296440028,-627.6412291503887 2535.31147813328,-506.319646311336 2560.2290192093005,-380.73424469352915 2568.4500424526495,-252.57848967617116 2559.116298511707,-123.70497287173157 2531.5423789113283,3.8865248170191364 2485.23621216938,128.0635858114652 2419.918540436842,246.5783177998187 2335.5410665119894,357.08708576262484 2232.302956861484,457.1727402179768 2110.665385692655,544.3692318050872 1971.363808411758,616.1884652608118 1815.4176601915794,670.1492081246831 1644.1371870411526,703.8078315594076 1459.1271328618402,714.7906229522786 1262.2870265837973,700.8273729530216 1055.8078386511324,659.7859038132887 842.1648058553409,589.7071718492447 624.1062577402781,488.84054509190406 404.6383163931034,355.67882826830316 187.00538420698027,188.99258171993793 -25.33361909972487,-12.136740742582703 -228.73325861379016,-248.28532719597382 -419.3937603779784,-519.6577204921094 -593.3972401221516,-826.0602197128346 -746.7478045617804,-1166.8774820358008 -875.4152849939612,-1541.0528313513514 -975.3823016165952,-1947.0727677998511 -1042.6942953367497,-2382.9561532663 -1073.5121025628496,-2846.248521546562 -1064.166588380363,-3334.0219282330213 -1011.2147954183974,-3842.8807142836235 -911.4970104819035,-4368.973508752135 -762.1940995297416,-4908.0117403753175 -560.884414713316,-5455.294864841286 -305.59953584730823,-6005.742444909049 5.121926253091175,-6553.933144524459 372.18326480112853,-7094.150616201954 795.8821702323837,-7620.436173841536 1275.867612041633,-8126.6480515591575 1811.101940804884,-8606.526953865527 2399.8290327209343,-9053.76750457399 3039.5492789534333,-9462.095102188132 3727.0021906783873,-9825.347589342655 4458.1573476765625,-10137.561044357177 5228.214363305526,-10393.058905390868 6031.612471630705,-10586.543543405909 6862.050263412158,-10713.189310547155 7712.516006714308,-10768.736007056119 8575.328885467305,-10749.58163390666 9442.191375863456,-10652.873231426996 10304.252856695373,-10476.594547695355 11152.184416482469,-10219.649235867315 11976.264678510202,-9881.938248158158 12766.476315920137,-9464.430077240664 13512.61277410486,-8969.22249450762 14204.394558411495,-8399.594450051289 14831.594283229846,-7760.046832261357 15384.169515772723,-7056.3308364045815 15852.402286212176,-6295.462762020012 16227.043977407082,-5485.724148838669 16499.464154426118,-4636.646270396705 16661.801748704664,-3758.9781335078333 16707.11687629561,-2864.637279997533 16629.541446633964,-1966.6428540222005 16424.426609892173,-1079.0305830767813 16088.484999690496,-216.74952233182984 15619.925655917968,604.4593711496736 15018.579461905716,1368.2025371530908 14286.012903245606,2057.5904444815533 13425.627954070273,2655.4107651363747 12442.745922339314,3144.3170401713032 11344.673140104604,3507.0315236859706 10140.746469105436,3726.5606269347345 8842.356707327073,3786.421121950439 7462.948128977695,3670.8750068130166 6017.992568988385,3365.1706862851147 4524.936673524565,2855.7878856766342 3003.12117962632,2130.6834962596995 1473.671359053952,1179.5353511601847 -40.64193764634109,-6.0192447690849065 -1515.570872726728,-1432.1535552470473 -2925.58873131249,-3102.63346338927 -4244.117057585912,-5018.615054602884 -5443.7809304658895,-7178.46129592003 -6496.69108255796,-9577.58137749523 -7374.751145223542,-12208.296239087329 -8049.987874855873,-15059.733714750579 -8494.901785716445,-18117.756590658166 -8682.835188193778,-21364.926682434863 -8588.354213619084,-24780.507798564242 -8187.641003593315,-28340.510164908977 -7458.891859137652,-32017.7785423035 -6382.716789010927,-35782.12587536507 -4942.53557345545,-39600.513867618734 -3124.965175660773,-43437.28138796075 -920.1930945244465,-47254.4210793444 1677.6689351605214,-51011.9039660486 4670.256619382009,-54668.051245428534 8054.655950696136,-58179.95180884854 11823.143015822006,-61503.923370448196 15962.966486177793,-64596.0143981575 20456.17836496258,-67412.5433462096 25279.51833765578,-69910.67099024652 30404.356764378153,-72049.00097344133 35796.700960803726,-73788.20299386149 41417.268938524525,-75091.6524089849 47221.634216237944,-75926.0794125768 53160.44467120332,-76262.22036203025 59179.71767857172,-76075.46331086235 65221.21298805084,-75346.47934144178 71222.88391774984,-74061.83090720052 77119.40650999229,-72214.54809129982 82842.7853006268,-69804.66347931745 88323.0333103762,-66839.69623584357 93488.92278368643,-63335.07597706365 98268.80208815358,-59314.49715079404 102591.47305779664,-54810.19487839118 106387.12192910662,-49863.133584736635 109588.29589372431,-44523.10024709651 112130.91619041741,-38848.69473369907 113955.31759703906,-32907.210479472735 115007.30317617586,-26774.39965902176 115239.20219247206,-20534.118063341786 114610.91827153208,-14277.84606296304 113090.95412631014,-8104.083340166926 110657.3985531861,-2117.6164888191815 107298.86091233912,3571.3398976801136 103015.33797075288,8848.126413628264 97818.99781550876,13594.742370085565 91734.86555319093,17691.06397104936 84801.39571010752,21016.16963348174 77070.91664791232,23449.763111592212 68609.93291859818,24873.683242599745 59499.272308172505,25173.487303661655 49834.065363804555,24240.09318153822 39723.54646660389,21971.463832747177 29290.667000545727,18274.315878204605 18671.51287367366,13065.832658996796 8014.520563934699,6275.360705659407 -2520.5120209056595,-2153.9326311685168 -12763.62127474358,-12263.463649246158 -22536.079144504114,-24077.722909524065 -31651.99620030299,-37602.87658454101 -39920.12006361472,-52825.50339826043 -47145.81986846561,-69711.49199462714 -53133.244490613026,-88205.1232412489 -57687.639295253044,-108228.36131677724 -60617.80315913924,-129680.37643197628 -61738.664554718285,-152437.32068486506 -60873.95258063013,-176352.37684284727 -57858.93602518647,-201256.09777676017 -52543.20089908756,-226957.051844825 -44793.434413515846,-253242.7867447453 -34496.181153183934,-279881.12123060075 -21560.535244268536,-306621.7706436746 -5920.730687226838,-333198.30845402036 12461.409244051769,-359330.46197862865 33594.203502463104,-384726.73616403283 57454.066061088,-409087.3548327661 83983.72034791826,-432107.50413595943 113090.71511943762,-453480.858175221 144646.280488068,-472903.3619070751 178484.56118190527,-490077.24157818203 214402.26190776666,-504715.208118886 252158.7368996017,-516544.8142092933 291476.55235950695,-525312.9211918383 332042.5465406794,-530790.2277052609 373509.4076908747,-532775.807926795 415497.78498922905,-531101.6037024577 457598.9419948228,-525636.8116901623 499377.9560165178,-516292.1040064401 540377.4602533194,-503023.6188224493 580121.9185940076,-485836.6559636648 618122.4156641837,-464789.01189122425 653881.937135824,-439993.88853764196 686901.1075451829,-411622.3113859839 716684.3449828787,-379904.99396330566 742746.3841156459,-345133.58860186854 764619.1111695103,-307661.2669324628 781858.646851393,-267902.5781302747 794052.60581741,-226332.53844175136 800827.454322115,-183484.91197611805 801855.881216919,-139949.65013073338 796864.0916222113,-96369.4653057065 785638.9274908183,-53435.52370745962 768034.7150232584,-11882.25198688554 743979.7355975311,27518.73686462429 713482.2146433314,63965.581612509915 676635.721821701,96633.94624511286 633623.8760573802,124685.58786854001 584724.2504943368,147277.66545932065 530311.3753757711,163572.72309307664 470858.74124599324,172749.26842422775 406939.7107765299,174012.85447374187 339227.2549602746,166607.56035572157 268492.4384055105,149827.75461328033 195601.58898852716,123030.01351973176 121512.09916071751,85645.05621656618 47266.81970558972,37189.54909105697 -26012.978367422038,-22722.376470583815 -97136.08191388463,-94368.05570044086 -164851.24447428755,-177905.8395009069 -227858.49814098954,-273365.4325800248 -284821.8214739854,-380639.19400785194 -334383.0964417683,-499474.5731777537 -375177.2668303292,-629467.8516273743 -405848.58974383253,-770059.3563552904 -425067.85095457867,-920530.3030676679 -431550.39420391433,-1080001.4181345592 -424074.79438084515,-1247433.475883643 -401501.98509444617,-1421629.8731942405 -362794.6328023375,-1601241.3461903103 -307036.5326596631,-1784772.9142140981 -233451.7859134315,-1970593.1142720135 -141423.50528759358,-2156945.56489561 -30511.78368259032,-2341962.872003703 99529.34706111289,-2523682.8610736467 248736.2463355785,-2700067.0899531986 416921.5655383072,-2869021.565228935 603662.0004487586,-3028419.5525070024 808288.172011422,-3176126.3375857146 1029876.9044030255,-3310025.761667219 1267246.1574616188,-3428048.319858317 1518952.85476688,-3528200.5786652924 1783293.8288141869,-3608595.6354351914 2058310.0807945202,-3667484.311197269 2341794.5245025572,-3703286.738589137 2631303.3519224552,-3714623.978998224 2924171.122215978,-3700349.278202132 3217529.636348615,-3659578.5481418716 3508330.6166816754,-3591719.6444925717 3793372.164837103,-3496499.9958779155 4069328.9223711714,-3373992.131356987 4332785.807695255,-3224636.6486178157 4580275.149736886,-3049262.166529898 4808316.9845773475,-2849101.8126856363 5013462.226319572,-2625805.8095964245 5192338.368368216,-2381449.7425473123 5341697.3168215705,-2118538.117936099 5458464.904499133,-1840002.8533411087 5539791.5830088975,-1549196.3796157844 5583103.741968385,-1249879.0809560313 5586155.0598227745,-946200.8510015039 5547077.250451064,-642676.6014001566 5464429.534713623,-344155.62357818475 5337246.13705631,-55784.77431470065 5165081.085011621,217034.46937793467 4948049.574655142,468694.96121273056 4686865.158472894,693438.6344534521 4382872.014300648,885416.7545367711 4038071.5655734227,1038755.2932138214 3655142.7445558435,1147624.9525729949 3237455.221904452,1206315.2778258082 2789074.9681347525,1209312.2092436815 2314761.5655090325,1151378.3372924123 1819956.7525852001,1027635.0420411229 1310763.7581016785,833645.6195815296 793917.065810201,565498.4257661118 276742.34695358446,219889.00235703483 -232893.59818350815,-205799.9060341487 -726642.9345031357,-713421.5827678714 -1195746.8450586807,-1303992.9922241147 -1631115.336609083,-1977628.0532509987 -2023416.456429321,-2733477.7415834204 -2363174.43904691,-3569678.225858141 -2640876.158187063,-4483308.22266143 -2847085.1139881467,-5470356.720824608 -2972562.0401782887,-6525702.173296372 -3008391.072181583,-7643104.185899486 -2946110.2769460347,-8815208.645829335 -2777845.2106378255,-10033567.12878925 -2496444.0432717153,-11288671.302295696 -2095612.6719335676,-12570002.904272927 -1570048.1386064964,-13866099.721172346 -915568.5768385248,-15164637.819318192 -129237.83565812693,-16452530.098073862 790517.1287347771,-17716041.035066057 1843798.0409780536,-18940917.283682525 3029138.2380569987,-20112533.563197814 4343418.701104703,-21216053.05426347 5781799.112464129,-22236601.2794319 7337665.805088352,-23159452.212404292 9002598.386359029,-23970225.12353942 10766356.705548674,-24655090.435765434 12616889.692975843,-25200982.63747874 14540367.429265426,-25595818.08052522 16521237.605231814,-25828715.28525769 18542307.30732138,-25890215.184347823 20584850.811231956,-25772498.565920755 22628743.788624573,-25469597.828100294 24652624.030503526,-24977600.03455255 26634078.46803838,-24294838.167372055 28549855.929908574,-23422067.4127794 30376104.71765843,-22362623.28951895 32088633.710433967,-21122558.442248117 33663195.33160993,-19710754.974974398 35075788.32632116,-18139009.29478156 36302977.91525794,-16422086.575342385 37322230.511022925,-14577742.134261794 38112259.813913986,-12626707.24887457 38653380.749416746,-10592637.211942147 38927867.37538513,-8502019.751414934 38920310.57836449,-6384042.306105068 38617971.101339884,-4270417.060188408 38011123.20491457,-2195163.091715943 37093384.06601261,-194345.4808979168 35862023.86793743,1694228.2507102818 34318251.43808222,3431353.4430457028 32467470.249514073,4976813.833668363 30319499.624391984,6289805.21660137 27888756.064595837,7329394.497381159 25194389.791360542,8055010.794560456 22260371.803786196,8426964.61456618 19115527.067810558,8406990.511142373 15793509.823751906,7958808.0407754965 12332717.452190148,7048695.250029531 8776139.864164023,5646068.388400607 5171141.980867582,3724061.040103071 1569177.5376749109,1260095.419164513 -1974566.8162242335,-1763561.8166539327 -5401597.352696437,-5359267.197411947 -8650608.409210388,-9533499.724492202 -11658045.313766893,-14286400.168838095 -14358732.614904987,-19611358.80947751 -16686564.162878104,-25494660.000048418 -18575250.58690724,-31915191.806340564 -19959118.700587675,-38844228.700948514 -20773956.35486602,-46245294.92766713 -20957895.258129388,-54074115.655100085 -20452323.309149332,-62278662.424208306 -19202817.054762553,-70799298.657709 -17160084.00453675,-79569030.14132695 -14280903.723844446,-88513864.41048256 -10529055.899435317,-97553281.88525628 -5876222.942407886,-106600820.39733765 -302854.1768278565,-115564773.45278968 6201021.727910174,-124349001.18327107 13635049.67320399,-132853851.46703401 21987880.086090263,-140977187.16252896 31236593.537349977,-148615513.80638617 41346231.40781867,-155665200.5002323 52269445.56573872,-162023785.06503117 63946279.40633808,-167591352.89663768 76304091.79861343,-172271977.33257917 89257634.4804592,-175975207.75930843 102709292.24112193,-178617590.17388904 116549493.83112337,-180124203.48749012 130657299.94851224,-180430193.5438684 144901172.8735072,-179482285.64812198 159139930.37091935,-177240255.38311654 173223884.3637515,-173678336.6565796 186996162.61741194,-168786545.29353487 200294209.2803375,-162571896.0881674 212951457.62455013,-155059491.07657552 224799165.74268934,-146293456.90573487 235668403.31279564,-136337709.5707342 245392174.8676555,-125276525.48602694 253807662.33311707,-113214898.85828747 260758566.96286654,-100278666.6466673 266097528.23085555,-86614384.03558657 269688594.78363544,-72388935.30682278 271409720.2409336,-57788867.27869803 271155254.5025426,-43019435.07369609 268838399.31166023,-28303352.870480973 264393595.17798963,-13879245.476234937 257778805.4159346,199.99999968431226" stroke="white" stroke-width="1.5" /></svg>