<?xml version="1.0" encoding="utf-8" ?>
<svg baseProfile="full" height="400" version="1.1" width="400" xmlns="http://www.w3.org/2000/svg" xmlns:ev="http://www.w3.org/2001/xml-events" xmlns:xlink="http://www.w3.org/1999/xlink"><defs /><rect fill="black" height="100%" width="100%" x="0" y="0" /><circle cx="200" cy="200" fill="yellow" r="10.00299637925169" stroke="orange" stroke-width="2" /><polyline fill="none" points="199.4404267833061,200.0 199.3603955809662,199.96642368976592 199.2796794817856,199.92416393978544 199.19912863567188,199.87293914215402 199.11964451446147,199.81255291878563 199.04217201729213,199.7429020277401 198.96769050310917,199.66398363236624 198.89720378988034,199.57590179988821 198.83172917559526,199.4788730967073 198.7722855519794,199.37323115002903 198.71988069788492,199.25943004954354 198.67549785534638,199.1380464688496 198.64008170710565,199.0097803941719 198.6145238898084,198.87545435770534 198.5996481918343,198.73601108463612 198.59619559861815,198.5925094765212 198.6048093611181,198.44611886921433 198.62602027455807,198.2981115208404 198.66023236448416,198.14985330434612 198.70770918529658,198.00279259977248 198.76856094253577,197.85844740345186 198.84273265409658,197.71839069465443 198.92999356702555,197.58423412458595 199.0299280454392,197.45761011784242 199.14192814123012,197.34015250219753 199.26518805246116,197.23347580865138 199.39870066458153,197.13915340970237 199.54125635674845,197.05869468948967 199.69144423956016,196.9935214644512 199.84765597138835,196.9449438970915 200.00809227826971,196.91413616799082 200.17077227704272,196.90211219193296 200.3335456732102,196.9097016826077 200.49410787402397,196.93752688638048 200.6500180237235,196.98598031874107 200.79871993196264,197.05520384689495 200.93756582851555,197.14506946819424 201.063842837701,197.25516213640896 201.17480202498214,197.38476498591484 201.26768982630676,197.53284729746608 201.33978162841098,197.69805553810835 201.3884172260161,197.8787077917909 201.41103784012907,198.0727918762315 201.40522434107373,198.2779674154967 201.36873628101114,198.49157210656924 201.29955130415027,198.7106323819292 201.19590446921873,198.93187862898833 201.05632698866583,199.15176508126933 200.8796838631235,199.36649444576761 200.66520986845146,199.57204727629477 200.412543336825,199.7642160441844 200.12175716334107,199.93864379601223 199.79338646603867,200.09086722349127 199.42845233052705,200.21636390406624 199.02848108100932,200.3106034026341 198.59551853773564,200.36910185601073 198.13213874710644,200.3874795930522 197.64144670497706,200.36152127558773 197.1270746363083,200.28723797943567 196.59317144518883,200.16093057169735 196.0443850083438,199.9792536812308 195.48583705235717,199.73927950468814 194.9230904296741,199.43856064175296 194.36210869059863,199.07519111123207 193.8092079374354,198.64786466541477 193.27100104197933,198.15592949455484 192.75433440797363,197.59943839735797 192.26621756503374,196.97919348780852 191.81374598887342,196.29678451431226 191.40401765335108,195.5546198846477 191.04404393165757,194.75594952017886 190.74065557558035,193.9048787056566 190.5004046117955,193.0063721570456 190.3294631010884,192.06624759935653 190.23351980874727,191.0911582294667 190.21767593052914,190.0885635352492 190.28634110695634,189.0666880516934 190.44313103764102,188.03446775660225 190.69076807524078,187.00148394221446 191.03098623394027,185.97788454385557 191.46444208849493,184.97429306140467 191.99063306540674,184.00170537271433 192.6078246363641,183.0713749086877 193.3129879144257,182.1946868358612 194.1017491244612,181.3830220722451 194.96835237014653,180.64761214385067 195.90563704960576,179.9993860706418 196.90503118005992,179.44881064930888 197.95656177828818,179.0057256738738 199.0488833082761,178.67917580119993 200.1693250503428,178.4772409244271 201.30395806780365,178.4068670605618 202.4376822486407,178.47369988629256 203.554333681827,178.68192316594912 204.63681239230203,179.03410440480997 205.66723020686464,179.53105012719917 206.62707825748794,180.1716732196305 207.49741335113848,180.9528747924447 208.25906214876414,181.86944299693175 208.8928418036682,182.9139711870492 209.3797954142404,184.07679773403544 209.70144035145702,185.34596968726848 209.8400272314028,186.70723232478306 209.77880702120663,188.14404645145248 209.50230349729242,189.63763508189405 208.99658802189464,191.1670608890437 208.24955337164127,192.70933550888896 207.25118314493807,194.23956146836716 205.99381309715716,195.73110714874122 204.47238060841354,197.15581481317412 202.68465838204582,198.48424131758006 200.63146840664155,199.68593069147832 198.31687219414997,200.72971732437756 195.74833333456837,201.5840580275234 192.93684848675747,202.2173907654696 189.8970430575738,202.59851737215374 186.64722800964728,202.69700708763986 183.2094144831457,202.48361728047388 179.6092832195277,201.93072726303188 175.87610613567813,201.01278066993254 172.04261781433516,199.70673145933165 168.1448351499803,197.9924882206309 164.22182391622647,195.85335113677485 160.31541159823195,193.27643566178833 156.4698464580017,190.25307674130357 152.73140346698028,186.77920723209726 149.14793844362686,182.85570407233627 145.76839246740326,178.4886957231247 142.64224939771935,173.68982444935384 139.81895009899733,168.4764571384362 137.34726775258326,162.87183857321162 135.27464941350286,156.90518138326968 133.6465297352119,150.6116872993481 132.5056235281989,144.03249482955982 131.8912045278145,137.21454906409002 131.83837841197953,130.21038999566588 132.37735871921998,123.07785651427295 133.5327548604946,115.87970409274402 135.32288188328693,108.68313512013411 137.75910202241963,101.55924185601009 140.84520834837613,94.58236306337585 144.57686099046884,87.82935652201415 148.94108645955117,81.37879081729025 153.9158505145589,75.3100610303949 159.4697148014257,69.70243421180359 165.5615871354735,64.63403178644779 172.14057479417949,60.18075730168789 179.1459495327129,56.415179171686475 186.50723222789676,53.405379277372674 194.14440409711275,51.21377943242089 201.96825032886463,49.895958804552976 209.88084070495427,49.49947636975682 217.77615039630683,50.062713356335024 225.54082258332662,51.61375138780156 233.0550728974162,54.16930264067281 240.19373391527185,57.73370877786883 246.82743607631033,62.29802568435488 252.8239194528149,67.8392111035169 258.0494688009052,74.31943213670398 262.37046227908735,81.68550921213539 265.65502216264315,89.86851254264815 267.7747538309278,98.78352626642513 268.6065572867805,108.32959439515773 268.0344935100337,118.38986137701738 265.9516860789515,128.8319185171493 262.26223674354117,139.50836568903082 256.8831320327498,150.25759572208224 249.74611655341585,160.90480657388687 240.7995074221314,171.2632439022118 230.00992329088692,181.1356739593239 217.36390071157552,190.31608385893432 202.8693701597228,198.5916032382325 186.55696392897153,205.74463818110618 168.48112833739637,211.55520501444795 148.7210132744528,215.8034482713525 127.38111307996093,218.2723237700083 104.59163409711739,218.75042442498884 80.50856598929478,217.03492313077066 55.31343606020525,212.93460388010698 29.21272836900735,206.27294924856523 2.436952381401511,196.89124953857782 -24.76065076550887,184.65169628000402 -52.105772598271244,169.44042047794272 -79.30507639668599,151.17043403048328 -106.04861081003912,129.78443115637032 -132.0125930988496,105.25740552068063 -156.86255217582675,77.59903806875235 -180.25681648698162,46.85581041494049 -201.850326483444,13.112799019776304 -221.2987460417686,-23.50489364115964 -238.2628417556159,-62.831113133906626 -252.4130936094578,-104.658072355319 -263.43449522418075,-148.7362532057922 -271.03149670757546,-194.7748242873106 -274.9330382246978,-242.44260410586776 -274.8976178012729,-291.36959444921615 -270.71833266604114,-341.14910317396664 -262.22782970399925,-391.3404695958304 -249.3030974100426,-441.4723990680186 -231.8700291780803,-491.0469061996324 -209.9076859081036,-539.5438585618813 -183.4521848330288,-586.4261047182679 -152.6001412235317,-631.1451620678307 -117.51159028163033,-673.147431389463 -78.41231813437571,-711.8808962103693 -35.59553343129741,-746.8022562907393 10.577185332713896,-777.3844357253613 59.675726979785,-803.1243975230436 111.2021237780661,-823.5511881540904 164.59211422781257,-838.2341275767785 219.21763235585573,-846.7910527913648 274.39025450975345,-848.896516152048 329.36562480384066,-844.28983362144 383.34886960809706,-832.78287300551 435.500999859338,-814.267468083863 484.94628760018315,-788.7223415703857 530.7805901175184,-756.2194181165472 572.0805814765079,-716.9294082094424 607.9138372614802,-671.1265449148619 637.349704087545,-619.1923580562863 659.4708710963537,-561.6183746741029 673.3855463676247,-499.00764053080115 678.240127147121,-432.07496505531753 673.2322392030842,-361.64580147256765 657.6240076753406,-288.65368494169434 630.7554096784173,-214.1361643063994 592.0575478691258,-139.2291774979281 541.0656743982273,-65.15983665732455 477.43178634103685,6.76239343461711 400.93660704504583,75.1561211312644 311.5007630382435,138.58003527436392 209.19496339424188,195.54645030226342 94.24898792080842,244.53632320788378 -32.940707617902916,284.01565370500015 -171.80495668222812,312.45315580365815 -321.59759800176823,328.33906567719157 -481.3931132568524,330.2049275036359 -650.0863447083436,316.6441761798876 -826.3944358225197,286.3333137489948 -1008.8611198710944,238.0534553725239 -1195.8634606553346,170.7120010526311 -1385.6211259812767,83.36417139901808 -1576.2082484132493,-24.76587011792742 -1765.567899306748,-154.26459944979882 -1951.5291713619076,-305.5097205558525 -2131.826832178307,-478.6520697703055 -2304.1234768042273,-673.5991498083287 -2466.034071372163,-890.0006080357175 -2615.1527429491866,-1127.2359705331628 -2749.08163309458,-1384.4049363098998 -2865.4615947311036,-1660.3205245792406 -2962.0044742545606,-1953.5053521564378 -3036.5266838124367,-2262.191297680153 -3086.9837328809563,-2584.3227844424487 -3111.505354188231,-2917.563884145511 -3108.430827206581,-3259.309409946122 -3076.3440734177702,-3606.7001288240526 -3014.1080718896897,-3956.6421808023806 -2920.8981219351226,-4305.830746104009 -2796.2334622853878,-4650.777951264594 -2640.006743815856,-4987.844951917609 -2452.5108458916015,-5313.278073868292 -2234.462525310416,-5623.248835690885 -1987.0223920141193,-5913.897615991281 -1711.8107175737987,-6181.380667307563 -1410.9186012278203,-6421.920117063408 -1086.9140441950492,-6631.856534783293 -742.8425162558652,-6807.703584709153 -382.22163926863016,-6946.204224849268 -9.029660357995539,-7044.387858195105 372.31255712823156,-7099.62779023799 756.9662343456043,-7109.698299893773 1139.7062095745127,-7072.830589391205 1514.9593673252998,-6987.76684348285 1876.8499470237186,-6853.811600359572 2219.251627632952,-6670.879616721636 2535.8461933067956,-6439.539398369164 2820.1884902191464,-6161.051566152669 3065.777287010023,-5837.401235827906 3266.131551861495,-5471.323609868831 3414.871559187068,-5066.322010085354 3505.8041394908955,-4626.6776223439865 3533.011288405495,-4157.450279051594 3490.94125658744,-3664.4696714560027 3374.5011524291904,-3154.316462223104 3179.1500058567026,-2634.2928589974026 2900.991165271157,-2112.3823114112897 2536.862832408644,-1597.1981067838615 2084.4254829688443,-1097.9207628776785 1542.2448757032205,-624.2242487215728 909.8693206079251,-186.19120565016777 187.89985920891976,205.78251083511327 -621.9479921557626,541.0934933654119 -1516.7922705926749,809.0460152981715 -2492.5436688497825,998.9760381347382 -3543.876963366579,1100.3830357559914 -4664.215950648525,1103.0685159637292 -5845.732985634881,997.2799614158305 -7079.364107375361,773.8587589288234 -8354.840609464758,424.39054055114934 -9660.737765588538,-58.64377589986191 -10984.541254749744,-681.7180826462134 -12312.731647088323,-1450.1142588501802 -13630.887110755843,-2367.7804654019674 -14923.804284441709,-3437.196667264409 -16175.637030512782,-4659.24954456195 -17370.05254226216,-6033.1189816867145 -18490.40402767726,-7556.178326430242 -19519.918933910194,-9223.91058680489 -20441.901413998563,-11029.842680279633 -21239.94747331702,-12965.49976737025 -21898.170970926072,-15020.381587919685 -22401.438393805336,-17181.962573332545 -22735.610073458378,-19435.71733118463 -22887.78527822905,-21765.172890088143 -22846.548394636568,-24151.988852924118 -22602.213210938353,-26576.06633644961 -22147.06213979052,-29015.686276177436 -21475.57706807757,-31447.67734908632 -20584.65840442433,-33847.61341538728 -19473.82881213967,-36190.04000694775 -18145.418070729385,-38448.7289972066 -16604.725505769053,-40596.960179111586 -14860.156467651444,-42607.828057813276 -12923.329426960128,-44454.57173800675 -10809.15039000357,-46110.92535676372 -8535.851523935136,-47551.48608663803 -6124.991117924641,-48752.096316248426 -3601.4122955163502,-49690.23621221375 -993.1582334729965,-50345.42248321156 1668.6579667192825,-50699.60881016262 4350.030168386003,-50737.583082323494 7014.283776752243,-50447.35629360787 9622.348398736836,-49820.53771289725 12133.078408750504,-48852.69075245174 14503.620635821277,-47543.66382555255 16689.827748438776,-45897.89041365985 18646.715249486148,-43924.65255968375 20328.959311097504,-41638.302071997234 21691.431985490897,-39058.433867521686 22689.769630657633,-36210.00610486603 23280.96969768456,-33123.40206262095 23424.010348398922,-29834.42910517654 23080.48671732425,-26384.25054958801 22215.257010335677,-22819.246801825808 20797.09105385359,-19190.802767912723 18799.31338299209,-15555.019262556867 16200.432494882469,-11972.346931375303 12984.747504404135,-8507.142067910512 9142.923133516952,-5227.1446374051 4672.523751664154,-2202.8798085403064 -421.5029278544117,493.0146663288713 -6126.401893880806,2786.531802070835 -12421.255910659871,4603.104932803592 -19276.708666706785,5868.477807430572 -26654.774682678544,6509.62843828799 -34508.74416425651,6455.738788312916 -42783.1903534903,5639.201281087115 -51414.0861632099,3996.652055454292 -60329.03597435545,1470.0198779255895 -69447.62743759748,-1992.4213120373156 -78681.90695237498,-6435.009100162234 -87936.98120430294,-11893.6721634849 -97111.74573357373,-18394.946957903652 -106099.73999224673,-25955.046274363624 -114790.12673888824,-34578.9947542368 -123068.79192858339,-44259.84663313317 -130819.55950049812,-54978.00098309284 -137925.5136613713,-66700.6295339389 -144270.41943080697,-79381.23176515379 -149740.23037389116,-92959.33136141696 -154224.67062083076,-107360.3273113583 -157618.87648570124,-122495.5118958411 -159825.08127180891,-138262.2665573465 -160754.325215259,-154544.4451665381 -160328.1709974023,-171212.9525094346 -158480.40387752416,-188126.52391532392 -155158.69428606099,-205132.70984116313 -150326.19970214658,-222069.06693546107 -143963.08184307598,-238764.55463943392 -136067.91464195563,-255041.13376468854 -126658.95820670774,-270715.56073707977 -115775.27396012758,-285601.36834123236 -103477.6564762429,-299511.0208678759 -89849.35816951157,-312258.22858796275 -74996.58397428726,-323660.40348750266 -59048.73448302605,-333541.23523157445 -42158.37769977193,-341733.3634235623 -24500.93161348378,-348081.11942667275 -6274.042202370621,-352443.3083609896 12303.355760340755,-354695.9994233951 30992.304627565514,-354735.2904429416 49535.42262731669,-352480.01062398835 67658.83780734523,-347874.3237863454 85074.4555308536,-340890.1931275153 101482.55361786076,-331529.6676469403 116574.69475403486,-319826.9499235918 130036.94114554828,-305850.2049611974 141553.35163109974,-289703.07034115394 150809.73662166487,-271525.8289788365 157497.64138010523,-251496.20738696834 161318.52333574212,-229829.76452698282 161988.08441605442,-206779.839086856 159240.7148344114,-182637.02636635693 152834.00046709142,-157728.15987563235 142553.24195420157,-132414.77725062266 128215.93003786213,-107091.05514158076 109676.1184774347,-82181.20331302873 86828.63322512982,-58136.31427106053 59613.05447371169,-35430.67126443424 28017.406766170116,-14557.524438559198 -7918.508353667311,3975.647803073191 -48100.20261406658,19652.36762475947 -92376.07880168752,31952.844416039054 -140535.5589143932,40360.079057835785 -192307.82289885535,44366.33768052591 -247361.21463086785,43479.93897305081 -305303.3672926687,37232.29144980249 -365682.0948475888,25185.109708052056 -427987.0899122035,6937.731723543848 -491652.4609960884,-17865.547251533135 -556060.1338481902,-49528.21449139728 -620544.132558809,-88294.44874072434 -684395.7461727367,-134342.2980343969 -746869.5759415261,-187777.22946864952 -807190.4470642447,-248626.15628219736 -864561.1569330358,-316832.04873124073 -918171.0196224682,-392249.2351184334 -967205.1537630642,-474639.49788086035 -1010854.4481546719,-563669.0667848714 -1048326.1266510318,-658906.606957531 -1078854.8211400965,-759822.2936619325 -1101714.049021105,-865788.0583678123 -1116227.9796127158,-976079.0817689428 -1121783.3625961298,-1089876.5989618432 -1117841.4810867577,-1206272.0700534657 -1103949.9824230429,-1324272.7560559912 -1079754.431447377,-1442808.7251237582 -1045009.4241147802,-1560741.2980814315 -999589.0938784336,-1676872.9248968156 -943496.8396383887,-1789958.4654018066 -876874.102261897,-1898717.8283186294 -800008.0169389499,-2001849.9026848613 -713337.7710580305,-2098047.695290355 -617459.5019896331,-2186014.5669622673 -513129.57624301064,-2264481.4396992777 -401266.1009860327,-2332224.8260183968 -282948.5309343306,-2388085.5117074316 -159415.24814138736,-2430987.703755192 -32059.00924339183,-2459958.4368519494 97579.82581308587,-2474147.0148129542 227822.3476842757,-2472844.247879377 356862.47419736657,-2455501.2333956636 482780.6633653653,-2421747.4161476204 603559.9484901121,-2371407.6559606106 717104.2511371408,-2304518.02428041 821258.89645893,-2221340.0486507663 913833.2228779448,-2122373.1245029927 992625.1448446478,-2008364.8176985085 1055447.4936166806,-1880318.7890018155 1100155.9271521952,-1739500.0832610314 1124678.1666882306,-1587437.5416500603 1127044.2848233653,-1425923.114953695 1105417.7384017115,-1257007.8795814682 1058126.8096769424,-1082994.5857558618 983696.0916056957,-906426.599062178 880877.628169684,-730073.13214266 748681.2988448187,-556910.702581522 586404.0182070025,-390100.79571789363 393657.30765806546,-232963.75693863933 170392.7868218223,-88948.98658186039 -83074.87227683832,38398.43849445096 -366047.984187772,145474.53983214486 -677429.3314200427,228656.37780587285 -1015709.5247684285,284344.87171244354 -1378958.6601130029,309010.1586574654 -1764822.6637540513,299239.0959333591 -2170524.6862929324,251784.4584060231 -2592871.8663938614,163615.33126717454 -3028267.740497112,31968.1501371839 -3472730.5228261356,-145602.20429252033 -3921917.4220466767,-371171.89031087374 -4371155.0970000215,-646398.8364192967 -4815476.284440432,-972475.4175311697 -5249662.557151539,-1350083.7965081476 -5668293.091786577,-1779354.6665380017 -6065799.2429555645,-2259830.1368590808 -6436524.634246116,-2790431.5025702883 -6774790.388879131,-3369432.6281676157 -7074965.033516491,-3994439.653531691 -7331538.519384693,-4662377.699958233 -7539199.716456658,-5369485.212178089 -7692916.6501051895,-6111316.519969263 -7788018.666620718,-6882753.139854973 -7820279.635527651,-7678024.263573785 -7786001.224018312,-8490736.795701195 -7682095.213346994,-9313915.208342822 -7506163.769981643,-10140051.376703374 -7256576.536970621,-10961164.44620973 -6932543.3745871065,-11768870.660536889 -6534181.555048418,-12554462.951309655 -6062576.20508844,-13308999.955548177 -5519832.793408949,-14023403.987354584 -4909120.47847006,-14688567.347311078 -4234705.166483943,-15295466.208128551 -3501971.1804957185,-15835281.16992119 -2717430.5095453155,-16299523.434876753 -1888718.692404248,-16680165.410938432 -1024576.4933713182,-16969774.419384208 -134816.64798194822,-17161648.05392464 769724.9060963063,-17249949.62122107 1677253.7438119033,-17229841.986662246 2575097.8743849644,-17097618.05692092 3449804.946959165,-16850826.054319892 4287255.619867563,-16488387.679375913 5072792.76392909,-16010707.218986591 5791365.951077763,-15419769.64038426 6427690.452661546,-14719225.716867615 6966419.739227883,-13914462.261910917 7392330.238060613,-13012655.604824048 7690516.868874296,-12022806.524725797 7846597.644821139,-10955754.970970076 7846925.398397992,-9824173.03780344 7678804.473170162,-8642534.82909251 7330710.015767694,-7427062.045248469 6792507.3117479365,-6195644.348447622 6055668.4370727865,-4967733.812966912 5113483.34753043,-3764213.0435920577 3961262.404804808,-2607236.844888957 2596527.2433199324,-1520047.6455006266 1019186.8195894104,-526765.2219998772 -768304.5414888139,347848.3767782687 -2760810.2784441994,1078647.4349372268 -4950399.027495623,1640383.056275914 -7326259.390639417,2008003.5018145111 -9874644.932036137,2156971.964107101 -12578852.115092292,2063598.985523832 -15419233.664622705,1705386.3582125907 -18373249.564293705,1061378.988563465 -21415557.57950859,112520.87409061761 -24518144.83091025,-1157988.968781169 -27650501.535276704,-2764345.065927425 -30779837.58094352,-4717793.217444828 -33871342.116836324,-7026302.281767631 -36888485.811232015,-9694255.045900643 -39793364.8826657,-12722163.31572178 -42547085.42577756,-16106412.403180415 -45110185.95483852,-19839040.16857241 -47443095.473293245,-23907555.692019958 -49506623.75560107,-28294802.495490737 -51262479.90515865,-32978871.012447506 -52673814.636886634,-37933064.70455018 -53705781.13326392,-43125923.85248488 -54326108.74672934,-48521310.60064888 -54505683.278186016,-54078558.31357914 -54219127.05978293,-59752687.70719484 -53445371.61925529,-65494691.55264557 -52168215.31186757,-71251889.01836662 -50376857.98329332,-76968349.92147627 -48066404.481178254,-82585388.30860783 -45238328.672906674,-88042123.885474 -41900889.559910476,-93276108.87175266 -38069491.111819215,-98224016.88221726 -33766977.583126985,-102822389.43631753 -29023856.326252345,-107008434.68754454 -23878440.48224669,-110720871.95263079 -18376904.417188615,-113900814.62153026 -12573245.380410997,-116492683.05538902 -6529145.590722108,-118445138.14522061 -313729.80777433165,-119712025.32295829 5996785.584775334,-120253318.00353082 12319554.87380435,-120036048.706251 18565678.386039346,-119035215.47077462 24640891.33582061,-117234650.66152392 30446365.169924747,-114627838.85879895 35879618.96242761,-111218670.27810608 40835536.879208215,-107022116.05407113 45207486.14515089,-102064811.78310284 48888528.32350112,-96385535.94990018 51772715.07396307,-90035570.27578089 53756457.91306352,-83078929.62853606 54739959.877554506,-75592449.92944212 54628695.410646126,-67665723.48609725 53334923.27421623,-59400872.3709383 50779215.86088892,-50912151.85288514 46891986.96179479,-42325377.469672 41614998.86258144,-33777171.09405147 34902828.615792125,-25414023.288913082 26724272.4952247,-17391171.351838753 17063667.000235483,-9871294.703736305 5922104.366542771,-3023031.660619673 -6681479.624510258,2980675.878347054 -20709367.64582013,7964400.713686288 -36104294.35872119,11752199.847149171 -52788872.52869759,14169720.779962936 -70665231.78431924,15046427.516400782 -89614888.78032573,14217926.545792049 -109498865.90426016,11528370.509342818 -130158073.72299977,6832914.7968393285 -151413970.10303655,200.0000001854289" stroke="white" stroke-width="1.5" /></svg>