<?xml version="1.0" encoding="utf-8" ?>
<svg baseProfile="full" height="400" version="1.1" width="400" xmlns="http://www.w3.org/2000/svg" xmlns:ev="http://www.w3.org/2001/xml-events" xmlns:xlink="http://www.w3.org/1999/xlink"><defs /><rect fill="black" height="100%" width="100%" x="0" y="0" /><circle cx="200" cy="200" fill="yellow" r="20" stroke="orange" stroke-width="2" /><polyline fill="none" points="198.72489883045165,200.0 198.7355440857271,199.9336218406385 198.75515472088512,199.86894145153772 198.7838408776455,199.80705238288397 198.82159905560928,199.74909247326246 198.86830427712084,199.69623285097094 198.9237032297738,199.64966579081505 198.98740853705746,199.6105915010028 199.05889430367816,199.58020393306904 199.13749307603592,199.55967572614583 199.2223943501302,199.55014241512706 199.3126447487675,199.55268605011617 199.40714997732798,199.56831839174984 199.50467865252836,199.5979638632977 199.60386808163207,199.64244245558925 199.70323205046785,199.70245279454346 199.80117065752458,199.77855559311473 199.89598220841944,199.8711577195496 199.98587716034896,199.98049712172397 200.06899407992043,200.1066288527483 200.14341755024896,200.24941244575973 200.20719793464625,200.40850088565162 200.25837287490958,200.58333142222716 200.2949903724536,200.77311846274281 200.31513327065682,200.97684877188783 200.31694492718157,201.19327919382619 200.29865583605735,201.42093709393924 200.25861093139613,201.65812369732265 200.1952972781518,201.90292047692623 200.10737183077157,202.1531987165397 199.99368891834817,202.40663234273106 199.8533270953983,202.66071408549394 199.68561498109395,202.912774989968 199.49015569707473,203.16000726142033 199.2668495052685,203.3994903830319 199.01591424282293,203.62822040128583 198.7379031516468,203.8431422273189 198.43371970548984,204.04118475493874 198.10462904822145,204.21929854763957 197.75226567322557,204.3744957984209 197.37863699577667,204.50389221811946 196.98612249801008,204.60475046093515 196.57746815969165,204.67452465051915 196.15577592739942,204.710905527079 195.7244880198542,204.71186569613323 195.2873659177982,204.67570442352087 194.84846394275934,204.60109138974175 194.41209738991486,204.48710879036335 193.98280524565192,204.33329114875698 193.5653075898038,204.13966219346568 193.1644578553238,203.90676814566928 192.78519019366672,203.63570676306213 192.4324622716226,203.32815149549637 192.11119390395746,202.98637012540934 191.82620200505968,202.61323729270228 191.58213242090204,202.21224033963995 191.3833892789883,201.78747795667084 191.23406256749203,201.3436511648941 191.1378547244105,200.88604623517082 191.0980070821181,200.4205092174355 191.11722707107214,199.95341183630694 191.19761713745532,199.4916086002067 191.3406063721105,199.04238507030595 191.5468858811357,198.61339734204182 191.81634895091042,198.21260290483644 192.14803707113091,197.8481831640474 192.54009287772578,197.52845803196956 192.9897210624952,197.26179312066648 193.49315826725268,197.05650019717467 194.04565293657714,196.9207316897335 194.6414560445635,196.86237016057066 195.27382353692101,196.88891378476367 195.93503124029766,197.00735899405845 196.61640288589302,197.2240815574699 197.30835177453156,197.5447174751747 198.0004364758878,197.97404515678213 198.6814308061799,198.51587043767964 199.33940816729242,199.17291605596768 199.96184015709224,199.94671726574137 200.5357091770243,200.83752529844213 201.0476345704976,201.84422040108475 201.48401162590022,202.96423617688515 201.8311625733186,204.19349692885348 202.07549849639145,205.5263696591293 202.20369087258965,206.95563230528893 202.2028512491393,208.47245969884978 202.06071736049253,210.06642861028445 201.76584379953056,211.7255430988797 201.30779517146533,213.43628121486634 200.6773394896809,215.18366390586186 199.8666394195308,216.95134676060326 198.86943884240117,218.72173498133748 197.68124210112563,220.4761217135796 196.29948320199117,222.19484958010423 194.7236821908687,223.85749496722 192.9555858940412,225.44307429817553 190.99929022048215,226.93027120388916 188.86134126379548,228.29768316835577 186.55081252062018,229.52408588865444 184.07935565952755,230.58871325135323 181.46122243143375,231.47155049243824 178.71325551002127,232.15363778108167 175.8548462888656,232.61738115319798 172.90785794065977,232.84686742356374 169.8965123623709,232.82817943014436 166.84723998703893,232.54970771607714 163.78849183638513,232.00245453839887 160.75051361598105,231.18032591290063 157.76508211341022,230.08040726613228 154.86520464600792,228.7032181730568 152.08478281418405,227.0529416163899 149.45824234423517,225.13762321513533 147.0201313456127,222.9693359387102 144.80468985597665,220.5643059523361 142.84539409670262,217.9429954314891 141.1744794050476,215.13013843997066 139.82244633977595,212.15472628872206 138.81755496722275,209.04993918124646 138.18531281682078,205.85302140602764 137.9479624411548,202.60509785538693 138.12397491767257,199.35093023167397 138.72755597932752,196.13861194247883 139.7681717518223,193.0192013826956 141.25010129814706,190.046294047799 143.17202331947857,187.27553471370996 145.52664442837323,184.76407174726097 148.30037638926717,182.56995646973627 151.47306960696105,180.7514913755789 155.0178099311845,179.3665318995963 158.90078553057313,178.4717473185526 163.08123016951404,178.1218472558913 167.51144869451286,178.3687811198602 172.13692990239463,179.26091863335472 176.8965512214612,180.84222039582664 181.72287879075535,183.15140814079814 186.54256557532798,186.221145003953 191.27684911187413,190.0772366835251 195.84214934582548,194.737864844056 200.15076580605174,200.21286447418527 204.11167207637013,206.50305714713733 207.6314041752862,213.59965223789058 210.61503805946836,221.48372811343492 212.96725003655177,230.1258051229734 214.59345242446767,239.4855218655511 215.40099534439528,249.51142569706465 215.30042410055128,260.1408877521908 214.20678020129418,271.30015189657695 212.04093273218095,282.90452598971245 208.73092552306196,294.85872263043217 204.21332437886468,307.05735517838957 198.43454758841503,319.38559330184785 191.35216200845286,331.71998060294413 182.93612626157028,343.9294150268778 173.16996200721283,355.87629078444127 162.05183386331203,367.4177984237145 149.5955183905755,378.4073774947873 135.83124261848417,388.69631398176216 120.80637290635212,398.1354723520553 104.58593550707532,406.57714971939475 87.25295104566916,413.8770372612555 68.90856624697864,419.89627170290987 49.67196765167708,424.50355740961203 29.680063748289342,427.577337447796 9.086923919487106,429.007989918715 -11.937035152317804,428.70002396751056 -33.20612246147914,426.57424816146363 -54.52070911212249,422.56988244719696 -75.66882927911678,416.64658367140805 -96.42804355111559,408.7863537159327 -116.56755910370612,398.995298686644 -135.85059758562102,387.30520733614856 -154.03699791059836,373.77491701919314 -170.88603736932066,358.4914360010322 -186.1594506510708,341.57079188319904 -199.62462253775323,323.15857729473794 -211.05792625120256,303.4301658322103 -220.24817574834765,282.5905735261183 -227.00015672003394,260.87394386698156 -231.13819771204976,238.54263763779113 -232.5097397062013,215.88591246161002 -230.98885973057185,193.21818106824395 -226.47970166682558,170.87684179013687 -218.9197654429716,149.21967968652592 -208.28300429530765,128.62184193116673 -194.5826788038546,109.47239664076574 -177.87391599879396,92.17049012015269 -158.25592204467796,77.121123501271 -135.87379787315336,64.73057589514337 -110.9199086867257,55.40150739212382 -83.63476052244175,49.5277814636099 -54.307340064998215,47.489052460720245 -23.27487764547365,49.6451698907733 9.07800214191397,56.330456895779264 42.3207725327307,67.84792577088612 75.97916375436171,84.46349835543174 109.53800694541181,106.40030361470122 142.44477318256497,133.8331286167981 174.11381000645545,166.8831023077253 203.9312693166315,205.61269391299268 231.26071148960185,250.0211093638565 255.4493611422682,300.0401697838318 275.83498020526054,355.5307557060319 291.753313986351,416.27989926158546 302.5460558022481,481.9986040302784 307.5692656554844,552.3204685335479 306.20216845743585,626.8011844451703 297.8562475813505,704.9189744777738 281.9845402087433,786.0760275683155 258.09103215118347,869.6009804427546 225.74004173269182,954.7524849146112 184.56547505225433,1040.723889405775 134.2798286573809,1126.6490512295638 74.68281049186918,1211.609283221791 5.669446073320614,1294.6414244393288 -72.76246565850226,1374.747009978739 -160.50568337807772,1450.9024996287615 -257.3377772158798,1522.0705092058636 -362.9164389577419,1587.2119721933875 -476.7759779661686,1645.2991428901391 -598.3251261103296,1695.329335864817 -726.8462669734272,1736.339280313222 -861.496194617406,1767.4199521413245 -1001.308495217824,1787.731731473619 -1145.1976309525157,1796.519719044537 -1291.9647896783679,1793.1290318073054 -1440.3055462296572,1777.0198863276162 -1588.8193617151196,1747.782268356057 -1736.0209261038071,1705.149978626861 -1880.3533268250117,1649.0138386371843 -2020.2030022464387,1579.4338361367859 -2153.916413948231,1496.6499885046314 -2279.818345915083,1401.0917032913665 -2396.2317123893818,1293.385419129078 -2501.498729453736,1174.3603170922925 -2594.003278753531,1045.0519025493686 -2672.1942654622176,906.703270653403 -2734.6097469844703,760.7638849345731 -2779.9015843506013,608.8857179831207 -2806.8603451566037,452.91662592635436 -2814.440165631735,294.89085423497016 -2801.7832603565926,137.01660123098415 -2768.2437516948776,-18.33940264536264 -2713.410477519834,-168.6703074233664 -2637.1284256794092,-311.35051893422195 -2539.518437202268,-443.65996895646026 -2420.994817827715,-562.8111716659452 -2282.280499345947,-665.9789159366394 -2124.419398726618,-750.3324001549685 -1948.7856343199292,-813.0695728596942 -1757.0892747174946,-851.4533992088084 -1551.3783172916362,-862.8497305465282 -1334.0366200685403,-844.7664127674532 -1107.7775424502297,-794.8932293459497 -875.6330873359723,-711.1422374289516 -640.9383792914834,-591.6880209042138 -407.31136038952627,-435.007353481986 -178.62763694057588,-239.91773819240518 41.00953378533575,-5.614267918739301 247.30406798270187,268.2957647461083 435.8065788600637,581.7610903474326 601.9584212993581,934.258103914508 741.1400114077517,1324.7665073295304 848.7231050368641,1751.7495245115786 920.1266488968561,2213.1392426428592 950.875747532479,2706.3276059748905 936.6632200360705,3228.16355372613 873.4131528765297,3774.956750096083 757.3457905903545,4342.488302450147 585.0430453064737,4926.02880335129 353.51385017534517,5520.363963517841 60.258531766401404,6119.828026273947 -296.6686665967112,6718.3450700527 -718.5998137776556,7309.47821455409 -1206.1972015659971,7886.486648917138 -1759.401883238984,8442.390297527343 -2377.387791816803,8970.041831755445 -3058.52238427715,9462.205625040639 -3800.334740245986,9911.643135432743 -4599.492013192883,10311.204085237601 -5451.7850884610925,10653.922693119306 -6352.124245209821,10933.118101330201 -7294.5455483458045,11142.498031177765 -8272.228611735338,11276.264594968176 -9277.526275547325,11329.22109410702 -10302.006628793191,11296.878542438308 -11336.507683498578,11175.560572924525 -12371.204870152702,10962.505316062461 -13395.691376023364,10655.962781616145 -14399.07118968589,10255.286232900053 -15370.064547978416,9761.01601645557 -16297.125307047801,9174.954300933281 -17168.569578866976,8500.229188593672 -17972.71479044034,7741.346692200358 -18698.028136905727,6904.229120161248 -19333.2832140742,5996.238484336905 -19867.723432959738,5026.183638532878 -20291.23064099402,4004.3099716339234 -20594.497204452575,2942.2706176770607 -20769.19964677032,1853.0783056770424 -20808.17179057877,751.0371542006222 -20705.575220147213,-348.34608128073864 -20457.06476814331,-1428.4715774758436 -20059.94663887771,-2471.776856985121 -19513.326712008755,-3459.8878173054923 -18818.246528489442,-4373.789873874199 -17977.804446599304,-5194.018431996713 -16997.259472288704,-5900.867609352818 -15884.115316599995,-6474.615831401103 -14648.182315163387,-6895.766619712547 -13301.614961938416,-7145.302591623387 -11858.922962356413,-7204.950392403024 -10336.953900321036,-7057.45399237826 -8754.845839212496,-6686.853505297964 -7133.948438750677,-6078.766424941963 -5497.711466458799,-5220.667938930385 -3871.539913194184,-4102.166766257058 -2282.615284930101,-2715.2727826123414 -759.6830353123675,-1054.6525493537947 667.1934774206563,882.1312478356972 1966.911683198079,3094.4005120552592 3107.6398548717025,5578.166683004166 4057.1567606404096,8325.963974600634 4783.218663193425,11326.714877328557 5253.950923400428,14565.63176526483 5438.260976359468,18024.15825596084 5306.268964977898,21679.953721349237 4829.751847505784,25506.924038834048 3982.5963473253487,29475.301303587712 2741.2556927814003,33551.77479644463 1085.2047089960647,37699.675018038644 -1002.6125204325522,41879.2120611706 -3535.348499112247,46047.76900283609 -6521.8379875287565,50160.25035877442 -9966.209990115663,54169.484961518254 -13867.532661010937,58026.681903352895 -18219.497762777013,61681.93743472065 -23010.151265043507,65084.78993370588 -28221.676537612046,68184.81927132154 -33830.236370990635,70932.28609916368 -39805.8797433885,73278.80579005394 -46112.518844617305,75178.05097859204 -52707.98136285714,76586.47588766657 -59544.14243971241,77464.05489992458 -66567.14000343486,77775.02715127138 -73717.67640192388,77488.63829818343 -80931.40837972602,76579.87005353904 -88139.42648168618,75030.1476082927 -95268.82392648108,72828.01466992767 -102243.3538837143,69969.76556411905 -108984.17291766431,66460.02367377831 -115410.66713963823,62312.255439302404 -121441.35635100452,57549.20922420866 -126994.87017342028,52203.26856914367 -131990.98886582188,46316.70972107355 -136351.74023478557,39941.853838479416 -140002.5427722175,33141.104941255006 -142873.38391923072,25986.865497727504 -144900.0211753437,18561.32252101688 -146025.19266623302,10956.098181026626 -146199.8227698394,3271.76022299865 -145384.2074984954,-4382.811087165074 -143549.1635625993,-11891.201204788313 -140677.12441748002,-19130.384757451844 -136763.16613721015,-25971.79242144953 -131815.94568403257,-32282.517535523537 -125858.53406542339,-37926.65677761588 -118929.12700688044,-42766.77718179869 -111081.61612986276,-46665.49968281936 -102386.00422148027,-49487.18726805136 -92928.64902393844,-51099.72371610156 -82812.32106326307,-51376.366834497385 -72156.0623816276,-50197.658103724665 -61094.834635932435,-47453.36872049045 -49778.94687423364,-43044.460239338165 -38373.25539496417,-36885.03636903212 -27056.130421976293,-28904.26101901318 -16018.186878014654,-19048.216442044482 -5460.779293418353,-7281.67431164245 4405.7361749004785,6410.248164250398 13363.96654106866,22020.575431364974 21191.664301258563,39519.13253342849 27664.11462413457,58851.404037396795 32556.711390108274,79937.62056811019 35647.70262393004,102672.09960106877 36721.08245291239,126922.86578512803 35569.603366725365,152531.57428344712 31997.879299729586,179313.75842595476 25825.546950492317,207059.42035965715 16890.449844069848,235533.980369153 5051.806980233872,264479.5971289944 -9806.674455296179,293616.8673578601 -27773.784860093605,322646.90919358045 -48907.94063490869,351253.82912544784 -73234.50061059839,379107.5675394876 -100743.31654001337,405867.1128929809 -131386.5638883627,431184.06928191555 -165076.89876787143,454706.55675020174 -201685.98587862522,476083.418168968 -241043.44070968137,494968.7009496673 -282936.2270010226,511026.3763122862 -327108.54755252704,523935.2533801428 -373262.2628828549,533394.040089615 -421057.867988736,539126.497863451 -470116.05254171736,540886.6322791773 -520019.8643018249,538463.8576498023 -570317.4893518816,531688.0696031186 -620525.6559976026,520434.5564785217 -670133.6618825241,504628.67773480533 -718608.0160876215,484250.2356544271 -765397.6797878604,459337.4655111326 -809939.8804958139,429990.56910539075 -851666.4661189442,396374.7172263263 -890010.7560843285,358722.4482231107 -924414.8377428068,317335.39250782534 -954337.2472614703,272585.25650072296 -979260.9653638307,224914.00429208248 -998701.6497012968,174833.18114517504 -1012216.0174626249,122922.32990220128 -1019410.2841783698,69826.45936600574 -1019948.557685552,16252.532787139384 -1013561.0800146682,-37035.04535421223 -1000052.2046769309,-89219.95507670565 -979307.9925915574,-139440.4980651368 -951303.3068236422,-186797.13254583877 -916108.2845192923,-230360.9788031167 -873894.0640345584,-269183.25437667413 -824937.6463563173,-302305.5836658888 -769625.7725930093,-328771.11208145553 -708457.7036434244,-347636.3401916112 -642046.7941889176,-357983.57868445816 -571120.760938333,-358933.91059618845 -496520.55460494926,-349660.5333332424 -419197.75641113764,-329402.3397477724 -340210.4329761331,-297477.58511909854 -260717.3981999713,-253297.47556121094 -181970.84714229425,-196379.50333070193 -105307.34481351446,-126360.34596191737 -32137.172127641617,-43008.13931332009 36067.948134997205,53766.07032966407 97788.70081225267,163897.89279576298 151473.53615503068,287160.3774904688 195555.4455233653,423156.2102070553 228470.0408677859,571311.5152950117 248674.80000480835,730871.4480927174 254669.3159373027,900897.7526533575 245016.36513295159,1080268.4470765206 218363.58707552808,1267679.783170762 173465.545874907,1461650.608716357 109205.92460199898,1660529.239309868 24619.58464884875,1862502.9227282305 -81085.7938521046,2065609.9520645118 -208508.7883392177,2267754.4547150475 -358034.3356982788,2466723.8528349637 -529815.176483223,2660208.9573640707 -723754.9627952594,2845826.622437392 -939493.3519770011,3021144.8502538935 -1176393.4051704106,3183710.1986440644 -1433531.6025025242,3331077.305048501 -1709690.7750125672,3460840.301828604 -2003356.2372705431,3570665.859241988 -2312715.383859605,3658327.5545229423 -2635660.98745186,3721741.2288299548 -2969798.4061037935,3759000.958895742 -3312456.8726958986,3768415.2375926245 -3660705.000264627,3748542.9278667555 -4011370.5935114184,3698228.5281614 -4361064.809277168,3616636.2650992046 -4706210.657561177,3503282.5113703795 -5043075.780130329,3358066.014003612 -5367809.386362874,3181295.410976517 -5676483.166223219,2973713.512913566 -5965135.9387560235,2736517.8318399843 -6229821.731867522,2471376.8509756457 -6466660.92613266,2180441.5486687445 -6671894.032686186,1866351.7160232589 -6841937.613727323,1532236.6417292568 -6973441.794632888,1181709.7791405458 -7063348.760007692,818857.0597517312 -7108951.573101208,448218.57380162226 -7107952.609794495,74763.40257033767 -7058520.855726785,-296142.5422668825 -6959347.278989284,-658775.7395273083 -6809697.462051489,-1007101.3235916473 -6609460.656052704,-1334826.2888595401 -6359194.4090965055,-1635459.4354094155 -6060163.918476857,-1902377.760511113 -5714375.265517243,-2128898.9006331894 -5324601.71151134,-2308359.1267994517 -4894402.264609578,-2434196.2937282007 -4428131.770782566,-2500037.0413641343 -3930941.8374719582,-2499787.447493946 -3408771.9663377726,-2427726.2334928396 -2868330.351609712,-2278599.533301797 -2317063.8927768567,-2047716.1499431178 -1763117.0743700112,-1731042.1457240032 -1215279.480899371,-1325293.543238022 -682921.840929421,-828025.855822039 -175920.6299469585,-237719.1196978026 295428.59392765944,446142.93299460836 720508.7954333926,1223000.9393708007 1088489.5248889849,2091156.5906609944 1388444.7915747815,3047719.3035840495 1609479.935771819,4088564.212438381 1740866.5210332538,5208302.764698489 1772184.102866894,6400267.132097113 1693467.5677590044,7656509.558543793 1495358.5795994059,8967817.655584428 1169259.521387584,10323746.525478726 707488.1809795342,11712668.441649187 103431.30298009871,13121840.646788837 -648304.982894321,14537491.641129043 -1551749.941175405,15944926.128377065 -2609430.3768417025,17328648.566027503 -3822242.360559043,18672505.03182571 -5189334.774289833,19959842.871088196 -6708006.921795326,21173687.33262712 -8373622.424047126,22296934.136714734 -10179541.565802502,23312556.6496614 -12117074.175290378,24203826.06919844 -14175455.00310572,24954542.75622455 -16341843.41834783,25549276.585047 -18601349.059447367,25973613.929653287 -20937084.86407465,26214408.661541846 -23330248.65748876,26260034.309083086 -25760234.202572357,26100634.323170222 -28204772.30896237,25728367.212981265 -30640102.26493925,25137643.16287792 -33041173.496367477,24325348.620601144 -35381876.97473056,23291055.261634246 -37635305.49441433,22037209.68832723 -39774041.521530725,20569300.218308643 -41770470.88688233,18895997.157726094 -43597120.15868787,17029263.04346241 -45227015.09138362,14984429.476762913 -46634057.11047545,12780237.360277938 -47793414.365686886,10438837.592459425 -48681923.47141614,7985749.568043028 -49278497.66089695,5449775.180872914 -49564536.71471398,2862866.424793188 -49524333.69181654,259945.13824893208 -49145473.19824631,-2321326.063609901 -48419215.681763574,-4840822.082110038 -47340862.045552365,-7256282.681354288 -45910092.73712977,-9523688.093471687 -44131275.39505471,-11597681.434864255 -42013735.13121221,-13432035.805927686 -39571981.59498098,-14980163.248097403 -36825887.11155738,-16195662.021805465 -33800810.41346338,-17032897.955082055 -30527660.79440779,-17447614.90373912 -27042897.909921523,-17397568.669486273 -23388462.93033621,-16843178.051549695 -19611637.31848997,-15748186.070320396 -15764826.155700393,-14080323.808446236 -11905263.672611348,-11811968.775914801 -8094639.452842331,-8920789.231388567 -4398644.662111814,-5390365.492579562 -886438.6075719158,-1210778.9537629178 2369963.0558504867,3620840.691776547 5296376.091833832,9099819.643433543 7817207.936379202,15213505.223213358 9856285.817694949,21940901.653672684 11337746.966691442,29252385.653350018 12186983.982655687,37109510.74748286 12331637.267377937,45464908.68455637 11702625.313174596,54262295.70363205 10235202.541499564,63436590.612242356 7870033.355314926,72914150.71031311 4554270.106662291,82613130.53428352 242621.80770730885,92443967.20135432 -5101600.35428444,102309994.81256738 -11505475.283434343,112108188.93312436 -18985517.116282552,121730040.61895864 -27546788.684403107,131062557.81201291 -37182098.93116055,139989390.19695655 -47871299.918682046,148392071.81514007 -59580698.87035165,156151373.88526025 -72262600.29851368,163148758.40420607 -85854992.65773419,169267921.21717638 -100281393.1342257,174396411.37631795 -115450863.12743632,178427311.77605417 -131258205.69839215,181260964.28632155 -147584354.75194237,182806720.92842522 -164296963.99016258,182984701.07901087 -181251201.72848818,181727533.27305338 -198290755.51440093,178982058.9340197 -215249048.14366528,174710974.31547022 -231950664.14741927,168894386.11959958 -248212983.14445102,161531255.68990168 -263848013.63944516,152640706.38103753 -278664417.92594,142263168.71119887 -292469715.7512258,130461338.22055872 -305072651.3514826,117320921.61101702 -316285705.4038255,102951147.74158886 -325927730.4049146,87485021.41132805 -333826685.0126972,71079299.58468519 -339822440.02009153,53914171.8057782 -343769625.90962124,36192629.00682155 -345540489.40998226,18139507.73595108 -345027724.1834905,200.00000042253734" stroke="white" stroke-width="1.5" /></svg>