<?xml version="1.0" encoding="utf-8" ?>
<svg baseProfile="full" height="400" version="1.1" width="400" xmlns="http://www.w3.org/2000/svg" xmlns:ev="http://www.w3.org/2001/xml-events" xmlns:xlink="http://www.w3.org/1999/xlink"><defs /><rect fill="black" height="100%" width="100%" x="0" y="0" /><circle cx="200" cy="200" fill="yellow" r="10.000000000011914" stroke="orange" stroke-width="2" /><polyline fill="none" points="201.75341847655787,200.0 201.78862039858316,200.09389440036165 201.81421191565533,200.1910020339538 201.8295697696227,200.29026721989538 201.83416743030577,200.39053466118742 201.82758849186035,200.49055707691318 201.80953960850476,200.58900448767596 201.7798627782334,200.68447514941388 201.7385467784466,200.77550810989652 201.6857375548583,200.86059734029755 201.62174736477417,200.93820737145302 201.54706247802233,201.00679034097777 201.46234924360115,201.06480433357495 201.36845833759998,201.11073287290174 201.26642701823724,201.14310539953954 201.15747922700422,201.16051854626497 201.04302339093198,201.16165799925102 200.924647799904,201.1453207123786 200.80411345467894,201.11043722184874 200.6833443057841,201.05609379010295 200.56441483057006,200.9815540920284 200.44953492532167,200.88628014289222 200.34103212119484,200.76995215674765 200.24133116664993,200.63248701650986 200.1529310546948,200.47405503281436 200.07837961030475,200.2950946684289 200.02024579149042,200.09632490864632 199.98108989623015,199.87875496596232 199.96343190643415,199.64369101962336 199.96971823879326,199.39273970745975 200.00228721028265,199.12780810888864 200.06333356272407,198.8510999841309 200.15487242560937,198.5651080655168 200.2787031288044,198.27260223219238 200.43637330621883,197.97661343944662 200.62914375748062,197.68041331806202 200.8579545565384,197.38748940728624 201.12339291338122,197.10151603689667 201.42566330719382,196.82632092898686 201.7645604157583,196.5658476480752 202.13944536631473,196.32411408839133 202.5492258269864,196.10516724913572 202.99234044490615,195.91303461147666 203.46674811704514,195.75167249433238 203.9699225522169,195.6249118288148 204.49885254765712,195.53640185277854 205.0500483608897,195.48955228636893 205.61955450730824,195.48747460591755 206.20296925614213,195.53292308608937 206.7954710324587,195.62823632792686 207.3918518608982,195.77528003244703 207.98655790837836,195.975391814821 208.5737370985793,196.22932888201834 209.14729368128118,196.53721941627802 209.70094954533167,196.89851851707414 210.22831196604128,197.3119695546312 210.7229473771127,197.77557177784632 211.17846065487169,198.28655499810657 211.5885792997543,198.84136213747155 211.94724179795486,199.43564038465152 212.24868934618087,200.0642416449065 212.48756002597193,200.72123290031166 212.65898442245796,201.39991701482043 212.75868159722023,202.09286442439802 212.7830542475694,202.79195604655766 212.72928181655163,203.48843762643517 212.59541026081286,204.17298560879 212.38043713852568,204.8357844879042 212.08439064829656,205.46661544132974 211.70840123362083,206.05495590004267 211.25476436724833,206.59008954822463 210.72699314684442,207.06122608218078 210.12985936852235,207.45762989157168 209.4694217989625,207.76875665907235 208.75304044051933,207.98439670880688 207.98937567733705,208.09482377159017 207.1883713042242,208.09094767838948 206.36122057380607,207.9644693448275 205.52031455095883,207.70803627137278 204.67917223614606,207.31539665851693 203.85235211015447,206.78155012614212 203.05534496071766,206.10289293382664 202.30444807517566,205.2773555263517 201.61662112091682,204.3045301784007 201.00932428486297,203.1857864864937 200.5003395023816,201.9243724565274 200.107575872163,200.5254989636518 199.848860623945,198.9964054191306 199.74171727741742,197.346404567565 199.8031328998973,195.58690445836896 200.04931663392915,193.73140578829663 200.49545192017985,191.79547299740736 201.15544508207108,189.79667771899364 202.0416731626483,187.7545134341512 203.16473410729492,185.69028046288042 204.53320256413488,183.6269407344466 206.1533947234437,181.58894211831853 208.02914573432184,179.6020124609891 210.16160331763822,177.69292386054082 212.54904123540393,175.88922811664372 215.18669627511636,174.21896471501753 218.06663236038239,172.71034313804154 221.17763530381637,171.39140173253648 224.5051415727819,170.2896458067506 228.03120424145632,169.4316680658857 231.7344990529399,168.8427549234064 235.59037321228095,168.5464826379391 239.5709391755644,168.56430761662043 243.64521529248876,168.91515558899806 247.77931470173658,169.61501468463427 251.93668337223696,170.67653773603305 256.07838763221736,172.10865937009618 260.16345093557663,173.91623363987085 264.14923898620236,176.0996980779782 267.9918916807789,178.65477011825334 271.6467996455085,181.57218182765388 275.0691224388488,184.83745881179158 278.21434477837994,188.43074900053156 281.03886643342963,192.32670678168296 283.5006207148452,196.4944376283948 285.5597157985617,200.89750795784835 287.17909245006655,205.49402446454798 288.3251910825033,210.23678659132418 288.9686204922576,215.07351513654555 289.0848200827844,219.94715924959766 288.65470692054635,224.79628324223523 287.6652985764774,229.55553374598173 286.1103024023388,234.15618678161212 283.9906616832744,238.5267732834351 281.3150490048064,242.59378054736243 278.1002971827646,246.28242595759087 274.37175823567065,249.51749820328013 270.16358113736237,252.2242600361556 265.51889947845797,254.329405455789 260.4899206926326,255.7620630556499 255.13790917020512,256.4548361349331 249.53305638823778,256.34486909439283 243.75423213258478,255.37492860525055 237.8886119706691,253.49448708533603 232.0311773499238,250.66079515284136 226.2840860395675,246.8399289722468 220.75591209448038,242.00779777576275 215.56075608913972,236.15109635320965 210.81722803460397,229.26818696917005 206.64730713808962,221.36989500310855 203.17508437651117,212.48020262945607 200.5253957142784,202.63682507247125 198.8223556816996,191.8916543954906 198.1878029218775,180.31105642451826 198.73967118784617,167.97600726847702 200.59030110338492,154.9820569869696 203.84470976485292,141.43910927270088 208.59883693103018,127.47100755865203 214.93778809624595,113.21491972569085 222.93409614163804,98.82051556744992 232.64602448284353,84.44893335584428 244.1159356527572,70.27153422905752 257.36875004892175,56.46844567746996 272.4105201114174,43.22689811181107 289.2271454550866,30.739361338468257 307.78325443770814,19.201490712875227 328.02127728373955,8.809895763645812 349.86073518458005,-0.24025285491745763 373.1977687470994,-7.757759151355884 397.9049277520112,-13.558058352777863 423.8312424059205,-17.46596928022217 450.8025941230273,-19.31851473360348 478.62240135648267,-18.967779367932366 507.07263312186507,-16.28377203255087 535.9151596278343,-11.157257277945774 564.8934458683702,-3.5025187547944654 593.7345901591498,6.739984418888213 622.151705444843,19.601108521610655 649.8466367971407,35.08070438263027 676.5130039031444,53.14552629296779 701.8395525535409,73.72741205808799 725.5137942279988,96.72177497525384 747.225907894369,121.98644736900881 766.6728731459199,149.34091359862188 783.5627988583665,178.5659681448713 797.6194067205868,209.40383147957965 808.5866243475467,241.5587529160449 816.2332382909644,274.6981255351736 820.3575531942449,308.45413359177235 820.791999665557,342.4259475470935 817.4076302387895,376.18247607474217 810.1184401277957,409.2656780833647 798.8854474240958,441.1944310357652 783.7204660084661,471.46894467357987 764.6895038049192,499.5757017413122 741.915719159012,524.9928995138214 715.5818691224351,547.1963579457943 685.9321853168152,565.665852166472 653.2736158676898,579.8918189314438 617.9763756717412,589.3823786153287 580.4737520036097,593.6706064902148 541.2611181889697,592.321979494955 500.8941147622968,584.9419175736376 459.9859651727751,571.1833320641308 419.2039016687704,550.7540876670325 379.2646864354232,523.424279338983 340.9292233224909,489.0332211478664 304.99626650770864,447.496040813391 272.29524410765714,398.8097714426241 243.67822697238617,343.05883095745713 220.0110855671849,280.4197799928272 202.16389082686743,211.16525070384972 191.00062802450975,135.666942028633 187.3683058756388,54.39758156968955 192.08555613806217,-32.06823957585283 205.9308316952454,-123.05444496145765 229.63032334821122,-217.78514050281404 263.8457271022622,-315.3876374358283 309.162004431343,-414.8968837420299 366.0752876435853,-515.2613433071137 434.98109086585293,-615.3503466998682 516.1629941251251,-713.9629207533156 609.7819733474828,-809.8380862160852 715.8665526468251,-901.6665937623131 834.3039568708076,-988.1040487669272 964.8324418601845,-1067.7853546572776 1107.0349771249776,-1139.3403835499978 1260.334450530842,-1201.4107615023577 1423.99055702731,-1252.6676342975109 1597.0985233662113,-1291.8302585074068 1778.589808110042,-1317.6852419147308 1967.2349010018904,-1329.10623751752 2161.648327977462,-1325.073876588037 2360.2959477956306,-1304.695708918394 2561.5046035304913,-1267.2259027695723 2763.47416712623,-1212.0844434577482 2964.2919880220397,-1138.8755582671065 3161.9497277029504,-1047.4050867683234 3354.3625311547894,-937.6965099300676 3539.390453866256,-810.005348903463 3714.862029533023,-664.8316452810358 3878.599829317213,-502.9302392003859 4028.4478287726274,-325.31857006605014 4162.300363764791,-133.2817370531934 4278.132422325012,71.62542695331626 4374.030985833407,287.5794936719527 4448.2271007013105,512.4929908264198 4499.128331307749,744.0225384598048 4525.351216837461,979.5807088898171 4525.7533293735205,1216.3517119969977 4499.464508618892,1451.3109667549545 4445.916830454177,1681.2485756394797 4364.87285266423,1902.7966711089139 4256.451672044568,2112.4605531090083 4121.152323161638,2306.653483959725 3959.874050684854,2481.7349525253053 3773.9329947864976,2634.0521638052546 3565.074842921532,2759.984453619281 3335.483021598344,2855.9902715481135 3087.7820287161044,2918.656319435939 2825.035540784879,2944.7483782961153 2550.738969895591,2931.2633041615913 2268.8061926200967,2875.4816240805612 1983.5502269608362,2775.020117887713 1699.6576938082212,2627.883730402161 1422.1569657798204,2432.516123131744 1156.3799783892364,2187.848145204337 907.9177557069554,1893.343480881798 682.5697844140989,1549.0407163877535 486.2874556989953,1155.5910625967695 325.1118829968243,714.2909730317207 205.106494224236,227.10890917155328 132.28488892586495,-303.2944722280844 112.53454256221133,-873.553401854771 151.53703088870628,-1479.5919985740506 254.68553580262724,-2116.6277810609454 427.0004789141486,-2779.184217052923 673.0442091368054,-3461.112759808501 996.8357444711424,-4155.624733455939 1401.766634541729,-4855.3333306308205 1890.5190680144956,-5552.3058776562875 2464.9873964614476,-6238.126405200426 3126.20428228581,-6903.968436698227 3874.272701759144,-7540.677773852358 4708.305043919843,-8138.864919396752 5626.370540996131,-8689.006633332763 6625.4522452209985,-9181.555971499361 7701.4147296078945,-9607.0600062231 8848.98363581268,-9956.284279645968 10061.73812014872,-10220.342893003828 11332.1171588656,-10390.832991580775 12651.440565866547,-10459.972267331817 14009.945450265437,-10420.737971352763 15396.838697941017,-10267.005808627531 16800.36590114528,-9993.686979960548 18207.89698412704,-9596.861542865783 19606.02858176313,-9073.906186553155 20980.703023722945,-8423.614458088003 22317.343560373192,-7646.307439266172 23601.005240349972,-6743.932858586506 24816.54061563693,-5720.150631602805 25948.779210480054,-4580.402857398989 26982.71944815536,-3331.966360236788 27903.731487315486,-1983.985954611138 28697.769180390427,-547.4867297720206 29351.589133483347,964.6362033151075 29852.974623704507,2537.6518834749986 30190.961919341604,4155.0527650973945 30356.06635415914,5798.640020520251 30340.50533297337,7448.635560533686 30138.415294960396,9083.821167742832 29746.0595373727,10681.704826634073 29162.02370880747,12218.714001429087 28387.39572107174,13670.415260860047 27425.926805021234,15011.75928094751 26284.17045123606,16217.349876215176 24971.59603347785,17261.73532042006 23500.67401361528,18119.719824074986 21886.929772786607,18766.692642393675 20148.963306206995,19178.971898705728 18308.43225894329,19334.159830039593 16389.99606735649,19211.50579885119 14421.219305354514,18792.273073343244 12432.43271509511,18060.10506414041 10456.550826685401,17001.386422974385 8528.845538427946,15605.594165181632 6686.675535272145,13865.633777817506 4969.171964670082,11778.155124472916 3416.88136164244,9343.84286161727 2071.367413490502,6567.676044328081 974.7737735414514,3459.15162603612 169.35076624730766,32.46665135071589 -303.0505340645914,-3693.345893511733 -401.51272895815794,-7694.332368991185 -86.61027323724852,-11941.589390568703 679.0139633169779,-16401.29444700043 1930.0597056571958,-21034.79984931445 3697.974364459585,-25798.79308623817 6010.359228347336,-30645.526041681016 8890.38423428403,-35523.11483780424 12356.219187658624,-40375.911306807444 16420.48962669187,-45144.94627076634 21089.76576861591,-49768.44392765419 26364.093129217355,-54182.40571019259 32236.573464934347,-58321.26101063047 38693.00464057599,-62118.58115822886 45711.58786951604,-65507.8520074626 53262.710501475674,-68423.29945503786 61308.812141390896,-70800.76116494526 69804.34136820516,-72578.59675592397 78695.80968290343,-73698.6277085967 87921.94855029503,-74107.09729439415 97413.97451008939,-73755.63992993026 107095.96632244019,-72602.24853368699 116885.35698578374,-70612.22772179333 126693.54222667092,-67759.12004136675 136426.60572037316,-64025.59191808078 145986.15986711442,-59404.26560361339 155270.29943346838,-53898.483162056145 164174.66378516625,-47522.98844496022 172593.60180140473,-40304.513084097336 180421.43188858946,-32282.252789536895 187553.78782161255,-23508.22068709215 193889.03945318726,-14047.465070554259 199329.77566748575,-3978.1397855356026 203784.33533568578,6608.58349391472 207168.37048121082,17608.770586868235 209406.4244053044,28906.155766645625 210433.5061834841,40372.75475623542 210196.64174488137,51869.66431619627 208656.38071385602,63248.050966992814 205788.23735056733,74350.32920479961 201584.0432975926,85011.52723621797 196053.189445284,95060.83579201665 189223.73409004085,104323.33300478129 181143.3546959047,112621.87567491822 171880.12099753896,119779.14453118453 161523.06791596516,125619.82834575708 150182.54780874384,129972.9290221126 137990.34295174215,132674.16707105003 125099.5208549324,133568.464262289 111684.01705067778,132512.47772394083 97937.93235649184,129377.15739859545 84074.53429786627,124050.2965923693 70324.9553685001,116439.04341185288 56936.584088507814,106472.3392130608 44171.148374718134,94103.24882519979 32302.49453475766,79311.14629791713 21614.069207483022,62103.71928961122 12396.115760782204,42518.75499983268 4942.600983642195,20625.670781372042 -452.10767194159007,-3473.2467256346563 -3496.789580914483,-29641.92889139087 -3907.1139944583792,-57709.972060408945 -1409.5450864056427,-87472.4751683612 4254.628831754235,-118690.29621449545 13325.183837340479,-151090.75247109102 26018.812408120295,-184368.78545827678 42524.98818426333,-218188.60733972507 63001.895890283195,-252185.84052187286 87572.4815299011,-285970.1568935492 116320.680165581,-319128.4173590098 149287.8802277117,-351228.3061380183 186469.68430786635,-381822.44778218 227813.0267219087,-410452.9880452361 273213.7077324033,-436656.6127120028 322514.403152048,-459969.9713087748 375503.206073508,-479935.46536661714 431912.75465654786,-496107.3536736468 491419.99622961244,-508058.11982425116 553646.6334182159,-515385.0404480195 618160.292594622,-517716.88587871473 684476.4486617257,-514720.67880665895 752061.1330585685,-506108.4307507794 820334.4439380018,-491643.7710945202 888674.8687629914,-471148.3790574318 956424.420153708,-444508.1254239765 1022894.575762572,-411678.82822229096 1087373.0023409787,-372691.5249327011 1149131.0330840608,-327657.1632967588 1207431.8559053775,-276770.6134727782 1261539.3586202522,-220313.90621422802 1310727.5652336602,-158658.60499285432 1354290.5857755048,-92267.22459685954 1391552.9905510389,-21693.61473977537 1421880.5084328463,52417.765363344384 1444690.9380755546,129333.74665656808 1459465.150852249,208235.5791022888 1465758.0550620363,288223.3330884813 1463209.3827123842,368321.60380419326 1451554.1531076187,447486.53482970526 1430632.6617425987,524614.1618625626 1400399.8387694375,598550.0611375081 1360933.8187284183,668100.2698312658 1312443.5624544392,732043.4277264999 1255275.3732181215,789144.0708167201 1189918.1523502497,838166.9885586627 1117007.2449272366,877892.5373306675 1037326.7336402634,907132.7835617125 951810.0487865867,924748.33119713 861538.7744380892,929665.6699173027 767739.5452627869,920894.8630885112 671778.9451747264,897547.3780719993 575156.3379114453,858853.8465243316 479494.5806993181,804181.5289666837 386528.5952470035,733051.2464587871 298091.795253898,645153.5329553699 216100.39624860958,540363.7551103525 142535.66166347067,418755.94217550685 79424.1683535107,280615.0674473444 28816.204998679208,126447.52465939935 -7237.552327381538,-43010.45201721562 -26710.912022673205,-226786.66695710254 -27628.37983826014,-423669.37129137677 -8092.475828772216,-632206.4145498789 33688.11120167377,-850707.334160079 99369.82662720114,-1077248.553706034 190445.3316936071,-1309681.8336274738 308214.70967144746,-1545646.0872051625 453757.1637926735,-1782582.6403762582 627903.5928042007,-2017753.9763458152 831210.4449223251,-2248265.9653576766 1063935.2619384546,-2471093.5366606615 1326014.3318063861,-2683109.7040116023 1617042.8698585334,-2881117.8084051 1936258.145511628,-3061886.7925726827 2282525.9626304735,-3222189.271662395 2654330.8873674492,-3358842.1139515345 3049770.5970854433,-3468749.1950610233 3466554.6977613918,-3548945.9395675156 3902008.3249810273,-3596645.2158204345 4353080.805267797,-3609284.1038633795 4816359.610109667,-3584571.013349307 5288089.784806581,-3520532.5889563067 5764198.978391411,-3415559.805788603 6240328.139695612,-3268452.627312664 6711867.878543503,-3078462.5742448983 7174000.4205599725,-2845332.535163896 7621747.009746088,-2569333.139120359 8050020.53548459,-2251295.007771331 8453683.080734994,-1892636.2101254377 8827608.006697496,-1495384.2573393448 9166746.107075166,-1062191.9985637167 9466195.28322281,-596346.811921799 9721273.110974263,-101772.52754400481 9927591.59188379,416976.4277051595 10081133.307131736,954729.1115771205 10178328.12259908,1505720.74927878 10216129.529792655,2063624.3113404587 10192089.650594532,2621591.1890416825 10104431.885397928,3172301.0702995756 9952120.145234218,3708021.0113467844 9734923.580110779,4220673.584800589 9453475.69902848,4701913.863800831 9109326.773017315,5143214.875860326 8704988.421916705,5535961.030153274 8243969.30932229,5871548.889521362 7730800.908785738,6141494.524981294 7171052.358511202,6337546.557562282 6571333.491805597,6451803.861578225 5939285.216599487,6476836.776721323 5283556.519466903,6405810.555497561 4613767.487540203,6232609.6594052855 3940457.8751338846,5951961.413810959 3275020.89013561,5559557.439637484 2629622.0374410055,5052171.201668394 2017103.0318210397,4427769.950368305 1450870.979298804,3685619.2884370317 944773.2228346292,2826378.566578643 512958.45309289923,1852185.306773 169724.89629984225,766726.8671444589 -70643.39351378942,-424702.39839708956 -194050.89366246422,-1715160.1691384062 -186774.1631417673,-3096032.9699456445 -35652.91165556627,-4557032.247432763 271713.2908657776,-6086211.049831075 746764.7385785816,-7670002.48393019 1399780.0056505036,-9293280.930164069 2239675.4792395136,-10939446.779536664 3273808.583694341,-12590535.214643475 4507787.396811152,-14227349.292940935 5945289.460538857,-15829617.305410981 7587892.662028984,-17376174.08001269 9434921.103581117,-18845165.57932431 11483308.88924607,-20214275.808455758 13727484.729261292,-21460974.705904707 16159280.199040283,-22562785.34013632 18767864.385384556,-23497568.382204313 21539707.50757903,-24243821.47391704 24458575.914125074,-24780990.766352993 27505560.62658532,-25089791.569652148 30659141.33036928,-25152534.73682537 33895287.39882941,-24953455.10684461 37187597.18284794,-24479038.060591895 40507476.404875025,-23718340.002457622 43824356.06638642,-22663298.37555895 47105949.81386396,-21309026.65465004 50318550.21415826,-19654089.642597847 53427362.86959571,-17700754.328335974 56396876.76114202,-15455211.550686229 59191268.64964787,-12927763.757176306 61774838.79652808,-10132974.25332266 64112474.69254667,-7089773.508594741 66170138.91354665,-3821518.322619346 67915376.66227086,-355999.9606319795 69317838.01348771,3274602.258507071 70349809.3634164,7033824.995280192 70986748.1020732,10881085.105960809 71207814.0869051,14771906.027880155 70996391.10623309,18658207.678332113 70340591.18983716,22488660.51178806 69233734.35949953,26209103.625027295 67674796.22226946,29763025.995523512 65668815.70095124,33092109.09167062 63227255.176686,36136828.21187265 60368305.393665254,38837109.0017913 57117127.65141591,41133034.67470028 53506026.0902363,42965598.5292869 49574543.26379377,44277495.43357189 45369472.6920335,45013945.034699306 40944782.69858772,45123538.57462044 36361446.55972783,44559100.35406388 31687174.825052135,43278554.10487824 26996046.610578742,41245783.81729879 22368037.70820112,38431477.9374003 17888444.49547951,34813945.31432925 13647203.858768353,30379890.849910133 9738110.651404954,25125138.497499313 6257935.58615574,19055289.084432166 3305447.894807834,12186300.40414487 980348.5636330068,4544977.150062739 -617878.5440945969,-3830641.4475963884 -1391188.8551875586,-12891007.961539466 -1244262.2161970946,-22574918.127590764 -85839.18260684256,-32809497.45388944 2169904.763485133,-43510332.3103433 5601961.6573628755,-54581753.55068151 10281086.01620505,-65917279.36142041 16268399.339341024,-77400222.49979474 23614022.181678705,-88904465.38360848 32355752.704055805,-100295404.64000693 42517811.29346256,-111431064.71989383 54109671.33776745,-122163378.05541673 67124996.51435447,-132339626.99738203 81540704.99204041,-141804040.43812123 97316180.73454656,-150399535.6261058 114392651.61746109,-157969593.23680028 132692753.317229,-164360251.3074086 152120296.8910291,-169422201.20080483 172560256.6342417,-173012966.36746857 193878993.1745318,-174999142.35649937 215924724.83885154,-175258674.3219076 238528258.1160308,-173683146.21332258 261503985.54119197,-170180053.96657386 284651156.5610248,-164675033.35479543 307755423.9173709,-157114011.76010516 330590664.831084,-147465252.01391724 352921072.8036323,-135721255.66374362 374503512.20943546,-121900492.5872935 395090124.0608807,-106048923.81992076 414431167.4275275,-88241284.81521562 432278077.022542,-68582097.14381908 448386713.47761655,-47206377.87144281 462520778.8606773,-24280017.55842942 474455366.09950936,199.99999941896" stroke="white" stroke-width="1.5" /></svg>