<?xml version="1.0" encoding="utf-8" ?>
<svg baseProfile="full" height="400" version="1.1" width="400" xmlns="http://www.w3.org/2000/svg" xmlns:ev="http://www.w3.org/2001/xml-events" xmlns:xlink="http://www.w3.org/1999/xlink"><defs /><rect fill="black" height="100%" width="100%" x="0" y="0" /><circle cx="200" cy="200" fill="yellow" r="10.000000198080347" stroke="orange" stroke-width="2" /><polyline fill="none" points="200.62972103303312,200.0 200.5817056177188,200.0305368876515 200.526930721693,200.05547579019165 200.46574670798412,200.0738922364955 200.39861114546937,200.08487309613577 200.32609042883087,200.08752843886307 200.24886015753066,200.081003891211 200.16770418611733,200.06449336951917 200.08351226883812,200.037252055891 199.99727623386343,199.998609471631 199.9100846363954,199.94798249174127 199.8231158554621,199.88488813430436 199.7376296162093,199.8089559502393 199.65495693787494,199.7199398321902 199.57648852723608,199.61772905638318 199.5036616579869,199.50235836834892 199.43794559805914,199.37401692262586 199.38082566911905,199.23305588808546 199.3337860451392,199.0799945344928 199.2982914197975,198.9155246224471 199.2757676952234,198.74051292802736 199.2675818670099,198.5560017453621 199.2750213021305,198.36320722498212 199.29927262713093,198.1635154232041 199.3414004633805,197.95847595789638 199.4023262639367,197.7497931887322 199.4828075223712,197.53931486532875 199.5834176373928,197.3290182143634 199.70452672796404,197.1209934666648 199.84628370153018,196.91742485717134 200.0085998826694,196.72056916427363 200.19113451065041,196.53273189010255 200.39328241180877,196.35624121945443 200.6141641460935,196.19341993188084 200.852618916419,196.04655547860054 201.1072005144292,195.91786847287602 201.37617655684235,195.80947987886336 201.65753124264677,195.72337721920093 201.9489718330498,195.6613801552351 202.24793902330683,195.6251058252629 202.55162133848162,195.6159343549674 202.85697364398732,195.63497497979125 203.16073981666818,195.6830332408064 203.4594795735022,195.76057973316748 203.74959940310282,195.86772089897892 204.0273874905014,196.00417236388273 204.2890524686951,196.16923531843938 204.53076577170344,196.36177644102176 204.74870730400278,196.5802118481202 204.93911408087223,196.82249554036144 205.09833143410586,197.08611278794584 205.22286631848914,197.36807886743853 205.30944219720604,197.6649435228291 205.35505492977094,197.97280147749905 205.35702903502266,198.28730927029565 205.31307365504978,198.60370862849342 205.2213375045082,198.91685652330926 205.08046205451308,199.22126198021542 204.88963217198744,199.51112963705378 204.6486234148467,199.78040995849335 204.35784517147144,200.0228559263894 204.0183788302912,200.23208593290397 203.6320101726259,200.40165250773512 203.20125519978507,200.52511641347874 202.72937863428905,200.59612554509792 202.22040437533343,200.60849797187637 201.67911724052442,200.55630836432377 201.11105538961053,200.43397695559244 200.52249290141432,200.23636009841005 199.92041206228464,199.9588413957272 199.312465022834,199.5974223076366 198.70692458903653,199.14881107006133 198.1126240333043,198.6105087036448 197.53888594013256,197.98089084558188 196.99544023833622,197.25928410413943 196.49233171664483,196.4460356165877 196.03981747017355,195.54257448737118 195.64825488056772,194.55146379565272 195.32798089080177,193.47644189079918 195.0891834949246,192.3224517417194 194.9417665215799,191.0956571718309 194.89520894586101,189.8034448962357 194.95842011487,188.45441138164657 195.13959241602305,187.05833367270895 195.44605305142355,185.62612347036355 195.884116704204,184.16976390828654 196.45894099131345,182.70222865146923 197.17438668950828,181.23738313561648 198.03288479505147,179.78986797595127 199.03531253068246,178.37496479761592 200.18088044373616,177.00844497530164 201.4670327449717,175.7064020148741 202.88936301699167,174.4850685621999 204.44154737258862,173.36061928145958 206.11529706568177,172.3489611040737 207.90033244971926,171.46551260686633 209.78438003984365,170.72497453095033 211.75319426541645,170.14109369758648 213.7906052986886,169.72642281035473 215.87859411391514,169.4920788507004 217.9973956698583,169.4475029725415 220.12563081866102,169.60022497739635 222.24046722719223,169.9556356006957 224.31780925530396,170.5167699589446 226.33251637159236,171.28410559269233 228.25864930425723,172.25537858853684 230.06974272599192,173.42542127154965 231.73910286141788,174.78602492477376 233.24012798772267,176.32583091237558 234.54664937856916,178.03025345558672 235.6332898230638,179.88143713415937 236.475836440966,181.85825195959876 237.05162411800393,183.936328589392 237.33992550697516,186.08813592388117 237.32234318723408,188.28310295002186 236.9831992532796,190.48778627038357 236.30991731854627,192.66608428343653 235.29339167921222,194.77949846519428 233.9283381907657,196.7874416461411 232.21362127290965,198.6475925852923 230.1525513815116,200.31629552017273 227.7531472747183,201.74900272313386 225.02835745857382,202.9007574271249 221.9962353294466,203.72671380483285 218.68006273959415,204.18269000165122 215.10841700082858,204.22574954345174 211.31517671123282,203.81480577333392 207.33946224206727,202.9112433265573 203.22550725627414,201.47955003920745 199.02245824518786,199.4879521135394 194.78409976395955,196.90904484125323 190.56850381544058,193.72041072508668 186.4376026723227,189.90521644886343 182.45668533249165,185.45277983610015 178.69381876591544,180.35909771667414 175.21919612488134,174.62732549862963 172.10441514374955,168.26819922603858 169.42169103924584,161.30039100126186 167.24300932620383,153.75078886736753 165.6392250741381,145.65469258918395 164.67911623370824,137.05591724362984 164.42839974483485,128.00679713436327 164.94872018507948,118.56808328376293 166.29662171247696,108.80872862656594 168.5225149854893,98.80555603222231 171.6696515880973,88.64280541352392 175.77311923416704,78.41155743179652 180.85887165620275,68.20903267654663 186.94280758386213,58.13776667055723 194.02991357218554,48.30466261882327 202.1134856342116,38.81992546817824 211.17444465438743,29.795882558936057 221.18076039608036,21.34569791344211 232.0869985582018,13.58198900043243 243.83400477385675,6.61535661827952 256.3487386713754,0.5528403327631679 269.54427013056875,-4.503686337089135 283.3199486624949,-8.459165092547892 297.56175541984385,-11.227028880491275 312.1428457104433,-12.730885757470645 326.9242880443829,-12.906190209875177 341.75600370488087,-11.701880339757764 356.4779086063702,-9.08195830586223 370.9212568055915,-5.026990602370688 384.9101824811071,0.4644958118191198 398.26343451511775,7.374745829872154 410.79629502332307,15.665661284254668 422.32267031138724,25.277862855872797 432.65733982070213,36.129952266015124 441.61834569462906,48.11799729003687 449.0295026846351,61.11526086752883 454.72300526129607,74.97219397013724 458.54210603734214,89.51670992190593 460.3438369895752,104.55475554882048 460.00174252538915,119.8711918694285 457.40859122013103,135.23099403692402 452.4790310961433,150.3807769196935 445.1521516650063,165.05064908182229 435.39391465229164,178.95639402230856 423.19941440848777,191.80197338172218 408.5949285179515,203.28234246280914 391.63971908427794,213.0865638771837 372.4275456264849,220.90120046859195 351.0878514929806,226.41396392377413 327.78658721193983,229.31759071842887 302.72663626474224,229.31391231584203 276.1478114050594,226.1180819004686 248.32639285528884,219.46291545215678 219.5741834927584,209.10330071508758 190.2370604817301,194.82062365682987 160.69300769740303,176.42715841604868 131.34961870056213,153.77036357130945 102.6410659240036,126.73702489636952 75.02453808363283,95.25718266587872 48.97615457939912,59.307780103603875 24.98637274672518,18.915968783582656 3.554911192578345,-25.837993241038845 -14.81477997130753,-74.81831404592066 -29.621463482867597,-127.83177304348635 -40.372427617103995,-184.62641817638246 -46.590113269222655,-244.89091109947174 -47.81899397014456,-308.2545720478932 -43.6326401053571,-374.2881708518911 -33.64089171069389,-442.5055043936728 -17.497057800043137,-512.3657937221627 5.094945647922145,-583.2769260747875 34.373612042067094,-654.5995582413404 70.51311217983113,-725.6520880961825 113.61691459653537,-795.7164907880144 163.71186132682743,-864.0450050909374 220.7428033827366,-929.8676438798113 284.5679002790415,-992.4004907033948 354.9546866668408,-1050.8547321094331 431.5770064993586,-1104.4463628580834 514.0129110913707,-1152.4064885861203 601.7436119002167,-1193.9921380069638 694.1535718226257,-1228.497484512528 790.531810254281,-1255.2653652512524 890.0744871035362,-1273.6989745681406 991.8888194106844,-1283.2735982864504 1094.9983712440303,-1283.548245868893 1198.34974318869,-1274.177029200874 1300.8206721000454,-1254.9201297693655 1401.2295349693586,-1225.654190543974 1498.346232874565,-1186.381965070384 1590.9044122166642,-1137.2410543196424 1677.6149609448103,-1078.5115618466948 1757.1806974452345,-1010.6224999306562 1828.3121494241877,-934.1567837121404 1889.7442996847217,-849.8546570047552 1940.2541554303884,-758.6154025108799 1978.6789778881991,-661.4972006636812 2003.9349899044043,-559.7150152684127 2015.0363610146323,-454.63640051752395 2011.1142526166004,-347.77514276601744 1991.4356905746897,-240.78267160338947 1955.4220191568015,-135.43719813974633 1902.6666789373794,-33.630563894936614 1832.9520424814614,62.647188936056125 1746.265035526585,151.3254859832208 1642.8112682603798,230.27305757127777 1523.0274013904555,297.31984185533724 1387.5914752333842,350.2808195570102 1237.4309371977743,386.981612567454 1073.7281139555503,405.28564548714996 897.9228894025476,403.12263625110086 711.7123682805975,378.5181497706494 517.0473281003076,329.6239174571275 316.1252887512441,254.74859604162629 111.38005984802516,152.38861174387378 -94.53233968235787,21.258711051802322 -298.7514571892337,-139.67818236754607 -498.2339030135929,-331.18222332102584 -689.7785497131599,-553.7094462293261 -870.0553678594736,-807.3865544730485 -1035.6377827985057,-1091.9881456094693 -1183.0383852067628,-1406.9168198330042 -1308.747775341173,-1751.186613176867 -1409.2762671396627,-2123.410185192876 -1481.1981243947926,-2521.7901729531127 -1521.1979477531547,-2944.115099003132 -1526.1187789845872,-3387.7601902393662 -1493.0114385462364,-3849.6934275333037 -1419.1845646909342,-4326.487102309409 -1302.2547780084094,-4814.335106311709 -1140.196355122156,-5309.0761246622305 -931.3897600752905,-5806.222840307869 -674.6683524957112,-6300.997190449636 -369.3625686864423,-6788.37164302098 -15.340856060969656,-7263.116384295252 386.95336648466014,-7719.852227916263 836.46944897514,-8153.108971810734 1331.522668464371,-8557.388843395425 1869.7735024231597,-8927.23458615762 2448.2136856509865,-9257.301653066614 3063.159679350787,-9542.433885434764 3710.254130927285,-9777.741970923807 4384.475842441292,-9958.683892571005 5080.158694519636,-10081.146503212585 5791.019891068191,-10141.527287767738 6510.197798682278,-10136.815310778933 7230.299553664632,-10064.67028965418 7943.458499663988,-9923.49868647677 8641.40140090617,-9712.525674255028 9315.525250728617,-9431.861808250333 9956.983363723191,-9082.563220647462 10556.780303463209,-8666.684158330785 11105.87505790603,-8187.320699815311 11595.291732624582,-7648.644519241164 12016.236889657155,-7055.92561341781 12360.222518717648,-6415.542972692683 12619.193489622388,-5734.9822582269735 12785.658201988766,-5022.819647214222 12852.821022542152,-4288.691123591731 12814.714983764776,-3543.2466245692676 12666.333112197992,-2798.0886023062476 12403.756662526996,-2065.6947245406254 12024.278456667125,-1359.3246168994704 11526.519467414339,-692.9107417456988 10910.536745717392,-80.93371223135404 10177.920771060792,461.7174460173664 9331.88030746155,919.8993514580112 8377.312874658492,1278.3816798862647 7320.858996476244,1522.026742146861 6170.938467132092,1635.9798027428255 4937.766982201076,1605.8684866795877 3633.3516145689673,1418.0093979855124 2271.4637771737007,1059.6198578001877 867.5885035195697,519.032465956483 -561.1509066504742,-214.0899990850828 -1996.0935863916293,-1148.5419979104618 -3417.16758733038,-2291.3677706203393 -4803.042302920947,-3647.6619296056097 -6131.3066672643035,-5220.381130359039 -7378.672635971835,-7010.169911077336 -8521.203107885462,-9015.203822744192 -9534.563085971777,-11231.052965564635 -10394.2925060153,-13650.569002655579 -11076.098786827517,-16263.798635723771 -11556.166779878986,-19057.9263983927 -11811.483424166703,-22017.24944960922 -11820.1740486244,-25123.18683136283 -11561.846914567823,-28354.32539149173 -11017.942259809468,-31686.50426387557 -10172.081799561203,-35092.93944564691 -9010.41436251397,-38544.38961561962 -7521.953098978612,-42009.36390199189 -5698.899497052608,-45454.37183322684 -3536.9492876635354,-48844.2151972031 -1035.5752150285205,-52142.320994271526 1801.7183997417837,-55311.11410440428 4967.17436314817,-58312.427702476525 8448.59956846182,-61107.94885479501 12229.225054330685,-63659.69612074011 16287.613796129792,-65930.52537287908 20597.620580044837,-67884.65944461316 25128.40795349368,-69488.23662430054 29844.52181555873,-70709.87244712478 34706.0297080498,-71521.2286993283 39668.72429300459,-71897.58305255967 44684.39385820385,-71818.39229782745 49701.16098199745,-71267.84175775359 54663.88971682246,-70235.37313118835 59514.6608227119,-68716.1827742451 64193.31370438925,-66711.6822545574 68638.05278581666,-64229.91293867608 72786.11510293266,-61285.90639300806 76574.494918406,-57901.98250283151 79940.72017210857,-54107.97744709993 82823.67458909408,-49941.39401336452 85164.45828539075,-45447.4672004964 86907.2787537851,-40679.13863903195 88000.36319046334,-35696.93406060138 88396.88225282267,-30568.738868317403 88055.874533204,-25369.467796946694 86943.16030708217,-20180.6257013045 85032.23248175593,-15089.757668092434 82305.11214693096,-10189.787903147693 78753.15572555494,-5578.248193812479 74377.8004549835,-1356.398174233933 69191.23480740847,2371.758882541351 63216.98049582586,5500.55947185696 56490.37291779836,7923.85560211276 49058.92727262388,9536.274405578355 40982.5781553637,10234.55153247966 32333.781188797337,9918.926651300264 23197.46620505097,8494.587822517158 13670.832633494842,5873.150017660009 3862.9790892785077,1974.151643288473 -6105.639316139975,-3273.4483766452936 -16103.930711241625,-9929.79158318419 -25991.066132505523,-18042.67867640649 -35617.55996349912,-27646.186415980945 -44826.52979092627,-38759.36387292961 -53455.132000190395,-51385.02960763984 -61336.16699977712,-65508.69153997976 -68299.84544353803,-81097.61121023772 -74175.70423828409,-98100.0337880798 -78794.65850897938,-116444.60455667667 -81991.17307555678,-136039.99166910423 -83605.53440631443,-156774.73373557694 -83486.20148715109,-178517.32924769504 -81492.21161924652,-201116.58297810232 -77495.61486698614,-224402.2223127471 -71383.90876057497,-248185.79398453166 -63062.44295184046,-272261.8488918846 -52456.76186506,-296409.4196184835 -39514.8520145568,-320393.7919402321 -24209.259613541082,-343968.5680365055 -6539.043408872831,-366878.01534303144 13468.472623393967,-388859.6910264485 35756.181966801356,-409647.327962944 60235.948316242255,-428973.96390701877 86787.66203551233,-446575.29128688754 115258.63243982816,-462193.20080966287 145463.34599724232,-475579.48785495374 177183.61800766844,-486499.6865353534 210169.162270413,-494736.9923645504 244138.59969430033,-500096.23075835337 278780.9227488044,-502407.82516181056 313757.42811712436,-501531.71550857084 348704.1249170583,-497361.17503821006 383234.62043428794,-489826.4712839184 416943.47950423235,-478898.31535563635 449410.04752926854,-464591.04253864026 480202.7206815524,-446965.4667573809 508883.6401786109,-426131.35166757414 535013.7806973124,-402249.442079153 558158.3960856793,-375533.0011157207 577892.7786217653,-346248.80101253267 593808.2812401211,-314717.5187669122 605518.5454895531,-281313.4919956931 612665.87159536,-246463.79532788866 614927.660972339,-210646.60346117918 612022.855970842,-174388.81362119634 603718.296637342,-138262.90755501107 589834.9099332698,-102883.04132512638 570253.6432795984,-68900.35999612507 544921.0515753591,-36997.54375945931 513854.44506720494,-7882.602047105722 477146.5047097415,17718.057345566336 434969.27203112876,39067.24627246621 387577.42207523703,55425.252439906486 335310.73079014383,66058.67363119118 278595.65232141997,70249.75855634898 217945.92708301626,67306.17183938435 153962.1482399926,56571.089847200936 87330.22235201622,37433.52369264074 18818.669384202298,9338.755967150517 -50725.28193543894,-28201.231262175857 -120380.83539041947,-75597.46775803028 -189160.02391411024,-133173.98330792983 -256015.36595700213,-201158.21617503767 -319848.7705642861,-279671.989553836 -379521.663868086,-368723.2066183967 -433866.2926708809,-468198.4159067475 -481698.14317962306,-577856.3981305552 -521829.3949235107,-697322.922921964 -553083.3116491489,-826086.8194322503 -574309.4527475367,-963497.4980018471 -584399.5707548638,-1108764.0512710582 -582304.0429228098,-1260956.0520612784 -567048.6680232999,-1419006.1521183276 -537751.6436948576,-1581714.5703901271 -493640.5250152827,-1747755.541956231 -434068.9518628617,-1915685.7791118224 -358532.92126954463,-2083954.9745399274 -266686.37163386616,-2250918.353120318 -158355.8386004301,-2414851.2538908618 -33553.93786678249,-2573965.6971982787 107508.57162758152,-2726428.864382997 264412.389535554,-2870383.388699953 436521.18209678,-3003969.326876799 622975.229874419,-3125347.6510734595 822687.4378511555,-3232725.0713783405 1034341.916031593,-3324379.969725908 1256395.320670991,-3398689.197637346 1487081.124650321,-3454155.462876132 1724416.960375086,-3489435.0043917755 1966215.1499654558,-3503365.2312245583 2210096.5055519124,-3494991.979791907 2453507.4473671364,-3463596.025600959 2693740.4492560667,-3408718.470353666 2927957.780488413,-3330184.6140389484 3153218.4696790925,-3228125.9143300857 3366508.37158145,-3102999.6327902377 3564773.170944854,-2955605.7693683566 3744954.1099985256,-2787100.893737972 3904026.177959509,-2599008.494445866 4039038.452827969,-2393225.4848000067 4147156.238227839,-2172024.528084012 4225704.5918087475,-1938051.8741264974 4272212.797406255,-1694320.4344989492 4284459.291441089,-1444197.8646152755 4260516.515618371,-1191389.4676356388 4198795.133563322,-939915.7871335237 4098087.019296099,-694084.8126839189 3957606.4010898094,-458458.78450527403 3777028.5259352378,-237815.64958681178 3556525.1981858057,-37105.29182195352 3296796.541568219,138599.26807191363 2999098.3371594846,284155.43133430433 2665264.3016296695,394408.989701836 2297722.690440708,464256.07649174094 1899506.640103857,488708.59480863577 1474257.7022701956,462962.5402987745 1026222.0704986978,382468.56079853215 560239.0580467462,243004.02329780356 81721.45187465586,40745.790970174785 -403372.5559569292,-227657.14926305108 -888576.0735227831,-565012.1239331304 -1366958.9717901985,-973513.2384020393 -1831182.124905033,-1454674.8731868616 -2273560.3401270597,-2009269.2435164794 -2686133.7755142916,-2637269.0730615202 -3060747.5243090657,-3337796.439610793 -3389138.9218447115,-4109078.844600449 -3663032.004935341,-4948413.539058512 -3874238.4265157776,-5852141.105044937 -4014764.001256876,-6815629.243516215 -4076919.9325835793,-7833267.656339499 -4053437.6496455646,-8898474.831703467 -3937586.0660771537,-10003717.448375529 -3723289.9626330566,-11140543.005274257 -3405248.0948308227,-12299626.159008527 -2979049.536414737,-13470829.113920743 -2441286.6916145408,-14643276.257523842 -1789663.3456108898,-15805443.070022108 -1023096.0750840142,-16945259.161054175 -141807.3108776818,-18050225.1013183 852591.66578684,-19107542.522975154 1957029.5020412824,-20104256.7625331 3166917.003542465,-21027411.115357187 4476104.437588144,-21864211.564266197 5876855.451830597,-22602200.638316106 7359839.047923824,-23229438.854404666 8914140.921298144,-23734691.99649264 10527295.32522287,-24107622.29786717 12185338.439628398,-24338981.413885467 13872884.023374513,-24420802.909018524 15573221.903667405,-24346591.83575673 17268439.60938984,-24111508.857027933 18939567.18781667,-23712546.261138845 20566744.958508328,-23148693.1417262 22129413.65642343,-22421086.967484646 23606526.101152845,-21533148.750058323 24976779.203670375,-20490699.035738595 26218864.78947836,-19302051.999539282 27311737.381162375,-17978085.010562476 28234896.748119205,-16532281.16669057 28968682.700790152,-14980742.465548774 29494579.28555838,-13342171.487932466 29795525.22916224,-11637819.719584996 29856227.19279941,-9891400.926951831 29663472.13087385,-8128968.331396073 29206434.81245284,-6378754.692875231 28476976.359791968,-4670974.816207737 27469929.492510606,-3037590.428184659 26183366.04276053,-1512037.838704077 24618842.230413858,-128919.29003576846 22781617.16198511,1076340.5891049134 20680840.046438564,2067871.2787074214 18329701.7085088,2809763.3253361676 15745546.128483059,3266502.7303978233 12949937.948784802,3403429.1918207277 9968682.16376038,3187214.085508499 6831792.550691843,2586353.5514973993 3573405.8073903793,1571671.551042046 231638.83409338037,116827.29260165358 -3151612.8667238783,-1801179.0052362692 -6530937.102014077,-4201508.429560229 -9857727.985929752,-7099000.512937566 -13080570.090056632,-10503712.210259592 -16145683.055936277,-14420485.924158512 -18997425.181076244,-18848553.91259926 -21578853.656046,-23781186.451283835 -23832338.269708503,-29205391.073451474 -25700224.521041874,-35101670.065171674 -27125541.189084522,-41443843.15078283 -28052746.527763378,-48198941.95712426 -28428506.380896073,-55327182.39408957 -28202496.66621535,-62782020.53135251 -27328221.86806429,-70510296.88669781 -25763840.41900755,-78452473.27133782 -23472987.153783206,-86542965.46442164 -20425582.39763699,-94710574.01659338 -16598616.717926545,-102879014.41640724 -11976899.935487367,-110967546.70061277 -6553762.672753139,-118891703.35834965 -331698.5205493091,-126564113.08019325 6677065.154407065,-133895416.54738216 14450079.654167794,-140795269.05749995 22954282.30050215,-147173423.35490733 32145709.94656665,-152940884.5931027 41969329.33726378,-158011127.91902676 52358994.2689219,-162301367.7542417 63237538.58840246,-165733866.4739862 74517012.98782498,-168237268.87220365 86099072.29559436,-169747947.5691625 97875518.54149383,-170211343.389025 109729003.48974226,-169583283.72856325 121533892.59802398,-167831261.07591748 133157290.48402536,-164935653.14025435 144460225.97783953,-160890865.53901726 155298992.72520903,-155706377.67796507 165526639.10184377,-149407672.36776006 174994598.92430833,-142037029.86539948 183554452.12180546,-133654167.42326981 191059802.1914061,-124336706.08491932 197368254.92457017,-114180447.39409305 202343480.59476194,-103299443.88885681 205857339.56557998,-91825848.73931009 207792049.14840847,-79909531.65583977 208042367.54129347,-67717450.24193683 206517768.85046434,-55432768.28454958 203144581.56634802,-43253715.0550278 197868061.4711376,-31392182.520463668 190654368.82765266,-20072060.41986447 181492418.8717255,-9527312.419496005 170395574.13259724,199.99999979132585" stroke="white" stroke-width="1.5" /></svg>