<?xml version="1.0" encoding="utf-8" ?>
<svg baseProfile="full" height="400" version="1.1" width="400" xmlns="http://www.w3.org/2000/svg" xmlns:ev="http://www.w3.org/2001/xml-events" xmlns:xlink="http://www.w3.org/1999/xlink"><defs /><rect fill="black" height="100%" width="100%" x="0" y="0" /><circle cx="200" cy="200" fill="yellow" r="10.000002196756622" stroke="orange" stroke-width="2" /><polyline fill="none" points="200.4101020996497,200.0 200.33226803633707,200.0174425540802 200.24749248903507,200.0260562552732 200.15644441702966,200.02482041775795 200.0599182265343,200.01275791070753 199.9588323759331,199.988949881543 199.85422634719112,199.9525507287678 199.74725591177454,199.90280315445256 199.63918663584343,199.83905311405397 199.53138558768828,199.7607644703066 199.42531123026913,199.66753314864928 199.3225015031491,199.55910058427094 199.2245601209302,199.43536624559871 199.13314113930483,199.29639901611552 199.0499318648169,199.1424472159715 198.97663421012862,198.97394704712528 198.91494462275247,198.7915292508602 198.86653274152653,198.59602377460104 198.83301896127668,198.38846225610354 198.8159511117819,198.1700781473688 198.81678048198555,197.94230431808123 198.83683744401384,197.70676799897456 198.87730695359602,197.46528294925483 198.93920422354734,197.2198387589611 199.02335088469835,196.97258722679683 199.1303519636511,196.72582578634393 199.26057401864688,196.48197798845172 199.4141247832876,196.2435710847165 199.59083467252327,196.01321079601294 199.79024050589544,195.79355339065745 200.01157179922416,195.58727523857078 200.25373996750167,195.39704005032263 200.5153307685035,195.22546405270492 200.7946002983872,195.07507939497685 201.08947482721732,194.94829612160729 201.3975547338761,194.84736308763542 201.71612276620758,194.77432823108518 202.04215681356968,194.73099865259238 202.37234733537687,194.7189009849183 202.7031195409191,194.7392425637113 203.0306603630259,194.79287393512303 203.3509502113674,194.88025325509187 203.65979943078085,195.0014131486941 203.95288932649282,195.15593060539024 204.22581755205044,195.34290048675174 204.47414758783722,195.56091321689 204.69346196894514,195.8080372119222 204.87941885168794,196.08180658307143 205.02781143901035,196.37921461815088 205.13462971736251,196.69671350805672 205.19612389220055,197.0302207384076 205.2088688471097,197.37513251164066 205.16982889361645,197.72634450182792 205.07642202606354,198.07828017344588 204.92658284947487,198.4249268166641 204.71882330913118,198.75987936588427 204.45229031958416,199.0763919758439 204.12681936899367,199.36743723131167 203.74298316286317,199.62577276306925 203.30213437029118,199.84401493545016 202.80644154649204,200.01471916024525 202.2589173282087,200.1304662794653 201.66343803428256,200.18395434653988 201.02475385246768,200.1680950233966 200.3484888558597,200.07611370095378 199.64113016817527,199.90165234438427 198.91000568653595,199.63887396364532 198.16324987317392,199.28256751582526 197.40975724320046,198.8282519604653 196.65912330369517,198.27227811381127 195.92157283911243,197.6119268845491 195.20787558841073,196.84550242356372 194.52924951922589,195.9724186851468 193.8972520724837,194.99327787830438 193.3236599255341,193.90993928570515 192.82033800145692,192.72557694556173 192.3990986347348,191.44472472939444 192.07155198693516,190.07330740705132 191.8489489881757,188.6186563702174 191.74201825860396,187.08950878737932 191.7607986364448,185.49598908701842 191.91446910279632,183.84957181162594 192.2111780456739,182.16302505262604 192.6578739441577,180.45033386482535 193.26013967523485,178.72660326764387 194.02203274841946,177.00794066787324 194.94593385391198,175.31131778348765 196.03240616646596,173.65441240820917 197.28006787693204,172.05543062990395 198.68548042449856,170.53291039993331 200.24305487300126,169.10550764249314 201.94497881264994,167.79176638963412 203.78116607271602,166.60987472569863 205.73923140007338,165.57740862071446 207.80449209227797,164.7110660220285 209.95999837179266,164.02639385312835 212.1865940501278,163.53751083403725 214.4630087576367,163.2568292846167 216.76598270751742,163.1947792962683 219.07042462276561,163.35953885456794 221.34960308443476,163.75677366103338 223.57537116115532,164.389390532347 225.7184237565176,165.25730834594123 227.748586666237,166.35725054811883 229.63513587508874,167.682563241342 231.34714514902493,169.22306281783764 232.85385949571642,170.96491700450483 234.1250915824926,172.89056302701232 235.13163772016387,174.97866638721973 235.84570955073747,177.20412347650446 236.24137712309766,179.53811091773656 236.29501861007617,181.94818414071608 235.98577151989966,184.3984272508045 235.29597989177742,186.8496557499531 234.21163164639347,189.25967311587024 232.72277999422334,191.58358164201636 230.82394259466687,193.77414729264584 228.51447201346227,195.78221763826306 225.79889095085113,197.5571912134792 222.6871857141519,199.0475358880415 219.19505149086163,200.20135307023364 215.34408314655815,200.96698377815224 211.16190552936683,201.29365182748282 206.68223761236433,201.13213860391073 201.944885248842,200.43548312433919 196.99565785361355,199.15970035426153 191.88620495617397,197.2645100499307 186.67376929695044,194.7140677446297 181.42085395332276,191.47768890975763 176.19480188341157,187.53055680499534 171.06728725738083,182.85440409875895 166.11371900134867,177.43815800146345 161.41255809974749,171.27853842032968 157.04455137855882,164.38059852551547 153.09188571337563,156.75819712240158 149.63726786052413,148.43439236216037 146.76293638310358,139.44174659942462 144.54961342222435,129.82253262785173 143.07540533136174,119.62883209612389 142.41466243210073,108.92251763135694 142.63680934536922,97.7751110752121 143.80515848568854,86.2675112696207 145.9757203587238,74.48958601133798 149.1960252560008,62.53962412295593 153.5039717765618,50.5236450557623 158.92671830528056,38.554565038021735 165.47963412373454,26.751220499707443 173.16532720484452,15.237251328083829 181.97276593082782,4.139848422190738 191.8765119605068,-6.411627999494897 202.83608124331343,-16.287150845044465 214.79544972187273,-25.357638785766568 227.682719573311,-33.4966664437126 241.40996090418946,-40.58225743135594 255.87324263055373,-46.49874353105548 270.9528648411058,-51.13867136125705 286.51380325902,-54.40473603783536 302.4063744907264,-56.21171963228636 318.46712858561875,-56.48841068365658 334.5199730401792,-55.17947966825568 350.3775297780386,-52.24728420000119 365.8427238421972,-47.67357685360213 380.71059956886745,-41.46108790047549 394.77035689957785,-33.63495494940548 407.80759725822793,-24.243971514611246 419.60676510507705,-13.361626914717249 429.9537679157087,-1.0869106558356236 438.63875395841217,12.45514441407957 445.45902389942626,27.11320436254212 450.22204899574086,42.70968409122568 452.7485654853099,59.04112482613334 452.8757118018084,75.87891634527622 450.46017247375494,92.9703779684125 445.38129006479386,110.04020880694844 437.54410432201576,126.79231387878649 426.88227587059816,142.91200845657795 413.3608503727422,158.0685984682127 396.9788181018576,171.91832994108532 377.77142341160845,184.10769541815415 355.8121786428494,194.27708002123967 331.21453764464593,202.06472444804345 304.13318531883033,207.11097672195075 274.76490145567504,209.0627990305254 243.34895963006286,207.5784905568984 210.1670250849508,202.33258189899243 175.54251934661272,193.02085155896546 139.839423790823,179.3654101461638 103.46049949915705,161.1197934497666 66.84490648945325,138.07400148156586 30.46521174459218,110.0594170443015 -5.176217639881486,76.95353442497566 -39.55143246477144,38.68442652176378 -72.11171901461415,-4.7651228392903136 -102.29299640961034,-53.35389538711766 -129.52176536742007,-106.9789975523804 -153.22157126003907,-165.47317509053022 -172.81993546580253,-228.60275396546075 -187.75570010851186,-296.0662752337162 -197.48672245404106,-367.49388757847953 -201.49784661506482,-442.44755598621975 -199.30907191752334,-520.4221388297003 -190.48382943293592,-600.847378324718 -174.63727090630357,-683.0908409837268 -151.4444677391255,-766.4618353310174 -120.64841194986883,-850.216323819963 -82.06770625730786,-933.5628346666056 -35.60382673909825,-1015.6693672649697 18.752160972543635,-1095.6712720726423 80.91355217271227,-1172.6800724605869 150.69274021776323,-1245.7931821341172 227.79685853720028,-1314.104457492254 311.82444241287135,-1376.7155098538833 402.2632204257095,-1432.7476880073787 498.489138779839,-1481.354627213739 599.7667132914771,-1521.735246799533 705.2507936644326,-1553.1470650115346 813.9898127749893,-1574.9196870729395 924.9305800881763,-1586.468310588649 1036.9246630805706,-1587.3070818043045 1148.7363837308235,-1577.0621269396672 1259.0524388625272,-1555.4840750981475 1366.4931335142057,-1522.4598833018174 1469.625195722747,-1478.0237702072486 1566.9761193191616,-1422.367063202965 1657.0499587533754,-1355.8467640406243 1738.3444768154725,-1278.9926410579799 1809.3695226543853,-1192.5126615405054 1868.6664939822629,-1097.2965859451115 1914.8287140830635,-994.4175566517963 1946.5225315227535,-885.1315276666508 1962.5089286059053,-770.8743982896663 1961.6654039687282,-653.2567331666677 1943.0078755794639,-534.0559733136439 1905.7123331739747,-415.2060675429942 1849.1359541274642,-298.78448110472567 1772.837384288153,-186.9965681111422 1676.5958757012415,-82.157326229646 1560.4289667439225,13.329414047293994 1424.608387267891,96.99427780614857 1269.6738721744898,166.32798731893428 1096.4445716699179,218.80919474682486 906.0277554724711,251.93430569604777 699.8245216380119,263.2490551784145 479.5322385615857,250.3815597325602 247.1434711797638,211.07653257010224 4.941169467341808,143.2303131428066 -244.51007103512484,44.926329019084534 -498.3768307971741,-85.52942304116323 -753.5738836450786,-249.5733178615656 -1006.7854789552412,-448.34992984491237 -1254.4909093327856,-682.6792337233811 -1492.9943324749959,-953.0256790717951 -1718.4587608911359,-1259.4696498717783 -1926.9440755099085,-1601.6818250227698 -2114.44885949605,-1978.9009541962278 -2276.955787422014,-2389.915555430911 -2410.48024296245,-2833.0500260345175 -2511.121776215659,-3306.1556364171456 -2575.1179503733315,-3806.606847231534 -2598.900067567256,-4331.303353508522 -2579.150206164125,-4876.678215312075 -2512.858947429235,-5438.712382844766 -2397.383119227983,-6012.95586505646 -2230.5028391802507,-6594.555724890923 -2010.4771003244537,-7178.291011694803 -1736.0971097699232,-7758.614662467754 -1406.7365658779754,-8329.70231911231 -1022.3980430346817,-8885.507919321415 -583.7546458346494,-9419.825824997613 -92.18609719262611,-9926.359155014097 450.1915618286405,-10398.793889689021 1040.503458297291,-10830.878213630138 1675.101321674402,-11216.506462783262 2349.557580103851,-11549.806941833418 3058.6687728570223,-11825.232780878816 3796.4688609916884,-12037.654906896862 4556.252934149174,-12182.456117368953 5330.611715450932,-12255.625161974807 6111.4771590636055,-12253.849664966734 6890.17931675539,-12174.606657152628 7657.514521405946,-12016.249433785235 8403.824797879062,-11778.089414471979 9119.088266017203,-11460.471654818528 9793.020148038402,-11064.84264814946 10415.183834749245,-10593.809060461203 10975.111303336344,-10051.18606378002 11462.43201581873,-9442.033973197731 11867.009263436785,-8772.681951754254 12179.082760349214,-8050.737625555852 12389.416132147666,-7285.081549378512 12489.447793116475,-6485.845580611867 12471.44356316683,-5664.3743566027 12328.64924331443,-4833.169226869892 12055.441249825299,-4005.8141666230777 11647.473304090934,-3196.88339059062 11101.817090247423,-2421.830595134442 10417.094727786947,-1696.8599804976259 9593.600864087248,-1038.7794420081748 8633.412173936502,-464.83656707967407 7540.482061618598,7.461668439469975 6320.718397603958,360.5443482231731 4982.042187786855,576.9857853721219 3534.42516967067,639.7267257643814 1989.904457775154,532.3056333846232 362.572520338255,239.09784985589718 -1331.4590387413027,-254.4398256173322 -3074.123195063484,-961.5218216589012 -4845.4897634330055,-1893.786645350975 -6623.886964557343,-3061.0529903279116 -8386.052747601485,-4471.082361373886 -10107.315977303384,-6129.351611998365 -11761.80723005065,-8038.838895854453 -13322.698557796492,-10199.826600704317 -14762.471175322686,-12609.724861630124 -16053.20960896373,-15262.919235322786 -17166.920417740675,-18150.646056867397 -18075.873165576104,-21260.89889218553 -18752.960890909784,-24578.369341334426 -19172.076892977817,-28084.425238835287 -19308.504237927205,-31757.12903628963 -19139.31398872262,-35571.29883951662 -18643.767786557248,-39498.61420770484 -17803.7200644267,-43507.76840669822 -16604.014861935495,-47564.6683443025 -15032.87194053014,-51632.68290490808 -13082.256676343162,-55672.93984702351 -10748.228039657612,-59644.670834510005 -8031.258861356024,-63505.60354514544 -4936.52254294274,-67212.39914413591 -1474.1403927132203,-70721.1327315662 2340.616129265641,-73987.81367845292 6487.173796780378,-76968.94206363278 10939.561914380358,-79622.09672138517 15666.3774644807,-81906.54971617002 20630.815617487282,-83783.90138541815 25790.769607002687,-85218.72944351556 31099.003377418267,-86179.24502991792 36503.3997342228,-86637.94802180397 41947.28597108063,-86572.2734270305 47369.838116250685,-85965.22023654409 52706.564039535675,-84805.9537568118 57889.86469620134,-83090.37217195312 62849.67176395203,-80821.62791133614 67514.15886205048,-78010.59433008391 71810.52243818402,-74676.26825516259 75665.82727999255,-70846.09911553118 79007.91046662854,-66556.23566722487 81766.33643466642,-61851.68174807704 83873.39470634505,-56786.35305558613 85265.13073150361,-51423.027637283056 85882.39924329535,-45833.18361638601 85671.92853795782,-40096.718645389185 84587.3831769966,-34301.54668358341 82590.41179267653,-28543.068926576147 79651.66597120804,-22923.5170699573 75751.7756086728,-17551.16855667052 70882.26569828902,-12539.435027729352 65046.399229075265,-8005.8268560335455 58259.93076936,-4070.7983785276747 50551.75538675647,-856.4802363070935 41964.437830577095,1514.692932893585 32554.60738292929,2921.4493501978995 22393.20447872482,3245.2295455948665 11565.5661082358,2371.804619637777 171.33815197412147,192.94775357418268 -11675.795842664571,-3391.8583014722194 -23848.578352300818,-8473.696631241643 -36206.841147323765,-15132.494814338757 -48598.373244903596,-23435.328505056437 -60859.996444842036,-33434.77276387179 -72818.84895925834,-45167.32489247457 -84293.8750921775,-58651.923233396265 -95097.51622445168,-73888.5868403752 -105037.59553694868,-90857.20109175291 -113919.38598751942,-109516.47418463118 -121547.84807485848,-129803.08899376476 -127730.02090774497,-151631.073990497 -132277.5470866317,-174891.41578083526 -135009.30893381612,-199451.93432887315 -135754.15071817345,-225157.44007689005 -134353.65875198657,-251830.18995544218 -130664.96863338302,-279270.6566987927 -124563.56651168749,-307258.62295123143 -115946.04910835103,-335554.6083809378 -104732.80537654206,-363901.63442809164 -90870.58117076047,-392027.3274260582 -74334.8871654055,-419646.35667711863 -55132.20954755564,-446463.19967100443 -33301.982751257034,-472175.22204431664 -8918.283732081867,-496476.0551357096 17908.791968493162,-519059.2491441756 47032.1108237753,-539622.1749992769 78266.87518179757,-557870.1431602475 111390.42453816232,-573520.702736794 146142.49534657763,-586308.0796327441 182225.9668729912,-595987.7079217123 219308.11639580323,-602340.8044408304 257022.40227982216,-605178.932704944 294970.78812656685,-604348.4987705959 332726.61535757844,-599735.1186871884 369838.0252584386,-591267.7947315015 405831.9247456131,-578922.8357984902 440218.4829709044,-562727.4561799731 472496.13841262256,-542762.9865634452 502157.0883900923,-519167.6314804385 528693.2250582473,-492138.7086759219 551602.473978532,-461934.30799852277 570395.4834150097,-428874.310458539 584602.6046699145,-393340.71209057095 593781.0961561085,-355777.202203581 597522.4766143294,-316687.9515058519 595459.946033239,-276635.5724463377 587275.7865348855,-236238.22189568894 572708.6498627107,-196165.82496509736 551560.6332684342,-157135.4082809143 523704.0416509107,-119905.54133596043 489087.7308635316,-85269.89554885091 447742.9252808179,-54049.942290878804 399788.40209671826,-27086.82328281339 345434.9355053363,-5232.439304760142 284988.8959677195,10660.184028351761 218854.90326252286,19747.18173638148 147537.4370068959,21204.701587833675 71641.31485478039,14240.225532946542 -8129.0433454557115,-1895.7492349087483 -90971.63751990133,-27897.791110260292 -175990.2563761796,-64393.50943042903 -262199.24167996296,-111931.56719088505 -348529.681902328,-170969.88306970487 -433837.053838991,-241864.1825422307 -516910.31403214135,-324857.0642365144 -596482.4239095912,-420067.7524098202 -671242.2736397405,-527482.7093473343 -739847.9499531676,-646947.2824390309 -800941.2727923043,-778158.559535747 -853163.5048304193,-920659.6027940621 -895172.116880011,-1073835.2254838801 -925658.4712368904,-1236909.4680671047 -943366.2643437864,-1408944.9191993652 -947110.5500840154,-1588844.0141250284 -935797.1458209186,-1775352.427223669 -908442.2052800149,-1967064.6572498565 -864191.7258309205,-2162431.8831462325 -802340.7429700099,-2359772.14529584 -722351.9521355579,-2557282.8818423855 -623873.4877019504,-2753055.8224113155 -506755.5813862563,-2945094.2124123 -371065.81763264106,-3131332.31033325 -217102.70207300517,-3309657.0683215433 -45407.26112861656,-3477931.8731994256 143227.6035772178,-3634022.191220869 347750.27290725877,-3775822.925720747 566846.3335417904,-3901287.2627381654 798937.5030772602,-4008456.7461439045 1042183.7714937009,-4095492.29121888 1294488.9479584778,-4160705.814486798 1553509.772233356,-4202592.128383702 1816668.7162802476,-4219860.722542251 2081170.5641722558,-4211467.029574206 2344022.817321076,-4176642.7527433843 2602059.927599375,-4114924.816316274 2851971.3134964257,-4026182.487124743 3090333.0643859175,-3910642.208419456 3313643.185754048,-3768909.6848478355 3518360.1843375578,-3601988.7607328924 3700944.7371145296,-3411296.6430924754 3857904.1325857514,-3198675.0363036157 3985839.11743774,-2966396.7772061825 4081492.727189897,-2717167.587912656 4141800.6265330166,-2454122.5987330712 4163942.434528711,-2180817.335445194 4145393.4624464414,-1901212.9135674525 4083976.24856697,-1619655.2371658816 3977911.23558229,-1340848.0607952839 3825865.9030726487,-1069819.8400945528 3627001.6407250897,-811884.3688859576 3381017.6282323124,-572595.2778305131 3088190.9758965573,-357694.5511327654 2749412.3765314356,-173055.3027384788 2366216.524916936,-24619.141107404186 1940806.5763563039,81671.45894155718 1476071.9412646706,139945.2686151926 975598.7485470388,144478.30314864728 443672.3570516244,89773.01832194124 -114728.64824819753,-29360.067486476506 -693947.47047193,-217719.18069614217 -1287673.5416314225,-479627.46122669993 -1888976.716780406,-818849.4947881481 -2490351.448815844,-1238509.2737187524 -3083771.062275748,-1741010.704959062 -3660752.1267505684,-2327961.827057957 -4212428.8049047645,-3000103.9298629565 -4729636.917625276,-3757246.7895832737 -5203007.330663358,-4598211.2371417405 -5623068.124654648,-5520780.268161165 -5980354.865071104,-6521659.877689515 -6265528.142095287,-7596450.761121349 -6469497.404353255,-8739631.964139914 -6583549.966747115,-9944557.48847611 -6599483.933239167,-11203466.766639505 -6509743.642377034,-12507509.807505904 -6307556.118694944,-13846787.685952175 -5987066.898990911,-15210408.90404473 -5543473.500990528,-16586561.989284534 -4973154.715172527,-17962604.51801934 -4273793.830618424,-19325168.560521778 -3444493.854652358,-20660282.339833234 -2485882.755656187,-21953507.680977944 -1400206.7505424025,-23190092.602492932 -191409.67454823357,-24355138.170581695 1134803.4873103711,-25433778.499993667 2570920.759426744,-26411372.547596894 4107596.78175596,-27273706.107371483 5733647.494998067,-28007202.18222769 7436067.383998164,-28599137.68180337 9200070.57702973,-29037864.179513283 11009156.888807783,-29313030.259982873 12845203.657675415,-29415802.803046413 14688583.963523876,-29339084.38616215 16518311.524154937,-29077723.846834388 18312212.25589431,-28628716.933783475 20047122.151653554,-27991393.893412147 21699110.779064175,-27167590.789653927 23243729.33593485,-26161801.343426384 24656281.82365661,-24981306.10523479 25912117.51524211,-23636275.843278464 26986942.507714156,-22139846.141618285 27857147.763169583,-20508160.360077642 28500150.663935907,-18760378.310637824 28894746.73995976,-16918648.254683875 29021467.87626414,-15008040.121590253 28862942.98048279,-13056438.19122566 28404256.79070399,-11094391.869830707 27633302.237750307,-9154923.618570656 26541121.549136784,-7273293.564411919 25122231.099751588,-5486720.83068476 23374924.882039927,-3834062.165957008 21301551.391139224,-2355449.020171207 18908758.702647857,-1091884.811241056 16207702.566729557,-84804.73767329431 13214212.455749169,624398.8831273598 9948910.686721722,994882.1423762747 6437279.996965717,986881.6986811185 2709675.2831794997,562268.7181582614 -1198724.378419201,-314880.8502503042 -5248026.830238801,-1677705.6788325652 -9393803.891440168,-3555974.6908000344 -13587336.587380469,-5975505.947765058 -17775930.061620533,-8957596.258104142 -21903298.915957924,-12518469.336303163 -25910022.897592764,-16668750.63755857 -29734071.971846305,-21412977.204747804 -33311398.8911175,-26749150.988261588 -36576596.40441378,-32668344.125619188 -39463615.256227784,-39154364.590413615 -41906538.10919692,-46183490.43298287 -43840403.5032384,-53724280.53325062 -45202072.946908504,-61737469.36548969 -45931133.237567894,-70175952.73262122 -45970825.139158815,-78984870.76267199 -45268988.624169774,-88101793.67223775 -43779014.02418314,-97457014.8927909 -41460787.64603661,-106973955.12864198 -38281619.71287459,-116569679.77517307 -34217141.89590838,-126155530.87922204 -29252161.227905985,-135637873.47856972 -23381456.847159397,-144918954.7245575 -16610505.824045246,-153897872.68282104 -8956124.283521682,-162471650.13569698 -447010.1670339215,-170536407.09137675 8875825.713969577,-177988624.05635333 18958753.185258377,-184726486.46760044 29735352.941614192,-190651299.0291708 41126394.78109529,-195668957.0755347 53039974.03409529,-199691460.51322508 65371815.0944743,-202638454.39616615 78005749.47808625,-204438778.79206377 90814374.16050494,-205032009.32139304 103659894.08855811,-204369968.62088662 116395150.73028061,-202418188.0238558 128864836.33874929,-199157297.98349363 140906891.27353224,-194584325.21498266 152354079.26866454,-188713874.2191204 163035732.98039472,-181579170.7939744 172779659.51652637,-173232945.35979515 181414192.96962348,-163748134.43166432 188770378.2788058,-153218379.38731253 194684268.06163818,-141758302.8043921 198999311.42313984,-129503544.08931053 201568811.19909883,-116610537.8918907 202258423.66327664,-103256020.8964704 200948672.46084675,-89636254.99602051 197537446.4627926,-75965957.5830206 191942449.40671104,-62476932.715868145 184103567.63769865,-49416400.22508238 173985121.02610713,-37045023.38689973 161577961.25398785,-25634639.586241864 146901381.1629976,-15465702.384515304 130004798.77606499,-6824447.564124954 110969179.97163685,199.9999998641022" stroke="white" stroke-width="1.5" /></svg>