<?xml version="1.0" encoding="utf-8" ?>
<svg baseProfile="full" height="400" version="1.1" width="400" xmlns="http://www.w3.org/2000/svg" xmlns:ev="http://www.w3.org/2001/xml-events" xmlns:xlink="http://www.w3.org/1999/xlink"><defs /><rect fill="black" height="100%" width="100%" x="0" y="0" /><circle cx="200" cy="200" fill="yellow" r="12.525944155739973" stroke="orange" stroke-width="2" /><polyline fill="none" points="199.11404947010718,200.0 199.06229726915535,199.95077489013326 199.01354858162549,199.8961454140609 198.9684398479253,199.8363396124766 198.92759921305435,199.77166224246108 198.8916379708848,199.70249602709478 198.8611416389281,199.6293020156365 198.83666074966996,199.55261899011168 198.8187014538409,199.4730618617154 198.80771603971039,199.39131900920904 198.80409348050097,199.30814852144434 198.80815012916915,199.22437331724183 198.82012068594676,199.1408751280197 198.8401495690324,199.05858734173495 198.86828282253308,198.97848672076282 198.9044606980457,198.9015840211917 198.94851104701337,198.82891355651236 199.00014366008162,198.76152176468653 199.05894568701282,198.70045485392419 199.12437826621093,198.6467456189999 199.19577448649324,198.60139953640322 199.2723387953768,198.56538026283707 199.35314795779445,198.53959467733463 199.43715365681595,198.52487762233227 199.5231868136462,198.52197651317857 199.60996368794582,198.53153599854173 199.6960938014509,198.5540828657587 199.7800897080496,198.59001139511176 199.86037861204343,198.63956937508922 199.93531581342992,198.70284499666 200.0031999348846,198.77975484825143 200.0622898599052,198.87003323426862 200.11082328555517,198.9732230384436 200.14703676667511,199.0886683488993 200.1691871016137,199.215509054414 200.17557388278206,199.3526776108718 200.16456300899466,199.4988981632057 200.1346109309773,199.6526881912387 200.0842893769746,199.81236282770047 200.0123102824481,199.97604197337506 199.91755062681182,200.14166030789812 199.79907686139532,200.30698026528668 199.65616859673682,200.46960801101898 199.4883412042736,200.62701242259675 199.29536697787873,200.77654703827602 199.0772944948407,200.91547489935073 198.83446581412088,201.04099617036758 198.56753115234912,201.15027837933596 198.27746068529018,201.2404890768118 197.96555313465623,201.3088306691604 197.6334408173251,201.3525771378524 197.28309085637687,201.36911231387208 196.91680228095112,201.3559693347923 196.53719877475652,201.310870872398 196.14721687108417,201.2317696815372 195.75008943525157,201.11688898677187 195.3493243233457,200.96476219302485 194.94867815866624,200.77427138039945 194.55212522404832,200.5446840222999 194.16382152884933,200.2756873505019 193.7880641733125,199.96741978147364 193.42924619970563,199.62049881556013 193.09180718842507,199.23604482509458 192.78017992744287,198.81570015951323 192.49873355427633,198.36164301548197 192.25171364023544,197.8765955481753 192.04317975616152,197.36382573638184 191.87694112627085,196.82714255915283 191.75649104108416,196.27088409526868 191.6849407607509,195.69989821878306 191.66495369534834,195.11951563409917 191.6986806979204,194.5355150721245 191.7876973481007,193.95408055458805 191.93294413814203,193.38175072602806 192.13467049808003,192.82536035157568 192.3923836116789,192.29197418266267 192.704802978886,191.7888135012321 193.0698216729813,191.3231757648825 193.48447522076532,190.9023478894611 193.94491900140576,190.53351382067336 194.44641501350569,190.22365716092568 194.98332880023992,189.9794597304142 195.54913724886583,189.80719705088583 196.1364478935325,189.71263184494245 196.7370302492521,189.70090674160127 197.34185959049972,189.77643746840607 197.94117346070112,189.94280789003608 198.5245410595775,190.20266832142755 199.08094550486678,190.55763859828232 199.59887880445376,191.00821742792382 200.06644920574348,191.55369956728273 200.47150041272266,192.19210238096898 200.80174197928721,192.92010331965218 201.04489000196415,193.73298982622433 201.18881704819103,194.6246231235202 201.22171007005952,195.58741726198923 201.13223487024666,196.61233470813275 200.9097055092323,197.6888996344693 200.5442568734146,198.8052299292563 200.02701846504357,199.94808877944666 199.35028732968976,201.10295649395545 198.50769790796252,202.254123027122 197.49438648807848,203.38480143546403 196.3071478472923,204.47726225593863 194.94458160568058,205.51298853278786 193.40722577773053,206.47285094481012 191.6976749978762,207.33730219804676 189.82068091758242,208.08658955319274 187.7832323256008,208.70098405562024 185.59461263111191,209.1610247321088 183.26643247282067,209.44777571582642 180.81263537650295,209.54309396364795 178.24947457945373,209.42990494157465 175.59545937276133,209.09248337902665 172.87126958088618,208.51673593543535 170.09963710173122,207.6904823872479 167.3051937678277,206.6037317345708 164.51428515849048,205.2489494485987 161.7547503913515,203.62131193796938 159.05566834656844,201.71894420839047 156.4470712247051,199.54313662921157 153.95962680574357,197.09853670671046 151.62429125737998,194.39331180003126 149.47193483063467,191.43927880485603 147.53294327440696,188.25199697445058 145.8367982920253,184.85082024961272 144.41164084582738,181.2589057295957 143.28382158378048,177.5031752359632 142.47744310828878,173.61422730055986 142.0138992246215,169.62619734659785 141.91141668770675,165.5765643267506 142.18460530422328,161.5059026317742 142.84402253487985,157.45757868436962 143.895758972565,153.47739228173364 145.3410512389686,149.61316344163447 147.1759289389711,145.91426623514545 149.3909023326584,142.43111184778732 151.97069732389303,139.21458389236102 154.8940442172617,136.31542979301122 158.13352645797153,133.78361286212282 161.65549523880964,131.66763048993246 165.42005543246833,130.0138046510491 169.38112778529236,128.86555169172982 173.48659168985427,128.26263908564243 177.67851213995198,128.2404375225728 181.89345366515667,128.82917731251518 186.06288314674177,130.05321863520277 190.11366243788308,131.9303456308624 193.9686306550173,134.47109470053567 197.54727488214797,137.67812765282576 200.7664868450682,141.54566048808914 203.54140187866656,146.05895864132233 205.78631523976173,151.19390940262238 207.41566952360853,156.91668199150232 208.34510563885667,163.18348537216966 208.49256849892708,169.94043335612582 207.77945731407047,177.1235258427116 206.13180913518343,184.65875419576957 203.48150312583078,192.4623377455363 199.76747194139196,200.44109724127097 194.93690559263428,208.49296976610353 188.94643228419565,216.50766816741216 181.76325996515766,224.36748646220423 173.3662617274168,231.94825095821713 163.7469877555693,239.1204150007903 152.9105862862357,245.75029332826628 140.8766159906977,251.70143001225887 127.67973236644555,256.8360918932462 113.3702311230847,261.0168773183102 98.01443218628509,264.1084278701114 81.69488882814244,265.9792286697411 64.51040756892831,266.5034807679035 46.57586588648394,265.5630271372344 28.021816415195588,263.0493118728167 8.993868213151018,258.8653504282439 -10.348162183071622,252.92768709147867 -29.831334821773453,245.16831446894918 -49.2709078286681,235.53652852821529 -68.4718958422963,224.00069177886076 -87.23086192754198,210.54987647666215 -105.33793636758475,195.19535934470437 -122.57905247200222,177.9719392420954 -138.73838618029924,158.93904949909432 -153.60098282131872,138.18163729671332 -166.9555509482566,115.81078351585124 -178.59739974769354,91.96403792870237 -188.33149316302644,66.80544646238761 -195.97559062397482,40.52524953579626 -201.36344118216726,13.33923315496861 -204.34799496716096,-14.512282455717525 -204.80459324733664,-42.76582842093623 -202.63409605576868,-71.1365548468566 -197.76590437176884,-99.32038416027325 -190.1608322826723,-126.99654924308521 -179.81378343398404,-153.8305106041687 -166.75618545333424,-179.4772417312036 -151.05813594555877,-203.58486645907698 -132.83021413954492,-225.7986267313156 -112.22491335454583,-245.76515357418526 -89.43765117135911,-263.1370085123007 -64.70731656296613,-277.57745709707194 -38.3163162741144,-288.7654307664677 -10.59008644671934,-296.40062798124563 18.103960133214628,-300.20870056656855 47.35807575070504,-299.9464665085032 76.72642733813151,-295.40708619296987 105.72796651176127,-286.42513531131385 133.84992578827644,-272.8815044720063 160.55193928998372,-254.70805303042067 185.27077836077154,-231.89194285362805 207.42568421905344,-204.47957674612599 226.42427114469632,-172.58006614152828 241.6689648192875,-136.36815347425687 252.56393140684503,-96.0865164364696 258.52244387722766,-52.04738414227191 258.97462304654107,-4.633399097386416 253.37548195388655,45.702336169414195 241.21319363358407,98.43708290579166 222.01749420277312,152.98020831725302 195.368125595469,208.67588586480164 160.90321536701438,264.80678415175 118.32748489898476,320.59876461171416 67.42017218425272,375.22659701012276 8.042551292352783,427.8206897095382 -59.855072271025904,477.4748188170055 -136.22701267384411,523.2548268375738 -220.9266238611284,564.2082474255944 -313.70160982397556,599.3747983928986 -414.19034325613904,627.7976704532784 -521.9193062019993,648.5355244217865 -636.3017599594756,660.6750949236152 -756.6377434022286,663.3442842894178 -882.1154890106438,655.7256164200644 -1011.8143342543124,637.0699071991689 -1144.709192576315,606.7099957267021 -1279.6766331413012,564.0743694549824 -1415.5026017992336,508.70050644306093 -1550.8917974839635,440.24774961855115 -1684.478698635502,358.50952135396074 -1814.840213357426,263.4246820262853 -1940.5099050726126,155.087833721812 -2059.9937226226843,33.75837004695214 -2171.7871402949118,-100.13192473299858 -2274.3935894035385,-245.9729191448264 -2366.344039070929,-402.9720048925624 -2446.217560037541,-570.1519681478137 -2512.6626819860035,-746.3510224839536 -2564.419332315424,-930.2251480749649 -2600.3411228812915,-1120.252862783426 -2619.4177312661113,-1314.7425289310129 -2620.7971050128926,-1511.842274960713 -2603.807201284798,-1709.5525839839397 -2567.9769609540936,-1905.741571520838 -2513.056205506255,-2098.1629427910593 -2439.0341376945985,-2284.4765859424656 -2346.156122900726,-2462.271721902451 -2234.9384279290307,-2629.0924944298936 -2106.1805977436993,-2782.465845802619 -1960.9751586650268,-2919.9314848004133 -1800.714348962445,-3039.073714677489 -1627.0935947553944,-3137.5548501329054 -1442.1114707535794,-3213.149914382406 -1248.0659116778397,-3263.7822708346794 -1047.5464711885743,-3287.5598091219354 -843.4224607379499,-3282.811272884608 -638.8268408205586,-3248.1222873264533 -437.135781426614,-3182.3706187046196 -241.94385683498405,-3084.760176154647 -57.03489188971912,-2954.853249122362 113.65146782019313,-2792.600461700146 266.0573313788415,-2598.3679188459423 396.04809271402405,-2372.961019248955 499.45766266012254,-2117.644415916183 572.1370870288094,-1834.1576187382354 610.0061714866312,-1524.7257536577342 609.1076711971428,-1192.0650208255572 565.6635416335125,-839.3824294509241 476.132687556108,-470.369429986244 337.2695907624166,-89.18911482311091 146.18314475644436,299.543283316194 -99.60502313213169,690.7868008424738 -402.10350350593933,1079.1081939762435 -762.7961270528245,1458.722485306422 -1182.5898812520306,1823.5405762608045 -1661.7665650324943,2167.2238055816406 -2199.939034820907,2483.2452394306188 -2796.0128955129217,2764.9573806172352 -3448.154479386585,3005.665883628602 -4153.765934273134,3198.708759711706 -4909.468208926781,3337.540453386386 -5711.09267812716,3415.8200697007574 -6553.682092361098,3427.502931600358 -7431.501466866478,3366.9345503595596 -8338.05944241257,3228.9460005461956 -9266.14055564985,3008.949605935487 -10207.848750536412,2703.0337656370302 -11154.662344788343,2308.0556819460535 -12097.500537199317,1821.7306945420485 -13026.801403936533,1242.7168810762778 -13932.61118559709,570.6935532880443 -14804.684513161192,-193.56773812740795 -15632.595061414406,-1048.1410764107886 -16405.855954530114,-1989.8942983691795 -17114.049082046546,-3014.4486939898366 -17746.96231634531,-4116.151564569177 -18294.733456969356,-5288.062843608278 -18747.999564864025,-6521.956890490858 -19098.050193139774,-7808.340452605773 -19336.982872568682,-9136.487657179145 -19457.859072133295,-10494.492739969059 -19454.858729957417,-11869.34104474815 -19323.431340290634,-13246.998636028782 -19060.44149027586,-14612.520658932703 -18664.30666833686,-15950.178355922426 -18135.12511641819,-17243.6044120389 -17474.79147309857,-18475.956050356843 -16687.09795573437,-19630.095039895405 -15777.818859017643,-20688.78351179215 -14754.77620617584,-21634.894209015965 -13627.884478743279,-22451.633523342723 -12409.172472358863,-23122.775404069413 -11112.780479996254,-23632.90395948336 -9754.931190683768,-23967.662318119805 -8353.872910975635,-24114.00507610626 -6929.793967660382,-24060.45143331032 -5504.7074324422865,-23797.33591848265 -4102.305621189859,-23317.05342608311 -2747.784159898387,-22614.295138837308 -1467.6357744086965,-21686.27179412195 -289.41434830579163,-20532.920672605625 758.5298000131377,-19157.092647644997 1647.3420481422656,-17564.715636864657 2347.981202223056,-15764.930846013796 2831.560585421243,-13770.19829201857 3069.709795264673,-11596.36823916077 3034.9540054195263,-9262.715381075404 2701.1072596851,-6791.932852706044 2043.6757937257287,-4210.083460962681 1040.2670294859754,-1546.5058802812619 -329.00047531505083,1166.3260312325388 -2081.091168383758,3892.9921795815203 -4229.656067889417,6595.364323198938 -6784.651324784149,9232.893625672592 -9751.977542898558,11762.947402861371 -13133.145745258053,14141.194164152485 -16924.97593831326,16322.03538630062 -21119.334219267792,18259.081772158268 -25702.914290754532,19905.671042428872 -30657.069087861233,21215.423593996115 -35957.6979815855,22142.831641504123 -41575.19469782842,22643.87674853642 -47474.460680334494,22676.669960160583 -53614.98812901821,22202.108079539692 -59951.01636218574,21184.538997723448 -66431.7644838733,19592.42839794655 -73001.74258840852,17399.01962409581 -79601.14290732855,14582.9780378852 -86166.31140390468,11129.01080091049 -92630.29935414204,7028.452716122291 -98923.49342776691,2279.8085579295575 -104974.32170716356,-3110.7577798892567 -110710.03196658533,-9128.996975718039 -116057.53738931449,-15752.22033372543 -120944.32373920006,-22949.02746014898 -125299.41083839849,-30679.124427991064 -129054.36004951932,-38893.24076433251 -132144.3183327559,-47533.152923651774 -134509.08836280613,-56531.82109947636 -136094.21316268685,-65813.64527606918 -136852.0627586684,-75294.84533415997 -136742.9094993225,-84883.96880431473 -135735.97792895578,-94482.52851468767 -133810.45447812314,-103985.77091490927 -130956.44174767929,-113283.57428504857 -127175.84183343027,-122261.47437028453 -122483.15298050219,-130801.81323248756 -116906.16388352396,-138785.00529570508 -110486.53017261653,-146090.9127017436 -103280.2180564728,-152600.3202047375 -95357.80074096116,-158196.49794143392 -86804.5941111319,-162766.83854017442 -77720.61926033879,-166204.55320071342 -68220.38077386767,-168410.40961474623 -58432.451224902106,-169294.4929299019 -48498.854113614696,-168777.96941495076 -38574.23946863465,-166794.8310886963 -28824.84852369018,-163293.59835661695 -19427.266267403178,-158238.95668504635 -10566.963224100911,-151613.30255854258 -2436.630538046742,-143418.1734376021 4765.684720813673,-133675.53618432797 10838.634161185744,-122428.90847527966 15579.799691259164,-109744.28809260429 18788.086195008964,-95710.86569394707 20266.25622853288,-80441.49772187237 19823.584657450192,-64072.91753542029 17278.608183573866,-46765.66463595161 12461.941848786983,-28703.714019545896 5219.131899306968,-10093.790216263846 -4586.488111477755,8835.646533635518 -17070.973364318197,27835.751277260068 -32327.013314380463,46638.98825885741 -50421.28572500933,64961.16959755837 -71391.95945382332,82503.83642268226 -95246.38709841108,98956.9757400109 -121959.02900270889,114002.06167386445 -151469.65002914052,127315.40493255731 -183681.82988429925,138571.7894272313 -218461.8266197328,147448.36998897218 -255637.83119255645,153628.80013450887 -294999.6486459367,156807.55388760805 -336298.83854715986,156694.40083699007 -379249.3437966662,153018.98896955876 -423528.63279936835,145535.48543054116 -468779.3752802355,134027.2213009451 -514611.66674956505,118311.28282034537 -560605.8108064843,98242.98829131106 -606315.6621489214,73720.18725231182 -651272.5263787291,44687.31646771277 -694989.6055062498,11139.145923007187 -736966.97053074,-26875.852607147022 -776697.0346732596,-69252.58167378565 -813670.4928449307,-115826.90518195169 -847382.6848329903,-166373.81064535718 -877340.3315728176,-220606.20813418017 -903068.5858468026,-278174.4235814965 -924118.3309155151,-338666.43934063584 -940073.6530541099,-401608.92913497676 -950559.4068508078,-466469.12781933846 -955248.7855412976,-532657.5686969255 -953870.802720493,-599531.7125390423 -946217.586608682,-666400.4829822567 -932151.3837684563,-732529.7126880757 -911611.1658842304,-797148.4936170499 -884618.7310353181,-859456.4130798997 -851284.1899176078,-918631.6449843589 -811810.7277903588,-973839.8530128918 -766498.5346269009,-1024243.8494719276 -715747.7991019402,-1069013.9403882776 -660060.6667121217,-1107338.8742456706 -600042.0685431638,-1138437.2987161642 -536399.3349935557,-1161569.6170202498 -469940.5181495093,-1176050.1233241775 -401571.35746909166,-1181259.2850399201 -332290.8359437629,-1176656.0292203133 -263185.28791161126,-1161789.880631582 -195421.03512368863,-1136312.7907269613 -130235.5444169821,-1099990.4898281049 -68927.11830432474,-1052713.1895258287 -12843.148810951798,-994505.4588154074 36633.01519655981,-925535.095945599 78096.516317831,-846120.8185378091 110136.66056615768,-756738.5973538653 131353.69956309465,-658026.4642761811 140376.58816830674,-550787.6327030379 135881.5615558145,-435991.77872663765 116611.35509279008,-314774.34419343685 81394.87053535452,-188433.73805843657 29167.073329613537,-58426.33032203378 -41011.111498052414,73640.84677436593 -129933.15294774667,206019.75280077802 -238227.77876448666,336833.38582516566 -366340.62406217,464090.2318491612 -514516.9451830698,585701.0978868812 -682785.6857300007,699498.2786374466 -870945.1841235239,803256.974310737 -1078550.8110128029,894718.8436284075 -1304904.8201919736,971617.5416831988 -1549048.68815374,1031706.0575681406 -1809758.2049013374,1072785.6318913905 -2085541.56202265,1092735.9998990516 -2374640.663242769,1089546.672396292 -2675035.8576880186,1061348.9344575512 -2984454.2669501984,1006448.2115426874 -3300381.843813243,923356.4245846705 -3620079.263341255,810823.9303932893 -3940601.7061196407,667870.6218288363 -4258822.549053709,493815.74413777184 -4571460.931576526,288305.9700877969 -4875113.114781121,51341.26755424028 -5166287.498312896,-216701.91057746092 -5441443.10533027,-515050.5825205723 -5697031.29002572,-842518.8002801187 -5929540.365697396,-1197495.265500251 -6135542.794835862,-1577935.4245402827 -6311744.526838705,-1981358.4416853562 -6455036.0145307295,-2404849.415447878 -6562544.388418759,-2845067.162152381 -6631686.21834713,-3298257.8434707965 -6660220.246752302,-3760274.6604247624 -6646299.43686528,-4226603.7758272085 -6588521.643794995,-4692396.560521819 -6485978.187248738,-5152508.186518 -6338299.582488856,-5601542.5127318585 -6145697.671733724,-6033903.127149644 -5909003.392284471,-6443850.323546136 -5629699.420837643,-6825563.7022280665 -5309946.946299812,-7173209.993537466 -4952605.8464380745,-7481015.611027957 -4561247.577279278,-7743343.349393324 -4140160.128594998,-7954772.55151733 -3694344.454258718,-8110181.980638127 -3229501.852777917,-8204834.548827806 -2752011.8508078936,-8234462.973077715 -2268900.230712094,-8195355.356573831 -1787796.9418709767,-8084439.626572114 -1316883.7439259968,-7899365.702976154 -864831.5477850443,-7638584.224575942 -440727.54616384755,-7301420.624206802 -53992.35868023057,-6888143.3210269585 285712.44411059126,-6400024.788841123 568585.929177466,-5839394.2649373915 784797.8459024315,-5209680.885196704 924606.3221013232,-4515446.069048793 978482.256673671,-3762404.0328443097 937239.3070508906,-2957429.382831533 792168.2261213342,-2108550.829471087 535174.1656966053,-1224930.1733406186 158915.43395682,-316825.8392547575 -343057.92518692574,604459.6209507333 -976167.4700722076,1526648.4758384866 -1744673.448616764,2436573.4542187233 -2651547.543179039,3320280.128149821 -3698353.2386682257,4163145.8848651387 -4885135.81656104,4950015.116627571 -6210323.99199466,5665350.030851027 -7670645.201486974,6293396.248401825 -9261056.513615191,6818362.118229348 -10974693.07286226,7224610.43397492 -12802835.896803554,7496860.995817769 -14734900.72810466,7620402.221560629 -16758449.49497541,7581309.778007678 -18859225.756691214,7366669.9803846665 -21021215.30476596,6964805.497298435 -23226732.85599339,6365500.705038642 -25456535.51185153,5560223.861390403 -27689963.371146757,4542343.119071908 -29905107.371066358,3307333.275866948 -32079004.098312452,1852970.0658412953 -34187856.959363334,179508.7368905315 -36207282.73028367,-1710156.3627460564 -38112582.125371136,-3810354.4497320596 -39879032.63421617,-6112526.425052299 -41482201.48270718,-8605141.547958653 -42898276.17977535,-11273645.617342208 -44104409.72314058,-14100443.419366898 -45079077.15918646,-17064917.958821956 -45802439.82975052,-20143488.702791415 -46256713.29764222,-23309710.72931499 -46426534.62875637,-26534416.29174958 -46299324.42745715,-29785899.883201797 -45865638.779164925,-33030147.417033736 -45119506.05536226,-36231109.632030345 -44058743.386986926,-39351019.28809086 -42685247.51756407,-42350751.14462914 -41005254.712267615,-45190223.11430709 -39029564.42783976,-47828836.365020506 -36773721.544832274,-50225951.50954676 -34258152.13132865,-52341397.381930016 -31508247.9488154,-54136008.259999014 -28554395.228169665,-55572184.762432925 -25431943.637902085,-56614473.03488427 -22181111.838133965,-57230156.25168354 -18846826.561553877,-57389851.90657003 -15478492.785139095,-57068107.85700701 -12129693.250963705,-56243989.63115608 -8857816.357173283,-54901651.11384911 -5723612.266222289,-53030880.40687561 -2790677.9607477137,-50627612.41852568 -124872.91080311664,-47694399.585854314 2206332.0086280513,-44240832.078533806 4134568.703231829,-40283898.88246214 5591344.471628554,-35848281.32100371 6508867.327201911,-30966570.847082827 6820917.273142468,-25679403.334838916 6463755.749531628,-20035502.618129186 5377064.474606475,-14091626.66677682 3504903.9480956513,-7912410.560389474 796680.9873805395,-1570101.3126319689 -2791886.1577464677,4855819.386655491 -7297817.303760212,11279127.312815264 -12749947.273076406,17607464.29049791 -19168043.620870598,23743063.435333274 -26561978.882449985,29583589.83056076 -34930971.31702911,35023093.897709005 -44262908.208527796,39953073.134370536 -54533765.699650995,44263636.25377126 -65707138.87156516,47844762.08684144 -77733895.32941641,50587643.91651704 -90551964.90654083,52386108.225710414 -104086277.25270994,53138095.17618838 -118248858.02102876,52747186.51759584 -132939093.11387703,51124165.07747382 -148044168.99225792,48188588.52809057 -163439695.39999217,43870358.78875671 -178990515.01142088,38111267.22739508 -194551702.4891974,30866494.79702396 -209969753.25019082,22106045.405323826 -225083959.89886874,11816090.191876346 -239727971.81750503,200.00000029358233" stroke="white" stroke-width="1.5" /></svg>