<?xml version="1.0" encoding="utf-8" ?>
<svg baseProfile="full" height="400" version="1.1" width="400" xmlns="http://www.w3.org/2000/svg" xmlns:ev="http://www.w3.org/2001/xml-events" xmlns:xlink="http://www.w3.org/1999/xlink"><defs /><rect fill="black" height="100%" width="100%" x="0" y="0" /><circle cx="200" cy="200" fill="yellow" r="10.00299637925169" stroke="orange" stroke-width="2" /><polyline fill="none" points="199.36099267055874,200.0 199.26960065365463,199.9616573708407 199.1774265155051,199.9133986458477 199.08544108889106,199.8549022415183 198.99467381391722,199.78594390295152 198.9062037227041,199.70640573251663 198.82114919891544,199.61628449088607 198.74065655731337,199.51569901812775 198.66588750623603,199.40489662328633 198.59800557399578,199.28425829355587 198.53816159850578,199.15430257884466 198.4874783977423,199.0156880143458 198.44703475671156,198.86921395269937 198.41784888417467,198.71581968850626 198.4008615092389,198.5565817713326 198.3969188037897,198.39270941891047 198.40675533135627,198.22553795994907 198.4309772361007,198.05652025574065 198.4700458969409,197.88721607147417 198.52426228109337,197.7192793917121 198.59375223830568,197.55444369967617 198.6784529814981,197.39450526661867 198.7781010012243,197.24130452539492 198.89222166008554,197.09670563113332 199.020120708813,196.9625743413278 199.16087795800422,196.8407543774287 199.3133433283481,196.73304245973722 199.47613548749837,196.64116223673952 199.64764326350837,196.56673735856367 199.82603000291076,196.51126397159086 200.00924101613865,196.47608293698903 200.19501422412674,196.462352099628 200.38089408771924,196.47101895505142 200.56424886612947,196.50279408049263 200.74229121236775,196.55812571090544 200.9121020725589,196.63717585222824 201.0706578127431,196.7397983312209 201.21486045147225,196.86551918384248 201.34157082971447,197.01351978194123 201.44764450174046,197.18262309071093 201.52997008231307,197.37128343667644 201.5855097372041,197.5775801477043 201.6113414564205,197.79921540254762 201.6047027031792,198.03351659763902 201.56303498728164,198.2774435032276 201.48402886979352,198.5276004395647 201.36566886752973,198.78025365681026 201.2062776914738,199.0313540498608 201.0045592236317,199.27656528168382 200.75963961261152,199.51129732634865 200.4711058500992,199.73074537623333 200.13904117900177,199.92993398739395 199.76405667994064,200.10376626343907 199.34731838654446,200.2470778021538 198.89056929208695,200.35469505135583 198.3961456308545,200.4214976418899 197.86698684752946,200.44248418720284 197.30663870708102,200.4128409615714 196.71924904629424,200.32801279381766 196.10955572617232,200.18377544131465 195.48286641192342,199.97630864137713 194.84502988388402,199.7022689748731 194.20239866819176,199.35886162122569 193.5617828698341,198.94391003603306 192.9303951922531,198.45592254343165 192.31578723623937,197.89415480614304 191.72577728551656,197.25866711790346 191.16836990618347,196.55037545663984 190.65166781089997,195.77109524319974 190.183776565094,194.92357677044347 189.77270284014438,194.0115313017228 189.42624704594843,193.0396468867281 189.15189130092025,192.01359300676285 188.95668381959553,190.94001324091843 188.84712091488947,189.82650523940754 188.8290279218617,188.68158740032808 188.9074404507415,187.51465177101667 189.08648746711236,186.33590283435683 189.36927777470123,185.1562819931594 189.75779153935648,183.98737773103707 190.2527785397818,182.84132160483446 190.85366485975095,181.7306704102162 191.55846974630586,180.66827505679328 192.36373434741827,179.66713689031752 193.26446400951602,178.74025240491585 194.2540857590742,177.90044749580244 195.32442251229855,177.16020260995404 196.46568545217605,176.53147035625435 197.66648588249254,176.02548733487038 198.91386771376162,175.65258213526204 200.19336155662762,175.42198163030926 201.48906119476837,175.34161785758133 202.78372298255005,175.4179379247596 204.05888846393773,175.6557195016674 205.29503024006578,176.05789456332136 206.47172082540618,176.62538412405723 207.56782392898577,177.35694674939438 208.56170728029863,178.24904364736366 209.43147579248452,179.29572312223289 210.1552235213827,180.488527118887 210.7113025419119,181.81642249383583 211.078606526855,183.26575951755697 211.23686648177735,184.8202599416582 211.1669557679365,186.46103675261978 210.85120123729365,188.16664748156285 210.27369701487868,189.91318264702247 209.42061719865933,191.67439057601356 208.2805235106009,193.42183947927793 206.84466372964314,195.12511725155355 205.1072565726293,196.75206902966514 203.06575856741128,198.26907207343984 200.72110838781492,199.6413470407257 198.07794409696896,200.83330421254348 195.14478877741195,201.80892269259814 191.93420011668448,202.53216006252413 188.4628796685754,202.967389426351 184.75173772503675,203.07986023122984 180.82591001357835,202.83617871335315 176.71472278057504,202.2048032954807 172.4516032324731,201.15654976309804 168.0739327836645,199.6651005777424 163.62284110024262,197.7075122563304 159.14293953050682,195.26471436235727 154.6819931725548,192.32199332650083 150.29053154226168,188.86945404819897 146.02139856610677,184.9024520336625 141.92924342643025,180.4219887066539 138.06995462460054,175.43506249284283 134.50004049216125,169.95496833268547 131.27596026232308,164.00153842689312 128.4534107043925,157.6013172671656 126.08657421133844,150.78766435653677 124.22733510446643,143.60077848093732 122.92447176730788,136.0876379578103 122.22283303107012,128.30185195895774 122.162507993707,120.30341878208206 122.77799915103229,112.15838782612674 124.09740933839747,103.93842300549362 126.14165351247293,95.72026641197867 128.9237068320295,87.58510219374072 132.44790081217138,79.61782185917214 136.7092795166681,71.90619352000618 141.69302780711456,64.53993895064951 147.37398357582111,57.60972374639684 153.71624564296957,51.206067297250854 160.6728885903865,45.418180740607625 168.18579522851184,40.33274249789051 176.18561664572292,36.032622419107526 184.59186886791386,32.595566936035425 193.31317406094146,30.09285893939338 202.2476529412016,28.587967327404158 211.28347362443768,28.13520230171838 220.29956054652277,28.778393490822054 229.16646534144712,30.54960883991444 237.74739967266655,33.46793289944651 245.89942799839278,37.53832365229704 253.47481612593566,42.75056732323162 260.32252919393835,49.07835069634922 266.28987043574284,56.47847031085033 271.22424974599625,64.89019749865241 274.97506872189626,74.23481755737178 277.39570650811044,84.41536040969208 278.3455884700901,95.31653887860841 277.6923174854478,106.80490920398958 275.31384550971654,118.72926663912901 271.1006610745167,130.9212868997355 264.95796654682636,143.19642189914248 256.8078173517391,155.35505560324899 246.59119397166725,167.1839229916223 234.26997641550264,178.45779203625494 219.82879003384605,188.94140532958963 203.2766910714133,198.39167453573268 184.64866022344032,206.56011723435122 164.00687272503995,213.19552201060375 141.44171417362395,218.0468238553388 117.07251238374488,220.86616811995543 91.04795711602766,221.41213746521512 63.546181517732464,219.45311250124684 34.7744815674823,214.77073318777 4.968652730961992,207.16342460193013 -25.608073597448254,196.44994744031976 -56.6665074817447,182.4729306568418 -87.89340103972938,165.1023410044302 -118.95377699120075,144.23884200121486 -149.4936848986331,119.8169930343339 -179.14337950349278,91.80823799920329 -207.52090993699505,60.22363209797058 -234.23610272273504,25.116255233981832 -258.8949154472382,-13.416739118971691 -281.1041318161777,-55.23248958646684 -300.4763626075979,-100.14125531252171 -316.63531085295506,-147.90575281409554 -329.2212535007004,-198.24104369578492 -337.89668592819794,-250.8150116421205 -342.3520700516385,-305.24946235120944 -342.3116215285406,-361.121874582841 -337.5390667429192,-417.96782428543645 -327.84329599920363,-475.2840968685607 -313.08383571677484,-532.5324951407828 -293.1760594999453,-589.144342286906 -268.0960558426274,-644.5256705751631 -237.8850689928732,-698.0630773359809 -202.65342922428397,-749.1302202219613 -162.58388950645735,-797.0949139366911 -117.93428739445767,-841.326780610814 -69.03945391756804,-881.2053959192033 -16.31229537921851,-916.1288629937567 39.75602068980842,-945.5227363199967 98.5968376401518,-968.8492082467997 159.56579433496404,-985.6164616265703 221.9456678117191,-995.3880835814368 284.95030936539075,-997.7924276050762 347.7296982078809,-992.5318043056627 409.37612456965576,-979.3913752182686 468.93150084984046,-958.2476194066367 525.3957852904164,-929.0762391714279 577.736487766223,-891.9593692147434 624.8992117796772,-847.0919531993809 665.8191707791921,-794.7871528953953 699.4336006503088,-735.480658121976 724.6949738410054,-669.7337705498536 740.5849042734714,-598.2351411914831 746.1286161719624,-521.8010501164197 740.4098344186701,-441.3741276098449 722.5859392637662,-358.02042864220175 691.9032143948294,-272.9247871118961 647.7120047512672,-187.38439280964826 589.4815892886379,-102.80055235411038 516.814564391281,-20.668615357468013 429.4605260299326,57.43393133728364 327.3288332860054,129.86117551231024 210.50023272661176,194.91424747649893 79.23712250974162,250.85846875292935 -66.00776279558755,295.9420803277334 -224.5844607185719,328.4164227907399 -395.6408888033226,346.55741406978495 -578.1201469478368,348.6881439675934 -770.7601949499947,333.20237869132995 -972.096068613487,298.5887433757182 -1180.4647771352616,243.45532660994132 -1394.0130007078878,166.55442856502106 -1610.7076804092396,66.80715386659938 -1828.3495626470929,-56.672467746372945 -2044.5897278506677,-204.55416531100644 -2256.9490979748307,-377.2692596824161 -2462.8408799716417,-574.9899991388169 -2659.5958630006576,-797.6107559603752 -2844.4904461516953,-1044.7314432693302 -3014.7772312434627,-1315.6435078856202 -3167.717972282639,-1609.3188467574219 -3300.618629903843,-1924.401981459443 -3410.8662360801063,-2259.2058071494885 -3495.9672321481335,-2611.7112091245504 -3553.5869023090067,-2979.57081166432 -3581.5894858452803,-3360.1170902003964 -3578.078514953129,-3750.375039071825 -3541.4368919494973,-4147.079543362458 -3470.3661903056122,-4546.697554773092 -3363.924639100341,-4945.4551184448355 -3221.5632306877965,-5339.369240479147 -3043.1593772181677,-5724.284525028736 -2829.0475336927657,-6095.914445770986 -2580.046203988389,-6449.887049905614 -2297.480752217042,-6781.794824195521 -1983.2014553017843,-7087.248382716923 -1639.5962540876028,-7361.93356568885 -1269.59768993265,-7601.671468857709 -876.6835517181596,-7802.480854316051 -464.87080466447765,-7960.642327277065 -38.7024272329395,-8072.763600181883 396.77315438765726,-8135.845106587418 836.0302733946463,-8147.34517358361 1273.1020312004323,-8105.243914037894 1701.6241817341365,-8008.104959771428 2114.886871913138,-7855.134124822254 2505.8941199280025,-7646.2340651937475 2867.430808767645,-7382.053988822012 3192.1368639835596,-7064.033467757837 3472.588173117388,-6694.4394144978805 3701.3836906750876,-6276.395306678708 3871.2380583014447,-5813.901779511468 3975.078956267327,-5311.8477538125735 4006.1482909870047,-4776.011329564787 3958.106215563173,-4213.049750761572 3825.1368778996653,-3630.4778368235757 3602.054695353283,-3036.634378934391 3284.4098678663395,-2440.63611584621 2868.591764685649,-1852.3190324905581 2351.928754770431,-1282.166865335385 1732.7829994202948,-741.226849898385 1010.6386890602245,-241.0129070048227 186.18218595512025,206.60336609397123 -738.6274677516922,589.5133572921773 -1760.499200655883,895.5030300448107 -2874.763208648838,1112.3945342354118 -4075.338327041901,1228.1967434967264 -5354.714828586623,1231.2634405519439 -6703.953896311688,1110.4576912587586 -8112.704896362207,855.3207731887932 -9569.241430009562,456.24385834018256 -11060.516976022838,-95.3595053938858 -12572.240745276556,-806.8822104115051 -14088.974159738915,-1684.3559240570457 -15594.248139081923,-2732.289267671536 -17070.70113164482,-3953.5142491866136 -18500.23756425,-5349.0434172402165 -19864.20610962751,-6917.940236864644 -21143.596883475573,-8657.205189921744 -22319.256388300928,-10561.680075659548 -23372.118721265633,-12623.97292631047 -24283.451261713457,-14834.40585811472 -25035.112754498474,-17180.988048421717 -25609.821411551275,-19649.41586385677 -25991.430370342456,-22223.10196259372 -26165.20757823352,-24883.23495563029 -26118.116920437922,-27608.870938157874 -25839.097180812056,-30377.05789367056 -25319.335223324364,-33162.99363188857 -24552.529612129987,-35940.21754890568 -23535.140753931897,-38680.83609676527 -22266.623551797038,-41355.78142300675 -20749.63850865115,-43935.10219220151 -18990.237214854296,-46388.285135234466 -16998.018200763654,-48684.605392698286 -14786.249234811143,-50793.5032313318 -12371.95230268093,-52684.98422248018 -9775.947715451222,-54330.0394850134 -7022.854065253925,-55701.082118283106 -4141.041076653045,-56772.39549011491 -1162.5327903953435,-57520.58860734538 1877.1410374512277,-57925.053388999535 4939.146935353912,-57968.41829195963 7981.604173202133,-57636.99241299205 10959.896127472479,-56921.1939162903 13827.036352885569,-55815.956419120295 16534.088464489534,-54321.10681629856 19030.63820447361,-52441.70794332806 21265.31530973133,-50188.35947380788 23186.3620167733,-47577.45052442102 24742.244248315263,-44631.35760490562 25882.300729731258,-41378.58180467173 26557.42449321015,-37853.81945501737 26720.77045310895,-34097.96094813896 26328.4819883573,-30158.012932170634 25340.428757928195,-26086.939735056232 23720.94731471276,-21943.420597673663 21439.57548312825,-17791.520115533636 18471.770937980906,-13700.270194500017 14799.603977899307,-9743.162813892859 10412.414137171267,-5997.553953224304 5307.4200357536465,-2543.9801684854647 -509.72826132495754,534.6095092331047 -7024.465107650691,3153.7024468780414 -14212.903965125524,5228.146881267913 -22041.521252483373,6673.145528880312 -30466.939268668542,7405.310579263516 -39435.81753912678,7343.771033967633 -48884.86121070782,6411.322095536025 -58740.95424289396,4535.605097591132 -68921.42410987704,1650.3053154069953 -79334.44354211271,-2303.646074936155 -89879.5735018978,-7376.880592968852 -100448.45011190939,-13610.427164447423 -110925.61664739932,-21034.58922297189 -121189.49997298357,-29667.88104323511 -131113.52896706766,-39516.04053864811 -140567.3905465422,-50571.13596011819 -149418.41689928935,-62810.783933572886 -157533.09547218384,-76197.49605779836 -164778.69116963027,-90678.17083946525 -171024.9681160854,-106183.7470590682 -176145.99625100297,-122629.03373243018 -180022.02598326807,-139912.73065250905 -182541.4121627935,-157917.65206338407 -183602.56675881185,-176511.16433335512 -183115.91789757498,-195545.84656115546 -181005.85133706516,-214860.380875802 -177212.609073325,-234280.6767874927 -171694.11861223535,-253621.23132874246 -164427.72553132966,-272686.7239097985 -155411.80132665142,-291273.84182212333 -144667.19821637444,-309173.3291838082 -132238.522580361,-326172.24886031845 -118195.19907517965,-342056.44354536996 -102632.29819642457,-356613.17878579453 -85671.10118031318,-369633.947319759 -67459.3776565322,-380917.4107112738 -48171.35339199445,-390272.45094949566 -28007.347803920853,-397521.3014850123 -7193.06366889593,-402502.72414477635 14021.48539450855,-405075.1955513758 35363.420550498035,-405120.0641203537 56538.82344512417,-402544.6364707484 77234.94468367947,-397285.1502077113 97122.79320834666,-389309.5885696189 115860.09983237738,-378620.29142125085 133094.64307938342,-365256.31656236737 148467.9201739286,-349295.50534722494 161619.14058544303,-330856.20721096895 172189.51399975328,-310098.61890434765 179826.79904441308,-287225.6960744114 184190.0735931974,-262483.5973151981 184954.68209314675,-236161.6239614003 181817.31016936823,-208591.62271495772 174501.1318459271,-180146.82267665653 162760.970154904,-151240.0834908518 146388.40777038562,-122321.53708146642 125216.78068006747,-93875.6118318883 99125.98487360834,-66417.43500169773 68047.02366118235,-40488.61663073585 31966.221611988636,-16652.426097810283 -9070.969709333674,4511.619190438074 -54956.64896586746,22413.724882416787 -105517.69898981907,36460.313587446784 -160513.649217605,46060.995671877914 -219635.23538518694,50635.96199828925 -282503.72118442995,49623.734725814735 -348671.0414383393,42489.20355095129 -417620.8201248285,28731.86634747923 -488770.30926999875,7894.185187402637 -561473.2863612967,-20430.038678945646 -635023.938531381,-56587.37400580923 -708661.7513831478,-100856.66188651895 -781577.4090284833,-153441.22513190334 -852919.6997771133,-214461.50240038673 -921803.4090322409,-283948.2273945212 -987318.1674368769,-361836.2747237466 -1048538.2082945984,-447959.2938917931 -1104532.9739014502,-542045.2512055476 -1154378.4958261256,-643712.9961394153 -1197169.4595307712,-752469.9637581443 -1232031.8492141878,-867711.1181520408 -1258136.054572042,-988719.2334384919 -1274710.3075032977,-1114666.598720367 -1281054.3038532815,-1244618.2214733555 -1276552.8532814332,-1377536.590191496 -1260689.3894875734,-1512288.0418070913 -1233059.1635366806,-1647650.762496707 -1193381.9350978418,-1782324.4320927337 -1141513.9702618031,-1914941.502569076 -1077459.1504188464,-2044080.0801147656 -1001378.9946484407,-2168278.35833084 -913601.3983635034,-2286050.5272882287 -814627.8937172296,-2395904.0597967505 -705139.2426505681,-2496358.25250898 -585999.1815410608,-2585963.8756900355 -458256.14729022264,-2663323.761916985 -323142.8284087075,-2727114.140937992 -182073.40124594775,-2776106.5057434225 -36638.33094949062,-2809189.7739124945 111403.3610220394,-2825392.488840487 260134.43605869764,-2823904.7878671843 407492.42992601235,-2804099.8489618236 551285.3124083381,-2765554.5148131386 689209.798671962,-2708068.783255313 818872.2618549316,-2631683.846249551 937812.1606392337,-2536698.356433829 1043527.8584872208,-2423682.6008257843 1133504.673201406,-2293490.265860786 1205244.9569040912,-2147267.4867820083 1256299.9678744597,-1986458.8876456106 1284303.2574000424,-1812810.335992303 1287005.2573985555,-1628368.1586499603 1262308.7185692175,-1435474.5922014534 1208304.6147814149,-1236759.2733522926 1123308.0978571237,-1035126.6106802485 1005894.0584116997,-833738.9198973374 854931.8235447124,-635995.2495923426 669618.5014703891,-445505.8731724875 449510.46718282235,-266062.47504150163 194552.47247845068,-101604.11452614624 -94896.14140859403,43820.890784195464 -418038.64921879914,166096.96033419832 -773622.0781547142,261086.8607723467 -1159922.7739449379,324680.6045581755 -1574736.8732862219,352847.24776129855 -2015376.130381082,341689.1356307286 -2478669.508686757,287498.08378749114 -2960970.904825552,186812.92447082791 -3458173.319916582,36477.79202941319 -3965729.734517939,-166299.52930570437 -4478680.877152658,-423889.91849036276 -4991690.003379963,-738186.6549605516 -5499084.723016414,-1110551.3769905143 -5994905.827972825,-1541763.0837450891 -6472962.982924253,-2031971.020939407 -6926897.046451671,-2580652.298013217 -7350248.692272546,-3186575.082710184 -7736532.899702221,-3847768.2062792596 -8079318.780643745,-4561497.98862944 -8372314.108366448,-5324253.057217221 -8609453.812360039,-6131737.885889137 -8784991.604967402,-6978875.720126957 -8893593.810693251,-7859821.483076189 -8930434.37948996,-8767985.172453234 -8891289.982398393,-9696066.16215198 -8772634.013150502,-10636098.714502623 -8571728.254197538,-11579508.890239634 -8286710.911567551,-12517182.914051246 -7916679.681394568,-13439546.915029956 -7461768.483251877,-14336657.81451562 -6923216.482838696,-15198304.979996061 -6303428.030277945,-16014122.104346398 -5606022.161334313,-16773708.60635814 -4835870.348149355,-17466759.683004044 -3999121.244352777,-18083203.978114486 -3103211.247187359,-18613347.668149773 -2156859.7969223433,-19048023.605703577 -1170048.4514400985,-19378744.00751706 -153982.91133875263,-19597855.028452393 878962.672181522,-19698691.428444773 1915319.5986367932,-19675729.418331552 2940617.0271337163,-19524735.665036082 3939492.980831806,-19242910.349233285 4895823.809522485,-18829022.10163569 5792871.733955691,-18283532.599612884 6613449.845325791,-17608708.586054485 7340103.674144632,-16808719.07910931 7955308.177202303,-15889715.576364622 8441678.722326122,-14859893.121633621 8782194.381308371,-13729530.19797446 8960431.575011427,-12511005.53775187 8960805.854786819,-11218790.100013461 8768819.354632724,-9869412.657370105 8371311.212745127,-8481397.658722317 7756708.043162295,-7075174.289940412 6915271.341962495,-5672955.940916852 5839338.54184568,-4298589.602747352 4523554.287753764,-2977375.0611929097 2965088.39818262,-1735854.1195668657 1163836.9055845416,-601570.4728758796 -877397.461904407,397198.7379706805 -3152748.9831777117,1231738.2416149382 -5653160.399171856,1873214.9394534281 -8366285.581874013,2293020.877520921 -11276426.722681055,2463136.1303969934 -14364509.137543783,2356508.407864108 -17608096.52595257,1947445.7731249083 -20981449.207713224,1212018.4561218212 -24455627.495991934,128465.36305152762 -27998641.948310167,-1322399.4701852147 -31575651.770797033,-3156785.5507660313 -35149212.1375358,-5387535.074265733 -38679570.62950963,-8023748.116947536 -42125012.400449485,-11070429.623536993 -45442253.04458502,-14528164.053221 -48586877.479396075,-18392823.595573537 -51513822.47122666,-22655315.846817587 -54177899.73000535,-27301376.74084839 -56534355.78895458,-32311414.354959507 -58539464.174307436,-37660408.954137735 -60151144.667518996,-43317874.29786779 -61329603.77751538,-49247884.80818423 -62037989.88291408,-55409172.68685881 -62243055.883856304,-61755298.473693416 -61915821.630332865,-68234897.85863318 -61032227.87898524,-74792006.80069694 -59573773.08358833,-81366466.1705936 -57528123.95590063,-87894406.22664833 -54889690.45311847,-94308810.26181048 -51660155.66519878,-100540155.7308482 -47848950.99859814,-106517130.09030394 -43473667.090613164,-112167417.46961856 -38560391.04767044,-117418551.15134194 -33143960.887773182,-122198825.68397759 -27268128.48684285,-126438261.29616968 -20985622.8845766,-130069612.14000632 -14358106.499875117,-133029408.77925324 -7456017.639538646,-135259024.27117872 -358293.65572409175,-136705752.18452054 6848029.785229693,-137323883.9677077 14068346.62227699,-137075772.2474137 21201137.445424862,-135932865.91462606 28138756.128754955,-133876702.26004103 34768344.93000266,-130899840.96875721 40972875.262309626,-127006724.49110544 46632309.5927137,-122214449.18636554 51624878.11017897,-116553431.70212084 55828461.95188908,-110067955.31571193 59122072.900446594,-102816581.43574598 61387417.58831652,-94872412.14876206 62510532.39274328,-86323190.60506696 62383473.39896067,-77271227.17175618 60906044.07757514,-67833140.64122021 57987541.68985831,-58139405.368000925 53548501.9294978,-48333697.01128158 47522419.958143815,-38572031.57655774 39857424.8222129,-29021694.667549774 30517883.27630624,-19859960.263780124 19485908.310435846,-11272600.913340963 6762747.208439898,-3452193.9532860774 -7629976.22299106,3403768.78182841 -23649190.500542566,9094957.356785364 -41229501.19496281,13420452.817476958 -60282535.58113643,16181152.488331169 -80696530.1171118,17182311.967807777 -102336182.17620958,16236201.294755697 -125042785.60463466,13164849.827313682 -148634667.45813373,7802851.56534558 -172907940.68757355,200.0000002117514" stroke="white" stroke-width="1.5" /></svg>