<?xml version="1.0" encoding="utf-8" ?>
<svg baseProfile="full" height="400" version="1.1" width="400" xmlns="http://www.w3.org/2000/svg" xmlns:ev="http://www.w3.org/2001/xml-events" xmlns:xlink="http://www.w3.org/1999/xlink"><defs /><rect fill="black" height="100%" width="100%" x="0" y="0" /><circle cx="200" cy="200" fill="yellow" r="20" stroke="orange" stroke-width="2" /><polyline fill="none" points="199.32185666406895,200.0 199.3776895686871,199.9673315451209 199.44102670173274,199.9411507354937 199.51145170763178,199.9224902176649 199.58842785288226,199.9123672210219 199.67129649856628,199.9117701662313 199.75927698241642,199.92164474489687 199.85146800615587,199.9428796085167 199.94685061151065,199.97629181893723 200.04429281411,200.02261222567387 200.14255594849524,200.08247094746557 200.24030275973135,200.15638314602336 200.33610725775702,200.24473528890016 200.42846632975568,200.3477721055256 200.51581308363689,200.46558444550493 200.59653187237325,200.59809825107538 200.6689749246557,200.7450648559571 200.73148048234677,200.9060528205652 200.78239231979484,201.08044150851282 200.8200804945062,201.26741660141406 200.84296315326546,201.46596773809287 200.84952919287554,201.67488845035578 200.83836155059768,201.89277855046453 200.80816087646627,202.1180491053509 200.75776931829526,202.34893010949995 200.68619413075368,202.5834809423687 200.5926308027364,202.81960366733787 200.47648538276027,203.0550591976811 200.3373956706318,203.28748632109676 200.17525093550768,203.5144235382402 199.99020981602743,203.7333336327248 199.78271605774057,203.94163085057338 199.55351174685342,204.1367105264914 199.3036477076182,204.31598095302385 199.03449074367947,204.47689724712245 198.74772742153155,204.61699692738517 198.4453641170289,204.73393687477105 198.12972307367735,204.82553131049417 197.80343425420597,204.8897903876425 197.4694228046042,204.92495895843905 197.1308919922671,204.92955504756623 196.79130152691306,204.9024075342125 196.45434122424658,204.8426925220645 196.12390002757851,204.74996785794497 195.80403046136894,204.62420524674133 195.49890865242176,204.46581940321374 195.21279011867406,204.27569368070257 194.94996159154903,204.05520162311626 194.71468920497978,203.8062239002554 194.51116345170243,203.53116010783913 194.34344137444361,203.2329349427896 194.21538652532533,202.91499830156488 194.1306072902734,202.58131889468893 194.09239423550358,202.23637102408162 194.10365718931067,201.88511423122867 194.1668628234251,201.532965593414 194.2839735431489,201.18576452182688 194.45638853337525,200.84972999889638 194.68488783748464,200.531410282122 194.96958036709248,200.2376251972698 195.30985675183675,199.97540124428062 195.70434793904732,199.75189984366784 196.150890442518,199.57433915852937 196.64649911707906,199.44991003642713 197.18734830073257,199.3856867250545 197.7687621183626,199.3885331244917 198.38521468020483,199.46500544553476 199.03034083423884,199.62125224659877 199.69695804448295,199.86291291951625 200.37709986703436,200.19501578560943 201.06206138298174,200.62187704612708 201.74245682258322,201.14700190391358 202.40828947909765,201.77298923444937 203.049033864317,202.5014412326363 203.65372990230276,203.33287949542301 204.211088794395,204.26666901818638 204.70961001874727,205.3009515834151 205.13770875312554,206.43259000252485 205.4838528323551,207.65712463455938 205.73670817361742,208.96874354826755 205.88529142595405,210.36026761594786 205.9191284271149,211.82315172810038 205.82841688369126,213.34750319713112 205.60419153178245,214.9221182761825 205.23848988780557,216.5345375559555 204.72451656504217,218.17112081876073 204.05680401370955,219.81714172590952 203.23136744329403,221.4569024931502 202.24585160807877,223.07386847069867 201.09966708263286,224.65082229134998 199.79411362575374,226.17003698433638 198.33248823106038,227.6134671764714 196.72017549199953,228.96295721843163 194.96471797007692,230.2004647858049 193.07586434901677,231.30829821505358 191.06559328531264,232.26936554732384 188.9481110279405,233.06743297180034 186.73982107715617,233.68739008896182 184.4592643841764,234.11551915667135 182.12702885958214,234.3397652426755 179.76562725746732,234.3500039899709 177.39934283318325,234.13830351082305 175.0540425329984,233.69917676512597 172.75695786161032,233.02982065331895 170.53643398520535,232.13033796710477 168.42164806015626,231.00393829640387 166.44229822648157,229.65711399171295 164.62826516639174,228.09978733035518 163.00924859669294,226.345425135656 161.6143815341665,224.41111725202683 160.47182563956852,222.3176154879621 159.60835140253647,220.08932990412882 159.0489073701097,217.75427964552526 158.81618303919885,215.34399589488726 158.93017042145462,212.89337495820894 159.4077296407855,210.4404799807302 160.2621642324449,208.02629033057678 161.50281207142507,205.69439827414502 163.1346580602972,203.49065319823092 165.15797484632714,201.4627543039033 167.56799790874067,199.65979340050183 170.354641353921,198.13175015838635 173.50226067417714,196.92894292889088 176.98946856024267,196.1014390013238 180.78900960533645,195.69842893111596 184.86769939675145,195.76757033102507 189.18643305780154,196.35430725880929 193.7002677778173,197.5011720496621 198.35858325111082,199.24707711928076 203.1053232389684,201.626604892797 207.87932067452977,204.66930458486803 212.61470785290936,208.39900505595074 217.24141229344394,212.83315338823135 221.68573783417366,217.9821891512103 225.8710294285848,223.84896455132937 229.71841897057004,230.42822077264083 233.1476482861291,237.7061308074748 236.0779642113907,245.65991893937792 238.42907943914952,254.25756676835664 240.12219157443292,263.45761525497716 241.08105160880288,273.2090717008318 241.23307181919316,283.4514298754806 240.51046193686753,294.11481064309237 238.85138133291113,305.1202294362833 236.20109394630484,316.3799957726243 232.5131117570454,327.79824871550136 227.75031179793962,339.2716307520703 221.88601102236285,350.6901010056524 214.9049828187182,361.9378870289913 206.8043986021459,372.89457265133717 197.5946777358352,383.4363174915786 187.30022905248933,393.4372018188867 175.9600674740102,402.7706884609032 163.62828967550388,411.31119144865824 150.374393417437,418.9357390701887 136.28342608416582,425.5257170059116 121.45594912258836,430.968675264278 106.00780647309239,435.16018075340054 90.06968672518451,438.00569554141043 73.78647060795683,439.4224592041501 57.31635753343309,439.3413521626535 40.829767238034066,437.7087156038731 24.50801509963111,434.4881024851466 8.541762427160307,429.6619332739947 -6.870754094740931,423.2330294969064 -21.525706596931883,415.22599788917427 -35.21586350396723,405.6884379759118 -47.732966729261676,394.6919462930477 -58.87028174908352,382.3328911945109 -68.42530043976024,368.73293330275703 -76.20257331576016,354.03926815552927 -82.01664463281537,338.42456948941293 -85.69506076433777,322.08661388310213 -87.08141936698092,305.2475701584219 -86.03842416921435,288.15293999803816 -82.45090779267525,271.07013967321416 -76.22878289729113,254.28671656523804 -67.30988017451176,238.10819828691962 -55.662630344015696,222.8555766368333 -41.28854638165549,208.8624333140148 -24.224461761245323,196.4717192442379 -4.5444805679528315,186.03220447479003 17.638404029563844,177.8946208315976 42.171065248242144,172.40752484421745 68.85941258048723,169.91291376955732 97.46801413843373,170.74163281888076 127.72020640322879,175.20861684563124 159.2987226056452,183.60801471168745 191.84686660205884,196.20824924221537 224.97025412112703,213.24707002802688 258.23913766147706,234.92666026215466 291.19132514839475,261.4088622271835 323.33569574591195,292.81058890567164 354.15630901734744,329.1994913938521 383.11709598879725,370.58995328780736 409.6671126622377,416.9394839148122 433.2463282226994,468.14558213921106 453.2919116709004,524.0431414270595 469.24497198062215,584.4024648594616 480.5576982283601,648.9279558023071 486.7008375776925,717.2575459408781 487.1714406347607,788.9629173532236 481.5007956416179,863.5505692195717 469.2624653623377,940.4637726521491 450.08033346665627,1019.0854489997723 423.6365608529467,1098.741997867362 389.6793468015514,1178.7080910397156 348.0303852345148,1258.212437573683 298.5919027985339,1336.444513600713 241.35316309952816,1412.5622379550075 176.39632030772472,1485.7005617186917 103.90150562101925,1554.9809262764968 24.151031810571965,1619.521530634526 -62.467395647183764,1678.448334730291 -155.45856746112378,1730.9067114061147 -254.21885950733503,1776.073645808164 -358.03661374810997,1813.170367391777 -466.09389301744693,1841.4752866509723 -577.4696800031256,1860.3370963438065 -691.1445775042413,1869.1878855567793 -806.0070521945257,1867.556104644564 -920.8612477535403,1855.0792100994229 -1034.4363754417418,1831.5158109480876 -1145.397671117754,1796.7571325375845 -1252.3588874778754,1750.837609742226 -1353.8962691139507,1693.9444198769384 -1448.563936035103,1626.425766098546 -1534.9105788032543,1548.797724960757 -1611.497345635256,1461.7494771842687 -1676.916778988895,1366.1467487119307 -1729.812636558176,1263.033299815498 -1768.9004095517566,1153.630313452229 -1792.9883299283422,1039.3335502525595 -1800.998638234699,921.7081564372419 -1791.9888651633692,802.4810325614353 -1765.1728632493239,683.5306951753537 -1719.9413105878193,566.8745901488 -1655.8813964052028,454.65384536383266 -1572.7953890670208,349.1154815297142 -1470.7177809661107,252.59213277109572 -1349.9307019816172,167.47936309843627 -1210.9772941002477,96.21070056523891 -1054.672744575528,41.23054748805825 -882.1126838714595,4.9651621567091695 -694.6786677561274,-10.20805543547354 -494.0404804002362,-1.992704616060763 -282.1550172703776,31.793353217241474 -61.2615330118183,93.18394956120851 166.12692963826512,184.0301534156199 397.2360786651599,305.9658075071891 629.0469886670215,460.37348515409815 858.3168597598336,648.3513203256423 1081.6039382974059,870.68118292771 1295.2965676773533,1127.7986862541354 1495.6462839845246,1419.7655233952235 1678.8048151793096,1746.2446337264757 1840.8647844978627,2106.4786989893155 1977.9038592828988,2499.272460543533 2086.032026252401,2922.9793347934133 2161.441613937429,3375.4927823025146 2200.4596234247547,3854.242857520489 2199.601870412007,4356.198330228833 2155.6283857440085,4877.874726732856 2065.5994688969568,5415.348588534281 1926.931740177552,5964.278188854459 1737.453493581228,6519.930883183802 1495.4586141789994,7077.2171993475495 1199.7582924345493,7630.731695848797 849.7297438263877,8174.800535024588 445.3611263609652,8703.53563048528 -12.70815823992183,9210.895137160505 -523.1525910239563,9690.749957907765 -1083.931888157013,10136.95584400914 -1692.2693533624688,10543.430569039605 -2344.637969477156,10904.235557673008 -3036.754921398932,11213.66125421091 -3763.5851842070906,11466.315421256344 -4519.354739942947,11657.213468346048 -5297.573904525235,11781.869824875828 -6091.0711527830035,11836.389292717038 -6892.037725007718,11817.557242942574 -7692.0831833170705,11722.927459477429 -8482.301961212128,11550.90638165617 -9253.350815893424,11300.832458959248 -9995.536951249638,10973.049305907742 -10698.916431182255,10568.97133443477 -11353.402349482301,10091.140546132981 -11948.882065392576,9543.27318859333 -12475.342654982374,8930.295019451667 -12923.00356937824,8258.363979429976 -13282.455333710686,7534.879152110993 -13544.80296743402,6768.474983718665 -13701.812659626667,5968.999850887128 -13746.060094226608,5147.4781981429305 -13671.07869218461,4316.055619209774 -13471.505922536782,3487.9264266261093 -13143.22573470833,2677.2434416291776 -12683.50508222396,1899.0099396157018 -12091.122445617628,1168.9539042755055 -11366.486221803465,503.3849739662519 -10511.740830457142,-80.96529496186218 -9530.858396868165,-567.1189736588245 -8429.713906862637,-938.041985486466 -7216.141794136677,-1176.8476219306353 -5899.97201479513,-1267.0117032288763 -4493.043788870842,-1192.5974819292771 -3009.1953445986524,-938.4881388512372 -1464.2281883723713,-490.62448226231277 124.15535862381402,163.75476383990727 1736.442367777692,1035.8729039253526 3351.427987532435,2135.1784554686383 4946.363032859028,3469.114743023583 6497.130576558831,5042.899203757479 7978.451284830487,6859.315806910686 9364.116864593292,8918.524054603655 10627.250597869743,11217.888057591479 11740.593532817318,13751.829164042867 12676.81448590584,16511.705559597467 13408.841589795587,19485.722150608406 13910.21270158395,22658.873887814167 14155.441571481226,26012.92548339463 14120.396268159906,29526.43021966563 13782.685969743328,33174.79024234956 13122.051864584853,36930.36037583461 12120.757569678866,40762.59709316137 10763.97417283385,44638.25382139499 9040.15474369701,48521.62326600794 6941.392944317881,52374.82689907839 4463.760207968254,56158.151179410495 1607.6158509237955,59830.429462748056 -1622.1155589676755,63349.46792243334 -5215.705226113923,66672.51314123288 -9158.42509351939,69756.75836036586 -13430.402127004936,72559.88468938462 -18006.527039365847,75040.63289848747 -22856.422242530032,77159.40074155506 -27944.473399859762,78878.86010269182 -33229.92845257842,80164.587630646 -38667.06741459038,80985.70193381998 -44205.44557044981,81315.49986349215 -49790.21197477805,81132.08392424036 -55362.50434204107,80418.97242825545 -60859.92053846604,79165.68366396293 -66217.06594936526,77368.28508851405 -71366.17500281967,75029.89838724775 -76237.80409329361,72161.15117955452 -80761.59207618763,68780.56619735327 -84867.08340758088,64914.878926459925 -88484.60789449485,60599.27498828571 -91546.2099128974,55877.5389542243 -93986.61885720528,50802.10683117123 -95744.25152082922,45434.01513586211 -96762.2360875132,39842.74028857302 -96989.4464535328,34105.92300204991 -96381.53471719532,28308.973416429704 -94901.94888060339,22544.553930690996 -92522.9221253381,16911.937999258942 -89226.41946432136,11516.244590343056 -85005.02715189823,6467.549529955197 -79862.76996767672,1879.8765700450447 -73815.84139049421,-2129.927293478684 -66893.23175949308,-5443.425982998847 -59137.23979070299,-7941.9299289526725 -50603.853289166094,-9507.923232161596 -41362.985576042025,-10026.570743459735 -31498.555042745807,-9387.291629410041 -21108.39635319436,-7485.384265061179 -10303.99314135685,-4223.685639684853 789.9764074380303,485.75309529374897 12036.287951346638,6719.994739451506 23286.01826860032,14543.568903004412 34379.59417518082,24006.871804044044 45148.04351856867,35144.636098248935 55414.44619709349,47974.49451297383 64995.58052797356,62495.66148430808 73703.75754294057,78687.75714997061 81348.83295465972,96509.79791261417 87740.38363911372,115899.37733936643 92690.03255060552,136772.06038903506 96013.9030614384,159021.01284616927 97535.18083429438,182516.88638234333 97086.7585304407,207107.9778544524 94513.93597136273,232620.67928660396 89677.14584663327,258860.23246950313 82454.67273896077,285611.7992569994 72745.33116089272,312641.85545629245 60471.06650885504,339699.9127137865 45579.44138058477,366520.5690153068 28045.968611787717,392825.8843751196 7876.251705315101,418328.0740157644 -14892.106912902362,442732.5068779453 -40187.86913981662,465740.99268943485 -67904.834529565,487055.3361116375 -97900.8610306557,506381.13172394 -129997.26861932281,523431.76885530923 -163978.65893760492,537932.6105893891 -199593.18108841046,549625.3067163383 -236553.2702104816,558272.1960472342 -274536.8813593017,563660.7494124068 -313189.2365685391,565608.0009019915 -352125.09778131725,563964.9115444162 -390931.57265023125,558620.606725124 -429171.45404649427,549506.4262908966 -466387.08753721154,536599.7245300646 -502104.7541390787,519927.35612777254 -535839.5483985546,499568.7838262861 -567100.7243523106,475658.7439261707 -595397.4742651546,448389.4069917872 -620245.0973097761,418011.97321375145 -641171.5076349617,384837.64486351016 -657724.0236633081,349237.9221737657 -669476.3730679796,311644.17380589095 -676035.8408071186,272546.43882399384 -677050.480953524,232491.42377558636 -672216.3069575228,192079.66605950875 -661284.3695347715,151961.8432088986 -644067.6266896058,112834.216983526 -620447.5065778268,75433.21119130214 -590380.0610865736,40529.132869381705 -553901.6062639286,8919.05776364387 -511133.74516123836,-18581.087149195373 -462287.6693426769,-41145.199163554775 -407667.6373451936,-57946.37599111749 -347673.5318019413,-68166.92260451987 -282802.4018248061,-71008.90629357444 -213648.90361333897,-65705.1650967022 -140904.56013859215,-51530.66277018561 -65355.770144261754,-27814.071982902467 12119.492401425237,6050.543347708579 90556.33491688003,50592.085550558004 168908.99163596611,106250.96832023578 246058.27552106115,173368.0048283886 320820.4380082234,252173.80034353386 391957.4205038344,342778.8154273313 458188.46315614745,445164.26856618415 518203.0172259179,559174.0479745213 570674.8875626809,684507.8011311184 614277.5114624529,820715.3672595326 647700.2597626717,967192.7123341906 669665.6256623348,1123179.518202191 678947.1466964929,1287758.5669987453 674387.8858147268,1459857.0491688622 654919.2788940445,1638249.9080849965 619580.1385470671,1821565.3164960616 567535.5880608084,2008292.3599155787 498095.68501570134,2196790.979647005 410733.4818831792,2385304.203578609 305102.26097170083,2571972.6663199184 181051.6737646117,2754851.3918933147 38642.51023417731,2931928.7822704003 -121840.17762802991,3101147.7238208395 -299875.8718281526,3260428.6915225717 -494699.57216305425,3407694.697901055 -705295.226775327,3540897.9004861917 -930391.8553735343,3658047.648491424 -1168462.594002371,3757239.716848212 -1417726.8692428472,3836686.444110465 -1676155.8847248156,3894747.460534587 -1941481.5738876348,3929960.6643115305 -2211209.140124772,3941073.077956436 -2482633.2689448586,3927071.1937300903 -2752858.0567809865,3887210.3971520765 -3018820.6578454087,3821043.041637241 -3277318.6042796634,3728444.7354980563 -3525040.7061692183,3609638.3954356206 -3758601.387213096,3465215.618593304 -3974578.2594541074,3296154.928634602 -4169552.6870277706,3103836.460451976 -4340153.034971963,2890052.66328885 -4483100.24539433,2657014.6234775796 -4595255.330399914,2407353.635813378 -4673668.319852851,2144117.6868809047 -4715628.1530270185,1870762.5544337046 -4718712.957254779,1591137.2741236384 -4680840.114588807,1309463.7783308772 -4600315.480030903,1030310.5713087886 -4475881.082829282,758560.3699947714 -4306760.616464255,499371.7102179799 -4092702.0039658104,258134.59313270144 -3834016.3138346104,40420.325905252575 -3531612.298720588,-148074.2067301283 -3187025.8347426825,-301587.5182529291 -2802443.554430733,-414359.3348013807 -2380719.9911751007,-480700.7519893225 -1925387.5881289805,-495068.1504901185 -1440658.9699663483,-452140.2008801977 -931420.9318857859,-346897.20490580687 -403219.6667761467,-174701.9407902291 137763.17159769536,68618.89432207793 684743.8844316495,386693.6199197294 1230379.8409313378,782525.9214849895 1766822.4007075457,1258417.7013212077 2285779.6430982286,1815895.5603044552 2778588.778799293,2455642.070564263 3236297.9903535447,3177433.017263459 3649757.313737409,3980081.7923743525 4009718.034802337,4861392.113679122 4306939.933115773,5818120.217312811 4532305.563378423,6845947.631306273 4676940.622764773,7939465.580214841 4732339.313041711,9092171.996642992 4690493.471059182,10296482.024089351 4544024.112141067,11543752.78703118 4286313.910056102,12824323.078741852 3911639.026670375,14127568.475424426 3415298.606139099,15441972.227502892 2793740.1646326855,16755212.106245117 2044679.0391188331,18054263.197447624 1167210.0095742047,19325516.435087007 161909.1800154549,20554912.45828169 -969075.8033692462,21728090.1564964 -2221949.102386592,22830549.04279079 -3591205.469585934,23847824.365404427 -5069586.260812808,24765673.63665436 -6648054.380886193,25570273.02774939 -8315789.74433426,26248421.851629227 -10060206.68393216,26787753.136390805 -11866994.56278186,27176948.082472946 -13720182.6411946,27405952.00080734 -15602230.018387461,27466189.14995786 -17494141.212069336,27350773.73120669 -19375607.65784509,27054714.164935235 -21225175.106884144,26575107.66274427 -23020436.576765336,25911322.030712996 -24738250.169498555,25065161.59298201 -26354980.71551961,24041014.114246268 -27846763.83641513,22845975.6272722 -29189790.646090157,21489950.13941725 -30360610.934209876,19985721.302199066 -31336452.30152159,18348993.28167556 -32095552.3488529,16598398.265784632 -32617500.665198073,14755468.288366541 -32883587.020540472,12844569.338352198 -32877151.851263482,10892796.055985386 -32583934.83558741,8929825.694789916 -31992417.09889553,6987730.446524569 -31094152.36947423,5100747.684170473 -29884082.22938319,3305008.17200403 -28360830.477991752,1638222.8183030265 -26526971.552012913,139329.1008413733 -24389267.930124346,-1151901.1269692387 -21958871.49657614,-2195290.146271966 -19251483.95011962,-2950716.289890753 -16287471.52515804,-3378605.746175872 -13091929.543564472,-3440450.1214133264 -9694692.639766544,-3099345.035326941 -6130286.899282734,-2320544.445653851 -2437820.6218926026,-1072024.8464485067 1339189.035915299,674947.0306521312 5153055.670553485,2945249.8536723233 8952230.942670645,5759353.924651785 12681680.294520816,9132785.624501169 16283326.973612564,13075617.965594398 19696563.406219415,17591995.353971012 22858828.062169164,22679700.78058408 25706245.012861516,28329773.684232287 28174322.41687326,34526186.65104869 30198705.18195138,41245588.930886745 31715976.0597255,48457124.45479644 32664498.441971406,56122331.62622018 32985293.15735372,64195131.628966145 32622940.62849793,72621911.34609868 31526498.854751546,81341706.21572344 29650426.850193974,90286487.46379371 26955502.403679285,99381557.15367304 23409722.35231937,108546053.38201812 18989172.98610187,117693566.73708215 13678857.743219296,126732867.82691905 7473469.026618137,135568744.2911429 378090.78498665604,144102944.24246958 -7591181.532283776,152235221.55658144 -16406716.906000411,159864476.85586104 -26028933.51944995,166889986.43081352 -36406004.84171689,173212709.73047784 -47473698.81818144,178736664.4492153 -59155361.09900004,183370356.6624565 -71362052.17707108,187028251.93982548 -83992847.0539998,189632271.91291985 -96935304.60842814,191113299.4198244 -110066112.21101089,191412674.1124803 -123251909.3220999,190483659.3196795 -136350291.83240378,188292860.03083944 -149210996.7769066,184821571.12653357 -161677264.78428206,180067034.4527395 -173587375.23694327,174043583.03766638 -184776346.63241678,166783650.70194945 -195077792.07932606,158338625.53233212 -204325917.25782192,148779526.19084686 -212357645.55416107,138197480.8286899 -219014852.47370768,126703989.47624756 -224146688.87939534,114430952.19487222 -227611970.1286261,101530447.00526847 -229281605.8270789,88174243.65135834 -229041042.72021222,74553041.61287807 -226792691.24029714,60875423.43625744 -222458304.45645338,47366517.39866897 -215981276.67509842,34266366.73728135 -207328827.74514964,21828006.14285919 -196494038.2716809,10315249.907544546 -183497700.46701998,200.0000002247201" stroke="white" stroke-width="1.5" /></svg>