<?xml version="1.0" encoding="utf-8" ?>
<svg baseProfile="full" height="400" version="1.1" width="400" xmlns="http://www.w3.org/2000/svg" xmlns:ev="http://www.w3.org/2001/xml-events" xmlns:xlink="http://www.w3.org/1999/xlink"><defs /><rect fill="black" height="100%" width="100%" x="0" y="0" /><circle cx="200" cy="200" fill="yellow" r="10.004848243473148" stroke="orange" stroke-width="2" /><polyline fill="none" points="199.1568181600038,200.0 199.04645800603092,199.9499434011743 198.93562390685082,199.8879414268372 198.82550002367523,199.81366174247333 198.71733562558634,199.72689249160024 198.61243373204545,199.62755267093073 198.51213832022458,199.51570156170666 198.4178201599924,199.3915470363037 198.3308613606589,199.25545256107102 198.25263873523735,199.10794272058553 198.18450610976794,198.94970709517332 198.1277757269074,198.78160233276205 198.08369891424192,198.60465226793244 198.05344620833736,198.4200459554632 198.0380871450969,198.2291335027048 198.03856994524293,198.03341960474012 198.05570134036148,197.8345547084194 198.09012679962893,197.63432375588968 198.14231142976934,197.4346324850257 198.21252183066022,197.23749129303383 198.30080919602247,197.04499670021673 198.40699395251573,196.8593104832017 198.53065223105833,196.68263658055056 198.67110446106588,196.51719590825599 198.82740637135115,196.36519925781965 198.99834267048178,196.2288184850079 199.18242366431826,196.11015623256048 199.37788504916438,196.0112144646387 199.58269109541376,195.93386212416362 199.79454140877746,195.87980225592278 200.0108814241875,195.85053896791112 200.22891675141037,195.84734463030455 200.44563145144673,195.87122773523424 200.65781027917458,195.92290186062294 200.86206488071275,196.0027561972719 201.05486388399552,196.1108281096649 201.2325667684821,196.24677820713654 201.39146134525316,196.4098684027164 201.5278046225151,196.59894343172982 201.63786677432964,196.81241629078116 201.71797787286556,197.04825803979284 201.7645769873192,197.30399238510896 201.77426319660898,197.57669543015547 201.7438480087901,197.86300094171213 201.6704086286525,198.15911143450842 201.55134146698634,198.46081532470893 201.38441524134743,198.76351034409672 201.16782297966967,199.06223334168234 200.90023220557458,199.351696528449 200.5808325585237,199.62633014447675 200.2093800838263,199.8803314463554 199.78623741768084,200.1077198272843 199.31240909157563,200.30239779335108 198.789571189112,200.45821742805722 198.2200946071764,200.56905188418992 197.60706120282114,200.62887134867188 196.95427214755418,200.63182283319236 196.26624786222214,200.5723130524234 195.54821896839636,200.44509356371333 194.8061077661156,200.2453472586265 194.04649983283403,199.96877521889238 193.27660543414595,199.61168287859397 192.50421054284436,199.1710643721176 191.73761737848244,198.64468389483864 190.9855745040543,198.0311528620451 190.25719664873657,197.330001622455 189.56187456471702,196.54174446705403 188.90917537070382,195.66793667296926 188.30873398332608,194.71122233668837 187.77013638872737,193.67537178200274 187.30279565850313,192.56530737630817 186.9158217649041,191.3871166548904 186.61788639797024,190.14805173692525 186.41708412993546,188.8565141192945 186.32079140773658,187.52202405491568 186.3355249806032,186.15517386082144 186.46680148430445,184.76756465718378 186.71900000448525,183.37172621108414 187.09522952646046,181.98101974705295 187.59720324573175,180.60952378894086 188.2251217603051,179.27190331298422 188.97756719068965,177.9832627181586 189.8514102744713,176.75898335500028 190.84173245796515,175.61454659567974 191.94176495626832,174.5653436736684 193.14284667389637,173.62647376805552 194.43440277020485,172.8125320524601 195.80394551638724,172.13738966836758 197.23709892373645,171.61396781428775 198.71764842614982,171.25400836194086 200.22761667401372,171.06784361520732 201.74736624247836,171.0641680132585 203.25572977599586,171.24981474254872 204.73016778453098,171.6295403596572 206.1469539771834,172.20582063487757 207.4813876686257,172.978660901652 208.70803242574078,173.94542423630696 209.80097973952638,175.1006807931799 210.73413611452386,176.43608157953017 211.48153156890555,177.94025987033703 212.01764713746226,179.59876333333668 212.31775857194,181.39401975800345 212.35829304363642,183.3053390576959 212.11719527728337,185.30895394145693 211.57429918860265,187.37810133113373 210.71170076625225,189.48314623134604 209.51412763797788,191.59174934578266 207.9693004964564,193.66907927542903 206.0682813382972,195.6780696353761 203.8058032955524,197.57972089029718 201.180576718254,199.33344613865074 198.19556610400957,200.8974594770321 194.85823247124333,202.22920495438004 191.18073584047156,203.2858234871365 187.18009262671822,204.02465445777202 182.8782829588269,204.40376806771826 178.30230323031768,204.38252386961844 173.48415955308502,203.9221502713018 168.4607982302766,202.98633919379355 163.27396988785512,201.54184948707436 157.97002450434167,199.55911216951284 152.5996352527557,197.01283006933093 147.2174498144019,193.88256401855824 141.88166863639535,190.153297391002 136.6535504780181,185.81597049489065 131.59684651838515,180.8679761367626 126.77716527155442,175.3136075740954 122.26127156613173,169.16445007769352 118.11632388451774,162.4397074378135 114.40905541112156,155.16645497631492 111.20490519709168,147.37981097567712 108.56710689849426,139.12301890823136 106.5557435717518,130.4474334478433 105.22677800026085,121.41240397256271 104.63106896465884,112.08505011992311 104.81338474107261,102.5399249345226 105.81142590154235,92.85856224641657 107.65487018336025,83.12890613315545 110.36445277415581,73.44462164061507 113.95109581244878,63.90428735887929 118.41510121492871,54.61047195827996 123.74542109855555,45.66869837439356 129.91902005540402,37.18630097462642 136.90034334992956,29.27118272659135 144.64090473243135,22.030481101702435 153.07900699104226,15.569153166716205 162.13960759158726,9.988492020315306 171.73434077624506,5.384588399099812 181.76170630653755,1.8467528842490424 192.10743364463193,-0.5440843373485222 202.64502877278358,-1.7169777901531234 213.2365090602301,-1.6125554581856818 223.73332960909644,-0.18457119641527697 233.97750235793856,2.5986009002709807 243.80290690850654,6.7525526064560495 253.03678958618275,12.275531089987396 261.5014446683741,19.14725503445058 269.0160690418634,27.32788052097581 275.3987788064846,36.75713951666222 280.46877355791935,47.35367319825923 284.04863128879856,59.01458140308591 285.96671407879444,71.61520823484895 286.05966203711597,85.00918225380498 284.1749503525641,99.0287277461348 280.1734818361265,113.48526129799272 273.93218504898766,128.17028530125526 265.3465860352318,142.85658710081577 254.3333198638392,157.2997492723116 240.83254666877497,171.23997301409474 224.81023569786308,184.40421287272548 206.26028007805195,196.50861702664398 185.20640461168045,207.2612631623035 161.7038289678164,216.36517562991435 135.8406491536789,223.5216051056408 107.73890116866136,228.43354746151414 77.55527227814811,230.80947400540225 45.481427411705226,230.36724075667706 11.743920800282638,226.8381400275115 -23.396333876320085,219.97105334646474 -59.645057860017346,209.53666075371103 -96.67608499652368,195.33165778093087 -134.1333367703774,177.1829280692115 -171.63330348926814,154.95161664099473 -208.7680347083559,128.53704639197815 -245.10863585904798,97.88041846903265 -280.2092615480109,62.96823591112684 -313.6115891768918,23.835389308895884 -344.8497494649557,-19.432156662706404 -373.4556832065467,-66.69513611827011 -398.9648862409796,-117.75927284817283 -420.9224972386943,-172.37414530829284 -438.8896756047118,-230.2326784234732 -452.4502096641205,-290.97131065207526 -461.21728842461596,-354.1708796081059 -464.8403637111097,-419.35826350296395 -463.0120234429347,-486.00880876694055 -455.47479138188237,-553.5495664688782 -442.0277639259506,-621.3633516109506 -422.5329905645598,-688.7936300870704 -396.92150154851777,-755.1502281234915 -365.1988842603596,-819.7158484471178 -327.4503087902151,-881.7533663420331 -283.8449034140786,-940.5138672614632 -234.63938211137258,-995.2453758762979 -180.18082901273215,-1045.2022144896853 -120.90854879078711,-1089.65491676737 -57.354897536567194,-1127.9006108728076 9.854984372286225,-1159.2737745100048 80.004607498797,-1183.1572532281434 152.28879691510735,-1198.993422798252 225.81763310740826,-1206.2953667052655 299.62170659909987,-1204.6579309823046 372.65870876283356,-1193.7685109211416 443.8213661695705,-1173.417417794742 511.94670959587046,-1143.507668790689 575.8266516071467,-1104.0640400374766 634.2198286033145,-1055.2412210589932 685.8646445227403,-997.330909353718 729.4934342393739,-930.7676861875536 763.8476452629444,-856.1335192191568 787.6939168872647,-774.1607443307801 799.840916666473,-685.7333880811958 799.1567752864355,-591.8867035708345 784.5869428028823,-493.80480622754465 755.1722721123407,-392.81631207078556 710.0671196855919,-290.38789934897034 648.5572393082537,-188.1157349942784 570.0772321208085,-87.7147299941198 474.2273059085184,8.994387602380868 360.78908863035065,100.10016691542015 229.74023585354865,183.61765258565507 81.2675693199447,257.507654799129 -84.2215154651928,319.69796814722963 -266.0896307613532,368.1064053337135 -463.46221793103916,400.66548017165246 -675.2228482174232,415.34854268859914 -900.0112278053334,410.1971378680331 -1136.2241134369901,383.349329010847 -1382.0193224718041,333.0686973322091 -1635.3229951110072,257.7737016606763 -1893.8402366251612,156.067056431547 -2155.0692339480834,26.764763023561045 -2416.318904111199,-131.07559066560492 -2674.7300919171375,-318.1276642228951 -2927.3002912762827,-534.7707469551156 -3170.9118190951017,-781.0661115452615 -3402.3633229056295,-1056.7357661640972 -3618.4044540098143,-1361.1440308618583 -3815.773487280283,-1693.282357478105 -3991.2376174591054,-2051.7578000652716 -4141.635610421671,-2434.7855246968243 -4263.922437057661,-2840.1857233554856 -4355.215467836022,-3265.3852662670834 -4412.8417584631525,-3707.4243905245635 -4434.385912037686,-4162.968680176924 -4417.737961486396,-4628.32654425568 -4361.140678580066,-5099.472344680511 -4263.235683218428,-5572.0752659137 -4123.107699671303,-6041.533952995493 -3940.3262857809004,-6503.016874655766 -3714.984347448548,-6951.508294117033 -3447.732744686258,-7381.859652622892 -3139.8102976971973,-7788.84609037626 -2793.068512382672,-8167.227747267092 -2409.990364806804,-8511.815402402268 -1993.7025138490621,-8817.53992798752 -1547.9803508116952,-9079.524950584584 -1077.2453442887297,-9293.162032264823 -586.5541982017852,-9454.187606842142 -81.57941049575885,-9558.760833365073 431.41910063095327,-9603.541461580571 945.6315472436341,-9585.766743360518 1453.7451453840722,-9503.326371311992 1948.0003522180243,-9354.834382164505 2420.25639303197,-9139.696929196902 2862.065883960233,-8858.174806036215 3264.7582301306657,-8511.439594668584 3619.5313482563583,-8101.622314398834 3917.5511288973003,-7631.853466629659 4150.057918124444,-7106.293403428125 4308.479162712652,-6530.151996505217 4384.547228943673,-5909.696647876554 4370.421274395256,-5252.247764384245 4258.81192656709,-4566.160915502708 4043.107403768932,-3860.7950073318375 3717.4996043067404,-3146.4659350531288 3277.1085916291267,-2434.385320864449 2718.1038176841066,-1736.5841037244577 2037.8203562348144,-1065.820920145058 1234.8683641466055,-435.47540050587236 309.2339534998993,140.573298527772 -737.6303575337356,648.0821996523171 -1902.7274402366684,1072.593710344776 -3181.451392455008,1399.5973722483063 -4567.539158033446,1614.702978527737 -6053.039589656238,1703.8236628840339 -7628.301510497816,1653.3673462131833 -9281.982197983414,1450.434714684961 -11001.077554305251,1083.0216993083927 -12770.975043329385,540.2242349469385 -14575.530262697592,-187.5571005856367 -16397.167784171386,-1108.4151260832857 -18217.006635849055,-2228.739472105967 -20015.01051844072,-3553.0281826087926 -21770.162546363827,-5083.7104005040155 -23460.66398539434,-6820.983090968069 -25064.156124813297,-8762.664779691968 -26557.964076542023,-10904.06927119093 -27919.360940221155,-13237.90226252179 -29125.850415378893,-15754.18367838839 -30155.465583945617,-18440.198423117763 -30987.08123283602,-21280.478072223024 -31600.73674183153,-24256.8158105556 -31977.96623144595,-27348.3166651954 -32102.13235389374,-30531.48477956608 -31958.759822846387,-33780.34913167607 -31535.864519553616,-37066.62871534372 -30824.273789298437,-40359.937780835935 -29817.933358136703,-43628.031273215 -28514.19616038749,-46837.09011615816 -26914.088277109156,-49952.04547002492 -25022.547149233906,-52936.94055004164 -22848.627250195237,-55755.32802880903 -20405.668485370767,-58370.700472649885 -17711.42273255441,-60746.95067986925 -14788.134151458231,-62848.858207587655 -11662.569172744883,-64642.59779966408 -8365.992429391656,-66096.26486897325 -4934.0853155830855,-67180.41265090037 -1406.80435025942,-67868.59513957561 2171.8229175512306,-68137.90945244288 5753.966098820857,-67969.5308506928 9288.325199292924,-67349.23328129239 12720.529102354138,-66267.88800907558 15993.598705102322,-64721.93268265184 19048.47326829495,-62713.80303338968 21824.597657801576,-60252.31934961856 24260.56724185797,-57353.01990501886 26294.826274167877,-54038.43365677701 27866.41464794204,-50338.284770457874 28915.75696133834,-46289.621878692626 29385.486902246943,-41936.8654426377 29221.29905236405,-37331.76716046574 28372.819339948226,-32533.276056334194 26794.48455089878,-27607.306685408 24446.420552434178,-22626.405803170586 21295.308206386075,-17669.3148664889 17315.225363621317,-12820.426854168169 12488.452850788302,-8169.137108869369 6806.231998472501,-3809.0892014481888 269.4610283633393,162.68180745320572 -7110.682472191306,3646.704897466329 -15312.205696201456,6542.122114040542 -24301.863865572344,8747.824274624285 -34034.83466770489,10163.665004994526 -44454.51539240462,10691.743220605655 -55492.453526470126,10237.742653352396 -67068.4206240505,8712.315550009698 -79090.63814659821,6032.496255879519 -91456.16265850465,2123.129067510671 -104051.43627732934,-3081.7064861212075 -116753.00661739007,-9637.290871609104 -129428.41864142517,-17586.899173304504 -141937.2788588001,-26960.49477065613 -154132.49019470336,-37773.502315007136 -165861.65362001507,-50025.680620779814 -176968.63029576605,-63700.11622500169 -187295.25557163765,-78762.35825932336 -196683.1937095175,-95159.71490474016 -204975.9197078489,-112820.73104812403 -212020.81210963542,-131654.8658209419 -217671.3382176323,-151552.38746658564 -221789.31074734364,-172384.5014491534 -224247.1926561715,-194003.72588232355 -224930.42473065018,-216244.526224815 -223739.74852910987,-238924.21876541665 -220593.49550054478,-261844.14971634044 -215429.81156791226,-284791.153763522 -208208.78521100656,-307539.29270561907 -198914.4461447434,-329851.87137334666 -187556.60109580713,-351483.7243852785 -174172.47296482304,-372183.7634974245 -158828.10985035554,-391697.77137821063 -141619.5310299738,-409771.4236281621 -122673.57806336979,-426153.5168087865 -102148.44072000141,-440599.376195474 -80233.8294511523,-452874.4129754168 -57150.76863068103,-462757.7967269715 -33150.98778156125,-470046.2052972424 -8515.89148206522,-474557.6106972825 16444.907404733134,-476135.056417524 41395.50212899685,-474650.37868873315 65976.06019376383,-470007.8217344833 89805.64611337676,-462147.4950372794 112485.4940693169,-451048.61912780267 133602.71982718713,-436732.50545834115 152734.45509982688,-419265.2155868463 169452.38115806953,-398759.84522255464 183327.63196819098,-375378.3797078571 193936.03054544656,-349333.0692680998 200863.6156337479,-320887.274878609 203712.40933503775,-290355.738896054 202106.37000515734,-258104.23869047145 195697.4686964871,-224548.58639708362 184171.8217545849,-190152.94357585596 167255.80696129953,-155427.42600356968 144722.0859560563,-120924.9809996417 116395.45165520126,-87237.52756295785 82158.41611985736,-54991.35812175557 41956.45188607969,-24841.80980933033 -4197.2017467183005,2532.7771989655084 -56217.25649165612,26437.786702764923 -113942.70538308802,46169.70088381789 -177133.85239493163,61024.07353691521 -245470.12526103554,70304.04284984572 -318548.7512688551,73329.3137691493 -395884.37040829414,69445.52945424417 -476909.65358195966,58033.941083979116 -560976.9856181942,38521.27548396465 -647361.2635868525,10389.690841687672 -735263.8504293036,-26813.29767633459 -823817.7122255561,-73465.04813995176 -912093.7545977905,-129858.31012843046 -999108.3598743778,-196192.16856681832 -1083832.1118138873,-272563.55455515615 -1165199.6790355674,-358959.4670476113 -1242120.811960393,-455250.05003937834 -1313492.3911922749,-561182.668974304 -1378211.4480367491,-676377.1272904598 -1435189.0604547116,-800322.1592853259 -1483365.0103867513,-932373.3287353405 -1521723.0712781395,-1071752.4538963598 -1549306.778015265,-1217548.6686128124 -1565235.5155906684,-1368721.216270046 -1568720.7478921942,-1524104.058257783 -1559082.1943129455,-1682412.361521379 -1535763.7496547874,-1842250.9107386235 -1498348.9323001688,-2002124.4697796344 -1446575.6371012505,-2160450.094522508 -1380349.9631196498,-2315571.3749743924 -1299758.882471361,-2465774.5591837554 -1205081.5153011114,-2609306.484852008 -1096798.7775209597,-2744394.217116931 -975601.1725698705,-2869266.2629707376 -842394.5062284686,-2982175.2045021965 -698303.3145705751,-3081421.5649486384 -544671.8095322783,-3165378.6937658973 -383062.1643755034,-3232518.4299463574 -215249.98252232635,-3281437.27702612 -43216.817802997495,-3310882.7990226764 130860.35798532017,-3319779.92434203 304622.81329713936,-3307256.824898373 475546.8799207507,-3272670.0207081856 640963.9432441918,-3215628.346453821 798083.5627682338,-3136015.4063450936 944019.6445015232,-3034010.137409933 1075819.543645583,-2910105.099458416 1190495.931366379,-2765122.1127019553 1285061.213917753,-2600224.871645687 1356564.2464346227,-2416928.1766409283 1402129.037894358,-2217103.4425709397 1418995.0986315126,-2002980.167677742 1404559.037992807,-1777143.0745931477 1356416.9778688478,-1542524.6702216344 1272407.308587406,-1302393.011176007 1150653.277662731,-1060334.506857472 989604.8698324295,-820231.6427923555 788079.4093396564,-586235.5622033175 545300.2931830357,-362733.50363945786 260933.24768728128,-154311.1563728078 -64880.5091597314,34289.93733615517 -431494.82004645193,198219.73369707516 -837733.4711611302,332571.5206319742 -1281870.008700556,432437.88685102615 -1761613.0713115009,492970.4061473625 -2274097.7911125543,509442.54186262016 -2815883.7774874577,477315.2032129339 -3382960.1504125576,392304.3140647837 -3970758.033671267,250449.6868406787 -4574170.85301429,48184.430574737555 -5187582.710368092,-217595.9361959169 -5804905.022910518,-549465.5489438252 -6419621.525691302,-949402.3627502458 -7024841.639069432,-1418725.3815779893 -7613362.0982950395,-1958035.9391546284 -8177736.632936116,-2567164.0352284075 -8710353.36952222,-3245120.735359649 -9203519.512856591,-3990057.6345658232 -9649552.741161505,-4799234.3643264165 -10040878.62890591,-5668995.088064468 -10370133.290260883,-6594754.881773772 -10630270.317169221,-7570996.833615955 -10814670.970608946,-8591280.618886607 -10917256.473452207,-9648263.214731842 -10932601.150091438,-10733732.312553832 -10856045.063472113,-11838652.865532879 -10683804.716096098,-12953227.074672656 -10413080.309687609,-14066967.970007155 -10042158.000255067,-15168786.585062785 -9570505.542892199,-16247092.553533869 -8998859.695407655,-17289907.778795186 -8329303.743220152,-18284992.640949026 -7565333.521228736,-19219984.014386527 -6711910.342741521,-20082544.173331298 -5775499.30199976,-20860519.465710457 -4764091.496150653,-21542107.439304095 -3687208.8152406006,-22116030.91095053 -2555890.075214695,-22571717.282255135 -1382657.4190300393,-22899481.226482194 -181462.08454137036,-23090708.703903258 1032391.1657927867,-23138040.10967075 2242341.4400193766,-23035550.222148016 3430691.184257817,-22778922.503381345 4578747.712282846,-22365615.209836055 5666986.511439077,-21795016.70331267 6675235.7490776535,-21068587.311662644 7582881.101308312,-20189985.07890098 8369089.714133076,-19165172.76672729 9013051.789221447,-18002503.526199155 9494237.96624964,-16712782.75095554 9792670.354672581,-15309303.753210932 9889204.754082633,-13807855.071609624 9765821.298192088,-12226697.426402222 9405920.46738676,-10586508.582299232 8794621.143278675,-8910294.662295857 7919057.130363308,-7223266.775783955 6768668.349401058,-5552682.179869859 5335482.719099458,-3927649.581957824 3614384.5915904683,-2378898.6117542163 1603365.4974208842,-938513.9387273359 -696247.108554545,360365.0169709736 -3279587.424030908,1483877.3403228107 -6138079.484782592,2397804.8973717634 -9259300.151211828,3067965.1680638622 -12626880.936274296,3460629.65227357 -16220452.502712255,3542964.347000224 -20015635.383255623,3283488.2832776667 -23984080.140609022,2652545.6176700233 -28093559.784625936,1622786.3025270356 -32308116.80286302,169649.91883763336 -36588266.639299825,-1728153.1469396355 -40891258.87686389,-4088169.357731632 -45171396.74585142,-6923744.992192792 -49380414.89662107,-10243591.146247482 -53467914.64620243,-14051377.670160418 -57381855.14076575,-18345363.04407927 -61069098.07616626,-23118067.217376195 -64476002.79482912,-28355994.37361503 -67549067.73769385,-34039412.42862477 -70235613.3841983,-40142195.819805995 -72484500.97144753,-46631737.79716603 -74246880.4565429,-53468937.97844031 -75476960.3847676,-60608270.3808023 -76132791.56269321,-67997936.49019048 -76177055.72127286,-75580107.17742972 -75577849.70183343,-83291256.42075261 -74309455.11983961,-91062588.85105887 -72353082.96952002,-98820562.10473941 -69697582.2388212,-106487503.85606772 -66340101.32015205,-113982322.21540675 -62286690.83889593,-121221306.93069583 -57552836.48877195,-128119017.52913515 -52163910.57001318,-134589253.19643518 -46155531.18100369,-140546097.8264675 -39573818.423224665,-145905032.29996115 -32475537.548349075,-150584104.6834631 -24928119.708737064,-154505147.69663215 -17009551.87022904,-157595031.4953314 -8808128.508935539,-159786938.57902458 -422058.93950609444,-161021646.47315976 8041074.493201987,-161248802.78040874 16465010.59063824,-160428176.2587027 24725657.397216376,-158530866.7887657 32692093.95763055,-155540456.4585155 40227723.54578835,-151454083.5350214 47191574.144747056,-146283420.83417287 53439739.841869816,-140055539.95038417 58826954.625404045,-132813642.98817486 63208287.85067095,-124617643.8575124 66440948.41098652,-115544581.86614056 68386182.42705968,-105688851.27326225 68911247.08735463,-95162231.66571997 67891441.1606065,-84093705.48315379 65212170.69125735,-72629050.75221196 60771026.510816574,-60930199.08818688 54479848.485285275,-49174351.27831159 46266749.903188825,-37552845.26358389 36078074.12247717,-26269774.070751652 23880254.5689404,-15540354.194531055 9661548.444063585,-5589048.0698798485 -6566385.91493035,3352552.4210146074 -24767098.149209406,11048071.022543807 -44878171.29200095,17258906.834711313 -66810292.61499921,21746991.166728355 -90446597.93977381,24277720.355979502 -115642315.92308411,24623039.784781855 -142224736.86990738,22564650.78535502 -169993528.23650518,17897308.696276758 -198721416.1585178,10432177.071759496 -228155249.08185512,200.00000027940985" stroke="white" stroke-width="1.5" /></svg>