<?xml version="1.0" encoding="utf-8" ?>
<svg baseProfile="full" height="400" version="1.1" width="400" xmlns="http://www.w3.org/2000/svg" xmlns:ev="http://www.w3.org/2001/xml-events" xmlns:xlink="http://www.w3.org/1999/xlink"><defs /><rect fill="black" height="100%" width="100%" x="0" y="0" /><circle cx="200" cy="200" fill="yellow" r="10.000000122419936" stroke="orange" stroke-width="2" /><polyline fill="none" points="200.49360676424817,200.0 200.46143855340526,200.0242234161648 200.42427016134465,200.04466758434526 200.3823244525452,200.06065702318705 200.3359017914355,200.07152089288198 200.28538159990262,200.07660146913628 200.2312230390246,200.07526301552033 200.17396474800307,200.06690097030983 200.1142235805143,200.05095135438887 200.05269228717017,200.026900297773 199.99013610245842,199.99429357396485 199.92738820537647,199.95274602383125 199.8653440349266,199.90195074413361 199.80495445462915,199.84168791039966 199.74721777414297,199.77183309963885 199.69317065084562,199.69236497560854 199.64387790969576,199.60337219806522 199.6004213357281,199.5050594177992 199.56388750995822,199.39775222135924 199.53535477611902,199.28190089331522 199.51587944232614,199.1580828697575 199.5064813382626,199.02700376454268 199.50812886457524,198.88949685960563 199.52172368665168,198.7465209624755 199.54808523957044,198.59915654794722 199.5879352245414,198.4486001166325 199.64188228934498,198.2961567207793 199.71040709588823,198.14323062721328 199.79384798679277,197.99131410839914 199.89238746967604,197.84197437528908 200.00603974226928,197.69683868964654 200.1346394835194,197.55757771868963 200.2778321351603,197.4258872209615 200.43506589474052,197.30346817903376 200.60558563461308,197.1920055216993 200.78842895180867,197.09314560539676 200.98242454093833,197.0084726513968 201.18619306625197,196.93948436141778 201.3981506896939,196.88756695945398 201.61651538926998,196.8539699313166 201.83931617633502,196.83978075531323 202.06440529163046,196.84589993723503 202.28947342820325,196.87301667999077 202.5120679949168,196.9215855324359 202.72961439736892,196.99180437281916 202.9394402739538,197.08359408944818 203.1388025838844,197.19658032432656 203.32491740161416,197.3300776443225 203.49499222869426,197.48307649862397 203.6462605901408,197.65423331057568 203.7760186383824,197.8418640362893 203.88166344434902,198.04394150152615 203.96073261282962,198.2580968021845 204.01094481846295,198.48162502225375 204.03024082025573,198.71149548635987 204.01682447697627,198.94436672212748 203.96920325378633,199.17660626069733 203.88622768268894,199.40431535211235 203.7671292164077,199.62335861624905 203.61155589778807,199.82939858992106 203.41960525529922,200.01793506719966 203.19185383026783,200.1843490634349 202.92938274359045,200.32395116454984 202.63379871929567,200.4320339526178 202.30724999984767,200.5039281272877 201.95243661380482,200.53506187112382 201.5726144906048,200.52102293625845 201.17159295997791,200.45762286085753 200.75372522483755,200.34096265774042 200.32389145639866,200.16749925508728 199.88747422855957,199.93411191153558 199.4503260849608,199.63816777614787 199.01872911620057,199.27758571876214 198.59934651590711,198.85089751912923 198.19916618208887,198.35730547498937 197.82543653362407,197.7967354707848 197.48559482000806,197.1698845409347 197.1871883145245,196.47826196532304 196.93778889570717,195.7242229505944 196.7449016380617,194.91099397963598 196.61586814917126,194.0426889537496 196.55776550507716,193.1243153078517 196.57730174767948,192.16176934880986 196.68070901526394,191.16182015079278 196.8736354784865,190.13208143917484 197.16103734757166,189.0809710058103 197.54707230041498,188.01765732290426 198.0349957540497,186.95199315958916 198.62706146188373,185.894436153799 199.32442796463695,184.85595645104885 200.12707245247356,183.84793169000096 201.0337136079959,182.88202979075896 202.04174499322693,181.97008018400658 203.1471805172884,181.1239343055444 204.34461347417655,180.35531636943824 205.62719057103533,179.67566562168224 206.98660227603892,179.09597146265094 208.41309070105734,178.62660300819283 209.89547609759614,178.27713483342504 211.42120288525052,178.0561708074631 212.97640595056123,177.9711680787458 214.54599775148714,178.02826340655656 216.11377653980327,178.2321041520705 217.6625557720174,178.58568633908584 219.17431452061692,179.09020226792535 220.6303684236879,179.74490021333065 222.01156042459388,180.54695875619214 223.29847025717729,181.49137828752336 224.47164132888406,182.57089217930562 225.5118233476152,183.7759000390745 226.400228731562,185.09442535208402 227.11880053859858,186.51209966561294 227.6504893570104,188.012175283898 227.97953631662764,189.57556821914275 228.09175911313372,191.18093288435446 227.9748376928421,192.80476971818368 227.61859602503282,194.42156660175192 227.0152761984372,196.00397456444486 226.15980092202497,197.52301788213694 225.05002039210032,198.94833825015056 223.68693941189397,200.24847226782867 222.07492062012216,201.39116100582683 220.22185970482718,202.34368994554058 218.13932855129386,203.0732570874075 215.8426824005728,203.5473665265458 213.35112728024737,203.73424429614153 210.68774421309814,203.60327278738546 207.87946701315286,203.1254395761301 204.95701084249444,202.27379602761653 201.9547491256207,201.02392061864114 198.9105368998373,199.35438151856437 195.8654792180218,197.2471926138377 192.86364381119895,194.68825685244116 189.9517178589241,191.6677905318576 187.17860940082812,188.1807219638293 184.59499464731056,184.22705782768776 182.252813204888,179.81221047765234 180.20471401489843,174.9472795037539 178.50345560509967,169.64928096593871 177.20126506340526,163.94131793068476 176.3491609520898,157.85268624252367 175.99624617917,151.41890986169824 176.18897762066746,144.68170059522654 176.97042003199667,137.6888376422536 178.3794924873546,130.49396306487864 180.45021623106305,123.15629008055559 183.21097340258564,115.74022194823101 186.68378659571033,108.31488018283034 190.88362962066515,100.9535418753252 195.81778014457433,93.7329870108255 201.48522508004567,86.73275785591424 207.8761296638716,80.03433371838204 214.97138110874383,73.72022565585145 222.7422175124653,67.87299701144431 231.14995236453623,62.57421697033308 240.14580449368592,57.90335564530906 249.6708426479264,53.93663049595406 259.65605308872125,50.74581514727521 270.022537612364,48.39702288173763 280.6818482860966,46.949478214883044 291.5364639073469,46.45429101022671 302.4804117673439,46.95324852479354 313.4000367331417,48.4776415834794 324.174917964844,51.04714173974324 334.67893176998734,54.66874677387892 344.781457179315,59.33581219102453 354.3487188245152,65.02718649304757 363.2452596280867,71.7064678967815 371.3355336996069,79.32139984270525 378.48560769460255,87.80342207200351 384.5649567570673,97.06739323708786 389.4483390611897,107.01149994471615 393.01773092023313,117.51736580812276 395.16430247010123,128.45037250431 395.7904120921487,139.66020299727285 394.8115960450535,150.98161500317622 392.15852826007114,162.23545044859964 387.7789239486004,173.22988412075918 381.6393596060042,183.7619119456207 373.7269812004258,193.6190763763044 364.0510718378518,202.581423254096 352.64445002105424,210.42368124542915 339.5646697941306,216.91765159157902 324.8949946072822,221.83479246820835 308.7451176661784,224.94897877722272 291.2516028610935,226.0394147244966 272.57802211326094,224.8936731174683 252.91476713548866,221.31083199220961 232.47851618206766,215.10467599808607 211.511339355359,206.10692697868066 190.27942943368694,194.17046544031356 169.07144897213257,179.17250214462797 148.1964885835615,161.0176569494829 127.98163580464677,139.64090030198003 108.76915875778847,115.01031150653269 90.91331389551299,87.12960709480514 74.77679241409423,56.04039235549183 60.726825396873096,21.824089378920917 49.13097333858755,-15.39650413144463 40.352631348260275,-55.45606950234841 34.7462869632995,-98.14607723222326 32.65257306059277,-143.21459182685288 34.39316374695443,-190.366606999794 40.265566273703314,-239.26494270289805 50.53786686849068,-289.53173057412306 65.44349283042146,-340.7505088542307 85.17605721014931,-392.4689416559564 109.88435581353627,-444.2021707030318 139.6675890457385,-495.43680033624 174.57088317487467,-545.6355087634184 214.5811868671411,-594.2422702738086 259.62361925965087,-640.6881645178983 309.5583453307528,-684.3977400547866 364.17805284475105,-724.795890282185 423.2061026418663,-761.3151906898618 486.295420477575,-793.4036372238885 553.0281939615567,-820.5327165318977 622.9164323902651,-842.2057300997258 695.4034404066819,-857.9662859138832 769.8662484672267,-867.4068634218415 845.6190340749971,-870.1773503455629 921.9175576911776,-865.9934434660224 997.9646262188554,-854.6447999699158 1072.916585037647,-836.0028214640936 1145.890826841634,-810.0279494440891 1215.9742921011252,-776.7763489697871 1282.2329219505343,-736.405856665233 1343.7220098353228,-689.1810700223821 1399.4973834803866,-635.477457439792 1448.6273338337687,-575.784372542876 1490.205192769843,-510.70686217256036 1523.3624466922201,-440.96616503691996 1547.2822589562975,-367.39880741937714 1561.2132604396427,-290.9542135303518 1564.48345483652,-212.69076105778345 1556.5140735558018,-133.77022717332864 1536.8332046753435,-55.45058661840801 1505.089011465455,20.922858564395767 1461.062348750225,93.92801869151684 1404.678580031789,162.07820581708881 1336.0183950528995,223.83593130439885 1255.327426498284,277.6282472641719 1163.024465999336,321.86354400648696 1059.7080836552727,354.9496916424554 946.161462039419,375.31338974424983 823.3552652191652,381.4205648144183 692.4483757512855,371.7976315328674 554.7863479584255,345.0534106634348 411.89744405178465,299.9014744453755 265.4861408074603,235.1826696117427 117.4240184596188,149.88754921579022 -30.2620298668852,43.17842755942215 -175.404300649346,-85.58924194678127 -315.71149527691773,-236.84647786189998 -448.78861536939246,-410.79169120540735 -572.1594697484704,-607.3732410283528 -683.2916876254114,-826.2739522242243 -779.6240943172688,-1066.8979202604862 -858.5962667773695,-1328.3599208290818 -917.6800468579574,-1609.477731328586 -954.4127509808975,-1908.7676554453583 -966.4317762724968,-2224.4435217850223 -951.5102657430446,-2554.419402458976 -907.5934593034813,-2896.316267748288 -832.8353238687309,-3247.472758502227 -725.6350250674147,-3604.960218896596 -584.672775731739,-3965.602088756853 -408.9445729457251,-4325.997707089927 -197.7953165407389,-4682.550527080426 49.05021191915918,-5031.500687974681 331.4590389129427,-5368.9618314513045 648.8648890157366,-5690.96198977907 1000.2468025511967,-5993.488310875478 1384.111997130168,-6272.535321950345 1798.483471166637,-6524.156369454071 2240.89282185155,-6744.517809309046 2708.3787168620343,-6929.955458693477 3197.4914181933186,-7077.032759819907 3704.303707915202,-7182.6000480858565 4224.428509466034,-7243.854262582847 4753.043434491964,-7258.398387151372 5284.922414513867,-7224.299865892593 5814.474499261655,-7140.147199213256 6335.789819868537,-7005.10389598941 6842.692625891783,-6818.958935159446 7328.801211058412,-6582.172876825177 7787.594444568799,-6295.918759520285 8212.484523681775,-5962.116927399427 8596.89546020531,-5583.462949324796 8934.346709575939,-5163.447821696681 9218.54124766484,-4706.369688802366 9443.45729861445,-4217.336368726101 9603.442818266101,-3702.2580396260073 9693.311743524553,-3167.829520446838 9708.44092979227,-2621.5016717515136 9644.866617895857,-2071.4415460075666 9499.379200226022,-1526.4810318736813 9269.614994614485,-996.0538631368822 8954.143685243045,-490.120999114233 8552.550054035197,-19.084528533694396 8065.508604860915,406.3095980539607 7494.849677739427,775.0795427856528 6843.615662189906,1076.1256329708742 6116.105948947119,1298.3576950129986 5317.909308273761,1430.830704319841 4455.922451717165,1462.8876175420473 3538.3536228374487,1384.3080880970213 2574.7101714171977,1185.4616056359528 1575.7691949524974,857.4634472263559 553.5304805747709,392.33168495059107 -478.84885055320547,-216.85663620028754 -1507.13840667662,-975.8121523811565 -2516.1375017115547,-1888.8847681356042 -3489.797027694238,-2958.922357556654 -4411.359970515,-4187.138817784567 -5263.520067090546,-5572.993746971641 -6028.597842750558,-7114.0860265507845 -6688.733000332576,-8806.063567510788 -7226.091860087445,-10642.551430791862 -7623.088275043069,-12615.10045151462 -7862.616173233327,-14713.158384482022 -7928.291609650943,-16924.065443507083 -7804.701950584037,-19233.07592923927 -7477.659564941875,-21623.40742929285 -6934.457165164386,-24076.318831033586 -6164.1217283038295,-26571.218112203595 -5157.663739842922,-29085.800568958246 -3908.318342715713,-31596.217806613815 -2411.7748456887666,-34077.27745770118 -666.3909524656349,-36502.67320750855 1326.6119808708402,-38845.24430236442 3562.9763638801974,-41077.26329412663 6035.262135164514,-43170.750339830105 8732.730459246472,-45097.81193273895 11641.260813107001,-46831.00149513283 14743.304734811865,-48343.69881934138 18017.879269896413,-49610.504907504066 21440.60286079903,-50607.64833820967 24983.776080659532,-51313.39888573887 28616.509215919974,-51708.48374143521 32304.898253773405,-51776.50134319366 36012.25033273076,-51504.327514651006 39699.359170304604,-50882.50835679659 43324.83039469308,-49905.63412765896 46845.45608182552,-48572.68819651615 50216.63714041572,-46887.36507345798 53392.85150172345,-44858.35149841221 56328.16536426525,-42499.564630765824 58976.784024158915,-39830.34151569639 61293.638097197945,-36875.57421981136 63235.00021781753,-33665.785329450664 64759.126592047425,-30237.13889194007 65826.91709601054,-26631.38235414413 66402.58695856502,-22895.715613801876 66454.3424566094,-19082.5839461867 65955.05249482383,-15249.392299316742 64882.907448720165,-11458.139261763201 63222.05623121514,-7774.969893358196 60963.21220871523,-4269.64756478945 58104.218352712174,-1014.9459699778622 54650.5618764391,1914.036453248488 50615.828581862545,4440.636343069617 46022.08723799166,6487.454974414552 40900.194534026465,7977.251891140115 35290.01150596986,8833.89576280746 29240.522827444296,8983.36444805752 22809.850987649745,8354.785096711983 16065.158153188275,6881.504009866693 9082.429425715954,4502.174917720275 1946.132262159564,1161.8533454461663 -5251.251985225172,-3186.916164926756 -12409.82713109391,-8583.034006854794 -19423.013100780172,-15055.815343211865 -26178.408479333626,-22624.011068741733 -32558.782733333795,-31294.895534005358 -38443.19442983498,-41063.436881252084 -43708.22996261188,-51911.56587750921 -48229.35542845731,-63807.55896979875 -51882.372395300554,-76705.55092067196 -54544.96639076948,-90545.19179994437 -56098.33503749663,-105251.46230344269 -56428.88089434714,-120734.66033677517 -55429.952256433375,-136890.57053930493 -53003.61344779567,-153600.8269308494 -49062.42453621776,-170733.47714438554 -43531.20893743591,-188143.75476839626 -36348.786083714076,-205675.06417184026 -27469.645236835648,-223160.17983566225 -16865.53565485911,-240422.65968323336 -4526.947701341898,-257278.4692074139 9535.54086038087,-273537.8103566158 25290.079194169983,-289007.146192201 42682.54387677576,-303491.4092938059 61635.75047521156,-316796.37879971747 82048.90019362676,-328731.20786112343 103797.28425013111,-339111.08019931713 126732.26695655151,-347759.97142341716 150681.56641273323,-354513.4878344916 175449.84929234342,-359221.7526533481 200819.65339447,-361752.3070078695 226552.64847485404,-361992.99064659816 252391.24236772995,-359854.76525334467 278060.5355845713,-355274.44146742893 303270.62345562456,-348217.269309423 327719.2404953865,-338679.3507148698 351094.7370610256,-326689.8323280531 373079.3735751951,-312312.83664136135 393352.9126492244,-295649.0900162952 411596.48442120943,-276837.2071187571 427496.69537294976,-256054.5928681242 440749.945870825,-233517.92515545632 451066.91675309016,-209483.18434361342 458177.1805274366,-184245.19892709554 461833.88821819937,-158136.68070089456 461818.47868420434,-131526.72735674595 457945.3533889747,-104818.77557511628 450066.4562180236,-78447.99338688896 438075.69507560227,-52878.10680623447 421913.13972636923,-28597.662443087043 401568.92874408106,-6115.734938665023 377086.8175539029,14042.904429534061 348567.2994670032,31343.13382452786 316170.23235958064,45245.30943510868 280116.905290289,55211.53623430432 240691.48191931754,60712.332368814765 198241.76111930504,61233.630484301124 153179.19967302444,56284.051297600214 105978.14744488125,45402.37700232947 57174.25189055116,28165.144753066837 7361.996216781944,4194.273632289893 -42808.65610580581,-26835.367717771183 -92636.52848185535,-65188.55110052866 -141374.41784840295,-111062.53933871353 -188235.19780024525,-164580.30400598643 -232398.82352466855,-225784.21948397908 -273020.2116822714,-294630.34390490316 -309237.9556828634,-370983.39765058045 -340183.8237598071,-454612.54882032756 -364992.9739810095,-545188.1123765447 -382814.8070003494,-642279.2654649314 -392824.3641109066,-745352.8756373728 -394234.16518186865,-853773.5313472664 -386306.36852342624,-966804.8551243648 -368365.1228139626,-1083612.1692732498 -339808.9701315846,-1203266.571800566 -300123.14905022696,-1324750.46660649 -248891.63788233956,-1446964.5768432296 -185808.77066659436,-1568736.4538379635 -110690.25259656209,-1688830.476212783 -23483.397444295875,-1805959.314946655 75723.59267937289,-1918796.8202740822 186693.48501153255,-2025992.2656841564 309033.1889521284,-2126185.863076754 442188.4172348607,-2218025.441574903 585440.0017754016,-2300184.160828484 737902.0210800478,-2371379.108136761 898521.8840766558,-2430390.607644096 1066082.500601018,-2476082.0495156283 1239206.6515436603,-2507420.027679363 1416363.6518743704,-2523494.5567373796 1595878.3774894953,-2523539.1223150357 1775942.7021806878,-2506950.3047464993 1954629.3641510163,-2473306.703898245 2129908.252590546,-2422386.8834122284 2299665.0740913027,-2354186.0459978348 2461722.32639178,-2268931.1478916667 2613862.473391243,-2167094.160490926 2753853.180896711,-2049403.1906780747 2879474.4375277194,-1916851.1786912133 2988547.350004237,-1770701.9037210192 3078964.367108075,-1612493.0428571783 3148720.6523904805,-1444036.0486489432 3195946.2926721834,-1267412.6344226163 3218938.998037101,-1084967.6845998918 3216196.9198602885,-899298.4395186307 3186451.1869435553,-713239.8405488431 3128697.7365677436,-529845.9614399276 3042227.997713376,-352367.49558953516 2926657.9683426665,-184225.31598680397 2781955.2179479487,-28980.17459025644 2608463.3410002934,109701.33957294104 2406923.386889449,228084.40973756398 2178491.797803313,322406.9382576433 1924754.398073691,388923.5441377459 1647735.9970821084,423952.2671890495 1349905.1930783542,423923.57801289036 1034173.9973489707,385431.23745045986 703891.9371414918,305284.49552802043 362834.34157900646,180561.06907021924 15184.56737779726,8660.289866710826 -334490.0196933578,-212644.22761326144 -681268.4262972992,-485153.0876294556 -1019912.8234089164,-810191.5039960865 -1344911.7194505648,-1188562.3253990056 -1650529.4041787402,-1620502.4574528842 -1930861.467380349,-2105643.4525891445 -2179896.107713398,-2642977.038708938 -2391580.8559015947,-3230826.347779603 -2559894.2439377,-3866823.5856759017 -2678921.8590224516,-4547894.854138757 -2742936.1287951157,-5270252.794415652 -2746479.0941961394,-6029397.669743956 -2684447.339294508,-6820127.440250802 -2552178.16490984,-7636557.309109551 -2345536.0161901456,-8472149.133102067 -2060998.104814897,-9319750.994415263 -1695738.1055243965,-10171647.124038018 -1247706.7555603816,-11019618.251166446 -715708.1456345281,-11855012.328377118 -99470.46346504973,-12668825.449958801 600290.0630901859,-13451792.64183164 1381813.2756396919,-14194488.057219366 2242248.4836829486,-14887433.96410932 3177618.355211959,-15521217.760126144 4182794.452967155,-16086616.09947266 5251485.502255241,-16574725.066898862 6376239.390633434,-16977095.187191833 7548459.795986411,-17285869.91747963 8758438.217641365,-17493926.135812614 9995402.0454881,-17595015.01519196 11247579.145140072,-17583901.55963813 12502279.263785845,-17456500.980218895 13745992.372592548,-17210010.006343957 14964503.858653449,-16843031.163189713 16143026.264096892,-16355688.001854217 17266347.04394033,-15749729.246669117 18318991.57967527,-15028619.825763121 19285400.444754638,-14197616.778055966 20150119.67369938,-13263828.08373469 20898002.54124777,-12236252.547039002 21514421.114830382,-11125798.970721975 21985485.60583769,-9945283.001400532 22298269.315968174,-8709400.194392886 22441036.757837813,-7434674.04543022 22403472.327498045,-6139377.964319947 22176906.724106897,-4843430.421335325 21754538.152273446,-3568262.779503643 21131645.209055886,-2336659.6333385883 20305788.25365208,-1172571.8047607143 19276995.98675965,-100902.49739523976 18047933.931476865,852732.521876522 16624051.511321198,1662269.4637241247 15013704.466006018,2301484.1376304356 13228249.434249954,2744300.6143883765 11282107.666911706,2965118.4920427646 9192795.014522186,2939155.9325454836 6980915.56170189,2642805.2502297196 4670116.557361054,2053997.4612194924 2287002.6137538133,1152571.8506501087 -138992.4814356721,-79353.71221185046 -2575777.5792304277,-1657016.276423424 -4988820.3890917245,-3592649.9534433843 -7341408.383219223,-5895141.742766363 -9594954.127020167,-8569706.246705895 -11709344.2071817,-11617584.596030572 -13643330.33073256,-15035772.963719653 -15354960.548118543,-18816786.03650371 -16802047.916863378,-22948460.738956157 -17942673.276684027,-27413805.359129433 -18735718.15938686,-32190899.00514785 -19141423.215426747,-37252846.026574664 -19121966.91204499,-42567789.66133921 -18642058.65419034,-48098988.71800589 -17669539.90803364,-53804960.57457267 -16175986.37708545,-59639693.170186706 -14137303.802090988,-65552927.987570845 -11534309.537383797,-71490515.27508466 -8353291.707467571,-77394841.94278152 -4586537.4772733115,-83205331.69232845 -232821.78642746547,-88859016.0130768 4702152.1899133595,-94291173.70390277 10205369.57607801,-99436035.57174759 16256185.924629765,-104227549.92323689 22826083.296908114,-108600203.41645215 29878508.29356674,-112489890.78796272 37368799.54987624,-115834825.92849618 45244211.60124883,-118576485.76277459 53444041.28845702,-120660577.40934557 61899862.00997791,-122038018.16942272 70535870.14311723,-122665917.03490159 79269346.85001516,-122508545.63006878 88011237.26503614,-121538285.8242857 96666847.73395225,-119736540.68915316 105136660.35207868,-117094595.03791215 113317262.53933848,-113614411.49115694 121102387.8081236,-109309347.87446462 128384062.23958848,-104204781.78241499 135053849.50215882,-98338628.35052401 141004185.54073107,-91761737.67122683 146129792.35586917,-84538158.87983376 150329158.60033432,-76745258.72712924 153506073.06767172,-68473683.45057546 155571195.55754527,-59827153.95725941 156443648.09900704,-50922085.737618074 156052608.12044162,-41887026.535828836 154338883.89828697,-32861906.604021218 151256451.5204777,-23997098.353754733 146773931.68942025,-15452284.37724198 140875983.98668838,-7395135.12722131 133564595.75049372,199.9999998364308" stroke="white" stroke-width="1.5" /></svg>