<?xml version="1.0" encoding="utf-8" ?>
<svg baseProfile="full" height="400" version="1.1" width="400" xmlns="http://www.w3.org/2000/svg" xmlns:ev="http://www.w3.org/2001/xml-events" xmlns:xlink="http://www.w3.org/1999/xlink"><defs /><rect fill="black" height="100%" width="100%" x="0" y="0" /><circle cx="200" cy="200" fill="yellow" r="10.000000002604704" stroke="orange" stroke-width="2" /><polyline fill="none" points="201.0010100918036,200.0 200.98667470885744,200.05179591500442 200.964975076062,200.1015935352712 200.9358813200689,200.14848062830882 200.89945992386032,200.19151483709308 200.85587956315157,200.2297332132257 200.80541606929543,200.2621626390667 200.74845639867308,200.2878310685389 200.68550149288447,200.30577950140236 200.6171679201101,200.31507459096048 200.54418819584367,200.31482177057174 200.46740969081515,200.30417877020304 200.38779204533296,200.2823693807777 200.30640302245547,200.24869731145387 200.22441274730392,200.2025599734327 200.14308629638782,200.14346201365896 200.06377461892959,200.07102841304695 199.98790379172905,199.98501695686141 199.91696262995433,199.88532987979917 199.85248869820728,199.77202448535147 199.79605278909497,199.6453225383546 199.7492419601175,199.5056182314213 199.71364124371155,199.35348453032697 199.6908141694986,199.189677710527 199.6822822618899,199.01513990689415 199.68950369988616,198.83099951155356 199.71385134886086,198.63856927039512 199.75659039599262,198.43934194745108 199.81885584147372,198.234983447812 199.901630116317,198.02732331403504 200.0057211141622,197.81834253796546 200.13174093859843,197.61015865938637 200.28008567882662,197.40500815473592 200.45091653466415,197.20522615304768 200.6441426166222,197.01322355199375 200.85940574778354,196.83146164412025 201.09606759120572,196.66242440169722 201.3531994193465,196.50858860765706 201.6295748303569,196.3723920594315 201.92366569986626,196.25620011164432 202.23364163598444,196.16227086207826 202.55737317961803,196.09271932258227 202.8924389618422,196.04948095207925 203.23613699504745,196.03427496201058 203.5855002350146,196.04856783484752 203.9373165071512,196.0935375231409 204.2881528421003,196.1700388194017 204.63438421413346,196.278570405356 204.97222662055387,196.41924410226366 205.29777438222254,196.59175685152462 205.6070414848086,196.79536595625302 205.89600671804396,197.02886810944963 206.1606623067896,197.29058272247477 206.39706566380562,197.57834004840674 206.60139383052788,197.88947456831832 206.77000010970048,198.22082407434934 206.89947233325225,198.56873484161522 206.98669215121942,198.92907323146878 207.02889467371517,199.2972440115361 207.0237277488553,199.6682156134703 206.9693101160897,200.03655247782578 206.86428763748364,200.3964545572601 206.70788678003632,200.74180396495333 206.49996450098325,201.06621866532996 206.24105367602536,201.36311300963015 205.93240320831782,201.62576482046077 205.57601196453112,201.84738862812773 205.1746557039638,202.02121455837812 204.7319061980481,202.14057226731742 204.25214178104014,202.19897921596635 203.74054862849115,202.19023247549984 203.20311212839448,202.10850315606123 202.64659779067446,201.9484324586019 202.07852123376628,201.7052282619425 201.50710689209066,201.374761077685 200.9412352047525,200.95365813522835 200.39037817310657,200.43939429944786 199.8645233120728,199.83037847604626 199.37408616620908,199.1260341255778 198.92981171533597,198.3268724880144 198.5426651545563,197.43455711670296 198.2237126982517,196.45195833476708 197.9839932253322,195.38319625941466 197.83438175177568,194.23367109104063 197.7854458842951,193.0100794350951 197.84729657365796,191.7204155158524 198.029434645501,190.37395625267945 198.34059473808907,188.98122930113226 198.78858841796023,187.55396331292852 199.38014837334046,186.10501984000052 200.12077569915704,184.64830649760228 201.014592384008,183.1986712087084 202.06420118618857,181.77177757529978 203.27055514055345,180.38396165987413 204.63283896845135,179.05207071065988 206.14836466719962,177.79328462426534 207.81248353176858,176.62492120730104 209.61851680793077,175.56422657104628 211.55770709178518,174.6281522674178 213.6191924742656,173.83312104703822 215.79000528029457,173.19478338759262 218.05509707031325,172.72776719923408 220.39739135706114,172.44542335974424 222.79786524316395,172.3595699615671 225.2356609062135,172.48023836175338 227.68822754895194,172.8154243103054 230.1314940947206,173.37084758846814 232.54007254480237,174.14972371232147 234.88749152744947,175.15255134489965 237.14645916150133,176.37691910848972 239.2891539342711,177.81733549449856 241.287541857997,179.46508552840015 243.1137177262066,181.30811775921688 244.74026784583947,183.3309650046249 246.14065117828713,185.51470209244897 247.2895953883313,187.83694359592212 248.16350388026694,190.2718842630954 248.74086950147617,192.79038449030406 249.00269022172117,195.36010278640185 248.9328817578858,197.94567672005158 248.5186818152722,200.50895333892927 247.7510403642363,203.00926950024166 246.62499017116616,205.40378196022226 245.13999166157413,207.6478464407964 243.3002461160671,209.6954442296828 241.11497119243694,211.49965418190033 238.59863283382543,213.01316728276095 235.77112776800408,214.18884021245378 232.65791102971858,214.98028362840148 229.29006324943148,215.34248016244703 225.70429284944532,215.23242642486667 221.94286877312976,214.6097926259208 218.05347994461505,213.43759277821465 214.0890183135579,211.68285783986641 210.10728307999324,209.31730360983147 206.17060451421793,206.31798470319757 202.34538668123017,202.66792552621538 198.70156934235118,198.35671884840082 195.31201033088556,193.38108234197733 192.25179077538857,187.74536333643914 189.59744666342402,181.46198202662535 187.42613138954533,174.55180348410443 185.81471510140716,167.0444290605733 184.8388278341558,158.97839814394277 184.57185459132953,150.40129173710292 185.08389167534204,141.36972997889313 186.44067467643086,131.94925651784837 188.70248957935527,122.21410358151383 191.92307942534674,112.246832655335 196.14855985584782,102.1378468913634 201.41635764738885,91.9847727022722 207.75418700669417,81.89170945250005 215.1790789153341,71.96834772572021 223.69647917812276,62.32895831420288 233.299431024074,53.09125582690493 243.96785811923525,44.37514263317087 255.66796366465917,36.301340729753775 268.35176085931175,28.989921020542226 281.9567493978343,22.558741409377944 296.4057518398929,17.12180700346289 311.6069226267514,12.787567583590288 327.45394122964694,9.657169292081306 343.8263993941787,7.822679193248433 360.5903906988049,7.365302947165077 377.59930868027936,8.353617277876708 394.69485760422265,10.841840184249435 411.70827758804506,14.868162908063056 428.46178323246625,20.45316851301655 444.7702122065808,27.59836251432577 460.4428773828171,36.284841307367145 475.2856131584442,46.47212415289522 489.10300355889984,58.09717416558351 501.7007766274862,71.07363310444126 512.8883465010866,85.29129376349559 522.4814814901437,100.61583239788138 530.305073463127,116.8888218867871 536.1959809229123,133.9280442273082 540.005915398159,151.52811847336227 541.6043382012455,169.4614573873094 540.8813322705385,187.47956286967027 537.7504117636345,205.31466669031525 532.1512303442341,222.68171918407688 524.0521477517975,239.28072442154945 513.4526133017729,254.7994159540379 500.38532447428213,268.9162625976806 484.9181187470456,281.3037889084678 467.1555573467007,291.6321900550758 447.2401606599619,299.5732157728356 425.3532566857541,304.8042930369838 401.71540613946013,307.0128520878948 376.58637065258887,305.9008155402256 350.2645939505362,301.1892055797654 323.0861699356404,292.6228197666693 295.4232762425507,279.9749217937311 267.6820570502683,263.0518897663948 240.29994470381416,241.69776125035327 213.7424159835016,215.798611545031 188.49918561764625,185.2866994573851 165.07984681283864,150.14431333788878 144.00897611348836,110.40724936305112 125.82072772953066,66.16785406528348 111.052950509987,17.57756397431089 100.2408689046649,-35.15112300937659 93.91037745353324,-91.74330720135714 92.57100647341535,-151.86103672581902 96.70862456900207,-215.1034015335497 106.77795126920023,-281.00742065285385 123.1949603660984,-349.0497648855945 146.32926129517216,-418.6493495985759 176.49655202318266,-489.1708237610951 213.95124228588006,-559.9289719856598 258.87935052386604,-630.1940360975785 311.39178138751197,-699.1979517615039 371.51809311096997,-766.1414840146429 439.2008652876125,-830.2022332968702 514.2907775191842,-890.5434708409416 596.5425079728398,-946.3237492186315 685.6115579894561,-996.7072205703118 781.0521044821368,-1040.8745817283195 882.3159758988006,-1078.0345522404405 988.7528399670115,-1107.4357783810017 1099.6116822802055,-1128.3790437832383 1214.0436440287676,-1140.2296555238117 1331.106274853825,-1142.4298635290158 1449.7692429544513,-1134.511161245163 1568.9215292805218,-1116.1063068155609 1687.380115986799,-1086.960896723776 1803.9001614253339,-1046.944318183221 1917.186634952441,-996.0599026543159 2025.9073648855713,-934.4541009205159 2128.7074322501894,-862.4245003081091 2224.224821713321,-780.4265070307575 2311.1072195371316,-689.0785213988783 2388.029826749057,-589.1654408550094 2453.7140342790904,-481.6403355544387 2506.9467858394473,-367.62415355415635 2546.6004341093912,-248.40332762218605 2571.6528766410156,-125.42517322209682 2581.207740129979,-0.2909873195415287 2574.514365611651,125.25321978023814 2550.9873330609335,249.3284024381866 2510.2252521028017,369.93658328509457 2452.028536380991,484.97736904569837 2376.4158728737584,592.2668342883225 2283.6390943599768,689.5586963677688 2174.196163577062,774.5676711733287 2048.8419815995994,844.9948647566742 1908.5967407986655,898.5550208665785 1754.751554576886,933.0054092606808 1588.8711120341552,946.1761048289577 1412.793125881435,936.0013735039978 1228.624366315704,900.5518481252661 1038.733102178141,838.0671463603405 845.7378034662748,746.9885539686315 652.4919960288378,625.9913706315674 462.06519985092206,474.0164927761686 277.7199264877073,290.30078878874406 102.88475861759392,74.40580724108011 -58.8764150113754,-173.7556512982788 -203.898883206471,-453.8955731787129 -328.45513376318013,-765.3298549300974 -428.7961757969515,-1106.9609778686038 -501.1958691048932,-1477.2646881617854 -541.9979095687686,-1874.2811170786226 -547.6650630306085,-2295.6107500535772 -514.8301847720945,-2738.415620266995 -440.34850848209396,-3199.4260626384716 -321.3506382033181,-3674.953317480999 -155.29563002701093,-4160.908219692667 59.97649191912379,-4652.826149483732 326.19347754327146,-5145.898354558835 644.6015740337712,-5635.009681804422 1015.9189772106668,-6114.782679375272 1440.2927740483533,-6579.627948238121 1917.2601471503895,-7023.800536419293 2445.714610604288,-7441.462080217646 3023.8780356294433,-7826.748305378872 3649.279203246281,-8173.8414086661705 4318.739589419482,-8477.046747466784 5028.367045451955,-8730.873173187729 5773.557982626869,-8930.116254416387 6549.0086051398,-9069.94354941338 7348.735659291269,-9145.98100576702 8166.107079922802,-9154.399489298408 8993.88281752876,-9092.000375909636 9824.26602186828,-8956.299080357447 10648.964640900434,-8745.605346233897 11459.263368298716,-8459.099083034605 12246.105739656989,-8096.900510328791 13000.186037925692,-7660.133356872205 13712.050523920976,-7150.979865097111 14372.207359388542,-6572.726369725173 14971.244439675827,-5929.7982541073625 15499.954202307748,-5227.783139973677 15949.46432852164,-4473.44123607922 16311.373109057951,-3674.7018590820776 16577.88810527033,-2840.6452459978786 16741.966604025445,-1981.4689016429315 16797.456242071607,-1108.437866269179 16739.23406475149,-233.8184475331525 16563.34218729548,629.2048638016897 16267.118146613959,1466.6293845414962 15849.317969598651,2263.7510218581297 15310.229942448523,3005.2975173065993 14651.777046340421,3675.5775941289926 13877.606029597675,4258.645214606291 12993.161116923056,4738.477913020671 12005.740413591378,5099.167925303461 10924.533147826347,5325.124591488393 9760.636008739586,5401.286264682555 8527.046980684716,5313.339723594235 7238.6352478680665,5047.944858046507 5912.085945375045,4592.962181795509 4565.818763870232,3937.680527876687 3219.879674161388,3073.042102170223 1895.8053232250134,1991.8619144511651 616.4599633980173,689.038476364716 -594.154890957543,-838.2474440608939 -1711.1175325430206,-2590.349288332361 -2708.82893991386,-4564.98970108626 -3561.280167301312,-6757.117349774679 -4242.342554697609,-9158.788818402769 -4726.078670106787,-11759.078729047076 -4987.07149789201,-14544.021105112215 -5000.768993444859,-17496.584803661368 -4743.840740146468,-20596.685609867156 -4194.543075197566,-23821.237304397462 -3333.0887019545467,-27144.243684673696 -2142.0164836324752,-30536.93314433061 -606.5568223914286,-33967.9369934248 1285.0122253349202,-37403.512237201125 3541.023156204401,-40807.8090264377 6166.096769884811,-44143.18245115922 9160.844788152079,-47370.54777610104 12521.602717465235,-50449.77761573912 16240.198313322975,-53340.13892458885 20303.760920998033,-56000.76704114309 24694.57681232161,-58391.17337815924 29389.99540920987,-60471.78270549882 34362.390979478434,-62204.495332358805 39579.18400787181,-63553.268871937704 45002.92598471413,-64484.71367215781 50591.45081668232,-64968.69543011445 56298.09545041395,-64978.937984712175 62071.99161254852,-64493.61881085914 67858.42981300307,-63495.949328978204 73599.29593653964,-61974.73180465662 79233.5798668734,-59924.88435395933 84697.95465470222,-57347.92539883198 89927.42376421644,-54252.408842145065 94856.03292109295,-50654.30126066774 99417.64204894763,-46577.29255318972 103546.75173195403,-42053.031735775876 107179.37759101146,-37121.279951339915 110253.96492246179,-31829.97325975811 112712.33493560941,-26235.18839969268 114500.65295254021,-20401.005464814567 115570.40801570604,-14399.262314357631 115879.39250057275,-8309.196538367807 115392.66956750635,-2216.971917478239 114083.51562421615,3784.9124504344923 111934.32442244403,9598.330846527217 108937.45899469628,15120.356506469929 105096.03736257034,20244.201613560374 100424.6378306601,24860.267659012596 94949.90973107588,28857.300474015974 88711.07571396195,32123.642553877424 81760.31209817843,34548.57358925511 74162.9944109335,36023.728412967925 65997.79606109322,36444.57988427212 57356.62911148901,35711.97258815198 48344.41734179103,33733.691648354696 39078.69322394757,30426.049463644555 29689.012062689737,25715.471801583528 20316.178377270415,19540.063447805445 11111.281607714052,11851.132535923694 2234.540406709603,2614.651798193212 -6146.04288877511,-8187.365696580448 -13856.213542671609,-20555.59919108658 -20717.174814005415,-34472.28433133042 -26547.468137629596,-49900.231670247296 -31165.011031079808,-66782.02216956548 -34389.27789584616,-85039.40159836721 -36043.60610889768,-104572.89472028147 -35957.60706111566,-125261.65882746896 -33969.65912967868,-146963.59451317822 -29929.457009271497,-169515.7295741335 -23700.58941132203,-192734.88960184905 -15163.114911175817,-216418.66616496694 -4216.1037204066215,-240346.69051419228 9219.888574579274,-264282.2174732845 25200.450696399294,-287974.02063459903 43755.08525725964,-311158.59618143336 64885.15541498622,-333562.6686422757 88562.04607251825,-354905.9876791947 114725.57693142912,-374904.40066390095 143282.70407797396,-393273.1813447465 174106.54564954105,-409730.5904047075 207035.76548089212,-424001.6392066995 241874.34644902413,-435822.0235743593 278391.7825143701,-444942.19012277765 316323.71519205224,-451131.49349619943 355373.0363842113,-454182.3989518677 395211.4751743232,-453914.68111582304 435481.68134542025,-450179.5664929515 475799.8130624095,-442863.76450492674 515758.63038793753,-431893.3295200846 554931.090123543,-417237.2945908313 592874.4309323684,-398911.0164862097 629134.7308640997,-376979.1711553824 663251.9123319273,-351558.3390329458 694765.1623573045,-322819.1206443631 723218.7285802966,-290987.7248281791 748168.0442167717,-256346.97459222315 769186.1279196051,-219236.67918649924 785870.1974656285,-180053.32541952896 797848.4294434158,-139249.04657111168 804786.790762313,-97329.83345557464 806395.861945833,-54852.95924711733 802437.5669188192,-12423.597562354966 792731.7194533073,29309.37803813569 777162.2927069487,69658.41557288988 755683.3154710873,107903.11957655872 728324.2969392937,143296.881206992 695195.0811015916,175074.27416003103 656490.0323473085,202459.17553159464 612491.4555936037,224673.55900665803 563572.1573100014,240946.89586156738 510197.05823205994,250526.08737883405 452923.7743861237,252685.84054038578 392402.0903040472,246739.38744245152 329372.2569966415,232049.43792580604 264662.0573658141,208039.24460681042 199182.5932369537,174203.64999878008 133922.76103532454,130119.97690222853 69942.39724304204,75458.61588830869 8364.090066121575,9993.157671239678 -49636.32989701958,-66390.08637351885 -102840.58989535963,-153683.33518190353 -150000.01799970138,-251749.5212026609 -189848.76194248896,-360315.5657412668 -221118.09783762702,-478966.9034915186 -242551.7234678291,-607143.4082858332 -252921.9115152789,-744136.8648542486 -251046.3790562889,-889090.1218551989 -235805.71109635654,-1040998.0495936326 -206161.15815349465,-1198710.411666028 -161172.6111779367,-1360936.7432877407 -100016.54170348449,-1526253.3103163159 -22003.681340264495,-1693112.2020668874 73403.79718037939,-1859852.5880372266 186575.8449363709,-2024714.143767928 317699.10255983646,-2185852.6244394104 466762.7262669154,-2341357.536667028 633545.7353572114,-2489271.82954717 817606.1409475676,-2627613.495611385 1018272.1109591578,-2754398.9412750085 1234635.4181409099,-2867667.954962215 1465547.4060553059,-2965510.069719351 1709617.6923794332,-3046092.0861855675 1965215.8095297539,-3107686.4916877258 2230475.9594913605,-3148700.482395781 2503305.0328559084,-3167705.268359507 2781394.01153043,-3163465.316299844 3062232.8405059064,-3134967.162703325 3343128.8166575525,-3081447.4105199547 3621228.502029822,-3002419.5070390347 3893543.1257341383,-2897698.8887448274 4156977.3928076625,-2767426.0715464363 4408361.57055234,-2612087.262118277 4644486.6734521715,-2432532.068529786 4862142.517261847,-2229987.8961973223 5058158.361827487,-2006070.628722194 5229445.811238971,-1762791.2125979927 5373043.589662775,-1502557.7902311229 5486163.762337128,-1228173.0573084496 5566238.924427361,-942826.558282529 5610969.8364612665,-650081.6775708193 5618372.944626578,-353857.13384226745 5586827.1880552685,-58402.84027376865 5515119.464079591,231729.94540881118 5402488.097045138,511724.1913274134 5248663.6373082,776538.3220003038 5053906.305194645,1020952.9742743677 4819039.390579574,1239623.0660783704 4545477.922930373,1427134.8850725284 4235251.939643801,1578067.8221685705 3891023.7027291255,1687060.2919588417 3516098.245686244,1748879.2992988569 3114426.6740451725,1758493.0296742402 2690601.6946121897,1711145.7616447282 2249844.910033505,1602434.3237341822 1797985.4867423598,1428385.246799382 1341429.8854738185,1185531.69735653 887122.4339512871,870989.2187757379 442496.6205677061,482529.25686635106 15417.095258121806,18649.405344932547 -385887.5215010354,-521360.72386010166 -752900.7994610706,-1137359.1194752154 -1076903.280509704,-1828297.599302782 -1349065.4024275022,-2592175.7614449495 -1560547.951746436,-3426003.750118888 -1702609.2981939344,-4325774.891375581 -1766718.5287045548,-5286449.201985414 -1744673.4664433163,-6301948.706743266 -1628722.4314880257,-7365165.415244986 -1411688.47661635,-8467982.708762094 -1087094.7159442627,-9601310.771354798 -649289.257907256,-10755136.567187741 -93568.15921882518,-11918588.71874264 583705.2650745289,-13080017.479076859 1384986.5065884064,-14227089.816513885 2311443.083963591,-15346899.44345474 3362856.729234628,-16426091.423896661 4537536.36067009,-17451000.788489036 5832243.650393812,-18407804.373528395 7242132.959632295,-19282684.8833879 8760707.35454359,-20062005.956895716 10379792.330374906,-20732496.799698677 12089528.760535883,-21281444.72943232 13878386.449705793,-21696893.77145579 15733199.506264905,-21967847.243017588 17639224.559423722,-22084472.07609112 19580222.631038625,-22038302.456922546 21538565.232215896,-21822440.206731 23495364.991768125,-21431749.19616045 25430630.83911447,-20863040.979094997 27323447.460417483,-20115248.752310127 29152178.426101543,-19189586.698998205 30894692.0532735,-18089691.759125724 32528608.721179847,-16821744.890284445 34031568.00527209,-15394568.941321809 35381513.63961033,-13819700.35938884 36556993.96243323,-12111432.09056838 37537475.1502226,-10286825.215956882 38303664.2062194,-8365687.0895423535 38837838.344993226,-6370514.011515368 39124177.11037815,-4326396.780315076 39149093.28498542,-2260887.8177321106 38901558.40076094,-203828.95217055967 38373418.44678233,1812860.6264899075 37559695.197732575,3755436.2639025287 36458868.45909791,5588619.1192017635 35073134.44774404,7275925.831297879 33408635.503434863,8780035.036663331 31475656.362005886,10063188.640156245 29288782.317737766,11087625.167309003 26867014.7639381,11816041.948236397 24233839.82914029,12212082.306734575 21417246.123314604,12240843.360536056 18449687.97495511,11869399.487717612 15367990.975953568,11067335.987899711 12213197.156035958,9807286.973317208 9030347.68053764,8065471.0724251205 5868201.601826683,5822218.125809951 2778889.8921387936,3062479.7091342467 -182495.2606226052,-223683.96118021675 -2958375.1080510207,-4040648.388937356 -5489221.312661893,-8386808.1989256255 -7714152.715723499,-13254207.385851497 -9571588.4685397,-18628224.160379983 -10999953.162667256,-24487317.981375616 -11938428.65487618,-30802846.09849445 -12327746.34602203,-37538956.55548816 -12111012.751249442,-44652564.11930551 -11234560.304548867,-52093415.0018821 -9648814.486604586,-59804245.53028444 -7309167.564421276,-67721039.09788266 -4176848.497953084,-75773384.79723571 -219777.9165014599,-83884940.09866783 4586603.490474614,-91973998.80298583 10258545.274019407,-99954164.26993085 16803248.65381634,-107735126.61494595 24218191.707348574,-115223541.18641914 32490531.007262018,-122324004.19615282 41596592.29353259,-128940119.89136189 51501462.50314268,-134975652.1424469 62158695.04515953,-140335751.7940152 73510139.59728272,-144928249.60523683 85485906.90688683,-148665003.10893655 98004478.10304213,-151463284.26710498 110972966.86580402,-153247193.41481897 124287541.45738038,-153949083.68659738 137834012.1011121,-153510978.9309418 151488587.50561622,-151885967.06241786 165118802.48253986,-149039549.8980538 178584616.60944438,-144950929.79762003 191739681.75928056,-139614212.89628324 204432774.0723681,-133039508.40298164 216509383.60587582,-125253903.35696603 227813452.48232892,-116302292.40505792 238189249.89775863,-106248042.59793909 247483369.86922607,-95173473.91760342 255546835.13008645,-83180137.24969839 262237288.15097028,-70388872.81070621 267421247.90790972,-56939633.63432279 270976408.77071697,-42991060.61417609 272793955.7797545,-28719797.78758552 272780868.65347487,-14319539.019948088 270862185.1584455,199.99999966828975" stroke="white" stroke-width="1.5" /></svg>