<?xml version="1.0" encoding="utf-8" ?>
<svg baseProfile="full" height="400" version="1.1" width="400" xmlns="http://www.w3.org/2000/svg" xmlns:ev="http://www.w3.org/2001/xml-events" xmlns:xlink="http://www.w3.org/1999/xlink"><defs /><rect fill="black" height="100%" width="100%" x="0" y="0" /><circle cx="200" cy="200" fill="yellow" r="20" stroke="orange" stroke-width="2" /><polyline fill="none" points="198.29407662953435,200.0 198.23201926360676,199.90718908761966 198.17779540585428,199.80815648890936 198.13227467758247,199.7036792770258 198.09626581520433,199.59465304390116 198.07050217371952,199.48208865519447 198.05562718525997,199.3671073524921 198.0521799502051,199.25093415294742 198.06058114859508,199.134889514394 198.08111946814788,199.02037925340073 198.1139387518916,198.90888272463226 198.15902607305495,198.8019392920643 198.21620094721578,198.70113314590014 198.2851058916092,198.60807654321738 198.3651985387809,198.5243915752083 198.45574550629522,198.45169058909522 198.55581821585386,198.391555418113 198.66429084386425,198.34551559805274 198.77984057115364,198.3150257734194 198.90095028213736,198.3014425199354 199.02591384332533,198.3060008325675 199.15284406764246,198.32979054910018 199.279683444738,198.37373299816483 199.404217688397,198.43855817718836 199.52409212052459,198.5247827795893 199.63683087716612,198.63268940136865 199.73985888592424,198.76230726468054 199.83052652624013,198.9133947997026 199.90613684467735,199.08542442586645 199.96397515697203,199.27756986898711 200.00134082762804,199.4886963418193 200.01558097670525,199.71735390188135 200.0041258226799,199.9617742818763 199.96452533037527,200.21987146461666 199.89448679452678,200.48924624598453 199.79191295313154,200.76719499615274 199.65494019092864,201.05072279114162 199.48197636275523,201.33656104393893 199.27173773972362,201.6211897170849 199.02328455875085,201.90086414711143 198.73605463851902,202.1716464558822 198.40989451300112,202.42944146514225 198.0450875277697,202.6700369689547 197.64237834489356,202.88914815475067 197.20299330974586,203.0824658980874 196.72865614787185,203.245708589602 196.2215984824924,203.3746770858289 195.68456469349033,203.4653123093333 195.12081067698054,203.51375495886546 194.5340961108661,203.51640672786638 193.9286698860926,203.46999237058756 193.30924842548976,203.3716219002838 192.6809866818919,203.2188521543641 192.04944168429333,203.00974691801107 191.42052858465283,202.742934761556 190.80046924802414,202.4176637187562 190.19573352424965,202.03385191395452 189.6129734396951,201.59213323674692 189.05895065148727,201.0938971640163 188.5404576134033,200.54132184170544 188.0642330108031,199.93739956309318 187.6368721305511,199.28595381710585 187.2647329394135,198.59164712970428 186.95383874953353,197.8599789838779 186.70977845081214,197.09727317934198 186.53760538583364,196.31065408160643 186.44173603182102,195.5080113114366 186.42584973441237,194.69795253945077 186.4927908082463,193.88974417611038 186.6444743778804,193.09323988388672 186.88179737793354,192.31879698496883 187.2045561620931,191.57718099336287 187.61137218540148,190.87945866328613 188.09962722177593,190.2368801148555 188.66540955790305,189.66075077151325 189.30347256450742,189.1622940195557 190.0072069857336,188.7525056765093 190.7686282063993,188.44200152977126 191.57837965479845,188.2408593776111 192.42575337540902,188.1584571689217 193.2987286614068,188.20330899354707 194.18402947168127,188.38290081906723 195.06720117176064,188.7035280000371 195.93270693363922,189.17013669930216 196.7640439072228,189.78617145563274 197.54387903753616,190.5534312050776 198.25420414884766,191.4719361127935 198.87650965163877,192.53980759544694 199.39197595336515,193.75316390957968 199.7816813719815,195.10603364675603 200.0268250652822,196.59028941030147 200.1089632025274,198.19560384971268 200.01025632110927,199.90943009640245 199.71372553387857,201.71700847773704 199.20351498609259,203.6014011850986 198.4651577087759,205.5435563361563 197.48584178171532,207.522402602289 196.25467350848893,209.51497527025808 194.76293412200448,211.4965742743599 193.0043263860828,213.44095437344725 190.9752073406431,215.32054725896916 188.67480335884298,217.10671496859075 186.10540364767266,218.77003354858337 183.27252833229892,220.28060546105732 180.18506732184798,221.6083987737521 176.85538626284296,222.72361070545688 173.29939604825333,223.5970526345585 169.53658256661373,224.20055321744215 165.5899936479101,224.50737581354957 161.4861804912491,224.49264598115946 157.2550912434049,224.13378439892358 152.92991483611794,223.41094018955312 148.54687368172134,222.30741928054147 144.14496436871056,220.8101021391732 139.76564608788158,218.90984497194276 135.45247715145945,216.60185828834616 131.25070063723166,213.88605660200164 127.2067808912834,210.7673729840007 123.36789334992426,207.25603219964103 119.78137088645532,203.36777625501173 116.49411064348982,199.12403635840582 113.55194606788562,194.55204556657165 110.99898961365666,189.6848867398861 108.87695230864425,184.56147087519082 107.22444708297232,179.22644142082007 106.07628342075218,173.73000080469836 105.46276151029558,168.12765612157395 105.40897462127226,162.47988172652978 105.93412891887284,156.85169736467145 107.05089032432171,151.31216142580752 108.76476833754485,145.93377994119743 111.07354694140976,140.7918330288873 113.96677279828606,135.96362163533558 117.42531092007955,131.5276386032134 121.42097783463292,127.56266930648853 125.91626197781157,124.14682832104931 130.86414060629625,121.35653982798425 136.20800194705834,119.26547066204344 141.88168057321127,117.94342610374387 147.80961312157734,117.45521965331069 153.90712044585592,117.85952910090386 160.08082113356147,119.20775220271845 166.22918000977947,121.54287616875966 172.2431938131439,124.898375947599 178.00721466828924,129.29715693870654 183.3999103055211,134.75055825701034 188.2953582058715,141.2574330008737 192.56426899347392,148.80332211843574 196.0753324747998,157.35973841418516 198.696677755222,166.88357697522167 200.29743686898098,177.31666781413847 200.74939936204117,188.58548581409497 199.9287432932261,200.60103211497713 197.7178261934757,213.25889989354656 194.00701767328366,226.43953606393296 188.69655362242693,240.00870875931605 181.69839033267476,253.81818855591615 172.9380354221965,267.70664927440566 162.35633117876029,281.500791852853 149.9111648959651,295.01669224405055 135.5790799802986,308.06137156675345 119.35676108318228,320.43458385664707 101.26236628612325,331.93081374391437 81.33667946139212,342.3414732585758 59.6440563655658,351.4572837640577 36.27313881620674,359.07082577852054 11.33731246702115,364.97923619994896 -15.025114755547463,368.98702924506097 -42.6510345547656,370.90901428613375 -71.35297917816075,370.57328076810074 -100.91989730169757,367.8242175564321 -131.1182777452595,362.5255314509549 -161.69363041800028,354.5632272489463 -192.3723300802369,343.8485096994507 -222.8638243719522,330.3205660060187 -252.8632031263532,313.94918625177013 -282.05412129570357,294.73717828172556 -310.11206290676324,272.7225332229007 -336.70792838105604,247.9802979895939 -361.51192235260305,220.62411184243655 -384.197713849235,190.80736537332288 -404.4468354345364,158.72394219698822 -421.9532827011085,124.60850616064228 -436.4282704312284,88.7363000457953 -447.60509687005265,51.42242553426067 -455.24406296353743,13.02057863855427 -459.13738917391106,-26.07878015731714 -459.1140686763738,-65.45083615880492 -455.04459243782117,-104.63942002789298 -446.8454789568376,-143.16059882641952 -434.48353937678746,-180.50685349348356 -417.97980734006103,-216.15183008221965 -397.4130623965965,-249.55564409508514 -372.92287607347316,-280.17070899294805 -344.7121109077848,-307.44805149567657 -313.04880488775234,-330.8440677330225 -278.26737687386907,-349.8276657439633 -240.76909270981815,-363.88773136672273 -201.02173689823513,-372.54084632265176 -159.55844091363122,-375.33917939202865 -116.97562644598281,-371.878464129324 -73.93003009240067,-361.805969692753 -31.13478520574091,-344.8283651921522 10.64545328149461,-320.7193726141736 50.60034427641591,-289.32709898629133 87.88064766877756,-250.58093510933998 121.60594226025954,-204.4979060350238 150.87324055272992,-151.18835759585954 174.76645303033024,-90.8608638070989 192.36664082126833,-23.82624193946822 202.7629817153916,49.49943441826977 205.0643606052106,128.59292886749574 198.41148168415685,212.8231400750533 181.9893863590195,301.45169337822085 155.04024800403147,393.6349053713847 116.8763025982278,488.42718895284025 66.89276314558344,584.7859529085796 4.580555780950988,681.5780351378106 -70.46129318508582,777.587692163778 -158.51379713475308,871.5261497278677 -259.72685914651595,962.0427001644987 -374.1090188047514,1047.737312052433 -501.5182838461045,1127.1746965124194 -641.6542337843393,1198.8997526724386 -794.0515793796988,1261.454292473685 -958.0753560367145,1313.394922387304 -1132.9179208300905,1353.3119370179272 -1317.5979118017879,1379.849057266932 -1510.961314402523,1391.7238240130255 -1711.6847634565866,1387.7484374496203 -1918.281189833865,1366.8508126168601 -2129.107899174099,1328.0956036060352 -2342.377145621195,1270.704932723781 -2556.1692367220912,1194.0785469092516 -2768.4481765969767,1097.8131122206757 -2977.079823406829,981.7203485597857 -3179.852504280568,845.843701280478 -3374.4999965070806,690.4732442098327 -3558.7267482745597,516.1585101496383 -3730.235175914688,323.71895035067496 -3886.7548378804213,114.25173395268715 -4026.0732489834545,-110.86338788440776 -4146.068062199156,-349.96241035620756 -4244.740310096009,-601.0988306076329 -4320.248364166552,-862.0490383434915 -4370.942238546414,-1130.321517954311 -4395.397835336002,-1403.170003063879 -4392.450702518596,-1677.6106846762611 -4361.228852829489,-1950.4435304519043 -4301.18417339514,-2218.277725355368 -4212.121942034561,-2477.561193335811 -4094.2279572787384,-2724.6141062338925 -3948.092785869966,-2955.6662302280406 -3774.732634161841,-3166.897902370779 -3575.6063588202883,-3354.484370717162 -3352.628147835902,-3514.643171858229 -3108.1754253493095,-3643.6841600439584 -2845.0915633452005,-3738.061743258188 -2566.683019991776,-3794.428824377365 -2276.7105683147515,-3809.691890725197 -1979.3743299337998,-3781.0666437695522 -1679.2923865965238,-3706.133513255255 -1381.4728069663674,-3582.892357593151 -1091.2789972006115,-3409.815615693734 -814.3883608344238,-3185.8991454893994 -556.7443358041487,-2910.709961953314 -324.50196343221876,-2584.4300732784377 -123.96723508605061,-2207.8956087558668 38.46944385316888,-1782.630436458481 156.4052370855552,-1310.8734836836654 223.5017749229773,-795.5989987428266 233.56633675140463,-240.5290295087362 180.63659338751583,349.86255756451726 59.06809137678147,970.3551342815967 -136.3764276846323,1614.9959881030488 -410.4368633651608,2277.1250815867006 -767.2658156362681,2949.4102608361163 -1210.3400034197255,3623.893174498477 -1742.3742380036913,4292.046049118805 -2365.239195261564,4944.83934135681 -3079.8842667490476,5572.820153624088 -3886.2667923952094,6166.201158190429 -4783.28898545695,6714.95962699312 -5768.74385259026,7208.9460116778155 -6839.2713873472885,7638.001362376812 -7990.326273321035,7992.082716109196 -9216.158272877277,8261.395428320326 -10509.806398468214,8436.531265940795 -11863.107865646425,8508.61092951713 -13266.72271004145,8469.429527611663 -14710.174814904345,8311.6033910177 -16181.909941802405,8028.7164896587465 -17669.371185335596,7615.464603622146 -19159.092084306627,7067.79530389367 -20636.807417826745,6383.041720242028 -22087.58149688053,5560.048015513665 -23495.953531679057,4599.28444939741 -24846.099414743185,3502.9499024271786 -26122.00901138798,2275.059744364772 -27307.67779568686,921.5169716957718 -28387.31141387394,-549.8353919026736 -29345.541501518346,-2129.182539552068 -30167.650828883994,-3804.7285479973875 -30839.80560405557,-5562.711085826562 -31349.29252919016,-7387.441590986997 -31684.75798526298,-9261.372124312742 -31836.446518609868,-11165.189854761158 -31796.435622142955,-13077.939852342879 -31558.863649017858,-14977.176557871715 -31120.14757039668,-16839.143966658692 -30479.187195277995,-18638.98420857705 -29637.552412505975,-20350.97383242224 -28599.649996132346,-21948.786711515382 -27372.866538137154,-23405.78208381194 -25967.68413963043,-24695.31582755122 -24397.765605183624,-25791.072657269287 -22680.00604657844,-26667.41650971263 -20834.54801322187,-27299.755980060214 -18884.757527436654,-27664.92127138694 -16857.15871390162,-27741.54874020947 -14781.325073172779,-27510.468764140656 -12689.725858295506,-26955.092330133128 -10617.526469178623,-26061.79144955746 -8602.342279093371,-24820.268255434054 -6683.945848115194,-23223.907433406508 -4903.928055553818,-21270.10648720627 -3305.314292698266,-18960.57824683302 -1932.1374931053865,-16301.619998515685 -828.9704340566077,-13304.343654335264 -40.42041290512506,-9984.861490253248 389.4099215844676,-6364.422167639886 417.491128131795,-2469.492017979745 2.4598028471918667,1668.2230848149748 -894.7700843616162,6011.819514029348 -2310.3837281996093,10519.30508384686 -4277.036861278229,15143.778801303597 -6823.229453302203,19833.68366409805 -9972.689700488929,24533.134249689843 -13743.776675530216,29182.320027527265 -18148.910337456648,33717.98444656655 -23194.037843649283,38073.9789109983 -28878.145254170464,42181.88976597557 -35192.82376335717,45971.73538100161 -42121.89952776852,49372.72935146122 -49641.13597651579,52314.104749635306 -57718.01718415975,54725.993257504226 -66311.62045331109,56540.35191772289 -75372.58569068977,57691.92916018872 -84843.18846496924,58119.26071418239 -94657.52280705262,57765.68501527217 -104741.79885494547,56580.36677762106 -115014.75935927332,54519.31654186338 -125388.21785668924,51546.39324225127 -135767.71999376468,47634.27618015094 -146053.32805217695,42765.392259718246 -156140.52719771373,36932.783950702695 -165921.25036340742,30140.903207082938 -175285.01699534524,22406.316501938512 -184120.17915475252,13758.30625067631 -192315.2666997213,4239.354197155557 -199760.4214841947,-6094.507160616577 -206348.90873167495,-17173.48831957948 -211978.69198910185,-28913.993989028997 -216554.0563661514,-41218.74293442526 -219987.26314146232,-53977.06625538761 -222200.21729529687,-67065.39234292733 -223126.1281336669,-80347.9249909964 -222711.14192789103,-93677.51916837087 -220915.92443158722,-106896.75679989201 -217717.1702794752,-119839.22257540945 -213109.01564343518,-132330.97731777717 -207104.33014413825,-144192.22381839802 -199735.86391283656,-155239.15731363915 -191057.2258871686,-165285.98995445724 -181143.6699243379,-174147.13574410442 -170092.6661393706,-181639.53951686958 -158024.23603683422,-187585.1306389027 -145081.03150948067,-191813.37926690822 -131428.13963112875,-194163.93024040692 -117252.59737402898,-194489.2870484068 -102762.60292887648,-192657.5158428264 -88186.41319008231,-188554.9372107665 -73770.92017638315,-182088.77140776292 -59779.902669252886,-173189.70103627729 -46491.95314549263,-161814.31376878318 -34198.08412753979,-147947.38670245145 -23199.02234204997,-131603.9733301679 -13802.203525806093,-112831.25395536382 -6318.4853048271225,-91710.11069769574 -1058.6002498827258,-68356.38906093189 1670.6240726539831,-42921.80938701458 1570.2465376503792,-15594.493419761411 -1646.640751918995,13400.926338976476 -8250.640946484498,43803.643771765586 -18491.701093806514,75317.48848451357 -32594.72984296232,107612.22888616644 -50755.23676961927,140325.38585370017 -73135.04913900679,173064.56860280133 -99858.16470196111,205410.33866605122 -131006.80135568333,236919.60170539256 -166617.70613025984,267129.52030042786 -206678.78692364512,295561.9339131385 -251126.13064499883,321728.2649954044 -299841.4708875496,345134.88274863904 -352650.16689224803,365288.88844276255 -409319.7533443804,381704.27853948873 -469559.1174368602,393908.434233707 -533018.355615627,401448.8785238045 -599289.3574830693,403900.2346487855 -667907.1584746967,400871.3127930523 -738352.0961535764,392012.2454674851 -810052.7973095025,377021.58603847574 -882390.0145414815,355653.2796059678 -954701.3216917285,327723.41093750036 -1026286.667449023,293116.63055562816 -1096414.7757245214,251792.15745507964 -1164330.3701128014,203789.25539243966 -1229262.1879867937,149232.07933685972 -1290431.7376520904,88333.78957875464 -1347062.7396307045,21399.833237895295 -1398391.1806946725,-51169.70344572102 -1443675.89687471,-128878.7635670106 -1482209.5894862516,-211135.09371853934 -1513330.1664103295,-297251.20075848105 -1536432.2896121282,-386446.55852076097 -1550978.9993526607,-477851.1207657074 -1556513.275928311,-570510.1841912296 -1552669.3912395174,-663390.6314653772 -1539183.8952227999,-755388.5690810607 -1515906.076354422,-845338.3584743004 -1482807.7312188244,-932023.0214114081 -1439992.07569035,-1014185.9822834778 -1387701.6297522192,-1090544.0908139527 -1326324.9095068495,-1159801.8489739278 -1256401.7636354263,-1220666.74581665 -1178627.197541502,-1271865.5837123275 -1093853.536741128,-1312161.6593285792 -1003090.7917946102,-1340372.642917565 -907505.1002400373,-1355388.9803077637 -808415.136585158,-1356192.6237363024 -707286.3994110969,-1341875.8805844137 -605723.3049755977,-1311660.1534860237 -505459.0392784514,-1264914.331460615 -408343.1452369386,-1201172.5799672669 -316326.8482486724,-1120151.268371675 -231446.1517920665,-1021764.7665360826 -155802.76459470348,-906139.838343784 -91542.95201632641,-773628.3591966765 -40834.43634173063,-624818.0870951065 -5841.503323300622,-460541.2230160718 11301.494812882835,-281880.5061095813 8518.016973117847,-90172.60285912236 -16181.66363852578,112991.43311258305 -64670.61695660081,325768.8324233368 -138674.8898862068,546071.0888898392 -239742.9600136133,771573.393121059 -369215.3779505956,999727.6346728652 -528194.9894452854,1227779.0499230102 -717518.1474039956,1452786.5526362497 -937727.3391520026,1671646.7408481871 -1189045.6651714856,1881121.5275317 -1471353.6117697484,2077869.2939064815 -1784168.561258732,2258479.41365176 -2126627.478913101,2419509.9441804965 -2497473.2059078612,2557528.2280775597 -2895044.7713576443,2669154.0943909665 -3317272.1142860143,2751105.2963348306 -3761675.577705132,2800244.7697946955 -4225370.501915018,2813629.246534274 -4705077.2026437465,2788558.7079276806 -5197136.571831061,2722626.1201425367 -5697531.484879451,2613766.8507485553 -6201914.138317887,2460307.1304972195 -6705639.3763931,2261010.893277469 -7203803.9945646105,2015124.3027503763 -7691291.932767836,1722417.2566251627 -8162825.192252338,1383221.149643734 -8613020.227518992,998462.1747269083 -9036449.48017976,569689.4489764272 -9427707.635334793,99097.26782747738 -9781482.094279714,-410459.18297555816 -10092627.071058134,-955455.2914225861 -10356240.635671426,-1531696.2463301877 -10567743.94480669,-2134324.5572616924 -10722961.822950624,-2757836.3293779553 -10818203.783956781,-3396106.677365095 -10850344.516778847,-4042424.574628698 -10816902.800431555,-4689537.336411797 -10716117.763539374,-5329704.828958527 -10547021.364297763,-5954763.382028686 -10309505.938476264,-6556199.259844389 -10004385.647348143,-7125231.416943406 -9633450.655165236,-7652903.131596222 -9199512.877942264,-8130181.971731642 -8706442.17268608,-8548067.408161664 -8159191.879479884,-8897705.248879083 -7563812.688539063,-9170507.92801849 -6927453.880851423,-9358279.545522999 -6258351.084472125,-9453344.420531169 -5565799.798937597,-9448677.794951133 -4860114.067352616,-9338037.205627777 -4152569.8190302765,-9116092.935974093 -3455332.564425968,-8778555.862968577 -2781369.297574501,-8322300.935043514 -2144344.6481269524,-7745484.452578339 -1558501.5239718526,-7047653.277374633 -1038526.6946381546,-6229844.072421863 -599401.9833073062,-5294670.670139375 -256241.95916363914,-4246397.687606097 -24119.249621493556,-3090998.552383987 82121.17888826344,-1836196.1735015037 48057.195171364285,-491484.5898404199 -140107.66720200298,931869.9468649287 -495335.7407991449,2420849.8446768224 -1029543.3366928434,3960730.2099713786 -1753387.850790756,5535147.054887487 -2676056.450897384,7126190.443261268 -3805059.0850535934,8714523.08587692 -5146028.681684377,10279524.613457285 -6702531.515073229,11799461.451653587 -8475890.782581858,13251681.898699334 -10465026.479925424,14612835.666093653 -12666314.664988147,15859116.788786506 -15073469.166680627,16966528.44734904 -17677448.721062258,17911167.87437248 -20466392.400608696,18669529.145041235 -23425586.042722605,19218821.28196097 -26537462.179450102,19537298.741654877 -29781635.72143239,19604600.99966553 -33134977.35550768,19402097.61809195 -36571726.27772323,18913234.86895842 -40063643.50308737,18123879.70443496 -43580206.572043434,17022656.61599827 -47088846.01389655,15601272.714479353 -50555223.432400554,13854826.196792495 -53943550.55222865,11782093.24800305 -57216948.01154052,9385788.364001576 -60337842.11040099,6672793.074800853 -63268397.13308469,3654348.105317808 -65970980.26060363,346204.1328984229 -68408655.48491596,-3231273.5083458484 -70545702.3355489,-7053050.564884376 -72348154.64053272,-11089424.097751444 -73784353.9747291,-15306080.861801669 -74825511.90824862,-19664216.999945212 -75446274.66434258,-24120721.671641536 -75625283.33863148,-28628426.615049325 -75345722.42859174,-33136422.955963112 -74595849.08250749,-37590445.828101106 -73369495.20908077,-41933326.56358735 -71666534.40070567,-46105511.35578192 -69493305.52275863,-50045644.3962215 -66862984.815225184,-53691212.55157149 -63795898.44800938,-56979247.684479155 -60319767.67293968,-59847081.74423181 -56469879.02840889,-62233148.77027232 -52289172.480357826,-64077826.97582309 -47828240.92826403,-65324313.12269619 -43145235.16805044,-65919520.47508626 -38305669.184982374,-65814990.74335901 -33382121.54695352,-64967809.61270252 -28453829.67857472,-63341514.71006548 -23606174.91427768,-60906984.21046156 -18930057.447428104,-57643293.734380454 -14521161.603916645,-53538528.75562659 -10479113.262657499,-48590539.4364225 -6906532.710151865,-42807624.64674912 -3907987.7381949774,-36209131.91894702 -1588853.35790283,-28825960.247214507 -54086.09280442416,-20700952.97359034 593077.5892225936,-11889168.51505643 252487.5603115968,-2458017.3859972763 -1171501.664246757,7512745.139493463 -3768574.8002890195,17931180.29869394 -7620977.465225327,28693489.34392728 -12802032.586915223,39684506.115584 -19374669.6946829,50778363.87567421 -27389986.292419747,61839339.77276134 -36885861.40191402,72722878.3249945 -47885642.06232242,83276793.17354381 -60396924.057734646,93342644.0908475 -74410448.39870678,102757283.84560668 -89899135.08692786,111354567.05177103 -106817275.42780362,118967210.58605295 -125099903.60928348,125428792.57526246 -144662367.42438564,130575874.36001433 -165400116.87059328,134250227.26698685 -187188727.90523514,136301143.50095505 -209884176.8697875,136587808.0355641 -233323379.01846,134981706.07410213 -257325002.20281106,131369038.5057575 -281690564.0832808,125653115.83624928 -306205818.27422416,117756699.36211099 -330642431.598803,107624256.92219654 -354759951.1567414,95224099.43459499 -378308056.21794355,80550363.64664891 -401029086.08015174,63624806.12317749 -422660831.00463444,44498373.50347359 -442939569.210722,23252514.49854347 -461603328.7116484,200.0000005653013" stroke="white" stroke-width="1.5" /></svg>