<?xml version="1.0" encoding="utf-8" ?>
<svg baseProfile="full" height="400" version="1.1" width="400" xmlns="http://www.w3.org/2000/svg" xmlns:ev="http://www.w3.org/2001/xml-events" xmlns:xlink="http://www.w3.org/1999/xlink"><defs /><rect fill="black" height="100%" width="100%" x="0" y="0" /><circle cx="200" cy="200" fill="yellow" r="10.000063781635497" stroke="orange" stroke-width="2" /><polyline fill="none" points="199.86305598563564,200.0 199.76636124881003,199.9877350328434 199.6652937262474,199.96476179077416 199.56079140209528,199.93031812135033 199.45389694127093,199.8837226255955 199.34575170073032,199.82438818437817 199.23758811092756,199.75183520603218 199.13072041305318,199.66570441135443 199.02653375712734,199.56576896554213 198.92647168675512,199.45194576199003 198.8320220581486,199.3243056603381 198.7447014636856,199.18308248092188 198.66603825358536,199.02868055998192 198.59755427298586,198.86168067477513 198.54074545554465,198.68284415521128 198.49706143835863,198.49311500890093 198.4678843862107,198.29361989960228 198.45450723557795,198.0856658350265 198.45811159014593,197.8707354387911 198.47974551943048,197.65047970296115 198.5203015301623,197.4267081420054 198.5804949959998,197.2013762959992 198.66084334455815,196.97657056036854 198.76164631134435,196.75449035118626 198.88296757764945,196.53742764876037 199.02461811346424,196.3277439977093 199.18614154677638,196.12784507857592 199.36680187691883,195.9401530039238 199.56557384175323,195.76707653038784 199.78113623620325,195.6109794168749 200.01186846286123,195.4741471975652 200.2558505739831,195.35875267605047 200.51086703811805,195.26682048334507 200.77441443390305,195.20019107707657 201.04371323825998,195.16048459135618 201.31572383649493,195.14906497608212 201.58716683781492,195.1670048901827 201.85454773180695,195.21505183500486 202.11418586979923,195.29359603115506 202.3622477001419,195.40264055408662 202.59478412876814,195.5417742501019 202.80777181645854,195.71014795475205 202.99715816262412,195.90645452945475 203.15890966280227,196.12891321915808 203.28906326413644,196.37525881376013 203.38378028064545,196.64273606852058 203.4394023688926,196.92809980372235 203.45250900558096,197.22762106129213 203.41997585251013,197.53709964598772 203.33903334212363,197.85188332122792 203.2073247694726,198.16689386489253 203.02296313472334,198.47666011878047 202.78458594525165,198.77535808731085 202.49140715876982,199.0568580570242 202.14326542967143,199.31477861913837 201.7406678106499,199.54254738359222 201.28482806138794,199.7334680755343 200.7776987263905,199.880793605054 200.2219961654223,199.9778045991712 199.62121775298849,200.01789278285645 198.9796505082317,199.99464849439167 198.3023704737516,199.90195152100776 197.59523223128923,199.734064344835 196.86484802392113,199.48572679819472 196.1185560481784,199.15225104260796 195.3643775849886,198.72961570907754 194.61096275500557,198.21455796969462 193.86752481103815,197.6046622538911 193.14376301703956,196.8984442781357 192.44977430840999,196.09542902692198 191.79595408096634,195.19622130681736 191.19288661443207,194.2025674953293 190.65122579912205,193.11740712347208 190.18156699990564,191.94491296612262 189.79431105764144,190.69051836830772 189.49952159306886,189.36093060905768 189.306776939479,187.96412919778072 189.22501818612835,186.50934811142565 189.26239496198903,185.00704111393654 189.42611072667316,183.46882945233637 189.72226945982533,181.90743139562562 190.1557257495394,180.33657327267048 190.72994037204916,178.77088187224737 191.44684352674741,177.22575829095956 192.3067079402808,175.7172335511278 193.30803407894865,174.26180655895988 194.4474497079635,172.87626523103577 195.7196260075681,171.57749188182623 197.1172123980333,170.3822542337768 198.63079213693555,169.30698368136137 200.24886063188276,168.36754270815607 201.9578282593994,167.5789836179255 203.74204929573523,166.95530099330966 205.58387834805325,166.50918053518114 207.46375542531408,166.25174715825003 209.3603205081762,166.19231542012702 211.25055816778973,166.33814553790245 213.10997244635394,166.69420839450106 214.91279185007812,167.26296305287022 216.63220392055632,168.0441503758363 218.24061844681475,169.03460638981994 219.7099579611643,170.2280990283894 221.01197373167156,171.61519184403178 222.11858502715495,173.18313818108356 223.00223899210997,174.9158091574694 223.63628803421952,176.79365860621928 223.9953812017713,178.79372787867396 224.05586561830398,180.8896931094349 223.79619365326832,183.05195718869055 223.19733114668674,185.2477882814394 222.24316167907185,187.44150627692486 220.92088159156967,189.59471804761515 219.22138022169318,191.66660184837605 217.13959963321696,193.6142405969217 214.6748679906739,195.39300315078935 211.83120066495042,196.9569720393238 208.6175631618197,198.25941542756786 205.0480900444448,199.25330038936485 201.14225417789876,199.8918438568725 196.9249808618374,200.12909690120173 192.4267017390931,199.9205572927296 187.68334377473028,199.22380459900043 182.7362490926543,197.99915141265643 177.6320220348148,196.2103036714897 172.42230046992182,193.8250224476759 167.16344912178317,190.81577905385157 161.91617350807996,187.16039485023694 156.74505397359619,182.8426567496728 151.71800026136742,177.85289911614552 146.90562808339334,172.18854254662855 142.38056022075432,165.85457992483398 138.2166557912359,158.8640001469971 134.48817245979222,151.23814005152403 131.26886752116707,143.00695534262132 128.63104494150357,134.2092016881677 126.6445565926454,124.89251769805267 125.37576703408575,115.11340215354917 124.88649227748988,104.93707866201288 125.23292399120216,94.43724185364131 126.46455155057923,83.69568031575048 128.62309519760717,72.80177267073375 131.7414643233147,61.85185454035485 135.84275551244684,50.94845559306049 140.93930547561735,40.19940743239084 147.0318143242796,29.716824741061686 154.10855480381883,19.61596383266877 162.14468307647664,10.01396456500413 171.10166642668224,1.0284834176168545 180.9268428363068,-7.223772588418768 191.55312673787589,-14.628599570045822 202.8988743934623,-21.07592463997989 214.8679212617512,-26.461492701206623 227.34980240406242,-30.688595184111108 240.22016544306518,-33.669822073565 253.3413838295793,-35.32881703573952 266.56337620026204,-35.60201406509981 279.7246354323154,-34.440332858169796 292.6534686340517,-31.810809109116576 305.1694467688751,-27.698135139090255 317.0850599149581,-22.106085741643 328.20757133682275,-15.058803873997675 338.34106061457123,-6.601920870126378 347.2886430711169,3.1965137839999613 354.85484968981905,14.24531737326069 360.84814865947243,26.429696786532844 365.08358665818,39.611031065218725 367.38552503186975,53.62693369955258 367.59044317854847,68.29161256440881 365.5497787586553,83.39654287959179 361.13277185884743,98.7114657135352 354.22927798549983,113.98572133547 344.7525127993233,128.94992317618144 332.64168986741345,143.3179743033678 317.8645114461734,156.78942418157058 300.419471458542,169.0521591012446 280.3379294300211,179.78541506462636 257.68591423532865,188.66309715065313 232.56561711256273,195.35738449528594 205.11653455172132,199.54259506989928 175.51622338142883,200.89927947601004 143.98063267847175,199.11850806054792 110.76398001960243,193.90631085664685 76.1581430879212,184.98822523792595 40.49154173351877,172.11390180908484 4.1274902589540545,155.06171501352296 -32.53799506448232,133.6433212915244 -69.07894247121754,107.70810444214811 -105.0427281141881,77.1474451991518 -139.95393263287468,41.89874999493122 -173.31873995902146,1.9491725225298353 -204.62985996602072,-42.661038923734424 -233.37194881960602,-91.83563518659622 -259.02749294536335,-145.41996691631192 -281.08311447865265,-203.199156135853 -299.03624799753464,-264.89689985052075 -312.40213035872614,-330.1749630899218 -320.7210376652921,-398.6334140427649 -323.56569590235165,-469.81164824590746 -320.54878469677874,-543.190242124337 -311.3304471043797,-618.1936685665497 -295.62571242017776,-694.1938986913088 -273.2117338609517,-770.5149045618136 -243.93473869903335,-846.4380673904384 -207.71658514439815,-921.2084848239658 -164.5608180852915,-994.0421592925022 -114.55811480663368,-1064.1340372453683 -57.891012102518744,-1130.6668564987483 5.1621921329842735,-1192.8207460098852 74.22446664287405,-1249.7835093110177 148.8181030689202,-1300.7615097342039 228.36389378272432,-1344.9910625974376 312.18151660915066,-1381.7502268736519 399.4912024648142,-1410.3708767055475 489.41675106531136,-1430.2509216449105 580.9899474473689,-1440.866533873123 673.1564181573247,-1441.7842310898243 764.7829506487371,-1432.6726554288232 854.6662828048736,-1413.31388186096 941.543351675363,-1383.6140842544194 1024.1029716313994,-1343.6133837575048 1100.9988923648555,-1293.494702610178 1170.8641666696212,-1233.5914470286991 1232.32673695585,-1164.3938455760485 1284.0261281871153,-1086.5537745444642 1324.6311136430243,-1000.8879094289664 1352.8581988585947,-908.3790516314539 1367.4907485543224,-810.1754921467019 1367.3985616373764,-707.5882891584567 1351.5576807240159,-602.0863541986179 1319.0702054117073,-495.28926174567266 1269.183863025352,-388.9577197755374 1201.3110770831013,-284.9816637091039 1115.047262577071,-185.3659632694957 1010.1880686373288,-92.21376077474065 886.7452835256718,-7.707490117576214 744.9611144534655,65.91234214402627 585.3205556779315,126.37049884771314 408.5615629203281,171.38232858218893 215.68276055351816,198.6808729275386 7.948420376361355,206.04554658454907 -213.10953276022548,191.33213820573167 -445.69271261680274,152.50384639579673 -687.7408598987654,87.66303332245312 -936.9399977396456,-4.916651843851156 -1190.7342918582071,-126.75815536336381 -1446.341716038772,-279.14930805353794 -1700.7735829881094,-463.11194374316483 -1950.8579565601403,-679.3722877076253 -2193.2669141276247,-928.333069483619 -2424.547577894392,-1210.0478234753239 -2641.1567816185448,-1524.1978446172993 -2839.499185050585,-1870.0722646588533 -3015.968592931747,-2246.5517070299297 -3166.9921792487885,-2652.0959644376367 -3289.077261256536,-3084.7361230835622 -3378.860212253039,-3542.071530503144 -3433.157047960493,-4021.2719704014135 -3449.015169394672,-4519.085367461223 -3423.765696087308,-5031.851297979222 -3355.075778267731,-5555.520528477888 -3241.000235926971,-6085.6807443759035 -3080.0318373914115,-6617.588564694983 -2871.149500924545,-7146.2078670572755 -2613.863680730679,-7666.25437040001 -2308.2581842953227,-8172.246341515911 -1955.0276619591982,-8658.561206431545 -1555.510012624923,-9119.497759565456 -1111.71296210388,-9549.3435734609 -626.3340933141368,-9942.447120646964 -102.77364073057379,-10293.294027907537 454.8605945439755,-10596.586793064173 1041.7567977981953,-10847.327206502594 1652.411684612323,-11040.900635338543 2280.652481587848,-11173.161248615033 2919.668702320811,-11240.517188562757 3562.053979175751,-11240.014627060422 4199.858103764423,-11169.41958932395 4824.64931226909,-11027.29637983248 5427.5867267135845,-10813.081409821283 5999.5027309825155,-10527.151202547513 6530.994921974628,-10170.883343085847 7012.527133065869,-9746.709144675515 7434.538880510896,-9258.156824537155 7787.562435127336,-8709.884019392664 8062.346573314412,-8107.698525291433 8249.985915000721,-7458.566218237509 8342.05461343915,-6770.605201802372 8330.74302489881,-6053.06533547492 8208.9958573371,-5316.292422803645 7970.650178200132,-4571.676481051656 7610.571554753052,-3831.5836735077078 7124.786507922181,-3109.271660906966 6510.60938465183,-2418.7883185041424 5766.761696284625,-1774.8539688300173 4893.481933418318,-1192.72749541755 3892.6238529048446,-688.0569279161717 2767.7412418144286,-276.7153218834903 1524.157197777404,25.37700522650553 169.01602641350576,202.44257937462066 -1288.684054411725,239.04767311617084 -2838.0790962515357,120.31222535101685 -4466.450033970644,-167.8732352987343 -6159.257102688156,-638.6258985488448 -7900.199224301409,-1303.8466562170252 -9671.299297636117,-2173.9963987676642 -11453.016066592365,-3257.875434638215 -13224.382955199226,-4562.408991903364 -14963.173949077456,-6092.441884593221 -16646.096271686587,-7850.545518627161 -18249.009253558448,-9836.840471681704 -19747.168426584765,-12048.83790441802 -21115.493496807685,-14481.303044631008 -22328.858461938766,-17126.143928638427 -23362.401748242264,-19972.328483544545 -24191.853850045034,-23005.832888233515 -24793.87956885615,-26209.623958864013 -25146.431573045193,-29563.678065538537 -25229.11163860342,-33045.03880053622 -25023.535592221746,-36627.915285423485 -24513.69766540459,-40283.822625506364 -23686.329688279417,-43981.765597110396 -22531.250309813004,-47688.466188369726 -21041.699232872725,-51368.635110562886 -19214.651303366918,-54985.28685821398 -17051.105197700675,-58500.09732652629 -14556.341416809439,-61873.80239925685 -11740.144322481961,-65066.63530455865 -8616.98304646043,-68038.79990691281 -5206.146268242218,-70750.97646695716 -1531.8260962788615,-73164.85576524933 2376.8533986882017,-75243.69685871237 6485.867058957957,-76952.90312808398 10756.382517549591,-78260.61068985423 15144.920128786778,-79138.28269589707 19603.58138490452,-79561.30253747423 24080.347562720137,-79509.55851671325 28519.449587493174,-78968.01215725398 32861.809281202,-77927.2420055293 37045.55128557251,-76383.95453386196 41006.584023401134,-74341.45360456624 44679.247093201084,-71810.05989832986 47997.021491227075,-68807.47175746593 50893.29803177899,-65359.059051487915 53302.19830258456,-61498.08194425087 55159.44145915396,-57265.82683294655 56403.24914321397,-52711.652242660835 56975.279819279705,-47892.938097799255 56821.58287430093,-42874.932553857325 55893.561932743454,-37730.49145861653 54148.93601831747,-32539.70651812799 51552.68645885142,-27389.419365377827 48077.97679745961,-22372.619962130535 43707.032455826404,-17587.729099153432 38431.9665083425,-13137.766187078554 32255.537682517454,-9129.405037988297 25191.82661420942,-5671.921913070031 17266.816467311168,-2876.0417392895642 8518.864286879603,-852.6900612604522 -1000.9500990407403,288.34002500021205 -11228.610173457377,439.79503165229534 -22087.09552577367,-501.57024742727185 -33486.47201294169,-2633.4767374877597 -45324.148707609806,-6046.573486733957 -57485.30961065729,-10822.875649535728 -69843.52646578051,-17034.206556532725 -82261.5571854033,-24740.663569226603 -94592.33239024016,-33989.12844143659 -106680.13039235871,-44811.8437456679 -118361.93862949614,-57225.077545943466 -129468.99710555752,-71227.89888801244 -139828.51683042568,-86801.08681255484 -149265.56360599812,-103906.19545831291 -157605.09480201328,-122484.7973934157 -164674.13403455008,-142457.92658044555 -170304.06593419076,-163725.74133275813 -174333.03050399187,-186167.426248148 -176608.39395564137,-209641.3504065543 -176989.27041299536,-233985.49709028602 -175349.06652424164,-259018.1779314392 -171578.0188665597,-284539.0417192531 -165585.69209992138,-310330.38512206747 -157303.40416903092,-336158.76931074867 -146686.54350297092,-361776.9429343701 -133716.7421583766,-386926.06812041666 -118403.86822950449,-411338.24218170036 -100787.80064069793,-434739.30354596145 -80939.94967383952,-456851.90612185927 -58964.48729224113,-477398.8419210764 -34999.25252586865,-496106.5873191432 -9216.29889896998,-512709.043909662 18177.946876945225,-526951.4405435068 46942.94294690048,-538594.3589049787 76804.73178600881,-547417.840921834 107457.10195780895,-553225.5324983143 138563.22865792297,-555848.8145637813 169757.80469217958,-555150.8693086758 200649.66821708993,-551030.6267981605 230824.92781417508,-543426.534974863 259850.5793206102,-532320.0944463704 287278.60234714224,-517739.0984582725 312650.51763808355,-499760.51813366404 335502.37943264557,-478512.97346428875 355370.16984423035,-454178.7317103268 371795.5550635867,-426995.17684211046 384331.95599812205,-397255.69646712166 392550.87887372985,-365309.9363502062 396048.44444260595,-331563.37716594595 394452.0478600183,-296476.19352095213 387427.07511680474,-260561.3615416548 374683.5962465462,-224381.9884195264 355982.95047144435,-188547.84520857473 331144.1341127669,-153711.09283497723 300049.898572391,-120561.20064925551 262652.46309005277,-89819.06685804423 218978.74539018318,-62230.360733411704 169135.01284024332,-38558.11751861296 113310.85742896,-19574.628323803834 51782.39980815927,-6052.678915797438 -15085.369114386483,1243.7969762092434 -86837.19594428802,1569.572530461801 -162927.2028565956,-5791.597938227447 -242719.62946667612,-21516.38538020124 -325490.74323748075,-46231.08371230088 -410431.97294328857,-80500.71950497973 -496654.30814703216,-124818.20352854533 -583193.9947765461,-179593.66221905957 -669019.5427769398,-245144.094142733 -753040.0465645139,-321683.5022215073 -834114.8027253706,-409313.65667182754 -911064.192222708,-508015.6461513152 -982681.7764540857,-617642.375361859 -1047747.5380074076,-737912.1661939714 -1105042.1780933507,-868403.616301602 -1153362.3635921679,-1008551.8636729674 -1191536.7976696857,-1157646.3982349343 -1218442.969230965,-1314830.5517421989 -1233024.4183426173,-1479102.7851283199 -1234308.337428766,-1649319.8781306513 -1221423.3118009926,-1824202.1093707373 -1193616.9881936663,-2002340.4962307988 -1150273.4467189834,-2182206.1429019566 -1090930.040305126,-2362161.722009588 -1015293.4565048154,-2540475.09039676 -923254.7498202281,-2715335.0131529914 -814903.088630682,-2884868.9420305267 -690537.9596616154,-3047162.765243956 -550679.5749066771,-3200282.4155838178 -396077.231193664,-3342297.1931034448 -227715.3813251991,-3471304.6277011884 -46817.18804966986,-3585456.676084824 145154.65188624684,-3682987.017261927 346500.00663833896,-3762239.1812592484 555286.5007180844,-3821695.217662759 769357.9414822216,-3860004.5842269985 986346.0924389301,-3876012.911673129 1203685.87099943,-3868790.2793289446 1418634.0109002073,-3837658.6179058207 1628291.1891110993,-3782217.840894346 1829627.57393059,-3702370.29521327 2019511.7055066158,-3598343.115266458 2194742.5726174978,-3470708.062823033 2352084.700662756,-3320398.4384753886 2488306.015956593,-3148722.6591474037 2600218.2011431023,-2957374.110472928 2684719.2064587586,-2748436.903040313 2738837.5322901797,-2524387.187642569 2759777.850681171,-2288089.716858985 2744967.4878261723,-2042789.3785265996 2692103.2468612124,-1792097.4708687558 2599198.0111533916,-1539972.5390832354 2464626.533524107,-1290695.648821652 2287169.787143597,-1048840.032898013 2066057.2299137444,-819235.1133432089 1801006.3166966,-606924.9710816051 1492258.5833980525,-417121.4094667825 1140611.6242845347,-255151.83501024422 747446.2895447394,-126402.25812043941 314748.44449222216,-36255.797711121464 -154875.34465561016,9972.844766354288 -658188.8004686955,7106.394934389059 -1191324.1587952448,-49823.128213565746 -1749788.1348443022,-165500.39387540662 -2328476.075291718,-344251.36742938735 -2921694.668775603,-589967.3927120389 -3523193.5056227334,-906029.6598381378 -4126205.687044741,-1295235.0261182066 -4723497.584881084,-1759724.2056677432 -5307427.745905208,-2300913.3819264243 -5870014.820554176,-2919430.325404045 -6403014.275634537,-3615056.1154883634 -6898003.525183688,-4386673.569107318 -7346474.984446698,-5232223.469544123 -7739936.420213127,-6148669.66497531 -8070017.838018372,-7131974.067681101 -8328584.014532943,-8177082.53084794 -8507851.65352109,-9277922.510084093 -8600510.017815195,-10427413.331013588 -8599843.769659331,-11617489.782600366 -8499856.639408285,-12839139.638378084 -8295394.439844558,-14082455.574929914 -7982265.852216704,-15336701.809398077 -7557359.332419917,-16590395.616357341 -7018754.423398317,-17831403.71013697 -6365825.714656207,-19047053.292929433 -5599337.663428611,-20224257.373329673 -4721528.48617457,-21349653.756067507 -3736181.3450587266,-22409756.893617414 -2648681.093248066,-23391121.57629574 -1466054.906233234,-24280517.221778326 -196995.21482201855,-25065111.31026882 1148136.5304757808,-25732660.300553262 2557326.59394971,-26271706.157770563 4016947.3524248446,-26671776.428883813 5511818.329053359,-26923585.619630452 7025290.6195238065,-27019235.460265357 8539355.226684967,-26952411.4998197 10034775.556696676,-26718573.342975643 11491244.046180645,-26315135.74304578 12887562.587585654,-25741637.691860758 14201846.101619305,-24999896.605396014 15411748.274013313,-24094144.695280645 16494708.132321259,-23031144.6432692 17428215.790475477,-21820281.76036802 18190095.338358082,-20473629.916319355 18758802.504855156,-19005988.669891972 19113734.380222272,-17434889.21684582 19235548.151763033,-15780567.000996515 19106485.490663882,-14065899.104479712 18710698.932321753,-12316304.845571933 18034576.322703224,-10559608.365144284 17067059.16426509,-8825862.374350907 15799950.491781143,-7147132.664200421 14228207.745984083,-5557243.439352135 12350215.995999696,-4091484.0303308354 10168036.794617146,-2786278.0562619106 7687627.937693851,-1678816.6494992303 4919029.444218444,-806657.9088711903 1876511.1800729483,-207295.31387542348 -1421322.2808754218,82301.59833956022 -4951473.727890993,26170.424780136374 -8686546.181671582,-410141.46764793893 -12594790.051770803,-1259059.8259615742 -16640207.633610306,-2550457.3909934764 -20782717.48657088,-4311124.72910325 -24978380.65996397,-6564244.408716018 -29179690.096043978,-9328875.301730914 -33335923.84233634,-12619454.118465312 -37393561.95413481,-16445321.547016025 -41296766.16775478,-20810280.55601608 -44987920.582705066,-25712194.52644265 -48408230.71400699,-31142632.896602556 -51498377.37306743,-37086571.9285691 -54199220.916257314,-43522158.02875499 -56452550.47504491,-50420540.77553791 -58201871.86125315,-57745782.41936838 -59393226.93754732,-65454850.12320885 -59976036.36898854,-73497696.60229807 -59903956.83922921,-81817434.10221852 -59135743.03785383,-90350605.82458967 -57636104.01683772,-99027557.97338036 -55376542.88752816,-107772914.55636056 -52336168.298207015,-116506155.94163752 -48502465.70918443,-125142300.94625874 -43872016.17999422,-133592690.93178542 -38451150.21347138,-141765873.0114593 -32256524.175274495,-149568578.04756403 -25315606.934726495,-156906787.6498664 -17667064.662366185,-163686882.89202082 -9361032.178611003,-169816865.9594194 -459259.88205865223,-175207644.4472023 8964873.900954105,-179774366.56020635 18826494.309992723,-183437794.0476138 29029513.07731752,-186125698.35488006 39467070.025210604,-187774264.2155045 50022138.04548127,-188329483.75714928 60568294.981293075,-187748523.18224025 70970663.98407635,-186001043.22410545 81087021.92765906,-183070453.896985 90769073.34294926,-178955083.57220984 99863885.10736871,-173669242.14270538 108215474.80408272,-167244158.0015498 115666543.2797266,-159728768.773724 122060339.50097255,-151190346.21748877 127242643.3673373,-141714936.46480608 131063849.7094425,-131407597.80787213 133381134.31982753,-120392419.56748882 134060680.55992603,-108812307.20140095 132979942.89607628,-96828520.72661039 130029921.6740311,-84619955.73462456 125117421.58088508,-72382158.76477294 118167264.60076992,-60326071.55580013 109124426.88144176,-48676501.70391436 97956067.82686317,-37670320.49557979 84653418.94943886,-27554392.131109074 69233499.58543812,-18583242.181295473 51740626.52768584,-11016476.891004715 32247684.98642019,-5115968.823426015 10857129.075648734,-1142828.2857513477 -12298318.743265798,645816.053384004 -37055298.13135724,200.0000000453799" stroke="white" stroke-width="1.5" /><circle cx="191.49830218033995" cy="249.27191019417847" fill="red" opacity="0.7" r="14.99573603041505" /></svg>