<?xml version="1.0" encoding="utf-8" ?>
<svg baseProfile="full" height="400" version="1.1" width="400" xmlns="http://www.w3.org/2000/svg" xmlns:ev="http://www.w3.org/2001/xml-events" xmlns:xlink="http://www.w3.org/1999/xlink"><defs /><rect fill="black" height="100%" width="100%" x="0" y="0" /><circle cx="200" cy="200" fill="yellow" r="10.0000093056142" stroke="orange" stroke-width="2" /><polyline fill="none" points="200.17755991653792,200.0 200.09053577647842,200.0047527146903 199.99759812146607,199.9997471278403 199.89954137030233,199.9840619102693 199.79727796224185,199.95683601124793 199.69183494770388,199.91728304925618 199.58434892606877,199.8647057258641 199.47605928286902,199.7985100845818 199.3682996966498,199.71821942650868 199.26248790530812,199.62348768626535 199.1601137426928,199.51411206523068 199.06272547848914,199.39004471473706 198.97191451773307,199.25140325979345 198.88929854048178,199.09847995428893 198.81650318696785,198.93174926163692 198.7551424187144,198.75187366059293 198.70679771130116,198.55970748462852 198.6729962594352,198.3562986148558 198.65518839936814,198.1428878611267 198.65472447717394,197.92090588359568 198.67283141360056,197.6919675277204 198.71058923677896,197.4578634693255 198.76890787264247,197.2205490928743 198.8485044991207,196.98213055534526 198.9498817836584,196.74484801991147 199.07330733402614,196.51105607775042 199.21879469939768,196.28320141249588 199.3860862619551,196.06379779977343 199.5746383585555,195.85539857358097 199.78360896699343,195.66056673158772 200.0118482818984,195.4818428922973 200.25789249112918,195.32171135797824 200.5199610445367,195.18256457780916 200.7959576830716,195.06666634527787 201.0834754673829,194.97611410196473 201.37980601132068,194.9128007558494 201.68195308720567,194.8783764556232 201.98665072652102,194.87421079257365 202.29038589204413,194.9013559278369 202.5894257456585,194.9605111646085 202.87984948054412,195.05198950169014 203.15758462756708,195.1756867159892 203.4184476839944,195.33105352676506 203.65818884872107,195.51707139306254 203.87254058265853,195.73223248746683 204.05726964651024,195.97452437369344 204.2082322016101,196.24141989229648 204.3214314936506,196.52987272771793 204.39307757483945,196.83631909086893 204.41964845820365,197.1566859043886 204.39795203934392,197.4864058227083 204.32518806688012,197.82043935621587 204.19900939408944,198.1533042984196 204.01758170178283,198.4791125774261 203.7796408472424,198.79161456875386 203.48454696697374,199.08425081610332 203.13233444299865,199.35021101091084 202.72375683425145,199.5824999811591 202.26032587711146,199.77401033594086 201.7443436728848,199.91760130573124 201.17892720572678,200.00618321036484 200.56802437255087,200.0328068785904 199.9164207572539,199.99075723611773 199.22973644532473,199.87365017469034 198.51441225166482,199.6755317143831 197.77768482415658,199.3909783765546 197.02755018791603,199.01519759723362 196.272715409838,198.54412693175257 195.52253818938104,197.97453073272303 194.78695431875295,197.30409292652013 194.07639310277085,196.53150446980302 193.40168098451022,195.65654403867762 192.77393378607715,194.68015049025422 192.2044381428954,193.60448564079942 191.70452288308655,192.43298592753484 191.2854212789562,191.17040156334065 190.958125273254,189.82282185595182 190.7332329565764,188.3976854462624 190.62079074173653,186.90377432442992 190.63013184374836,185.35119060771248 190.76971282778354,183.75131521023852 191.04695012954596,182.1167477017858 191.46805858041822,180.46122683944313 192.03789408092757,178.79953146174813 192.75980265805546,177.14736165825465 193.63547821223867,175.52120036687518 194.66483130626108,173.93815580487416 195.84587136842848,172.4157854048408 197.1746046744507,170.97190220184598 198.64495043454144,169.62436489949795 200.24867724285036,168.39085312769444 201.9753620442192,167.28862969022362 203.81237363748386,166.33429188245282 205.7448825645612,165.543514234442 207.75589903018783,164.93078529903096 209.82634025865562,164.5091413537648 211.93512842189725,164.28990011583767 214.0593199689553,164.28239777641306 216.17426685184085,164.49373284059635 218.2538097791656,164.92852040791993 220.27050323931968,165.58866064151607 222.1958716224771,166.47312524841453 224.000695338935,167.57776582508058 225.6553253843187,168.89514790815224 227.13002434454683,170.41441450745097 228.39533137013586,172.12118278424666 229.42244818580897,173.99747737044402 230.18364274321124,176.02170360234112 230.65266667788572,178.16866366498684 230.80518230286,180.40961830966688 230.6191944667597,182.71239641807682 230.07548223097143,185.0415542434262 229.15802498474025,187.35858566292723 227.85441732591553,189.6221842305165 226.15626679495486,191.78855722667822 224.0595683671588,193.81179126815434 221.56504948907184,195.64426836919316 218.67847939527593,197.2371306436862 215.41093646669347,198.54079111070817 211.77902749568696,199.5054873220165 207.80505291071185,200.08187377708552 203.5171122872885,200.2216483380117 198.9491448350027,199.87820711248256 194.1409000035575,199.00732154781926 189.13783389499787,197.56783078317144 183.990927803427,195.5223416508795 178.7564259259719,192.83792811265607 173.4954900963551,189.4868213724982 168.27377028086087,185.44708143702053 163.1608905400857,180.70324050591046 158.22985119170303,175.2469082808537 153.5563490012765,169.077329090493 149.2180183703529,162.2018806510755 145.29359767283268,154.63650432594014 141.86202609989147,146.40605691948895 139.0014775973154,137.5445743492672 136.7883397027476,128.09543798848495 135.29614629881056,118.11143506459521 134.5944744753129,107.65470523970211 134.74781682303663,96.7965663862279 135.81444154567214,85.61721360526408 137.84525375771443,74.20528671230394 140.88267221680587,62.65730273054601 144.9595365014119,51.07695137856703 150.0980602714424,39.57425310767201 156.30884672360256,28.264580923289003 163.58998265875064,17.267549000892615 171.9262277002627,6.705772964543883 181.2883151265339,-3.2964913824724817 191.6323804949902,-12.61482211982809 202.89953372884207,-21.126207321787888 215.01558960281693,-28.710710487184656 227.89097059408647,-35.25321059414537 241.42079485586152,-40.64520017491927 255.48516062273902,-44.78662297370974 269.949636670803,-47.58773102465105 284.66596653675106,-48.970939396594304 299.4729920572635,-48.87265542506037 314.1977994340441,-47.24505801826817 328.65708847653457,-44.05780161187502 342.65876294175405,-39.29961858333826 356.003737001028,-32.979793447785624 368.4879498419947,-25.12948196746305 379.90457728995966,-15.80284843859971 390.04642613738724,-5.077994892790457 398.70849363907996,6.942343218247771 405.69067140118057,20.13035908178952 410.8005697048354,34.3330169683469 413.8564352026656,49.37219572832777 414.69013195235004,65.04515164506395 413.15015295228136,81.12531619872834 409.1046267659002,97.36344116851446 402.44428151083787,113.4891000091771 393.0853264930837,129.21255060166402 380.9722101309383,144.2269603207317 366.08021158299914,158.21098991537102 348.4178227112952,170.8317279964497 328.02887671463685,181.7479630116636 304.9943799945845,190.6137745075453 279.4340045993849,197.08242028399607 251.50719995728406,200.81049079554035 221.41388458179668,201.4622969068071 189.39468102386803,198.71445193314025 155.73066056871605,192.26060385985718 120.74256803064311,181.8162688074808 84.7895014816607,167.1237122694517 48.26702684561192,147.95682046897795 11.604712976290301,124.12590043897751 -24.736920915333997,95.48234419933696 -60.270046853461906,61.92308976349207 -94.48375284164041,23.39480972384584 -126.84883724294303,-20.10224308841873 -156.82315128806118,-68.51080383450318 -183.85745994331387,-121.71364836473361 -207.40178292767575,-179.53119966064463 -226.91216913494526,-241.71975505898394 -241.85784919415806,-307.9703980669851 -251.72870249501938,-377.90865434126135 -256.04296682787543,-451.0949461409954 -254.35511095664043,-527.0258932765814 -246.26378307871943,-605.1365012668919 -231.4197413512444,-684.8032691146574 -209.53366660159344,-765.3482398466438 -180.3837521153913,-846.0440067943423 -143.82296112803243,-926.1196775776641 -99.78583945345247,-1004.7677859789001 -48.29476867804368,-1081.152129452864 10.53445536723001,-1154.416497021461 76.4878334720149,-1223.6942388716484 149.2492757223095,-1288.1186152528212 228.3977247751202,-1346.833848404311 313.4053932353567,-1399.0067873987828 403.63721171170727,-1443.8390821364417 498.3515755363141,-1480.579749451082 596.7024678711819,-1508.5380015823712 697.7430250081621,-1527.0961953254828 800.4305961366657,-1535.7227491891063 903.6333347637095,-1533.9848660768112 1006.1383424084388,-1521.560890555186 1106.661367264808,-1498.2521228813296 1203.8580413634722,-1463.9939068225376 1296.3366195228086,-1418.8658050937156 1382.672162238901,-1363.1006751323587 1461.4220828280575,-1297.0924590814366 1531.1429568280703,-1221.4025053941025 1590.4084691318963,-1136.764245526937 1637.828351834914,-1044.0860578431673 1672.0681436070145,-944.4521621707813 1691.8695798508568,-839.1214024902836 1696.0714022871448,-729.5237919700941 1683.6303572359077,-617.2547139974064 1653.6421340636007,-504.06669490714967 1605.3619793666476,-391.85868869296587 1538.2247087875123,-282.66284095517705 1451.8638272287849,-178.62872852617699 1346.1294599529588,-82.00510239881942 1221.1047919245557,4.8808054858706384 1077.1207110416012,79.64631665167292 914.7683528656879,139.87855125466015 734.9092503154377,183.161717296856 538.6828017248289,207.10624056005577 327.5107848358898,209.37949539218687 103.09866280091829,187.7378604729489 -132.56654882610587,140.0597886993189 -377.2220578168618,64.37954686853098 -628.3388857466934,-41.07875058547063 -883.1354093174168,-177.8672183987385 -1138.5949485811716,-347.28081817651287 -1391.4874542070033,-550.3249694590057 -1638.3952984273217,-787.6846246065732 -1875.7431235574563,-1059.6952912883864 -2099.831648412208,-1366.3164945653807 -2306.875277026563,-1707.108173195593 -2493.0432963605253,-2081.2105014509884 -2654.5043907292056,-2487.3276180625853 -2787.4741411989944,-2923.7157275995514 -2888.2651188327227,-3388.176016397385 -2953.3391221987677,-3878.052794907888 -2979.361052767785,-4390.237240952943 -2963.253867525308,-4921.177073811979 -2902.253997171426,-5466.892437434131 -2793.9665715173182,-6022.998212507826 -2636.4197519856407,-6584.732911908316 -2428.1174353352512,-7146.994242543438 -2168.0895637016465,-7704.381339297077 -1855.939254586594,-8251.24359420191 -1491.8859513183847,-8781.735916832278 -1076.8037904586756,-9289.880170973713 -612.2543883121781,-9769.632438774233 -100.51326468090599,-10214.955667786187 455.4108512126164,-10619.8971596278 1051.7645497390968,-10978.670262575135 1684.0467724856564,-11285.739535453331 2347.014953110672,-11535.908558011804 3034.70080136709,-11724.409474874097 3740.436180035337,-11846.993277516593 4456.889429077151,-11900.01975294729 5176.112385093953,-11880.545960228292 5889.598227742983,-11786.412038103228 6588.3501589009,-11616.323100125286 7262.960785997577,-11369.92593914836 7903.7019391770145,-11047.879242101746 8500.624504045432,-10651.916009789064 9043.66769916687,-10184.89688609773 9522.77707174838,-9650.853127418806 9928.03032784882,-9055.017987052746 10249.769956807173,-8403.845351541724 10478.741455399962,-7705.0145466712065 10606.235807584815,-6967.420330564913 10624.234732731918,-6201.147209879921 10525.557081218984,-5417.427352390171 10304.004633424804,-4628.581524760726 9954.505448792603,-3847.9426573623127 9473.25281799209,-3089.7618275627856 8857.83779552852,-2369.096657823044 8107.373234546325,-1701.6823435817 7222.607212121617,-1103.7857565516417 6206.023723896249,-592.0433095917999 5061.928543240024,-183.28351744316348 3796.51818372056,105.66455926084325 2417.929975836561,258.17554398756687 936.2713707041136,258.0429511142302 -636.3732845673234,89.70342196165872 -2285.960092360482,-261.53220048827876 -3996.528470017046,-809.2433807099918 -5750.270710616102,-1565.6626234879488 -7527.629160993885,-2541.43926951656 -9307.421657091425,-3745.4073698871325 -11066.995548037132,-5184.360807084556 -12782.410306884152,-6862.838952339936 -14428.648370142366,-8782.926238683267 -15979.853473063482,-10944.069082489028 -17409.595356473834,-13342.91360065174 -18691.159317542817,-15973.167542942647 -19797.858665482734,-18825.48978715072 -20703.36772832159,-21887.410626188408 -21382.072643560612,-25143.285909844908 -21809.436758913947,-28574.28788810917 -21962.377074985885,-32158.435337387196 -21819.647785352226,-35870.66523542541 -21362.226617008353,-39682.94788595709 -20573.69935146639,-43564.4469811938 -19440.63761998095,-47481.72563126041 -17952.964821393212,-51398.99888708905 -16104.30481378319,-55278.43274052884 -13892.30788713348,-59080.489006505406 -11318.948438920634,-62764.31488181319 -8390.788752931894,-66288.17533898017 -5119.203328207756,-69609.9258578402 -1520.5583238111285,-72687.52232878761 2383.6591205140526,-75479.56428765529 6566.766655166245,-77945.86697075135 10996.872197754388,-80048.05701837702 15636.923297526417,-81750.18601504258 20444.824053588793,-83019.35544396291 25373.622658565353,-83826.34606177443 30371.771966524095,-84146.24417653152 35383.46473627292,-83959.0568476506 40349.04438278271,-83250.30763030042 45205.491185983214,-82011.60416825964 49886.98296412906,-80241.16870766776 54325.52822613261,-77944.32246805013 58451.66878268712,-75133.9147746486 62195.24772969149,-71830.68793471156 65486.23763061988,-68063.56903652482 68255.62262915733,-63869.880168956595 70436.32713275087,-59295.45900547214 71964.18263552735,-54394.682272845326 72778.92320995919,-49230.38533278692 72825.19920576134,-43873.67194433435 72053.59776744581,-38403.60924458591 70421.65793443186,-32906.80408176235 67894.86733560907,-27476.85805258106 64447.626849382905,-22213.69992842909 60064.16908609058,-17222.795593017043 54739.41617694268,-12614.237147170066 48479.762136622594,-8501.714451530657 41303.76501836176,-5001.374060574419 33242.73421261924,-2230.57223505764 24341.198563996186,-306.53048672728903 14657.241504267298,655.0961109999791 4262.690129574709,541.7258408463956 -6756.8539086536475,-754.5812587509888 -18302.15267383135,-3335.508945845876 -30260.64898073832,-7294.841320368869 -42506.97022297087,-12716.808907661978 -54903.62522950416,-19674.444198761747 -67301.89840476497,-28227.9677838834 -79542.9432372272,-38423.22725212511 -91459.07492071057,-50290.21186055484 -102875.25933834068,-63841.6665755405 -113610.79303184655,-79071.82943538931 -123481.16604272119,-95955.31625496711 -132300.09669309793,-114446.17647050004 -139881.7245029198,-134477.1433895032 -146042.94454792142,-155959.10125231784 -150605.86368507365,-178780.79031723994 -153400.35624482084,-202808.76964274817 -154266.69405160364,-227887.6553542969 -153058.22302552508,-253840.64994941436 -149644.05617996128,-280470.37561824766 -143911.7506040059,-307560.0216460084 -135769.93404685118,-334874.8127330782 -125150.84504513541,-362163.80153651687 -112012.74919445025,-389161.98492699873 -96342.19320195944,-415592.7393968613 -78156.05780543092,-441170.5667815229 -57503.370539538686,-465604.13700704114 -34466.83970421137,-488599.609994341 -9164.071769557739,-509864.2141840562 18251.56413965523,-529110.0544470898 47590.45908191044,-546058.1174714781 78626.70634719568,-560442.4381255526 111098.4915245244,-572014.3858535544 144708.95575399167,-580547.0259278006 179127.5531279034,-585839.5064282082 213991.91846264058,-587721.4182131285 248910.25640058436,-586057.0719532131 283464.2570503486,-580749.6335899725 317212.5371724793,-571745.0574185855 349694.599313779,-559035.7544442633 380435.2943415883,-542663.9327830808 408949.7655929804,-522724.5467278054 434748.8454037199,-499367.7917272482 457344.8671966081,-472801.08397877205 476257.8486735286,-443290.46564434265 491021.99406188045,-411161.3799002891 501192.45591157884,-376798.76413916197 506352.2897249648,-340646.41466843575 506119.527835361,-303205.58219465986 500154.2925385579,-265032.7642299546 488165.86263625434,-226736.66828648897 469919.60238114046,-188974.3282959387 445243.65743058233,-152446.36605542502 414035.3189256505,-117891.39959495408 376266.95431915275,-86079.61110792538 331991.4021767061,-57805.498395225164 281346.7279608967,-33879.84554236404 224560.2388606368,-15120.960661911757 161951.6581195063,-2345.2408629860365 93935.36310606392,3642.862983551648 21021.596604512382,2061.3967800272367 -56183.43248487993,-7838.127972778841 -136978.6346418293,-26759.45577972632 -220570.37733158644,-55350.11904645973 -306076.12946927553,-94189.91052462184 -392529.4549011042,-143779.43603986592 -478886.3831001153,-204528.89560538254 -564033.1700292595,-276747.2481123854 -646795.4456963972,-360631.92042203335 -725948.7274410133,-456259.2256931573 -800230.259597601,-563575.6580087618 -868352.1210424231,-682390.2306635958 -929015.5224392082,-812368.0237135343 -980926.1949605802,-953025.1024474262 -1022810.7521044547,-1103724.962228338 -1053433.8861882377,-1263676.646586809 -1071616.24144853,-1431934.6744850546 -1076252.7866677588,-1607400.8992816207 -1066331.4921738142,-1788828.4061170102 -1040952.0991995308,-1974827.536244684 -999344.7542389528,-2163874.106317582 -940888.2674867647,-2354319.8679051544 -865127.7429869884,-2544405.2276966125 -771791.3190281265,-2732274.222109567 -660805.7508773792,-2915991.7115756054 -532310.5644027415,-3093562.729853085 -386670.50872793706,-3262953.8925981745 -224486.03901574074,-3422116.737412555 -46601.566968955085,-3569012.8350207265 145888.77316882237,-3701640.478478196 351638.0813172832,-3818062.7247698465 569046.5912579797,-3916436.5312436162 796264.7117616188,-3995042.6984784296 1031199.381791025,-4052316.301861098 1271523.8827638016,-4086877.2668125564 1514691.2174313683,-4097560.717731818 1757951.1279013732,-4083446.708791705 1998370.784918729,-4043888.926192041 2232859.137002832,-3978541.93681386 2458194.861747934,-3887386.5478621093 2671057.8129208577,-3770752.8364530667 2868063.806380244,-3629340.4075808553 3045802.5357958637,-3464235.4438366396 3200878.3562141093,-3276924.1209548274 3329953.6202985193,-3069301.9799799463 3429794.199212188,-2843678.869776878 3497316.7682865914,-2602779.102880296 3529637.3875493687,-2349736.503353274 3524120.859606967,-2088084.0673897364 3478430.3030496775,-1821738.0057500594 3390576.339242303,-1554975.9915891148 3258965.2548474083,-1292409.4975480428 3082445.4724695846,-1038950.171780957 2860351.638145262,-799770.2734199396 2592545.6177588184,-580257.2633068139 2279453.685508295,-385962.72499725444 1922099.1869111261,-222545.87334967192 1522129.967085557,-95711.99262926647 1081839.872668609,-11146.232092820806 604183.6631407143,25556.726506272185 92784.70483239337,8966.529185028316 -448065.1312910549,-66106.14669100124 -1013413.8887538488,-204530.81125584905 -1597666.7136870178,-410777.1463506572 -2194612.185210036,-688834.669906244 -2797458.0726035186,-1042133.0606336112 -3398876.7055811537,-1473464.1806580208 -3991060.036844499,-1984906.882177843 -4565784.360829481,-2577755.7224136777 -5114484.529996682,-3252454.73786772 -5628337.381236033,-4008537.443147402 -6098353.951115002,-4844574.2202964695 -6515479.921143953,-5758128.250815123 -6870703.594406594,-6745721.113531492 -7155170.5644125305,-7802809.126560005 -7360304.0975588225,-8923771.450229365 -7477930.113958966,-10101910.889761051 -7500405.5194832105,-11329468.241462702 -7420748.516627826,-12597650.914336037 -7232769.405281637,-13896676.4305305 -6931200.278633509,-15215831.263507606 -6511821.926383739,-16543545.312820636 -5971586.179109414,-17867482.14002652 -5308731.866044563,-19174644.902639113 -4522892.515559241,-20451497.723642267 -3615193.905039285,-21684102.02461148 -2588339.566325085,-22858267.132863767 -1446682.3758491687,-23959714.24943964 -196280.40640508963,-24974252.637487657 1155064.7088460303,-25887966.662364967 2597788.549154609,-26687412.088254478 4120565.3371641575,-27359819.81426303 5710331.394432308,-27893305.018882915 7352331.805365007,-28277079.47855134 9030191.264026565,-28501664.637089923 10726009.842728788,-28559102.831346497 12420484.160776459,-28443163.927710418 14093054.147818351,-28149544.497579925 15722075.29089296,-27676056.560533237 17285015.92982393,-27022802.854936637 18758678.824877024,-26192335.559919756 20119445.866675276,-25189795.392709605 21343544.434817333,-24023028.043670285 22407333.54231287,-22702674.990097865 23287607.532069683,-21242235.85062998 23961914.72372504,-19658099.606331494 24408888.048906714,-17969542.22299876 24608584.36551804,-16198688.462350039 24542828.81204613,-14370435.967367284 24195560.256505597,-12512340.048431635 23553173.616785496,-10654457.980698545 22604854.585277177,-8829152.047494333 21342902.08598454,-7070851.026785545 19763033.63208013,-5415770.314796902 17864668.6409824,-3901591.4087484055 15651184.707244487,-2567102.0249777655 13130141.835114174,-1451798.7042539224 10313469.696523072,-595454.3471622877 7217613.109780477,-37653.722715805394 3863631.1322606923,182699.40401315238 277245.4289069994,27899.28179020894 -3511166.0810789284,-538025.5077151982 -7466633.88396617,-1548761.8140884507 -11549722.9368979,-3035153.692683741 -15716722.68187758,-5024642.613461278 -19919902.925934512,-7540712.978318964 -24107836.814083308,-10602350.21595716 -28225791.369100362,-14223519.054199867 -32216185.263315074,-18412669.82823371 -36019112.62870719,-23172280.861308683 -39572930.81008952,-28498445.044528212 -42814909.03026737,-34380508.73736106 -45681933.975229345,-40800771.00417851 -48111267.33191003,-47734250.98898709 -50041349.33195934,-55148530.90604139 -51412641.38430974,-63003681.68484995 -52168499.9296666,-71252277.75190647 -52256072.734700084,-79839506.7574867 -51627207.97625587,-88703379.26441756 -50239365.66044548,-97775042.50897078 -48056520.192077965,-106979201.32536338 -45050042.27083263,-116234648.20009194 -41199547.75575249,-125454903.19720618 -36493700.72277376,-134548963.1793239 -30930957.654115953,-143422158.35184002 -24520239.555833045,-151977112.69149286 -17281518.81198155,-160114803.29868028 -9246307.76095889,-167735712.15104586 -458036.3304094929,-174741062.15048796 9027693.401016977,-181034127.7651432 19142987.128346212,-186521608.99139825 29807683.236162957,-191115055.81925762 40929532.11041019,-194732328.89883068 52404537.96008616,-197299080.6986482 64117469.78472726,-198750240.14066786 75942546.46388668,-199031482.51525 87744299.11212753,-198100665.44506392 99378611.84847553,-195929210.80259913 110693939.9868352,-192503411.81378877 121532702.38031861,-187825644.12151185 131732842.26722063,-181915459.35731527 141129548.4917841,-174810539.79618996 149557126.43360573,-166567492.96396545 156851005.40294066,-157262465.6444054 162849866.6746739,-146991557.60490897 167397873.77312687,-135871016.53494233 170346984.11641672,-124037197.17541139 171559318.71800455,-111646269.41262989 170909564.36023486,-98873662.21555758 168287380.53740916,-85913232.70444208 163599781.5513275,-72976152.34301479 156773462.46803725,-60289505.231334135 147757036.24725813,-48094596.723654404 136523148.2720308,-36644974.08277475 123070433.76946568,-26204164.581593286 107425283.25708584,-17043140.34251948 89643381.20243579,-9437523.22957678 69810983.57377867,-3664547.236265912 48045900.90934528,199.99999994116098" stroke="white" stroke-width="1.5" /><circle cx="180.69113542661592" cy="246.1212288310569" fill="red" opacity="0.7" r="14.99573603041505" /></svg>