<?xml version="1.0" encoding="utf-8" ?>
<svg baseProfile="full" height="400" version="1.1" width="400" xmlns="http://www.w3.org/2000/svg" xmlns:ev="http://www.w3.org/2001/xml-events" xmlns:xlink="http://www.w3.org/1999/xlink"><defs /><rect fill="black" height="100%" width="100%" x="0" y="0" /><circle cx="200" cy="200" fill="yellow" r="10.000000000233792" stroke="orange" stroke-width="2" /><polyline fill="none" points="201.4743941273603,200.0 201.4794295306178,200.07766329220257 201.47504419357122,200.1552941190126 201.46094657347413,200.23178394578824 201.43695581028325,200.3059595548574 201.40301169888593,200.3765931559242 201.3591838384247,200.44241384750362 201.3056797901197,200.50212037712026 201.24285207604197,200.5543951283459 201.171203854501,200.5979192426632 201.09139311317702,200.63138876385864 201.00423522894124,200.65353167239897 200.91070375352024,200.66312565729052 200.8119292968135,200.65901645352565 200.7091963947647,200.64013655466536 200.60393826620057,200.60552409267757 200.4977293829249,200.55434166113986 200.39227579950258,200.48589484361702 200.28940321346772,200.39965019673187 200.1910427529784,200.29525242744674 200.0992145170299,200.17254049664314 200.01600892299547,200.0315623764935 199.94356594722703,199.87258818760438 199.88405237641908,199.6961214437069 199.839637220088,199.50290813696995 199.81246546748432,199.29394340598898 199.80463040514863,199.07047554128863 199.81814474373016,198.83400709987072 199.85491083417185,198.5862929209903 199.9166902834773,198.329334859963 200.00507330854296,198.06537308535547 200.12144819249218,197.79687381729266 200.26697123110378,197.5265134206904 200.4425375768164,197.2571588067815 200.64875340393988,196.99184413909376 200.885909830669,196.7337438857429 201.15395904084073,196.48614230814528 201.45249305070627,196.25239952660942 201.7807255629348,196.03591435524265 202.13747734130905,195.84008415167358 202.52116552483542,195.66826198065547 202.92979727906172,195.52371144404557 203.36096815511343,195.40955958227926 203.81186549324545,195.328748303565 204.27927716754186,195.28398484588058 204.75960592185527,195.2776918226935 205.2488894943086,195.31195744538667 205.74282666892495,195.38848655286898 206.2368093285371,195.50855311101478 206.72596051347804,195.67295487065263 207.20517841618502,195.88197089207634 207.6691861633697,196.13532265578647 208.11258715551784,196.4321394827363 208.5299256489745,196.77092898216384 208.91575217961983,197.1495532306161 209.26469334010312,197.56521136157312 209.57152533580944,198.0144292108084 209.83125065927834,198.49305661802723 210.03917713983344,198.996272930273 210.19099854591101,199.51860118706463 210.28287584323104,200.05393139134063 210.31151814378933,200.59555318428852 210.2742623199255,201.13619814642283 210.16915020569448,201.66809184238085 209.99500226566695,202.1830156135254 209.75148658029573,202.67237800141632 209.4391819782417,203.12729555753353 209.05963414060489,203.53868266144613 208.61540351081646,203.8973498322114 208.1101038678562,204.19410987758306 207.54843046018556,204.41989108416414 206.9361766538914,204.56585651063637 206.28023812141998,204.62352830741438 205.58860368716162,204.58491585138916 204.8703320530446,204.4426463557866 204.13551375102196,204.19009649458224 203.39521780947365,203.82152347042015 202.66142277645764,203.33219385663278 201.94693191354145,202.7185084597877 201.26527255850385,201.97812138119022 200.6305798521406,201.11005140588134 200.05746523211803,200.11478381771707 199.5608703134298,198.99436073080983 199.15590699843025,197.7524580425046 198.85768488731358,196.39444715252444 198.68112728975248,194.92743965810183 198.6407773674708,193.3603133267302 198.75059616289874,191.70371776726168 199.02375448770178,189.97005836679082 199.47242085370718,188.17345723512207 200.1075478243212,186.32969010030607 200.9386593436172,184.4560983270636 201.97364175955042,182.57147548384606 203.2185413939097,180.6959281623576 204.67737162140904,178.85071105374604 206.35193250061957,177.058036606117 208.24164604727312,175.34085992589178 210.34341025306153,173.72263993777827 212.65147492789353,172.22707818134222 215.15734237844154,170.8778369925589 217.84969582884364,169.69823919217765 220.7143583391526,168.71095177479125 223.73428478251228,167.93765645845716 226.88958920254575,167.39871030959665 230.15760958802696,167.11279999655335 233.5130117731186,167.0965935423175 236.9279337993991,167.36439373713455 240.3721716623149,167.92779762959913 243.81340691193162,168.79536673501764 247.21747608894202,169.9723127770397 250.5486814554664,171.4602039077257 253.77014193057636,173.2566964275132 256.8441825676245,175.35529704547469 259.732760319946,177.74516067775116 262.3979232394777,180.41092867450317 264.80229964602927,183.3326121901416 266.9096132005764,186.4855251655931 268.6852192217005,189.8402710732799 270.0966570082536,193.36278718446823 271.11421238186176,197.0144496546494 271.7114841486062,200.75224218654512 271.86594770890827,204.52899042401498 271.5595086270725,208.29366355642648 270.77903861584616,211.99174387579657 269.5168861052853,215.56566423313956 267.7713533574157,218.9553124919375 265.54713196648055,222.09860118251453 262.8556885562489,224.93209962941398 259.71559255753135,227.39172486371942 256.1527781265156,229.41348665367178 252.20073255267437,230.93428100084515 247.90060390763804,231.89272546732482 243.30122120622949,232.23002873428072 238.45902098920308,231.89088585717326 233.4378749941179,230.82438979120758 228.30881445473187,228.9849489265675 223.14964755729173,226.33319961064768 218.0444676794671,222.83690195824752 213.0830512381084,218.47180667466978 208.36014526746595,213.22248015476384 203.97464623024155,207.08307478654814 200.0286730183936,200.05803119385052 196.6265386158227,192.16269911020967 193.87362645615133,183.42386369680483 191.87517909942346,173.88016440981215 190.7350084538843,163.58239399521838 190.5541383639047,152.59366584792448 191.42939195225523,140.98943882122364 193.45193762295426,128.8573896146219 196.70580907764202,116.29712410243296 201.2664160510935,103.41972039015482 207.19906370695347,90.34709799534271 214.55749972983986,77.21120933689025 223.38250908158682,64.15305167099999 233.70057713505707,51.32149972050661 245.52264243691425,38.87196149073711 258.84296066039667,26.964862131036114 273.6381013713541,15.763963165009955 289.86609902823056,5.434526950381041 307.46577915410074,-3.858661185549181 326.3562798435454,-11.953398085439659 346.43678768911263,-18.692277536543145 367.58650582450707,-23.92499449598526 389.66487008100455,-27.5107161184053 412.5120272400885,-29.32049459058868 435.9495870430619,-29.23969458443389 459.7816569955955,-27.170406137666475 483.7961660943591,-23.03381199886732 507.7664804209249,-16.7724769670466 531.4533101165181,-8.352525552708045 554.606903595836,2.2343265775646444 576.9695210095912,14.96892240412464 598.2781749585643,29.803029726363235 618.2676223360626,46.65795848481065 636.6735869740996,65.42346321806178 653.2361885385399,85.95696336712355 667.7035489106398,108.08311237533663 679.8355431606731,131.59374426436835 689.4076582201453,156.24822359039194 696.2149185511691,181.77422139995383 700.0758345549755,207.86893601894664 700.8363262174635,234.2007732341565 698.3735716193679,260.4114956854352 692.599727502788,286.11884610540056 683.465467143943,310.9196434576647 670.963279391272,334.39334507632043 655.1304719426328,356.1060616485008 636.0518218056927,375.615005365217 613.8618164571837,392.47334485731903 588.7464305293304,406.235433703912 560.9443849388435,416.462372426749 530.7478382612123,422.72785704857256 498.50246385840757,424.624260583628 464.6068708001322,421.7688873366104 429.51133197648875,413.81033370738317 393.7157889719832,400.4348834308223 357.7671102349404,381.3728599233406 322.2555867990651,356.4048537596036 287.81065824980817,325.3677393633461 255.09587072019295,288.1603918614705 224.8030783796766,244.74901281365845 197.64591006437155,195.1719722785283 174.35253329470956,139.544074493481 155.6577588332318,78.06015540259872 142.29454003561978,10.997922429734814 134.98493241729682,-61.28004968374711 134.43058996150086,-138.32524843371607 141.30288559023123,-219.603153904515 156.2327537573651,-304.4942379243083 179.80036314851853,-392.2960912944112 212.52473682583638,-482.22672830231 254.85344567649872,-573.4291063820936 307.1525085495491,-664.9768862091598 369.6966388364348,-755.8814437824692 442.65998230980404,-845.1001312505928 526.107494631824,-931.5457674901877 619.9871089349892,-1014.0973228797598 724.1228441325786,-1091.61174547852 838.2090030134204,-1162.9368580901032 961.8056056116825,-1226.9252376505808 1094.3351977302227,-1282.4489702336216 1235.0811667681658,-1328.4151569313042 1383.1876871143086,-1363.782028178897 1537.6614052959133,-1387.575506988933 1697.3749608215144,-1398.9060452963777 1861.0724222578433,-1396.9855424510301 2027.376699594993,-1381.144141087724 2194.7989734708162,-1350.846683422416 2361.7501594663204,-1305.7086007228615 2526.5544016006606,-1245.5110005407937 2687.464563532189,-1170.2147105129222 2842.6796590255667,-1079.973034372074 2990.3641352216155,-975.1429754720036 3128.6688934223575,-856.2946858132923 3255.7539027836724,-724.2189044323569 3369.812232823846,-579.9321582216446 3469.0953013637227,-424.6795108950414 3551.939105790344,-259.9346619715514 3616.79117777665,-87.39721735669679 3662.237975204616,91.01302365274563 3687.0324004485497,273.1648933813561 3690.1211118054775,456.7278911229762 3670.671275137234,639.1874937786141 3628.0963861372356,817.863770332506 3562.080780466433,989.933289514254 3472.602439714779,1152.454268301325 3359.9536961124545,1302.3948650809064 3224.759438486394,1436.6644757150607 3067.992426446156,1552.1478438886722 2890.9853294625514,1645.7417494625352 2695.4391225997915,1714.3939906438852 2483.427491352217,1755.144328202576 2257.396924437602,1765.1670133172133 2020.1622055640942,1741.814475574306 1774.8970531034556,1682.6617048324558 1525.1197001826213,1585.5508207850758 1274.673256786032,1448.6352878022374 1027.7007498007565,1270.4232006986667 788.614796210999,1049.8190401469308 562.0619284517625,786.1632752030405 352.88165877261105,479.2691754804179 166.0604407681325,129.45618750640313 6.680760347014939,-262.42077071297274 -120.13433539731341,-694.9467354013043 -209.28088549346438,-1166.1274655374955 -255.73737480900212,-1673.3761519950347 -254.63126511779933,-2213.5066312486993 -201.30808071869825,-2782.73362447944 -91.40235866553633,-3376.6804704177152 79.09029578937161,-3990.3947584342586 313.7408726007552,-4618.3721973583415 615.6152219930295,-5254.5889755451335 987.2038556878209,-5892.542779221799 1430.3542623426808,-6525.302539646293 1946.2067495366202,-7145.566875778043 2535.1348486322486,-7745.7310887854055 3196.69133155501,-8317.962448736267 3929.560889044583,-8854.28339330449 4731.520507426425,-9346.662134467573 5599.408554709631,-9787.11004329267 6529.10354624407,-10167.785056434015 7515.51350481201,-10481.100222431553 8552.576759585658,-10719.8363829329 9633.274942717151,-10877.25786525831 10749.658841488732,-10947.229950055122 11892.887648176866,-10924.336772950235 13053.282019513286,-10803.998223933284 14220.39121350983,-10582.584324522613 15383.07441431746,-10257.525492391833 16529.596186798237,-9827.41704783112 17647.735822906747,-9292.11627788546 18724.910153332614,-8652.830353850999 19748.30920188355,-7912.19339750405 20705.04385874147,-7074.331012318352 21582.304544142513,-6144.910639153133 22367.529628547134,-5131.176162427712 23048.582171474653,-4041.965283370677 23613.933341518597,-2887.7082920258094 24052.85068740444,-1680.4070095243296 24355.589247166678,-433.5928366107088 24513.583312539165,837.736966858247 24519.636511447123,2117.2054344580083 24368.107736034897,3387.1649060689742 24055.09032990015,4628.8290735799 23578.581859005193,5822.427956861174 22938.641728848637,6947.385415235059 22137.533878509366,7982.51849279483 21179.851782522175,8906.257577222623 20072.623026363042,9696.886024398613 18825.3907925018,10332.797568574735 17450.269703053247,10792.76950399567 15961.97361322304,11056.249292650042 14377.81313776405,11103.65192862511 12717.660920869834,10916.665076821044 11003.882928186307,10478.558707216405 9261.23434726316,9774.495670233975 7516.719028606874,8791.839408867569 5799.41178179303,7520.45478392939 4140.243257531323,5952.997804838786 2571.7475942608157,4085.189914455255 1127.7734833080926,1916.0723770318773 -156.84019418767303,-551.7637323553033 -1246.6224871114337,-3311.9764366654927 -2105.8600473049323,-6354.305105822309 -2699.01561149535,-9664.440370381473 -2991.1720056167756,-13223.935845849097 -2948.49784695966,-17010.16557126416 -2538.7305931590554,-20996.330758574764 -1731.6720794667458,-25151.519076949746 -499.691204622775,-29440.819258735643 1181.7720212969439,-33825.49331237764 3333.707258576804,-38263.20806422369 5973.0459956278755,-42708.32712859325 9112.191926700007,-47112.26372756915 12758.57662556124,-51423.89405343128 16914.24775083973,-55590.0300931234 21575.49709909521,-59555.95002227282 26732.53581644089,-63265.98343357804 32369.223983006013,-66664.14779927139 38462.86159180205,-69694.83168911256 44984.04765058524,-72303.5193840151 51896.613739026536,-74437.55065171348 59157.63785192148,-76046.90859622725 66717.54375147971,-77085.02766917166 74520.2903383814,-77509.61315052421 82503.65473408226,-77283.4626819007 90599.611848986,-76375.27977945808 98734.81219727354,-74760.46867900206 106831.15861556615,-72421.89938532597 114806.48135691305,-69350.63142351218 122575.30977309313,-65546.58453366923 130049.73747769438,-61019.14442345304 137140.3765121346,-55787.69170494682 143757.39463044913,-49882.04230324609 149811.62839137306,-43342.787941359275 155215.76331432452,-36221.525786319704 159885.5709368891,-28580.966989653374 163741.191223781,-20494.914674770553 166708.44744045282,-12048.10291567086 168720.17933849565,-3335.889414828133 169717.5793252673,5536.204079753972 169651.5152275191,14453.108082816421 168483.8223288749,23290.981218723584 166188.54658432252,31918.146623384444 162753.1203113476,40196.18798781253 158179.45124603706,47981.20228216954 152484.90565144483,55125.20405105425 145703.1661913052,61477.67394238902 137884.94554966936,66887.24184585617 129098.53729910063,71203.49269700842 119430.18630725658,74278.88067654529 108984.26203194985,75970.73522928875 97883.21939324353,76143.34007423797 86267.33352977927,74670.06420723959 74294.19664396699,71435.52184383337 62137.96731197794,66337.73634504808 49988.36507100384,59290.28144701733 38049.40578541536,50224.37160991526 26537.876218756694,39090.87204611888 15681.549379378683,25862.198014042504 5717.145539267561,10534.072303722432 -3111.952680308341,-6872.89047777286 -10558.219139043907,-26311.80416189983 -16372.721189462376,-47708.36671149691 -20308.05536589284,-70959.9813887435 -22121.458465864936,-95935.17214633644 -21578.06699545492,-122473.32025633998 -18454.294291769256,-150384.7470053596 -12541.291114058413,-179451.16464364468 -3648.452162877139,-209426.51468182512 8393.072101607188,-240038.20909036527 23726.90176086143,-270988.7859877317 42468.03771409355,-301957.9870242704 64699.60381395781,-332605.25890687696 90469.77031634386,-362572.6763983227 119788.90915849025,-391488.2787047961 152627.03208208104,-418969.8054824981 188911.5625194905,-444628.81280215783 228525.49142292922,-468075.14336842054 271305.96580422967,-488921.71916424186 317043.356639845,-506789.61854930926 365480.8499606868,-521313.39376155345 416314.6013765677,-532146.5788316526 469194.48997548386,-538967.3322054897 523725.5024928225,-541484.1529648781 579469.7728783777,-539441.6045305071 635949.2959229578,-532625.9752119699 692649.3264754461,-520870.8010268162 749022.4680291252,-504062.17293136526 804493.4461380703,-482143.74807584647 858464.5533059655,-455121.3829969711 910321.7427468786,-423067.3058689585 959441.3388370404,-386123.7451200736 1005197.3222550696,-344505.93294905673 1046969.1378513228,-298504.4045988609 1084149.9633099975,-248486.51770840675 1116155.3667931568,-194897.1206999165 1142432.2721134329,-138258.30499063645 1162468.1407075506,-79168.18285094938 1175800.270915948,-18298.640958981836 1182025.1069576158,43607.970897518404 1180807.4426685285,105743.24598638792 1171889.3986910617,167238.24006373985 1155099.0465027401,227170.10985371558 1130358.5485941027,284569.8628167101 1097691.6813799038,338431.1960990021 1057230.6061796423,387720.38752210885 1009221.7539471706,431387.1858905283 954030.6914673232,468376.63192915486 892145.8405578359,497641.72497924103 824180.9274898446,518156.8343710918 750876.0474227733,528931.73835276 673097.2381736415,529026.1577976253 591834.4691177326,517564.6368603938 508197.96443553205,493751.6085284011 423412.79524285416,456886.46985570894 338811.69230397406,406378.4798061943 255826.04994130385,341761.2823032312 175975.11230160427,262706.84851875674 100853.35517164372,169038.6258581369 32116.099881145303,60743.676724333556 -28536.579714764062,-62016.41182260181 -79377.5708474951,-198896.06577120812 -118671.94375799807,-349357.9241096953 -144697.54334813487,-512666.9096230561 -155766.78564046146,-687886.3698418512 -150249.4680763624,-873876.4750515721 -126596.3772628676,-1069295.0447195836 -83363.45334775686,-1272600.9549716024 -19236.247130892913,-1482060.2578720152 66945.61531486665,-1695755.1182931059 176164.26495562625,-1911595.6462009365 309200.04019977653,-2127334.6713879313 466608.89039206854,-2340585.474237096 648701.0779991305,-2548842.450249168 855521.5320992604,-2749504.6480858484 1086832.2088858066,-2939902.0811110768 1342096.8137724677,-3117324.671221536 1620468.2340825354,-3279053.641565189 1920779.0209815856,-3422395.1320103593 2241535.2440870735,-3544715.7684430084 2580914.0219196286,-3643479.874665194 2936765.005964013,-3716287.9744017827 3306616.065555477,-3760916.191278699 3687683.3851339812,-3775356.117215281 4076886.144715587,-3757854.685090922 4470865.908887524,-3706953.550422266 4866010.79948213,-3621527.459740142 5258484.4726408925,-3500821.0609952947 5644259.862633097,-3344483.594240868 6019157.593007946,-3152600.889602983 6378888.890973312,-2925724.094690578 6719102.773919377,-2664894.555599326 7035437.208420137,-2371664.284966261 7323573.872596433,-2048111.46750544 7579296.083216961,-1696850.4784029946 7798549.380208694,-1321035.9230957928 7977504.194254345,-924360.2484389595 8112619.958820768,-511044.5251248484 8200709.967264705,-85822.05939257442 8239006.219603013,346085.4416066828 8225223.4531182805,778999.3522238443 8157621.507205592,1206823.378265638 8035065.136739761,1623090.605611607 7857080.360717186,2021018.2836572635 7623906.414921045,2393570.179218566 7336542.369733431,2733526.2313160454 6996787.477764513,3033559.128345755 6607274.331390886,3286317.3176463754 6171493.938195804,3484513.8446007604 5693811.863172324,3621020.3054782217 5179474.640747157,3688965.086632062 4634605.727425337,3681834.9538925616 4066190.347209601,3593578.951581155 3482048.6768129407,3418713.4721079827 2890796.925782251,3152427.266225036 2301795.9875280405,2790685.082329452 1725087.470261495,2330328.5523790033 1171317.0611332953,1769172.8836014317 651645.3314101563,1106097.8708121616 177646.25407826848,341131.71529047785 -238806.1236023222,-524473.8757986806 -585662.2329748269,-1488178.829233809 -850831.9614251135,-2546101.579072099 -1022329.0700851302,-3692979.1219106955 -1088423.8840274033,-4922141.635568572 -1037802.9059393017,-6225502.954092805 -859733.8276670318,-7593568.081386153 -544234.2445679741,-9015458.793031668 -82242.21789265353,-10478958.221224943 534213.3169270204,-11970575.141568696 1311844.430516805,-13475628.483592713 2255940.617383335,-14978352.370291218 3370212.094704011,-16462021.757099852 4656642.396961553,-17909098.4892591 6115352.727548199,-19301397.330448676 7744480.547196296,-20620271.237257723 9540074.868234064,-21846814.866126593 11496010.6813694,-22962085.004786942 13603924.866392897,-23947336.322164234 15853175.828588996,-24784270.532661654 18230828.957818624,-25455296.77642892 20721669.826629184,-25943800.730541144 23308246.827213015,-26234419.691057622 25970944.694854327,-26313320.60689175 28688090.078434184,-26168477.807602298 31436089.997832566,-25789946.952930704 34189603.67541768,-25170131.546468366 36921747.84648436,-24304038.20348719 39604335.24428059,-23189516.747807823 42208145.52241655,-21827481.138546206 44703227.42480056,-20222107.19834016 47059230.54508424,-18381003.13357768 49245764.538725734,-16315348.907223905 51232783.16641493,-14040000.648618288 52990990.063426115,-11573556.464155113 54492262.65149465,-8938380.249563597 55710090.14442411,-6160580.399460831 56620021.15244327,-3269940.6631860044 57200115.970202014,-299800.80715474696 57431398.24616963,2713114.788144313 57298300.384127654,5728921.945874102 56789096.72742016,8704855.700356362 55896318.33052484,11595603.647009103 54617142.93700778,14353693.121354949 52953753.66440451,16929930.989509553 50913659.85096594,19273894.09629991 48509973.55199797,21334467.655892737 45761635.28953221,23060428.091326002 42693582.86243328,24401066.042164948 39336857.31808974,25306844.472854536 35728640.57397551,25730086.038044933 31912219.659018375,25625683.105555907 27936873.12120913,24951823.113529127 23857675.818424545,23670721.25679409 19735219.07195529,21749351.869879626 15635244.013420673,19160169.3118615 11628186.890954616,15881808.672713934 7788636.113758994,11899756.223209579 4194701.897960441,7206979.231519867 927300.522425626,1804504.579840894 -1930643.5993254986,-4298064.456732581 -4295073.587142408,-11082103.850396913 -6081747.79276837,-18519607.269335557 -7207252.540211412,-26572917.390407328 -7590071.6413252605,-35194559.64990597 -7151703.159203778,-44327187.37373183 -5817812.6652885685,-53903646.44197492 -3519411.060984553,-63847166.70246754 -194043.92914496464,-74071686.25469561 4213021.6365570845,-84482313.48293929 9747627.68705346,-94975930.33108638 16445589.306369971,-105441938.7888623 24331608.123766,-115763150.91002835 33418252.321573906,-125816820.91949263 43705020.314650476,-135475816.10252395 55177505.38789979,-144609921.22181156 67806678.48130001,-153087269.19564718 81548305.9945075,-160775888.71364608 96342518.9346563,-167545357.3878253 112113548.94274765,-173268546.96090645 128769645.69977719,-177823445.0464026 146203188.92989162,-181095035.88381323 164291006.6836162,-182977220.6855437 182894909.80191112,-183374756.35944793 201862450.43702522,-182205189.74204236 221027910.24779502,-179400763.00263947 240213521.40760562,-174910264.6078756 259230920.87878668,-168700799.1988847 277882835.5373398,-160759448.95816773 295964992.69995517,-151094798.557299 313268247.4380842,-139738295.60536605 329580914.79175985,-126745418.68468319 344691291.65255374,-112196625.58539982 358390349.70742434,-96198055.25164738 370474577.46283954,-78881958.2427486 380748946.0438953,-60406832.20386465 389029970.2306556,-40957240.93699133 395148833.1000614,-20743298.16654436 398954539.73419183,199.99999951142183" stroke="white" stroke-width="1.5" /></svg>