<?xml version="1.0" encoding="utf-8" ?>
<svg baseProfile="full" height="400" version="1.1" width="400" xmlns="http://www.w3.org/2000/svg" xmlns:ev="http://www.w3.org/2001/xml-events" xmlns:xlink="http://www.w3.org/1999/xlink"><defs /><rect fill="black" height="100%" width="100%" x="0" y="0" /><circle cx="200" cy="200" fill="yellow" r="11.561119341931011" stroke="orange" stroke-width="2" /><polyline fill="none" points="198.96463462577438,200.0 198.9008010482114,199.94229707626164 198.84029464401593,199.87790506728092 198.78389093283164,199.80706032430274 198.7323597461533,199.73009145792048 198.68645505226993,199.64742130254027 198.64690428991491,199.55956783606757 198.61439731017484,199.4671439732631 198.58957503774337,199.370856159759 198.57301797352932,199.27150170375347 198.56523467076488,199.16996479388078 198.56665032593256,199.06721116464573 198.5775956338559,198.96428138504288 198.59829606300727,198.86228276147293 198.6288617123,198.76237986270468 198.66927791419002,198.66578369228802 198.71939675065676,198.5737395523439 198.77892964842243,198.48751366187383 198.84744121747417,198.408378612448 198.92434449246352,198.33759776413763 199.0088977297815,198.27640870462415 199.10020290397696,198.22600591429773 199.19720603565494,198.18752279959477 199.2986994690449,198.16201327554174 199.40332620107748,198.1504330961936 199.50958634509396,198.15362114809176 199.6158457913102,198.17228093672534 199.72034710297487,198.20696250897453 199.8212226619429,198.2580450653554 199.91651005030388,198.32572052429575 200.00416962597836,198.40997830638102 200.08210422006547,198.51059160926874 200.14818085247683,198.6271054435464 200.20025433033564,198.7588266959918 200.23619256110376,198.9048164793096 200.25390337979422,199.06388501631466 200.25136265733337,199.23458929159875 200.2266434255786,199.41523368488666 200.1779457241135,199.6038737775282 200.10362684519387,199.79832349690776 200.0022316265663,199.99616573305204 199.87252241780334,200.194766527502 199.71350832476494,200.3912928967621 199.52447331926948,200.58273431158543 199.30500278749514,200.7659278092815 199.05500808146584,200.93758666949532 198.77474863361255,201.0943325349011 198.46485119522092,201.23273080744244 198.1263257659118,201.34932909864045 197.76057779344538,201.4406984596485 197.36941624133186,201.50347706375914 196.9550571461451,201.53441596162108 196.5201223171915,201.53042647818643 196.06763286831773,201.48862877109994 195.60099731512094,201.40640102360487 195.12399402053126,201.28142870183547 194.64074782747392,201.1117532673573 194.15570077879,200.8958197017751 193.6735768914284,200.63252217190433 193.1993410236378,200.32124714213725 192.73815194992375,199.96191322592867 192.29530983823827,199.55500706144252 191.8761984064861,199.10161449795217 191.48622212013493,198.60344639011302 191.13073887859073,198.06285831720336 190.81498872405447,197.4828635742374 190.54401919175206,196.8671388217833 190.32260800361126,196.2200218315492 190.1551838874756,195.5465008253963 190.04574637958788,194.8521949763421 189.99778553811603,194.1433257211338 190.01420255867754,193.4266786247754 190.09723233790692,192.70955563750462 190.24836907687165,191.9997176935165 190.4682960513851,191.30531771744825 190.75682069984256,190.63482422835276 191.11281619005098,189.99693586052342 191.5341706236375,189.4004872548796 192.01774501913192,188.85434691231674 192.55934118195637,188.36730773998767 193.15368052070312,187.9479711612931 193.79439480377738,187.6046257987023 194.47402976843287,187.34512187357794 195.184062395335,187.17674259704157 195.9149325461531,187.10607394862458 196.6560895296231,187.13887435300055 197.39605401358003,187.27994586745837 198.1224955374137,187.53300858193268 198.82232570226395,187.90058000736312 199.4818069263069,188.3838612849684 200.08667645119243,188.98263208684142 200.62228507482476,189.6951560953547 201.0737498672063,190.51809894360724 201.42611990221053,191.4464604701194 201.6645538113238,192.47352308695326 201.7745077382305,193.59081798040586 201.74193204841097,194.7881107566423 201.55347492863473,196.05340801064267 201.19669080045924,197.37298613547543 200.66025127277155,198.73144350035457 199.9341561743048,200.11177691071148 199.0099420412083,201.49548302250972 197.88088529044097,202.86268511751743 196.54219719022703,204.19228535789705 194.99120764720854,205.4621423293239 193.22753476926036,206.64927335436593 191.25323713602666,207.73008071488505 189.07294571868974,208.68060056699073 186.69397243860786,209.47677296818284 184.12639244325348,210.09473106771225 181.38309730896108,210.51110714213308 178.47981655456084,210.7033527930808 175.43510506876638,210.6500702683018 172.2702943174474,210.33135152490834 169.00940550434802,209.72912133092905 165.67902320954727,208.82748040276803 162.308128422536,207.6130443075248 158.92789031911843,206.07527362560177 155.57141660072614,204.20679067589288 152.27346271779572,202.0036779582138 149.07010083160887,199.4657533703868 145.99834992678007,196.59681721511194 143.09576906414833,193.40486602865516 140.4000163553169,189.90226834320558 137.9483768390674,186.1058976407324 135.7772630394004,182.03721797091038 133.9216925776002,177.72231799112217 132.41474778865614,173.1918895438657 131.28702284741746,168.4811473164692 130.56606443357825,163.629686629334 130.27581244836557,158.6812769705588 130.43604773095126,153.68358953434628 131.06185410044378,148.68785772464346 132.16310236131235,143.74847034958384 133.74396414795473,138.9224980509996 135.80246363991694,134.26915438002607 138.3300752455752,129.84919383706247 141.3113753220773,125.72425013350752 144.72375586693587,121.95611889421609 148.5372078766522,118.60598999304713 152.7141817159183,115.73363568789321 157.20953137416282,113.39656168411375 161.9705489026059,111.64912919359466 166.93709462398112,110.5416569574309 172.0418278895415,110.11951304975456 177.21054222625145,110.4222070645139 182.36260767511675,111.48249399190836 187.4115219750052,113.32550170263495 192.26557100231136,115.96789446221109 196.82859754437328,119.41708528097443 201.00087607430766,123.67051015503935 204.68008971922532,128.71497735746658 207.76240408659768,134.52610488613098 210.14363105040712,141.06785895538366 211.72047401668092,148.29220602420594 212.39184460548302,156.13889027729266 212.06023912307623,164.53534771239532 210.63316167450685,173.39676703426085 208.0245793049189,182.6263064117732 204.15639317978852,192.11547382188124 198.95990854273663,201.74467718549144 192.37728504758311,211.38394880318623 184.3629480717348,220.89384673153185 174.88494080336548,230.12653371571696 163.9261962770023,238.92703212593102 151.48570813194226,247.13465105062437 137.57957870494363,254.5845792996948 122.24192316077014,261.10963558749427 105.52560872738059,266.54216462465433 87.50280875044355,270.71606527686026 68.26535222546465,273.4689343778028 47.92485071317941,274.6443072446117 26.612586099828633,274.0939734708294 4.479144529796997,271.68034419959986 -18.306215988597245,267.2788448444851 -41.55647432905988,260.78030516416936 -65.06803860524423,252.09331674757772 -88.62222636075217,241.14652636478377 -111.9870335151461,227.8908323230846 -134.91918946157637,212.30144997223445 -157.1664919793821,194.3798118619379 -178.47041172177796,174.15526779997566 -198.56895200147858,151.68655021985114 -217.19974546714957,127.06297086838241 -234.1033650860728,100.40531588829346 -249.02682267216284,71.86640791634065 -261.72722407548275,41.63130585683206 -271.97554613459005,9.91711553125512 -279.5604966435609,-23.027612550897118 -284.29241496034444,-56.923918511261775 -286.0071675423544,-91.46391769038729 -284.5699896995009,-126.31274617910515 -279.8792222645523,-161.11097401779602 -271.8698897552633,-195.4774874221501 -260.5170649995679,-229.01283565200566 -245.83896416936,-261.303032067915 -227.899715771329,-291.9237925715807 -206.81174742205263,-320.4451880617165 -182.7377352309,-346.43668082342015 -155.89206236389958,-369.4725079803294 -126.54173589328002,-389.1373683540803 -95.00671437179528,-405.03236237959777 -61.6596027204713,-416.781128206753 -26.924675986049067,-424.03611087191314 8.72380069687543,-426.48489554281184 44.76398203168293,-423.85653042464367 80.62960112902269,-415.9277600628477 115.71388741288946,-402.52908558681474 149.3742458215386,-383.5505650050842 180.93768991642213,-358.9472640800051 209.70701163330108,-328.74426666743204 234.9676600836208,-293.04115278823315 255.9952911396378,-252.01585317941743 272.06393862310233,-205.92779072128786 282.45474688429016,-155.1202220108479 286.46519353508006,-100.02169649704177 283.4187202244034,-41.14655604389259 272.67467876189147,20.905595437100857 253.6384897572234,85.45151453955442 225.7719014043476,151.727085932141 188.60322726028545,218.8912770679891 141.73743400765107,286.03131020387065 84.86594340765888,352.16906877179235 17.776007102824366,416.26874092647125 -59.64049123249674,477.24568788541706 -147.3789545255343,533.976508606991 -245.31486081786215,585.3102555578778 -353.19756992643863,630.0807389654035 -470.6452937960066,667.119839210397 -597.1413713669888,695.2717290876133 -732.0319819967286,713.4078897538058 -874.5254225637448,720.4427865222182 -1023.6930623236883,715.3500534830009 -1178.472076365166,697.1790194776902 -1337.6700431533761,665.0713924858483 -1499.9714741974449,618.2779052514702 -1663.9463244104504,556.174712245803 -1828.0605103565204,478.2793170906194 -1990.6884404354523,384.26580060602885 -2150.1275363112163,273.97911294582354 -2304.6146987473635,147.4481890757149 -2452.344643701024,4.897645355225876 -2591.4900063097557,-153.24218359768247 -2720.223081572008,-326.32710407106356 -2836.739041390097,-513.4930470138333 -2939.2804385565873,-713.6523938296247 -3026.1627795859004,-925.4928470964765 -3095.8009204068317,-1147.4790310384753 -3146.7360122384216,-1377.8569850061326 -3177.662699883592,-1614.6616881777431 -3187.4562516115143,-1855.7277252530507 -3175.1992791831412,-2098.7031711993354 -3140.2076888259676,-2341.066738304774 -3082.055489495388,-2580.1481911189553 -3000.5980739722763,-2813.151994594203 -2895.993581619005,-3037.1841182093667 -2768.7219493055054,-3249.281874438544 -2619.601259447675,-3446.4466240467987 -2449.8010015593127,-3625.6791338257435 -2260.851876450391,-3784.0173250413654 -2054.6517904034204,-3918.576103611814 -1833.4677104655118,-4026.5889164574673 -1599.9330814862517,-4105.450633194627 -1357.0405407245828,-4152.7613090284 -1108.1297066853454,-4166.370344008882 -856.869865198134,-4144.420516430469 -607.2374274108257,-4085.391334763024 -363.4880910493647,-3988.1411237886423 -130.12369762653725,-3851.947237249881 88.14615618690753,-3676.5437719423808 286.44762561861603,-3462.1561474253745 459.7910436207694,-3209.531911954322 603.1239912045072,-2919.9671393861677 711.3886618311863,-2595.3277941355163 779.583092474594,-2238.065462163704 802.8257571964247,-1851.2268757762758 776.4229434340891,-1438.456698913259 695.9382577017939,-1003.9930877664342 557.2635371108462,-552.6555989700422 356.69037711214503,-89.8250841898323 90.98142526145517,378.5847145317715 -242.55946327819754,846.1640701709588 -646.0191592435216,1306.0527860655056 -1120.8102702807703,1750.9943305826444 -1667.6102459314548,2173.398493854903 -2286.3056102774694,2565.412356759846 -2975.9423614348407,2918.9992448222065 -3734.6835700339348,3226.025218420688 -4559.7751884625,3478.3525268415374 -5447.5210483380215,3667.9393287062835 -6393.26797491015,3786.9448565893745 -7391.401883511675,3827.83908080351 -8435.355644575051,3783.5158080204365 -9517.629410084535,3647.408036333432 -10629.823985797313,3413.604281324522 -11762.68771049447,3076.9644894768057 -12906.177166472513,2633.2340676827953 -14049.531895225577,2079.154482444622 -15181.363129783329,1412.5688214095364 -16289.756381663246,632.5206648437701 -17362.387537285962,-260.65541285482146 -18386.65192762806,-1265.2533999533669 -19349.805637686586,-2378.12713884925 -20239.11812105121,-3594.634994921198 -21042.034981752382,-4908.599489152662 -21746.349582979226,-6312.283401078154 -22340.381942798234,-7796.383744680312 -22813.163183343637,-9350.044891535423 -23154.62361488687,-10960.891962730531 -23355.782362609516,-12615.085434116925 -23408.93628472364,-14297.397698908631 -23307.845788757662,-15991.312108391572 -23047.915031274613,-17679.14476683863 -22626.363887887637,-19342.18909223625 -22042.389007959613,-20960.882872083945 -21297.31122445422,-22514.997245643088 -20394.70657650763,-23983.846733252714 -19340.51822265123,-25346.5191127024 -18143.146578207965,-26582.123615480254 -16813.515102878948,-27670.055585631806 -15365.10929525476,-28590.27541488673 -13813.98662085733,-29323.599243789806 -12178.755309856995,-29851.998604192035 -10480.52020986426,-30158.905878165064 -8742.794167724425,-30229.52216687443 -6991.373741089535,-30051.123904946508 -5254.178404205564,-29613.36432617664 -3561.0528107742994,-28908.565689801486 -1943.5321073023551,-27931.998017661183 -434.5707498297371,-26682.139975911523 931.7642384421088,-25160.917464787195 2120.6341256698392,-23373.9154602583 3096.801481742227,-21330.558685886692 3825.0328443800986,-19044.256784976722 4270.528008427658,-16532.50981491727 4399.372371178737,-13816.97009956803 4179.008240522124,-10923.4567531492 3578.72050230683,-7881.919531159995 2570.131556020862,-4726.349070441187 1127.6999712536795,-1494.6310508742235 -770.7831007928409,1771.6576562075943 -3143.706098490939,5027.512195487568 -6005.1644595125335,8224.822984891525 -9364.510181547716,11312.759015647589 -13225.930634288932,14238.21044059564 -17588.06383503631,16946.288907806567 -22443.657430158695,19380.88327460066 -27779.27856644391,21485.267489442947 -33575.08168491694,23202.756564769614 -39804.64102063314,24477.405692188117 -46434.854241826324,25254.746683057812 -53425.92320820098,25482.55506321529 -60731.417269809936,25111.64032213171 -68298.4238647898,24096.651026114767 -76067.79040746874,22396.885764662515 -83974.46059060143,19977.1002213092 -91947.90726078882,16808.30005790923 -99912.66296995399,12868.508786830884 -107788.94816516909,8143.499391254908 -115493.39576261127,2627.478151568118 -122939.86956907452,-3676.2910430312168 -130040.37267780832,-10754.933663653796 -136706.0405874719,-18585.494459218102 -142848.21238807446,-27134.561739975627 -148379.57194159605,-36357.99703593845 -153215.34957439243,-46200.7805659958 -157274.5734114253,-56596.98221222358 -160481.35813765824,-67469.86678237682 -162766.2176891638,-78732.14126174166 -164067.38717572697,-90286.35050546665 -164332.13823843698,-102025.42640848177 -163518.0710704358,-113833.3940187462 -161594.36549703535,-125586.23633985984 -158542.9728427763,-137152.9177124951 -154359.7298269115,-148396.5636845652 -149055.3754435626,-159175.79319395122 -142656.4517154103,-169346.1967137785 -135206.0693756542,-178761.95176981582 -126764.51994569328,-187277.56495599315 -117409.71634694152,-194749.72727282098 -107237.44512330701,-201039.26732207634 -96361.41456243634,-206013.18463866148 -84913.08449199825,-209546.7432576976 -73041.26529216363,-211525.6035334795 -60911.47570354187,-211847.9682795788 -48705.05131413537,-210426.71751935824 -36617.998168537764,-207191.5045568086 -24859.588742871623,-202090.78473200052 -13650.700551137368,-195093.74714597638 -3221.9008699855613,-186192.1188578585 6188.715537307265,-175401.8106019251 14337.925281344114,-162764.37297201468 20979.99773247001,-148348.23229985122 25869.521160912722,-132249.6761346681 28764.41212056668,-114593.55933230388 29429.08284330028,-95533.70329717881 27637.737752700734,-75252.96290021641 23177.766662549275,-53962.9380250144 15853.198847785528,-31903.30957327816 5488.179017406538,-9340.783082988146 -8069.576666371571,13432.373132612962 -24945.38893609659,36100.20424812662 -45234.3347242298,58325.36395483935 -68998.12575837156,79751.82769996187 -96262.1960378968,100008.01833934829 -127013.0485092502,118710.33288623282 -161195.91140572785,135467.05328888466 -198712.75424851046,149882.61824772946 -239420.7123832684,161562.22704932102 -283130.96712117584,170116.7403183364 -329608.1260413285,175167.83654217038 -378570.1447772751,176353.37728291232 -429688.8276455334,173332.92823956787 -482590.93977896153,165793.37784346947 -536859.9580121771,153454.58994827766 -592038.481648989,136075.02250053614 -647631.317452171,113457.23993545579 -703109.245773237,85453.24352272795 -757913.466734162,51969.541074140194 -811460.7168448161,12971.875400916417 -863149.0374602444,-31510.4702479627 -912364.1671323909,-81380.8717521857 -958486.5202830074,-136472.149888699 -1000898.7048193045,-196544.0216487449 -1038993.521441628,-261281.29348752476 -1072182.3775714177,-330292.86878003844 -1099904.0391834045,-403111.63647170534 -1121633.6344903545,-479195.30144021614 -1136891.8145385676,-557928.209426689 -1145253.9674679816,-638624.2105655532 -1146359.3756149323,-720530.5955747686 -1139920.197931228,-802833.1276092654 -1125730.1545021867,-884662.1806948615 -1103672.785407061,-965099.9826292207 -1073729.1529117154,-1043188.9463594209 -1035984.854142039,-1117941.0592383798 -990636.2110747481,-1188348.2843574781 -937995.5060064417,-1253393.9124994113 -878495.1337151335,-1312064.7873183696 -812690.5463886494,-1363364.3103131773 -741261.8741220168,-1406326.1162057433 -665014.1124226183,-1440028.2936764578 -584875.7787277444,-1463608.0112542983 -501895.95243218634,-1476276.3937349715 -417239.6273172856,-1477333.481033806 -332181.321515565,-1466183.089102724 -248096.90815860624,-1442347.381685139 -166453.64953469083,-1405480.9524792496 -88798.43879357616,-1355384.2099539824 -16744.275817444122,-1292015.8518296962 48044.9723595682,-1215504.2133032582 103871.45147228289,-1126157.2726543245 149021.73972402216,-1024471.1000892508 181786.6807980818,-911136.540711674 200482.47764745448,-787043.9304798287 203472.86861319558,-653285.6550186586 189192.18198983272,-511156.37526498537 156169.04055657604,-362150.76116987085 103050.46418777842,-207958.59505844142 28626.096816178197,-50457.129710488225 -68147.73587551822,108299.38731016977 -188124.449237638,266093.0822114775 -331944.4289989902,420558.7435089191 -500013.40508848964,569203.0231137595 -692482.3162614926,709426.505803742 -909229.0165299808,838548.5642519485 -1149842.1750133373,953834.8765763474 -1413607.7171118772,1052527.441996219 -1699498.1466146351,1131876.8880790258 -2006165.0752829358,1189176.8207075656 -2331935.2684443383,1221799.925802317 -2674810.4920811215,1227235.490538866 -3032471.4187526777,1203127.971872514 -3402285.8164606798,1147316.2022097106 -3781321.2063226723,1057872.7866523028 -4166362.131804039,933143.2139977044 -4553932.134479744,771784.1752192095 -4940320.479138071,572800.5590835594 -5321613.6148553435,335580.5754806072 -5693731.29889009,59928.44351456066 -6052467.247373916,-253905.9260229947 -6393534.111385864,-605200.8250093195 -6712612.509734982,-992740.7841688129 -7005403.781351697,-1414799.302403482 -7267686.051376773,-1869126.7991698324 -7495373.136667441,-2352944.2903336687 -7684575.749392866,-2862943.2502733874 -7831664.392589141,-3395292.077062821 -7933333.279944046,-3945649.5233638086 -7986664.554663746,-4509185.393317011 -7989192.030032765,-5080608.735467705 -7938963.628211898,-5654203.683945684 -7834601.654911479,-6223873.015195904 -7675360.016794548,-6783189.396110049 -7461177.466732988,-7325454.202139809 -7192725.950235098,-7843763.681699672 -6871453.125298345,-8331082.1368280975 -6499618.138348725,-8780321.680722304 -6080319.761446,-9184428.021550402 -5617516.03109493,-9536471.610136544 -5116034.577213845,-9829743.378058542 -4581572.892350668,-10057854.183828449 -4020687.8662257507,-10214836.97964203 -3440773.999094143,-10295250.611240579 -2850029.809050497,-10294284.070322257 -2257412.062874201,-10207859.934286542 -1672577.5867624055,-10032735.653511478 -1105812.5515726525,-9766601.283455148 -567949.2760451662,-9408172.20920194 -70270.74975451625,-8957275.375146724 375596.75608599454,-8414927.513746783 757802.4489036925,-7783403.865990851 1064400.4272712371,-7066295.903619969 1283488.846014878,-6268556.600223766 1403357.7526227138,-5396531.855984271 1412644.3332477128,-4457976.759708171 1300494.1298084173,-3462055.4723171373 1056726.6189496329,-2419323.6383560468 672003.3814646839,-1341692.3762698993 137996.9397923841,-242373.06386086758 -552441.7959880757,864197.678157236 -1405119.6540018083,1962453.195162151 -2424343.180328777,3035812.365723326 -3612768.8348834873,4066815.4500834015 -4971263.821790307,5037279.88577683 -6498780.002443869,5928475.425520125 -8192243.340812174,6721317.731283322 -10046461.301534168,7396579.249413718 -12054050.560302364,7935115.8978990065 -14205387.291529436,8318107.801670778 -16488582.169300143,8527312.018832598 -18889482.053408902,8545324.913644748 -21391700.132558454,8355851.554977445 -23976676.061657537,7943979.255871682 -26623767.360151775,7296452.125031248 -29310373.034482945,6401943.27878297 -32012090.05160682,5251321.166556637 -34702902.924028754,3837906.298478975 -37355406.27256434,2157714.534370927 -39941059.81405293,209683.0032483878 -42430474.78108794,-2004125.3249070551 -44793730.32354934,-4478342.394357589 -47000717.971865505,-7204145.07663602 -49021511.764499955,-10169138.271675555 -50826761.16258172,-13357274.77239634 -52388103.39870993,-16748815.357078057 -53678591.44091221,-20320332.305596106 -54673133.30300066,-24044759.209627338 -55348938.00582079,-27891489.563427493 -55685963.096985675,-31826526.181666017 -55667358.27655784,-35812682.99575253 -55279899.35974571,-39809840.23260096 -54514406.54185755,-43775253.38311468 -53366140.72222606,-47663915.72601507 -51835171.49900065,-51428973.490908645 -49926710.37166294,-55022192.028505936 -47651402.68847972,-58394470.61228563 -45025571.95689784,-61496402.73203171 -42071410.30049611,-64278877.963713564 -38817109.10015718,-66693720.72096237 -35296924.20238064,-68694360.420418 -31551170.515924163,-70236526.83648326 -27626141.35002843,-71278963.69105752 -23573948.47300619,-71784152.83148822 -19452279.58743569,-71719040.70640755 -15324070.72483398,-71055758.26560625 -11257091.954419982,-69772324.89787957 -7323445.772037552,-67853326.59106848 -3598978.5797254983,-65290558.16210158 -162606.77571622463,-62083619.172263406 2904439.8606641875,-58240453.02388866 5519453.595388801,-53777818.73844143 7599157.841705881,-48721685.05051127 9060683.540772846,-43107536.7248846 9822605.157889945,-36980583.42022798 9806027.375655768,-30395861.987642914 8935712.33657238,-23418223.80824368 7141236.102743681,-16122199.642170863 4358161.877036655,-8591735.481620187 529216.4864621593,-919794.0698102487 -4394544.317025987,6792181.937971672 -10452597.01238837,14434947.742928768 -17673853.89085336,21892276.091017086 -26075625.574351344,29041918.17129898 -35662659.35624844,35756703.20989684 -46426270.43832508,41905772.350692794 -58343583.126838274,47355940.44737385 -71376898.82653178,51973177.3725848 -85473207.222924,55624198.40018504 -100563856.3608855,58178151.159575045 -116564396.40399484,59508384.62163796 -133374610.69004326,59494283.58080555 -150878746.28114995,58023150.17467918 -168945954.54357895,54992112.16045892 -187430950.38641527,50310035.97540758 -206174896.64750844,43899421.076615654 -225006517.75014192,35698250.713085555 -243743444.1794589,25661773.160142045 -262193786.56143436,13764186.570943864 -280157935.1910013,200.00000034309477" stroke="white" stroke-width="1.5" /></svg>