<?xml version="1.0" encoding="utf-8" ?>
<svg baseProfile="full" height="400" version="1.1" width="400" xmlns="http://www.w3.org/2000/svg" xmlns:ev="http://www.w3.org/2001/xml-events" xmlns:xlink="http://www.w3.org/1999/xlink"><defs /><rect fill="black" height="100%" width="100%" x="0" y="0" /><circle cx="200" cy="200" fill="yellow" r="10.08699819918807" stroke="orange" stroke-width="2" /><polyline fill="none" points="199.1676444830069,200.0 199.09594198848743,199.9525410842064 199.02580257519554,199.89743552668543 198.95804267212864,199.83469006657603 198.89349848927353,199.7644014469699 198.8330167651702,199.68676105861115 198.7774447580564,199.6020587112036 198.72761955425375,199.51068542678448 198.68435678088005,199.41313515471265 198.6484388232064,199.31000531450118 198.6206026598541,199.20199608101856 198.60152744135436,199.0899083364967 198.59182194918637,198.97464022530008 198.59201208307184,198.85718226049664 198.6025285338444,198.7386109458653 198.62369480742944,198.62008089299985 198.65571577218387,198.50281543052049 198.69866690686015,198.38809572095286 198.752484429609,198.2772484204345 198.81695648954724,198.17163193687972 198.8917156013487,198.07262136338855 198.97623249992884,197.98159218529645 199.06981158647673,197.8999028810991 199.17158812875093,197.8288765592894 199.2805273676338,197.76978179463887 199.39542566839216,197.72381284835723 199.51491383891832,197.69206947656895 199.6374627184441,197.67553655034817 199.76139111889563,197.6750637278365 199.88487617727912,197.69134543441743 200.00596615139256,197.7249014202194 200.12259566291164,197.77605817505827 200.23260336171003,197.84493148900995 200.33375195338832,197.93141045183964 200.42375049868562,198.03514318623726 200.50027885905374,198.15552460797966 200.56101412753907,198.29168650053984 200.60365884862932,198.44249018211158 200.62597079530155,198.60652202936726 200.62579403659458,198.78209210441327 200.60109099509725,198.96723610929178 200.54997516127617,199.15972086598833 200.47074410106922,199.3570534892858 200.3619123651524,199.55649438505253 200.22224388326316,199.75507416782224 200.0507834054462,199.94961454903046 199.84688653457735,200.1367532012941 199.61024788150846,200.3129725549958 199.34092686611785,200.47463243156145 199.0393706848866,200.61800636366215 198.70643396873731,200.73932139664927 198.34339466412462,200.83480110842007 197.95196568604436,200.9007115272461 197.5343019139737,200.9334095695522 197.09300213092905,200.92939356293914 196.63110554193204,200.8853553646571 196.15208255121865,200.7982335330542 195.6598195274416,200.66526696006034 195.1585973427433,200.48404832735298 194.6530635346569,200.2525767083236 194.14819800897865,199.96930860315373 193.64927227658887,199.6332066660325 193.16180229713294,199.2437853625946 192.69149508685308,198.80115278277688 192.24418933593336,198.3060478301878 191.8257903716384,197.75987201439224 191.44219989634817,197.1647150878009 191.09924102329055,196.52337379459678 190.80257922624276,195.83936303570957 190.55763991153552,195.11691880153523 190.36952341010704,194.3609922830404 190.24291827283224,193.57723464211276 190.1820138325647,192.77197200339978 190.19041306992779,191.95217032215237 190.27104688551532,191.12538988534376 190.4260909374639,190.2997293159844 190.65688624900952,189.483759072367 190.96386482436426,188.68644456404877 191.3464815318211,187.91705914364394 191.80315351928283,187.185087376736 192.33120841837888,186.5001191400401 192.92684256806595,185.87173524882303 193.58509044633595,185.3093854668455 194.29980643875842,184.82225990393172 195.06365999463597,184.41915495577138 195.86814512530515,184.1083350857093 196.7036050845466,183.89739188697618 197.55927293837462,183.793101993903 198.42332858109305,183.80128552995077 199.28297258712,183.92666688666182 200.12451710463827,184.17273971871256 200.93349379883225,184.5416381139635 201.6947786407934,185.03401595168393 202.39273311485553,185.6489364949975 203.0113611841533,186.38377427320916 203.5344811138378,187.23413129435357 203.94591100612456,188.19376958657608 204.22966665391365,189.25456199756132 204.3701700730458,190.40646308318233 204.35246683045622,191.6375017891455 204.16245004984194,192.9337974722794 203.78708875138193,194.27960062121903 203.214657971043,195.657359419902 202.43496791164412,197.04781305224137 201.43958920571734,198.4301123736934 200.22207122286306,199.7819682767432 198.77815023524064,201.07982775455773 197.10594416743947,202.2990773226044 195.2061306044491,203.41427309474193 193.08210471677504,204.39939643140985 190.74011378765184,205.2281336867492 188.1893650961773,205.87417818283882 185.4421040240569,206.3115521371634 182.51365941409767,206.514945868715 179.4224534167544,206.46007121384295 176.18997331750805,206.1240257004442 172.84070314270076,205.48566366387237 169.40201319409795,204.52597014574437 165.9040060617236,203.22843310343282 162.37931810856486,201.57940917928167 158.8628759070479,199.56847804025736 155.3916076325234,197.188780106521 152.00410997945187,194.4373323467585 148.74027175691737,191.31531673423487 145.6408559362226,187.82833593529892 142.7470425586411,183.98663084585124 140.0999355593147,179.80525470498782 137.74003721655905,175.3041987019004 135.70669458672063,170.5084642547431 134.03752292494408,165.44807748035313 132.7678117130914,160.15804179241528 131.92991950857908,154.6782250629324 131.5526643827958,149.05317835677866 131.66071722560866,143.33188389972167 132.27400564379167,137.56743066357757 133.40713656661407,131.81661674397884 135.06884598209842,126.13947856132522 137.26148445370725,120.59874782745665 139.98054720100103,115.25923818189729 143.21425756126843,110.18716440351407 146.94321257512965,105.44939813637072 151.14009925137455,101.11266512166826 155.76948975954167,97.24268998918316 160.7877233688103,93.90329571891155 166.14288239576712,91.1554659232594 171.77486873999598,89.05637910797564 177.61558677517502,87.65842503142431 183.58923742599848,87.00821418168657 189.61272720098296,87.14559221402762 195.59619477302766,88.10267192210243 201.44365641023447,89.90289593961148 207.05377016754937,92.56014387001677 212.3207172657086,96.07789790595488 217.13519752004592,100.44848121342345 221.38553405205954,105.65238340595953 224.95888083710872,111.6576873092791 227.74252492976564,118.41961090706943 229.62527348332725,125.88017785526232 230.49891396235736,133.9680292484759 230.25973425875426,142.5983884137246 228.8100877856809,151.67318939054047 226.05998706360467,161.08137843332196 221.92870785317513,170.69939634359127 216.34638455561236,180.39184771219965 209.25557641767998,190.0123612324989 200.61278306998477,199.40464314614724 190.3898871185512,208.40372361757844 178.5755009237886,216.83739341829192 165.1761943603403,224.52782575803468 150.21758027650176,231.29337544968115 133.74523458168773,236.95054486398857 115.82542840124272,241.3161033480289 96.54565056354204,244.20934397810552 76.01489983562828,245.4544587278488 54.3637278080636,244.8830103905162 31.74401515109227,242.3364769386526 8.328466122507706,237.66884147297844 -15.690191301481889,230.7491985455023 -40.100309486301,221.4643454798516 -64.67273607855032,209.72132539529576 -89.16254309577215,195.4498870101943 -113.31106974981981,178.6048249950386 -136.84827465809883,159.16816370291815 -159.49538895881267,137.15114656215502 -180.96785753666137,112.5959933055246 -200.9785511263297,85.57738756325955 -219.24122753910564,56.20365818955318 -235.47421570382846,24.617619046849114 -249.40429168156328,-9.002966143733232 -260.77071136179046,-44.445324851900494 -269.3293602372893,-81.46205068048147 -274.8569765483143,-119.77193667292221 -277.15540024885746,-159.06128739769804 -276.0557967445705,-198.9857256349605 -271.4228012491894,-239.17250440027965 -263.15852696957194,-279.2233294755536 -251.20637822268242,-318.71769161539873 -235.55460807276097,-357.21670120405975 -216.2395592119994,-394.26741140638273 -193.34852664758512,-429.40760884778194 -167.02218135116323,-462.1710436410041 -137.45649541672765,-492.09306322772613 -104.90411149572282,-518.7166071031279 -69.67510236187786,-541.5985121302423 -32.1370704222775,-560.3160709223649 7.2854581548776025,-574.4737787747845 48.112384282370954,-583.710197964256 89.81016473216812,-587.7048620111776 131.79474434203198,-586.1851368222539 173.43530885111457,-578.9329506076796 214.0588665038444,-565.7913002029235 252.95565679191316,-546.6704380248976 289.3853743004587,-521.5536414558011 322.58418467358456,-490.50246507018335 351.77249831573783,-453.66137588974607 376.1634557109801,-411.2616728458098 394.9720662953607,-363.62459392098674 407.4249307927322,-311.1635180877418 412.77046496593925,-254.38517420749957 410.28953099644303,-193.8897755308497 399.30637134691335,-130.37000636237707 379.19972914990706,-64.60879682109777 349.41402907255144,2.52416758045419 309.47048340585127,70.07724263755514 258.9779799920293,137.0229560290711 197.64360170678867,202.26548460867207 125.28262172429513,264.64947535133257 41.827814873596054,322.9701899666376 -52.66207680008358,375.98493537676234 -157.99488648422425,422.42572372013774 -273.83873360606526,461.0130864641934 -399.7170601699513,490.4709477929976 -535.0051432184022,509.5424428970809 -678.9282259555683,517.0065473680985 -830.5613994911471,511.6953648395332 -988.8313542323406,492.51190157783617 -1152.5201046744887,458.4481391874132 -1320.2707737504718,408.60320022588354 -1490.595503058852,342.2013866153279 -1661.8855332970104,258.6098575638042 -1832.4234752078448,157.35570255951188 -2000.3977654698074,38.14215614181305 -2163.9192744179636,-99.13630514763565 -2321.040003509136,-254.3802467241572 -2469.7737803019063,-427.27320437559774 -2608.1188277087967,-617.27151788766 -2734.0820527211695,-823.5963244097973 -2845.7048680631087,-1045.2279562869492 -2941.0903286813723,-1280.9029745761834 -3018.431334029936,-1529.1140521805783 -3076.0396171850352,-1788.112899427349 -3112.3752133704857,-2055.9163999998173 -3126.076073936693,-2330.31609645882 -3115.9874676772356,-2608.891132262176 -3081.1907900459587,-2889.024721370481 -3021.0313828087033,-3167.924177423392 -2935.144952373054,-3442.644492350543 -2823.4821649147657,-3710.1154094670846 -2686.3309908653628,-3967.171888972144 -2524.336370717561,-4210.587814750939 -2338.5167787824316,-4437.112740961324 -2130.277271790014,-4643.511425596085 -1901.418625310016,-4826.605846633583 -1654.1421830714648,-4983.319345143821 -1391.050072507454,-5110.7224894639385 -1115.140474303791,-5206.0802059886155 -829.7976743760894,-5266.899675954278 -538.7766734462969,-5290.978454565331 -246.18218206576637,-5276.452229663186 43.55811272192233,-5221.841602619638 325.7260592142176,-5126.097244986252 595.3513129547594,-4988.64276137242 847.25527736259,-4809.414572751388 1076.1005450650173,-4588.898125562959 1276.4455921951376,-4328.159731202585 1442.8043959380375,-4028.873348307092 1569.7105622426648,-3693.3416371469502 1651.785466803851,-3324.510641811855 1683.809829172557,-2925.9774920355344 1660.7980582472826,-2501.9905626549576 1578.074628559171,-2057.441584931159 1431.3516718545727,-1597.8492702509636 1216.8068986966869,-1129.3340829298825 931.1609013634844,-658.5838846614929 571.7528334265065,-192.8102681854134 136.61341425526672,260.3044985916582 -375.46583052270955,692.6698852007277 -964.868207737765,1095.8587164661337 -1631.0935037441607,1461.1877194187125 -2372.7067699493086,1779.8065934365522 -3187.2953638615368,2042.7950645093792 -4071.4353348876402,2241.267249029127 -5020.668200873082,2366.4825163294067 -6029.489102234326,2409.961903981203 -7091.3472451529815,2363.6090073464206 -8198.659453536187,2219.8341369251993 -9342.837541341758,1971.6804155032396 -10514.330092669254,1612.9503739541617 -11702.679097197846,1138.3315017482737 -12896.591733801797,543.5191177348381 -14084.027426418495,-174.66514944945015 -15252.300114645554,-1018.1610420340833 -16388.1954885003,-1987.5653275548398 -17478.102733922107,-3082.0372621097617 -18508.16012480362,-4299.215698432751 -19464.41358068928,-5635.149652987274 -20332.98708908329,-7084.2441004570355 -21100.263670066786,-8639.222693119744 -21753.07534131567,-10291.109005838487 -22278.900326479416,-12029.22778426113 -22666.06554220332,-13841.227524051188 -22903.95220193541,-15713.125532659298 -22983.202191210905,-17629.376422700425 -22895.922702553013,-19572.964758196133 -22635.8864716737,-21525.52232291085 -22198.72483346572,-23467.470205265563 -21582.110719442673,-25378.185598751617 -20785.928650776797,-27236.192902674138 -19812.4287457053,-29019.378378092417 -18666.36175942134,-30705.227271037984 -17355.092210968745,-32271.081962887733 -15888.6867271459,-33694.419349893535 -14279.974849677368,-34953.14529440094 -12544.579710213935,-36025.903633590366 -10700.91617891856,-36892.39688226538 -8770.154336860178,-37533.71542913834 -6776.146410024864,-37932.67170623739 -4745.315632774448,-38074.13551360944 -2706.505879774368,-37945.366411625975 -690.7913159150563,-37536.33885611662 1268.7542389107025,-36840.05555240054 3137.3280522329505,-35852.84434807965 4878.708639601402,-34574.63387602169 6455.60411755989,-33009.20310283883 7830.036965741938,-31164.399938565737 8963.762842200429,-29052.32412393759 9818.720514405524,-26689.469735950897 10357.509384241788,-24096.822842965557 10543.890505913661,-21299.910099549197 10343.306428449707,-18328.7943999328 9723.414647352474,-15218.01410791662 8654.628931024363,-12006.462850087939 7110.66230525672,-8737.207397143533 5069.065041747282,-5457.241762870475 2511.7506127674287,-2217.176318885686 -574.497747908389,929.1385484783958 -4197.547489727591,3925.0539297876535 -8359.47198187998,6711.627891693123 -13056.148416799098,9228.192969678548 -18276.90625288015,11412.9827338368 -24004.2339675822,13203.813576227149 -30213.55168758387,14538.816923000613 -36873.05695034766,15357.216125457882 -43943.65042798355,15600.14134308522 -51378.9479075158,15211.474810636315 -59125.3841706242,14138.717993294858 -67122.41365112788,12333.871292119944 -75302.81187174856,9754.316179909776 -83593.08067651748,6363.68893904994 -91913.959186493,2132.734551576811 -100181.04122089477,-2959.8712288422166 -108305.49865158265,-8926.743999806613 -116194.9088059239,-15771.069684524693 -123754.18261306667,-23485.95315524231 -130886.5887146481,-32053.849294741136 -137494.86724771687,-41446.08911657226 -143482.42547135238,-51622.513228116186 -148754.60586669,-62531.2244086516 -153220.0158116084,-74108.47038199216 -156791.90643612389,-86278.66698642923 -159389.58682340206,-98954.570882277 -160939.8583557646,-112037.6096900281 -161378.4527372114,-125418.37602313882 -160651.45607611863,-138977.29027438656 -158716.70040619312,-152585.43524173627 -155545.1031825413,-166105.56374954246 -151121.93463430702,-179393.27834719114 -145447.99240633394,-192298.37996611523 -138540.66269914058,-204666.38010635797 -130434.84713707338,-216340.16872698118 -121183.73487484653,-227161.8275545921 -110859.4000067787,-236974.57602745143 -99553.20518224342,-245624.83458767695 -87375.99346391113,-252964.38755154234 -74458.05189779027,-258852.62536018662 -60948.831998146576,-263158.84367408155 -47016.41438471638,-265764.5745594042 -32846.70713902031,-266565.9229588367 -18642.370061833924,-265475.8797795638 -4621.459901582683,-262426.5813036221 8984.20523407535,-257371.4832660278 21930.96069595594,-250287.4168891683 33965.48417119903,-241176.49344122526 44827.24969486895,-230067.82353333884 54251.233971006375,-217019.0174138919 61970.858179350726,-202117.4329847145 67721.14438583225,-185481.1391756553 71242.0616047352,-167259.56368936453 72282.03252798636,-147633.79598122372 70601.56799500689,-126816.51867905448 65976.99248008225,-105051.54347706446 58204.22028023451,-82612.93085606176 47102.53875337889,-59803.676778659385 32518.351943054502,-36953.95376889327 14328.835291146299,-14418.898488464347 -7554.550058156267,7424.056962271691 -33182.73656469034,28178.307297222596 -62565.97756772974,47431.6413027919 -95671.07744782374,64760.239441467296 -132418.9795053051,79733.08080245323 -172682.76561074657,91916.73189928907 -216286.12018340558,100880.48321919721 -263002.30880032096,106201.79281604556 -312553.71870876156,107471.98968937022 -364612.0046938256,104302.18329159763 -418798.87913573347,96329.31934404366 -474687.57968187303,83222.3163120987 -531805.0417711305,64688.21148592831 -589634.7963073875,40478.2407308165 -647620.6051211915,10393.771706628057 -705170.8385307073,-25707.99319682856 -761663.5903738851,-67908.63071060591 -816452.5164036538,-116223.51568263909 -868873.3719984705,-170597.33446031887 -918251.2148346921,-230900.18173227573 -963908.2275987007,-296924.3286141308 -1005172.1050992545,-368381.74729688826 -1041384.9393976267,-444902.47388415935 -1071912.525936712,-526033.8860893155 -1096154.0032597368,-611240.9662231691 -1113551.728910357,-699907.6123680652 -1123601.284649373,-791339.0518129669 -1125861.4953630266,-884765.4007392598 -1119964.3381293786,-979346.4028397317 -1105624.611008146,-1074177.3670822 -1082649.2253790093,-1168296.3112718617 -1050945.9812226514,-1260692.3035183572 -1010531.6817608306,-1350314.9782895783 -961539.4424808177,-1436085.1875675996 -904225.0498890902,-1516906.7308640536 -838972.2274799844,-1591679.0906717733 -766296.670462424,-1659311.0825120972 -686848.716839605,-1718735.31128348 -601414.5305411057,-1768923.308341866 -510915.68250092096,-1808901.2068735717 -416407.02787144104,-1837765.7968939764 -319072.79195037304,-1854700.7858652668 -220220.79383606082,-1858993.0767241272 -121274.75524941547,-1850048.862298222 -23764.66227156092,-1827409.3239213587 70684.83018092264,-1790765.712780394 160367.93764322356,-1739973.585384032 243513.19055570426,-1675065.959766868 318300.71898976073,-1596265.1568491426 382881.2855007387,-1503993.0919636993 435396.9460312576,-1398879.7851164606 474003.19048009254,-1281769.865218656 496892.3861928418,-1153726.8534448096 502318.31957077864,-1016035.0241232922 488621.6036024593,-870198.6582151146 454255.69278441026,-717938.5245018881 397813.22201066744,-561185.4470645303 318052.3629829579,-402070.84442612546 213922.87093486098,-242914.15574513574 84591.47638449314,-86207.10252114804 -70533.73836440463,65405.22979158395 -251780.34977059683,209146.46733313167 -459190.3701145331,342134.1167891421 -692501.1739878627,461407.721211339 -951128.9560585868,563959.8518614954 -1234155.0960615813,646769.7398283349 -1540315.7959974667,706839.3051617607 -1867995.3382817956,741231.2951956103 -2215223.291919891,747109.1981572552 -2579675.966596711,721778.5536903354 -2958682.38183448,662729.2391726832 -3349234.9801187874,567678.2703424036 -3748005.269232875,434612.6174125526 -4151364.530151924,261831.50422641693 -4555409.672989697,47987.62874792523 -4955994.265000012,-207873.28104879736 -5348764.691928646,-506275.1803914811 -5729201.347588237,-847277.3068131936 -6092664.676965036,-1230443.2873771354 -6434445.8261179915,-1654814.374317287 -6749821.578327624,-2118887.419608942 -7034113.181194279,-2620598.180953647 -7282748.59453954,-3157310.52505642 -7491327.614956124,-3725812.0586460703 -7655689.2606564015,-4322316.673291703 -7771980.730908227,-4942474.436651765 -7836727.188871879,-5581389.200417033 -7846901.556137437,-6233644.224051214 -7799993.452793831,-6893336.033789702 -7694076.369522019,-7554116.648651479 -7527872.119060229,-8209244.2100011185 -7300811.584476334,-8851641.949149868 -7013090.761991279,-9473965.31941897 -6665721.087556659,-10068677.005944805 -6260573.0398540255,-10628129.40935373 -5800412.028611977,-11144654.079460979 -5288925.606785716,-11610657.453659598 -4730741.088738264,-12018722.133069007 -4131432.714500007,-12361712.809314687 -3497517.572697987,-12632885.837601569 -2836439.581917921,-12826001.339180734 -2156540.9319832334,-12935436.610102184 -1467020.50261852,-12956299.51504637 -777878.9067207153,-12884540.456794055 -99849.9482985508,-12717061.435288439 555681.5598410942,-12451820.646995058 1176775.5074950813,-12087931.027059337 1751045.4405599204,-11625751.105200024 2265780.285589308,-11066966.532872805 2708078.183873889,-10414660.645370664 3064991.578464494,-9673372.449430797 3323682.5001109303,-8849140.475646606 3471586.800524856,-7949531.0063964045 3496585.8861464313,-6983649.284724409 3387184.3152861325,-5962132.428031674 3132691.4388218713,-4897122.912666406 2723405.092340287,-3802221.661370782 2150795.188559261,-2692419.954564105 1407684.9159226175,-1584009.5978209109 488427.12527281354,-494471.01050264126 -610926.6157028868,557660.847146836 -1892466.8982634607,1552952.5208456859 -3356279.9272497036,2471249.609405302 -5000316.22420725,3291875.03916301 -6820277.237882865,3993846.9829679118 -8809522.476424975,4556115.023922691 -10958999.695564244,4957812.843212147 -13257200.560109079,5178525.390386243 -15690144.04125198,5198568.177400123 -18241389.618830055,4999276.028749233 -20892082.125646256,4563298.323562096 -23621029.800530806,3874897.4860500423 -26404816.808799274,2920247.2228783634 -29217951.144456107,1687726.7744726446 -32033048.44976,168207.24664915286 -34821051.87700655,-1644674.076175652 -37551487.67756891,-3754255.6601511897 -40192755.73788795,-6160614.198544674 -42712453.795303226,-8860351.97362478 -45077733.562977165,-11846413.423005614 -47255686.47783934,-15107935.155779047 -49213756.264074214,-18630133.532213356 -50920174.98329193,-22394233.72926715 -52344418.727634974,-26377443.961024813 -53457678.610528804,-30552978.20742687 -54233342.228708446,-34890130.426075906 -54647480.31592039,-39354402.780965656 -54679332.89078055,-43907689.91997903 -54311788.826263726,-48508520.77213482 -53531852.443729594,-53112358.71882904 -52331090.467665285,-57671960.324660406 -50706052.475655824,-62137792.097696245 -48658657.84833207,-66458503.99196696 -46196542.17263035,-70581457.57323208 -43333356.08450809,-74453305.95015502 -40089009.659544215,-78020621.73534764 -36489855.67605992,-81230568.45343228 -32568805.389150195,-84031609.96624377 -28365370.86793315,-86374251.64909658 -23925628.463970162,-88211806.23780715 -19302098.596579332,-89501176.48548166 -14553537.759821022,-90203646.03293717 -9744639.47410332,-90285669.21917734 -4945641.819110436,-89719649.95092306 -231840.189126101,-88484699.22503282 4316994.999618451,-86567360.46676487 8617294.755093902,-83962291.52195744 12582459.98288966,-80672891.93340375 16123718.572851097,-76711864.05149162 19151066.35326992,-72101696.58600329 21574285.805181567,-66875059.40840574 23304035.052284993,-61075098.76917581 24252998.26582959,-54755622.608489625 24337087.265688714,-47981166.315312214 23476682.77683076,-40826930.13185396 21597902.533436652,-33378580.40833458 18633882.23035075,-25731908.0853506 14526054.223328168,-17992339.114565756 9225407.89549124,-10274293.016858716 2693714.7575845704,-2700387.412618746 -5095299.346600063,4599511.869195808 -14154853.081722166,11489393.600962844 -24484097.994256366,17828353.379163355 -36067215.02774983,23471989.659325752 -48872637.6921172,28273935.83736769 -62852420.06426257,32087518.397900958 -77941767.21409531,34767528.912384816 -94058744.80871204,36172095.434297845 -111104183.54167153,36164636.63291271 -128961792.6595876,34615879.861055866 -147498495.21415514,31405922.29627131 -166564995.75624824,26426312.36054005 -185996589.01615432,19582126.843497086 -205614215.68946466,10794017.560263343 -225225768.78530574,200.00000027582226" stroke="white" stroke-width="1.5" /></svg>