<?xml version="1.0" encoding="utf-8" ?>
<svg baseProfile="full" height="400" version="1.1" width="400" xmlns="http://www.w3.org/2000/svg" xmlns:ev="http://www.w3.org/2001/xml-events" xmlns:xlink="http://www.w3.org/1999/xlink"><defs /><rect fill="black" height="100%" width="100%" x="0" y="0" /><circle cx="200" cy="200" fill="yellow" r="10.004848243473148" stroke="orange" stroke-width="2" /><polyline fill="none" points="199.38745997399144,200.0 199.30728745558764,199.9636357557858 199.22677063374206,199.91859364366775 199.14676975722313,199.86463223506772 199.06819237322864,199.80159762418617 198.99198507659355,199.72943096516886 198.91912421639577,199.6481753236177 198.85060560560362,199.55798171102785 198.787433294865,199.45911417208865 198.73060748726647,199.3519537978473 198.68111168671976,199.23700154258302 198.6398991883659,199.11487972893005 198.60787903482864,198.9863321343644 198.5859015770816,198.85222256264763 198.57474379289968,198.7135318162026 198.57509452912285,198.57135299964972 198.58753984603283,198.42688510080953 198.61254865281066,198.28142481329806 198.65045883207114,198.1363565843034 198.70146405864003,197.99314089209804 198.7656015228381,197.85330078015824 198.84274077135936,197.71840669823595 198.93257387919172,197.59005972514953 199.03460716375838,197.46987327318485 199.14815464740883,197.35945339956436 199.27233346643527,197.260377876157 199.4060614138408,197.17417419416037 199.5480567890707,197.10229670555555 199.69684071081272,197.04610312737478 199.85074202877556,197.00683065786995 200.00790494711657,196.98557197516416 200.16629944599296,196.98325140853453 200.32373455868148,197.00060158974202 200.4778745300256,197.03814090642098 200.62625784783887,197.09615209111166 200.76631910258055,197.17466228771207 200.89541359243066,197.27342494161545 201.01084455117663,197.39190386028224 201.1098928354714,197.5292597871959 201.18984886646862,197.68433982382953 201.24804657905338,197.85567002120922 201.28189909036877,198.04145144474168 201.28893575862804,198.23955999307825 201.26684026385584,198.44755022386417 201.21348930480323,198.6626634062824 201.12699147142476,198.88183998241826 201.0057258205957,199.10173657678666 200.84837965478889,199.31874764608494 200.65398497982224,199.52903180964253 200.421953099116,199.72854284548887 200.1521067887245,199.91306527787387 199.84470949026365,200.07825441995604 199.50049095823576,200.21968067078512 199.1206688046007,200.3328777992906 198.70696539714632,200.4133948804489 198.2616195895924,200.4568514809015 197.78739279066951,200.45899562385998 197.28756891681368,200.4157639970259 196.7659478186874,200.32334380338935 196.22683182545356,200.17823559409308 195.67500511247468,199.97731636602626 195.11570566764988,199.71790215542748 194.55458970859547,199.39780931351083 193.99768848686332,199.01541361195694 193.4513575057978,198.56970629598098 192.9222182747603,198.06034618151693 192.4170928234916,197.48770688170362 191.94293130540387,196.85291824712206 191.5067331265595,196.15790111483787 191.11546214685586,195.40539448387085 190.77595661024742,194.59897426977045 190.49483457036712,193.74306283891764 190.27839568523723,192.84292858427088 190.13252035840955,191.904674878643 190.06256730230436,190.9352178292046 190.07327069115695,189.94225235755255 190.1686381542321,188.93420624298045 190.35185093323545,187.9201818919799 190.6251675895535,186.9098857337375 190.9898326955518,185.91354528853012 191.4459919781684,184.94181411232765 191.99261540105883,184.0056649852619 192.62742967228343,183.11627188240033 193.34686164681088,182.2848814407816 194.14599405592907,181.52267481505544 195.01853493816344,180.84062099330168 195.95680206785858,180.24932282250322 196.95172357775513,179.75885716741584 197.99285585049938,179.37861079480308 199.0684196111223,179.11711373468663 200.16535498845775,178.98187201884684 201.26939612885755,178.97920183169794 202.36516574132372,179.11406722726713 203.4362897305455,179.38992366575587 204.4655318348344,179.80856970155438 205.43494793144583,180.37000920920863 206.3260594044229,181.0723265624338 207.1200446923594,181.9115771817269 207.79794784811708,182.88169583656713 208.3409026525845,183.97442502695918 208.73037053333107,185.17926567481476 208.9483902500286,186.48345222734102 208.97783702552758,187.8719541115248 208.8026885284096,189.32750528067191 208.40829485375227,190.8306633608956 207.78164940789702,192.35989963800876 206.91165738441651,193.89172082448562 205.78939832645278,195.40082321352622 204.40837910930875,196.86027946478805 202.764773550687,198.24175787655483 200.8576447681886,199.51577358500887 198.68914635829245,200.6519706963866 196.26469847143682,201.61943390614354 193.59313490708223,202.38702769532983 190.6868174534065,202.92376072313203 187.56171385076502,203.1991725613397 184.23743596792036,203.18373944710584 180.7372350463987,202.8492952708795 177.08795119164054,202.16946357317764 173.31991466966912,201.12009590353375 169.46679700387605,199.67971150427687 165.56541035653396,197.82993292759693 161.6554542213225,195.55591188349732 157.77920904321616,192.84673935548557 153.98117701643224,189.6958338168136 150.30767098484472,186.10130123908212 146.80635307659858,182.06626051304778 143.52572543904898,177.59912790403231 140.51457619428896,172.71385424639345 137.82138450135,167.4301087473761 135.4936893799204,161.77340352387236 133.57742771276276,155.7751533388788 132.1162475900018,149.47266543950772 131.15080387773065,142.90905492602545 130.71804357520466,136.13308170118398 130.85048915826746,129.19890575955503 131.57552868045937,122.16575837488482 132.91472190636557,115.09752762563379 134.88313217317793,108.06225765947607 137.48869400545038,101.13156212991979 140.73162673434985,94.3799533343278 144.60390448663802,87.88408973311337 149.0887929012312,81.72194572406825 154.16046279443245,75.97190877173776 159.78369072185058,70.71181023634998 165.91365596988726,66.01789749581457 172.49584294812664,61.96375619246686 179.4660572431853,58.619192647439746 186.75056273342486,56.04908765289855 194.2663461530277,54.312233958437815 201.92151433584186,53.46017079482718 209.61582806865513,53.5360297079408 217.24137504680004,54.573406790028514 224.68338286096278,56.595277076630225 231.82117126373072,59.612967408002106 238.52924118085463,63.62520441723632 244.67849606070627,68.6172544875794 250.13758921337939,74.56017250429683 254.7743887977297,81.41017599878046 258.4575500917645,89.10816083317296 261.05818265233955,97.57937389333567 262.4515979589072,106.73325733950543 262.5191211693312,116.46347780294204 261.1499487209786,126.64815251147047 258.24303171581386,137.15028267818332 253.70896336308655,147.81840259990167 247.4718472468183,158.48745079277163 239.4711218669948,168.9798671524665 229.6633158021993,179.10691758015994 218.0237069855724,188.67024478064232 204.5478590025706,197.46364103700935 189.2530070334982,205.2750357222024 172.17926609972133,211.8886871496514 153.3906346509143,217.08756512502333 132.97576726986875,220.65590727341768 111.04849138628153,222.3819289189908 87.7480443928149,222.06066302730937 63.23900945283381,219.49690352741362 37.710930582384805,214.50822225525727 11.377590277225096,206.92802684903555 -15.524063967867704,196.60862422713194 -42.735354448066545,183.42425183874082 -69.97767573597827,167.27403674337606 -96.9546671129072,148.08484079554802 -123.35475273869775,125.81394883072565 -148.8540426339007,100.45155581223838 -173.11958259694478,72.02300844738153 -195.81293604416328,40.59075685276605 -216.5940754934569,6.255972478042025 -235.12555606974564,-30.840210286970745 -251.07693805359668,-70.51586956982044 -264.129420189206,-112.54792682967422 -273.9806402836491,-156.67226822345867 -280.3495946387346,-202.58438797716514 -282.98162313478224,-249.94058083179976 -281.653402409078,-298.3597056194781 -276.17788561814444,-347.42553640109054 -266.4091238198219,-396.6897113919209 -252.24690113500816,-445.6752831538937 -233.64111362412598,-493.88086629032784 -210.59582031131544,-540.7853711981546 -183.1728940770737,-585.853304379719 -151.4952002793368,-628.5406074668272 -115.74923200912406,-668.3009985475567 -76.18713288756373,-704.5927707039482 -33.12804130549185,-736.8859939657848 13.041305975960057,-764.6700582693583 61.86676788660341,-787.4614865932721 112.82784168605397,-804.8119393440682 165.3395979464512,-816.3163234047992 218.75554347228626,-821.6209121643662 272.37143858732037,-820.4313764405723 325.4300851126791,-812.5206206212667 377.1270903742685,-797.7363136999941 426.6176007894065,-776.0080012959528 473.02398608488215,-747.3536823385222 515.4444420995844,-711.8857329730262 552.9624665468784,-669.8160605067969 584.6571481921435,-621.4603719525951 609.6141957893449,-567.2414450172685 626.9376189800458,-507.69129429017767 635.7619593627985,-443.4521319557142 635.2649562742079,-375.27603061670527 624.6805186771458,-304.0232057813206 603.3118621250803,-230.65884722537214 570.544658266984,-156.2484417629894 525.8600339796685,-81.95154488715531 468.8472481682881,-9.013975199507769 399.21586676275604,61.24157656627909 316.8072506542241,127.42651293799909 221.6051674491889,188.09883819211623 113.74533614582212,241.7771573051288 -6.476285679994334,286.9560906605923 -138.59665970766326,322.1230071745624 -281.9804518429862,345.77595556839333 -435.8166184091366,356.4426505437692 -599.1169568981853,352.7003478836641 -770.7167711316391,333.19642031363077 -949.2777844186903,296.6694246227629 -1133.2934152904108,241.9704303854556 -1321.0965086794383,168.08436197324454 -1510.869591096739,74.15108873357204 -1700.6576915581547,-40.514016428555436 -1888.3837409003258,-176.40034197163413 -2071.8665309057806,-333.7834273710597 -2248.8411815775676,-512.7077849361054 -2416.982030251986,-712.9714640148089 -2573.927820339294,-934.1126669325856 -2717.3090306999447,-1175.3987212252982 -2844.7771493963664,-1435.817703833793 -2954.035658238705,-1714.0729997600722 -3042.8724576276127,-2008.5810601226708 -3109.1934251755238,-2317.472602515314 -3151.0567669662787,-2638.5974700417464 -3166.707787617929,-2969.533334401635 -3154.613675079024,-3307.598393022169 -3113.4978688567107,-3649.868170615274 -3042.3735566852642,-3993.1964919002767 -2940.575825027679,-4334.240644839239 -2807.791973778213,-4669.490702925831 -2644.0894955944577,-4995.302921251898 -2449.941215897664,-5307.937064716351 -2226.2470911663418,-5603.597468369848 -1974.3521710910145,-5878.477570097506 -1696.0602447842443,-6128.8075952788795 -1393.642712815283,-6350.9050124318455 -1069.8422555607406,-6541.227318894446 -727.8709043513601,-6696.42665711714 -371.40216519111345,-6813.405705954433 -4.556895377777124,-6889.37423831092 368.11730897809446,-6921.905687484356 741.6733919974715,-6908.993020436337 1110.7988900295977,-6849.103177885903 1469.8567858333008,-6741.229309427263 1812.9331114858705,-6584.94000765959 2133.8911589993722,-6380.424729385087 2426.432065949874,-6128.534585035956 2684.161448504917,-5830.817680321407 2900.6616570313336,-5489.548207259899 3069.5691310359935,-5107.748505805261 3184.6562316794384,-4689.203352623651 3239.9168327234306,-4238.465780538539 3229.6548558211266,-3760.85379094032 3148.574844869077,-3262.4373921005235 2991.873588108683,-2750.0154787698507 2755.331717197355,-2231.0821624234795 2435.4041410049017,-1713.7822666651882 2029.3081098418854,-1206.8558180385737 1535.1076546100533,-719.5714881042916 951.7931063276269,-261.64907720903363 279.3543759411927,156.8287271633306 -481.15333650059256,525.5149354618875 -1327.5527292395968,833.906648217062 -2256.4977868716583,1071.4625609110335 -3263.4386336780544,1227.7287272525443 -4342.599058938206,1292.471566488446 -5486.967844165991,1255.8169422308865 -6688.304926244075,1108.393986116413 -7937.163315173919,841.4821916265588 -9222.927550755885,447.16016384327713 -10533.869329353307,-81.54571791251334 -11857.220760625522,-750.5145833841109 -13179.265525658688,-1564.3882598544644 -14485.448003463396,-2526.434407786073 -15760.500213835745,-3638.4177085229458 -16988.586192817347,-4900.4812498885785 -18153.463174499757,-6311.040272502993 -19238.658701964883,-7866.690430864457 -20227.662533320803,-9562.132687087456 -21104.131948856946,-11390.116890265625 -21852.108805350326,-13341.405999627012 -22456.2464267236,-15404.762784140225 -22902.044169998164,-17566.960674522543 -23176.08726535307,-19812.82025555319 -23266.289302761626,-22125.272667449288 -23162.134528867246,-24485.450935459277 -22854.91693025409,-26872.80996783623 -22337.972916825252,-29265.275655474714 -21606.904285318622,-31639.423173677038 -20659.78804166089,-33970.68423016305 -19497.369595309847,-36233.58262641128 -18123.23581217456,-38401.99710501825 -16543.964428075906,-40449.45004773596 -14769.246384634484,-42349.42017135667 -12811.977756184187,-44075.6769462174 -10688.318091617386,-45602.63403972169 -8417.712200293736,-46905.71867018291 -6022.872667077667,-47961.75335001713 -3529.7206884241605,-48749.346107638354 -967.2831788016117,-49249.284910297654 1632.4554964401616,-49444.93167162844 4234.748351123957,-49322.61092395229 6802.327860825531,-48871.987972567 9295.695445755062,-48086.4311332844 11673.457921764037,-46963.352491244485 13892.70987386882,-45504.52151405797 15909.460265171156,-43716.345810838866 17679.10093055914,-41610.113355441485 19156.913925873236,-39202.190591456434 20298.614016746516,-36514.171011870094 21060.92190509304,-33572.96906066 21402.163113777577,-30410.854539120995 21282.886790371453,-27065.42311765411 20666.49805847792,-23579.49905441791 19519.89694958911,-20000.966804959062 17814.116399695235,-16382.528869951515 15524.951302860527,-12781.387968606401 12633.57018863457,-9258.852439149468 9127.100741235876,-5879.86464978784 4999.180115384242,-2712.4531473978823 250.46083549481125,172.8897308398999 -5110.936999872405,2703.902014240886 -11069.036440163414,4807.31417638371 -17599.686399250808,6409.674183113894 -24670.325145817736,7438.2294444663685 -32239.83293092032,7821.8584893310535 -40258.48156755571,7492.044081475138 -48667.988094709995,6383.878424634268 -57401.67884162529,4437.090078087203 -66384.76925800173,1597.0812381776316 -75534.76379547239,-2184.0368482914323 -84761.97891965638,-6946.423369811034 -93970.19100698803,-12721.51605432643 -103057.4094448551,-19531.08217475102 -111916.7737178186,-27386.327162566773 -120437.57163921517,-36287.0758054849 -128506.37419059782,-46221.04110613708 -136008.2806774494,-57163.19579899913 -142828.26611637857,-69075.26125109702 -148852.62095628187,-81905.32799904136 -153970.4714249746,-95587.62149298376 -158075.36700618162,-110042.42572166977 -161066.91981341862,-125176.17627867019 -162852.47896204324,-140881.73309739673 -163348.82147420282,-157038.84153358184 -162483.83980967532,-173514.78871331314 -160198.20482498992,-190165.26010019254 -156446.98184987353,-206835.39907750048 -151201.176659753,-223361.07000430912 -144449.18744066975,-239570.3227053745 -136198.1384122563,-255285.0537135774 -126475.0706176609,-270322.8568239825 -115327.96552670813,-284499.0526667222 -102826.57754822138,-297628.88409110944 -89063.05232456065,-309529.8612077174 -74152.30879835687,-320024.23699322686 -58232.16450700378,-328941.5914614824 -41463.1853798061,-336121.4995821994 -24028.24348686213,-341416.25542657904 -6131.768714487483,-344693.62247837434 12001.316788614145,-345839.57771207363 30126.989349823674,-344761.01494960714 47983.844137356675,-341388.3712058624 65295.14578853842,-335678.1382630339 81771.20587169219,-327615.2206149414 97112.07945480038,-317215.1002334673 111010.56856545799,-304525.76836617687 123155.51568928493,-289629.3848099148 133235.365715639,-272643.62584888766 140941.9699523366,-253722.68332213495 145974.6010514405,-233057.87911424178 148044.14297597835,-210877.86175888756 146877.4155558288,-187448.35481548458 142221.5887957117,-163071.43022633748 133848.6379769536,-138084.28397993525 121559.78680638435,-112857.49608210239 105189.88247983564,-87792.76205016466 84611.64361328389,-63320.088866926824 59739.719619558266,-39894.45452418627 30534.498338388417,-17991.936904117258 -2994.402375069899,1894.6752626134887 -40785.023774807356,19260.76932277247 -82720.40033067847,33595.26593113767 -128626.40185737077,44386.41130413328 -178270.1446103211,51127.96143562879 -231359.0292994181,53325.707449230635 -287540.46005612507,50504.283608704965 -346402.2935400754,42214.19207026229 -407474.0615850046,28038.971344229023 -470229.00407035294,7602.428749194336 -534086.9410853822,-19424.14899888411 -598418.0049613292,-53314.89840408622 -662547.2434312468,-94282.49107103146 -725760.0950973652,-142471.55474118912 -787308.7276163045,-197952.50622825662 -846419.217641143,-260715.90075938098 -902299.5396872063,-330667.4028107312 -954148.3188297518,-407623.48283950123 -1001164.2896231238,-491307.9422834296 -1042556.3909906783,-581349.3657587122 -1077554.414221932,-677279.5944858108 -1105420.1087868842,-778533.3085738237 -1125458.6386041855,-884448.797876542 -1137030.2698536976,-994269.9916941865 -1139562.1605839725,-1107149.8066494989 -1132560.1124135037,-1222154.8596507465 -1115620.135744353,-1338271.5790230958 -1088439.6722803789,-1454413.731721144 -1050828.3124486294,-1569431.3681283237 -1002717.8407343591,-1682121.168424432 -944171.4391223624,-1791238.1560039853 -875391.8779435459,-1895508.724120449 -796728.5245956726,-1993644.9020003767 -708683.0039648573,-2084359.766323565 -611913.3500244425,-2166383.883425742 -507236.4961133968,-2238482.6470914674 -395628.9618568298,-2299474.3566253907 -278225.60761949286,-2348248.8602916123 -156316.34278361851,-2383786.5704760267 -31340.691989258703,-2405177.639346399 95119.85628980714,-2411641.067655698 221351.77193031824,-2402543.5049532563 345521.7044985835,-2377417.487132112 465691.0054299879,-2335978.8472398 579832.5242157149,-2278143.028094268 685849.6216675502,-2204040.0207443535 781597.3119285152,-2114027.651443617 864905.4124888635,-2008702.9417949845 933603.5483901128,-1888911.2722711246 985547.823420717,-1755753.0885915493 1018648.93782084,-1610587.903576495 1030901.4992406224,-1455035.364194591 1020414.241878517,-1290973.1746289856 985440.8383235163,-1120531.6913109163 924410.9601102284,-946085.0349669565 835961.2168501243,-770238.5977007857 718965.5805097434,-595812.8598316725 572564.8814479794,-425823.47143289715 396194.9466714199,-263457.59698962397 189612.93887494152,-112046.56800440264 -47078.55236247879,24965.06266146865 -313410.11795534124,144053.91984907928 -608527.2826236229,241655.46101102972 -931175.8423423347,314204.63564870117 -1279691.2089095912,358179.2437170011 -1651992.1631110436,370145.63336254394 -2045579.3900212522,346806.325139121 -2457539.13552756,285049.09819261485 -2884552.2821824774,181997.024573859 -3322909.0950568314,35058.89159138871 -3768529.8345394847,-158020.59026153202 -4216991.373253481,-399111.4339933743 -4663559.888774313,-689650.5498878361 -5103229.633074319,-1030596.1449215867 -5530767.704105643,-1422385.0655252007 -5940764.665293951,-1864893.8128830097 -6327690.775660027,-2357403.9631643924 -6685957.507621348,-2898572.7193801748 -7009983.942142045,-3486409.306438669 -7294267.542768283,-4118257.895993352 -7533458.722254218,-4790787.712478633 -7722438.529064263,-5499990.926075767 -7856398.697198899,-6241188.882104567 -7930923.222750819,-7009047.1494891485 -7942070.555605769,-7797599.793619097 -7886455.426028114,-8600283.191380862 -7761329.264793544,-9409979.608772887 -7564658.123319064,-10219070.654896524 -7295196.958135543,-11019500.610937707 -6952559.113253414,-11802849.509883903 -6537279.81562594,-12560415.713167597 -6050872.494081917,-13283307.595358957 -5495876.741741606,-13962543.80875482 -4875896.766901049,-14589161.457678985 -4195629.218381222,-15154331.369106498 -3460879.3289589663,-15649479.503551662 -2678564.395117681,-16066413.409826031 -1856703.7031908347,-16397452.491184711 -1004394.1210292124,-16635560.720510919 -131770.70040104268,-16774480.320574382 750048.2219960507,-16808864.814101867 1629031.7784340638,-16734409.749499107 2492323.3588674716,-16547979.32361546 3326343.42687428,-16247727.05497208 4116908.155286451,-15833208.611325512 4849363.463205581,-15305484.866164343 5508733.816419559,-14667213.251456149 6079884.9267779095,-13922725.4902449 6547699.255209045,-13078089.83391286 6897262.990349653,-12141155.996230766 7114062.942975775,-11121581.070631312 7184191.568523047,-10030834.839091606 7094558.109054138,-8882183.030932026 6833103.635292005,-7690647.267744447 6389017.572089004,-6472940.636207663 5752953.110304881,-5247378.063031506 4917238.74789198,-4033760.924603435 3876083.0663797003,-2853235.6066076574 2625769.7391946954,-1728126.034070421 1164839.688504942,-681740.5176530156 -505742.73945641785,261846.3951165792 -2382442.721559873,1078036.0177132448 -4459030.141001877,1741970.1574324053 -6726480.052164106,2228816.493735717 -9172901.362278368,2514072.5345578636 -11783496.51074529,2573885.606492024 -14540554.727707975,2385385.9646805637 -17423481.20877842,1927029.7496048796 -20408864.25265312,1178948.1760227503 -23470582.07330387,123299.01941486119 -26579950.619646505,-1255383.827070012 -29705913.31486295,-2969847.211558516 -32815273.167301916,-5029786.705618157 -35872967.208191745,-7441530.594170368 -38842382.68199962,-10207744.885980956 -41685713.85756969,-13327164.43210453 -44364357.74719644,-16794355.2559197 -46839346.42222271,-20599513.152261354 -49071813.00385212,-24728303.501029793 -51023487.79346857,-29161747.059510063 -52657220.395193204,-33876156.245094046 -53937523.08250217,-38843126.09454229 -54831130.07862861,-44029583.686473124 -55307566.86572256,-49397899.34049565 -55339723.119049534,-54906062.360211216 -54904422.38874257,-60507923.47012566 -53982981.23169976,-66153505.41126701 -52561750.13895639,-71789382.41094781 -50632628.317908496,-77359128.43368691 -48193544.182446,-82803833.25889945 -45248893.28528822,-88062684.52376853 -41809925.402916975,-93073612.9249145 -37895072.56115092,-97773996.79934338 -33530209.974416733,-102101421.31387672 -28748842.169046376,-105994486.49396493 -23592206.974279992,-109393657.32940309 -18109290.596723557,-112242148.21872067 -12356747.646116327,-114486833.06917615 -6398720.752348678,-116079171.46922968 -306555.30415665905,-116976140.50925305 5841594.154337607,-117141161.0584989 11961268.21686393,-116545006.62643547 17962318.72546077,-115166682.35884129 23749636.50964544,-112994261.25750929 29223989.16404058,-110025664.38064939 34282965.79833936,-106269371.59180863 38822024.15690002,-101745049.39038256 42735633.92301472,-96484082.48720197 45918508.411593854,-90529996.09382726 48266915.231766164,-83938756.38188428 49680054.88715003,-76778937.24521722 50061494.696947984,-69131742.36704583 49320643.88723797,-61090872.65882732 47374254.241338484,-52762230.39691403 44147929.33400039,-44263452.83478771 39577624.1298457,-35723269.707449466 33611115.625451416,-27280680.862613924 26209424.2800378,-19083952.2400609 17348165.23465243,-11289430.56242795 7018807.785991979,-4060179.3816383304 -4770178.720605441,2435558.4740005396 -17992314.464669462,8026064.508085927 -32602255.857620835,12538004.103389667 -48535120.54748723,15798429.272739464 -65706011.08569985,17636909.242150903 -84009756.51369736,17887770.87349344 -103320889.70675893,16392428.360838864 -123493876.57516499,13001779.144950058 -144363611.16883183,7578640.620690972 -165746188.36531603,200.00000020298077" stroke="white" stroke-width="1.5" /></svg>