<?xml version="1.0" encoding="utf-8" ?>
<svg baseProfile="full" height="400" version="1.1" width="400" xmlns="http://www.w3.org/2000/svg" xmlns:ev="http://www.w3.org/2001/xml-events" xmlns:xlink="http://www.w3.org/1999/xlink"><defs /><rect fill="black" height="100%" width="100%" x="0" y="0" /><circle cx="200" cy="200" fill="yellow" r="10.000707349188867" stroke="orange" stroke-width="2" /><polyline fill="none" points="199.66545109074724,200.0 199.59872276507738,199.97893477823374 199.53055530370239,199.95057639570774 199.46163570791066,199.91458674659455 199.39270421884643,199.87069334662985 199.32454860429067,199.81869689826138 199.25799746923525,199.75847844477497 199.1939126080103,199.69000599663056 199.13318042883506,199.61334051197858 199.07670249526805,199.52864111344874 199.0253852429928,199.43616942489783 198.98012894454683,199.33629291495348 198.94181600881737,199.22948713895718 198.91129871621445,199.11633677734628 198.8893865042089,198.99753537664773 198.87683293119358,198.87388370910335 198.87432245919578,198.7462866784953 198.88245720762993,198.61574871296534 198.90174384083033,198.4833676004668 198.93258076133526,198.35032673888057 198.97524578860384,198.2178857906634 199.02988450883947,198.08736975105455 199.09649948567596,197.9601564591947 199.17494052347809,197.83766260283522 199.2648961747526,197.72132828943677 199.36588668050874,197.6126002791534 199.47725852722522,197.51291399822662 199.59818079626478,197.42367447440938 199.72764347105132,197.3462363589209 199.8644578540362,197.2818832217992 200.00725922941166,197.2318063290561 200.15451188869127,197.19708313042875 200.30451661472117,197.17865570542776 200.45542069549788,197.1773094324733 200.60523051247026,197.19365216085183 200.7518267189632,197.22809417768732 200.89298199317852,197.2808292717807 201.02638131715378,197.35181720272303 201.14964469837153,197.44076788684094 201.26035221473927,197.54712761102007 201.35607122675918,197.67006758103466 201.4343855632799,197.80847510248478 201.49292644969543,197.96094767963223 201.52940491029068,198.1257903002111 201.54164534011815,198.30101615258283 201.52761990682882,198.484350995382 201.48548340980471,198.6732413690767 201.41360819328307,198.8648668037338 201.3106186824701,199.0561561378682 201.17542508745495,199.2438080197776 201.00725579959192,199.4243156154847 200.80568798943895,199.59399549665886 200.57067590482316,199.74902062807578 200.30257636262215,199.88545731775014 200.0021709288315,199.99930593437887 199.6706842888249,200.0865451367455 199.30979832373654,200.14317929890575 198.92166142987924,200.16528875400363 198.50889264626173,200.1490824192032 198.0745801907143,200.09095230525415 197.62227404792037,199.9875293574699 197.1559723027446,199.83574002123777 196.68010096950752,199.63286287547467 196.199487132055,199.37658463257506 195.71932528027006,199.0650547642502 195.24513680563882,198.69693798009928 194.78272270106504,198.27146376063203 194.33810959767933,197.78847212958618 193.91748936315295,197.24845484251807 193.52715258114017,196.65259117048717 193.173416328985,196.00277746983735 192.86254676967548,195.30164975213592 192.6006771730819,194.55259850271125 192.39372207954779,193.7597750422584 192.24728841462974,192.92808878386873 192.1665844558591,192.06319480765848 192.15632763943486,191.17147125685221 192.22065227532977,190.25998615249736 192.363018311971,189.33645332856753 192.58612235500425,188.40917730450428 192.89181219725555,187.48698703753467 193.28100615749463,186.57915863149574 193.7536185526612,185.69532722133414 194.30849264060492,184.845388401698 194.9433423669744,184.0393897226945 195.65470422965626,183.28741293439379 196.43790053623283,182.599447822299 197.28701527358845,181.98525863692018 198.19488373351297,181.4542442798028 199.15309694359806,181.01529356377463 200.15202183878034,180.67663701459932 201.18083797567598,180.4456968224011 202.2275914397392,180.3289366818459 203.27926642489032,180.3317133777936 204.32187477749088,180.45813207564925 205.3405635925674,180.71090736064423 206.31974073145372,181.09123213553602 207.24321789826547,181.5986565295992 208.0943706698512,182.23097899128163 208.85631462236626,182.98415173067744 209.51209643992937,183.85220264437692 210.0448986297414,184.82717579287714 210.43825620659067,185.8990924084241 210.67628345106644,187.05593428805065 210.74390859346076,188.28365127214283 210.62711403281705,189.5661943229347 210.31317947155546,190.8855755000994 209.7909251343241,192.22195588268036 209.05095204898146,193.55376220901707 208.08587620168814,194.85783270053412 206.89055324070733,196.10959220319128 205.46229029829544,197.2832564244117 203.8010414304804,198.3520646662375 201.90958314381703,199.2885400605883 199.79366648937167,200.0647759035349 197.4621422598798,200.6527462665968 194.92705592853474,201.0246386387656 192.20370911906176,201.15320592817105 189.31068459798988,201.01213473229015 186.26983203220033,200.57642637589615 183.10621205818455,199.82278682234428 179.84799656362938,198.73002119226592 176.5263234859765,197.2794282803942 173.1751048847706,195.45519015223076 169.83078754253273,193.24475163372597 166.53206588942834,190.63918428513952 163.31954762628254,187.63352928064774 160.23537303390887,184.22711350369093 157.32278959892562,180.42383311978273 154.62568425116518,176.2323989083698 152.18807618869508,171.66653772765625 150.05357395595976,166.74514465479177 148.26480113061575,161.49238059147166 146.862795656726,155.93771045403417 145.88638852708033,150.11587747891684 145.3715681561088,144.06680966927632 145.35083738743282,137.83545498608729 145.85257063664736,131.47154254546922 146.90037917043549,125.02926782057001 148.51249295760263,118.56690065713195 150.70116788625853,112.14631579176014 153.47212741462567,105.83244650459713 156.8240479016974,99.6926630360418 160.7480969396512,93.79607844163507 165.22753397469967,88.2127856403841 170.23738234994505,83.01303051862229 175.74418162679746,78.2663270719443 181.70582863577377,74.04052168880146 188.07151516943762,70.40081478706648 194.78176955770206,67.40874909462701 201.76860855805538,65.12117490151704 208.95580505148155,63.5892035884622 216.25927596167193,62.857161638880655 223.5875936150968,62.96155815207959 230.84262243907858,63.93007957841053 237.92028146252977,65.78062597653653 244.71143154980376,68.52040353322897 251.1028846744418,72.14508837245458 256.97853084067276,76.63807679906947 262.22057650244227,81.96983706048059 266.7108865304196,88.09737745585501 270.3324199564695,94.9638451671629 272.97074790369624,102.49826952168829 274.51564031099184,110.61546251588545 274.8627063079183,119.21608833213702 273.91507141362433,128.18691226209498 271.58507314801875,137.4012379145549 267.795955180781,146.7195398367487 262.4835388304313,155.990296722975 255.5978495879145,165.05102823420472 247.10467540291225,173.72953612031267 236.98703276151917,181.8453478397695 225.2465161250084,189.21135822999094 211.90450611367282,195.63566201824258 197.00321192776252,200.92356710426606 180.6065239176767,204.87977562080118 162.80065296349048,207.31071681886894 143.69453441224604,208.02701286557252 123.41997575948433,206.84605572008903 102.13152905474104,203.5946704072933 80.0060711607208,198.11183727856275 57.242077499649895,190.25144327751138 34.05857777053146,179.88502985726754 10.69378530536838,166.90450306838503 -12.596604766328369,151.22476949533535 -35.541449579614635,132.7862602068578 -57.85652179473601,111.5573037420558 -79.2471947309516,87.53630841897879 -99.41143755423735,60.753713962002195 -118.04310405164199,31.273672632011454 -134.8354937707607,-0.8045792610995193 -149.485159494102,-35.34569735547208 -161.69593021118396,-72.17758885344739 -171.1831140060275,-111.09118951575545 -177.67784065735646,-151.84068886457203 -180.93149931922386,-194.1442309187284 -180.72022247876993,-237.68511370205806 -176.8493635446073,-282.1135061211348 -169.15791197371692,-327.048695621629 -157.5227868661769,-372.08187433137573 -141.8629475138958,-416.77946521950366 -122.14325754804588,-460.6869831895185 -98.37803815327408,-503.3334190333379 -70.6342453641912,-544.2361268644391 -39.034206785219595,-582.9061880912799 -3.757854226723822,-618.8542172641786 34.95560923061785,-651.5965673148011 76.80666631195024,-680.6618838985726 121.43512149017553,-705.5979508443389 168.42046573724207,-725.9787612150883 217.28301430496902,-741.4117412957014 267.4858550987218,-751.5450480588203 318.4376376371742,-756.0748544304874 369.49622414111116,-754.7525310966627 419.9732150099204,-747.3916287728766 469.1393508857015,-733.8745609131194 516.2307827451323,-714.1588838681864 560.4561900851068,-688.2830696205917 601.0047153802789,-656.3716655188277 637.0546707022806,-618.6397359959047 667.7829598276766,-575.3964831635298 692.37514646259,-527.0479464904108 710.0360865251776,-474.09868655412595 720.0010299114177,-417.152364139386 721.5470849921837,-356.9111337638475 714.0049274244093,-294.1737800508455 696.7706238857511,-229.83253622284553 669.3174312433903,-164.86853632661928 631.2074226276394,-100.34586656686679 582.1027840832663,-37.40419624386246 521.776619096071,22.7500148349975 450.1230935138307,78.85371808951038 367.16675036570535,129.59885416204338 273.0708229881211,173.6452549539799 168.1443758302084,209.63479750230985 52.84810546411265,236.2067170740698 -72.2013602278434,252.01396621908256 -206.22881889015292,255.74048591055504 -348.2996504868746,246.11923457672833 -497.32090523408624,221.95080105685165 -652.0444386228403,182.12240858444605 -811.0721917874639,125.6270991018984 -972.8636953710145,51.58287084000719 -1135.7458526179494,-40.74847254644686 -1297.9250328075902,-151.94301561287557 -1457.5014794898098,-282.39723215308135 -1612.4860094918959,-432.3115659425607 -1760.8189485638982,-601.6753683431269 -1900.3912180855828,-790.2534716161468 -2029.067454772824,-997.5746751383806 -2144.711012129174,-1222.922416502656 -2245.2106588548636,-1465.3278905417487 -2328.5087559455465,-1723.5658664997386 -2392.630661205688,-1996.1534367899244 -2435.715077810304,-2281.351909966476 -2456.0450328330767,-2577.1720356861515 -2452.07914279371,-2881.382720586163 -2422.482796745758,-3191.5233612456245 -2366.158863713918,-3504.919883876256 -2282.2775108813253,-3818.7045403060124 -2170.304702297681,-4129.839466437164 -2030.0289354878378,-4435.143962996405 -1861.5857656261373,-4731.325409426274 -1665.4796643134757,-5015.013670629461 -1442.6027628249158,-5282.79880346067 -1194.2500383161707,-5531.27181591007 -922.1305161684916,-5757.068177432631 -628.3740826361154,-5956.913724490891 -315.53352940026855,-6127.672551778603 13.418514381298081,-6266.396427498316 355.09806639395794,-6370.375221226524 705.7239486772344,-6437.187786087055 1061.1378217608737,-6464.752693950976 1416.8302393640554,-6451.378183980467 1767.9728023244622,-6395.810651821044 2109.456419801855,-6297.2809798916505 2435.935610347997,-6155.547989273057 2741.8786957671396,-5970.938281362852 3021.623657515897,-5744.381733411425 3269.4393395104125,-5477.441916886138 3479.591593507082,-5172.3407218621805 3646.4138746711747,-4831.9764947638405 3764.3817065900107,-4459.935031140362 3828.1903479355183,-4060.4928100130846 3832.8349084058436,-3638.611911821095 3773.692080695501,-3199.926128143421 3646.602579311042,-2750.717848076809 3447.953307341274,-2297.88539315318 3174.758210091619,-1848.9005695974165 2824.736721076692,-1411.7563130110225 2396.388662489102,-994.904415529063 1889.0644301342306,-607.1834482831392 1303.0292730965118,-257.7371216128014 639.5204721569171,44.07653925612715 -99.20377080538856,288.7846857076919 -909.8248966553347,466.9071444884091 -1787.935130718395,569.0711198976828 -2728.020270761671,586.1321520557506 -3723.4551163332826,509.30024251579323 -4766.5124439697165,330.2699211863049 -5848.386324878226,41.352897282506376 -6959.230456663128,-364.38818613062824 -8088.212038898533,-893.0064874317573 -9223.581564498832,-1549.539885740549 -10352.758725789272,-2337.883864800557 -11462.4344470662,-3260.6702120836794 -12538.6888556462,-4319.153435480067 -13567.124792572638,-5513.106831467591 -14533.01624415958,-6840.730148243732 -15421.470848528936,-8298.570773358435 -16217.605399593624,-9881.460336511076 -16906.733037123253,-11582.468553178032 -17474.560578367553,-13392.876042680844 -17907.394217151672,-15302.167734520832 -18192.351593493826,-17298.04832892868 -18317.5780238488,-19366.481101563222 -18272.464482365474,-21491.75113844893 -18047.8647404345,-23656.553856239996 -17636.308908680272,-25842.10940579177 -17032.210485790984,-28028.3032752611 -16232.063905484203,-30193.853104400343 -15234.629489664438,-32316.501396613683 -14041.102665480617,-34373.23347238238 -12655.264289364814,-36340.519649905975 -11083.60894480125,-38194.58026970803 -9335.448144809292,-39911.671803350764 -7422.985476843596,-41468.391906478966 -5361.360878534816,-42842.00089766764 -3168.661428489386,-44010.756771775166 -865.8962778198872,-44954.26049474449 1523.0663647591045,-45653.8079812795 3971.6019490682443,-46092.74483294497 6450.47337917687,-46256.81961747747 8928.01684820784,-46134.53120594766 11370.370212941109,-45717.46545836803 13741.74391314492,-45000.61636574517 16004.733911520381,-43982.68662262401 18120.67557218363,-42666.36252378002 20050.03681373632,-41058.5580564763 21752.848272827643,-39170.62309978998 23189.167601929134,-37018.51074859373 24319.57440763809,-34622.89895496275 25105.691720529445,-32009.261926512765 25510.729282179873,-29207.88704117881 25500.043347690436,-26253.83343214931 25041.70714135329,-23186.82886514246 24107.085577797534,-20051.102072091784 22671.40737991707,-16895.148318778436 20714.327297078664,-13771.42666616971 18220.470761414585,-10735.988132312754 15179.953025134204,-7848.034768643563 11588.86460615383,-5169.410525477974 7449.714740929939,-2764.0256891511212 2771.824509630712,-697.2176196107349 -2428.338633547492,964.9485069386467 -8126.8930170659005,2156.434250664147 -14292.349400454683,2812.032053051661 -20885.499515392017,2868.212271664687 -27859.393377530607,2264.0054190775754 -35159.411603690285,941.9109669525446 -42723.438204933984,-1151.1768335645154 -50482.13844271804,-4063.0365159166804 -58359.3453357592,-7835.191527122504 -66272.5572941437,-12501.998794934374 -74133.54814087025,-18089.766197959685 -81849.08946754814,-24615.91187964763 -89321.78387020198,-32088.17869408169 -96451.00613465012,-40503.917276522065 -103133.94790200872,-49849.45128254732 -109266.75975850337,-60099.53822549933 -114745.78307650097,-71216.939053109 -119468.8623035472,-83152.10913256185 -123336.72677263463,-95843.02265247947 -126254.42951057992,-109215.14159590453 -128132.82897391438,-123181.53938803209 -128890.09816563712,-137643.18807608343 -128453.24420468681,-152489.41645875014 -126759.62015656069,-167598.5449539808 -123758.40981179256,-182838.70118417486 -119412.06514243937,-198068.81827747775 -113697.67539825646,-213139.81574605126 -106608.2462460661,-227895.96052292886 -98153.86702892085,-242176.4033373297 -88362.74414563876,-255816.8831056874 -77282.07874384902,-268651.58943656937 -64978.76739645419,-280515.17071908066 -51539.90520548911,-291244.87261565856 -37073.071859005315,-300682.78914294776 -21706.382562996285,-308678.20593229955 -5588.287485204953,-315090.0127496472 11112.894619090497,-319789.1599596569 28209.720581489073,-322661.1313788 45496.65412320417,-323608.403914582 62751.390666380146,-322552.8625719237 79736.4788095369,-319438.1378607547 96201.23814273313,-314231.8313985286 111883.96936901685,-306927.5946035261 126514.44879144688,-297547.024853631 139816.6951547564,-286141.3433724599 151511.99263729973,-272792.8194290164 161322.14951619282,-257615.90622369613 168972.96772438634,-240758.05510370084 174197.89423420426,-222400.1765212424 176741.8209922987,-202756.7184298744 176364.9960533811,-182075.33561375097 172847.00467402922,-160636.12676133952 165990.77549453735,-138750.41992265245 155626.56361829783,-116759.09131381568 141615.85945691846,-95030.40723442698 123855.16970707211,-73957.38411378911 102279.61482247798,-53954.66736653089 76866.28589977005,-35454.93577357597 47637.303065695094,-18904.844460679145 14662.517286501716,-4760.526166228087 -21938.201934880883,6517.322692013859 -61993.149211344105,14468.737696580589 -105277.49042788564,18640.123407684376 -151512.54565924066,18590.18423015363 -200365.6953782541,13896.094925839063 -251450.95291530434,4159.849908284592 -304330.2407195859,-10985.275848979012 -358515.40173415566,-31868.227351471694 -413470.9701504255,-58773.71000930783 -468617.71798779856,-91935.85315121863 -523336.9853958827,-131532.08387593305 -576975.7933577521,-177677.30172253278 -628852.727652798,-230418.44696521788 -678264.5725987396,-289729.5566630444 -724493.6623282592,-355507.4028382447 -766815.906271882,-427567.80624233483 -804509.4342315191,-505642.71703090717 -836863.7950655858,-589378.1502509132 -863189.6317027867,-678333.0593047701 -882828.7441022805,-771979.2244644476 -895164.4410347402,-869702.226050966 -899632.0713294026,-970803.5630717713 -895729.6156780364,-1074503.9679385042 -883028.2113721269,-1179947.9564071153 -861182.4746390502,-1286209.639146174 -829940.4786997219,-1392299.8074218505 -789153.2404537682,-1497174.2903834756 -738783.564962546,-1599743.5654557913 -678914.0947907567,-1698883.5865263285 -609754.4109193321,-1793447.7771119818 -531647.0334779572,-1882280.11766958 -445072.1740720291,-1964229.2378705514 -350651.09708559106,-2038163.406196265 -249147.95509842527,-2102986.290850152 -141469.97350940527,-2157653.3479601946 -28665.871632889754,-2201188.675608078 88077.57807240645,-2232702.1556252544 207440.93440251183,-2251406.6896039844 327979.4784878371,-2256635.321450008 448132.65386047977,-2247858.026320406 566235.5751551788,-2224697.935210045 680532.6006660148,-2186946.756032534 789192.9379810599,-2134579.146035634 890328.22455824,-2067765.7870336564 982011.9966375915,-1986884.9144489288 1062300.9305874764,-1892532.053729552 1129257.710964235,-1785527.723524699 1180975.3495621048,-1666922.8741958567 1215602.749904005,-1538001.8429352788 1231371.28235692,-1400282.623027672 1226622.1067493923,-1255514.2646644027 1199833.9524398053,-1105671.2481961437 1149651.0406598432,-952944.6977390124 1074910.8110710795,-799730.3335324891 974671.0942587722,-648613.0952370568 848236.354776127,-502348.4052566873 695182.6157650147,-363840.08092496515 515380.66652061127,-236114.94670081016 309017.1490209181,-122294.24202506409 76613.11876275677,-25561.966786187222 -180960.32044512808,50869.64602384225 -462469.6985034378,103797.29241677062 -766310.5535494986,130066.10748062386 -1090502.8539177065,126611.18817025328 -1432690.795891683,90500.74604371136 -1790147.2731723266,18980.46122508813 -2159783.2756998357,-90481.43481768724 -2538162.43141143,-240148.8608343225 -2921520.854853499,-431972.9219359862 -3305792.4115385776,-667547.8632934762 -3686639.446869417,-948068.552031568 -4059488.9637544355,-1274290.1198891741 -4419574.164205295,-1646490.414743313 -4761981.197817929,-2064435.9176020771 -5081700.88475572,-2527351.782581909 -5373685.103419613,-3033896.6501772 -5632907.454224899,-3582142.868351741 -5854427.731698557,-4169562.7312542037 -6033459.6584200915,-4793021.311391696 -6165441.257166238,-5448776.417690304 -6246107.163048729,-6132486.158937817 -6271562.106554473,-6839224.529661058 -6238354.732339131,-7563505.363679107 -6143550.858532773,-8299314.919660209 -5984805.228336366,-9040153.27339048 -5760430.760957077,-9779084.593669822 -5469464.273556264,-10508796.273452237 -5111727.620935313,-11221666.775853604 -4687883.186166958,-11909841.936903099 -4199482.654230731,-12565319.34449339 -3649008.012769691,-13180040.287103236 -3039903.750089857,-13745988.637855357 -2376599.261080983,-14255295.910781927 -1664520.5273202853,-14700351.598358478 -910090.2085428573,-15073917.774080234 -120715.3690694634,-15369246.822822884 695237.8353638366,-15580201.046740528 1528483.067861355,-15701372.787347443 2368866.743350687,-15728203.607060717 3205435.26396274,-15657100.987718116 4026516.6772499406,-15485550.931269703 4819816.706291051,-15212224.790775588 5572528.918491474,-14837078.619754061 6271458.608343379,-14361443.306456061 6903159.770318183,-13788103.758299457 7454084.333397941,-13121365.421852652 7910742.620683503,-12367106.466595724 8259873.788407329,-11532814.027197612 8488624.791057734,-10627602.989985568 8584736.21587448,-9662215.925157422 8536733.133509438,-8649002.90732059 8334118.925076097,-7601880.133071226 7967569.872119364,-6536266.435163071 7429128.138245533,-5468997.007638177 6712390.632291953,-4418213.89404189 5812691.125978062,-3403233.0500889663 4727272.906890935,-2444388.071112744 3455449.1832269207,-1562850.9711578095 1998748.4225904066,-780430.7121590907 361041.8057971815,-119350.50541912712 -1451349.9897477697,397994.7596622157 -3429573.3920032745,749299.2664720162 -5562184.527460947,912623.1687764311 -7835120.262677661,866683.2648684416 -10231699.96205367,591154.7477636138 -12732659.999586966,66981.01204299706 -15316222.79141971,-723311.8047547344 -17958201.804956466,-1795299.1499400209 -20632143.650357947,-3162345.112116647 -23309507.97304448,-4835296.290513511 -25959885.443804033,-6822186.750521449 -28551253.689110503,-9127958.487331176 -31050270.521818895,-11754201.923096986 -33422603.325619724,-14698921.017225707 -35633292.92017388,-17956327.570231725 -37647149.69294656,-21516669.245525327 -39429179.23416959,-25366095.717394717 -40945034.15935887,-29486567.17474051 -42161488.25607173,-33855809.16682673 -43046928.555243425,-38447317.46816385 -43571860.40990406,-43230416.264041066 -43709420.17305024,-48170372.516413406 -43435889.60982023,-53228568.86288621 -42731205.764876775,-58362736.83136505 -41579459.64203069,-63527251.5224165 -39969376.74754006,-68673488.22430979 -37894772.30890773,-73750240.68685786 -35354973.81475859,-78704199.99524847 -32355203.435506232,-83480492.16075477 -28906912.885457274,-88023271.68914346 -25028063.380557805,-92276367.50828734 -20743343.537195414,-96183976.74330875 -16084318.350503359,-99691400.93074262 -11089502.788630161,-102745818.37358016 -5804354.044533906,-105297085.46823484 -281177.09991357295,-107298558.99452062 5421061.023491484,-108707930.56318527 11237012.123579666,-109488063.67519791 17095325.6578549,-109607823.17585617 22919127.40603825,-109042886.2977944 28626598.679007668,-107776523.99301617 34131655.595156275,-105800340.86761558 39344726.668049656,-103114961.76593094 44173625.60837796,-99730652.91479543 48524514.85099603,-95667865.54376736 52302953.88826504,-90957690.05318773 55415025.039176084,-85642209.11668006 57768527.82648461,-79774738.5851305 59274231.68901106,-73419945.71024567 59847175.34222896,-66653835.03094756 59407999.73685245,-59563593.26638296 57884300.272811174,-52247285.7346609 55211982.72546354,-44813398.16348849 51336606.253389135,-37380219.27259511 46214695.903543904,-30075061.180352706 39815006.23097877,-23033316.508337382 32119717.026816443,-16397353.014854614 23125541.719478577,-10315248.666620348 12844728.798357068,-4939372.238896363 1305936.6234809137,-424816.79838255706 -11445037.75585114,3072304.2527312282 -25344694.632485334,5396686.533663273 -40311450.59477353,6395775.037267985 -56245457.40893233,5921798.724752465 -73028636.48995437,3833880.3140367507 -90524942.98784554,200.00000011086132" stroke="white" stroke-width="1.5" /></svg>