<?xml version="1.0" encoding="utf-8" ?>
<svg baseProfile="full" height="400" version="1.1" width="400" xmlns="http://www.w3.org/2000/svg" xmlns:ev="http://www.w3.org/2001/xml-events" xmlns:xlink="http://www.w3.org/1999/xlink"><defs /><rect fill="black" height="100%" width="100%" x="0" y="0" /><circle cx="200" cy="200" fill="yellow" r="10.02053748892755" stroke="orange" stroke-width="2" /><polyline fill="none" points="199.0312734481251,200.0 198.93026642677765,199.9438438740361 198.83012109816494,199.8768339862604 198.73195385089628,199.79882033661102 198.63692507051417,199.70977131260526 198.54622744749204,199.60978173312475 198.46107309357225,199.49907984891237 198.38267954668834,199.37803314251596 198.31225476390924,199.24715277480362 198.2509812210848,199.10709653176622 198.19999925692605,198.9586701341685 198.16038981786969,198.80282678376327 198.133156777994,198.6406648332502 198.11920902520384,198.47342348293424 198.11934252060695,198.30247642507584 198.13422255218825,198.12932337715247 198.16436641627035,197.95557946756307 198.210126770555,197.78296246156845 198.27167591050468,197.61327784129702 198.34899122618708,197.44840178125344 198.44184209923108,197.29026208970916 198.5497784990066,197.14081721635748 198.67212153334333,197.00203345737935 198.80795620187837,196.87586052025878 198.9561265893233,196.7642056419478 199.11523372146922,196.66890648492696 199.28363628853288,196.59170306593248 199.45945441846624,196.53420900119946 199.64057665712704,196.4978823795662 199.82467028280732,196.4839966002464 200.00919504966024,196.49361153505384 200.19142041822676,196.52754539490337 200.3684462917638,196.5863476970678 200.53722723469923,196.6702737425092 200.69460010461802,196.77926102120855 200.83731498210557,196.91290796739872 200.96206923398347,197.07045548560666 201.06554449545823,197.25077166210446 201.1444463060072,197.45234006448368 201.1955460830319,197.6732520143754 201.21572506704436,197.91120319466927 201.20201982307438,198.16349492283598 201.15166883578885,198.42704038608898 201.062159691208,198.69837609217007 200.9312762966184,198.97367874162558 200.75714555305348,199.24878767374884 200.53828286227488,199.51923297918543 200.27363582326547,199.78026930789437 199.9626254525429,200.02691533219323 199.6051842487945,200.253998751527 199.201790416053,200.4562066490309 198.75349756146232,200.62814093061561 198.26195919414138,200.76437849600154 197.72944737119062,200.8595357087364 197.15886486586717,200.90833664970904 196.553750271648,200.9056845570325 195.91827550448002,200.84673577548932 195.2572352240367,200.72697546213476 194.5760277632005,200.54229422229457 193.8806272330805,200.28906478326266 193.1775465583329,199.96421775269144 192.4737912939166,199.56531545617 191.77680417908635,199.09062280497994 191.09440049665332,198.53917411164554 190.43469442444217,197.9108347487512 189.8060166904052,197.20635653661125 189.21682397185447,196.42742574868726 188.67560061142868,195.5767026410017 188.1907533562946,194.65785144391612 187.7704999611433,193.6755598021176 187.42275262811967,192.6355467119274 187.15499738617626,191.54455808437856 186.97417063663855,190.4103491579976 186.8865342091284,189.24165309675897 186.8975503804881,188.04813523595104 187.01175840703505,186.84033258116455 187.2326542054206,185.629578322541 187.56257488765252,184.42791129680776 188.0025899096144,183.24797051226656 188.55240062790122,182.10287504533787 189.2102500753238,181.0060898198125 189.97284475948177,179.97127798971437 190.83529026000784,179.01214086150745 191.7910423472632,178.14224650895335 192.83187526747324,177.37484845171926 193.9478687358223,176.72269598415718 195.12741504944603,176.19783795067627 196.35724757643388,175.81142196584514 197.6224916950621,175.5734912677244 198.9067390500345,175.4927815688112 200.1921457603872,175.5765204272235 201.4595549581465,175.83023179820555 202.6886437594247,176.25754853960305 203.85809447238782,176.860035731616 204.94578953179754,177.63702772801406 205.92902932036426,178.58548188039023 206.7847716960574,179.69985186645087 207.48989169527218,180.9719835055893 208.02145952814257,182.39103585816264 208.35703462842744,183.94343027745757 208.4749731706665,185.61282991415075 208.35474612632936,187.38015196145392 207.97726460329625,189.223614674872 207.32520890419144,191.11882090390367 206.38335745393115,193.03887953492602 205.13891149047157,194.95456586636388 203.58181119027196,196.8345215210621 201.7050387164592,198.645494049192 199.50490353798384,200.35261589127407 196.98130527686737,201.91972185885336 194.13796930234193,203.30970375449272 190.98265030928982,204.48490019813022 187.52729919748663,205.40751915911414 183.7881887108029,206.04009011857477 179.78599350420532,206.3459422118981 175.5458205829482,206.28970413306675 171.0971864038664,205.8378210290586 166.4739373434841,204.959083081194 161.71411072122964,203.62515996940004 156.85973411697887,201.81113495308037 151.95656133809808,199.49603188698086 147.05374406880884,196.66332813043684 142.20343896976627,193.30144601185984 137.46035078291106,189.4042152852075 132.88121282963687,184.97129886906723 128.52420716180717,180.00857409897537 124.44832752689484,174.52846175620766 120.71268923131522,168.5501952673044 117.37579091980773,162.10002270300478 114.49473422260948,155.21133454705537 112.12440814454798,147.92471065747787 110.31664596881313,140.287880407089 109.11936331027792,132.35559066684985 108.57568676565344,124.18937708410408 108.7230833570536,115.85723500561325 109.59250163815257,107.43318739867372 111.20753591454486,98.99674822707752 113.5836255088766,90.63228093524623 116.72730136391732,82.42825297486515 120.6354925106807,74.47638866349344 125.29490502245207,66.87072408202812 130.68148601858206,59.706569184104694 136.759985064778,53.0793837905326 143.48362493133232,47.083575659310355 150.7938931108108,41.811230338919955 158.6204647574458,37.350784010581066 166.88126678902768,33.78565198401381 175.48269178771613,31.192826910269048 184.31996905040052,29.641462092896603 193.2776986758559,29.191456493323358 202.23055294128912,29.892059115761327 211.044147423803,31.780511399343567 219.576082374315,34.88074701891145 227.67715276665606,39.20216908002544 235.1927232397394,44.73852506838196 241.96426184520064,51.46690006019307 247.83102412870915,59.34684860112313 252.6318766346385,68.31968530185367 256.2072464576385,78.30795356532026 258.4011809997159,89.21509094364838 259.0634996584419,100.92530841422632 258.0520168032726,113.30369935968459 255.2348131264629,126.19659223468767 250.49253031750425,139.4321588059011 243.72066204089765,152.82128746661684 234.83181243218615,166.15872846465555 223.75789180213172,179.22451495581728 210.4522179887519,191.78566062411366 194.89149085565498,203.59813121725904 177.07760683502178,214.40908375890535 157.03928018509976,223.95936344936428 134.83343780285657,231.98624438989935 110.54635502713568,238.22639630177824 84.2945009072464,242.41905540362688 56.22506291327005,244.30937360615033 26.516123039723226,243.65191623199775 -4.623540289245398,240.2142746231778 -36.955047165569454,233.78075631389595 -70.21042722833295,224.15611197959808 -104.09406212850564,211.16925518105177 -138.2845704383426,194.67692806363047 -172.4371412517525,174.56726370443425 -206.1863175604597,150.7631937804125 -239.14922497019063,123.2256487143515 -270.9292354860263,91.95649649502569 -301.1200499980164,57.00116601214904 -329.3101767953666,18.45090104094072 -355.08777699474047,-23.555408005005717 -378.0458412561986,-68.82986572633888 -397.7876556554032,-117.13473551144341 -413.9325081643815,-168.18217091722653 -426.12158095112443,-221.6345561326757 -434.0239677298248,-277.10549220513104 -437.34274977086545,-334.1614601364688 -435.8210590063019,-392.32418562341604 -429.24805203717085,-451.0737231511022 -417.46471485744746,-509.8522693904471 -400.3694148482533,-568.0687074482057 -377.9231141545023,-625.1038745348804 -350.15415701982636,-680.3165361230723 -317.1625431040609,-733.0500397511365 -279.1235993136627,-782.639611379219 -236.29096430368804,-828.4202467322166 -188.99880261528438,-869.7351394821287 -137.66316943898636,-905.9445775550944 -82.7824522732152,-936.435228428405 -24.936822297337102,-960.6297241496295 35.21336389672726,-977.9964471088426 96.93026248314138,-988.0594084754935 159.4023804384775,-990.4081028260539 221.74958187339467,-984.7072149907945 283.02927846275213,-970.7060486905657 342.2438060996759,-948.247541267245 398.3489752788373,-917.2767248799544 450.2637672700024,-877.8484920815063 496.8811320116813,-830.1345228351297 537.079826991173,-774.4292308983803 569.7372193529679,-711.1545901938628 593.7429562801508,-640.8637063935196 608.0133915253007,-564.2430055360187 611.5066390440481,-482.11292012591264 603.2381082328102,-395.42696385796876 582.2963595285386,-305.2690988755956 547.8591043358224,-212.84931428853764 499.2091596531517,-119.49735149504676 435.75015562494434,-26.654530602504423 357.0217837971374,64.13634718609862 262.7143653453879,151.24302408798118 152.68251221195817,232.95771623518345 26.957650154666027,307.512904099198 -114.24082861140238,373.0989105612405 -270.49601402021375,427.88316724981934 -441.1857544009823,470.03104209450737 -625.4769791931102,497.7280730987517 -822.3222761672675,509.20342544449807 -1030.4589170880886,502.7543615580816 -1248.4105082953047,476.7714870593432 -1474.491421857092,429.7645099684802 -1706.8141387958028,360.3882265532303 -1943.2996084793172,267.46842516526027 -2181.690697734499,150.02737974424986 -2419.568769742018,7.308587764286074 -2654.373396533952,-161.19960634489297 -2883.425170202977,-355.7418714665896 -3103.951537061429,-576.2756092090475 -3313.1155363234598,-822.4529099534019 -3508.0472808348554,-1093.6051205112626 -3685.877972397963,-1388.730391013489 -3843.7761988309117,-1706.4845562346538 -3978.9862145971765,-2045.1756888909558 -4088.867862214028,-2402.762639401105 -4170.937748296687,-2776.857848096053 -4222.911246644804,-3164.7346818944425 -4242.744861870641,-3563.339508081176 -4228.678451360315,-3969.30867316653 -4179.276771507481,-4378.9905050622865 -4093.469786818413,-4788.472402269515 -3970.5911583008574,-5193.6130147865715 -3810.414311136782,-5590.079458451251 -3613.185471593043,-5973.389437943673 -3379.653059995025,-6338.9580842895775 -3111.092830878478,-6682.149241085826 -2809.328163588049,-6998.330860562915 -2476.7449269828244,-7282.934096813487 -2116.3003708373562,-7531.51560992244 -1731.5255342030937,-7739.822522263035 -1326.5207075380445,-7903.8593978504705 -905.9435408347535,-8019.956548385473 -474.9894541858938,-8084.838906522295 -39.36408001078931,-8095.694649019579 394.75245280496125,-8050.24270085068 820.7494937871423,-7946.798207124753 1231.638109675422,-7784.335023843634 1620.1114895418068,-7562.544252101203 1978.6133104466703,-7281.887824280799 2299.4137449983355,-6943.646146014823 2574.692675730287,-6549.95880495419 2796.629562370564,-6103.857377472156 2957.499288167299,-5609.289397902048 3049.7731918753816,-5071.132602266176 3066.224374310063,-4495.198620031055 3000.036254124269,-3888.225363410314 2844.913238319549,-3257.857454151121 2595.192270654853,-2612.614132422932 2245.9539273019886,-1961.8442110337683 1793.1316455499277,-1315.667770185498 1233.6175998087401,-684.9044325997178 565.363681301734,-80.98821514750955 -212.52400470173814,484.1308800623385 -1099.698735916821,998.0981962134001 -2094.49648346371,1448.2781514632306 -3193.8705424813024,1821.8896559729926 -4393.339056598323,2106.1523113131475 -5686.946954995104,2288.442292423477 -7067.243743287314,2356.456618083954 -8525.27848884337,2298.384324717997 -10050.613217114003,2103.0828728858423 -11631.355788079461,1760.257938719796 -13254.21315127269,1260.6445765682422 -14904.565684586603,596.1875870609335 -16566.563107109334,-239.78121049112497 -18223.242220774766,-1252.3712181874157 -19856.666481222466,-2444.969322375659 -21448.08712682744,-3819.0867579534097 -22978.12530862367,-5374.2191938233545 -24426.974365372687,-7107.722670324037 -25774.621080214903,-9014.707998611495 -27001.084441391857,-11087.956177260945 -28086.670112934433,-13317.857291205552 -29012.23850573775,-15692.375231274553 -29759.48402908892,-18197.04040816288 -30311.222801682463,-20814.972432181417 -30651.6858138176,-23526.93448957534 -30766.81426331516,-26311.420867998142 -30644.553541288493,-29144.778768834352 -30275.142124835373,-32001.36519392982 -29651.391446548812,-34853.73931091414 -28768.952659937633,-37672.89028722893 -27626.56610971098,-40428.50014130022 -26226.28925051244,-43089.24069366115 -24573.698740901575,-45623.103215435214 -22678.06247463092,-47997.7588711347 -20552.477401607626,-50180.947542442686 -18213.96913892521,-52140.89210521436 -15683.54958002038,-53846.73471947601 -12986.22897876898,-55268.9911882262 -10150.979315932642,-56380.01895219775 -7210.646147828663,-57154.49382151468 -4201.8065906857555,-57569.890108687134 -1164.5716073175624,-57606.958428051825 1857.6686669008652,-57250.19507203279 4818.557197491822,-56488.2965718771 7669.139888470639,-55314.59280706223 10358.292230018276,-53727.45185036668 12833.20124465549,-51730.64963129336 15039.900430875974,-49333.69747531297 16923.854589475824,-46552.1206358647 18430.590588333707,-43407.68108514459 19506.36928541497,-39928.53807257658 20098.89299725992,-36149.34029976296 20158.04208175658,-32111.243999909362 19636.633410716986,-27861.85174941195 18491.19275122864,-23455.06747949624 16682.7323668074,-18950.863895270086 14177.524502099766,-14414.95934575492 10947.860840386338,-9918.402117463667 6972.787533442631,-5537.061140556353 2238.8050101923745,-1351.0231937433664 -3259.4785146003996,2556.10213632558 -9518.751076836292,6097.967253150732 -16526.46982777,9186.357334011365 -24260.413909804152,11732.142004206762 -32688.328280434274,13646.301458743777 -41767.66902300618,14841.019229900541 -51445.46012679486,15230.832446741986 -61658.27100133666,14733.829103586046 -72332.32310909002,13272.880566714659 -83383.73305632443,10776.89632107745 -94718.89827678788,7182.086810652384 -106235.03008028603,2433.219177104377 -117820.83732531322,-3515.150228891007 -129357.36232002635,-10697.48348129291 -140718.96877022408,-19136.12640956047 -151774.47969005367,-28840.249637784113 -162388.46118673583,-39804.88360862236 -172422.645942796,-52010.06592452621 -181737.4880685228,-65420.119170392994 -190193.8388061876,-79983.07697624872 -197654.73036047898,-95630.27542496355 -203987.25293305155,-112276.12599988205 -209064.5078810897,-129818.08509474524 -212767.6178297522,-148136.83367039956 -214987.77257686318,-167096.67893964637 -215628.28776664074,-186546.18799662424 -214606.65160941807,-206319.06108721317 -211856.5334182455,-226235.24975267588 -207329.72645266238,-246102.32238439494 -200997.9965358052,-265717.07682121306 -192854.80717332812,-284867.39652452065 -182916.89147970607,-303334.34360564896 -171225.6411356793,-320894.47858489276 -157848.28288382222,-337322.393264769 -142878.8137383049,-352393.43953872967 -126438.66715748572,-365886.633370367 -108677.08391762833,-377587.70961016434 -89771.16334222615,-387292.29981267307 -69925.57288886856,-394809.20182451606 -49371.896873952806,-399963.7066824664 -28367.60831916438,-402600.9453420785 -7194.651521128795,-402589.21500274155 13842.373040304585,-399823.24235649564 34418.42545241493,-394227.33901704923 54190.64404496832,-385758.40273256914 72801.35821826561,-374408.716799468 89881.48534714834,-360208.4994206692 105054.29516228694,-343228.1546333932 117939.51932471586,-323580.17690699216 128157.7781205884,-301420.6626146955 135335.29037558357,-276950.38334263145 139108.82689220444,-250415.37843717597 139130.8620225708,-222107.02732269964 135074.8724821113,-192361.56595362944 126640.72726655054,-161559.0162966212 113560.10763872619,-130121.50296114171 95601.89168720205,-98510.9369911499 72577.43400974516,-67226.05336843684 44345.66772526895,-36798.79592151445 10817.95334949806,-7790.051034130809 -28037.402838703023,19215.26025368788 -72191.03938709052,43613.71353047346 -121548.9178324476,64789.50848234842 -175949.26625546665,82121.15610129008 -235160.16422985043,94988.67977852875 -298877.8422821566,102781.27495995085 -366725.764990975,104905.36262521912 -438254.56173912383,100792.96261176658 -512942.8628788816,89910.30386552891 -590199.0916792996,71766.58019360286 -669364.2539121886,45922.752154774644 -749715.757330256,12000.288488813385 -830472.2826434291,-30310.265908282407 -910799.715970212,-81241.01387235535 -989818.1402089561,-140938.84443814453 -1066609.8694344782,-209458.11166941424 -1140228.4963905348,-286753.9813456007 -1209708.9085462731,-372676.57323644613 -1274078.2131584934,-466966.02536127233 -1332367.4964899695,-569248.6036331583 -1383624.326949764,-679033.9755563058 -1426925.896629426,-795713.7601201194 -1461392.6807056891,-918561.4576765881 -1486202.4796718636,-1046733.8533804873 -1500604.6955601089,-1179273.975717049 -1503934.6804442112,-1315115.6777657054 -1495627.9837898244,-1453089.8932018331 -1475234.3148691705,-1591932.6016972668 -1442431.0277004852,-1730294.519446793 -1397035.929024865,-1866752.510150911 -1339019.2049022636,-1999822.6900806807 -1268514.2587903484,-2127975.178020635 -1185827.2536470857,-2249650.4171394254 -1091445.152834649,-2363276.9714091304 -986042.0595419811,-2467290.6743409703 -870483.6622058947,-2560154.9828084796 -745829.604088434,-2640382.3638905208 -613333.6088235996,-2706556.518305021 -474441.2104092294,-2757355.2204553974 -330784.95578389225,-2791573.5327227563 -184176.97075041186,-2808147.130763893 -36598.80550389668,-2806175.4575795094 109811.49573177607,-2784944.407360985 252775.12562645494,-2743948.2259655353 389891.03669190244,-2682910.3036592053 518657.2124037131,-2601802.5278418367 636494.6055061525,-2500862.8591459417 740773.6238894514,-2380610.7938784887 828843.004710986,-2241860.3795160777 898060.877034671,-2085730.458103621 945827.7726445048,-1913651.8251365721 969621.3043387539,-1727371.008976862 967032.1914508165,-1528950.3981629089 935801.2741161971,-1320764.471170866 873857.1214772305,-1105491.9152568541 779353.8051673415,-886103.4578858954 650708.3786315747,-665845.2757953235 486637.57570829213,-448217.89274468494 286193.21900046454,-236950.5271969851 48795.81047222564,-35970.9052136427 -225734.23603571128,150629.38868684665 -537148.267552786,318633.8895440221 -884744.5176971995,463744.3628787383 -1267347.2268272478,581627.7879864051 -1683290.2846837312,667966.8874047037 -2130405.902713197,718513.8103624183 -2606018.794686669,729146.5124757108 -3106946.30778647,695927.3097214779 -3629504.901950903,615163.0226705854 -4169523.3229632536,483466.06802550034 -4722362.754669252,297815.79961821105 -5282944.1680279495,55619.35113984401 -5845783.00978432,-245228.81105193004 -6405031.291840004,-606289.4537215804 -6954527.054456845,-1028524.1190064265 -7487851.082930589,-1512244.5214719316 -7998390.659111479,-2057066.6892368507 -8479410.027028153,-2661870.73902676 -8924127.146902025,-3324767.164578978 -9325796.205137214,-4043070.4957488095 -9677795.24064784,-4813281.1514519565 -9973718.14143757,-5631076.26283274 -10207470.161053456,-6491310.183515271 -10373366.003839063,-7388025.331359267 -10466229.432302803,-8314473.9208401935 -10481493.260927908,-9263151.047204731 -10415298.519931264,-10225839.473288303 -10264591.501380133,-11193666.34786829 -10027217.34023638,-12157171.951397005 -9702008.73581505,-13106390.421829857 -9288868.386257058,-14030942.261138795 -8788843.691286447,-14920138.263271812 -8204192.278006082,-15763094.338255208 -7538436.92191827,-16548856.536488945 -6796408.471717992,-17266535.403869037 -5984275.442519427,-17905448.62415724 -5109559.01865785,-18455270.732123967 -4181132.304479279,-18906188.51165252 -3209202.7797655445,-19249060.529554248 -2205277.055580392,-19475579.100738794 -1182107.1860296472,-19578432.836094275 -153617.97109716202,-19551467.793481354 865185.1155502152,-19389845.137152486 1858327.523296077,-19090193.1141726 2808996.662385086,-18650751.080464866 3699692.0518125594,-18071503.256280366 4512393.9862935925,-17354299.863394115 5228749.861246397,-16502963.29620335 5830277.017278972,-15523377.007979374 6298580.683801387,-14423554.85340144 6615585.318306283,-13213688.720489694 6763777.357009755,-11906172.410169613 6726457.117565462,-10515599.880598491 6487997.32927123,-9058736.16635533 6034105.514527406,-7554459.509517072 5352087.211325938,-6023673.499972685 4431106.814339625,-4489188.315054505 3262442.6258439887,-2975570.4722283757 1839732.5512884704,-1508960.8612226404 159206.75178713092,-116861.20114305249 -1780096.5190785027,1172110.529115128 -3976135.7103927773,2328494.7159291445 -6423695.21631243,3322293.3810822456 -9114242.83265476,4123300.2355200443 -12035819.096046496,4701455.197174071 -15172962.023254886,5027220.593356635 -18506670.563712046,5071975.8120551 -22014409.81872118,4808426.719969823 -25670160.765948556,4211025.734551017 -29444516.857768588,3256398.029016771 -33304829.437748037,1923768.9699504988 -37215403.44268122,195387.5432364541 -41137744.33052147,-1943059.7775473471 -45030856.60049976,-4502050.519017959 -48851593.654668756,-7487849.048563777 -52555058.094858184,-10902156.900332926 -56095050.86116489,-14741796.788524792 -59424566.904013194,-18998436.506533828 -62496334.34861623,-23658358.829827324 -65263393.36620806,-28702283.378273405 -67679710.21919346,-34105246.14653018 -69700821.20649698,-39836542.07644873 -71284500.510515,-45859735.62152322 -72391445.24830204,-52132743.739563085 -72985970.36734913,-58607995.14628181 -73036705.41127264,-65232668.970966294 -72517284.62371323,-71949015.17846456 -71407021.37055705,-78694758.26337136 -69691557.4519445,-85403584.7877355 -67363477.55681135,-92005714.32936591 -64422878.893919334,-98428552.34171578 -60877885.92387647,-104597422.30748016 -56745100.125231415,-110436373.4068656 -52049974.86211651,-115869058.72955482 -46827105.68789934,-120819677.84949784 -41120426.82441804,-125213976.36764237 -34983305.10384756,-128980293.82440847 -28478523.352785464,-132050650.20678483 -21678146.036873784,-134361860.14082694 -14663260.968524555,-135856662.78598645 -7523592.007612822,-136484854.450526 -356978.95088818495,-136204410.0448076 6731277.796127645,-134982578.69907668 13629208.649385767,-132796938.21184121 20219101.628785234,-129636392.4809664 26378562.00826158,-125502095.71840759 31981700.528864447,-120408287.07628666 36900443.98183997,-114383019.33095893 41005960.030896954,-107468765.495385 44170186.17635429,-99722887.66941229 46267450.79127043,-91217953.10161614 47176172.205042735,-82041883.33170155 46780619.89893384,-72297923.41376546 44972720.03710491,-62104419.589383 41653885.813769765,-51594395.38472291 36736851.480074264,-40914917.943225086 30147487.45202746,-30226248.467857767 21826572.621572,-19700772.92365832 11731498.925121611,-9521711.628542703 -162117.60523641016,118390.97949927155 -13858945.646549419,9019392.28820494 -29342593.858699564,16975486.09894938 -46574439.20120188,23777335.715079885 -65492654.495708436,29214392.238805495 -86011460.71417499,33077381.58874425 -108020628.38490015,35160940.54535624 -131385251.04438847,35266378.956756845 -155945811.81573474,33204542.134587213 -181518561.96076477,28798744.481891576 -207896227.63599324,21887742.56740866 -234849058.0878334,12328713.239031415 -262126225.1629673,200.0000003210123" stroke="white" stroke-width="1.5" /><circle cx="150.12137650011238" cy="203.4817980637104" fill="red" opacity="0.7" r="14.854497299884601" /></svg>