<?xml version="1.0" encoding="utf-8" ?>
<svg baseProfile="full" height="400" version="1.1" width="400" xmlns="http://www.w3.org/2000/svg" xmlns:ev="http://www.w3.org/2001/xml-events" xmlns:xlink="http://www.w3.org/1999/xlink"><defs /><rect fill="black" height="100%" width="100%" x="0" y="0" /><circle cx="200" cy="200" fill="yellow" r="11.561119341931011" stroke="orange" stroke-width="2" /><polyline fill="none" points="198.79987282148434,200.0 198.725881153188,199.93311458082127 198.6557461245721,199.8584756156977 198.5903666668014,199.7763570673865 198.5306351177141,199.68713983959003 198.47742542756768,199.59131405403278 198.43158079531045,199.48948011650177 198.3939008507723,199.38234847731783 198.36512851153913,199.27073800161256 198.3459366559349,199.1555728764044 198.33691476528767,199.0378779947769 198.3385556992849,198.9187727724023 198.35124277753096,198.79946336815223 198.37523734819163,198.68123329849294 198.4106670306577,198.56543245464692 198.45751482328055,198.45346455196886 198.51560926925745,198.34677306245229 198.5846158734988,198.2468257035576 198.66402996064969,198.15509757940606 198.75317115923437,198.07305309357497 198.85117968903737,198.0021267759889 198.9570146182507,197.9437031894468 199.06945424355203,197.89909610385303 199.1870987301114,197.86952714791806 199.30837512957135,197.85610416863582 199.43154487235182,197.8597995478949 199.5547138062883,197.88142874280717 199.67584482673902,197.92162933139747 199.79277311406568,197.98084085786616 199.90322396300132,198.05928578138275 200.00483315512133,198.15695183898836 200.09516979070804,198.27357613638299 200.1717614600798,198.40863127988177 200.232121597297,198.56131385840246 200.2737788214676,198.73053557578544 200.2943080330805,198.9149173208764 200.2913629953632,199.11278644549387 200.26271009407884,199.32217749857352 200.20626293396086,199.54083663840245 200.12011739665724,199.76622991394703 200.0025867541654,199.99555557092359 199.8522364038298,200.22576049860186 199.66791776659014,200.45356088957055 199.4488008698563,200.6754671371064 199.1944051206623,200.88781294370327 198.9046277641275,201.08678856014177 198.57976951719596,201.26847801767667 198.22055686857485,201.42890015702113 197.82816054313616,201.56405319740543 197.40420964312446,201.66996252773376 196.95080099959807,201.74273134046211 196.47050329583263,201.77859366802468 195.96635556006285,201.77396932224556 195.44185966798116,201.72552018001724 194.90096654580964,201.63020720446912 194.34805582237857,201.4853475407684 193.78790874325097,201.2886709804807 193.2256742311882,201.0383750489572 192.66682805471936,200.7331779373865 192.1171251497056,200.37236847580283 191.58254522692937,199.9558523262967 191.06923189112027,199.48419356769602 190.58342559259634,198.9586508447818 190.13139083088072,198.3812072673059 189.71933812919258,197.7545932672332 189.3533413984608,197.08230165718174 189.03925140823964,196.36859417931902 188.78260617832368,195.61849889219383 188.58853919760813,194.83779781322463 188.46168646442365,194.03300431674953 188.40609342375635,193.21132988145567 188.42512295000535,192.38063988625728 188.52136558778318,191.54939826973546 188.696553316308,190.72660099436877 188.95147814378709,189.921698392074 189.28591686552284,189.1445066109763 189.69856333203973,188.40510853359368 190.1869695701887,187.71374469234456 190.7474970799108,187.0806948678961 191.37527959125038,186.5161512176402 192.0641985095834,186.0300839436467 192.80687220132796,185.6321006697993 193.59466017729986,185.33130085436588 194.41768311624585,185.13612671478134 195.2648595370516,185.0542122836583 196.12395977504661,185.09223234666007 196.98167774634464,185.25575313152484 197.82372079516418,185.54908672087413 198.63491771374964,185.9751512471625 199.39934480431816,186.53533899398147 200.10046961913434,187.2293945717691 200.72131177038872,188.0553053557774 201.2446199483208,189.00920636805688 201.6530640265472,190.08530175157193 201.9294408706353,191.27580492193502 202.05689220264838,192.57089938948192 202.01913261392292,193.95872212063762 201.8006855641581,195.42537115220563 201.3871249605821,196.95493898517572 200.76531968020984,198.52957306608224 199.92367818480182,200.12956441447128 198.85239018588933,201.73346517567776 197.5436621499572,203.31823557035077 195.99194329532207,204.85942037792074 194.19413862606484,206.33135473285975 192.14980547804967,207.70739863299275 189.86133002087587,208.9601991615684 187.3340801705633,210.06197901303767 184.57653142355775,210.98484949068848 181.6003622255656,211.7011457170171 178.42051564066654,212.1837813699332 175.05522428849704,212.4066198348822 171.52599577090857,212.3448582503063 167.85755611465942,211.97542052738171 164.07774911305359,211.2773550506819 160.2173898559873,210.23223242046313 156.31007119291655,208.82453828585685 152.39192237438976,207.0420560475642 148.50131966186527,204.87623398478183 144.67854927865022,202.32253118996152 140.96542369232336,199.38073658228262 137.40485286555378,196.05525522170808 134.04037278170978,192.35535616508062 130.9156342372654,188.29537619824228 128.07385558731335,183.8948739473665 125.55724382542242,179.17872912160425 123.40638906603581,174.17718197000707 121.6596381675069,168.92580844987214 120.35245387724343,163.4654271015888 119.51676648748972,157.84193420615952 119.18032555104021,152.1060644641689 119.36605971057017,146.3130751762947 120.0914531332331,140.52235272154405 121.36794740381845,134.79694101511157 123.20037800547475,129.20299257673878 125.58645469759153,123.80914384513902 128.5162951772878,118.6858174256662 131.9720213761643,113.90445504701225 135.9274275905027,109.53668611725655 140.3477293648872,105.65343789792063 145.18940164140255,102.32399444370049 150.40011414550327,99.61501257125188 155.91877130317343,97.58950420802138 161.67566317143883,96.30579551623156 167.59273291665232,95.81647417184519 173.58396529498896,96.16733708742066 179.55589938183178,97.39635168484497 185.40826746766282,99.5326445326826 191.03476059611486,102.59553174721029 196.32391967535557,106.59360600054391 201.1601494593163,111.52389526867574 205.4248509847405,117.37110857276343 208.99766627980443,124.10698390584271 211.75782734818034,131.68975328283443 213.58559959862077,140.06373939455676 214.36380805578509,149.15909767848964 213.97943287588413,158.89171673449525 212.3252589248228,169.16328890905126 209.30156248193103,179.86156154581744 204.81781653495239,190.86077785520325 198.79439465808164,202.0223145955702 191.1642521411193,213.1955217912836 181.8745618907646,224.21876754861208 170.8882816807985,234.9206886832026 158.18562861174559,245.1216453594689 143.76543617672698,254.6353752828703 127.646369141305,263.27084020402265 109.86797155191171,270.83425461527776 90.49152360847026,277.13128357517286 69.60068388780539,281.969393616165 47.30189449820617,285.1603377110534 23.7245281913695,286.5227523305323 -0.9792417384777252,285.88484175749886 -26.634865775693186,283.0871220738268 -53.04615121283186,277.9851946443498 -79.99631550895714,270.45251653364653 -107.24936839221687,260.38313314712957 -134.55182759835787,247.6943365319918 -161.6347693161431,232.32921124814715 -188.21621032082686,214.25902856551605 -214.00381445067137,193.48544900112736 -238.69791155710425,170.0424929142462 -261.99481237938767,143.9982390637943 -283.5903980074921,115.45621172959153 -303.1839577545845,84.55641823299486 -320.48224441970297,51.47600048393235 -335.2037111420981,16.429466545176183 -347.08288939500744,-20.331528850106793 -355.87486320456287,-58.51888236264887 -361.359790477445,-97.80924212066355 -363.3474184485266,-137.84572855597702 -361.68153678732165,-178.240189535534 -356.2443088995449,-218.57599758264837 -346.9604194963898,-258.4113907627959 -333.8009746458936,-297.2833521529849 -316.7870893317347,-334.71201577554996 -295.9930970845794,-370.20557951844955 -271.54931657417416,-403.26569795490707 -243.6443112052928,-433.3933201934275 -212.52657978866642,-460.0949300200775 -178.50561929243247,-482.8891377304768 -141.95230454466395,-501.31356528740105 -103.29853456739102,-514.931958884667 -63.03610098068839,-523.3414557568515 -21.71474061371839,-526.1799252585733 20.060657922170947,-523.1332979597461 61.633715438413645,-513.9427908785935 102.30110354725868,-498.4119321160065 141.31796848251116,-476.4132841747528 177.90422880067285,-447.89476225347335 211.25172694905453,-412.8854419016335 240.53220271813512,-371.5007497043366 264.9060442221555,-323.94693122348144 283.5317594015109,-270.5246923326958 295.57609825176803,-211.6319134146193 300.2247432068882,-147.76534069412958 296.6934724982263,-79.52116529894766 284.2396890443382,-7.594408492530505 262.17419567495614,67.22295908175695 229.8730864362899,144.04522538498156 186.7896135482339,221.8975210206546 132.46588047260371,299.721814297875 66.54420368985714,376.3843370742775 -11.222020648615938,450.6844446515764 -100.95811384877862,521.3648953698289 -202.6587472874121,587.1235169176886 -316.1795833322665,646.6262069095017 -441.23009643247383,698.5211951621684 -577.367743083149,741.4544745419519 -723.993643898217,774.0862864696945 -880.3499331592946,795.108526416345 -1045.5189208826732,803.26291424889 -1218.424199625297,797.3597543737003 -1397.8338129262695,776.297091554967 -1582.3655844758662,739.0800503540551 -1770.494686874772,684.8401296405532 -1960.5635062814945,612.8542088689128 -2150.793834469901,522.5630100958488 -2339.301392991884,413.5887493278808 -2524.11266545846,285.751703020943 -2703.1839836489626,139.0854106767652 -2874.4227815005083,-26.149767251702002 -3035.710898322123,-209.4550152895278 -3184.929779156035,-410.08362662075945 -3319.987386440916,-627.034029454283 -3438.846603414939,-859.0455281266613 -3539.5548764536543,-1104.5969941149617 -3620.274811213892,-1361.908721197807 -3679.315406513886,-1628.9476340011308 -3715.163580799407,-1903.4360101351526 -3726.5156193120624,-2182.863843162237 -3712.308146178619,-2464.5049368777745 -3671.748205067454,-2745.436781042246 -3604.3420152870713,-3022.564215032311 -3509.9219576972114,-3292.646839204782 -3388.6713370050825,-3552.3300844670957 -3241.1464643409527,-3798.179799060078 -3068.295606824842,-4026.7201583772703 -2871.474359481887,-4234.474649317406 -2652.4570096216244,-4418.009825792671 -2413.4434848914534,-4573.981477240883 -2157.0615038086858,-4699.182798002597 -1886.363581761404,-4790.594092949038 -1604.8185862617952,-4845.433504537939 -1316.297582571754,-4861.208199307563 -1025.0537645486982,-4835.765408485736 -735.6963254400721,-4767.342678686002 -453.1581890538348,-4654.6166553785 -182.6575928232262,-4496.749694736614 70.34640975709698,-4293.433579322957 300.2043796381006,-4044.929600606548 501.1326242365648,-3752.104267165869 667.2747130626103,-3416.459902238497 792.7679707343801,-3040.159408567616 871.8144519823812,-2626.0445027258597 898.755814257181,-2177.646755631639 868.1514158735034,-1699.1908210737242 774.8588824295844,-1195.5892898719062 614.1163027593516,-672.4286738500653 381.6251391686736,-135.94610097131977 73.63286646066845,407.00360946235025 -312.9857084381597,948.9907251075244 -780.6495482935361,1482.0633589596227 -1330.9960546170919,1997.8102186854846 -1964.810482186589,2487.4332341744466 -2681.9612972103687,2941.8298200937043 -3481.3426836955314,3351.6843940384797 -4360.825394405892,3707.56863026896 -5317.217119194071,4000.0497854785963 -6346.2335037223065,4219.806288129577 -7442.480895060637,4357.749638333771 -8599.451816950597,4405.151522871782 -9809.534086413074,4353.774911646477 -11064.0343748295,4196.007769654743 -12353.216890817075,3924.9978944837917 -13666.357719561147,3534.7872754851883 -14991.815194408371,3020.444269251753 -16317.11650235219,2378.191798907778 -17629.0605367001,1605.5297140709438 -18913.836809095104,701.3493961365166 -20157.160020814725,-333.96133834484704 -21344.419671790325,-1498.4249932172447 -22460.843857207932,-2788.39475032277 -23491.676168243448,-4198.49033328711 -24422.364378032824,-5721.551216321947 -25238.75935916686,-7348.608924338244 -25927.322447796123,-9068.880050203863 -26475.339244953615,-10869.781466227378 -26871.137631189216,-12736.969029863567 -27104.3075694042,-14654.400878517776 -27165.920086262395,-16604.42617585479 -27048.742658159652,-18567.899913249446 -26747.44808683898,-20524.324086410226 -26258.813835677687,-22452.015260628505 -25581.908713661003,-24328.298210830915 -24718.263743148233,-26129.724977324007 -23672.024032586676,-27832.31831790928 -22450.078498930023,-29411.838165396293 -21062.16434895651,-30844.069320305374 -19520.94333589556,-32105.128225941957 -17842.046959290517,-33171.786291577846 -16044.087972929241,-34021.80685400779 -14148.635808557701,-34634.29250334034 -12180.153812011407,-34990.039150802506 -10165.896522843055,-35071.8928900097 -8135.76560738326,-34865.10540409461 -6122.123476706007,-34357.68340485088 -4159.5640827943735,-33540.727362132886 -2284.64088527064,-32408.75459756953 -535.5525136537709,-30960.0016814195 1048.2127881445049,-29196.700990071175 2426.2722625092856,-27125.326258903322 3557.7810071188574,-24756.802005171532 4401.898718900434,-22106.671801979934 4918.287297831474,-19195.22056035687 5067.635175774322,-16047.54622445703 4812.203625758678,-12693.576606695477 4116.389715523661,-9168.027486119187 2947.3000042769563,-5510.298564614244 1275.3285523407174,-1764.3044207769024 -925.2676714020738,2021.7617813882355 -3675.8033305574813,5795.733385186538 -6992.616925778761,9501.844939665554 -10886.548675292917,13081.176495735699 -15362.452301563062,16472.16662531527 -20418.749084172727,19611.192375025774 -26047.032573652366,22433.213413189274 -32231.732293505196,24872.47664638412 -38949.84458213345,26863.276579832647 -46170.73843765833,28340.765685579838 -53856.04382278306,29241.808035788596 -61959.629361075655,29505.86846829543 -70427.67570884847,29075.928591254975 -79198.8501181094,27899.420017203545 -88204.58681728493,25929.164358527145 -97369.47683056559,23124.3087306966 -106611.76973851043,19451.244811376786 -115843.98865828663,14884.498907172392 -124973.6583998385,9407.579999570506 -133904.1453441751,3013.7723913442583 -142535.60610354767,-4293.140632656365 -150766.04047392623,-12498.23576862454 -158492.44259291745,-21574.90480519992 -165612.04258777812,-31484.419117738955 -172023.62935664077,-42175.61630621428 -177628.94349100394,-53584.721073218076 -182334.1277397484,-65635.3115792981 -186051.22085625282,-78238.44145628874 -188699.67918325053,-91292.9264053322 -190207.90893822728,-104685.80285730206 -190514.79088909106,-118292.96453431282 -189571.17797931397,-131979.98092957324 -187341.34549739747,-145603.09972947236 -183804.37261047016,-159010.43304976306 -178955.43351838386,-172043.3250631568 -172806.97615404814,-184537.89617757892 -165389.76627763317,-196326.75640457383 -156753.77500454083,-207240.8779604046 -146968.8882854377,-217111.61449541908 -136125.4176343788,-225772.85167984082 -124334.39248845165,-233063.27121808325 -111727.6159867454,-238828.707752783 -98457.46768144106,-242924.575589541 -84696.43873955483,-245218.33976069366 -70636.38755630066,-245592.00368921593 -56487.50637203291,-243944.58365056294 -42476.99245172299,-240194.53839958477 -28847.42063181239,-234282.12076989122 -15854.817542391136,-226171.616801798 -3766.4415466159494,-215853.43704848693 7141.723626885843,-203346.02418257654 16587.74948472189,-188697.54090893452 24286.801306141297,-171987.30251322952 29954.414018080864,-153326.91916484162 33309.98047414329,-132861.11436872053 34080.42288894093,-110768.18774032357 32004.01393916602,-87260.09257245171 26834.30993521648,-62582.10147861718 18344.15455219175,-37012.03673438422 6329.707948165226,-10859.045789299696 -9385.54724659818,15538.093225868974 -28946.874550568547,41813.14633944046 -52464.4808660986,67575.08398471541 -80009.89835310991,92411.22600775214 -111612.6084243173,115890.86471761762 -147256.96618642527,137569.35286065834 -186879.48382395046,156992.6367357362 -230366.53087861923,173702.2078025755 -277552.50807622523,187240.4391421203 -328218.5492600349,197156.26608465915 -382091.8030782682,203011.16331265937 -438845.34232420975,204385.3638602353 -498098.7442317292,200884.25876393003 -559419.3795868529,192144.90976752984 -622324.4422385343,177842.6015470765 -686283.743501082,157697.35450278473 -750723.2880706094,131480.31436426105 -815029.6394739996,99019.93077541782 -878555.073789182,60207.8337647978 -940623.5104902225,15004.314661111403 -1000537.19886212,-36556.68332694247 -1057584.1275928514,-94363.15989901315 -1111046.113990216,-158221.33193827604 -1160207.517905526,-227852.6792464278 -1204364.5140028845,-302891.85027799266 -1242834.8446289185,-382885.51164866704 -1274967.9643587943,-467292.21906647173 -1300155.4764730774,-555483.3798323835 -1317841.7513151753,-646745.3681800336 -1327534.6068532509,-740282.8444904768 -1328815.9229891128,-835223.3178639922 -1321352.053385317,-930622.9787123487 -1304903.8919850509,-1025473.8140260904 -1279336.4461378197,-1118712.0028670938 -1244627.7644726378,-1209227.5735513372 -1200877.0655260135,-1295875.2870549953 -1148311.9127705747,-1377486.693552435 -1087294.2832251086,-1452883.290850411 -1018325.3803660504,-1520890.6950097259 -942049.0476940331,-1580353.7148513978 -859253.6471074633,-1630152.2035523995 -770872.2762461145,-1669217.542383162 -677981.211214981,-1696549.594073663 -581796.4755797068,-1711233.9465750773 -483668.45320920885,-1712459.2523743405 -385074.4813686007,-1699534.454287866 -287609.38134561916,-1671905.6760776744 -192973.90670418827,-1629172.5455652669 -102961.11384497432,-1571103.7094264864 -19440.685727963206,-1497651.2927858878 55658.732842977945,-1408964.0533299402 120369.10130987434,-1305398.9791451767 172704.33426013228,-1187531.0820601953 210683.2905439015,-1056161.1441038891 232354.22380233812,-912321.1839317853 235820.48755976564,-757277.4228320887 219267.25855364653,-592530.5462786631 180989.01346199473,-419813.07698844984 119417.46705796928,-241083.69905949125 33149.65450600336,-58518.39996254523 -79024.18255059877,125501.67216462802 -218093.26683647785,308405.70446443843 -384799.8912049679,487452.09995463415 -579614.35100006,659750.7341619787 -802711.6044607527,822288.536595477 -1053950.068022812,971958.3010546973 -1332852.9540888537,1105590.582156273 -1638592.554531967,1219988.4875009547 -1969977.8635881005,1311965.1261009895 -2325445.918642597,1378383.424593983 -2703057.216543796,1416197.9739757092 -3100495.5363581018,1422498.5217178941 -3515072.4668573206,1394554.677855333 -3943736.8985104687,1329861.359611536 -4383089.695423234,1226184.4580829316 -4829403.712691418,1081606.1731278393 -5278649.269252926,894569.4296187448 -5726525.125863411,663920.7603194343 -6168494.952696778,388951.01852961036 -6599829.201778093,69433.26796192578 -7015652.226580367,-294342.811295167 -7410994.41532025,-701540.662838859 -7780849.026522052,-1150751.394940093 -8120233.336106668,-1639973.7615237925 -8424253.625499971,-2166600.1973596383 -8688173.461006077,-2727409.4875305225 -8907484.636974068,-3318566.6075917943 -9077980.080172434,-3935630.2175843227 -9195827.941383103,-4573568.230238357 -9257646.033671409,-5226781.801442767 -9260575.716234587,-5889138.009623108 -9202354.269333571,-6554011.400470835 -9081384.76071442,-7214334.475029491 -8896802.368244106,-7862657.093144987 -8648536.09829576,-8491214.651538884 -8337364.825735258,-9092004.777215378 -7964966.580127055,-9656872.153651752 -7533960.014840845,-10177600.970466454 -7047937.021842039,-10646014.358349979 -6511485.495705026,-11054080.041443171 -5930201.306271536,-11394021.310618578 -5310688.610708088,-11658432.294926727 -4660547.722639045,-11840396.386546234 -3988349.8585147006,-11933606.558729887 -3303598.199177183,-11932486.208316302 -2616674.8372781924,-11832309.056251727 -1938773.3281228472,-11629316.553114025 -1281816.7217921175,-11320831.16371163 -658361.1269314267,-10905363.84725514 -81485.04006040022,-10382714.009113645 435335.13289197796,-9754060.178418625 878362.7356616769,-9022039.66429422 1233750.8680801997,-8190815.463644313 1487703.6970792573,-7266128.736418191 1626647.8188938538,-6255335.231098655 1637412.2099783767,-5167424.134576046 1507415.0992248645,-4013017.9370979453 1224855.896161359,-2804352.04485082 778910.121842264,-1555233.0398666954 159925.1141268026,-280974.67897067656 -640385.8799798627,1001689.060329511 -1628753.752226096,2274714.3398335474 -2810170.366474411,3518881.4184003337 -4187714.915656499,4713952.1185379 -5762392.605533423,5838850.41439761 -7532988.5030405205,6871865.440052502 -9495939.388582489,7790875.890962261 -11645226.41802243,8573594.456492964 -13972291.329330537,9197830.58082475 -16465978.819329632,9641769.507420337 -19112507.56644926,9884265.222581545 -21895472.18506914,9905144.58088921 -24795878.165524736,9685519.574102256 -27792211.58129199,9208104.40015532 -30860545.031897593,8457533.705120148 -33974680.93791122,7420678.113336265 -37106332.91471576,6086952.934322302 -40225345.52696258,4448615.744451691 -43299952.26862832,2501048.39149438 -46297071.12793599,243018.86558502066 -49182636.586194545,-2323081.574687872 -51921966.369564,-5191030.633555952 -54480160.72812425,-8350601.123075126 -56822531.46321884,-11787425.461673807 -58915057.36815108,-15482902.786472835 -60724862.19569166,-19414152.694998816 -62220710.725641556,-23554019.32097293 -63373517.98438984,-27871129.071012538 -64156866.17374738,-32330004.904550634 -64547523.40627384,-36891239.529124156 -64525957.92687625,-41511729.3093514 -64076841.133713,-46144970.053306416 -63189532.40331119,-50741415.148386344 -61858538.48309148,-55248895.7749967 -60083940.04663321,-59613102.136166334 -57871777.92002963,-63778123.81128476 -55234391.48809877,-67687046.48019989 -52190701.882861525,-71282601.37849104 -48766432.74866504,-74507862.94529362 -44994261.67280307,-77306989.22183497 -40913895.77068686,-79625998.66285467 -36572065.42262843,-81413576.14592268 -32022430.776036855,-82621900.11754157 -27325396.35189526,-83207482.01241158 -22547829.92601862,-83132008.33625288 -17762682.790590152,-82363175.12620544 -13048509.535114406,-80875503.90910038 -8488886.611977324,-78651127.77980202 -4171730.162422747,-75680535.83186729 -188514.864575882,-71963263.90317744 3366603.084822605,-67508519.46123049 6397754.341529469,-62335728.45714002 8808410.184783189,-56474992.13337406 10502514.273266204,-49967442.08627876 11385683.503534066,-42865482.36706912 11366467.632968923,-35232908.059559114 10357655.904977633,-27144890.602718066 8277617.540715166,-18687821.13257081 5051661.65958909,-9959004.300469939 613400.9811135052,-1066196.3801941061 -5093897.4353473205,7873017.000321118 -12115992.117644615,16732006.483545229 -20486396.284744456,25376049.110864 -30225175.26659978,33663442.13250446 -41337831.81222547,41446777.58424189 -53814299.07696676,48574372.520435944 -67628061.06707713,54891847.51345283 -82735420.06010501,60243843.68942716 -99074929.99967764,64475866.19436407 -116567014.07237238,67436239.60020785 -135113783.60387805,68978158.39654264 -154599074.05648568,68961813.40107569 -174888712.26755914,67256572.6929488 -195831027.14056826,63743193.56077474 -217257613.79103377,58316039.996011436 -238984358.668319,50885278.48653767 -260812730.4329079,41379023.309449956 -282531338.3847049,29745401.220379487 -303917757.0314453,15954504.422116734 -324740611.98288023,200.0000003976928" stroke="white" stroke-width="1.5" /></svg>