<?xml version="1.0" encoding="utf-8" ?>
<svg baseProfile="full" height="400" version="1.1" width="400" xmlns="http://www.w3.org/2000/svg" xmlns:ev="http://www.w3.org/2001/xml-events" xmlns:xlink="http://www.w3.org/1999/xlink"><defs /><rect fill="black" height="100%" width="100%" x="0" y="0" /><circle cx="200" cy="200" fill="yellow" r="20" stroke="orange" stroke-width="2" /><polyline fill="none" points="198.8012229935337,200.0 198.79169563758535,199.93656954060617 198.78953164232098,199.87256068799994 198.7950194829723,199.80882590513187 198.8083641336639,199.74627446675314 198.82967867350993,199.6858650557666 198.85897646544424,199.6285972524511 198.89616404316848,199.57550194839706 198.94103484185183,199.52763073250435 198.99326390679485,199.48604431235637 199.0524037110823,199.45180005052887 199.11788120821998,199.42593871173554 199.1889962388154,199.4094705329567 199.26492140147982,199.40336074463556 199.34470348728388,199.40851468643817 199.42726656428772,199.42576267573247 199.5114167839235,199.45584480061575 199.5958489643825,199.49939582177123 199.67915498773382,199.55693037842886 199.75983402738578,199.62882870300518 199.8363046008297,199.7153230563776 199.90691841954643,199.81648510098302 199.96997598370115,199.93221443181793 200.02374384402313,200.0622284857573 200.0664734273155,200.20605404723202 200.0964212956349,200.3630205630551 200.1118706826272,200.53225547093874 200.11115412411579,200.7126817349 200.09267697416087,200.90301776624455 200.05494157279014,201.10177989111608 199.99657180781702,201.30728750470817 199.91633779098996,201.517671028204 199.81318034853675,201.73088275742333 199.68623500836836,201.94471066215058 199.5348551511669,202.15679516236847 199.3586339806747,202.36464887235314 199.15742496008258,202.56567926606962 198.93136035682622,202.75721417785422 198.68086753765039,202.93653001134854 198.40668265977715,203.10088248745933 198.1098614126618,203.24753971920887 197.79178647834405,203.3738173581955 197.45417139696232,203.47711551452628 197.09906054769786,203.55495711006427 196.72882498430832,203.60502728423185 196.3461538984804,203.62521343302723 195.95404152340296,203.61364542596147 195.55576933409205,203.56873551292873 195.15488344986596,203.4892174042099 194.75516719768711,203.37418398249767 194.36060885248583,203.22312308662114 193.97536463162643,203.03595079312439 193.60371708484465,202.8130416145618 193.25002908769534,202.55525503282442 192.91869371513695,202.2639577924615 192.61408034161718,201.9410413932129 192.3404773841238,201.58893424314903 192.10203217427636,201.21060796418365 191.9026885137597,200.8095773804511 191.74612253329877,200.3898937671989 191.63567753796764,199.95613099342282 191.57429857991784,199.51336425532872 191.5644675525844,199.06714116961413 191.6081396470698,198.6234450751565 191.7066820507124,198.18865047850818 191.860815798834,197.76947067202838 192.07056171239037,197.37289765281153 192.33519136582777,197.00613457496235 192.6531840300544,196.6765210762552 193.02219052432312,196.39145193172908 193.43900488734897,196.158289600122 193.89954474161033,195.98427134295412 194.39884117509894,195.87641170914736 194.9310389015159,195.84140128885784 195.489407382935,195.88550274716593 196.06636350831243,196.01444524982955 196.65350631712386,196.2333184878332 197.24166414025015,196.54646759331413 197.8209544005946,196.95739031496407 198.38085617457398,197.46863788456403 198.91029546355708,198.08172105631436 199.3977429627023,198.79702283554647 199.831323944839,199.61371943179967 200.19893970061116,200.52971097178113 200.4883997948079,201.54156348919767 200.6875642145721,202.64446366980494 200.78449430010022,203.83218777040173 200.76761116477203,205.09708604923534 200.62586013175195,206.43008394194496 200.34887954048145,207.8207010915569 199.92717211170893,209.25708919323188 199.352276906424,210.72608944480024 198.6169397749565,212.21331020325533 197.71528007024042,213.70322523626044 196.64295129648457,215.17929272763382 195.39729328381583,216.62409494829757 193.97747342335003,218.01949824122673 192.38461446794508,219.34683269274848 190.6219064037642,220.58709057566605 188.69469992867295,221.72114235497483 186.61057913710783,222.72996874753517 184.3794111087812,223.5949070263839 182.01337023150293,224.29790946205418 179.5269352571995,224.8218115012048 176.9368572952048,225.15060700108543 174.26209718795457,225.2697275710787 171.5237309907561,225.16632282405803 168.74482258825935,224.82953811493454 165.95026282406883,224.2507861458867 163.16657489451813,223.4240086516773 160.42168616039856,222.3459242483586 157.74466695824748,221.01625843858002 155.16543744203346,219.4379517204366 152.71444395255918,217.6173417478514 150.42230689099148,215.56431554201978 148.3194425595118,213.29242785819966 146.43566192060112,210.8189819723762 144.79974971098562,208.1650693697765 143.43902782047746,205.3555650929924 142.37890730325807,202.4190758420621 141.64243382275043,199.3878383120386 141.24983173412366,196.29756570436987 141.21805237360758,193.18724085508404 141.5603324440869,190.0988549827475 142.2857686549102,187.07709166905414 143.39891498367547,184.16895634046307 144.89940907240378,181.4233522154332 146.78163434382122,178.89060441256558 149.03442441974212,176.62193467358546 151.64081633767762,174.66888993400465 154.57785888933975,173.08272876516907 157.81648214202755,171.91377050518176 161.3214338481848,171.21071268321552 165.05128799790577,171.01992311174786 168.9585302230978,171.3847137635528 172.98972412075955,172.3446042537673 177.0857618280322,173.93458340067517 181.18220135617472,176.184377930523 185.2096922786173,179.11773791021562 189.09449037530007,182.75174892578286 192.75906076854417,187.0961813630052 196.12276795303845,192.15288737892755 199.10264993385434,197.91525626917118 201.6142724527523,204.36773892675583 203.5726580167538,211.4854519452797 204.89328315758894,219.23387163559985 205.493136060901,227.56862779471496 205.29182542574964,236.43540648388117 204.2127301646684,245.7699703372326 202.18417834973005,255.49830403112838 199.14064266879163,265.5368914988168 195.0239385967775,275.79313027743973 189.78441052818368,286.1658870296211 183.38209027761454,296.546196796759 175.78781165352527,306.8181069247553 166.98426426438837,316.85966486658714 156.9669693434616,326.5440472233926 145.7451601944062,335.7408254524645 133.3425498801645,344.3173616646363 119.79796901515637,352.1403258751534 105.16585698760659,359.07732398330904 89.51659064421513,364.99862366084403 72.93663542062161,369.77896325300605 55.528505102835794,373.2994267663396 37.410517858832065,375.4493660620768 18.716337884635152,376.12834952277126 -0.4057060389226308,375.2481147425268 -19.793531591795954,372.7345012381621 -39.27244765717609,368.5293378202716 -58.6565342239341,362.5922581292738 -77.75025608643227,354.9024169613831 -96.35030598107079,345.46007941090227 -114.24766965443189,334.28805456462504 -131.22990209621298,321.43294552572496 -147.0836008240127,306.9661879399881 -161.59705871242585,290.98484996542817 -174.56307545481695,273.6121677826026 -185.781903374274,254.9977922989391 -195.06430000469567,235.31772466349256 -202.23465668989428,214.77392058163124 -207.13416944559935,193.59354620015696 -209.6240155451739,172.0278715149704 -209.588496773925,150.35079082291315 -206.93810809840397,128.85696367838335 -201.6124886646556,107.85957409949607 -193.58321062031558,87.68771036775985 -182.8563602950711,68.68337264335864 -169.47486581503324,51.19812073315185 -153.5205253082516,35.58937965267657 -135.11569051615623,22.21642606343883 -114.42456188954884,11.436084184036162 -91.65405314272749,3.598165304688706 -67.05418578416959,-0.959309488266797 -40.917977348740806,-1.9150584202830032 -13.580790929099976,1.0303901390118426 14.580881860723679,8.149560098755018 43.15122717074598,19.682882819211272 71.67752131512685,35.833608604208905 99.67315973770904,56.76284164310505 126.62130601903276,82.58476849383854 151.97915691561204,113.36215248721972 175.18281148540086,149.10216797410192 195.65272403340455,189.75264906227318 212.79971198613097,235.19882733509706 226.0314809599025,285.2606319521469 234.75962032128925,339.6906234540444 238.4070135514682,398.1726294893931 236.41559883053532,460.32114652081026 228.25440656949993,525.6815663307152 213.42779225881716,593.7312798287984 191.48377509891534,663.8817032680972 162.02238555907743,735.4812635252725 124.70391840640623,807.8193696273631 79.25698198646445,880.1313872614583 25.48622974973094,951.6046216501484 -36.72034367202306,1021.3853019947139 -107.38466200864036,1088.58654777606 -186.43250382712108,1152.2972836717809 -273.6882369651521,1211.5920558236762 -368.870470135255,1265.5416878146666 -471.5887374953194,1313.2247001428618 -581.34132689533,1353.7394023816835 -697.5143557065302,1386.2165527681316 -819.3821895876674,1409.8324658564281 -946.1092892327324,1423.8224353098324 -1076.7535580861588,1427.4943260842397 -1210.2712502377242,1420.242178392689 -1345.523482276892,1401.5596551416847 -1481.2843758760666,1371.053155209448 -1616.2508393897328,1328.454407201068 -1749.0539769337804,1273.6323523685126 -1878.2720924025175,1206.6041214182267 -2002.4452338726178,1127.5449081277857 -2120.0912010399443,1036.796543223039 -2229.722914967306,934.8745749779215 -2329.8670257417934,822.4736686194186 -2419.0836099230155,700.4711449548213 -2495.986786200762,569.928489765522 -2559.266054781595,432.09067947987387 -2607.7081440109278,288.3831854635087 -2640.2191269436894,140.40653893098536 -2655.846551343089,-10.071639066374985 -2653.8013092568804,-161.12721297844553 -2633.478957237192,-310.6927561185275 -2594.4801857714288,-456.57343465809913 -2536.6301269065852,-596.4655325995976 -2459.9961826920717,-727.9775638934541 -2364.904054232006,-848.6538820665705 -2251.951652098085,-956.000660647469 -2122.02057385101,-1047.5140796839028 -1976.2848436600552,-1120.7105151635928 -1816.2166226660356,-1173.158489613362 -1643.5886169287376,-1202.5121040427014 -1460.472932613152,-1206.5456342166235 -1269.236155525457,-1183.1889385151821 -1072.5304641787532,-1130.563290904132 -873.2806221603316,-1047.0172213567535 -674.66673653437,-931.1619179892666 -480.1027141294635,-781.9057207587457 -293.2103965464446,-598.4872163723543 -117.7894072283035,-380.5064286034458 42.21720045676287,-127.95358801365484 182.7613469398956,158.76503938037325 299.7321745061434,478.8047832419266 389.0018704446153,830.8641703143292 446.4747335149161,1213.1709913624895 468.13908934273366,1623.4733065663465 450.1215984617045,2059.03583253092 388.7434403522045,2516.642116826561 280.5777988441733,2992.6028611780607 122.50801953123506,3482.770702134154 -88.21424071343375,3982.561698418672 -353.9115975151691,4486.983707440784 -676.4250209754316,4990.671759979609 -1057.0602133966747,5487.930462320921 -1496.537105210391,5972.783369681599 -1994.9433079106134,6439.029184292337 -2551.692369803679,6880.304536810661 -3165.487677341503,7290.153011696374 -3834.2928310771545,7662.099976800335 -4555.3093003209315,7989.732675782615 -5324.962123942166,8266.784940270716 -6138.894376130452,8487.225778152777 -6991.971055100872,8645.35099640369 -7878.292979641154,8735.876922752534 -8791.221193143569,8754.035201750326 -9723.412277585037,8695.667558848014 -10666.864871226948,8557.31935242229 -11612.977564182489,8336.330669762086 -12552.618216199766,8030.923670297814 -13476.204601966228,7640.284839227274 -14373.79614206706,7164.640788507004 -15235.196323709988,6605.326231197234 -16050.065255923231,5964.842760527241 -16808.04164076042,5246.90708781353 -17498.87327688667,4456.4874343984875 -18112.55504669517,3599.8268327947562 -18639.473174862876,2684.4521717447165 -19070.554387162436,1719.1679192531415 -19397.41844566389,714.033576916019 -19612.532392508576,-319.6759421003519 -19709.36470159902,-1369.527660684629 -19682.53741821785,-2422.006083184718 -19527.97426315315,-3462.6072159524033 -19243.04259272357,-4475.951129074312 -18826.68704144054,-5445.912899044489 -18279.55263210035,-6355.771532678248 -17604.095120908685,-7188.376222044443 -16804.676354672116,-7926.329020978883 -15887.642454818455,-8552.182768476983 -14861.382710447577,-9048.652815845442 -13736.367160926613,-9398.840846047031 -12525.1609785657,-9586.46880853763 -11242.413924153465,-9596.120734590506 -9904.823342734691,-9413.489950301153 -8531.069393720178,-9025.628970950884 -7141.721467563529,-8421.199145042443 -5759.115029715158,-7590.716923000593 -4407.198449811572,-6526.7934581350955 -3111.3497180605004,-5224.364109812669 -1898.163319051714,-3680.9043145830997 -795.2079228026504,-1896.6282237875043 169.24403968043634,125.33352074112612 966.5134275523246,2378.780484860528 1567.8361480066412,4854.317163716122 1944.7072646849745,7539.259165502513 2069.244664294687,10417.574135163712 1914.5690585054476,13469.86048327571 1455.1966788318891,16673.366720460697 667.4406200620961,20002.053880213825 -470.18359098624103,23426.703143407824 -1976.552973729912,26915.070357082168 -3867.537704608645,30432.088670246783 -6155.612716773132,33940.1199928607 -8849.485867442188,37399.25542421743 -11953.748419593412,40767.6641977083 -15468.553692315138,44001.99005518862 -19389.32977620356,47057.79330149998 -23706.53218172092,49890.03610441636 -28405.44218507149,52453.60790439637 -33466.016454169745,54703.88708970502 -38862.793273668605,56597.334384009395 -44564.86034060116,58092.11269429202 -50535.88866967071,59148.72748617219 -56734.23662928504,59730.68110119148 -63113.12752679927,59805.13381631998 -69620.9034759213,59343.563880060865 -76201.3575138324,58322.41825237215 -82794.14509445324,56723.74533742215 -89335.27517282848,54535.80063901429 -95757.6801204461,51753.61599812552 -101991.86268031958,48379.522899711985 -107966.6170929175,44423.620270451494 -113609.82040981093,39904.17723839099 -118849.28887265018,34847.96149662345 -123613.69308325138,29290.484212158874 -127833.5245396948,23276.152852923 -131442.10497774166,16858.3238738535 -134376.62885178268,10099.247909389984 -136579.22823066034,3069.900964784189 -137998.04838737947,-4150.303918649992 -138588.32144450146,-11473.928931972698 -138313.42461561228,-18806.050861440355 -137145.908874305,-26044.929336640496 -135068.48330198933,-33082.80427105997 -132074.9399303487,-39806.82121518865 -128171.00361854352,-46100.08166485823 -123375.09140343594,-51842.813614547784 -117718.96584607838,-56913.6558335921 -111248.26718094933,-61191.047491211466 -104022.90956568008,-64554.712884387125 -96117.32743610699,-66887.22915278448 -87620.5589000827,-68075.66302058149 -78636.15425686828,-68013.2608108451 -69281.8991077994,-66601.17425968045 -59689.34312624225,-63750.20304122148 -50003.12737565705,-59382.533427587885 -40380.105095840576,-53433.451177348994 -30988.25310796691,-45853.00559883824 -22005.373404485683,-36607.6007974167 -13617.587072579518,-25681.48941417517 -6017.625428860951,-13078.143722166591 597.0739059325975,1178.5212120917272 6026.455317509764,17043.09744840788 10070.104208601166,34447.83185231273 12529.659982305282,53301.99540578201 13211.363233290795,73491.49686343443 11928.714386631475,94878.76195071601 8505.218111206175,117302.89741762506 2777.185045979265,140580.15701223092 -5403.440243907754,164504.7238260249 -16166.258574642385,188849.82049621412 -29619.638363432274,213369.15544158546 -45848.01826508763,237798.7096767985 -64909.3292441403,261858.86481844567 -86832.5762311593,285256.86869380175 -111615.62021823908,307689.6305239682 -139223.20189409397,328846.83301649784 -169585.24766988,348414.3439130317 -202595.4981727401,366077.9046442953 -238110.49795961494,381527.06880194426 -275948.9833087197,394459.3582024149 -315891.7024655806,404584.5994540007 -357681.6996463358,411629.39921014407 -401025.0904316056,415341.71176728985 -445592.35192546825,415495.44841449446 -491020.1462192633,411895.07403554145 -536913.6903109964,404380.13297431427 -582849.6797175839,392829.6431718312 -628379.7666177531,377166.29513875215 -673034.5865251003,357360.39050808136 -716328.3202692311,333433.45378368377 -757763.7705223041,305461.45052142494 -796837.9243211286,273577.5456062002 -833047.9650815066,237974.3365684091 -865897.6895696406,198905.49905888265 -894904.2772798708,156686.78470476027 -919605.3517694108,111696.31562385183 -939566.2658253775,64374.124894945526 -954387.5349976756,15220.898268493207 -963712.3371367655,-35204.120653608894 -967233.9892438742,-86286.09166105898 -964703.3072892897,-137358.42671388885 -955935.7497976915,-187707.53774003734 -940818.2420518601,-236578.4845172346 -919315.5748375548,-283181.5125759572 -891476.2698474288,-326699.45931122755 -857437.803278387,-366295.9942264079 -817431.0798839316,-401124.64656991046 -771784.0518592048,-430338.56069684325 -720924.3805088588,-453100.90643485996 -665381.0437290507,-468595.85871122236 -605784.7989632031,-476040.0478701059 -542867.4194874179,-474694.36964821024 -477459.6316488705,-463876.03186233167 -410487.69200286554,-442970.7036795792 -342968.55613466963,-411444.62307739066 -276003.60525283177,-368856.5089457623 -210770.9123213248,-314869.1164262875 -148516.04645579218,-249260.26770625295 -90541.43241915155,-171933.18576978106 -38194.30116562708,-82925.95572166782 7146.712670606266,17580.062598433105 44086.249857858995,129253.0457590875 71228.08472020665,251604.91319010273 87192.0436504202,383987.0946351856 90631.84411615295,525588.0159771673 80253.69346045896,675432.4499773732 54835.46656860563,832382.8650910704 13246.262139507033,995142.8895887478 -45533.880837563374,1162262.9897556223 -122394.34143632467,1332148.4400195696 -218074.5998390481,1503069.6395659477 -333145.5076484156,1673174.8044675589 -467991.41833732894,1840505.0367571143 -622793.4583011552,2003011.742402112 -797514.2235902017,2158576.3390506413 -991884.1887763265,2305032.1619783095 -1205390.1123130382,2440188.443195098 -1437265.7169766682,2561856.2045135954 -1686484.9143528435,2667875.8709158353 -1951757.8287192534,2756146.376192865 -2231529.8579746764,2824655.4990034937 -2523983.9874221636,2871511.134663562 -2827046.546225107,2894973.1766086672 -3138396.5662645386,2893485.652060815 -3455478.8690341986,2865708.7294695973 -3775520.968272375,2810550.1912906463 -4095553.8344610054,2727195.9451049846 -4412436.522397189,2615139.129459298 -4722884.615093531,2474207.3585890415 -5023502.386686189,2304587.6428211876 -5310818.534276494,2106848.5193579677 -5581325.2742131725,1881958.9316957318 -5831520.5428040875,1631303.4054687163 -6057952.985445613,1356693.0843079141 -6257269.362338363,1060372.2115932587 -6426263.944026973,745019.6729106896 -6561929.416702397,413745.2496886615 -6661508.766308309,70080.27688996884 -6722547.56279547,-282037.5533041492 -6742946.022174254,-638285.444321636 -6721010.185140172,-993982.9452436131 -6655501.51779451,-1344125.6710798321 -6545684.213143799,-1683425.2931585887 -6391369.452400861,-2006355.721484848 -6192955.873351663,-2307205.3186364877 -5951465.489872042,-2580134.898968786 -5668574.312691188,-2819241.178413672 -5346636.937244303,-3018625.2499134084 -4988704.390392344,-3172465.568523198 -4598534.564271768,-3275094.839535029 -4180594.612823775,-3321080.1137652886 -3740054.7447769227,-3305305.3076199796 -3282772.916027077,-3223055.2829598836 -2815270.0043466925,-3070100.544424269 -2344695.139891643,-2842781.541048913 -1878780.9656381381,-2538091.496051245 -1425788.7121005803,-2153756.634861579 -994443.089722827,-1688312.6381387021 -593857.1293097866,-1141176.1148589193 -233447.23472620285,-512709.87178811285 77161.14837082592,195719.24917061714 328236.7001320521,981691.1841161742 510053.5361249196,1841693.3031606886 613009.8167448431,2771092.059146074 627752.6669112822,3764116.719195439 545308.2716598512,4813856.191965673 357215.8727768003,5912269.868430489 55664.257605913735,7050213.281204335 -366370.79431086,8217479.257028767 -914989.7558854986,9402855.08953118 -1595235.0395189743,10594196.095417006 -2410960.964621885,11778515.737811772 -3364709.9137005494,12942092.306721862 -4457596.636019391,14070591.939985571 -5689202.687825551,15149207.550347192 -7057483.005365449,16162812.997372586 -8558686.589821924,17096131.609038018 -10187293.240437934,17933917.91941267 -11935968.202276144,18661151.248579353 -13795536.497356685,19263239.51166289 -15754978.581664596,19726231.40860328 -17801448.815385886,20037034.918323252 -19920318.04970791,20183639.803511124 -22095241.420964807,20155341.628789227 -24308252.202552404,19942964.60902946 -26539882.29801111,19539080.439491455 -28769309.666508444,18938220.118756417 -30974532.656607777,18137075.662486266 -33132570.88804477,17134688.524125192 -35219691.96704561,15932621.490872366 -37211662.951702125,14535110.812469773 -39084025.1036778,12949195.3491861 -40812390.075018376,11184819.5961226 -42372755.28843125,9254907.555555345 -43741835.88073182,7175404.588965715 -44897410.19718922,4965284.586747491 -45818675.45443307,2646520.0468539638 -46486609.83682147,244012.95385749877 -46884336.961245626,-2214515.303557941 -46997488.343913555,-4698676.34696719 -46814559.23535814,-7175610.489766197 -46327252.96237306,-9610226.1455162 -45530808.73328052,-11965482.909335276 -44424307.73118837,-14202717.71156364 -43010952.24370668,-16282012.866719142 -41298312.56165464,-18162604.240596168 -39298536.427817844,-19803327.140104383 -37028515.93353461,-21163096.90057408 -34510006.94890891,-22201420.51082694 -31769696.434210442,-22878934.984921295 -28839213.317204982,-23157967.569169547 -25755079.03461874,-23003112.27227285 -22558594.325653773,-22381816.63399173 -19295659.430436753,-21264972.112693496 -16016525.484528225,-19627500.983550403 -12775475.609102845,-17448932.206292883 -9630434.971028091,-14713958.353370212 -6642509.922610302,-11412965.395051243 -3875457.220933872,-7542526.926017237 -1395085.2640696187,-3105854.29649932 731409.7425207116,1886805.9124248167 2436168.7708597695,7417835.548283521 3651451.1642926433,13461977.96791484 4310466.067072115,19986148.51755029 4348247.0908204345,26949329.9621404 3702562.211694289,34302559.862917386 2314849.916889754,41989016.22736915 131171.69032843955,49944206.957114615 -2896829.940374177,58096267.698266014 -6810979.365358636,66366371.659002945 -11645634.133016784,74669253.80525018 -17426782.335407402,82913850.58424658 -24171184.479549512,91004054.96593623 -31885573.526524432,98839585.14381245 -40565926.97392791,106316963.71216145 -50196824.891230114,113330602.54949388 -60750907.68086582,119773987.00382085 -72188447.02068694,125540951.31155257 -84457042.93761337,130527035.50685923 -97491459.2615726,134630912.41242993 -111213608.80880581,137755871.6670534 -125532698.54215707,139811346.16265735 -140345543.65329832,140714464.75665575 -155537058.01068234,140391613.7184659 -170980926.72275677,138779988.08607283 -186540464.68673858,135829112.97379276 -202069662.94007358,131502313.90999411 -217414422.41841894,125778114.51694034 -232413972.36746624,118651539.29682937 -246902468.17584497,110135298.9799321 -260710760.81532297,100260835.8424054 -273668327.4178553,89079206.63085452 -285605349.81479937,76661781.2538388 -296354925.14213955,63100736.230354175 -305755389.90968704,48509323.03216561 -313652736.27654827,33021892.927623488 -319903096.7061508,16793661.732702386 -324375270.72948515,200.00000039724537" stroke="white" stroke-width="1.5" /></svg>