<?xml version="1.0" encoding="utf-8" ?>
<svg baseProfile="full" height="400" version="1.1" width="400" xmlns="http://www.w3.org/2000/svg" xmlns:ev="http://www.w3.org/2001/xml-events" xmlns:xlink="http://www.w3.org/1999/xlink"><defs /><rect fill="black" height="100%" width="100%" x="0" y="0" /><circle cx="200" cy="200" fill="yellow" r="10.007844622726019" stroke="orange" stroke-width="2" /><polyline fill="none" points="199.08567986796885,200.0 198.97535715492106,199.9462109312855 198.8650303310658,199.88050926500281 198.7558949700332,199.80261867336122 198.64920607799127,199.7123862097051 198.54626626975437,199.60979215370662 198.44841255439104,199.4949588479909 198.35700180138423,199.36815834836406 198.27339497956405,199.2298187126535 198.1989402824688,199.08052875837205 198.1349552752492,198.9210411270843 198.08270821944382,198.75227350354484 198.04339875264478,198.5753078504479 198.0181381199453,198.39138753497727 198.00792917281584,198.20191224126833 198.01364636838292,198.00843058333004 198.0360160176751,197.8126303558447 198.07559704494147,197.61632638544108 198.1327625313352,197.42144597236728 198.2076823247924,197.23001194177428 198.30030700353657,197.04412335482817 198.41035348304138,196.86593396232783 198.53729255523956,196.69762851710757 198.68033864405893,196.54139709591135 198.8384420528094,196.39940761626113 199.01028396638748,196.27377676870194 199.19427445459345,196.16653961926008 199.38855370200525,196.07961817053962 199.59099666479932,196.01478920213353 199.79922132568444,195.97365174144596 200.01060068480297,195.95759454411143 200.22227858719506,195.96776398845003 200.43118944641648,196.00503281030893 200.6340818794065,196.06997012271555 200.82754622004066,196.16281317852355 201.00804582835298,196.28344134320884 201.17195205961593,196.431352748737 201.31558270282338,196.6056440975824 201.4352436421865,196.8049940781756 201.5272734386366,197.02765083899257 201.58809047168978,197.27142394792725 201.61424222606857,197.53368123633342 201.60245625293814,197.8113508930678 201.54969228327252,198.10092913298845 201.45319492151762,198.39849371670795 201.31054630217614,198.69972354410953 201.11971805102897,198.99992448343895 200.8791218572442,199.2940615310078 200.5876579334161,199.57679732411376 200.24476061840522,199.8425369522161 199.85044036346244,200.08547892932793 199.4053213362158,200.29967210471315 198.91067388032178,200.47907820012517 198.36844108150004,200.61763957089752 197.78125871377668,200.70935169618897 197.1524678734443,200.74833981166788 196.48611965280287,200.72893900703644 195.7869712613428,200.64577702225392 195.06047306872128,200.49385889137247 194.31274612157782,200.2686525028534 193.55054977470388,199.96617407140423 192.78123917594772,199.58307245010562 192.01271245296283,199.11671115421203 191.25334756780902,198.5652469208186 190.51192893162963,197.92770359286064 189.79756400515146,197.204040092863 189.11959025040767,196.39521124261842 188.48747294354462,195.5032201905906 187.9106945063653,194.53116123022954 187.39863616376957,193.48325183034646 186.96045288372832,192.36485275386232 186.60494270401583,191.18247521407864 186.34041169365625,189.94377410840485 186.1745359348733,188.65752647828126 186.1142220411538,187.33359447071666 186.16546784669634,185.98287222103468 186.3332250098467,184.61721623747064 186.62126536595744,183.24935904530972 187.03205294133105,181.8928060401738 187.56662359744524,180.56171570545857 188.2244743115544,179.27076356614091 189.00346411416834,178.0349904783094 189.89972869414396,176.8696360886552 190.90761064668754,175.78995853839467 192.01960727718006,174.8110417290477 193.2263377833732,173.94759171032732 194.5165315194109,173.21372399007606 195.87703889686833,172.62274379952103 197.29286630045607,172.18692157078513 198.7472361894624,171.9172660941542 200.22167332102202,171.82329801656456 201.69611776893055,171.91282651661479 203.14906512339644,172.19173214161094 204.5577339446863,172.66375891527397 205.89826020934697,173.33031891742377 207.14591813427347,174.1903125960177 208.27536639445213,175.2399680943735 209.2609183682637,176.47270285951595 210.07683465369612,177.87901073892883 210.69763570397538,179.4463776705013 211.09843203659676,181.15922892246763 211.2552690804579,182.99891064544772 211.1454833469542,184.94370825659385 210.74806624790517,186.96890388617655 210.04403154161952,189.04687478011155 209.01678207395528,191.14723416897817 207.65247119962197,193.2370156866766 205.94035402590427,195.28090195235976 203.87312342206636,197.24149742067465 201.44722558835545,199.07964506136787 198.6631498839395,200.75478585434345 195.5256875781312,202.22535948539394 192.04415421829555,203.4492440067876 188.2325704048388,204.38423159206891 184.1097959319754,204.98853687278327 179.69961249524792,205.22133370390105 175.03075048497854,205.04331557250546 170.13685578007565,204.41727424927726 165.0563929291589,203.30869069325496 159.83248165509232,201.68633166634217 154.51266424302742,199.5228450043088 149.14860206820907,196.7953460349023 143.79570028425735,193.4859872404074 138.51266052047285,189.58250294067196 133.36096232186733,185.0787205320682 128.4042750009209,179.97502966648568 123.7078025472405,174.27880070010775 119.33756525097732,168.00474379158157 115.35962272768876,161.17520018961685 111.8392440749265,153.82035752643762 108.84003193196725,145.97838133020375 106.42300824071657,137.69545548963194 104.64567050416365,129.02572504937243 103.56102829453694,120.03113548559902 103.21663066176386,110.7811635065627 103.65359591895452,101.35243543974167 104.90565602028711,91.82823040117455 106.99822838282577,82.29786668733371 109.94752852267071,72.8559711774126 113.7597372631111,63.601632974282836 118.43023651449609,54.63744403391698 123.94292770961547,46.068431122297625 130.2696468928684,38.00088508047472 137.3696901960938,30.541095055607798 145.18946297989714,23.793997050027087 153.66226526964905,17.861747831655123 162.70822526503048,12.842236916283156 172.23439164819064,8.827550952872087 182.13499415775934,5.902406393928715 192.29188043608522,4.1425677901700055 202.5751354997884,3.613270387683059 212.84388833641722,4.367666902072955 222.94730810293893,6.44531937321608 232.72579020813532,9.870757842188112 242.01233021687594,14.652128215507531 250.6340810387593,20.779952068894545 258.4140862787559,28.226021272636075 265.17317995809157,36.94245017453255 270.73204008720364,46.860907637615526 274.91338081930223,57.8920504842084 277.54426516531123,69.9251788341908 278.45851754330704,82.82813243545135 277.4992128043873,96.44744536389845 274.5212158600401,110.60877441831532 269.39374367250537,125.11761415511288 262.0029191990089,139.76030880727882 252.25428494301542,154.30536832267788 240.07524210050374,168.50509245610803 225.4173799356758,182.09750327867624 208.25865901618891,194.80858265347626 188.6054113188188,206.3548071993371 166.49412001592492,216.44596906043697 141.99294200173009,224.78826645929013 115.20293694223129,231.08764357888333 86.25896785640236,235.05335484556426 55.330239977429045,236.40172422048462 22.620446914012774,234.86006571019797 -11.632504059455954,230.17072703556607 -47.15721240774505,222.09521431399733 -83.64997137834445,210.4183517765761 -120.77643822675066,194.952427023317 -158.1737992654629,175.54126918147008 -195.45343600452412,152.06420463799446 -232.2040928394918,124.43983283129651 -267.99554053589213,92.62956297028968 -302.3827232082979,56.64085155899821 -334.91036965558555,16.53008029661794 -365.1180428576416,-27.59498565436334 -392.54559423584783,-75.57321784200013 -416.73898200983626,-127.18867994161872 -437.2564057322985,-182.16977236625655 -453.674701943488,-240.1890163096233 -465.5959389537021,-300.8635228748376 -472.65414213564156,-363.7561874818441 -474.522074892021,-428.3776434203844 -470.91799476201777,-494.18900124457605 -461.6122990484712,-560.6053927221002 -446.4339699909142,-627.0003293006326 -425.27672598033587,-692.7108755939705 -398.1047827093456,-757.0436282904598 -364.95812657056865,-819.2814802295713 -325.9572021448114,-878.6911382741839 -281.3069163388759,-934.5313521336316 -231.29986371169372,-986.0617995848904 -176.31868082642666,-1032.5525617263845 -116.8374421328648,-1073.2941101205618 -53.42201595216423,-1107.6077160866223 13.27069337667615,-1134.856181150023 82.49468222044995,-1154.4547769034812 153.41801796273705,-1165.8822724525276 225.12728593320782,-1168.691918377634 296.6333429817241,-1162.5222479157815 366.8783934745697,-1147.107549017131 434.744388090189,-1122.2878552342008 499.0627293555765,-1088.018299212765 558.6252505269545,-1044.377670028815 612.1964163350469,-991.5760148973445 658.5266754608392,-929.9611269960767 696.3668755764018,-860.0237644154267 724.483632588289,-782.401450661375 741.6755265861404,-697.8807147771528 746.7899781685334,-607.3976390666045 738.7406405465082,-512.0365946259419 716.5251253772243,-413.02705942380544 679.2428639281695,-311.7384304860414 626.1128901930122,-209.67276078503966 556.4913192518264,-108.45537261615806 469.8882827675157,-9.823322445526742 365.98407430744703,84.38828271929206 244.64425043681314,172.2620906380214 105.93342949598694,251.81637582369189 -49.87247111962188,321.0248937939612 -222.27581630184812,377.83860284579356 -410.5489049258024,420.2091076771112 -613.7279347457243,446.1136479844132 -830.6095108353411,453.5814240812258 -1059.7499117135271,440.72102100266113 -1299.467307343255,405.74866290051534 -1547.847099487317,347.0170012217424 -1802.7505274916518,263.04411364336795 -2061.826651539026,152.54236645874715 -2322.527790916188,14.446771525931183 -2582.1284570630696,-152.05754955268065 -2837.747780373836,-347.50919620900106 -3086.3753862015396,-572.146027687266 -3324.900629640026,-825.8828293030531 -3550.1450508314388,-1108.2915273192755 -3758.8978632395933,-1418.5843701020287 -3947.9542370526888,-1755.6004843184244 -4114.156089194142,-2117.7962003574667 -4254.435040930852,-2503.2395206946067 -4365.857154414762,-2909.609078441288 -4445.66901135119,-3334.197900749997 -4491.344651053773,-3773.9222530780617 -4500.63284214359,-4225.335795625634 -4471.604122807357,-4684.649232704515 -4402.697009582988,-5147.755579602555 -4292.762744819134,-5610.261110004651 -4141.107928972068,-6067.521980624546 -3947.5343664488073,-6514.686458890416 -3712.375443433784,-6946.74260489728 -3436.5283536561456,-7358.571181062807 -3121.4814939192715,-7745.003482757642 -2769.3363659089787,-8100.883701464139 -2382.8233447307466,-8421.135349660584 -1965.3107081199764,-8700.831194613971 -1520.8063635476278,-8935.266067636223 -1053.951763621356,-9120.031837212004 -570.0075632634381,-9251.093759880372 -74.83064500799185,-9324.867353015668 425.15777884903287,-9338.294869894768 923.0131869798845,-9288.920400851855 1411.317992217823,-9174.96257609136 1882.240998697626,-8995.383807015396 2327.6059491957276,-8749.954974843424 2738.9689175093026,-8439.31445891869 3107.704174217679,-8065.020393397574 3425.098023824099,-7629.595050898926 3682.449978443149,-7136.560275937451 3871.180499367271,-6590.462930238997 3982.94440461036,-5996.88936685434 4009.748909586268,-5362.46802071018 3944.0751412175673,-4694.85929004864 3779.0018448358205,-4002.73198610515 3508.329890130886,-3295.7257471584153 3126.7060790649457,-2584.3989473409083 2629.744667025777,-1880.161779689594 2014.1449304774533,-1195.1943559841263 1277.8030518582098,-542.3498418710496 419.91654729036327,64.95716671901835 -558.9205634712628,612.8766223460307 -1656.6336509173375,1087.2627507920897 -2869.59622294682,1473.8267005922564 -4192.573274794816,1758.3010803021944 -5618.680926788308,1926.6151289726242 -7139.363945300254,1965.0790488705686 -8744.392626728732,1860.5758168569619 -10421.880382638203,1600.7585848987076 -12158.32319637614,1174.2515839712214 -13938.661927858671,570.852262186175 -15746.36822448225,-218.26777950255115 -17563.55455330849,-1200.3656390532065 -19371.10860418638,-2380.9364637647486 -21148.852027114663,-3763.5321114978296 -22875.723162063176,-5349.592007489444 -24529.983098210283,-7138.289123231752 -26089.444065026742,-9126.3940119448 -27531.718813120024,-11308.15980727142 -28834.4892918584,-13675.231025899699 -29975.792577467215,-16216.578909145366 -30934.321653754785,-18918.46589176008 -31689.73830238436,-21764.44159744174 -32222.995025370335,-24735.37252924578 -32516.662604140914,-27809.507349362706 -32555.259602102185,-30962.579327101295 -32325.579846256616,-34167.94717751594 -31817.013683196234,-37396.775117646495 -31021.858600782143,-40618.25253510365 -29935.614643997702,-43799.853197644385 -28557.25993661057,-46907.63343597226 -26889.50155393241,-49906.568209417186 -24938.996980327644,-52760.923420135994 -22716.541432008366,-55434.662281371195 -20237.216434397145,-57891.88297499945 -17520.49521672977,-60097.28425949917 -14590.300726783045,-62016.6551184624 -11475.012377135337,-63617.38397918361 -8207.418011933527,-64868.98248833799 -4824.608029680753,-65743.61831528424 -1367.8091121383732,-66216.65097126145 2117.8444097936913,-66267.16419297823 5583.602878177856,-65878.4880501413 8977.457939276474,-65038.703606583884 12244.563346390567,-63741.12270188156 15327.718988978293,-61984.73523246074 18167.916352581142,-59774.61620555812 20704.94272933054,-57122.28482280802 22878.040588125674,-54046.00792888186 24626.617586560275,-50571.04033988668 25891.001773771608,-46729.79485065975 26613.23560579589,-42561.93511316867 26737.901484639002,-38114.385082337576 26212.970651588414,-33441.249341935145 24990.666427241635,-28603.639351520003 23028.332008592886,-23669.401494296122 20289.29232077798,-18712.743752048784 16743.69879123712,-13813.758882530808 12369.345380508448,-9057.843120594118 7152.443779697494,-4535.010659235405 1088.3453824776898,-339.10548113828725 -5817.802528802056,3433.0865057700153 -13550.478966635625,6682.8206363892195 -22083.302243577255,9310.466087195264 -31378.645955860356,11216.660525999696 -41387.369635750285,12303.537917195847 -52048.67511993735,12476.01908022209 -63290.09885778828,11643.153120691299 -75027.64937742134,9719.496424108887 -87166.09793974612,6626.514542388435 -99599.42904330752,2293.991035051746 -112211.45590104666,-3338.5738280232667 -124876.60430141883,-10320.59261521591 -137460.8664007583,-18689.067508824388 -149822.92398406033,-28467.333967997496 -161815.4385928212,-39663.89142499909 -173286.50366918297,-52271.34142866268 -184081.25152596337,-66265.45368070863 -194043.60554525894,-81604.38019023449 -203018.16555962543,-98228.03728499949 -210852.21190703602,-116057.67445332574 -217397.81120360168,-134995.64793842798 -222514.00447786256,-154925.41566160112 -226069.05599036734,-175711.7684090355 -227942.73885647565,-197201.31027968664 -228028.63153391282,-219223.19916287297 -226236.3973651987,-241590.15550234087 -222494.01771433107,-264099.7448207144 -216749.94784231842,-286535.936440984 -208975.1635618495,-308670.93757075525 -199165.06593075997,-330267.2984354184 -187341.21081834435,-351080.2804875279 -173552.83013713438,-370860.4759149548 -157878.11190165408,-389356.6627574749 -140425.20707787405,-406318.8759617052 -121332.93244157857,-421501.67070278147 -100771.14038536276,-434667.5503262022 -78940.72881235543,-445590.5273661057 -56073.26693457902,-454059.7823305245 -32430.215954053445,-459883.38136558974 -8301.72723817164,-462892.01057629345 15994.995305989254,-462942.6817490386 40117.77742101965,-459922.3615488265 63702.00506940643,-453751.47400890745 86363.60187770371,-444387.22434900893 107702.44628565396,-431826.6909037723 127306.21527911907,-416109.63126671215 144754.63539804606,-397320.9487039245 159624.11534877328,-375592.76550849766 171492.7280812649,-351106.0512881788 179945.5036896379,-324091.7562360283 184579.98803727387,-294831.4022502947 185012.01567925146,-263657.088361388 180881.63954209138,-230950.87129779003 171859.15401440382,-197143.48717707858 157651.1426947202,-162712.38623110054 138006.4771285169,-128179.05914338682 112722.18853944834,-94105.64095942346 81649.13091316042,-61090.78658200333 44697.35091675002,-29764.82052952652 1841.078120369675,-784.172847938996 -46876.75208773593,25174.877250874903 -101340.53055893695,47423.118389051684 -161358.6480516492,65265.942682910296 -226660.8949696684,78011.44757152913 -296896.66826044803,84979.04075697646 -371634.06195569935,85508.47471110566 -450359.91197017505,78969.22692776643 -532480.8586366769,64770.13217751804 -617325.4820498967,42369.16360162815 -704147.555638334,11283.250714069964 -792130.4525187106,-28901.98558286615 -880392.7271650595,-78522.70786886815 -967994.8818171216,-137827.6797572141 -1053947.3129500845,-206969.56356211877 -1137219.4181389331,-285996.83875646826 -1216749.8279029182,-374846.48360209045 -1291457.7107538094,-473337.56238555774 -1360255.0828582193,-581165.8589751419 -1422060.0366383502,-697899.69383187 -1475810.7854711716,-822977.0560794885 -1520480.4046116138,-955704.1747025026 -1555092.1317816426,-1095255.6433584304 -1578735.0747649255,-1240676.2016413184 -1590580.1580654879,-1390884.261925407 -1589896.1264734862,-1544677.2551831044 -1576065.410480258,-1700738.8514702374 -1548599.6471464576,-1857648.0911922578 -1507154.6404972924,-2013890.4419256197 -1451544.53803734,-2167870.7726165527 -1381754.994774147,-2317928.2125922535 -1297955.0934324202,-2462352.837204591 -1200507.789529868,-2599404.0953202043 -1089978.652852275,-2727330.8665378266 -967142.6827663785,-2844393.008245207 -832988.9838744632,-2948884.2247407273 -688723.1008432033,-3039156.062977132 -535766.8268966487,-3113642.812396108 -375755.3194774135,-3170887.0601885226 -210531.37893932228,-3209565.628524638 -42136.77178501628,-3228515.59725038 127199.49119541174,-3226760.094643171 295075.97963881766,-3203533.5204672907 458936.79418588494,-3158305.8501637233 616092.6285715451,-3090805.6569421086 763744.8891978913,-3001041.4801858384 899012.7764898143,-2889321.164289097 1018963.1890648999,-2756268.7921410953 1120643.2673102722,-2602838.8422519313 1201115.347825309,-2430327.208229564 1257494.0548750765,-2240378.7341786553 1286985.210056721,-2034990.939759348 1286926.197393732,-1816513.6342215086 1254827.3786521952,-1587644.1497621178 1188414.1134516585,-1351417.9610197076 1085668.9013683791,-1111194.4993299076 944873.1293563902,-870638.0173585726 764647.8780978868,-633693.4116659458 543993.2159868812,-404556.96732180804 282325.3899808757,-187642.049494231 -20488.690869216367,12460.168499401178 -364100.29020876077,191024.7834121747 -747651.6081502492,343241.818928721 -1169753.0767319545,464269.16129345185 -1628465.7737862694,549289.4004778096 -2121289.5175859523,593570.1300331461 -2645157.1716566114,592527.1857771662 -3196435.6473700176,541790.2320396955 -3770934.04129576,437270.0353420493 -4363919.2848261595,275226.700131962 -4970139.615446372,52338.08059595668 -5583856.102469845,-234232.47231178844 -6198882.375482636,-586769.9175845863 -6808632.611657152,-1006943.813846806 -7406177.7391471965,-1495748.0526327873 -7984309.708734054,-2053445.0174450488 -8535613.57565625,-2679515.161559805 -9052547.01914654,-3372612.9967032145 -9527526.809762942,-4130530.4714802466 -9953021.61539494,-4950168.692134291 -10321650.417214528,-5827518.898301749 -10626285.688286496,-6757653.552487042 -10860160.37159922,-7734728.333751849 -11016977.582541475,-8751995.743478894 -11091021.855006395,-9801830.934099104 -11077270.652062124,-10875770.26060809 -10971504.77321986,-11964562.929980477 -10770416.21248638,-13058235.985856453 -10471711.956319662,-14146172.715966396 -10074212.159975953,-15217204.408724245 -9577941.106144344,-16259715.214519152 -8984209.332712032,-17261759.6879302 -8295685.318380974,-18211192.40105238 -7516455.136903456,-19095808.827214107 -6652068.534003789,-19903496.500634898 -5709569.946483584,-20622395.263243437 -4697513.071243912,-21241065.21732325 -3625957.703422897,-21748660.814390082 -2506447.6977159563,-22135109.32936606 -1351969.0651046163,-22391291.797415406 -176887.39826253804,-22509224.331530225 1003135.9778861117,-22482237.594912477 2171249.509653299,-22305152.076208945 3309538.707244486,-21974446.71048645 4399175.0996096395,-21488418.307197705 5420586.446430364,-20847329.190868966 6353647.510516646,-20053540.433282956 7177890.3913467955,-19111628.059779115 7872733.110110407,-18028479.648970425 8417724.821740692,-16813368.81641458 8792805.713667069,-15478005.1800157 8978579.338249108,-14036557.549241731 8956594.82016038,-12505648.262313444 8709636.08565086,-10904316.815614544 8222014.982054209,-9253951.187503133 7479864.897639161,-7578185.553790795 6471431.258508567,-5902763.423221481 5187355.075292715,-4255365.586616542 3620945.542371941,-2665402.6707019135 1768437.5606930708,-1163772.514211092 -370770.03389055654,217416.96370302714 -2793899.797456202,1445158.2582919025 -5494608.813215297,2485886.5008507282 -8462833.827351516,3305851.2661869396 -11684672.460612476,3871515.313196929 -15142304.395088384,4149977.0928129926 -18813956.199654073,4109413.3495790283 -22673913.160221674,3719537.6467786976 -26692581.12183839,2952070.1673293347 -30836600.92909535,1781213.6907586323 -35069017.570410594,184130.22785014863 -39349505.59244581,-1858587.5835934011 -43634651.75601849,-4362456.548539118 -47878295.2580499,-7338660.951514777 -52031925.149919614,-10793635.274166647 -56045133.84653519,-14728678.450375542 -59866124.84883789,-19139606.58304161 -63442272.00255051,-24016451.03235037 -66720726.79580607,-29343208.68413156 -69649069.36670978,-35097651.01425631 -72175998.05847068,-41251198.277159914 -74252051.53472494,-47768864.76072439 -75830356.66191983,-54609280.56417245 -76867394.59039459,-61724794.76961866 -77323776.73283124,-69061664.19213097 -77165021.65996596,-76560331.10936654 -76362323.32092671,-84155792.49327253 -74893300.46137238,-91778062.29757036 -72742716.66862561,-99352727.30177025 -69903160.13079269,-106801595.88276383 -66375671.96751296,-114043437.88751478 -62170311.883910686,-120994812.52539922 -57306649.92607662,-127570979.89805609 -51814173.28458455,-133686890.45136227 -45732597.40950404,-139258245.28271827 -39112071.17214075,-144202618.8828357 -32013266.43980924,-148440634.55130395 -24507343.223156396,-151897181.41704282 -16675782.511874437,-154502660.73664886 -8610080.033122694,-156194247.95469457 -411295.44454850507,-156917155.90961406 7810547.094771943,-156625883.57655436 15937209.454365443,-155285433.87405065 23843141.92793994,-152872483.34394687 31396536.42041831,-149376485.9623756 38460527.403859146,-144800692.97178942 44894535.578315884,-139163070.45694843 50555747.05853096,-132497096.43688628 55300718.73985449,-124852419.5240404 58987098.30034692,-116295361.72301719 61475445.096038654,-106909248.71437888 62631136.02997961,-96794552.00089672 62326338.35155428,-86068828.58912396 60442029.30064833,-74866445.43977869 56870040.58233462,-63338077.74424927 51515103.873601876,-51649972.1668944 44296871.95590428,-39982968.524710715 35151888.66806813,-28531275.945484094 24035479.714402657,-17501002.336288534 10923535.47355754,-7108438.986640171 -4185843.636483648,2421894.699358994 -21270868.945067808,10859438.027090222 -40284782.08650124,17969995.637614198 -61154799.48484228,23518348.65825884 -83781311.0655268,27271051.530376393 -108037360.22729634,28999392.09273787 -133768430.42092784,28482488.964336812 -160792561.56571302,25510496.821643565 -188900816.98876822,19887886.85149176 -217858118.59825164,11436766.531826798 -247404464.60839775,200.00000030298332" stroke="white" stroke-width="1.5" /><circle cx="150.12137650011238" cy="203.4817980637104" fill="red" opacity="0.7" r="14.738476308781951" /></svg>