<?xml version="1.0" encoding="utf-8" ?>
<svg baseProfile="full" height="400" version="1.1" width="400" xmlns="http://www.w3.org/2000/svg" xmlns:ev="http://www.w3.org/2001/xml-events" xmlns:xlink="http://www.w3.org/1999/xlink"><defs /><rect fill="black" height="100%" width="100%" x="0" y="0" /><circle cx="200" cy="200" fill="yellow" r="10.000707349188867" stroke="orange" stroke-width="2" /><polyline fill="none" points="199.5240648038857,200.0 199.42913590743527,199.97003224289412 199.33215967107395,199.92968910628326 199.23411343498694,199.8784895948366 199.13605027932005,199.81604606761965 199.0390908964533,199.74207500040924 198.94441407450532,199.65640716327968 198.85324581733423,199.5589970473453 198.76684714495244,199.4499313727492 198.68650063762598,199.32943651015913 198.61349580679206,199.19788465030166 198.54911339608748,199.0557985605465 198.49460873600398,198.90385477433458 198.4511942957289,198.7428850683984 198.42002159532626,198.57387609429531 198.40216266029543,198.39796704478132 198.39859121842383,198.2164452519837 198.4101638554412,198.03073963314424 198.43760136099195,197.84241192082396 198.4814705095743,197.65314563778125 198.54216653206515,197.4647328021092 198.61989654197274,197.2790583754729 198.71466418636777,197.09808249620647 198.8262557942829,196.92382056936458 198.95422829500498,196.7583213172947 199.09789917490735,196.60364292658375 199.25633873409473,196.46182745999394 199.42836489301564,196.33487373486005 199.6125407842228,196.22470890196897 199.80717534555671,196.13315899076167 200.010327108169,196.06191871733884 200.21981134600176,196.01252088075546 200.43321072267457,195.98630569998767 200.6478895373188,195.9843904682685 200.8610116329187,196.00763992274514 201.06956198940517,196.05663774513766 201.27037197938927,196.13165962282213 201.46014821736736,196.23264830908101 201.63550488388472,196.35919112574936 201.79299935496667,196.510500350756 201.92917091463283,196.6853969267749 202.04058227506383,196.88229791507044 202.12386357560402,197.09920810039674 202.17575847891166,197.33371612832133 202.1931719309043,197.5829955254627 202.17321910141203,197.8438109158255 202.11327497539608,198.11252970271167 202.01102402097695,198.38513943570322 201.86450932112047,198.65727102614588 201.6721805214222,198.9242279127107 201.432939917774,199.18102121134933 201.14618598553207,199.42241081176277 200.811853636846,199.64295230594476 200.43045048571753,199.83704955409416 200.0030884017571,199.99901260997012 199.53150964404068,200.1231206424248 199.01810688642038,200.2036894033115 198.46593647549372,200.2351427052263 197.8787243024825,200.21208728666656 197.2608637206993,200.12939035830328 196.61740500115022,199.98225904334438 195.95403589008552,199.76632084863004 195.2770529137691,199.47770423238836 194.59332316706593,199.1131182707522 193.91023642316864,198.66993036944407 193.23564751127284,198.14624092072 192.5778090264967,197.5409537699234 191.9452945608914,196.85384133199375 191.34691277493343,196.08560318708416 190.79161276420314,195.2379169870639 190.2883813146724,194.3134805220122 189.8461327806496,193.31604382861298 189.47359246034335,192.2504302712684 189.17917448346816,191.12254559223172 188.9708553615013,189.93937400940885 188.85604448218774,188.7089605398056 188.84145295371056,187.4403788427956 188.93296231856843,186.1436840101467 189.1354947605967,184.8298498785192 189.452886518687,183.51069060416873 189.88776629559905,182.19876641782128 190.4414405078588,180.90727366887967 191.11378726122905,179.64991947075433 191.90316095386515,178.440781471434 192.80630940440898,177.29415349343165 193.81830537348839,176.2243780127324 194.9324942931267,175.24566667490154 196.14045993841756,174.37191027543383 197.43200966872527,173.61647985792433 198.79518073115608,172.99202080473543 200.21626895695218,172.51024200740756 201.67988099195364,172.1817024049021 203.16901098587581,172.01559736358666 204.6651424227541,172.01954754035862 206.1483755077869,172.1993930161392 207.59758023562705,172.55899560789672 208.9905749539999,173.10005236019504 210.30432990682667,173.82192327898247 211.51519489566397,174.7214763980779 212.599149840483,175.79295325996014 213.5320766542251,177.02785784467846 214.29005047415086,178.41487189196394 214.8496479210502,179.93979943029603 215.18826968948804,181.58554315154458 215.2844744132744,183.3321150501105 215.11832040533218,185.1566834809777 214.67171154531584,187.03365848204982 213.92874328705156,188.9348168534448 212.87604448651305,190.82946809151656 211.50311051499716,192.68466184035674 209.80262292672498,194.46543705111955 207.77075080041064,196.1351125330887 205.40742877534663,197.65561804398132 202.71660675887136,198.98786450522982 199.7064662979617,200.09215134618498 196.3895986869242,200.92860838524183 192.78314002899506,201.45766905226623 188.9088586847553,201.64057115239186 184.79319082657824,201.43988077373356 180.46722017706634,200.82003435871408 175.966598440988,199.747893398756 171.3314034440971,198.1933056835548 166.6059325669948,196.12966654769366 161.83842970545737,193.53447311775287 157.08074469700372,190.38986418104187 152.3879249224502,186.6831379812516 147.81773961529723,182.40724000504898 143.43013828444654,177.5612126649095 139.28664556936303,172.1505987148118 135.44969579273882,166.18779026368102 131.98191144439724,159.69231538281187 128.94533081105334,152.691054543191 126.40059094824666,145.2183794709506 124.40607316111827,137.31620747727624 123.01701910688969,129.0339649048946 122.28462654052554,120.42845403737974 122.25513458230205,111.56361863909557 122.96890917775757,102.51020423028831 124.45954013253346,93.34531024971801 126.75296172272085,84.15183241066862 129.86660939153825,75.01779480793232 133.80862543189477,66.03557267443992 138.57712680868056,57.30100810589022 144.15954838229143,48.91242255763149 150.5320747447871,40.969531456111866 157.65917366225443,33.57226784180364 165.49324372287626,26.819523554467708 173.974388212986,20.807818066444867 183.03032647794197,15.629906645526233 192.57645306788848,11.373341065029564 202.51605381947763,8.118997553177906 212.74068668482138,5.939588064297027 223.13073359222358,4.898172237785559 233.5561279160634,5.0466885641247075 243.87726025473668,6.424524277328118 253.94606317769367,9.05714431748271 263.6072734200092,12.954800333359174 272.6998676930685,18.111341102427815 281.058665863026,24.50314591427542 288.5160927476235,32.08820237527809 294.9040872221913,40.8053497313538 300.05614473513106,50.57370815790799 303.80947674204685,61.292313520539864 306.00726800815494,72.8399758585208 306.50101023460763,85.07537828056435 305.15288807134044,97.83743108757412 301.8381913235202,110.94589375229943 296.4477250778958,124.20227489757684 288.89018760694216,137.39101763366614 279.09448429008194,150.28097455616177 267.0119444593577,162.62717338843333 252.61840706746767,174.17287070053536 235.9161404232232,184.65188737848604 216.93556097525317,193.791215586695 195.73671627846886,201.3138828994402 172.41049787549997,206.94205511614754 147.0795508893193,210.40035506526064 119.89884867157855,211.41937049180981 91.05590289696737,209.73931996678002 60.77058204501526,205.11384170727865 29.29451426936771,197.31386631291042 -3.089945783498763,186.13153076507734 -36.07120258938198,171.38408766270598 -69.31036964843634,152.9177606412481 -102.44369054644693,130.6114943025617 -135.0854326475179,104.38054483132476 -166.83124911043785,74.17985584703162 -197.2619988075548,40.00716299478435 -225.9480073317847,1.9057703649254165 -252.45374566518524,-40.033057901424826 -276.3428963189631,-85.66814647442754 -297.183769913859,-134.80695207080583 -314.5550283314143,-187.2046524324735 -328.0516638160625,-242.5638290745228 -337.29117683499,-300.5347876630773 -341.91988920109395,-360.7165548935966 -341.61932303060337,-422.65858493266774 -336.11257063952155,-485.8632018786461 -325.170575581246,-549.7887973173458 -308.61824079037837,-613.8537939384521 -286.3402763220648,-677.4413773883349 -258.2866965564862,-739.9049891293678 -224.4778750642476,-800.5745631304846 -185.00906468456697,-858.7634788160312 -140.05429083133947,-913.7761919492332 -89.8695276807905,-964.9164941326706 -34.79506976673889,-1011.496340491733 24.74298433746725,-1052.845173998076 88.23221410350598,-1088.3196639273967 155.07439594971748,-1117.3137652754958 224.58712186823107,-1139.2689957310374 296.0065712158206,-1153.684817179576 368.49147833739585,-1160.128999851325 441.12832666951704,-1158.2478392861447 512.9377867633027,-1147.7760894338612 582.882401356388,-1128.546469594141 649.8755053165248,-1100.498598680843 712.791352098384,-1063.68720761682 770.4764014432086,-1018.289479663146 821.761705569324,-964.6113692864806 865.4763132295823,-903.0927528803923 900.4615929458096,-834.311269375467 925.58635868193,-758.984715574503 939.7626634123536,-677.9718699879414 941.9621087183071,-592.2716300529607 931.2325019497149,-503.0203609043605 906.7146768792788,-411.48736930706866 867.6592794087297,-319.0684339112313 813.443307026794,-227.2773425741982 743.5861796251916,-137.735409002067 657.7651102092659,-52.158964257819264 555.8295372419719,27.655156406374203 437.8143760707327,99.84608461017821 303.95184532737056,162.50727351036485 154.6816255642371,213.70663335601776 -9.340888125905565,251.50831616755477 -187.23847001017936,273.99598841452956 -377.90830350514216,279.29740124575386 -580.0207816152382,265.6100389086374 -792.0210546447504,231.22759786959938 -1012.1334901369125,174.56702221681957 -1238.3691848192573,94.19579560552981 -1468.5366397353473,-11.14083328280114 -1700.2556778454616,-142.4930356267837 -1930.9746483589593,-300.68035950526433 -2157.990924145235,-486.2668355505025 -2378.474658036274,-699.537618623155 -2589.4957210106677,-940.4775597821742 -2788.0537005159326,-1208.7521052427157 -2971.1107909717875,-1503.6909166631253 -3135.6273612774007,-1824.2745996877388 -3278.5999364403024,-2169.1249149485393 -3397.1012828154853,-2536.498827499137 -3488.3222394862773,-2924.2867267756465 -3549.6148926651135,-3330.015119571643 -3578.536646295604,-3750.854063161126 -3572.894700973262,-4183.629564660547 -3530.790415557834,-4624.841126117916 -3450.6629921167855,-5070.684562860531 -3331.3318958059945,-5517.080165611452 -3172.0373976360415,-5959.706215168692 -2972.4786104445284,-6394.037792482886 -2732.8483774203023,-6815.390757306066 -2453.864368786357,-7218.970695834724 -2136.7957462754425,-7599.926562632127 -1783.4847672960336,-7953.408665363673 -1396.3627215863241,-8274.630563361077 -978.4596230069938,-8558.934373659493 -533.4071181599013,-8801.858901899457 -65.43412186748441,-8999.209941374864 420.64525277045243,-9147.132012605927 919.4518351023534,-9242.180749219115 1425.0698978412715,-9281.395074739978 1931.0842229408443,-9262.3682602752 2430.625844343558,-9183.316906095173 2916.4264790457523,-9043.14685192422 3380.8815505833327,-8841.514992365654 3816.1215957055756,-8578.885956344911 4214.091726677625,-8256.582603686924 4566.638699476584,-7876.829298819063 4865.605013380173,-7442.78694186515 5102.9293414714,-6958.578771717011 5270.752465883529,-6429.306004551879 5361.5277677680615,-5861.052435071837 5368.135201650438,-5260.877206683411 5283.99756877653,-4636.795050942654 5103.197796030058,-3997.7434057073197 4820.595827833353,-3353.535945212629 4431.943649957801,-2714.802193162334 3933.996888180524,-2092.9130411295923 3324.621363016187,-1499.892158108882 2602.892936046725,-948.313451736861 1769.188955311627,-451.1849260849998 825.2695983360725,-21.819473372981975 -225.65257694147044,326.30666439360596 -1378.8565295936992,579.7068250502632 -2628.071681399827,725.0471036386213 -3965.4534307230106,749.3184297780444 -5381.576650207718,640.0159961924454 -6865.44845506846,385.32429421479173 -8404.541375237244,-25.69417462295951 -9984.84788675544,-602.9086170109781 -11590.957056116567,-1354.9303631326216 -13206.153826704453,-2288.9263889382064 -14812.541230288853,-3410.438478508241 -16391.185540350478,-4723.210659253745 -17922.284099782286,-6229.027616290145 -19385.35525558227,-7927.566837176718 -20759.449520193444,-9816.267251854677 -22023.380756178118,-11890.217112779565 -23155.975851288873,-14142.063804938784 -24136.341018367144,-16561.948182979737 -24944.142522801336,-19137.465901712752 -25559.899313698355,-21853.65803584609 -25965.284717872997,-24693.033074437266 -26143.434052817192,-27635.622125143927 -26079.25473069286,-30659.068873364537 -25759.73516489337,-33738.75551273182 -25174.248558658655,-36847.96549765721 -24314.847456403317,-39958.083567788526 -23176.54477752427,-43038.83306097532 -21757.576934034285,-46058.55006884917 -20059.644561741257,-48984.4935012217 -18088.12637388475,-51783.189616548785 -15852.261679811621,-54420.80905062254 -13365.297202653908,-56863.57383988986 -10644.593981792974,-59078.19139530865 -7711.690360311435,-61032.31184384313 -4592.317336175826,-62695.00462438608 -1316.3628993882505,-64037.24971025093 2082.217614130931,-65032.43833884019 5565.547648336851,-65656.87766834152 9092.03399338569,-65890.29335912438 12616.631157515249,-65716.32370173126 16091.166256795697,-65122.998591778814 19464.724429762427,-64103.19639232211 22684.094031316734,-62655.071533672824 25694.270066514302,-60782.445586296184 28439.013497077733,-58495.15451077371 30861.463199689017,-55809.34484584771 32904.796484216866,-52747.71174647719 34512.93320170214,-49339.672033055096 35631.27759659331,-45621.46576394697 36207.49119647716,-41636.18029875444 36192.289197049766,-37433.69138050979 35540.25200243875,-33070.51643146528 34210.64283367151,-28609.57602802838 32168.22163375962,-24119.86039312857 29384.044889266563,-19675.99871484244 25836.2404679841,-15357.730162926238 21510.74615285469,-11249.276622973592 16402.000245511535,-7438.618392656947 10513.572430123324,-4016.675375821068 3858.7230402172154,-1076.397656475402 -3539.1210325754523,1288.2292770893825 -11645.98529988247,2983.257972217879 -20417.072611200572,3915.923002716167 -29796.60459046294,3995.8459754828555 -39717.789359442235,3136.2906192213914 -50102.92441746808,1255.4556651957855 -60863.64245991338,-1722.2080642975452 -71901.30666126877,-5864.67115608572 -83107.56052664854,-11231.00560040257 -94365.03583487672,-17870.08817040583 -105548.22046592484,-25819.344919560535 -116524.48603690574,-35103.55520684576 -127155.27327806852,-45733.73415344348 -137297.43097976616,-57706.11272621043 -146804.70215208104,-71001.2347156528 -155529.34878199289,-85583.18971373822 -163323.90427222094,-101399.00078598979 -170043.0403268216,-118378.18486137426 -175545.5327389185,-136432.50292345465 -179696.3082649508,-155455.91587080987 -182368.55256836183,-175324.76042048456 -183445.8571157862,-195898.1576551575 -182824.3809434604,-217018.66476619247 -180415.00141420364,-238513.1782277818 -176145.42648954512,-260194.0940628702 -169962.2396807488,-281860.72804423573 -161832.8477492499,-303300.9956328056 -151747.3004329476,-324293.3482127627 -139719.95100973814,-344608.9587662429 -125790.926401521,-364014.1465701624 -110027.37579585111,-382273.0268286612 -92524.46744066826,-399150.3674151876 -73406.10436874618,-414414.63113017526 -52825.33134727622,-427841.1781285154 -30964.40733452525,-439215.59948339284 -8034.5201650486,-448337.14927973575 15724.876922516782,-455022.2392235685 40047.12396113507,-459107.9565665349 64639.82140488819,-460455.56323217327 89186.71482898919,-458953.9314467136 113350.00166943192,-454522.86897646583 136773.05954076635,-447116.28530932695 159083.59039396883,-436725.14884064347 179897.1692178034,-423380.184382227 198821.18019671526,-407154.26015284343 215459.1172726474,-388164.4138698323 229415.2199797117,-366573.46868063055 240299.40929745417,-342591.1914800237 247732.48217366592,-316474.9486774403 251351.51737906635,-288529.81772495975 250815.43955533323,-259108.11669926715 245810.6827895738,-228608.31894922166 236056.88987948972,-197473.32526583012 221312.57873256187,-166188.07218388774 201380.7031582574,-135276.4618554382 176114.0317525777,-105297.60640484655 145420.26572533406,-76841.38773359633 109266.81446536414,-50523.34232905299 67685.14645625911,-26978.889673965303 20774.63291819299,-6856.932270462388 -31294.197673604278,9187.135008320218 -88277.0741981479,20498.958645818133 -149854.14366636128,26433.245745772612 -215628.9510870138,26362.2013884469 -285128.306037092,19684.306910724947 -357803.09705270204,5833.352525022477 -433030.10726094624,-15712.371278287934 -510114.8757976426,-45420.827482743225 -588295.6395316779,-83697.04304090537 -666748.3784919336,-130874.09447732408 -744592.9762318125,-187204.3927211461 -820900.4932513381,-252851.3958891188 -894701.5376267853,-327881.8820456421 -964995.7022894106,-412258.91585167265 -1030762.0230816288,-505835.64336004615 -1090970.3959509195,-608350.0479139359 -1144593.8755843716,-719420.7970631731 -1190621.761620849,-838544.3055519375 -1228073.362496739,-965093.1326888659 -1256012.3111910888,-1098315.8237452228 -1273561.2918524512,-1237338.2944172665 -1279917.021737225,-1381166.8448372558 -1274365.3192973374,-1528692.8751495841 -1256296.0768575342,-1678699.3583360678 -1225217.9453534123,-1829869.1078558248 -1180772.5292927318,-1980794.8578660672 -1122747.8826815493,-2129991.152444371 -1051091.0913422129,-2275908.017502689 -965919.7240491251,-2416946.365158252 -867531.9344130218,-2551475.0554244863 -756414.9976292077,-2677849.514450533 -633252.0712219474,-2794431.782440457 -498926.9768934821,-2899611.83811674 -354526.8116208491,-2991830.0204726476 -201342.21030433016,-3069600.342918989 -40865.099591251324,-3131534.47012411 125216.19702588792,-3176366.1042361995 295024.61915081827,-3202975.505137481 466504.8841641352,-3210413.8492905227 637436.9168300305,-3197927.113978215 805452.2217778482,-3164979.1586874505 968053.192061329,-3111273.6634116624 1122635.31001051,-3036774.5751032303 1266512.15766993,-2941724.7087303726 1396943.1136175867,-2826662.148695471 1511163.5712798017,-2692434.1000351994 1606417.4714373935,-2540207.847093967 1679991.898936268,-2371478.4904462085 1729253.4511842197,-2188073.150900172 1751686.0443801591,-1992151.3525543532 1744929.7831530687,-1786201.325149812 1706820.4809785385,-1573031.9993598543 1635429.38299849,-1355760.507110704 1529102.6103110337,-1137795.0423927673 1386499.8160407902,-922812.9860918558 1206631.5191578749,-714734.2508603268 988894.562684217,-517689.85860235087 733105.1291855351,-335985.823334465 439528.7388412304,-174062.4754965878 108906.65441799397,-36449.42965158538 -257521.8763969621,72283.5347251986 -658002.0972216128,147579.34071706329 -1090251.4722289091,184949.82169405866 -1551453.173346727,180034.7923693092 -2038255.7925365062,128663.43864510817 -2546779.7001375593,26917.416345022077 -3072630.415797539,-128805.01322894225 -3610919.295834199,-341724.54093641305 -4156291.7702221377,-614616.8434214952 -4702963.284113928,-949749.9220646521 -5244763.013351067,-1348823.6159735073 -5775185.331379663,-1812912.1889173083 -6287448.907061958,-2342410.9122007317 -6774563.209892387,-2936987.57757519 -7229402.09202836,-3595539.8755805423 -7644784.006387207,-4316159.564456898 -8013558.308008102,-5096104.33231945 -8328696.973198192,-5931778.220111693 -8583390.95903497,-6818721.424528738 -8771150.31602413,-7751610.238353484 -8885907.060625901,-8724267.810344046 -8922119.713527815,-9729686.317978531 -8874878.315566244,-10760061.044203563 -8740008.647710498,-11806836.73422396 -8514174.306153188,-12860766.480876362 -8194975.21991579,-13911983.248008097 -7781041.148054374,-14950083.991483353 -7272118.658058199,-15964226.178113969 -6669150.06780338,-16943236.335303318 -5974342.831789442,-17875730.090033423 -5191227.869541099,-18750242.9767442 -4324705.371051797,-19555371.111543354 -3381076.6718429443,-20279920.647107974 -2368060.8692860818,-20913064.740812037 -1294794.9527303136,-21444506.590378698 -171816.34290138146,-21864646.919174045 988973.1190622764,-22164754.129673194 2174362.5260275174,-22337135.191258695 3369907.208264311,-22375305.189991217 4560024.38368669,-22274153.34598537 5728109.32627842,-22030103.201145396 6856671.980218777,-21641264.59883226 7927493.687966637,-21107575.020003725 8921803.42806637,-20430927.809827555 9820472.675207604,-19615284.826858427 10604227.703909365,-18666771.0755433 11253877.861197013,-17593748.94376303 11750558.036156742,-16406869.761737037 12075983.258887045,-15119100.527987033 12212713.071939347,-13745723.812900985 12144423.037843809,-12304309.05107498 11856180.48089855,-10814653.669949295 11334721.314302783,-9298692.77374201 10568724.579237228,-7780376.40729387 9549081.12495009,-6285513.7626657775 8269152.692548866,-4841584.060136073 6725017.534191642,-3477514.232105454 4915698.607709934,-2223423.9602639643 2843370.3381546983,-1110339.0596373726 513539.9358315098,-169874.66372943931 -2064800.691777297,566109.8616580189 -4879056.296475759,1065881.8672454928 -7912946.621381,1298229.3396883742 -11146465.204095086,1232874.4197612517 -14555881.877351267,840902.6775240386 -18113791.86604621,95203.84901682909 -21789213.994161654,-1029080.6915917398 -25547740.072593518,-2554108.8511584545 -29351737.04102435,-4498892.618527449 -33160602.886180848,-6878862.557626459 -36931076.75841757,-9705448.071994485 -40617603.06271484,-12985679.731408436 -44172748.613852665,-16721820.098557867 -47547671.22456201,-20911029.570787113 -50692637.3465021,-25545073.7531209 -53557585.61441439,-30610078.799018342 -56092732.36194913,-36086340.99012443 -58249214.39237083,-41948196.57206424 -59979763.50812253,-48163957.51720971 -61239406.54021318,-54695918.445548035 -61986183.882134795,-61500439.40044945 -62181878.83447118,-68528108.54760094 -61792749.416757934,-75723988.14416017 -60790253.713840134,-83027946.31404167 -59151759.306325965,-90375076.26825595 -56861226.89998445,-97696203.63177581 -53909857.92805918,-104918481.4873015 -50296695.66397191,-111966071.62964362 -46029169.259727605,-118760909.35177736 -41123570.126667395,-125223547.86575955 -35605450.20831083,-131274077.21077602 -29509931.96704604,-136833111.2299328 -22881920.323300496,-141822834.9215474 -15776207.35205075,-146168103.20509595 -8257461.260087952,-149797580.90312964 -400092.03959608974,-152644912.5455433 7712012.781235081,-154649909.46939674 15985887.694156231,-155759740.63426375 24320028.155297905,-155930112.61831734 32605071.539068785,-155126423.42245933 40724621.131039016,-153324874.00709116 48556212.47850314,-150513520.93633682 55972419.60043605,-146693253.12480474 62842096.65098898,-141878675.48838645 69031748.65010059,-136098882.3080118 74407022.86105263,-129398103.33716182 78834310.32953873,-121836206.13173057 82182445.02570336,-113489038.76428899 84324485.97481951,-104448598.0110092 85139565.75064588,-94823009.27340035 84514786.76589194,-84736305.92036024 82347144.9557379,-74327997.408101 78545458.74245057,-63752417.45185496 73032279.62202518,-53177845.676709644 65745759.35723595,-42785398.5542758 56641447.62539997,-32767688.022957824 45693993.082148,-23327248.974053986 32898720.192616764,-14674739.742354779 18273053.87447781,-7026922.842787781 1857764.0176440445,-604436.4154702381 -16281997.685451472,4370629.852163973 -36055895.42817011,7677337.200846892 -57347867.205978185,9098658.178878779 -80015867.15528728,8424371.092561705 -103891914.59238248,5454061.428440728 -128782469.70717464,200.0000001577133" stroke="white" stroke-width="1.5" /></svg>