<?xml version="1.0" encoding="utf-8" ?>
<svg baseProfile="full" height="400" version="1.1" width="400" xmlns="http://www.w3.org/2000/svg" xmlns:ev="http://www.w3.org/2001/xml-events" xmlns:xlink="http://www.w3.org/1999/xlink"><defs /><rect fill="black" height="100%" width="100%" x="0" y="0" /><circle cx="200" cy="200" fill="yellow" r="10.0000093056142" stroke="orange" stroke-width="2" /><polyline fill="none" points="200.1699980317787,200.0 200.08668005767845,200.00455030706655 199.99770041216902,199.99975789710717 199.90381968150936,199.98474067831657 199.80591144618106,199.95867427021457 199.70495901679402,199.92080578153357 199.6020505874707,199.870467610244 199.49837276105066,199.80709109515132 199.39520241765482,199.73021983890845 199.29389691685378,199.63952251429635 199.1958826437626,199.53480495943933 199.10264193067948,199.4160213634389 199.01569840821412,199.28328434191457 198.93660086300213,199.13687370230767 198.86690570284836,198.97724370168257 198.80815815421852,198.80502860528745 198.7618723411397,198.6210463624178 198.72951041846866,198.42630022724313 198.7124609558387,198.22197816626374 198.71201679106633,198.00944991097725 198.72935259305413,197.79026153413918 198.76550239391983,197.56612745064493 198.82133736786056,197.33891976945142 198.8975441497816,197.11065495096216 198.9946039996312,196.88347775474745 199.11277312835594,196.65964249514587 199.25206450810015,196.44149165693798 199.4122314924199,196.2314319595964 199.592753571585,196.03190799626225 199.79282458325653,195.84537361219364 200.01134368973564,195.6742612265623 200.24690941940776,195.52094934068896 200.49781705182298,195.38772851462465 200.76205960297585,195.27676613189146 201.0373326397474,195.19007030866442 201.32104312017321,195.12945333815222 201.61032241929456,195.09649509285723 201.90204365898197,195.09250683619837 202.19284341451055,195.11849592009239 202.4791478210965,195.17513186595593 202.75720305042432,195.2627143426629 203.0231100708277,195.38114356575198 203.27286354571714,195.52989364713642 203.5023946636323,195.7079894232712 203.70761763055083,195.91398728178152 203.88447949149005,196.1459604916004 204.0290128847223,196.4014895194223 204.13739126888044,196.67765778554198 204.20598610167966,196.97105327477837 204.23142538979494,197.27777637314122 204.2106529735046,197.5934542482241 204.14098785795133,197.91326203114932 204.02018285620824,198.23195099049383 203.84648176869004,198.5438838143442 203.61867428972573,198.8430770359253 203.3361478061942,199.12325055169674 202.99893523586283,199.37788408909822 202.6077580452549,199.6002803850419 202.16406358923564,199.7836347367049 201.67005592769993,199.9211104841681 201.12871929933087,200.0059198810891 200.54383346883,200.0314097060751 199.91998021264357,199.9911508650217 199.26254026922962,199.8790311347458 198.5776801534055,199.68935010217973 197.87232832020027,199.41691526266132 197.15414026167696,199.05713815693602 196.43145222997822,198.606129350884 195.7132234008062,198.06079099619416 195.00896642291877,197.41890565570299 194.32866644007078,196.67922003533488 193.6826888210339,195.8415222368917 193.08167598959662,194.9067111336326 192.53643390830308,193.87685647484307 192.0578089355013,192.7552483474718 191.65655594323462,191.5464346633217 191.34319875168333,190.2562453999577 191.1278841021679,188.89180240298413 191.02023055296425,187.46151365699 191.02917383806832,185.97505105236678 191.16281037621485,184.4433108152414 191.428240753488,182.87835592753711 191.83141512532535,181.293340043016 192.3769825901734,179.7024126021169 193.06814667511316,178.1206050622484 193.90652914110223,176.5636983893947 194.89204435985803,175.04807219962515 196.02278653373932,173.59053619324519 197.29493202235443,172.20814478749665 198.7026590033266,170.91799612323638 200.23808662820412,169.7370168939649 201.8912357367318,168.6817347187765 203.65001306271105,167.7680400508789 205.50022070193222,167.0109398767091 207.42559241699547,166.42430571363494 209.40785812547168,166.02061865292745 211.42683765744707,165.8107144151972 213.4605645771357,165.8035315838421 215.485440542485,166.00586635430994 217.47642032856214,166.42213727923502 219.4072272674918,167.05416359799776 221.2505984627909,167.90096081035486 222.97855872255963,168.9585571841176 224.56272172804896,170.21983487330198 225.97461651597735,171.67439926296683 227.18603690938562,173.30848004772344 228.1694110879489,175.10486739071072 228.89818805001408,177.04288629726867 229.34723729100503,179.09841207174335 229.49325761229522,181.24392940656142 229.31519058743783,183.4486372803072 228.79463385515155,185.67860141709932 227.91624908711688,187.89695558489083 226.66815919986735,190.06415248794355 225.04232915018025,192.13826444196326 223.03492447851423,194.0753334132993 220.64664165107186,195.82976936106357 217.88300420347377,197.35479514862948 214.75461871286205,198.60293559509176 211.27738472498345,199.52654752499356 207.47265294228913,200.07838695371234 203.36732624142718,200.21220882473756 198.99389843599144,199.88339400262 194.39042613439645,199.0495975310744 189.60042956367678,197.67141149942296 184.6727188371963,195.71303523244543 179.66114283592415,193.14294493911822 174.62425864614167,189.93455443514128 169.62492034703675,186.06685810299982 164.72978686420817,181.52504688184078 160.00874959299838,176.30108779762764 155.53428154087848,170.39425736137764 151.380710831665,163.81161908869433 147.62342254578328,156.56843543545355 144.33799402856957,148.68850460964651 141.59926997008188,140.204413014248 139.4803847314134,131.15769450557735 138.0517405495026,121.59888821963466 137.3799513795426,111.58748742753123 137.52676321528588,101.19177273098632 138.54796274629507,90.48852389882201 140.49228715064692,79.56260577252336 143.40034866476452,68.50642492839876 147.3035883019826,57.419255168877584 152.22327369148735,46.406431417189765 158.1695564632503,35.5784131972278 165.1406048970564,25.04972058086375 173.12182767026837,14.937747263488518 182.08520446632812,5.361457268105482 191.98873893240983,-3.5600263397965364 202.77604899005382,-11.70893044076567 214.3761087989168,-18.970426364376777 226.70315574506347,-25.234295838869286 239.65677466796026,-30.39665248993873 253.12217015362677,-34.361701236779595 266.9706361071237,-37.043516281211765 281.0602299805423,-38.367816862981726 295.23665698087086,-38.27371858876572 309.3343673266556,-36.715436961483476 323.1778671776925,-33.663918767368955 336.5832412458043,-29.108376247042514 349.35988232814003,-23.057698508634616 361.3124201117314,-15.541714459274914 372.242838606777,-6.612281657421391 381.9527685069279,3.655824058392625 390.24593768121963,15.164242512479376 396.93075991041167,27.79060990204556 401.8230389289432,41.38840795139015 404.7487618631543,55.78710129735663 405.54695330923107,70.79258063047294 404.0725586142081,86.18792648386501 400.199322454812,101.73450556806287 393.822626596851,117.17340820722998 384.86224880694647,132.22723175935872 373.2650033225952,146.6022109231697 359.0072221084415,159.99069157677607 342.0970353768623,172.0739402919768 322.5764095675227,182.5252769630203 300.5229011982183,191.01351312469404 276.0510857489195,197.20667356152856 249.31362204881816,200.77597378227642 220.50191452339664,201.40002091057647 189.84633814049582,198.76920058657265 157.61599397995516,192.59020765140406 124.11796704270166,182.5906737658259 89.69606220681678,168.52384076678615 54.72899911693207,150.17322456394427 19.62805223792796,127.35721079480793 -15.165871715506455,99.93352036498199 -49.18572028384423,67.80348047032948 -81.94234008437019,30.91603479978596 -112.92906700929655,-10.728574582987505 -141.62684120823167,-57.0755216222251 -167.5098183547634,-108.01257448593424 -190.05144061357407,-163.36780394432577 -208.73092255492742,-222.90788609243333 -223.0400991033286,-286.337060508771 -232.49057455883167,-353.296800885326 -236.6211039004694,-423.3662501265911 -235.0051300836828,-496.06346589367615 -227.25839399288822,-570.8475155727898 -213.046527224113,-647.1214516973271 -192.0925320694251,-724.2361899844853 -164.18404807262317,-801.4953024095158 -129.18030044022078,-878.1607271965192 -87.01862253540304,-953.4593863309606 -37.72044276222036,-1026.5906892875578 18.60337453710474,-1096.7348892230962 81.74794390603653,-1163.0622450263422 151.410637002024,-1224.7429294787432 227.1883283845368,-1280.9576105047372 308.57570795818634,-1330.9086192352277 394.9647525346826,-1373.8316055382618 485.64544075136746,-1409.007568962368 579.8077857592093,-1435.775140872535 676.5452486845343,-1453.5429821241564 774.8595829124042,-1461.8021501078033 873.6671447926396,-1460.1382795996838 971.8066905123744,-1448.2434137610187 1068.0486617141096,-1425.92731503219 1161.105944091694,-1393.1280807466712 1249.6460638175513,-1349.9218852190297 1332.304766414699,-1296.5316690026914 1407.700901780798,-1233.3345971146557 1474.452517714129,-1160.8681114170208 1531.194042718482,-1079.8344081401879 1576.5944173293178,-991.1031798187671 1609.376011977831,-895.7124717524359 1628.3341487773935,-794.867516536337 1632.3570248745448,-689.9374262357888 1620.445816459841,-582.4496403824352 1591.7347254927301,-474.0820490845125 1545.5107159725362,-366.65273407832615 1481.2326734954765,-262.10729637044506 1398.5497111810485,-162.50376706264677 1297.3183371258638,-69.99512780867036 1177.6181936304934,13.190501119855952 1039.7660768080495,84.77191426160577 884.3279470618971,142.43899099710612 712.1286465260822,183.8788225750453 524.2590490755481,206.8036014665366 322.0803820778459,208.9800433951472 107.22547677560512,188.26007791826476 -118.40327388192947,142.61250993920368 -352.63944499076456,70.15532249159034 -593.061761732884,-30.811738945866665 -837.0070640040185,-161.77468796997636 -1081.5871455938839,-323.973336630734 -1323.7095178399654,-518.370285870292 -1560.1021021945214,-745.6213174404843 -1787.3418075616003,-1006.0476504797166 -2001.8868969729629,-1299.6105337872034 -2200.1129946364267,-1625.8886473575362 -2378.3525291214264,-1984.0587835417796 -2532.9373520178156,-2372.8802689408885 -2660.2442144376496,-2790.6835725207975 -2756.742726899647,-3235.3635232355755 -2819.0453721581343,-3704.3775314906134 -2843.9590861656,-4194.74917297949 -2828.5378703748647,-4703.077450773409 -2770.135849800014,-5225.55200210243 -2666.4601464852394,-5757.9744602032815 -2515.62289810401,-6295.786119173589 -2316.1917171485425,-6834.101981317147 -2067.2378583767113,-7367.751192436998 -1768.38134163949,-7891.323791481524 -1419.832264658391,-8399.223617519227 -1022.4275364491702,-8885.727129956143 -577.6622675264684,-9345.047808055486 -87.71506832871285,-9771.405704102392 444.5334670553122,-10159.101631994467 1015.4897784241818,-10502.595380726667 1620.8444975036273,-10796.587251340465 2255.578327275929,-11036.102127649057 2913.977153796533,-11216.575206708138 3589.65682108553,-11333.938435884489 4275.597908315984,-11384.706630819159 4964.190746817401,-11366.062183930218 5647.290802940741,-11275.937217682816 6316.284432328089,-11113.091991984562 6962.164882485565,-10877.188342001748 7575.618284829683,-10568.856902641859 8147.1192357791515,-10189.756870031086 8667.035420363247,-9742.627059550527 9125.740582731325,-9231.32704528333 9513.734997530877,-8660.867207827903 9821.772446154318,-8037.426576950002 10040.992554234754,-7368.357432907305 10163.057203491882,-6662.175725716363 10180.289594162028,-5928.536485164241 10085.814405927966,-5178.193525802156 9873.69738765531,-4422.942900049507 9539.08260153578,-3675.549718214182 9078.325457583522,-2949.6581357480345 8489.119601973009,-2259.6845042214545 7770.615669474254,-1620.693891845633 6923.529878212598,-1048.260400187561 5950.240435940646,-558.3119340188772 4854.869742648344,-166.96031879831997 3643.350416073552,109.68209737129033 2323.473235777809,255.69797603182585 904.9151988533462,255.57102999617427 -600.7539932492272,94.4007096644447 -2180.0885415005605,-241.87656322055034 -3817.8075892137454,-766.261933727301 -5496.86182038282,-1490.4669512732073 -7198.526499105239,-2424.687424648279 -8902.521562915048,-3577.3811822151124 -10587.159087319904,-4955.052770005752 -12229.518119550377,-6562.048237454372 -13805.646538901843,-8400.363246191038 -15290.789241846076,-10469.467788494429 -16659.64157558457,-12766.150815734509 -17886.62655748912,-15284.388050725282 -18946.194024003376,-18015.236189023704 -19813.139455392527,-20946.756580831596 -20462.939827001333,-24063.971325750364 -20872.10344838319,-27348.854506066677 -21018.530374115,-30780.361029960663 -20881.879609753356,-34334.4952539526 -20443.938998896127,-37984.42120464485 -19688.993368375097,-41700.61582450525 -18604.186234017357,-45451.06622696342 -17179.87013485638,-49201.51146491231 -15409.940474776815,-52915.72879706347 -13292.147612722292,-56555.863882337006 -10828.381860940684,-60082.80374820511 -8024.926030043507,-63456.59076985689 -4892.670204274184,-66636.87526917695 -1447.2835441207321,-69583.4037023463 2290.6619005069056,-72256.53875954662 6295.620122357003,-74617.80705743603 10537.057252403738,-76630.4694729696 14979.498821953706,-78260.10855429246 19582.641701576646,-79475.22685980306 24301.53365769401,-80247.8495291911 29086.822823493112,-80554.12388963668 33885.078664951216,-80374.90845574751 38639.18523926245,-79696.34330251091 43288.80669707483,-78510.39348562511 47770.924078015596,-76815.3569618409 52020.44149846433,-74616.3283316943 55970.85884001998,-71925.60969603887 59555.00702620729,-68763.05999306029 62705.840934388114,-65156.374370230784 65357.28394116776,-61141.285451067946 67445.11705536445,-56761.67878374248 68907.90456607385,-52069.61531030911 69687.94713854311,-47125.254373175834 69732.25234187026,-41996.6715792933 68993.51170496955,-36759.56677098611 67431.07258580947,-31496.858402053702 65011.89241895528,-26298.161783899457 61711.46229287346,-21259.14994219882 57514.68631620952,-16480.797201563924 52416.70287539289,-12068.507083350123 46423.633678140824,-8131.127648084035 39553.24643117732,-4779.859024959868 31835.517127158913,-2127.0595307333 23313.07822552336,-284.9584718134338 14041.539512945365,635.7145725714449 4089.669128150282,527.1724918805376 -6460.576862743504,-713.9277508381479 -17514.186847732515,-3184.939426919926 -28963.397203567463,-6975.652578572521 -40688.174666304796,-12166.710539060681 -52556.883510286905,-18828.035506897366 -64427.14160876366,-27017.28341033908 -76146.86737237146,-36778.34929090451 -87555.51732054526,-48139.94522942509 -98485.51165293965,-61114.273412294446 -108763.8426725437,-75695.81726704478 -118213.8582925501,-91860.27366493367 -126657.21016040709,-109563.6489752308 -133915.9531834879,-128741.54124534651 -139814.7804719211,-149308.62995904128 -144183.37495881718,-171158.3936813277 -146858.85625121693,-194163.07442572064 -147688.29864384784,-218173.90577377423 -146531.29373023566,-243021.61963824442 -143262.5287114932,-268517.244094352 -137774.3493719945,-294453.20191689214 -129979.27480332623,-320604.7163678286 -119812.42935322098,-346731.5273974174 -107233.85599339673,-372579.9177744335 -92230.67437705163,-397885.0447755682 -74819.04632860802,-422373.568972635 -55045.91140830022,-445766.5673962287 -32990.45555219862,-467782.71396738675 -8765.276630547547,-488141.70562096103 17482.78788424159,-506567.9080456757 45572.20407677821,-522794.1904904086 75286.68610498447,-536565.914691148 106375.56965550159,-547645.0387184803 138554.6384317471,-555814.29249366 171507.42374632714,-560881.3779363609 204886.9927486217,-562683.1432539814 238318.2357801341,-561089.677826082 271400.6578440444,-556008.2715428963 303711.6732384085,-547387.1803868283 334810.3960796945,-535219.138561619 364241.9127875833,-519544.55663288356 391542.015673766,-500454.34499973746 416242.3696446518,-478092.30261848716 437876.07676570374,-452657.01228866423 455983.59612499014,-424403.1860240281 470118.96916329913,-393642.4070946686 479856.2935011371,-360743.2192596027 484796.3813863076,-326130.51852155646 484573.53231159935,-290284.2084263443 478862.3432137106,-253737.08648589795 467384.47406820796,-217071.9367035854 449915.28174613893,-180917.8113867884 426290.2308018353,-145945.4943973953 396410.9865198688,-112862.14765452367 360251.09316221403,-82405.15299266517 317861.1390166561,-55335.172305768916 269373.3096426044,-32428.460175509383 215005.23171773303,-14468.474778922271 155063.0121786877,-2236.8446750084127 89943.38097692447,3496.239051579865 20134.850783180125,1982.1240014847522 -53782.18660071457,-7495.801852136831 -131136.4995090055,-25611.31208968464 -211168.2544641064,-52984.362141521786 -293032.5054312497,-90170.05266629148 -375803.9746383574,-137647.66979296546 -458483.1519579297,-195809.9440219724 -540003.7252520964,-264952.6763675893 -619241.3383534498,-345264.88571691426 -695023.6566140957,-436819.63521985774 -766141.7023439154,-539565.6976582779 -831362.4041358567,-653320.2200289653 -889442.2852235056,-777762.5458886479 -939142.1968308515,-912429.3502369025 -979242.9831750537,-1056711.2357637594 -1008561.9455999252,-1209850.931089209 -1025969.9544997877,-1370943.221125064 -1030409.0394965053,-1538936.726870413 -1020910.2710269486,-1712637.6368161987 -996611.7303569028,-1890715.474713266 -956776.3503412477,-2071710.9688176187 -900809.3962767706,-2254046.0659597167 -828275.3452217617,-2436036.110022362 -738913.9134546936,-2615904.1788138156 -632654.9755741982,-2791797.5460867295 -509632.1153496522,-2961806.2068064245 -370194.5480450355,-3123983.3739781743 -214917.15676365994,-3276367.824693809 -44608.3915785276,-3417007.9418794303 139684.21002814182,-3543987.2668691617 336671.1094762482,-3655451.3467737613 544820.6710579988,-3749635.6300579277 762362.073550306,-3824894.13420761 987291.3947636901,-3879728.581293243 1217381.0059223403,-3912817.6710646166 1450192.3807662383,-3923046.137400323 1683092.3888135739,-3909533.2129345476 1913273.1035309872,-3871660.108944679 2137775.1144948034,-3809096.103545508 2353514.288307241,-3721822.8213207386 2557311.8764316784,-3610156.282131142 2745927.8196564126,-3474766.296339002 2916097.0490672127,-3316692.788417423 3064568.532730814,-3137358.641158044 3188146.7663406543,-2938578.668698023 3283735.355465418,-2722564.3485396723 3348382.2874256447,-2491923.9707626146 3379326.442884108,-2249657.896783158 3374044.8516852283,-1999148.660288858 3330300.155038256,-1744145.6892715448 3246187.6975511406,-1488744.4802323424 3120181.638618265,-1237360.1133756156 2951179.443982588,-994695.0606064488 2738544.0956366207,-765701.3059618234 2482143.342291699,-555536.87022285 2182385.3040690627,-369516.9072605213 1840249.7444603024,-213059.6184690534 1457314.3304988323,-91627.3126551467 1035775.2189586537,-10663.021122630636 578461.3326385996,24476.83951685521 88841.72669825677,8593.182065205312 -428974.5092042187,-63282.31432004143 -970246.3114844849,-195811.7780891157 -1529617.098745347,-393274.53720345465 -2101139.9808055796,-659490.2048348191 -2678311.993053596,-997742.3972512934 -3254117.5344996867,-1410704.0773351886 -3821081.0853381925,-1900365.5635602486 -4371329.1694655055,-2467966.2808136763 -4896661.41006243,-3113931.3550635553 -5388630.403052535,-3837814.167500099 -5838630.00510653,-4638245.984438941 -6237991.501165595,-5512893.76609923 -6578086.982585558,-6458427.229585786 -6850439.13249623,-7470496.19839123 -7046836.481439761,-8543719.21199398 -7159453.065542087,-9671684.294352448 -7180971.293175032,-10846962.68912573 -7104706.706173413,-12061136.262350451 -6924733.210085752,-13304839.150306128 -6636007.246619456,-14567814.091892043 -6234489.292324669,-15838983.731690513 -5717260.992583258,-17106537.01293056 -5082636.181003176,-18358030.59994801 -4330263.993171955,-19580505.078839038 -3461222.262102503,-20760615.4844552 -2478099.3821840407,-21884775.493527386 -1385062.8504538164,-22939314.409613464 -187912.7397624836,-23910645.848008644 1105881.5710576738,-24785446.81022115 2487162.9888167344,-25550845.620749906 3945088.076006348,-26194616.986512177 5467149.5074019125,-26705382.23430431 7039220.746682863,-27072812.587182608 8645623.876033513,-27287833.159745876 10269221.286159454,-27342825.18814354 11891531.684723739,-27231823.866398122 13492870.60937084,-26950709.03942922 15052515.339151083,-26497385.908069745 16548893.787540808,-25871952.83528581 17959796.634022146,-25076853.308533624 19262611.612343203,-24117009.113245178 20434578.52551104,-22999931.809156746 21453063.20396746,-21735809.676544774 22295848.268313278,-20337567.415098846 22941438.20567483,-18820896.03537026 23369375.923939317,-17204250.58233713 23560567.6153937,-15508813.572971804 23497612.44574336,-13758422.31462039 23165133.29114814,-11979458.597842267 22550104.47990158,-10200699.624816207 21642172.261876024,-8453129.440683758 20433963.532896608,-6769710.577783166 18921378.18779332,-5185116.098584448 17103860.36971471,-3735422.7285489277 14984643.828920277,-2457766.3008261644 12570966.605770817,-1389961.2857296397 9874250.313813366,-570086.7438349768 6910239.422858722,-36041.616253573964 3699096.131530024,174927.15738970088 265446.6758589626,26719.630544057654 -3361624.753451355,-515103.6718461154 -7148637.917040455,-1482794.9508293434 -11057837.223446691,-2905884.681551836 -15047373.65081736,-4810645.662364195 -19071549.729703017,-7219562.146345523 -23081128.761311807,-10150811.01471128 -27023708.725059234,-13617762.268364226 -30844160.554869637,-17628506.36137534 -34485129.64135817,-22185416.07067999 -37887598.55390333,-27284750.682521895 -40991508.080589645,-32916310.27139475 -43736432.76408322,-39063147.74543124 -46062306.17753396,-45701346.128132164 -47910190.2471901,-52799868.23566235 -49223081.99910512,-60320485.48847157 -49946750.19809497,-68217792.06350447 -50030593.47073952,-76439309.94797541 -49428510.67370419,-84925689.69795604 -48099773.49750381,-93611010.83688526 -46009890.59749522,-102423184.85382469 -43131451.93203944,-111284462.68394938 -39444941.47573076,-120112047.38081694 -34939506.076479405,-128818811.42971404 -29613667.95151877,-137314116.81353888 -23475968.180954285,-145504734.53883567 -16545528.569108311,-153295858.8726349 -8852519.413471183,-160592210.04539755 -438521.0569705106,-167299217.6575114 8643232.391493745,-173324275.5039268 18327738.095472563,-178578057.02216014 28538248.345739104,-182975879.09282708 39186442.2355943,-186439100.49956957 50172752.92513264,-188896540.00811005 61386856.84774824,-190285897.77393073 72708329.62316544,-190555162.6568162 84007471.68663698,-189663987.0302278 95146304.73432396,-187585009.8459999 105979738.03367214,-184305108.07130584 116356901.47087036,-179826556.17564034 126122639.92384224,-174168073.12973642 135119161.18001992,-167365736.40370286 143187827.18699777,-159473742.73384425 150171075.95730373,-150564995.98055038 155914458.9741029,-140731503.23433352 160268776.4930993,-130084561.45226246 163092290.73906618,-118754718.32792526 164252994.68703827,-106891492.8170304 163630911.93258452,-94662842.75613023 161120401.12849125,-82254369.3187945 156632436.63211483,-69868250.64242116 150096835.40476826,-57721899.81669206 141464398.86674446,-46046345.53367206 130708937.37381625,-35084337.03811837 117829144.27575764,-25088178.55829481 102850286.17622575,-16317302.112275535 85825676.06425425,-9035591.437520837 66837896.4568876,-3508473.7439337503 45999740.60168144,199.9999999436668" stroke="white" stroke-width="1.5" /><circle cx="180.69113542661592" cy="246.1212288310569" fill="red" opacity="0.7" r="14.854497299884601" /></svg>