<?xml version="1.0" encoding="utf-8" ?>
<svg baseProfile="full" height="400" version="1.1" width="400" xmlns="http://www.w3.org/2000/svg" xmlns:ev="http://www.w3.org/2001/xml-events" xmlns:xlink="http://www.w3.org/1999/xlink"><defs /><rect fill="black" height="100%" width="100%" x="0" y="0" /><circle cx="200" cy="200" fill="yellow" r="20" stroke="orange" stroke-width="2" /><polyline fill="none" points="199.0803080387352,200.0 199.10893746363348,199.95322328728716 199.14517593912012,199.9100032731062 199.1889045774974,199.8713170619297 199.23989749417493,199.83815742790142 199.29781725866863,199.81152173228242 199.36221142224093,199.79240004876215 199.4325102372792,199.78176259154387 199.50802567638542,199.78054655615026 199.58795185020648,199.78964249757334 199.67136691225804,199.80988038450377 199.75723652639962,199.84201548170472 199.84441895823863,199.88671422492644 199.9316718356343,199.94454026387157 200.01766060572498,200.01594085839346 200.1009686966263,200.10123382112894 200.18010937127585,200.2005952059193 200.25353923900323,200.31404794545693 200.31967336746476,200.44145164342305 200.3769019138227,200.58249372577905 200.42360816970546,200.73668215268384 200.45818788982248,200.90333988660117 200.4790697494136,201.08160130342335 200.48473675128773,201.2704107217921 200.4737483793769,201.46852321119127 200.44476327283112,201.67450782180651 200.39656217305696,201.8867533586105 200.328070876111,202.1034767986965 200.23838290485804,202.32273442464933 200.12678159964838,202.5424357178422 199.9927613133125,202.7603600241716 199.83604738635512,202.97417597110433 199.65661457168227,203.18146357928785 199.4547035753219,203.3797389746688 199.23083538067976,203.56648156843315 198.98582302916412,203.7391635325121 198.72078053972552,203.89528135832344 198.43712866417303,204.03238924630017 198.13659719416958,204.14813403409508 197.8212235596616,204.24029133266657 197.49334748718465,204.30680250228968 197.15560151997326,204.34581206546667 196.81089723999796,204.35570512130724 196.46240707479217,204.33514429678996 196.11354161899058,204.28310574498806 195.76792245158336,204.1989136794109 195.42935048462869,204.08227291763666 195.10176993712642,203.93329889691958 194.7892280884304,203.75254461994598 194.49583102839443,203.54102399084337 194.2256956857692,203.30023101032407 193.982898481494,203.03215431481786 193.7714210187024,202.73928656790028 193.59509328567856,202.42462824346495 193.45753491080546,202.09168537904526 193.3620950688514,201.74446092450356 193.31179169482894,201.38743936591723 193.3092507141912,201.02556436674445 193.356646045364,200.6642092379851 193.4556411716007,200.30914012569244 193.60733311296607,199.96647188735417 193.81219965500244,199.6426167177503 194.0700507074461,199.34422567919893 194.37998467343579,199.0781233897944 194.74035070625027,198.85123622539194 195.1487177160635,198.6705144956617 195.60185096295652,198.54284916038046 196.0956970340095,198.47498375802394 196.62537795138337,198.473422323349 197.18519509468314,198.5443341726301 197.76864354451538,198.69345653308886 198.36843736510315,198.92599608533968 198.97654624236654,199.24653057284428 199.58424378044404,199.65891170888807 200.182167634827,200.1661706779316 200.7603915249026,200.7704275828407 201.3085090237189,201.472806231001 201.8157288693658,202.27335567927489 202.27098138184564,203.17097996885667 202.6630354032122,204.16337747511858 202.98062500877842,205.24699127345684 203.21258506518382,206.4169718790189 203.34799453908005,207.6671536552902 203.3763262902719,208.9900461032953 203.28760191759883,210.3768411392964 203.07255006701084,211.81743734426868 202.7227664616056,213.30048202324966 202.23087377533025,214.81343174733215 201.5906793481028,216.34263186630534 200.79732863276342,217.87341527673783 199.84745217597452,219.39022050993918 198.73930386832043,220.87672896832134 197.47288815568362,222.31602088910216 196.05007388661593,223.69074935324107 194.47469248082615,224.98333138745028 192.75261814379874,226.17615493084088 190.8918279234229,227.25180015825944 188.9024395075352,228.19327337291583 186.7967247973412,228.98425140496408 184.58909746129433,229.60933418395993 182.29607287731704,230.05430289539063 179.93619910797327,230.3063808887113 177.52995782263787,230.35449428054275 175.09963438169476,230.1895289959459 172.66915662870215,229.8045808170286 170.2639022951752,229.19519486553634 167.91047530655476,228.35959083838094 165.63645168396675,227.29887024595274 163.47009616096216,226.01720187598147 161.44005107351688,224.52198172381608 159.57499953068458,222.8239636960815 157.90330532750016,220.93735751113508 156.45263251573715,218.87989038851018 155.24954799625135,216.67282934200645 154.31911093293587,214.34096116809027 153.68445320654428,211.91252755301676 153.36635552040048,209.41911310811162 153.3828241327628,206.89548458179388 153.74867351576017,204.37937998727094 154.47512052180434,201.911246923728 155.56939586875276,199.53392995280993 157.03437892859014,197.29230751701127 158.86826191505264,195.23287954721158 161.06424960784477,193.40330759719956 163.61030071979113,191.85191005703598 166.4889169038841,190.627115727199 169.67698520586848,189.77687977363107 173.1456794916363,189.34806682142096 176.8604260150269,189.38580667269753 180.7809378393237,189.93282884267123 184.86132228449185,191.02878278652108 189.05026494279048,192.70955132856184 193.29129308974584,195.0065653932122 197.52312051870683,197.94612866401175 201.68007494970342,201.54876125164088 205.6926082127205,205.82857182410484 209.48788838872576,210.79266793179167 212.99047201705852,216.44061443732676 216.12305335459033,222.7639500259604 218.80728651113068,229.7457717183616 220.96467509879025,237.36039712681313 222.51752283345667,245.57311388163544 223.38993732825904,254.34002520221856 223.50887813687947,263.6079999926536 222.8052389546131,273.31473510353595 221.21495278363022,283.38893651858723 218.6801078329101,293.7506251986354 215.15006097006406,304.3115721493534 210.5825346891473,314.97586597814666 204.94468282289105,325.640614776821 198.2141096265897,336.19678261939555 190.37982641063536,346.53015930995286 181.44312961510903,356.5224602671452 171.41838411761907,366.0525516053658 160.33369565812046,374.9977935851341 148.23145656365864,383.23549367633495 135.168749471982,390.64445852880226 121.21759449383555,397.1066321982757 106.46502622535667,402.50880605633324 91.01298822768442,406.74438394624656 74.97803403135624,409.7151843595518 58.490825396104015,411.33325972803505 41.69542045702903,411.5227113808899 24.748346507425026,410.22147733526754 7.817454495025004,407.3830688984435 -8.91944517290051,402.97823108901844 -25.276163227824867,396.9965011596946 -41.05992340969763,389.4476390507113 -56.07335750542086,380.362903444842 -70.11669238446888,369.79614725363194 -82.99011472462519,357.82470685961266 -94.49629595342088,344.55006028688695 -104.44305676875285,330.09823068581966 -112.64614748505494,314.619913106011 -118.9321174210612,298.29030450060776 -123.14124364515317,281.30861925533077 -125.13048666934668,263.8972752636699 -124.77643817875196,246.3007386668811 -121.97822364578218,228.78401882991454 -116.66032075319816,211.63080891303807 -108.77525298211094,195.14127149912665 -98.30611655377561,179.62947311815458 -85.26889818874616,165.42047613776685 -69.71454090234613,152.84710132076464 -51.730715326698856,142.24637934053914 -31.443254867922462,133.95571464243562 -9.017214398980741,128.308790186481 15.342485824782614,125.63124674420277 41.390866744116295,126.23617548482281 68.84318007046315,130.4194675059451 97.37570952450878,138.4550686702038 126.62710795869862,150.5901925293647 156.20028953661006,167.04054817690627 185.6648905183483,187.985643494512 214.5603060320718,213.5642273729552 242.3993035376236,243.8699370206769 268.67220655822877,278.9472183534607 292.8516347284761,318.7875886188825 314.39777834834365,363.32631078702025 332.7641775194652,412.4395487771483 347.40396765500134,465.94207123832655 357.7765447899857,523.5855693171372 363.3545957735631,585.0576505942761 363.631430203223,649.981567128935 358.1285429745468,717.9167303024079 346.4033286831988,788.3600588979299 328.05686194732414,860.7481996030201 302.74165113871913,934.460650896821 270.1692671413798,1008.8238121253672 230.11774371689017,1083.1159695236086 182.43864196590545,1156.5732200800749 127.06366834814152,1228.3963225386503 64.01073386867179,1297.7584525867828 -6.610658542458793,1363.8138264999563 -84.59481064474403,1425.7071443215161 -169.63611944963145,1482.5837901914658 -261.32636793377515,1533.6007138470002 -359.1531167828134,1577.9379037615834 -462.49929111101494,1614.8103490398114 -570.6440475346968,1643.4803742215852 -682.7649967742046,1663.2702187585855 -797.9418451377918,1673.57472130127 -915.1615048396204,1673.8739582713863 -1033.3247081842135,1663.7456766904245 -1151.2541442949955,1642.8773530844323 -1267.704119382384,1611.0777036822367 -1381.3717226682586,1568.2874662530633 -1490.9094601633806,1514.5892709676243 -1594.93929771052,1450.21641677843 -1692.0680332591076,1375.5603711505528 -1780.9038964501804,1291.1768146655165 -1860.0742515052984,1197.7900581803 -1928.2442573921007,1096.2956689393964 -1984.13631756015,987.7611533731964 -2026.5501304963045,873.4245583050463 -2054.3831322435935,754.6908689360616 -2066.651103174246,633.1261012519061 -2062.508694024602,510.4490083355915 -2041.2696108074174,388.5203443750769 -2002.426185033616,269.32965678670496 -1945.668045012626,154.97960565983337 -1870.8995961600267,47.66784045079902 -1778.2560135092212,-50.33350373732321 -1668.117448268034,-136.70059414852756 -1541.1211525239369,-209.08284162799708 -1398.1712322975898,-265.12982854431067 -1240.445749254352,-302.5200208975168 -1069.400905650467,-318.99102635547297 -886.772065615645,-312.3711247527666 -694.5713887116509,-280.6117634217709 -495.0818788618669,-221.8206770987971 -290.8476831710722,-134.2952615687517 -84.66051074281455,-16.55580219673655 120.45791880986587,132.6218664351137 321.2774441009669,314.17471489588877 514.3850480431172,528.7223496101255 696.2144113495569,776.5387948519806 863.0793308411718,1057.5267085441133 1011.2108449575295,1371.1945164413903 1136.7978521729533,1716.6369454556745 1236.0309501885633,2092.519426818177 1305.1491654524293,2497.066823187542 1340.489184445289,2928.0569104641463 1338.5366409953656,3382.819014801997 1295.9789584267737,3858.2381680316735 1209.7591924066915,4350.765100416108 1077.130270764249,4856.432338435759 895.7089811498337,5370.876617315161 663.5290170328503,5889.367753526673 379.0923580378825,6406.844051907006 41.41823281640458,6917.954245766144 -349.911107662158,7417.105887026743 -794.7085905858967,7898.520017675465 -1292.145282851905,8356.291864407869 -1840.7188945429868,8784.457206174018 -2438.2285885730603,9177.063970342355 -3081.756833520396,9528.248518443455 -3767.6589984535813,9832.315988061604 -4491.5613390877825,10083.823964605222 -5248.367963753914,10277.668666672509 -6032.277295411543,10409.17274283903 -6836.808462425431,10474.173697277858 -7654.83795634027,10469.111888047073 -8478.646789867718,10391.116976515283 -9299.97827334633,10238.091650608783 -10110.106403813259,10008.79139968922 -10899.914728465728,9702.899086195648 -11659.985404786095,9321.093039935227 -12380.69803421405,8865.10739622108 -13052.337696386707,8337.78340996553 -13665.21145819744,7743.110505254888 -14209.772477954037,7086.255864618538 -14676.750671578862,6373.581424764232 -15057.288757041682,5612.647226400833 -15343.08234709445,4812.2001651280725 -15526.52262101742,3982.1473082448842 -15600.839975674036,3133.513078486958 -15560.246936927306,2278.3797596806767 -15400.078506627311,1429.8109503734072 -15116.92803015138,601.7577786856928 -14708.776597032693,-191.0521063201482 -14175.11393464288,-933.2425360666066 -13517.048724186589,-1608.9333590391507 -12737.406261262231,-2201.9008184083714 -11840.811401625222,-2695.75283291675 -10833.754778022627,-3074.1179949221055 -9724.64034729172,-3320.8468492805728 -8523.812429297874,-3420.223767649167 -7243.560531398903,-3357.187487964174 -5898.1004143182845,-3117.558151639138 -4503.530047576475,-2688.2684448856353 -3077.7593245993144,-2057.5962390462387 -1640.4126585165375,-1215.3959315522945 -212.70385830168988,-153.32551770572218 1182.717010322006,1134.933722469595 2521.9447459183466,2653.4681550348037 3780.027730541666,4403.9366579262 4931.203494142914,6385.39278805306 5949.159986660665,8594.127626436995 6807.321024116016,11023.536647230922 7479.153971407865,13664.013881874183 7938.497317944439,16502.876529373832 8159.9053976091545,19524.32299618777 8119.007107006973,22709.427133343754 7792.875090890192,26036.171173706432 7160.401496748443,29479.519558722197 6202.676057545611,33011.5354821606 4903.361948363524,36601.541569597546 3249.064585160676,40216.32565859295 1229.6882978155868,43820.39214833588 -1161.2243791861142,47376.258852291976 -3926.1761911293625,50844.798717137404 -7063.426893327299,54185.62517075759 -10566.738713352188,57357.51923674816 -14425.160979405604,60318.895908832426 -18622.859225985056,63028.30662262816 -23138.993890698628,65444.9740016456 -27947.653441948332,67529.35439717128 -33017.84642451342,69243.72309619567 -38313.55647794563,70552.77644659721 -43793.863871191235,71424.24455353919 -49413.13650702885,71829.50764487482 -55121.292683853,71744.20869582726 -60864.137163213476,71148.85445387574 -66583.77128364841,70029.39662313531 -72219.07699017144,68377.78466284789 -77706.27372088002,66192.48143584089 -82979.54611529739,63478.93281844491 -87971.7394921152,60249.982361260925 -92615.11899693204,56526.22217744807 -96842.18725439096,52336.27143811159 -100586.55428580631,47716.97417813311 -103783.85238578646,42713.50856445343 -106372.68760319123,37379.40035519127 -108295.61845734795,31776.43398343852 -109500.15155465496,25974.45553398013 -109939.74286881839,20051.062842798685 -109574.79262547662,14091.179034621855 -108373.62100444337,8186.507017699746 -106313.41125562409,2434.863770465763 -103381.10633292736,-3060.6053271833753 -99574.2447987162,-8192.330355311788 -94901.72155326096,-12849.33555623089 -89384.45891204056,-16918.367871877217 -83055.97370013435,-20285.128608057195 -75962.82636743988,-22835.599784283273 -68164.9386594962,-24457.45498378624 -59735.76711284437,-25041.542784017507 -50762.32058557442,-24483.42914578302 -41345.01118519474,-22684.983492405307 -31597.329316935746,-19555.991643189587 -21645.335143157845,-15015.777302797236 -11626.960513021319,-8994.81247510037 -1691.1173824463222,-1436.295991968623 8003.389113868044,7702.321650748879 17289.142468505936,18447.88975156499 25991.588558755288,30810.208323351842 33930.695843625,44780.80195786629 40922.79379905418,60331.84016225367 46782.57862211554,77415.22744989026 51325.272418278124,95961.88591684897 54368.91925184379,115881.25216449157 55736.798622660564,137061.00922775 55259.93416827077,159367.07263027132 52779.67271773996,182643.84780837104 48150.30628087094,206714.77392619662 41241.70718470318,231383.16654948157 31941.94440905913,256433.36876406785 20159.84726548551,281632.2171320023 5827.48094989895,306730.82539130526 -11097.502781696527,331466.6850491631 -30629.677474647302,355566.07802101 -52753.854536536695,378746.79226333916 -77423.33472081397,400721.1269745081 -104558.43634609098,421199.1694383872 -134045.3371558385,439892.321008033 -165735.26529514857,456517.0451222795 -199444.07291623627,470798.80567278224 -234952.22341093904,482476.15955150477 -272005.220201146,491304.96287053055 -310314.5013979283,497062.6462214645 -349558.82047518,499552.5104961844 -389386.12840908905,498607.991290753 -429415.9675337305,494096.8368266976 -469242.3816862617,485925.14171460824 -508437.3411014076,474041.17681853246 -546554.674010776,458438.95401812316 -583134.4900631417,439161.46386756405 -617708.0735694363,416303.52407032583 -649803.2172612341,390014.17737590347 -678949.9598114215,360498.5790017065 -704686.6828845607,328019.3160257605 -726566.5160526332,292897.1044114053 -744163.9906251286,255510.81343219327 -757081.8764011223,216296.77227227733 -764958.1286591587,175747.31948277948 -767472.8664651418,134408.56276464395 -764355.2977070005,92877.32419804198 -755390.5012661404,51797.254509982406 -740425.972516831,11854.109215040457 -719377.8350103406,-26229.810584273167 -692236.618851637,-61702.039367339334 -659072.5050080703,-93787.12583896768 -620039.9346896516,-121694.57298321319 -575381.4840890134,-144627.49157084528 -525430.9072351565,-161791.9070705095 -470615.2535561479,-172406.64775717095 -411455.9720064553,-175713.7297388605 -348568.9203242297,-170989.14278987586 -282663.20615593105,-157553.9294486358 -214538.7964170272,-134785.43898055528 -145082.84232532885,-102128.6276939635 -75264.68000704198,-59107.26790596974 -6129.480372790981,-5334.919761296659 61209.4629903835,59474.48671534793 125579.80296817476,135496.61733379948 185760.54294602765,222787.4089964051 240493.73545244618,321274.6182926848 288497.4163472026,430750.4073383734 328479.6961480468,550865.1288498504 359153.91043464915,681122.4683849723 379254.7115169119,820876.095385047 387554.96394561965,969327.9660485969 382883.2872301893,1125528.410108199 364142.070576563,1288378.120245685 330325.76684308465,1456632.1471749693 280539.25651542936,1628905.9853825008 214016.05760887967,1803683.8142110035 130136.14430340896,1979328.9365035119 28443.12608706992,2154096.4325264194 -91339.46949787534,2326148.0205312944 -229293.07347855315,2493569.087298547 -385290.3776194168,2654387.8225695086 -558983.3284147844,2806596.360688106 -749793.0759870496,2948173.8013427057 -956902.1342852117,3077110.9493568987 -1179248.9986556342,3191436.5813888954 -1415525.452781538,3289245.015551463 -1664176.7790842287,3368724.728770604 -1923405.064913435,3428187.736593275 -2191175.771238759,3466099.4215799915 -2465227.7011496974,3481108.469834707 -2743086.472390123,3472076.5510964906 -3022081.561560057,3438107.3566099796 -3299366.9477325603,3378574.5911631766 -3571945.340332738,3293148.501680575 -3836695.930541034,3181820.5150175076 -4090405.55760097,3044925.5525237108 -4329803.131674604,2883161.588906729 -4551597.103791818,2697606.028266869 -4752515.721526125,2489728.481188265 -4929349.756891644,2261399.543698782 -5078997.341227055,2014895.201940308 -5198510.491182802,1752896.5156424223 -5285142.861060761,1478484.2690196428 -5336398.210398322,1195128.3194938728 -5350079.032585521,906671.4225780203 -5324334.75120932,617307.3651604821 -5257708.856488239,331553.2990316008 -5149184.325338881,54216.23143410961 -4998226.646031699,-209646.3007526096 -4804823.752744839,-454771.2724088511 -4569522.167271931,-675740.7484752967 -4293458.645290343,-867037.7395959828 -3978386.633498981,-1023106.9924658035 -3626696.862064664,-1138420.2878664837 -3241431.4245652286,-1207545.7346561223 -2826290.7352856966,-1225220.4639492314 -2385632.801506569,-1186426.045478293 -1924464.3064033766,-1086465.8688065608 -1448423.0663160544,-921043.6568478713 -963751.5042783844,-686342.2092533804 -477260.8695185226,-379101.40987286874 3713.9702915675316,3305.5230839064607 471369.23153552576,462798.6121606208 917496.3657520593,1000521.6254546702 1333555.4924998612,1616777.6406566543 1710757.82045843,2310970.8106553354 2040156.6317045796,3081555.472454844 2312746.2690505655,3925993.7263310268 2519568.4291964876,4840722.582323857 2651824.926804072,5821131.725688923 2700995.9581188173,6861552.891332407 2658962.759228071,7955261.759212501 2518133.425303536,9094493.188083058 2271570.535159514,10270470.493842946 1913119.1121314694,11473449.351417406 1437533.3496353924,12692776.756033035 840600.439798778,13916965.321681662 119259.76822712478,15133783.022462444 -728284.3207967055,16330358.297545837 -1702458.0247487435,17493300.244161677 -2802223.705235314,18608833.41695078 -4024997.4870947595,19662946.538152993 -5366580.664348284,20641554.203568663 -6821106.69402547,21530670.44637953 -8381005.484354733,22316592.797295034 -10036986.583056498,22986095.2578393 -11778042.744002752,23526628.386791937 -13591475.196108703,23926524.49087281 -15462941.757117694,24175205.712840002 -17376528.72738803,24263392.62645083 -19314847.265706714,24183310.781454086 -21259154.691733394,23928892.496179275 -23189500.879484676,23495971.07355252 -25084899.60527142,22882464.521622457 -26923524.394045886,22088545.79490269 -28682928.072944347,21116796.540843397 -30340284.893034525,19972341.33913485 -31872653.72338742,18662959.462634806 -33257260.459410816,17199171.269527588 -34471797.424064055,15594296.458511256 -35494737.18055929,13864481.583624607 -36305657.823153034,12028694.433576016 -36885576.47354439,10108683.132432433 -37217287.38932135,8128898.114072232 -37285700.79302552,6116375.461135422 -37078178.2610024,4100580.478977509 -36584860.27552278,2113210.794399787 -35798981.346902385,187958.7251202381 -34717167.95954955,-1639766.8441393038 -33339714.491896953,-3333158.323275309 -31670832.209575407,-4854365.715240204 -29718866.43817603,-6164889.484840735 -27496477.090286575,-7226007.551212477 -25020777.85444718,-7999233.368624141 -22313429.553909954,-8446801.469927764 -19400683.45263575,-8532176.262190655 -16313370.626099262,-8220579.2924680915 -13086833.925701424,-7479529.651296793 -9760799.54755046,-6279391.660574508 -6379185.767809692,-4593923.50949425 -2989847.025524286,-2400820.0656709922 355747.78337882727,317757.2929256233 3602903.194553837,3574671.2977031954 6694150.842486069,7377327.579756312 9569767.657148378,11727229.516601339 12168356.45386813,16619577.10120922 14427485.860561706,22042917.785510875 16284385.583253836,27978857.137018602 17676692.054124527,34401836.92857442 18543238.547212545,41278987.95317676 18824882.897124648,48570064.41510895 18465365.02809048,56227466.193130694 17412185.607469175,64196354.60052539 15617496.292792697,72414866.48092693 13038991.258369874,80814430.58017689 9640788.980256166,89320189.12658761 5394292.640902609,97851526.44015802 279017.0007193284,106322705.18236004 -5716630.813553385,114643609.56063221 -12594629.421619028,122720593.42587732 -20346693.14784033,130457429.75896487 -28953706.742988266,137756356.5469314 -38385257.598966934,144519212.51634827 -48599277.82635029,150648654.63670322 -59541808.02698126,156049447.74851483 -71146893.87315717,160629815.12845027 -83336625.69768777,164302837.29715 -96021330.20420773,166987884.92595118 -109099922.12558518,168612070.32808587 -122460422.1935344,169111700.75054145 -135980646.14058852,168433715.53721648 -149529067.64493647,166537088.23476514 -162965856.1605489,163394173.88190463 -176144088.46341285,158991981.08253255 -188911130.50625437,153333348.03350562 -201110183.82816398,146438001.47880924 -212581988.33410138,138343477.6110569 -223166670.76677924,129105884.25474516 -232705725.6669191,118800484.25733557 -241044113.08642417,107522080.89525175 -248032454.81382778,95385187.28072137 -253529308.42533267,82523963.23732142 -257403496.12232333,69091904.89899705 -259536463.09284124,55261274.37737165 -259824638.0765675,41222259.22969914 -258181766.95697528,27181854.135021497 -254541188.58715552,13362460.134986393 -248858020.71344572,200.00000030476343" stroke="white" stroke-width="1.5" /><circle cx="249.92582360940372" cy="197.27747600144508" fill="red" opacity="0.7" r="12.173560908995228" /></svg>