<?xml version="1.0" encoding="utf-8" ?>
<svg baseProfile="full" height="400" version="1.1" width="400" xmlns="http://www.w3.org/2000/svg" xmlns:ev="http://www.w3.org/2001/xml-events" xmlns:xlink="http://www.w3.org/1999/xlink"><defs /><rect fill="black" height="100%" width="100%" x="0" y="0" /><circle cx="200" cy="200" fill="yellow" r="10.000001357669806" stroke="orange" stroke-width="2" /><polyline fill="none" points="200.28305607906546,200.0 200.2397135510634,200.01258386639975 200.19214598704176,200.02022932052444 200.1407168566582,200.0223251889339 200.08586381422043,200.0182822980284 200.0280982820628,200.0075420758975 199.96800409027577,199.98958534296443 199.90623512657257,199.96394119449326 199.84351195930006,199.9301958703849 199.7806174068976,199.88800150083424 199.71839103843075,199.83708461049463 199.65772260209562,199.7772542589323 199.59954439172097,199.70840969148392 199.54482257518177,199.6305473722824 199.49454752315444,199.5437672703027 199.44972319165902,199.44827826991587 199.4113556271847,199.34440257971207 199.38044067872303,199.2325790173519 199.35795101654853,199.1133650539906 199.34482257290176,198.98743750944098 199.3419405346368,198.85559179872564 199.35012503218283,198.71873964202692 199.37011668261977,198.57790516325235 199.40256215705378,198.4342193174606 199.44799995357897,198.28891260416736 199.50684656669932,198.14330604198457 199.57938325194021,197.99880040001804 199.6657435902891,197.85686370281607 199.7659020608644,197.71901704825032 199.87966383163086,197.58681880132022 200.0066559768842,197.46184725128214 200.14632032646156,197.34568184445806 200.29790814506765,197.23988313030875 200.4604768306305,197.14597158356108 200.63288880814198,197.0654054900486 200.8138127799477,196.99955810812315 201.0017274749231,196.94969434067937 201.19492801742993,196.91694717464523 201.39153501245994,196.9022941648692 201.58950641604355,196.90653425730977 201.78665222998606,196.9302652619437 201.98065202747907,196.97386229849602 202.16907528136383,197.03745754761087 202.34940443007306,197.12092164609757 202.51906057787536,197.22384706709025 202.6754316863584,197.3455338240712 202.8159030735199,197.48497783147428 202.9378899958378,197.6408622437957 203.0388720477398,197.81155207961976 203.1164290725051,197.99509241659723 203.1682782393434,198.18921041811961 203.19231190377408,198.39132142219924 203.1866358330486,198.59853928793865 203.14960734581425,198.80769115506237 203.07987288610113,199.0153367274645 202.97640452661707,199.217792142844 202.83853487584273,199.41115843757015 202.66598984808894,199.5913545593314 202.45891874605255,199.7541548203309 202.21792110198302,199.8952306213303 201.9440697268106,200.0101962123076 201.63892942689273,200.09465818955067 201.3045708657538,200.14426836237888 200.94357907360055,200.15477955615535 200.55905614069076,200.12210385265817 200.15461767192858,200.0423727050937 199.73438262938157,199.91199830397872 199.30295624668224,199.7277355127312 198.86540576431304,199.48674363904942 198.42722880728857,199.18664726099584 197.99431430634212,198.82559528609391 197.57289594987665,198.4023173886394 197.16949824602528,197.91617694573512 196.79087537142928,197.36721957715164 196.44394308492477,196.7562163888081 196.13570408925477,196.08470102520133 195.87316733111035,195.35499965314352 195.66326183807305,194.57025302825733 195.51274579910347,193.7344298372685 195.42811170174207,192.85233056354954 195.41548844272938,191.9295811907853 195.48054142782357,190.9726161400842 195.6283717696645,189.98864992922105 195.86341577804527,188.9856371486707 196.1893460133314,187.97222046720077 196.60897523945823,186.95766650938523 197.12416466639917,185.95178958762835 197.73573791175272,184.96486342112416 198.44340213572835,184.00752113239582 199.24567781200327,183.09064397725757 200.13983858746894,182.22523943462932 201.12186265572674,181.42230945685074 202.18639702141945,180.69270985706376 203.32673596438497,180.0470019857828 204.53481492367274,179.49529802174504 205.8012209113839,179.04710137020254 207.11522043503695,178.71114382256374 208.4648057549371,178.49522128222543 209.83676013032536,178.40603000002125 211.21674251568646,178.44900538639794 212.58939195756972,178.62816557368117 213.93845171400778,178.94596198811462 215.2469128747857,179.40313925534662 216.49717700341023,179.99860680240076 217.671237052949,180.7293245317633 218.75087553053874,181.59020492710206 219.71787860216892,182.57403390357476 220.5542645434677,183.67141263723013 221.24252465702273,184.87072249649177 221.7658744958599,186.15811505331703 222.10851295985404,187.5175289718778 222.25588657099783,188.9307353584542 222.1949559886503,190.37741290802578 221.91446160125085,191.83525390159184 221.40518483066046,193.2801017948308 220.66020161339958,194.68612079507437 219.67512438363602,196.02599745197475 218.44832877974426,197.27117389043735 216.98116123333048,198.39211189561863 215.27812358026068,199.35858662279173 213.34703086060665,200.14000825387552 211.1991385513209,200.70576946207672 208.8492356042306,201.02561608151223 206.31569984447296,201.07003791535496 203.62051252210998,200.81067615982812 200.78922910309518,200.22074347841343 197.85090373510153,199.27545233733323 194.83796522836184,197.95244681630035 191.78604285029,196.23223274439633 188.73374074314864,194.09860068647745 185.72236033353653,191.53903602740598 182.79557070730667,188.54511017623355 179.99902756920267,185.11284674656207 177.37994208772585,181.24305646871508 174.98660163641708,176.9416345596882 172.8678451759966,172.21981432323784 171.07249677003102,167.09437087941797 169.64876148169537,161.58776913421377 168.64358865181848,155.7282503986604 168.1020082992269,149.5498524551192 168.06644710343556,143.09235834737146 168.5760311165591,136.40116974100656 169.6658829952452,129.52710136021074 171.36642213356748,122.52609375432128 173.70267660322244,115.45884247896602 176.69361625717897,108.39034268756109 180.35151671647148,101.389349113368 184.6813642268073,94.527752472913 189.68031153229123,87.8798744296757 195.3371949587287,81.52168441265947 201.63212282036343,75.52994277654658 208.53614505421982,69.98127600623633 216.01101363929143,64.95119089514296 224.0090428687573,60.51303584912458 232.47307790879512,56.736918670854976 241.33657929553644,53.68859134654673 250.5238300921186,51.42831347128691 259.9502713523378,50.00970699342946 269.52297031967873,49.47861591484457 279.14122443613064,49.87198543454633 288.69730275188385,51.21677575065823 298.07732472455353,53.52892632253224 307.1622746869585,56.81238682437325 315.8291484597795,61.05823127807167 323.9522267058238,66.24387192132434 331.4044676843715,72.33238923407045 338.05901008735214,79.27199419996109 343.7907746459117,86.9956383100511 348.47815120998007,95.42078601524416 352.0047560499212,104.44936329677628 354.2612422347231,113.96789474718594 355.1471441329768,123.84784003766475 354.5727353893743,133.94613889421117 352.4608781793997,144.10597172055589 348.7488401671591,154.15774079962006 343.3900544145954,163.92027458989332 336.3557965427582,173.20225502461 327.63675275448367,181.80386493948163 317.24445191854636,189.5186498219857 305.2125348120554,196.13558501821538 291.59783384237227,201.4413363817533 276.481237141263,205.22269913584572 259.96831185852693,207.26919648113108 242.18966279262438,207.37581625490486 223.30100419075586,205.34586077535647 203.48292463507653,200.993881928463 182.94032740542485,194.14867062100896 161.90153156740956,184.65626697650328 140.6170222681418,172.38295513831028 119.3578423152166,157.2182043130406 98.41362104714024,139.07751578375544 78.09024074904694,117.90513409243215 58.70714539446362,93.67657947850891 40.59430126448535,66.4009580068986 24.08882396710149,36.12300566359306 9.531291503082912,2.9248230751069 -2.738231752693622,-33.072741549419675 -12.384430022707022,-71.70910212155866 -19.081194678697926,-112.78337574641176 -22.516265850129315,-156.05429111965657 -22.396011572825614,-201.24059680162435 -18.450294200764887,-248.0219978865785 -10.43736934992134,-296.0406449258553 1.851241428503272,-344.9031936952348 18.58596666088883,-394.1834485446966 39.894555143773374,-443.4255956661119 65.85766827969155,-492.1480257044284 96.50476430948656,-539.8477377723216 131.81034523618976,-586.0053091683633 171.69063746656178,-630.0904070145281 216.00077655930943,-671.567809699266 264.53256491363544,-709.9038975245527 317.0128687159853,-744.573563404271 373.1027169535977,-775.0674859492073 432.39716077787045,-800.8996989092941 494.4259459468278,-821.6153828404406 558.6550444944338,-836.7987971397865 624.4890841779937,-846.0812633708233 691.2747056702169,-849.1491042021944 758.3048679300443,-845.751436434872 824.8241117613182,-835.7077116147609 890.0347803206815,-818.9148937419628 953.104183350551,-795.3541607098883 1013.1726792892913,-765.0970144471355 1069.3626362631699,-728.3106843948812 1120.7882194217464,-685.2627100249919 1166.5659382820158,-636.3245906704868 1205.8258738516133,-581.9743950685606 1237.7234914739358,-522.7982287602582 1261.4519317545444,-459.49046488698036 1276.2546587743273,-392.85265299079526 1281.4383322626447,-323.7910311622453 1276.385758690924,-253.31257926424047 1260.5687655543306,-182.51956495002895 1233.5608336375935,-112.6025497205606 1195.0493140104734,-44.831839241716864 1144.847050064053,19.452619549384565 1082.9032202691865,78.85287251590609 1009.3132146917394,131.92608100101657 924.3273578012476,177.19906916343948 828.3582919104358,213.18420999673083 721.986839814495,238.39654163468214 605.9661719708145,251.3719829659494 481.22411295839186,250.6864951182649 348.8634340400639,234.97601331379727 210.1599934497059,202.95695224377124 66.5586035383634,153.4470677752303 -80.33347589828816,85.38643880697603 -228.75549599555018,-2.1416842387486383 -376.80468149388173,-109.89043314022643 -522.450222670081,-238.42955968850964 -663.5497916850277,-388.1266498478617 -797.8685467731435,-559.1296139722974 -923.1005542932785,-751.350757004787 -1036.8925238888048,-964.452733307023 -1136.8697162064489,-1197.8366877477422 -1220.6638461759615,-1450.6328777039048 -1285.942768165947,-1721.6940595234628 -1330.4416928452083,-2009.5919076222767 -1351.9956497613853,-2312.6167146463918 -1348.5728749897455,-2628.7805969776928 -1318.3087702133762,-2955.8244013006483 -1259.5400487939455,-3291.228475040842 -1170.8386563095,-3632.2274263505733 -1051.0450282037598,-3975.828958131441 -899.3002261367672,-4318.8368155902435 -715.0764778647114,-4657.877838326693 -498.2056335026863,-4989.433056318712 -248.90504430843288,-5309.872714835584 32.1996308971533,-5615.495056765621 344.05518149139175,-5902.568632649325 685.1656413136832,-6167.377849474638 1053.5815855343326,-6406.271409684549 1446.894363068902,-6615.713232586274 1862.2356672211629,-6792.335392196082 2296.282807810626,-6932.99254930113 2745.270001454024,-7034.817301997557 3205.0059430249453,-7095.275829021816 3670.897860804776,-7112.223154688538 4137.982190756926,-7083.957324050134 4600.961932096744,-7009.271742852923 5054.250667390792,-6887.504909819544 5492.023146402719,-6718.586749543157 5908.272244513328,-6503.080743595679 6296.8720145867555,-6242.221056037833 6651.646456538539,-5937.943858011502 6966.4435325824015,-5592.912075051559 7235.213859278453,-5210.532810641168 7452.09341124208,-4794.966740711991 7611.48947693711,-4351.128826501114 7708.169015665979,-3884.679757539174 7737.348478029934,-3402.0076125363516 7694.784071141615,-2910.1993133899946 7576.861376132349,-2417.001546138929 7380.683160407937,-1930.7709319546207 7104.154172060183,-1460.413350543718 6746.061660194303,-1015.3124468272372 6306.15033399008,-605.2474884766409 5785.190456314091,-240.30088567683197 5185.037765786817,69.2441659643284 4508.68393541554,313.0153046057034 3760.2963071342033,480.6711122144279 2945.2456906000452,562.0287868285145 2070.1210819582293,547.198292035391 1142.7302443984927,426.7217453073604 172.0851973711998,191.71665861256045 -831.6282147319644,-165.97849618390967 -1857.097361072253,-653.6580559563367 -2891.9469960266933,-1277.6040473264673 -3922.82091206295,-2042.9440637690445 -4935.481227670033,-2953.51411156064 -5914.925255067453,-4011.7284677625685 -6845.519669974339,-5218.4586431781145 -7711.151471834155,-6572.923570273158 -8495.394979703775,-8072.593138541533 -9181.693858928948,-9713.107176055597 -9753.556919391325,-11488.211924507372 -10194.766170405157,-13389.715974702445 -10489.59536335194,-15407.46751927909 -10623.037004145242,-17529.354638762215 -10581.035577047065,-19741.330165635503 -10350.724492767624,-22027.46246899532 -9920.66406081945,-24370.013269997846 -9281.077592460513,-26749.54333659247 -8424.082569951092,-29145.046616236614 -7343.913673931599,-31534.113049136227 -6037.134347081551,-33893.11996422253 -4502.833492282803,-36197.45159816832 -2742.8038605371057,-38421.74589732798 -761.6986808886036,-40540.16736704843 1432.8368757105206,-42526.70432625156 3830.0627219103344,-44355.48851184988 6416.072560413821,-46001.13456211948 9173.75728264329,-47439.09649562746 12082.80584108567,-48646.037898047754 15119.746096967401,-49600.21213875766 18258.027815242764,-50281.84856829058 21468.149600113673,-50673.54030244133 24717.831137859906,-50760.62888509425 27972.23164175936,-50531.580845686454 31194.21487913664,-49978.35093457539 34344.660606636964,-49096.72663626616 37382.82165094955,-47886.64843205505 40266.725253381046,-46352.500215430286 42953.616653602105,-44503.364260425275 45400.44222693565,-42353.23520944284 47564.368817742696,-39921.18768667888 49403.33523642811,-37231.49235935484 50876.63121751437,-34313.67556394865 51945.498479781476,-31202.517990105844 52573.747895727254,-27937.988371643067 52728.38617597346,-24565.108671784837 52380.24491435407,-21133.747867230366 51504.60433104413,-17698.34213049772 50081.8036039929,-14317.539978773708 48097.82930277468,-11053.7717955974 45544.873143201614,-7972.744033337207 42421.85007471921,-5142.85936263995 38734.86760427875,-2634.5650416790263 34497.637257967464,-519.6328238558871 29731.819192298582,1129.6252027886953 24467.291196918562,2241.199359252987 18742.333684694928,2744.2771202798535 12603.722747637928,2570.1821895616695 6106.723970466933,1653.3491689511534 -685.0195610078987,-67.67594351455932 -7699.710742584032,-2649.220168109397 -14857.738104931394,-6141.464519684179 -22072.135184874158,-10587.434018786756 -29249.161910143936,-16022.009934588397 -36289.008928646195,-22470.97806477271 -43086.62434589382,-29950.127334771205 -49532.660775256925,-38464.41333027244 -55514.53896831812,-48007.20154891086 -60917.62259202125,-58559.60515662856 -65626.49697238514,-70089.93184985885 -69526.34284995291,-82553.25404638499 -72504.39441007664,-95891.11604718967 -74451.46908327223,-110031.39102251393 -75263.55488016533,-124888.29967353605 -74843.43935599674,-140362.60120479504 -73102.36271613685,-156341.96581243075 -69961.67610203449,-172701.536253062 -65354.48476227521,-189304.6842139145 -59227.25464174089,-206003.96516597254 -51541.35993874949,-222642.27316077816 -42274.54841037448,-239054.19464347843 -31422.300673751375,-255067.55781832524 -18999.059478607505,-270505.1714397106 -5039.304934282959,-285186.74413661624 10401.548018162373,-298930.97253860784 27246.45297531055,-311557.78358757356 45396.25841701862,-322890.713524219 64729.47787228321,-332759.4031671155 85102.32311270863,-341002.1862922135 106349.01759582708,-347468.7452112513 128282.40504820689,-352022.8050788038 150694.8654045451,-354544.8360712406 173359.54731418137,-354934.7304185244 196031.9231058829,-353114.4193734104 218451.66848550038,-349030.39361368475 240344.86535438686,-342656.08933196566 261426.52200950315,-333994.1014129512 281403.4006541903,-323078.18466642714 299977.1376518251,-309975.0041095483 316847.63733789994,-294785.5958040733 331716.71551881783,-277646.5007797496 344291.9640816136,-258730.5361354187 354290.80347509205,-238247.16952111822 361444.6852603906,-216442.46587813718 365503.4025312156,-193598.5785540378 366239.4618366862,-170032.76071366988 363452.4663701573,-146095.87732567798 356973.45668368414,-122170.40289983603 346669.1521179588,-98667.89555880702 332446.03356890805,-76025.94391569003 314254.20621020964,-54704.58955484944 292090.9794185724,-35182.23462866646 266004.100465022,-17951.051129558797 236094.57859528117,-3511.9157094141415 202519.03697462243,7631.098575673872 165491.5316598422,14976.634599227735 125284.77931816726,18032.320937109573 82230.73886638686,16321.344864095105 36720.49657041265,9389.266950770352 -10796.590567353254,-3188.9915009928936 -59814.532102172794,-21802.06370679067 -109773.15398836148,-46795.03713002211 -160061.38485774052,-78462.42516853363 -210021.39381774192,-117041.30324195077 -258953.58526676372,-162704.70587663708 -306122.445929196,-215555.3846145267 -350763.2283872784,-275620.0287759259 -392089.44392556674,-342844.05218880036 -429301.1256128627,-417087.04886944266 -461593.8103451872,-498119.01922233106 -488168.17619271163,-585617.4655516796 -508240.25897553674,-679165.4514872307 -521052.1596898289,-778250.714279668 -525883.1423777466,-882265.9117892255 -522061.0104499499,-990510.0773639668 -508973.63850210747,-1102191.3456890602 -486080.5264944002,-1216431.001111218 -452924.2339654093,-1332268.8869495091 -409141.5439087266,-1448670.1999618923 -354474.1992293789,-1564533.6785339082 -288779.04949053685,-1678701.176401882 -212037.4421244807,-1789968.5959490326 -124363.69057122384,-1897098.1364717234 -26012.4520671854,-1998831.7934786987 82615.1498364743,-2093906.02525271 200966.81837962547,-2181067.482784491 328335.945809589,-2259089.6790149896 463860.1889582296,-2326790.45334044 606521.8907804487,-2383050.06780756 755150.4663753404,-2426829.7526263427 908426.8555151016,-2457190.500838299 1064890.124836242,-2473311.8954874617 1222946.281679103,-2474510.7377421074 1380879.3382043112,-2460259.2313989815 1536864.6390127295,-2430202.4683571095 1688984.4382275927,-2384174.951254975 1835245.6830782113,-2322215.8837918313 1973599.9307031527,-2244582.956554188 2101965.293450198,-2151764.3566742046 2218250.275707031,-2044488.7335668455 2320379.332597943,-1923732.860506939 2406319.9481038447,-1790726.743062777 2474110.9977082717,-1646955.940510495 2521892.1289663506,-1494160.885383183 2547933.862881027,-1334333.0092862048 2550668.090111191,-1169707.5100145086 2528718.6092993147,-1002752.6257669351 2480931.3306663344,-836155.3167421392 2406403.746953395,-672803.2924417376 2304513.25626148,-515763.36436324386 2174943.9078057907,-368256.14814578125 2017711.1324981973,-233627.18628611282 1833184.016007937,-115314.6118645507 1622104.672905619,-16813.52484890865 1385604.2870053803,58362.69503638565 1125215.3953766113,106723.86174400338 842880.0119374773,124846.91225073661 540953.2112455503,109421.90871280784 222201.82417860514,57299.678843071924 -110202.0653087709,-34459.389600444025 -452693.08929647965,-168535.93114504655 -801330.2476916306,-347302.13603524875 -1151820.4033308537,-572772.8481608501 -1499547.7190733398,-846557.8749787061 -1839609.0682416337,-1169816.1852586493 -2166855.377543584,-1543212.6923085628 -2475938.78505586,-1966878.3349422617 -2761365.415629494,-2440374.175181617 -3017553.492943583,-2962660.229919978 -3238896.422223119,-3532069.7429703223 -3419830.3912723577,-4146289.5836079493 -3554905.950953131,-4802347.427509899 -3638862.9506235835,-5496606.335604256 -3666708.120473387,-6224767.29559358 -3633794.512321753,-6981880.229744167 -3535901.9345005034,-7762363.901001092 -3369317.4461657316,-8560035.067793716 -3130914.9130232525,-9368147.146370798 -2818232.57126585,-10179438.53863394 -2429547.5007389276,-10986190.673847133 -1963945.873173856,-11780295.69506959 -1421387.817904226,-12553333.596620448 -802765.7368869272,-13296658.488415558 -109954.90407910831,-14001493.527845958 654144.7978410741,-14659033.921359155 1485577.1170151967,-15260557.257562079 2379308.712315322,-15797540.293105396 3329220.4716841746,-16261781.173573028 4328111.784076191,-16645525.93591613 5367718.580347338,-16941598.008551743 6438745.841789709,-17143529.30206615 7530915.141851811,-17245691.36954333 8633027.63747681,-17243425.012910407 9733042.762216834,-17133166.622394998 10818172.694868712,-16912569.462222535 11874992.486098386,-16580618.058995195 12889565.522894502,-16137733.81164722 13847583.798479952,-15585869.92521958 14734522.235506764,-14928593.776537692 15535806.085195601,-14171154.849652262 16236990.196995057,-13320536.43384294 16823948.724971455,-12385489.358088307 17283073.611317765,-11376546.143924905 17601479.967072457,-10306014.09399969 17767216.25847353,-9187945.996524753 17769477.00755378,-8038087.316080096 17598815.53088592,-6873798.958245433 17247354.074127838,-5713954.938473168 16708988.555492915,-4578814.553149527 15979585.01174068,-3489868.941253669 15057164.748904519,-2469662.2363351053 13942075.13977032,-1541587.8382124947 12637142.983928142,-729660.6789810259 11147807.356646046,-58266.715345879165 9482228.922177428,448108.7546515344 7651372.777411146,765171.9817547676 5669062.0246213,869128.5226653707 3551999.4486698094,737005.1576858775 1319754.8950923586,346982.9045613747 -1005283.788712647,-321262.27928533877 -3397998.07678627,-1286214.838086684 -5830665.826295435,-2564175.0340422164 -8273129.155768288,-4168918.73938263 -10693003.782395361,-6111366.138868612 -13055929.98808938,-8399264.070578473 -15325864.87739717,-11036886.88014631 -17465415.054004285,-14024760.760139398 -19436208.281170864,-17359416.587426424 -21199302.110270564,-21033176.252951298 -22715626.866590116,-25033977.39653652 -23946459.779157974,-29345241.31096908 -24853926.438605536,-33945788.56205633 -25401525.171397366,-38809806.582653254 -25554669.33808149,-43906873.13768068 -25281242.005740374,-49202039.1235344 -24552156.91904749,-54655973.65954434 -23341919.208926894,-60225173.852754705 -21629178.841509964,-65862240.97269328 -19397269.431603413,-71516224.06343417 -16634724.732804218,-77133031.25061427 -13335764.879056104,-82655908.17669618 -9500744.297786552,-88025982.12523983 -5136553.150265126,-93182869.48191291 -256964.18731682643,-98065343.23505868 5117082.955897121,-102612056.25148614 10957267.758437676,-106762315.08427463 17227752.481488757,-110456898.09021899 23885130.40957688,-113638910.6672001 30878464.979559556,-116254669.47911713 38149425.40428618,-118254606.63141869 45632523.57313204,-119594183.90753077 53255456.07221155,-120234806.38968268 60939554.11694352,-120144724.08098234 68600343.0344511,-119299909.53324842 76148211.6803547,-117684898.98100783 83489190.83289367,-115293584.0997209 90525838.18776035,-112129941.2586473 97158226.09196138,-108208685.03786694 103285026.61854972,-103555832.83595791 108804687.01185074,-98209167.61953898 113616686.94201155,-92218586.26676416 117622867.41686964,-85646321.54071128 120728819.62807097,-78567026.50044648 122845320.47792737,-71067711.12034693 123889800.06542096,-63247522.04282514 123787825.02656807,-55217357.73445941 122474580.3487971,-47099312.84661636 119896331.13432255,-39025947.29249023 116011844.7965422,-31139377.4337322 110793753.35904872,-23590188.80960539 104229834.91068308,-16536172.02503306 96324192.87335715,-10140885.72355941 87098311.58147788,-4572052.986744753 76591966.7709951,199.99999990620213" stroke="white" stroke-width="1.5" /></svg>