<?xml version="1.0" encoding="utf-8" ?>
<svg baseProfile="full" height="400" version="1.1" width="400" xmlns="http://www.w3.org/2000/svg" xmlns:ev="http://www.w3.org/2001/xml-events" xmlns:xlink="http://www.w3.org/1999/xlink"><defs /><rect fill="black" height="100%" width="100%" x="0" y="0" /><circle cx="200" cy="200" fill="yellow" r="20" stroke="orange" stroke-width="2" /><polyline fill="none" points="198.567672081056,200.0 198.50452428790956,199.92149435657038 198.4473514216583,199.83653561421372 198.39698817094495,199.74567693738447 198.35423129734357,199.64957957923303 198.3198268828065,199.5490118170751 198.2944573435727,199.44484648258762 198.27872835612217,199.3380570232529 198.27315585159388,199.22971204558968 198.27815324469907,199.12096830628153 198.29401907135235,199.0130621343489 198.32092521581617,198.90729928589786 198.35890591291664,198.80504325257667 198.40784771366188,198.70770206552072 198.46748060320988,198.61671365807697 198.5373704584385,198.53352987276466 198.61691302823255,198.45959922051424 198.70532961291,198.3963485229821 198.8016646098721,198.345163591389 198.9047850805218,198.30736911759024 199.0133824787175,198.28420797464932 199.12597666351672,198.27682014474138 199.24092229875316,198.2862215114331 199.3564177191457,198.31328277094593 199.47051631727558,198.3587087325754 199.58114047802658,198.42301829169028 199.68609805715445,198.50652536934456 199.78310136875842,198.60932112019816 199.86978861283632,198.73125771486622 199.94374763911912,198.8719340037265 200.00254190734194,199.03068336636667 200.04373846739563,199.20656404403056 200.0649377458267,199.39835224144238 200.06380488835595,199.60453826911055 200.03810237193787,199.82332597753893 199.98572356487637,200.05263571065368 199.90472688016,200.29011097719103 199.793370136007,200.53312900584288 199.65014470915077,200.77881531273815 199.4738090411859,201.02406236852846 199.26342103686568,201.26555240718142 199.01836887611015,201.49978436987425 198.73839974915674,201.723104925486 198.42364601723142,201.93174345454682 198.07464829978312,202.12185082660775 197.6923749941044,202.28954174240755 197.27823774440978,202.43094035254177 196.83410239544986,202.54222880426164 196.36229499073562,202.61969830825961 195.8656024075894,202.65980225860335 195.3472672606045,202.65921088215953 194.81097675168067,202.61486683973854 194.26084519850878,202.524041150643 193.70139003401658,202.38438876618534 193.1375011365664,202.19400307692368 192.57440342422314,201.9514686037133 192.01761272569155,201.6559110950252 191.4728850249534,201.30704423316072 190.94615926551288,200.9052121407584 190.44349399267446,200.4514268770632 189.97099820752484,199.9474001214571 189.53475690326485,199.39556826029852 189.140751852152,198.79911012266038 188.79477830839355,198.16195665146424 188.5023583876326,197.4887918490289 188.26865197589137,196.78504440031378 188.09836610862018,196.0568694531265 187.9956638424623,195.31112012211864 187.96407371706948,194.5553083822022 188.00640097038135,193.79755512660395 188.12464172680757,193.0465292844934 188.3199014223588,192.3113760221666 188.59231876263817,191.6016341891545 188.94099652748073,190.92714331520733 189.36394053875566,190.2979406145649 189.8580080943724,189.7241486087792 190.4188671409456,189.21585413697915 191.040967409104,188.78297968108203 191.71752466848244,188.4351480911538 192.44051917360946,188.18154195087982 193.200709266999,188.03075897280561 193.98766098179715,187.99066495544204 194.78979434359542,188.06824596724323 195.59444691001326,188.2694615435682 196.38795490815605,188.59910078972837 197.15575213511943,189.06064337382932 197.88248657666023,189.65612746511042 198.55215447558987,190.3860267247283 199.14825134624218,191.24913848439212 199.653939186672,192.24248525206045 200.05222888846214,193.3612316613527 200.32617658780939,194.59861893092653 200.45909244381966,195.94591882058955 200.43476007376788,197.3924089613901 200.2376646237641,198.92537129671658 199.85322721026355,200.53011520022025 199.26804323674665,202.19002663420946 198.47012187434225,203.88664447949614 197.44912379890437,205.59976490534763 196.19659410380393,207.30757435749584 194.70618716116692,208.98681142479114 192.97388008808545,210.61295750322464 190.99817139192817,212.16045581229167 188.78026132356882,213.60295793608947 186.32421046218468,214.913596663634 183.6370730930022,216.065283493564 180.7290020223893,217.03102875200705 177.61332160501237,217.7842818536147 174.3065659369383,218.2992888196856 170.82847939760728,218.55146375924002 167.20197700302884,218.5177706245007 163.45306236224806,218.17711117729735 159.61070140836858,217.5107147534091 155.70665050279516,216.50252509384444 151.77523798478157,215.1395792315977 147.85309875503268,213.41237318551728 143.97886203848373,211.31520902543832 140.19279306319714,208.84651774031462 136.53639001459408,206.00915226906542 133.05193827127135,202.81064504717398 129.7820245940509,199.26342448519566 126.76901461662008,195.38498493214198 124.05449766649214,191.1980048904413 121.67870362081644,186.73040854232158 119.6798971640943,182.0153660216968 118.09375545497083,177.09122832173463 116.95273581751403,172.001393266052 116.28544063905515,166.79409958970106 116.11598717191791,161.5221468724797 116.46339039035007,156.2425398381817 117.34096743694117,151.01605637462134 118.75577249524414,145.90673953484554 120.70807113805395,140.98131474293368 123.1908633151836,136.3085344400428 126.18946415260781,131.95845345859613 129.68115162928268,128.00163949431663 133.6348899725169,124.50832414570196 138.01113726222508,121.54750109604582 142.76174525473022,119.18597911086432 147.82995882531105,117.48739859939919 153.1505216841922,116.51122152789291 158.64989414350043,116.3117054591812 164.2465877048894,116.93687341204046 169.85162010284446,118.42749206869058 175.3690931827479,120.81607159387234 180.69689462310734,124.12590094815836 185.7275230373541,128.37013306615773 190.34903442364032,133.550934612172 194.4461062843885,139.65871520762548 197.90121402610058,146.67145103322963 200.595912491093,154.55411753264897 202.41221368507266,163.25824557322898 203.23404996811578,172.7216148446822 202.94881019342057,182.86809749202303 201.44893453124385,193.607663980199 198.6335520288588,204.8365619728702 194.41014335620739,216.43767757724987 188.69620969681014,228.28108666424185 181.42092739040507,240.22480212447505 172.526766743733,252.1157208754782 161.97105242458238,263.79077220541126 149.72744206675824,275.07826663986464 135.78729916415762,285.7994419687677 120.16093604339399,295.7702003920535 102.87870269746949,304.8030279600782 83.99189755680128,312.7090846255439 63.573476884959206,319.30045031824176 41.71854042839499,324.39250953538993 18.544572232714472,327.806454044094 -5.808582830494856,329.3718804560532 -31.17902429954117,328.9294566973489 -57.383398261656964,326.33362879868224 -84.21780885827559,321.4553370154483 -111.4590486080221,314.1847080947602 -138.86615366803773,304.4336885802197 -166.18228652425285,292.13858242664315 -193.1369446972019,277.26245492685024 -219.4484899021374,259.79736407013576 -244.8269877458127,239.7663799941191 -268.97734351765524,217.22535319241751 -291.60271498503454,192.26439263076924 -312.4081783806938,165.00901593045378 -331.10461902878137,135.6209353222352 -347.41281335206963,104.29844517336963 -361.0676643978783,71.2763795555465 -371.8225485778635,36.825611557710715 -379.4537271033123,1.252069852521572 -383.76477168070323,-35.10474761051199 -384.59095048062795,-71.87377800524013 -381.8035172753239,-108.65492591753826 -375.3138440239826,-145.02212740747933 -365.0773351367442,-180.5269433758981 -351.0970602314027,-214.7026730171603 -333.42704147130064,-247.06897105368438 -312.17513159391524,-277.13694508964807 -287.5054195570864,-304.4147018648584 -259.6401023868179,-328.41330351559736 -228.86076434271604,-348.6530872449853 -195.5090079515926,-364.67029416487924 -159.98638581419522,-376.02394559384527 -122.75358737192255,-382.3028978852385 -84.32884102616259,-383.133000023539 -45.28549911720651,-378.1842718758778 -6.248781264920552,-367.17801523068204 32.10833959099611,-349.89376470805826 69.07011449079894,-326.17598139715744 103.88385479190315,-295.9403887716423 135.7666122591549,-259.1798481586787 163.91267609654787,-215.969669886723 187.50184814274996,-166.47225630248255 205.70844516751865,-110.94097420839876 217.7109647329771,-49.72315699868727 222.70233856537183,16.737859078110347 219.90068497203129,87.90175448518615 208.56045969637864,163.13138463502946 187.98389290008143,241.69415102211138 157.53258887066403,322.7646493543732 116.63915475421821,405.42864719179 64.81871528733612,488.6884305751285 1.6801623312812524,571.4695447390935 -73.06301882635825,652.6289383392108 -159.58250976736014,730.9645037903852 -257.9256728558314,805.2259884483531 -368.0069876108448,874.1272326161345 -489.60057822561726,936.3596709002579 -622.333998656014,990.6070134705701 -765.6834372154738,1035.56100350689 -918.9704958131715,1069.9381267777562 -1081.360689787111,1092.497129139539 -1251.8638026679796,1102.0571780310254 -1429.3362161454413,1097.5164850444132 -1612.4853190063066,1077.8711886626338 -1799.876079916321,1042.2342795563131 -1989.9398476985184,989.8543357257267 -2180.985419329754,920.1338215481765 -2371.212390376624,832.6466937400193 -2558.7267752010375,727.155048648091 -2741.5588551983446,603.6245394189738 -2917.6831828367153,462.2382887121856 -3085.040637628932,303.4090229606111 -3241.562397704172,127.7891579496308 -3385.1956577060555,-63.72142713121616 -3513.9308907022714,-269.9701788640328 -3625.830419054669,-489.54945868178345 -3719.058027194612,-720.7971495526031 -3791.909318423685,-961.800475017626 -3842.842488677277,-1210.4031984176693 -3870.509163120958,-1464.21633934079 -3873.7849169753013,-1720.6325097517692 -3851.799080562332,-1976.8439341038024 -3803.963410707929,-2229.8641762163857 -3729.9991967785527,-2476.5535511230814 -3629.962360219019,-2713.6481527987003 -3504.2661019039692,-2937.7923790724667 -3353.7006523030404,-3145.5747835866437 -3179.4496857293598,-3333.56703188314 -2983.1029720898614,-3498.365685162773 -2766.6648578265335,-3636.636481577863 -2532.558192312297,-3745.1607317462735 -2283.623346960936,-3820.8833932102225 -2023.1120117716864,-3860.9623385334276 -1754.6754979224052,-3862.818284386984 -1482.3473252360457,-3824.1848050872363 -1210.5199296716166,-3743.1578143950765 -943.9153881419743,-3618.2438647423473 -687.5501255532737,-3448.4065841835763 -446.69364151948275,-3233.110549027513 -226.82137115805295,-2972.361874995322 -33.561875058826956,-2666.7448025562167 127.36136281770762,-2317.453553423956 250.1931647551363,-1926.318745614842 329.21446483643456,-1495.8276744483655 358.81415164089765,-1029.1377968068516 333.5643229159578,-530.0827961553753 248.2982426802773,-3.170656444134977 98.19021001138096,546.4267658585582 -121.16352803555304,1112.893110779928 -413.66375809141095,1689.7961822479492 -782.6281796835873,2270.1261794738575 -1230.7132410361967,2846.3436566883056 -1759.839037165321,3410.4372655740203 -2371.1184120089983,3953.991216657987 -3064.7914305785007,4468.262270730354 -3840.1663984854417,4944.265940125807 -4695.568603684447,5372.871443664598 -5628.297937975583,5744.904819575592 -6634.596522958911,6051.259459316551 -7709.627416093035,6283.013183497946 -8847.465406805835,6431.5508408484975 -10041.100829941193,6488.691274174408 -11282.457224089738,6446.817365483688 -12562.423545647787,6299.007747861481 -13870.901516085234,6039.168656321336 -15196.868530429709,5662.164285776252 -16528.45639016727,5163.943933520382 -17853.045944644415,4541.664128210232 -19157.377532903287,3793.8038892491877 -20427.6769142062,2920.271221592743 -21649.796162071478,1922.4989330743954 -22809.36877545225,803.527866030867 -23891.978033972413,-431.92433626504055 -24883.33739434404,-1777.4107538221022 -25769.481494878015,-3224.7207498944317 -26536.9661072011,-4763.865204336381 -27173.07515190583,-6383.082922972734 -27666.032681009994,-8068.869562853648 -28005.21752802469,-9806.030222940828 -28181.378139428565,-11577.756632402428 -28186.84493275042,-13365.729625171984 -28015.737379612707,-15150.247321027064 -27664.16289025778,-16910.379141843114 -27130.40448246871,-18624.145478947386 -26415.09415545318,-20268.722496113598 -25521.36886105701,-21820.671205572773 -24455.005973252355,-23256.189594733773 -23224.5352045554,-24551.386212740385 -21841.32400690292,-25682.573252534068 -20319.633626206887,-26626.576790061285 -18676.643155536916,-27361.06147227273 -16932.439152420997,-27864.866584485568 -15109.968651361012,-28118.350080608998 -13234.953713043795,-28103.736831918366 -11335.766006032038,-27805.467046877566 -9443.260313475144,-27210.540541372855 -7590.56629449447,-26308.852301041738 -5812.838304638292,-25093.51458049284 -4146.96358878247,-23561.160633298492 -2631.229699034383,-21712.225066654304 -1304.9525548968204,-19551.195770196882 -208.06714784910304,-17086.832383928628 619.3165083187278,-14332.346349329428 1137.3889731224149,-11305.53773382491 1307.144704943641,-8028.88423449065 1090.9086995705834,-4529.578054192185 452.8814384889539,-839.50670349552 -640.3034196140661,3004.825784951521 -2219.0147024690186,6962.440236769998 -4310.059332868622,10988.088740727459 -6936.124914763106,15032.527861624734 -10115.236713924,19042.859732883786 -13860.236768495726,22962.941327728553 -18178.293108054204,26733.861379568618 -23070.44722014826,30294.483545021285 -28531.207973161574,33582.05348457596 -34548.200176771235,36532.866584878815 -41101.875830114564,39082.992072646775 -48165.29586769735,41169.048283880824 -55703.98985978083,42729.02286478711 -63675.90065428426,43703.130704849464 -72031.42035917958,44034.70145072247 -80713.52335732452,43671.08753549425 -89658.00122051431,42564.582795297945 -98793.80344857396,40673.34094840707 -108043.48690651983,37962.28249515307 -117323.77567380496,34403.977974531845 -126546.23176171137,29979.49499927694 -135618.0358071285,24679.196099123004 -144442.87542393853,18503.474145029948 -152921.93739956798,11463.412017504543 -160954.99837797234,3581.353231097292 -168441.6070871814,-5108.6295553345535 -175282.34956675948,-14560.380818332182 -181380.1872467249,-24715.435336454244 -186641.85614454348,-35502.92957271827 -190979.31390173885,-46839.661641371655 -194311.21989831235,-58630.30907379459 -196564.43228415994,-70767.81225273586 -197675.504475058,-83133.92985047575 -197592.1624998044,-95599.97089137837 -196274.74357796705,-108027.70617182266 -193697.57547723956,-120270.45972262864 -189850.27556777647,-132174.3788055483 -184738.9480792768,-143579.87861370386 -178387.25789486812,-154323.25541634325 -170837.35930218507,-164238.45937392232 -162150.65848268024,-173159.01567593045 -152408.38916903382,-180920.0800491026 -141711.98184874933,-187360.61207800757 -130183.2081479181,-192325.64720582988 -117964.08359769653,-195668.64577462964 -105216.51386864083,-197253.89505702906 -92121.67175240468,-196958.93796189822 -78879.09466987442,-194677.0000026573 -65705.4952790716,-190319.384236079 -52833.280829979485,-183817.8022496308 -40508.78024738019,-175126.60793353 -28990.181492765292,-164224.899755796 -18545.18553378714,-151118.45659898946 -9448.387201475796,-135841.47194827336 -1978.3973040633991,-118458.05137141127 3585.275449959717,-99063.43882856442 6965.559933651615,-77784.93841575175 7891.348468951602,-54782.499698719665 6101.1818792739405,-30248.9368470095 1347.0584541944725,-4409.754339190009 -6601.672353911718,22477.444918298588 -17954.374362756596,50123.98963850007 -32895.19347880868,78211.62487389027 -51579.18020482093,106394.46336370328 -74128.51777693424,134301.41045821572 -100628.91004032506,161539.06414264542 -131126.18481282445,187695.08587396273 -165623.16954284153,212342.0317987519 -204076.89648905114,235041.62749326992 -246396.19438682887,255349.46271910254 -292439.7225778869,272820.07588724996 -342014.50182845764,287012.3910443514 -394874.99351873796,297495.4633175931 -450722.77553040796,303854.4819650921 -509206.8589774012,305696.9735666897 -569924.684914378,302659.1415502452 -632423.834324304,294412.27227774286 -696204.4780487283,280669.1324128599 -760722.5859104468,261190.27735687705 -825393.906128464,235790.1862723599 -889598.7172916291,204343.135711679 -952687.3457042293,166788.72122502982 -1013986.4309201048,123136.93463053882 -1072805.9118295934,73472.70397207711 -1128446.6948553752,17959.803646016568 -1180208.9547595407,-43155.95618481802 -1227401.0073861291,-109544.34889452833 -1269348.682491799,-180789.2432547171 -1305405.1137913915,-256388.08620559538 -1334960.8526120414,-335752.4280622772 -1357454.2012623579,-418209.5535051689 -1372381.652539671,-503005.2721920078 -1379308.3128795053,-589307.9120110306 -1377878.178659538,-676213.5459170111 -1367824.1282665287,-762752.4700205141 -1348977.4868782398,-847896.9362204213 -1321277.0166567704,-930570.1272858763 -1284777.1823420878,-1009656.3460298107 -1239655.541211926,-1084012.3732158816 -1186219.1071624304,-1152479.9312660592 -1124909.5413744645,-1213899.1728674716 -1056307.0267581635,-1267123.0954114834 -981132.6901896809,-1311032.7640482306 -900249.4455244283,-1344553.208232894 -814661.141522672,-1366669.8392146605 -725509.9121636734,-1376445.2192248644 -634071.6423342484,-1373035.9974138138 -541749.4795089305,-1355709.813127683 -450065.34171475127,-1323861.95417126 -360649.39368616487,-1277031.5465316626 -275227.4865255849,-1214917.0428999958 -195606.58122168173,-1137390.770472367 -123658.20283845752,-1044512.2941768467 -61299.99983935007,-936540.3498814283 -10475.511588045974,-813943.1034935474 26867.723722194678,-677406.4963447689 48801.55893708591,-527840.4450183689 53441.93434694531,-366382.6749460987 38974.66028524102,-194399.9817625124 3682.037285132926,-13486.732611978934 -54029.96193404974,174539.5586331038 -135604.24985669847,367645.7229984131 -242305.24558179424,563593.6069022303 -375191.9058695145,759954.001493308 -535091.5295141792,954123.8756160375 -722574.7134969909,1143346.9190816965 -937931.8504163584,1324737.3621839292 -1181151.5636329602,1495306.9943508154 -1451901.4790399733,1651995.2598562199 -1749511.730046048,1791702.2620498291 -2072961.5849474603,1911324.460086655 -2420869.5731178885,2007792.7941653547 -2791487.4681604803,2078112.9273841335 -3182698.4622040885,2119407.2450940358 -3592019.8358017285,2128958.206704675 -4016610.392388018,2104252.6009352678 -4453282.885028591,2043026.2141828584 -4898521.616378074,1943308.3836907733 -5348505.340561315,1803465.873239063 -5799135.5383947,1622245.479837583 -6246070.07534181,1398814.7560612317 -6684762.185305376,1132800.2148836846 -7110504.653334126,824322.3727682075 -7518478.997191513,474026.9829467875 -7903809.372191562,83111.81479789306 -8261620.846538438,-346651.65251015464 -8587101.616457146,-812902.233004833 -8875568.652594276,-1312679.3144791503 -9122536.192474658,-1842419.9584287615 -9323786.419252567,-2397963.312604862 -9475441.595665783,-2974562.7715100553 -9574036.855089314,-3566906.2529486804 -9616592.790016651,-4169144.8824464874 -9600686.923301011,-4774930.292318419 -9524523.100190204,-5377460.648859606 -9386997.800691603,-5969535.420170831 -9187762.343177093,-6543618.789248936 -8927279.932397278,-7091911.50305306 -8606876.499171365,-7606430.829312404 -8228784.285820028,-8079098.170014055 -7796177.151678094,-8501833.755066989 -7313196.607413963,-8866657.712967252 -6784967.635910453,-9165796.688883146 -6217603.421497109,-9391795.056026839 -5618198.188577118,-9537629.645156117 -4994807.445194178,-9596826.801296206 -4356415.036684678,-9563580.468083171 -3712886.5389016373,-9432869.90032876 -3074908.659025878,-9200575.516331643 -2453914.463916629,-8863591.324936489 -1861994.4203129592,-8419932.300164768 -1311793.4067613478,-7868835.030140893 -816394.0424829314,-7210849.938668098 -389186.87185425224,-6447923.3687084485 -43728.14289537987,-5583467.828595431 206413.87792609056,-4622418.735295478 347822.90641308913,-3571276.045489732 367407.6033557027,-2438129.2455019983 252581.94344100344,-1232664.2757522643 -8548.761928969594,33848.905202740854 -426998.1280408901,1348589.2578219706 -1012707.3629201354,2697239.0620291927 -1774354.6142300272,4064060.5404489404 -2719167.419500412,5431995.238286071 -3852740.805974745,6782786.446317511 -5178863.686794982,8097124.685942265 -6699356.274479862,9354815.989558937 -8413921.278016338,10534972.408045363 -10320011.663879378,11616223.862496512 -12412717.741645407,12576950.132665794 -14684676.27956233,13395531.443118202 -17126004.262782704,14050615.773611864 -19724259.775611956,14521400.686635455 -22464432.318102494,14787927.13655091 -25328964.65612429,14831382.40585579 -28297808.052583396,14634409.009290794 -31348512.43618544,14181416.120617064 -34456352.73400099,13458889.814694094 -37594492.22659674,12455698.183856156 -40734183.381708995,11163387.187325995 -43845006.187013276,9576462.930252098 -46895143.53770952,7692655.949475288 -49851692.744212866,5513163.010667683 -52681011.713598475,3042861.90009177 -55349097.83055042,290494.7275877784 -57821997.02487061,-2731184.6512374966 -60066239.96911147,-6005303.333525864 -62049301.80803213,-9510806.213240378 -63740081.28820182,-13222440.716126122 -65109394.638379075,-17110792.826054774 -66130479.05679202,-21142377.39301947 -66779500.19781087,-25279785.238143396 -67036057.62560187,-29481889.033067994 -66883681.82404475,-33704109.33246045 -66310316.028320275,-37898741.482512824 -65308775.881795116,-42015343.41951598 -63877179.72958565,-46001183.61617502 -62019342.244487904,-49801747.63546729 -59745124.04841261,-53361300.919732235 -57070730.04902834,-56623504.58434115 -54018949.362242855,-59532080.10966033 -50619329.940909654,-62031517.94183476 -46908281.382227,-64067824.132649854 -42929099.84318953,-65589298.282538444 -38731909.556468695,-66547335.21037583 -34373516.10839257,-66897241.97129266 -29917167.41498442,-66599061.09176235 -25432219.208791737,-65618390.20254219 -20993702.82436375,-63927187.63734132 -16681794.138253126,-61504553.04120204 -12581183.673185816,-58337471.60982836 -8780349.107028687,-54421510.27168487 -5370732.725171534,-49761453.939862065 -2445827.7083380427,-44371869.911318175 -100178.54346629088,-38277588.58662909 1571697.7313330688,-31514088.93254914 2476461.301507295,-24127777.51945944 2523160.794198449,-16176150.542074924 1624494.956781873,-7727828.978300889 -301887.5515341385,1137542.039720014 -3332063.9045363967,10329537.47670626 -7534503.2593368925,19747346.83950535 -12968739.297599856,29280323.959970493 -19684066.135345023,38808695.67067083 -27718275.426536463,48204431.18971875 -37096453.16830505,57332272.15313808 -47829855.213737145,66050921.23015397 -59914880.79329061,74214385.14543314 -73332163.42063,81673465.73130709 -88045798.39751624,88277390.36409141 -104002725.72133109,93875570.82511419 -121132286.52647847,98319477.29510233 -139345970.24788842,101464611.86760342 -158537368.4750502,103172563.68296194 -178582349.96473783,103313125.56971599 -199339469.5000797,101766449.9676488 -220650621.22591087,98425219.92895211 -242341944.76280344,93196809.18492109 -264224989.81532627,86005403.65887931 -286098142.1591489,76794055.43538785 -307748310.8350267,65526639.09387174 -328952873.1188123,52189679.51349908 -349481870.402053,36794019.78541856 -369100444.5387546,19376297.75641359 -387571500.52502775,200.00000047463845" stroke="white" stroke-width="1.5" /></svg>