<?xml version="1.0" encoding="utf-8" ?>
<svg baseProfile="full" height="400" version="1.1" width="400" xmlns="http://www.w3.org/2000/svg" xmlns:ev="http://www.w3.org/2001/xml-events" xmlns:xlink="http://www.w3.org/1999/xlink"><defs /><rect fill="black" height="100%" width="100%" x="0" y="0" /><circle cx="200" cy="200" fill="yellow" r="20" stroke="orange" stroke-width="2" /><polyline fill="none" points="198.90043515775233,200.0 198.86864535201448,199.94060904910114 198.8423524098228,199.87812171091068 198.8220391369096,199.81311266148361 198.80813928720127,199.74622659198684 198.80102865089611,199.67817488294625 198.80101625914978,199.60973122627868 198.8083358223441,199.54172617910365 198.82313752383686,199.4750406455483 198.8454802948219,199.41059829584154 198.8753246983505,199.34935694583623 198.91252655155316,199.29229893458105 198.95683141455078,199.24042055254856 199.00787007235868,199.19472058845903 199.06515513218238,199.15618807815582 199.12807885281623,199.12578935450418 199.19591231533383,199.10445451260966 199.2678060348755,199.09306341958228 199.3427921020834,199.09243141239196 199.41978792962396,199.10329484085798 199.49760166431093,199.12629662525737 199.57493930866121,199.16197200920928 199.6504135773728,199.2107346981614 199.7225544943251,199.27286358175635 199.78982171440992,199.34849024437116 199.85061853197925,199.43758747200187 199.90330751413904,199.53995896521292 199.94622767275294,199.65523046691348 199.9777130640922,199.78284251010442 199.9961126798533,199.92204498432696 199.9998114680554,200.07189371022895 199.98725229744025,200.23124919936984 199.95695865475938,200.39877776106405 199.90755784109086,200.57295509970052 199.83780441143816,200.7520725246024 199.74660358168845,200.9342458701648 199.6330343089128,201.1174271968388 199.4963717353415,201.29941931366164 199.33610867350183,201.47789313065903 199.15197580031082,201.65040781479857 198.94396022170298,201.81443368653393 198.71232206695456,201.96737775566928 198.45760877352424,202.1066117556574 198.18066672921802,202.22950249492806 197.8826499490199,202.33344430286894 197.56502547918194,202.41589330713117 197.22957524126411,202.4744032385119 196.8783940538303,202.50666242032 196.51388359946148,202.51053156141808 196.138742139595,202.48408193663033 195.75594981933972,202.42563350550608 195.36874944867205,202.3337924911226 194.98062269505184,202.20748791529388 194.59526167519414,202.04600656580368 194.21653599011006,201.84902585566726 193.84845530713548,201.61664402448477 193.49512765496897,201.34940712818178 193.16071366215317,201.0483322663031 192.8493770352885,200.71492650593984 192.56523163984994,200.35120097867755 192.31228561300043,199.95967965193384 192.0943830034312,199.54340230891145 191.91514349713108,199.10592131224456 191.77790084918269,198.65129177529064 191.6856406992619,198.18405482184647 191.64093850152003,197.7092136796699 191.6458983469877,197.23220242528734 191.70209349759892,196.75884727676353 191.81050948444107,196.29532041689762 191.9714906479826,195.84808642106023 192.18469101393637,195.42384146085894 192.44903040427113,195.02944555615758 192.76265667793538,194.67184825270985 193.1229149794496,194.35800820972392 193.52632484508712,194.09480728987648 193.9685659754522,193.88895985237227 194.44447342954575,193.74691805624542 194.9480429286994,193.67477408479738 195.4724468790133,193.67816030137791 196.01006162827207,193.7621484401123 196.55250636802708,193.93114902109957 197.09069397407947,194.18881225648605 197.61489394963172,194.53793178009164 198.11480749572107,194.98035258740063 198.57965458423237,195.51688461323403 198.99827275102072,196.1472233998856 199.35922716184854,196.86987931759865 199.65093133354063,197.68211679077962 199.8617777187315,198.57990495621505 199.98027718673848,199.55788113286886 199.99520625750964,200.60932841585617 199.89576077246568,201.72616861939744 199.67171451769983,202.89897168464324 199.31358115383318,204.11698253817386 198.81277765533065,205.36816623591213 198.16178732279678,206.63927205562308 197.35432030724365,207.9159170098658 196.38546947808757,209.1826890412734 195.2518593791869,210.4232699347247 193.95178595198328,211.62057773800504 192.48534466406184,212.75692822590665 190.85454466734055,213.814214674669 189.06340662460184,214.77410493677667 187.11804188792158,215.61825452326914 185.02671078920898,216.32853411499286 182.79985791271866,216.88726963900223 180.45012236288446,217.2774927651783 177.99232121862804,217.48319940484635 175.4434045775051,217.48961353167033 172.82238083932984,217.28345339941743 170.15021115848344,216.85319700544235 167.44967230571353,216.18934344707796 164.7451875221409,215.28466664465992 162.06262531818274,214.13445776370506 159.4290665654522,212.73675256372192 156.872540647189,211.09253983598794 154.42173186869857,209.20594707086153 152.10565777943947,207.08439951998764 149.9533215181572,204.73874889290903 147.99334075673545,202.1833680534984 146.25355628175384,199.43620826117814 144.76062370927076,196.5188157364512 143.53959227196458,193.4563046206017 142.61347504207274,190.27728374565118 142.0028153520027,187.0137350322214 141.7252545403552,183.70084178856354 141.79510647766918,180.37676569161755 142.2229446067735,177.08237178773402 143.01520746063954,173.86090145299192 144.17382878971767,170.75759389642997 145.69589853485388,167.8192574687312 147.57336091537886,165.09379274790876 149.7927558596888,162.6296701055055 152.3350098830468,160.47536520417952 155.17528231057685,158.67875663203262 158.28287244942265,157.2864906317378 161.62119293062582,156.34331862395743 165.14781396721526,155.89141394473023 168.81458271012139,155.96967490506978 172.56782122877758,156.6130219272652 176.34860590077437,157.85169710544085 180.0931301680454,159.7105750668715 183.73315171042634,162.2084944644915 187.19652410697316,165.35761979930467 190.40781200840527,169.16284354368358 193.2889877390232,173.6212387030214 195.7602060932968,178.72157200471213 197.74065290215023,184.4438878316413 199.1494617291144,190.75917281491016 199.90669183042763,197.62911066115285 199.93435929034825,205.00593630859393 199.15751203882434,212.83239787941713 197.50533828947943,221.0418341221398 194.91229681850095,229.55837411626007 191.319256456832,238.29726494406302 186.67463120673716,247.1653318246287 180.93549653711767,256.06157385828834 174.06867167755226,264.8778970536194 166.05175213626495,273.4999847132385 156.8740762288197,281.80830355099505 146.5376091382381,289.679242115652 135.05772794828312,296.9863762208414 122.4638912133591,303.60185414612124 108.80017696277625,309.3978923994142 94.12567359409023,314.248370838884 78.51470889783903,318.03051396601006 62.0569034799108,320.6266432463601 44.85703611106314,321.9259834167294 27.0347100361204,321.8265039243839 8.723811015413077,320.2367749443383 -9.928250157636654,317.0778158626521 -28.76151572530395,312.2849127265168 -47.604682279814426,305.8093799741227 -66.27652538473598,297.6202407970752 -84.5875447930897,287.7057997826654 -102.34182462777198,276.0750810584133 -119.3390998402246,262.75910504109356 -135.3770171174678,247.81197709880513 -150.25357519831738,231.3117619868741 -163.76972632256542,213.361118832768 -175.73211731042596,194.08767273465588 -185.95594559461728,173.6441007118072 -194.26790244689988,152.20791180763558 -200.5091726994268,129.9809035982302 -204.53845750479297,107.18828019626544 -206.23498415386655,84.07742005272794 -205.50146472426843,60.91628543214111 -202.26696341136875,37.99146935059366 -196.48963084355313,15.60587999401153 -188.1592625483941,-5.923932854783828 -177.29963805820023,-26.270800094783795 -163.97059696121283,-45.10029004584874 -148.26980855398637,-62.07438028769036 -130.33419266247694,-76.85542002168756 -110.34095070040689,-89.11035311806694 -88.50816814437496,-98.51516676950536 -65.09495234051627,-104.75952551606474 -40.401072925077216,-107.5515454054165 -14.766076141533176,-106.62265827917429 11.432151037564296,-101.73251170545609 37.77938584062565,-92.67384598540451 63.82765671500027,-79.27728602358172 89.098419096239,-61.41598274460222 113.08631970942245,-39.010036235245195 135.26354184239,-12.030630964233183 155.0847162919493,19.49618765110347 171.9923746173023,55.48616633768714 185.42291301825324,95.79399713619607 194.81302667607568,140.21103955958245 199.60656584673487,188.46367819015651 199.26175648124863,240.21237871036155 193.25871977447582,295.05150089290134 181.10721692517785,352.5099215789993 162.35453764487846,412.05251414883116 136.59344370219193,473.08252344791333 103.47007215620673,534.9448666032536 62.69169704108609,596.9303806831489 14.034243237259602,658.2810277790502 -42.65055777717876,718.1960568859049 -107.42848354168677,775.8391100129124 -180.2767225707275,830.3462473684779 -261.07847804360546,880.8348533448923 -349.6183876238971,926.4133715075399 -445.5788713233717,966.1918030114792 -548.5375152847799,999.2928889790796 -657.9655937050529,1024.8638835415559 -773.2278238176309,1042.0888106507293 -893.5834398801976,1050.2010845899872 -1018.1886614719795,1048.4963615472823 -1146.1006191130796,1036.3454778551597 -1276.2827863202986,1013.2073197540053 -1407.6119517739812,978.6414599958321 -1538.8867483781414,932.320388477052 -1668.8377377639326,874.0411575651241 -1796.1390293516968,803.7362580545146 -1919.42139261056,721.483538931039 -2037.2867998218585,627.5149835067944 -2148.3243146714776,522.2241561614925 -2251.1272195967827,406.17213802271795 -2344.3112522465563,280.0917765487396 -2426.5337989469886,144.8900832301515 -2496.5138709894845,1.6486255616314338 -2553.0526681675346,-148.37822591689178 -2595.0545136024857,-303.7673173493394 -2621.5479248321994,-462.9330998631159 -2631.706568718255,-624.1364655914828 -2624.8698322834807,-785.4960854212612 -2600.5627284465904,-945.0022749626082 -2558.514845091993,-1100.5333855598517 -2498.678038306889,-1249.874685536527 -2421.2425662247133,-1390.7396635567172 -2326.6513590037603,-1520.7936512900358 -2215.6121232872465,-1637.679626828381 -2089.1069862503914,-1739.0460238928667 -1948.3993952216674,-1822.5763351981632 -1795.0380040096238,-1886.020261846535 -1630.857296570882,-1927.226124771585 -1457.9747225685735,-1944.1742195310917 -1278.7841476911428,-1935.0107626667595 -1095.945454272263,-1898.0820469278588 -912.3701646585314,-1831.9683944249452 -731.2030007369261,-1735.5174717702405 -555.7993378213087,-1607.8765099999573 -389.69855940527043,-1448.5229550764013 -236.5933707521438,-1257.2930625308243 -100.2951834832644,-1034.407942803221 15.304260248794606,-780.4965624997577 106.27479730682917,-496.6152115188298 168.69300095868172,-184.26295714027214 198.69024064319464,154.6073759802899 192.50323936090035,517.5831361913454 146.52666571645307,901.791090013461 57.367241277087345,1303.9023474783155 -78.10120976698107,1720.1432868313666 -262.68239180079513,2146.3127445358696 -498.8025187564249,2577.8056763859777 -788.4563542717998,3009.6434288188498 -1133.1550548378905,3436.510686600123 -1533.8765871741766,3852.799084432772 -1991.0195107568893,4252.657386306469 -2504.3609275891527,4630.048048258241 -3073.019403238369,4978.809888459155 -3695.4236552317548,5292.726494075023 -4369.28778653321,5565.599898164804 -5091.593812553614,5791.328963060575 -5858.582189606559,5963.991810379716 -6665.7510006612465,6077.931543285736 -7507.864390540634,6127.844415133389 -8378.970767378567,6108.869511549367 -9272.431200342653,6016.67893168808 -10180.95834566123,5847.567380263432 -11096.66612433583,5598.5400163924305 -12011.130256208344,5267.3973496864155 -12915.45962709128,4852.815929749252 -13800.37832942961,4354.423543597941 -14656.318073585811,3772.8676177497714 -15473.520517632343,3109.875518972009 -16242.148909961037,2368.305461004488 -16952.40828269731,1552.1867548535297 -17594.673276599515,666.7481882771256 -18159.62252171843,-281.5666135737642 -18638.378344599027,-1285.0979093228314 -19022.65042432791,-2334.9836033171064 -19304.881878448952,-3421.18888444293 -19478.396127928765,-4532.552436376195 -19537.54277022065,-5656.849754196305 -19477.840583333702,-6780.873925308741 -19296.115693919193,-7890.534039329955 -18990.63287094326,-8970.97118330333 -18561.21785565298,-10006.691756921053 -18009.368610267607,-10981.717609187188 -17338.35336400917,-11879.752255297522 -16553.293357405997,-12684.362182820454 -15661.228235736742,-13379.172002175961 -14671.162121258916,-13948.071940793689 -13594.088502433795,-14375.435926261776 -12442.992217367359,-14646.348254521625 -11232.826978442863,-14746.836598143336 -9980.467085571157,-14664.108880480402 -8704.6322061945,-14386.791327692965 -7425.784360304103,-13905.164815940185 -6165.996537004537,-13211.396459173848 -4948.792683879971,-12299.763237586978 -3798.9591494440047,-11166.864351464064 -2742.3280196962987,-9811.81890339168 -1805.5331692333211,-8236.44546678302 -1015.7402419981304,-6445.420093471213 -400.35218271468796,-4446.409350462826 13.307646955315363,-2250.1750582011446 198.3323181375397,129.35246814641883 128.5852882423461,2675.0356952578936 -220.9318086349241,5366.528459881751 -873.7011925177192,8180.314385473787 -1851.3048196056452,11089.787317086222 -3173.0384923641304,14065.375588307934 -4855.52888993846,17074.711510253353 -6912.358489466793,20082.847003125615 -9353.70358396304,23052.515778510613 -12185.990788533745,25944.441928796143 -15411.577558187219,28717.69419318102 -19028.462312095045,31330.084552586628 -23030.029765973988,33738.60916406213 -27404.83701184826,35899.92898532566 -32136.44574896602,37770.88676888964 -37203.30585787297,39309.05643038082 -42578.69521911784,40473.32012533722 -48230.72030711419,41224.46771157845 -54122.38163754323,41525.81263926669 -60211.70761354174,41343.817707387345 -66451.95970298053,40648.72356319979 -72791.91118868654,39415.17230999659 -79176.20096889825,37622.818138040166 -85545.76305110796,35256.91651348316 -91838.33148446081,32308.883159873574 -97989.01952094815,28776.81385558104 -103930.97079180244,24665.955956736394 -109596.07924201431,19989.122547000126 -114915.77349302871,14767.040219846607 -119821.86021288508,9028.621722290682 -124247.4199766402,2811.1550363010747 -128127.74801116914,-3839.5990504848523 -131401.33115142465,-10869.408227039277 -134010.85130466253,-18215.675398484906 -135904.20474029167,-25807.65661755268 -137035.5256115253,-33566.794943410605 -137366.20128672515,-41407.17383828458 -136865.86633914176,-49236.09246699141 -135513.36142937109,-56954.76390637844 -133297.6428305808,-64459.13581004461 -130218.62800717397,-71640.83151986123 -126287.96247697501,-78388.20798287127 -121529.69317810904,-84587.52513513497 -115980.8337361316,-90124.21966983014 -109691.80739475643,-94884.27433395015 -102726.75394308663,-98755.67211638848 -95163.6877500279,-101629.9229216572 -87094.49500681984,-103403.64859082992 -78624.75948326098,-103980.21045847621 -69873.40752161486,-103271.36204618835 -60972.16462104491,-101198.90801522999 -52064.81779853226,-97696.34915859309 -43306.279940530825,-92710.49203216658 -34861.45457085468,-86203.00083127478 -26903.901839313276,-78151.86833746279 -19614.30906398568,-68552.78221498245 -13178.771816341776,-57420.36264957533 -7786.894298191349,-44789.247314742985 -3629.72059526634,-30714.999941533588 -897.5112739413585,-15274.819373332095 222.61731760716447,1431.973079248881 -450.8291902561609,19283.688896159187 -3091.151414351764,38136.28951367634 -7860.8161933471465,57823.68272758244 -14908.776650947988,78158.31335008595 -24367.78308403306,98932.0604819845 -36351.71758720165,119917.45077514497 -50952.987236578454,140869.1937573056 -68240.01226198298,161526.0416913706 -88254.84689730723,181612.9725696873 -111010.971475328,200843.69073020687 -136491.2947885679,218923.43526091846 -164646.40573836086,235552.08187141217 -195393.11280949242,250427.51930048037 -228613.30891121036,263249.2766454823 -264153.19759515155,273722.3732961317 -301822.9145801579,281561.3584895902 -341396.57587191794,286494.50293576275 -382612.7805574241,288268.10055498406 -425175.59258208366,286650.83419033536 -468756.02149030013,281438.1552709282 -512994.017245086,272456.6238786549 -557500.9888631888,259568.152577174 -601862.8507418976,242674.09476562525 -645643.5942528044,221719.1162863439 -688389.375485164,196694.78760866149 -729633.1029941884,167642.83318919106 -768899.5021126821,134657.9746277033 -805710.6248904774,97890.30504611661 -839591.7671153054,57547.133759128476 -870077.7462278972,13894.242813944373 -896719.4863662004,-32743.499619692433 -919090.8493572031,-81982.21971177582 -936795.6433230905,-133379.85775319685 -949474.7337878832,-186437.7665700346 -956813.1758706607,-240603.12083173485 -958547.2804425444,-295272.1615867047 -954471.5221172619,-349794.2915979569 -944445.1927487788,-403477.02751004085 -928398.7008307088,-455591.8046230157 -906339.4149330198,-505380.6191594798 -878356.9481687121,-552063.4814794326 -844627.780745241,-594846.6418313275 -805419.1190028164,-632931.538044193 -761091.8920433252,-665524.4021956733 -712102.791166819,-691846.4508756278 -659005.2629006167,-711144.5713559634 -602449.3734571713,-722702.4039348463 -543180.471002694,-725851.7091150542 -482036.58215288416,-719983.897275512 -419944.4906097756,-704561.588279432 -357914.45876976755,-679130.0592117475 -297033.56740166084,-643328.4303323582 -238457.66402799837,-596900.4325475328 -183401.9273348394,-539704.5944126523 -133130.07265411553,-471723.6830512763 -88942.24215726511,-393073.2315645246 -52161.6426963103,-304008.9856553741 -24120.014035924065,-204933.10443411692 -6142.030325073143,-96398.95481603673 471.2421706170277,20885.654337329375 -5540.311939016255,146056.94307630774 -25377.876020893164,278095.4694474026 -60165.26352583099,415828.3960857802 -110930.22260852455,557933.8172351288 -178585.6990827119,702947.2303753323 -263911.2885231852,849270.2155968475 -367535.12144886295,995181.3626250211 -489916.43648840167,1138849.4601088269 -631329.1049611913,1278348.9346244251 -791846.3761327046,1411677.49801659 -971327.1152704777,1536775.9314577885 -1169403.8063016008,1651549.9032267714 -1385472.5871447348,1753893.6850103987 -1618685.578477969,1841715.598859804 -1867945.75565906,1912964.9941593034 -2131904.598624241,1965660.5214948994 -2408962.7357836924,1997919.4385630016 -2697273.7751772357,2007987.6526822771 -2994751.4894718328,1994270.1755213311 -3299080.490842094,1955361.638801326 -3607730.4974973435,1890076.4954498888 -3917974.255780311,1797478.50944532 -4226909.1405957,1676909.1198663213 -4531482.412720192,1528014.2509077524 -4828520.0646461155,1350769.1302745938 -5114759.1374217775,1145500.6738356336 -5386883.3399308035,912906.9950842552 -5641561.749712853,654073.6041562594 -5875490.321332553,370485.87318684405 -6085435.87505998,64037.36289276228 -6268282.185890372,-262966.3703791772 -6421077.741389712,-607808.8371721002 -6541084.687230351,-967368.8599064383 -6625828.432320835,-1338132.269717743 -6673147.341900209,-1716209.2747463647 -6681241.907630362,-2097357.66363274 -6648722.749350172,-2477011.94634666 -6574656.774513324,-2850318.4674555394 -6458610.79915788,-3212176.4549877685 -6300691.919257997,-3557284.8917376464 -6101583.91415495,-3880195.0158454864 -5862578.965070151,-4175368.1745179323 -5585603.982016572,-4437238.669662912 -5273240.852223013,-4660281.147917866 -4928739.952856829,-4839082.001041882 -4556026.310666409,-4968414.156983458 -4159697.8413511566,-5043314.558248885 -3745015.1620726692,-5059163.543654987 -3317882.541489591,-5011765.273365903 -2884819.632842524,-4897428.266527615 -2452923.726605358,-4713045.057077595 -2029822.3595845853,-4456169.917673852 -1623616.2264654327,-4125093.5553900586 -1242812.4569055685,-3718913.6470653582 -896248.4454372639,-3237600.0581270205 -593006.551589705,-2682053.577405949 -342320.12256369705,-2054157.002932836 -153471.42912419466,-1356817.4308297446 -35682.245628856894,-593998.6319656196 2002.0543327024075,229257.55034660743 -49166.12391769741,1106821.7831985878 -197510.89070882008,2031480.7271103398 -450804.11649819015,2994954.2399716736 -816135.0270696434,3987927.0069230725 -1299779.66470064,5000095.168956163 -1907071.8338155427,6020228.374789903 -2642277.2396919033,7036247.517145034 -3508472.6036178004,8035318.236912335 -4507431.595558812,9003960.088146668 -5639519.464016453,9928171.054824915 -6903598.260590333,10793566.898627976 -8296944.552179722,11585534.597630233 -9815181.4853323,12289398.910916535 -11452227.013726782,12890600.876230016 -13200260.020144401,13374886.819409616 -15049705.957786705,13728506.228421332 -16989243.50195701,13938416.624189584 -19005833.54177785,13992493.348298727 -21084771.652924176,13879741.987166166 -23209764.976840027,13590510.966761705 -25363034.19044694,13116701.68467267 -27525440.984221973,12451973.40059407 -29676641.177371904,11591939.985412382 -31795263.288723905,10534355.536120906 -33859112.053332984,9279285.801877223 -35845396.03053395,7829262.338442551 -37730978.09246679,6189416.31664166 -39492647.21658943,4367588.957689723 -41107409.63531163,2374415.6562606613 -42552797.02493285,223380.98266059943 -43807189.04910304,-2069158.0703625537 -44850147.21390106,-4483983.0120344255 -45662756.647372596,-6999061.101752597 -46227972.09121106,-9589630.765909644 -46530964.091514066,-12228326.676904775 -46559461.10459746,-14885345.594523989 -46304082.99804421,-17528653.63644901 -45758661.23181444,-20124235.17391301 -44920540.854473114,-22636383.04381138 -43790859.35032495,-25028029.233903185 -42374797.32909491,-27261114.63774415 -40681796.06500967,-29296995.89595902 -38725736.970490105,-31096886.74623707 -36525078.23442684,-32622330.702494837 -34102944.06882491,-33835701.28094022 -31487162.292423494,-34700725.3947475 -28710246.3369521,-35183024.957580306 -25809318.191359054,-35250671.17747902 -22825969.301168066,-34874745.495143205 -19806057.01266789,-34029900.63303251 -16799434.79254171,-32694914.78273285 -13859615.159391612,-30853231.5763882 -11043365.029988877,-28493478.17228559 -8410234.004496867,-25609953.543236785 -6022016.984840822,-22203078.89720464 -3942153.431264355,-18279802.09016305 -2235066.5053286506,-13853947.918337006 -965446.3136074981,-8946506.30686501 -197482.44462200408,-3585850.6498381873 5948.029205608006,2192121.09313601 -415870.05526369816,8343929.473054413 -1520611.2475066213,14818547.146500736 -3362010.458495094,21557528.634639524 -5988953.461819556,28495241.073163994 -9444567.55774543,35559199.847081326 -13765323.74835877,42670511.960239045 -18980162.38961909,49744428.840117395 -25109654.79634843,56691009.03092883 -32165213.665380325,63415889.89137065 -40148365.43733993,69821165.9981618 -49050097.82667501,75806370.47509065 -58850295.701463215,81269553.93370219 -69517278.27926122,86108454.1415592 -81007450.21430357,90221747.94427806 -93265078.57781686,93510375.3767632 -106222206.97198227,95878924.326943 -119798717.06606944,97237062.58266617 -133902546.69952367,97501002.62094411 -148430072.36274207,96594983.11085576 -163266662.34572253,94452749.81998688 -178287405.1441884,91019017.46237014 -193358015.8412468,86250893.02650079 -208335921.1519841,80119240.2977897 -223071521.64321706,72609964.66275163 -237409627.33834246,63725196.87334538 -251191060.50790158,53484354.27884018 -264254416.95299867,41925058.11748255 -276437974.536401,29103885.81713275 -287581735.1328571,15096937.896722265 -297529583.58590823,200.0000003643689" stroke="white" stroke-width="1.5" /><circle cx="154.10328460079143" cy="219.83662056813236" fill="red" opacity="0.7" r="6.986693307950612" /></svg>