<?xml version="1.0" encoding="utf-8" ?>
<svg baseProfile="full" height="400" version="1.1" width="400" xmlns="http://www.w3.org/2000/svg" xmlns:ev="http://www.w3.org/2001/xml-events" xmlns:xlink="http://www.w3.org/1999/xlink"><defs /><rect fill="black" height="100%" width="100%" x="0" y="0" /><circle cx="200" cy="200" fill="yellow" r="10.000437165840184" stroke="orange" stroke-width="2" /><polyline fill="none" points="199.73980088814304,200.0 199.6797539524173,199.983188545412 199.6181433437331,199.95979775163178 199.5555805178998,199.92949139755234 199.49272807320915,199.89199062921637 199.430294878238,199.84708106858915 199.36903029591494,199.7946195896752 199.30971751511856,199.73454065518132 199.2531660129286,199.66686210523613 199.20020318301385,199.5916902892191 199.15166517838898,199.50922443261896 199.10838702977273,199.41976013311185 199.07119211389264,199.32369188378678 199.04088105914312,199.22151452670397 199.01822018885738,199.11382354678585 199.00392961491616,199.00131412442977 198.9986711063154,198.8847788751981 199.0030358684573,198.7651042164671 199.01753237913042,198.64326531395952 199.04257443621358,198.52031957559018 199.07846957988303,198.39739867593335 199.12540805834524,198.275699111771 199.18345251067137,198.15647130747467 199.252528543012,198.0410073082586 199.33241637515906,197.93062711944347 199.42274373295626,197.82666377059732 199.5229801583108,197.7304472045506 199.63243290242377,197.64328711258668 199.7502445592494,197.56645485832826 199.8753925850564,197.50116465370954 200.00669083626664,197.4485541706552 200.1427932414873,197.40966479139166 200.28219970486137,197.3854217183859 200.42326431660382,197.37661418143915 200.56420592296567,197.38387599414517 200.70312108200991,197.40766672445244 200.83799940366544,197.44825375414177 200.96674124275614,197.50569550936063 201.0871776823288,197.57982614866415 201.19709271190823,197.67024199604694 201.29424747160948,197.77629000397454 201.37640639868624,197.8970585252387 201.44136507847693,198.03137066238926 201.4869795672367,198.1777804494081 201.5111969204539,198.33457210208869 201.5120866274035,198.499762551224 201.48787262136779,198.67110744617895 201.4369655056453,198.8461107857906 201.35799460867472,199.0220382988971 201.2498394578205,199.19593465831517 201.11166024110182,199.364644569981 200.94292680987985,199.52483773352648 200.74344576372567,199.67303762212038 200.51338515181237,199.80565397836685 200.25329632363062,199.9190188698784 199.96413246599013,200.00942609335138 199.64726337347122,200.07317366013683 199.3044860160095,200.1066090400467 198.93803049034886,200.10617678413425 198.55056097183595,200.06846809215378 198.1451713195278,199.99027183708512 197.7253750308471,199.86862650828414 197.29508929195552,199.70087248728709 196.85861292645578,199.48470402687084 196.42059810770667,199.2182202654621 195.98601576858405,198.89997457621044 195.5601147164812,198.5290215237811 195.1483745401606,198.10496068294674 194.75645247808737,197.62797656208886 194.39012450434308,197.0988738724298 194.05522097729173,196.51910739081666 193.75755728691425,195.89080568070213 193.5028600281262,195.21678796306537 193.29668931835334,194.500573466737 193.14435796699874,193.74638263617965 193.05084829097729,192.95912963435296 193.0207274529485,192.1444056488526 193.0580622759528,191.30845259091606 193.16633455852605,190.45812686884682 193.34835797670988,189.60085301948513 193.60619771237816,188.74456709295686 193.94109398967507,187.89764980630983 194.35339073187453,187.06884960989225 194.84247056844248,186.26719594536848 195.40669742542838,185.501903114881 196.04336792054,184.78226532567766 196.74867275649723,184.117543622008 197.51766926179815,183.51684556459767 198.34426616628866,182.98899866575624 199.22122161952595,182.54241873326998 200.14015536266325,182.18497441669945 201.0915758494775,181.9238493834781 202.06492297944632,181.76540367718616 203.0486269559303,181.71503592440587 204.0301836162448,181.77704815749846 204.9962463986838,181.95451510634865 205.93273491560942,182.24915988051077 206.82495989303357,182.66123801225208 207.65776401742977,183.18943185881815 208.41567800182708,183.8307573670746 209.0830909477888,184.58048518390785 209.64443384014953,185.4320780499919 210.084374770064,186.37714634157877 210.38802424191135,187.40542352393314 210.54114868396934,188.50476315027964 210.53039005474838,189.66115888136184 210.34348921980518,190.85878881294875 209.96951057116934,192.08008518226785 209.3990651767019,193.30583028016528 208.62452958325773,194.5152791249704 207.64025725890568,195.68630915815697 206.4427795490645,196.79559690294843 205.03099294249554,197.81882118743437 203.40632939875,198.7308921763905 201.5729064817651,199.5062050840798 199.53765407743094,200.11891705750966 197.3104145483816,200.5432453299636 194.90401329888925,200.75378435250153 192.33429688803682,200.7258392212455 189.62013604130888,200.43577233563605 186.7833911698673,199.86135985270522 183.8488383129959,198.98215415020414 180.84405377185792,197.7798481827319 177.79925610053,196.2386373154976 174.7471045613337,194.34557395569283 171.72245363319067,192.09091007728162 168.76206368080742,189.46842255683077 165.90426844499748,186.47571611109868 163.18860059573927,183.11449855649428 160.65537719433866,179.39082310085018 158.34524753337055,175.3152924334326 156.29870645634492,170.90321950340748 154.55557689613173,166.17474007315593 153.1544660044223,161.15487240325993 152.1321998657634,155.87351977226768 151.5232423904412,150.36541195727153 151.35910455187155,144.66998230075603 151.66775066709374,138.83117756401714 152.47300890426243,132.8971984156084 153.79399362945853,126.92016912158704 155.64454756755683,120.95573578857089 158.0327120393639,115.06259335544078 160.9602337411816,109.30194242847017 164.4221166452245,103.73687800018587 168.4062276123877,98.43171307570712 172.89296421592195,93.4512412419915 177.85499306967392,88.85994324462337 183.25706663274846,84.7211436719062 189.05592601991592,81.09612487455428 195.20029678124348,78.04320625801549 201.63098392404953,75.61679805949113 208.28107163561833,73.86643964868114 215.07623222797744,72.83583325541895 221.9351477698806,72.56188481370077 228.77004670113485,73.07376430517998 235.48735644748172,74.39199857113199 241.98847167911038,76.52761002571597 248.1706363930921,79.4813150310935 253.92793646188244,83.24279587344911 259.1523976906489,87.79006029594568 263.73518278133145,93.08890238912906 267.56787892844864,99.09247830164982 270.54386608966195,105.74100970638493 272.55975430331466,112.96162723296015 273.51687678710323,120.66836515315312 273.3228239692975,128.7623174787658 271.89300209988477,137.13196430276125 269.1521986876593,145.6536756867827 265.03613573492646,154.19239867725844 259.49299061848893,162.6025311266668 252.4848635180484,170.72898391746557 243.98916954462527,178.4084309479689 233.99993319470565,185.47074385924614 222.5289624719798,191.74060598002302 209.60687999753793,197.03929736555142 195.28398868910625,201.18664013220908 179.63095014591158,204.00309057055526 162.73925474097706,205.3119617865312 144.72146360703022,204.94175790650928 125.71120421236553,202.72859822200175 105.8629030620294,198.5187070807501 85.35124122665991,192.17094289066807 64.37032089129337,183.55933733069128 43.132533920059416,172.57561379750035 21.86712653606682,159.1316522989096 0.8184576003999098,143.16186647260022 -19.75604838326103,124.6254572010456 -39.58824853936443,103.5085064466663 -58.401920097854486,79.82587448017654 -75.91567678006578,53.62286365185807 -91.84614544781567,24.976612289064775 -105.9113809515352,-6.0028167812074 -117.83449267296902,-39.17168716738996 -127.34745185007722,-74.35221145145721 -134.1950444531792,-111.33257500857434 -138.13893021189892,-149.86738778555156 -138.96176443389993,-189.67858718136415 -136.4713355721221,-230.4568111144897 -130.50466815148076,-271.8632557941743 -120.93203772302462,-313.5320276586963 -107.66084203697574,-355.07299343353054 -90.63927067795407,-396.07512633406714 -69.85971404562719,-436.1103401369328 -45.361851848339256,-474.73779622442373 -17.235361258022095,-511.50866182917616 14.377814401209804,-545.9712906391032 49.28169405022868,-577.6767897412118 87.2250396312207,-606.1849296687241 127.90074138683636,-631.0703471566143 170.94585573532706,-651.9289831989043 215.94233893603266,-668.3846922340246 262.41851397529723,-680.0959518627969 309.8513014868408,-686.7625965300933 357.6692380780639,-688.132493180429 405.2562972019467,-684.0080721340196 451.9565187426393,-674.2526224264623 497.07944383367266,-658.796257712998 539.9063411754282,-637.6414566539269 579.69720035048,-610.8680805626451 615.6984564508526,-578.6377710962541 647.1513988414895,-541.1976319767389 673.3012052117634,-498.88310121435904 693.4065303446502,-452.11992411862093 706.7495674037077,-401.42514256766947 712.646488152176,-347.40702259156865 710.4581575342659,-290.7638503204725 699.6010076295854,-232.28153575019275 679.5579463051422,-172.82997456238428 649.8891671050069,-113.35813036289369 610.2427192052337,-54.88781310892389 560.3646897887611,1.493855897659472 500.10884612525024,54.643286368473895 429.4455811312878,103.37054597424074 348.4700043851511,146.45073159791494 257.4090206142799,182.63652642697107 156.62723968574574,210.67186573691487 46.631566217126675,229.30661524681088 -71.9256768245815,237.31214688108417 -198.24522768793497,233.49767788196343 -331.38109496324876,216.72722072916292 -470.24260962032736,185.9369734946526 -613.5984179768864,140.15296335658013 -760.0824960398918,78.50874028978629 -908.2022459070665,0.2629037164767851 -1056.34871308299,-95.1837675848355 -1202.8089397858419,-208.27182247860492 -1345.7804437625196,-339.26752972447446 -1483.387784990272,-488.2484094642148 -1613.7011541538486,-655.0901607806475 -1734.7568872125971,-839.4552420180169 -1844.5797800070998,-1040.783357202868 -1941.2070460244972,-1258.2840951785477 -2022.7137294985555,-1490.9319578230609 -2087.2393553410675,-1737.463999850052 -2133.015567386182,-1996.380285127264 -2158.394477495146,-2265.9473431555316 -2161.877420649067,-2544.204784350492 -2142.143785693884,-2828.975204121107 -2098.0795683424108,-3117.877473555646 -2028.805272831216,-3408.3434789709163 -1933.7027717176984,-3697.638333870801 -1812.4407201157203,-3982.8840452655168 -1664.998111620483,-4261.086572147947 -1491.6855586547806,-4529.166167586074 -1293.16388033857,-4783.990847800383 -1070.4595865650012,-5022.412782234098 -824.9768580385955,-5241.307348520399 -558.505638824244,-5437.614545978208 -273.22548064455856,-5608.382411441364 28.29519314053843,-5750.812032493641 343.104701188264,-5862.303706224831 667.8788520015082,-5940.503747143656 998.9370357725219,-5983.351406600655 1332.2638176452397,-5989.125328716293 1663.5361318916448,-5956.48893510484 1988.156113472928,-5884.534103349816 2301.2895357561656,-5772.822482923419 2597.9097513116294,-5621.423777721369 2872.846957339113,-5430.950317236421 3120.8425290674304,-5202.5872392044685 3336.6080842206293,-4938.11761584643 3514.888860210191,-4639.941874051234 3650.5309040280954,-4311.090887371801 3738.551493880025,-3955.2321548166037 3774.212132468635,-3576.66852829549 3753.0933756191953,-3180.329007290966 3671.1706877765646,-2771.751185827399 3524.89044896317,-2357.0550129300136 3311.2451772553422,-1942.907613200387 3027.8469778905765,-1536.4790084449405 2672.9981859306954,-1145.388683902211 2245.75813510825,-777.6430527986025 1746.00496216773,-441.56398986144234 1174.4913447034105,-145.7087270257083 532.8930721367552,101.21846825535552 -176.1506350842621,290.4622812214864 -949.0061130121087,413.31932131277085 -1781.024558301326,461.2472610284215 -2666.532598050607,425.9791947320864 -3598.8349979971586,299.6421415171801 -4570.230289139066,74.87849254034194 -5572.039984424074,-255.0309138394383 -6594.651933088691,-696.0435143130861 -7627.578221056833,-1253.233063539711 -8659.527872231853,-1930.6706067049167 -9678.49443848484,-2731.3100621198914 -10671.85838683273,-3656.880149571374 -11626.504002120755,-4707.784437557128 -12528.9503241129,-5883.01130041894 -13365.495431111804,-7180.055573181235 -14122.373170158842,-8594.853666250303 -14785.921218786203,-10121.733852838852 -15342.75914768124,-11753.383368085304 -15779.974940126074,-13480.833859607734 -16085.318215490537,-15293.466604207326 -16247.398203305936,-17179.038754441928 -16255.88432455494,-19123.731701967183 -16101.707060868683,-21112.222442361297 -15777.256633447161,-23127.77859942489 -15276.576874834553,-25152.377516857443 -14595.551561265387,-27166.849553305103 -13732.080384142208,-29151.04542496817 -12686.24167918091,-31084.027130551607 -11460.4390035641,-32944.2816690093 -10059.528657555984,-34709.95642430441 -8490.92528967851,-36359.1147466722 -6764.68280564417,-37870.009910350906 -4893.547922350063,-39221.37527745981 -2892.9838705365755,-40392.72815096655 -781.1619539410806,-41364.68446104695 1421.081080801184,-42119.2811033521 3690.321620876744,-42640.30243967678 6000.665138447085,-42913.607186295114 8323.90057464837,-42927.45165785883 10629.69380755077,-42672.80511032175 12885.820412499976,-42143.652739847385 15058.437448332823,-41337.281750945825 17112.393499530313,-40254.54581081673 19011.57567680074,-38900.10316242786 20719.291731820063,-37282.62368025927 22198.684881410212,-35414.9602234831 23413.178368365716,-33314.27977473522 24326.946217002773,-31002.150051097185 24905.40607830728,-28504.577539329614 25115.729509706933,-25851.99324096981 24927.36450572166,-23079.18281504251 24312.56459604215,-20225.15827641681 23246.918365115678,-17332.96894499561 21709.872830327557,-14449.449942740934 19685.24375258634,-11624.907198860441 17161.70565167083,-8912.738644180221 14133.254066968084,-6368.992048681724 10599.6324497732,-4051.860775270091 6566.716003233524,-2021.1195809697715 2046.8448068240323,-337.50348585054564 -2940.9013202344777,937.9663589130914 -8370.49354294886,1744.7049492163337 -14208.81732316065,2023.3280731038537 -20415.61488809206,1716.4526286841299 -26943.51287742501,769.5250280487566 -33738.14053540374,-868.330757819471 -40738.34304764909,-3243.454768793935 -47876.49374699549,-6396.792245450875 -55078.90793233003,-10363.045120028873 -62266.359964295865,-15169.845077479778 -69354.70412856653,-20836.959942768877 -76255.59849957365,-27375.54552416481 -82877.32970505391,-34787.455289992526 -89125.73509614264,-43064.620366693765 -94905.21738211824,-52188.512308477126 -100119.84530793673,-62129.70089390715 -104674.53245243171,-72847.51884436 -108476.28472287455,-84289.84482676488 -111435.50563605629,-96393.0153935616 -113467.34702674259,-109081.87562329698 -114493.09143174347,-122269.97715477506 -114441.55108304742,-135859.9310573687 -113250.46722805082,-149743.9215534899 -110867.89240065977,-163804.3850122577 -107253.53731568264,-177914.85687455264 -102380.06327184844,-191940.98725995095 -96234.30034681385,-205741.7239591018 -88818.37127050321,-219170.6593473062 -80150.70068976823,-232077.53548516805 -70266.88960476102,-244309.89932165758 -59220.43508089237,-255714.89750759202 -47083.27593292332,-266141.1978895527 -33946.14595025419,-275441.02231387235 -19918.71739273648,-283472.2729577599 -5129.5189391724325,-290100.7320517814 10274.385982400296,-295202.3125980009 26127.97251453866,-298665.3355554949 42249.08904697711,-300392.8069947397 58439.560354834255,-300304.66694989084 74486.56343888419,-298339.980158546 90164.27719928963,-294459.03760699334 105235.80374282296,-288645.3368288914 119455.35559645707,-280907.4082691263 132570.6994080653,-271280.45475252194 144325.84289269245,-259827.77121686394 154463.94786929194,-246641.91240614906 162730.4482705449,-231845.57719431754 168876.34804339314,-215592.17963913048 172661.6699393913,-198066.0787630704 173859.02237377578,-179482.4414308971 172257.24786434707,-160086.7155440439 167665.1131017158,-140153.69409707963 159914.9975081776,-119986.15443123416 148866.5342709117,-99913.06125861252 134410.15534372308,-80287.32669546093 116470.48985660968,-61483.12560424934 95009.56380881424,-43892.76996597227 70029.74790109535,-27923.151742655136 41576.39993582593,-13991.769695414452 9740.148424191406,-2522.3618387167317 -25341.23507166231,6059.828426533187 -63481.42573285416,11333.118019090298 -104444.64594483226,12884.740798873074 -147945.3218543961,10316.447815815169 -193648.33757762556,3250.2976956190114 -241169.92396309803,-8665.422280542347 -290079.2133936625,-25750.209457170316 -339900.4859342383,-48285.363679779155 -390116.1252288692,-76508.08464959872 -440170.29495470965,-110605.72767476422 -489473.3384019664,-150710.30005552917 -537406.8949264316,-196893.2828609526 -583329.7176858193,-249160.86448896964 -626584.167304438,-307449.6730711088 -666503.346005427,-371623.09441451635 -702418.8264087521,-441468.2607021802 -733668.9187295355,-516693.792542176 -759607.4096467625,-596928.373123115 -779612.6957772477,-681720.228163103 -793097.224621126,-770537.5790135885 -799517.1461862773,-862770.1286921559 -798382.0693974185,-957731.6317793949 -789264.8090018126,-1054663.5890506895 -771811.0011494675,-1152740.096467271 -745748.4593025201,-1251073.8657828004 -710896.1367651935,-1348723.420610922 -667172.558066711,-1444701.457442728 -614603.5788125495,-1537984.3459159886 -553329.3325737022,-1627522.726753762 -483610.22402743483,-1712253.149359643 -405831.8300013887,-1791110.6742479412 -320508.5743958121,-1863042.3484835764 -228286.04923858502,-1927021.4453068906 -129941.86241742453,-1982062.3423344593 -26384.902964808683,-2027235.8963817877 81347.07284811491,-2061685.1572802966 192091.61693881874,-2084641.2482989305 304567.59228880925,-2095439.227175013 417383.0508719,-2093533.7295564238 529045.0140986093,-2078514.1861031454 637971.161407291,-2050119.3958330306 742503.4092680285,-2008251.23175815 840923.3381559794,-1952987.2506684447 931469.3992146283,-1884591.9772876531 1012355.8056119966,-1803526.634144494 1081792.986267738,-1710457.0925401973 1138009.4519953092,-1606259.827096741 1179274.8964842316,-1492025.6666557766 1203924.327287491,-1369061.1478514725 1210382.995441307,-1238887.294551247 1197191.8669075498,-1103235.6665593835 1163033.355083151,-964041.5444813756 1106757.0115635123,-823434.144380233 1027404.8525792273,-683723.7857038709 924235.981446696,-547385.9687624179 796750.1533757111,-417042.35357526276 644709.918441646,-295438.66993170173 468160.9718192487,-185419.6287092477 267450.33782884025,-89900.94651573816 43242.01627465403,-11838.639164638485 -203470.27376522237,45804.2160878679 -471353.60587229684,80093.00470751165 -758729.9502790828,88159.09574103724 -1063574.18410141,67239.0253896635 -1383516.2944499834,14714.966232441782 -1715848.0281058436,-71843.9362449609 -2057534.2031268294,-194639.81700215797 -2405228.854189953,-355604.4276192596 -2755296.334857477,-556358.0802581991 -3103837.44654907,-798169.7520081096 -3446720.6061524395,-1081918.924825448 -3779618.0023320327,-1408059.7532522404 -4098046.625200243,-1776588.1628395403 -4397413.985675903,-2187012.486167281 -4673068.270223068,-2638328.240032609 -4920352.604464935,-3128997.6363301934 -5134663.0261963885,-3656934.3999897717 -5311509.695429745,-4219494.43976336 -5446580.797214395,-4813472.881446632 -5535808.523033595,-5435107.928148563 -5575436.449600754,-6080091.958462294 -5562087.570885449,-6743590.210919138 -5492832.181246643,-7420267.332120572 -5365254.7556951465,-8104321.986751897 -5177518.928603602,-8789529.640723124 -4928429.635664236,-9469293.534517374 -4617491.456566634,-10136703.7631458 -4244962.178682575,-10784604.272725161 -3811900.595899094,-11405667.4725505 -3320207.562446741,-11992476.046698358 -2772659.3398536295,-12537611.431843553 -2172932.306629267,-13033748.30939662 -1525618.1454395538,-13473754.341664877 -836228.6817291513,-13850794.264990252 -111189.62118390769,-14158437.339286022 642177.4788556608,-14390767.044708611 1415685.5670531068,-14542491.814040564 2200325.2321373303,-14609055.49542822 2986320.931689119,-14586746.156138789 3763200.492366929,-14472801.76568355 4519877.904993589,-14265511.237679716 5244749.274073811,-13964309.265818406 5925801.608233243,-13569863.361824699 6550733.957296922,-13084151.493779913 7107090.214993336,-12510528.7329543 7582402.715502882,-11853781.347536968 7964345.559369772,-11120166.83334515 8240896.411931044,-10317438.445539055 8400505.327803276,-9454852.8921361 8432268.970646191,-8543159.97002783 8326108.421043812,-7594573.067318944 8072948.599632032,-6622719.621901285 7664897.18033231,-5642570.814717598 7095420.732521331,-4670349.986325648 6359515.713952503,-3723419.495965102 5453871.840979378,-2820145.991868846 4377025.29175348,-1979744.3282044905 3129499.1540947123,-1222100.6456123488 1713928.515011959,-567575.4263207662 135167.60552444786,-36787.63844234663 -1599623.5356013188,349618.6058466195 -3480915.330722352,571223.1403911518 -5496770.1952792965,608092.5330440021 -7632831.505188444,441054.2132496559 -9872341.976255374,51979.28168790757 -12196193.198748268,-575928.9417832004 -14583007.799498798,-1457843.8444233958 -17009255.396678265,-2607025.380505802 -19449403.17010799,-4034534.5444986 -21876101.494512923,-5748956.326532782 -24260404.676971,-7756135.173026298 -26572026.40593668,-10058927.08947298 -28779629.061173838,-12656972.592730734 -30851145.55579547,-15546494.74284824 -32754131.887980793,-18720126.456081614 -34456148.075922735,-22166771.218200266 -35925164.64073857,-25871501.177876484 -37129991.294436716,-29815496.40180257 -38040723.98999721,-33976028.81474075 -38629206.004902504,-38326494.02813446 -38869498.265052974,-42836493.880087316 -38738353.680131346,-47471972.06808676 -38215689.861467294,-52195404.75523831 -37285054.23668018,-56966047.47325598 -35934075.26917409,-61740239.03413777 -34154893.24213185,-66471762.50136409 -31944563.882946953,-71112262.56545638 -29305427.99168208,-75611717.92362309 -26245440.202314984,-79918966.48563547 -22778450.053858664,-83982280.42552349 -18924428.68488632,-87749987.27946322 -14709634.69376587,-91171132.4634435 -10166713.031338302,-94196177.75968842 -5334721.215243706,-96777729.50882353 -259077.67690934287,-98871289.45632012 5008572.326467478,-100436020.44824146 10410577.082849234,-101435518.46444012 15883588.111266512,-101838581.8290698 21358961.286562897,-101619967.86051953 26763250.531367827,-100761126.7276121 32018794.12751632,-99250901.87778313 37044392.550209396,-97086186.10729757 41756075.51599385,-94272522.16407588 46067954.6709369,-90824636.72044927 49893157.040414065,-86766896.63520432 53144833.03027126,-82133676.64973472 55737231.42549453,-76969628.03867483 57586832.49291287,-71329838.2665867 58613528.97570476,-65279872.39273744 58741843.487495944,-58895687.81801528 57902169.59101901,-52263414.981617354 56032022.699831285,-45478997.788699746 53077285.89067599,-38647688.87963944 48993434.778381824,-31883396.331020035 43746724.80386791,-25307879.999351323 37315323.63806345,-19049797.470389944 29690370.928451214,-13243601.446516654 20876947.328190826,-8028292.376767881 10894934.666330812,-3546032.1909660846 -220250.74344303037,59372.878789946124 -12417069.286063893,2644110.2414427106 -25627430.73445135,4066107.323845211 -39766444.589922674,4186871.8736933796 -54732363.090157054,2873409.539417662 -70406730.51061358,200.00000008622362" stroke="white" stroke-width="1.5" /></svg>