<?xml version="1.0" encoding="utf-8" ?>
<svg baseProfile="full" height="400" version="1.1" width="400" xmlns="http://www.w3.org/2000/svg" xmlns:ev="http://www.w3.org/2001/xml-events" xmlns:xlink="http://www.w3.org/1999/xlink"><defs /><rect fill="black" height="100%" width="100%" x="0" y="0" /><circle cx="200" cy="200" fill="yellow" r="20" stroke="orange" stroke-width="2" /><polyline fill="none" points="198.25419683968394,200.0 198.22131519537137,199.90662717293438 198.19812041679083,199.81029632626547 198.18521253822786,199.71207804152874 198.18309269674427,199.61314040018274 198.19214990802323,199.51474105874095 198.21264833928092,199.41821768129822 198.2447152704679,199.3249767385422 198.28832993921546,199.23648070327363 198.34331346706531,199.15423369441976 198.40932006428545,199.07976564431314 198.48582970786993,199.01461508738754 198.57214248201072,198.96031069217193 198.66737476231134,198.9183516822622 198.77045741419974,198.89018731553244 198.88013616234042,198.87719561390395 198.99497427132314,198.88066155819638 199.11335765852974,198.90175498361305 199.23350253790323,198.94150843091577 199.35346566845124,199.0007952259827 199.47115725383782,199.08030807586908 199.58435650952197,199.18053848236713 199.69072988179747,199.30175728405476 199.78785186902928,199.44399664461716 199.87322835965827,199.607033808522 199.94432236449217,199.79037694465177 199.9985819827885,199.99325339399928 200.03347040307207,200.21460062880226 200.04649770096051,200.45306021735226 200.03525415796688,200.70697507103594 199.99744478781426,200.97439022786008 199.93092472075202,201.25305739975389 199.833735062253,201.54044347934652 199.70413881084616,201.83374316577522 199.54065639126193,202.12989582852856 199.34210033409656,202.4256066835855 199.1076086123883,202.7173723074431 198.83667612938214,203.00151046238344 198.52918384085288,203.27419415091853 198.1854249901469,203.53148975925146 197.8061279350325,203.76939908934298 197.39247505292246,203.9839050173829 196.94611722539133,204.17102045379886 196.46918342443726,204.3268402171126 195.964284951849,204.4475953717484 195.43451391946346,204.52970951912192 194.88343560209154,204.56985647284503 194.31507434640787,204.56501869355355 193.7338927780057,204.51254580759735 193.1447641148772,204.41021248754092 192.55293746844296,204.25627493201162 191.9639960924783,204.04952514880208 191.38380862530434,203.78934221915333 190.8184734607591,203.4757397036539 190.27425647796392,203.10940834196967 189.75752245786325,202.6917532003989 189.27466061496028,202.22492443366656 188.83200477450887,201.71184085099839 188.43574882748385,201.15620551179646 188.09185819667894,200.5625126235235 187.80597814595157,199.9360450739022 187.58333985955747,199.2828620013317 187.4286653082671,198.60977589144215 187.34607200206437,197.92431878372577 187.33897880421875,197.23469727980873 187.4100140469186,196.54973616359786 187.56092724299677,195.87881057251755 187.79250573015798,195.23176679742738 188.10449761217083,194.61883193548962 188.4955423744422,194.0505127739699 188.96311054807654,193.53748444226076 189.503453775887,193.09046953271093 190.11156659496703,192.72010855635926 190.7811611926123,192.43682276549825 191.50465631505446,192.25067053908896 192.27318141128146,192.1711986872582 193.07659697705884,192.20729018517693 193.9035319272463,192.36700999221682 194.74143866800225,192.65745074703455 195.57666636512613,193.08458025073395 196.39455271152414,193.65309275610795 197.17953428680113,194.36626616879994 197.9152753767751,195.22582733374944 198.58481488205862,196.2318276252957 199.17073069482547,197.38253107974342 199.6553206638284,198.67431730314013 200.02079900227093,200.10160135278107 200.24950672413877,201.6567727270821 200.3241344251724,203.33015550375177 200.22795545813435,205.10999153976573 199.94506729190311,206.98244848794872 199.46063859387536,208.9316541938106 198.76115933896276,210.93975881287324 197.83469102999783,212.9870257336781 196.671113917517,215.05195210603932 195.26236793556657,217.11141945940332 193.60268392822042,219.14087455436788 191.68880163263626,221.11454024393197 189.5201708122851,223.00565573280196 187.0991319018148,224.78674521644442 184.43107253593956,226.42991346037172 181.52455639152788,227.907166448645 178.39142087705986,229.19075479345378 175.04684035876204,230.25353715994524 171.5093518194337,231.0693605276365 167.80084010513082,231.61345368746012 163.9464802267667,231.86282996772542 159.9746345479696,231.79669479918098 155.91670310618431,231.39685337522198 151.80692577928806,230.64811334444357 147.68213552244586,229.5386771955288 143.58146245633793,228.0605187651162 139.54598918427882,226.20973812387376 135.61835834736786,223.98688898030866 131.84233408816678,221.39727269130603 128.26231977825626,218.451192988005 124.92283506643552,215.1641656198445 121.8679560146732,211.55707729226697 119.14072279996245,207.65628852776152 116.78252016317461,203.4936754179592 114.83243647155722,199.10660565776894 113.32660791998872,194.53784476150992 112.29755501748086,189.83538895506285 111.7735190794913,185.05222191553295 111.77780696306722,180.24599328795725 112.32815273039768,175.4786177431576 113.43610529688218,170.81579424668615 115.106451402489,166.32644617943305 117.33668343057512,162.0820839781376 120.1165216776515,158.15609303978925 123.42750064270793,154.62295074757236 127.24262874844933,151.55737761627822 131.52613062294898,149.03342870957545 136.23328065378013,147.12353263678753 141.31033597395236,145.89748657855372 146.6945763476843,145.42141690383806 152.31445759352508,145.75671600943306 158.08988421359064,146.95896702111537 163.93260579350118,149.07686892634402 169.7467405026601,152.15117554509325 175.42942766540554,156.21366247137755 180.87160989888054,161.2861367168049 185.95894373381844,167.37950424312376 190.5728359624382,174.49291086794622 194.59160120790824,182.61297215233594 197.89173439892713,191.71310781762185 200.34928997931402,201.75299597995982 201.84135780629416,212.67816202479722 202.2476238142419,224.41971626141586 201.45200166629652,236.8942535941674 199.3443198090811,250.0039273182797 195.82204661136748,263.63670779316067 190.79203463239267,277.66683516666893 184.17226355663226,291.955473524456 175.893559976398,306.3515718268909 165.9012710287861,320.6929347830516 154.15686792597901,334.8075044108406 140.63945468360018,348.5148504617974 125.34715687550994,361.62786516918413 108.29836504829987,373.9546549322739 89.53280753605802,385.30061860543776 69.11242784465855,395.4706990476301 47.12204254105981,404.2717915391046 23.669756699951506,411.515289623181 -1.1128845628315673,417.01974591953126 -27.071028097684064,420.61362252177395 -54.026945686364115,422.13810277782886 -81.7807828066392,421.449933599504 -110.11163510590325,418.42426500204755 -138.7789612164982,412.9574513791006 -167.52433694193985,404.969777117758 -196.0735519359008,394.408067595632 -224.13904581286982,381.2481454189947 -251.42267620450298,365.49709099843113 -277.61880664762947,347.1952662535839 -302.4176974026376,326.4180604259545 -325.50917740347575,303.2773176890164 -346.5865705862727,277.92240750424446 -365.3508448904348,250.54090050119927 -381.5149473357933,221.35881507493764 -394.8082838168449,190.64040290397264 -404.9812976883594,158.68744519909018 -411.81009691537656,125.83803569275662 -415.10107559625726,92.46483115798998 -414.69547211188683,58.97275558382029 -410.4738030789266,25.796150002856592 -402.36010976061607,-6.604633672475387 -390.3259516833733,-37.74718964091019 -374.3940809864697,-67.13155366713852 -354.64173055637684,-94.2452171093372 -331.2034493229004,-118.56863184390556 -304.2734192704588,-139.58117045035027 -274.10719078726476,-156.76749796774192 -241.02277597175413,-169.6243034869458 -205.40104346420827,-177.6673319001223 -167.6853632868254,-180.4386483967658 -128.380456061053,-177.5140608839876 -88.0504078186143,-168.51061853157836 -47.31581941158274,-153.09409821547973 -6.850068223242573,-130.98638487347432 32.62533056209969,-101.9726468104684 70.34626551695908,-65.9082029121139 105.51246466410062,-22.724975655525554 137.29480490068806,27.562578149743246 164.8434625046466,84.85216769955112 187.29685941691753,148.94910785926135 203.79134705114762,219.56260445571814 213.47155629770626,296.30298810019553 215.50132931508838,378.67999453918696 209.07513580205307,466.102183076018 193.42986389040558,557.8775765813452 167.85686377050922,653.215597009325 131.71411084422755,751.2303591723281 84.43834478142581,850.9453728349602 25.55703152618358,951.2996890231899 -45.30001275351745,1051.1555108842463 -128.38950336799752,1149.3072725777756 -223.8442470011234,1244.492171651409 -331.6635554707801,1335.402121300255 -451.704690182395,1420.6970689981115 -583.6755131370074,1499.0196074086616 -727.1285171369616,1569.0107824488707 -881.4564022510349,1629.3269821153845 -1045.8893575678355,1678.6577684472538 -1219.4941967174407,1715.7444940507323 -1401.1754825391822,1739.3995242341107 -1589.6787606102139,1748.5258662842439 -1783.5960031483673,1742.1369890621766 -1981.3733441205077,1719.3765992091794 -2181.321163314532,1679.538125144857 -2381.626551797509,1622.083647013097 -2580.3681637464897,1546.6620000905966 -2775.5334303039735,1453.1257712091106 -2965.038080114143,1341.5469027345364 -3146.7478788131925,1212.2306168537734 -3318.5024662875544,1065.7273745817906 -3478.1411363215607,902.8425892269956 -3623.5303687072915,724.6438232220512 -3752.5928893903083,532.465210383102 -3863.3380002078934,327.908862906336 -3953.8928866968645,112.8430438060583 -4022.534580780515,-110.6030889446227 -4067.722225377016,-340.04833063094077 -4088.1292606026464,-572.8720007241436 -4082.675126773326,-806.2303292854223 -4050.556058335862,-1037.0767103531489 -3991.2745256758944,-1262.1858291575065 -3904.6668689268436,-1478.1816222669597 -3790.9286598947688,-1681.5689793424672 -3650.637325440357,-1868.769042505236 -3484.771568506169,-2036.1579049172078 -3294.7271317857517,-2180.10845459071 -3082.3284640915467,-2297.035053298026 -2849.835871021448,-2383.4406844028154 -2599.947759716026,-2435.9661481884004 -2335.7976224343547,-2451.440829552647 -2060.9454453730436,-2426.9345115476417 -1779.363277545035,-2359.8096599588503 -1495.4147494677668,-2247.7735597512387 -1213.8283926397492,-2088.9296445737123 -939.6646779703601,-1881.8273264180307 -678.2767640326084,-1625.5096047689672 -435.26502369836953,-1319.5577139290644 -216.42549975739178,-964.1320543865097 -27.69252578606418,-560.0086498027131 124.92416300335292,-108.61037605162204 235.40741385052033,387.9677767024126 297.80522914817755,926.9401231785192 306.30733037769016,1504.8190624309352 255.32502617589282,2117.4118505313522 139.57361024237287,2759.825942402311 -45.843568600539044,3426.4834107054535 -305.35030019753685,4111.144870798307 -642.8129786203011,4806.943251262745 -1061.4574116162964,5506.427649779883 -1563.7881012278933,6201.617404735736 -2151.5111676991824,6884.0663946032155 -2825.4621220485124,7544.937450733801 -3585.5397131788263,8175.086635733228 -4430.647082018971,8765.157000286046 -5358.641446922344,9305.681287467092 -6366.293520502452,9787.192906725679 -7449.257817500235,10200.344351473705 -8602.054955551941,10536.032086300993 -9818.066975429663,10785.526784144675 -11089.546614219962,10940.607652215365 -12407.64135395325,10993.699450169135 -13762.432939584345,10938.010677012468 -15142.992914370141,10767.67128667372 -16537.454558252273,10477.868188216651 -17933.10143674208,10064.976697450518 -19316.47257518905,9526.68603429917 -20673.48406761447,8862.116906760026 -21989.56671219599,8071.929189540457 -23249.819038929643,7158.417695303065 -24439.174861160835,6125.59405052289 -25542.584243987705,4979.252727706259 -26545.206541639942,3727.019352366895 -27432.61391567534,2378.3794976737668 -28191.003509248047,944.6863027677537 -28807.41622297123,-560.8545972280399 -29269.959818345425,-2123.2241604596666 -29568.033868762854,-3725.6541681057242 -29692.553889198654,-5349.7174782062975 -29636.171807360097,-6975.444922498509 -29393.48979474979,-8581.469175164884 -28961.264359216573,-10145.195608846743 -28338.59751441251,-11642.999818528295 -27527.111789267477,-13050.451140702971 -26531.105825063918,-14342.56112674772 -25357.687331588328,-15494.055549217732 -24016.880239507078,-16479.66813177403 -22521.702995534466,-17274.453801976 -20888.21510170537,-17854.118875847613 -19135.529201243706,-18195.365198893738 -17285.786261735113,-18276.24489528693 -15364.091701634607,-18076.522020662367 -13398.410648047955,-17578.03707989886 -11419.420901083324,-16765.070065067892 -9460.322611106647,-15624.697396078933 -7556.6041475118245,-14147.137913075801 -5745.7641480217835,-12326.082880871874 -4066.990282274536,-10159.004826996354 -2560.7958380422992,-7647.439951337466 -1268.6158377322458,-4797.238821640891 -232.36501102586334,-1618.7801095601703 506.03941979480425,1872.8577696466443 905.1865491210622,5657.772071120935 924.7079650871511,9711.162892200735 525.8364436399444,14003.316477370543 -328.0182966391069,18499.648626545037 -1670.6828133473005,23160.811695162072 -3532.6287089050275,27942.868117207257 -5940.3840215254095,32797.532751130224 -8915.954752578176,37672.48564659199 -12476.264422102173,42511.75606104913 -16632.61984904528,47256.17772444895 -21390.21157609961,51843.914463958274 -26747.657492516297,56211.0543659867 -32696.598244356086,60292.2696781847 -39221.3529532827,64021.53864904353 -46298.64358609328,67332.9244776635 -53897.396022528854,70161.40551260629 -61978.62545442583,72443.74980877826 -70495.41321209322,74119.42613807431 -79392.98145239598,75131.54256677379 -88608.87135729656,75427.80277467714 -98073.22958300474,74961.46941238135 -107709.20667149211,73692.32298882153 -117433.46999270013,71587.6040662299 -127156.83253383805,68622.92592886563 -136784.99750004476,64783.14439982723 -146219.4172484699,60063.171121038125 -155358.26355743557,54468.71639846937 -164097.50464745794,48016.94766027468 -172332.08273690447,40737.049691055116 -179957.1842490294,32670.67310088693 -186869.59310757084,23872.2579714356 -192969.11588510146,14409.220299985034 -198160.0659230467,4361.989740190675 -202352.79194711713,-6176.111781774698 -205465.23518003337,-17099.15971517271 -207424.49752866622,-28289.092454841004 -208168.40211933327,-39616.35881572062 -207647.02629733112,-50940.75153139676 -205824.18621896993,-62112.42885770506 -202678.85137011416,-72973.12416144446 -198206.466767363,-83357.54102729914 -192420.1602581787,-93094.92894261876 -185351.8122546975,-102010.8320420407 -177052.9654309448,-109929.00073715315 -167595.55240079382,-116673.45334823069 -157072.4201878225,-122070.67212578349 -145597.63140886853,-125951.91533179287 -133306.52352792912,-128155.62437861208 -120355.50930000997,-128529.902433933 -106921.60361561853,-126935.03843067857 -93201.66437178115,-123246.04810992778 -79411.33772641946,-117355.20161240599 -65783.7011268295,-109174.50525924392 -52567.60082237058,-98638.10356482526 -40025.68415421841,-85704.56624210649 -28432.130734099348,-70359.02403079475 -18070.09064775891,-52615.11663646823 -9228.842011089071,-32516.715946767705 -2200.6845265190254,-10139.388018882742 2722.409910746907,14408.441863247082 5252.364072031433,40984.65546142423 5108.749820284909,69412.97176747188 2022.695862275225,99482.87133705428 -4259.089614575396,130949.94213329337 -13970.22387029708,163536.6708298585 -27320.528302561837,196933.69958629212 -44491.9305200424,230801.5638587872 -65634.44245610487,264772.92186848936 -90862.26976446765,298455.2809452052 -120250.10980892033,331434.2201333593 -153829.69705546752,363277.1022331135 -191586.65554029,393537.2619044334 -233457.7182676473,421758.6496447459 -279328.37284021114,447480.90442829835 -329030.9912981558,470244.820641051 -382343.500007225,489598.16773899033 -438988.64246231545,505101.81388641807 -498633.8840427349,516336.09778555855 -560892.0030585852,522907.38608579885 -625322.4068648075,524454.7472597901 -691433.2054020087,520656.6667570416 -758684.0672733235,511237.7226973836 -826489.8754190629,495975.13645129657 -894225.1906523674,474705.1082751443 -961229.5218285879,447328.84482801025 -1026813.3913104873,413818.1829909003 -1090265.1737448652,374220.7130310918 -1150858.6750802873,328664.3038903255 -1207861.4073388358,277360.9343032866 -1260543.50302715,220609.7356407209 -1308187.2013637722,158799.15587666052 -1350096.8268514776,92408.1589463193 -1385609.1692836934,22006.38002088109 -1414104.1631995207,-51746.83510696954 -1435015.7542545502,-128104.56925838352 -1447842.8301212853,-206235.70399338607 -1452160.0845423015,-285229.56108063227 -1447628.6752011909,-364101.8426584772 -1434006.5293190104,-441801.88310734835 -1411158.1454916606,-517221.21020520624 -1379063.7364150828,-589203.3966851549 -1337827.5549506352,-656555.1659944161 -1287685.2456015174,-718058.6980243799 -1229010.0650294828,-772485.0620187465 -1162317.8188491422,-818608.6849665997 -1088270.3676880128,-855222.7447616354 -1007677.5634655234,-881155.358486246 -921497.4870730105,-895286.417601974 -830834.8711536842,-896564.9038502886 -736937.606483928,-884026.5025533633 -641191.2475143461,-856811.3140244214 -545111.4518793682,-814181.449225984 -450334.3100353616,-755538.2829275442 -358604.5445142908,-680439.1266850315 -271761.5834251246,-588613.0752600024 -191723.53960734035,-479975.77387396334 -120469.1550160137,-354642.8501963543 -60017.799239577704,-212941.75441954704 -12407.641231363648,-55421.75338508048 20327.855943364983,117138.169328672 36184.93662799466,303723.74601682805 33215.83890765317,503082.41578490933 9556.124132652192,713723.0827305554 -36547.22117221871,933918.8298598521 -106707.20958573041,1161712.7530867197 -202368.12774367793,1394927.0518611602 -324777.0100704214,1631175.4816088318 -474955.6802577886,1867879.2383924883 -653673.747135167,2102286.3082285007 -861422.9556242243,2331494.272568426 -1098393.30347809,2552476.517896584 -1364451.3400732123,2762111.7515661553 -1659121.0642857745,2957216.6783161964 -1981567.834112413,3134581.642849551 -2330585.6908972925,3291008.9939244576 -2704588.485562953,3423353.8751838943 -3101605.172923835,3528567.098021565 -3519279.6128617898,3603739.7028024825 -3954875.183801495,3646148.7673925417 -4405284.47455092,3653303.976902985 -4867044.275253075,3622994.4265369303 -5336356.037096328,3553335.09116261 -5809111.913800292,3442812.3614591016 -6280926.436066071,3290328.0179050723 -6747173.80357518,3095240.9912141347 -7203030.708249592,2857406.2417392884 -7643524.527941174,2577210.0815144493 -8063586.6521844305,2255601.2615678012 -8458110.621886563,1894117.1544664025 -8822014.68368542,1494904.378202202 -9150308.278096749,1060733.2328975673 -9438161.899482138,595005.3566939133 -9680979.686338771,101754.051795903 -9874474.023539806,-414363.2139310931 -10014741.365070183,-948080.5601872706 -10098338.417672945,-1493548.058784816 -10122357.763823155,-2044364.982746581 -10084501.94776321,-2593622.12094848 -9983155.002135418,-3133953.2386266305 -9817450.356176721,-3657595.655657521 -9587334.040597668,-4156459.799194672 -9293622.090193147,-4622207.465980316 -8938051.043887958,-5046338.403555763 -8523320.454177223,-5420284.689914972 -8053126.344537589,-5735512.259255476 -7532184.59499066,-5983628.788871669 -6966243.293081794,-6156497.030509053 -6362083.160422657,-6246352.540353 -5727505.253784654,-6245924.63703992 -5071305.244487794,-6148559.298498018 -4403233.70026821,-5948342.597939661 -3733941.9294787045,-5640223.178853437 -3074913.0977141936,-5220132.180303193 -2438378.4908631123,-4685098.949132589 -1837218.9750452796,-4033360.8166554915 -1284851.8915485633,-3264465.1758655417 -795103.8221414846,-2379362.0728154466 -382069.86520007416,-1380485.524153354 -59960.27392218207,-271821.79327429924 157064.47772917472,941037.0986274054 255068.92023784254,2250856.2821120685 220526.60981391228,3648738.931793167 40511.240943641795,5124126.584464029 -297107.05713776563,6664820.181155687 -803462.3397920348,8257022.960391102 -1488492.6610472118,9885406.133597989 -2360741.524113381,11533198.052611863 -3427163.5534200524,13182297.33453603 -4692937.094050862,14813410.142386878 -6161286.539685815,16406211.532774283 -7833317.256934303,17939530.47656239 -9707866.009515446,19391557.83760348 -11781369.787585199,20740076.261193465 -14047755.913339699,21962710.581162415 -16498356.22185508,23037197.006131575 -19121848.00430726,23941668.99539185 -21904224.247990366,24654957.3873362 -24828795.51307415,25156902.002894342 -27876225.54943801,25428671.61768937 -31024602.478309494,25453088.884533506 -34249547.04347779,25214956.497401208 -37524359.07674628,24701380.62422752 -40820202.92384342,23902087.403841745 -44106332.142596714,22809728.10707949 -47350353.31780212,21420168.40850989 -50518528.34048425,19732757.107967645 -53576113.977372,17750569.584639452 -56487737.01419643,15480621.264913706 -59217802.69925647,12934046.442269135 -61730933.64751224,10126237.906360824 -63992435.79669947,7076943.02182412 -65968787.442508325,3810312.1471953685 -67628146.82706495,354895.60209196585 -68940873.22142303,-3256414.223009224 -69880055.93647397,-6986498.565620733 -70422045.22572026,-10794188.228359006 -70546978.6159639,-14634501.597213209 -70239295.82636592,-18458945.93487895 -69488235.12069608,-22215882.435769834 -68288303.68982613,-25850954.76859084 -66639714.489284806,-29307580.024086524 -64548781.86717007,-32527500.136632327 -62028268.31756746,-35451390.96655787 -59097674.78983186,-38019525.32424053 -55783467.179873966,-40172485.296762094 -52119231.93022994,-41851918.31372886 -48145754.0744823,-43001330.471992366 -43911011.58070392,-43566909.74133864 -39470080.478926264,-43498370.80720116 -34884945.99881972,-42749812.48499588 -30224215.79400774,-41280577.87697076 -25562732.285451107,-39056106.74988131 -20981082.21332114,-36048769.00371983 -16565002.638355324,-32238667.591377832 -12404683.87185056,-27614398.849381994 -8593971.128610078,-22173757.923115574 -5229468.078106874,-15924376.827886691 -2409546.9030915205,-8884282.690626666 -233270.94756596402,-1082363.8755907852 1200762.4682560386,7441267.98038269 1795649.986745411,16635031.504783303 1457470.3368611527,26435755.511686344 96620.61721430125,36768695.2746973 -2370812.693598944,47547694.08733454 -6021662.7639150005,58675497.838951826 -10924287.47604153,70044228.94857468 -17137187.658533577,81536024.44158797 -24707656.59322683,93023841.23294406 -33670479.73164534,104372429.80592392 -44046704.20022553,115439475.46046811 -55842498.11830699,126076904.1654549 -69048119.97803707,136132347.803222 -83637018.32376666,145450761.26297936 -99565081.70445241,153876181.4457946 -116770058.34239846,161253615.813153 -135171164.15416157,167431045.67151368 -154668896.666048,172261526.9665002 -175145070.98183957,175605368.99391973 -196463092.2818875,177332369.15360582 -218468477.3617334,177324079.71023154 -240989635.45986634,175476080.5176161 -263838916.08699283,171700229.84499106 -286813928.76610446,165926863.85045138 -309699136.54082507,158106913.91333875 -332267721.83025813,148213909.99753305 -354283719.72743607,136245837.5041857 -375504410.1852308,122226814.7160341 -395682956.7422497,106208557.96447676 -414571275.5495749,88271602.09044972 -431923114.5090546,68526244.6429427 -447497318.3703557,47113183.582817234 -461061251.7055964,24203820.04819961 -472394347.83825517,200.00000057851648" stroke="white" stroke-width="1.5" /></svg>