<?xml version="1.0" encoding="utf-8" ?>
<svg baseProfile="full" height="400" version="1.1" width="400" xmlns="http://www.w3.org/2000/svg" xmlns:ev="http://www.w3.org/2001/xml-events" xmlns:xlink="http://www.w3.org/1999/xlink"><defs /><rect fill="black" height="100%" width="100%" x="0" y="0" /><circle cx="200" cy="200" fill="yellow" r="10.0001669824915" stroke="orange" stroke-width="2" /><polyline fill="none" points="199.79540235421808,200.0 199.7253747250078,199.98558342757357 199.65287349462255,199.96345417644199 199.57859540126765,199.93314278397244 199.50330465029222,199.89424261552875 199.427827882985,199.846418883428 199.35304803026264,199.78941736798956 199.27989705298077,199.72307271196289 199.20934758456372,199.64731615629694 199.14240350635268,199.56218258331236 199.08008950138557,199.46781673297355 199.02343964808884,199.36447845923917 198.9734851314225,199.25254689649324 198.93124116518976,199.13252341089913 198.89769323531073,199.00503321824328 198.87378278965926,198.87082555848025 198.86039251535664,198.73077232778127 198.85833135898307,198.5858650814228 198.8683194587755,198.43721033530105 198.890973170297,198.28602311017582 198.9267903780526,198.13361868085084 198.9761362948587,197.98140251228438 199.03922995821816,197.83085838595878 199.11613163829574,197.6835347425609 199.2067313751169,197.5410292909438 199.31073886313877,197.4049719582407 199.42767489918774,197.27700628163672 199.55686460477327,197.15876936840556 199.69743262584305,197.0518705770927 199.84830050204218,196.9578690988568 200.00818638341002,196.87825064363628 200.17560725515966,196.8144034606319 200.3488838107394,196.76759394623022 200.52614808981656,196.73894211455672 200.70535397123635,196.72939722596865 200.88429058151857,196.7397138865884 201.060598647238,196.77042894706832 201.23178978490535,196.82183954079207 201.39526868499033,196.89398261030513 201.54835810781756,196.9866162755904 201.68832656856878,197.09920339854867 201.81241854694673,197.2308976944318 201.91788701462832,197.38053273275523 202.0020280309415,197.54661415718437 202.06221711475027,197.72731543588395 202.0959470588731,197.92047743073238 202.1008668130605,198.12361204557996 202.074821023212,198.33391018038103 202.01588977872726,198.54825417962144 201.9224280872796,198.76323492014046 201.79310456748797,198.97517363541206 201.62693882556206,199.18014852089487 201.42333696259968,199.37402610853093 201.18212464540554,199.55249733830823 200.90357716602037,199.71111819150164 200.5884459141046,199.84535468434893 200.23798069237094,199.95063195315427 199.85394731880353,200.02238709285075 199.43863998077032,200.0561253416804 198.9948878355916,200.04747913569346 198.52605538984318,199.9922694891199 198.03603623573153,199.88656909125046 197.52923977727036,199.72676644824648 197.01057064158806,199.50963034026694 196.48540054128108,199.2323738114571 195.95953243195152,198.89271686369267 195.43915689446908,198.4889469855108 194.9308007634944,198.0199766163581 194.44126812169264,197.485396624078 193.9775738820266,196.88552486133779 193.54687028760884,196.2214488652716 193.15636676875621,195.49506177473847 192.8132437089611,194.70909056190473 192.5245607842091,193.86711570990227 192.29716065206873,192.97358151649973 192.13756887681865,192.03379626533814 192.05189108304643,191.05392158145446 192.04570843108743,190.04095037652195 192.1239726017631,189.0026728912773 192.2909015634983,187.9476304576017 192.54987747041497,186.88505673011915 192.90334810379525,185.82480627621106 193.35273331980721,184.7772705630718 193.8983380020668,183.75328153970352 194.53927303703847,182.76400317921983 195.27338583212088,181.82081152097066 196.09720187932302,180.93516393109002 197.00587883066532,180.1184584822082 197.99317449396372,179.38188453620177 199.05143007880673,178.7362657957622 200.17156992186074,178.19189726890536 201.34311879792998,177.7583777628593 202.55423777850623,177.44443968751278 203.79177943319436,177.25777810116537 205.04136298201513,177.20488107005113 206.28746979908712,177.29086353535214 207.51355944180762,177.5193069845587 208.70220613594455,177.89210730549854 209.83525538788206,178.4093332586906 210.89400012282633,179.0690980345427 211.85937546457382,179.86744636415727 212.71217098127022,180.79825962418224 213.43325892554006,181.85318131555795 214.00383669979377,183.02156520175268 214.40568148202593,184.29044826306708 214.62141465781764,185.64455045910302 214.63477342454584,187.06630309119822 214.43088666812582,188.5359073206241 213.99655196521346,190.03142412717025 213.32051033897415,191.52889668741534 212.39371519859398,193.00250581401977 211.2095917259297,194.4247587287899 209.76428284122733,195.76671104558955 208.05687778768686,196.99822141746742 206.08961932559055,198.08823785919455 203.86808552424128,199.0051142958446 201.401342187229,199.71695541465877 198.70206204629602,200.19198741625576 195.78660701358368,200.39895177772917 192.67506999305894,200.30751866018656 189.39127302059578,199.88871612302836 185.96271882904557,199.11537085324517 182.42049331950284,197.9625556869624 178.79911686195268,196.40803879928316 175.1363428459052,194.432729074165 171.47290245199872,192.0211118456117 167.85219521559634,189.16166893179758 164.31992559895792,185.84727667161567 160.92368647467822,182.07557552505511 157.7124911438988,177.8493047208893 154.73625626170585,173.17659543306735 152.04523881166818,168.07121604605246 149.68943105346335,162.55276323357805 147.71791815309095,156.64679282857335 146.17820398474592,150.38488480715668 145.1155113569214,143.80463714846604 144.5720636521555,136.94958386550826 144.58635556908064,129.86903312985584 145.19242130585502,122.61782213341135 146.41910911429753,115.25598614083493 148.2893716727316,107.84834008253914 150.81958216142843,100.46397201500812 154.01888626665635,93.17564882582145 157.88860057715223,86.0591356770421 162.42166796039135,79.19243185306196 167.60218050615444,72.65492689677127 173.40498049330304,66.52648216890276 179.79534956519348,60.88644423627869 186.72879588385157,55.812597770954596 194.15094846835524,51.38006690841945 201.99756720585418,47.66017525261978 210.19467615301107,44.719275911449586 218.6588267219216,42.61756408066444 227.29749617023367,41.407885748711465 236.0096254947759,41.134557051246105 244.68629936815447,41.8322096436608 253.21156916730416,43.52467816451434 261.4634184329378,46.2239464145095 269.3148682824718,49.929169257535335 276.6352183918069,54.625787446125855 283.29141718094377,60.284752568593404 289.1495528045516,66.86187909569097 294.07645448300593,74.29734005929542 297.94139163563534,82.51532221470538 300.6178562212224,91.42385561440449 301.9854116779185,100.91483134977048 301.93158991363015,110.8642197962036 300.3538159575695,121.13250002747525 297.16133817368586,131.56530915083124 292.2771403870927,141.99431816302018 285.6398109154205,152.23833854977138 277.20534235789984,162.10466126178613 266.9488351048277,171.3906269170375 254.86607691665466,179.88542312373997 240.97497061139018,187.3721017159903 225.31678191553345,193.62980547354456 207.9571798989778,198.43619059062706 188.98704314712938,201.5700278014434 168.52300593932696,202.81396170055362 146.7077202133025,201.95740445555327 123.7098110085839,198.79953684108523 99.72350540048723,193.15238637257923 74.96791765907678,184.84394933235234 49.685976487317845,173.72132070800023 24.142983697417492,159.65379355211812 -1.3752024437879697,142.53588707208363 -26.56436175415189,122.29026091708296 -51.1044825845328,98.87047169369939 -74.66270139216294,72.26352675624085 -96.89659960926059,42.492189826003255 -117.45784074045093,9.616993033998199 -135.99612524755162,-26.262089410569303 -152.16343532442357,-65.00434951807142 -165.61853619046576,-106.4274775459055 -176.0316951056783,-150.30715704849905 -183.08957400389073,-196.37715911808527 -186.50024652769747,-244.3299682006828 -185.99828540541552,-293.81796743176255 -181.34986161534312,-344.45520635127343 -172.35779271494266,-395.8197681480726 -158.86647415156136,-447.4567472785624 -140.766624395157,-498.8818414420289 -117.99977241842095,-549.5855545238867 -90.56241446874333,-599.0379992953028 -58.5097662985001,-646.694280450746 -21.959037108642065,-692.0004300500245 18.907847527617605,-734.3998586938874 63.84214450972928,-773.3402768958679 112.52688157450726,-808.2810322195636 164.57619889057185,-838.7007989386761 219.53550248802597,-864.1055483620967 276.8824819534068,-884.0367196684074 336.02903757861077,-898.0795032378235 396.32415386394604,-905.8711411822505 457.05774697271136,-907.1091431844554 517.4655034654938,-901.5593099940522 576.7347164698483,-889.0634521182626 634.0111134434396,-869.5466875127429 688.4066569603976,-843.0241995409415 739.0082866006578,-809.6073352410118 784.8875561750623,-769.5089241201174 825.1111063138862,-723.0476993793411 858.7518980359742,-670.6517067379444 884.9011184653091,-612.8605909387915 902.6806555487359,-550.3266566266683 911.2560246399429,-483.81460862930726 909.8496163463955,-414.1998867492548 897.7541222901808,-342.4655219845273 874.3459836175589,-269.69745460619936 839.0986964146753,-197.07826967772888 791.5957988575615,-125.8793223253831 731.543357149422,-57.451243258796524 658.7817612782698,6.787165432796286 573.2966375555342,65.36161347310906 475.2286829524832,116.7565321294421 364.8822266029246,159.4307355132364 242.7323266370204,191.834435388933 109.43021588110929,212.42748800883612 -34.193081992220925,219.69872801315012 -187.1251334716253,212.18622118619857 -348.17262736317275,188.49824514666244 -515.9641956417496,147.33478518985305 -688.9556412875913,87.50931182267603 -865.4376693797312,7.970587373418937 -1043.5461930279407,-92.17576824112126 -1221.2752584904197,-213.64623760967737 -1396.4926042145914,-356.9591893675573 -1566.9578367620654,-522.4157924781715 -1730.3431728863382,-710.082375084153 -1884.2566617140342,-919.7745448271219 -2026.2677643678635,-1151.0433868691048 -2153.9351308306154,-1403.1640512045315 -2264.8363757899783,-1675.127032021491 -2356.5996170611766,-1965.6324286829313 -2426.9365024289446,-2273.0874602265526 -2473.6764138762105,-2595.6074830442444 -2494.8015026928983,-2931.020734569919 -2488.482175419206,-3276.8769944044225 -2453.112619520267,-3630.460318422236 -2387.345929666032,-3988.8059611833905 -2290.128371053485,-4348.721557625378 -2160.7322959016606,-4706.812586808654 -1998.7872136031583,-5059.512088777773 -1804.3085045354076,-5403.11455078644 -1577.723262697249,-5733.813821692441 -1319.8927535794926,-6047.744853796978 -1032.1309813943835,-6341.029010382257 -716.2188743147674,-6609.822615351156 -374.41361798591936,-6850.368359407522 -9.452696476154813,-7059.049115897587 375.447763844145,-7232.4436595689285 776.6007082166483,-7367.383723935873 1189.8622347146202,-7461.011778537984 1610.652293790328,-7510.838857031248 2033.982191642465,-7514.801721657869 2454.489010668637,-7471.318610095387 2866.4769817938786,-7379.342777874263 3263.9657593036272,-7238.413024334133 3640.745459623049,-7048.700373283683 3990.4382320493764,-6811.050071912298 4306.56603263554,-6527.018073781474 4582.624173221569,-6198.901184536018 4812.160117088678,-5829.760072865873 4988.856892031146,-5423.434384662254 5106.620392045437,-4984.549245579367 5159.669741636301,-4518.512496541073 5142.629803304593,-4031.5020781892863 5050.62482052673,-3530.4430637822843 4879.372106905483,-3022.9739353846917 4625.274618625292,-2517.401804951681 4285.511183338764,-2022.6463995368022 3858.123105580398,-1548.1727576087512 3342.095828142379,-1103.912720437512 2737.4343018913214,-700.1754476179552 2045.2307045059065,-347.5473377783692 1267.723152725503,-56.78189294272909 408.3440739465355,161.31977371529933 -528.2430577303772,296.036923620048 -1536.1198578946944,336.86464536012267 -2608.103200277514,273.6555856267563 -3735.7504799984545,96.76661226111234 -4909.380917761243,-202.7910884949742 -6118.113714984807,-633.2001216184736 -7349.923714499043,-1201.6849732140029 -8591.715047524925,-1914.3619732828647 -9829.413056123522,-2776.093127515163 -11048.074572337484,-3790.3458999694963 -12232.016412350646,-4959.061094051817 -13364.961707926468,-6282.53102243272 -14430.203450212026,-7759.290175417015 -15410.784365039015,-9386.020589937165 -16289.691976716102,-11157.47408611704 -17050.06745183155,-13066.413473815846 -17675.426548852935,-15103.574736553928 -18149.890736610323,-17257.65207388438 -18458.42628854997,-19515.307525078977 -18587.088913571428,-21861.20670677934 -18523.271252052768,-24278.081975247653 -18255.950351139603,-26746.8240706648 -17775.93204038127,-29246.603017632176 -17076.088961183257,-31755.01874414622 -16151.588865092568,-34248.28154279166 -15000.10969031986,-36701.42213517389 -13622.03785664176,-39088.530716572146 -12020.64618921349,-41383.02395579196 -10202.24789488171,-43557.93850902815 -8176.323073015619,-45586.249180447994 -5955.614348981043,-47441.2094308005 -3556.188374042602,-49096.711503665545 -997.4601420753802,-50527.66301233127 1697.8226681604367,-51710.376414369326 4503.637806023673,-52622.96740165995 7390.79113606335,-53245.757856990305 10327.065605272539,-53561.678680596175 13277.417735114957,-53556.66747742341 16204.222374981911,-53220.05582467337 19067.565902625178,-52544.940615529915 21825.587466775545,-51528.53380479775 24434.86724231633,-50172.484771220756 26850.860014499332,-48483.16946484298 29028.371731954332,-46471.940530815984 30922.075975541524,-44155.33269791781 32487.06658898009,-41555.21789447058 33679.44201580782,-38698.90480934327 34456.91619429928,-35619.17795353572 34779.45018667931,-32354.271699804438 34609.898070892355,-28947.775284289266 33914.66001221548,-25448.465344503005 32664.33486821954,-21910.063240625812 30834.364174159196,-18390.915158936365 28405.658916952714,-14953.593823376033 25365.200144480645,-11664.421538431723 21706.604182667616,-8592.915247263218 17430.64305496962,-5811.155305601287 12545.710626139984,-3393.080735497138 7068.225032431816,-1413.7148234256135 1022.958120777331,51.6739466878912 -5556.717093963183,928.4694955128678 -12628.669527022397,1143.657015925832 -20141.95169815344,626.8147112635751 -28036.847314639333,-688.8610870890916 -36245.03126874383,-2865.507965848333 -44689.847592872866,-5959.5381738636415 -53286.70981969899,-10020.580512172892 -61943.62696976038,-15090.436638597846 -70561.85704218956,-21202.065765686966 -79036.68842383599,-28378.61231480304 -87258.3480686875,-36632.49153112416 -95113.03364571245,-45964.54834926662 -102484.06512356127,-56363.304913086795 -109253.14947142075,-67804.31208310521 -115301.75032497021,-80249.61999946629 -120512.55261486603,-93647.38229762104 -124771.01030410004,-107931.60789011607 -127966.96355297728,-123022.07332521645 -129996.30985066594,-138824.40760816354 -130762.71194562998,-155230.36002278407 -130179.32379987654,-172118.25992173684 -128170.51431049801,-189353.67566761706 -124673.56721332867,-206790.27791215124 -119640.33443440424,-224270.9102076401 -113038.81921167107,-241628.8675676082 -104854.66459751793,-258689.38104963987 -95092.5224965972,-275271.3037430063 -83777.27821582303,-291188.99073062546 -70955.10562527871,-306254.3626859222 -56694.32846856376,-320279.1397900524 -41086.06413467393,-333077.2296462613 -24244.627323585515,-344467.24986108526 -6307.672513574129,-354275.16299420036 12563.944024598813,-362336.9986894753 32186.599721799368,-368501.635030446 52354.653208892414,-372633.6085565024 72841.515404369,-374615.91997480305 93401.05252616518,-374352.8004510271 113769.32579116947,-371772.4015029971 133666.6686960031,-366829.36999766855 152800.0986324159,-359507.2686054352 170866.05521349088,-349820.8013356958 187553.45311135,-337817.80350106553 202547.03247685556,-323580.9556683779 215530.9851753979,-307229.1818827254 226192.83018327446,-288918.6937217713 234227.50660368727,-268843.64357203565 239341.64794107046,-247236.35293174628 241257.99658161547,-224367.08454477714 239719.91293351515,-200543.33075935024 234495.92945172192,-176108.59467816987 225384.29587922024,-151440.64541084057 212217.45855094315,-126949.23403394462 194866.4135981248,-103073.26268006844 173244.87142944662,-80277.40547689862 147313.16801809295,-59048.18679533929 117081.85735489453,-39889.52938693688 82614.9189970427,-23317.792432825383 44032.5150042454,-9856.327217836568 1513.2317582617698,-29.586005383715616 -44704.2557511294,5643.172365164955 -94320.15658729261,6654.528699852086 -146973.2289449739,2515.8422028143245 -202241.18821777694,-7235.585142744356 -259641.9027721116,-23029.192761872066 -318635.41534153465,-45253.775299271 -378626.8202247859,-74250.11342101703 -438970.01784698444,-110303.71461925934 -498972.358773875,-153637.76190026937 -557900.1790148125,-204406.37221248305 -614985.2174863911,-262688.2694468625 -669431.8949241482,-328480.9787129456 -720425.4214271582,-401695.6492632179 -767140.6873152645,-482152.6128168187 -808751.8792001451,-569577.782042828 -844442.7502596639,-663599.9905361092 -873417.4608119228,-763749.3707015878 -894911.8925727014,-869456.8595172454 -908205.327617837,-980054.9141498657 -912632.3712376986,-1094779.5098462421 -907594.986746927,-1212773.4814308714 -892574.5000850438,-1333091.2571439978 -867143.4228994992,-1454705.0195069904 -830976.934928687,-1576512.312483183 -783863.860081453,-1697345.097511513 -725716.9658186807,-1815980.2431497725 -656582.4124506178,-1931151.4142192071 -576648.1779283705,-2041562.306659717 -486251.28477328405,-2145901.1539736395 -385883.6590812902,-2242856.4103656504 -276196.4571689877,-2331133.494705838 -158002.70348056982,-2409472.458499033 -32278.093911932574,-2476666.420399393 99840.1682343086,-2531580.589741941 237056.6208652951,-2573171.6823602067 377922.9754025193,-2600507.513918478 520845.81136089226,-2612786.5394107173 664096.5889058542,-2609357.0926698013 805824.0099831297,-2589736.0669936854 944068.7314449945,-2553626.7676259633 1076780.404563224,-2500935.659115293 1201836.9846593444,-2431787.7257945696 1317066.2225696302,-2346540.16202268 1420269.2166032267,-2245794.1106524277 1509245.869887897,-2130404.173633773 1581822.0639020735,-2001485.427907268 1635878.3249662085,-1860417.6929280367 1669379.7269385688,-1708846.8133853476 1680406.7407812295,-1548682.7420033754 1667186.7105000215,-1382094.232734259 1628125.6056998023,-1211499.984143358 1561839.6741252455,-1039556.1062443678 1467186.5935717663,-869139.8213182181 1343295.701942648,-703329.3501362824 1189596.8674796806,-545379.9792388487 1005847.5487725646,-398696.3521676538 792157.5865009984,-266801.077430852 549011.2663977913,-153299.79804598275 277286.1960193486,-61842.92126006559 -21731.45309452094,3915.738069867806 -346335.7711129223,40363.091544623945 -694394.41511783,43973.32457070008 -1063346.7773296644,11356.438369252986 -1450207.3650602736,-60691.684863250855 -1851574.699624854,-175138.21572090307 -2263645.99337118,-334661.8798209439 -2682237.8094675224,-541601.64160025 -3102812.8483768357,-797906.2216213921 -3520512.938374447,-1105085.132675409 -3930198.23547533,-1464161.947019298 -4326492.561257678,-1875630.527088621 -4703834.725931292,-2339414.964258863 -5056535.599325747,-2854833.974020571 -5378840.605081468,-3420570.4906704063 -5664997.224122058,-4034647.189762398 -5909327.003456041,-4694408.641652694 -6106301.476566004,-5396510.764143967 -6250621.313226128,-6136918.196234361 -6337297.930736443,-6910910.158157362 -6361736.716514335,-7713095.29524607 -6319820.935016503,-8537435.924784387 -6207995.321374531,-9377282.016174681 -6023348.301221238,-10225415.135862688 -5763691.722258452,-11074102.480070341 -5427636.93944464,-11915161.001210757 -5014666.063489509,-12740031.508764256 -4525197.162805709,-13539862.493404418 -3960642.203271834,-14305603.285463993 -3323456.519102073,-15028106.01674841 -2617178.632668624,-15698235.709714005 -1846459.282026033,-16306987.67174087 -1017078.5727267929,-16845611.226376552 -135950.24571029714,-17305738.669852234 788887.8541808776,-17679518.2018138 1748297.9141286868,-17959749.44608774 2732081.570999945,-18140020.052482367 3729035.14326011,-18214841.756224494 4727021.048572453,-18179784.16976782 5713055.602015181,-18031604.494489767 6673413.199102346,-17768371.269282896 7593746.684220334,-17389580.221246988 8459223.490361713,-16896260.252486974 9254676.912078308,-16291067.58819769 9964771.642552309,-15578366.12637093 10574182.469999524,-14764292.070014443 11067784.79089111,-13856800.989920339 11430855.360532891,-12865695.560712952 11649281.468369659,-11802632.335802807 11709776.499144519,-10681106.078341942 11600099.625015644,-9516410.345341766 11309277.171286976,-8325573.230451417 10827823.012974888,-7127267.406812929 10147955.194453226,-5941693.873808289 9263805.823319266,-4790439.098915704 8171621.175756423,-3696305.5563886235 6869948.867275767,-2683115.995748909 5359808.8928789105,-1775492.1224162849 3644845.3272621385,-998608.7370412849 1731455.5012867113,-377924.7557384631 -371106.46213502355,61107.08348116494 -2650654.7594073587,293349.63646915177 -5092028.516579752,294307.3143531858 -7677082.549526817,40465.63540430608 -10384714.677628046,-490358.95511344436 -13190931.700892875,-1318662.6701270891 -16068955.810856571,-2462895.3723273994 -18989372.821184024,-3939103.2740460546 -21920323.17654469,-5760577.914536888 -24827736.230403565,-7937516.212008961 -27675607.777010404,-10476696.571623908 -30426320.28384707,-13381176.164892597 -33041004.702558238,-16650014.575491631 -35479942.14405963,-20278029.026820842 -37703003.09283805,-24255586.363410734 -39670121.212815374,-28568436.84786344 -41341798.16945661,-33197594.65421404 -42679635.26756883,-38119269.68500717 -43646887.08937913,-43304855.01124372 -44209031.72134607,-48720973.83076801 -44334351.58942817,-54329589.36160602 -43994518.390107095,-60088180.533130325 -43165175.11740193,-65949985.71161516 -41826507.7535064,-71864316.0006705 -39963798.82157554,-77776938.89521557 -37567954.70240565,-83630532.24511309 -34635998.40084982,-89365207.60753246 -31171519.32087766,-94919101.14278504 -27185071.577769466,-100229029.24511996 -22694512.448866755,-105231205.10714784 -17725272.7466097,-109862011.40457515 -12310551.194318542,-114058823.268041 -6491425.30030877,-117760874.69326113 -316871.76222448825,-120910160.54228732 6156309.9076218,-123452365.32107815 12863676.063587409,-125337808.99582781 19733424.53975826,-126522399.24713539 26686790.7991336,-126968578.77178414 33638557.08949758,-126646255.54146858 40497675.83602744,-125533703.33088952 47168007.16176066,-123618419.34861813 53549168.9998203,-120897925.45683889 59537496.757566065,-117380499.26369385 65027107.92621092,-113085821.32665358 69911065.41520163,-108045524.82827562 74082631.74565595,-102303634.38651912 77436604.57986234,-95916881.14879346 79870722.41396473,-88954881.99833797 81287127.63962534,-81500171.57802002 81593872.60962357,-73648076.91227515 80706452.84508725,-65506425.6828655 78549350.12173826,-57195080.68567808 75057566.89329588,-48845294.659010835 70178132.37578921,-40598881.520608164 63871559.651077725,-32607202.070678037 56113232.37439514,-25029964.397481173 46894699.11200796,-18033841.544618856 36224853.01211243,-11790911.445341282 24130974.445064798,-6476926.677118003 10659614.455511397,-2269424.214265755 -4122702.6348509877,654311.9697033213 -20128978.336529188,2119419.905303776 -37251460.5642652,1955742.0109979063 -55361603.990791954,200.00000006779865" stroke="white" stroke-width="1.5" /></svg>