<?xml version="1.0" encoding="utf-8" ?>
<svg baseProfile="full" height="400" version="1.1" width="400" xmlns="http://www.w3.org/2000/svg" xmlns:ev="http://www.w3.org/2001/xml-events" xmlns:xlink="http://www.w3.org/1999/xlink"><defs /><rect fill="black" height="100%" width="100%" x="0" y="0" /><circle cx="200" cy="200" fill="yellow" r="10.000000000054289" stroke="orange" stroke-width="2" /><polyline fill="none" points="201.6296589342328,200.0 201.64942517442176,200.08658728694832 201.6595530359552,200.17471939335553 201.65958584887713,200.26329871564866 201.64917231642585,200.351145125136 201.62807828450275,200.43700500839688 201.5961978533766,200.51956182359248 201.55356364970694,200.5974481427791 201.50035607524347,200.66925912981384 201.43691134900251,200.73356738220076 201.3637281624738,200.78893904345526 201.28147277259325,200.83395107049728 201.19098236492758,200.86720951847542 201.0932665298279,200.88736868354556 200.9895067072684,200.8931509227697 200.8810534717078,200.8833669497589 200.76942154658113,200.85693638527454 200.65628245889584,200.81290832403667 200.54345476778542,200.75048166279103 200.4328918266412,200.66902492057426 200.32666706644034,200.5680952704088 200.2269568179139,200.44745649265664 200.13602072201772,200.3070955542633 200.05617981150405,200.14723751540066 199.98979238093006,199.96835846582746 199.93922779783145,199.77119619785182 199.90683844365392,199.5567583312993 199.89493000895413,199.32632761851906 199.90573040291716,199.08146417431854 199.94135757191543,198.82400439687862 200.00378655517102,198.55605637118848 200.09481613707192,198.27999157632826 200.21603548481863,197.99843275193288 200.36879118631873,197.7142378172541 200.5541551260864,197.43047977819543 200.77289365582712,197.1504226032693 201.02543853089807,196.87749309828607 201.31186009345677,196.61524886134896 201.63184318739576,196.36734245394362 201.98466628870028,196.13748198006755 202.36918432729135,195.9293883228738 202.78381566241362,195.74674934658296 203.22653365293965,195.59317142976903 203.6948632363993,195.47212875383215 204.1858828959865,195.38691082676908 204.69623235321006,195.34056877644804 205.22212627528177,195.33586099866824 205.75937423091727,195.37519879249518 206.30340706618662,195.46059265786917 206.84930980372584,195.59359996743757 207.3918610944358,195.77527475513475 207.92557917127866,196.0061203874137 208.44477417057024,196.28604589845386 208.94360659799025,196.61432677740038 209.41615162522345,196.98957099306773 209.85646880962972,197.4096910289717 210.25867673463483,197.87188267852736 210.61703197373592,198.3726113163522 210.92601168729777,198.90760631653959 211.18039906991922,199.47186423232665 211.37537077836203,200.05966128371531 211.5065853871943,200.6645756203958 211.57027184276853,201.27951973699044 211.5633168173032,201.8967833165654 211.48334980504058,202.50808666708238 211.32882475306033,203.1046447946874 211.0990969816496,203.6772420283195 210.7944941244223,204.21631697310735 210.41637980781448,204.71205742659274 209.96720879424151,205.154504743342 209.4505723340474,205.53366698147707 208.87123250922997,205.8396400107417 208.2351444074583,206.06273560769375 207.54946503860347,206.19361541139824 206.82254799817954,206.2234294645975 206.06392299283146,206.14395792285808 205.28425947217332,205.94775437980837 204.49531375850393,205.62828913249967 203.70985923058444,205.1800905993781 202.94159929887192,204.59888300657792 202.20506310622153,203.88171837842424 201.5154840986818,203.0271008073011 200.88866183392918,202.03510093842604 200.34080762817447,200.90745858848743 199.88837488381273,199.64767142529323 199.54787518722532,198.26106767010242 199.33568151628427,196.75486084650709 199.26782014734474,195.1381846906713 199.35975309873405,193.42210645821743 199.6261531886794,191.61961701355338 200.08067401684156,189.74559626809778 200.7357173966126,187.81675274445587 201.60220096649408,185.8515362835104 202.68932888956772,183.87002317959968 204.00436870668614,181.893773324017 205.55243753798504,179.945659257108 207.3363009251953,178.04966737196185 209.35618767071287,176.2306718753352 211.6096240553741,174.51418249084745 214.0912908025483,172.92606728203626 216.79290609897836,171.4922523745645 219.70313788061284,170.23840076333965 222.80754844273926,169.1895727968053 226.08857423676938,168.36987133213663 229.52554347027518,167.80207494618855 233.09473383212315,167.50726296224394 236.7694723211843,167.50443640615964 240.5202787661281,167.81013933155856 244.3150541869132,168.43808524637095 248.11931466813004,169.39879362640897 251.89647089338135,170.69924170998172 255.60815293218863,172.34253692521634 259.21457928094793,174.32761540338683 262.6749685424174,176.6489720721522 265.9479914899604,179.2964277975719 268.9922606098114,182.2549389490222 271.7668535541151,185.50445459318092 274.231866277127,189.019826279278 276.3489909749801,192.77077505575778 278.0821133144864,196.72191995715292 279.39792282760055,200.8328717190012 280.26652977474714,205.05839491870614 280.66208125170283,209.34864110301714 280.56336884072374,213.6494547510426 279.95441969665643,217.90275313927003 278.82506262226207,222.04698032694702 277.1714604330229,226.01763457253432 274.9965997489763,229.74786753207667 272.3107292877696,233.16915258669195 269.13173777659586,236.2120186085122 265.4854627575649,238.8068444129355 261.4059218370379,240.88470807159027 256.93545832904607,242.37828418752778 252.12479376943557,243.22278117522646 247.0329804327799,243.3569095571198 241.72724776886713,242.72387130025777 236.28273758858734,241.2723592865272 230.7821238675679,238.95755515305063 225.31511419540027,235.74211297151754 219.97783117246425,231.5971155717967 214.87207343700277,226.50298977147582 210.10445748219936,220.4503663637553 205.7854429846366,213.44087045548966 202.02824599791302,205.48782764831142 198.9476460527912,196.61687163075456 196.65869493075397,186.86643900883035 195.2753366223232,176.28813765571869 194.90894972453052,164.94697551548035 195.66682525172254,152.92143765625775 197.6505945075064,140.3034004384632 200.9546232691639,127.19787294364839 205.6643900446561,113.72255729826335 211.85486755128386,100.00722121878437 219.5889278088603,86.19287799330704 228.91579231369778,72.43077118932527 239.86954963805306,58.88116362467815 252.46776345890737,45.71193254219534 266.71019443722855,33.09697546890209 282.57765952275304,21.214433895393682 300.0310521302983,10.244744654732699 319.01054620432706,0.36853168481528087 339.4350064441554,-8.23564630721583 361.20162589100556,-15.393673928540323 384.18581067147375,-20.938361789502693 408.2413299449496,-24.712009938275372 433.2007470140343,-26.569025580038698 458.8761451301556,-26.37856617246848 485.0601587689279,-24.027176738171107 511.5273180734623,-19.4213882204634 538.0357107857798,-12.490241972430624 564.3289623284967,-3.187704050774471 590.1385307878106,8.50506807550758 615.1863094162167,22.57764445896541 639.1875249559228,38.98846554602687 661.8539156229224,57.66324706193652 682.8971680330108,78.4936842720402 702.0325877448897,101.33649176033393 718.9829734959991,126.01281311184964 733.4826606715048,152.30803258578493 745.2816951367384,179.97201801340995 754.1500943414746,208.71982074708097 759.8821486359983,238.23285452948122 762.3007120902074,268.16057065782536 761.2614288448553,298.12264180619906 756.6568382149774,327.71166136813866 748.4202994748044,356.49635922664737 736.5296755442835,384.0253284937668 721.0107137299348,409.8312510382991 701.9400613034243,433.435602597933 679.4478540812612,454.3538110182044 653.7198173439491,472.1008337501723 624.9988204413012,486.1971132530997 593.5858293033741,496.1748614758521 559.8402048356782,501.58461722508855 524.1792998356459,502.0020130682947 487.07731262703555,497.03468156824096 449.0633620612282,486.32922420837343 410.7187558587532,469.5781604538169 372.6734324281728,446.5267691086557 335.6015652573095,416.9797295849198 300.2163286654729,380.8074669982768 267.2638340635366,337.95210225242823 237.51625680707542,288.4329065663292 211.76418514909327,232.35115932684465 190.80823459339769,169.89430879749182 175.4499829957553,101.33933715524736 166.48229392446558,27.055234624267115 164.67910793166652,-52.49550782222306 170.7847933487582,-136.75647157718225 185.50315984314597,-225.07802611286837 209.48624909180262,-316.7192550035137 243.32302736776168,-410.85114945059297 287.5281144233248,-506.5611145691196 342.53069161209487,-602.8588203965719 408.6637395455473,-698.68341500114 486.15376155652956,-792.9121012881161 575.1111536753759,-884.3700622490007 675.5213845555118,-971.8417016044928 787.2371496668404,-1054.083148218893 909.9716629717319,-1129.8359534880021 1043.2932460910142,-1197.8418913237251 1186.6213695549857,-1256.8587505929488 1339.224293036763,-1305.6769901490595 1500.2184414249612,-1343.1371071702245 1668.5696411778238,-1368.1475506507059 1843.096326606898,-1379.7029938519418 2022.4748085898275,-1376.9027625888157 2205.246678764545,-1358.9692006883845 2389.8284005991936,-1325.265740099863 2574.5231149843207,-1275.314431240787 2757.5346623127543,-1208.8126795146952 2936.9837955869343,-1125.6489268004434 3110.926530148665,-1025.9170123499366 3277.3745454200484,-909.9289461792721 3434.317522868239,-778.225829916669 3579.747272583651,-631.5866653721665 3711.683468743735,-471.0347999821031 3828.2007822023306,-297.8417708855368 3927.457166902225,-113.5283258021812 4007.723026181049,80.13758084703461 4067.410955770218,281.1459939989139 4105.105732828631,487.2535156474009 4119.594195169897,695.9953319513971 4109.894632400026,904.7007922375252 4075.2852914442747,1110.5125837137343 4015.3315833612646,1310.4095039035667 3929.9115668584723,1501.2327881795416 3819.2392769528433,1679.715902683471 3683.885465152711,1842.5176637926388 3524.7953207265714,1986.2584945983733 3343.302751383131,2107.5595771335616 3141.140816278941,2203.0846068918463 2920.447924905062,2269.583804142507 2683.769442229432,2303.9397853180008 2434.0543735689416,2303.21484802889 2174.646842042181,2264.6991757613628 1909.2721170417155,2185.959423776425 1642.0170038123242,2064.887106909419 1377.3044616920467,1899.7461736201233 1119.862381541539,1689.2191195194762 874.6865209389614,1432.4509684357965 646.9976683461605,1129.0904305934173 442.1931840605679,779.3275363370557 265.7931456694563,383.9270406768012 123.38140814563626,-55.743100674866895 20.54197280970527,-537.6888686456134 -37.208855800580295,-1059.2735924514022 -44.49396157531899,-1617.2082627064567 3.8500897775830936,-2207.549329317353 112.69628308534699,-2825.704513458167 286.5489163702998,-3466.447098695599 529.4647706125297,-4123.939092018509 844.9746295745231,-4791.763561373917 1236.0061515134598,-5462.9663627093305 1704.8091449549909,-6130.107367001361 2252.884341335434,-6785.321186990074 2880.9167870810734,-7420.387285164097 3588.7149954863053,-8026.809219927654 4375.157003551701,-8595.902656943073 5238.144469821924,-9118.891638646128 6174.565925399952,-9587.012468266666 7180.270251019651,-9991.624426878052 8250.05139778863,-10324.326404683385 9377.64529758436,-10577.078392664167 10555.739820894958,-10742.326649699371 11775.998535130155,-10813.131235212446 13029.098895279754,-10783.29448027381 14304.7853616776,-10647.48886286662 15591.937787174777,-10401.38265771157 16878.655249105766,-10041.761649623064 18152.35532115236,-9566.645133781309 19399.88858792394,-8975.394378425766 20607.668002361737,-8268.81169708847 21761.812474769024,-7449.228270250177 22848.303864416073,-6520.578871722799 23853.156322543553,-5488.46169446555 24762.596711668764,-4360.181535045725 25563.25460304707,-3144.7746864351006 26242.360134793427,-1853.01400590586 26787.94780050273,-497.3927687793383 27189.064035311778,907.9139103015755 27435.976276404712,2347.111109383328 27520.381001204372,3802.8703818480194 27435.60809215991,5256.440838708435 27176.81874536146,6687.785307759079 26741.19403433518,8075.7415533308895 26128.11116334593,9398.208227482448 25339.304399253055,10632.354893681271 24379.00766010776,11754.855120357452 23254.075764703706,12742.141287492926 21974.081412325595,13570.679388344726 20551.385067803192,14217.2617445214 19001.175075076844,14659.315190276959 17341.475513807043,14875.221925665805 15593.119548631334,14844.64989295923 13779.68629948732,14548.889201485847 11927.39958344779,13971.190817995484 10064.987242638785,13097.103458008693 8223.500177322949,11914.804363673371 6436.09064580372,10415.419440640962 4737.749870483643,8593.328055519598 3165.005498600758,6446.447671502537 1755.5800026480235,3976.493427498528 548.0116644060033,1189.2077498666795 -418.75963756174247,-1905.4448703635244 -1105.8390302131822,-5293.122694650718 -1474.8522401047296,-8954.995734692773 -1488.4461925813657,-12867.683274655108 -1110.81005094766,-17003.2439491649 -308.21157004969376,-21329.22202468245 950.4568955254819,-25808.753077112626 2693.1288880327334,-30400.731733595472 4944.017463793886,-35060.04355315871 7723.078951662619,-39737.862462100384 11045.4942178551,-44382.01443944544 14921.175078261536,-48937.407370372806 19354.303698788757,-53346.52615703167 24342.912939552454,-57549.991303525974 29878.515622770636,-61487.17828295242 35945.79063059941,-65096.89405810942 42522.333562272135,-68318.10617365783 49578.47939503912,-71090.71887680708 57077.204196872604,-73356.38976751443 64974.112428149,-75059.37953991527 73217.51574325515,-76147.42646706733 81748.60846134806,-76572.63641439739 90501.74401981151,-76292.37835712715 99404.8157573206,-75270.17463731025 108379.74430044234,-73476.57454085052 117343.0726545839,-70889.99921779054 126206.668834745,-67497.54552377161 134878.5345235071,-63295.73603989689 143263.71682421895,-58291.202344608835 151265.318699298,-52501.288576094616 158785.60216143876,-45954.562447543474 165727.17673525072,-38691.221169392746 171994.2641458947,-30763.380200136646 177494.0286382811,-22235.233396306718 182137.96080527987,-13183.073966906595 185843.30132691975,-3695.166659994517 188534.4896164119,6128.537180920452 190144.6210552135,16176.848657945178 190616.8953007651,26327.959849430998 189906.03708963274,36450.23547449081 187979.67005798916,46403.17942555331 184819.62338257127,56038.57584340027 180423.15052962414,65201.80221551429 174804.0391069022,73733.30966935515 167993.5907631067,81470.26322835908 160041.45028704923,88248.33232358893 151016.26354007685,93903.61933408967 141006.14462216737,98274.71139244123 130118.93373422825,101204.83816919859 118482.22856306777,102544.11587317636 106243.17368447235,102151.85530774928 93567.99445352546,99898.90954169224 80641.26412558151,95670.03462266196 67664.89551799578,89366.23481885111 54856.85136947984,80907.06215637768 42449.570664150444,70232.83856303681 30688.111539878704,57306.767768698024 19828.01497004468,42116.9032832581 10132.897164260678,24677.9383070433 1871.7825429604707,5032.783356118675 -4683.806835515383,-16746.102266696453 -9262.985420927347,-40555.65823130776 -11598.837794136974,-66261.48198895916 -11431.923572933778,-93697.42871102646 -8513.921384643934,-122665.58021087428 -2611.375798917133,-152936.60797779929 6490.492587960625,-184250.5522332009 18983.957180739082,-216318.03521211504 35034.98193650892,-248821.922691546 54779.49363300212,-281419.44315085426 78319.78140339279,-313744.7688860425 105721.07695987055,-345412.0579435328 137008.37026197647,-376018.9499314649 172163.5161276657,-405150.50265642186 211122.68738644675,-432383.5501765709 253774.22959056398,-457291.4563209874 299956.9709934417,-479449.23106849124 349459.039442332,-498438.9704827776 402017.23498931585,-513855.5742445092 457317.00338462705,-525312.688290945 514993.05117057095,-532448.8137592857 574630.637844523,-534933.5174241608 635767.5745168253,-532473.6732179916 697896.9516763921,-524819.6593221421 760470.6111261287,-511771.43081370177 822903.3689067584,-493184.3840435694 884577.9871473848,-468974.9259001186 944850.8833318641,-439125.65896935464 1003058.5555313384,-403690.0924227076 1058524.6918159982,-362796.7883266331 1110567.921425075,-316652.85404551215 1158510.1544557195,-265546.6935634729 1201685.4459511326,-209849.9339337543 1239449.309457075,-150018.44771621336 1271188.3945129965,-86592.39821176902 1296330.4322953757,-20195.241559753205 1314354.3438874928,48468.3716723252 1324800.3965669961,118615.84292619857 1327280.2852375389,189391.05653512254 1321487.008840846,259870.01917009766 1307204.4054270145,329067.71854663227 1284316.204686107,395946.19763404614 1252814.4532995105,459423.8252332354 1212807.1665940657,518385.72762085136 1164525.0598039767,571695.329146066 1108327.2138806402,618206.9323766112 1044705.5343404398,656779.2508064184 974287.8671886353,686289.7894573677 897839.6435692619,705649.9511455377 816263.9345093804,713820.7289644806 730599.8089716753,709828.8289016474 642018.9023973083,692783.0506950902 551820.118979345,661890.7403079441 461422.40899645106,616474.1140035848 372355.5825677879,555986.2422007984 286249.143043975,480026.47132907965 204819.14677593773,388355.05403684615 129853.12102276496,280906.7525678293 63193.098060047785,157803.17713807442 6716.8508902497715,19363.620926109892 -37682.55593402469,-133885.84398029337 -68118.75828261419,-301205.23949216784 -82735.4563974752,-481635.74399813986 -79730.95147359226,-673997.152679716 -57383.62756685826,-876887.9280540614 -14078.124520822428,-1088688.0138040679 51668.078045205875,-1307564.5621769233 141177.96952942634,-1531480.6990588228 255588.53547065752,-1758207.4213631877 395824.84765997727,-1985338.6887485604 562575.0780030256,-2210309.73610536 756266.8095894101,-2430418.5949615203 977045.027325556,-2642850.77125198 1224752.175227129,-2844706.9841191825 1498910.6677097785,-3033033.8259552266 1798708.237658024,-3204857.1582016163 2122986.494426878,-3357218.0109753157 2470233.0500196316,-3487210.7079171385 2838577.551319601,-3592022.8913261625 3225791.930321868,-3668977.0772512704 3629295.152762581,-3715573.3263851013 4046162.7083947496,-3729532.5749973394 4473141.043498053,-3708840.131419595 4906667.088196835,-3651788.808427362 5342892.978034602,-3557021.1309321905 5777716.011333666,-3423570.0323675396 6206813.821553789,-3250897.4326765155 6625684.677635379,-3038930.0765161747 7029692.755732953,-2788092.0027730106 7414118.153453395,-2499333.01628447 7774211.343429746,-2174152.5402751234 8105251.6875754865,-1814618.2438720025 8402609.557534367,-1423378.8635159533 8661811.531587673,-1003670.6704069716 8878608.064580282,-559317.0784897052 9049042.956296815,-94720.93898158871 9169523.876221,385150.8719619116 9236893.139823763,874790.8963041259 9248497.874548802,1368182.8135321767 9202258.663593771,1858841.5955069591 9096735.71350783,2339862.161550328 8931191.558600971,2803976.4971343903 8705649.292203384,3243619.0917722676 8420945.30288497,3651000.4385220776 8078775.493733679,4018188.219951401 7681733.975493116,4337195.684637017 7233343.250470145,4600076.595582114 6738074.944214964,4799026.008718402 6201360.196486027,4926486.017420781 5629588.892229063,4975255.479283924 5030096.997347279,4938602.625953907 4411141.36286522,4810379.347292013 3781861.4744535694,4585135.839333149 3152227.751749383,4258234.213170311 2532976.1428343295,3825959.5808320306 1935528.9127717905,3285627.066186157 1371901.6901858957,2635683.1356183477 854597.0112124906,1875799.606349629 396484.7842676061,1006958.6713286832 10670.29026415374,31527.28010392579 -289649.4707477353,-1046680.7637647697 -491340.07612898806,-2222356.585226784 -581493.4097993469,-3488663.430962186 -547599.4148409874,-4837220.714925299 -377724.2660875981,-6258106.244781579 -60693.1718298287,-7739877.820660802 413724.1639074542,-9269615.236495007 1054627.552151346,-10832983.529447386 1869802.0860753779,-12414318.115283305 2865538.0788775687,-13996732.218039397 4046457.696905369,-15562246.752401793 5415350.898445641,-17091942.54855114 6973023.34784026,-18566134.523957 8718159.004593011,-19964567.10714783 10647200.085568627,-21266629.907614224 12754247.063156413,-22451592.30683134 15030981.291562084,-23498855.321322586 17466612.7457064,-24388218.763436154 20047855.2114093,-25100161.403033186 22758931.08088917,-25616131.51779507 25581607.683797292,-25918844.915730506 28495266.82120641,-25992587.225255173 31477008.86883084,-25823516.980573192 34501792.477461055,-25399965.787718277 37542610.52485453,-24712731.644225497 40570702.56643177,-23755361.307644784 43555803.59490441,-22524417.46951332 46466428.454834,-21019726.39631834 49270190.77104531,-19244601.65150118 51934154.744335234,-17206039.516463056 54425217.64906314,-14914881.787216267 56710520.34055993,-12385941.739729825 58757882.55186743,-9638089.233557649 60536259.23558093,-6694291.161844349 62016213.69433462,-3581603.7574601634 63170402.74990581,-331113.63030276546 63974068.73338066,3022175.1605681805 64405532.644911766,6439510.205411884 64446682.43893504,9878617.667148028 64083450.04696039,13293988.075100198 63306270.46274885,16637221.37219727 62110515.99121285,19857430.887064993 60496898.60975385,22901705.14723517 58471833.3156542,25715625.657393184 56047755.34167835,28243837.944546036 53243384.21971418,30430672.328458406 50083927.86385024,32220810.019723106 46601220.13365324,33559989.28923395 42833785.728521556,34395745.60209159 38826826.75674547,34678178.77723991 34632125.91905633,34360739.432996675 30307861.94548547,33401026.220130254 25918333.724494394,31761584.640540574 21533590.46138606,29410697.61334987 17228966.194354173,26323157.393727936 13084518.075087572,22481007.985327657 9184368.979049133,17874246.82674028 5615956.23931123,12501474.2873311 2469189.5866020736,6370479.388976875 -164477.28501984,-501249.8124813198 -2193055.7361042155,-8086102.589926178 -3525104.6014250633,-16346019.740588848 -4070877.434304957,-25232276.229304083 -3743524.616881992,-34685382.25619455 -2460339.027071217,-44635111.920858346 -144032.65270010836,-55000667.68241937 3275969.6872267984,-65690987.67494534 7862234.494976868,-76605201.63372484 13668037.631965518,-87633239.72496417 20736113.15453236,-98656596.95715289 29097450.610813458,-109549254.09661193 38770159.04322441,-120178754.1249615 49758416.33436611,-130407431.27718389 62051522.722015575,-140093787.60290253 75623077.27511343,-149094009.81995225 90430295.85292652,-157263617.0001829 106413488.5513854,-164459227.36670554 123495713.86377303,-170540430.21545386 141582625.73984355,-175371746.72986117 160562528.4131777,-178824661.26497465 180306652.27937192,-180779702.56725955 200669662.2489392,-181128552.40039277 221490407.87354356,-179776157.19802204 242592922.16094226,-176642816.69456124 263787673.36521637,-171666222.02746272 284873071.1806863,-164803414.5913073 305637225.70063215,-156032635.98705274 325859954.2496557,-145355038.7789596 345315027.7893388,-132796227.47546116 363772645.06263477,-118407599.21462901 381002119.0188607,-102267454.08330801 396774756.3871943,-84481845.85152566 410866907.5846938,-65185145.1769559 423063160.5002365,-44540289.04032105 433159648.1362969,-22738692.319441114 440967436.6660809,199.9999994599709" stroke="white" stroke-width="1.5" /></svg>