<?xml version="1.0" encoding="utf-8" ?>
<svg baseProfile="full" height="400" version="1.1" width="400" xmlns="http://www.w3.org/2000/svg" xmlns:ev="http://www.w3.org/2001/xml-events" xmlns:xlink="http://www.w3.org/1999/xlink"><defs /><rect fill="black" height="100%" width="100%" x="0" y="0" /><circle cx="200" cy="200" fill="yellow" r="20" stroke="orange" stroke-width="2" /><polyline fill="none" points="198.38257061912606,200.0 198.37449275703153,199.91466829519393 198.37661028689112,199.829087917223 198.38926721117414,199.74445198189778 198.4126891631777,199.66202654696895 198.44697233300116,199.58313990480826 198.49207325096998,199.50917038892607 198.5477996126671,199.44153274665072 198.61380232909391,199.38166315164216 198.68956898252117,199.33100295177294 198.77441886318232,199.2909812700474 198.86749975401446,199.26299659838512 198.96778662008933,199.24839754599503 199.07408234616017,199.24846292542333 199.18502064986112,199.26438137986528 199.29907127955732,199.29723077468196 199.4145475847068,199.34795759393424 199.52961652294778,199.4173565988212 199.6423111420964,199.50605101886362 199.7505455469907,199.61447355819502 199.85213233085193,199.74284850810108 199.9448024187951,199.8911752626949 200.02622723758572,200.05921353705304 200.0940430910282,200.24647058601462 200.14587758483262,200.45219071693919 200.17937790883158,200.67534738083427 200.1922407484236,200.91463811324712 200.1822435615487,201.1684825790503 200.1472769228311,201.435023953668 200.08537760324026,201.712133847371 199.99476202223386,201.99742094904033 199.8738596803731,202.28824353135568 199.72134615436102,202.5817259208467 199.5361752138725,202.8747789938618 199.31760960092922,203.16412471352697 199.06524999842435,203.44632467351977 198.7790617051926,203.71781256236204 198.45939853119893,203.97493040739695 198.10702342839122,204.21396840117754 197.7231253808911,204.43120805523142 197.30933209279615,204.62296836770597 196.86771803318578,204.78565463292506 196.40080742614754,204.9158094631263 195.91157180888277,205.01016553636282 195.40342182323997,205.06569953054645 194.88019295530856,205.07968665270374 194.3461249938403,205.04975512555208 193.8058350410082,204.9739399513316 193.26428397803022,204.85073523629111 192.72673636303324,204.67914432916024 192.19871381867654,204.4587270041458 191.6859420518459,204.1896429042468 191.19429173643067,203.87269045470444 190.72971358196105,203.50934045985835 190.2981680047771,203.10176361015317 189.90554991339883,202.65285115003604 189.55760921475976,202.16622799241048 189.2598677417725,201.64625761146408 189.0175333940681,201.09803810324334 188.83541237139073,200.52738887235753 188.7178204616967,199.9408274835628 188.66849442213154,199.3455363084681 188.69050455936843,198.74931869982504 188.7861696749043,198.16054453825842 188.95697558948305,197.58808511814857 189.2034984975323,197.0412374698076 189.52533442611255,196.52963835305042 189.9210360822147,196.06316830153733 190.38805836622944,195.65184624648518 190.92271380709744,195.30571540098356 191.52013913521876,195.0347212405428 192.17427415199728,194.84858256983517 192.87785397944094,194.75665681795073 193.6224156792505,194.76780085284128 194.3983201182333,194.8902287478619 195.19478982582817,195.13136806725578 195.99996344042273,195.49771636084435 196.80096717462118,195.99469966884325 197.58400354659378,196.62653493338914 198.33445742627373,197.39609829184442 199.03701923290518,198.30480128611543 199.67582489599795,199.35247706004628 200.23461195708626,200.53727863153654 200.6968909470536,201.85559131563562 201.04613092566012,203.3019613379496 201.2659578190119,204.86904261293765 201.3403639399735,206.54756356801786 201.25392682908563,208.32631577107446 200.99203531269632,210.19216596550856 200.54112044419313,212.130092933294 199.88888877697437,214.12325039284696 199.02455521772984,216.1530568955479 197.93907252935975,218.19931341351997 196.6253543980645,220.24034901325697 195.07848885235268,222.25319468681596 193.29593872639293,224.2137850668974 191.27772579957076,226.09718738701827 189.02659522138214,227.87785666636367 186.54815684872364,229.52991570441736 183.85100018371767,231.02745806717505 180.9467797065762,232.3448718390557 177.85026755136334,233.45718150732813 174.5793706741077,234.34040494405428 171.1551099132603,234.9719220595834 167.60155864215628,235.33085132710124 163.94573906147892,235.39843002541073 160.21747457566886,235.15839372285788 156.4491971390338,234.59735023504186 152.67570894256914,233.70514303854003 148.93389833806728,232.47519891812937 145.26241045814277,230.90485447149626 141.70127358477046,228.99565599854327 138.29148293958463,226.7536272671173 135.0745442105775,224.18949967786577 132.09197978537628,221.31889945202414 129.38480132376168,218.16248664069107 126.99295296374208,214.74604100532105 124.95473010802681,211.10049014874676 123.30617937241828,207.26187568519202 122.0804858853826,203.2712537266852 121.30735469948588,199.17452653129854 121.01239360096429,195.02220280394698 121.21650507382009,190.86908486023378 121.93529557993716,186.77388165405833 123.1785106473952,182.79874752529463 124.94950450633208,179.00874743854354 127.24475316669171,175.47125045033437 130.05341988689503,172.2552541516412 133.3569819294874,169.4306438755227 137.12892733259494,167.06739152534433 141.3345301389893,165.23469995567828 145.93071211326674,164.00009991292893 150.86599843888004,163.42850760252304 156.080574218689,163.5812519799297 161.50644780496805,164.51508184905333 167.06772605866198,166.28116377844785 172.68100558603817,168.92408269781933 178.25588282841994,172.48085779881066 183.6955845938955,176.97998701955592 188.8977192271259,182.44053392669804 193.75514712486245,188.87127120672037 198.1569677326122,196.269895226468 201.9896185160424,204.622326207515 205.1380797049212,213.9021084685525 207.487176875153,224.0699249136403 208.92297168488147,235.0732394729567 209.33422933430734,246.84608052942 208.61394959774293,259.30897748407244 206.66094660359806,272.3690615224991 203.38146093750873,285.9203403432868 198.69078614043238,299.84415509969494 192.5148902924516,314.0098260921276 184.79201213961272,328.27549183933576 175.47421016062574,342.4891440611507 164.52884210742252,356.48985883863276 151.9399519123938,370.1092217954681 137.70954045842598,383.1729425870245 121.85869657692507,395.5026513134424 104.42856479330116,406.9178667161346 85.48112679604968,417.2381232016047 65.09977437919002,426.2852408936583 43.389652710006914,433.8857200784115 20.477754213074235,439.8732386117074 -3.487254857918174,444.0912281432029 -28.33549096623497,446.3955024145771 -53.87660630025579,446.65690845130274 -79.90084879559731,444.76396922917263 -106.18043661253944,440.62548439948637 -132.47125109871388,434.1730539415204 -158.51484857711012,425.36348821777847 -184.04078735824356,414.1810668755328 -208.7692622150401,400.63960840429706 -232.4140342166756,384.7843119576802 -254.68563933514974,366.6933333110626 -275.29485466209553,346.47905758150046 -293.9563964539029,324.289032606773 -310.3928196152682,300.3065286852786 -324.33858369282325,274.75069273086285 -335.54424604269013,247.876267804073 -343.78073862226586,219.9728524447356 -348.8436809026101,191.36367824438233 -350.55767777019526,162.40388864771268 -348.7805480523548,133.47830703945135 -343.4074265261544,104.99868772811534 -334.3746800209583,77.40044944496314 -321.66357656377284,51.13889739026246 -305.30364550361827,26.68494662747463 -285.3756662427542,4.520366688548904 -262.01422364955084,-14.867425457903607 -235.40976947520085,-30.990989484759666 -205.81013118243624,-43.36886073305723 -173.52141254910072,-51.53187460325515 -138.90823425435275,-55.02975935634902 -102.39326740214028,-53.437933214171295 -64.45601858682011,-46.36443481041829 -25.6308316495994,-33.45690963077695 13.495921309722576,-14.409569200132495 52.28947884726503,11.02996546391762 90.07116915178003,43.054029100993375 126.1237294418066,81.78858276420146 159.69745570426193,127.28728896043852 190.0171616843637,179.52609227140886 216.28991455036078,238.39840682436784 237.71350280586003,303.7110112245913 253.48557993062542,375.18074950236223 262.8134150317878,452.43213320411303 264.9241696261314,534.9959349217352 259.07560770420895,622.3088572712954 244.56713461027564,713.7143535838661 220.75104917655167,808.4646673550591 187.04388314906603,905.7241468325101 142.93769241118724,1004.5738790375409 88.01115602673929,1104.0176740739694 21.940331863000097,1202.9894158497564 -55.49108831291517,1300.3617794230606 -144.38218567634345,1394.9562982017344 -244.70604712441747,1485.5547463142982 -356.3019887103644,1570.9117827911582 -478.86893316977796,1649.7687849288159 -611.9601015762088,1720.868778556877 -754.9791735455599,1782.9723531067154 -907.17806249401,1834.8744296269274 -1067.656442187161,1875.4217304544752 -1235.3631481689579,1903.5307803946596 -1409.0995626255963,1918.206251261402 -1587.5250738493808,1918.5594447627593 -1769.1646817788082,1903.8266932710135 -1952.418799195099,1873.387444279539 -2135.575274176661,1826.7817826050882 -2316.8236335098663,1763.7271349238888 -2494.271519121325,1684.1338943031199 -2665.963260460461,1588.119698262289 -2829.9004953842136,1476.0220928108783 -2984.0647207725356,1348.4093170762455 -3126.4416221603838,1206.0889487503034 -3255.0469994651953,1050.114159806089 -3367.9540738012265,881.7873448927451 -3463.3219288107575,702.6609015987099 -3539.4248093351916,514.5349624254333 -3594.6819710409527,319.45190284002683 -3627.687747262861,119.68747812908587 -3637.2414742963274,-82.2615261383005 -3622.3768941254607,-283.6932095627135 -3582.3906345811897,-481.7200787595175 -3516.869351635219,-673.292173909215 -3425.715107390674,-855.2237533563095 -3309.168550744908,-1024.2234421991107 -3167.829466061332,-1176.9277014070897 -3002.6742588468696,-1309.9374230717995 -2815.0699566995745,-1419.8574054736164 -2606.7843189269684,-1503.3384093089662 -2379.9916694445615,-1557.1214442945131 -2137.2740949891718,-1578.0838841089862 -1881.6176843976045,-1563.2869579450664 -1616.4035247104937,-1510.0241195473434 -1345.3932160870497,-1415.8697502497378 -1072.7087198006645,-1278.7276119527746 -802.8064116831758,-1096.8784299560496 -540.4452769634942,-869.0259548366528 -290.64925108070537,-594.3408278777431 -58.663784227392114,-272.5015566142579 150.0932155104196,96.26810345004031 330.085825200116,511.16606736013426 475.71961827258514,970.7838397056071 581.4058414736598,1473.0841190528238 641.6297700888111,2015.3847479420874 651.0226692930999,2594.3496338738005 604.4367062432989,3205.9872218999517 497.02207687043926,3845.6570444055646 324.3055344250611,4508.0848084099225 82.26943488207544,5187.386405366182 -232.5696514454072,5877.101143251898 -623.0837710712831,6570.234406122685 -1091.4589199631332,7259.309842792115 -1639.1239761673985,7936.431074596037 -2266.684359830024,8593.352793138334 -2973.8615647792417,9221.56099348687 -3759.4397094994383,9812.361957628458 -4621.220244954022,10356.979468370713 -5555.985931503746,10846.659596712778 -6559.4751564313065,11272.78226752572 -7626.367606792235,11626.978670841481 -8750.28223909756,11901.25345090082 -9923.78839750495,12088.110474194527 -11138.430825758127,12180.680852963318 -12384.769195281126,12172.85178396333 -13652.432633033339,12059.394655749293 -14930.189578621797,11836.090783280082 -16206.033131640637,11499.853048297768 -17467.281868394657,11048.841659612017 -18700.695913435982,10482.572201015824 -19892.60784731474,9802.014107838084 -21029.067819460404,9009.677707757914 -22096.002016252474,8109.687978960143 -23079.383411398485,7107.843220312275 -23965.41350121659,6011.6568950916635 -24740.713504008218,4830.381002746872 -25392.5232832524,3575.0094528302247 -25908.906041857063,2258.2600618904257 -26278.956632273068,894.5339677483411 -26493.01113810321,-500.1485441575396 -26542.855210166283,-1908.2365814851396 -26421.92848705819,-3310.7620808607953 -26125.5223003097,-4687.478392594945 -25650.967760436884,-6017.023971974233 -24997.811245549357,-7277.110819612467 -24167.97427161112,-8444.73698142265 -23165.89471561643,-9496.422073195672 -21998.646392266597,-10408.464438922429 -20676.034053347732,-11157.21818961264 -19210.66098867912,-11719.388004518318 -17617.966559626373,-12072.339213734522 -15916.231191692463,-12194.42032476801 -14126.546592094403,-12065.294810708041 -12272.749241463214,-11666.278649160662 -10381.315535279664,-10980.67979430577 -8481.217319216743,-9994.135484575494 -6603.736971434913,-8694.943040818669 -4782.241631679694,-7074.379599646286 -3051.916658748488,-5127.006059072781 -1449.4589108687544,-2850.9503935142966 -12.730983474985493,-248.16542735278546 1219.6218991221492,2675.3438550338747 2208.5900631287955,5909.328335714063 2915.2497716677663,9439.142885985644 3301.242361289086,13245.639165516566 3329.2780821418182,17305.107428989984 2963.660016645696,21589.271351988118 2170.822891555376,26065.339497140827 919.8810653535771,30696.116579649362 -816.8205246215426,35440.17715914749 -3063.15912445113,40252.1037843962 -5838.697705418286,45082.79095143299 -9158.166695282387,49879.81550838275 -13030.97157951112,54587.87335615892 -17460.734245995478,59149.28145966013 -22444.87605483301,63504.54330582287 -27974.250630783496,67592.97503101006 -34032.834293617125,71353.38849969032 -40597.4818552243,74724.82665910898 -47637.755217391496,77647.3455314526 -55115.831796965016,80062.83624745173 -62986.49928327899,81915.87958574796 -71197.24259502,83154.62457354993 -79688.42815031849,83731.68183949673 -88393.58969642437,83605.0216029579 -97239.81896698439,82738.86544912493 -106148.2633504437,81104.56039015805 -115034.7315688283,78681.42316316202 -123810.40709016791,75457.54227937225 -132382.66763983053,71430.52502865312 -140656.00774746956,66608.17647155149 -148533.05978015732,61009.09742910615 -155915.70738324657,54663.188618711436 -162706.28369471672,47612.048391574 -168808.84513375675,39909.252011188335 -174130.51000901932,31620.501078597754 -178582.8496662715,22823.632562961346 -182083.3184201312,13608.477936941943 -184556.70711185367,4076.5641453721983 -185936.60382709457,-5659.350450184495 -186166.84411680725,-15475.91041415997 -185202.9320135939,-25239.97136370967 -183013.41224738487,-34809.58344786178 -179581.17336020377,-44035.149670530576 -174904.6609210645,-52760.75633906198 -168998.97976873006,-60825.67059599795 -161896.86418064256,-68065.9975748259 -153649.49509747757,-74316.48723445342 -144327.1440391003,-79412.47839832038 -134019.62414132338,-83191.96498102522 -122836.52983314669,-85497.76685877424 -110907.24806742008,-86179.78536240202 -98380.72571707696,-85097.32097726606 -85424.97975356683,-82121.42855832752 -72226.33912941023,-77137.28324745382 -58988.409884368135,-70046.52835016699 -45930.757871812086,-60769.574727531675 -33287.3066414511,-49247.81982209879 -21304.45139513683,-35445.75330040392 -10238.893528085198,-19352.91549267593 -355.20404827682273,-985.6743756110945 8076.871902738872,19611.213193817057 14785.353162636995,42363.28989934406 19499.182919527237,67165.36911322725 21951.586834320864,93880.82054186657 21883.60030296681,122341.20035682962 19047.732224218336,152346.25352302706 13211.728751989813,183664.31326280194 4162.396818697343,216033.11932579512 -8290.556223832396,249161.07297706095 -24310.713626524677,282728.9423840736 -44031.22046373457,316392.02739786723 -67551.18691105935,349782.78761247074 -94932.27727264035,382513.93208513106 -126195.53973902184,414181.9632498614 -161318.53254778698,444371.16140801297 -200232.80226416508,472657.9897883563 -242821.76925377833,498615.89359886944 -288919.0740464697,521820.4598127539 -338307.43615704,541854.8977179348 -390718.0740114047,558315.7935937762 -445830.7309088712,570819.0863469421 -503274.34742563154,579006.2046306083 -562628.4153333297,582550.2999810008 -623425.0419821575,581162.5049282769 -685151.7472031511,574598.1399721431 -747255.0071538857,562662.788853605 -809144.5512106903,545218.157798905 -870198.4090564873,522187.63145396666 -929768.6955953039,493561.43615777575 -987188.1113229378,459401.3201061748 -1041777.1253903598,419844.65991247015 -1092851.7979152864,375107.90414902725 -1139732.1872414097,325489.26671640715 -1181751.2769374852,271370.5863848308 -1218264.3465021828,213218.2736261195 -1248658.69913516,151583.27192868319 -1272363.6496972246,87099.96817529103 -1288860.6662646155,20483.995359235454 -1297693.549639987,-47471.119101440716 -1298478.526973441,-115898.49495763441 -1290914.128428947,-183863.6537081659 -1274790.7097606692,-250371.49569320324 -1249999.4788926428,-314374.49465695117 -1216540.8812703544,-374782.0892466234 -1174532.197012088,-430471.2346448897 -1124214.202859377,-480298.0606311693 -1065956.7537246253,-523110.5650012695 -1000263.1423595682,-557762.2536299336 -927773.101404118,-583126.6207374989 -849264.3198837732,-598112.3453356198 -765652.356147612,-601679.0626055282 -677988.8412956073,-592853.5523444144 -587457.8813267517,-570746.1708483248 -495370.58251421317,-534567.3379366586 -403157.6428179627,-483643.87752013595 -312359.97238743614,-417434.99842769845 -224617.32826471902,-335547.69239182887 -141654.9721196583,-237751.3183935556 -65268.38504858834,-123991.13722562045 2693.900066426753,5599.442630867555 60349.260655321064,150688.14669740954 105801.62479971183,310734.87964113906 137163.64492136956,484984.76362267864 152580.2311293667,672463.3902013777 150253.24197035152,871974.4933796289 128467.10236330383,1082100.2351596884 85615.09152756752,1301204.2753120987 20226.018132804773,1527437.7739270476 -69009.02387675311,1758748.4487953398 -183210.14688721593,1992892.7798463907 -323282.7556710844,2227451.4199072286 -489892.5907855939,2459847.835138376 -683442.1046230503,2687370.159899371 -904048.5540043911,2907196.209797547 -1151524.197589177,3116421.553629445 -1425358.9862207728,3312090.500232146 -1724706.1293333946,3491229.8103681244 -2048370.910455827,3650884.8971622544 -2394803.109439148,3788158.2318257797 -2762093.3681481984,3900249.625008848 -3147973.809881772,3984498.0087244264 -3549823.190679921,4038424.3000134877 -3964676.822960218,4059774.8860272174 -4389241.468692097,4046565.231655956 -4819915.350738071,3997123.075913759 -5252813.3773084255,3910130.652668423 -5683797.616018382,3784665.345659216 -6108512.9912115075,3620238.16772051 -6522428.111508506,3416829.4403540404 -6920881.064527179,3174921.0428563156 -7299129.943046972,2895524.60065496 -7652407.792285018,2580204.9908269397 -7975981.592209687,2231098.5593871535 -8265214.8128085695,1850925.470196476 -8515633.004877254,1442995.6395084616 -8722991.815185685,1011207.7534259852 -8883346.743837727,560040.9179420606 -8993123.894326972,94538.55275618879 -9049190.90429847,-379715.7894692656 -9048927.18844876,-856630.9175924882 -8990292.575438373,-1329648.9619624582 -8871893.379236229,-1791794.8564455614 -8693044.913023947,-2235734.296821303 -8453829.431675656,-2653840.021321853 -8155148.47785092,-3038266.1452002632 -7798768.607778725,-3381030.163028888 -7387359.486660901,-3674102.1111355685 -6924523.37096865,-3909500.2594808144 -6414815.036310746,-4079392.578774815 -5863751.265443249,-4176203.1062385463 -5277809.081641961,-4192722.2137248614 -4664411.99818136,-4122219.666603736 -4031903.6549893836,-3958559.252608831 -3389508.3284186064,-3696313.6585065788 -2747277.9290376683,-3330878.1807728647 -2116025.244741143,-2858581.77623322 -1507243.341429449,-2276793.8916044165 -933011.1999370934,-1584025.4587879053 -405885.8444849286,-780022.4072555632 61218.59681444096,134149.97251074077 455164.26668621146,1156033.478384905 762734.558756891,2281715.8996006437 970789.672977917,3505783.969251595 1066431.515769961,4821291.894303649 1037176.5154497699,6219746.899744433 871134.7291662567,7691113.108112132 557193.4304177429,9223834.936100403 85203.18905677658,10804881.02634627 -553835.7086143794,12419809.545296766 -1367588.8005901356,14052855.467967931 -2362207.381546999,15687040.238533929 -3542155.365992435,17304303.943443533 -4910045.7053018315,18885659.86292788 -6466489.038767243,20411370.9794623 -8209957.286261681,21861147.72044545 -10136664.885766158,23214365.8998767 -12240470.340734115,24450303.503278747 -14512800.66828516,25548394.634982176 -16942601.22805584,26488498.62089487 -19516313.26208215,27251181.937021933 -22217881.287640557,27818010.318503734 -25028792.257268507,28171848.10022733 -27928148.13341819,28297161.55269484 -30892773.220079295,28180322.71048363 -33897357.251458235,27809909.950020988 -36914634.860201865,27177001.363238692 -39915601.63701976,26275456.798629757 -42869766.552806295,25102184.30582175 -45745440.04693782,23657386.628355466 -48510056.59536622,21944783.345994245 -51130530.06401538,19971804.27634372 -53573639.63194092,17749749.809208464 -55806443.5403292,15293913.968843564 -57796717.3937938,12623666.181462904 -59513413.216067344,9762487.969818948 -60927134.94996777,6737961.104501393 -62010625.59861755,3581704.1132291583 -62739260.7387562,329254.4844836062 -63091542.70517478,-2980105.600816546 -63049589.35551538,-6303581.618277457 -62599610.98456399,-9595158.123323243 -61732368.67428951,-12805949.573971236 -60443607.14758938,-15884610.160869835 -58734455.04705272,-18777801.49183669 -56611785.49164,-21430716.180985823 -54088529.78012526,-23787654.566245884 -51183937.21588399,-25792650.93197256 -47923774.22784739,-27390144.754592754 -44340456.26101088,-28525691.628682643 -40473106.309666716,-29146707.67917654 -36367534.4693208,-29203240.433691125 -32076133.489698768,-28648758.328943495 -27657686.020759437,-27440950.26899802 -23177080.054266468,-25542525.95293874 -18704929.971934605,-22922007.05800485 -14317101.61270132,-19554498.81368874 -10094140.860059293,-15422431.045058891 -6120606.417894391,-10516257.411566256 -2484308.6806882396,-4835101.332256416 724542.0994539527,1612663.0196280996 3414273.802859271,8808906.240325479 5492770.666245556,16725327.14973049 6868564.421739583,25323135.259124093 7451989.633996168,34552842.84643767 7156393.135118488,44354176.579424664 5899386.1067099925,54656117.80607706 3604126.0599973174,65377079.64216727 200614.73818369614,76425227.82894397 -4373003.169919742,87698951.01294744 -10169156.639121916,99087484.62006229 -17229597.265108578,110471690.86509241 -25584198.333844744,121724995.66646627 -35249822.33471779,132714481.33579782 -46229275.62650322,143302131.89898434 -58510369.13526539,153346225.79674783 -72065103.90993801,162702868.52790657 -86849000.0702002,171227655.56023303 -102800587.14011571,178777453.56579632 -119841072.9598083,185212285.76643065 -137874207.29874942,190397304.92842776 -156786354.9534426,194204835.3533819 -176446791.4978189,196516463.10515058 -196708232.96830738,197225151.72313526 -217407608.61254215,196237358.83207986 -238367083.4199624,193475127.4012848 -259395334.4968518,188878123.96436194 -280289082.4643447,182405594.91684455 -300834875.9660924,174038211.09448665 -320811124.09727436,163779770.23011202 -339990368.1368693,151658726.61960325 -358141780.4129091,137729517.42402655 -375033874.4917728,122073655.51810557 -390437407.19701105,104800559.68522723 -404128449.2732859,86048094.27198963 -415891597.8625343,65982792.163045354 -425523300.4004752,44799737.12699418 -432835256.12241805,22722084.21873444 -437657858.1398025,200.00000053597654" stroke="white" stroke-width="1.5" /></svg>