<?xml version="1.0" encoding="utf-8" ?>
<svg baseProfile="full" height="400" version="1.1" width="400" xmlns="http://www.w3.org/2000/svg" xmlns:ev="http://www.w3.org/2001/xml-events" xmlns:xlink="http://www.w3.org/1999/xlink"><defs /><rect fill="black" height="100%" width="100%" x="0" y="0" /><circle cx="200" cy="200" fill="yellow" r="20" stroke="orange" stroke-width="2" /><polyline fill="none" points="198.43914581857865,200.0 198.38626974417488,199.9152865332207 198.34077393638398,199.8253150306174 198.3034171088911,199.7308315827574 198.27489760396296,199.6326876878205 198.25584033408032,199.531836695627 198.24678375168145,199.4293287456806 198.2481670106456,199.32630416130917 198.26031749170662,199.22398527865204 198.28343887098026,199.1236667072908 198.31759991602095,199.02670403861447 198.36272419711116,198.9345010383987 198.4185809026595,198.84849538137715 198.48477694648372,198.77014300759 198.56075055124697,198.70090120278397 198.64576648627695,198.6422105278582 198.73891312933986,198.59547574504174 198.83910151059143,198.56204591085742 198.94506648284906,198.54319382768202 199.05537014551481,198.5400950665376 199.16840762995335,198.55380679332177 199.28241533195413,198.58524664868287 199.39548165218125,198.6351719478334 199.505560278374,198.7041594804502 199.61048601368321,198.79258620210544 199.70799312412598,198.90061111710094 199.7957361449733,199.02815865783796 199.87131305124183,199.17490386767443 199.9322906616775,199.34025969234023 199.9762321090618,199.5233666791822 200.00072617274637,199.72308537359845 200.00341823245978,199.93799168784508 199.98204256609867,200.1663754988512 199.9344556788963,200.40624270869395 199.8586703175682,200.65532097395618 199.75288979128314,200.91106927835682 199.61554219213616,201.17069148691075 199.4453140817382,201.43115397960096 199.24118318812242,201.68920741835535 199.00244963891913,201.94141265330217 198.72876524317792,202.18417072318084 198.42016032579775,202.4137568508286 198.07706761571512,202.62635827832398 197.70034269220363,202.81811572819083 197.2912805032248,202.9851682176475 196.85162748603977,203.1237008928853 196.38358884349734,203.2299954904835 195.8898305597266,203.30048297406753 195.37347577648305,203.33179783698856 194.83809519614113,203.32083350696664 194.2876912292201,203.264798237151 193.72667566320922,203.16127082076804 193.15984069505487,203.00825542432648 192.59232324162153,202.80423479809045 192.02956252027394,202.5482210930666 191.47725097486756,202.23980349190114 190.94127871020856,201.8791918476301 190.4276716896646,201.46725551989837 189.94252404519472,201.00555660372916 189.49192494564102,200.49637676176823 189.08188056662073,199.9427368976498 188.7182318026187,199.34840894612572 188.40656845768797,198.7179191051499 188.15214074422371,198.056541896375 187.9597690082482,197.37028451351804 187.83375268314478,196.66586100266488 187.77777955040756,195.95065591453658 187.79483645431156,195.2326771755975 187.88712267605533,194.5204980420471 188.05596722050055,193.82318812743932 188.30175130380175,193.15023362997366 188.62383735171247,192.51144702829896 189.0205058249905,191.91686666368477 189.48890117902465,191.3766467802114 190.02498823862052,190.90093875161594 190.62352022500204,190.49976438186636 191.27801960987657,190.18288232454572 191.98077289041433,189.95964882172123 192.72284027896129,189.83887411404905 193.49408118220418,189.8286760182426 194.28319620654622,189.93633230346856 195.07778627007878,190.1681336224422 195.86442922746753,190.52923886367924 196.62877422328353,191.02353488623928 197.3556537830608,191.6535026751296 198.02921343117868,192.42009201216047 198.6330583923536,193.3226067913986 199.1504166911656,194.3586031185346 199.56431771397132,195.5238023177145 199.85778504237294,196.81202092614902 200.01404210994355,198.21511968479706 200.01672897721107,199.72297343160105 199.85012826721615,201.32346367138928 199.49939805869582,203.00249543326836 198.95080929965656,204.74403983205454 198.191985084431,206.530203525389 197.21213893597988,208.34132600338623 196.00230905593241,210.15610536415238 194.55558535136493,211.95175291787686 192.86732592323386,213.70417662650237 190.93535961021794,215.38819302770696 188.76017112682428,216.97776691403305 186.34506531908784,218.44627764386297 183.69630708786866,219.766810554378 180.8232336011262,220.9124715318791 177.73833553472628,221.8567223765006 174.45730424797995,222.57373418137615 170.99904201639728,223.03875553600247 167.38563271069617,223.22849196543555 163.64227062798702,223.1214926368231 159.79714554768947,222.6985400085494 155.8812824998924,221.94303777099063 151.92833519563433,220.84139213759846 147.9743325743314,219.38338129678544 144.05737846996766,217.56250763476936 140.21730498061362,215.37632719285233 136.4952807405505,212.82675073498277 132.93337593522472,209.9203107779131 129.5740865602292,206.66838898141663 126.45982109961803,203.0873984138954 123.63235347860575,199.19891540270575 121.13224682299827,195.02975595133017 118.99825322396585,190.61199205902423 117.26669535296348,185.98290371376427 115.97083638835437,181.18486284628074 115.14024529294667,176.26514613072356 114.80016501041216,171.27567419404753 114.97089161856086,166.27267554838485 115.66717287891734,161.31627438420233 116.89763494539656,156.47000225144848 118.66424623085294,151.8002346045345 120.96182757009295,147.3755541870285 123.77761785340974,143.2660442743701 127.09090422839344,139.5425158676095 130.87272577315957,136.27567402693322 135.0856592257003,133.53522963833015 139.6836949074896,131.38896400703476 144.61221040171563,129.90175475337617 149.80804883598688,129.13457253568268 155.1997077759989,129.1434591256774 160.7076437620577,129.9784982986717 166.2446964178622,131.6827918578914 171.7166348357037,134.29145387343343 177.02282760126343,137.83063686576926 182.05703637340795,142.3166041858168 186.70833139065934,147.75486322337474 190.86212564912253,154.13937429889674 194.4013228012574,161.45185014690344 197.20757207749264,169.6611607707653 199.16262175154222,178.7228581275394 200.14976087530113,188.57883457911888 200.0553372217696,199.15712831516518 198.77033761732167,210.3718880092777 196.192015141682,222.12350781007103 192.22554605002128,234.29894239325654 186.7856977521099,246.77221021213202 179.79848779439027,259.4050912875273 171.202812558143,272.04802388272816 160.95202333644752,284.54120222563483 149.01542660963753,296.7158750840273 135.37968472781165,308.3958424880171 120.05009285280795,319.39914524739686 103.05170793239523,329.5399391545696 84.43030569577965,338.63054292293907 64.25314218900996,346.4836460157877 42.60949722586412,352.9146596041662 19.610978325595767,357.7441909889947 -4.608434748694208,360.80061896942533 -29.892622844253623,361.92274487540874 -56.0638534150678,360.96249134767356 -82.92361282034602,357.787618484428 -110.25375515821923,352.28442472311065 -137.81797461770321,344.36039782971056 -165.36360477747093,333.9467796694808 -192.62374444481594,321.001007072301 -219.3197055413106,305.5089901230787 -245.16377423704813,287.4871886399469 -269.86227205198554,266.98444748548036 -293.1188990245485,244.08355172033157 -314.6383363428131,218.90246348228843 -334.1300810948435,191.59520388008661 -351.3124810790116,162.35234514846977 -365.9169329823857,131.40108083160743 -377.69220274885083,99.00484485238258 -386.4088226841046,65.46245398498326 -391.8635158494294,31.10675247028456 -393.88359464855876,-3.69725771718214 -392.3312772807649,-38.55481214799343 -387.1078629865142,-73.04431017191382 -378.1577048163223,-106.72077127421068 -365.4719170730268,-139.11981407071522 -349.0917536734312,-169.7621434554609 -329.1115935037135,-198.15852412318105 -305.6814694553659,-223.8152111800818 -279.0090792695823,-246.23980090877347 -249.36121862557985,-264.9474570530577 -217.0645801116242,-279.467460327607 -182.50586583665904,-289.3500213344092 -146.13116648556917,-294.1732897849972 -108.44456559144669,-293.5504859916251 -70.00593468150157,-287.13707411119657 -31.42789272499016,-274.63789071412384 6.628088065457462,-255.8141370179223 43.45643860369432,-230.49013868282395 78.31310983421831,-198.55977352219395 110.42203771180003,-159.9924649383342 138.98243240582917,-114.83863745301181 163.1768560201285,-63.234530453555976 182.18004091028243,-5.406267302509349 195.16838824998908,58.32692066571781 201.3300739853519,127.55041195318303 199.87567687154376,201.75294596280446 190.04923106926114,280.32649204024233 171.13959395605445,362.5673129803433 142.49200855346555,447.6782897478306 103.51972946298804,534.77256294192 53.715571622841026,622.8785338723251 -7.336767275236355,710.9462540703553 -79.95176705501672,797.8552167160724 -164.33169007807032,882.4235469242337 -260.55689717572824,963.4185702239388 -368.57704294333337,1039.5687200368243 -488.2033192041505,1109.5767256750896 -619.1019137291815,1172.1340025329828 -760.7888473845561,1225.93614594282 -912.6263466719258,1269.6994098366642 -1073.8209000530785,1302.1780311418036 -1243.4231354559358,1322.182241001525 -1420.3296429200352,1328.5967847242853 -1603.2868504585051,1320.3997541063088 -1790.8970429252586,1296.6815187345542 -1981.6265930460359,1256.66352735223 -2173.81645090058,1199.716736652418 -2365.694913164677,1125.3794132484077 -2555.3926665046733,1033.3740453372438 -2740.9600708687467,923.623094000411 -2920.386618278768,796.2633104323007 -3091.622471369159,651.658344894118 -3252.601953653535,490.4093760760652 -3401.268830666408,313.36349600427116 -3535.603188096485,121.61959580961286 -3653.6496801977387,-83.46848829326188 -3753.54688955638,-300.2917915041795 -3833.5575081485017,-526.9892001624285 -3892.0990200032197,-761.4537695434983 -3927.774538160116,-1001.3425247579971 -3939.403423455118,-1244.0898561675797 -3926.0512904639318,-1486.9245834797255 -3887.0589871505404,-1726.8907220125727 -3822.0701198733836,-1960.8719408099082 -3731.0566848390013,-2185.619655669477 -3614.3423612835395,-2397.7846511167945 -3472.6230209981823,-2593.9520743607018 -3306.9840136466128,-2770.6795918071953 -3118.9137979608918,-2924.5384453414213 -2910.3135056016545,-3052.157091915067 -2683.5020474284443,-3150.2670566464153 -2441.21640127991,-3215.7505773389976 -2186.606756174147,-3245.6895677713424 -1923.2262300941602,-3237.4153790511277 -1655.0149271281264,-3188.558793527092 -1386.2781545091912,-3097.0996449864033 -1121.6586807772956,-2961.4154229117917 -866.1029825062935,-2780.328188200984 -624.8214983509007,-2553.149103712416 -403.2429850233772,-2279.7198660186996 -206.96314957110621,-1960.4503155083748 -41.68781526090601,-1596.3515011076895 86.82903633312712,-1189.0634839721677 172.85191769881143,-740.8771820189635 210.73466565950147,-254.74958455115484 194.99484636940915,265.6882962164183 120.39104691751047,816.131321969124 -17.99771663341852,1391.6085002381867 -224.69132292334524,1986.5000893645092 -503.72752148853795,2594.563915142007 -858.5815483372146,3208.971188561656 -1292.0874259862146,3822.352015259974 -1806.3620421512765,4426.850679468014 -2402.733140077323,5014.190669199098 -3081.6723807947174,5575.749285995906 -3842.734652283692,6102.641552822713 -4684.504801595427,6585.812998828172 -5604.55295248803,7016.140761051103 -6599.399542282136,7384.542302168196 -7664.491166754551,7682.090901686788 -8794.188260452956,7900.136937281151 -9981.765561487095,8030.43383507495 -11219.42621447479,8065.267434489226 -12498.330252940134,7997.587386775888 -13808.638073332657,7821.139088563653 -15139.569367450706,7530.5945447050135 -16479.47781912251,7121.680460480108 -17815.941695492147,6591.301783817859 -19135.870274377103,5937.65885561612 -20425.625848365802,5160.35628238686 -21671.160835308237,4260.501622119082 -22858.16930555839,3240.7919731051006 -23972.2520109298,2105.5865780161403 -24999.093771221582,860.9636030468704 -25924.65184395932,-485.24067444233856 -26735.353674468442,-1923.4119358417397 -27418.302199509795,-3442.1586868483028 -27961.486661553892,-5028.335301065468 -28353.996685563096,-6667.088440746964 -28586.237179169744,-8341.92784328908 -28650.14144371648,-10034.82222518288 -28539.379731096706,-11726.320793027962 -28249.560352989356,-13395.700565454568 -27778.420348149506,-15021.139402370141 -27126.00264297465,-16579.914311216464 -26294.816603546788,-18048.62425666321 -25289.978876441233,-19403.436343537116 -24119.33145323058,-20620.35387633439 -22793.533971910572,-21675.50442628992 -21326.127389177906,-22545.44566291231 -19733.56632194272,-23207.4863356824 -18035.21756554325,-23640.019428063653 -16253.322550233424,-23822.8641551187 -14412.921796492863,-23737.61314308479 -12541.739772849616,-23367.980819575256 -10670.02894589473,-22700.148762048553 -8830.372239076956,-21723.103505243318 -7057.443582123575,-20428.962100768582 -5387.726733319653,-18813.280559184936 -3859.1930885225715,-16875.340191732914 -2510.9397491713476,-14618.40681009619 -1382.7897015142908,-12049.957742599441 -514.8565550567041,-9181.871687975909 52.9231065305853,-6030.576556716283 281.2861009963718,-2617.150647853679 132.16348556058819,1032.6272219887583 -430.7789969294462,4888.282678951865 -1441.5862875970606,8914.709468685309 -2931.4511609263286,13072.29498891804 -4928.1496201610635,17317.110258010343 -7455.48146031556,21601.166270814647 -10532.723320194853,25872.73799794819 -14174.101880329445,30076.75652716578 -18388.29512647063,34155.26903117407 -23177.969780125117,38047.96538126384 -28539.363090851268,41692.76931792686 -34461.91718260319,45026.49114657179 -40927.97404191258,47985.53795795381 -47912.53902360845,50506.676389331486 -55383.120425526504,52527.84195488981 -63299.652243771205,53988.98799463834 -71614.5066622945,54832.966332541175 -80272.60215389235,55006.43081038615 -89211.6122746438,54460.7539876332 -98362.2793222914,53152.946483318716 -107648.83600463561,51046.56769832326 -116989.53713185649,48112.61600921915 -126297.30211366448,44330.385982634114 -135480.46771691088,39688.27973536419 -144443.64913203704,34184.55927354747 -153088.70591957748,27828.026496530943 -161315.80787447208,20638.617559138722 -169024.59427160077,12647.898460181423 -176115.41835746748,3899.4490742198636 -182490.66734867397,-5550.876624827197 -188056.14660729168,-15634.825680050939 -192722.51510714268,-26271.76722847458 -196406.75780503912,-37368.86905471253 -199033.6791096181,-48821.43784080612 -200537.40032046605,-60513.429845830266 -200862.84271500245,-72318.1370797386 -199967.17691330233,-84099.05219199829 -197821.21827460037,-95710.91328808722 -194410.74739600276,-107000.92772990564 -189737.73431538793,-117810.17168641827 -183821.44478677335,-127975.15979797339 -176699.40701623875,-137329.5768240668 -168428.2175365556,-145706.16058477847 -159084.1654734405,-152938.7229081176 -148763.6553277854,-158864.29268883073 -137583.4095753372,-163325.3625807035 -125680.433873916,-166172.21831769464 -113211.72947074898,-167265.3272246322 -100353.73951745145,-166477.76017214434 -87301.5184221833,-163697.6190902493 -74267.61608808342,-158830.4402183713 -61480.67189019932,-151801.5415741654 -49183.71651155333,-142558.2817067142 -37632.18326973324,-131072.19569765124 -27091.634291071576,-117340.9736213829 -17835.210798120002,-101390.24630561158 -10140.82083135807,-83275.1432759839 -4288.081887283378,-63081.58825104207 -555.0401775400435,-40927.298499180724 785.3075508676674,-16962.45579725009 -531.340502220987,8629.981344628424 -4756.81264469708,35634.35209623473 -12126.590274358763,63802.7793214011 -22855.881520805473,92856.08870737177 -37135.68734948468,122485.17857620958 -55128.908668361684,152352.85351477028 -76966.5457221412,182096.13006928633 -102744.04334935722,211329.01743000094 -132517.83745505736,239645.7703179223 -166302.15925977685,266624.6052244193 -204066.15447087024,291831.864797156 -245731.37443605607,314826.60857200343 -291169.69553733483,335165.60148628335 -340201.72152831376,352408.6647467168 -392595.7211783714,366124.3467446015 -448067.15043936984,375895.8648952913 -506278.8043801916,381327.2626183264 -566841.6393351306,382049.71926159546 -629316.3000885681,377727.94470419426 -693215.3804851014,368066.58474673465 -758006.4386371159,352816.558314314 -823115.7799380473,331781.24305582617 -887933.012428364,304822.42222201213 -951816.3697635747,271865.9028392066 -1014098.7871723986,232906.71325778318 -1074094.7054537022,188013.78723010363 -1131107.5673392385,137334.0418416367 -1184437.9595536704,81095.7579520277 -1233392.3427521796,19611.17436162396 -1277292.300337381,-46721.78924646726 -1315484.2260886184,-117418.7603905092 -1347349.3597231274,-191909.16621643055 -1372314.0691014326,-269537.57575007505 -1389860.2679455662,-349566.1882878072 -1399535.8488185029,-431178.5137517155 -1400965.0028782762,-513484.2790770876 -1393858.2907325623,-595525.581729931 -1378022.3227386593,-676284.2973512848 -1353368.9024746998,-754690.7333926997 -1319923.483999744,-829633.5045623629 -1277832.7920625133,-899970.5890829843 -1227371.454740069,-964541.5073276211 -1168947.5002034737,-1022180.5465239718 -1103106.573517038,-1071730.9370941345 -1030534.7356622351,-1112059.8680342983 -952059.7153974269,-1142074.2107605203 -868650.4951586773,-1160736.8032887792 -781415.1249889086,-1167083.129726437 -691596.6734399028,-1160238.2140827947 -600567.2414839275,-1139433.532619065 -509819.98462946236,-1104023.7356159978 -420959.1095584733,-1053502.9578031744 -335687.8345599782,-987520.4870269222 -255794.32766347151,-905895.5532859049 -183135.66248164896,-808630.9952758442 -119619.85912907239,-695925.5592845147 -67186.10593538522,-568184.5858737234 -27783.286732346256,-426028.8434628292 -3346.9679492999985,-270301.27484933124 4224.970738260928,-102071.43299723491 -6902.150738902383,77362.60380890594 -38473.39794498233,266475.03004574747 -92117.17386341779,463515.9960146927 -169317.83242074517,666518.3232446122 -271388.27236210485,873307.3717351711 -399442.85184743087,1081514.1473347181 -554370.9829684732,1288591.7031499445 -736811.7810114329,1491834.851513774 -947130.1552989548,1688403.1629584834 -1185394.736447059,1875347.1861703063 -1451358.0384993255,2049637.7784076664 -1744439.2533141612,2208198.3897658847 -2063710.068479318,2347940.09743283 -2407883.888650736,2465799.138213474 -2775308.823348724,2558776.6396604846 -3163964.781735856,2623980.2027242216 -3571464.9866494276,2658666.9425530024 -3995062.186134018,2660287.5495859766 -4431659.800953264,2626530.891059791 -4877828.20116423,2555368.6341842473 -5329826.254000963,2445099.3372265142 -5783628.229304102,2294391.4242715337 -6234956.087900417,2102324.434181235 -6679317.113114387,1868427.9149214465 -7112046.77650088,1592717.3215983175 -7528356.65652317,1275726.2708419678 -7923387.153945753,918534.5061425972 -8292264.670926588,522790.9388717965 -8630162.843008127,90731.14843153367 -8932367.335326204,-374811.2473952091 -9194343.63733824,-870399.9040085552 -9411807.21523728,-1391998.249444209 -9580795.30902396,-1934979.622160156 -9697739.593051478,-2494145.4327530577 -9759538.855857277,-3063751.6612093267 -9763630.798377289,-3637543.9184733466 -9708062.000332199,-4208801.209899696 -9591555.06378971,-4770388.439120275 -9413571.911719587,-5314817.58470893 -9174372.19880108,-5834317.369609726 -8875065.78278329,-6320911.125589648 -8517658.208224948,-6766502.433091375 -8105088.171244646,-7162967.992033803 -7641255.964676483,-7502257.052693408 -7131041.948299748,-7776496.609263458 -6580314.149005445,-7978101.433597658 -5995924.171126927,-8099887.904653053 -5385690.687774429,-8135190.471977779 -4758369.8897697,-8077979.481025181 -4123612.3893738072,-7922978.985932275 -3491906.210935244,-7665783.083515595 -2874505.6491340324,-7302969.222436927 -2283345.936730607,-6832206.875581812 -1730943.8364827894,-6252359.913421668 -1230284.4547992945,-5563580.983171959 -794694.7661536165,-4767396.184480108 -437704.5354817681,-3866778.3386207963 -172895.52871600754,-2866207.1760241706 -13740.10705716602,-1771714.817515778 26569.493826406626,-590914.9987969999 -64700.30468672773,666985.4138995986 -299639.784372745,1991193.945985577 -689507.0746711458,3369360.255691683 -1244537.1534492173,4787625.102979708 -1973750.9415714815,6230691.358397958 -2884766.877683952,7681917.644289168 -3983617.488771716,9123434.958871305 -5274573.578557972,10536286.37126059 -6759978.736842313,11900589.5943817 -8440096.92571139,13195721.945158206 -10312975.920650618,14400526.889998788 -12374329.37360726,15493541.051337706 -14617440.218926484,16453240.221135465 -17033088.060019772,17258302.59338686 -19609503.05319225,17887887.09370877 -22332348.644190155,18321924.354133077 -25184735.31209761,18541417.55968624 -28147267.23401814,18528750.08475944 -31198123.50284226,18267996.546368692 -34313175.210133255,17745233.632975627 -37466139.34813518,16948846.826432012 -40628770.091035806,15869828.925651392 -43771087.58841391,14502066.10855754 -46861643.94633224,12842607.138316149 -49867825.58748356,10891911.23523487 -52756190.67538949,8654070.101141475 -55492839.76369829,6136999.602303847 -58043817.29546569,3352596.6934039546 -60375541.03479834,316857.3016023525 -62455255.97069567,-2950048.9113484034 -64251508.69711309,-6423750.7279551085 -65734637.75128681,-10075697.985661281 -66877274.89164005,-13873237.716654437 -67654851.82477337,-17779746.45565929 -68046106.45595519,-21754820.83259483 -68033582.34701452,-25754527.983698975 -67604114.72747207,-29731716.673309166 -66749296.1268252,-33636389.3230139 -65465914.48562386,-37416134.40039138 -63756356.4674761,-41016617.83199989 -61628968.640116155,-44382131.28161402 -59098369.227257654,-47456194.28269899 -56185703.25961377,-50182206.342534944 -52918834.17784577,-52504144.25373462 -49332465.26604799,-54367298.96745396 -45468184.724435836,-55719045.51234478 -41374428.7258278,-56509638.59584319 -37106357.44267432,-56693025.71174682 -32725639.778981924,-56227668.81271735 -28300143.392200038,-55077364.90096558 -23903527.540375464,-53212055.257809244 -19614737.334407687,-50608612.48568379 -15517399.10745702,-47251594.08718782 -11699117.825173235,-43133950.966867715 -8250678.74175204,-38257679.024442926 -5265156.846545159,-32634401.92373783 -2836939.031359201,-26285873.17982428 -1060665.3254436122,-19244385.91642895 -30096.978026488425,-11553079.01426585 163079.39969413768,-3266128.9044438964 -569498.9922154528,5551183.035863855 -2311580.6551987682,14822536.653377835 -5140981.311031676,24460780.874466915 -9128251.988197993,34368290.14809751 -14335349.380820904,44437474.991005816 -20814325.209890097,54551450.60233082 -28606052.20183351,64584865.81417931 -37739005.02494904,74404892.80160046 -48228115.070195645,83872376.00390232 -60073718.31042437,92843136.62474181 -73260615.60381965,101169426.89965513 -87757264.70689036,108701526.06714763 -103515122.91564785,115289467.6765052 -120468158.6482918,120784885.53711002 -138532549.40919146,125042963.28779441 -157606582.42489854,127924470.2694394 -177570772.8144137,129297864.15052016 -198288212.44680354,129041438.61530223 -219605160.65219316,127045492.41099179 -241351885.69304523,123214494.19668028 -263343763.38159016,117469215.97735147 -285382636.45987284,109748806.47398746 -307258435.35918367,100012774.6091265 -328751057.74734175,88242852.40798764 -349632500.8815042,74444706.059102 -369669237.24068606,58649463.67376195 -388624820.25003654,40915028.45667748 -406262703.1655474,21327146.574089542 -422349250.4045358,200.0000005172289" stroke="white" stroke-width="1.5" /></svg>