<?xml version="1.0" encoding="utf-8" ?>
<svg baseProfile="full" height="400" version="1.1" width="400" xmlns="http://www.w3.org/2000/svg" xmlns:ev="http://www.w3.org/2001/xml-events" xmlns:xlink="http://www.w3.org/1999/xlink"><defs /><rect fill="black" height="100%" width="100%" x="0" y="0" /><circle cx="200" cy="200" fill="yellow" r="10.000437165840184" stroke="orange" stroke-width="2" /><polyline fill="none" points="199.59288141804893,200.0 199.49892943201522,199.97369608411205 199.4025308568562,199.9370978546771 199.3046424023018,199.88967924587067 199.20630079778212,199.83100395094726 199.10861516918047,199.76073654492842 199.01275800156301,199.6786530868025 198.91995470551385,199.58465103413707 198.8314718232531,199.47875830035503 198.74860393005733,199.36114128421255 198.67265930644737,199.23211170237107 198.6049444769525,199.09213205950974 198.54674773177214,198.94181959627102 198.49932176809767,198.78194856355998 198.46386560796452,198.61345068237858 198.4415059690069,198.43741366150311 198.43327828310345,198.25507766090757 198.44010757533687,198.067829606868 198.46278943165208,197.87719528509277 198.5019712977856,197.68482916091722 198.55813436415946,197.4925019004462 198.63157630119795,197.3020855933641 198.72239511665236,197.11553670675247 198.8304744107461,196.93487682943095 198.95547030603083,196.76217129778942 199.0968003265499,196.59950582650833 199.2536344950409,196.44896130062742 199.42488890730968,196.31258691875564 199.60922202944013,196.19237191041628 199.80503394607928,196.09021608317317 200.01046876660533,196.0078994868405 200.22342037054483,195.9470515122808 200.44154164420567,195.9091197705704 200.66225732723086,195.8953391241775 200.88278055081312,195.9067012647712 201.1001331088522,195.94392525188303 201.31116945965468,196.0074294424039 201.51260440919896,196.09730525236566 201.7010443778988,196.2132931991999 201.87302210164324,196.354761674283 202.02503456516433,196.52068889170545 202.15358391203722,196.70964844952445 202.25522102145337,196.91979892400272 202.3265913879691,197.14887789529305 202.36448288740596,197.39420077455094 202.36587496068816,197.65266476746723 202.32798869839363,197.92075826771318 202.2483372629362,198.19457592585553 202.1247760433739,198.46983958510071 201.955551900631,198.74192521501502 201.73935082921247,199.00589590849012 201.4753433360409,199.25654093612087 201.1632268185908,199.48842077636732 200.80326421373599,199.69591796001743 200.39631818630727,199.87329348426823 199.9438801328722,200.01474846601573 199.448093292211,200.11449061658385 198.91176927980825,200.16680503210492 198.33839739974934,200.16612870614495 197.7321461339381,200.1071280850561 197.09785626566193,199.98477890311528 196.4410251622185,199.79444745498313 195.76778181945258,199.53197238864834 195.08485235935856,199.19374603407272 194.39951576996728,198.7767942225025 193.71954978398867,198.27885350012448 193.0531669084049,197.698444598658 192.40894074053057,197.03494099578495 191.79572283595024,196.2886313811557 191.22255052903716,195.46077484012758 190.69854624612282,194.55364757834485 190.2328089933707,193.57058003659293 189.83429884441367,192.5159832877577 189.511715395133,191.3953636667411 189.27337129277393,190.215324660206 189.12706208199734,188.9835551762402 189.07993373948327,187.7088034244327 189.1383493892925,186.4008357642207 189.307756801298,185.07038002325083 189.592558372541,183.72905294720871 189.9959853742965,182.38927161719215 190.51997831393714,181.06414885905173 191.16507530842483,179.76737286977865 191.93031039360014,178.51307149731196 192.8131236986705,177.31566183014655 193.80928539687955,176.18968597969888 194.91283529990918,175.1496341691498 196.11603989399535,174.20975647483976 197.40936851913804,173.3838647974626 198.78149026854848,172.6851268673287 200.219293033297,172.1258543077488 201.70792593702473,171.71728698990398 203.2308661979311,171.46937610811256 204.77001122078556,171.39056858282305 206.30579646155743,171.48759555658978 207.81733932292767,171.7652678823846 209.28260903235622,172.22628161060254 210.67862212785795,172.8710365578823 211.98166283290684,173.69747108440544 213.16752724407488,174.70091621389517 214.21178988662032,175.87397219959823 215.09009081814636,177.2064105679135 215.77844108287542,178.6851045571892 216.25354394355176,180.2939907111238 216.4931289493106,182.01406418319178 216.47629554107598,183.82341006009568 216.18386255641087,185.69727271846574 215.59871967861233,187.6081648905056 214.70617658567602,189.52601773223168 213.49430529901701,191.4183727642123 211.95427101494855,193.2506160917572 210.08064652918722,194.9862548124745 207.8717052411792,196.58723498779045 205.32968765565843,198.01429999586267 202.461036288048,199.22738750140473 199.27659393214745,200.18606267899077 195.79176036657248,200.84998471673455 192.02660276358588,201.17940301370447 188.0059153225859,201.1356788744167 183.75922398216954,200.68182790506674 179.3207324701265,199.78307773702483 174.72920642984275,198.4074351520405 170.02779291337748,196.52625616931715 165.2637731539235,194.1148121859844 160.488247220459,191.15284484840592 155.75574991109264,187.62510198101415 151.1237980537819,183.52184662056834 146.65237024756772,178.8393310051728 142.403320986985,173.5802272569178 138.4397320585553,167.7540064818784 134.82520507195494,161.37725809801282 131.62309997929304,154.47394139597907 128.89572543275307,147.07556164483273 126.7034878216481,139.22126347769085 125.10400680198885,130.9578348342638 124.15120607160833,122.33961539888168 123.89438903789097,113.42830425406382 124.377309859016,104.29266236910208 125.63725109894136,95.00810655726123 127.70411990668924,85.65619265910907 130.5995751975463,76.32398693653892 134.33619876358864,67.10332598389695 138.91672356003835,58.089966869156285 144.333332589624,49.38263069748277 150.56704182756653,41.081944328277785 157.5871804843924,33.28928655969867 165.35098158318442,26.105546705002894 173.80329532437528,19.62980510466042 182.87643701878298,13.957946727468226 192.49018048424267,9.181220592213208 202.5519067209924,5.384759267008064 212.95691640631537,2.646074153790522 223.58891328266057,1.0335436175400048 234.32066386095156,0.6049122501073896 245.01483703015433,1.4058206437355807 255.52502516623903,3.468385966128835 265.69694618208064,6.809854354639867 275.3698236711005,11.43134665993307 284.37793989081007,17.316719348744414 292.5523538299437,24.43156240194068 299.7227740292671,32.72235580074886 305.71957320866414,42.115805665730164 310.3759291213769,52.518380287279484 313.5300734420743,63.81606515349969 315.0276279324512,75.87435463475774 314.72400465163037,88.53849622104583 312.4868446253582,101.63400112918498 308.1984671953642,114.96743270663895 301.7583002763506,128.32748136609197 293.08525999098015,141.48633180331413 282.1200466706801,154.20132499783747 268.82732303889605,166.21691399395036 253.19773956903023,177.2669087353409 235.2497715651824,187.07700131183904 215.03133248095705,195.36755890704916 192.62112839796427,201.85666755148944 168.12971945559235,206.2634055315379 141.70025537738002,208.3113210282581 113.50885409244631,207.73208431376014 83.76459481329692,204.26928067097413 52.70909980874549,197.68230618300228 20.615682501210415,187.75032472010392 -12.211956586421678,174.2762408968394 -45.441500122530016,157.09064054078027 -78.71425972957326,136.0556473693976 -111.64790115474835,111.06864217453193 -143.83964708590457,82.06578892402406 -174.86994979101564,49.02531086513085 -204.30661939193334,11.97045900857799 -231.70938696562723,-29.02788466423911 -256.6348748642776,-73.84902625001592 -278.6419397317009,-122.32075677489263 -297.2973467460905,-174.21818017564868 -312.18172672226706,-229.2631227068057 -322.895760949586,-287.1241702098612 -329.0665321178968,-347.4173749850454 -330.3539734902025,-409.7076684765325 -326.45734271609604,-473.5110096319147 -317.12164144513827,-538.2972916500311 -302.143897294662,-603.4940219234702 -281.3792208515329,-668.4907813606254 -254.74654733928327,-732.6444599965929 -222.23397045402714,-795.2852559440078 -183.9035747527717,-855.7234143776975 -139.89567294761565,-913.2566724863939 -90.43235559228339,-967.1783652672532 -35.82026300715984,-1016.7861358026003 23.54750707156606,-1061.3911823706749 87.19043767355134,-1100.3279635403958 154.54065185534594,-1132.964271429251 224.94406062457614,-1158.7115727154307 297.66265809195164,-1177.0355069475645 371.87801206403424,-1187.466422349049 446.69598664477263,-1189.6098208323256 521.1527205339604,-1183.1565764849493 594.2218706734857,-1167.8927855254358 664.8231157947391,-1143.7091008104653 731.8318983793787,-1110.6094005572202 794.0903666975453,-1068.7186391686218 850.4194610877604,-1018.2897280468403 899.632070665398,-959.7092961706278 940.5471683833846,-893.5021840980273 972.004814027716,-820.3345310231417 992.8818965344014,-741.0153226290402 1002.1084691996991,-656.4962777814839 998.6845141690862,-567.869964618295 981.6969562882063,-476.36605129918587 950.3367312431212,-383.345613555097 903.9156991728103,-290.2934401494419 841.8831828695819,-198.8082983409982 763.8418995553218,-110.59114429239736 669.5630472891417,-27.431287941004854 559.0003015708194,48.809452050324154 432.3024748861545,116.21454023886703 289.8245920091134,172.83237176196667 132.1371370239352,216.69765440234622 -39.9667655747576,245.85437496660683 -225.4664635664322,258.38016978369836 -423.1113980674196,252.41188957422543 -631.4214307386595,226.1721200147022 -848.690054491092,177.9963914252533 -1072.9906410536432,106.3607845608762 -1302.1858512671354,9.909614911132621 -1533.9403030579656,-112.51714435779405 -1765.7365578848387,-261.85706022000227 -1994.8944492471865,-438.79943414042316 -2218.5937368542636,-643.7608815297324 -2433.900027590169,-876.862693694288 -2637.7938598347077,-1137.9103841395906 -2827.2028014263974,-1426.375820854505 -2999.0363640437854,-1741.3823409612908 -3150.2234885426465,-2081.693233592804 -3277.7523073717234,-2445.7039608309833 -3378.711842187314,-2831.4384648392233 -3450.3352478242373,-3236.549881837615 -3490.044168509197,-3658.325950256786 -3495.493729300242,-4093.6993612886436 -3464.6176458948903,-4539.26325522828 -3395.6728998698645,-4991.292016645776 -3287.2833947985296,-5445.7674657959005 -3138.481982230222,-5898.410483106914 -2948.7502258827467,-6344.718038508869 -2718.0552582429427,-6780.005528274943 -2446.883076700278,-7199.4542495479955 -2136.2676269170684,-7598.163767480609 -1787.8150298714977,-7971.208852684607 -1403.7223263341798,-8313.700588291536 -986.7901388140465,-8620.851167267174 -540.4286865092564,-8888.041822661833 -68.65663369840473,-9110.893257229787 423.90769362166293,-9285.337865379508 932.0631242448696,-9407.692970822332 1450.0508197380161,-9474.734238694316 1971.5880601761528,-9483.76836247452 2489.9107933059454,-9432.704074851603 2997.825004200735,-9320.120488921699 3487.7668565446324,-9145.331742830775 3951.8714442703013,-8908.446898254633 4382.049874337465,-8610.424031925353 4770.074279077475,-8253.117460681335 5107.6702309658285,-7839.317055052562 5386.615905268923,-7372.778624903724 5598.8472082045255,-6858.244403727218 5736.56796162014,-6301.452716242832 5792.364111384268,-5709.1359873054425 5759.320807432333,-5089.0063388567205 5631.14109049907,-4449.72812570761 5402.264815833263,-3800.8768800379903 5067.986349479173,-3152.884268174905 4624.569489869387,-2516.9688107718503 4069.3579983360387,-1905.0522780584465 3400.880068483786,-1329.6618442282784 2618.945027887115,-803.8182679379945 1724.7305478787978,-340.91055772775326 720.8586397641245,45.442219845309296 -388.54126004735315,341.54112743934377 -1597.7837666092812,533.7684705217641 -2899.5951647568936,608.7585606631878 -4285.098654281398,553.57664618143 -5743.8185872858985,355.9043267578188 -7263.704918262463,4.229575093405259 -8831.178917764324,-511.96069450094205 -10431.201006446248,-1201.9877405044067 -12047.361348487473,-2073.790174956218 -13661.9936031211,-3133.737728064881 -15256.31197165002,-4386.452225883021 -16810.57139677452,-5834.638496813568 -18304.250473494503,-7478.9279812690465 -19716.256318842545,-9317.73784677744 -21025.150324163824,-11347.148405815102 -22209.393381844024,-13560.801593509268 -23247.608841864785,-15949.82318523105 -24118.861116211283,-18502.771318480067 -24802.947515109543,-21205.613728203192 -25280.700572710335,-24041.735909070325 -25534.29780573366,-26991.982181978194 -25547.575551474227,-30034.731365387986 -25306.343256278888,-33146.00843576137 -24798.694337024004,-36299.63320661594 -24015.30952112954,-39467.40666442051 -22949.74839006205,-42619.33517411311 -21598.724711782717,-45723.89231045223 -19962.36105367981,-48748.31758730365 -18044.418123408475,-51658.95084950044 -15852.494294625641,-54421.600565836554 -13398.190841334044,-57001.94372236611 -10697.238531434969,-59365.954468304946 -7769.581419581945,-61480.3581187586 -4639.4139333672965,-63313.10657598057 -1335.167666415478,-64833.870701016676 2110.555322480647,-66014.5446578486 5661.105453832757,-66829.75677020724 9275.967049556202,-67257.38098494675 12910.999888733177,-67279.04263317706 16518.74191579912,-66880.61182919714 20048.773427259188,-66052.67755545526 23448.142319944884,-64790.995256906346 26661.849196135227,-63096.900617509054 29633.390295407393,-60977.682122062164 32305.355367589244,-58446.90502441618 34620.07672428764,-55524.6794539364 36520.32481763986,-52237.86560079492 37950.04480444021,-48620.20923119173 38855.12767259144,-44712.40119889627 39184.20864650953,-40562.05514142174 38889.484760772946,-36223.598178343316 37927.54270944895,-31758.070165097866 36260.18735492806,-27232.82789605627 33855.260627656375,-22721.151592286933 30687.439979751845,-18301.752047291757 26739.00508382879,-14058.17793163266 22000.561105782377,-10078.123966761694 16471.706638612413,-6452.641959949927 10161.634274703056,-3275.2580348746874 3089.65182652593,-641.0007835596512 -4714.387610381405,1354.6535090921077 -13209.758215255682,2616.910972407397 -22344.64757520731,3052.8565461118174 -32056.066669063875,2572.70619173074 -42269.893125164264,1091.1030485465833 -52901.05614974242,-1471.5556793186495 -63853.870322768125,-5187.775586469671 -75022.52408845998,-10121.621335395446 -86291.7272338173,-16327.389043185332 -97537.51995852048,-23848.312417726465 -108628.2443039802,-32715.32103756618 -119425.67674127065,-42945.86975414662 -129786.31863277039,-54542.858582732115 -139562.8390986583,-67493.66262104094 -148605.66255752998,-81769.2914758219 -156764.69089321746,-97323.69737261563 -163891.14785252066,-114093.2505600099 -169839.53092818154,-131996.3997865121 -174469.6536571045,-150933.53451806694 -177648.75899617432,-170787.06417248398 -179253.68225908602,-191421.72797208073 -179173.0400404226,-212685.14705955933 -177309.41965151983,-234408.62829000357 -173581.54188054192,-256408.2266132105 -167926.3684006554,-278486.0702086027 -160301.12391868417,-300431.9495469736 -150685.20221475852,-322025.16835060663 -139081.9246022777,-343036.65103146894 -125520.11906626313,-363231.2976356164 -110055.4884436482,-382370.57364420936 -92771.73651517656,-400215.3182149157 -73781.42180590909,-416528.75063290633 -53226.51025651358,-431079.65092231333 -31278.59974290692,-443645.68679422105 -8138.791694992438,-454016.8554258886 15962.81220143907,-461999.00502994953 40768.00704526626,-467417.3978355866 65991.79069047036,-470120.27302100597 91324.08976302731,-469982.36536322854 116431.91235903294,-466908.33296257217 140961.9291942931,-460836.04540960677 164543.479763206,-451739.6822445787 186791.99454604505,-439632.59056387376 207312.818526866,-424569.85020239494 225705.41530376658,-406650.49510815233 241567.92494989172,-386019.34036471765 254502.04258402917,-362868.3658416956 264118.1784058564,-337437.60968987487 270040.8538198074,-310015.52786618535 271914.2822942683,-280938.7795860974 269408.07786401466,-250591.4030611993 262223.02877084794,-219403.35108218485 250096.86873947686,-187848.3619371239 232809.97389270706,-156441.14778682418 210190.90941173478,-125733.88991774025 182121.7468320981,-96312.03821216931 148543.07041932753,-68789.42065839718 109458.5894725216,-43802.67770229183 64939.272735772865,-22005.045638085976 15126.921426982592,-4059.5229608060035 -39762.90121608974,9368.536442961424 -99438.66346797516,17619.349313988278 -163531.45765867012,20047.084217923682 -231594.4628081659,16028.623932508848 -303103.3423709718,4972.625331064506 -377457.63483279326,-13671.216244719231 -453983.1864194253,-40402.7999101862 -531935.665515,-75662.25935138746 -610505.1875840642,-119820.7272955439 -688822.0675076381,-173171.3478153798 -765963.7033528567,-235920.66513967008 -840962.5817919166,-308180.5215851082 -912815.3807794469,-389960.59978194564 -980493.1298160632,-481161.7454131536 -1042952.3723146772,-581570.2061101246 -1099147.2584061068,-690852.9198451425 -1148042.4801487206,-808553.9820457305 -1188626.9447335855,-934092.4146577042 -1219928.065105763,-1066761.352451224 -1241026.5316686153,-1205728.7519663225 -1251071.413625316,-1350039.7166229268 -1249295.4242709025,-1498620.5176906546 -1235030.171414935,-1650284.3750666347 -1207721.2023266803,-1803739.0442128612 -1166942.642388311,-1957596.2362529682 -1112411.2182499466,-2110382.8772451645 -1043999.4499294705,-2260554.1901852814 -961747.7922053868,-2406508.559531517 -865875.5040148204,-2546604.1131893173 -756790.0255760917,-2679176.9311871896 -635094.6467704853,-2802560.763974227 -501594.25708165916,-2915108.1166657167 -357298.9772169195,-3015212.528964928 -203425.48550503553,-3101331.854228025 -41395.868329825265,-3172012.315564681 127166.15676984162,-3225913.092343555 300441.774150926,-3261831.167374431 476426.46242005413,-3278726.1437507723 652942.3205746964,-3275744.7212437745 827653.3709018804,-3252244.5056257728 998083.8474443279,-3207816.810746007 1161639.4422866951,-3142308.102951377 1315631.4432533022,-3055839.730889524 1457303.6561842845,-2948825.5811784724 1583861.9631538987,-2821987.302176343 1692506.325240676,-2676366.7444028542 1780464.9952221904,-2513335.2772784056 1845030.662353083,-2334599.6579398494 1883598.2087328748,-2142204.1490980526 1893703.7152478995,-1938528.609299026 1873064.3152719697,-1726282.310557773 1819618.456843549,-1508493.2751075886 1731566.0995253522,-1288492.9648356913 1607408.3412229447,-1069896.2036774007 1445985.9435167674,-856576.264560846 1246516.2021609673,-652635.108103165 1008627.5929181695,-462368.8197531562 732391.6123996137,-290228.35497430543 418351.22959617537,-140775.76781161834 67545.36680388404,-18636.166158870303 -318471.1609010615,71554.29345696328 -737612.8002303782,125203.98849252223 -1187254.034538235,137824.5371178472 -1664226.2705462158,105092.10649967568 -2164821.285425235,22910.732667173128 -2684801.6311602,-112523.00259942986 -3219418.3331699246,-304654.65319009253 -3763436.151995553,-556506.7196751031 -4311166.600802356,-870614.4112831813 -4856508.827879347,-1248963.2234657495 -5392998.382806667,-1692929.2310464655 -5913863.788151872,-2203223.0235112673 -6412090.736236164,-2779838.2258042786 -6880493.623584544,-3422005.554197279 -7311794.02516036,-4128153.351607271 -7698705.5975204,-4895875.529449572 -8034024.785852633,-5721907.813138065 -8310726.595813586,-6602113.14520262 -8522064.578594113,-7531477.043341264 -8661674.068215279,-8504113.640362011 -8723677.605254836,-9513283.048852386 -8702791.38264467,-10551420.595669746 -8594431.458504273,-11610178.360276192 -8394818.399840008,-12680479.327035934 -8101078.950994631,-13752584.325534683 -7711343.263593761,-14816171.78564556 -7224836.18197754,-15860430.176535886 -6641961.051216961,-16874162.83235804 -5964374.505198246,-17845904.693467394 -5195050.701186248,-18764050.31233151 -4338333.495885108,-19616992.289680246 -3399975.107259074,-20393269.120917365 -2387159.877031569,-21081721.247554306 -1308511.841399248,-21671653.925754797 -174084.93239972534,-22153005.346443783 1004665.23038063,-22516518.27137932 2214928.838688947,-22753913.28974216 3442609.384990179,-22858061.65282682 4672411.64041475,-22823155.513021197 5887950.397763727,-22644873.280109826 7071880.016218061,-22320537.715662543 8206044.548028984,-21849264.317417998 9271647.95665966,-21232097.502572745 10249443.653003223,-20472132.083997823 11119942.284134148,-19574617.54870395 11863636.410566984,-18547042.695188858 12461240.406490406,-17399198.267185275 12893943.616461381,-16143215.337023936 13143674.50536761,-14793577.343232712 13193373.250069385,-13367103.874608478 13027269.945162544,-11882904.516923912 12631165.336024571,-10362301.338308139 11992710.754059099,-8828718.884341061 11101683.716215909,-7307540.88271971 9950255.46777856,-5825933.218148813 8533246.59835483,-4412633.128547446 6848366.750107111,-3097704.9908663454 4896434.3684557425,-1912263.5053832538 2681572.4224559125,-888165.5473714444 211376.04813597753,-57672.43009747453 -2502951.853738838,546915.1917020997 -5446500.901234797,893647.058747412 -8600593.042520588,951334.4764603408 -11942765.293780277,689979.2266255639 -15446798.496424519,81216.06337078595 -19082794.820987877,-901235.8124661308 -22817306.32144157,-2281117.327057028 -26613516.36296121,-4079175.5680529103 -30431475.210629687,-6312717.037196681 -34228390.4791102,-8995174.174680967 -37958972.50783507,-12135691.449604776 -41575834.047397636,-15738737.489468005 -45029942.92616135,-19803749.831678066 -48271125.61798475,-24324818.915567663 -51248618.859612145,-29290417.88900605 -53911665.67767201,-34683184.674521424 -56210151.38910374,-40479762.52188991 -58095274.34455826,-46650704.96411182 -59520245.40194176,-53160450.689331636 -60441009.35729169,-59967373.34123503 -60816980.8335512,-67023910.6646058 -60611786.44582705,-74276776.72204597 -59794004.43583844,-81667260.12458573 -58337892.41004199,-89131610.34658891 -56224093.3368186,-96601513.23886871 -53440309.56940723,-104004655.81955634 -49981934.373834506,-111265379.3176275 -45852630.26530023,-118305418.27816002 -41064843.40198629,-125044722.3217543 -35640243.36086937,-131402355.8948412 -29610077.833603166,-137297470.06581688 -23015432.138485927,-142650339.1283233 -15907383.952145377,-147383453.48277196 -8347044.325586558,-151422658.99673602 -405476.865695553,-154698331.81118786 7836512.064567321,-157146576.38058552 16288718.147884218,-158710433.42880407 24852023.660305336,-159341083.48857316 33419025.088061903,-158999030.78810197 41874805.57899567,-157655251.47365624 50097852.31030888,-155292289.52923724 57961117.056681566,-151905283.29190746 65333216.34611981,-147502905.18048266 72079765.6120904,-142108197.171984 78064839.70870571,-135759284.68861213 83152550.0721551,-128509951.91076365 87208726.70928256,-120430062.11922272 90102691.09820211,-111605807.50079472 91709104.02246358,-102139773.93197966 91909870.35756503,-92150807.58837596 90596080.9153361,-81773671.81340359 87669969.6578961,-71158484.51613319 83046862.94858801,-60469928.44813553 76657096.04327099,-49886229.02409606 68447870.77156115,-39597896.88706447 58385027.344101146,-29806235.160240088 46454702.477013275,-20721614.252430562 32664845.576023687,-12561520.170019282 17046564.595310476,-5548385.50650627 -344726.5964824774,92784.39942780593 -19428386.928559214,4136974.259605387 -40097879.53960658,6361891.291776159 -62220381.14979791,6550844.6357490355 -85636692.88863315,4495745.680336661 -110161473.8982788,200.00000013490913" stroke="white" stroke-width="1.5" /></svg>