<?xml version="1.0" encoding="utf-8" ?>
<svg baseProfile="full" height="400" version="1.1" width="400" xmlns="http://www.w3.org/2000/svg" xmlns:ev="http://www.w3.org/2001/xml-events" xmlns:xlink="http://www.w3.org/1999/xlink"><defs /><rect fill="black" height="100%" width="100%" x="0" y="0" /><circle cx="200" cy="200" fill="yellow" r="20" stroke="orange" stroke-width="2" /><polyline fill="none" points="198.21717604595105,200.0 198.16121122369657,199.9034719889813 198.1139178544216,199.80143139679507 198.07612060611575,199.69477025017093 198.0485698965077,199.58449753184678 198.03192721076422,199.47173445283784 198.02675052986234,199.35770801161092 198.03348005791716,199.2437428055445 198.05242444562643,199.13125107947775 198.08374771401108,199.02172101706557 198.12745708758112,198.91670330289813 198.18339194873377,198.81779600672928 198.25121412541347,198.72662786546886 198.33039972166185,198.64484006359413 198.42023269551592,198.57406663805597 198.51980038065196,198.51591365931142 198.62799113712816,198.47193736549454 198.74349430248898,198.44362145161597 198.8648025973285,198.43235373971478 198.9902171191779,198.43940247871853 199.11785503532846,198.46589254403355 199.2456600590131,198.51278182622016 199.37141576437804,198.58083811513404 199.4927617640505,198.67061680027095 199.60721273906879,198.78243971937925 199.71218027474862,198.91637549536014 199.80499741801918,199.07222170573203 199.88294583222375,199.24948922919714 199.9432853847366,199.44738910983799 199.9832859614282,199.66482227095915 200.0002612604858,199.90037239737435 199.99160427686869,200.15230228687483 199.95482414827913,200.41855394859746 199.88758399451817,200.69675269799882 199.7877393450514,200.98421546514558 199.65337671512344,201.27796349513022 199.4828518594307,201.57473957675643 199.27482720479543,201.87102988842335 199.0283079400701,202.16309049865302 198.74267622322347,202.4469785033076 198.41772295277414,202.7185877226573 198.0536765439727,202.97368881958647 197.65122814987538,203.20797363593374 197.21155277414024,203.4171034778897 196.73632573639347,203.59676101422502 196.22773397267449,203.7427053836573 195.68848168301648,203.85083004070296 195.12178987581467,203.91722280377002 194.53138940434968,203.93822750593313 193.9215071446415,203.91050658873866 193.29684502558518,203.8311039234722 192.66255169182605,203.697507093566 192.02418665672397,203.50770832719925 191.38767688656978,203.26026323162165 190.7592658473755,202.95434645124996 190.14545514136444,202.5898033510526 189.55293896092405,202.1671968160064 188.9885316923284,201.68784825727013 188.45908910894343,201.1538719268831 187.97142370275932,200.5682016658826 187.53221481270128,199.9346092462519 187.1479143169267,199.2577135154523 186.82464876280906,198.54297961371552 186.56811891106355,197.79670760888771 186.38349776795383,197.02600998138175 186.27532827017308,196.2387774924941 186.24742186922398,195.44363308259682 186.30275933435001,194.6498735709482 186.44339515372133,193.86739906532907 186.67036696112606,193.10663013645512 186.98361144838995,192.3784129680035 187.38188824076002,191.6939128567983 187.86271321225823,191.06449660771108 188.42230269938858,190.50160454245437 189.0555300335658,190.01661301881882 189.75589575439614,189.62068853500182 190.51551278685764,189.3246346703329 191.32510776507655,189.1387332866228 192.17403956361292,189.07258158114877 193.05033595402148,189.13492674045273 193.9407491403006,189.3335000911239 194.83083074231357,189.6748527769911 195.70502659229464,190.16419510907846 196.54679148737262,190.80524183274002 197.3387238022014,191.60006563309324 198.0627196121343,192.54896125284105 198.70014571108132,193.6503226235525 199.23203063171132,194.90053541039 199.63927249176214,196.29388733926024 199.90286220193454,197.82249861280602 200.0041202814644,199.47627462621463 199.92494524051656,201.2428830644786 199.64807120775697,203.10775729884497 199.15733221074225,205.05412780145681 198.4379302601594,207.06308306376067 197.4767041505904,209.11366123670956 196.2623956745556,211.18297341017472 194.78590975729017,213.24635911681534 193.04056486117474,215.27757428396495 191.02232988499796,217.2490114683946 188.73004369815385,219.13195179613743 186.16561340710956,220.89684759643097 183.33418745439235,222.51363426927188 180.2442997019552,223.95206946457813 176.90798075371274,225.18209718245026 173.34083292844485,226.1742339338849 169.56206550578486,226.89997363525006 165.59448713569537,227.33220745396326 161.4644526261289,227.44565438346524 157.20176170421607,227.21729790933256 152.83950778237522,226.62682374194245 148.41387525046264,225.65705324129996 143.9638843560005,224.29436685326422 139.53108332331837,222.52911162018802 135.1591879950077,220.35598662946074 130.8936699504818,217.7744001268938 126.7812947609021,214.7887919542348 122.86961277072373,211.40891497678766 119.20640554631468,207.65006925305636 115.83909189346741,203.53328286775155 112.8140981094217,199.08543360588985 110.17619789191387,194.33930599170668 107.96782806788693,189.3335786533982 106.22838701749778,184.1127375039715 104.9935233442635,178.72691084929983 104.29442296866029,173.23162324525524 104.15710338917323,167.6874657237065 104.60172435063325,162.15968088813736 105.64192457375867,156.71766233826457 107.28419452151377,151.43436891258392 109.52729539701357,146.385655330198 112.36173467465143,141.64952195919534 115.76930845205162,137.30528762758874 119.72272076742878,133.43269061245536 124.18528974811039,130.1109241803553 129.11075003571574,127.41761429313387 134.4431603675453,125.42774832263531 140.1169244793957,124.21256481960347 146.05693263122862,123.83841553931721 152.17883004461765,124.36561202191966 158.38941738231608,125.84727004119215 164.5871871002485,128.32816615371553 170.66299806744436,131.84362138300497 176.50088928870727,136.41842774256335 181.97903188914222,142.06583382062956 186.9708167421864,148.78660600115924 191.34607325879978,156.56818206470066 194.97241292236188,165.38393388498773 197.71668917101272,175.19255569940916 199.44656321800065,185.93759397294363 200.03216338418,197.5471341865738 199.34782351986715,209.93365895577196 197.27388414196278,222.99409071804934 193.698538033908,236.6100308191034 188.51970027891838,250.64820517610437 181.64688104991353,264.9611248084453 173.00303799183828,279.3879674084699 162.52638373282227,293.7556837882536 150.17212297864177,307.8803304978586 135.91409280823194,321.5686271835556 119.7462792233895,334.61973436274417 101.68418273854971,346.8272442606422 81.76600584985621,357.9813742106057 60.05363561747009,367.8713488968111 36.6333953491486,376.28795444972013 11.61654050123309,383.0262441288992 -14.860524573645876,387.8883720846186 -42.63633049767833,390.6865285217462 -71.52474652357421,391.2459465412363 -101.31572044853482,389.40794805191877 -131.77636818288767,385.03299347528304 -162.6524229198356,378.0036975559757 -193.67005004809147,368.22777148817346 -224.5380298133789,355.64084981962765 -254.95030529710988,340.209159246451 -284.5888885760115,321.9319855061832 -313.1271129957295,300.8438941552865 -340.23321438066523,277.0166611176438 -365.5742187630227,250.56086954656476 -388.82010890287995,221.62713078327636 -409.6482365492077,190.4068890436617 -427.7479421247846,157.13277193975725 -442.82533837495305,122.07845205446337 -454.60820957350427,85.55798854096332 -462.8509732033473,47.92462210875726 -467.3396467013241,9.569001774062912 -467.89675795266794,-29.08317262689215 -464.38613481821596,-67.57410196687204 -456.7175061524696,-105.41743647085076 -444.85084459672214,-142.10241732291604 -428.80037997951115,-177.0985994317886 -408.6382114928971,-209.86113552956328 -384.497446998667,-239.83659346735368 -356.57479890805473,-266.4692700540992 -325.13256811893564,-289.2079561527996 -290.4999505240492,-307.5130991017505 -253.0736046511566,-320.86429997345556 -213.31742407897565,-328.76807483339155 -171.76146439742615,-330.76580113228147 -128.99998164069586,-326.4417627804171 -85.68854729720329,-315.4312004349158 -42.5402141580208,-297.4282672059437 -0.32071735654486133,-272.19378448092937 40.157294085797076,-239.56268799993546 78.04098813832226,-199.451050810479 112.44502354051893,-151.86256740089306 142.46013391252228,-96.89438226542643 167.16257611233567,-34.74214649076973 185.62438290870116,34.295812239114724 196.92434600959436,109.81531746905034 200.15964143757682,191.30427591621347 194.4579953481246,278.1418132006581 178.9902748286987,369.5987047319471 152.9833751859498,464.8391831281435 115.7332629235039,562.924191868892 66.61802223492924,662.8161415607266 5.110742589305659,763.3852102755242 -69.20792392637736,863.4172129907049 -156.63771422293695,961.623047315778 -257.3473991482204,1056.6497035611228 -371.36430985099526,1147.0928069436845 -498.5649353170144,1231.5106385066713 -638.6667802213058,1308.4395593562617 -791.2216692442738,1376.410740310459 -955.6106784867952,1433.9680762578419 -1131.04086649122,1479.6871417012853 -1316.543966556936,1512.1950213959085 -1510.977188485385,1530.190827979584 -1713.0262615857478,1532.466697349278 -1921.2108317369625,1517.9290325781803 -2133.8923035892444,1485.6197487251122 -2349.284194688449,1434.7372542895766 -2565.4650415495075,1364.6568906434827 -2780.3938686584506,1274.9505388489224 -2991.9282002544833,1165.4050941663108 -3197.8445617820594,1036.0395025706343 -3395.861383395168,887.1200510087972 -3583.664182167684,719.1736042080737 -3758.9328630777777,532.9984858164221 -3919.370941788312,329.6727107187704 -4062.736455169261,110.55928869053233 -4186.874288861597,-122.69166275964307 -4289.7496154494565,-368.14423636959816 -4369.482102494698,-623.5816973324902 -4424.380517316804,-886.5152720997096 -4452.977325504623,-1154.1969107535128 -4454.062853262171,-1423.636130336963 -4426.718560354939,-1691.6210029534282 -4370.34895116372,-1954.7433051601533 -4284.711636682806,-2209.427794520059 -4169.945050708224,-2451.965525547249 -4026.5933194088047,-2678.551061152844 -3855.627785380387,-2885.323377600219 -3658.4646955258886,-3068.4102015020862 -3436.9785770040758,-3223.975457185488 -3193.510847307472,-3348.269442512957 -2930.873233457254,-3437.6812917273214 -2652.345611456694,-3488.793225872078 -2361.6679205584933,-3498.436035651127 -2063.0258575218427,-3463.7451890800016 -1761.0301137152603,-3382.2169078116003 -1460.6889824160792,-3251.7635124660987 -1167.3742346214867,-3070.7672995286666 -886.7802386695926,-2838.13218125732 -624.8763814175294,-2553.3322963983487 -387.85293597754526,-2216.456784133922 -182.06061230814407,-1828.2499073303234 -13.944121429908051,-1390.1457144991052 110.0298192769209,-904.2964435354363 183.4495143888156,-373.5938947781526 200.039729197152,198.31696333425714 153.7468190637795,807.0328454496164 38.82673533543033,1447.3960877360578 -150.0649965998141,2113.5082331419417 -417.7823167132967,2798.753740526328 -768.5977553723137,3495.834200708981 -1206.1127827468852,4196.813337432033 -1733.1705824397507,4893.172955675472 -2351.772499479485,5575.879874455583 -3062.9994509236067,6235.463747071484 -3866.939611953338,6862.105529818955 -4762.623700297063,7445.736211712342 -5747.9691759883935,7976.145264152408 -6819.734650861956,8443.098112317837 -7973.48576197378,8836.461771058168 -9203.573704624827,9146.337629081403 -10503.127543367316,9363.20020823796 -11864.06132298848,9478.040571791633 -13277.096885915691,9482.51290891362 -14731.803167924434,9369.08268447889 -16216.652590856535,9131.174615876273 -17719.09499993179,8763.318624268608 -19225.649405084474,8261.291808857357 -20722.013581782747,7622.254411478696 -22193.191368466072,6844.877677476294 -23623.63726682262,5929.46147935445 -24997.41770965411,4878.039554173515 -26298.388111334156,3694.4702158009095 -27510.38456041334,2384.510440570994 -28617.428755557,955.8712909974654 -29603.944527733856,-581.747261981165 -30454.984036631657,-2216.6439313593396 -31156.461481049213,-3935.1277767557585 -31695.39192504263,-5721.555404625694 -32060.13261753604,-7558.394953756266 -32240.6239766596,-9426.317864163873 -32228.627224999404,-11304.319148732706 -32017.955501973833,-13169.866580533097 -31604.69514835047,-14999.078876700574 -30987.413759059375,-16766.932604450507 -30167.35153732476,-18447.497159117134 -29148.592458920128,-20014.196771344225 -27938.211772946615,-21440.098094460944 -26546.396427531956,-22698.22150781068 -24986.5351174478,-23761.87385191468 -23275.274807614376,-24604.999891758005 -21432.54079309411,-25202.549390424007 -19481.51761322581,-25530.856272298166 -17448.588445193745,-25568.02596886256 -15363.230960127245,-25294.32667664164 -13257.868031693897,-24692.57992218456 -11167.672141305668,-23748.545529164396 -9130.322823022914,-22451.295823811302 -7185.717031810105,-20793.573702936075 -5375.632897028568,-18772.129029517586 -3743.347934278468,-16388.027719735725 -2333.2134275293283,-13646.927847585694 -1190.187353806897,-10559.317123517982 -359.32889776132515,-7140.706206096829 114.74171418450399,-3411.7724840191368 188.4136487155547,601.5507771579831 -180.31891434195842,4868.044691493601 -1031.2417150061688,9351.238760589336 -2401.292264065137,14009.512479328585 -4323.925566424092,18796.2678024628 -6828.4812139045125,23660.17507207197 -9939.55983016327,28545.494266176767 -13676.417269275362,33392.47261633894 -18052.385311954167,38137.818762195464 -23074.327859990255,42715.25266996183 -28742.14179133279,47056.12954762449 -35048.31169695648,51090.13495061686 -41977.52766861833,54746.04719817787 -49506.37513703734,57952.5621233526 -57603.105467167916,60639.174070783054 -66227.49559647335,62737.105949075914 -75330.80445010107,64180.28005248457 -84855.83318169965,64906.320304527275 -94737.09546990784,64857.57555919743 -104901.10314951974,63982.1526392744 -115266.77137596444,62234.94691188819 -125745.94631681764,59578.65741501559 -136244.05704121722,55984.77287097952 -146660.89184585982,51434.514370022946 -156891.49772520675,45919.720093853495 -166827.20007602865,39443.657190208556 -176356.73803684904,32021.74581852314 -185367.50911732207,23682.180476096823 -193746.91498918016,14466.433994670882 -201383.79850864212,4429.6300784005425 -208169.96024135512,-6359.229056737468 -214001.74098760256,-17817.19247965704 -218781.65508139625,-29847.45919573702 -222420.05758695267,-42339.65573619985 -224836.8269654235,-55170.30121753743 -225963.04335952824,-68203.466642525 -225742.64137008684,-81291.63325149586 -224134.01510236895,-94276.75257840123 -221111.55236716432,-106991.50853472805 -216667.0742562775,-119260.77935272755 -210811.15589829432,-130903.29458789312 -203574.30405991204,-141733.47963257242 -195007.967410953,-151563.4773543935 -185185.3557351493,-160205.3335741111 -174202.04515892031,-167473.33016949653 -162176.34759872875,-173186.44666951787 -149249.42410279968,-177170.92832301423 -135585.12358987637,-179262.93582700443 -121369.5306671278,-179311.24922194582 -106810.20873781807,-177179.99594612396 -92135.1274787632,-172751.37073103987 -77591.26696519836,-165928.31295669771 -63442.89422849956,-156637.1053122493 -49969.511827545386,-144829.85616502713 -37463.48206930186,-130486.82696966735 -26227.334795457395,-113618.565386996 -16570.771121521477,-94267.80456527873 -8807.380129736079,-72511.08929678872 -3251.0902297726657,-48460.09052919912 -212.38165941126147,-22262.57100840829 5.708654914467019,5897.0333235503185 -2888.246019566875,35797.449141009245 -9169.76403825552,67180.84874064756 -19094.07068110007,99753.60666884502 -32891.67580671759,133187.55227623563 -50763.96647027204,167121.73582965232 -72878.8704580968,201164.72060353254 -99366.64956132093,234897.40766136948 -130315.88374057303,267876.3938603105 -165769.70905907234,299637.8570141225 -205722.37332012333,329701.95518541225 -250116.1736794179,357577.7198093175 -298838.84005992097,382768.41484786494 -351721.4269309665,404777.3265145121 -408536.7738840977,423113.9403768393 -468998.5924149358,437300.45493330545 -532761.2323804146,446878.573164603 -599420.1767321614,451416.5061839331 -668513.3073275092,450516.11605966673 -739522.9778997455,443820.1182680519 -811878.9226506015,431019.2581642672 -884962.0204451538,411859.37044923886 -958108.9252900359,386148.225968745 -1030617.5637211031,353762.06641968904 -1101753.4889909069,314651.7247617 -1170757.0706175,268848.2274409402 -1236851.4860355237,216467.77402094536 -1299251.4688921398,157715.9905677494 -1357172.756080808,92891.35522886728 -1409842.1630432068,22387.697941613802 -1456508.2043423424,-53304.31884380032 -1496452.16417643,-133596.82510106167 -1528999.5095299324,-217805.55254965174 -1553531.5272181095,-305151.89762583195 -1569497.0553527167,-394766.29641011683 -1576424.1699203486,-485692.95740289375 -1573931.6784031747,-576895.9842216292 -1561740.2648656985,-667266.9051504006 -1539683.1248582294,-755633.6101049713 -1507715.9240191164,-840770.6781059843 -1465925.911557121,-921411.059922157 -1414540.0190140116,-996259.0613202539 -1353931.7759843718,-1064004.5525244076 -1284626.8779262418,-1123338.3092503804 -1207307.246935862,-1172968.3702652466 -1122813.4344639448,-1211637.2760718986 -1032145.2254769298,-1238140.0332879794 -936460.3165460427,-1251342.6298512123 -837070.955782596,-1250200.907619108 -735438.4504020306,-1233779.5815299272 -633165.4679324832,-1201271.1785481623 -531986.0795929962,-1152014.6554275707 -433753.51902424055,-1085513.442181768 -340425.65619809815,-1001452.6483449436 -254048.21476314834,-899715.1619117731 -176735.7910670006,-780396.3665305198 -110650.764364636,-643817.2013332393 -57980.219971488914,-490535.2899460553 -20911.04001542433,-321353.8709279191 -1603.3496171606137,-137328.2713048674 -2162.539390073656,60230.32187002761 -24610.117678792434,269754.0198006077 -70853.67751124264,489420.5267580253 -142656.29336305117,717158.7529227552 -241605.69105605397,950657.8976421432 -369083.5599553412,1187380.1225191776 -526235.3996113489,1424576.8970872853 -713941.3126371348,1659309.0596793836 -932788.1714484334,1888470.5927342605 -1183043.5980733528,2108816.065523038 -1464632.2031305367,2316991.6485048677 -1777114.5318795033,2509569.5526722013 -2119669.161601619,2683085.694815828 -2491078.3851552275,2834080.336174758 -2889717.900094329,2959141.388031404 -3313550.901034848,3054950.0241098604 -3760126.9448474837,3118328.1868160674 -4226585.923672048,3146287.523139087 -4709667.439681637,3136079.2371573383 -5205725.828053031,3085244.3003275585 -5710751.020883217,2991663.418854478 -6220395.385081483,2853606.1202275804 -6730006.601903818,2669778.2892434117 -7234666.585215043,2439367.458266972 -7729236.36029361,2162085.1378578767 -8208406.745656712,1838205.462892348 -8666754.597693216,1468599.4265984113 -9098804.292653415,1054763.9810779637 -9499094.033649076,598845.2984320316 -9862246.482730713,103655.51197184013 -10183043.13088056,-427317.7074722557 -10456501.73299287,-989909.3391977331 -10677956.051777419,-1579283.5068240894 -10843137.075224696,-2189948.7546314443 -10948254.798057664,-2815782.504242999 -10990079.589728909,-3450065.0023156805 -10966022.111271692,-4085522.9726406657 -10874210.69193977,-4714383.079623777 -10713565.03530768,-5328435.195225247 -10483865.094539614,-5919105.338951258 -10185813.939002087,-6477538.031421319 -9821093.430344151,-6994687.667551082 -9392411.536550783,-7461418.376799096 -8903540.138129463,-7868611.696677987 -8359342.22222074,-8207281.243405108 -7765787.418581176,-8468693.421862116 -7129954.906457161,-8644493.077752618 -6460022.813548632,-8726832.859887267 -5765243.337551409,-8708504.93185322 -5055902.946953758,-8583073.551964058 -4343267.160406737,-8345006.930387852 -3639509.562419754,-7989806.674781859 -2957624.886434368,-7514133.052663198 -2311326.183347548,-6915924.2321241405 -1714926.2928748182,-6194507.614286223 -1183204.0451155454,-5350701.3429158665 -731255.838403324,-4386904.070595246 -374333.4648621834,-3307171.0783042484 -127669.28468278385,-2117274.887575843 -6290.081411419258,-824748.5726772735 -24821.16074412911,561089.9245670848 -197282.48150280342,2029134.052041441 -536878.826557152,3566506.900964831 -1055786.2302452314,5158602.701895269 -1764937.074048827,6789152.603435138 -2673806.44056037,8440315.541548558 -3790202.473783907,10092794.749371294 -5120063.628220992,11725980.175242307 -6667265.796750328,13318116.772304771 -8433442.384881869,14846498.29871401 -10417820.443578461,16287685.925948 -12617075.981729066,17617750.597039234 -15025211.55002306,18812537.71021023 -17633459.118223038,19847952.33024737 -20430211.15582035,20700262.7541676 -23400982.67035139,21346419.883825492 -26528406.75725968,21764389.490846608 -29792265.969616644,21933494.10367278 -33169561.525277812,21834760.907770257 -36634622.03376436,21451271.733526412 -40159253.04648836,20768510.917469606 -43712928.31370527,19774706.56663558 -47263023.17221163,18461160.53856739 -50775089.99241782,16822562.27586164 -54213175.08574739,14857281.509442084 -57540175.91776531,12567634.773685161 -60718236.89405181,9960120.66361354 -63709181.390287556,7045618.813670783 -66474977.09155211,3839547.6926444643 -68978231.09529196,361976.493091981 -71182710.62508309,-3362313.3515444724 -73053884.60599379,-7303821.16147697 -74559480.77518456,-11428378.25521177 -75670052.45183632,-15697260.708482862 -76359548.57725285,-20067366.345045943 -76605880.16787529,-24491458.059857916 -76391475.90979135,-28918474.89066485 -75703819.27191861,-33293911.506060682 -74535959.2349413,-37560265.97171126 -72886986.53255843,-41657554.797786064 -70762467.18846785,-45523893.36687502 -68174825.11405233,-49096138.90103573 -65143665.614486575,-52310592.15830427 -61696031.84072784,-55103753.06326041 -57866586.526380435,-57413124.48411159 -53697711.76547674,-59178057.382197656 -49239520.12232443,-60340629.591433875 -44549771.019034155,-60846549.54831859 -39693687.11993628,-60646075.40142296 -34743666.32326833,-59694939.09696511 -29778885.975964483,-57955264.27838286 -24884797.0423369,-55396466.16723242 -20152507.175285712,-51996121.02437848 -15678052.95124222,-47740792.33836609 -11561562.927257936,-42626800.565316625 -7906314.648885514,-36660923.06454962 -4817690.267267033,-29861010.847974386 -2402036.998190094,-22256508.899970576 -765440.2581206603,-13888867.137073714 -12418.924376771687,-4811829.571309093 -244553.76922046635,4908410.076766225 -1559061.6901880072,15193197.19496898 -4047329.8798423675,25951559.337969374 -7793425.524954099,37080512.07718573 -12872597.974936683,48465534.73943437 -19349791.54889229,59981221.49347321 -27278188.236499485,71492111.4277896 -36697800.46710956,82853699.28030609 -47634134.85113646,93913626.34441637 -60096948.31646705,104513048.80251361 -74079118.34947343,114488178.34668244 -89555649.08632268,123671987.45868438 -106482834.7682633,131896069.16194944 -124797601.55951099,138992638.45433542 -144417047.91553292,144796660.0110358 -165238202.57342193,149148084.14407077 -187138017.80787653,151894170.4514523 -209973613.85315624,152891876.12075782 -233582788.33363822,152010283.5046161 -257784802.17799672,149133039.39703625 -282381450.82305175,144160776.4472511 -307158426.55624884,137013485.38993093 -331886974.61776584,127632805.28462185 -356325842.20666593,115984197.77994645 -380223515.83672744,102058970.58465825 -403320738.59786266,85876114.87155324 -425353294.8338558,67483921.29239497 -446055045.5865889,46961339.670406274 -465161193.92482775,24419048.28583855 -482411755.0200005,200.00000059078425" stroke="white" stroke-width="1.5" /></svg>