<?xml version="1.0" encoding="utf-8" ?>
<svg baseProfile="full" height="400" version="1.1" width="400" xmlns="http://www.w3.org/2000/svg" xmlns:ev="http://www.w3.org/2001/xml-events" xmlns:xlink="http://www.w3.org/1999/xlink"><defs /><rect fill="black" height="100%" width="100%" x="0" y="0" /><circle cx="200" cy="200" fill="yellow" r="10.000000198080347" stroke="orange" stroke-width="2" /><polyline fill="none" points="200.4532263709624,200.0 200.41866844564052,200.0219781808845 200.379245548765,200.0399273483748 200.33520984558922,200.0531821369025 200.28689066016435,200.0610853430902 200.23469564126313,200.06299646132325 200.17911103513802,200.05830057711518 200.12070100200253,200.04641753139086 200.060105920798,200.0268112596161 199.99803963568522,199.99899920108533 199.9352856077492,199.96256166578866 199.87269194658538,199.91715103925836 199.8111653086753,199.86250069979408 199.75166366268655,199.79843351762258 199.69518793593855,199.72486980200532 199.64277257115492,199.64183456019143 199.59547503813218,199.54946393155137 199.55436436095113,199.4480106613245 199.520508737668,199.33784848127272 199.4949623458716,199.21947526923321 199.47875144387888,199.09351486617064 199.47285989346224,198.96071743788946 199.47821424563543,198.8219582791039 199.49566854594366,198.6782349700779 199.525989029679,198.5306628105172 199.56983889022925,198.38046847177154 199.627763315137,198.2289818266091 199.7001749941526,198.07762593575777 199.78734031138166,197.92790519192982 199.88936643933002,197.78139164500544 200.0061895560232,197.6397095562469 200.13756440722727,197.50451825464154 200.28305543394174,197.37749339447245 200.44202968061657,197.26030673972954 200.6136516918312,197.1546046276959 200.79688059435682,197.06198529066407 200.99046954753433,196.98397524091004 201.19296772769866,196.92200494942867 201.4027249919642,196.87738407313964 201.6178993430961,196.85127650793223 201.83646729050795,196.84467556564135 202.05623717277274,196.85837959145132 202.27486547458147,196.89296835392244 202.48987613604837,196.94878055245167 202.69868281490548,197.0258927961503 202.89861402276404,197.12410041350265 203.0869410155968,197.2429004534405 203.26090827631882,197.38147723533504 203.41776638424994,197.53869079762003 203.55480702281895,197.71306858209542 203.66939983362715,197.90280067325693 203.75903078248618,198.10573888913234 203.82134166185247,198.3193999920204 203.85417031480455,198.54097325422336 203.85559112896226,198.7673325754009 203.82395531515843,198.99505330468972 203.75793045587153,199.22043387242823 203.65653878303596,199.43952228348257 203.51919362447947,199.648147467138 203.34573344348007,199.8419554177313 203.13645288735032,200.01644999615556 202.8921302590653,200.16703819565123 202.6140508312212,200.28907960655516 202.30402543446047,200.3779397446317 201.9644037732753,200.42904683704361 201.59808195107314,200.43795158977483 201.20850372374846,200.40038939128974 200.7996550468482,200.3123443403456 200.37605153574276,200.1701144221382 199.94271852091492,199.97037709736549 199.5051634513306,199.71025451434988 199.0693404775304,199.38737750609775 198.64160713211857,198.99994749310247 198.22867311814952,198.5467953798111 197.83754131482718,198.02743650893035 197.47544121410775,197.44212072405273 197.14975511029584,196.79187658828343 196.86793747648284,196.07854881540285 196.63742807552458,195.3048279912864 196.46555946791693,194.47427169737543 196.35945969302855,193.59131619539895 196.3259510122366,192.66127789358117 196.3714457110499,191.6903438893938 196.50184006071134,190.6855509725118 196.7224076364145,189.65475257383395 197.0376932774926,188.60657326186583 197.45140905308423,187.55035051589365 197.96633366319557,186.49606364544775 198.58421675815796,185.4542498766299 199.3056896976654,184.43590778681386 200.1301842923965,183.4523884386788 201.0558610753145,182.51527474096838 202.07954863485588,181.63624974505186 203.19669550727863,180.82695477139265 204.40133606953873,180.09883844632319 205.68607179648436,179.46299791485342 207.04206914642134,178.93001367722954 208.45907521696267,178.5097796731256 209.92545216854862,178.21133040510836 211.42823124641592,178.04266704971826 212.95318704369046,178.0105846474629 214.484932439585,178.12050258952857 216.0070344186169,178.3763007264013 217.50215073085735,178.7801635092378 218.95218709135392,179.3324346362137 220.33847434121446,180.03148471081587 221.64196470591295,180.87359442492019 222.84344599098955,181.8528557544945 223.92377225457602,182.9610935981401 224.8641091934677,184.18781019695734 225.64619217841596,185.5201545472534 226.25259457879181,186.94291885462155 226.66700373081238,188.43856387852438 226.8745016313311,189.98727478075253 226.8618471850742,191.5670488195014 226.61775660153478,193.15381592428744 226.13317833289426,194.7215928469913 225.40155877067875,196.2426712129542 224.41909478061916,197.68783939578563 223.18496905646407,199.0266377134042 221.70156421816793,200.2276459944002 219.97465157153735,201.2588020971623 218.01355048831934,202.08774948393514 215.83125446069596,202.68221146313684 213.44452003458906,203.01038922136388 210.87391503391592,203.0413802774694 208.14382275422648,202.74561351118717 205.28239912960416,202.0952964545725 202.32148026123986,201.06487009286855 199.2964381388633,199.63146600928718 196.2459828856342,197.77536033271963 193.21191041073484,195.48041861569268 190.2387949585133,192.73452548901642 187.37362669449254,189.52999271642818 184.6653951619191,185.86393911376567 182.1646201719613,181.73863570909015 179.92283244951315,177.1618095085487 177.99200713735692,172.1468993028874 176.42395405593444,166.71325710600235 175.2696694152114,160.88628906358315 174.5786544694647,154.6975300097287 174.39820738507052,148.18464628442058 174.77269534481638,141.39136195587415 175.7428146288024,134.36730421889268 177.3448470802481,127.16776446204568 179.60992197293933,119.85337231013841 182.5632928340519,112.48968085006513 186.22363923021743,105.1466622324345 190.6024038847493,97.89811390158764 195.70317574914506,90.82097683472315 201.52112979212572,83.99456835728412 208.04253428511677,77.49973333571111 215.24433624568863,71.41791881795169 223.09383544259694,65.83017848330954 231.5484569615098,60.81611456172837 240.55563177447812,56.452766172759425 250.05279404546678,52.81345429966987 259.96750303731477,49.96659483696379 270.2176964626332,47.97449231200051 280.7120809446831,46.892127964858986 291.35066392853724,46.76595685636963 302.02542991431926,47.632729543504524 312.621162281741,49.518354595454156 323.0164102494786,52.43681880455182 333.08459867735826,56.38918235624149 342.6952764893575,61.36266644496524 351.71549748872974,67.32985084286688 360.011325272975,74.24799873175004 367.4494518577607,82.05852568370501 373.8989175090039,90.68662901225505 379.23291718666167,100.0410928060004 383.3306769493554,110.01428279540546 386.0793816841009,120.48234378818148 387.3761336394834,131.3056107402554 387.1299194836967,142.32924261138666 385.2635620114402,153.38408599424696 381.71563121631556,164.28777311384889 376.4422882583101,174.8460561848449 369.4190349187145,184.85437730530785 360.6423404758143,194.09967007873522 350.1311175807217,202.36238601640684 337.92801868863364,209.4187355087303 324.10052492900024,215.04312979909466 308.7417999980724,219.0108069826434 291.9712827452747,221.10062162394868 273.9349936132642,221.09797418330766 254.8055319886828,218.79785310525764 234.7817438302923,214.00795920098284 214.08804166226426,206.55187889628806 192.97336214660314,196.27227006765713 171.70974996826033,183.0340216001591 150.59056066197547,166.72734552224523 129.9282792580489,147.27075865293597 110.05195619577862,124.61390918441371 91.30426681307489,98.74020256374143 74.03820582757456,69.66918047481005 58.613433531466484,37.45860669595913 45.39229587658073,2.206214156289377 34.735546170111945,-35.94893133392978 26.997801671667617,-76.82549341999407 22.522773911642958,-120.19939391345821 21.63831696768176,-165.80384508482877 24.651343165271356,-213.32991897721507 31.84266063273833,-262.42768274246964 43.461791760535476,-312.7079239061285 59.721835809203014,-363.74448373360224 80.79444259910306,-415.07721052634304 106.80496731818431,-466.21553776101996 137.82787892383016,-516.6426845449131 173.88249631649717,-565.820467954184 214.9291273557469,-613.1947085155282 260.86568580815185,-658.2012014625545 311.5248604026408,-700.2722175317041 366.6719082710333,-738.8434880531531 426.0031421275239,-773.3616200423613 489.1451765583298,-803.2918780176124 555.6549937303568,-828.1262604745405 625.0208826760243,-847.3917904618927 696.6642990741808,-860.6589316500958 769.9426841413983,-867.5500337946096 844.1532719057858,-867.7477047005416 918.5379038035708,-861.0029998246523 992.288858279305,-847.1433156351438 1064.5556909615875,-826.0798689148683 1134.4530681214696,-797.8146414612453 1201.0695626095912,-762.4466682206667 1263.4773674353632,-720.1775469023435 1320.7428677368912,-671.3160486416868 1371.9379972475333,-616.281712408972 1416.1522906607458,-555.6073106536954 1452.5055287083592,-489.9400801907144 1480.160858487556,-420.04162060522515 1498.3382577971406,-346.7863724946038 1506.3281991792169,-271.15859966968867 1503.5053572182314,-194.2478129775061 1489.3421916383004,-117.24258862956077 1463.4222290746507,-41.42275074790328 1425.452858286178,31.850093826502075 1375.2774472288572,101.14366070933025 1312.8865860208227,164.96770444537108 1238.4282575851214,221.78829561223168 1152.216737827226,270.04358506857704 1054.7400297451723,308.160958424735 946.6656410149187,334.5754600135524 828.8445224523003,347.74934174688406 702.3129954099227,346.19256854893194 568.292509677351,328.4840888698968 428.1870898389777,293.2936564244179 283.5783472948046,239.40396810269274 136.21795721746093,165.73286330953758 -11.982475481764823,71.35531214363988 -158.96420969980198,-44.47509581825335 -302.53683987891725,-182.30546347791557 -440.3964325350047,-342.46401049878637 -570.1462801199782,-525.0419285520444 -689.3201890118826,-729.8769897212586 -795.408181317596,-956.5392300514468 -885.88445207528,-1204.3190259996027 -958.2373847646904,-1472.217873079399 -1010.0013892153763,-1758.9421631145303 -1038.7902875193233,-2062.9002390877367 -1042.3319359067025,-2382.202984507864 -1018.5037342555424,-2714.668177479472 -965.3686405208277,-3057.828808268229 -881.2112754408224,-3408.9455231891607 -764.5736739701396,-3765.0233172453854 -614.2902145622886,-4122.832553317209 -429.52123623354987,-4478.934337118087 -209.78483682631702,-4829.710224934224 45.013665428397644,-5171.396185755382 334.5551305836508,-5500.120681260531 658.0833789178179,-5811.946666783778 1014.385872137141,-6102.917254456417 1401.7787959015084,-6369.104716864362 1818.09702462641,-6606.662446497149 2260.6894210086325,-6811.879423764326 2726.4198866805405,-6981.236685233938 3211.6745367621875,-7111.465224859049 3712.3753198844256,-7199.604705181509 4224.000346632952,-7243.062303743816 4741.611123542018,-7239.67097310903 5259.886817085718,-7187.7463519003595 5773.165593018943,-7086.141530027318 6275.492991462873,-6934.298844640575 6760.677207976329,-6732.297865195934 7222.3510562780075,-6480.898717101721 7654.040290165188,-6181.579894503153 8049.237861495971,-5836.56972447836 8401.483588945734,-5448.870667850761 8704.448609785411,-5022.275676425432 8952.02388541401,-4561.375873086813 9138.41193213753,-4071.5588800745472 9258.220853106415,-3558.997191973161 9306.559656840493,-3030.6260734498037 9279.133763848424,-2494.1105573354585 9172.339526973563,-1957.8012258889848 8983.356524752144,-1430.678576458087 8710.236331715589,-922.2859015294878 8351.986426632495,-442.65075143749925 7908.647870533233,-2.195194691726897 7381.365372276235,388.3647552705386 6772.448361584218,718.1300185384267 6085.421708965717,976.1389403384665 5325.064769653365,1151.4965377167741 4497.437485394651,1233.511476721121 3609.8923541838562,1211.8395906186206 2671.0711741894293,1076.6325885418169 1690.885584345869,818.6904488189265 680.4805602395518,429.6158444449353 -347.8198203326939,-98.03118792647643 -1380.584853041893,-770.580247033252 -2403.368242080432,-1593.1012530615474 -3400.8178030872373,-2569.2609291542485 -4356.803717406117,-3701.1872560661327 -5254.564982479755,-4989.34412446071 -6076.873452954676,-6432.418431609486 -6806.214607615497,-8027.221865065387 -7424.983911189682,-9768.609583519348 -7915.6973702327905,-11649.417943027589 -8261.21461182454,-13660.423323902452 -8444.972545999704,-15790.323988880951 -8451.227411214206,-18025.746746142668 -8265.30275037567,-20351.280001130548 -7873.8406268408635,-22749.534559111344 -7265.053169175098,-25201.233286588355 -6428.9713342994955,-27685.330455075276 -5357.687604834591,-30179.161276838357 -4045.589191841981,-32658.621800952882 -2489.5782025262733,-35098.37897181598 -689.2751573838408,-37472.11026399708 1352.7977938454278,-39752.77190033874 3631.0576001372324,-41912.89423835629 6136.728569997132,-43924.90247748279 8857.741652052027,-45761.46040121448 11778.668070121123,-47395.83442881353 14880.69044356522,-48802.27481629761 18141.61426721398,-49956.41042172144 21535.922315737924,-50835.653041186495 25034.874175271612,-51419.60693577478 28606.652691387073,-51690.47881199171 32216.558658847705,-51633.48319568176 35827.25456736563,-51237.23785811188 39399.057662018145,-50494.14371927269 42890.28198098706,-49400.74347351304 46257.62840157866,-47958.05306224565 49456.62106353105,-46171.86006312516 52442.087852621786,-44052.98307984288 55168.681924482524,-41617.48630602468 57591.440535909285,-38886.84360454179 59666.37673705027,-35888.04669301388 61351.098771457284,-32653.652359770058 62605.45134139565,-29221.76405351565 63392.172232716235,-25635.943694938713 63677.55716703378,-21945.050148965373 63432.12516917195,-18203.001470716583 62631.27621516078,-14468.458793656167 61255.93247084901,-10804.430560983563 59293.1540535916,-7277.796705838842 56736.71995939784,-3958.7533558909054 53587.66460483747,-920.179665721002 49854.760345809875,1763.070542837924 45554.93636215941,4014.948536701752 40713.624445367954,5759.056885112687 35365.02250246684,6919.556033833013 29552.266998001174,7422.123983052001 23327.506101153096,7194.9606647277615 16751.865989359612,6169.827495392721 9895.303583736899,4283.111504223797 2836.3399544532567,1476.9024197136707 -4338.330266795352,-2299.9298417738096 -11534.356899413819,-7090.6706891119475 -18650.381728073764,-12929.723511562792 -25578.8161224249,-19841.61422664959 -32206.747787790402,-27840.052939127698 -38416.97400009654,-36927.06823916431 -44089.1569270123,-47092.2298051705 -49101.094823405765,-58311.9749284107 -53330.101031127735,-70549.05433071003 -56654.480830965746,-83752.11219312146 -58955.09431017612,-97855.41464403625 -60116.991545587036,-112778.74006380864 -60031.10458445403,-128427.44344567902 -58595.97895872538,-144692.70570848786 -55719.52581962283,-161451.97728680418 -51320.774255528755,-178569.62353312183 -45331.60198441306,-195897.7774621597 -37698.42141968975,-213277.40315968392 -28383.79712230285,-230539.57078149338 -17367.96989809619,-247506.94149944553 -4650.26230305501,-263995.4580310898 9749.659896778921,-279816.2335412881 25790.69567753178,-294777.62875502545 43409.411080961276,-308687.50410038885 62519.36012276814,-321355.63064219226 83010.64740274502,-332596.24050547124 104749.75407613626,-342230.69446197245 127579.64702092051,-350090.24140177655 151320.18884213758,-356018.8415780992 175768.8637944517,-359876.02283921465 200701.831785174,-361539.7365912702 225875.31935422626,-360909.1780139421 251027.3529324405,-357907.5331217126 275879.8357777827,-352484.6136705615 300140.9658085941,-344619.33969546494 323507.98712709046,-334322.0286687347 345670.26339380426,-321636.44993082 366312.6564180697,-306641.60319863353 385119.1884200035,-289453.180632728 401776.96144890273,-270224.6731703603 415980.3024695024,-249148.0836282002 427435.0977127483,-226454.21146207614 435863.27509665577,-202412.47705131897 441007.3889234036,-177330.25695488756 442635.2567211043,-151551.70576115866 440544.59409413015,-125456.04491092324 434567.58984665404,-99455.304193654 424575.36052211275,-73991.5074720002 410482.22092735587,-49533.300541655626 392249.7052531013,-26572.025837554484 369890.27212762955,-5617.255898375222 343470.62640993326,12808.194963410675 313114.59079827485,28173.753540553225 279005.4614505611,39947.02993206818 241387.78382709812,47600.17576114674 200568.48790900453,50616.607024170036 156917.32584241743,48498.032202368275 110866.55992499867,40771.718488713064 62909.85469159784,26997.921517844436 13600.333662837362,6777.396950126342 -36452.230926231874,-20241.09423155053 -86585.11843313005,-54353.38068452845 -136087.26363254324,-95792.67495369054 -184204.76720011912,-144722.6701876282 -230147.30492509165,-201231.04566246198 -273095.416006343,-265323.48949517665 -312208.63853117015,-336918.34776015626 -346634.4475565966,-415842.0087517051 -375517.93823889596,-501825.12928033137 -398012.1833297638,-594499.8065818652 -413289.18123027997,-693397.7945998411 -420551.29782977817,-797949.8570318347 -419043.09272823046,-907486.3415850317 -408063.4083272302,-1021239.0503584268 -386977.5888613935,-1138344.4701713277 -355229.68591786386,-1257848.4140232645 -312354.497546997,-1378712.110753048 -257989.27989209918,-1499819.7644410725 -191884.96354698262,-1619987.5882679592 -113916.70176814748,-1737974.2995259617 -24093.57439653281,-1852493.0434220827 77432.72995610388,-1962224.6933810045 190360.43008079194,-2065832.454940969 314231.540257192,-2161977.6792474804 448427.2983668971,-2249336.770818834 592165.2942572462,-2326619.0529329907 744498.44816448,-2392585.4329328937 904315.9760304467,-2446067.6892474075 1070346.4630010042,-2485988.182269418 1241163.1482985432,-2511379.772722314 1415191.5040697784,-2521405.7140882793 1590719.1678123085,-2515379.270376058 1765908.2627041854,-2492782.797280143 1938810.1127616419,-2453286.013931142 2107382.3304302036,-2396763.184252482 2269508.223209471,-2323308.9217016636 2423018.4334949893,-2233252.3291480206 2565714.692300648,-2127169.187063562 2695395.5332446964,-2005891.9082920745 2809883.778517657,-1870516.9865967322 2907055.5739065995,-1722409.679114429 2984870.7157595726,-1563205.679872237 3041403.979492361,-1394809.5627109024 3074877.127342295,-1219389.7973272344 3083691.243049509,-1039370.1716556234 3066459.0134944166,-857417.4873693545 3022036.552543964,-676425.4327486652 2949554.340959016,-499494.57833002164 2848446.8386837346,-329908.4853559432 2718480.3126520403,-171105.96476171905 2559778.4148614546,-26649.57488035406 2372845.042306416,99809.50122621101 2158584.012821171,204570.00339471942 1918315.09930221,283922.31580505864 1653785.9794560906,334193.0547632383 1367179.6793872595,351792.15905911557 1061117.1171735856,333262.0636041486 738654.3871746105,275328.4830192731 403274.46720200055,174952.28007596446 58873.07879295751,29381.84519055946 -290261.5144826396,-163794.63165603872 -639474.9247213745,-406597.6553368202 -983779.3603980598,-700606.3797287449 -1317892.6644901044,-1046910.7433125208 -1636283.6067652535,-1446066.5291848353 -1933223.2849198557,-1898054.1058721843 -2202842.4035017495,-2402241.610252816 -2439194.110929184,-2957353.3296706676 -2636321.9843352097,-3561444.0264031063 -2788332.660421072,-4211879.923546076 -2889472.5190669587,-4905327.036724639 -2934207.7362682982,-5637747.490547338 -2917306.935247494,-6404404.402240345 -2833925.580589463,-7199875.847388822 -2679691.1812594356,-8018078.344276681 -2450788.2957010246,-8852300.204201419 -2144042.267209767,-9695244.99573638 -1757000.561752898,-10539085.261768112 -1288010.5346593177,-11375526.50995778 -736292.4183912172,-12195881.370926546 -102006.30212907883,-12991153.68497137 613688.1337254483,-13752132.138660142 1408580.3577760635,-14469492.928572997 2279367.4092056854,-15133910.782226909 3221623.1677343515,-15736177.517469937 4229779.582248767,-16267327.173104731 5297120.894030436,-16718766.597062776 6415791.79828214,-17082410.23606099 7576820.377510708,-17350817.73437778 8770156.512436444,-17517332.821283765 9984726.33087003,-17576221.848901685 11208503.093070839,-17522810.237004805 12428594.734372817,-17353614.990641363 13631348.093487171,-17066471.382600196 14802469.649280041,-16660651.837656118 15927162.37164513,-16136975.021188755 16990278.0652778,-15497903.12297923 17976484.35088126,-14747625.33940859 18870445.18901453,-13892125.595375944 19657013.610061936,-12939232.612275615 20321435.072515722,-11898650.521305397 20849559.633943126,-10781968.342945952 21228060.8878523,-9602646.804053882 21444659.39849511,-8375981.1437204145 21488348.157876473,-7119038.767580969 21349617.39835211,-5850570.846949298 21020675.923704814,-4590897.222940063 20495665.974974174,-3361764.2651659083 19770868.528002184,-2186175.6477671666 18844895.83095809,-1088196.340148605 17718867.93517901,-92730.46313266923 16396569.95444556,774725.9698506669 14884586.80899787,1488356.0259754374 13192412.273556568,2022314.7510315801 11332529.255363557,2351041.8097968614 9320458.38040081,2449591.2943210024 7174772.164634592,2293975.7394313454 4917072.293006081,1861521.0094810317 2571927.8220562125,1131228.3614299323 166772.46204827176,84139.65233528316 -2268240.5198558425,-1296298.6501064226 -4700426.804135875,-3023877.271485197 -7094803.488689999,-5109276.6038150685 -9414365.571605805,-7559734.895350773 -11620405.950190896,-10378737.347406233 -13672877.864734307,-13565731.396357032 -15530798.115506632,-17115873.487103105 -17152688.762148105,-21019812.608242676 -18497054.38224615,-25263515.755217813 -19522891.327564113,-29828140.312478974 -20190224.779588517,-34689958.09668729 -20460668.77884387,-39820335.478290774 -20298003.793217447,-45185773.59743638 -19668765.808134876,-50748012.21198068 -18542840.374865174,-56464200.16113595 -16894054.551714264,-62287134.799842894 -14700759.225640861,-68165572.0591355 -11946393.918103911,-74044608.02050133 -8620025.867744252,-79866132.06254447 -4716854.952551661,-85569350.75229499 -238675.87376875145,-91091380.71851464 4805711.019318213,-96367907.76868102 10400148.823302522,-101333908.50439392 16520841.481068805,-105924429.6621969 23136147.58879736,-110075419.36959647 30206458.301965468,-113724603.4717002 37684166.50207078,-116812399.0654206 45513733.73047286,-119282856.3893401 53631860.61562727,-121084619.27240224 61967765.616366416,-122171893.45826672 70443575.87976901,-122505411.30940762 78974832.87221143,-122053380.6708757 87471114.19282994,-120792405.05302498 95836771.62807582,-118708361.7901069 103971784.06431101,-115797224.46157828 111772722.35432945,-112065815.63877715 119133821.64688705,-107532475.95381294 125948155.05113205,-102227635.5915405 132108900.83722417,-96194274.58941011 137510693.68899393,-89488258.8023516 142051048.8441461,-82178539.05736054 145631846.30355272,-74347201.88992657 148160860.6859161,-66089361.32444055 149553320.77076986,-57512882.433518305 149733481.33527562,-48737928.88450683 148636188.5729706,-39896328.35044803 146208419.2097769,-31130751.51972538 142410772.4287196,-22593702.473104134 137218892.9034366,-14446320.395370988 130624802.64498809,-6856994.935015136 122638119.00822984,199.99999984981187" stroke="white" stroke-width="1.5" /></svg>