<?xml version="1.0" encoding="utf-8" ?>
<svg baseProfile="full" height="400" version="1.1" width="400" xmlns="http://www.w3.org/2000/svg" xmlns:ev="http://www.w3.org/2001/xml-events" xmlns:xlink="http://www.w3.org/1999/xlink"><defs /><rect fill="black" height="100%" width="100%" x="0" y="0" /><circle cx="200" cy="200" fill="yellow" r="10.000000046759524" stroke="orange" stroke-width="2" /><polyline fill="none" points="200.98090623389157,200.0 200.93420942782984,200.04904172741615 200.87851572185627,200.0924910085128 200.8141049079309,200.12916040276343 200.74139020487905,200.15785831090778 200.66092225989985,200.17740322470146 200.57339171520113,200.1866387957812 200.47963021195162,200.18444959072343 200.38060971463,200.16977738192625 200.2774400519208,200.1416378071942 200.17136458554725,200.0991372151166 200.06375393579322,200.04148949875506 199.95609771187821,199.96803270706332 199.84999421670696,199.87824521211135 199.7471381186817,199.77176120083493 199.64930610807582,199.64838525293175 199.55834058172115,199.5081057619142 199.47613142723048,199.35110695443237 199.4045960063988,199.1777792640018 199.3456574665147,198.98872781939534 199.3012215377469,198.78477881533857 199.2731520042093,198.5669835439164 199.26324506538407,198.33661987934 199.2732028329114,198.0951910265013 199.30460623493244,197.84442136506604 199.35888762578486,197.58624924570194 199.43730342247534,197.32281662333247 199.54090711056006,197.05645544392468 199.6705229804325,196.78967073609556 199.8267209701226,196.5251203965305 200.00979300215204,196.26559169857873 200.2197312093748,196.01397459610018 200.45620844769954,195.77323193931056 200.71856149180687,195.54636676558187 201.00577730314427,195.3363868754355 201.31648274735147,195.14626695179174 201.648938120635,194.9789085283613 202.00103482132522,194.8370981602817 202.3702974738186,194.7234641960868 202.75389077731637,194.6404325941989 203.14863131125645,194.59018226867178 203.5510044832267,194.57460048720463 203.9571867536387,194.59523887879288 204.3630732148119,194.65327063809704 204.7643105407334,194.74944953800784 205.15633525805742,194.88407138031147 205.5344172194265,195.05693852617983 205.8937080875374,195.26732815283953 206.22929456323692,195.5139648796694 206.53625601407865,195.7949983956624 206.8097260820465,196.1079867002513 207.04495777146235,196.44988554061274 207.2373914414103,196.81704459048836 207.3827250523534,197.20521086815413 207.47698594505232,197.6095398343932 207.51660336251678,198.0246145452653 207.49848086365097,198.4444731593119 207.42006772161747,198.86264501492204 207.27942835186647,199.27219540136258 207.0753087753619,199.66577904704178 206.80719909285307,200.03570224164983 206.47539092711224,200.37399339577144 206.08102878283933,200.6724817233843 205.62615427930092,200.92288361047343 205.11374222949576,201.11689610805593 204.5477275723861,201.246296861592 203.93302221203635,201.30304966253794 203.27552087974087,201.2794146832479 202.58209521263143,201.16806233521956 201.86057533488187,200.9621895745311 201.11971833534164,200.6556373690207 200.36916315790046,200.24300794113154 199.6193715575792,199.71978031021828 198.88155492550877,199.08242258030873 198.16758694863333,198.32849935563206 197.48990224397193,197.45677261839765 196.86138129118538,196.4672943729951 196.29522217940183,195.36148934953587 195.80479988291648,194.1422260688876 195.4035139834615,192.8138746023163 195.10462596201108,191.382349412628 194.92108738813397,189.85513574113753 194.8653605371694,188.24129810652076 194.9492331622795,186.55146960797862 195.1836293369016,184.79782087624434 195.57841846039472,182.99400769156736 196.14222468278322,181.15509648737162 196.88223915047269,179.29746718093008 197.80403760068663,177.43869301689864 198.91140593523195,175.59739737433387 200.20617648122774,173.79308777094354 201.68807769493796,172.04596759749128 203.35460008231792,170.37672642785571 205.20088109402494,168.80631007322995 207.2196117014159,167.35567187902774 209.4009672717322,166.0455070965985 211.7325652338652,164.89597249493403 214.19945185980708,163.92639370599326 216.7841202805452,163.1549631166883 219.46656160863645,162.59843142638084 222.2243507533807,162.2717962762217 225.03276818929245,162.18799162101945 227.86495857588983,162.35758175071197 230.69212672868343,162.78846407212316 233.4837710102305,163.48558492778395 236.20795374938493,164.45067285260834 238.8316078101607,165.68199374677613 241.32087792325163,167.1741324702084 243.6414948680848,168.91780533681037 245.75918005674404,170.89970790190492 247.6400775290861,173.10240229118335 249.25120982727464,175.5042481118306 250.5609536845572,178.0793807146219 251.53953094456742,180.7977402388282 252.1595096311921,183.62515446953336 252.3963096227658,186.52347807009397 252.22870695585746,189.45079022243596 251.63933040104794,192.3616521170507 250.61514362369263,195.2074250861978 249.14790597438954,197.9366494721592 247.23460475416812,200.49548357257868 244.87785167535463,202.82820121306008 242.0862361972615,204.87774567032636 238.87462846232546,206.58633681529818 235.2644246984146,207.89612747324455 231.28372819126653,208.7499041173184 226.9674592710177,209.091826132693 222.35738820112192,208.8681970222159 217.50208540810368,208.0282600826278 212.4567841467768,206.52501027506375 207.28315145673582,204.3160132572285 202.04896412964987,201.36422185000677 196.82768736928324,197.63877959110738 191.69795488187088,193.11580049534578 186.74295027660384,187.7791137078158 182.0496908761143,181.62096141454776 177.70821632503473,174.64263817678128 173.8106857294735,166.8550597904139 170.45038844866622,158.27924985129494 167.72067507777086,148.94673243845196 165.71381659210846,138.89981971838455 164.51980105121544,128.19178383007676 164.2250786678794,116.88690313649863 164.91126741395874,105.060373826439 166.65383264154556,92.79807892086427 169.52075542465053,80.19620797886127 173.57120545244825,67.36072220557023 178.85423530946161,54.406661232003046 185.4075138402565,41.45728955547486 193.25611699601606,28.64308248833285 202.41139507818278,16.100553447975244 212.8699356115728,3.9709265166028445 224.612641178596,-7.601339613976421 237.60394141161993,-18.47016793992421 251.79115795812015,-28.489609008549422 267.10404059122004,-37.51570334461795 283.4544917271266,-45.4084451176613 300.73649542415944,-52.03382944380175 318.82626547181104,-57.265963497311134 337.5826254321212,-60.98921948694459 356.8476314725632,-63.10040556295104 376.44744653623945,-63.51092889609032 396.19347184191145,-62.14892354372216 415.88373890759385,-58.96131432356697 435.3045622654937,-53.915786785953145 454.2324498054221,-47.00263254205649 472.43626427491273,-38.23643869901821 489.67962590762943,-27.657590001067433 505.7235424815747,-15.333552504586606 520.3292493632023,-1.359908246999595 533.2612383143196,14.13888857633603 544.29045007041,31.00906192127917 553.1976019892991,49.06739674413109 559.7766184680443,68.10147805082767 563.8381283855838,87.87030695708584 565.2129906026232,108.10531127181669 563.7558055929462,128.51176437856378 559.348368646612,148.77062203040887 551.9030178297621,168.54078211618733 541.3658280614106,187.4617675300161 527.7196013261998,205.15682701861704 510.9866022327254,221.23644333499107 491.23098789535624,235.3022322422476 468.56088150508054,246.9512099438501 443.1300399984565,255.78040042815994 415.13906796419434,261.3917480736095 384.8361323687013,263.39729473893783 352.5171358523843,261.42457453815945 318.52531025697425,255.12217365375494 283.25019669140886,244.16539695865657 247.12598382159007,228.2619779850416 210.62918215959135,207.15776398428036 174.27561890268106,180.64230355667138 138.61674529328468,148.55426068021356 104.2352564888171,110.78657602132913 71.74003248533492,67.29129425087274 41.76041766077586,18.08397479550331 14.939865911203327,-36.75239689833313 -8.071011944242429,-97.0640798555961 -26.621951918024877,-162.62391036470092 -40.07103521735277,-233.12937477681106 -47.79311472011932,-308.20149602278394 -49.18859328453962,-387.38460237778054 -43.69246812349658,-470.14704062379553 -30.783546415994294,-555.882888180443 -9.993728842338527,-643.9147100079083 19.082750039351055,-733.497396162973 56.78024256528391,-823.8231048551338 103.3528937793372,-914.0273237681222 158.96626093691117,-1003.1960493626307 223.68947882370958,-1090.3740699563139 297.4881050781844,-1174.5743237021122 380.21778023980403,-1254.78828728745 471.6188361386309,-1329.9973354036952 571.311983398878,-1399.1849949517073 678.795204169197,-1461.3500017346253 793.441969651853,-1515.5200512364627 914.5008935367606,-1560.766119199219 1041.0969220314082,-1596.2172123081723 1172.2341488126144,-1621.0753945982456 1306.8003289342862,-1634.6309214342339 1443.573149555608,-1636.2773003281811 1581.2282973817646,-1625.5260866732358 1718.3493430371666,-1602.0212129281706 1853.4394413502735,-1565.5526421090888 1984.9348238785026,-1516.0691308550709 2111.2200361288183,-1453.6898840421381 2230.6448470495625,-1378.7148821197775 2341.5427327240623,-1291.6336642131741 2442.2508100539426,-1193.1323547278962 2531.131069872561,-1084.0987288427661 2606.592732689681,-965.6251229838488 2667.1155244719057,-839.0090102096399 2711.2736448596233,-705.7510774420091 2737.7601763744915,-567.5506616499083 2745.411660856221,-426.2984253946054 2733.2325489634945,-284.0661784958617 2700.419210463286,-143.09378185450146 2646.3831775945696,-5.77310149999235 2570.7732813974544,125.3709844918743 2473.4963319049743,247.70248670627055 2354.7359878423485,358.4990343786043 2214.9694602826803,454.97931585785386 2054.9816978560875,534.3330690379466 1875.8767088525065,593.7534187565008 1679.0856881083998,630.4713153440744 1466.371634090386,641.7917858805474 1239.8301641991623,625.1316678213407 1001.886264074699,578.0584540650644 755.2867395879663,498.32983983810516 503.088178190711,383.93352557886766 248.64026923098055,233.12679693280342 -4.43561947465497,44.47537363930553 -252.27265936554858,-183.1090058812536 -490.78956743354934,-450.33281744557337 -715.7263353900705,-757.4873692085057 -922.6845528247204,-1104.4183810061302 -1107.1721296704493,-1490.4991027768865 -1264.6521554977487,-1914.6075446055388 -1390.5955640920617,-2375.1083781675416 -1480.537202198086,-2869.84004876658 -1530.1348320736486,-3396.107608487894 -1535.2305294679418,-3950.6817440498626 -1491.9138727516374,-4529.804427632047 -1396.5862561425397,-5129.201565292343 -1246.0256012790644,-5744.102955667814 -1037.4506877992026,-6369.26980169915 -768.584276092441,-6999.02994046138 -437.71415500653325,-7627.320871272554 -43.751214987690986,-8247.740570658154 413.71637614474594,-8853.605985164419 934.3738309459098,-9438.018990251487 1517.1361723796808,-9993.939496487932 2160.111366008953,-10514.265274059742 2860.571063153857,-10991.917954356008 3614.9298300576547,-11419.934554359013 4418.733691181088,-11791.563757102755 5266.658754385033,-12100.366071009823 6152.520611805859,-12340.316883976364 7069.295122692127,-12505.911326221041 8009.151083530127,-12592.269760747718 8963.495176799852,-12595.242633428794 9923.029463216544,-12511.513337834618 10877.821544060997,-12338.69768463515 11817.387371117284,-12075.438513273846 12730.78652294931,-11721.493946191189 13606.729599081198,-11277.817764604662 14433.69720962118,-10746.630381082052 15200.069858689949,-10131.4788990949 15894.267837564857,-9437.284784473402 16504.900059783016,-8670.377729101703 17020.920587762736,-7838.514363983238 17431.791421140504,-6950.880577450345 17727.64994343727,-6018.076315025809 17899.479258405532,-5052.081880242954 17939.279493083875,-4066.2049202985427 17840.23800385081,-3075.0074661591875 17596.89629728318,-2094.212602774515 17205.311372025917,-1140.5905701655533 16663.209103748348,-231.8243388321673 15970.127235078819,613.6450386842417 15127.545498531346,1376.7927262988733 14139.000395045301,2038.2031961290245 13010.18217582799,2578.2809653439485 11749.01163245001,2977.4775334112114 10365.694391035564,3216.532776572461 8872.75053203869,3276.7287596126816 7285.017518267314,3140.153633714291 5619.62461087795,2789.9730074008853 3895.9371859803555,2210.7059094181996 2135.469632749609,1388.5022121173542 361.765816590132,311.4181558112932 -1399.753573541254,-1030.3135870091544 -3121.9771080324886,-2644.023039503846 -4776.322049135999,-4534.35510807099 -6332.986632080503,-6703.0387942061925 -7761.2342513801805,-9148.6774491132 -9029.708148685922,-11866.564097145974 -10106.774724892522,-14848.52581219173 -10960.89311721142,-18082.80103676768 -11561.008196976856,-21553.953584568266 -11876.963661908518,-25242.82686165333 -11879.931423597747,-29126.54157818464 -11542.853033609723,-33178.539901008575 -10840.888456532075,-37368.67861753785 -9751.867092459779,-41663.37344413265 -8256.735581791854,-46025.79611911785 -6339.996598850796,-50416.125374090305 -3990.1325646780706,-54791.85228049117 -1200.007990207159,-59108.13982560873 2032.755994589099,-63318.23588813606 5705.441455841223,-67373.93806388747 9809.93435586871,-71226.1080438655 14332.472608573898,-74825.23247690854 19253.447805045576,-78122.02646582156 24547.266679834633,-81068.07505800143 30182.27805205173,-83616.50730864765 36120.77054527214,-85722.69672674687 42319.045865284614,-87344.98117170684 48727.571795173564,-88445.39456274468 55291.21835444503,-88990.40210511914 61949.57976552194,-88951.63013843376 68637.38398087349,-88306.58118394247 75284.99055256639,-87039.32432134487 81818.97657977117,-85141.15067201508 88162.80935673574,-82611.18351558922 94237.60317331465,-79456.93243036857 99962.95650304313,-75694.78083440174 105257.86456198416,-71350.39642178148 110041.70094839759,-66459.0542449529 114235.26079309448,-61065.86259478197 117761.85657861058,-55225.88238048262 120548.45653842921,-49004.13141439473 122526.85434259701,-42475.46586352951 123634.85763101274,-35724.33214040853 123817.48188865815,-28844.383667732618 123028.13518661645,-21937.95826051082 121229.7784573959,-15115.413319051178 118396.0452512295,-8494.317608000465 114512.30434953964,-2198.500099636539 109576.64820990198,3643.0418292346244 103600.78999990551,8897.37065341929 96610.85196035297,13428.967235763015 88648.02803490324,17101.21143590546 79769.10412538127,19777.974513962108 70046.81998941084,21325.310971505485 59570.057697354496,21613.23540636229 48443.842713845035,20517.567932920712 36789.14506776965,17921.82976378662 24742.46972280663,13719.168690690873 12455.227154722823,7814.292472202704 92.87727451968597,125.38656311310206 -12166.157802365171,-9414.0087645562 -24131.814065326802,-20853.188026285883 -35603.938149136644,-34222.56389354825 -46374.06831170752,-49532.07201005905 -56227.43695796664,-66769.72528471197 -64945.184599923916,-85900.34570949237 -72306.77183437439,-106864.5014224653 -78092.57255631775,-129577.67604095252 -82086.62824629755,-153929.69621237475 -84079.53981436856,-179784.44185761418 -83871.4701957176,-206979.861706177 -81275.22771848201,-235328.31444009705 -76119.3972501308,-264617.2530756668 -68251.48332311856,-294610.2671249483 -57541.026892269394,-325048.49360430305 -43882.65513441908,-355652.404112116 -27199.0218136593,-386123.9710055299 -7443.59425032,-416149.21119526785 15396.758106017864,-445401.1012832486 41299.41904678153,-473542.85273037344 70203.9704829475,-500231.53050800366 102010.47184898779,-525121.993308141 136578.11790479335,-547871.1279214398 173724.31704122003,-568142.3449010984 213224.22978589128,-585610.2971809297 254810.80414175784,-599965.7779781424 298175.3406659276,-610920.7491594988 342968.6158124849,-618213.4463600006 388802.58703084453,-621613.5025945703 435252.69744984637,-620927.0279747931 481860.7917155101,-616001.5795140421 528138.6477248599,-606730.9519539691 573572.1216566622,-593059.718150067 617625.8958991114,-574987.4458873897 659748.8112805495,-552572.5171292068 699379.7564982087,-525935.4756955989 735954.0788959047,-495261.83028356143 768910.471858093,-460804.2416254304 797698.2851658105,-422884.0254799158 821785.1958081045,-381891.907091415 840665.1680755259,-338287.96775956004 853866.6234003154,-292600.7302411421 860960.7324754251,-245425.33685691268 861569.7348090237,-197420.7823790552 855375.1841817332,-149306.1729998394 842126.0125995406,-101855.99288170096 821646.3004039805,-55894.370902233815 793842.6363372419,-12288.35215723772 758710.9486827905,28059.808521611027 716342.6872248374,64221.300448759845 666930.2357966974,95250.31393915284 610771.4367123848,120194.44149149024 548273.1114791201,138105.85021785332 479953.4669379551,148053.137940002 406443.28242649697,149133.77099377464 328485.78173534386,140486.98770923266 246935.1035525532,121307.03796102684 162753.29575139735,90856.61631323301 77005.7722477904,48480.334322887444 -9144.813817519225,-6381.933273724352 -94446.31020575539,-74182.00327836089 -177566.43055730787,-155250.82241134325 -257103.7363126838,-249786.5783489941 -331600.20701816824,-357843.6767124876 -399555.348776538,-479322.7794871499 -459441.76809521974,-613962.1002506458 -509722.1152736065,-761330.1490509753 -548867.2780049143,-920820.1146691041 -575375.6823141129,-1091646.0642178836 -587793.5345992693,-1272841.1294862675 -584735.8156929241,-1463257.8360819553 -564907.8158309151,-1661570.7152342894 -527126.9785374616,-1866281.319104109 -470344.80204401136,-2075725.7386556102 -393668.5292962563,-2288084.6986622754 -296382.3422097782,-2501396.277369163 -177967.76294666118,-2713571.2688815272 -38122.95493137,-2922411.1747006 123219.39058092199,-3125628.7772281985 305875.9000298154,-3320871.212799498 509398.4125551447,-3505745.4252056424 733062.2376430217,-3677845.8431005334 975857.080169499,-3834784.086551577 1236480.9248408976,-3974220.469728552 1513337.154786205,-4093897.0287959995 1804535.1572401575,-4191671.766976538 2107894.642831792,-4265553.773002452 2420953.873982166,-4313738.835306073 2740981.962395377,-4334645.142863463 3064995.355738697,-4326948.635154052 3389778.5895542293,-4289617.5387854595 3711909.332495496,-4221945.607505012 4027787.701472663,-4123583.5661091753 4333669.768622602,-3994568.247681281 4625705.124663351,-3835348.9081176016 4899978.303679565,-3646810.202485458 5152553.81331283,-3430291.314793412 5379524.452353618,-3187600.746587422 5577062.535559923,-2921026.29070061 5741473.58392239,-2633339.744692862 5869251.978361414,-2327795.9541572835 5957138.016818638,-2008125.8191976096 6002175.759764205,-1678522.9479595048 6001770.998172119,-1343623.698999011 5953748.631918215,-1008480.4192629866 5856408.706229376,-678527.756206359 5708580.320146743,-359542.0006384471 5509672.594824161,-57593.500729297615 5259721.871695909,221007.7234421474 4959434.301894994,469772.94211457 4610222.989505457,682101.9353806621 4214238.862932875,851356.0512776638 3774394.471435597,970936.5829430827 3294379.938132091,1034367.844327602 2778670.346931712,1035384.223889784 2232523.89904823,968020.3978900134 1661970.2451323182,826703.7907223303 1073788.4815397845,606348.2805867759 475474.39362189797,302448.0661583398 -124803.36519536369,-88829.46478575928 -718258.3529311253,-570553.0890992589 -1295552.7444654896,-1144940.6031033017 -1846874.99370671,-1813276.4994324257 -2362028.5386433247,-2575835.8153537097 -2830531.183659238,-3431815.5157072977 -3241724.6361168777,-4379274.771262404 -3584893.51280471,-5415085.473844789 -3849392.9681385895,-6534894.2921678955 -4024783.931883554,-7733097.516150431 -4100974.7816386586,-9002829.862073608 -4068368.116530033,-10335968.315869521 -3918011.145711883,-11723151.97700091 -3641748.0606823084,-13153818.730905365 -3232372.626431351,-14616259.424182316 -2683779.105429283,-16097690.04422264 -1991109.5228095069,-17584342.214713547 -1150895.1931444479,-19061572.11156952 -161190.36123423884,-20513987.68180598 978304.236489713,-21925593.812430747 2266130.104946496,-23279954.849616457 3698974.228270165,-24560373.612534825 5271588.990753143,-25750085.783865955 6976730.897506026,-26832468.29296627 8805120.119461257,-27791260.041055482 10745422.763991224,-28610793.053838257 12784257.617144797,-29276231.889182795 14906228.91612181,-29773818.879442077 17093986.491285156,-30091122.55347605 19328314.366343267,-30217286.366229203 21588248.62434155,-30143274.667704023 23851225.037242386,-29862112.672200628 26093256.62007635,-29369117.046579335 28289140.90929043,-28662113.62673415 30412696.381860353,-27741638.69799646 32437027.03028055,-26611120.241145022 34334813.69246335,-25277035.554143 36078630.309058644,-23749041.713406846 37641282.84836357,-22040075.439680904 38996168.205807425,-20166419.084389795 40117649.956310034,-18147729.65409901 40981447.419249505,-16007028.044338005 41565034.09323563,-13770645.959853854 41848041.137429796,-11468128.356048645 41812661.22401354,-9132089.644944642 41444047.76884965,-6798022.366838574 40730704.27067562,-4504057.533454305 39664858.259491354,-2290676.396739414 38242814.17817177,-200373.98558305227 36465279.40348102,1722724.6239949064 34337657.5590103,3433293.6866157283 31870303.288062006,4885279.518078141 29078732.743602823,6032413.590057352 25983784.218924224,6828762.29768521 22611723.589704614,7229309.004897101 18994289.568067927,7190563.276121315 15168674.183440322,6671191.523267716 11177434.404002352,5632662.6436153315 7068331.3957948135,4039901.6069899662 2894094.5824506585,1861943.379662313 -1287891.5856616434,-927420.9421180149 -5415979.422295271,-4349014.363919589 -9424728.73296444,-8417669.536450446 -13245455.899020126,-13141658.841403633 -16806859.72379951,-18522168.43989207 -20035721.38437485,-24552825.78809331 -22857674.732215334,-31219290.096721042 -25198042.05889744,-38498915.06318775 -26982729.301068995,-46360492.93163707 -28139173.51541329,-54764088.53138393 -28597334.323484883,-63660971.40495721 -28290719.922918517,-72993653.46059349 -27157437.201208424,-82696038.76991284 -25141254.487094805,-92693691.18052474 -22192664.548989877,-102904224.32811832 -18269934.616408832,-113237817.41772245 -13340129.475569768,-123597858.80566919 -7380093.090496538,-133881717.96078914 -377373.74192349,-143981644.82586467 7668922.626795939,-153785793.9507626 16747366.300520157,-163179369.04129598 26833540.313377537,-172045881.77904305 37889494.74844017,-180268516.9351661 49863333.514450565,-187731593.9456625 62688947.635141514,-194322113.25794008 76285908.20476957,-199931373.92210543 90559531.05893551,-204456647.10918212 105401123.88132715,-207802888.51790956 120688424.91629009,-209884471.0079886 136286240.68848196,-210626917.29729238 152047288.15170786,-209968611.21058652 167813244.5099127,-207862464.79460558 183416005.5878972,-204277517.6453015 198679151.09462366,-199200444.0534936 213419612.43814662,-192636943.08952218 227449535.9416669,-184612986.5389171 240578331.40146333,-175175899.6906651 252614892.94911683,-164395250.38630813 263369976.16479507,-152363522.47791797 272658712.3705345,-139196550.92917714 280303238.0497665,-125033697.23597528 286135414.431286,-110037745.6470387 289999609.48358405,-94394502.83292295 291755511.93156403,-78312086.18065777 291280944.4752975,-62019888.774076514 288474641.20371866,-45767212.3443493 283258952.298283,-29821563.024110537 275582437.5560169,-14466608.589536129 265422309.06930488,199.99999967495165" stroke="white" stroke-width="1.5" /></svg>