<?xml version="1.0" encoding="utf-8" ?>
<svg baseProfile="full" height="400" version="1.1" width="400" xmlns="http://www.w3.org/2000/svg" xmlns:ev="http://www.w3.org/2001/xml-events" xmlns:xlink="http://www.w3.org/1999/xlink"><defs /><rect fill="black" height="100%" width="100%" x="0" y="0" /><circle cx="200" cy="200" fill="yellow" r="12.525944155739973" stroke="orange" stroke-width="2" /><polyline fill="none" points="198.5433044687326,200.0 198.45821258457417,199.91906320370092 198.37805913030792,199.8292404528982 198.3038905525092,199.73090669613384 198.23673965829636,199.62456302039033 198.17761154786612,199.51083870572575 198.12746893946706,199.39049181748618 198.08721702834953,199.26440823060736 198.057688036497,199.13359899295236 198.03962562428202,198.99919594905614 198.0336693483568,198.86244556201726 198.04033936184794,198.7247008895155 198.06002156302782,198.5874116899442 198.0929534068528,198.45211265629118 198.1392105998582,198.32040979853005 198.1986949026627,198.19396501969888 198.27112326556437,198.0744789563333 198.35601852120942,197.96367218023866 198.45270185393517,197.86326488545825 198.5602872579743,197.77495521142774 198.67767818616437,197.70039638037534 198.80356657704186,197.64117285369642 198.93643443117978,197.59877573793753 199.07455808733974,197.5745776957986 199.2160153254889,197.56980764081547 199.35869539705558,197.58552551573047 199.5003120530844,197.62259747360042 199.63841960836953,197.68167179703914 199.7704320444051,197.76315590426188 199.8936451163569,197.8671948004195 200.0052613895353,197.99365133872897 200.1024180893917,198.1420886577937 200.1822176062676,198.31175515896075 200.2417604524415,198.50157238032068 200.2781804249257,198.7101261117897 200.28868168348728,198.9356610784505 200.2705774100541,199.1760794968355 200.22132967360838,199.42894378104816 200.1385900844679,199.69148364252183 200.0202407841361,199.96060778887195 199.86443528230234,200.23292038382564 199.66963862173088,200.5047423818173 199.43466632532693,200.77213779778592 199.15872155823592,201.03094491535134 198.84142992201646,201.2768123753055 198.4828712883055,201.5052400217346 198.08360807649737,201.7116243156651 197.64470938427542,201.8913080565513 197.1677703917918,202.03963408091911 196.6549264802565,202.15200253583265 196.1088615339511,202.22393125341023 195.53280993143704,202.25111868228342 194.93055177708894,202.22950876361742 194.30640097806634,202.15535707408148 193.66518583434564,202.0252974969866 193.0122218802623,201.83640862673127 192.35327679483893,201.5862790617497 191.69452728454897,201.2730706983747 191.04250793552418,200.89557910342126 190.40405213185824,200.4532900178429 189.7862252417749,199.9464310284449 189.1962503830717,199.37601744021632 188.64142719236023,198.74389138916374 188.12904413802784,198.05275325527884 187.66628503325853,197.30618446804604 187.26013052149258,196.50866084315055 186.91725542090984,195.66555564911823 186.64392292534146,194.78313167667534 186.4458767648482,193.86852167168138 186.32823252839745,192.92969659440078 186.2953694419466,191.97542128329883 186.35082397611308,191.0151972299433 186.49718672679816,190.0591923122394 186.73600406799864,189.1181574851873 187.06768611699076,188.20333059050395 187.4914225766031,187.32632761744924 188.0051080260006,186.49902192551852 188.60527821900456,185.73341212356718 189.28705891634687,185.04147948751665 190.04412872445448,184.43503598795996 190.86869733762836,183.92556418749444 191.75150048229852,183.5240504530695 192.6818127411178,183.240813108538 193.6474792909817,183.0853273243286 194.6349674228987,183.06604870203037 195.6294385235384,183.19023765897273 196.6148409891304,183.46378684884996 197.57402431336436,183.89105396635705 198.48887434356664,184.47470237400532 199.34046943555694,185.21555205519672 200.10925695938633,186.1124434368029 200.77524931813846,187.16211663464816 201.31823834294497,188.3591086543567 201.71802662244727,189.69567102617947 201.9546740175254,191.16171026412343 202.00875730586824,192.744753415763 201.86164059976682,194.42994080867064 201.49575388845736,196.20004790201293 200.894876777669,198.035537917501 200.04442423810664,199.91464665300012 198.93173093585347,201.8135005756152 197.54633050557018,203.70626895040377 195.8802259463169,205.56535038797745 193.92814717416422,207.36159379161603 191.68779165967322,209.06455325514838 189.16004401577985,210.64277601031 186.34917038631232,212.06412205063646 183.26298352065288,213.29611357279103 179.91297450887916,214.30631188062392 176.3144072965638,215.06271889775525 172.48637230122546,215.53419993701655 168.45179571456737,215.69092388600117 164.2374013968248,215.50481649390716 159.87362265178334,214.9500219927103 155.39446161258988,214.00336786257566 150.83729446784082,212.6448271645029 146.2426213122532,210.85797251975413 141.65376001331703,208.6304155228025 137.11648414063978,205.95422513941426 132.67860570330177,202.8263184708104 128.38950417665671,199.24881716509867 124.2996040669795,195.2293627343024 120.45980405272519,190.78138409478453 116.92086154663079,185.9243107954337 113.73273733447668,180.6837256356697 110.94390575432527,175.09145070727016 108.60063667418817,169.18556132241233 106.7462562955233,163.0103228162838 105.42039454351209,156.61604583614712 104.65822749117547,150.05885644860905 104.48972389134727,143.40037821055444 104.93890544657572,136.7073242529133 106.02313092049057,130.0509984149228 107.75241457364484,123.50670553320575 110.12878968129345,117.15307212678071 113.14572804955563,111.07127991659736 116.78762648021717,105.34421586552355 121.02937103425235,100.05554370971717 125.83598970226046,95.28870326153853 131.16240369992795,91.12584508292402 136.95328706328098,87.64670944068544 143.14304351836554,84.92745974478274 149.65590874130703,83.0394819196469 156.4061851075036,82.04816234885946 163.29861485504765,82.01165814617607 170.2288962614618,82.97967452197992 177.0843459607743,84.99226491465267 183.744708918365,88.07867032210763 190.08311584471627,92.2562148812971 195.96718597929552,97.52927518500654 201.26027122769614,103.88834107871917 205.82283560652033,111.30918573004239 209.51396186114926,119.75216259486655 212.19297499342667,129.16164650554197 213.72117029327512,139.4656354664762 213.96363133601358,150.57552885344197 212.7911213129053,162.38609656895045 210.08202903483425,174.7756523044233 205.72434901766425,187.60644240078685 199.6176732532576,200.7252598858895 191.67517062325507,213.9642911066024 181.82552845459497,227.14219997590968 170.0148294771565,240.06545223468117 156.2083364549593,252.52987930180913 140.39215605206246,264.3224782763781 122.57475309017568,275.22344148664797 102.7882862825591,285.0084056816376 81.08973681114628,293.4509075643421 57.56180177126262,300.3250289067779 32.31352555771099,305.40821100503894 5.480643720610431,308.48421476908845 -22.77438431179408,309.3461993414586 -52.2626749585707,307.79988884788554 -82.76957126914618,303.6667937494506 -114.0556602547905,296.7874503395634 -145.8581687393488,287.02463926039127 -177.89274579540773,274.26654155256034 -209.85563556569235,258.42978874911836 -241.42623967013867,239.46236192874306 -272.2700635017916,217.34629350110077 -302.04203556023947,192.10012485374165 -330.3901836068412,163.78107288630676 -356.95964590399944,132.48685893161957 -381.39699017944326,98.35715464718123 -403.35480729917504,61.57460118207965 -422.4965410073562,22.365360304632105 -438.50150957007054,-19.00084077026989 -451.0700698183306,-62.21120538106095 -459.92886900230405,-106.9109343599514 -464.83612512410286,-152.70488894341815 -465.58687209233017,-199.15986894661393 -462.0181022198543,-245.80751913589393 -454.0137353481583,-292.14786978710174 -441.5093413065481,-337.65350993117136 -424.4965405788224,-381.7743838197176 -403.02700702619893,-423.9431927586178 -377.2159963703816,-463.58137573347597 -347.245324935348,-500.10563327314867 -313.3657249337998,-532.934949860901 -275.8985054084817,-561.498061010278 -235.23645183405557,-585.2413019850053 -191.84390237523047,-603.6367661765753 -146.25594489261027,-616.1906924826611 -99.07668598746068,-622.451992781734 -50.97655166468658,-622.0208229052669 -2.688588539624874,-614.5570935013684 44.996255126773946,-599.7888109958493 91.23487796899822,-577.5201336204422 135.138800853365,-547.6390233220316 175.78195326153644,-510.1243714153853 212.20944133280946,-465.0524742123955 243.44725398847424,-412.6027346620896 268.51284896475767,-353.06246736585535 286.42654572988334,-286.83068727743665 296.22363732331286,-214.42076702871617 296.9671183112984,-136.4618541954921 287.7609114934164,-53.698947969704506 267.76346191989074,33.00845534624739 236.2015533968529,122.68922686499573 192.38419017900657,214.26504499136234 135.7163751923223,306.5564607553026 65.71260610972334,398.2906218335954 -17.990097865579287,488.110670078515 -115.61983236213536,574.5868075391126 -227.2583059464493,656.2290048619941 -352.83040116542577,731.5013037712957 -492.09499998171407,798.8376422550036 -644.637272835056,856.659107354591 -809.8626257123325,903.3924963183615 -986.99249201569,937.4900426087346 -1175.0621455933795,957.4501391433104 -1372.920697981096,961.8388675091497 -1579.233426665164,949.3121190451693 -1792.4865620291075,918.6380719762097 -2010.9946386250913,868.7197685502094 -2232.910491603244,798.6175177277919 -2456.2379516568085,707.5708327529137 -2678.8472618625256,595.019599241874 -2898.493207519159,460.6241586057627 -3112.8359157600426,304.2839839950448 -3319.464245627861,126.15462183324308 -3515.9216517823693,-73.33742832402442 -3699.7343664357963,-293.4822191506877 -3868.441704884855,-533.2765616869482 -4019.628260577437,-791.4172353535225 -4150.957716492691,-1066.297487889554 -4260.207961231019,-1356.0070895035901 -4345.307161134829,-1658.3361790256956 -4404.370404540477,-1970.7831086147053 -4435.736501459303,-2290.566457679521 -4438.004492171072,-2614.6413462516107 -4410.069391956874,-2939.72013329683 -4351.1566770671525,-3262.2975366462533 -4260.854999563361,-3578.680158691282 -4139.1466064215265,-3885.020346134515 -3986.4349317419183,-4177.354253384754 -3803.5688305356502,-4451.64391817303 -3591.862928774581,-4703.823095250987 -3353.113577558313,-4929.846530278591 -3089.609919674294,-5125.742291939418 -2804.1396047355133,-5287.666716714464 -2499.9887246289336,-5411.961458421363 -2180.9355842666764,-5495.212074446714 -1851.2379735792201,-5534.307523457591 -1515.6136652064124,-5526.49989618769 -1179.2139282068777,-5469.463652580638 -847.5899209936463,-5361.353596067228 -526.6519061741228,-5200.860779967465 -222.62131548230388,-4987.265512846285 58.024216122948616,-4720.486609963061 308.6126326248126,-4401.126027565026 522.345741589613,-4030.508016422248 692.3735855246314,-3610.7119413770556 811.8743805698805,-3144.5979353587104 874.1393990349288,-2635.8245897984034 872.6620689669638,-2088.8579290262855 801.2304627317972,-1508.9709743072908 654.0222489042319,-902.2332737668312 425.7010890514449,-275.4898575487705 111.51337473703535,363.67082707419866 -292.61587821910854,1006.9603386079975 -789.9892300122466,1645.4452415313226 -1383.0464213042014,2269.6137736646037 -2073.2787369504476,2869.454131436088 -2861.149515734188,3434.5441758923744 -3746.022209344688,3954.15220697308 -4726.097393994553,4417.348292221716 -5798.360120782834,4813.125470341513 -6958.538955224818,5130.529981592586 -8201.078001496098,5358.79950788166 -9519.123132277888,5487.508237575929 -10904.523550240574,5506.717405748808 -12347.849692002246,5407.129802025332 -13838.428349901526,5180.2465877859195 -15364.395731477507,4818.5246246384695 -16912.769001726672,4315.532389213567 -18469.536659912785,3666.1024379376136 -20019.76789207812,2866.478291902301 -21547.740813932774,1914.4535386469358 -23037.089278211974,809.5008968611902 -24470.967667961093,-447.11103615521597 -25832.232834849685,-1852.215634002509 -27103.642072159746,-3400.662938559579 -28268.065738402438,-5085.253397376186 -29308.712872723285,-6896.692743263275 -30209.3678706957,-8823.56999613271 -30954.6360223215,-10852.360412194339 -31530.195456761154,-12967.455017595506 -31923.05279433726,-15151.218142610342 -32121.799579627466,-17384.0741190922 -32116.866363954126,-19644.62401907874 -31900.771125276522,-21909.79299761963 -31468.358562318244,-24155.008459990848 -30817.026681555384,-26354.408904850985 -29946.937014130817,-28481.08290345178 -28861.20475830659,-30507.33726407049 -27566.065144933906,-32404.993004200434 -26071.012371476754,-34145.7073149677 -24388.907546875693,-35701.31925742789 -22536.05223702924,-37044.216483906326 -20532.22440048305,-38147.71983484312 -18400.673757047138,-38986.48222841974 -16168.07393895642,-39536.89784264044 -13864.429134609494,-39777.517193720916 -11522.933347987795,-39689.463347019824 -9179.780860937923,-39256.84416375352 -6873.9269982625065,-38467.15519487958 -4646.798853864026,-37311.66758913718 -2541.956236153103,-35785.7951915867 -604.7037278722905,-33889.434877994136 1118.3445760309314,-31627.27410475657 2579.7453950383388,-29009.05965888085 3731.7486845492276,-26049.821672542475 4526.858459587181,-22770.047125954716 4918.4276026134285,-19195.797303997075 4861.281518216123,-15358.763998860328 4312.3647940528335,-11296.259664397563 3231.404349575832,-7051.137228709252 1581.5819118835152,-2671.635859223084 -669.7919380701521,1788.8503521907417 -3550.6104452582654,6272.083060498408 -7083.318855203541,10715.371136532598 -11284.28724739827,15052.043466267469 -16163.217499026105,19212.00263638379 -21722.594060871255,23122.358025914393 -27957.188331294536,26708.135736427423 -34853.62640345185,29893.06166505441 -42390.029827860555,32600.41286684914 -50535.73877057684,34753.93117804069 -59251.12655112144,36278.79189303993 -68487.5140099677,37102.61912012634 -78187.19148012382,37156.538298700114 -88283.55532021812,36376.25526089447 -98701.36500802956,34703.15017858599 -109357.12569624066,32085.3737703942 -120159.59990048186,28478.932269086472 -131010.45063001223,23848.746885042106 -141805.01679177838,18169.67286286879 -152433.22010964996,11427.462732314523 -162780.60111472337,3619.6580170160937 -172729.47999414534,-5243.606499853706 -182160.2362515573,-15138.901831662528 -190952.69925020804,-26028.922823424095 -198987.63980044163,-37862.04039232795 -206148.3510384044,-50572.00255091635 -212322.30494600846,-64077.797916157026 -217402.86900813266,-78283.69430468975 -221291.06571779086,-93079.46368096347 -223897.35595023388,-108340.8031619478 -225143.42566021267,-123929.9599936997 -224963.9539405765,-139696.5664084342 -223308.3392427415,-155478.6880562365 -220142.35952769153,-171104.08729678803 -215449.74131669418,-186391.70005042924 -209233.61206931664,-201153.32216482697 -201517.81005662915,-215195.49837706465 -192348.0259418458,-228321.60396802245 -181792.75064878448,-240334.10614635184 -169944.00480766568,-251036.98909621217 -156917.82613182327,-260238.32351181415 -142854.4925084593,-267752.95836096373 -127918.4603883629,-273405.3096094983 -112298.00023593087,-277032.2177409578 -96204.51335008527,-278485.8431647285 -79871.51728181327,-277636.5660655716 -63553.290343518864,-274375.8549533051 -47523.16931204618,-268619.0661680847 -32071.498348988,-260308.13492903957 -17503.231370904472,-249414.11722472272 -4135.194565367484,-235939.54097487568 7706.97957231272,-219920.52448270156 17692.230455872716,-201428.6202817068 25487.738678541096,-180572.3430926162 30762.86009373249,-157498.34177226646 33193.293407597244,-132392.17687964052 32465.444980785793,-105478.66782210759 28280.94964883452,-77021.77648730537 20361.30166765559,-47323.997817797375 8452.545443419422,-16725.23194229531 -7670.028412644659,14398.882771336375 -28197.23988142303,45639.191050172616 -53281.49060452023,76555.80587263683 -83032.4133397732,106681.46049850529 -117512.76599797995,135525.42357369186 -156734.63785014287,162577.96624982948 -200656.03614203603,187315.3626482825 -249177.92119506348,209205.397110492 -302141.75705739704,227713.34359098302 -359327.642851866,242308.37435278765 -420453.08711133193,252470.3469128161 -485172.4835700011,257696.91005703498 -553077.3420741804,257510.861809844 -623697.322481214,251467.68460953012 -696502.1126377663,239163.17572817154 -770904.183785446,220241.0842968866 -846262.4480659508,194400.6602755451 -921886.8332336958,161404.0154582115 -997043.7792919364,121083.19224927813 -1070962.6506213297,73346.83259395395 -1142843.045357169,18186.33720988249 -1211862.9713940683,-44318.59575371188 -1277187.8455722872,-113995.16321235869 -1337980.2594564918,-190573.48969561548 -1393410.441798812,-273683.60569367826 -1442667.3344364548,-362853.47286610596 -1484970.1851754894,-457508.1509272936 -1519580.5483293107,-556970.1931751316 -1545814.5711951638,-660461.3481737648 -1563055.4330517142,-767105.634048343 -1570765.792436773,-875933.8392299579 -1568500.0887100964,-985889.489354044 -1555916.5354148042,-1095836.304440614 -1532788.635912632,-1204567.1535663255 -1499016.0463676718,-1310814.4960974827 -1454634.6075674794,-1413262.2793332818 -1399825.365465788,-1510559.2422769857 -1334922.4008596581,-1601333.5543981974 -1260419.2914127698,-1684208.6968836102 -1176974.0344223073,-1757820.4722275122 -1085412.2663954205,-1820835.0063380525 -986728.6257228085,-1871967.5858976636 -882086.1175563871,-1910002.1528000531 -772813.3554285159,-1933811.257385128 -660399.5721761775,-1942376.2532138333 -546487.3133031804,-1934807.498576356 -432862.74894246284,-1910364.3141256608 -321443.5659461144,-1868474.4322851384 -214264.42917487942,-1808752.6627060692 -113460.03058374308,-1731018.4893442187 -21245.775972240204,-1635312.3089761755 60103.80798558323,-1521910.0184504348 128278.82990397714,-1391335.6589173458 180959.80177872282,-1244371.829922114 215845.23256829847,-1082067.594770825 230680.8256029636,-905743.6111395595 223290.02334209974,-716994.2376100068 191605.60903887288,-517686.38774894114 133702.04224720437,-309954.928525443 47828.17431606177,-96194.4492533273 -67560.03843582235,120952.73923212556 -213767.23177269276,338612.4779379285 -391827.1709733641,553698.5670884472 -602472.5771741611,762936.5241431842 -846106.7051909564,962891.2610426968 -1122777.1446074303,1149998.5983905608 -1432152.3198878332,1320600.481021298 -1773501.1635892543,1470983.7042612338 -2145676.4290588093,1597421.9037284725 -2547102.094992169,1696220.5043463565 -2975765.2936597597,1763764.2670328394 -3429213.167284411,1796567.014977937 -3904555.0228750496,1791323.0662875057 -4398470.114743135,1744959.846828535 -4907221.336008961,1654691.1071697804 -5426675.045773324,1518070.1213892226 -5952327.197525529,1333042.2040507812 -6479335.867098383,1097995.8456599603 -7002560.205498264,811811.737210319 -7516605.763751663,473908.9318171289 -8015876.054144998,84287.37666043693 -8494630.125618475,-356433.95776710927 -8947045.841419064,-846984.1211398484 -9367288.455344297,-1385413.1567882984 -9749583.990006952,-1969071.739456355 -10088296.827610347,-2594598.1778854956 -10378010.831891337,-3257913.4381142193 -10613613.230385166,-3954224.7875600704 -10790380.400258027,-4678038.592927537 -10904064.619954236,-5423182.726842575 -10950980.774146162,-6182838.949079543 -10928091.932309248,-6949585.528698153 -10833092.663013523,-7715450.263880728 -10664488.898049677,-8471973.937447343 -10421673.124076897,-9210284.118785027 -10104993.655817533,-9921179.088275708 -9715816.73507909,-10595221.519424323 -9256580.205110485,-11222841.408108411 -8730837.530937364,-11794447.589181913 -8143290.974167726,-12300547.029690897 -7499812.785970102,-12731870.936964294 -6807453.354969616,-13079506.57069514 -6074435.337978106,-13335033.502819065 -5310132.910841792,-13490662.929579007 -4525035.4041235205,-13539378.50877569 -3730694.73345195,-13475077.074014295 -2939656.1965511614,-13292707.46895259 -2165372.387336362,-12988405.650329638 -1422100.1708867657,-12559624.131040016 -724780.8701929117,-12005253.775820334 -88904.03465516411,-11325735.924198141 469644.6105330968,-10523162.80010969 934750.1979306191,-9601364.176701842 1290249.6556013701,-8565978.29984198 1520125.2249933376,-7424505.136035377 1608708.9895336526,-6186340.10087448 1540896.602290024,-4862786.543545503 1302368.165118957,-3467045.4117935137 879813.9854535859,-2014180.7001752234 261162.72374940902,-521059.4922140454 -564190.7518768554,993734.3564507386 -1605160.6635362408,2510013.582630655 -2868751.7862071097,4006128.3261428135 -4359850.212584069,5459134.469750315 -6081026.6522085415,6844989.254908622 -8032355.557685449,8138773.563315547 -10211253.394651653,9314939.88158041 -12612339.356347252,10347584.580880163 -15227321.765731368,11210742.749246694 -18044913.305942543,11878703.415406087 -21050778.071863476,12326342.604548497 -24227513.240378663,12529471.273017934 -27554667.913855568,12465194.785890829 -31008801.40029777,12112280.234253956 -34563582.85486528,11451527.543290941 -38189933.82210659,10466140.00381108 -41856214.78791812,9142089.574361704 -45528456.37734075,7468472.054343005 -49170635.321787,5437847.026232762 -52744994.77095316,3046557.312640799 -56212407.94487482,295022.59667166136 -59532783.51548565,-2811998.1831065905 -62665510.48037174,-6265181.02443174 -65569939.650644764,-10050452.90531621 -68205898.22696216,-14148854.777874988 -70534233.29033141,-18536456.367221184 -72517379.3955032,-23184327.311554812 -74119944.83302444,-28058568.782692622 -75309310.53025335,-33120409.2513397 -76056235.00100368,-38326367.509071335 -76335458.23729181,-43628485.43096006 -76126296.97431856,-48974632.26178892 -75413223.36069535,-54308881.438692644 -74186418.73919219,-59571960.128769614 -72442293.997888,-64701770.76784798 -70183967.79603504,-69633982.94333857 -67421693.91113454,-74302692.9782987 -64173229.000974596,-78641147.55490144 -60464132.23310443,-82582526.67387684 -56327988.50994761,-86060780.19364335 -51806547.41485043,-89011511.14107355 -46949770.52606954,-91372897.94837056 -41815780.39380813,-93086646.76113547 -36470705.25039465,-94098963.99593225 -30988414.42434545,-94361538.41627163 -25450140.452644136,-93832521.15921663 -19943985.02753962,-92477491.39589757 -14564307.168305092,-90270394.66348104 -9410993.366550738,-87194440.37830904 -4588610.90598325,-83242944.64469194 -205447.09213678644,-78420104.22478111 3627561.268967456,-72741687.44517535 6798002.147415729,-66235627.896976344 9193258.632152904,-58942507.048604295 10701865.93973145,-50915912.343410075 11214943.98014848,-42222658.004390135 10627692.685826773,-32942856.62096252 8840935.67102796,-23169830.651002202 5762696.219990636,-13009854.23561611 1309788.1269996234,-2581717.192522046 -4590597.444858269,7983895.278033188 -11999329.132609265,18545211.78079914 -20963817.66127764,28950375.370305263 -31516565.19471648,39038636.00604402 -43673804.330095746,48641732.807855636 -57434249.71538917,57585461.60486214 -72777985.40857723,65691420.66349561 -89665510.95857973,72778924.78636874 -108036968.7539481,78667075.22132656 -127811574.44204725,83176970.03968206 -148887271.15699854,86134036.8667235 -171140626.90116927,87370467.1112713 -194426992.69737142,86727728.1807191 -218580937.06671238,84059127.62210448 -243416969.99301365,79232400.73736835 -268730566.81694525,72132291.02239983 -294299499.4730991,62663090.81478771 -319885479.15848094,50751107.84475952 -345236110.92243487,36347022.006775476 -370087156.8227566,19428095.643941443 -394165100.23149794,200.00000048271326" stroke="white" stroke-width="1.5" /></svg>