<?xml version="1.0" encoding="utf-8" ?>
<svg baseProfile="full" height="400" version="1.1" width="400" xmlns="http://www.w3.org/2000/svg" xmlns:ev="http://www.w3.org/2001/xml-events" xmlns:xlink="http://www.w3.org/1999/xlink"><defs /><rect fill="black" height="100%" width="100%" x="0" y="0" /><circle cx="200" cy="200" fill="yellow" r="10.000015056800791" stroke="orange" stroke-width="2" /><polyline fill="none" points="200.0902702680366,200.0 200.00851949475387,200.00044723455684 199.9217167936362,199.99175826621416 199.83062110310243,199.97312748476295 199.73609617302048,199.94380906020214 199.63910685814088,199.90312989738285 199.54071390612393,199.85050254266403 199.4420672041944,199.78543787844646 199.34439746522335,199.70755743308658 199.24900635216667,199.6166051269113 199.1572550591454,199.5124582700496 199.07055138787882,199.39513762474866 198.99033537949293,199.26481634392223 198.91806358371912,199.1218275990336 198.85519206994343,198.96667071419176 198.8031583072158,198.80001562964193 198.76336206291256,198.62270552675594 198.73714549198186,198.43575745824086 198.725772610286,198.2403608416146 198.73040836617864,198.03787369105697 198.75209754379725,197.8298164824958 198.791743749281,197.61786356917358 198.85008874692127,197.4038320898502 198.9276924257808,197.18966833909747 199.024913688266,196.97743159864805 199.14189256019006,196.7692754602566 199.27853382673288,196.5674267037567 199.4344925001088,196.37416182865488 199.60916142245122,196.19178137335763 199.80166130118758,196.0225821926083 200.01083346383024,195.86882790051175 200.23523560449598,195.73271772321033 200.473140775489,195.61635404137942 200.72253985388107,195.52170893774903 200.98114768519488,195.45059009831866 201.2464130740884,195.40460644729848 201.51553275546277,195.38513392454487 201.78546943883492,195.39328183983488 202.05297397436345,195.42986026020642 202.31461164088478,195.4953489042646 202.56679250506258,195.5898680303135 202.80580574670114,195.71315181294327 203.02785778890504,195.86452470483727 203.22911401363277,196.04288127666294 203.4057437838913,196.24667001761293 203.5539684340166,196.4738815621727 203.67011182988747,196.72204178477017 203.75065304228508,196.98821017294287 203.79228061973186,197.26898385145137 203.79194789284367,197.56050758436825 203.74692869135941,197.85849002966089 203.65487280843516,198.15822646134134 203.51386050536837,198.45462810815548 203.32245531451892,198.74225818539713 203.07975436965452,199.0153746182465 202.78543547208875,199.26797937162618 202.43980008856994,199.4938742136316 202.0438114736417,199.68672264791687 201.59912711578454,199.84011765589048 201.1081247236381,199.94765479318434 200.57392099648197,200.003010087677 200.00038246230167,200.00002208953507 199.39212771745093,199.93277732851394 198.75452046428956,199.79569834142015 198.09365281722583,199.58363334452747 197.4163184331949,199.29194654323305 196.72997511946008,198.9166079957448 196.04269667928583,198.45428188050877 195.3631138738842,197.90241195982145 194.7003445062929,197.25930298599005 194.0639127685556,196.52419676282787 193.46365813661532,195.697341555461 192.9096342464173,194.78005353653714 192.4119983383934,193.77476896803594 191.98089201416477,192.68508584591083 191.62631420720393,191.5157937805291 191.35798742645957,190.27289094994157 191.18521848656715,188.96358704582963 191.11675508814864,187.59629123377672 191.16063975465858,186.18058427029453 191.32406276602265,184.72717405857253 191.61321585166,183.2478340827312 192.03314851409144,181.75532433570754 192.58762894694425,180.26329454777405 193.27901158554346,178.78616972981777 194.10811338228692,177.33901826631688 195.0741009305966,175.93740302563157 196.17439056853067,174.5972161976616 197.40456357441047,173.33449881876047 198.75829852055165,172.16524619842005 200.22732277612522,171.10520071880165 201.8013850453135,170.16963373362992 203.4682506915761,169.37311854403035 205.21372143264898,168.7292966721635 207.0216807938617,168.25063988543917 208.8741664798608,167.94821064104002 210.75147056766428,167.83142381874 212.63226813835104,167.90781278585268 214.49377465225967,168.1828029878984 216.31193203542492,168.6594963786265 218.06162308565357,169.33847008988656 219.7169134281225,170.2175927922067 221.2513198560912,171.29186220773562 222.6381034861076,172.553267205657 223.85058574320846,173.99067783384064 224.8624847747033,175.58976651730876 225.6482694761722,177.33296348246145 226.1835279055947,179.19944924480885 226.44534646661307,181.16518672663804 226.41269586559605,183.20299524961192 226.06681949532603,185.28266827639925 225.39161957680912,187.37113635637326 224.3740361059387,189.43267626517235 223.00441340952375,191.42916681919044 221.27684892138612,193.32039129726743 219.1895186494867,195.06438581713044 216.7449737247227,196.61783239835526 213.95040240612283,197.93649480236218 210.81785197016728,198.97569457949376 207.36440503783146,199.69082408048146 203.6123050950099,200.03789251213246 199.58902624280987,199.9741004429751 195.3272825755957,199.45843750249566 190.86497302751232,198.45229737652807 186.24505805246892,196.92010359069698 181.51536510714965,194.82993900320258 176.72832058939704,192.15417140745018 171.94060664203155,188.8700671838836 167.2127420604132,184.9603845486133 162.60858743524736,180.41393763355137 158.19477561351783,175.22612240795902 154.04006956206226,169.3993953232651 150.21465076109052,162.9436955398059 146.78934232867053,155.8768016830724 143.83477217058186,148.22461428453474 141.42048255068357,140.02135539351087 139.61399357185047,131.3096773060182 138.47982913259938,122.14067294696973 138.07851496504554,112.57378116486588 138.4655593505388,102.67658105316431 139.69042803457705,92.52447039800134 141.79552570647414,82.20022446437194 144.81519715583585,71.79343256690356 148.77476185135637,61.39981121978329 153.6895961923356,51.120394114094466 159.56427804474615,41.060600718767006 166.39180837753673,31.329186930575275 174.15292484806164,22.037082894341864 182.815522036229,13.296124860031341 192.33419268479918,5.217689720417781 202.64990375957666,-2.0887573385591054 213.68982039129043,-8.517189864233245 225.36728979616151,-13.966607884359547 237.58199609224317,-18.34267073006393 250.2202955338812,-21.559357682428896 263.15574008002847,-23.54063769031106 276.24979539944854,-24.222128039587545 289.35275740583324,-23.55272064541421 302.30486922029377,-21.496153614867637 314.93763809247974,-18.032504912686022 327.07534929272333,-13.159584381850095 338.53677133721976,-6.894200046348146 349.1370441504964,0.7267254231168749 358.6897389314131,9.64521194932422 367.0090756005977,19.78147629932633 373.9122808011263,31.033405758593318 379.2220665353609,43.27627241071872 382.76920668625564,56.36270762836526 384.3951859300299,70.12295445500365 383.9548929392349,84.36541328190657 381.3193273422952,98.87749360564594 376.37828768956587,113.42678169759685 369.0430057189072,127.7625307429907 359.2486905574452,141.61747643216066 346.9569451812862,154.7099771351097 332.1580165207249,166.74647369178524 314.87284008204534,177.4242595388887 295.15483989276277,186.43454740907384 273.0914449961883,193.46581422416173 248.80528465064663,198.2074011092772 222.45502585122105,200.35334073257968 194.23581880496184,199.60637948245292 164.37931856599226,195.68215739094944 133.15325418044762,188.3135042622445 100.86052040165478,177.2548062334453 67.83777130520383,162.28639304959688 34.453499945899836,143.21889274336198 1.1055935305151365,119.89749724101664 -31.78164059974108,92.20607973781395 -63.76097661476456,60.07110256357916 -94.36629123808098,23.465252757278392 -123.11708894233857,-17.589258252575718 -149.52350876062957,-63.01779455057681 -173.09178267536754,-112.69085820846112 -193.33010791651304,-166.42217578784187 -209.75488782862834,-223.96736793106209 -221.8972883440996,-285.02325780652296 -229.31004962606949,-349.2278699676327 -231.57448522213326,-416.1611660543142 -228.30759420529637,-485.3465577147771 -219.16920538146235,-556.2532301666121 -203.86906682371716,-628.2993019760204 -182.1737888639891,-700.8558379506358 -153.9135443422819,-773.2517225664332 -118.98842649001045,-844.7793911476765 -77.37436241036863,-914.7014051687236 -29.128478812700138,-982.257846639619 25.606183449905956,-1046.6744946781641 86.59670831862891,-1107.1717351769375 153.51719669856215,-1162.9741420737168 225.94660768324175,-1213.3206562685198 303.36763926908566,-1257.4752758506845 385.1667321206402,-1294.7381591647388 470.63527157348364,-1324.4570305218026 558.9720531914077,-1346.0387672272466 649.2870658506242,-1358.9610362231356 740.6066335487816,-1362.7838392159151 831.8799429933179,-1357.1608168561736 921.986968596829,-1341.8501555370065 1009.747789902279,-1316.7249348547232 1093.9332788058662,-1281.7827498980673 1173.2771153895042,-1237.154440458366 1246.4890718886036,-1183.1117591294799 1312.2694844951866,-1120.073812225402 1369.3248125418884,-1048.6121115999736 1416.384164357757,-969.4540819028657 1452.2166489771967,-883.4848766221089 1475.6493931788887,-791.747367494943 1485.5860443042698,-695.4401855374902 1481.0255612371393,-595.9137080432082 1461.0810791064494,-494.66390439246413 1424.9986179958735,-393.32397433139124 1372.175392499892,-293.65373541399305 1302.177467646846,-197.5267414193882 1214.7564977978172,-106.91514058313487 1109.865278898512,-23.87231120944793 987.6718411664807,49.48665758370046 848.5718091756532,111.00654086997615 693.1987595685825,158.5154773210285 522.4323134701219,189.850228905862 337.4037112487466,202.88300386380809 139.49863169204863,195.54961326607955 -69.64296399134139,165.878699484234 -288.13016062456813,112.02174399876 -513.8277609965692,32.283532666224005 -744.3664421629034,-74.84727071125269 -977.1565030867127,-210.66781642904385 -1209.4052730787485,-376.23142221655803 -1438.1382096042275,-572.3190018506107 -1660.2236700390242,-799.4119974080161 -1872.4012952182188,-1057.6672535338798 -2071.31389352316,-1346.8942773341644 -2253.5426632524595,-1666.5353275663854 -2415.6455386234197,-2015.6487713528295 -2554.1983915132614,-2392.8961353765453 -2665.8387675786175,-2796.533261190678 -2747.3117823376647,-3224.4059506868593 -2795.5177508497404,-3673.9504578026663 -2807.561074502171,-4142.199146146689 -2780.7998608595003,-4625.791589404728 -2712.895708310144,-5120.991342265304 -2601.8630471326355,-5623.708554354935 -2446.117393372758,-6129.528538581438 -2244.5218423389997,-6633.746338715372 -1996.4311053330684,-7131.407269456516 -1701.7323771512802,-7617.353326189525 -1360.8823135984735,-8086.275281777222 -974.9393983719422,-8532.770204809754 -545.5909877622386,-8951.404048549464 -75.17434016713833,-9336.778873292633 433.3090341718032,-9683.604177997835 976.186329216913,-9986.771730864146 1549.1142820176497,-10241.433204198163 2147.088412067784,-10443.079837559953 2764.4611089432215,-10587.623276037113 3394.968935947758,-10671.476658803325 4031.7694274764135,-10691.634968131053 4667.487558305638,-10645.753592006213 5294.27195463652,-10532.224005674589 5903.860800208641,-10350.245440052748 6487.657267069586,-10099.891379117738 7036.814170686161,-9782.169715250315 7542.327414220951,-9399.075392058161 7995.137648315909,-8953.634379356568 8386.239432104925,-8449.937855526408 8706.797040025745,-7893.1655190527335 8948.265919037627,-7289.597014166458 9102.518663896442,-6646.610535489425 9161.974246099115,-5972.667773554719 9119.729106954217,-5277.284476968143 8969.688608986447,-4570.986037515492 8706.697234579085,-3865.247651187888 8326.665828445224,-3172.4187701554774 7826.694103214594,-2505.631737180032 7205.186567092837,-1878.6946835894678 6461.959991083711,-1305.9689732657641 5598.340512440664,-802.2316864009082 4617.248472472918,-382.5238560924489 3523.269112048517,-61.98539599007256 2322.707298389572,144.3221142436566 1023.6245330943841,221.60338954623623 -364.1434054544128,155.52652268294574 -1828.989701511154,-67.57265575201654 -3357.56198119666,-460.48100072116665 -4934.811203785881,-1034.8955227260392 -6544.064924552024,-1801.210356095653 -8167.125649727641,-2768.3058479209503 -9784.394740237594,-3943.342539416407 -11375.022033598812,-5331.562936465999 -12917.081044769417,-6936.104063424281 -14387.769279185964,-8757.823860837118 -15763.632847547444,-10795.144520729478 -17020.814215290233,-13043.915849821731 -18135.321553716436,-15497.301709091435 -19083.317788316497,-18145.692495429048 -19841.427067219625,-20976.646506042678 -20387.056003469566,-23974.862857464694 -20698.726683779198,-27122.188417676032 -20756.41808860203,-30397.66095166089 -20541.912238987898,-33777.59037784436 -20039.141080096222,-37235.6796861272 -19234.529834815756,-40743.18667898622 -18117.332319078418,-44269.12726735412 -16679.953508481656,-47780.520585364786 -14918.254488929295,-51242.675685823655 -12831.834817138844,-54619.5190453744 -10424.28726472418,-57873.96154935946 -7703.419926457847,-60968.30304651365 -4681.440743117709,-63864.67196870759 -1375.0996253725032,-66525.49690736661 2194.2164297975,-68914.00643284932 6000.4395625403295,-70994.75284339975 10012.832597338907,-72734.15494413495 14196.059476487151,-74101.05439206991 18510.31764840995,-75067.27960892186 22911.53491420444,-75608.21076801556 27351.632601594265,-75703.33891381907 31778.856235572162,-75336.81188121767 36138.174113667395,-74497.95935524034 40371.743376371865,-73181.78915900305 44419.442296203095,-71389.44668618405 48219.466599635474,-69128.62931199884 51708.98669318361,-66413.94763039102 54824.86169773726,-63267.225481253365 57504.40521424322,-59717.73095536464 59686.19676028336,-55802.330900804234 61310.931843068756,-51565.56190621381 62322.30268261874,-47059.61130554405 62667.90068275375,-42344.20243665279 62300.1308807766,-37486.3791916794 61177.1278034447,-32560.185818389677 59263.66143129453,-27646.23896495348 56532.02133978831,-22831.19010052582 52962.8665581646,-18207.077683520794 48546.02827894941,-13870.569779846332 43281.25227590673,-9922.099244141109 37178.867758091634,-6464.895056053751 30260.369413966426,-3603.91493701959 22558.899592368107,-1444.6859453566894 14119.61793525937,-92.06134190537472 4999.946327798482,351.09638350752783 -4730.322230294282,-214.70514758834452 -14989.06129842649,-1884.1595128887652 -25682.00455808765,-4745.697955512219 -36703.10329572815,-8880.006916647117 -47935.05433479359,-14358.543847908759 -59250.003262925784,-21242.06969222402 -70510.42594410173,-29579.217447634037 -81570.18928771923,-39405.11708118742 -92275.79008163857,-50740.09771790887 -102467.76840103169,-63588.48847143273 -111982.28969939532,-77937.53948831097 -120652.8871947978,-93756.48472886902 -128312.35360849259,-110995.76768736065 -134794.76872202675,-129586.45064888726 -139937.64662280155,-149439.82717853886 -143584.18393865644,-170447.2563308377 -145585.58785318598,-192480.23554937541 -145803.46028044526,-215390.72739561394 -144112.2122968907,-239011.753104002 -140401.4808170444,-263158.26351368526 -134578.5175951158,-287628.29518508917 -126570.51897518455,-312204.4164870197 -116326.86343461247,-336655.4651553295 -103821.22290508136,-360738.5753010263 -89053.51314753831,-384201.4881117857 -72051.64813376687,-406785.1365785471 -52873.06347804636,-428226.4905248798 -31605.97449406306,-448261.6440621019 -8370.335447798438,-466629.1233826726 16681.531944778388,-483073.38858674193 43364.670751805075,-497348.49906397384 71461.60928825411,-509221.9078798008 100722.8943162526,-518478.34669938637 130868.05799904723,-524923.75908309 161587.03563638826,-528389.2365646573 192542.04674187963,-528734.9088387662 223369.9471001615,-525853.7366990014 253685.05409441728,-519675.1541410008 283082.4418606686,-510168.5043367284 311141.69675010396,-497346.2130506463 337431.1172170147,-481266.64255948144 361512.3356575938,-462036.5693025284 382945.3329706182,-439813.2293721778 401293.80976806616,-414805.8775917026 416130.87131119624,-387276.8083493141 427044.9764700807,-357541.7895867593 433646.09439155343,-325969.86539095215 435572.0062050567,-292982.4875130626 432494.68309444585,-259051.94183571683 424126.6665147497,-224699.04230960386 410227.371335479,-190490.0721588045 390609.22834550106,-157032.96017113645 365143.57895640767,-124972.68859549111 333766.2321865475,-94985.9385003382 296482.5921872641,-67774.98833218617 253372.26377161383,-44060.89176385197 204593.04370208914,-24575.97164235781 150384.2069575571,-10055.677826526162 91068.99989068188,-1229.8678257106892 27056.256154238512,1186.4197153168902 -41158.94344589676,-3497.3823678265303 -112995.63939948865,-15937.382833115289 -187788.45451550814,-36745.012901189424 -264790.2025058657,-66476.68676054862 -343175.68852081767,-105623.46254660294 -422046.73417191335,-154600.83272861826 -500438.44652388623,-213738.77987346397 -577326.7363657159,-283272.23956988886 -651637.0758848024,-363332.1167379056 -722254.46978739,-453937.0044671744 -788034.5970737496,-554985.7557883065 -847816.0632465982,-666251.0582545191 -900433.6848830153,-787374.1587852219 -944732.7104276968,-917860.8818007915 -979583.8629786149,-1057079.0771803784 -1003899.072958932,-1204257.6259438323 -1016647.751137931,-1358487.1207593211 -1016873.4357254782,-1518722.3253990936 -1003710.631473649,-1683786.5021224546 -976401.6441356189,-1852377.6787009414 -934313.2005180878,-2023076.9074887235 -876952.6329807417,-2194358.547684285 -803983.3978422992,-2364602.5788618554 -715239.6899975685,-2532108.9291386064 -610739.9113724958,-2695113.7751833396 -490698.7488686793,-2851807.743892959 -355537.6183807941,-3000355.9172235387 -205893.23549282542,-3138919.512651125 -42624.080729036206,-3265679.0823698 133185.4621197874,-3378859.044952607 320223.5019615259,-3476753.334168773 516951.7603883953,-3557751.9213533574 721609.5842328402,-3620367.9405642212 932220.9945491801,-3663265.1201497214 1146604.8877380996,-3685285.20071159 1362388.4730694166,-3685474.998207044 1577023.996240941,-3663112.75251749 1787808.761057896,-3617733.3866359903 1991908.4210984795,-3549152.2900982755 2186383.4706687103,-3457487.232790376 2368218.819816036,-3343178.0121727986 2534356.2920883903,-3207003.4386003073 2681729.8365631835,-3050095.27008433 2807303.1979431086,-2873948.7197951395 2908109.7407788113,-2680429.1770390254 2981294.0767258047,-2471774.8055221746 3024155.097799708,-2250594.7115181726 3034189.974512966,-2019862.4091156682 3009138.636230764,-1782904.3499923903 2947028.212760166,-1543383.3310223413 2846216.8817774556,-1305276.6442791927 2705436.536894603,-1072848.890374179 2523833.666645404,-850619.4372025819 2301007.816094536,-643324.571627765 2037046.9907676864,-455874.46088067384 1732559.3577571022,-293305.112888208 1388700.6017149796,-160725.59967863193 1007196.3044863899,-63260.8846808834 590358.7367661393,-5990.67230060045 141097.4787190695,6115.224287234396 -337076.6757744524,-31735.575395079395 -840055.0295535655,-124088.2155187208 -1363141.9492163495,-275169.2568531648 -1901073.8650315946,-488814.5722347291 -2448046.6052566143,-768397.3327784493 -2997751.2829038324,-1116756.9887543814 -3543418.8612033282,-1536130.1972812254 -4077873.424494369,-2028084.6886094124 -4593594.074766857,-2593457.0927027604 -5082785.261420158,-3232295.767061667 -5537455.234002247,-3943809.6743056667 -5949502.1858565435,-4726324.353073773 -6310807.531983144,-5577246.0075296685 -6613335.638379761,-6493034.708511745 -6849239.194137063,-7469187.652609624 -7010969.293195243,-8500233.36378961 -7091389.17157915,-9579737.645400854 -7083890.42984337,-10700321.998412762 -6982510.461156765,-11853695.11469094 -6782049.704750756,-13030697.932334507 -6478187.254177842,-14221362.604102397 -6067593.271794901,-15414985.580489408 -5548036.596893927,-16600214.847027767 -4918485.886684488,-17765151.18207209 -4179202.5985464184,-18897463.118064255 -3331824.1101657497,-19984515.097686246 -2379435.2827622043,-21013508.118221436 -1326626.8028707854,-21971631.95488464 -179538.6911275844,-22846227.849070247 1054112.5569055493,-23624960.342801347 2365024.632033549,-24295996.738702238 3742319.183592187,-24848192.46824704 5173571.861155794,-25271280.462673873 6644863.609912984,-25556062.443684667 8140854.005353948,-25694599.887826286 9644877.191364717,-25680402.272237226 11139060.742421199,-25508610.083212 12604467.506880505,-25176169.965679444 14021260.206302714,-24681999.314041037 15368888.267580358,-24027137.55555161 16626296.05303751,-23214881.359065447 17772151.331558637,-22250901.016809642 18785092.50452932,-21143335.296932142 19643992.767523944,-19902862.15162814 20328239.05616978,-18542742.79108231 20818023.296606056,-17078836.798278403 21094643.161824673,-15529586.164507387 21140809.229490615,-13915966.37029219 20940955.14929799,-12261402.921062332 20481547.163314246,-10591652.07039415 19751389.085929763,-8934644.824549532 18741918.645765502,-7320293.71841898 17447490.924927257,-5780262.282250046 15865644.505896538,-4347697.577577748 13997345.85748535,-3056926.6658581872 11847207.462726763,-1943118.3801468266 9423675.217052015,-1041912.2939124956 6739180.7079190025,-389017.31635390327 3810254.1300189407,-19782.88450116621 657593.7955428025,31253.73741146582 -2693911.5316336965,-269159.99190957163 -6215210.914655027,-952504.0524840085 -9873173.172608208,-2047987.7939531703 -13630725.032966863,-3582047.159531586 -17447047.553747132,-5577843.155786743 -21277832.27369008,-8054767.904651619 -25075597.90339459,-11027964.94458899 -28790067.671593755,-14507870.71755349 -32368606.693818424,-18499784.379911464 -35756717.94158053,-23003473.20170038 -38898594.56594676,-28012820.862941217 -41737725.47782579,-33515525.912092775 -44217550.217268184,-39492857.51484893 -46282158.265130766,-45919475.386751875 -47877027.07293388,-52763320.46690895 -48949792.2216582,-59985582.44984668 -49451042.27917413,-67540749.74671356 -49335130.121049754,-75376746.79538111 -48560991.72306697,-83435162.8824974 -47092962.7385658,-91651575.78163141 -44901582.55245902,-99955972.55410555 -41964374.96911627,-108273268.80828343 -38266594.255747624,-116523926.57576941 -33801924.93848181,-124624669.7475495 -28573123.54650839,-132489294.72943747 -22592590.431168992,-140029572.63571677 -15882859.861506086,-147156237.95540875 -8476996.824182628,-153780057.21148196 -418889.341209601,-159812969.70511663 8236574.33057335,-165169291.01169702 17423453.534625743,-169766968.49041858 27064837.1095471,-173528876.70417282 37073067.30551416,-176384139.34027857 47350112.45071328,-178269462.995936 57788093.6963858,-179130467.06553093 68269969.60924777,-178922992.96084142 78670380.66887867,-177614375.03038374 88856653.87626883,-175184654.84081262 98689965.70176622,-171627719.96102056 108026659.51228026,-166952348.0669953 116719711.43736075,-161183137.0799598 124620336.3826739,-154361302.17773825 131579723.60065833,-146545320.8936049 137450888.90721145,-137811408.15003836 142090628.31750113,-128253803.97624515 145361555.59254393,-117984857.83476374 147134203.9718033,-107134894.93778765 147289170.24753985,-95851851.66849542 145719277.3470133,-84300669.233933 142331729.76213318,-72662436.95719281 137050234.53669697,-61133279.157674454 129817059.12208618,-49922982.354668975 120594996.2764006,-39253362.54338202 109369205.34088391,-29356375.511325173 96148898.71174146,-20471976.560644075 80968842.16283965,-12845739.547940023 63890637.891479895,-6726248.813486195 45003759.77761022,-2362281.3083901866 24426311.386269834,199.99999997008663" stroke="white" stroke-width="1.5" /><circle cx="191.49830218033995" cy="249.27191019417847" fill="red" opacity="0.7" r="14.320390859672262" /><circle cx="180.69113542661592" cy="246.1212288310569" fill="red" opacity="0.7" r="14.320390859672262" /></svg>