<?xml version="1.0" encoding="utf-8" ?>
<svg baseProfile="full" height="400" version="1.1" width="400" xmlns="http://www.w3.org/2000/svg" xmlns:ev="http://www.w3.org/2001/xml-events" xmlns:xlink="http://www.w3.org/1999/xlink"><defs /><rect fill="black" height="100%" width="100%" x="0" y="0" /><circle cx="200" cy="200" fill="yellow" r="10.000002196756622" stroke="orange" stroke-width="2" /><polyline fill="none" points="200.30936831313306,200.0 200.2506527081852,200.01315812217769 200.18670066286245,200.01965603138174 200.1180168193162,200.0187237538642 200.04520045297178,200.0096241724148 199.96894442036714,199.99166413312713 199.8900328744787,199.96420574044112 199.80933769347814,199.9266777122708 199.72781358125124,199.87858665768434 199.646491811745,199.81952813134592 199.56647260421238,199.74919731193063 199.48891613259235,199.66739914615903 199.4150321894746,199.5740577961285 199.34606854320714,199.46922522540348 199.28329804554974,199.35308875900878 199.2280045666651,199.2259774541822 199.1814678539764,199.08836712259847 199.14494743127366,198.94088385087116 199.1196656741906,198.78430587454827 199.10679021753842,198.61956367158942 199.10741586871427,198.44773815447368 199.1225462192162,198.27005685563162 199.15307516291935,198.08788801879206 199.19976854490577,197.9027325290144 199.26324617800816,197.71621363654697 199.3439644755426,197.5300644540765 199.44219995768518,197.34611323324742 199.55803389532602,197.16626645433348 199.69133835875957,196.9924897923999 199.84176393900395,196.82678705393536 200.00872940667446,196.67117720945572 200.19141356698123,196.52766967965482 200.3887495594236,196.3982380649363 200.59942183699394,196.284792540219 200.8218660421029,196.18915116835248 201.05427197495385,196.11301041587654 201.2945898247398,196.057915183762 201.54053980486069,196.02522869271857 201.78962530047576,196.01610258718443 202.03914960027163,196.03144764375213 202.28623624455844,196.07190548807637 202.52785297897577,196.13782173879676 202.76083925752454,196.22922100725972 202.98193719072268,196.34578418742518 203.18782578485397,196.4868284709168 203.3751582670267,196.6512905173731 203.54060223863073,196.83771319978104 203.6808823473616,197.0442363280759 203.7928251159078,197.268591731775 203.87340551433496,197.5081030536524 203.9197948138616,197.75969057139363 203.92940921282366,198.01988132280897 203.8999586819258,198.2848247626235 203.82949543612781,198.5503141252793 203.71646140547523,198.81181360884028 203.55973404760914,199.0644914303398 203.35866982130815,199.30325873319492 203.11314462393898,199.52281425316508 202.82359048678282,199.7176945713845 202.4910278214825,199.88232970195725 202.11709251887882,200.0111036782784 201.70405721875593,200.0984197175128 201.2548460959039,200.1387694574867 200.7730425447355,200.1268056756566 200.26288919167956,200.05741781690585 199.7292797218039,199.92580957682387 199.1777420735737,199.72757771103608 198.61441263317462,199.4587911702827 198.0460011471271,199.11606959652855 197.4797461685655,198.69666015865343 196.92336095797188,198.1985116584465 196.38496987261556,197.6203447998971 195.8730353995875,196.96171748828692 195.396276114107,196.22308401142504 194.96357597655646,195.4058469545295 194.58388551716192,194.51240071365066 194.2661155949416,193.5461655009392 194.0190245559327,192.51161077913403 193.8510997531009,191.41426712289083 193.77043452495903,190.26072558131315 193.78460185991682,189.05862370944735 193.9005260968182,187.81661754650298 194.1243541270281,186.5443389449119 194.4613276678011,185.25233779656273 194.91565826849873,183.9520088599359 195.49040678853862,182.65550306347657 196.18736914682006,181.37562334519734 197.00697018492187,180.12570528477067 197.9481675088501,178.91948299059715 199.0083671749043,177.77094091861227 200.18335306286752,176.69415251980135 201.46723173293452,175.7031068371835 202.85239449052182,174.81152439785896 204.3294982845438,174.03266396886121 205.88746693935727,173.37912196412688 207.51351406813532,172.8626265008685 209.19318883601477,172.49382830387117 210.9104455353951,172.28209084252683 212.64773770403463,172.235282254515 214.38613726024877,172.35957175868302 216.1054788501069,172.6592333846511 217.78452930097922,173.13645994482965 219.4011817564264,173.79119024286803 220.93267373196554,174.62095254821162 222.3558279827815,175.62072736679107 223.64731471644677,176.78283250053653 224.78393331997876,178.09683331134275 225.74291140524713,179.54948098660083 226.50221861427625,181.12468144216228 227.04089227107806,182.8034972937519 227.33937162421256,184.5641850790243 227.3798370994068,186.38226961981863 227.14655067948618,188.2306570784089 226.62619325486486,190.07978788396466 225.80819454720205,191.8978302879224 224.68505100677461,193.65091485204323 223.2526269257553,195.30340968374833 221.51043389980381,196.81823571367315 219.4618837138043,198.15722076468722 217.11450972847882,199.28149059493208 214.48015190681326,200.15189451537935 211.575100746081,200.72946259121704 208.42019557549392,200.97589084277246 205.04087294324384,200.85405027290494 201.46716115129777,200.32851497149082 197.7336174023587,199.36610399178522 193.87920450063478,197.93643116636483 189.94710459530344,196.0124565405138 185.9844680706986,193.57103265690228 182.04209636717613,190.59343853581186 178.1740582572143,187.0658938684795 174.43723989742705,182.98004568563604 170.8908298226239,178.3334195869532 167.59574093563108,173.12982752737838 164.61397246806817,167.37972416014634 162.0079158334666,161.1005038398294 159.8396092548987,154.31673059751398 158.16994701368893,147.06029371851793 157.0578501220444,139.370481984371 156.55940615812992,131.29397018726831 156.7269869042034,122.884712187787 157.60835328345343,114.20373556487415 159.24575788534526,105.3188337990091 161.67505608863613,96.30415293155843 164.92483742180156,87.23967075057097 169.01558932863412,78.21056775888593 173.95890591879524,69.30649047601881 179.75675456622395,60.620709000785524 186.40081336038264,52.24917220522417 193.87189240513143,44.28946542871955 202.13945178749813,36.8396770793191 211.1612286950275,29.997182110597436 220.88298563856904,23.857351909208234 231.23839103184122,18.512201681324342 242.1490424863839,14.048987945274433 253.52464209913325,10.548770201656737 265.26333174063984,8.084952239154973 277.25219489813225,6.721819821759453 289.3679299948957,6.513092668461439 301.4776983041469,7.50050965703096 313.44014761273206,9.712467036827974 325.1066106812982,13.162730099925 336.322475309549,17.849239214188174 346.9287204669815,23.75303134667405 356.76361051292713,30.837298182578422 365.6645370292067,39.046601657683624 373.4699952510562,48.306267156692854 380.02167953628833,58.521973774419706 385.16667979004507,69.57955988269148 388.75975829590027,81.3450607874632 390.6656840279279,93.66499349570131 390.7615992682786,106.36690154155968 388.9393912672348,119.26017045153402 385.108039794507,132.13712176803767 379.19590977853045,144.7743906138439 371.1529568510841,156.9345885840853 360.95281254311874,168.36825032040548 348.59471514819074,178.8160584802973 334.10525191432885,188.01133799489784 317.53987827300745,195.6828065461331 298.98418029153487,201.55756412883883 278.55484746549723,205.3643004390314 256.4003243696171,206.83669469318195 232.70111157266035,205.71697838583464 207.66968860388613,201.75962748777064 181.55003463847976,194.7351467301616 154.61672594496403,184.43390496969573 127.17359299996686,170.66997724472452 99.55192450947187,153.28494607295428 72.10821035846396,132.15161186695025 45.22142071328702,107.17756011381015 19.289824086379326,78.30853123725035 -5.272646902331132,45.5315378892422 -28.04046712043649,8.87767385594725 -48.581006484569684,-31.575441143044088 -66.45940549019315,-75.70163568957895 -81.24380400871814,-123.32463333339047 -92.51088193105693,-174.21702279105568 -99.85166358193914,-228.0997996924641 -102.87753132688181,-284.64252400001266 -101.22638753467703,-343.4641325266441 -94.56889813684307,-404.13444047471717 -82.61474553792527,-466.17635962308384 -65.11881367416117,-529.0688537299932 -41.88722369007431,-592.2506439312208 -12.783135098996382,-655.1246684440911 22.267775492405377,-717.0632917987639 63.27224789427231,-777.414249179682 110.16487476457844,-835.5073013556437 162.80413146610192,-890.6615652010016 220.9690885352656,-942.1934740684976 284.3568934318282,-989.42531138206 352.5811044747587,-1031.6942499008503 425.17095482258185,-1068.3618182982786 501.57161800289674,-1098.823706143274 581.1455388271297,-1122.5198082139318 663.1748845503411,-1138.944399469072 746.8651608758911,-1147.6563231073956 831.3500259030142,-1148.2890661153285 915.6973224314256,-1140.5605897010287 998.9163352498045,-1124.2827761891945 1079.9662652419443,-1099.3703494609697 1157.7658964621864,-1065.8491230102868 1231.2044158959977,-1023.863428288983 1299.1533285862433,-973.6825763534762 1360.4793933426083,-915.7062080179489 1414.058486549285,-850.4683918595867 1458.7902838487294,-778.6403355895468 1493.6136319253712,-701.0315845579638 1517.522465473018,-618.589591539571 1529.5821079447708,-532.3975544615352 1528.9457791029713,-443.67043337428333 1514.8711179638308,-353.74907468967194 1486.7365167237358,-264.0923894503138 1444.0570499184012,-176.2675530511567 1386.4997736552036,-91.93821628103416 1313.8981625189786,-12.850741628416728 1226.26544691789,59.1814956883091 1123.8066114299702,122.2956757710149 1006.9288153360666,174.5988772751092 876.2500001627186,214.18907353848587 732.6054558663177,239.17763054773098 577.0521273941011,247.71312686407103 410.87045685448356,238.00628711920746 235.56357347738538,208.35579286110297 52.85366396527172,157.17470777373353 -135.32462029400062,83.01722901760023 -326.83383542661056,-15.39454694712066 -519.3465824316376,-139.14417676788958 -710.3615618081318,-289.09509189884653 -897.2228610193902,-465.8658558633732 -1077.1424511824246,-669.8068350254096 -1247.2258278591073,-900.9786685692447 -1404.500687343429,-1159.1329268637044 -1545.948484796129,-1443.695346255386 -1668.538674429003,-1753.752022301809 -1769.2653851867485,-2088.0389322660953 -1845.1862385553814,-2444.935141144072 -1893.4629688209475,-2822.4600234290165 -1911.4034609210912,-3218.2748051440894 -1896.504777612428,-3629.6886973564865 -1846.4967066764334,-4053.6698534668094 -1759.385320978132,-4486.861338151361 -1633.4960100537448,-4925.602246108482 -1467.5154122128085,-5365.95405398519 -1260.5316515643367,-5803.73222938156 -1012.0722655639108,-6234.543057070983 -722.139196248591,-6653.825575042708 -391.2402128621188,-7056.8984422556505 -20.416135607782962,-7439.011486755404 388.7367597219693,-7795.401607792836 834.0497580921234,-8121.3526296069085 1312.7707172838418,-8412.258628476153 1821.5596143185194,-8663.690179444255 2356.491119700303,-8871.462895778854 2913.064638564598,-9031.70756376393 3486.2221943510694,-9140.941108926572 4070.3744582281665,-9196.137568351212 4659.435146482933,-9194.798188438674 5246.8639188885945,-9135.019719428192 5825.717814231125,-9015.559938296965 6388.711155410302,-8835.899401338918 6928.28374665681,-8596.298407808203 7436.677070381804,-8297.848147435781 7906.018072085551,-7942.515008257466 8328.409999807056,-7533.1770378011515 8696.029641121428,-7073.651580930993 9001.230177120971,-6568.713162076091 9236.64875068061,-6024.1007385776875 9395.317727221975,-5446.513525711877 9470.778511841841,-4843.594682663199 9457.196678796998,-4223.902252226554 9349.477069715605,-3596.866865007949 9143.377427328,-2972.735850879227 8835.619053761948,-2362.503545713342 8423.992918290927,-1777.82773906866 7907.459590566331,-1230.9323773701194 7286.241343437525,-734.4968159035953 6561.904755999552,-301.53210003636195 5737.432153911037,54.755050268650905 4817.280251544334,321.1096803339454 3807.4244102397597,484.38639206029 2715.386999702474,531.7162128783667 1550.2484460437913,450.6810702326045 322.6396705157133,229.4942061193583 -955.2852322690419,-142.815319384659 -2269.8970590785298,-676.2160616608169 -3606.1610959243008,-1379.487749724091 -4947.728824210506,-2260.0373017283423 -6277.052073779051,-3323.719756320059 -7575.519704853728,-4574.666682035339 -8823.616626066978,-6015.1247056841885 -10001.104664926763,-7645.306851841962 -11087.224502790954,-9463.259406685795 -12060.917571547896,-11464.747008199258 -12901.066486961205,-13643.158619194526 -13586.75226754056,-15989.436957934302 -14097.526261647217,-18492.033841975466 -14413.69438338477,-21136.893743172433 -14516.6109439395,-23907.467654953158 -14388.979063879144,-26784.759136843717 -14015.154368091527,-29747.404126069272 -13381.448403238353,-32771.78579271395 -12476.427982546216,-35832.18536471918 -11291.206459171044,-38900.969463826215 -9819.722761895047,-41948.81407587326 -8059.003900049374,-44944.96483166478 -6009.406562596717,-47857.532801518966 -3674.833403285808,-50653.82451172576 -1062.919623391502,-53300.704379212264 1814.8144609405135,-55764.98723693379 4942.849045508305,-58013.85809261596 8301.5926426084,-60015.31573365505 11867.355789090469,-61738.63626781498 15612.374062249995,-63154.852179825655 19504.883422588075,-64237.24199531013 23509.250453803757,-64961.82518314838 27586.159559695672,-65307.85650303214 31692.858607137143,-65258.31362427554 35783.463877045375,-64800.371512583704 39809.32450529035,-63925.85681096948 43719.44586771212,-62631.67523666573 47460.97059369202,-60920.204884680235 50979.71508781291,-58799.648277105414 54220.75860670792,-56284.33603141046 57129.08108675114,-53394.97514602523 59650.2450570971,-50158.83512209593 61731.1161118011,-46609.865460019944 63320.61556508152,-42788.738490908814 64370.498086525906,-38742.812028055894 64836.14631999337,-34526.006952199976 64677.373743286706,-30198.595576007905 63859.22633774186,-25826.89746553381 62352.77302021466,-21482.880325847167 60135.8742569769,-17243.664579497385 57193.91784199607,-13190.931373453606 53520.51049283325,-9410.234934577846 49118.113707269855,-5990.221446029579 43998.612243350464,-3021.7579261974975 38183.80364449907,-596.975945365698 31705.79743833076,1191.763600539237 24607.313000080332,2252.9770402712766 16941.865595093477,2497.2267843262903 8773.830803868059,1838.3420914106748 178.37839020425116,194.68000387606506 -8758.732301288836,-2509.5865753643457 -17941.502139236298,-6343.16790313313 -27264.192555641024,-11366.358867427349 -36611.9803027347,-17629.759262880125 -45861.76880388785,-25173.030085586248 -54883.15648405973,-34023.703768730804 -63539.56053790802,-44196.06681093817 -71689.49255640268,-55690.133585758 -79187.98030358336,-68490.7302460505 -85888.12773428843,-82566.7075355213 -91642.80309385304,-97870.3009773577 -96306.44266663505,-114336.65631497167 -99736.95546842874,-131883.53722273294 -101797.71193679764,-150411.23117838637 -102359.5974930396,-169802.667989585 -101303.10976106804,-189923.76379376889 -98520.4762640978,-210624.0014058816 -93917.76761240361,-231737.25567826614 -87416.97957756423,-253082.87007113124 -78958.05605334153,-274466.98792382865 -68500.82376294713,-295684.1389842903 -56026.808718178225,-316519.0786177928 -41540.90389753178,-336748.8738021138 -25072.857415808066,-356145.2265534568 -6678.550632324611,-374477.02184939577 13558.96378876686,-391513.0834582591 35528.69287523543,-407025.11738909583 59091.231006117894,-420790.81898605917 84078.60999811135,-432597.1160518897 110294.49509858924,-442243.5168459269 137514.74763484258,-449545.5284134642 165488.37189821663,-454338.107517473 193938.86023983784,-456479.1035140168 222565.94633756627,-455852.6498926936 251047.77218381222,-452372.45894642756 279043.4695694798,-445984.97219334875 306196.1517355572,-436672.3177981012 332136.3054721464,-424455.02537894406 356485.56831285154,-409394.44828573277 378860.8696543782,-391594.84373349726 398878.90868687443,-371205.0621133094 416160.936015358,-348419.79840765 430337.7998573709,-323480.36093618785 441055.2117917685,-296674.91566771193 447979.181287696,-268338.1680650473 450801.5627437715,-238850.44888408584 449245.6536001645,-208636.17551851863 443071.7773372033,-178161.666352202 432082.78093045636,-147932.29212513464 416129.37268048536,-118488.95550047104 395115.22336081107,-90403.8977922367 369001.75141241105,-64275.84011931559 337812.51153564523,-40724.47502325074 301637.10556420794,-20384.333747560635 260634.53501732467,-3898.0638366570447 215035.91627506033,8090.838624520748 165146.48195751043,14945.788049989984 111346.79585184154,16045.295851064204 54093.11365026506,10791.510974574536 -6083.172146636276,-1380.968266457313 -68577.05754056445,-20996.102741176517 -132712.4685100251,-48527.34148132276 -197745.85503286487,-84388.57884523294 -262870.86338186794,-128925.25449076218 -327224.1007254606,-182405.71669103348 -389891.99341455934,-245012.97433186544 -449918.72682132595,-316836.96649766155 -506315.2403257815,-397867.48075595876 -558069.2361491858,-487987.8519711084 -604156.1453520001,-586969.5726063435 -643550.9786081006,-694467.9429150729 -675240.9735092381,-810018.8850954172 -698238.93433173,-933037.0393221872 -711597.1446102669,-1062815.251531633 -714421.7177210421,-1198525.5528903971 -705887.2361964252,-1339221.7190274212 -685251.5169006104,-1483843.4833657315 -651870.3267184817,-1631222.463304339 -605211.862278411,-1780089.8406394336 -544870.7976724318,-1929085.818575837 -470581.6963784225,-2076770.8570885619 -382231.57784570847,-2221638.6664027474 -279871.4256842329,-2362130.915147961 -163726.42329071756,-2496653.585516703 -34204.70422861179,-2623594.8827505824 108095.59109292169,-2741344.5807500556 262381.1537909875,-2848314.659837026 427660.43119656114,-2942961.0669990354 602742.8159822192,-3023806.403633251 786240.2616187889,-3089463.321228806 976571.4667121754,-3138658.381932213 1171968.7483664514,-3170256.1188975126 1370487.6993184565,-3183283.011102097 1570019.6953088029,-3176951.0692839515 1768307.2881529834,-3150680.714198148 1962962.4864578035,-3104122.6158640506 2151487.8901408487,-3037178.1532316078 2331300.6071474697,-2950018.148070663 2499758.8413584526,-2843099.525193818 2654191.000022229,-2717179.553644863 2791927.1275500343,-2573327.330472671 2910332.4306411413,-2412932.1803768687 3006842.6179534593,-2237708.661024382 3079000.7364302804,-2049697.885314804 3124495.14649138,-1851264.89838274 3141198.240172675,-1645091.8786737726 3127205.4705469003,-1434166.968962855 3080874.227982046,-1221768.5845789895 3000862.069601149,-1011445.0921685654 2886163.7833001358,-806989.8028119161 2736146.7474510823,-612411.2778710452 2550584.0325378864,-431899.0041855227 2329684.681983709,-269784.5566702654 2074120.6068407046,-130498.43045268545 1785049.5332840502,-18522.79079860464 1464133.4533891757,61659.54347166449 1113552.0488178972,105619.49933136551 736010.5840664608,109039.08008500421 334741.80102810473,67771.10876576537 -86498.61010119683,-22099.19871710738 -523443.3370834652,-164191.47565666598 -971331.8830203098,-361766.9648154348 -1424936.361359513,-617665.5529721988 -1878594.8199959993,-934243.8831208749 -2326252.1837427267,-1313315.388149911 -2761508.815637034,-1756093.122500495 -3177676.6027837363,-2263136.2922578068 -3567842.372497597,-2834301.3984899377 -3924938.3402914642,-3468698.912592635 -4241819.183772726,-4164656.3951783273 -4511345.226877298,-4919688.9510067 -4726471.108307719,-5730477.881036937 -4880339.197863098,-6592858.348450796 -4966376.915949483,-7501816.818142382 -4978397.006408361,-8451498.958530549 -4910699.712422776,-9435228.61061082 -4758175.711225234,-10445538.33208092 -4516408.577231361,-11474211.914474504 -4181775.466663095,-12512339.149027059 -3751544.651294585,-13550382.983178874 -3223968.476213841,-14578259.065073729 -2598370.2779478873,-15585427.519220013 -1875223.7763805347,-16560996.633917673 -1056223.4479305635,-17493837.97157891 -144344.39966438097,-18372712.238330234 856109.7045442091,-19186405.07109686 1939472.06312624,-19923871.72072947 3098692.826117057,-20574389.430766553 4325335.085823278,-21127716.135413613 5609587.884709364,-21574253.929645207 6940297.219423118,-21905215.60148069 8305015.861597851,-22112792.363996744 9690072.636979474,-22190320.785117056 11080661.605361316,-22132446.789256025 12460951.365908938,-21935284.499083772 13814214.477169476,-21596567.6005497 15122976.730148444,-21115790.852298595 16369185.748374943,-20494339.32405433 17534398.113250244,-19735602.939597223 18599983.928859845,-18845073.920572605 19547347.45079743,-17830424.779273834 20358162.111630414,-16701564.593187716 21014617.98491113,-15470671.412612285 21499679.443800706,-14152198.805860557 21797350.493309382,-12762854.734850733 21892944.990899816,-11321551.177277068 21773358.722896393,-9849323.169617744 21427340.078001566,-8369216.237082094 20845755.858478457,-6906141.500863899 20021848.598404635,-5486698.107882368 18951481.620957054,-4138963.0111958073 17633367.96691296,-2892248.5375846284 16069279.268213967,-1776828.6090378067 14264230.627038803,-823634.9331556887 12226637.595545901,-63924.939435255605 9968441.437063307,471076.2908008034 7505198.988372113,750557.3786952315 4856133.636684852,744522.0919400528 2044144.1752408629,424207.22003138025 -904231.3912133417,-237487.22770680577 -3958899.6554216426,-1265560.0385373894 -7086345.374781003,-2682467.9654631005 -10249816.464833181,-4507687.353950593 -13409561.559122605,-6757283.8561586505 -16523120.697773945,-9443496.139452143 -19545669.083766315,-12574339.71790234 -22430413.18151785,-16153237.196033336 -25129037.732540302,-20178681.30714813 -27592201.53393924,-24643937.14850442 -29770079.074512787,-29536789.9572419 -31612944.358018782,-34839344.62978167 -33071792.472408127,-40527882.95963479 -34098993.69667137,-46572784.25120162 -34648974.18320455,-52938514.55816924 -34678916.523540564,-59583689.29346639 -34149472.80959022,-66461213.36346263 -33025482.152135033,-73518502.29336962 -31276684.024350673,-80697787.03604375 -28878418.271775227,-87936504.29626429 -25812302.182450704,-95167773.26206024 -22066874.65279323,-102320958.620087 -17638197.226547424,-109322318.65110122 -12530401.635847261,-116095736.06320706 -6756173.444156519,-122563528.03510976 -337161.4890278077,-128647330.72068046 6695696.944485063,-134269052.22253552 14301944.91517434,-139351886.7900028 22431477.757805675,-143821381.75081488 31024526.66372178,-147606547.46200785 40011761.59869593,-150640999.38057473 49314520.277409405,-152864120.22574422 58845168.79598759,-154222229.15014854 68507598.26157561,-154669743.87468767 78197860.3569266,-154170320.8897381 87804943.24660718,-152697958.10148346 97211687.57999915,-150238043.7241587 106295840.5872918,-146788334.80385268 114931244.4128183,-142359848.52331012 122989152.90217374,-136977649.39478162 130339669.07448968,-130681515.61295977 136853293.4898673,-123526468.22420321 142402571.68702865,-115583147.38151957 146863826.84210506,-106938020.80483891 150118961.81211424,-97693410.65830162 152057312.803156,-87967326.39314584 152577535.0720507,-77893092.6861997 151589499.3598076,-67618763.42651312 149016176.19556338,-57306314.75994954 144795483.82967916,-47130612.48355092 138882074.3840787,-37278151.57504627 131249031.87483725,-27945568.33094293 121889455.09444042,-19337928.449006323 110817897.96466526,-11666797.403489362 98071639.9103303,-5148102.596950032 83711759.08065204,199.9999998974829" stroke="white" stroke-width="1.5" /></svg>