<?xml version="1.0" encoding="utf-8" ?>
<svg baseProfile="full" height="400" version="1.1" width="400" xmlns="http://www.w3.org/2000/svg" xmlns:ev="http://www.w3.org/2001/xml-events" xmlns:xlink="http://www.w3.org/1999/xlink"><defs /><rect fill="black" height="100%" width="100%" x="0" y="0" /><circle cx="200" cy="200" fill="yellow" r="20" stroke="orange" stroke-width="2" /><polyline fill="none" points="198.4074489446278,200.0 198.38161661348641,199.91504226511543 198.36484782843715,199.82784955390414 198.35765054437638,199.73943589444045 198.3604375271755,199.65090102231648 198.37351450939144,199.56342252565705 198.39706887322347,199.4782464983527 198.4311590364534,199.3966767179681 198.47570472012092,199.32006238424057 198.53047827767568,199.24978447439995 198.59509726416812,199.1872407925167 198.6690184205609,199.13382981150727 198.751533242351,199.0909334280536 198.84176529330097,199.0598987722764 198.93866941412213,199.04201923526384 199.0410329624014,199.03851489821523 199.14747920390488,199.05051256671547 199.25647295665897,199.0790256322023 199.36632856795867,199.12493399971547 199.47522028078163,199.18896433621032 199.58119502012602,199.27167090676554 199.6821876017126,199.3734172766098 199.77603833549958,199.49435916474164 199.86051296480267,199.63442873973366 199.93332484877158,199.79332064984072 199.99215926186625,199.97048007752505 200.03469964915658,200.1650931027639 200.05865564112003,200.37607964983425 200.06179259655238,200.6020892785335 200.04196240767433,200.84150006289354 199.997135267981,201.09242077832147 199.92543207132334,201.35269659174537 199.8251570806272,201.61991841880447 199.69483047705856,201.89143607749693 199.5332203758343,202.16437532914395 199.33937387377122,202.43565885526212 199.11264667655294,202.70203117323433 198.8527308410582,202.96008744487017 198.55968016039074,203.20630608045204 198.233932716908,203.43708498713065 197.8763301319479,203.64878125508167 197.48813305044877,203.83775401824295 197.071032414529,204.00041016933892 196.62715610257683,204.1332525519504 196.15907053965577,204.23293019631447 195.66977692114872,204.2962901111044 195.16270173455285,204.32043009142464 194.64168131412578,204.30275195447402 194.11094021950345,204.24101456960258 193.57506329220774,204.13338600964246 193.03896131278023,203.97849411625418 192.50783025566582,203.7754747444034 191.98710421837407,203.52401693074782 191.48240218521397,203.2244042184139 190.99946887328144,202.87755136706684 190.54410999853044,202.48503568295504 190.12212239174556,202.04912221929578 189.73921948703125,201.57278212343215 189.40095279794275,201.05970344400114 189.11263008743526,200.51429375917238 188.87923102616995,199.9416740459887 188.70532121810993,199.34766328097652 188.5949655514491,198.73875334337131 188.55164190540444,198.12207388425082 188.57815630792356,197.5053469271639 188.67656069457476,196.89683107790592 188.8480744634896,196.3052553421827 189.09301105395093,195.7397426791242 189.41071079585822,195.20972355488792 189.7994812827395,194.7248399027173 190.25654651119245,194.29484004240402 190.7780060037316,193.92946526163104 191.35880508923424,193.6383289124749 191.99271745491853,193.43078902663402 192.67234100562968,193.31581560082017 193.38910796993042,193.3018538472007 194.13331007807247,193.39668484072925 194.89413950457438,193.6072851235133 195.65974611829492,193.93968694386473 196.41731141626158,194.39884091217525 197.15313933503916,194.9884829450857 197.85276393631273,195.71100744144556 198.50107375308446,196.56734868623568 199.0824523611779,197.55687250999782 199.5809345095995,198.67728023956636 199.9803769049691,199.9245269593755 200.26464250218092,201.29275605986768 200.41779690840139,202.77425197933218 200.42431526336742,204.3594129468887 200.26929771881206,206.036745406626 199.93869140697305,207.792881645748 199.41951656591488,209.61262196295516 198.7000942812956,211.47900249754 197.77027311376858,213.37338959554225 196.62165171198035,215.27560131792268 195.2477943666329,217.16405639862802 193.64443634477738,219.01595063960556 191.80967575872913,220.80746038769126 189.74414867391056,222.51397237766056 187.45118414748038,224.11033884985133 184.93693591747498,225.57115646329436 182.21048753271953,226.87106713026293 179.28392782894653,227.98507849998947 176.17239381794056,228.88890142273434 172.89407826520147,229.55930133547471 169.47019948815066,229.9744601324999 165.92493121131344,230.1143447236608 162.28529066661324,229.961078145576 158.58098352470068,229.49930878249057 154.84420468525317,228.7165729794859 151.10939443788007,227.60364609707977 147.41295002742623,226.1548768685387 143.79289321416832,224.36849978486714 140.2884950060262,222.24692015257176 136.93985935117408,219.79696645070672 133.78746820937755,217.03010466071487 130.87169106242072,213.96260935900872 128.232262570936,210.61568655127695 125.90773272910012,207.01554349167208 123.93489450180043,203.19340107108044 122.34819454240188,199.18544477749822 121.17913317419968,195.03271072813862 120.45566036584631,190.78090384631 120.20157493114594,186.48014590433553 120.43593462724864,182.18465187378908 121.17248520314091,177.95233381194103 122.41911675331808,173.8443323632776 124.17735595084915,169.9244768608762 126.44190286137402,166.25867596677023 129.20022106716266,162.91424178458283 132.43218975118793,159.95915140195763 136.1098261990565,157.46125086393226 140.1970868664268,155.4874076297075 144.64975472716912,154.10261861169207 149.41542006019105,153.36908192391235 154.4335611491152,153.34524146285145 159.63573055890754,154.08481439297537 164.94585171871523,155.63581249667476 170.2806294838684,158.03956915892684 175.55007717722225,161.32978447542231 180.65816132756913,165.531601584111 185.50356393932012,170.6607278092945 189.9805606535098,176.72261456029722 193.9800116076599,183.7117101298406 197.39046018522725,191.61079957798492 200.0993331800609,200.39044575450006 201.99423420496697,210.0085451958032 202.9643204651583,220.41001212378993 202.9017513174908,231.52660306645456 201.7031953666755,243.27689370964038 199.27138123289095,255.56641847330548 195.51667558506983,268.28798198446077 190.3586705948759,281.3221500951312 183.72776165269653,294.5379263726685 175.56669502359242,307.7936180797579 165.83206413261092,320.93789357355854 154.49573237919876,333.8110308017003 141.5461598127663,346.2463541743509 126.98961067770878,358.0718545662695 110.8512187767272,369.1119845736152 93.1758878245589,379.18961844302453 74.02900448638526,388.12816333355204 53.49694262974165,395.7538057964734 31.68733847626305,401.8978745969431 8.729117827281158,406.3992982904069 -15.227741641252095,409.1071333425709 -40.01272786410624,409.8831360830941 -65.43560401804854,408.604349449469 -91.28751986065294,405.16567334890465 -117.34243122751258,399.4823855825893 -143.35883073945502,391.4925786783969 -169.0817891065456,381.15947670384793 -194.24530251308244,368.4735952185199 -218.5749374601108,353.4547070097042 -241.79076016653443,336.1535761699241 -263.61053322865337,316.6534234498508 -283.75315775725346,295.0710866813309 -301.9423347016092,271.5578414345201 -317.91041458510585,246.29984896750892 -331.40240047515465,219.5182009579071 -342.18006475086474,191.46853347938796 -350.02613617824557,162.4401862014227 -354.74851001861,132.75488684001385 -356.1844304465334,102.764945456504 -354.20459150453485,72.8509482684903 -348.7171002373,43.418946171802105 -339.67124359203126,14.89713913789626 -327.06099920440965,-12.26793599849745 -310.9282293693217,-37.61570016429542 -291.3654973755115,-60.67628793502536 -268.5184460120735,-80.9757363773665 -242.5876794745019,-98.04157125769075 -213.83009214421702,-111.4087476987878 -182.55959081548707,-120.62589508184891 -149.147160916068,-125.26180884217615 -114.02023212176033,-124.91212489317422 -77.66130449902806,-119.20610583561955 -40.60580291149304,-107.81346197237224 -3.439134871507605,-90.45112455846453 33.20706472901125,-66.88988377900267 68.6595095622958,-36.960799767695704 102.20865632702302,-0.5612916598523725 133.11490523975436,42.339192685732996 160.61558319567055,91.69402496781294 183.93267493069163,147.37486156473614 202.28125588264678,209.16782328344243 214.87856861136262,276.7704851823701 220.95367272987426,349.7897682322012 219.75758646497445,427.7408195071961 210.573826357106,510.04696111060923 192.72924038670158,596.0407801161041 165.60501914190394,684.9664224558237 128.64775969078994,775.9831429253826 81.38044776182674,868.1701513460409 23.41321584175691,960.5327814838616 -45.546271958763384,1052.0099946541336 -125.68296277791842,1141.4832141369982 -217.06524391335216,1227.7864697175594 -319.63661814870284,1309.7178139827445 -433.20838609699126,1386.051953619195 -557.4534944020891,1455.554020043115 -691.9017047862684,1516.9943844544189 -835.9362328928271,1569.1644030611383 -988.7919975767072,1610.8929589993854 -1149.555610694999,1641.0636486268104 -1317.1672245207144,1658.6324416528291 -1490.4243386521712,1662.6456272559199 -1667.987650750964,1652.257842202837 -1848.3890156789353,1626.749962306207 -2030.0415557151814,1585.546625615808 -2211.251940648777,1528.233144812409 -2390.2348308240344,1454.5715576319874 -2565.129448860646,1364.5155580532455 -2734.018217011399,1258.224047678845 -2894.9473672190334,1136.073046458768 -3045.9494001868893,998.6657048486132 -3185.0672385110815,846.840165845829 -3310.379887489053,681.6750352519668 -3420.02938600079,504.4922320839904 -3512.248799257096,316.85700837934047 -3585.39097564638,120.57494874315225 -3637.95776182474,-82.31421513696733 -3668.629344031942,-289.54611119043824 -3676.2933598327563,-498.6446588568134 -3660.0734035341166,-706.9384944989815 -3619.356530864109,-911.5809197719441 -3553.819354558935,-1109.5733605204778 -3463.4523127113266,-1297.7922792674538 -3348.581686488073,-1473.0194375698984 -3209.8889434954062,-1631.9753558918871 -3048.426987992222,-1771.355768653544 -2865.6329096127174,-1887.8708212942302 -2663.3368385037083,-1978.2867051126095 -2443.7665369917986,-2039.469374933888 -2209.547386196095,-2068.4299449618743 -1963.6974604483921,-2062.37131018556 -1709.6174229582095,-2018.735495138807 -1451.075022770626,-1935.25118938601 -1192.1840255344266,-1809.9808905643833 -937.3774686669287,-1641.367041894805 -691.3751948223712,-1428.2765225094306 -459.1456857068946,-1170.0428264492812 -245.86229071011468,-866.5052504454084 -56.85402092731812,-518.0444022610476 102.44884177297494,-125.61334103901368 226.57398970846705,309.2363306917006 310.07077484060494,784.33408647258 347.5778382108199,1296.8764433327033 333.89410446210337,1843.4198773364728 264.0524818614695,2419.8812412065554 133.39553034695183,3021.5461817541377 -62.34771381344166,3643.0859886798576 -326.984636959318,4278.583230339972 -663.7826132360683,4921.566446592154 -1075.3942336312743,5565.054074270569 -1563.7852426105264,6201.607677757915 -2130.1662624078303,6823.3944462350055 -2774.929410317364,7422.258801354466 -3497.5909275690856,7989.802835300918 -4296.740938581438,8517.475170612852 -5170.001445692422,8996.667701023573 -6113.993636116581,9418.819538340702 -7124.315534230541,9775.52735555331 -8195.530972871997,10058.661182568969 -9321.170781829693,10260.4845799757 -10493.746999967336,10373.777989811702 -11704.780809515834,10391.9639423883 -12944.84476724566,10309.232686675114 -14203.61976796992,10120.666710572506 -15469.967021825858,9822.362528513731 -16732.015158967115,9411.54803919191 -17977.262394835718,8886.69369767316 -19192.69349746558,8247.615705546643 -20364.91109693457,7495.569401780478 -21480.28066798582,6633.331037173557 -22525.088302065535,5665.266138136518 -23485.710166866,4597.38271223071 -24348.79233240325,3437.367619458033 -25101.43942536672,2194.604530503265 -25731.41036077521,880.1720164920853 -26227.319194809603,-493.17953544102704 -26578.83894812966,-1911.0733104774922 -26776.906068148597,-3357.5746861855273 -26813.923034802556,-4815.283785281902 -26683.95647048884,-6265.452411198869 -26382.927994185062,-7688.125543340892 -25908.79496536032,-9062.307275183657 -25261.718198083607,-10366.150766415132 -24444.213692484245,-11577.171452805425 -23461.2854319884,-12672.482417449479 -22320.536332829284,-13629.0504778483 -21032.254509209975,-14423.971188709713 -19609.472134819818,-15034.760604408533 -18067.99434042318,-15439.661292085364 -16426.39578876727,-15617.959740975175 -14705.98281243049,-15550.31198054202 -12930.719287287866,-15219.073904328681 -11127.114743292836,-14608.632503198909 -9324.073583980206,-13705.733946002598 -7552.70469461267,-12499.804212786205 -5846.091163739038,-10983.257790591111 -4239.020321004799,-9151.789789590031 -2767.6748016349657,-7004.646732568798 -1469.2858807563807,-4544.871218054359 -381.75087370005065,-1779.5156608595853 456.78303389983495,1280.1796228178084 1008.3655860920867,4618.648592118619 1235.7173682265377,8215.906334185129 1102.7267384390389,12047.504746834487 574.9651264195578,16084.540876175683 -379.7844936343421,20293.72133534131 -1790.991661100514,24637.4857624138 -3684.841198738697,29074.191739396832 -6083.701305337913,33558.362991796595 -9005.603959356087,38041.002023141955 -12463.7449370658,42469.967614608606 -16466.01099436416,46790.41684190954 -21014.54192960232,50945.31043583062 -26105.335328263274,54875.97944630414 -31727.901782353623,58522.75027078085 -37864.97827194989,61825.62418487349 -44492.30718823762,64725.0065767042 -51578.48816231747,67162.4801468261 -59084.9094387778,69081.61540448273 -66965.76499546018,70428.81088047568 -75168.16296014463,71154.15459974098 -83632.33011156334,71212.29752601928 -92291.91637817741,70563.3289202036 -101074.40226698463,69173.6428566606 -109901.61107128441,67016.78453163577 -118690.3265274513,64074.264488205365 -127353.01532463465,60336.32848620204 -135798.65252779916,55802.67047564229 -143933.6465651961,50483.07600023967 -151662.8589693376,44397.98337447754 -158890.71256046905,37578.950153191705 -165522.3802395569,30069.012755113185 -171465.04503133186,21922.92761829574 -176629.22050573028,13207.282960983632 -180930.1192278338,4000.4710996527742 -184289.0554628514,-5607.48766204264 -186634.86701517305,-15515.277314755009 -187905.3398308922,-25610.780912072652 -188048.61786356196,-35771.74254437307 -187024.5797154267,-45866.59947157381 -184806.16274271347,-55755.485449119886 -181380.61467504242,-65291.40422078291 -176750.65236596053,-74321.5699658246 -170935.50708313743,-82688.90919559088 -163971.83578055934,-90233.71621704777 -155914.47808691603,-96795.45184203022 -146837.03930792466,-102214.67254727663 -136832.28058679705,-106335.07481010936 -126012.29850483657,-109005.63688831379 -114508.4778385961,-110082.83791250909 -102471.2029231826,-109432.93184872092 -90069.31510160438,-106934.25170270908 -77489.306062147,-102479.51731138745 -64934.239470319066,-95978.1182363315 -52622.396175439666,-87358.34167579522 -40785.64139668021,-76569.51398022419 -29667.51564736621,-63584.023326480965 -19521.054713095884,-48399.19041081878 -10606.347728201426,-31038.953691190425 -3187.846261325669,-11555.335774292866 2468.558714446567,9970.341972541968 6098.671071117547,33426.528577813086 7443.310069438785,58670.82699714196 6251.788281535811,85529.72076550931 2285.5140800997706,113798.67017402351 -4678.317868389792,143242.60154693323 -14842.988215498875,173596.80988405357 -28388.510042029488,204568.29134943482 -45467.927828369626,235837.5178442901 -66203.70723129656,267060.6612230027 -90684.2667665052,297872.2696244497 -118960.70415666043,327888.3929328745 -151043.77122027328,356710.1485961506 -186901.15169681594,383927.7129645302 -226455.09628185388,409124.71702659794 -269580.46834113135,431883.0189745686 -316103.2522487732,451787.8194978679 -365799.57402283413,468433.07915738464 -418395.28088952735,481427.1907135027 -473566.12258185254,490398.8529541096 -530938.5725642099,495003.0864831135 -590091.3219762649,494927.3261774579 -650557.47292192,489897.5196951621 -711827.4508174604,479684.1566132446 -773352.6478932658,464108.1485873272 -834549.8016631843,443046.47744765086 -894806.103293472,416437.5254698879 -953485.0213893689,384286.00027052115 -1009932.816853445,346667.3659573713 -1063485.7142482619,303731.692391154 -1113477.6846199683,255706.83575095492 -1159248.7841225166,202900.8661030521 -1200153.9821467118,145703.66139566535 -1235572.4021355517,84587.59227723727 -1264916.8879956899,20107.228384647035 -1287643.799138887,-47101.99572209224 -1303262.927856434,-116326.2079984313 -1311347.4240964435,-186776.662694006 -1311543.6049325003,-257594.47217747103 -1303580.5192364794,-327856.52610387316 -1287279.1324501024,-396582.6037401776 -1262560.9920361645,-462743.6708084239 -1229456.2313226082,-525271.3368890441 -1188110.7681633083,-583068.4333820305 -1138792.5552499632,-635020.6554017969 -1081896.741129216,-680009.1939506346 -1017949.6051009311,-716924.2674604887 -947611.1352742232,-744679.4445126415 -871676.1271934827,-762226.6324532559 -791073.6906526956,-768571.5899448324 -706865.064604461,-762789.8054646831 -620239.6544267175,-744042.568624282 -532509.2221954342,-711593.0471859535 -445100.1789573861,-664822.1700462821 -359543.9482066346,-603244.1054887 -277465.3917150149,-526521.1149273434 -200569.31239408403,-434477.55540974555 -130625.07378674556,-327112.79954606626 -69449.40188454186,-204612.8395023762 -18887.461995549504,-67360.34243234128 19207.6689259696,84057.07159841088 42996.986033855144,248840.5513665005 50678.81989885087,425975.9481029226 40513.175082520844,614232.1598418874 10846.912608455015,812162.068719813 -39860.48105141963,1018106.2333897797 -113010.82041304187,1230199.475308633 -209841.14746989243,1446380.470952006 -331397.9832912849,1664404.4321283686 -478512.24753364036,1881858.9236557488 -651775.2033428891,2096182.831939989 -851515.7963367644,2304688.459708501 -1077779.7637310887,2504586.681611914 -1330310.8928660434,2693015.052961701 -1608534.8070768155,2867068.7199252318 -1911545.6507527642,3023833.93449701 -2238096.0342953894,3160423.931994824 -2586590.583319392,3274016.8832214535 -2955083.4146963586,3361895.58835135 -3341279.8348270208,3421488.5356429275 -3742542.522818185,3450411.9058633544 -4155902.42307329,3446512.0634860117 -4578074.528289968,3407908.038935951 -5005478.685177508,3333033.4730775864 -5434265.50162166,3220677.466421149 -5860347.375871249,3070023.751819031 -6279434.606018597,2880687.5913612675 -6687076.472091435,2652749.7863637055 -7078707.114042498,2386787.184337665 -7449695.957468219,2083899.069155183 -7795402.36573647,1745728.830741158 -8111234.123150495,1374480.3289283575 -8392709.279684085,972928.392924934 -8635520.814611139,544422.9334017868 -8835603.504988397,92886.18865428354 -8989202.316448718,-377197.3203310544 -9092941.569163896,-860798.4888322377 -9143894.072209,-1352369.2733716846 -9139649.365976952,-1845876.4954130705 -9078380.165825253,-2334843.929200572 -8958906.061841546,-2812402.7044930365 -8780753.500513053,-3271349.953548702 -8544211.055156672,-3704215.524406342 -8250378.984127647,-4103336.470225173 -7901212.079915343,-4460938.908251951 -7499554.829003221,-4769226.723063107 -7049167.9324579,-5020476.468379579 -6554745.281135426,-5207137.701373079 -6021920.537533292,-5321937.864470733 -5457262.548903242,-5357990.713798445 -4868258.903335828,-5308907.1822261 -4263287.042023047,-5168907.460188118 -3651572.456501143,-4932932.98078195 -3043133.6288782223,-4596756.9088407 -2448713.515165266,-4157091.65847572 -1879697.5259507094,-3611691.9017022676 -1348018.123676253,-2959451.483860022 -866046.3303592787,-2200492.6312036654 -446470.6222388434,-1336245.8237588364 -102163.8767588938,-369518.7136716923 153960.76937862177,695447.5029570407 309104.0967716534,1852935.8033380208 350743.76459339616,3095726.615018784 266804.61356336414,4415088.0282920115 45834.67947672251,5800784.201096266 -322814.89427312784,7241103.071429653 -848808.0267236005,8722904.326821866 -1540642.0901866762,10231688.392039726 -2405468.8007890517,11751686.985747496 -3448920.009282099,13265975.565443823 -4674940.892678541,14756607.729128841 -6085633.122850024,16204771.373632906 -7681110.636817122,17590966.1255251 -9459370.65266798,18895201.26350426 -11416182.56264775,20097213.04398855 -13544997.289005416,21176700.02739728 -15836879.606992297,22113574.684801776 -18280465.821626063,22888229.246919323 -20861949.029484197,23481813.443803422 -23565094.00328241,23876521.478209056 -26371283.50518404,24055885.282844838 -29259597.564990364,24005070.8360455 -32206926.95239654,23711174.056382533 -35188121.72968331,23163512.56899354 -38176175.39442979,22353909.439537805 -41142444.71347421,21276964.81020042 -44056904.91239513,19930311.2504447 -46888439.42274604,18314848.55742983 -49605162.90623395,16434953.711084023 -52174775.77557048,14298661.710320767 -54564947.92097568,11917813.092993787 -56743728.834865786,9308164.075609485 -58679980.81115673,6489455.441735514 -60343831.38630065,3485436.562044473 -61707140.69345225,323841.2449461026 -62743978.92608606,-2963687.504992191 -63431108.66027461,-6341726.303691045 -63748466.37310909,-9771255.76182439 -63679637.12589919,-13209901.840781327 -63212316.06227993,-16612235.000800544 -62338750.11053302,-19930127.28697131 -61056153.08337794,-23113166.787670355 -59367087.24401203,-26109128.148283098 -57279804.36060023,-28864497.03737066 -54808539.3085429,-31325045.65029215 -51973749.40581908,-33436455.504999716 -48802292.8859124,-35144982.94542248 -45327540.228776254,-36398161.92935155 -41589412.48554538,-37145537.85055404 -37634341.24874242,-37339425.3399987 -33515145.536873553,-36935682.22008923 -29290821.579672337,-35894491.06053453 -25026242.305610124,-34181139.11701741 -20791764.24307236,-31766786.836333033 -16662740.5458038,-28629214.596269585 -12718939.935421107,-24753536.927117903 -9043872.51106114,-20132873.14584468 -5724024.599223072,-14768963.134660957 -2848006.0947514386,-8672716.923236806 -505615.0644793993,-1864686.7975554187 1213174.2652629525,5624549.1333068 2219292.652110345,13754102.621249747 2425717.2647074903,22472600.405588802 1748663.20252765,31718128.294703577 108813.61100175332,41418302.873266466 -2567424.3566707512,51490478.4986731 -6346651.656057037,61842096.08078685 -11287212.553389879,72371178.81049742 -17437948.8876484,82966978.52073732 -24836990.20155742,93510774.73667845 -33510597.230955463,103876826.71038361 -43472076.75072648,113933476.85206813 -54720786.09447232,123544401.98068897 -67241245.777595,132570006.73837571 -81002378.54426584,140868951.36620912 -95956892.81438124,148299803.84512052 -112040827.91557205,154722804.1893822 -129173277.6385001,160001726.46738362 -147256307.54441097,164005821.94284153 -166175080.07847863,166611824.60857376 -185798199.90013072,167705998.35486576 -205978289.9348627,167186203.10665116 -226552806.48702028,164963955.5101102 -247345099.33934277,160966458.1820525 -268165720.11600697,155138570.18650448 -288813979.3187695,147444690.30374002 -309079749.3815764,137870523.83792838 -328745507.85265744,126424703.19960572 -347588611.43332875,113140232.32532535 -365383788.1120333,98075725.18382768 -381905831.0664085,81316409.18767114 -396932474.4048637,62974865.30008331 -410247427.22460204,43191478.01358278 -421643538.9204577,22134570.19030919 -430926065.23582155,200.00000052773248" stroke="white" stroke-width="1.5" /></svg>