<?xml version="1.0" encoding="utf-8" ?>
<svg baseProfile="full" height="400" version="1.1" width="400" xmlns="http://www.w3.org/2000/svg" xmlns:ev="http://www.w3.org/2001/xml-events" xmlns:xlink="http://www.w3.org/1999/xlink"><defs /><rect fill="black" height="100%" width="100%" x="0" y="0" /><circle cx="200" cy="200" fill="yellow" r="20" stroke="orange" stroke-width="2" /><polyline fill="none" points="198.52398861534957,200.0 198.48498298279196,199.92046852731798 198.45355613873602,199.83718885299567 198.4303214626996,199.75096537299828 198.41582210726716,199.662693619799 198.41051922804405,199.57335524666894 198.41478043517384,199.48401160535752 198.42886862458886,199.39579590287246 198.45293135302327,199.30990393978982 198.4869909250273,199.2275834503331 198.5309353626208,199.15012208321235 198.58451042865897,199.0788340817349 198.64731287332143,199.01504574180146 198.7187850692517,198.96007974687015 198.7982111946729,198.91523849957989 198.8847151152041,198.88178659022284 198.97726010405142,198.86093256238462 199.07465052671623,198.85381015555265 199.17553560035802,198.86145922304314 199.27841531950054,198.88480654092157 199.38164861894367,198.92464673939517 199.48346382164257,198.981623602135 199.58197139406946,199.05621199085073 199.67517900435925,199.14870066189755 199.7610088495584,199.25917624846673 199.83731718779333,199.3875086857341 199.90191597942646,199.533338356968 199.95259650858515,199.6960652358102 199.98715482317763,199.87484029354465 200.00341879802303,200.06855942999567 199.9992765924221,200.27586017262954 199.97270624080986,200.49512137037493 199.9218060835058,200.72446608659806 199.8448257144789,200.9617678695612 199.74019709494826,201.204660548624 199.60656545602976,201.45055167051518 199.442819591001,201.69663965237922 199.2481211185683,201.93993468720262 199.0219322832558,202.17728339293134 198.76404184814476,202.40539714943696 198.4745886291023,202.62088401787474 198.1540822187518,202.8202840853482 197.80342045310658,203.00010802466468 197.42390318433445,203.15687860489354 197.01724193979956,203.28717483402866 196.58556507054854,203.38767836097333 196.13141802190378,203.45522171099054 195.65775839486759,203.4868378774365 195.1679455096158,203.47981074376276 194.6657242313764,203.43172576421844 194.15520287426776,203.34052029018568 193.64082505994836,203.20453289243272 193.1273354748388,203.02255099854844 192.6197395417666,202.79385614019142 192.1232570986039,202.51826608728254 191.64327025717193,202.196173136586 191.18526569963842,201.82857782090414 190.75477175600733,201.41711731293964 190.35729069418278,200.96408781526068 189.99822674248574,200.47246025516782 189.68281045235378,199.94588864092958 189.41602009512266,199.38871048405304 189.2025008700987,198.80593875108642 189.04648278034546,198.20324487790018 188.9516981064759,197.58693245929985 188.9212994759781,196.96390131690282 188.95777958493179,196.341601748017 189.06289367912655,195.7279788672036 189.2375859413286,195.13140706954798 189.4819209595765,194.5606147694998 189.79502146677927,194.02459970043097 190.17501354351052,193.53253519659 190.6189804627856,193.09366801956372 191.12292632696028,192.71720843419826 191.6817506020085,192.41221338257435 192.28923459279943,192.18746374733416 192.9380408242401,192.051336835589 193.61972619711634,192.01167534986624 194.32476967418657,192.0756542410855 195.04261512181492,192.24964695834174 195.76172978565512,192.5390927192368 196.469678716335,192.94836652056597 197.15321528370643,193.480653690268 197.7983877272333,194.13783084567942 198.39066148695414,194.92035516835762 198.9150568458889,195.82716393022866 199.35630119272076,196.85558620787626 199.69899498526792,198.0012686998938 199.92779026308608,199.25811751503892 200.02758032414155,200.61825772535036 199.98369894868452,202.07201237756283 199.78212732622956,203.60790252751033 199.4097066220408,205.2126697054834 198.85435391097732,206.87132203576948 198.10527901230375,208.56720502127814 197.15319958248855,210.28209776502948 195.99055166747527,211.99633513554483 194.6116927847674,213.68895609440082 193.01309450217656,215.33787809337338 191.19352140739096,216.9200971180985 189.1541933235869,218.41191260780397 186.89892762388283,219.78917611961376 184.43425853399162,221.02756223476865 181.76953039012298,222.10285982678482 178.9169619398104,222.99128143236555 175.8916789382598,223.66978808938393 172.71171250295728,224.11642663732925 169.39796094504152,224.31067611935498 165.97411309722094,224.23379958676162 162.46653150409082,223.869197291804 158.90409423028274,223.20275696861353 155.31799447301609,222.2231966502614 151.7414976357491,220.92239525799062 148.20965602549813,219.29570603171447 144.7589818741138,217.3422477541114 141.42707994881536,215.06516865885249 138.25224160438532,212.47187791113078 135.27300273279226,209.57423960972986 132.52766867922452,206.38872438785958 130.05380980960976,202.93651388779412 127.88773202619595,199.2435536541828 126.06392712675685,195.3405503342345 124.61450848118022,191.26290949046012 123.56863804800072,187.05061082305406 122.95195126406612,182.74801816315912 122.78598680405953,178.40362223302887 123.08762861412193,174.06971487132142 123.8685679665088,169.801994187203 125.1347935514615,165.65910093032667 126.88611781001538,161.7020872387122 129.1157478094894,157.99381984566253 131.8099089646995,154.59832078163117 134.94752980600458,151.5800495879137 138.49999578449157,149.00313205572593 142.43097978026321,146.93054150530685 146.6963565383337,145.42323961298524 151.24420769571626,144.53928476679636 156.01492338187768,144.33291686974664 160.94140557324212,144.8536284002415 165.94937746277952,146.14523236720945 170.95780207143932,148.24493854859946 175.87941218447375,151.18245006170514 180.62135244943894,154.9790928678483 185.08593313249656,159.646991248366 189.171493605948,165.18830259016966 192.7733721448342,171.5945249747213 195.78497705774004,178.84589106240162 198.09895258211196,186.91086159440505 199.60843135444992,195.74573148735521 200.20836363913511,205.29436096424172 199.79691188619623,215.48804344327976 198.27689760894742,226.24552099012263 195.55728604908128,237.47315702690634 191.55469265217275,249.06527468458293 186.1948940338868,260.90466768612265 179.4143249000128,272.86328896321317 171.16154131532483,284.8031203465545 161.398629820448,296.57722464104114 150.10254119508858,308.0309792161079 137.26632718193187,319.00348792525966 122.90025823876802,329.3291657370504 107.0328003959316,338.839487935037 89.71142957898245,347.3648931517072 71.00326232749364,354.7368268687586 50.99548271204796,360.78990937346464 29.795546432333907,365.36420954041057 7.531144575638422,368.3076032436938 -15.65008867045492,369.47819273243283 -39.58113792595188,368.74676095903135 -64.07644927878499,365.999232672875 -88.9330620844799,361.13911212024834 -113.93203525894336,354.0898654624938 -138.84017011539544,344.7972145765802 -163.41202824705493,333.23130777214453 -187.392239188774,319.38873218204895 -210.5180886355887,303.2943321928626 -232.5223738908528,285.00279830819505 -253.13650900223183,264.59999130906095 -272.09385776548186,242.20396751538706 -289.13326848262625,217.96567238105317 -304.0027801051525,192.0692715864824 -316.46346522980946,164.73209123736385 -326.293371402341,136.20414173962575 -333.29151838316557,106.76720339701103 -337.2819054999891,76.73345575978827 -338.1174800177722,46.44363722559751 -335.68401465848433,16.264726333388268 -329.9038400630734,-13.412858431292989 -320.7393761658442,-42.1785377243732 -308.1964052042668,-69.60532059769838 -292.32702846927174,-95.25400875906928 -273.2322489620409,-118.67783400098699 -251.0641229079901,-139.4275001095814 -226.02742462572218,-157.05659361163072 -198.38077159003115,-171.1273207415964 -168.4371596876651,-181.2165210976214 -136.5638626579768,-186.92190169560752 -103.18165454398621,-187.86842861817945 -68.76331964889971,-183.71480728815237 -33.83142098423542,-174.15997667388302 1.0446945173371205,-158.94953755756728 35.252667705829055,-137.88203046814692 68.1416807610857,-110.81497509764807 99.02778810732383,-77.67058008056443 127.2000102422839,-38.441030013374615 151.92716556271802,6.806744386847157 172.4654044113465,57.926906958848576 188.06639843145342,114.69126027822851 197.98612701371763,176.78658346795493 201.4941912853393,243.81284992694 197.88357486282246,315.2824060985386 186.48075961368272,390.620185878932 166.65609410232042,469.16502737861 137.83430239001723,550.1721495052752 99.50501158075903,632.8168352575215 51.23316811748634,716.1993567477953 -7.3307944986174505,799.351163871721 -76.44118000807782,881.242344289151 -156.24779389497684,960.7903470809237 -246.7873994880489,1036.8699462139957 -347.97601860529903,1108.3244029261507 -459.60222943463395,1173.977768488735 -581.3216121751565,1232.6482506990722 -712.6524887785308,1283.1625490882466 -852.973096844159,1324.3710454159639 -1001.5203292733522,1355.1637177880336 -1157.3901606364252,1374.4866289124095 -1319.5398683377618,1381.3588218563561 -1486.7921415890378,1374.8894404380956 -1657.8411539593421,1354.2948763450352 -1831.2606559330623,1318.9157314841855 -2005.5141225714024,1268.2333722049013 -2178.966968173638,1201.8858421526936 -2349.900814933041,1119.682892871263 -2516.52977617578,1021.6198861131894 -2677.018687086752,907.8903193785076 -2829.5031871230394,778.8967266869016 -2972.111528882291,635.259710193492 -3102.987958347239,477.82486514419514 -3220.317481512335,307.6673709685294 -3322.3518027816694,126.09403512597194 -3407.4361915974755,-65.35740627935513 -3474.037005921356,-264.92190609918265 -3520.7695748657407,-470.61379235472566 -3546.4261183893823,-680.2366453583163 -3550.0033599616095,-891.396456531101 -3530.729468898346,-1101.5181249583702 -3488.0899531055156,-1307.8653099532203 -3421.8521106475146,-1507.5636173712244 -3332.087640287977,-1697.6270544532529 -3219.193007300805,-1874.9876429417354 -3083.9071617653153,-2036.528033539124 -2927.326212548765,-2179.1169169272443 -2750.914671506798,-2299.646978058059 -2556.512899315235,-2395.0750918211966 -2346.3404069462163,-2462.464410087867 -2122.994695220432,-2499.027943157555 -1889.4453491411032,-2502.173193453012 -1649.0231438101055,-2469.5473566024534 -1405.4039645334826,-2399.0825655127264 -1162.5873950554735,-2289.040617378 -924.8698844480755,-2138.056592487832 -696.8124646757122,-1945.1807478901387 -483.20305681507955,-1709.9180491027655 -289.01347381738594,-1432.2646897970017 -119.3513009486523,-1112.7409433042992 20.59308905339742,-752.4196914817898 125.60405127748469,-352.94998641016764 190.50230072693313,83.42498098009919 210.21016856076065,553.856103602814 179.81991171609735,1054.8833335286697 94.66442887149095,1582.4379248071716 -49.610337618778374,2131.852402767559 -256.97210347025504,2697.8786533923017 -530.9289016442148,3274.714451705866 -874.4566104782284,3856.0386645029957 -1289.9283126012551,4435.055270594362 -1779.046488175074,5004.546241649238 -2342.7790780264995,5556.933219375061 -2981.300473522735,6084.347811046365 -3693.938499609963,6578.710206264086 -4479.128454379829,7031.815694412626 -5334.375252042599,7435.428535834988 -6256.224685574453,7781.382511634366 -7240.244780004947,8061.687348717001 -8281.018146899061,8268.640089800032 -9372.146174805457,8394.940354290742 -10506.26579920226,8433.808316947212 -11675.079488874184,8379.104118858639 -12869.398963997346,8225.447321376105 -14079.203024994391,7968.334920043509 -15293.709721175943,7604.256354177629 -16501.46292523984,7130.803880354769 -17690.433205026155,6546.776626456794 -18848.132698906287,5852.27660880919 -19961.74350743023,5048.7949799049575 -21018.25891319305,4139.286779715587 -22004.636535340956,3128.2324909508225 -22907.96231695175,2021.684748966516 -23715.624035107277,827.2986312472673 -24415.4928174009,-445.6559498160942 -24996.11094761578,-1786.3011033589448 -25446.88405020708,-3182.178269296759 -25758.275560955735,-4619.297010175713 -25922.00122272811,-6082.206117102685 -25931.221193693942,-7554.087639320906 -25780.72722364013,-9016.874202633773 -25467.1222451427,-10451.389716605914 -24988.989643200206,-11837.513286186932 -24347.04941225659,-13154.365842371004 -23544.29838592674,-14380.51869135127 -22586.13173456931,-15494.22285532336 -21480.44297123677,-16473.657743951193 -20237.699789295577,-17297.197357162244 -18870.993176622178,-17943.69188131712 -17396.057412830633,-18392.762206091797 -15831.258758142321,-18625.104563047065 -14197.550885473313,-18622.802173459746 -12518.395390797852,-18369.64049731645 -10819.646040038044,-17851.422402292315 -9129.39577226844,-17056.279325964868 -7477.785876978999,-15974.974291340513 -5896.777195001735,-14601.192459824026 -4419.883655373456,-12931.814771720605 -3081.86895018563,-10967.170136698147 -1918.4076620877781,-8711.261599553065 -965.71268971474,-6171.961923965515 -260.1313595042505,-3361.174112125728 162.28683775292603,-294.95251410515414 266.2473971264243,3006.4196199874723 17.688804396310417,6518.400027931435 -615.7231664713325,10212.208316179342 -1664.0899338683162,14054.900989895945 -3154.7689173846898,18009.50332643109 -5111.862667945705,22035.20025973892 -7555.714710078974,26087.587854335066 -10502.418832135056,30118.98629939063 -13963.348844599286,34078.814650589375 -17944.716042672073,37914.02679448991 -22447.161749799918,41569.60731336202 -27465.392377002692,44989.12509477436 -32987.864402426014,48115.34166750077 -38996.526551000024,50890.870362376496 -45466.626230648435,53258.881503195495 -52366.58695532416,55163.84793900682 -59657.96305343006,56552.32434635037 -67295.47742121118,57373.752869773154 -75227.14743400592,57581.28684361283 -83394.50337464878,57132.62356012528 -91732.90288003799,55990.83633141644 -100171.94394758658,54125.19544828698 -108635.97798814121,51511.967080937065 -117044.7232676737,48135.17870721383 -125313.97785489968,43987.33930606242 -133356.42989579123,39070.102328842666 -141082.56168006538,33394.85937022964 -148401.64256206705,26983.2525136378 -155222.80436326624,19867.593532507155 -161456.1914316316,12091.17849602255 -167014.17608126433,3708.486862142145 -171812.6287020155,-5214.745153289741 -175772.23043240333,-14601.58626235757 -178819.8149498494,-24364.115121582057 -180889.72467056205,-34403.77572600365 -181925.16548822317,-44611.88882887248 -181879.54313701153,-54870.32347216616 -180717.76336144362,-65052.33099485037 -178417.47733369443,-75023.54202296556 -174970.2531984368,-84643.12495173929 -170382.65426502636,-93765.10232104566 -164677.20422484635,-102239.81928015673 -157893.21986431867,-109915.55605687565 -150087.49208590447,-116640.27401305754 -141334.79665298978,-122263.48250884147 -131728.21694966065,-126638.21143907029 -121379.26220058023,-129623.0719769267 -110417.76603357434,-131084.38579259484 -98991.55198943151,-130898.3608412572 -87265.85458722617,-128953.2897680552 -75422.4868334016,-125151.74509199915 -63658.74760873823,-119412.74364015997 -52186.06516561376,-111673.85124215085 -41228.37600052065,-101893.19749634371 -31020.241611677477,-90051.36951587738 -21804.709082692898,-76153.15298559859 -13830.925020217142,-60229.088639242145 -7351.516082397675,-42336.81242647499 -2619.753127533295,-22562.148204905403 113.48015275891584,-1019.9227835317897 602.8894193474805,22145.525423097963 -1387.8857879446261,46760.170984096374 -6082.817342343564,72620.48379218602 -13689.959327152075,99493.99085261664 -24397.88334414164,127120.23595246774 -38372.12039662428,155212.1519264376 -55751.65414908175,183457.856088438 -76645.51272991131,211522.87484187284 -101129.50818031623,239052.79854551173 -129243.17410769002,265676.36243149155 -160986.9530259076,291008.9437906711 -196319.68521039415,314656.4598067339 -235156.45061998983,336219.64439065004 -277366.8145018854,355298.67620232806 -322773.52566816134,371498.1238150722 -371151.71408615814,384432.1677530389 -422228.6313416159,393730.05299083295 -475683.97370169545,399041.71952914126 -531150.8229226676,400043.5529367074 -588217.2346207284,396444.19136495894 -646428.497970363,387990.32058671955 -705290.0837400185,374472.3841755116 -764271.2902559675,355730.13211640436 -822809.5888506816,331657.9280121513 -880315.6617598883,302209.7327047055 -936179.1163528225,267403.6806540856 -989774.8500928071,227326.16488006065 -1040470.0308215253,182135.34674725484 -1087631.6469402951,132064.00842259516 -1130634.571936084,77421.66850840456 -1168870.077587448,18595.88519687016 -1201754.7202128766,-43947.32366741517 -1228739.5146245284,-109664.00797307659 -1249319.3011631784,-177933.81705521757 -1263042.202458323,-248062.5839306509 -1269519.0585266945,-319286.0003830108 -1268432.7216400453,-390774.4102216227 -1259547.086204602,-461638.73595698806 -1242715.7238442765,-530937.5410559903 -1217889.990106092,-597685.215957139 -1185126.4668420667,-660861.2612540501 -1144593.603490894,-719420.6260244128 -1096577.4212976734,-772305.0433401956 -1041486.1470718457,-818455.2887067485 -979853.6474760118,-856824.27072286 -912341.5411311351,-886390.846824967 -839739.8740641073,-906174.2407818014 -762966.2542412614,-915248.9228589025 -683063.3531299094,-912759.798500366 -601194.6963920709,-897937.5372122927 -518638.68189357466,-870113.86031369 -436780.781138127,-828736.594586949 -357103.89990847936,-773384.2888465396 -281176.8951895942,-703780.1822868685 -210641.2682035208,-619805.3073912942 -147196.07741927227,-521510.5064021498 -92581.14049813163,-409127.1390635377 -48558.62005635925,-283076.26074164466 -16893.11460433019,-143976.0542594673 669.59723700884,7352.694004034025 2424.984450986073,169883.27290085907 -13266.83782473722,342382.06586821564 -47956.965574019145,523410.07985271886 -103083.07012353241,711327.1329063248 -179944.54340205007,904298.8264698904 -279677.71943294496,1100306.402158455 -403231.48609926045,1297159.5536647625 -551343.6174213623,1492512.232366831 -724518.1697647187,1683881.4505672716 -923004.295184748,1868669.0492666871 -1146776.8311665806,2044186.3582770254 -1395519.0280063886,2207681.635667164 -1668607.7727084868,2356370.131388595 -1965101.6612787615,2487466.576895207 -2283732.259454924,2598219.8591179163 -2622898.8750532335,2685949.5937999776 -2980667.1430999795,2748084.2704831287 -3354771.6976867695,2782200.5999376127 -3742623.172026724,2786063.6551432707 -4141319.7305516,2757667.359674159 -4547663.294195416,2695274.8431376927 -4958180.572454433,2597458.1528045074 -5369148.96365851,2463136.784360573 -5776627.328480344,2291614.47343633 -6176491.581458617,2082613.6738103523 -6564474.98171588,1836307.1385158403 -6936212.937675224,1553346.017022923 -7287292.072063922,1234883.8857108217 -7613303.223543675,882596.1404054646 -7909897.990703645,498694.1992002277 -8172848.353724003,85933.99138699376 -8398108.83965711,-352381.75569689233 -8581880.629911037,-812407.8756375555 -8720676.944130816,-1289768.1585009496 -8811388.974254277,-1779574.1123792618 -8851351.587091587,-2276451.3507528277 -8838407.964362456,-2774573.788023407 -8770972.306741862,-3267705.7406479134 -8648089.694109524,-3749251.939474284 -8469492.168840097,-4212315.360834483 -8235650.093521657,-4649762.68048503 -7947817.829812853,-5054297.0465294095 -7608072.792016663,-5418537.756048994 -7219346.948055943,-5735106.306467389 -6785449.872456884,-5996718.177934119 -6311082.501152546,-6196279.58860116 -5801840.796725104,-6326988.352017447 -5264208.605304573,-6382437.856510528 -4705539.07274201,-6356723.081932614 -4134024.087737628,-6244547.471155946 -3558651.3329878226,-6041329.383852908 -2989148.6516131633,-5743306.780065457 -2435915.574419303,-5347638.712496009 -1909942.003022785,-4852502.15097059 -1422714.2034298775,-4257182.62169421 -986108.4329765482,-3562157.1192261344 -612272.6991228122,-2769167.741949517 -313497.32973576884,-1881284.5134366164 -102075.21932352085,-902955.8836599729 9847.19786629954,159954.54361883117 10427.011095951982,1300146.4369608373 -111711.48698999727,2508877.6004481735 -367308.1011290341,3775976.4390417673 -766294.781659307,5089873.050244949 -1317622.3459493194,6437649.8030947475 -2029087.9444280306,7805112.080761796 -2907165.472225646,9176879.657492148 -3956841.2383639878,10536498.95547469 -5181457.294033861,11866576.183913859 -6582564.887230348,13148931.102979641 -8159790.55045884,14364770.881493023 -9910717.339136936,15494883.231681174 -11830783.71863775,16519847.709828757 -13913202.545862298,17420263.77126213 -16148902.505253715,18176993.865138102 -18526494.238090724,18771419.5525981 -21032263.24685747,19185708.334786918 -23650191.46304825,19403088.58907467 -26362009.136878997,19408129.736711785 -29147278.44146909,19187024.507410955 -31983509.883032184,18727869.930343684 -34846312.27384216,18020943.471152857 -37709576.65815719,17058970.55519029 -40545694.18528432,15837379.572542401 -43325807.501547374,14354540.354660036 -46020094.78752269,12611982.049454583 -48598085.102575116,10614586.305234412 -51029003.21993582,8370751.707133339 -53282141.64732683,5892525.4956567455 -55327257.03587377,3195698.7380930637 -57134987.68963978,299861.3217536753 -58677288.40575367,-2771586.6053361087 -59927878.40736283,-5991469.804840951 -60862697.685296945,-9328922.413126932 -61460366.64637443,-12749523.950856758 -61702643.583819464,-16215488.636580322 -61574874.1454239,-19685909.21842377 -61066426.68495954,-23117055.941044148 -60171107.1488651,-26462730.620420266 -58887546.98010874,-29674675.11162553 -57219557.42069389,-32703032.730149347 -55176443.56948627,-35496860.43213468 -52773271.60823896,-38004688.7804257 -50031082.75061863,-40175125.92967529 -46977047.70067351,-41957501.06384722 -43644555.73163561,-43302541.92274076 -40073232.915434204,-44163080.27084392 -36308884.548910126,-44494778.40247524 -32403357.434552427,-44256869.05291526 -28414318.380384456,-43412900.407344446 -24404946.083058998,-41931477.279516816 -20443534.44645781,-39786988.98171476 -16603006.360107807,-36960313.93824836 -12960338.010964185,-33439490.71774097 -9595894.920773687,-29220344.8856846 -6592682.079966037,-24307060.918420345 -4035511.777273886,-18712688.38256253 -2010093.9900095172,-12459571.678474123 -602055.4899663649,-5579692.880548262 104104.88021846168,1885082.4130096699 26116.011162351406,9882865.777217047 -914920.6098722055,18351722.075173106 -2793352.2301321793,27219769.02005337 -5677774.786158401,36405407.21573156 -9629825.010658624,45817686.55526128 -14702979.224668192,55356813.55401221 -20941374.239468884,64914802.747547686 -28378666.551837847,74376273.70183124 -37036946.624877065,83619393.47565311 -46925725.487214096,92516962.55498107 -58041011.13911624,100937640.36162667 -70364492.3093637,108747304.44123122 -83862846.94758078,115810535.37789164 -98487192.45063171,121992217.38605699 -114172693.99837373,127159242.41834709 -130838346.50525934,131182303.52569106 -148386944.57451242,133937761.14069735 -166705253.46782377,135309563.9543671 -185664392.47596952,135191204.1495954 -205120440.1975497,133487684.97220747 -224915269.11088946,130117476.992177 -244877614.46796587,125014437.96465449 -264824379.9628218,118129669.97296864 -284562179.8474259,109433286.5534295 -303889114.2064796,98916061.7933158 -322596770.98379904,86590932.98594318 -340472445.1049284,72494328.34545639 -357301561.6952994,56687291.55180573 -372870286.98568666,39256375.53332435 -386968307.06508076,20314278.91719128 -399391751.22652173,200.0000004891141" stroke="white" stroke-width="1.5" /><circle cx="154.10328460079143" cy="219.83662056813236" fill="red" opacity="0.7" r="13.414709848078965" /></svg>