<?xml version="1.0" encoding="utf-8" ?>
<svg baseProfile="full" height="400" version="1.1" width="400" xmlns="http://www.w3.org/2000/svg" xmlns:ev="http://www.w3.org/2001/xml-events" xmlns:xlink="http://www.w3.org/1999/xlink"><defs /><rect fill="black" height="100%" width="100%" x="0" y="0" /><circle cx="200" cy="200" fill="yellow" r="20" stroke="orange" stroke-width="2" /><polyline fill="none" points="198.4556682418924,200.0 198.39558516264444,199.91577555013677 198.34238066326148,199.82548418842026 198.29687894749628,199.72979428209644 198.2598537655464,199.6294845231356 198.23201508530911,199.52544157744475 198.21399565373525,199.4186562316655 198.20633760775075,199.3102179848092 198.2094793042678,199.20130804779464 198.22374254742272,199.09319073128188 198.24932039815585,198.98720322093365 198.28626575638907,198.88474375923334 198.33448090917406,198.78725827409326 198.39370823910667,198.69622551650016 198.46352228586574,198.6131407921605 198.54332334980543,198.53949839528676 198.63233281998416,198.47677287605327 198.72959039976053,198.42639929656465 198.8339533910605,198.3897526531329 198.94409818358207,198.36812666493526 199.0585240775533,198.36271215040472 199.1755595482264,198.37457523265593 199.29337103714036,198.40463563353524 199.40997432942928,198.45364533216357 199.5232485482305,198.5221678777804 199.63095276675128,198.61055865796348 199.73074520600267,198.71894643157643 199.82020495188007,198.84721644077672 199.89685608946397,198.99499541782285 199.95819411547973,199.1616387999907 200.00171445217853,199.3462204594185 200.02494284789523,199.54752524396108 200.0254674116626,199.7640446099877 200.0009719919855,199.99397560840717 199.94927057371544,200.23522346098162 199.86834233243317,200.48540793520067 199.7563669533887,200.74187369267582 199.61175979240832,201.0017047482963 199.43320642981072,201.26174313543584 199.21969614582395,201.5186118265512 198.97055382779993,201.7687419088752 198.6854698061999,202.00840396194525 198.36452710836548,202.23374352786524 198.0082256169537,202.44082050696895 197.61750262401804,202.62565225150743 197.1937492824255,202.78426006874298 196.73882247392493,202.9127187830809 196.25505163796393,203.00720894534217 195.74524013746554,203.064071216755 195.21266077731022,203.07986239653994 194.66104513823007,203.05141250593766 194.0945664431233,202.97588228905266 193.51781573425433,202.85082044285363 192.9357712081319,202.67421984597573 192.35376062966654,202.44457201950092 191.7774168279998,202.1609190235198 191.21262636257038,201.82290197184304 190.66547153882144,201.43080533453127 190.14216604764314,200.98559619469157 189.64898460026495,200.4889576329208 189.19218702984395,199.94331543045777 188.77793743132986,199.35185731103215 188.41221901112732,198.7185439819677 188.10074541635578,198.04811128758084 187.84886940878818,197.34606285245982 187.66148983944942,196.61865266882137 187.54295796494796,195.87285717067152 187.49698422445064,195.11633643764674 187.52654666534016,194.35738428270943 187.6338022645707,193.60486709968376 187.82000244014662,192.86815147812678 188.08541408162986,192.1570207332585 188.42924744883453,191.48158064645096 188.84959229269114,190.8521548657788 189.34336354056202,190.27917057485462 189.9062578591034,189.77303519995877 190.5327223602899,189.3440050885146 191.21593664981054,189.00204725431365 191.9478093312656,188.7566954444953 192.7189899742191,188.61690193795997 193.5188974291791,188.59088663239353 194.33576522823947,188.6859851150841 195.1567046469147,188.9084975388695 195.96778582140385,189.2635402365032 196.75413711717053,189.7549021021194 197.50006273065551,190.38490784502602 198.18917827774575,191.15429027653371 198.80456388221415,192.0620738228479 199.32893402687873,193.10547146424892 199.74482317215944,194.27979728109386 200.03478588373034,195.5783967390357 200.18160994602073,196.99259676796598 200.1685406745729,198.5116775805188 199.9795143810794,200.12286803582208 199.59939869382694,201.81136618217835 199.01423719693528,203.56038640850736 198.21149562795856,205.35123439909404 197.18030666893983,207.16341082027392 195.91171018471798,208.97474437241348 194.3988856079794,210.76155451761454 192.63737304696488,212.49884384514743 190.625279602465,214.1605196653328 188.36346732918707,215.71964403152742 185.85571926590842,217.1487109825707 183.10887999192752,218.41994937848926 180.13296724669294,219.50564927484353 176.9412512772526,220.3785093506147 173.5502987559663,221.01200247612965 169.9799783399073,221.38075608666975 166.2534252241165,221.4609436198515 162.39696237335033,221.23068288655912 158.43997650049292,220.67043688227605 154.41474729305105,219.76341221431474 150.35622887004035,218.49595002692058 146.30178297732203,216.85790405671284 142.29086399651888,214.84300025147056 138.364656446744,212.449172241715 134.565666294476,209.6788668724032 130.93726804924304,206.5393139864748 127.52321030485086,203.04275470762923 124.36708308054327,199.20662260063705 121.51175101591531,195.05367229711547 118.99875716923523,190.612050465693 116.8677028521639,185.9153043796744 115.15560959535877,181.00232379361935 113.89626996941709,175.9172123825895 113.11959457410265,170.70908562309188 112.8509630457109,165.43179270071326 113.11058740762594,160.14356081273894 113.91289649256238,154.90656109009862 115.2659504868399,149.78639628601667 117.1708948778439,144.85151136176205 119.62146321660394,140.17252913468408 122.60353812985119,135.82151423087686 126.09477992246426,131.87116969377738 130.0643318952657,128.39397172910333 134.47261115918965,125.46124920307606 139.2711932505939,123.14221564121506 144.40279824100978,121.5029625846544 149.80138528645358,120.60542423472822 155.39236167672058,120.50632433873808 161.0929114257009,121.25611722418677 166.81244729336535,122.89793575891059 172.45318885419496,125.46655978401438 177.91086783294247,128.9874192189847 183.07556042615485,133.475646557883 187.83264472826565,138.93519384672075 192.06387969767923,145.3580294404597 195.64860034644752,152.72342987004038 198.46502203408969,160.99738199323184 200.39164491082465,170.13211024721545 201.3087477086497,180.06574325675564 201.0999582425029,190.72213327265257 199.6538861817484,202.0108409161704 196.86580190912792,213.8272964840405 192.6393436257577,226.05314762573255 186.88823331301035,238.55680154305904 179.53798075188223,251.19416798789172 170.52755355445876,263.8096072558453 159.8109901068543,276.23708510447113 147.35893148442037,288.3015340791984 133.1600478030278,299.82041812759803 117.22233413843979,310.6054946443651 99.57425110109305,320.4647652407074 80.26568541577484,329.2046036006193 59.36870644201417,336.6320458037627 36.97809549591037,342.5572254940148 13.211626108768087,346.7959332903025 -11.789925010131157,349.17227691047077 -37.863054546405095,349.52141564977313 -64.82211257566888,347.69234016484654 -92.4601991590622,343.5506660044507 -120.55038766376333,336.98140704317575 -148.8472815490266,327.8916929572239 -177.08890766382018,316.2133931752803 -204.99894512243156,301.90560838446015 -232.28928458986042,284.9569897118401 -258.66290835504157,265.38784517444026 -283.8170769376354,243.25199293020427 -307.44680320904865,218.63832130157047 -329.2485901607306,191.67201650965868 -348.9244035776288,162.5154205741427 -366.1858460305914,131.368483919619 -380.7584938509244,98.46877989580516 -392.3863541586014,64.09105167195983 -400.8363946505408,28.546265804308376 -405.9030947863596,-7.819848809549626 -407.41296330662044,-44.62879289959167 -405.2289637533481,-81.47183051420154 -399.254786904434,-117.91306921609618 -389.43890685077565,-153.49308508890317 -375.7783559032739,-187.73308396956423 -358.3221526782561,-220.1395830766117 -337.17431763208185,-250.2095896710564 -312.4964110504692,-277.43624563933145 -284.50953009082684,-301.31489900868434 -253.4957039641768,-321.34955548368293 -219.7986297561646,-337.0596552238462 -183.8236957436576,-347.9871123682444 -146.03724437355396,-353.7035473595852 -106.96503333142584,-353.8176350379364 -67.18986032535895,-347.98248487588444 -27.34832531796519,-335.902963727002 11.873287082822912,-317.3428661727802 49.74401256940658,-292.1318330931499 85.4940963681439,-260.17191556335814 118.32175250042802,-221.44367870166917 147.4007670247781,-176.01173875914253 171.8889069620517,-124.02962664770268 190.93708401005645,-65.74387233003586 203.69920934726784,-1.4972071178295607 209.34266295324645,68.26921499565287 207.059288091424,143.0146702599149 196.0768090732353,222.0988785224245 175.67055832403622,304.7832545225406 145.17538728004263,390.23346442128195 103.99762494526678,477.5233431321633 51.626938214207854,565.6402148093802 -12.352060493755374,653.4916442290182 -88.24861995431411,739.9136308540365 -176.2552385627598,823.680240214166 -276.4378057967104,903.514648989729 -388.7266701697507,978.101561018119 -512.9088072323052,1046.1009315196097 -648.6212591279185,1106.1629163627972 -795.3460128946085,1156.9439423768995 -952.4064780137162,1197.123773804694 -1118.9657145772765,1225.4234292295575 -1294.0265518195113,1240.623782971441 -1476.4337226155146,1241.5846653106657 -1664.8781228990438,1227.264257256997 -1857.9032858295054,1196.738558232483 -2053.9141390190266,1149.2206892828617 -2251.188089320673,1084.07978057657 -2447.888453721262,1000.8591802919805 -2642.0802269560536,899.2937128248126 -2831.7481467833586,779.3257078493664 -3014.8169866765397,641.1195184045087 -3189.173973296575,485.0742460933756 -3352.6931928218323,311.83439490528997 -3503.2618163874095,122.29818228119164 -3638.8079409091188,-82.37675299064557 -3757.3298078493704,-300.7704915228674 -3856.926129460774,-531.2010492019891 -3935.827220175619,-771.7278715839402 -3992.4266005691925,-1020.1587830510073 -4025.3127131976225,-1274.0605357985494 -4033.300364087816,-1530.7730686572359 -4015.4614812300306,-1787.4275469771521 -3971.1547625793337,-2040.9682125375384 -3900.0537712849036,-2288.1780269926653 -3802.173025591219,-2525.708044071843 -3677.891625523679,-2750.1103950312677 -3527.9739584791782,-2957.874719174221 -3353.587031548596,-3145.4678171400706 -3156.3139901126356,-3309.3762496868085 -2938.1634002322226,-3446.1515494840023 -2701.5738967958473,-3552.457658664157 -2449.4138304169687,-3625.1201512607836 -2184.975583750762,-3661.1767479354944 -1911.9642721975188,-3657.928581334615 -1634.4805947718073,-3612.991624806194 -1356.9976580469252,-3524.347655850276 -1084.3316592454612,-3390.3940893679965 -821.6063833569866,-3209.9919853078345 -574.2115431456135,-2982.511511451349 -347.7550694896306,-2707.8741255746454 -148.00954200238294,-2386.590732763764 19.146964444374788,-2019.7950738964546 147.79525369079064,-1609.271610808154 232.044149795078,-1157.47719293974 266.1038634123257,-667.5558197333316 244.36295141827236,-143.3458530156745 161.4681510830445,410.62091570687176 12.406286139913732,989.1288766353127 -207.41263750596642,1586.2973531020389 -502.0721026417734,2195.6088715699484 -875.0665414154555,2809.9472356727874 -1329.2206678188368,3421.6455869031142 -1866.611813254578,4022.544522536509 -2488.4964349424777,4604.060220979335 -3195.2419934352265,5157.262396882399 -3986.265408924948,5672.961774165103 -4859.979305285056,6141.806625787628 -5813.747234968882,6554.387786083737 -6843.849046164175,6901.351396254289 -7945.45750530996,7173.51849788082 -9112.627222711,7362.010444827577 -10338.296846204958,7458.378962541293 -11614.305387511487,7454.739547496656 -12931.42342809433,7343.906770411839 -14279.399816393025,7119.529926953444 -15647.024316657235,6776.227371075463 -17022.206502117777,6309.717771000924 -18392.071002871842,5716.946448240887 -19743.069022921303,4996.204897984243 -21061.10583281077,4147.241546630825 -22331.683726043775,3171.361781014452 -23540.059700941227,2071.5152856655714 -24671.41689711154,852.3687508147533 -25711.048579715618,-479.63793394544336 -26644.553227938773,-1916.253806259665 -27458.039049414747,-3447.3989768568567 -28138.336012846583,-5061.1683584053135 -28673.21326993776,-6743.858377396929 -29051.599628292617,-8480.01787696185 -29263.804542558522,-10252.524198500972 -29301.73691519271,-12042.685182985915 -29159.118844264576,-13830.367559977918 -28831.691327042812,-15594.151895524217 -28317.40882805173,-17311.513951187462 -27616.619551982974,-18959.031968039195 -26732.22822828611,-20512.61903440743 -25669.83821818372,-21947.7793278135 -24437.869798726133,-23239.886643558195 -23047.65156444288,-24364.483238875233 -21513.482016916463,-25297.59663686327 -19852.65858751878,-26016.071653243984 -18085.471559457037,-26497.914536349435 -16235.160622510128,-26722.645751825585 -14327.832107175942,-26671.657603736974 -12392.335303583013,-26328.572568572024 -10460.096673021244,-25679.597933654244 -8564.911204247108,-24713.8720822283 -6742.69065008907,-23423.797559504263 -5031.168898925311,-21805.355892560878 -3469.565286260257,-19858.39902736053 -2098.207229154512,-17586.912193037875 -958.1141652819499,-14999.243011544766 -90.54539288508079,-12108.291743652846 463.4849687327664,-8931.65770367496 663.7220534614999,-5491.7370878986285 471.208893541285,-1815.76774774815 -151.15543329781798,2064.1832005189967 -1238.043806189198,6111.292601727194 -2821.1214157349177,10284.118484504495 -4928.4651846773395,14536.80385751202 -7583.989430229881,18819.349000181035 -10806.885347115047,23077.95344543974 -14611.082226566536,27255.42806503718 -19004.738586827283,31291.676823382855 -23989.77156669398,35124.24686995559 -29561.43301758968,38688.94470101204 -35707.94071427658,41920.515147315644 -42410.172983192424,44753.37894570603 -49641.43481493356,47122.42363930004 -57367.30317904562,48963.84153560668 -65545.55879159525,50216.00744632294 -74126.21099681166,50820.38795023466 -83051.62171259208,50722.47297524148 -92256.73355652389,49872.719601298755 -101669.40631651248,48227.49715757631 -111210.86486195636,45750.02193907341 -120796.26041323821,42411.269215003435 -130335.3458063946,38190.84965796407 -139733.26401522124,33077.83690333449 -148891.44773563338,27071.53266599637 -157708.62630934594,20182.155709080755 -166081.9346802612,12431.440988656426 -173908.11745320773,3853.1354995883316 -181084.81947844863,-5506.62226978939 -187511.95273563056,-15589.051795642894 -193093.1276578418,-26322.620645809562 -197737.13544165244,-37623.08607034943 -201359.4663548217,-49393.6976885448 -203883.84760289814,-61525.56954670491 -205243.78297288547,-73898.22826849011 -205384.07526040374,-86380.34227922789 -204262.31143019002,-98830.6351669294 -201850.28958190934,-111098.98415734495 -198135.36611699185,-123027.70244321384 -193121.7010494509,-134453.0017365151 -186831.37919501236,-145206.62892753733 -179305.38502733785,-155117.6681592659 -170604.40932457361,-164014.4969859043 -160809.46635852486,-171726.88260884656 -150022.3013143471,-178088.201502987 -138365.56887963155,-182937.7630938924 -125982.76551372743,-186123.21555695473 -113037.89980303962,-187503.00931963508 -99714.88752386945,-186948.89149490092 -86216.6605651659,-184348.40229643244 -72763.98169879842,-179607.34252294656 -59593.96030990917,-172652.17948886214 -46958.26759498078,-163432.3573596965 -35121.05337637911,-151922.47676023742 -24356.570540466473,-138124.30779723206 -14946.5171484761,-122068.60030947273 -7177.110457229923,-103816.65525747674 -1335.9113781307803,-83461.62171988859 2291.577748787695,-61129.48499787348 3425.5148338845547,-36979.712861373584 1795.4876300486376,-11205.529016476574 -2855.5845063688334,15966.214559815011 -10767.456471522888,44275.59167940076 -22158.51448985056,73430.6040463959 -37221.73154310281,103108.64892845132 -56120.6714668394,132958.46530191813 -78985.59479657533,162602.5662881206 -105909.72173889524,191640.1601713408 -136945.7094007933,219650.55636378334 -172102.40157555643,246197.0464058146 -211341.90990146835,270831.2435156521 -254577.08503070657,293097.85739333107 -301669.43552557594,312539.87400814216 -352427.55049954605,328704.10303247586 -406606.0795101632,341147.04850987083 -463905.31986709486,349441.0513486565 -523971.45732672926,353180.64540699153 -586397.501100504,351989.0623768317 -650724.9482130819,345524.8144828775 -716446.2055251405,333488.278289381 -783007.7902119806,315628.1977554674 -849814.3212032636,291748.0202006599 -916233.3050929073,261711.9751373717 -981600.7103859087,225450.80309420556 -1045227.3137373751,182967.0396866457 -1106405.7911470723,134339.7593779683 -1164418.5160013458,79728.68369370046 -1218546.0145156286,19377.560179659562 -1268076.0176479882,-46383.27881170898 -1312313.0370605816,-117135.26430912003 -1350588.3813438043,-192370.9272186643 -1382270.5176372947,-271494.29761661455 -1406775.6731396986,-353822.4330956958 -1423578.560956936,-438588.13281490665 -1432223.1054616433,-524943.8829480597 -1432333.0339912476,-611967.0669691499 -1423622.1944651539,-698666.4607187371 -1405904.4525160901,-783990.0175498838 -1379103.017166258,-866833.9331594976 -1343259.0410870456,-946052.9630969231 -1298539.3402046724,-1020471.9485506774 -1245243.077983642,-1088898.4880109741 -1183807.2622520945,-1150136.6739730106 -1114810.90702804,-1203001.7951844889 -1038977.7185437859,-1246335.88626724 -957177.1736076514,-1279023.9880886867 -870423.8696235558,-1300010.964268567 -779875.0390210914,-1308318.7019345213 -686826.136515012,-1303063.5085499713 -592704.425468488,-1283473.5015976287 -499060.50960329967,-1248905.7743825857 -407557.77827572345,-1198863.1094904856 -319959.7573801635,-1133010.0017646397 -238115.383482023,-1051187.7453089806 -163942.2458128932,-953428.3342282141 -99407.8690485063,-839966.9248136482 -46509.139065219206,-711252.6078846916 -7250.003836138371,-567957.2441909289 16382.38804322316,-410982.123329629 22442.918370592786,-241462.21766917035 9054.877091636776,-60767.817386548006 -25562.76521802866,129496.64901509281 -83067.47018670035,327496.7824288501 -164964.93626522314,531175.5172825254 -272580.92598312563,738263.6811720682 -407033.46859676106,946293.8965406845 -569205.8098650543,1152617.8751709328 -759720.4963171206,1354427.1174453334 -978914.9932333671,1548776.9867709682 -1226819.243247597,1732614.085588063 -1503135.5756171371,1902806.8133769562 -1807221.3744576706,2056178.9394786574 -2138074.9072934324,2189545.974836528 -2494324.7028702255,2299754.0774823404 -2874222.849107359,2383721.1773037277 -3275642.5581699535,2438479.956954394 -3696080.3158326154,2461222.27835023 -4132662.896554079,2449344.59870778 -4582159.484036471,2400493.877221171 -5040999.089626057,2312613.433949181 -5505293.407928306,2183988.1870105728 -5970865.19074441,2013288.6634755454 -6433282.157260943,1799613.154095487 -6887896.390796044,1542527.362912222 -7329889.100867151,1242100.8904804217 -7754320.554525155,898939.8845314992 -8156184.903510179,514215.19495998666 -8530469.554612435,89685.38152073805 -8872218.650538107,-372286.0569919575 -9176600.148515461,-868719.8337108673 -9438975.904831572,-1396016.9673678025 -9654974.096514089,-1949962.332548527 -9820563.237563279,-2525736.122072426 -9932126.977627156,-3117933.6091294247 -9986538.806948902,-3720593.5195269776 -9981235.73396324,-4327235.2380837845 -9914289.95223558,-4930904.978323094 -9784477.472660946,-5524230.941773106 -9591342.666074732,-6099487.383121672 -9335257.641727068,-6648667.381083222 -9017475.379422322,-7163563.99314133 -8640175.538428316,-7635859.346489264 -8206501.885318157,-8057221.08879171 -7720590.316403736,-8419405.492241997 -7187586.498906298,-8714366.374313641 -6613652.218885893,-8934368.87022601 -6005959.603453917,-9072106.967170903 -5372672.479980025,-9120823.590564536 -4722914.245741403,-9074431.919833316 -4066721.7474150243,-8927636.507388346 -3414984.810430413,-8676052.681377253 -2779371.212720315,-8316322.632406307 -2172237.0648317677,-7846226.518547456 -1606522.7374783978,-7264786.873377791 -1095634.6669764104,-6572364.5702491775 -653313.5669452512,-5770744.584056068 -293489.7792798815,-4863209.800919691 -30126.706618025262,-3854601.1577363876 122946.51996267744,-2751362.448552369 152211.77295324387,-1561568.2141170092 44646.48655725282,-294933.2353741632 -212085.73550034224,1037197.7185445735 -629440.4333642998,2421881.081974911 -1217795.6794058953,3844627.6376306666 -1986255.863673844,5289478.423132285 -2942458.3493239745,6739103.9784662165 -4092385.60100756,8174927.262090608 -5440185.495630559,9577270.290876424 -6988002.604756746,10925524.267606525 -8735823.288443962,12198342.651705965 -10681337.458880112,13373856.306965185 -12819819.856456066,14429909.527323248 -15144033.628771314,15344315.401712483 -17644158.91272852,16095128.6352707 -20307748.98989744,16660933.600931505 -23119716.414685383,17021145.05680664 -26062351.302927867,17156318.6354022 -29115373.715199064,17048467.895279724 -32256021.774798535,16681384.429140216 -35459176.825925194,16040957.24942386 -38697526.56446815,15115487.42836453 -41941766.664190724,13895993.758981759 -45160840.977491334,12376505.031601645 -48322219.91565421,10554334.391901178 -51392216.112388186,8430331.165661553 -54336335.95093637,6009105.506603885 -57119664.99412926,3299221.250704472 -59707284.80402605,313352.4466525251 -62064718.079309285,-2931600.8194884453 -64158398.48094826,-6414441.47450425 -65956160.966808714,-10109653.273259304 -67427747.92122836,-13987430.923007779 -68545325.85376249,-18013765.647553314 -69284006.96024515,-22150588.842089057 -69622369.3970258,-26355975.92449334 -69542969.72385961,-30584411.88110185 -69032840.63048856,-34787119.33788335 -68083966.78438042,-38912449.26583982 -66693731.43004404,-42906333.65762463 -64865326.24113424,-46712798.69711859 -62608116.88198725,-50274536.09221279 -59937956.781541415,-53533529.36154082 -56877441.76529749,-56431730.967401884 -53456098.43473063,-58911785.279544756 -49710499.53213171,-60917791.448521085 -45684299.98491683,-62396099.37435286 -41428187.88849673,-63296131.0882409 -36999745.361164644,-63571219.03449103 -32463214.987016432,-63179451.95952976 -27889168.45122954,-62084518.39796613 -23354074.96207109,-60256537.105209135 -18939768.140344936,-57672863.235369146 -14732811.232484674,-54318858.61478226 -10823761.759577923,-50188614.128081076 -7306338.040968913,-45285612.02698978 -4276491.41600144,-39623315.90316104 -1831389.4175699237,-33225676.145312835 -68316.61173179791,-26127538.93678437 916498.7074755826,-18374947.249758676 1029122.3070258962,-10025322.863067701 179205.17645678623,-1147519.175767417 -1718684.458460945,8178264.488764567 -4743702.1382433465,17860715.29346813 -8967356.322349053,27797792.942387708 -14452141.98808477,37877274.86154872 -21250196.00920847,47977464.37529387 -29401992.538857654,57968063.978612445 -38935097.34566589,67711213.89270893 -49863000.58892505,77062694.04712176 -62184047.84931017,85873285.4741296 -75880489.33793579,93990284.84887628 -90917667.07216334,101259163.58359398 -107243359.41701046,107525360.51025036 -124787301.7341794,112636194.7894526 -143460900.94667554,116442883.29250912 -163157160.60901168,118802644.3485896 -183750831.56700215,119580867.46137637 -205098801.49681053,118653326.41267034 -227040734.533004,115908411.11783288 -249399969.83689582,111249351.71445532 -271984685.32983506,104596406.68579982 -294589329.93630654,95888985.37906893 -316996324.5673933,85087674.10919003 -338978028.7495365,72176134.17442118 -360298966.29365844,57162839.58179245 -380718299.7371188,40082622.117355585 -399992539.5107667,20997991.624832913 -417878469.92486626,200.00000051175377" stroke="white" stroke-width="1.5" /></svg>