<?xml version="1.0" encoding="utf-8" ?>
<svg baseProfile="full" height="400" version="1.1" width="400" xmlns="http://www.w3.org/2000/svg" xmlns:ev="http://www.w3.org/2001/xml-events" xmlns:xlink="http://www.w3.org/1999/xlink"><defs /><rect fill="black" height="100%" width="100%" x="0" y="0" /><circle cx="200" cy="200" fill="yellow" r="20" stroke="orange" stroke-width="2" /><polyline fill="none" points="199.24154641727958,200.0 199.25395472829405,199.96083603123114 199.2720271874318,199.92335829862887 199.2957717893205,199.888271894147 199.32512167287427,199.85630353343325 199.35993078048455,199.82819410017842 199.39997020647263,199.80469051936424 199.44492532622206,199.7865370157091 199.49439379381357,199.77446582503697 199.54788449105718,199.7691874376399 199.60481750452672,199.77138046382836 199.66452519953683,199.78168122261 199.7262544509679,199.80067316464812 199.78917008045804,199.82887625016252 199.85235953778272,199.86673641108354 199.91483885129168,199.9146152343891 199.9755598581423,199.97278000997997 200.0334187098601,200.04139429152127 200.08726563258347,200.12050912224512 200.13591590435152,200.2100550796237 200.17816199412258,200.30983529294988 200.2127867890465,200.41951958608502 200.23857781804523,200.53863989383902 200.25434236119364,200.66658709455788 200.25892331596305,200.80260939343046 200.2512156733281,200.9458123807539 200.23018343929493,201.0951608768894 200.19487682084383,201.24948266090522 200.14444947985544,201.40747416297617 200.07817564457739,201.56770818155115 199.99546685585315,201.72864366520824 199.8958881149467,201.88863757611463 199.77917319161156,202.04595882725727 199.64523884532255,202.19880425929742 199.4941977095465,202.34531659525362 199.32636958879596,202.4836042824846 199.14229092117884,202.61176310191527 198.9427221654028,202.7278993944344 198.72865288085447,202.83015472423637 198.50130428255972,202.9167317689462 198.2621290696156,202.9859211970428 198.01280834609642,203.03612926478843 197.75524547746784,203.0659058379996 197.4915567531361,203.07397251899027 197.22405875680784,203.05925053631415 196.95525238068876,203.02088803497062 196.68780345699716,202.95828638794498 196.42452002055217,202.87112513675396 196.16832625900972,202.75938515946484 195.92223325229227,202.62336965983158 195.6893066494813,202.46372257110158 195.47263147944793,202.2814439730063 195.27527434027667,202.0779021307357 195.10024326153396,201.85484178054122 194.9504455820531,201.6143883081863 194.8286442335194,201.3590474938861 194.73741286608424,201.09170053069656 194.67909029583203,200.8155940625116 194.65573479446695,200.5343250328067 194.6690787783734,200.25182018586125 194.72048448651873,199.97231011814327 194.81090126381605,199.70029783851146 194.94082508785678,199.44052186146172 195.1102609917052,199.19791392730727 195.31868904310002,198.9775515163429 195.56503454035501,198.78460540002743 195.84764307698066,198.62428255026916 196.1642611101112,198.50176480718483 196.51202264184852,198.4221437853164 196.88744258734093,198.39035257726871 197.28641735862084,198.4110948910458 197.70423313884547,198.488772331941 198.1355822576591,198.6274106105694 198.57458800507538,198.8305855243764 199.01483813884937,199.10134961956757 199.44942724918724,199.44216049272646 199.87100804537351,199.854811735281 200.2718515221782,200.3403675583344 200.64391585055975,200.89910215912684 200.97892371817744,201.53044490253612 201.2684477216648,202.2329323906261 201.504003285729,203.00416847948046 201.67714845528417,203.84079327468962 201.77958977747127,204.73846209429345 201.80329336213708,205.69183533026754 201.74060008381116,206.69458006647824 201.58434376717494,207.73938422229998 201.32797108326966,208.8179838868444 200.96566177708718,209.9212043892569 200.49244775060336,211.03901551625464 199.90432944061925,212.16060113969158 199.1983878598187,213.27444335534358 198.3728906140396,214.3684210604335 197.42739017061527,215.42992271301554 196.36281263340572,216.44597282278676 195.181535281313,217.40337152198197 193.88745115000816,218.2888463587501 192.48601898246633,219.0892152460054 190.98429694367346,219.79155928859603 189.39095858926603,220.38340400329824 187.71628969737176,220.852907242338 185.9721647177245,221.18905193470545 184.17200176212896,221.38184157339663 182.33069525511812,221.42249620389796 180.46452558241793,221.30364651276295 178.59104531649194,221.01952347806014 176.72894186151393,220.56614092880116 174.89787664276605,219.94146827111285 173.11830126548264,219.14559057770776 171.411251382983,218.1808532067784 169.79811934063756,217.05198811923103 168.3004069975195,215.76621910137717 166.9394604679158,214.33334317571143 165.73618886630678,212.76578559677907 164.7107694778008,211.0786259835632 163.88234210691527,209.28959333505264 163.26869567640844,207.4190279119988 162.88595044981508,205.48980824514288 162.74823953153322,203.52724184768633 162.8673935518089,201.55891856623361 163.25263266582934,199.6145258980284 163.91027018147918,197.7256260306283 164.84343227439416,195.9253948202128 166.05179834719848,194.24832341289886 167.53136663794965,192.72988372555767 169.2742496768792,191.40615953391944 171.26850412696197,190.31344546089343 173.49799941960302,189.48781671116456 175.94232940927836,188.9646729529115 178.57677101840414,188.77826029713083 181.3722935248165,188.96117586236696 184.29562175854971,189.54385993013045 187.3093560224219,190.55408118616697 190.3721510334518,192.0164209970792 193.4389556014,193.95176308256904 196.46131411973565,196.37679530272652 199.38773024702445,199.30353057942827 202.16409240800658,202.7388542033008 204.73415994935993,206.6841049354619 207.04010795215672,211.13469738941546 209.02312783908218,216.07979316662846 210.62408002827652,221.50202811371722 211.78419398670835,227.3773028648481 212.44581013462783,233.6746435258462 212.5531571599257,240.3561389435405 212.05315742882613,247.37696048310187 210.89625233948377,254.68546960681857 209.03723867035777,262.22341781044094 206.43610623861832,269.92624262988545 203.05886651834865,277.72346248507324 198.87836128698402,285.53917208390806 193.87503988414934,293.29263897430127 188.0376932923345,300.8990006137276 181.3641329956914,308.2700600336354 173.86180245292928,315.3151768212596 165.54830904322253,321.9422487366739 156.45186451954208,328.0587778423751 146.61162233989788,333.5730135618794 136.07790075022314,338.395163619493 124.91228116796692,342.4386623636284 113.18757226601689,345.6214845597507 100.98763118350352,347.86749137612844 88.40703449237546,349.1077939965695 75.55059292317088,349.2821191002203 62.532705394582536,348.34015937050816 49.476549591198534,346.2428912546108 36.51310818168676,342.9638414123313 23.78003175259417,338.49028268926816 11.420341635246302,332.8243400431977 -0.41902199322575484,325.98398666289654 -11.588799069542858,318.00391056211765 -21.939145657689096,308.9362322231492 -31.32149463507821,298.85105441731923 -39.5905262914782,287.8368261546079 -46.606231726015324,276.000503819114 -52.23604962813869,263.4674939365038 -56.357054816549464,250.38136369554155 -58.858174819152566,236.9033073067045 -59.642408841183624,223.21135852141003 -58.62902172229661,209.49934214638296 -55.755683960939336,195.97556015606804 -50.98052761979389,182.86121101450124 -44.2840869523709,170.38854404539993 -35.67109193964174,158.79875410989374 -25.1720826265759,148.33962543570158 -12.844812228918528,139.26293715603893 1.2245925350860887,131.8216469236212 16.92074452400317,126.26687282365262 34.098411948128756,122.84469767510386 52.58226431832716,121.79282363426196 72.16697377791299,123.33710874817402 92.61769429189711,127.68802069565857 113.67093797024734,135.0370463457561 135.0358641501344,145.55309890236643 156.39599277139985,159.3789672333861 177.41134907120679,176.6278544469753 197.72104172612868,197.38005482155012 216.9462713176379,221.67981976612612 234.69376043165988,249.53246453246132 250.55959087283608,280.9017678718926 264.13342743417604,315.707716683561 275.00310147395544,353.82464689733354 282.7595212810512,395.0798303401384 287.0018699299143,439.25255512091405 287.3430451145782,486.0737441163898 283.41528938930367,535.2261524345436 274.87595341714785,586.3451802707076 261.4133293251476,639.0203323575968 242.75248617606553,692.7973492596237 218.66103498277644,747.1810290983584 188.95474670321315,801.6387509550716 153.5029433508474,855.604703223944 112.2335798249317,908.4848116425626 65.13793238937424,959.6623526726905 12.274808987280977,1008.504228422622 -46.22580315835302,1054.3678694820069 -110.15973587461377,1096.6087219804435 -179.2463650589484,1134.5882649913003 -253.12713952328897,1167.6824942004785 -331.364985967082,1195.2907976720307 -413.44465633313393,1216.8451397019644 -498.77407651970884,1231.8194592971558 -586.6867469207666,1239.7391808915638 -676.4452355675586,1240.190726663296 -767.2457937895585,1232.8309123915985 -858.2241123584158,1217.396102339923 -948.4622231004116,1193.7109933153129 -1036.996537053668,1161.6968939766502 -1122.826995516861,1121.3793627797586 -1204.9272949144452,1072.8950667827248 -1282.2561304354267,1016.4977240063907 -1353.7693870499825,952.5629942564154 -1418.4331899489002,881.5921873537649 -1475.237709876775,804.2146636621078 -1523.2116024464472,721.1888096968027 -1561.436944545947,633.4014814837158 -1589.0645156061844,541.8658202170905 -1605.3292570210454,447.717358630101 -1609.565729639716,352.2083522999809 -1601.2233772241564,256.70028779522266 -1579.8813933223857,162.6545390409505 -1545.262980386886,71.62116440769003 -1497.2487833958526,-14.77414033368865 -1435.8892759326231,-94.84489408221106 -1361.4158748506698,-166.86042330888034 -1274.2505604866026,-229.06410563070523 -1175.0137830497456,-279.6931473123609 -1064.5304424579604,-316.9997510382317 -943.8337386221092,-339.2735033688697 -814.1667020920341,-344.86478468540145 -676.9812311172533,-332.2089784854427 -533.9344805613347,-299.85123199219953 -386.88247071636897,-246.4714965540549 -237.870809827657,-170.90955463197184 -89.12245294945672,-72.18972068723747 56.977548543779704,50.45511361837754 197.90031807052247,197.5604334305787 330.994420019153,369.4084080319134 453.51005643800886,566.0079125032997 562.6260888883047,787.0766275973053 655.479737887781,1032.0255802375282 729.1987691582906,1299.9464809870656 780.9359321543083,1589.6022039185918 807.9053726007179,1899.4207383807282 807.4206975505273,2227.492921051575 776.9343293596183,2571.5742303174575 714.0777445640631,2929.090893388637 616.7021555526144,3297.15051970528 482.91915778193,3672.557432203565 311.14083371943485,4051.8328210829786 100.11877735111358,4431.239793094018 -151.0185194185728,4806.813333378907 -442.7304942160963,5174.39513695019 -775.0321422893858,5529.673203464056 -1147.4650365228536,5868.2260225931805 -1559.0723280980308,6185.571108656709 -2008.3783064640215,6477.217572923399 -2493.37307935443,6738.722350935903 -3011.5029074834574,6965.749631135843 -3559.666694053055,7154.132960888616 -4134.2190861698955,7299.939437642827 -4730.980593670757,7399.535327385857 -5345.255070755773,7449.652390777415 -5971.854837408748,7447.45414037791 -6605.133641136719,7390.601201270886 -7239.027575500999,7277.314903135967 -7867.103980773854,7106.438195470489 -8482.618254499617,6877.492950166016 -9078.578396549923,6590.732697955948 -9647.817005346096,6247.189838237533 -10183.07033030329,5848.716366240926 -10677.063871372826,5398.017178180075 -11122.603901067778,4898.675044486479 -11512.674168904381,4355.166383987955 -11840.536934213847,3772.867028308121 -12099.837362294737,3158.047236042021 -12284.710212466123,2517.8553004633377 -12389.887646375111,1860.289192523362 -12410.806892572597,1194.1557924174317 -12343.71642057414,529.0173875383358 -12185.779206036035,-124.87474846867633 -11935.171609943485,-756.6597324640601 -11591.176350419295,-1354.9592825297623 -11154.268017434726,-1907.9824728982194 -10626.189569763574,-2403.642567817742 -10010.018261263613,-2829.6852875750897 -9310.21947115327,-3173.827674280813 -8532.686961362282,-3423.906537328904 -7684.768154062166,-3568.0352708648156 -6775.273114708527,-3594.7676504762094 -5814.466040684636,-3493.267036126707 -4814.0381930130325,-3253.47923565565 -3787.0613683997753,-2866.3071206166983 -2747.9211906112655,-2323.784936527038 -1712.2297030639568,-1619.250115469868 -696.7169674246928,-747.5102831466054 280.8983854563503,294.99694242187843 1202.0594475857843,1510.0538347104796 2047.5416910112694,2897.5246445559014 2797.6432268327158,4455.232424674968 3432.393607605745,6178.853116094713 3931.7798129820726,8061.829374131899 4275.987753418739,10095.30653206351 4445.657322057389,12268.092985980196 4422.148724235416,14566.647133583147 4187.817521556659,16975.092812329643 3726.295547203025,19475.26495823364 3022.7745855179564,22046.786946109285 2064.289466230248,24667.1807759109 839.9970064364805,27312.010939372776 -658.5529539739747,29955.06243819507 -2437.158331055482,32568.5530318983 -4498.721412260785,35123.37937305554 -6843.025403780889,37589.396243291565 -9466.535031480029,39935.72763916673 -12362.225294181844,42131.10797725193 -15519.442392592811,44144.25119729884 -18923.800726579568,45944.24504679535 -22557.119665783735,47500.96733519283 -26397.403552169137,48785.520457899256 -30418.86808718696,49770.680015274374 -34592.015890634466,50431.35289714527 -38883.76359352523,50745.039775791345 -43257.62234470109,50692.29655705563 -47673.93307263273,50257.18898742126 -52090.15725284461,49427.73431170259 -56461.22329147679,48196.323628460916 -60739.92795135003,46560.11840518042 -64877.39152408411,44521.414499116094 -68823.56469672584,42087.96698860831 -72527.78428121266,39273.269159091 -75939.37417785964,36096.77911290673 -79008.28713868151,32584.08768654463 -81685.7820922206,28767.02166637916 -83925.13099874165,24683.676696807455 -85682.34843377233,20378.374774233605 -86916.93636010909,15901.541816893225 -87592.63585492197,11309.501493141974 -87678.17692112327,6664.182277336851 -87148.0169423536,2032.7355793535178 -85983.05785043383,-2512.9362437669556 -84171.33167434254,-6896.742143797962 -81708.64384174062,-11039.053941290382 -78599.16341831752,-14857.445049876045 -74855.9494066078,-18267.512997108985 -70501.40229337818,-21183.78110550432 -65567.63024117333,-23520.673401595657 -60096.71967187073,-25193.555511985272 -54140.90049350361,-26119.832998914113 -47762.59688004257,-26220.097300246267 -41034.35532946509,-25419.30818722377 -34038.642698668664,-23648.000455884914 -26867.508043051577,-20843.501443174355 -19622.103370298628,-16951.144925361612 -12412.059846325232,-11925.46603340206 -5354.717558519767,-5731.361026204425 1425.79136282713,1654.8048830581463 7799.604652190476,10244.158932505823 13632.333319715948,20034.369031086302 18786.40104205369,31008.79647258728 23122.51194727479,43135.77070970776 26501.23710166186,56368.00341261866 28784.70787929604,70642.15845824097 29838.40227302165,85878.59367245213 29533.00811429359,101981.28907143799 27746.34513769382,118837.9750169241 24365.325882798563,136320.47211251798 19287.93360168628,154285.25282745578 12425.19366535059,172574.23274561498 3703.113467460229,191015.79701114105 -6935.435460048855,209426.06499041524 -19528.920448057128,227610.39341005223 -34095.463909448015,245365.11528253605 -50631.30135296817,262479.5088190481 -69109.40991984395,278737.9872807526 -89478.33597556263,293922.49736659415 -111661.24972554523,307815.1103121693 -135555.25387411503,320200.7864183794 -161030.9719971932,330870.2902811904 -187932.44054053494,339623.23059832613 -216077.3261815014,346271.19513085834 -245257.48770260162,350640.9482450161 -275239.8985236586,352577.65550099785 -305767.9426362563,351948.09704100393 -336563.092894527,348643.82910822076 -367326.9764616363,342584.2509518357 -397743.8277186257,333719.5326892756 -427483.3241450859,322033.35845297214 -456203.7956184547,307545.43838998856 -483555.79229596176,290313.74285073904 -509185.9907913196,270436.4124359951 -532741.4127936086,248053.29850303792 -553873.9246601942,223347.09029076542 -572244.9809153655,196543.98703238997 -587530.5690723707,167913.87629909988 -599426.3078430409,137769.98336757044 -607652.6456836406,106467.96062954517 -611960.1018274287,74404.3909555236 -612134.4875546972,42014.68447082925 -608002.0415312133,9770.354375675439 -599434.40968683,-21824.335793510967 -586353.3973869889,-52236.35375077647 -568735.4196476226,-80908.50137760927 -546615.5739314047,-107264.62321599899 -520091.25970844564,-130715.39619116057 -489325.2695292866,-150664.6673525564 -454548.2778968501,-166516.29737620836 -416060.6567830677,-177681.458445376 -374233.5502517573,-183586.32602864743 -329509.1453475372,-183680.09511937998 -282400.08220560243,-177443.24280919498 -233487.95322991745,-164395.9507667173 -183420.84916604823,-144106.5934102719 -132909.91893261013,-116200.19043140335 -82724.92013082444,-80366.71597716917 -33688.748167987666,-36369.15136459057 13329.056164951202,15948.836190756181 57419.80811760475,76655.70957373698 97644.16346314453,145725.49517570803 133041.5461232957,223031.95692860763 162640.4646052069,308343.6332331491 185469.6482170607,401319.8565074554 200569.91920008566,501507.8708834154 207006.70213525576,608341.1576607464 203883.05744063266,721139.0704517928 190353.1116667564,839107.8724910717 165635.743827314,961343.257340852 129028.37438083788,1086834.42121808 79920.69192021391,1214469.7404423263 17808.142345311575,1343044.091127259 -57695.00349647976,1471267.8303025884 -146843.19480741993,1597777.438278119 -249747.9547680813,1721147.801391192 -366367.2427852809,1839906.0924838667 -496496.0252683509,1952547.183732449 -639758.2535284199,2057550.5030197045 -795600.4432030986,2153398.221143865 -963287.0427175167,2238594.633064121 -1141897.7686074767,2311686.5723762414 -1330327.072984791,2371284.6745989732 -1527285.8929832352,2416085.2819521185 -1731305.8136840367,2444892.7604529397 -1940745.754816535,2456641.979691099 -2153801.26753473,2450420.686911244 -2368516.5008951463,2425491.490385522 -2582798.8684583046,2381313.152842798 -2794436.413899276,2317560.88427687 -3001117.8408778897,2234145.3151101437 -3200455.136964491,2131229.82575373 -3390008.6844619354,2009245.9073697245 -3567314.7128675734,1868906.231369151 -3729914.9088782473,1711215.1121018324 -3875387.9606901975,1537476.0585068825 -4001382.774350083,1349296.1263477502 -4105653.061569048,1148586.8031610535 -4186092.961239658,937561.1832601805 -4240773.321435957,718727.220054113 -4267978.2354862895,494876.8775127324 -4266241.395351768,269071.0417127704 -4234381.798587193,44620.096851889335 -4171538.322169902,-174939.88232882437 -4077202.6580060823,-385875.31843657256 -3951250.0914968336,-584287.6416203815 -3793967.5966718267,-766150.0063739914 -3606078.719547507,-927348.0391508065 -3388764.7259657676,-1063724.3790494378 -3143681.501592189,-1171126.7106921358 -2872971.7103158096,-1245458.9247957063 -2579271.743242299,-1282734.978584324 -2265713.0239806706,-1279134.9659221054 -1935917.2770803883,-1231062.8466974404 -1593985.4152810115,-1135205.2274505962 -1244479.757595157,-988590.5314044768 -892399.3539628662,-788647.8468539161 -543148.2629914591,-533264.6992134529 -202496.70672178763,-220842.95483173506 123464.89007792565,149647.96515172085 428378.87952466164,578621.4042408281 705680.1987434867,1065828.1792080677 948662.7183572513,1610316.536571815 1150551.742488561,2210398.207852989 1304582.1687991037,2863621.3957012827 1404081.7137107016,3566751.4925336866 1442558.5050455297,4315760.290867738 1413792.2432033105,5105824.3897875 1311928.034037012,5931333.434805626 1131571.9032268454,6785908.748785383 867886.9146542505,7662432.819720122 516688.73553494486,8553090.007355258 74539.42038112682,9449418.715371324 -461161.87428684323,10342375.149791727 -1092092.5807152032,11222408.648283768 -1818926.1871746867,12079548.42010862 -2641258.87273367,12903501.383854501 -3557544.7046535555,13683760.631137254 -4565040.780508145,14409723.880729096 -5659763.666060866,15070821.120794162 -6836458.429981069,15656650.46894356 -8088581.506998369,16157121.112676263 -9408298.53164003,16562602.028586512 -10786498.17504515,16864075.019729767 -12212822.887512922,17053290.45907635 -13675717.299682615,17122923.985429928 -15162494.866091926,17066732.26897767 -16659423.147119142,16879705.849196028 -18151827.9200782,16558216.950581346 -19624216.088882454,16100160.103964979 -21060417.125900347,15505083.345283013 -22443742.531355243,14774307.731763892 -23757162.537133493,13911032.909567656 -24983499.015682198,12920426.488780292 -26105633.283604357,11809695.03292071 -27106727.21663237,10588134.552087214 -27970455.821161732,9267158.502596136 -28681249.140916258,7860301.442153846 -29224541.11925018,6383196.668616052 -29587022.791846815,4853526.3821934955 -29756896.95503369,3290943.1551231653 -29724131.245537467,1716961.768468565 -29480706.38221185,154820.78152220492 -29020856.1629938,-1370686.4665278601 -28341295.684924792,-2833411.3626918932 -27441434.165199183,-4206079.590352706 -26323568.690375004,-5460549.915950959 -24993055.21234674,-6568100.924210267 -23458453.146382153,-7499744.001141246 -21731640.01102697,-8226560.423438757 -19827892.684145294,-8720059.969384698 -17765932.035455354,-8952558.025313292 -15567927.934785992,-8897567.72873763 -13259461.927481553,-8530203.27030299 -10869445.213858547,-7827590.077977126 -8429989.967641016,-6769277.234618152 -5976232.477431205,-5337647.14068575 -3546107.093358018,-3518317.133804389 -1180070.5051570248,-1300527.5225124157 1079223.5356044092,1322489.7109346641 3187298.312098391,4353167.428402246 5098275.663543871,7789291.045036206 6765342.853516579,11623723.412564239 8141262.003902609,15844172.798093794 9178918.596974911,20433009.74052459 9831904.827443695,25367138.346209873 10055132.869902156,30617927.281071216 9805472.42405155,36151205.32616242 9042406.220086113,41927325.88679516 7728696.519653265,47901304.28191933 5831055.044134048,54023030.99169351 3320808.212026977,60237563.30945744 174549.0814002697,66485497.033161975 -3625233.017956098,72703418.94550474 -8089554.504791336,78824439.87756854 -13222380.793605225,84778807.13496333 -19020120.47224561,90494593.99683058 -25471180.13015825,95898462.88636126 -32555589.454617787,100916497.6676444 -40244705.98279122,105475099.3597668 -48501008.53589455,109501938.38828833 -57277987.86360354,112926955.3306003 -66520142.389356226,115683400.9702075 -76163086.16881895,117708905.37134072 -86133775.25482725,118946564.63575713 -96350857.60459092,119346033.02483243 -106725150.47271842,118864607.23896047 -117160247.91250731,117468288.85986108 -127553259.56574908,115132810.29641402 -137795680.36785436,111844609.04751302 -147774389.14227337,107601734.7219398 -157372772.31991258,102414673.05036688 -166471967.21137592,96307071.1020992 -174952217.40027705,89316348.09160656 -182694330.93420866,81494176.53815968 -189581230.0876232,72906819.13505742 -195499579.58080444,63635307.50002615 -200341478.285676,53775450.02013089 -204006197.6578363,43437657.275146365 -206401948.43145216,32746575.02235705 -207447655.5265513,21840516.4498096 -207074719.6743451,10870687.347768154 -205228742.99301052,200.00000025133298" stroke="white" stroke-width="1.5" /></svg>