<?xml version="1.0" encoding="utf-8" ?>
<svg baseProfile="full" height="400" version="1.1" width="400" xmlns="http://www.w3.org/2000/svg" xmlns:ev="http://www.w3.org/2001/xml-events" xmlns:xlink="http://www.w3.org/1999/xlink"><defs /><rect fill="black" height="100%" width="100%" x="0" y="0" /><circle cx="200" cy="200" fill="yellow" r="20" stroke="orange" stroke-width="2" /><polyline fill="none" points="198.6282513270646,200.0 198.59889712603163,199.92644849946896 198.57696244731326,199.85018119183854 198.56295206208108,199.77200765080298 198.55729723654127,199.69281679217934 198.56034515610858,199.61357117582614 198.57234867777112,199.53530001129727 198.5934565597982,199.45909086747415 198.62370432198526,199.38608010256152 198.6630058920354,199.31744204784917 198.7111461943066,199.25437699638547 198.7677748358848,199.1980980660026 198.83240104165634,199.14981702478931 198.9043899846633,199.110729185918 198.9829606504522,199.0819974974709 199.06718536431976,199.0647359713434 199.15599109829336,199.05999261317572 199.24816266035452,199.06873203232087 199.34234785184924,199.09181792682855 199.43706466028593,199.12999565304148 199.53071053388584,199.18387510238713 199.6215737614438,199.25391411903817 199.7078469564268,199.34040270103748 199.78764261797266,199.44344823398978 199.8590107137654,199.56296201026137 199.91995820090776,199.69864728758228 199.96847037116567,199.84998913880176 200.00253387663474,200.0162463391299 200.0201612613126,200.19644552835283 200.01941679361838,200.38937787311613 199.9984433649684,200.59359843834974 199.95549019050083,200.80742845721042 199.88894102036522,201.02896066554678 199.7973425440902,201.2560678398907 199.67943264685036,201.48641464743923 199.53416815542312,201.71747288255733 199.36075169368786,201.94654012719852 199.15865725311136,202.17076183255438 198.9276540731957,202.38715677650697 198.66782842073567,202.59264580642426 198.37960285530457,202.78408372991404 198.06375257199733,202.95829416779318 197.7214184213975,203.11210713424268 197.35411622124607,203.2423990594566 196.96374199456943,203.34613492064412 196.55257279520296,203.42041209864203 196.12326281379677,203.46250553029918 195.67883449551067,203.469913681891 195.2226644446209,203.44040482681854 194.75846394102027,203.37206307245756 194.29025394886187,203.26333354696976 193.822334558053,203.11306612788408 193.35924886455018,202.92055707099928 192.90574136494348,202.68558788132566 192.46671101407196,202.40846075801196 192.04715917072176,202.09002994308804 191.65213273507584,201.73172830993508 191.2866628616891,201.33558854214374 190.9556997124559,200.90425827723746 190.6640437943557,200.44100862292998 190.4162745056806,199.94973549637135 190.2166765908921,199.43495328932454 190.06916527710536,198.9017804244007 189.97721093331157,198.35591643924337 189.9437641556571,197.80361031663762 189.97118223723356,197.25161986854548 190.06115802773425,196.7071620805128 190.21465222586787,196.177854429094 190.43183017449104,195.6716472980981 190.71200424399464,195.19674773863176 191.05358289258575,194.76153494202 191.4540274818787,194.37446792251285 191.90981790187556,194.04398603689285 192.41642802033763,193.778403099225 192.96831191722524,193.58579597946743 193.55890179496342,193.47388870282094 194.18061836960783,193.44993319078898 194.8248944465416,193.52058790313177 195.4822122673412,193.69179575036196 196.14215508231905,193.96866274725463 196.79347325661385,194.35533896712872 197.42416505740647,194.85490343251934 198.02157209697356,195.46925463845432 198.5724892221557,196.19900844810294 199.0632884469513,197.04340512539022 199.48005632311234,198.00022727371 199.80874393578472,199.06573043270382 200.0353284995969,200.23458804496315 200.14598531752395,201.49985244042134 200.1272686529032,202.85293339731984 199.9662998568568,204.28359572440547 199.65096089193747,205.77997716916775 199.17009120100477,207.3286277914769 198.51368569119515,208.91457175128372 197.67309143944408,210.52139224376702 196.64120058144042,212.13134007650007 195.41263672320193,213.72546612224522 193.9839321166466,215.28377759964167 192.35369277048198,216.78541783445635 190.52274862817416,218.2088688387327 188.4942859382214,219.5321757169573 186.27395897074265,220.73319157049966 183.86997830049913,221.78984122761483 181.29317298158037,222.68040178010693 178.557024084407,223.38379756349028 175.67766725232016,223.87990687956722 172.67386216328163,224.14987743339276 169.5669270520469,224.17644714542357 166.38063675902364,223.94426670917485 163.14108312276852,223.4402199999377 159.87649692202004,222.6537382060527 156.61703099802284,221.57710335586657 153.3945046458008,220.20573675567144 150.24210985049336,218.538467741321 147.19408045779394,216.5777780832659 144.2853259012524,214.3300173755578 141.5510316584733,211.80558478765505 139.02622916726705,209.01907266687155 136.7453384952901,205.98936765175193 134.74168761587927,202.73970519464126 133.04701269146284,199.29767369666575 131.69094429658713,195.69516483095214 130.70048501742937,191.96826707007966 130.09948433565728,188.157099940529 129.90811713352332,184.3055870984248 130.1423725359931,180.4611669543897 130.8135601264384,176.67444026710857 131.92784082708323,172.99875487053654 133.48578991638314,169.4897284928929 135.48199975566286,166.2047114599963 137.90472980996444,163.20219194350076 140.7356114671605,160.54114730763686 143.94941497969376,158.28034601671183 147.51388557044262,156.47760547962318 151.3896553547892,155.18901211597623 155.5302372326824,154.468110819391 159.88210629625937,154.3650718549885 164.38487358061184,154.92584404716678 168.97155615913954,156.19130387758906 173.5689466536553,158.19641080860316 178.0980841975405,160.9693797608565 182.4748277638847,164.53088219255275 186.61053155738009,168.89328763881593 190.41282087803572,174.05995786065102 193.78646550740922,180.02460591236957 196.6343462564352,186.77073245328026 198.85850886198904,194.27115149417426 200.36129794242413,202.48761747316104 201.04656223715995,211.3705650916402 200.82092087989759,220.85897270416964 199.5950790082032,230.88035924202427 197.28517961394337,241.35092365761147 193.81417721002882,252.17583470600687 189.11321765029186,263.24967753330196 183.12300731255291,274.45706202423935 175.79515386152627,285.6733961811542 167.09345996947093,296.7658259725438 156.99515070919216,307.59434111519073 145.49201486615206,318.0130441538043 132.59144016295645,327.871577994336 118.31732236786276,337.01670475172205 102.71082848499613,345.2940264124726 85.83099471144149,352.54983541230933 67.75514060674035,358.63308081611694 48.579081962386226,363.3974333909898 28.417126188571586,366.7034305140477 7.401835655421905,368.42067958735305 -14.316453664463523,368.43009647625405 -36.57036871049644,366.62615347923764 -59.176498992069696,362.91910951175475 -81.93666463973517,357.2371935784481 -104.63945511404603,349.5287112523298 -127.06203762319785,339.7640428094803 -148.97223088395225,327.93750091624406 -170.13083626921468,314.0690153633404 -190.29421465306268,298.2056123161801 -209.21709342695056,280.42265592858047 -226.65558425999268,260.8248209702787 -242.3703882558745,239.54676636567154 -256.1301612666064,216.75348124623395 -267.7150083091925,192.6402772916204 -276.9200723481743,167.4324037787244 -283.55917920940124,141.3842648727522 -287.46849713427434,114.77822227236237 -288.51016652579005,87.92297034867161 -286.5758528347418,61.15147537543615 -281.5901733425505,34.818475308327834 -273.5139468712519,9.297541801454003 -262.34721424380575,-15.022288291181923 -248.13197667885936,-37.74029883981905 -230.95459927947047,-58.44827862901627 -210.94782740645962,-76.73507841560183 -188.2923650501491,-92.19150911608551 -163.21796635912108,-104.41554301502453 -136.0039942741834,-113.0177735630773 -106.97940376518511,-117.62708314001759 -76.52211148437931,-117.89646217944909 -45.057718730357124,-113.50891737715398 -13.057560449178283,-104.18340142486409 18.963940437984718,-89.68069191788402 50.45262683133609,-69.80914287062615 80.81867490992016,-44.43022872999367 109.44137227402005,-13.463797991600984 135.6745947502436,23.107048416428995 158.85296033435435,65.23153983221766 178.29862887529546,112.78736550638095 193.3287059615336,165.5774360084485 203.2631991657294,223.3273590282448 207.43346445319887,285.6837088553423 205.1910702893413,352.2131642572522 195.91699692431686,422.4025836794825 179.03107862915795,495.66007964737855 154.00158745053196,571.3171459649475 120.35484848937146,648.6318817995782 77.68476894124305,726.7933460501564 25.662156313506898,804.9270635731228 -35.956304495914395,882.101691957967 -107.31955006639055,957.3368436894873 -188.47425119461604,1029.6120438165642 -279.3576790428719,1097.8767877911127 -379.7914642143936,1161.061648089293 -489.4763865210698,1218.0903617397742 -607.9883296240789,1267.8928141367244 -734.7755292344534,1309.4188176991947 -869.1572360984726,1341.6525672583243 -1010.3239055232102,1363.62763772584 -1157.3390137038389,1374.4423738484093 -1309.1425876038777,1373.275506917257 -1464.556519645601,1359.4018194213727 -1622.2917210497753,1332.2076660488085 -1780.957148410359,1291.206148397651 -1939.0707171165182,1236.0517314965225 -2095.0720926877316,1166.554082988748 -2247.3373271426094,1082.6909108295822 -2394.195282382658,984.6195727945124 -2533.9457564714808,872.6872311948092 -2664.8792018879835,747.4393291202636 -2785.297897615567,609.6261704314146 -2893.5384096089847,460.2073947305775 -2987.9951470893284,300.35415074853495 -3067.1447956078887,131.4487870541854 -3129.571382260288,-44.9181022457133 -3173.9917042047477,-226.95341711407855 -3199.2808291334763,-412.67019153858064 -3204.497355959125,-599.8992204947177 -3188.908106104593,-786.3037292185098 -3152.011900814984,-969.3971059432329 -3093.5620682259096,-1146.5636825571069 -3013.587315887852,-1315.0825086766745 -2912.4106004067244,-1472.154023736894 -2790.6656261336566,-1614.9294892530193 -2649.3106097078326,-1740.5429998350962 -2489.638956972686,-1846.1458473003754 -2313.286513550994,-1928.9429678371316 -2122.235070333578,-1986.2311581684844 -1918.8118304089403,-2015.4387036187368 -1705.6845745784888,-2014.1660194982 -1485.852298541097,-1980.2268679156828 -1262.6311360006837,-1911.6896756355945 -1039.635428189835,-1806.918445561685 -820.7538513754764,-1664.6127254943165 -610.1205695074067,-1483.8460736071222 -412.08143889875817,-1264.1024412403776 -231.15535522275525,-1005.3098807052631 -71.99089962958891,-707.8709793940941 60.681490187612184,-372.6894221115747 162.10152730815412,-1.192091644351592 227.53489271546155,404.6538664303913 252.3324215524522,842.3295645014281 231.9921463306289,1308.7589963944756 162.22361502818518,1800.3102394318141 39.01383467587644,2312.8036609953087 -141.3058727400063,2841.5274969038633 -381.99287439832733,3381.2611018182984 -685.8269166549538,3926.306096560399 -1055.0453736528045,4470.525554063998 -1491.2809663588498,5007.391275173985 -1995.5028942577478,5530.0391083096865 -2567.9623426483895,6031.332163870292 -3208.1433386175777,6503.9316660709865 -3914.719927467372,6940.375072663152 -4685.52062790134,7333.160977837865 -5517.501097982306,7674.840196775771 -6406.725904228242,7958.112313128251 -7348.360232812678,8175.926854629976 -8336.672314425463,8321.588148569623 -9365.04725282771,8388.862799568426 -10426.01285157171,8372.088628677451 -11511.277924000677,8266.283816881914 -12611.783448931032,8067.254909389202 -13717.766798982704,7771.702261275326 -14818.839121196279,7377.321441843109 -15904.075791391962,6882.899066035191 -16962.119695929778,6288.401488007547 -17981.29691856281,5595.054775973281 -18949.744227580093,4805.414390027082 -19855.54757124606,3923.423007070733 -20686.890599671944,2954.4549802267475 -21432.21204088495,1905.3459851101345 -22080.370570330124,784.406492673286 -22620.81562881165,-398.58218154310066 -23043.762466540455,-1632.3903688744217 -23340.369523167145,-2904.3820409765826 -23502.916098172132,-4200.5770882632905 -23524.97812551673,-5505.734466414771 -23401.59974378223,-6803.456573458016 -23129.458250858046,-8076.314980055755 -22707.019953231636,-9305.997378187243 -22134.68436661035,-10473.475340383136 -21414.91419936107,-11559.192195441618 -20552.348555272187,-12543.270029782056 -19553.89682939939,-13405.734519269838 -18428.810841938244,-14126.755987752154 -17188.732861565622,-14686.90477923264 -15847.717312548133,-15067.41872438352 -14422.224139784474,-15250.480182961239 -12931.082023074392,-15219.499855853333 -11395.419886084066,-14959.404288279156 -9838.5654360231,-14456.923733524665 -8285.909795786918,-13700.876818995444 -6764.737649553798,-12682.448257797652 -5304.022713331791,-11395.455683914679 -3934.1887609658534,-9836.60156163532 -2686.836880335803,-8005.706034317231 -1594.4401000628307,-5905.916537703869 -690.0070096365257,-3543.8900124117818 -6.716490611218575,-929.9436120514285 422.4738219418789,1921.8300795205187 565.2422259842558,4993.487133853278 390.3371679286611,8263.199244922193 -131.9731178975419,11705.266862250039 -1029.4401177353516,15290.18142059472 -2327.3687084063613,18984.739182227127 -4048.1504112445446,22752.208734311378 -6210.802021084383,26552.553653284194 -8830.515722853257,30342.71126315544 -11918.22707522649,34076.92777897731 -15480.207446241435,37707.149444855364 -19517.687623060432,41183.46855319387 -24026.51938095066,44454.62247463914 -28996.88177924457,47468.543043509206 -34413.03884940359,50172.95283930398 -40253.15514789475,52516.00408987564 -46489.17536078104,54446.95510541157 -53086.77376502693,55916.878344610726 -60005.37887184725,56879.393425948394 -67198.27799939358,57291.41763881532 -74612.80584628748,57113.92579306169 -82190.62036583519,56312.7105827847 -89868.0683763655,54859.134042897036 -97576.64239056986,52730.860156918585 -105243.5291119444,49912.55824318913 -112792.248936786,46396.56641560936 -120143.38462448708,42183.50419492091 -127215.3960673068,37282.82324760095 -133925.51681493223,31713.285261016412 -140190.72670192597,25503.356133902027 -145928.79360169003,18691.50597769637 -151059.3760042617,11326.404892598008 -155505.1768033927,3467.00510677236 -159193.13739828658,-4817.499149380217 -162055.6599851305,-13447.841718686504 -164031.84475177634,-22334.991125102937 -165068.72761465987,-31380.599038976532 -165122.5031695337,-40477.59451630047 -164159.71668597945,-49510.92637726745 -162158.40827889595,-58358.45440475622 -159109.19185659697,-66891.98823741743 -155016.2510923419,-74978.4709190888 -149898.2345105851,-82481.30206300292 -143789.03183611704,-89261.79351453221 -136738.41403707216,-95180.74827105332 -128812.52001314296,-100100.15126497994 -120094.17364769519,-103884.95846105325 -110683.01596380767,-106404.96858822604 -100695.43840388904,-107536.75974807117 -90264.30479183146,-107165.67114494932 -79538.45133387437,-105187.80829848372 -68681.95606440972,-101512.04835717009 -57873.17143729369,-96062.02056444802 -47303.516289623,-88778.03556641203 -37176.02614758203,-79618.936124296 -27703.663783125627,-68563.84093468728 -19107.395042639586,-55613.75269467872 -11614.038227124054,-40793.00130456089 -5453.898677159647,-24150.49320177229 -858.2036706855768,-5760.738288551426 1943.6437601058292,14275.373229147617 2726.969985270898,35830.07051715099 1274.8693387978556,58748.50305898051 -2618.6528572574516,82848.86553874449 -9145.464989461534,107922.86681619262 -18480.05681109728,133736.56021883793 -30776.288125988172,160031.5490352301 -46164.17910180461,186526.57735617994 -64746.785021079726,212919.5122969404 -86597.20009782944,238889.71916897735 -111755.73637412307,264100.8263870899 -140227.32461793383,288203.8718344482 -171979.18452771052,310840.8171087805 -206938.81137055898,331648.41058760096 -244992.32540426278,350262.37463482225 -285983.22902817937,366321.8865864237 -329711.6145497403,379474.31746519596 -375933.86272370414,389380.1867544949 -424362.8688095353,395718.2860828416 -474668.8287948487,398190.91941274185 -526480.6136552071,396529.20236849313 -579387.7540761449,390498.3587606229 -632943.05197549,379902.948251567 -686665.8284654109,364591.9555404729 -740045.8106265358,344463.6685055194 -792547.6516833275,319470.27050850954 -843616.0709329965,289622.0706137794 -892681.5911615215,254991.2948720002 -939166.8423616056,215715.36213377805 -982493.3914394955,171999.56914550788 -1022089.0483599466,124119.1119898182 -1057395.5899389426,72420.37430496211 -1087876.8333668844,17321.4171808225 -1113026.982651812,-40688.388798644046 -1132379.162639259,-101049.6422107123 -1145514.0472228406,-163135.14519991685 -1152068.480940407,-226253.12981423232 -1151743.9864887327,-289651.50253284065 -1144315.0449189255,-352523.1223379363 -1129637.030526265,-414012.11585235497 -1107653.6788498024,-473221.22039791616 -1078403.9638705726,-529220.1324278316 -1042028.2595565248,-581054.8247679087 -998773.6614522897,-627757.7815984143 -948998.3461451327,-668359.08526975 -893174.8502349126,-701898.2740322147 -831892.1559593299,-727436.8747484426 -765856.4779234411,-744071.4998333376 -695890.6544823322,-750947.3832275487 -622932.0582353773,-747272.2163620337 -548028.9527953075,-732330.1320249619 -472335.23745752743,-705495.6720141191 -397103.537552471,-666247.5636658545 -323676.61602892797,-614182.1210125524 -253477.10107586914,-549026.0786481577 -187995.54520478792,-470648.66058235883 -128776.85301836119,-379072.6826364036 -77405.13769269567,-274484.4854622368 -35487.08978271814,-157242.4962210697 -4633.966082378017,-27884.220488298808 13557.669330684168,112868.52781253023 17526.295347520274,264106.34159970144 5766.694783137328,424731.0521717404 -23148.078001603906,593456.8334613446 -70544.24932211089,768813.7175742553 -137624.64590923433,949153.6394690505 -225446.04933770187,1132659.1050669684 -334896.86979821045,1317354.5507629858 -466675.4389798434,1501120.4333827225 -621269.234225674,1681710.0582808405 -798935.3554679155,1856769.1197319203 -999682.5824194169,2023857.8922952919 -1223255.341795395,2180475.974753104 -1469119.9126885426,2324089.449879444 -1736453.1923781014,2452160.2840900193 -2024134.334611154,2562177.751376632 -2330739.5575851314,2651691.6263124924 -2654540.3993625273,2718346.851817624 -2993505.674190717,2759919.3493198385 -3345307.354164827,2774352.6024793293 -3707330.56690057,2759794.6113233254 -4076687.8614802314,2714634.782032595 -4450237.852066128,2637540.2893090104 -4824608.30147561,2527491.4238051977 -5196223.655983161,2383815.417076915 -5561336.988030055,2206218.2214717413 -5916066.2458208,1994813.7128139555 -6256434.648477831,1750149.7801722067 -6578415.003087433,1473230.7698487395 -6877977.656239578,1165535.7604010499 -7151141.728242308,829032.1623359667 -7394029.213833511,466184.16037131514 -7602921.469721754,79955.54803886388 -7774317.547515022,-326193.45598429564 -7904993.7714215005,-748315.7730526533 -7992063.9044434,-1181993.7194065072 -8033039.195558411,-1622362.1962825665 -8025887.554529848,-2064138.9910225659 -7969091.061435811,-2501662.288220221 -7861700.985673351,-2928935.4068759554 -7703389.464961946,-3339678.690695191 -7494496.979586128,-3727388.3847889616 -7236074.751568001,-4085402.2339448864 -6929921.203368907,-4406971.43627039 -6578611.626725175,-4685338.482410363 -6185520.23986865,-4913820.305846862 -5754833.851105432,-5085896.065228372 -5291556.398840976,-5195298.776560808 -4801503.702826507,-5236109.912800215 -4291287.83869977,-5202855.992355858 -3768290.6376848146,-5090606.0877218405 -3240625.9153201296,-4895069.102412626 -2717090.146852235,-4612689.590102452 -2207101.4318340844,-4240740.82587052 -1720626.725698126,-3777413.7872193684 -1268097.460639238,-3221900.663497714 -860313.8308742513,-2574471.4878948713 -508338.1768840406,-1836542.4775574398 -223378.06806756667,-1010734.6757830869 -16659.851644817973,-100921.51670300585 100706.39421572495,887736.0217438815 117869.39520090706,1948767.9457132753 24385.428276364804,3074388.638230449 -189628.15640425892,4255506.1952282125 -533336.2330787348,5481748.6571450485 -1015027.7578712701,6741507.941995519 -1641958.06124417,8022002.119610806 -2420193.570755366,9309356.481443193 -3354461.063018705,10588703.65696146 -4448003.6281402465,11844302.807553733 -5702445.592775823,13059677.693619572 -7117668.687099843,14217773.16208392 -8691701.754317304,15301129.34211104 -10420626.286996089,16292072.56882536 -12298500.03076879,17172921.781122863 -14317300.821428174,17926208.863198545 -16466892.714985838,18534911.123484343 -18735016.33106061,18982693.832747735 -21107305.157555707,19254160.478801697 -23567329.358887866,19335108.14241728 -26096668.391383544,19212785.161523722 -28675013.458607815,18876148.032612264 -31280300.537569646,18316114.303434934 -33888874.375617415,17525808.043599047 -36475683.49956936,16500794.343414297 -39014505.8958453,15239299.190139076 -41478204.61621136,13742411.008206455 -43839012.141798034,12014260.129446693 -46068841.90237818,10062172.483838992 -48139624.90298547,7896793.873630384 -50023668.96073705,5532181.316056347 -51694037.6064924,2985858.114218455 -53124945.264386356,278829.54322925385 -54292164.893239036,-2564443.6797445514 -55173443.86356678,-5516116.637307122 -55748923.45874216,-8545078.272164382 -56001557.035261214,-11617117.93119825 -55917521.561575554,-14695141.566839583 -55486616.9840305,-17739438.230082322 -54702647.64844991,-20707996.906259153 -53563779.84299534,-23556873.121777948 -52072869.42793623,-26240604.092487626 -50237753.48636578,-28712670.49806431 -48071499.97165011,-30926002.258391537 -45592609.44691489,-32833524.96469659 -42825163.21285609,-34388742.8881762 -39798912.4055805,-35546353.76065931 -36549303.01814351,-36262889.80466806 -33117432.25911002,-36497378.79371763 -29549932.208994444,-36212018.25789498 -25898777.369899005,-35372855.32500839 -22221013.423001006,-33950464.11443151 -18578405.309473123,-31920612.08975492 -15037003.628463456,-29264906.33803821 -11666629.295146503,-25971410.388129074 -8540277.415560769,-22035221.918179896 -5733442.404664381,-17459001.54262628 -3323367.4902139734,-12253442.820353111 -1388222.8969300543,-6437673.696618792 -6218.18101689364,-39579.788657296354 745344.628579993,6903959.745261086 791069.2428070933,14346932.546374658 58505.67493423878,22234157.790820092 -1520776.982050881,30501362.75474857 -4010096.7783416114,39075377.75094623 -7466556.359051962,47874454.94444327 -11939944.80240385,56808715.38251569 -17471657.82959575,65780727.269972175 -24093651.080703482,74686217.09104873 -31827441.724787816,83414913.63397332 -40683174.094752505,91851523.32485063 -50658765.29297685,99876833.53743294 -61739146.78800796,107368938.73020336 -73895617.90257147,114204582.3895435 -87085326.76732194,120260605.84702188 -101250893.77339374,125415493.11127487 -116320191.79220374,129550998.93336393 -132206296.4376888,132553845.43323365 -148807618.42125323,134317470.77949187 -166008228.59289962,134743811.661779 -183678384.57588625,133745099.65179767 -201675265.99246284,131245650.04346868 -219843923.15349293,127183620.42255 -238018441.75718728,121512715.06922203 -256023323.62706432,114203810.37076998 -273675080.83538944,105246475.7418994 -290784037.7277697,94650364.14236738 -307156332.41275704,82446446.16880533 -322596106.23574156,68688061.90096621 -336907866.65085787,53451765.22084481 -349899005.77257943,36837936.21189393 -361382453.7673506,18971138.497326683 -371179443.17451227,200.00000045456397" stroke="white" stroke-width="1.5" /><circle cx="154.10328460079143" cy="219.83662056813236" fill="red" opacity="0.7" r="12.173560908995228" /></svg>