<?xml version="1.0" encoding="utf-8" ?>
<svg baseProfile="full" height="400" version="1.1" width="400" xmlns="http://www.w3.org/2000/svg" xmlns:ev="http://www.w3.org/2001/xml-events" xmlns:xlink="http://www.w3.org/1999/xlink"><defs /><rect fill="black" height="100%" width="100%" x="0" y="0" /><circle cx="200" cy="200" fill="yellow" r="20" stroke="orange" stroke-width="2" /><polyline fill="none" points="199.3731259480123,200.0 199.3963845816826,199.96831294790283 199.42503384906848,199.939466992067 199.45895726907816,199.91416180352516 199.49796095670388,199.89310482541725 199.5417707193582,199.87700315608856 199.5900299534573,199.86655489822303 199.6422984208731,199.86244004604586 199.69805197925805,199.86531099320675 199.75668333333215,199.87578275421288 199.81750386600774,199.89442300207034 199.87974659873407,199.92174203396166 199.94257031969553,199.9581827851783 200.00506490655323,200.00411101898558 200.06625785733894,200.0598058264672 200.12512202898762,200.12545057552546 200.1805845679301,200.20112445195485 200.23153700128833,200.28679473772075 200.27684644066377,200.38230997213213 200.31536783344694,200.4873941403805 200.34595717917833,200.60164203082 200.36748561095547,200.72451589730295 200.37885422441425,200.85534355578798 200.37900951963607,200.99331803525897 200.36695930468278,201.13749889170714 200.34178889357545,201.28681528053244 200.30267741666586,201.44007086724275 200.24891404774823,201.59595063882128 200.17991394018296,201.75302965867502 200.0952336540004,201.90978378678562 199.99458584767416,202.06460236369452 199.877853002233,202.2158028324457 199.7450999418475,202.3616472467787 199.59658491419333,202.50036058695048 199.4327689959438,202.63015077682348 199.25432359385582,202.7492302675843 199.06213582021752,202.85583902496458 198.85731153304178,202.9482687284654 198.6411758463888,203.02488796319759 198.41527093462625,203.0841681579251 198.18135097628584,203.12470999712747 197.94137410840847,203.14527001078855 197.69749129079992,203.14478702357994 197.45203201130954,203.12240812555498 197.2074867979142,203.07751380981009 196.96648654080667,203.0097419092071 196.7317786675712,202.91900995456936 196.5062002565455,202.80553557113353 196.29264821724152,202.669854528798 196.09404671179732,202.51283606516984 195.9133120373888,202.33569510884433 195.7533152358277,202.14000104398332 195.61684274265687,201.92768267627127 195.50655543334238,201.70102908484225 195.42494646803019,201.46268607485206 195.37429837814963,201.21564798101656 195.3566398772448,200.9632446135776 195.3737029141296,200.70912318464923 195.42688051812473,200.4572251045199 195.51718601307653,200.2117575939387 195.6452141984294,199.97716011932366 195.81110511119638,199.75806572272973 196.01451099165078,199.5592573867719 196.25456707739252,199.38561964588862 196.52986684462493,199.24208572866286 196.8384423015695,199.13358059061824 197.17774991658104,199.06496027214334 197.54466273241417,199.04094809106405 197.93546917803428,199.06606825292843 198.3458790402649,199.14457753328674 198.77103699941867,199.28039575409912 199.20554406599356,199.47703583981502 199.6434871797619,199.73753429655716 200.078477148502,200.06438300911643 200.50369501170485,200.45946329404367 200.91194681545315,200.92398318195205 201.2957266790651,201.4584189271982 201.6472879229012,202.06246175742987 201.95872191095916,202.73497087816915 202.222044142661,203.47393373783729 202.4292870068221,204.27643453570218 202.57259848854673,205.1386319185501 202.64434599818287,206.05574676098212 202.63722437204774,207.02206085879635 202.54436697903571,208.03092728477566 202.35945875713563,209.0747930613747 202.0768499010554,210.1452346954818 201.69166882834207,211.23300699701176 201.199932968366,212.32810546615642 200.59865584806516,213.41984238447776 199.88594889213647,214.4969365836858 199.06111631506738,215.5476166941225 198.12474145959544,216.5597374941099 197.0787629323147,217.52090879306022 195.92653890353688,218.41863608743375 194.6728979763122,219.24047203130772 193.32417508968516,219.97417756470406 191.88823100455136,220.60789134530157 190.37445402740988,221.1303059352584 188.79374275811756,221.53084900725005 187.15846880242668,221.7998676552386 185.48241856829338,221.92881372876 183.78071346604435,221.91042795751608 182.06970805551165,221.73892049866006 180.3668659268878,221.41014542522854 178.69061336466072,220.92176658347614 177.0601711235678,220.27341218210626 175.49536493971698,219.46681544009746 174.0164157061801,218.50593861436508 172.64371055746136,217.39707775599842 171.39755642796123,216.14894560614678 170.2979179722775,214.7727301413462 169.36414205603324,213.28212641439424 168.61467134077606,211.6933395116141 168.06674979103664,210.02505666090107 167.7361232213901,208.29838677725888 167.6367382717304,206.53676602306612 167.78044344529118,204.7658282880103 168.17669606154405,203.01323985690235 168.83227916035068,201.30849793030035 169.75103254011134,199.68269309033397 170.93360221678063,198.16823625906915 172.37721264838615,196.7985511753734 174.07546607726778,195.6077339141591 176.01817329619178,194.63018148420147 178.19122004177154,193.90019206203604 180.576473056723,193.4515399438559 183.1517296394544,193.31702881853698 185.89071421400666,193.52802747622113 188.7631251048041,194.1139925612558 191.7347342891468,195.10198344844713 194.76754242677987,196.51617476005296 197.81999093194955,198.377372440153 200.84723226169604,200.70253965538666 203.80145894823872,203.50433908902397 206.63229120757703,206.79069843158373 209.28722221618114,210.5644060386616 211.71211936910592,214.82274381858977 213.85177902314922,219.55716442281954 215.65053139577807,224.75301973489627 217.05289144327244,230.38934748470558 218.00425068945714,236.43872254922397 218.45160412979834,242.8671791361842 218.34430550541612,249.63420958073115 217.63484343914536,256.69284491631004 216.2796301630002,263.9898217099028 214.23979385540957,271.46583887981564 211.4819649597069,279.0559073443615 207.97904628491312,286.6897943862557 203.71095620806685,294.29256356604367 198.66533391615977,301.7852098856172 192.83819535660817,309.08538869850844 186.234528418982,316.10823559735 178.86881585748196,322.7672731922413 170.76547459246112,328.9753993397972 161.9592003080467,334.64595000570205 152.4952066982115,339.69382855924096 142.4293493105224,344.03669192327925 131.82812469867454,347.59618265521124 120.76853652335791,350.2991947321089 109.33782133561459,352.0791595759167 97.63302803513575,352.8773377018025 85.76044641322764,352.644100324699 73.83488175945982,351.3401843357145 61.978774222960226,348.937903281266 50.32116346218706,345.4222963629069 38.99650107663936,340.7921970434784 28.143315373797577,335.0612026130219 17.902735165710965,328.25852605217403 8.41688149085951,320.42971174616105 -0.1728616051291283,311.6371970618882 -7.727683847025503,301.9607025145476 -14.113277449483519,291.497434226849 -19.201839973429117,280.36208362885134 -22.874131400539824,268.6866108619166 -25.02156349947873,256.6198001357874 -25.548297688386697,244.3265773390969 -24.37332589983552,231.98708251301616 -21.432507459589687,219.79549235380568 -16.680533731344212,207.9585906974703 -10.092791287529138,196.69408793937285 -1.6670936715584332,186.22869353039377 8.57474855190921,176.7959490420734 20.58554977861641,168.63383277528726 34.291593338524024,161.98215046586517 49.59172666556472,157.07973027813324 66.35673569658366,154.16144393231127 84.42902493500213,153.45507943973922 103.62262758110742,155.1780944740939 123.72356765741324,159.53428283793951 144.4905931455528,166.71038974120302 165.6562958075467,176.87271463931967 186.92862960165354,190.16374313099126 207.99283544018795,206.69885183583912 228.51377549858375,226.5631322083658 248.13867540295334,249.80838084551084 266.5002674351313,276.45030496163304 283.22032244372247,306.46599229064435 297.913552487243,339.79169468743635 310.1918604172988,376.320974101115 319.668906697821,415.9032583473661 325.9649578179593,458.3428521887663 328.71197476339694,503.3984466188144 327.5588942399662,550.7831659238502 322.1770497744732,600.1651880607992 312.265674533369,651.1689691400369 297.5574227851501,703.3770973531618 277.82384247301377,756.3327955557902 252.8807274463084,809.5430849364384 222.59327460769973,862.4826148149475 186.8809686506229,914.5981556688945 145.72211526813084,965.3137440455395 99.1579427848204,1014.0364591518379 47.296192167560235,1060.1628017078522 -9.685883629293755,1103.0856361911037 -71.53918797833461,1142.2016479918775 -137.94119040220454,1176.9192573518394 -208.49514747989718,1206.6669223876702 -282.73019898479214,1230.901754132271 -360.10239681553276,1249.118357488242 -439.9967165363463,1260.8578034165675 -521.7300924606147,1265.7166297155754 -604.5555072247008,1263.3557605208523 -687.6671557585056,1253.5092283155066 -770.2066915318038,1235.9925769201566 -851.2705500245709,1210.710819767723 -929.918330635621,1177.665824888812 -1005.1822038240543,1136.9629965611152 -1076.0772953057244,1088.8171236232681 -1141.6129837512412,1033.5572661213228 -1200.8050328176234,971.6305553320926 -1252.6884626703252,903.6047873646007 -1296.331050607405,830.1696975338597 -1330.8473351848945,752.13681156617 -1355.4129835735803,670.4377804471404 -1369.2793679713845,586.1211183554155 -1371.78818397637,500.3472776053282 -1362.3859321198654,414.38201079408395 -1340.638073494396,329.5879883312597 -1306.2426618110278,247.41465911115546 -1259.043247503929,169.38636313540397 -1199.0408448762996,97.0887272407016 -1126.4047509486877,32.15339854329284 -1041.48200481093,-23.75880543918049 -944.8052790561667,-68.9762260300783 -837.0990004317543,-101.83604266283936 -719.2835052945313,-120.7051473687805 -592.477046895501,-124.00203442481222 -457.99548599926004,-110.21950039974485 -317.3495138901611,-77.94792602772623 -172.23927741723674,-25.89888877553355 -24.546299331645628,47.071165978783256 123.67738631880061,141.93748620644965 270.22293468835363,259.48411459640107 412.741245595054,400.28185160457133 548.762358761568,564.6674125925632 675.7176372919137,752.7241188908214 790.9646496870624,964.2644663183722 891.8146211085763,1198.814914362693 975.5622839616806,1455.6032346038182 1039.5179166231521,1733.5487478265657 1081.0413177573546,2031.2557654145617 1097.5774226514827,2347.0105319165705 1086.693227893485,2678.7819420271367 1046.1156520727234,3024.2262765925652 973.7699235829833,3380.6961686626814 867.818052642223,3745.2539721437106 726.6969139121859,4114.689662420824 549.1554392029399,4485.543350630986 334.2903972735347,4854.132441369484 81.58022026639463,5216.583407870868 -209.08367560803293,5568.868099553105 -537.3686333683786,5906.844434759372 -902.4761200695852,6226.3012671534725 -1303.1212629629517,6523.00714816746 -1737.5170918118347,6792.7626408726 -2203.3639994662913,7031.455773416443 -2697.844902210851,7235.120153563509 -3217.6265427713515,7399.995200762384 -3758.8673321441393,7522.587889451948 -4317.232071630463,7599.735337951246 -4887.913833764016,7628.667522215984 -5465.663210459945,7607.069343963022 -6044.825059050708,7533.141239134327 -6619.382792385283,7405.657476354985 -7183.010168447952,7224.021266871303 -7729.130438711088,6988.315788329378 -8250.982613501823,6699.350215517009 -8741.694497976327,6358.699852619459 -9194.362044908108,5968.739474327402 -9602.134461564005,5532.6690078880965 -9958.304398715205,5054.53072539873 -10256.402441648785,4539.217165677703 -10490.295017325645,3992.4690681513725 -10654.2847300512,3420.8626774500517 -10743.21204171756,2831.7858667510973 -10752.557123404777,2233.4026301037093 -10678.54062447453,1634.6056086085641 -10518.222034834247,1044.9564418136044 -10269.594257353054,474.61387324499145 -9931.672961989028,-65.75031335041047 -9504.579262496018,-565.0472938782727 -8989.614241986334,-1011.8787425256533 -8389.323856390383,-1394.6553415433818 -7707.5527661077185,-1701.7255199931442 -6949.485686856401,-1921.5135022213713 -6121.674911697904,-2042.6655693474445 -5232.052738041838,-2054.203261333248 -4289.927636494547,-1945.6820755377612 -3305.9631228533385,-1707.354052461692 -2292.1384402413537,-1330.3324831409138 -1261.6903249439479,-806.7568278970951 -229.03531626762827,-129.95580546969836 790.3277232713978,705.3935024964918 1779.9349871856596,1703.112781517264 2722.494873135404,2865.37817204971 3600.0445146046486,4192.586887410709 4394.125043760301,5683.237157307541 5085.974656296,7333.823887254091 5656.738265253337,9138.752388865272 6087.692243082555,11090.272469086738 6360.48246286876,13178.435066538239 6457.373564254863,15391.073489364227 6361.507090886436,17713.81114068837 6057.165878100614,20130.097414740743 5530.041816127028,22621.27320916797 4767.503879397972,25166.6672275916 3758.8631008534157,27743.723942253066 2495.6309855469244,30328.16375116618 971.767704523687,32894.175499674835 -816.0837081488792,35414.64114526726 -2868.381011332656,37861.39193001729 -5182.48815823195,40205.4949907042 -7752.506326101667,42417.56888655805 -10569.13439850255,44468.12606326022 -13619.56261427447,46327.93980425716 -16887.402933749563,47968.43275204099 -20352.6594539525,49362.08361856811 -23991.74192966649,50482.848251532494 -27777.5251259449,51306.59078814967 -31679.45634025905,51811.520217012585 -35663.71299005695,51978.627288176715 -39693.41166588685,51792.11636870909 -43728.8695040098,51239.826542261704 -47727.918138997644,50313.63600349214 -51646.2698604101,49009.84360784757 -55437.93492329843,47329.52131055691 -59055.68825584919,45278.83117148926 -62451.58307559772,42869.30062019652 -65577.50817570357,40118.04977275365 -68385.78488291308,37047.96477307028 -70829.79892783074,33687.811399531456 -72864.66171535973,30072.28353562547 -74447.89474858159,26241.981552190762 -75540.13025328002,22243.31618958349 -76105.82038345844,18128.334159843453 -76113.94677149452,13954.462410060863 -75538.7216310282,9784.168795649608 -74360.27113732616,5684.537801824638 -72565.29140952474,1726.7609177238119 -70147.66711238885,-2014.4576966027403 -67109.04249211286,-5461.578512902942 -63459.33457069416,-8534.984020600763 -59217.17825523433,-11153.812119138654 -54410.29327993374,-13236.860220894383 -49075.76319620039,-14703.553533801743 -43260.21706562981,-15474.969756335662 -37019.90509565033,-15474.911194848033 -30420.660190840532,-14631.014120492324 -23537.73827512693,-12875.884036996224 -16455.53127025985,-10148.244448721081 -9267.147791237086,-6394.085718536115 -2073.8579348009953,-1567.7997049618175 5015.600014202272,4366.714914317003 11885.851561044848,11434.992372488126 18415.855580739353,19651.000831689053 24480.008630813158,29016.221249376176 29949.379260021287,39518.820794831656 34693.06564055146,51132.937460983776 38579.66786940931,63818.09224920702 41478.86427771247,77518.74481564917 43263.07907783199,92164.00774808814 43809.226692601806,107667.5336859612 43000.51617438258,123927.58829898557 40728.29726202733,140827.32070051497 36893.92786901494,158235.24119212668 31410.64117506012,176005.9143207206 24205.389035490894,193980.87308666456 15220.637156667519,211989.7577826705 4416.086440304769,229851.68038301705 -8229.705897471813,247376.81265979083 -22717.832348600496,264368.1932988941 -39027.69541560746,280623.74624902406 -57115.84923226756,295938.4993903554 -76915.04909700571,310106.9893882708 -98333.53470965651,322925.8353362497 -121254.57172356278,334196.4605288066 -145536.27466127824,343727.93848066445 -171011.7322870172,351339.9361648642 -197489.4541805624,356865.7244247509 -224754.1545184756,360155.2226687335 -252567.8859471033,361078.042329332 -280671.53294120333,359526.49120654305 -308786.67020076676,355418.4987672532 -336617.78747106204,348700.42078373814 -363854.8777071127,339349.68041025684 -390176.3807793077,327377.2019605357 -415252.4699731787,312829.5933008894 -438748.6634201234,295791.0329508713 -460329.7373592796,276384.8187186734 -479663.9128309076,254774.5360202658 -496427.28210015973,231164.80596225022 -510308.43587290996,205801.57582545374 -521013.247261851,178971.91777950275 -528269.7635637206,151003.3054908646 -531833.1522920819,122262.34275327454 -531490.6436508262,93152.92335700394 -527066.4078083048,64113.80710033872 -518426.3020174765,35615.60310237571 -505482.41989911476,8157.158361059642 -488197.37313609064,-17738.64323469325 -466588.2344870021,-41529.65854311117 -440730.0704824746,-62659.8185208921 -410758.9924772565,-80564.98803111089 -376874.6559492426,-94679.31433809426 -339342.1401084534,-104442.01790623253 -298493.1430415947,-109304.57050626198 -254726.43179817827,-108738.19712624881 -208507.49203851674,-102241.62989834043 -160367.3281163912,-89349.03430411399 -110900.37175196504,-69638.02043258885 -60761.465741496046,-42737.64515957778 -10661.89841443875,-8336.30492002927 38635.52526477177,33810.58661913439 86322.37900835754,83873.24608691757 131551.46816584913,141940.60657264362 173444.61906388312,208013.958009463 211101.37037668395,282001.2582125707 243608.51865137348,363712.2304695458 270050.4562742545,452854.36156441184 289520.22616695944,549029.9105496748 301131.20350833115,651734.0334022506 304029.30096340773,760354.1218662988 297405.58044877124,874170.4462727726 280509.14156540803,992358.1819254016 252660.14468361714,1113990.8867696316 213262.8154708853,1238045.4845505345 161818.2676160788,1363408.7925762767 97936.97182404464,1488885.6166173024 21350.69203274294,1613208.4174940647 -68076.29556676478,1735048.5346685569 -170336.88856476205,1853028.931811714 -285271.9386101468,1965738.408049222 -412562.314185818,2071747.1965949507 -551722.4308004274,2169623.8499891665 -702095.4276536086,2257953.2884141873 -862850.1613514032,2335355.8648296706 -1032980.1760781235,2400507.278236602 -1211304.7957296758,2452159.144542395 -1396472.4668712644,2489160.013570992 -1586966.462022968,2510476.6010627826 -1781113.0307586833,2515214.986366595 -1977092.0615232417,2502641.510270212 -2172950.290063487,2472203.0933755576 -2366617.06110477,2423546.6839224617 -2555922.6185979545,2356537.5353142596 -2738618.866766421,2271276.0080981185 -2912402.5095892274,2168112.5890817726 -3074940.440595903,2047660.8218823662 -3223897.2182871257,1910807.8487289029 -3356964.425534512,1758722.2729703856 -3471891.6743853795,1592859.0656326213 -3566518.9812664306,1414961.2576303075 -3638810.202129596,1227058.1819428531 -3686887.1831212244,1031460.057217581 -3709064.250404456,830748.73583291 -3703882.6333557134,627764.475339506 -3670144.389026546,425588.63224233827 -3606945.3730451073,227522.2210708635 -3513706.7835517414,37060.32932601652 -3390204.7908291523,-142137.57015805383 -3236597.756483487,-306281.31405306055 -3053450.5428121323,-451487.59892522387 -2841755.4157703496,-573821.1773725147 -2602949.0540898805,-669339.4306742068 -2338925.192920719,-734139.988648855 -2052042.4531125377,-764411.0074217692 -1745126.93710618,-756483.6566317505 -1421469.2094728218,-706886.3100506084 -1084815.324440692,-612399.8784718298 -739351.6142202859,-470113.67189579026 -389683.01041872037,-277481.13036309445 -40804.736063892844,-32374.720136088665 301932.7226196035,266860.74483148934 632865.377991328,621357.126213569 946064.1667310763,1031675.121944942 1235389.8823303117,1497760.370788148 1494554.3656282648,2018904.3124585696 1717187.6101350142,2593710.610176965 1896910.3422735569,3220067.9274087595 2027411.5390627158,3895129.8245791704 2102530.248300352,4615302.50431856 2116340.98021379,5376241.08500303 2063241.8461085334,6172855.021841064 1938044.5301082877,6999323.222490813 1736065.0960186329,7849119.320281668 1453214.5540693272,8715047.472824153 1086088.043212263,9589288.9475475 632051.4251815408,10463459.639091859 89324.03804241649,11328678.537258975 -542943.6791939031,12175647.029316492 -1264599.0018568204,12994738.777956866 -2074423.4935187756,13776099.767391881 -2970078.6490907217,14509757.95635063 -3948061.8927035555,15185741.819723902 -5003674.173319688,15794206.901994765 -6131000.340052946,16325569.347278882 -7322903.399424348,16770645.214762177 -8571033.657978756,17120794.236655068 -9865853.635787312,17368066.530667704 -11196679.49955007,17505350.64268927 -12551739.608728155,17526521.170114007 -13918250.595068505,17426584.104394358 -15282511.206002044,17201817.935211126 -16630013.936929014,16849908.48036957 -17945574.257870972,16370075.347341016 -19213477.00815211,15763187.896336129 -20417639.290738482,15031868.562850934 -21541788.94793405,14180581.411537454 -22569657.44489419,13215703.834566941 -23485185.729684148,12145579.3777063 -24272741.381425604,10980549.777164597 -24917345.10467093,9732964.420640714 -25404904.3819352,8417165.607341934 -25722451.860834293,7049448.174107635 -25858385.831182934,5647992.277853298 -25802709.94440558,4232768.377626015 -25547269.146447532,2825413.7414960843 -25085978.639755275,1449080.1127248332 -24415042.563479178,128252.50412847448 -23533158.987355236,-1111460.5531691648 -22441707.75711417,-2243564.603251594 -21144917.710872144,-3240943.6041823435 -19650009.809637044,-4076149.5086335805 -17967312.79333726,-4721715.168054486 -16110348.088791043,-5150488.22321798 -14095880.859472664,-5335983.226153899 -11943934.300018037,-5252748.826928066 -9677764.541814648,-4876746.45899933 -7323793.8498346815,-4185736.5747451205 -4911500.15456873,-3159668.1241218313 -2473261.375314253,-1781066.6403553633 -44153.450307993226,-35416.00311371691 2338298.5073257405,2088471.3021689933 4634415.964391643,4598100.81434318 6802709.088415466,7496965.1523797605 8800264.076081974,10784241.1255265 10583173.890759107,14454520.554603465 12107009.94980511,18497580.421072427 13327331.627942896,22898197.84777597 14200229.76238169,27636015.226495754 14682899.666617561,32685460.539977368 14734238.4915239,38015727.57787066 14315461.123459665,43590820.316063255 13390728.189052908,49369665.217016056 11927779.154700581,55306294.61582071 9898562.975478236,61350103.68475245 7279858.272935823,67446182.72113286 4053874.613979671,73535725.6835805 208826.13331846774,79556515.01558873 -4260531.500920134,85443481.84941705 -9352409.925977997,91129339.68526337 -15057551.918489728,96545288.59955429 -21358859.346398547,101621785.96197797 -28231094.17520629,106289378.54477137 -35640661.15516416,110479589.80191311 -43545480.37809888,114125854.9933677 -51894957.323500834,117164495.7443317 -60630057.3115209,119535724.5761909 -69683490.4454976,121184668.93986654 -78980012.16002905,122062403.339079 -88436843.3956248,122126977.26672935 -97964213.20266394,121344425.90815172 -107466025.2426146,119689749.90630195 -116840648.21207291,117147849.95168748 -125981828.67587003,113714401.5690605 -134779723.17194808,109396655.23794891 -143122044.75745705,104214146.91833392 -150895317.41900936,98199304.1683776 -157986229.98835102,91397933.34872046 -164283079.40773526,83869573.91659513 -169677291.39830914,75687706.52994193 -174065004.82255048,66939802.61191185 -177348704.3220403,57727204.172300294 -179438884.1794693,48164824.04480208 -180255724.8241625,38380658.275009364 -179730761.99956045,28515104.178534973 -177808527.3650133,18720079.573268343 -174448138.23882523,9157940.863290409 -169624813.33005688,200.00000020773072" stroke="white" stroke-width="1.5" /><circle cx="249.92582360940372" cy="197.27747600144508" fill="red" opacity="0.7" r="5.0" /></svg>