<?xml version="1.0" encoding="utf-8" ?>
<svg baseProfile="full" height="400" version="1.1" width="400" xmlns="http://www.w3.org/2000/svg" xmlns:ev="http://www.w3.org/2001/xml-events" xmlns:xlink="http://www.w3.org/1999/xlink"><defs /><rect fill="black" height="100%" width="100%" x="0" y="0" /><circle cx="200" cy="200" fill="yellow" r="10.000270183347503" stroke="orange" stroke-width="2" /><polyline fill="none" points="199.7627990686379,200.0 199.69758295496823,199.9841244866016 199.63037003228283,199.9610849895566 199.56181688482292,199.93048081753463 199.49263923516773,199.89197171363983 199.4236069515055,199.84528591076062 199.35553804528342,199.79022786697763 199.2892916662335,199.72668556312675 199.22576011471074,199.65463724215482 199.1658599048392,199.57415746878152 199.1105219260109,199.48542238829003 199.06068076468136,199.3887140651085 199.01726326299942,199.28442378528905 198.9811764054259,199.17305421210992 198.95329463896013,199.05522029086438 198.93444674670957,198.93164880748915 198.92540240811292,198.80317651603568 198.9268585919503,198.67074676208816 198.9394259401401,198.53540454304934 198.9636153110156,198.39828996169317 198.99982466008672,198.26063004643905 199.04832644401324,198.12372893033145 199.10925573944272,197.9889564005765 199.18259927230721,197.85773485153967 199.26818555494313,197.73152469615923 199.3656763278322,197.611808313576 199.47455949970998,197.50007263418513 199.5941437741203,197.39779048703008 199.72355514210784,197.30640085820838 199.86173540955727,197.22728823244543 200.00744291365766,197.16176121291412 200.1592555660806,197.11103063640417 200.3155763407258,197.07618742174725 200.47464130136717,197.05818040863713 200.63453023931478,197.05779446130833 200.79317996343133,197.07562912660373 200.9484002546766,197.1120781484372 201.09789246501623,197.1673101502096 201.23927070627923,197.2412508030528 201.37008553868017,197.3335668005594 201.48785003157215,197.44365195963692 201.59006803094596,197.57061576205987 201.67426442964958,197.71327464197404 201.73801719771612,197.87014631086777 201.77899089203854,198.039447393235 201.79497132741452,198.2190946232422 201.783901055235,198.40670982514885 201.74391526234436,198.59962886804948 201.67337767141623,198.7949147487979 201.57091599612227,198.9893749158929 201.43545647998445,199.17958290186746 201.2662570276396,199.3619042826156 201.06293842184536,199.53252692946353 200.82551310942847,199.68749546406423 200.55441103499837,199.82274976785084 200.2505020030612,199.93416733737786 199.91511405756427,200.0176092150206 199.55004738321387,200.06896916186622 199.15758325541358,200.08422567694097 198.7404875955687,200.05949640495373 198.302008725916,199.99109441431642 197.845868963006,199.875585769179 197.37624974143537,199.7098477644788 196.89777001924563,199.4911271424442 196.41545778332335,199.21709756352678 195.93471454679644,198.8859155652666 195.46127281035808,198.4962742100171 195.00114654508883,198.04745359763245 194.56057484500556,197.539367402986 194.145958992452,196.97260459131166 193.7637932776618,196.34846546756296 193.42059001437184,195.6689912298914 193.1227992951487,194.93698622251276 192.87672413192732,194.1560321200855 192.68843172788968,193.33049332460405 192.56366172489442,192.46551291690236 192.50773236482007,191.56699857823025 192.5254455919669,190.64159798291567 192.62099220561282,189.69666326061082 192.79785824545982,188.74020423562712 193.05873385656622,187.78083027080777 193.40542593298773,186.82768067350662 193.83877587933816,185.89034376060405 194.3585838554877,184.97876482697524 194.96354088037907,184.10314341614745 195.65117016530866,183.27382045157412 196.41777902395933,182.50115595039293 197.2584226651062,181.7953982069336 198.16688111353412,181.16654549868005 199.13565042478214,180.62420153080785 200.1559492595533,180.1774259946491 201.2177417639078,179.83458176821745 202.30977756184853,179.60318043092587 203.4196495080187,179.48972789746767 204.5338696706431,179.49957209510703 205.63796381951113,179.6367547119487 206.71658448196487,179.90386912877028 207.75364240304881,180.30192671142308 208.7324560060167,180.83023368245722 209.63591819838177,181.48628080746073 210.4466796090204,182.26564812174738 211.14734707614554,183.16192688482158 211.72069593715997,184.16666088206384 212.1498944026127,185.2693090941722 212.41873803106114,186.4572316242178 212.5118920631173,187.71570060922966 212.4151391249984,189.0279376478752 212.11562957831427,190.37517904831407 211.60213157746225,191.73676994134445 210.86527770277516,193.0902880146543 209.89780487035875,194.41169730589263 208.69478408218689,195.6755321474254 207.253836476204,196.8551109865275 205.57533206945146,197.9227794143578 203.66256756090326,198.85018132879793 201.5219195777982,199.60855673398726 199.16296981248988,200.16906424747717 196.5985986085015,200.50312594907865 193.84504371642763,200.5827917687937 190.92192115392012,200.38112018014766 187.85220537003593,199.87257154551133 184.66216623290532,199.03341005760237 181.38126073057398,197.8421098424504 178.04197769684998,196.27976043998638 174.67963434522952,194.33046656541035 171.33212391191512,191.98173678391905 168.03961427026363,189.22485550943784 164.84419797962718,186.05523257072412 161.789494866646,182.47272448132867 158.92020890101523,178.48192150879444 156.28164181426226,174.09239466805292 153.9191666120998,169.31889686861558 151.8776648407691,164.181512628573 150.2009321771551,158.70575103360463 148.93105761247466,152.92257696834145 148.10778218068987,146.86837608179638 147.76784383573465,140.58484946848003 147.94431569615827,134.11883465151763 148.66594544165272,127.52205014173424 149.95650415284814,120.85076161427274 151.83415332347886,114.16536858766494 154.31083913245794,107.52991140397052 157.39172333278663,101.01149928597047 161.07466028524618,94.67966128056356 165.34972972875866,88.60562297734161 170.19883482819642,82.86151300751455 175.59537486719358,77.5195044694502 181.50400165214023,72.6508975805833 187.8804682591978,68.32515100778343 194.67157818534727,64.60887046506821 201.81524225513795,61.564764273597916 209.24064978648886,59.25057663838666 216.86855953285354,57.71801039280933 224.61171479832876,57.01165187915933 232.37538587179978,57.16791145449508 240.05804155282726,58.21399381913554 247.55215005454497,60.16691294407104 254.7451079782317,63.03256680737084 261.5202943733066,66.80488742329803 267.75824514014886,71.46508174713307 273.33794121815083,76.98097895075584 278.1382021464343,83.30649927740114 282.03917471008333,90.38125918892365 284.9239045125934,98.13032680759859 286.6799764689428,106.46414072130764 287.20120841797115,115.27860406265087 286.3893803333246,124.45536438842785 284.1559799955879,133.862288278145 280.42394450138437,143.3541377437149 275.1293756553548,152.77345350544678 268.22320614510096,161.95164795296455 259.6727924639662,170.7103081883329 249.46340984766698,178.86270696014932 237.5996240528205,186.21551656266936 224.1065146512351,192.57071791741163 209.03072466438653,197.72769410350276 192.4413118363206,201.4854945876486 174.43037765605675,203.64525335826906 155.11345140502124,204.012741126832 134.62960803014977,202.40102876092362 113.14130053430462,198.63323619828037 90.8338898334505,192.54533830072066 67.91485765118492,183.98899648472965 44.612690997398346,172.83438255525297 21.175430095819877,158.97295901521682 -2.1311247334058123,142.32017826937016 -25.025547788793943,122.81806163039583 -47.21326064095081,100.43761790964597 -68.38933461651982,75.18106067411009 -88.24161035919025,47.08378301249371 -106.45411691624867,16.216048910484915 -122.71076789810513,-17.315638881602297 -136.69930730822574,-53.36753327103139 -148.11547270035965,-91.75803641066443 -156.6673384508196,-132.26752683613 -162.07979720133943,-174.6386514482948 -164.09913300065784,-218.5771099540164 -162.49763542052546,-263.7529551048947 -157.07820001564068,-309.8024272240486 -147.67885700884023,-356.33033610654184 -134.17716708411672,-402.9129974500447 -116.49442073079325,-449.10172455729673 -94.59957577026483,-494.42686919817345 -68.51286657667924,-538.4023982825086 -38.30901813504428,-580.5309854397783 -4.11999851950921,-620.3095888008041 33.862755330524436,-657.2354783105499 75.38670146693329,-690.8126678577835 120.13720623095548,-720.5586994818144 167.73726272702552,-746.0117190096817 217.74796516553693,-766.7377747954439 269.66978375838744,-782.3382638872126 322.9446778834319,-792.4574430511229 376.95907733032266,-796.7899157505565 431.0477526362997,-795.088000530178 484.4985858655047,-787.168881403684 536.5582427425259,-772.9214369055012 586.4387358970903,-752.3126415499214 633.3248572035236,-725.3934316512517 676.3824449104891,-692.3039268930787 714.7674385721672,-653.277899782832 747.635661842623,-608.6463872681428 774.153260124,-558.8403423906595 793.5077070207997,-504.3922289639105 804.9192807112981,-445.9364689222431 807.6528988760226,-384.20866021868835 801.0301889021002,-320.04349295360123 784.4416588963668,-254.37130277658304 757.3588247777404,-188.21321348430558 719.3461395700529,-122.67483507817951 670.0725631687005,-58.93849926756286 609.3226044928301,1.7459685965292522 537.0066632380972,58.07192402146623 453.1704955831934,108.68798801740188 358.0036273348219,152.21148561122678 251.84653926497583,187.24316133096866 135.19645292855313,212.38307371215765 8.711551156289687,226.24754963657065 -126.78652421685149,227.48705813233317 -270.31204394375953,214.80484241008824 -420.71656539775574,186.97612866415395 -576.6924261737431,142.86771082289982 -736.7784558662563,81.45769228996394 -899.3679836457809,1.8551490835957054 -1062.7191958967387,-96.68053603671086 -1224.9678725831504,-214.7209315630675 -1384.142503339739,-352.6506807319979 -1538.181754752599,-510.6507714591188 -1684.9542291369644,-688.6832382310794 -1822.2804226190694,-886.47758279866 -1947.9567567988584,-1103.5191983646719 -2059.7815240583705,-1339.0400761248745 -2155.582552067539,-1592.0120633258518 -2233.2463586330114,-1861.1429283118027 -2290.7485341730085,-2144.875470246564 -2326.1850562385835,-2441.38988926358 -2337.804209115448,-2748.6096067109124 -2324.038752120119,-3064.210694967064 -2283.537953246748,-3385.635042106654 -2215.1990808273517,-3710.107338650347 -2118.1979253352793,-4034.6559319565786 -1992.0179068764228,-4356.137548778313 -1836.4773117461175,-4671.265838452109 -1651.7541941290392,-4976.6436385047755 -1438.4084770012491,-5268.798811608822 -1197.400789936856,-5544.223448304769 -930.1075911608921,-5799.4161743024415 -638.3321371055335,-6030.9272450936605 -324.3108851424107,-6235.406054721389 9.2850557651129,-6409.650630562894 359.353775934424,-6550.6586326418 722.3720242482759,-6655.679325060016 1094.4105335132099,-6722.265939430065 1471.1554138250376,-6748.327806500987 1847.935753901389,-6732.181593319687 2219.7575024758744,-6672.600950060821 2581.3436285402436,-6568.863843883951 2927.180481018114,-6420.796837600923 3251.570186,-6228.815559283744 3548.688833707611,-5993.960605891182 3812.6501187180993,-5717.928130153189 4037.5740065907567,-5403.094375867386 4217.659908906788,-5052.533452887126 4347.263757940319,-4670.027679773377 4420.978282878673,-4260.0698695956635 4433.715702913032,-3827.856992834069 4380.791969884471,-3379.2747207600237 4258.011615789128,-2920.872432930122 4061.752189634326,-2459.8283632410416 3789.0472052152368,-2003.9046599413973 3437.666467660831,-1561.3922455026816 3006.1926033630475,-1141.0454815801284 2494.092586393722,-752.0067715530605 1901.7830359083162,-403.72136727070335 1230.688054428278,-105.84278643536089 483.2883872808293,131.87060882872362 -336.8392902693438,299.66717474990423 -1224.9941088015607,387.9208444670976 -2175.3348539943336,387.2562893196239 -3180.876942282722,288.67924479813325 -4233.503440413738,83.71072250847989 -5323.990933159985,-235.47630458893326 -6442.0509126239995,-675.9192819003761 -7576.3872146030135,-1243.7291708881573 -8714.769863071837,-1943.9560196339203 -9844.125503928488,-2780.458848076901 -10950.644414931068,-3755.7817595346346 -12019.903871694807,-4871.038240818541 -13037.007431428812,-6125.805642950576 -13986.739468744521,-7518.03184139197 -14853.734063574035,-9043.95605720088 -15622.657102449355,-10698.045777224539 -16278.400213779289,-12472.951641113747 -16806.284918192534,-14359.48206468897 -17192.27513954406,-16346.599242340595 -17423.19599400865,-18421.438015371987 -17486.956557139853,-20569.34890849528 -17372.774105273365,-22773.96642342777 -17071.39714167024,-25017.303437448456 -16575.324352817563,-27279.87228699819 -15879.016499790536,-29540.83282348714 -14979.098136915512,-31778.16741236722 -13874.545968426948,-33968.882509617164 -12566.860606481408,-36089.236094872605 -11060.218483657012,-38114.989870719444 -9361.600702540922,-40021.68475676611 -7480.895676483741,-41784.93781901127 -5430.97253099983,-43380.75838406846 -3227.722396125024,-44785.88069867446 -890.0649273497318,-45978.110112559916 1560.0823529418187,-46936.67939240219 4097.87400028852,-47642.611421628026 6695.647638294595,-48079.08421084828 9323.077360291043,-48231.79384231796 11947.370472535558,-48089.310704705815 14533.508032000536,-47643.424147231526 17044.52911725043,-46889.47050039562 19441.858222660027,-45826.63927938164 21685.674588838458,-44458.252310782074 23735.321680833666,-42792.01050826363 25549.754406373704,-40840.203072366094 27088.021035554677,-38619.87400754152 28309.776148086694,-36152.94103889754 29175.82030206017,-33466.262274331944 29648.66149727332,-30591.646296516417 29693.09290494535,-27565.801784350675 29276.78076292208,-24430.223255009452 28370.855800300626,-21231.01008455111 26950.501066927878,-18018.616605239604 24995.528610665402,-14847.531788196868 22490.937077790455,-11775.88779662387 19427.44201834783,-8864.997532374724 15801.970467280678,-6178.822190797694 11618.111251910914,-3783.3707780322343 6886.512454381408,-1746.0345228431172 1625.2175408704165,-134.8601220036719 -4140.068136256762,982.2332163738184 -10375.788446631195,1538.2869348308318 -17040.432753021043,1468.1794702651405 -24084.52434458849,709.5377474153421 -31450.707353831094,-796.3251857469043 -39073.93767716435,-3103.456317866619 -46881.782495136984,-6260.303434364626 -54794.831945250924,-10308.76207462742 -62727.225343289305,-15283.240983384203 -70587.29308468965,-21209.758947821534 -78278.31399437883,-28105.086385842125 -85699.3864419633,-35975.94539022781 -92746.41001136598,-44818.28212508564 -99313.17292382605,-54616.625502563555 -105292.53877624053,-65343.545928312684 -110577.72449034144,-76959.2275838166 -115063.65969093882,-89411.16720438124 -118648.41606356113,-102634.01160696818 -121234.69360465175,-116549.54531783471 -122731.34909347621,-131066.83854400707 -123054.95060732216,-146082.56442520782 -122131.340494297,-161481.49299675014 -119897.18793527965,-177137.16759453045 -116301.5110926714,-192912.76754880504 -111307.14788256012,-208662.15895497744 -104892.15364234081,-224231.13309105413 -97051.1034203466,-239458.82968972798 -87796.27630914206,-254179.3397879124 -77158.69919968522,-268223.48029068473 -65189.027567593905,-281420.72972540394 -51958.241430998416,-293601.3119533391 -37558.135455040734,-304598.4118809643 -22101.583331200854,-314250.5045039628 -5722.5580372076565,-322403.77595872106 11424.10861133028,-328914.61268512264 29163.241573754018,-333652.13235863665 47300.12536244781,-336500.7279678542 65621.6032178664,-337362.59433508903 83897.4788427019,-336160.2045419354 101882.22350568062,-332838.70216788264 119316.98771429766,-327368.1740163787 135931.91281269354,-319745.7671259574 151448.73381814058,-309997.61337900825 165583.66060413892,-298180.5249596978 178050.52021135206,-284383.42430465965 188564.13866525397,-268728.4730608267 196843.93625108455,-251371.86593536675 202617.7057958996,-232504.25720958025 205625.53919073983,-212350.79010294224 205623.8632125404,-191170.7021204189 202389.5417368871,-169256.4829949469 195723.99773222153,-146932.56583968495 185457.3050575244,-124553.53663678076 171452.1971130568,-102501.85218885321 153607.9368809111,-81185.06211665423 131863.990900928,-61032.53636419289 106203.44831771927,-42491.70592605216 76656.12536256154,-26023.831088062252 43301.29555209869,-12099.318311730545 6269.986541376019,-1192.613927401362 -34253.213997049446,6223.290043398559 -78028.89884902639,9682.695420502438 -124762.18038426437,8733.333087968711 -174102.6766819952,2942.737232969094 -225645.1881980609,-8095.204847934898 -278931.10284144664,-24753.59726265757 -333450.56080406765,-47365.85024602258 -388645.40313654393,-76219.04643810293 -443912.9199208358,-111547.44487852792 -498610.40500632254,-153526.21294020995 -552060.5147099252,-202265.47963926994 -603557.4177065947,-257804.80602430008 -652373.7126397442,-320108.1695758646 -697768.078860088,-389059.55965158844 -738993.6142656504,-464459.2799165015 -775306.802586903,-546021.0513361914 -805977.0407705408,-633370.0056259268 -830296.6455047466,-726041.6539997708 -847591.2465476788,-823481.9096211286 -857230.4635263972,-925048.2343070799 -858638.7524279847,-1030011.970786554 -851306.2982751548,-1137561.9111781516 -834799.8216340874,-1246809.1403769662 -808773.158811804,-1356793.1797800676 -772977.4690317416,-1466489.442316546 -727270.9166928236,-1574817.9941794781 -671627.6731764254,-1680653.6021034082 -606146.0807159124,-1782837.0276320414 -531055.8207224094,-1880187.5117367173 -446723.9307920077,-1971516.3745557421 -353659.51851186884,-2055641.636125372 -252517.02622518412,-2131403.544979633 -144097.9091764927,-2197680.8826379795 -29350.59998538111,-2253407.893520929 90631.35479120378,-2297591.6719895955 214613.08515622694,-2329329.821259761 341224.19704172004,-2347828.183165957 468966.64284719917,-2352418.423420756 596224.7038479047,-2342575.2444037334 721277.1016232179,-2317932.9868958974 842311.2303152181,-2278301.3738139356 957439.4745910877,-2223680.1431500087 1064717.5498797903,-2154272.3142276546 1162164.7720434174,-2070495.8312659075 1247786.1334187016,-1972993.3313029122 1319596.031445708,-1862639.7899415025 1375643.4652378066,-1740547.808287568 1414038.4848140732,-1608070.3179685269 1432979.6477084714,-1466800.498317018 1430782.208704996,-1318568.7207170578 1405906.740954526,-1165436.3597249489 1356987.861147752,-1009686.3388366638 1282862.7081958144,-853810.3105702569 1182598.8044530028,-700492.4057072251 1055520.911345743,-552589.5248792953 901236.477780401,-413108.1869322097 719659.270303403,-285177.99232694646 511030.76907155546,-172021.80587920174 275938.9136199948,-76922.81096541685 15333.787515142974,-3188.636462795909 -269460.15846686653,45887.192381805486 -576735.7287553092,67066.1778117363 -904398.813006571,57207.797048424916 -1249968.7576544764,13314.073582129333 -1610583.5787864241,-67424.67457429545 -1983010.276001612,-187583.40111457868 -2363660.4608489913,-349455.7450781109 -2748611.46164189,-555007.8624565743 -3133633.009163674,-805833.279380181 -3514219.5453598974,-1103109.39825604 -3885628.1299893796,-1447556.3099977945 -4242921.848899683,-1839398.580586256 -4581018.5527086435,-2278330.6880011386 -4894744.676904379,-2763486.78547808 -5178893.814496288,-3293415.458545922 -5428289.631211399,-3866060.125929152 -5637852.631758596,-4478745.707781214 -5802670.2048693625,-5128172.148557902 -5918069.295717533,-5810415.335957732 -5979690.97801952,-6520935.901666767 -5983566.12575878,-7254596.324185348 -5926191.317227912,-8005686.678943914 -5804604.043116705,-8767959.29652369 -5616456.236875399,-9534672.496512778 -5360085.100713353,-10298643.46291199 -5034580.16549266,-11052310.217766197 -4639845.498531892,-11787802.533683108 -4176655.9609793443,-12497021.5041001 -3646706.4168944596,-13171727.363703636 -3052652.8103473177,-13803635.02155172 -2398144.055447184,-14384516.637586735 -1687843.7278549375,-14906310.440861868 -927440.6054841067,-15361234.856550114 -123647.18105431182,-15741906.880369056 715814.639944556,-16041463.515222106 1582241.3355523527,-16253684.967481133 2465989.615204501,-16373118.19130177 3356532.7389617874,-16395199.270594053 4242531.575966434,-16316373.04167853 5111920.504541765,-16134208.287137162 5952008.07855176,-15847506.774761278 6749592.195864994,-15456404.37658096 7491089.306637039,-14962462.48339266 8162676.99347566,-14368747.931532118 8750449.044438101,-13679899.682245562 9240581.925489876,-12902180.541094866 9619511.343980724,-12043512.276376475 9874117.381492719,-11113492.592291685 9991916.465862447,-10123392.535056718 9961258.2511827,-9086133.05848842 9771525.284153733,-8016239.649731159 9413333.1583565,-6929774.115262002 8878728.697974527,-5844242.851347491 8161383.572307826,-4778481.17057327 7256780.625177918,-3752513.525428832 6162390.112011444,-2787389.7593131643 4877832.974883097,-1904997.822476785 3405028.2548059947,-1127853.7127013807 1748321.743571544,-478869.73494255735 -85406.98329482424,18897.482621024938 -2086661.933444073,342517.43035951396 -4243275.1282281745,469472.48156141414 -6540380.60236478,377958.4978774825 -8960420.278280806,47196.45568521175 -11483183.778612401,-542248.0530146675 -14085883.956396552,-1408140.900508941 -16743269.597393967,-2566254.8260950143 -19427776.38402221,-4030048.1629439937 -22109716.807420764,-5810351.117353155 -24757509.27568876,-7915064.018166241 -27337946.195399728,-10348872.101413336 -29816500.303798288,-13112981.495578663 -32157668.004906632,-16204881.121953642 -34325347.91899776,-19618135.21822827 -36283252.29697545,-23342211.12818391 -37995348.385146275,-27362346.87295062 -39426326.258144215,-31659462.827179044 -40542089.07536029,-36210121.56474458 -41310261.16646481,-40986539.61197564 -41700708.82218157,-45956654.451409005 -41686068.16533585,-51084249.65605956 -41242274.012473494,-56329140.504348055 -40349083.216260955,-61647421.83128068 -38990585.61163643,-66991779.21527205 -37155695.382410444,-72311863.8862011 -34838615.42758518,-77554730.97388467 -32039267.14565931,-82665339.90318227 -28763677.977717943,-87587114.88938802 -25024319.06274024,-92262562.60338397 -20840385.4671638,-96633943.16909586 -16238011.66040957,-100643989.7358911 -11250415.222941566,-104236670.9462251 -5917962.196655043,-107357989.7054317 -288148.0209369793,-109956810.76799493 5584511.357619223,-111985708.79545403 11638682.858718053,-113401827.7281856 17806517.91829842,-114167741.55992287 24014055.239418495,-114252305.92332555 30181726.39988116,-113631489.30059361 36224964.91025325,-112289172.17816502 42054918.0685443,-110217902.08178385 47579259.63503266,-107419592.1699277 52703099.963914506,-103906150.94131358 57329988.79060344,-99700030.63657762 61363004.399073385,-94834682.09476432 64705921.3985251,-89354904.17020187 67264447.84005365,-83317076.33135483 68947520.92035618,-76789263.75545007 69668649.07023302,-69851185.10414644 69347286.83113275,-62594034.2175743 67910227.60416116,-55120148.19554432 65292998.13443813,-47542515.74249676 61441237.49099698,-39984121.23094685 56312042.340429895,-32577121.678737156 49875259.51238181,-25461855.727379333 42114706.23781492,-18785685.738947585 33029298.026363067,-12701676.281181915 22634063.956096724,-7367114.526264571 10961029.194546266,-2941880.4268405573 -1940055.1303680325,413323.07013822516 -16001154.02383958,2538867.0812885123 -31135581.150993865,3278205.9910654877 -47237839.13429273,2479981.2673319345 -64183683.53548966,200.0000000786026" stroke="white" stroke-width="1.5" /></svg>