<?xml version="1.0" encoding="utf-8" ?>
<svg baseProfile="full" height="400" version="1.1" width="400" xmlns="http://www.w3.org/2000/svg" xmlns:ev="http://www.w3.org/2001/xml-events" xmlns:xlink="http://www.w3.org/1999/xlink"><defs /><rect fill="black" height="100%" width="100%" x="0" y="0" /><circle cx="200" cy="200" fill="yellow" r="10.05376784405781" stroke="orange" stroke-width="2" /><polyline fill="none" points="199.3393122408256,200.0 199.2788285720508,199.9621417944026 199.2193909537025,199.91781670361718 199.1616812198186,199.86699798731397 199.1064011699651,199.8097331189296 199.05426503727074,199.74614800819916 199.00599129275918,199.67645052553584 198.96229384333282,199.6009332374839 198.92387269214206,199.5199752661987 198.8914041413612,199.43404319097013 198.86553062843734,199.34369091622602 198.8468502975338,199.24955843824193 198.8359064179902,199.1523694519386 198.83317677100825,199.05292774964602 198.83906313427954,198.9521123755108 198.85388100173532,198.85087151226435 198.877849681854,198.7502150912727 198.91108292285315,198.6512061320553 198.95358021646558,198.55495083367376 199.0052189337105,198.4625874574094 199.06574744598743,198.37527405781876 199.13477938282585,198.29417513739637 199.21178917360905,198.22044731849516 199.29610901447845,198.15522414464382 199.38692739334212,198.09960014173183 199.48328929542367,198.05461428746895 199.584098199071,198.0212330548174 199.6881199566138,198.00033321148175 199.793988637946,197.99268457276054 199.90021439528573,197.9989329188486 200.00519338632577,198.01958329975787 200.10721976986255,198.05498396113876 200.20449976314163,198.1053111321717 200.29516772377798,198.17055492211307 200.37730419142338,198.25050657479107 200.4489557956195,198.3447473301363 200.50815690678098,198.45263913850832 200.55295287731298,198.57331746697645 200.58142468982564,198.7056864266907 200.591714799631,198.8484164369355 200.58205392958226,198.99994462432412 200.5507885472505,199.1584781348429 200.4964087278455,199.32200051210114 200.41757608160916,199.48828126725252 200.31315140207465,199.65488873473316 200.18222167202657,199.81920627337186 200.02412604764805,199.9784518347793 199.8384804286165,200.1297008804811 199.62520021321208,200.26991258633777 199.38452083321047,200.39595922776155 199.11701566379188,200.504658592517 198.82361090922427,200.5928092199425 198.50559707594059,200.6572282167728 198.1646366610508,200.69479135093192 197.80276770647637,200.70247507630114 197.42240289687592,200.67740009417935 197.026323913389,200.61687601160102 196.61767079493364,200.51844661354633 196.1999261042467,200.37993522606513 195.77689374687867,200.19948961114986 195.3526723476805,199.97562580253555 194.93162315060502,199.7072702651792 194.51833247345974,199.39379974065073 194.11756881907664,199.03507812670813 193.73423481760366,198.6314897325396 193.3733142505974,198.18396825210363 193.03981448553526,197.69402080718763 192.73870472843907,197.16374642967673 192.47485058159572,196.5958483794331 192.25294547190776,195.99363973040766 192.07743959217726,195.36104170330705 191.95246707154618,194.70257427839198 191.8817721612778,194.02333868673682 191.86863528692697,193.32899145236584 191.91579987656718,192.62570974080367 192.02540092597053,191.92014786130687 192.1988963043404,191.21938486981307 192.43700183727293,190.53086332675517 192.73963122602,189.86231937749636 193.1058418728414,189.22170444227072 193.5337876803612,188.6170989260507 194.02067987755495,188.05661848546688 194.562756895587,187.5483135184096 195.15526427260835,187.1000626707718 195.7924455073809,186.71946128236533 196.46754470693503,186.4137058186859 197.17282178329265,186.1894754551717 197.89958084867774,186.0528120940884 198.6382123378724,186.00900019933536 199.37824925094446,186.06244792943525 200.10843776017728,186.21657113188337 200.81682226259406,186.4736818310462 201.49084478513697,186.8348828951315 202.11745846470657,187.29997060368203 202.68325463148565,187.8673468539647 203.1746028230742,188.5339427410506 203.5778028509728,189.29515522098 203.87924783209365,190.14479851803748 204.06559688865102,191.07507186488309 204.12395601256893,192.07654506740138 204.04206538815245,193.13816326419115 203.80849127204786,194.24727210346853 203.4128203453982,195.38966438793437 202.84585428258805,196.54964904132697 202.0998021270933,197.71014302974476 201.16846793074006,198.85278662752876 200.0474310011166,199.9580821530524 198.7342160158781,201.00555601604816 197.22845020501902,201.97394361734666 195.53200477547315,202.84139632671287 193.64911775905045,203.58570943779077 191.58649550687232,204.18456966430745 189.35339013298815,204.61582040225633 186.96165032825186,204.8577426426945 184.42574312393964,204.88934908323577 181.7627443837107,204.69068865772633 178.99229604259813,204.24315838756834 176.136528392525,203.5298191594885 173.21994603460664,202.53571175810586 170.2692764779059,201.24816923236503 167.3132807604764,199.6571214576905 164.38252589898448,197.7553875754274 161.5091194348957,195.53895185248942 158.72640683448353,193.00721841164014 156.06863301253586,190.1632402407376 153.5705697807779,187.01391790146891 151.26711156633803,183.57016342807813 149.1928422971585,179.8470250373439 147.38157690372796,175.8637684650408 145.8658814330684,171.64391100313435 144.6765763043525,167.2152046371561 143.84222774834453,162.60956507496118 143.38863295728447,157.8629439159757 143.33830491994362,153.0151417328245 143.70996332036765,148.10956042273662 144.51803823028982,143.19289383127045 145.7721936164737,138.31475635165074 147.47687790766966,133.52724995437296 149.63090901412588,128.88447089775048 152.22710125879303,124.44195820384118 155.25194165719446,120.25608684784784 158.68532286674545,116.38340949390421 162.500339911256,112.87995150653741 166.66315746848372,109.80046486466439 171.1329540849925,107.19764749264858 175.86194915140263,105.12133538900636 180.79551783179397,103.61767576558573 185.87239839424973,102.7282901958309 191.02499553740853,102.48943749719655 196.17978235395807,102.93118672688958 201.2578025213127,104.07661123889237 206.17527316885304,105.94101522088282 210.84428764822803,108.53120448977917 215.1736161380377,111.84481356231774 219.0696006580099,115.86970112116002 222.43713966333252,120.58342595728698 225.18075595134158,125.95281527671939 227.20574015592499,131.93363690607072 228.41936064665467,138.47038641070785 228.73212920786477,145.49619944664943 228.05911046668248,152.93289879987015 226.3212616882733,160.69118452349244 223.446788281801,168.67097436562796 219.3724991827699,176.7619002918526 214.04514521765648,184.84396535227233 207.4227226361434,192.78836343212615 199.47572323561118,200.45846256765068 190.1883119219893,207.71095051881343 179.55941216992414,214.39713918334414 167.6036796815485,220.36442223066368 154.35234461357274,225.45787805062363 139.85390306173554,229.52200777364678 124.17463907256621,232.4025957513159 107.39895930520306,233.94867751719593 89.62952359828611,234.01459790604713 70.98715611333327,232.46213972657574 51.61052342791453,229.16270119080278 31.65556793731608,223.99949823536426 11.294687186526886,216.869765960643 -9.284347714303777,207.68693169692085 -29.87973865174891,196.38273071700704 -50.2772730860878,182.90923438575874 -70.2522004427156,167.24075960132632 -89.57136668941479,149.37562777211426 -107.99559788351439,129.33774131669605 -125.28231975998597,107.17794579816672 -141.18839663074647,82.97514633363011 -155.4731690182894,56.83714787423787 -167.9016655979832,28.90119034803857 -178.24796122072746,-0.6658484909011122 -186.29864908156304,-31.667607350676235 -191.85639154285633,-63.87877489375569 -194.7435107670267,-97.0460212626192 -194.80557721887953,-130.8893427799661 -191.91495131717807,-165.10383084100926 -185.97423110487478,-199.3618714786108 -176.91955682216843,-233.3157771608506 -164.72372175940336,-266.6008471105229 -149.39903778860827,-298.83884685925204 -130.9999035707297,-329.6418919142237 -109.625023653977,-358.6167143782485 -85.41922755599842,-385.36928518558454 -58.574839492047374,-409.5097583640395 -29.33255169971909,-430.65769748118055 2.018242662079018,-448.44753825680823 35.139697284646815,-462.5342353070904 69.64637686491744,-472.59903521348315 105.1067680789576,-478.3553126699409 141.04546179620166,-479.5544014448876 176.94602423900076,-475.99134739070723 212.25456740367727,-467.51050683354936 246.3840210475916,-454.0109104689677 278.7190999696697,-435.4513104606077 308.6219512382311,-411.8548268722485 335.4384565294283,-383.31310893516195 358.50515492227544,-349.9899270336316 377.15674145239416,-312.124112744487 390.73408656591425,-270.03176684536106 398.59271145614736,-224.1076589543884 400.11164423506773,-174.8257474129481 394.70257212273674,-122.73875419164267 381.81919546962155,-68.47673699300066 360.9666806026573,-12.744609332407293 331.71110035209665,43.681430824197804 293.6887438201049,99.95859234349432 246.6151706405508,155.183318575202 190.29387979696241,208.39825477424958 124.6244591522829,258.6003447412357 49.61007933345567,304.75003136604255 -34.635805368644526,345.7815203236931 -127.88368576354054,380.6140502087944 -229.78329046503586,408.1640960682266 -339.8600725744568,427.3584167799995 -457.51301424637404,437.1478402223611 -582.0138649510625,436.52166388712953 -712.5079191768269,424.52253273182293 -848.0164272544514,400.26164086258916 -987.4407189521633,362.93408932730154 -1129.56810352517,311.83421911315077 -1273.079592078253,246.37072662515854 -1416.5594685103174,166.08135870978288 -1558.5067140815477,70.6469759159142 -1697.3482679315516,-40.095233618776945 -1831.4540818635007,-166.1396112878415 -1959.1539026065166,-307.3011793062518 -2078.755688815678,-463.20630819354244 -2188.565543532094,-633.285118493476 -2286.9090159953817,-816.7658278160358 -2372.153599891785,-1012.6712442381893 -2442.7322286681356,-1219.8175938769514 -2497.1675427976825,-1436.815854003749 -2534.096679216181,-1662.07574339162 -2552.2963099350777,-1893.812498705192 -2550.7076354683236,-2130.0565397266128 -2528.4610195710115,-2368.6660971739807 -2484.8999352677706,-2607.3428449696853 -2419.60387862848,-2843.6505442606112 -2332.40989659736,-3075.0366695321413 -2223.432368750397,-3298.8569480917536 -2093.0806804750096,-3512.402703371021 -1942.074427035699,-3712.9308502971285 -1771.4557945767017,-3897.696347849168 -1582.5987755451442,-4063.986870314896 -1377.2148924780658,-4209.159415211574 -1157.355125715685,-4330.678522874502 -925.4077674582088,-4426.155740923746 -684.0919566912805,-4493.389926790815 -436.446686817324,-4530.407943839137 -185.81512023211116,-4535.505271973138 64.1759086096294,-4507.2860226323655 309.6412681484252,-4444.701821339593 546.4677929482516,-4347.088999133632 770.3493853020993,-4214.2035178673195 976.8268417587235,-4046.253044060445 1161.3322247084275,-3843.925582300098 1319.237530548809,-3608.4140825640284 1445.9073358289556,-3341.4364467391174 1536.7550319143509,-3045.2503783840593 1587.3021879565179,-2722.6625467375843 1593.240512178709,-2377.0315713126283 1550.4958136350008,-2012.2643772656825 1455.2933016379739,-1632.805524112931 1304.2234989815852,-1243.6191712013356 1094.3079889309922,-850.1634124421823 823.0641657379299,-458.35678987130586 488.56811519130486,-74.53688018836732 89.5147164321458,294.5890600008379 -374.72597007719287,642.0013066310895 -904.0569800113569,960.4325513042631 -1497.6083453879878,1242.440160084665 -2153.6975690562117,1480.4854013852128 -2869.7976069938863,1667.0191223834695 -3642.5132611131608,1794.573238263516 -4467.5668411545685,1855.8572836314545 -5339.793896496003,1843.8591621417143 -6253.149747120099,1751.9491202176807 -7200.7274575365445,1573.9858653352933 -8174.78779827821,1304.4236502905765 -9166.80162699672,938.41905385042 -10167.504995676662,471.9361068601112 -11166.967152762909,-98.15165708798537 -12154.67145995095,-773.9637043017539 -13119.609084116602,-1556.5210772442017 -14050.385156661398,-2445.662591033149 -14935.336916913453,-3439.9702056944298 -15762.663174839334,-4536.70511979496 -16520.56424306195,-5731.756101312317 -17197.391301088915,-7019.6015209790585 -17781.803967937234,-8393.28648110687 -18262.934675345456,-9844.416338496889 -18630.55825496074,-11363.167803171034 -18875.26498185233,-12938.318655261419 -18988.635156078435,-14557.296960697196 -18963.413156518593,-16206.250482848598 -18793.678769492566,-17870.136782851358 -18475.01348151387,-19532.83427707852 -18004.659333523567,-21177.27427761536 -17381.667865679065,-22785.593782415854 -16607.03663967092,-24339.308508188773 -15683.830811886304,-25819.50537341538 -14617.287247606468,-27207.05334398983 -13414.89871564952,-28482.831252841195 -12086.475786005909,-29627.97090087682 -10644.184171299758,-30624.113443268398 -9102.555407224807,-31453.676766302582 -7478.468957945487,-32100.131269759637 -5791.104059893016,-32548.281192250965 -4061.8598810443427,-32784.548356439824 -2314.2428717954563,-32797.254971974 -573.7205165787566,-32576.90192068481 1132.4589394391555,-32116.43876553044 2775.480819295002,-31411.521576189083 4325.2120077330865,-30460.75455429679 5750.4817730265895,-29265.911374031297 7019.394116274002,-27832.132132759827 8099.669867789766,-26168.091835158364 8959.016260697457,-24286.136415544086 9565.521217767639,-22202.382439651676 9888.069094763578,-19936.7768207287 9896.774138282972,-17513.113137043543 9563.427444850717,-14959.001449474414 8861.95275763007,-12305.788888882407 7768.866014576704,-9588.42871283237 6263.733174281419,-6845.296018501714 4329.620500297678,-4117.9488410970025 1953.531188548132,-1450.833961728725 -873.1780175683516,1109.062608429579 -4154.406756738253,3512.619814514088 -7888.954163922239,5709.039037479988 -12070.201841332553,7646.352733759625 -16685.8433097252,9271.981322405929 -21717.666429253408,10533.334611385135 -27141.39505513761,11378.453251839539 -32926.59587648274,11756.684908634132 -39036.655974437854,11619.389047446059 -45428.83612728816,10920.66347368825 -52054.40428488184,9618.085027742238 -58858.85293404417,7673.456155687707 -65782.20328269615,5053.54844653268 -72759.39830684954,1730.833667505411 -79720.78573652463,-2315.8076501675137 -86592.691010301,-7100.410410065242 -93298.07911143413,-12629.29255391897 -99757.30302043889,-18900.476861334217 -105888.93529030877,-25903.177786873035 -111610.67798298407,-33617.36409307535 -116840.34491248697,-42013.40781625342 -121496.90883567525,-51051.82973423689 -125501.6049312922,-60683.15098647675 -128779.08062837548,-70847.85982336836 -131258.58060344149,-81476.5016313462 -132875.1545801512,-92489.89939305632 -133570.87445390926,-103799.51059950521 -133296.04624585895,-115307.9253373407 -132010.40148490295,-126909.50883528657 -129684.25184151017,-138491.19017740822 -126299.59021156619,-149933.39718775175 -121851.12099016074,-161111.1356736595 -116347.20200089662,-171895.20929869445 -109810.68047179213,-182153.57435781328 -102279.6055884089,-191752.82166657667 -93807.8005211342,-200559.77567420984 -84465.27742713383,-208443.1987906664 -74338.4797768292,-215275.58680564965 -63530.3374556742,-220935.03919959214 -52160.12144770495,-225307.18613104516 -40363.08651800002,-228287.15196104112 -28289.89217384727,-229781.53337281084 -16105.794292792545,-229710.3684953639 -3989.6021500628394,-228009.07197260435 7867.601855248676,-224630.3096663289 19263.97970339466,-219545.7856715707 29988.689457454766,-212747.91358517326 39823.865020247125,-204251.34353059076 48546.81454773242,-194094.3163292699 55932.424771054924,-182339.81644475294 61755.755062556316,-169076.49593023388 65794.80163649067,-154419.34260090487 67833.40884375856,-138510.0670425866 67664.30114532265,-121517.18486727423 65092.2060768565,-103635.77283940223 59937.03539518875,-85086.88012402464 52037.08867411222,-66116.57894476039 41252.24094283661,-46994.64237493115 27467.073584700374,-28012.84080380005 10593.905686238486,-9482.852799291755 -9424.318604055083,8266.209398646024 -32611.33233517343,24890.65470778842 -58955.08395831635,40035.43823847675 -88405.55797369758,53337.741129931135 -120872.92411900716,64430.88433631401 -156226.06020182205,72948.54995716209 -194291.49205317686,78529.27810958201 -234852.7918048013,80821.20176554103 -277650.47275297414,79486.97649756017 -322382.4154595872,74208.85676460758 -368704.8554557548,64693.86530436101 -416233.9579633504,50678.99745772677 -464547.99945229274,31936.397917340648 -513190.16963252204,8278.443544848258 -561672.0006751018,-20437.33737745847 -609477.4231122206,-54303.5817277552 -656067.4400362828,-93358.71813576123 -700885.4029686014,-137582.97887636395 -743362.8641730056,-186894.87261191255 -782925.9713327704,-241148.19286013948 -819002.3614832124,-300129.6354193261 -851028.5019981186,-363557.0953159012 -878457.4173745026,-431078.7101169276 -900766.7316622289,-502272.7116465623 -917466.9477640372,-576648.1422486576 -928109.8766132314,-653646.4847477957 -932297.1215499843,-732644.247191532 -929688.5161940275,-812956.5343357952 -920010.4078833333,-893841.6277062312 -903063.6734459992,-974506.5849893354 -878731.3498237365,-1054113.8575525845 -846985.7589937274,-1131788.9121526426 -807895.0048581979,-1206628.8294709788 -761628.719396513,-1277711.8381381908 -708462.9365017134,-1344107.7285086191 -648783.9746387291,-1404889.0757763812 -583091.213837479,-1459143.1872469636 -511998.6586276517,-1505984.673871843 -436235.1863723611,-1544568.5317049688 -356643.3900849902,-1574103.604946141 -274176.93621675344,-1593866.2889021526 -189896.3710588673,-1603214.3187320577 -104963.32426643839,-1601600.4784612474 -20633.074510751878,-1588586.0546644193 61754.53969311662,-1563853.850642456 140785.86147679036,-1527220.570060138 214985.78618850483,-1478648.3740711487 282831.7159719004,-1418255.4131238738 342769.030549593,-1346325.1340920476 393227.9829941901,-1263314.1652689194 432641.9054228538,-1169858.5862414693 459466.58553865,-1066778.3968405705 472200.6510507117,-955080.0093347644 469406.77554088196,-835956.6008628692 449733.4966275469,-710786.1788156511 411937.4156403937,-581127.2304769469 354905.5278043797,-448711.84968202584 277677.41348398343,-315436.2574694348 179467.00470762776,-183348.6605763113 59683.62732201409,-54634.42099987636 -82047.99194571249,68401.45847859218 -245869.07218840485,183354.49417646392 -431669.8019691816,287743.45265435986 -639074.3639079806,379035.54200721724 -867428.2810136399,454673.9141213117 -1115788.398190237,512107.2899574685 -1382915.8005730405,548821.4809029539 -1667271.9540353036,562372.5404263084 -1967018.3322512063,550421.2421675066 -2280019.7690523965,510768.5437216223 -2603851.744480503,441391.660268475 -2935811.7779790666,340480.339418819 -3272935.0627117115,206472.89875273957 -3612014.4312264863,38091.56108364853 -3949624.694868186,-165623.39994874803 -4282151.347791415,-405281.2092226262 -4605823.571541078,-681110.3524630683 -4916751.418401659,-992931.0767974586 -5210966.991598653,-1340131.1559210897 -5484469.378555146,-1721645.440928231 -5733273.030415115,-2135939.705697263 -5953459.217652212,-2580999.2764071636 -6141230.128550596,-3054322.908068574 -6292965.115480318,-3552922.336713254 -6405278.534042334,-4073327.894021705 -6475078.563207335,-4611600.521690524 -6499626.341419639,-5163350.465853699 -6476594.7051990675,-5723762.867582 -6404125.773968416,-6287630.394202858 -6280886.588570541,-6849392.978327253 -6106121.982107883,-7403184.647569413 -5879703.841194298,-7942887.338638232 -5602175.904264786,-8462191.495514605 -5274793.241995714,-8954663.15366455 -4899555.573824897,-9413817.111634156 -4479233.594623598,-9833195.6889929 -4017387.517253341,-10206452.466589063 -3518377.0804280005,-10527440.302695133 -2987362.3272517934,-10790302.818168929 -2430294.528146327,-10989568.446615398 -1853896.702590996,-11120246.053134156 -1265633.287007583,-11177921.039048439 -673668.6008817154,-11158850.77151821 -86813.8793220959,-11060058.107637234 485537.23297141923,-10879421.723976575 1033484.6947904392,-10615761.916013336 1546709.4116853161,-10268920.498857541 2014571.5796901546,-9839833.422482837 2426219.540779696,-9330594.712493382 2770708.4977619224,-8744510.36242249 3037128.2698970092,-8086140.836618818 3214739.10315752,-7361330.894736732 3293114.382723121,-6577225.520323831 3262288.9321762486,-5742270.827413487 3112911.4261756674,-4866198.9305783585 2836399.2934588376,-3959995.895544686 2425094.34724608,-3035852.038914238 1872417.2529090415,-2107094.016234751 1173018.8305457043,-1188098.3267641792 322926.0952754665,-294186.0696718829 -680319.1370253614,558500.9912992995 -1837531.3039308544,1353142.7612252187 -3147764.064974338,2072401.0033075912 -4608207.441696516,2698596.5833937796 -6214101.361461617,3213902.7030793913 -7958667.782822166,3600552.784292893 -9833063.495028546,3841061.3963041888 -11826355.567362143,3918456.345940777 -13925521.2746475,3816519.786915501 -16115474.143259028,3520035.9482187764 -18379117.547253717,3015042.8382869004 -20697427.037418287,2289085.055003823 -23049562.30793229,1331464.6254568545 -25413009.397390082,133486.6176863144 -27763753.38491676,-1311303.8866582168 -30076481.48036628,-3006896.991008958 -32324816.022873994,-4954608.971517828 -34481576.49760338,-7152892.717304414 -36519069.26008245,-9597171.2905547 -38409403.2252385,-12279698.231914042 -40124829.33867989,-15189448.146925196 -41638101.205936715,-18312040.969583914 -42922853.8165933,-21629703.10781008 -43953996.87019216,-25121268.431686074 -44708118.7953915,-28762221.768199105 -45163897.1592789,-32524787.2160914 -45302510.79626166,-36378063.19204512 -45108048.65198278,-40288205.66635511 -44567910.04363546,-44218660.544680886 -43673190.79019583,-48130445.60542439 -42419049.47065503,-51982481.81351488 -40805047.93124064,-55731973.205419816 -38835460.08949082,-59334833.88234282 -36519543.07907274,-62746159.964857265 -33871764.84911213,-65920743.659446165 -30911982.47958196,-68813625.87301934 -27665565.703384254,-71380683.0935893 -24163460.43873198,-73579243.54259072 -20442187.534030393,-75368726.90604593 -16543772.412440436,-76711301.27755554 -12515601.874441067,-77572550.30594698 -8410204.972647436,-77922142.94456005 -4284955.611418777,-77734497.65800123 -201695.34072650247,-76989432.46612321 3773724.295540077,-75672791.80430038 7571979.538319678,-73777040.86374734 11120890.98209334,-71301817.85540846 14346116.526312532,-68254434.52480389 17171917.190371316,-64650315.241721466 19521991.130333588,-60513365.10523464 21320370.034447055,-55876257.747919306 22492370.907969397,-50780633.89873429 22965595.100104686,-45277202.27598971 22670965.29194985,-39425735.03302052 21543790.069914963,-33294950.770670656 19524844.670441702,-26962279.062218785 16561455.515572209,-20513501.50553375 12608575.28198198,-14042265.520150717 7629834.475261216,-7649468.437402477 1598554.8333417848,-1442510.8819237675 -5501290.62584406,4465579.997466921 -13674186.451298337,9957155.232161002 -22912268.223744035,14911072.717380244 -33194616.36261681,19203944.11076887 -44486665.80531314,22711492.32417502 -56739746.68812522,25310010.099590085 -69890770.54279415,26877908.26492816 -83862075.68520342,27297340.38485153 -98561444.409296,26455888.680751555 -113882303.30757317,24248294.317641165 -129704116.5206653,20578213.470701765 -145892979.97577018,15359979.017489161 -162302422.71429467,8520346.280872429 -178774419.24227858,200.00000021893575" stroke="white" stroke-width="1.5" /></svg>