<?xml version="1.0" encoding="utf-8" ?>
<svg baseProfile="full" height="400" version="1.1" width="400" xmlns="http://www.w3.org/2000/svg" xmlns:ev="http://www.w3.org/2001/xml-events" xmlns:xlink="http://www.w3.org/1999/xlink"><defs /><rect fill="black" height="100%" width="100%" x="0" y="0" /><circle cx="200" cy="200" fill="yellow" r="11.561119341931011" stroke="orange" stroke-width="2" /><polyline fill="none" points="198.51661255856655,200.0 198.42515699161802,199.91732793607136 198.33846832851975,199.82507229392948 198.2576576708487,199.7235716984474 198.18382797066386,199.61329695620174 198.11805945251118,199.49485386999743 198.0613943315432,199.36898455652008 198.01482097038416,199.23656715027306 197.97925763389514,199.0986137891981 197.95553601664432,198.9562667917439 197.9443847324107,198.81079295159378 197.94641296819046,198.66357589473304 197.96209451667596,198.51610646392794 197.99175241078737,198.36997111788128 198.03554439130824,198.2268383561676 198.09344944377239,198.08844320634546 198.16525564325016,197.9565698361811 198.25054954537993,197.83303238144885 198.34870735870285,197.7196541080221 198.45888812692644,197.61824505563214 198.58002914003384,197.5305783394226 198.7108437800741,197.45836531391038 198.8498219909482,197.4032298318104 198.99523354152393,197.36668185699955 199.1451342279859,197.35009071628517 199.2973751345131,197.35465829819017 199.4496150412887,197.38139252825803 199.59933603563107,197.4310814689975 199.7438623459036,197.50426840811875 199.8803823790633,197.60122831076225 200.00597390154795,197.7219460196018 200.11763226003663,197.8660965906564 200.2123014938465,198.0330281520388 200.28690814480322,198.22174766740167 200.33839752383392,198.43090997526156 200.36377214681912,198.65881045947174 200.36013200597185,198.90338168472138 200.32471629779798,199.16219430395648 200.25494618516115,199.43246251201262 200.14846812978553,199.71105428154482 200.0031972933467,199.99450657364127 199.8173604708036,200.27904566648672 199.58953798948824,200.56061269135367 199.31870398236006,200.83489440637774 199.0042644243999,201.09735917543367 198.64609230798538,201.34329805246284 198.2445593268389,201.56787080139557 197.80056343931335,201.76615660900956 197.31555169085823,201.93320917340992 196.79153769290878,202.06411577510357 196.23111318150302,202.15405986174844 195.6374531139124,202.19838660251327 195.0143138056326,202.19267079457524 194.36602366328313,202.13278643363725 193.69746613125614,202.01497719352935 193.01405454117287,201.83592699805786 192.32169863305884,201.59282981237797 191.62676260522397,201.283457732393 190.93601464558498,200.90622641010458 190.25656799991748,200.4602568215102 189.59581374146504,199.94543236257596 188.9613455205209,199.36245024895058 188.36087669096656,198.71286619730705 187.80215033210712,197.99913138128235 187.29284280717553,197.22462068360457 186.84046162317077,196.3936513087048 186.45223847872848,195.5114908773177 186.13501850589859,194.5843541965402 185.89514682634342,193.61938798563511 185.73835365084838,192.62464293945172 185.66963925138035,191.60903262741022 185.6931602254567,190.5822788560926 185.81211855151233,189.55484326691584 186.02865499951474,188.53784509624347 186.34374851157048,187.54296519251702 186.75712320104753,186.58233656223175 187.2671646342731,185.66842190231546 187.87084705473455,184.81387876894644 188.56367318465198,184.0314132301275 189.33962819170753,183.33362304928488 190.19114933872888,182.73283164747235 191.1091127405572,182.24091428996698 192.0828385347804,181.86911813653654 193.10011563132454,181.62787798071375 194.14724704022746,181.52662967922092 195.20911658771197,181.57362343537358 196.26927761871946,181.77573924695093 197.31006405046256,182.13830695675776 198.31272388777035,182.66493345005836 199.25757503883196,183.35733962446392 200.12418298155185,184.21520981203884 200.89155952861273,185.2360563578671 201.5383816263374,186.41510205178778 202.04322880171614,187.74518306842225 202.38483754699124,189.21667499320932 202.5423706057259,190.81744439750287 202.49569880234395,192.5328282728005 202.22569274295273,194.34564344219726 201.71452141328163,196.23622783597347 200.9459544143557,198.18251524807826 199.90566431275022,200.1601448819125 198.58152534465304,202.1426066485245 196.96390450620598,204.1014227999269 195.04594089134298,206.00636606711038 192.8238090070997,207.82571402940843 190.29696170944703,209.5265389726807 187.46834836415232,211.07503200240174 184.3446038507126,212.43685966879568 180.93620409635673,213.5775508398015 177.257583954329,214.4629110295409 173.32721342846665,215.05946086120892 169.16762849618718,215.3348948204519 164.8054130954706,215.2585559452368 160.27112921860117,214.80192160815272 155.59919249589564,213.93909508445424 150.82769115514938,212.6472971715515 145.9981468049861,210.90735174073708 141.15521610970893,208.70415876736257 136.34633309574056,206.02714810897183 131.62129255048893,202.87070708938322 127.0317757377501,199.23457480738227 122.63082045291365,195.12419602811116 118.47223826873226,190.55102753945087 114.60998266985092,185.5327899700558 111.09747263246777,180.09365827484476 107.98687706444647,174.2643844014127 105.32836637029857,168.08234605978237 103.16933823346803,161.5915160298526 101.553625503577,154.8423470563618 100.52069482663144,147.89156809942887 100.10484534930306,140.80188852772673 100.33441745184699,133.6416077576342 101.23102200554727,126.48412885041715 102.80880109758483,119.40737567425604 105.07373150700796,112.49311441090263 108.02298243869738,105.82618142856424 111.64433911721213,99.4936208424355 115.91570379940032,93.5837364298436 120.8046855749604,88.18506394456891 126.2682899802683,83.38527126954911 132.25271894670692,79.2699952426688 138.69329093597165,75.92162536937653 145.514490278686,73.41804598018987 152.63015372831916,71.8313496817066 159.9438010710878,71.22653616687077 167.34911529764003,71.6602115738998 174.73057634949916,73.17930459320166 181.96425081048827,75.81981639764713 188.9187381310572,79.6056221938102 195.45627206441355,84.54734274100146 201.43397397287853,90.6413045426385 206.70525254862136,97.86860756346834 211.12134230488715,106.19431925054911 214.53297095429946,115.56681332157547 216.7921435242076,125.9172712190715 217.75402879173618,137.1593633033544 217.2789313813359,149.1891257638553 215.23433068494504,161.88504786301039 211.4969656703137,175.10838248829396 205.95494266859112,188.703691078116 198.5098414105256,202.49963181186075 189.07879294447204,216.3099975225634 177.59650165162213,229.9350071156965 164.0171824067328,243.16285137625007 148.31638304743115,255.77149093967998 130.49266174181366,267.5307009152577 110.56908861055427,278.20435321169157 88.59454109173684,287.5529240572323 64.6447630570126,295.3362105660873 38.82315861592221,301.3162365196343 11.261292897147314,305.2603238475523 -17.88092611741962,306.94430265641483 -48.41540840063905,306.1558291098314 -80.12640635171726,302.6977770652612 -112.77142083928334,296.3916661701214 -146.08250317881112,287.0810861667606 -179.76796344623853,274.6350745057198 -213.51449117401637,258.9514020727044 -246.98968975332457,239.95971994923417 -279.8450208110882,217.62451870083305 -311.7191494831684,191.94785076840145 -342.24167591284754,162.97176617346247 -371.03723251947144,130.7804119779447 -397.72992066503275,95.50174680099899 -421.94805436129707,57.30882322065844 -443.3291726766819,16.42059310239435 -461.5252765950104,-26.89780618160583 -476.2082403261621,-72.3353230382778 -487.07534155341443,-119.53585447874224 -493.85484990838086,-168.09972943949953 -496.31160817810917,-217.58583577926146 -494.25253645689213,-267.51440767833236 -487.5319857441625,-317.37048307457746 -476.0568644446597,-366.60803308246875 -459.7914589302161,-414.6547571150081 -438.7618678528545,-460.9175287289463 -413.0599693300288,-504.7884681180984 -382.84684052218256,-545.6516077743457 -348.355550550291,-582.8901082173958 -309.89325020774436,-615.8939709679232 -267.84248554792356,-644.0681862180536 -222.661667206098,-666.8412430596999 -174.88463325936146,-683.6739207927943 -125.11925054556309,-694.0682708852579 -74.04500764147309,-697.5766907320226 -22.409562116724715,-693.8109826014908 28.97578480780544,-682.451284205652 79.24170151770967,-663.2547513252013 127.467529984191,-636.0638680015423 172.68906988140427,-600.8142561074156 213.9074181048954,-557.5418537547996 250.09882415968605,-506.38933111216886 280.2255065928523,-447.6116128923778 303.24736000920797,-381.5803791344176 318.1344664014971,-308.78742001966737 323.88030873350476,-229.8467264023917 319.51556913314874,-145.49520554324363 304.12237889086293,-56.5919212416253 276.84887293322146,35.88423082591967 236.92388777600706,130.83848825520604 183.6716293824216,227.0658879009297 116.52612609014618,323.25867592581625 35.045272053737904,418.01548632967047 -61.0757412992495,509.8522920035793 -171.99181426166638,597.2151105675146 -297.69636052090823,678.4944242238521 -438.0109751255344,752.0412487983374 -592.5765611720765,816.1847622737614 -760.8461237343414,869.2513777055469 -942.0794327965941,909.5851197217061 -1135.3397472291708,935.5691381540116 -1339.4927790821507,945.6481670435461 -1553.208061625442,938.3517126507204 -1774.9628656223422,912.3177305296759 -2003.048786316759,866.3165295627706 -2235.5810986103957,799.2746204625473 -2470.510950015585,710.2982080087058 -2705.640430345709,598.6960105669401 -2938.6405239463234,464.00107759939397 -3167.07191481885,305.9912662757328 -3388.408577532599,124.70803226544608 -3600.064047691447,-79.52681234932464 -3799.4202252938444,-306.09671906909426 -3983.858523014548,-554.0787394488598 -4150.793129698674,-822.2349055105352 -4297.706117683788,-1109.0069656387172 -4422.184081476633,-1412.5147666395458 -4521.955955358165,-1730.5585467665217 -4594.931619246626,-2060.625373614342 -4639.240866204293,-2399.899924900037 -4653.272271930117,-2745.27976940285 -4635.711477042762,-3093.3952599010568 -4585.578367530155,-3440.634100077759 -4502.262618012035,-3783.170593390058 -4385.5570470062585,-4116.999524205829 -4235.688223751068,-4437.97456057592 -4053.343762825102,-4741.851004369388 -3839.6957462894493,-5024.3326487657 -3596.419723762479,-5281.122435947388 -3325.708759079073,-5507.976540011097 -3030.2820182598275,-5700.761432412311 -2713.387427622872,-5855.51342052953 -2378.7979731254645,-5968.500085073224 -2030.8012624442676,-6036.2829800054 -1674.1820298118364,-6055.780900336349 -1314.1973300362106,-6024.332969603878 -956.5442421443445,-5939.760751000302 -607.3199842955041,-5800.428544972022 -272.97442948103327,-5605.301002636821 39.74489458612774,-5353.997159473572 323.8551388492266,-5046.839978323745 572.2075134994436,-4684.90048563039 777.5633228419949,-4270.035590780689 932.6761523382112,-3804.9186960804273 1030.3795954998054,-3293.062234837859 1063.6797983191227,-2738.831317720154 1025.8519905436815,-2147.4477232911645 910.5400678011424,-1524.9835376242936 711.8581878679258,-878.3438301399444 424.4932498109379,-215.2378482051726 43.807037905740174,455.8616787494384 -434.0632652559125,1125.7714142836019 -1012.107558621572,1784.6626256351108 -1692.3497117297493,2422.138743476481 -2475.7603192778324,3027.3251313986357 -3362.1768021840676,3588.9707645027315 -4350.232344009522,4095.561348140449 -5437.295141503338,4535.443234059708 -6619.419418862284,4896.957313784601 -7891.309606139228,5168.5818899474225 -9246.29901236759,5339.083347613967 -10676.344232873233,5397.6732716509605 -12172.036417631549,5334.17048524687 -13722.630393357662,5139.166321279148 -15316.0924765152,4804.191284858215 -16939.167638100702,4321.881124653018 -18577.46648470649,3686.140205111926 -20215.57230508353,2892.299964016655 -21837.168198630596,1937.2701524792385 -23425.184053649875,819.6804899618776 -24961.96288086441,-459.9896725040338 -26429.44573393678,-1899.296099827698 -27809.374166196212,-3493.73123284916 -29083.508884405946,-5236.644914361772 -30233.862969378217,-7119.186554012616 -31242.947743011413,-9130.270890544341 -32094.029075550327,-11256.569360949605 -32771.391649409736,-13482.528902248445 -33260.608430757595,-15790.419792715846 -33548.8123513585,-18160.413885855243 -33624.966975117284,-20570.694303073127 -33480.132720565976,-22997.597331165507 -33107.72503638876,-25415.786920183004 -32503.760786097067,-27798.461798302327 -31667.088994126294,-30117.59481581163 -30599.602042701434,-32344.20370353215 -29306.423390339365,-34448.651985768476 -27796.067912027596,-36400.97832851076 -26080.57104076695,-38171.25213486647 -24175.583022684074,-39729.95272678436 -22100.42478520105,-41048.36898065585 -19878.10216112765,-42099.01582029187 -17535.275511751923,-42856.06352035464 -15102.182149116688,-43295.77534308839 -12612.50937105026,-43396.94862784351 -10103.21639079838,-43141.3540832458 -7614.303964131804,-42514.16770278556 -5188.531087630147,-41504.389442893225 -2871.0787587037807,-40105.24257491312 -709.1614462213171,-38314.54745523837 1248.4123850548958,-36135.063357351246 2951.7286288794794,-33574.79198134817 4350.301956501241,-30647.23630590572 5393.652723956581,-27371.608579150943 6031.922022909861,-23772.98146238899 6216.519764308538,-19882.376647180023 5900.799930425831,-15736.785663989154 5040.7563996277695,-11379.118090717582 3595.7320500273213,-6858.07295195229 1529.1331939752524,-2227.9297736899243 -1190.8592038332142,2451.7434786678878 -4590.590604843857,7116.467502604148 -8690.255807670324,11697.31479519283 -13503.253595265125,16121.458814302385 -19035.58329092905,20312.808083189448 -25285.293556436252,24192.723027883792 -32241.993808360723,27680.81215911255 -39886.438545304016,30695.80299612271 -48190.194661731985,33156.481891284944 -57115.40146727869,34982.69566558746 -66614.63262874188,36096.40672090451 -76630.8686021263,36422.7920710343 -87097.58732213621,35891.375546527255 -97938.9799663828,34437.1812955103 -109070.29751302475,32001.895641777723 -120398.33256730456,28535.023390368693 -131822.03955030235,23995.023807790934 -143233.29483001234,18350.41076695226 -154517.7967407207,11580.800953320324 -165556.10369373782,3677.8935958559014 -176224.80674528843,-5353.635070010045 -186397.83107231182,-15495.3394646356 -195947.85883266284,-26714.331168128658 -204747.86387335206,-38962.74062428828 -212672.74672148065,-52177.32981715017 -219601.05627154655,-66279.27087168401 -225416.78259552707,-81174.10446814101 -230011.2033755656,-96751.8906536062 -233284.76462120563,-112887.56308437626 -235148.9746127633,-129441.49594180349 -235528.28843888376,-146260.29073836582 -234361.9590989641,-163177.78797939513 -231605.82994916322,-180016.30618204118 -227234.04231274972,-196588.10809309332 -221240.63137910786,-212697.09111115788 -213640.98310705973,-228140.69592990252 -204473.12475161583,-242712.02430458966 -193798.82187091754,-256202.15363423404 -181704.4552614398,-268402.63277999294 -168301.65223082504,-279108.1402434088 -153727.64796177155,-288119.2825451649 -138145.354456246,-295245.50741787633 -121743.1166814176,-300308.1032990333 -104734.13806729829,-303143.2536281061 -87355.56042609665,-303605.111661829 -69867.18666471292,-301568.8589714048 -52549.83832907984,-296933.70852260967 -35703.34403105345,-289625.8113118786 -19644.159138487186,-279601.023984884 -4702.621724396831,-266847.49374365987 8780.145366560348,-251388.01619640386 20455.6714106418,-233282.12166025664 29971.89351383935,-212627.8458274189 36977.20567600367,-189563.14168033988 41124.77039158217,-164266.89111884305 42077.05663500513,-136959.4769616134 39510.562837918005,-107902.87882076198 33120.67838844516,-77400.25982860084 22626.632343613328,-45795.01532014117 7776.473521088931,-13469.259334976829 -11647.97799717952,19158.269818478693 -35826.27158133749,51634.89772042742 -64894.62574041959,83477.30197066472 -98941.4560270321,114175.39949745893 -138003.20221035925,143196.8247389793 -182060.52680796376,169991.98248253076 -231034.95727971994,193999.65090924103 -284786.04351518524,214653.10190678097 -343109.10063756857,231386.69706887018 -405733.60456070205,243642.90909481724 -472322.3041366619,250879.7096392736 -542471.1090978615,252578.25615232423 -615709.8073169403,248250.8020091548 -691503.6581811578,237448.7463773525 -769255.9011188596,219770.73293216838 -848311.2095513097,194870.6998314792 -927960.1108155523,162465.77742888642 -1007444.3819693617,122343.92516039866 -1085963.4199194026,74371.19500986734 -1162681.5720952463,18498.506058735282 -1236736.401026587,-45232.18703151891 -1307247.8427857668,-116682.4490667332 -1373328.2054636807,-195612.7592302763 -1434092.9397990897,-281678.85953704064 -1488672.0999371517,-374429.16626825946 -1536222.398222232,-473303.34793482325 -1575939.7441124646,-577632.1657449309 -1607072.1439282,-686638.663279129 -1628932.8254094385,-799440.7811034968 -1640913.4391595523,-915055.4594027593 -1642497.178198605,-1032404.2774340323 -1633271.6472440765,-1150320.6627578693 -1612941.3051831606,-1267558.6858879658 -1581339.2976974032,-1382803.437331564 -1538438.49233899,-1494682.9641107637 -1484361.5257198135,-1601781.721926765 -1419389.6720276999,-1702655.4773447139 -1343970.3439813752,-1795847.571950022 -1258723.0417103723,-1879906.4375939013 -1164443.5720093255,-1953404.2288629396 -1062106.3700550527,-2014956.4160509643 -952864.7680487148,-2063242.1594740632 -838049.0703832507,-2097025.2642583787 -719162.3128352463,-2115175.494064124 -597873.6039026392,-2116690.0029154196 -476008.9696808817,-2100714.626715497 -355539.6494785321,-2066564.7604739557 -238567.81756750267,-2013745.5340869292 -127309.73685237976,-1941970.9890145804 -24076.382596414594,-1851181.950704188 68748.3916119916,-1741562.2874056145 148732.03803940426,-1613553.2453915756 213419.7050572656,-1467865.5537751908 260362.65227038713,-1305488.9993276056 287148.47198614967,-1127699.1831187217 291432.8613563024,-936061.1865754274 270972.6530863599,-732429.8947676746 223659.77736322515,-518946.74944123445 147555.7941184393,-298032.7335092392 40926.60345400095,-72377.42233055268 -97723.08645050439,155076.02498054295 -269615.9798157473,381150.0189356224 -475669.569317682,602455.8765636242 -716465.1518551118,815421.3311710459 -992218.9802212006,1016322.151687624 -1302756.0535619906,1201317.752933573 -1647487.0503898496,1366490.620530284 -2025388.90259782,1507889.3148957232 -2434989.4970426485,1621574.7584445495 -2874356.9725386896,1703669.4494320005 -3341094.0543059898,1750409.185570378 -3832337.8348910795,1758196.821382833 -4344765.370255442,1723657.5260538426 -4874605.41211663,1643694.9541319257 -5417656.542835232,1515547.69070233 -5969311.917368269,1336845.2864524527 -6524590.748356285,1105663.1572791499 -7078176.595682023,820575.58860572 -7624462.441343816,480706.0572367995 -8157602.444838037,85774.06420137755 -8671570.184168352,-363862.3386099331 -9160223.093913201,-867169.1463981472 -9617372.715415454,-1422404.9334755242 -10036860.276125515,-2027096.109252558 -10412637.016541284,-2678019.6573818 -10738848.585234484,-3371194.075036104 -11009922.726392824,-4101879.175341421 -11220659.391464349,-4864585.350165841 -11366322.318235083,-5653092.812811937 -11442731.038406944,-6460481.250841442 -11446352.199896663,-7279170.218610181 -11374389.024075689,-8100970.487600522 -11224867.66242803,-8917146.450968431 -10996719.172999725,-9718489.547705265 -10689855.805878589,-10495402.532454748 -10305240.270030122,-11237994.270497037 -9844946.652290134,-11936184.585058136 -9312211.674225818,-12579818.527429808 -8711475.004838811,-13158789.281050356 -8048407.397459343,-13663168.750507144 -7329925.488253747,-14083344.727309395 -6564192.181935321,-14410163.368301157 -5760601.65770704,-14635075.571884502 -4929748.155135999,-14750285.694033468 -4083377.845267434,-14748900.912684232 -3234323.2562958803,-14625079.427802145 -2396419.904708133,-14374175.57756851 -1584404.9809206005,-13992879.861000212 -813798.1516913775,-13479351.786150794 -100764.76835767654,-12833343.413000531 538037.9916841544,-12056311.433260353 1085631.2750641298,-11151515.62748015 1524899.9641676855,-10124101.564760014 1838792.061603242,-8981165.463501208 2010530.4982043442,-7731799.214227547 2023835.5568975476,-6387113.678504828 1863155.8514742474,-4960238.522015231 1513905.5546813253,-3466297.0151943853 962705.3377147972,-1922354.4414239721 197624.2668766717,-347338.9901177375 -791580.2933993974,1238065.7207506888 -2013227.8949641737,2811557.052377046 -3473488.607369915,4349378.920284045 -5176168.390690181,5826516.426995387 -7122509.704581506,7216919.073348259 -9311010.861154,8493751.681842105 -11737267.631178161,9629671.762505323 -14393840.571597911,10597131.637650458 -17270151.45483639,11368703.22097893 -20352412.045001067,11917422.923577303 -23623588.28127744,12217153.739536708 -27063402.693546817,12242961.152661946 -30648377.58911381,11971499.108701369 -34351921.21254365,11381401.920619557 -38144458.69376953,10453677.623682791 -41993609.16431468,9172097.978653373 -45864409.93984387,7523580.041312894 -49719588.142208934,5498553.980913819 -53519879.56930126,3091311.6449008803 -57224394.020743884,300330.2380281319 -60791025.65682513,-2871434.583818183 -64176906.31292414,-6416291.906237588 -67338899.01850359,-10321600.667158468 -70234128.28572012,-14569602.173628448 -72820543.04560395,-19137305.2903006 -75057507.42794529,-23996429.26302524 -76906413.91330524,-29113408.75662756 -78331312.74122408,-34449465.21892613 -79299550.84728865,-39960748.13359365 -79782413.03307101,-45598549.093898684 -79755757.55698518,-51309590.92009731 -79200637.88080284,-57036393.25884705 -78103901.9257183,-62717715.24816566 -76458759.89308794,-68289074.91213739 -74265311.49748918,-73683343.97284637 -71531023.35223025,-78831415.74121535 -68271147.24795605,-83662942.68303065 -64509070.18074502,-88107139.16202909 -60276587.22336572,-92093643.75019298 -55614088.69734044,-95553434.37900227 -50570653.59812153,-98419788.49792895 -45204041.853597626,-100629279.32226968 -39580578.75845169,-102122798.20657603 -33774925.82309382,-102846592.18802336 -27869733.303810325,-102753304.82200345 -21955170.836451627,-101803007.5962112 -16128333.873586446,-99964208.47563374 -10492525.016879233,-97214823.51519437 -5156410.832803119,-93543096.99481025 -233056.32910831028,-88948455.19840363 4161159.061859542,-83442278.78787306 7907738.414262313,-77048578.72841924 10887369.79626593,-69804560.91442405 12981325.14893522,-61761065.03567887 14072944.57751955,-52982863.82031134 14049193.2771717,-43548809.59984843 12802276.55462576,-33551816.167526178 10231296.70975389,-23098665.144929837 6243933.931586173,-12309627.533661082 758131.8681737289,-1317892.8040697484 -6296232.825043244,9731200.244010959 -14975718.841816643,20681134.533024423 -25321749.36547757,31365389.090478156 -37359125.649587505,41608815.74608424 -51094649.23062372,51229214.540694445 -66515877.23486163,60039101.53038144 -83590035.2257041,67847659.85151008 -102263111.71681511,74462862.02021636 -122459157.83379146,79693748.50297357 -144079814.62953687,83352844.64777845 -167004089.23535275,85258695.14357519 -191088399.354744,85238492.31720814 -216166903.57690445,83130771.82196437 -242052132.6037056,78788146.66109829 -268535933.75334466,72080048.065533 -295390738.0367165,62895439.55006425 -322371155.71426606,51145468.54932869 -349215902.55264604,36766018.42583941 -375650055.0372603,19720122.388429787 -401387628.59005,200.00000049155832" stroke="white" stroke-width="1.5" /></svg>