<?xml version="1.0" encoding="utf-8" ?>
<svg baseProfile="full" height="400" version="1.1" width="400" xmlns="http://www.w3.org/2000/svg" xmlns:ev="http://www.w3.org/2001/xml-events" xmlns:xlink="http://www.w3.org/1999/xlink"><defs /><rect fill="black" height="100%" width="100%" x="0" y="0" /><circle cx="200" cy="200" fill="yellow" r="20" stroke="orange" stroke-width="2" /><polyline fill="none" points="199.1424616449623,200.0 199.16915626769142,199.95638449941578 199.20294571455702,199.91608533249203 199.2437191323985,199.88001357010614 199.2912659021083,199.8490948938364 199.34527139705662,199.82425926237673 199.40531374539668,199.80642983935013 199.47086170356965,199.79651127101536 199.54127374168516,199.79537741638248 199.61579843311415,199.80385864593975 199.6935762305831,199.8227288383506 199.773642699314,199.8526922169092 199.8549332643469,199.8943701790411 199.9362895141626,199.94828828249734 200.01646708617693,200.01486356090993 200.09414514170172,200.0943923488531 200.16793741869654,200.18703880229194 200.23640483021438,200.29282430410692 200.2980695550585,200.41161794608823 200.3514305450116,200.54312827823068 200.39498035030138,200.68689651318616 200.4272231419705,200.84229136822134 200.44669378679302,201.00850571888083 200.45197780760628,201.18455522769779 200.44173203970809,201.369279097675 200.41470577261572,201.5613430838679 200.36976214632318,201.7592448772517 200.30589955255138,201.96132195320425 200.2222727747016,202.16576195247364 200.11821358562491,202.3706156355538 199.9932505102403,202.57381242213376 199.8471274507871,202.77317849592367 199.67982086639256,202.9664574219425 199.4915551959557,203.1513331885694 199.2828162143573,203.3254555506393 199.05436201693917,203.48646751296775 198.80723133625375,203.63203475632412 198.54274890843075,203.75987677046606 198.26252762426358,203.86779942186482 197.9684672223587,203.95372864768197 197.66274930843736,204.01574493290835 197.34782851610515,204.052118194877 197.02641966001605,204.06134266914572 196.70148077221018,204.0421713635593 196.376191956283,203.99364962368307 196.0539300416738,203.91514733328253 195.73823907140056,203.8063892586282 195.4327967106115,203.66748303562133 195.14137671989783,203.49894429453155 194.8678076958845,203.30171841893755 194.61592834159092,203.07719844364587 194.3895395897793,202.8272386112557 194.19235396327838,202.55416312890625 194.02794261633474,202.2607696957788 193.89968055960423,201.95032740825098 193.81069062762552,201.62656869324923 193.76378680066074,201.29367497126643 193.76141754176965,200.9562558085577 193.8056098540244,200.6193213829544 193.89791480099058,200.28824815919654 194.03935526513473,199.96873774722758 194.23037674282443,199.66676899996287 194.47080199026612,199.38854349497376 194.75979034132186,199.14042463655306 195.09580251496988,198.92887070987388 195.47657171661135,198.7603623164556 195.89908181294746,198.64132471884318 196.35955332433286,198.57804572114406 196.8534379310385,198.57658980962256 197.3754221305383,198.64270937263532 197.9194406117158,198.7817539104513 198.47869982885763,198.99857823154696 199.04571216369973,199.29745071138197 199.6123409580264,199.68196276100915 200.16985658295394,200.1549407147291 200.70900358480117,200.71836139695762 201.22007881226745,201.373272667171 201.69302028658493,202.11972026692496 202.1175064266419,202.9566823032912 202.48306508620246,203.8820126974951 202.77919170185734,204.89239490508254 202.99547568995567,205.98330717372937 203.12173407036144,207.1490005461575 203.1481511364397,208.3824907380191 203.06542283631498,209.675564923762 202.86490438234546,211.01880434730396 202.53875946618692,212.401623538973 202.08010932808688,213.8123267660189 201.48317981347643,215.2381821717183 200.7434444498396,216.66551386862253 199.85776149451226,218.07981204602885 198.8245028417166,219.46586093178573 197.64367263687828,220.8078842158297 196.31701343009073,222.0897072994412 194.84809771028816,223.29493548241092 193.24240269888867,224.40714694269448 191.50736634774256,225.41009910251995 189.65242258228304,226.28794671434224 187.6890139576441,227.02546974274927 185.63058005365917,227.60830886784646 183.49252012422298,228.02320619533722 181.29212873722358,228.25824853216065 179.0485033924804,228.30311037789178 176.78242338576842,228.1492935949366 174.51619949555345,227.79036055863008 172.27349440353177,227.22215745537895 170.079114118042,226.4430242965719 167.95877104801116,225.45398815154078 165.9388197709886,224.25893607760779 164.04596694823906,222.8647642421339 162.30695725862364,221.28149979310544 160.74823764651208,219.52239214338977 159.39560260228885,217.60397049115153 158.27382361186218,215.54606460635534 157.4062663183915,213.3717861715686 156.8144993294169,211.1074682746018 156.5178989697248,208.78256101046674 156.53325461851784,206.4294815595944 156.87437957263361,204.08341756646928 157.55173263955447,201.7820831453072 158.57205587875072,199.56542738391443 159.93803407167013,197.47529579945788 161.64798160386334,195.55504581585262 163.6955624821067,193.84911797640655 166.0695491801939,192.40256527111617 168.75362590507592,191.26054363876065 171.72624169664127,190.46776739222932 174.96051851673573,190.06793400328527 178.4242191439212,190.1031233616206 182.07977926873707,190.6131772835482 185.88440767955706,191.63506567856427 189.79025784226206,193.2022463775872 193.74467350966341,195.34402617502042 197.69051025183074,198.08493112791783 201.56653398027677,201.44409457950653 205.3078966525889,205.43467172137517 208.84668839603614,210.06328976929248 212.11256428658075,215.3295429928573 215.03344297243385,221.22554190054686 217.53627324881427,227.73552583150817 219.54786358401128,234.83554803678174 220.99576847836147,242.49324203971213 221.80922442045213,250.66767764342782 221.92012710272735,259.30931439905464 221.2640404864314,268.3600596598104 219.7812272788131,277.753437522873 217.4176894195426,287.4148740041502 214.12620628446348,297.2621027037511 209.86735751933767,307.20569400687094 204.61051673029053,317.1497095325999 198.33480169709676,326.9924821004649 191.02996635563127,336.62751994185135 182.69721953139356,345.94453225333007 173.34995531070106,354.83057148574596 163.01438002243694,363.17128600302334 151.73002108222713,370.8522749460899 139.55010343204967,377.76053531989953 126.54177999907914,383.7859895066112 112.7862035035159,388.8230796182779 98.37842806935782,392.7724133618882 83.42713043518751,395.5424444232313 68.05414212202061,397.05116880950067 52.39378568719982,397.22781715002213 36.59201016938479,396.0145216663175 20.805322998968336,393.3679354131423 5.199517996687575,389.2607804869348 -10.051798406410228,383.6833012222279 -24.76887794253915,376.64459797376054 -38.76769071916439,368.17381693453564 -51.86196445279637,358.32117158811667 -63.86538938444539,347.15877185505747 -74.59397258325623,334.78123778372907 -83.86852239643775,321.3060757671547 -91.51724089715026,306.8737967485515 -97.37839935647389,291.6477577141027 -101.30306906152367,275.8137099629669 -103.15787726098989,259.57904018824087 -102.82775568440178,243.17169329046146 -100.21864699506898,226.8387690644082 -95.26013274157367,210.8447884325615 -87.90794491068323,195.46962872168237 -78.14632209615598,181.00613156443686 -65.99017062165649,167.7573913226062 -51.48699072791874,156.03373643383642 -34.71852818724753,146.14942073683642 -15.80211247150541,138.41904658242572 5.108356102447601,133.15374633741558 27.821805973607894,130.65715367841753 52.10981398690069,131.22120079309812 77.70687539807084,135.1217821937467 104.31115096381295,142.61433023631162 131.58571370035156,153.92935155937744 159.16031318763703,169.267977442741 186.63367005266093,188.79758446471178 213.5763075132426,212.64754474178997 239.53392064055308,240.90516739602813 264.03127735047815,273.6118946484247 286.5766381149131,310.75981701855983 306.66667405670506,352.28857246295854 323.79185552671504,398.08269385411245 337.44227553654036,447.96946794163273 347.1138646212197,501.71736680674934 352.3149459247847,559.0351097895684 352.57307163581277,619.5714099124585 347.44207445329187,682.9154539300653 336.50926064241645,748.5981593047078 319.40266455583196,816.0942446451845 295.7982783607102,884.82514247901 265.4271652389637,954.1627746875502 228.08235962931545,1023.4342015682136 183.62545426614935,1091.9271453590381 131.99277094778324,1158.8963782436306 73.20101023753027,1223.570953436813 7.352274759374893,1285.1622460354795 -65.36163851745061,1342.8727580198754 -144.6557795279947,1395.9056292350392 -230.1495189208634,1443.4747835097864 -321.36504848939364,1484.815626430776 -417.7269958211558,1519.1961988418084 -518.5632327737737,1545.9286780508864 -623.1069478714726,1564.3811071744074 -730.500041694218,1573.9892222086878 -839.7978918358497,1574.2682364764294 -949.975520096026,1564.8244332334914 -1059.9351793213657,1545.3664096221225 -1168.5153608239702,1515.7158089996794 -1274.501205702721,1475.8173741300068 -1376.6362848187066,1425.748150962893 -1473.6356927969243,1365.7256718987442 -1564.200381428844,1296.114948680826 -1647.0326374425413,1217.4341084994116 -1720.8525890145304,1130.3585126352223 -1784.4156048646237,1035.723205096485 -1836.5304295612118,934.5235492731877 -1876.0778790421518,827.9139236758175 -1902.0299016099107,717.2043633475864 -1913.4687920804267,603.8550515116488 -1909.6063306501956,489.4685863787084 -1889.8026036941342,375.7799707025978 -1853.5842514142196,264.6442965038382 -1800.6618773166338,158.02212422024354 -1730.9463471845652,57.96258419013364 -1644.5637008016254,-33.41574140813401 -1541.8683984166296,-113.94606651694585 -1423.454626050388,-181.43665690126625 -1290.165389429155,-233.6959382577507 -1143.0991357561177,-268.5592679328474 -983.6136558351707,-283.9171480939481 -813.3270363343076,-277.74462536895965 -634.1154532704372,-248.13159011379122 -448.1076231176163,-193.3136580455934 -257.6757572412739,-111.70328846662682 -65.42289854406613,-1.9207671819445125 125.83344387803967,137.17534103127167 313.0814058377682,306.4586854320963 493.13862499850086,506.50699888810556 662.6797971241313,737.5757868676492 818.2678359469858,999.5742857581326 956.3884897035847,1292.0441423420605 1073.4882145217864,1614.141262697166 1166.0150509209777,1964.6212694070175 1230.4621953094136,2341.828990501231 1263.413904175565,2743.6923817745987 1261.593315360279,3167.72125591094 1221.9117190854818,3611.01115707884 1141.5187620535269,4070.2526783680514 1017.8530216905583,4541.746471671925 848.6923452714599,5021.4241455553565 632.2033110215887,5504.8751865288705 366.98913612381466,5987.379973320513 52.135330635520376,6463.948882634664 -312.74762262033335,6929.367409042477 -727.4852933799702,7378.247141687589 -1191.3047685817983,7805.082357132558 -1702.8052844063643,8204.311901726323 -2259.934738308475,8570.3859492352 -2859.972768252216,8897.837131127788 -3499.5210507278935,9181.355448889557 -4174.501423005659,9415.866291180124 -4880.162378338243,9596.610794714705 -5611.094415456291,9719.227707666192 -6361.254645832596,9779.835839402707 -7124.000974091591,9775.116111772042 -7892.136069017402,9702.392166197591 -8657.961235428875,9559.708428833508 -9413.340181456588,9345.904494184704 -10149.772552340974,9060.684657130563 -10858.476971794396,8704.681405342508 -11530.483196405272,8279.511679716466 -12156.732848827509,7787.824720613756 -12728.188053052801,7233.340343268831 -13235.947151498654,6620.876527389087 -13671.366540669767,5956.365264303139 -14026.187521586247,5246.855680399545 -14292.66692492595,4500.503548241507 -14463.710140886249,3726.5464066491872 -14533.005062172004,2935.263637998616 -14495.155337330461,2137.920994556811 -14345.811232963672,1346.6992251842644 -14081.796319218665,574.6066282714057 -13701.22812540567,-164.62445483009822 -13203.63086357745,-856.6569907829048 -12590.038289270131,-1486.6840229307954 -11863.08476207584,-2039.5782104575146 -11027.08258585698,-2500.0552636342654 -10088.083750587908,-2852.850169206153 -9053.924266178004,-3082.9048666680287 -7934.2493740939135,-3175.5658039119735 -6740.518045782284,-3116.7895724502746 -5485.985328128223,-2893.3546012362794 -4185.661275457999,-2493.0766772477546 -2856.2454145633587,-1905.0258637778434 -1516.0359231631867,-1119.742207163772 -184.81296202592148,-129.44746285432137 1116.3041148474786,1071.750064372908 2365.0256409383946,2487.660580301751 3538.0862509834087,4119.830854412223 4611.464525726895,5967.378405085108 5560.626607010179,8026.844965407515 6360.792353163756,10292.072349302744 6987.222228323763,12754.103768166577 7415.52274020903,15401.113536053248 7621.967863602977,18218.36794526085 7583.833516099694,21188.219892911016 7279.741793648089,24290.139592285926 6690.011331310246,27500.78341029567 5797.009834828455,30794.10253508924 4585.504536540374,34141.49279667441 3043.0060703874283,37511.986540286685 1160.1010406745272,40872.48698960042 -1069.2316168112739,44188.04503780851 -3647.325509587617,47422.17787288477 -6572.558000261782,50537.228283419965 -9839.112870651952,53494.76290834227 -13436.779505164981,56256.00709333404 -17350.79354565509,58782.31340510673 -21561.723786016395,61035.6602387855 -26045.40981915727,62979.17634084399 -30772.95462015028,64577.68646815627 -35710.77584643505,65798.27282102176 -40820.71915902161,66610.846332991 -46060.23631867746,66988.72138174482 -51382.63019003436,66909.1870120499 -56737.36809738255,66354.06734284491 -62070.464222643765,65310.263474659514 -67324.93092371222,63770.268929488484 -72441.29798616738,61732.65045126569 -77358.197910524,59202.4858791231 -82013.01438896636,56191.75078501207 -86342.59014920273,52719.64564864642 -90283.98934893942,48812.85553192275 -93775.30870369537,44505.73451685552 -96756.53053524367,39840.407589411465 -99170.40995063381,34866.78318904916 -100963.38741588971,29642.470301550824 -102086.51708795139,24232.594750752018 -102496.40042749708,18709.510241399144 -102156.1138483739,13152.400717411292 -101036.11848100954,7646.771722388968 -99115.13955171083,2283.8296757785065 -96381.00242125239,-2840.2506996523416 -92831.41199815665,-7625.16915547421 -88474.66205736926,-11967.449775069917 -83330.26096555547,-15761.493243445813 -77429.46045074503,-18900.72527450406 -70815.67436594154,-21278.833324969248 -63544.77489146711,-22791.08209789361 -55685.25430535092,-23335.696721597687 -47318.24132914627,-22815.300902765586 -38537.362130227906,-21138.395816957025 -29448.437330622386,-18220.864038585623 -20169.007834044536,-13987.481448588665 -10827.683931785306,-8373.418815071396 -1563.3139764491916,-1325.7136437050142 7476.029090460521,7195.3080360723525 16134.242919002554,17214.681023139412 24248.569910372098,28741.543036723546 31651.14521631702,41767.991444259496 38170.71093124961,56268.0765625189 43634.48624916393,72196.9532409284 47870.180731090084,89490.21192216012 50708.13518638631,108063.4095631455 51983.57204453501,127811.81967988353 51538.93451695351,148610.41934499136 49226.291356055866,170314.12921471638 44909.78164808821,192758.32059258423 38468.07186474395,215759.60115450574 29796.795384411278,239116.8882736792 18810.942915396092,262612.77590606094 5447.170748503259,286015.1977461067 -10334.00742801567,309079.3858599953 -28546.180266263527,331550.1202764006 -49175.185632498906,353164.2610944067 -72177.4802570671,373653.55059015105 -97478.7674179545,392747.66860844544 -124972.91706864368,410177.52025731583 -154521.2114893905,425678.7306302763 -185951.94770884782,438995.31701500167 -219060.4255994041,449883.50486279064 -253609.34768957127,458115.6497482767 -289329.6533612505,463484.22370297083 -325921.8062162115,465805.8207206006 -363057.5490188934,464925.1329687871 -400382.1357730932,460718.8463626643 -437517.045196943,453099.4017231205 -474063.17415995954,442018.5658155288 -509604.5035813572,427470.7552020769 -543712.2229116289,409496.05509680347 -575949.2926876574,388182.8753378794 -605875.4178310279,363670.1862323372 -633052.397421913,336149.2784242997 -657049.8097053131,305864.9931219409 -677450.9841568593,273116.3720166317 -693859.2056411073,238256.68005718137 -705904.0891297874,201692.75891079198 -713248.0572078923,163883.6744484647 -715592.846781271,125338.62792373357 -712685.9661112512,86614.10764620204 -704327.0186408715,48310.265850428 -690373.8061435601,11066.514079291663 -670748.1206160925,-24443.66031994657 -645441.1321474224,-57518.64412030264 -614518.2788122868,-87435.39171944805 -578123.5645454385,-113456.82859758004 -536483.1720232117,-134839.9200131077 -489908.29987848626,-150844.348944424 -438797.1371566038,-160741.73595112682 -383635.8928247879,-163825.32237135898 -324998.8044038111,-159420.02723874414 -263547.0574104564,-146892.77764488786 -200026.55627976038,-125663.00214936484 -135264.49775588585,-95213.16741016906 -70164.70936169403,-55099.22963763005 -5701.728421831568,-4960.864927905261 57086.38885410725,55468.66382922249 117106.52361951082,126353.15079087019 173220.19530430622,207744.75259343887 224254.46965347734,299576.108100815 269014.0188112535,401653.4252990484 306294.26034334244,513650.68638101686 334895.4837630096,635105.1182789734 353637.8547100362,765414.0700321009 361377.1686476321,903833.4303535882 357021.2080276126,1049477.708543012 339546.5395761741,1201321.8894550758 308015.57192785264,1358205.1585911666 261593.6785465842,1518836.5765600137 199566.17698648042,1681802.7632216131 121354.94332759823,1845577.6308783537 26534.430337436097,2008534.1830346126 -85153.15018549867,2168958.3706684993 -213783.7260866065,2325064.9718361343 -359238.59273488977,2475015.4329816727 -521193.2183922248,2616937.5818079053 -699107.8723740315,2748947.0922557563 -892220.3150686064,2869170.5523578576 -1099540.7792572682,2975769.9558108733 -1319849.4590532926,3066968.4084158437 -1551696.7060840349,3141076.8114501345 -1793406.1122459653,3196521.2559614466 -2043080.6344780715,3231870.835330941 -2298611.8895817185,3245865.558665621 -2557692.71626919,3237444.0250828406 -2817833.0675030444,3205770.499175474 -3076379.2589988885,3150261.011322729 -3330536.559762629,3070608.0934571996 -3577395.0680290833,2966803.751815013 -3813958.7713227337,2839160.2734612036 -4037177.6429857947,2688328.4633476194 -4243982.579874775,2515312.9136407687 -4431322.937521672,2321483.917325633 -4596206.370441405,2108585.6538755973 -4735740.637034177,1878740.296251181 -4847176.981304795,1634447.7157648387 -4927954.658056469,1378580.4944753617 -4975746.124992166,1114373.9937331984 -4988502.384966255,845411.2721929218 -4964497.925176682,575602.6968699282 -4902374.668077146,309160.14639194636 -4801184.321914861,50565.76614809006 -4660428.4977415595,-195464.69985304572 -4480095.945154432,-424023.90644181555 -4260696.251514943,-630060.0674613857 -4003289.3495339453,-808429.036636337 -3709510.186412408,-953950.9896540522 -3381587.924631836,-1061471.3093009503 -3022359.07036221,-1125925.1965021717 -2635273.9605778484,-1142405.4517638413 -2224396.08452511,-1106232.7948293814 -1794393.7692475806,-1013028.0164006689 -1350523.822408886,-858785.1856438759 -898606.7985047691,-639945.0720276233 -444993.6364418097,-353467.8809702057 3476.49303288245,3095.6490532354837 439527.19298718625,431535.78374370147 855504.6560146917,932918.9943264454 1243446.1344408565,1507527.8762303628 1595156.7913320318,2154806.85022551 1902294.5359731005,2873314.7106052535 2156462.3215526594,3660685.0711812126 2349307.2549290084,4513595.73204513 2472625.740006861,5427747.947651066 2518473.7489980063,6397856.519335556 2479281.1913244873,7417651.562626124 2347969.2298840336,8479892.71147488 2118069.2806263883,9576396.417950824 1783842.325721122,10698076.887192735 1340397.0748902252,11835001.054028418 783805.4255893314,12976457.860281838 111213.60248516963,14111041.931315001 -679052.6981182187,15226751.57790431 -1587390.87088982,16311100.866478913 -2612833.401967697,17351245.308611434 -3752971.0367871975,18334120.521238323 -5003888.821679061,19246593.00438771 -6360116.679899668,20075621.97540184 -7814596.113257553,20808430.99013387 -9358664.5265568,21432687.874927398 -10982058.553218516,21936691.291036364 -12672937.616478203,22309562.058339674 -14417928.79159799,22541437.180659145 -16202193.841006959,22623664.34368629 -18009519.07695112,22548994.50147907 -19822428.466209568,22311770.031727232 -21622320.130176052,21908105.826475978 -23389626.11294924,21336060.59665422 -25103994.992208365,20595795.608354665 -26744496.595130865,19689718.03898123 -28289847.757335275,18622606.144540194 -29718657.7300621,17401713.4676641 -31009691.503099225,16036849.391311334 -32142148.972194493,14540433.45701558 -33095957.544013683,12927521.0202362 -33852075.443489075,11215798.009537054 -34392802.67223246,9425542.791287547 -34702096.267309904,7579553.417151827 -34765886.231934935,5703038.847097206 -34572388.25843994,3823473.0947602596 -34112409.14413203,1970411.6329412516 -33379640.617177516,175269.82235894873 -32370937.14718906,-1528936.4163991488 -31086573.218241263,-3107886.98312593 -29530475.49486288,-4526289.817464882 -27710425.318069246,-5748247.217283288 -25638227.032219842,-6737653.974612981 -23329837.7674598,-7458624.4989437405 -20805454.48921094,-7875945.5472123595 -18089554.377510455,-7955550.634570217 -15210884.91614656,-7665011.667062943 -12202400.454976818,-6974042.824171934 -9101142.458205925,-5855011.233456638 -5948061.165570022,-4283448.529181112 -2787776.9702751166,-2238556.979778746 331719.5458234391,296296.48673144454 3359429.286834208,3333105.3268513475 6241767.650840713,6878774.692495235 8923047.706363803,10934706.361580804 11346021.545445569,15496424.715851912 13452476.964028355,20553251.18069251 15183885.740807762,26088034.435832627 16482098.89371691,32076943.501990274 17290083.39890323,38489330.50260386 17552693.971466172,45287669.488867015 17217472.641930763,52427577.19835361 16235468.029563492,59857920.991897516 14562065.425723333,67521018.48063157 12157818.07029963,75352932.51715158 8989269.344864039,83283864.28500757 5029755.030402919,91238646.18403558 260174.29816019948,99137335.08181375 -5330282.268368773,106895905.29173093 -11743459.57199629,114427039.3552959 -18971631.89046358,121641013.3614919 -26996975.800200153,128446672.14172685 -35791134.00439644,134752488.2493233 -45314881.599261045,140467697.18293113 -55517905.81107918,145503499.86041948 -66338709.56466929,149774321.91159445 -77704648.39790955,153199117.95333874 -89532109.21609575,155702707.65921536 -101726838.18495971,157217129.15759113 -114184423.6954318,157682994.10873204 -126790938.8022434,157050827.74318615 -139423745.85017908,155282376.2120594 -151952464.16671324,152351862.82530564 -164240099.73086563,148247174.1570034 -176144333.6409444,142970956.59612456 -187518964.0164244,136541603.73563284 -198215493.70208833,128994115.03863525 -208084853.8185257,120380806.5126104 -216979250.8473205,110771854.67439866 -224754122.57888988,100255655.91011679 -231270185.91505015,88938984.43333404 -236395557.2376507,76946933.4266244 -240007923.861162,64422625.617761806 -241996743.0139707,51526681.490624 -242265442.87426713,38436435.557053305 -240733598.45595068,25344893.610340614 -237339053.63210812,12459426.630602954 -232039959.33196682,200.00000028416724" stroke="white" stroke-width="1.5" /><circle cx="249.92582360940372" cy="197.27747600144508" fill="red" opacity="0.7" r="10.646424733950354" /></svg>