<?xml version="1.0" encoding="utf-8" ?>
<svg baseProfile="full" height="400" version="1.1" width="400" xmlns="http://www.w3.org/2000/svg" xmlns:ev="http://www.w3.org/2001/xml-events" xmlns:xlink="http://www.w3.org/1999/xlink"><defs /><rect fill="black" height="100%" width="100%" x="0" y="0" /><circle cx="200" cy="200" fill="yellow" r="10.0000000000331" stroke="orange" stroke-width="2" /><polyline fill="none" points="201.3371720861938,200.0 201.35701978740698,200.0712373398617 201.36915689308023,200.14414619875635 201.37317434179255,200.2178585945405 201.36874519763566,200.29143601242632 201.35563449825415,200.36387627728453 201.3337086275229,200.43412167557486 201.30294406472996,200.50106830947337 201.2634353599764,200.5635766492675 201.21540218507732,200.6204832329059 201.1591953106638,200.6706134438948 201.09530136355696,200.71279528070426 201.0243462238964,200.74587401269483 200.94709692902674,200.76872759951118 200.864461960829,200.78028273314607 200.7774898050456,200.77953134469865 200.68736568519464,200.76554740148592 200.5954063898665,200.737503804873 200.50305313049066,200.6946891852312 200.41186238696233,200.63652437807144 200.32349472071104,200.5625783549004 200.23970155872755,200.47258337395812 200.16230997755787,200.36644910996802 200.09320554311415,200.24427551859458 200.03431329009513,200.1063641906771 199.98757695358336,199.95322795368665 199.95493659468602,199.78559848340768 199.93830479158564,199.60443169772117 199.9395415967104,199.41091071667353 199.96042848954605,199.2064461888309 200.00264158249877,198.99267380328305 200.06772436377202,198.77144882956668 200.15706028602105,198.54483755418357 200.27184553216915,198.31510551219185 200.41306230978344,198.0847024454153 200.58145304239343,197.8562439549443 200.77749583967247,197.63248985455525 201.0013816381004,197.4163192731525 201.25299340919796,197.21070259799544 201.53188783332607,197.01867039591224 201.83727983305477,196.843279496479 202.1680303509505,196.68757646876185 202.52263774207427,196.5545587711483 202.8992331313477,196.44713390145415 203.29558006010322,196.368076921274 203.70907871453034,196.31998677380568 204.13677499136938,196.305241857458 204.57537461316437,196.32595535776127 205.0212624568248,196.38393087675587 205.47052720539634,196.4806189314317 205.91899137411795,196.61707492025263 206.36224669844515,196.79391917864533 206.7956948042325,197.0112997599164 207.21459300925383,197.26885858677258 207.61410503134593,197.56570161988563 207.98935630241763,197.90037368325306 208.33549351017152,198.2708385710089 208.64774791151243,198.6744650364576 208.92150188420518,199.10801923115127 209.15235810738278,199.56766411960473 209.33621068804226,200.04896634365053 209.46931748077662,200.54691094949118 209.54837278278922,201.05592432033973 209.57057952684391,201.56990557840768 209.53372004235118,202.08226663228714 209.43622441039258,202.58598094999337 209.27723540323606,203.07364103474328 209.05666897384344,203.53752447072404 208.77526924701584,203.96966829058317 208.43465696208054,204.36195129619688 208.03737032823307,204.70618384063508 207.58689727853314,204.99420445344128 207.08769814772333,205.21798256480724 206.54521785296296,205.36972645846828 205.96588672556237,205.44199545979347 205.3571092260196,205.42781524628998 204.72723987406985,205.32079505434277 204.08554583984306,205.1152454502688 203.44215577116327,204.806295237512 202.80799457488857,204.3900059868692 202.19470402613635,203.86348260483717 201.61454924720186,203.22497829827665 201.0803112766743,202.4739922533089 200.60516613718002,201.6113583243056 200.202551005617,200.6393230265018 199.88601829075955,199.56161114450052 199.66907862758214,198.38347730992783 199.56503400326335,197.11174196571716 199.58680243410254,195.75481022270785 199.74673581288465,194.32267222694682 200.05643273980405,192.8268837935204 200.52654833404594,191.28052622486183 201.1666031945967,189.6981444179193 201.98479383483752,188.09566257463266 202.98780705299396,186.4902770628285 204.1806408166178,184.90032622851965 205.566434331091,183.34513723394932 207.1463100268934,181.8448502864555 208.9192302354498,180.42022092889687 210.88187132634332,179.09240138017174 213.02851804736505,177.88270224113796 215.35098074135612,176.8123362135391 217.83853800850517,175.90214581359626 220.47790723847126,175.17231739369956 223.25324525259117,174.64208411084502 226.14618107212644,174.3294207946299 229.1358825641084,174.25073396609042 232.1991584124499,174.4205505366794 235.31059651974965,174.851208969406 238.44273956630897,175.55255690675966 241.56629803956034,176.53165945772727 244.65040060222793,177.79252248431382 247.66288119450175,179.33583533199862 250.57060176832545,181.15873750425516 253.3398090351323,183.25461378470175 255.9365230771361,185.61292225809382 258.32695513222944,188.21905957012308 260.477951319796,191.0542675933052 262.3574585358698,194.09558543013637 263.9350082180447,197.31585038388104 265.1822131706358,200.68375116121877 266.073272156397,204.16393613971036 266.58547651032774,207.71717903764466 266.69971262162665,211.30060376616518 266.40095376951297,214.86796962641685 265.6787344952268,218.37001734149067 264.52760045360867,221.75487568881206 262.94752652055854,224.96852772889906 260.9442958442542,227.95533481762945 258.52983252465555,230.658615748749 255.72248069326076,233.0212775096618 252.54722294831757,234.98649325575153 249.03583138385633,236.49842222656915 245.2269448371793,237.5029654518786 241.16606647090387,237.9485502381093 236.90547640326255,237.7869355980891 232.50405480376742,236.97403000130925 228.02701167890433,235.47071209100358 223.5455204811488,233.24364435074568 219.1362536797675,230.26606911986687 214.88081952754186,226.51857586638585 210.86510043616119,221.98982824064794 207.1784946254679,216.67723916432357 203.91306402737004,210.58758206899466 201.16259279192525,203.73752639658431 199.0215621472688,196.15408561966063 197.5840487917471,187.8749663412503 196.94255542958888,178.94880749791855 197.1867834832928,169.43529932161306 198.40235940820156,159.40517251850775 200.66952737816882,148.9400490982741 204.06182238582346,138.13214743428006 208.6447389862285,127.08383545139779 214.4744119879953,115.90702731836953 221.59632634040082,104.72242065857203 230.0440742582641,93.6585730766978 239.838178248259,82.85081871695564 250.98499913178,72.44002760602645 263.47574838229957,62.5712126738581 277.2856240926245,53.391991567663126 292.3730896445122,45.050912657069375 308.6793136566663,37.69565694692059 326.1277890263946,31.471129942276917 344.62414784694914,26.51745981941383 364.0561876713708,22.967920517073452 384.2941230022412,20.94680054248414 405.1910740161197,20.5672403542479 426.5838023862102,21.92906310583524 448.2937016552095,25.1166252754235 470.12804694457014,30.196715236494327 491.88150588264443,37.216529105629206 513.337909512584,46.20175420686812 534.2722786256771,57.15479118464353 554.4530974853121,70.05314615026569 573.6448232931684,84.84802423308385 591.610616038608,101.46315550238398 608.1152696042388,119.79388340863487 622.9283212182818,139.70654464541903 635.8273125937635,161.03816764300524 646.6011724245365,183.59651476240072 655.0536863696352,207.16049066121153 661.0070173034835,231.48093625162753 664.3052354939408,256.2818241738345 664.8178155479075,281.2618677788289 662.4430544899495,306.0965512728684 657.1113632672319,330.4405839480378 648.78838235667,353.93077634259544 637.4778710382382,376.1893307804565 623.2243193394743,396.82753307747623 606.1152316943744,415.4498263256331 586.2830320346513,431.6582416335025 563.9065413769194,445.05715457715854 539.2119810140164,455.2583299698448 512.4734571837198,461.88621146651985 484.01288658744687,464.58340655998575 454.19932637079165,463.01631178185505 423.44767715376054,456.8808174799752 392.2167333987701,445.90802649203147 361.00656180647775,429.86991646184447 330.3551955006692,408.58487153930474 300.8346394605994,381.923005854801 273.04619092854534,349.81119854997553 247.61508729733833,312.23775836077016 225.18450319211692,269.25663486335054 206.40892801686064,220.99109357992532 191.94696504384703,167.6367732637968 182.45360307773535,109.46404589645968 178.57202171159383,46.819603279913366 180.92500108770298,-19.87280137108641 190.10601675228756,-90.11252271709378 206.67010951539746,-163.32316242531738 231.1246290552827,-238.85472899317045 263.91995819789315,-315.9868598229467 305.44033221202875,-393.9331366774096 355.99487394466905,-471.84651413125255 415.8089710364321,-548.8258681033597 485.016125665097,-623.9236580976093 563.6504101322959,-696.1546825006227 651.6396630096222,-764.5058913063679 748.7995603796663,-827.9472050990125 854.828694841334,-885.4432731828922 969.3047913075179,-935.9660875731499 1091.682183133219,-978.5083533381446 1221.2906647179943,-1012.0974997137325 1357.3358273926713,-1035.810200700158 1498.90097411279,-1048.7872587241677 1644.9506952497723,-1050.2486906291242 1794.3361726298467,-1039.5088419768326 1945.8022619808448,-1015.9913436411791 2097.9963851952443,-979.2437141804287 2249.4792434203405,-928.951402723814 2398.7373400858005,-864.9510603243257 2544.1972797476506,-787.2428231296926 2684.2417842654345,-696.0013885108303 2817.227342563275,-591.5856656489005 2941.5033843098417,-474.5467851866738 3055.432841565482,-345.63425854201 3157.413936089235,-205.8000864799231 3245.9030038975216,-56.20062863431275 3319.4381431616457,101.80393908209359 3376.663446980039,266.6527338194072 3416.353559333001,436.58997494395885 3437.4382709997253,609.673601383386 3439.0268527718035,783.7867778615315 3420.431806315226,956.6523401814247 3381.191698890519,1125.8501965051064 3321.0927372044102,1288.8376659342694 3240.188728286839,1442.972697895953 3138.8190717943644,1585.539876208687 3017.6244288389985,1713.7790706170995 2877.5597176020806,1824.9165564505074 2719.9040958506166,1916.198380337382 2546.2676052209795,1984.9257070851747 2358.5941719154216,2028.4918404390712 2159.160683362127,2044.4205690208978 1950.5718904525793,2030.4054489006405 1735.7509201623914,1984.3495965688783 1517.9252235895224,1904.4055311727025 1300.6078295432196,1789.0145733702136 1087.5738235539607,1636.9452806695463 882.8320262406662,1447.3303762584308 690.5919029839324,1219.7016106938736 515.225798355749,954.0219839780792 361.22665321573277,650.714750031493 233.16142919749373,310.6886268791965 135.62053380285795,-64.641355566772 73.16360875715397,-473.3379220387419 50.26211385424466,-912.931060509813 71.23920738007462,-1380.4134682649685 140.2074914431752,-1872.2423901863258 261.0052552151078,-2384.348254940973 437.13191021681325,-2912.1504573773313 671.6833683806642,-3450.580569877527 967.2881646646345,-3994.11319194696 1326.0451704879288,-4536.8045663326575 1749.4637812042915,-5072.33900195236 2238.4074892648205,-5594.083049511361 2793.0417737235225,-6095.147275631207 3412.787245436167,-6568.455376476925 4096.2789849004,-7006.820263235588 4841.332995466797,-7403.02664046178 5644.920668003394,-7749.919485471269 6503.1521135194635,-8040.497723936467 7411.269167373452,-8268.012285007508 8363.64880227271,-8426.067610124166 9353.817607238785,-8508.72558473295 10374.477896144324,-8510.61076296684 11417.545902584767,-8427.015663605296 12474.202398169913,-8254.004832947336 13534.955939436091,-7988.516298234073 14589.718805311704,-7628.458975563421 15627.895533439892,-7172.804550412798 16638.48380088506,-6621.672318425785 17610.187224242494,-5976.4054604343155 18531.53947753097,-5239.637230071373 19391.03894526714,-4415.345555937598 20177.292944758265,-3508.8946041119357 20879.17036802566,-2527.0619116499943 21485.96141215488,-1478.0497881964445 21987.54288965349,-371.4797913220941 22374.547440080794,781.6307881939503 22638.53480337982,1968.911342324792 22772.16316662509,3176.7000000362104 22769.35846196055,4390.125861862364 22625.479377000534,5593.211742084115 22337.475742515293,6768.997512532201 21904.037888367697,7899.683891999015 21325.73450984229,8966.796260397436 20605.13656499,9951.36779945571 19746.924731508825,10834.14097449611 18757.977990851396,11595.786077624014 17647.440979315434,12217.135254644982 16426.767852128873,12679.430139683749 15109.740547961872,12964.580926490105 13712.459518478809,13055.434417677958 12253.30520067246,12936.048316717872 10752.868758560115,12591.96876658905 9233.850904662017,12010.507897878037 7720.927929338966,11181.01793211274 6240.584415852951,10095.15819755762 4820.912498732739,8747.151258820024 3491.37792995545,7134.024242554503 2282.553648357071,5255.831363250749 1225.8219988044896,3115.853619254792 353.0472147405669,720.7716432001395 -303.779743988341,-1919.1922440516355 -712.9214217952922,-4790.166608442392 -843.2961055630099,-7874.561765178408 -664.8985303468462,-11151.042355888305 -149.23504534445414,-14594.544778438632 730.231215714311,-18176.34225965013 1997.6300388494153,-21864.15995544051 3674.2339787855917,-25622.342000376364 5778.01397411948,-29412.071911171977 8323.206655403912,-33191.647179121195 11319.899524737913,-36916.808268351095 14773.640377356225,-40541.121574606 18685.077461232155,-44016.41519827929 23049.636923835915,-47293.26565173452 27857.244070419118,-50321.532861536514 33092.09485061429,-53050.940048765595 38732.48379553942,-55431.6942835811 44750.694342577066,-57415.14272278847 51112.95710704174,-58954.45876110749 57779.48118753774,-60005.351568448845 64704.56302449822,-60526.7917575392 71836.7766698772,-60481.74523977155 79119.24857216924,-59837.90669353061 86490.01913805163,-58568.42349987033 93882.49240449791,-56652.60050668321 101225.97414907483,-54076.57557561372 108446.29768856373,-50833.95555681134 115466.53547564588,-46926.40213557407 122207.79341015193,-42364.15691175338 128590.08354661011,-37166.49511640369 134533.2696160893,-31362.09754850733 139958.07850144876,-24989.33063449611 144787.16952590775,-18096.424980241543 148946.25215131353,-10741.543403202737 152365.24145129483,-2992.730203969669 154979.43954318744,5072.265637816839 156730.73004922827,13366.299579429702 157568.77163041805,21793.27795056911 157452.17571422886,30248.74534289834 156349.6527384823,38620.61507769164 154241.1105764205,46790.043237706384 151118.68830992555,54632.44499565063 146987.7081958647,62018.65011618036 141867.5285404368,68816.19256749256 135792.28027265595,74890.72717070639 128811.47030361035,80107.56416084158 120990.43528385856,84333.31045473965 112410.63013618304,87437.60434298404 103169.7367514056,89294.92827062606 93381.57949494527,89786.48237257788 83175.83568232911,88802.09951233974 72697.53094093002,86242.18076661238 62106.31137755781,82019.62863320266 51575.486708571996,76061.7537456281 41290.840968808945,68312.12958501861 31449.210082096422,58732.36861782476 22256.828430229212,47303.79248519754 13927.449575952087,34028.968353989134 6680.2494523198475,18933.083335832525 737.5235956859199,2065.1290130918414 -3677.806660828823,-16501.131400489943 -6344.860738767801,-36666.439873087416 -7047.616439578215,-58305.58969830958 -5577.853639472085,-81267.26467354479 -1738.1958043802213,-105374.19296058253 4654.782035875176,-130423.63481173891 13767.41314473304,-156188.22047682272 25745.80375729689,-182417.15134336948 40712.741990008304,-208837.77371876678 58764.69248360215,-235157.53065801735 79968.9199972536,-261066.29290059578 104360.78646509579,-286239.06533564854 131941.26685253176,-310339.0605041035 162674.72946744162,-333021.1255123617 196487.0261524693,-353935.5034240062 233263.93697531256,-372731.9047677786 272850.0126155495,-389063.8593114552 315047.8555958397,-402593.3127663754 359617.87880552403,-412995.4276747695 406278.5764058192,-419963.542463885 454707.33818567207,-423214.2376023866 504541.83376141946,-422492.45304313593 555381.9876963263,-417576.5967613268 606792.560680629,-408283.580277559 658306.3453916124,-394473.7136711607 709427.9785883198,-376055.38981785125 759638.3634381512,-352989.4855031466 808399.6880839411,-325293.4057408318 855161.0181106693,-293044.697131756 899364.4319403273,-256384.1564936897 940451.6593602698,-215518.36233273105 977871.1744715634,-170721.55905735405 1011085.6854337514,-122336.82719494659 1039579.9545927199,-70776.47728475722 1062868.8740263353,-16521.61060628418 1080505.713350457,39879.20353821123 1092090.4489219286,97812.17664380785 1097278.0764836902,156601.5099164237 1095786.8029494388,215513.5876012044 1087406.007550245,273762.16842775425 1072003.8580897874,330514.5773728613 1049534.4647008383,384898.8876422992 1020044.451380328,436012.06977602694 983678.8248131162,482929.0712006011 940686.0206749461,524712.7755187639 891422.0098220594,560424.7764830276 836353.3506032916,589136.887105679 776059.0790310516,609943.2898818324 711231.3357635235,621973.2198264687 642674.637807146,624404.0581417722 571303.7135509939,616474.701036448 498139.83217685454,597499.0557189115 424305.5726118338,566879.5040900799 351017.9929418216,524120.1643792238 279580.1784970856,468839.7721070486 211371.16554392007,400783.99452950427 147834.2575314456,319836.987312771 90463.77198787445,226031.9988039805 40790.278248552015,119560.82607082046 364.4090171894534,781.9280479968485 -29260.64792299065,-129772.99520713216 -46547.84797673142,-271394.1418616953 -49996.02459420465,-423190.6419647033 -38160.48414527182,-584089.6493289267 -9674.261696106843,-752837.6409293319 36730.18300070052,-928004.0556516162 102199.07026596954,-1107987.3839566142 187735.46560242586,-1291023.7970133713 294177.78140511597,-1475198.378197908 422178.905861025,-1658458.9916985338 572186.2613045586,-1838632.7924940723 744423.1029978954,-2013445.3494035907 938871.374722237,-2180542.3185089985 1155256.43941068,-2337513.5683312113 1393034.0010634474,-2481919.621041083 1651379.5281296014,-2611320.236090802 1929180.478219012,-2723304.9243776873 2225031.6092671524,-2815525.1428513643 2537233.643000687,-2885727.8818274187 2863795.522679764,-2931790.320680737 3202440.4786125906,-2951755.19258631 3550616.08189521,-2943866.4660959514 3905508.429329421,-2906604.9211371625 4264060.5606828695,-2838723.170050677 4622995.163610262,-2739279.6510981647 4978841.57195156,-2607671.1030125287 5327967.010127764,-2443663.0151551045 5666611.980399795,-2247417.539185945 5990929.631338113,-2019518.345310896 6297028.885532754,-1760991.90956769 6581021.042978344,-1473324.7286284068 6839069.514376717,-1158475.9755456594 7067442.276545024,-818885.1340089256 7262566.580981849,-457474.1801858515 7421085.387247464,-77643.92020441809 7539914.9360158425,316735.86220140546 7616302.823332733,721342.7394815511 7647885.8886647895,1131424.6859800015 7632747.185649384,1541829.9979745247 7569471.266951141,1947044.1757995912 7457196.984179347,2341233.7750581475 7295666.981270424,2718297.1476841113 7085273.045902421,3071921.902582624 6827096.479139695,3395648.8205609964 6522942.649293236,3682941.860185103 6175368.912534679,3927263.7910687355 5787705.110635067,4122156.8900357676 5364065.8957213685,4261328.03478063 4909354.183446644,4338737.430363058 4429255.099615647,4348690.107445896 3930219.861116867,4285929.2390103815 3419439.119857593,4145730.235794111 2904805.39799324,3923994.5013492242 2394864.353633695,3617341.656877294 1898754.7377756892,3223198.98532014 1426137.034653012,2739886.795000123 987110.9180434449,2166698.366792713 592121.8041707738,1503973.12668918 251856.9363727883,753161.6788979603 -22868.403824381232,-83118.6555497309 -221233.80182758573,-1001039.1223916307 -332544.80965722835,-1995526.9219467791 -346371.1547739147,-3060245.9184856312 -252690.81139168263,-4187591.804333637 -42038.531077594394,-5368702.747989766 294342.7201351722,-6593486.431884846 764349.1111707776,-7850664.242201564 1374863.9035350904,-9127833.210899182 2131607.953375647,-10411546.129474353 3038994.7923724945,-11687410.056062829 4099992.4012861154,-12940203.223548783 5315993.848447021,-14154010.127986332 6686699.000826608,-15312374.335730312 8210009.525592116,-16398468.296371466 9881939.383413319,-17395279.189311076 11696542.969659429,-18285809.56727946 13645862.984655775,-19053291.29324298 15719900.008293489,-19681411.001114827 17906605.616752762,-20154545.048858214 20191900.70949671,-20458001.678475693 22559720.512986165,-20578267.854703657 24992087.494110346,-20503258.02675403 27469213.151908603,-20222561.84901587 29969629.361979157,-19727687.71111828 32470349.62571454,-19012298.76900162 34947060.22828286,-18072438.040417634 37374340.93769446,-16906739.034218892 39725914.485403866,-15516618.326360416 41974923.66022405,-13906446.479949454 44094234.425818525,-12083693.734864667 46056763.04208626,-10059046.967012463 47835824.73713818,-7846494.540368827 49405501.04443728,-5463375.848291189 50741022.494504996,-2930392.5653850934 51819162.93815603,-271578.9081275432 52618641.38447262,2485771.4684755187 53120526.86784074,5311223.930282047 53308641.52058436,8171368.240625701 53169956.727342986,11030031.936113812 52694976.98057651,13848542.2588184 51878105.849581994,16586036.635226771 50717988.32405431,19199821.087628134 49217823.70315016,21645775.3260627 47385643.177433535,23878802.604279354 45234546.29874279,25853321.737789012 42782890.65610054,27523797.98320122 40054429.27781657,28845308.773390524 37078390.56367389,29774139.601014733 33889495.918488435,30268404.65243666 30527910.710433748,30288686.124526683 27039124.714354508,29798685.517879616 23473758.820873454,28765879.601672787 19887295.494301785,27162173.197878636 16339731.242930697,24964540.44604399 12895150.219746964,22155645.794491664 9621218.994303517,18724435.629530307 6588603.520469885,14666691.210650146 3870310.3619614663,9985533.43585235 1540955.3185542617,4691869.925670368 -324036.2897756595,-1195225.005210787 -1649292.2875223465,-7648206.716783387 -2360412.718822007,-14630841.849597827 -2384937.654402451,-22098083.599990256 -1653354.9302892345,-29996048.4966498 -100137.93130205665,-38262101.77258576 2335197.5043990063,-46825057.55095439 5707028.953802623,-55605499.05160482 10062568.832051612,-64516222.881089255 15440824.939298933,-73462810.19760035 21871594.372588456,-82344326.1511528 29374505.58364759,-91054147.49760798 37958123.755472146,-99480916.68408602 47619134.90013244,-107509619.01624615 58341624.13355571,-115022777.76000793 70096463.447707,-121901760.21870139 82840823.96563727,-128028185.9802951 96517827.12108791,-133285426.66889755 111056348.44453189,-137560184.6823844 126370986.65665121,-140744136.57731313 142362209.56572345,-142735624.99806705 158916686.83720377,-143441381.36512038 175907818.0547463,-142778259.96387598 193196462.6277106,-140674962.6375376 210631876.02967593,-137073732.01192883 228052854.58750746,-131931990.0937551 245289088.5963109,-125223898.21276921 262162720.93053034,-116941813.64785905 278490105.57715356,-107097617.91121304 294083757.6582674,-95723891.58568412 308754483.5650347,-82874910.83849812 322313676.82427675,-68627441.28721242 334575762.29595816,-53081305.78625422 345360768.291045,-36359703.94606464 354497003.2428569,-18609262.799917996 361823810.70139366,199.99999955689387" stroke="white" stroke-width="1.5" /></svg>