<?xml version="1.0" encoding="utf-8" ?>
<svg baseProfile="full" height="400" version="1.1" width="400" xmlns="http://www.w3.org/2000/svg" xmlns:ev="http://www.w3.org/2001/xml-events" xmlns:xlink="http://www.w3.org/1999/xlink"><defs /><rect fill="black" height="100%" width="100%" x="0" y="0" /><circle cx="200" cy="200" fill="yellow" r="10.00000000000191" stroke="orange" stroke-width="2" /><polyline fill="none" points="201.71555122612014,200.0 201.76294398351067,200.0925465058623 201.80164017856907,200.18967846897604 201.8309074157035,200.29047944181525 201.85009246587086,200.39392545216214 201.85863505498318,200.4988905235953 201.85608143126655,200.6041538341409 201.8420975283757,200.70840853373056 201.8164815338397,200.81027222185452 201.77917566707066,200.90829906623978 201.73027696790336,201.0009935216811 201.67004689562685,201.0868255855099 201.59891953988307,201.1642475028144 201.5175082487896,201.23171181066886 201.42661048631186,201.28769058655485 201.32721074036618,201.33069574214605 201.22048131544472,201.35930017998533 201.10778085875495,201.37215960762606 200.99065048696764,201.36803478187127 200.8708074016319,201.3458139351639 200.75013590508038,201.30453511730974 200.6306757550995,201.24340816889423 200.5146078256335,201.16183602834107 200.4042370721323,201.05943506288403 200.30197283361406,200.93605410512373 200.21030653881513,200.79179187162046 200.13178692062942,200.62701243843233 200.06899288104046,200.44235845090603 200.02450418752622,200.23876175159916 200.00087022104074,200.0174511211604 200.0005770346843,199.77995684246784 200.02601302056982,199.52811181844163 200.07943351966227,199.26404899876442 200.16292474496822,198.99019490026535 200.27836742183135,198.70925903990332 200.42740057968152,198.4242191380046 200.61138595682348,198.13830199249452 200.8313735031737,197.85495997206795 201.08806848470516,197.5778431272565 201.38180070720998,197.3107669727946 201.71249638532768,197.05767605211156 202.0796531851428,196.82260345466966 202.48231896459734,196.6096265186488 202.9190747251134,196.42281901450386 203.38802226985882,196.26620016849097 203.88677703876132,196.14368094862036 204.41246655750595,196.05900809784129 204.96173489724032,196.01570645975872 205.53075349355515,196.01702019994266 206.11523861759036,196.06585358001777 206.71047572902617,196.1647119912991 207.3113508705457,196.315643998844 207.9123891865001,196.52018518450836 208.50780056547492,196.77930460802926 209.0915323178708,197.09335472743825 209.6573287061978,197.46202563342024 210.19879704838627,197.88430445580002 210.70948001397343,198.35844079347157 211.18293363059112,198.8819190011652 211.6128104148863,199.45143813696131 211.9929469390878,200.06290033299635 212.31745504319065,200.71140829808084 212.58081580453816,201.3912725948102 212.77797528286632,202.09602925518377 212.90444097109977,202.8184682079057 212.95637780184686,203.55067288772747 212.93070248812597,204.2840712828843 212.8251749158567,205.00949855153044 212.63848525652188,205.71727120291825 212.37033543255725,206.39727269490797 212.02151354678992,207.0390501474275 211.59395988186674,207.63192171309234 211.09082308722097,208.16509398288494 210.5165052007101,208.6277886382817 209.8766942004578,209.0093773933653 209.17838285030683,209.29952410326302 208.42987269009652,209.48833275083808 207.64076212996065,209.56649986415735 206.8219177360091,209.52546976518687 205.9854279428652,209.35759090780837 205.14453859607383,209.05627143302553 204.31356991359272,208.61613195357444 203.50781465935873,208.03315348147876 202.74341754193347,207.30481833276392 202.0372360858189,206.43024178585006 201.4066834702599,205.4102922362424 200.86955408798232,204.24769758205122 200.44383284184863,202.94713559442684 200.14748946807006,201.5153060757979 199.9982594473756,199.9609826882057 200.0134133371471,198.2950424450943 200.2095166245354,196.53047100338443 200.6021824593392,194.6823420689163 201.20581987219202,192.76776943739227 202.0333803144838,190.80583043438236 203.0961055675099,188.81745979094055 204.40328025563912,186.8253132946317 205.9619923578991,184.85360088754496 207.77690524045644,182.92788924095282 209.85004482531085,181.07487421796975 212.1806055646173,179.32212403770836 214.76477890212558,177.69779437338576 217.59560787032123,176.23031704851746 220.66287139136278,174.948064435228 223.95300171964928,173.8789921018888 227.44903828211008,173.0502626984662 231.1306209378971,172.48785450150865 234.97402539146697,172.2161584607126 238.95224315207824,172.25756798935421 243.03510803917248,172.6320661152575 247.18947078832608,173.35681495099578 251.3794228185643,174.44575274526724 255.56656968166533,175.9092040354799 259.7103541312778,177.75350862828893 263.7684281286236,179.98067528413975 267.69707244742307,182.58806606807786 271.45166185938376,185.56811734689754 274.9871731797954,188.90810335730808 278.2587327378295,192.58994813698976 281.2221991160662,196.5900913966537 283.8347762871754,200.87941361375397 286.0556515717244,205.42322524541618 287.8466521593509,210.1813244884754 289.1729132860282,215.10812745830742 290.0035505530712,220.1528740165045 290.31232831929907,225.25991175266165 290.07831560680927,230.36905982103852 289.28652054347833,235.41605345332596 287.92849403170936,240.33306902007817 286.002893092853,245.04932850275637 283.51599419939134,249.49178117418134 280.48214688097636,253.58585917716584 276.92415798355,257.2563025500419 272.87359717985,260.42804808569247 268.37101468034007,263.02717524058903 263.4660625804554,264.981901146247 258.2175119060745,266.22361563232676 252.6931581858623,266.6879460639486 246.96960928645,266.31584074186674 241.1319502924718,265.0546586296093 235.2732813945257,262.8592522734279 229.49412605853755,259.69302998587006 223.90170818212383,255.52898268878582 218.60909848772766,250.35066027305515 213.7342320468263,244.1530819461062 209.3988005606439,236.9435648193926 205.72702482481986,228.74245495034302 202.84431466070967,219.58374520949704 200.8758254849128,209.5155647046307 199.94492258999838,198.6005250688916 200.1715661004082,186.91590971648964 201.67063142394522,174.5536931922373 204.55018181569247,161.6203789926296 208.90971138128756,148.2366457159552 214.83837844314672,134.5367931040068 222.41325064903248,120.66798146219685 231.69758448974022,106.7892600790431 242.73916298436154,93.0703825975262 255.56871616086207,79.690409804016 270.19844958089556,66.83610297616701 286.6207065065139,54.70011374701747 304.80678936014147,43.478979372843924 324.70596586743875,33.37093530832979 346.24468467761335,24.573560062525814 369.32602431242174,17.28127039833879 393.82939799196777,11.68268800973118 419.6105352145404,7.957901825057263 446.5017589253295,6.275653000673714 474.31257469539656,6.790472443254998 502.8305855529933,9.639803288157935 531.8227429742313,14.941143120065448 561.0369410644297,22.789242806263076 590.2039571655947,33.2534005779317 619.0397380352429,46.374891397434936 647.2480263882921,62.16457264802861 674.5233180135665,80.60070773723399 700.5541349113964,101.6270492796666 725.0265949957334,125.15122308632344 747.6282539148724,151.04345320626345 768.0521895256692,179.13566671918048 786.0012945673272,209.22101484482604 801.1927381867355,241.05384420501966 813.3625522349877,274.35014873993265 822.2702937539366,308.78852884354137 827.7037308739092,344.01167975219715 829.4834955215476,379.62842611173556 827.4676429628342,415.2163139873045 821.5560553527503,450.32476539954973 811.6946242000362,484.4787938130602 797.8791450508467,517.1832719188977 780.1588568128606,547.9277356022048 758.6395580409117,576.1917002364441 733.4862332400896,601.4504574740877 704.9251238593583,623.181312593997 673.2451811869612,640.8702143097692 638.7988418484455,654.0187208394931 602.0020710692596,662.1512380898632 563.333624306194,664.8224581258286 523.333484273455,661.6249187942472 482.6004377755801,652.1965985626408 441.7887650834468,636.2284544398915 401.6040238105994,613.4718053828185 362.7979193103221,583.7454589778624 326.16226445060016,546.9424755348621 292.522043151286,503.0364611499999 262.72760418836657,452.0872798913947 237.64602437302432,394.24607512965076 218.15169317389453,329.7594912639454 205.11618403215996,258.97298975759526 199.3974908717526,182.33315755852516 201.82872147085845,100.38891168823965 213.20635226644941,13.791511070320212 234.27816163285263,-76.70670444872138 265.7309705240813,-170.25491746093184 308.17833040883886,-265.90783627605873 362.1483084652187,-362.6311420921462 428.07152884728947,-459.3084090146449 506.2696362979419,-554.7495094981829 596.9443542762991,-647.7005001488008 700.1673139151578,-736.8549640697137 815.8708323558396,-820.8667662191739 943.8398191684604,-898.3641577557114 1083.7049875142368,-967.9651442766506 1234.9375423204272,-1028.2940114339053 1396.845510916083,-1077.9988798795343 1568.5718722396703,-1115.770140112909 1749.0946288255088,-1140.35959684764 1937.2289512811017,-1150.600132279 2131.6315078887446,-1145.4256784111346 2330.8070723411865,-1123.8912707049565 2533.117480527244,-1085.1929390438156 2736.7929828274346,-1028.6871776962514 2939.946011708891,-953.9097238921872 3140.587355705957,-860.5933651216658 3336.644700359123,-748.6844886031691 3525.9834646187246,-618.3580828251986 3706.4298278960036,-470.03090089301566 3875.795808692903,-304.37249884018644 4031.906220927755,-122.31386929038757 4172.627299091791,74.94659795677788 4295.896748645391,285.9400815653834 4399.754944042286,508.9274542279444 4482.376963925088,741.9027781958873 4542.105121853812,982.6003529590607 4577.481621910035,1228.5054652684037 4587.280942168457,1476.8689556955767 4570.54152585202,1724.725676091259 4526.596340486958,1968.9168688788184 4455.1018500390455,2206.1164524016617 4356.064934311909,2432.8611468915155 4229.867284265953,2645.584323462374 4077.2868017819533,2840.6534043413717 3899.5155381169347,3014.4105868622914 3698.173717201381,3163.2166071611928 3475.3194082733417,3283.4972026723185 3233.4534373387605,3371.7918761141295 2975.519158723547,3424.8045084119976 2704.8967466003182,3439.4553146907624 2425.391711808826,3412.933586879094 2141.217401435846,3342.7506194105945 1856.9712972783138,3226.792171805856 1577.604994188981,3063.36978439784 1308.3878100065374,2851.270231934066 1054.8640548126505,2589.8023750467205 822.8040680482204,2278.8406523879644 618.1492168733565,1918.8644473020133 446.95113728732883,1510.992562913468 315.30559005814837,1057.0120490495688 229.28139548245875,559.4006440040321 194.84500335630898,21.34212421991714 217.78134616372625,-553.2661041527311 303.6117131937229,-1159.8137859669243 457.5094698328476,-1792.9875211809413 684.2145283610209,-2446.7898693823527 987.9475528837028,-3114.5682467719234 1372.3249502274655,-3789.053912084439 1840.2757593715767,-4462.411232273749 2393.9616029644685,-5126.297303690817 3034.7009043910984,-5771.93188073217 3762.8986014801712,-6390.177432496513 4577.982602099912,-6971.629009974992 5478.348226511029,-7506.713462995232 6461.311865456562,-7985.797398968621 7523.075050728979,-8399.30312602538 8658.700085671615,-8737.831673069195 9862.098316216463,-8992.291830470649 11126.032038287209,-9154.034009478875 12442.130934560773,-9214.987577989512 13800.923812752275,-9167.800197159868 15191.88627906499,-9005.977559651896 16603.504824765823,-8724.021818184114 18023.357631799194,-8317.566894754844 19438.212215977026,-7783.508778508234 20834.139824890397,-7120.128855843665 22196.646293840025,-6327.2082720244925 23510.818838609044,-5406.131301118208 24761.488030881836,-4359.975702343581 25933.403962872286,-3193.5880673801003 27011.42536482523,-1913.6422162730546 27980.720195273923,-528.6787803645316 28826.975982243468,950.8757799523725 29536.617957137783,2512.7123363693804 30097.032795124444,4142.6658785594645 30496.795559845126,5824.767173636192 30725.897249719656,7541.320322172809 30775.970161500467,9273.006980123475 30640.50812760653,10999.01773577416 30315.078550605343,12697.21082578316 29797.523054410743,14344.298046582095 29088.14350058811,15916.057369450706 28189.870082668986,17387.57140243546 27108.40821441622,18733.490463340557 25852.360972080998,19928.31863907116 24433.32393806377,20946.720811821866 22865.94942584197,21763.848236499252 21167.97724492668,22355.679861182663 19360.229390848475,22699.376198484286 17466.566319104117,22773.64218572341 15513.802783405541,22559.09512141733 13531.581586645296,22038.633440382793 11552.204006274178,21197.80179547173 9610.41611216219,20025.147656362064 7743.1506916947355,18512.564420553135 5989.2250303626615,16655.6158642886 4388.995362265104,14453.836646831362 2983.9693989051884,11911.003525329328 1816.3789608919935,9035.371944027738 928.7153694937883,5839.872734919388 363.2308966304439,2342.263810644653 161.4102154883222,-1434.7680525166425 363.4164316134917,-5463.559951170905 1007.5168977599106,-9711.484350973447 2129.4946162290544,-14141.023135571155 3762.0516009277203,-18709.907477352182 5934.211098680381,-23371.326199162846 8670.726046142425,-28074.20462288812 11991.50155565843,-32763.555157615607 15911.03957140189,-37380.90007156489 20437.91410716904,-41864.766023748605 25574.28566070067,-46151.24901024446 31315.46348829314,-50174.64741391222 37649.5244102901,-53868.15984439451 44556.99669615381,-57164.64342735822 52010.617341426885,-59997.42715920665 59975.17069329076,-62301.17389790785 68407.4159030467,-64012.78352495909 77256.1100804107,-65072.3288013803 86462.13329516423,-65424.01446617849 95958.72071707976,-65017.14920359233 105671.80620737752,-63807.11925058098 115520.48057819737,-61756.35164361288 125417.56652635985,-58835.25442896934 135270.3109314852,-55023.12059842474 144981.19379562867,-50308.98207683962 154448.85160308096,-44692.39979382802 163569.11130775203,-38184.17573133087 172236.12952634264,-30806.97286470722 180343.62984460228,-22595.82911766994 187786.22944949393,-13598.551840330589 194460.84460141393,-3875.9799024543577 200268.1627786805,6497.898723529883 205114.16768334009,17435.985029520085 208911.70171595435,28838.27263818938 211582.04903126508,40592.22562455013 213056.52090083892,52573.33745470642 213278.02385753393,64645.87621693725 212202.59000452625,76663.81934925618 209800.8479629255,88471.97892473014 206059.41223025628,99907.31625624608 200982.16824990883,110800.44214420569 194591.43027032394,120977.29653486142 186928.94912168896,130260.99870758323 178056.7473748245,138473.85639296786 168057.75998682104,145439.51946968184 157036.25949314015,150985.26112798325 145118.04608560866,154944.36665595893 132450.38452580117,157158.60733649705 119201.67178581655,157480.7743763507 105560.8215815296,155777.24536206582 91736.35456090621,151930.55349062555 77955.18582127577,145841.92779534886 64461.10463946896,137433.77081986287 51512.94478737805,126652.03872415687 39382.447548192154,113468.48767517813 28351.82351565266,97882.74961675383 18711.02341589835,79924.20016432366 10754.732499828973,59653.58146073023 4779.107469935492,37164.34338847289 1078.279381508852,12583.667585812438 -59.34955762191947,-13926.859721158962 1645.0170726144809,-42170.957966036585 6456.555917631154,-71917.77483550078 14622.71367386374,-102902.4473054496 26369.04552278649,-134827.12351036372 41895.050612077874,-167362.46360326005 61370.05630732784,-200149.63302106247 84929.20579890686,-232802.7963431658 112669.60602254746,-264912.1142519767 144646.6946766641,-296047.24001367745 180870.8863349539,-325761.30544354575 221304.5582034789,-353595.3795588541 265859.4359058679,-379083.3761171983 314394.4387525636,-401757.3790598478 366714.04222069285,-421153.3476060906 422567.21280797815,-436817.1554597052 481646.9670032485,-448310.9113824382 543590.6018224251,-455219.5013566156 607980.6391877492,-457157.285798993 674346.5203845743,-453774.8789028353 742167.0799313432,-444765.931279687 810873.8204728953,-429873.8317519321 879855.0017956229,-408898.23951732425 948460.5478186015,-381701.35407115653 1016007.7655035462,-348213.8273314989 1081787.8591268742,-308440.2204644835 1145073.2123605572,-262463.90704066015 1205125.3992184266,-210451.3244532693 1261203.8732563031,-152655.477069165 1312575.2725944554,-89418.59742703743 1358523.266496356,-21173.875997468196 1398358.857534591,51553.82438625557 1431431.0419576182,128148.34630489317 1457137.7199011317,207903.77617706062 1474936.73673124,290027.2019141419 1484356.9272336916,373642.7371459844 1485009.025745514,457796.84677068307 1476596.2978337104,541464.9947200227 1458924.742928846,623559.6197820976 1431912.7125834103,702939.4291918929 1395599.7859019847,778419.9826175856 1350154.7423301232,848785.5212834053 1295882.4725258423,912801.9784483239 1233229.6705926496,969231.0884909865 1162789.1556290681,1016845.4926414579 1085302.6774308032,1054444.720172324 1001662.0703301167,1080871.9048534557 912908.6306105247,1095031.077937427 820230.6067056835,1095904.8611383836 724958.7074632001,1082572.366266756 628559.5520810935,1054227.0926616315 532627.0058300096,1010194.5996008147 438871.36824882514,949949.7187437011 349106.4050026147,873133.0616477716 265234.24084451766,779566.5697618844 189228.1589174834,669267.8492927917 123113.38072565266,542463.03120376 68945.93122345304,399597.8975547767 28789.724307254855,241347.01962752736 4692.035214154624,68620.66096225484 -1342.4424275460728,-117430.7902966114 12621.273721398129,-315415.08039364306 48420.397015107555,-523699.242239955 107765.67372103967,-740413.8204537331 192212.35937676782,-963460.3224379156 303131.20963152504,-1190522.0189032936 441679.8482174451,-1419078.1838431086 608774.8943184838,-1646421.8272071863 805065.2477874535,-1869680.9336406095 1030906.9429719957,-2085843.1779317772 1286339.9899360829,-2291784.04259842 1571067.6252180976,-2484298.215723378 1884438.3925950045,-2660134.0981822773 2225431.46730885,-2816031.1992813833 2592645.6245864662,-2948760.1490923367 2984292.2348267464,-3055165.005021 3398192.6433814736,-3132207.4800109807 3831780.2623184677,-3177012.6709231907 4282107.664901442,-3186915.8187440936 4745858.930796077,-3159509.588072747 5219367.441341591,-3092691.312550223 5698639.269818254,-2984709.6162601663 6179382.251786741,-2834209.78938047 6657040.755655413,-2640277.2702254653 7126836.104113661,-2402478.565986006 7583812.523511498,-2120898.931621141 8022888.42131185,-1796176.1211068546 8438912.712121882,-1429529.528178972 8826725.831335578,-1022784.0453307808 9181224.99298222,-578387.990577703 9497433.165932149,-99424.48173664558 9770571.161192447,410384.3220574115 9996132.143707395,946680.6420024772 10169957.80599361,1504482.6350424706 10288315.369247418,2078204.483965093 10347974.51145044,2661685.3437825385 10346283.262664525,3248227.377354096 10281241.856340183,3830643.0157359065 10151573.483237155,4401311.473055303 9956790.862609914,4952244.432570259 9697257.524728784,5475160.700896446 9374242.690607997,5961569.502216426 8989968.639926663,6402861.954817187 8547649.477383984,6790410.139855426 8051520.241835376,7115673.038273577 7506855.352081652,7370308.47784792 6919975.448544469,7546290.1001109015 6298241.771507058,7636028.228112987 5650037.314193515,7632493.392509139 4984734.102569362,7529341.157160718 4312646.083031491,7321036.778265411 3644967.243557152,7002978.134907203 2993694.7526175343,6571615.28579477 2371537.0722135925,6024564.938730651 1791807.1855171672,5360718.067876012 1268301.2743106242,4580338.8809048105 815163.3850063292,3685153.3253301056 446736.83255063585,2678425.3321401603 177403.3068240602,1565019.0267468584 21410.86388073618,351445.19326645957 -7307.79801958349,-954109.6407553768 104674.83713996588,-2341773.0252259937 370085.0020068528,-3799996.707070783 800747.2922520986,-5315588.282343617 1407382.2733203217,-6873765.429519816 2199404.4341260344,-8458233.561932562 3184723.0299897296,-10051287.502103047 4369548.491618778,-11633937.522251708 5758207.187164626,-13186059.815222863 7352967.407331025,-14686571.160442537 9153879.496309593,-16113627.232779682 11158633.071303245,-17444843.671085164 13362434.258118939,-18657538.680900358 15757905.817595817,-19728995.595863856 18335012.945635185,-20636743.468546048 21081017.39682385,-21358853.40794302 23980462.40701763,-21874248.03208941 27015190.67314316,-22163021.06485459 30164397.388745643,-22206763.78082025 33404720.031821378,-21988894.6961979 36710366.258173905,-21494988.622125637 40053280.870404355,-20713100.94451696 43403352.41180548,-19634082.777031064 46728659.47857197,-18251882.455712795 49995756.35620835,-16563828.710283788 53169997.070734344,-14570890.762583258 56215896.40682672,-12277910.57160573 59097525.88853161,-9693802.470922487 61778942.1493515,-6831715.53152189 64224644.543602146,-3709154.1342545366 66400058.27670734,-348052.45352371194 68272038.76571797,3225201.1606483134 69809392.39040422,6979793.560512498 70983408.26764718,10880573.17298711 71768395.18568327,14888196.108682903 72142217.3783014,18959334.190179706 72086822.41071835,23046946.45804126 71588754.09683204,27100615.027728293 70639643.08005963,31066945.42848123 69236667.49488914,34890030.76182145 67382975.9911403,38511978.17899701 65088065.35477633,41873495.300891615 62368105.00436985,44914533.29902791 59246200.78667691,47574982.431600004 55752590.743070744,49795414.894188605 51924765.87470697,51517868.91189163 47807509.40100637,52686667.07975003 43452848.58497668,53249261.06389065 38919913.89034866,53157093.91955977 34274701.03841663,52366470.47740515 29589732.44432137,50839425.509424165 24943615.529257983,48544578.72450352 20420496.52109274,45457965.07388493 16109409.563915422,41563828.38247111 12103522.248260329,36855365.97544052 8499280.03761485,31335411.75338635 5395453.491297089,25017045.09454042 2892093.6551649603,17924113.04000904 1089402.4947514576,10091653.456536347 86526.76373849413,1566207.2789710737 -19714.78368934363,-7593991.482417138 863840.5658378645,-17318958.521849766 2825329.0444837715,-27527044.412124313 5946461.807863591,-38125170.65187058 10301113.734302295,-49009223.75600568 15953916.367697466,-60064613.07357375 22958872.82446351,-71166996.36110629 31358013.406600434,-82183175.32252659 41180111.41312476,-92972161.36034994 52439479.20007648,-103386409.68188523 65134864.88528493,-113273217.68549271 79248470.2095264,-122476281.2353972 94745109.9337601,-130837400.04135433 111571532.75787604,-138198320.91633952 129655923.0771399,-144402705.21831158 148907601.93821523,-149298204.3201323 169216944.31003866,-152738624.5258309 190455528.24187365,-154586160.49421224 212476529.64089164,-154713673.97621566 235115374.26767665,-153006992.555405 258190656.1269065,-149367201.13699314 281505328.73309255,-143712897.19571698 304848172.77266115,-135982379.30220836 327995540.4831914,-126135737.23620017 350713373.65183777,-114156811.09670891 372759488.5258887,-100054986.26644628 393886117.1610398,-83866790.91006327 413842690.84372026,-65657262.910835475 432378847.25280863,-45521053.802179165 449247639.0173199,-23583238.349439338 464208917.32737756,199.9999994315083" stroke="white" stroke-width="1.5" /></svg>