<?xml version="1.0" encoding="utf-8" ?>
<svg baseProfile="full" height="400" version="1.1" width="400" xmlns="http://www.w3.org/2000/svg" xmlns:ev="http://www.w3.org/2001/xml-events" xmlns:xlink="http://www.w3.org/1999/xlink"><defs /><rect fill="black" height="100%" width="100%" x="0" y="0" /><circle cx="200" cy="200" fill="yellow" r="20" stroke="orange" stroke-width="2" /><polyline fill="none" points="199.32738693365778,200.0 199.39258540552578,199.96811350850956 199.4657624965313,199.94375494455946 199.54641227993977,199.92803682665368 199.6338976998928,199.92204875336355 199.7274495730528,199.92684264463793 199.8261671624451,199.9434174742879 199.9290204215057,199.97270364986034 200.03485399212292,200.01554721097452 200.14239302424852,200.07269403092553 200.25025086651223,200.14477421870637 200.35693865730457,200.23228692932634 200.46087682411638,200.33558579915893 200.56040847570142,200.45486522980744 200.65381464704012,200.59014774840313 200.7393313313465,200.74127267413954 200.81516820671882,200.90788632000272 200.87952893775585,201.08943395490985 200.9306329048468,201.28515374466866 200.9667381862083,201.49407288019833 200.98616559043526,201.71500608822 200.9873235107101,201.94655670307887 200.96873334625838,202.18712045848278 200.92905521253385,202.4348921347605 200.8671136393618,202.68787517081998 200.78192293626606,202.94389432043909 200.6727118868525,203.20061140000317 200.5389474198127,203.4555441395223 200.38035689322786,203.70608811097068 200.19694862176144,203.94954166799297 199.9890302733678,204.18313378916565 199.7572247636317,204.4040546736856 199.50248328206445,204.60948889401993 199.22609509585965,204.79665086517755 198.92969379294738,204.9628223453731 198.6152596478189,205.10539163850854 198.28511782061884,205.22189412568133 197.94193213243156,205.31005371145775 197.5886941974941,205.36782473155506 197.2287077361272,205.39343383250488 196.8655679403157,205.3854213014725 196.50313581682258,205.34268129633082 196.14550749015712,205.26450040297615 195.79697850921784,205.15059392933952 195.46200326650685,205.00113933419075 195.14514970688893,204.81680618420208 194.85104957330515,204.5987820353455 194.58434450892435,204.34879364499426 194.34962840814322,204.06912293947076 194.15138648177356,203.76261718854346 193.99393157377907,203.43269287375324 193.88133833708602,203.08333278158182 193.81737594329383,202.71907590539763 193.80544006452632,202.34499980176167 193.8484849241411,201.9666951168607 193.94895626549516,201.59023207725863 194.10872613339677,201.22211882539682 194.3290304002162,200.8692515737759 194.61040999687836,200.53885665184637 194.95265682715564,200.23842462551028 195.35476535092033,199.97563677987094 195.8148908174805,199.75828437040127 196.33031511307527,199.5941811648712 196.89742115642412,199.49106991689294 197.5116767323998,199.4565235304319 198.1676285960642,199.4978417916098 198.85890760724516,199.62194465804097 199.57824556948856,199.83526320517186 200.31750434670948,200.14362943196116 201.0677177164889,200.5521662230425 201.81914629121604,201.0651788495298 202.56134569785104,201.68604946414717 203.28324805487802,202.41713610670536 203.97325662213882,203.25967778146983 204.61935332699474,204.21370719711706 205.20921869017025,205.27797277129133 205.73036348840802,206.44987149392477 206.17027130061055,207.7253942152769 206.51655089154875,209.09908487507835 206.75709719473267,210.56401511741197 206.88025946606876,212.11177564143748 206.8750149949997,213.73248552041744 206.73114658257765,215.41482058064682 206.43942182908,217.1460617680212 205.99177212010648,218.91216424360212 205.38146906239706,220.6978477414582 204.60329600166008,222.4867084934169 203.6537121572367,224.26135277761784 202.53100683510135,226.00355188272093 201.23544113404003,227.69441799942643 199.76937454222065,229.31460025808374 198.13737383494072,230.84449982839283 196.34630173102522,232.26450268764177 194.4053828467886,233.55522835097307 192.32624460398654,234.6977925444961 190.1229309027149,235.67408149357146 187.81188656232766,236.4670351984024 185.41191076326282,237.06093678147406 182.94407798985975,237.4417047207965 180.43162527799348,237.59718453384684 177.89980491031767,237.51743625410268 175.3757020742359,237.19501384963783 172.88801740101502,236.62523257585076 170.46681473577104,235.8064201363227 168.14323494390752,234.74014745115835 165.94917703594277,233.43143480478378 163.91694838496937,231.888929168573 162.07888631419547,230.12504857095328 160.46695384058796,228.1560895214502 159.11231286860712,226.00229368759625 158.04487862903326,223.68787027627843 157.29285964523163,221.2409708848267 156.8822879759157,218.69361396213546 156.83654492235232,216.08155645580288 157.17588779168648,213.44411071631615 157.91698366927207,210.82390528151305 159.07245646423232,208.26658877088622 160.65045374673105,205.82047677582923 162.65424008562178,203.53614233386762 165.08182371460416,201.46595131656787 167.92562339752917,199.66354483561497 171.1721823233741,198.183271572073 174.80193573362075,197.0795737518592 178.78903876503375,196.40633131696396 183.10126067572355,196.21616966722794 187.6999512094237,196.55973716118893 192.5400843406995,197.4849593557445 197.5703840320577,199.03627772178893 202.73353592358558,201.25388128488908 207.9664880690541,204.17294029456238 213.20084293294468,207.82285161082112 218.36334187558722,212.22650600042533 223.37644228492462,217.399587946032 228.1589863711893,223.3499188777947 232.6269594342774,230.07685492816154 236.69433415353052,237.57075037653874 240.27399614808456,245.81249788193492 243.27874472632124,254.7731563905136 245.6223613999263,264.413677244239 247.22073739743092,274.6847385009734 247.99305009072089,285.52669680150836 247.8629769635766,296.86966528281846 246.75993452230216,308.6337250389339 244.62032839392094,320.72927647280176 241.38879979660226,333.05753556804416 237.01945261941364,345.51117864448514 231.4770445335446,357.9751375538701 224.73812489383315,370.32754553276754 216.79210169615934,382.44083207107235 207.6422195505706,394.18296319191154 197.30643052824007,405.4188214895794 185.81813985745686,416.01171815607177 173.2268087929973,425.8250270657039 159.59839757564828,434.72392880504543 145.01563224324192,442.5772503577357 129.57808015771778,449.2593840080393 113.40202047804921,454.6522669420941 96.62009743690267,458.64740103173904 79.38074616701931,461.1478904134205 61.84738296541687,462.0704727554691 44.197354269985624,461.3475185726225 26.620641240569938,458.9289716285152 9.318319668089941,454.78420239587194 -7.499222040223344,448.9037457501796 -23.614300858522654,441.3008935841149 -38.80418384922794,432.0131128735186 -52.843546864742336,421.10325992541294 -65.50713101679668,408.6605621158034 -76.57257713998683,394.8013393979675 -85.82341493835145,379.6694392449133 -93.05218001920292,363.43636049304195 -98.06362863378712,346.3010437834396 -100.67801670850014,328.4893089534637 -100.73440671357326,310.2529228099485 -98.09396312944722,291.8682842063979 -92.64319478590966,273.63471723417695 -84.29710021659872,255.87236760014306 -73.00217044181545,238.9197018724642 -58.739202314234944,223.1306141984412 -41.52587478120324,208.8711502926947 -21.41904017688276,196.51586391476206 1.4833170032546263,186.44382664962555 27.040500439569854,179.03431751507446 55.06794643395415,174.66222468277078 85.33653519713747,173.69319734729407 117.57240876351891,176.47859143674125 151.45733167989758,183.35025835335458 186.62962628145428,194.61523118377508 222.68570934927996,210.55036774422652 259.1822512551509,231.39701434315563 295.6389723670211,257.35575816903025 331.542084548556,288.58133966113326 366.3483780834838,325.17779901479327 399.4899463463958,367.1939330309265 430.37953209147616,414.61913976811945 458.41647041510805,467.37972882400334 482.9931943526023,525.3357744978578 503.5022597877755,588.2785875122006 519.3438369898131,655.9288783502229 529.9336067557238,727.9356815608385 534.7109899467489,803.8761055672904 533.1476302874725,883.2559665742488 524.7560417761158,965.511358100679 509.0983240663638,1050.011199483913 485.7948418600451,1136.0607974315808 454.532757831869,1222.9064443846692 415.0743030269963,1309.7410661555864 367.2646641618021,1395.7109190940234 311.039363945471,1479.9233240016115 246.43100854651516,1561.4554102709708 173.5752757670662,1639.3638293889921 92.71601846176173,1712.6953821568757 4.209360337936829,1780.4984888942545 -91.47333442381063,1841.835416679465 -193.7437302242961,1895.795162513222 -301.89613240034794,1941.5068763705954 -415.10853780459854,1978.153693628358 -532.4452070057151,2004.986832531049 -652.8608281650064,2021.339799405641 -775.2063275410544,2026.6425324706609 -898.2363647747209,2020.4353045316607 -1020.6185327079584,2002.3821958302005 -1140.9442616130896,1972.2839410325805 -1257.7414065028413,1930.0899490148272 -1369.4884738303128,1875.9092909190156 -1474.6304205729862,1810.0204511062639 -1571.5959346519935,1732.8796372804013 -1658.8160811175733,1645.127450350382 -1734.744173807098,1547.5937216625337 -1797.8767075468015,1441.3003351635464 -1846.7751617354886,1327.4618649200065 -1880.0884626457032,1207.4838742568932 -1896.5758693470652,1082.9587415879096 -1895.130027148114,955.6588997598416 -1874.799913223892,827.5274003476862 -1834.8133820049886,700.6657417028237 -1774.5990033057078,577.3189295167649 -1693.8068744128168,459.85777101910753 -1592.3280787789374,350.7584384382922 -1470.312458885368,252.57937373247873 -1328.1843695554562,167.93564451790084 -1166.6560807822239,99.47090021523377 -986.7385062197002,49.8271172925769 -789.748945077316,21.61236266254457 -577.3155414075438,17.366844311983385 -351.37818579914267,39.52755759773723 -114.18561033979097,90.39187379644119 131.7115416055263,172.08045389551683 383.47185379846565,286.49990468603164 637.9786266044582,435.3056253862196 891.8598158624668,619.8653207049757 1141.512470686515,841.2236798695343 1383.1316670743208,1100.068740125062 1612.7438780451796,1396.7004670190854 1826.2446618528495,1731.0020918929458 2019.4404881519372,2102.4147489325637 2188.094458439344,2509.9159494444293 2327.9756123095544,2952.002419335028 2434.9114457776013,3426.6778067591845 2504.843202915087,3931.445740311161 2533.8834381399915,4463.3086837852 2518.3752845687354,5018.772991337025 2454.952804781986,5593.860516834307 2340.601745101075,6184.127073389263 2172.7199639616674,6784.687973719719 1949.1767601514605,7390.2508093943525 1668.3702884884221,7995.155547599896 1329.2822198735228,8593.421938355197 931.5287804448708,9178.80413373298 475.407291628941,9744.852324393027 -38.06266998816895,10284.98109845054 -607.104366151588,10792.544124379137 -1229.1560976873268,11260.914654359509 -1900.851335208305,11683.571238411754 -2618.007558951965,12054.187934059175 -3375.624530795085,12366.728192508152 -4167.892652608171,12615.541501807314 -4988.211983479127,12795.461771638305 -5829.2223941122775,12901.906354793242 -6682.845230227771,12930.974518547708 -7540.336738547199,12879.5441065742 -8392.353379639955,12745.365070287193 -9229.029012388432,12527.148499059915 -10040.063786159495,12224.649743041336 -10814.824420182253,11838.74420169659 -11542.455386546219,11371.4943469632 -12212.000345241413,10826.206563206471 -12812.533008525705,10207.476417980623 -13333.296439543143,9521.22102880309 -13763.849618591032,8774.69726238613 -14094.219941934258,7976.504594503012 -14315.06015489194,7136.571571122229 -14417.808065458492,6266.124944615056 -14394.847239422827,5377.64071245925 -14239.666745299764,4484.776459381979 -13947.017899887325,3602.2845964843996 -13513.065865388464,2745.9063014499075 -12935.533869207055,1932.2461910411294 -12213.837760083334,1178.6279990208832 -11349.208581387493,502.93178737290975 -10344.800836195884,-76.58651606206092 -9205.784141096003,-541.4921872767407 -7939.41601813797,-873.384038677787 -6555.093658333081,-1054.1203900319072 -5064.382606666676,-1066.0567746086504 -3481.0204684695045,-892.2932037150524 -1820.8939205490813,-516.9285479284032 -101.98752769183318,74.68065892705407 1655.6968844427172,895.6599226626969 3430.251266288037,1957.3581430627432 5198.00344376819,3269.0939545508854 6933.690589883345,4837.910549603892 8610.664008609652,6668.3426102029525 10201.124777594614,8762.199065025492 11676.389381758232,11118.365442440014 13007.184038579488,13732.629598340058 14163.965971787376,16597.534560423366 15117.26943805832,19702.262144047847 15838.073856229994,23032.55085706666 16298.190935939248,26570.651420341776 16470.66725827631,30295.322985786195 16330.198331098974,34181.87283420423 15853.549732381958,38202.24198095307 15019.980572864268,42325.13870928195 13811.66416087174,46516.2215905829 12214.100444127218,50738.33303992654 10216.514542150739,54951.78389715383 7812.235474881024,59114.68892222067 4999.049044573478,63183.35245302511 1779.5187446739076,67112.70279995224 -1838.7314433651159,70856.7732499811 -5842.778441574627,74369.22683130512 -10214.211588949393,77603.92125464565 -14928.999984661279,80515.50970802811 -19957.421056694548,83060.07244668141 -25264.05535150481,85195.77339829964 -30807.85205128782,86883.53530609657 -36542.26914761679,88087.72626813002 -42415.4915348112,88776.84991181288 -48370.729535850674,88924.2308780441 -54346.59954157428,88508.68679068491 -60277.587535202416,87515.17746479588 -66094.59529506159,85935.42177151013 -71725.56802623528,83768.47233862006 -77096.20107545945,81021.23813336417 -82130.72224293757,77708.94495627914 -86752.74503108558,73855.52398023874 -90886.18697592728,69493.91870386749 -94456.2460054284,64666.30105916708 -97390.42657493344,59424.1879238805 -99619.60615841442,53828.44994288821 -101079.13154154457,47949.20536122602 -101709.93328534947,41865.592513879565 -101459.64572448791,35665.415702291684 -100283.71894943822,29444.66041054617 -98146.50841439632,23306.8751695038 -95022.32712978638,17362.418856763787 -90896.44485676262,11727.573814146866 -85766.0183371649,6523.526860224868 -79640.93638139451,1875.2220590383058 -72544.56361282412,-2089.9090387896695 -64514.36684347281,-5243.332058096897 -55602.40844295852,-7456.89979870873 -45875.69167052149,-8604.436054490312 -35416.34377540199,-8563.39979417849 -24321.62373889786,-7216.614343917218 -12703.742834328192,-4454.044372723297 -689.4877184014775,-174.6017341801484 11580.362464297497,5712.040411682709 23951.831489350872,13283.6472549054 36258.7582914343,22603.65913655354 48324.02794360718,33719.489964559485 59961.02069245883,46660.91258889124 70975.2756053772,61438.5570977853 81166.36248499459,78042.54833249733 90329.95268925055,96441.30894913204 98260.07639329924,116580.55406182962 104751.55067452355,138382.50286377268 109602.55962992512,161745.33162606528 112617.36458445957,186542.89110790464 113609.11936009268,212624.7096668531 112402.76259103593,239816.3012317143 108837.9562349157,267919.7947935735 102772.03678775602,296714.89918852487 94082.9433084537,325960.21369928535 82672.08424184468,355394.8914082608 68467.10324395983,384740.6583130945 51424.50280301579,413704.1869941397 31532.083457790144,441979.8191341182 8811.15588162556,469252.6264714008 -16681.516937270688,495201.794863128 -44852.089696627976,519504.3110913892 -75568.35818862307,541838.9269184035 -108658.87570871567,561890.3697431812 -143912.49982148613,579353.7640949078 -181078.403989781,593939.2231833814 -219866.58510296885,605376.5648834226 -259948.8938511104,613420.1019300661 -300960.6101938235,617853.4518180891 -342502.58088319935,618494.3080074335 -384143.93014550436,615199.110610063 -425425.34824160713,607867.5518476069 -465862.9557549352,596446.849294722 -504952.73415128223,580935.7183298534 -542175.5054787662,561387.974368433 -577002.4360993222,537915.6954139121 -608901.031144247,510691.8762841686 -637341.5780529364,479952.50760204735 -661803.9891803548,445998.01531854377 -681784.9851466988,409194.00019559433 -696805.5524596318,369971.22133267246 -706418.6010778896,328824.7734862792 -710216.7401217888,286312.4146010854 -707840.082990671,243052.00763020807 -698983.9868406468,199718.0493408442 -683406.6258294311,157037.26833735392 -660936.2928685825,115783.2849296963 -631478.3209538832,76770.33665909267 -595021.5125845347,40846.08517864806 -551643.9644373871,8883.532673529158 -501518.1744316563,-18227.911021919466 -444915.3196909672,-39592.15612284042 -382208.59675994876,-54316.887375942344 -313875.51982549584,-61524.663686425934 -240499.0786769883,-60364.56774903949 -162767.66574731187,-50024.29731938466 -81473.69082150434,-29742.57700058622 2489.1871230178754,1178.2426887127276 88130.26899739189,43359.54346205249 174367.50961460333,97333.90934570876 260034.72511636541,163532.87238934808 343890.3253706422,242275.10524963166 424627.56469495676,333755.23781049903 500886.28492228396,438033.4791177453 571266.1045158029,555026.2280401146 634340.9863437323,684497.8560654147 688675.095055685,826053.8433548986 732839.8329885901,979135.4444880234 765431.9214241033,1143016.0531299564 785092.3720892638,1316799.4250673386 790526.1723226081,1499419.9066323657 780522.4866170154,1689644.8004491592 753975.157606525,1886078.9826989977 709903.2713032033,2087171.8657554623 647471.5348316352,2291226.7771654814 566010.2003726471,2496412.800662507 465034.2568308903,2700779.097346752 344261.6011912578,2902271.6955459635 203629.8949227873,3098752.7064080685 43311.80740514597,3288021.889242699 -136271.65155011058,3467840.4563277895 -334440.0042017143,3635956.9716716786 -550244.668799077,3790135.1624470437 -782463.0895123278,3928183.4258989925 -1029595.8909542257,4047985.7789127743 -1289867.295577405,4147533.962570072 -1561229.017609092,4224960.380411432 -1841367.818256637,4278571.517257475 -2127716.8737534373,4306881.455836355 -2417471.070544504,4308645.081639383 -2707606.300723015,4282890.542900969 -2994902.7859733603,4228950.512886025 -3275972.410065008,4146491.786268981 -3547289.9887502114,4035542.7307842365 -3805228.3521839133,3896518.109970387 -4046097.059204718,3730240.7931390516 -4266184.505548608,3537959.875048846 -4461803.129924316,3321364.7404813366 -4629337.363526302,3082594.6282674097 -4765293.910709816,2824243.2755030883 -4866353.891955487,2549358.255855128 -4929426.325696767,2261434.666043772 -4951702.373888077,1964402.8617732238 -4930709.728188413,1662609.998441143 -4864366.470169869,1360795.192685241 -4751033.700877406,1064058.1879088727 -4589566.203199008,777821.4799592921 -4379360.375667692,507785.93760247447 -4120398.659287842,259880.03573423522 -3813289.6704935017,40202.90667747103 -3459303.2540825955,-145038.49437446438 -3060399.680537721,-289597.72060292563 -2619252.233068143,-387262.1778313475 -2139262.4614215265,-431930.9033331866 -1624567.4223469412,-417696.10672774364 -1080038.2807540793,-338927.70860994945 -511269.7111924813,-190360.0240105545 75440.38378204622,32820.34608883789 673121.2336749269,334886.42979919823 1274169.934943491,719483.6909704003 1870402.7478538982,1189544.8741371655 2453117.0235552704,1747208.085979937 3013163.701916859,2393739.351581372 3541030.1851541917,3129460.9111057436 4026933.2500983807,3953686.535964703 4460921.514461705,4864665.14195942 4832986.821100529,5859533.959320739 5133183.750698716,6934282.485153261 5351756.3192515755,8083728.391825235 5479270.764108362,9301506.494806409 5506753.173122743,10580071.794999346 5425830.56775223,11910717.503605502 5228873.914893183,13283608.832104145 4909141.4160445575,14687833.18632022 4460920.3082904415,16111467.242397074 3879665.311808595,17541661.204592466 3162131.7753486685,18964740.35127646 2306501.5065233605,20366323.767689675 1312499.2298709704,21731459.943546295 181497.59441225772,23044778.68233567 -1083391.3443807655,24290658.52934221 -2477240.214064694,25453408.67938019 -3993247.97538617,26517464.075663976 -5622701.037192385,27467592.160982095 -7354955.625603754,28289109.494477 -9177443.052475298,28968106.205098428 -11075699.353546446,29491676.01958342 -13033420.562067853,29848149.382134736 -15032544.64963262,30027326.97839341 -17053360.903370257,30020710.79146723 -19074647.218940448,29821729.656298663 -21073835.473676812,29425956.14411042 -23027204.80599719,28831311.50452796 -24910102.268479582,28038255.32258721 -26697189.945883997,27049956.514314834 -28362717.239402253,25872442.290818114 -29880816.618456673,24514721.7694201 -31225820.73575678,22988881.003553428 -32372598.3947238,21310146.342722274 -33296906.455804363,19496913.221208792 -33975754.374887995,17570737.71022753 -34387777.6885378,15556288.453228092 -34513616.40273368,13481256.93775119 -34336293.91015094,11376224.438771913 -33841591.761527166,9274484.396264372 -33018415.355306417,7211819.461580473 -31859145.392284695,5226232.960227647 -30359969.77406524,3357635.069131706 -28521190.511169624,1647484.5901449565 -26347500.153735954,138387.81336863773 -23848222.269535065,-1126343.4019260937 -21037510.57475056,-2103171.5507592405 -17934501.476202503,-2748847.9730280875 -14563415.012401327,-3020957.8133183983 -10953599.487205982,-2878490.6981162885 -7139515.475324961,-2282431.7399759577 -3160655.343932917,-1196366.8638498955 938605.0211670259,412904.13001930935 5109224.974601232,2574753.8900423287 9297790.348551327,5314120.832672017 13446878.392398918,8650917.48892007 17495496.804249324,12599462.261196926 21379596.34780392,17167943.244442627 25032655.598471317,22357922.946796436 28386335.367521506,28163892.828570288 31371199.3218451,34572886.55647162 33917496.25988358,41564160.73607903 35955998.43297003,49108951.63366571 37418889.22803179,57170316.023827635 38240692.465573564,65703063.7984387 38359234.53005726,74653789.34301494 37716629.55279496,83961007.9278242 36260276.92535923,93555402.47382878 33943859.549674004,103360185.04021442 30728330.444939874,113291576.24500895 26582874.646887455,123259404.57907388 21485832.766860746,133167826.21439253 15425572.141769726,142916164.44969788 8401291.215274239,152399866.3916744 423742.65903821145,161511572.85158747 -8484139.21717596,170142295.76047552 -18286720.995433386,178182695.6879042 -28935276.43417205,185524450.30838516 -40367729.70811751,192061702.91596285 -52508547.98514095,197692578.3627524 -65268794.69359885,202320752.11405268 -78546353.59553663,205857056.4947897 -92226332.33428459,208221106.67398217 -106181652.47335202,209342927.5206703 -120273831.19403088,209164561.19159812 -134353957.78148285,207641634.20310646 -148263865.81604832,204744861.82201692 -161837499.61389658,200461466.9069736 -174902470.94771227,194796489.86578146 -187281799.44577494,187773966.1875241 -198795827.341278,179437948.08052742 -209264296.4506952,169853347.11638817 -218508572.43068647,159106575.46156433 -226353998.53028008,147305964.28391907 -232632358.25378594,134581939.26126406 -237184423.61714494,121086934.79814023 -239862563.05471268,106995030.57759537 -240533380.55469725,92501296.43432756 -239080355.3102459,77820834.22759612 -235406449.11065823,63187508.40557186 -229436646.90424636,48852360.27128196 -221120394.481451,35081704.56321869 -210433896.09308374,22154910.82521918 -197382234.07153797,10361876.129686134 -182001272.19765303,200.0000002228875" stroke="white" stroke-width="1.5" /></svg>