<?xml version="1.0" encoding="utf-8" ?>
<svg baseProfile="full" height="400" version="1.1" width="400" xmlns="http://www.w3.org/2000/svg" xmlns:ev="http://www.w3.org/2001/xml-events" xmlns:xlink="http://www.w3.org/1999/xlink"><defs /><rect fill="black" height="100%" width="100%" x="0" y="0" /><circle cx="200" cy="200" fill="yellow" r="20" stroke="orange" stroke-width="2" /><polyline fill="none" points="199.74507510636838,200.0 199.81620480544638,199.99035159187738 199.89288994480646,199.98872334691316 199.97449936252062,199.99595424057088 200.0602967416374,200.01283850491345 200.14944267389927,200.04011305696037 200.24099814240932,200.07844480813435 200.33392947489835,200.1284180050395 200.4271148044077,200.19052176149725 200.5193520579129,200.26513795010962 200.60936847577855,200.35252962842713 200.69583164608173,200.4528301798886 200.77736201792504,200.56603335288415 200.8525468370552,200.6919843824156 200.91995542561125,200.83037237772743 200.97815570586607,200.98072415582826 201.0257318456399,201.14239969489984 201.06130288091654,201.31458937310722 201.0835421493555,201.49631314721225 201.09119734716703,201.68642181161897 201.08311100149606,201.8836004620319 201.05824113137064,202.08637426881663 201.01568185271972,202.29311664347364 200.95468366728412,202.50205985747021 200.8746731617468,202.7113081461528 200.77527183241412,202.9188533017578 200.65631374258768,203.1225927288623 200.51786171467097,203.3203499032172 200.36022175732293,203.50989714107203 200.18395542985226,203.6889805511571 199.98988985175768,203.85534700579714 199.77912507504715,204.00677293158103 199.55303855086095,204.14109468403504 199.31328644008624,204.25624023528877 199.0618015401423,204.35026186926277 198.80078762694927,204.42136954594108 198.53271004222321,204.46796456532698 198.26028239156864,204.48867313324018 197.98644925820693,204.48237940571678 197.7143648803681,204.44825756694348 197.44736778709913,204.38580247790279 197.18895143716523,204.29485841971947 196.94273095842865,204.17564544755464 196.71240614011793,204.02878286822448 196.50172088721777,203.8553093579347 196.31441940422891,203.65669924596358 196.1541994341282,203.43487450610502 196.02466293680888,203.1922120204293 195.92926464886577,202.93154570961087 195.871259022534,202.65616316079783 195.85364609508687,202.36979642777894 195.87911689022127,202.07660672896176 195.9499989990606,201.78116282625106 196.0682030295384,201.48841293204705 196.23517064824495,201.20365006191204 196.45182496749524,200.93247082651916 196.71852405161013,200.68072773773906 197.03501832942598,200.454475189474 197.4004127041569,200.2599093633484 197.81313414627172,200.10330240175102 198.27090553944768,199.9909312850375 198.77072652343858,199.92900194490096 199.30886204045729,199.92356924087562 199.88083924315407,199.9804535204608 200.48145336231354,200.10515457417404 201.10478306097957,200.30276388365903 201.74421571896713,200.57787614243264 202.392482997904,200.93450110358677 203.0417069324912,201.37597687538343 203.68345667915986,201.90488584282429 204.30881592949586,202.52297443959165 204.90846086360554,203.23107802894896 205.4727483791026,204.0290521730115 205.99181418584325,204.91571157610636 206.45568020633743,205.88877797867593 206.85437056846783,206.94483825241963 207.17803532246361,208.0793139043271 207.41708085982546,209.28644313631182 207.56230586003576,210.5592765278649 207.6050414434615,211.88968731127602 207.5372940679946,213.26839709247903 207.35188957487364,214.68501773568343 207.04261666801463,216.12810997708885 206.60436800329774,217.58525916285004 206.033276971831,219.04316832002317 205.3268481864343,220.48776856770954 204.4840796255636,221.9043466605135 203.50557435563675,223.27768922951955 202.3936397430998,224.59224304929475 201.1523720832879,225.83229041523182 199.78772461569,226.98213846639584 198.30755696589014,228.02632103769733 196.72166415423285,228.9498113746612 195.04178344085477,229.73824379746748 193.28157743652434,230.37814216163886 191.45659209877144,230.85715273420783 189.58418845272968,231.16427888997174 187.6834471252219,231.29011483617217 185.7750450577512,231.2270753992463 183.88110406764073,230.96961875782412 182.02501125459446,230.51445888542423 180.23121159998115,229.86076437777032 178.52497347529726,229.01034028655835 176.9321281612261,227.96778956689178 175.47878487575474,226.74065077222704 174.19102321480017,225.33950870096027 173.094565317234,223.77807481479735 172.21443047322222,222.07323441239333 171.5745752952622,220.24505775356985 171.1975229597755,218.31677259032705 171.1039853979729,216.31469587090587 171.31248266214658,214.26812274175765 171.83896401167874,212.2091713782362 172.69643554596317,210.17258262626032 173.89459945323566,208.19547393153772 175.43951013924448,206.31704756691286 177.33325264219278,204.57825373801901 179.57364882517282,203.02140974797484 182.15399685946156,201.68977702797517 185.06284946709133,200.62709848620153 188.28383627510996,199.87709928579824 191.7955354435908,199.48295482638517 195.5713994621243,199.4867303648162 199.57973966340202,199.92879736124996 203.78377357660648,200.8472322672578 208.14173873760976,202.27720407448848 212.60707598840358,204.25035750592193 217.12868463672348,206.79419924739884 221.6512511115661,209.93149507529287 226.11565194544332,213.67968612734603 230.45943104511286,218.0503328784629 234.61735028568492,223.0485956126228 238.52201148609322,228.67276031744942 242.10454680573125,234.9138189613965 245.29537355249772,241.75511303772004 248.0250083225191,249.17204906804278 250.22493431337182,257.1318944460171 251.82851457855517,265.59366156414217 252.77194293492406,274.50808760125005 252.99522321112738,283.8177166530038 252.44316654871022,293.4570900629161 251.0663955537438,303.3530498584666 248.82234326120243,313.4251591191661 245.67623413244567,323.58624190591445 241.60203367359242,333.7430440706188 236.58335275448172,343.7970148505109 230.61429233896314,353.64520764356155 223.70021412135358,363.1812967723156 215.8584225139741,372.2967053877355 207.11874355847687,380.8818379583406 197.52398664950505,388.82740905093976 187.13027547175741,396.0258583570051 176.00723526755186,402.37284017412946 164.23802447623035,407.76877383728606 151.91919992165055,412.1204399330841 139.16040606957165,415.3426055461307 126.08388043033658,417.3596603048511 112.82376893846192,418.1072436400025 99.52524709132479,417.53384246799084 86.34344476280822,415.602337488205 73.44217491026595,412.29147546355296 60.99246884715512,407.59724426000776 49.17092333877508,401.5341270768372 38.15786747136383,394.1362122252474 28.135360019064223,385.4581350284485 19.285030859905334,375.57582893734866 11.785782839310258,364.5870637972017 5.8113733136957535,352.61175037252303 1.52789739132686,339.79199174808764 -0.9088024152231924,326.29186407662206 -1.35577284029182,312.29691133887684 0.31439686776522535,298.0133413146673 4.210936946058865,283.66691282534276 10.422308210755375,269.5015074854234 19.013697726747495,255.7773826754216 30.02463585924471,242.76910619581372 43.466772467745955,230.7631770554665 59.32185055165732,220.05534105329164 77.53991576577954,210.94761419141363 98.03779986220012,203.74503146884632 120.69791525574483,198.75214319928705 145.36739653046607,196.2692856235795 171.85762278694412,196.58865719131094 199.94415226230583,199.99023640806257 229.36709763065764,206.73758152329242 259.83196681145586,217.07355650461773 291.0109899844949,231.21603164158483 322.544948847298,249.35361067907252 354.04551897598947,271.6414395302344 385.09813049430124,298.1971542948878 415.26534615531887,329.09702844647603 444.0907494431171,364.3723805865344 471.10332846068565,404.00630504050946 495.8223342487624,447.9307877278073 517.7625848469903,496.02426913201634 536.4401789413764,548.1097147807228 551.3785754242053,603.9532513815614 562.1149877145152,663.263423623619 568.2070343446576,725.6911226214675 569.2395802117882,790.8302320432429 564.8316961265136,858.2190321251153 554.6436579713856,927.3423950444295 538.3839010179797,997.6347975267453 515.8158398518796,1068.4841681344078 486.76446002791727,1139.2365774754594 451.1225841291264,1209.2017696437042 408.85671243365107,1277.6595226291533 360.01233700077523,1343.8668143111179 304.7186277596054,1407.065759065242 243.19239020268853,1466.4922680943725 175.74119662276212,1521.3853744569064 102.7655965430837,1570.997151551756 24.760317126352817,1614.6031416729331 -57.6856290644738,1651.5131993248262 -143.890003522786,1681.0826424547622 -233.07963351696588,1702.723593781833 -324.393990144055,1715.9163841542652 -416.8900944121275,1720.2208805279784 -509.548779318235,1715.28759290368 -601.2823208945844,1700.8684075639728 -690.9434350358791,1676.8267883869632 -777.335619718438,1643.147284043939 -859.2248041209484,1599.9441766719685 -935.3522473225034,1547.4691072927485 -1004.4486098711807,1486.1175149578332 -1065.249101790181,1416.4337304520136 -1116.5095907408142,1339.1145714766885 -1157.0235343312706,1255.011294637908 -1185.63958120042,1165.1297703295031 -1201.2796667823598,1070.6287597549654 -1202.9574118459877,972.8161888685464 -1189.796615286717,873.143331902933 -1161.0496175116793,773.1968373226953 -1116.1152973926946,674.6885514015652 -1054.5564544476651,579.4431190358353 -976.1163189293056,489.3833677097824 -880.7339261180107,406.51350852128706 -768.5580875867641,332.9002176216426 -639.9596917653416,270.65169205401406 -495.5420689909554,221.8948054883944 -336.1491625782461,188.7505214142849 -162.871257428172,173.30775360386133 22.95196855827413,177.5958957091797 219.73128740788016,203.55627329518705 425.63085402395194,253.01280200362226 638.574399496109,327.64216444334306 856.2548259556758,428.94384535068673 1076.147311296379,558.2103890931855 1295.5259956663756,716.498265234206 1511.4842818904456,904.599746172379 1720.958739171683,1123.0162153662347 1920.7565538775086,1371.9333349163232 2107.586423319247,1651.198506893463 2278.092738625123,1960.3010633907168 2428.8928515763646,2298.3556154955863 2556.6171681657866,2664.0889809262603 2657.9517592379793,3055.831093702546 2729.6831265124374,3471.5102767354997 2768.7447112456834,3908.653229489647 2772.2646834590128,4364.390047837705 2737.6145027733855,4835.4645519036885 2662.45769819887,5318.2501501684055 2544.798274480582,5808.771414568394 2383.0281175650784,6302.731482018086 2175.972742171568,6795.545333076947 1922.9347010648382,7282.3789288124135 1623.7339591374666,7758.194112808959 1278.744526483861,8217.799107369545 888.9266439068497,8655.90435196251 455.85382229512413,9067.18334868455 -18.26594546666351,9446.338094822391 -530.5754545405382,9788.168597461834 -1077.560657823057,10087.645880541055 -1655.0507060296197,10339.987811867206 -2258.226171741385,10540.736997555343 -2881.6359035772484,10685.83991528929 -3519.2228791848706,10771.726386961038 -4164.359338502382,10795.388426850031 -4809.89138215419,10754.457444785901 -5448.193114489751,10647.27873592271 -6071.230297373106,10472.98215102607 -6670.6333602573195,10231.54781468426 -7237.7794853512705,9923.865744683051 -7763.883354969736,9551.788224930931 -8240.096012756938,9118.173797691092 -8657.611152826308,8626.921769255454 -9007.778012526152,8082.996167234685 -9282.219907198085,7492.4381478393225 -9472.957310717607,6862.365928224601 -9572.534255652283,6200.96141231371 -9574.146703470244,5517.442788458838 -9471.771420353754,4822.022503586226 -9260.293789818577,4125.850160627719 -8935.63290151502,3440.940043359918 -8494.862178269525,2780.0831443112756 -7936.323742552386,2156.7437559767814 -7259.734680985634,1584.9408817761662 -6466.283342989527,1079.1149293417811 -5558.7138088315405,653.9803629295143 -4541.3966846501025,324.3652118847167 -3420.3844287484994,105.03855582405421 -2203.449485646622,10.527331970685793 -900.103602849335,54.92403317891359 478.4031694293757,251.68708371647446 1919.1051430151178,613.4358908151203 3407.3664891267454,1151.7427702196915 4926.950530628277,1876.924130254179 6460.113559875155,2797.8334680296284 7987.723656652184,3921.6588800896766 9489.40470143627,5253.727914805096 10943.705478821828,6797.322692052277 12328.29344673758,8553.508284123647 13620.172411773465,10520.977387574203 14795.923002618376,12695.91431617561 15831.964475745386,15071.881307958907 16704.836023882806,17639.73006241886 17391.495392616605,20387.5413056243 17869.63224811963,23300.595019929096 18117.99338419138,26361.37377034758 18116.716514439788,29549.601311074646 17847.66907063703,32842.31836324553 17294.78812624863,36213.99711954236 16444.417290153753,39636.695653955314 15285.636174931242,43080.25299778916 13810.577842005576,46512.52518838486 12014.729467527524,49899.66210815353 9897.211363001732,53206.42441218803 7461.029427983714,56396.53929733912 4713.296112920885,59433.09329926395 1665.4150322436205,62278.95972221797 -1666.7755055464768,64897.25771546568 -5262.90459003687,67251.83941687606 -9098.020699097067,69307.80099577176 -13142.59752857854,71032.01285103669 -17362.597197280305,72393.66366488763 -21719.593886053433,73364.81248583419 -26170.96042304875,73920.94252468811 -30670.11971236586,74041.50990360908 -35166.8622238422,73710.48020868297 -39607.73002154567,72916.84536991599 -43936.46701284483,71655.11313705293 -48094.53425491012,69925.76124324776 -52021.6882683581,67735.6482588185 -55656.61938669854,65098.37314101598 -58937.64622447233,62034.57558915113 -61803.46138658885,58572.16952295282 -64193.9225773462,54746.50232010214 -66050.88231170227,50600.4328799038 -67319.04849599478,46184.32212620898 -67946.86724348838,41555.9302249094 -67887.41843533074,36780.2155691216 -67099.31374351183,31929.03147664095 -65547.58611318147,27080.717545880707 -63204.559071153875,22319.58372325233 -60050.68369939934,17735.28634005653 -56075.33070021875,13422.096672037522 -51277.524696511246,9478.06394971593 -45666.607768241,6004.076190726003 -39262.81923607831,3102.8237232159513 -32097.77887532046,877.6718069965754 -24214.861086305817,-568.549679944329 -15669.448068809848,-1134.8299555521223 -6529.050752793802,-723.3233617010529 3126.7128700963,759.2548995005685 13206.291289279301,3400.197390452363 23606.532898868933,7279.352880035833 34213.185855884716,12467.671346475143 44901.56929496623,19025.763450182123 55537.419019206965,27002.493406427453 65977.90882488913,36433.62504133776 76072.8465102628,47340.54147948198 85666.04138151846,59729.05936625765 94596.8377219211,73588.35875370786 102701.80625452993,88890.04975612208 109816.58312938942,105587.39679547897 115777.84342936342,123614.7206923633 120425.39364396353,142886.99800382936 123604.36503869889,163299.67585700535 125167.48738156883,184728.71907038658 124977.42011275959,207030.9045915089 122909.11579397476,230044.37621145853 118852.18858656943,253589.47014868772 112713.25861959261,277469.81943639077 104418.24145681798,301473.7421127482 93914.55049219952,325375.9150197248 81173.17903134561,348939.33158618514 66190.62808651876,371917.53833175485 48990.64555628123,394057.1410102884 29625.742507715186,415100.5673516235 8178.45275555039,434789.0692972155 -15237.69713861806,452865.9435028699 -40477.53892379281,469079.944747479 -67363.9643651066,483188.86279107106 -95688.00480904702,494963.2292220831 -125209.31294233377,504190.116978597 -155657.0677053125,510676.99157925334 -186731.31946096977,514255.56971579144 -218104.7881896747,514785.6378005984 -249425.12269984797,512158.78038912686 -280317.6236453219,506301.96616752935 -310388.4275577789,497180.9374679055 -339228.1431811722,484803.34810228046 -366415.9251853294,469221.5937435775 -391523.96389602334,450535.279175282 -414122.3630733452,428893.26752399927 -433784.3710703237,404495.25811754004 -450091.9239863513,377592.84190599725 -462641.4527776923,348489.9864671026 -471049.89978702826,317542.9065045793 -474960.8838968654,285159.2804446423 -474050.9475917826,251796.77923705953 -468035.813728097,217960.87975866656 -456676.5748539364,184201.94227366307 -439785.733595123,151111.5391898418 -417233.00901853037,119318.03081502502 -388950.8210980458,89481.39290370839 -354939.36352836783,62287.31041877578 -315271.17424261814,38440.562034042145 -270095.11316865264,18657.73037590784 -219639.65807530138,3659.283741157875 -164215.43187332884,-5838.9140828401205 -104216.87849564284,-9134.59835496782 -40123.0095238808,-5548.523928326853 27502.84992288315,5565.777091150794 98014.37985839351,24811.999631763945 170684.70350909594,52740.940549056206 244709.98940069383,89840.36168076709 319214.25055319845,136524.96664904564 393255.3612092967,193126.62400030365 465832.2977407833,259884.9750982203 535893.5955918224,336938.5696788812 602346.9984430581,424316.6749941464 664070.2593520115,521931.9058733348 719923.0365969831,629573.8226988938 768759.8094953852,746903.6421065568 809443.7217716359,873450.2010878747 840861.2423184039,1008607.3090138495 861937.5156464372,1151632.6138536446 871652.2571829894,1301648.0984949751 869056.0320976767,1457642.3105694212 853286.7407564578,1618474.4145592302 823586.1194835664,1782880.1382519433 779316.0523044337,1949479.666883553 719974.4780065808,2116787.5176680726 645210.6674430182,2283224.4049797663 554839.6387596995,2447131.08239291 448855.4733905475,2606784.1222832315 327443.2934517632,2760413.5669760234 190989.66178483394,2906222.3577388125 40091.16952682036,3042407.4195413156 -124439.01711636405,3167182.250749245 -301566.8691253191,3278800.8381131063 -490035.6706993829,3375582.6889139935 -688366.8468803472,3455938.744310532 -894863.6101785533,3518397.911185993 -1107617.5697587212,3561633.92452701 -1324518.4195068,3584492.228988604 -1543266.790791305,3586016.5472318586 -1761390.3221143677,3565474.78427703 -1976262.9613285696,3522383.901907153 -2185127.476935835,3456533.3854846843 -2385121.1134942328,3368006.917787802 -2573304.282697725,3257201.870993076 -2746692.1366715757,3124846.22905706 -2902288.823897325,2972012.5587747875 -3037124.181446146,2800128.658972096 -3148292.570398779,2610984.533827176 -3232993.515041593,2406735.3583674403 -3288573.761262067,2189900.131846318 -3312570.326160387,1963355.7480021906 -3302754.06990411,1730326.2501016133 -3257173.282952376,1494367.083062961 -3174196.7476432878,1259344.2046602608 -3052555.703449316,1029407.9725574021 -2891384.120628442,808961.7833773078 -2690256.668181308,602625.5037444566 -2449223.749586206,415193.8007459063 -2168842.9743071273,251589.5499490385 -1850206.4350887658,116812.57232699193 -1494963.1710445757,15884.026434283674 -1105336.214917558,-46213.141869886764 -684133.6499831253,-64597.2138133881 -234753.1381147072,-34553.62269752281 238820.5743022274,48396.83737689524 732025.6115946512,188428.2163482168 1239740.7607244214,389338.79039693455 1756311.4031202109,654480.4467611167 2275583.8086644537,986688.951712176 2790947.9249270256,1388216.0302900383 3295388.6979562617,1860664.2261161844 3781545.857222651,2404925.539938572 4241781.987487241,3021124.8655084376 4668258.595392061,3708569.2500013 5053019.75952938,4465704.002607081 5388082.830849104,5290076.658354983 5665535.526833512,6178309.774044384 5877638.639339307,7126083.488786381 6016933.453908676,8128128.722724812 6076352.859297804,9178231.813757114 6049335.011649216,10269251.303441226 5929938.309880865,11393147.479858514 5712956.33925741,12541025.16730356 5394031.350535936,13703190.120785337 4969764.764328895,14869219.238151396 4437823.126157893,16028044.645111114 3797037.888793246,17168051.539660707 3047497.3665155475,18277189.50375044 2190629.192430086,19343096.803046342 1229271.6163151022,20353237.002090007 167732.0079421352,21295047.02402203 -988169.0195572671,22156095.583461046 -2231069.379020822,22924250.720460687 -3552054.587653983,23587854.965180974 -4940665.45042745,24135906.46964507 -6384925.499772588,24558244.25744111 -7871389.174234259,24845735.567302987 -9385211.526582079,24990463.10504443 -10910240.037020566,24985909.8732464 -12429128.870726053,24827139.122299485 -13923475.662473394,24510966.862747394 -15373980.63644483,24036124.300131798 -16760627.578635069,23403407.502352517 -18062885.875123043,22615811.5884108 -19259932.51475829,21678646.738579616 -20330892.632708125,20599633.371557813 -21255096.845350906,19388973.91575995 -22012353.30097205,18059398.7209661 -22583232.048677634,16626183.81413305 -22949359.014156446,15107138.399879554 -23093716.569854286,13522560.242160985 -23000947.40336915,11895157.338655537 -22657658.126123954,10249934.61257542 -22052718.82935199,8614044.69665754 -21177554.59085936,7016602.269094432 -20026424.768537812,5488461.818685404 -18596685.78970048,4061959.1635089545 -16889033.063293193,2770617.520352172 -14907717.60892397,1648819.416834881 -12660733.016138975,731446.2499391638 -10159968.422739625,53487.81827648015 -7421323.334979793,-350375.3148266868 -4464780.3074750425,-446213.24064582074 -1314431.7582483885,-201307.9969458354 2001542.4844803845,415369.6868507794 5450949.922119402,1432673.0991187391 8997714.982125377,2876787.078307041 12602065.530623369,4770736.160593158 16220777.79064146,7133899.516198243 19807480.5284692,9981539.177092258 23313018.69102216,13324348.329446517 26685875.949668262,17168026.648694374 29872654.836607527,21512889.786478184 32818612.355327386,26353520.170537844 35468248.11457183,31678466.244789377 37765941.1841396,37469997.15211098 39656631.00999233,43703919.64217584 41086536.865666695,50349463.66739081 42003909.46756835,57369242.708950326 42359807.55469264,64719294.35062177 42108891.44044821,72349205.98973636 41210224.797720596,80202329.84385309 39628075.25047301,88216090.57987016 37332703.72854939,96322387.96360992 34301132.009347305,104448095.90713413 30517877.4329038,112515658.18480687 25975643.447539587,120443779.90543033 20675954.432858914,128148212.57621117 14629723.166178748,135542629.28584287 7857739.35706272,142539585.18113333 391067.8811552302,149051557.02818757 -7728654.293709916,154992054.2503606 -16449032.97321635,160276792.43736959 -25706853.18979701,164824918.94060376 -35428146.18276038,168560278.8271212 -45528394.81977699,171412708.17831022 -55912884.1822095,173319340.5084346 -66477202.681294985,174225910.963432 -77107897.55921066,174088041.9616801 -87683286.96677014,172872493.07619685 -98074429.00863835,170558357.25176176 -108146246.22062121,167138184.91998607 -117758801.90733661,162619017.23876292 -126768722.64040226,157023309.5570088 -135030759.0174623,150389726.3067971 -142399474.5335274,142773788.86687884 -148731050.14288417,134248358.53600946 -153885189.81891116,124903937.61099327 -157727110.17889103,114848772.68980272 -160129595.06131622,104208745.71857685 -160975093.85534278,93127039.97358109 -160157840.41815504,81763570.11292303 -157585967.6087382,70294167.64191997 -153183590.8489241,58909515.60082113 -146892832.72736874,47813828.99055043 -138675759.52165186,37223280.38382627 -128516199.65912174,27364173.303973015 -116421413.59831257,18470869.266625445 -102423584.41752332,10783477.841016179 -86581098.57094246,4545322.664535659 -68979586.83806634,200.0000000844759" stroke="white" stroke-width="1.5" /></svg>