<?xml version="1.0" encoding="utf-8" ?>
<svg baseProfile="full" height="400" version="1.1" width="400" xmlns="http://www.w3.org/2000/svg" xmlns:ev="http://www.w3.org/2001/xml-events" xmlns:xlink="http://www.w3.org/1999/xlink"><defs /><rect fill="black" height="100%" width="100%" x="0" y="0" /><circle cx="200" cy="200" fill="yellow" r="14.087063497672165" stroke="orange" stroke-width="2" /><polyline fill="none" points="198.38381259817967,200.0 198.29439315782946,199.9104634321373 198.21072493121142,199.81162334207357 198.1339217116788,199.70394058436491 198.06507619940473,199.5880120874445 198.00524465616112,199.46457238323137 197.9554309744774,199.33449352214447 197.9165703197735,199.19878326626855 197.88951251998427,199.05858146764984 197.87500539200917,198.91515455504148 197.87367820777598,198.76988807080716 197.88602551453732,198.62427722003963 197.91239153397424,198.47991541613007 197.9529553725063,198.33848083088753 198.0077172806665,198.20172098266715 198.07648620226496,198.07143542260744 198.15886885412553,197.94945660675532 198.2542605742507,197.83762907029663 198.36183817018295,197.7377870490091 198.48055498995367,197.65173072208225 198.60913842523829,197.5812012792549 198.74609004009858,197.52785504343154 198.88968849896463,197.49323690716074 199.0379954442939,197.47875336719324 199.18886444770743,197.48564546536116 199.33995312843714,197.5149619658218 199.4887384997795,197.56753311786323 199.6325355681354,197.64394536956164 199.76851917037703,197.74451741020664 199.89374899401557,197.8692779281798 200.00519768130772,198.0179454755191 200.09978187342378,198.18991083038406 200.17439600456453,198.3842222437523 200.22594860894182,198.59957394665904 200.25140085637113,198.83429827891933 200.24780698543117,199.0863617793823 200.21235625733863,199.35336555124246 200.1424160094957,199.63255018373764 200.03557534575646,199.9208054737036 199.88968896149785,200.21468514703852 199.7029205662521,200.5104267313092 199.47378533564805,200.80397667676462 199.2011907983877,201.0910207642252 198.88447554361323,201.36701977510617 198.52344511993033,201.62725033169502 198.11840449013923,201.86685074531027 197.6701864059387,202.08087163677556 197.18017507500358,202.2643310184757 196.6503245093216,202.41227345092597 196.08317096886776,202.51983281015177 195.48183894885923,202.58229812617688 194.85004020215175,202.59518187854363 194.19206534087908,202.55429006306957 193.51276762316817,202.45579327605446 192.81753860152872,202.29629799898387 192.11227538904492,202.07291720953816 191.4033393873814,201.78333939452148 190.69750641632928,201.42589499826525 190.00190828748526,200.99961930720855 189.32396597388546,200.50431074873336 188.67131464206778,199.94058357090682 188.0517209320497,199.3099138704448 187.47299299289634,198.61467794976446 186.94288390560638,197.85818201112997 186.468989249543,197.04468223719238 186.058639692066,196.17939436310934 185.71878960177048,195.26849191619206 185.45590280212593,194.31909238477618 185.27583669259815,193.33923067868966 185.18372606674222,192.33781935904122 185.18386804947832,191.3245952446251 185.2796096569995,190.31005214537174 185.4732395507327,189.30535962909818 185.7658856097462,188.32226789523756 186.15741998230627,187.37299900694714 186.64637329536254,186.4701249194893 187.2298596991426,185.62643293631575 187.90351440146088,184.85477942292627 188.6614453016718,184.16793281019145 189.49620026649916,183.57840712111278 190.3987514985498,183.09828745547338 191.35849833272184,182.73904906289357 192.36328965576135,182.51137182370962 193.3994669800188,182.4249521360165 194.45192901442337,182.4883143732569 195.50421836457784,182.70862422697573 196.53863076075007,183.09150638085762 197.5363469588372,183.6408690720436 198.47758718687143,184.3587381811544 199.34178772046084,185.2451035507435 200.10779886719217,186.29778026051267 200.75410332528674,187.5122875842041 201.25905355885473,188.88174831553573 201.60112650439817,190.3968110770482 201.75919359453212,192.045598114791 201.7128037592472,193.81368093226402 201.44247674667943,195.68408592822533 200.93000379873405,197.63733197459368 200.15875242662847,199.65150160290372 199.1139717621815,201.70234716131014 197.78309471723935,203.76343296019982 196.15603297075094,205.80631404483114 194.22546062537967,207.8007518204071 191.98708223773565,209.7149663115057 189.43988083271626,211.51592436731363 186.58634146717293,213.1696626306857 183.43264591498374,214.64164357727657 179.98883410800607,215.89714240600978 176.26892808825764,216.9016620296008 172.29101440843579,217.62137287985752 168.07728116235774,218.02357371358872 163.65400613523778,218.0771690880798 159.05149293636043,217.75315867747997 154.3039524133276,217.02513313056534 149.44932714650727,215.86977073385071 144.52905738258346,214.26732874964472 139.58778738431192,212.20212295411272 134.67301184590127,209.6629886133494 129.83466274513592,206.643715913289 125.12463776875649,203.14345270910653 120.59627225012632,199.16706738827745 116.30375739032971,194.72546465482367 112.30150838721912,189.83584714600283 108.64348696233571,184.52191599154793 105.38248364313411,178.8140037234408 102.56936601687875,172.7491333440287 100.2523000116963,166.37099786392088 98.4759520677925,159.72985522922008 97.28068082561587,152.88233426968733 96.701727665337,145.891148113503 96.76841607084742,138.82471242708394 97.503370349016,131.7566668452033 98.92176469878342,124.76529905119801 101.03061398278943,117.93287214161134 103.8281177950723,111.34485715493969 107.30306953110237,105.08907394949316 111.43434214102999,99.25474496850477 116.19046207460796,93.93146781791187 121.5292825990852,89.2081139887121 127.39776718316429,85.17166246524626 133.7318929861656,81.90597835585508 140.4566836688628,79.4905480447737 147.4863797500048,77.99918367473144 154.72475357126626,77.49871100873573 162.06557460643108,78.04765586673342 169.3932293634128,79.69494536783989 176.58349848802175,82.47864111120845 183.50449189637945,86.42472217827753 190.0177408512035,91.54593641652136 195.97944387092596,97.8407388512267 201.24186123729996,105.29233624961171 205.65485066671235,113.86785681462135 209.0675344550527,123.51766369950337 211.33008612007387,134.17483049631977 212.29562227510573,145.75479605172185 211.8221832019617,158.15521489401544 209.7747833787009,171.2560182120285 206.02751109071292,184.91969870689948 200.46565424352116,198.9918307443189 192.98782763560524,213.30183507214883 183.50807527261213,227.66399494561966 171.95791984367725,241.8787278321626 158.28833026887537,255.73411396703614 142.4715772958046,269.0076799198707 124.50294650335935,281.4684320357178 104.4022777904111,292.8791311607346 82.21530051262972,302.99879648470545 58.014733905444444,311.5854226663977 31.9011233154082,318.39889069290473 4.003384072290714,323.2040492036929 -25.520973417573487,325.7739393298526 -56.485961582307596,325.8931325076045 -88.67759818341295,323.36114727300526 -121.8547718986498,317.99590778434805 -155.7505059606678,309.63720380332643 -190.07363087669177,298.15010914956315 -224.51087290670426,283.4283132794198 -258.72936025552025,265.39731868210987 -292.3795438715949,244.01745528559871 -325.0985243825745,219.28666207084393 -356.51377108099587,191.24298565197384 -386.2472130561773,159.96674573444423 -413.919676609028,125.58231815110004 -439.1556370499312,88.2594876299627 -461.58824693594727,48.214324594008275 -480.8645968270313,5.709543151867251 -496.6511588106101,-38.94569897859162 -508.6393574420873,-85.39659356050277 -516.5512074606195,-133.24409785401025 -520.1449527515921,-182.04699772594375 -519.2206366273197,-231.32463559172618 -513.6255296729588,-280.56031384756125 -503.259338241582,-329.20537676358447 -488.07911426453825,-376.6839655696908 -468.1037854505074,-422.3984327404464 -443.4182242542364,-465.73539235005944 -414.1767742726611,-506.0723739088561 -380.6061540334704,-542.7850374051393 -343.0076605319389,-575.2548974659028 -301.75859838886066,-602.8774947305023 -257.3128651773071,-625.0709428245173 -210.2006293181857,-641.2847698550815 -161.02704398017164,-651.0089642577371 -110.46994863029983,-653.7831262465526 -59.27651924388789,-649.2056181950575 -8.258838657239266,-636.9426001476522 41.711629922174154,-616.7368304717817 89.71067071816377,-588.4161065500386 134.76903556179485,-551.9012165143422 175.88123330537778,-507.21327047118973 212.01535047931503,-454.48027857952843 242.12384981413763,-393.9428438326968 265.15527750104866,-325.95883956267846 280.0667941201342,-251.00694561402997 285.837428211373,-169.68892289536262 281.48193569748025,-82.73051365926443 266.0651329981574,9.019135582149488 238.71655692027284,104.58962011954833 198.6452904925281,202.89307031242194 145.15478106560806,302.72965502678 77.65746545102664,402.7948411492648 -4.310993145427403,501.68843630511225 -101.07805989946576,597.9254215348064 -212.82148463879645,689.94855886298 -339.5574734868619,776.1427355975513 -481.1300914652222,854.8509830292389 -637.2021107796708,924.3920821902435 -807.2475159264443,983.0796437307501 -990.5458702997489,1029.2425230619463 -1186.1787395483818,1061.246405996092 -1393.0283544357592,1077.5163745096802 -1609.7786803542192,1076.560237304368 -1834.9190419172728,1056.9923858963948 -2066.750429226059,1017.5579143938356 -2303.3945875425993,957.1567202950592 -2542.805964308605,874.8672849371547 -2782.7865568740162,769.9698160145666 -3021.003671138205,641.9684212445648 -3255.0105657984145,490.61197213538316 -3482.2699193288186,315.91331025660605 -3700.1800175090766,118.16644573980996 -3906.1035186559584,-102.03860075556304 -4097.398612100844,-343.8036554302124 -4271.452343353516,-605.9132802971083 -4425.715837289764,-886.8290104563021 -4557.741109120584,-1184.6872360241603 -4665.219112396671,-1497.3009995677814 -4746.0186344492795,-1822.1659493387351 -4798.22561306122,-2156.470653008103 -4820.182414406047,-2497.1114360827864 -4810.5265819998185,-2840.7118639050404 -4768.228540187025,-3183.646936347687 -4692.627714130015,-3522.072010334703 -4583.466511968882,-3851.9564075295543 -4440.921604322858,-4169.121603408762 -4265.6319321323535,-4469.283830009708 -4058.72287646952,-4748.100858519108 -3821.826033797327,-5001.222660226983 -3557.094057593298,-5224.345575949714 -3267.210052565853,-5413.2695556243125 -2955.39104109144,-5563.957962246893 -2625.3850631147648,-5672.5993685690655 -2281.4615206158155,-5735.670711914226 -1928.3944357877613,-5750.0011130969215 -1571.4383581149038,-5712.835610706916 -1216.2967293040574,-5621.898012948265 -869.0825961066762,-5475.452026792467 -536.2716489519094,-5272.359789383774 -224.64765835740013,-5012.136900370108 58.75951946408486,-4695.003037021811 306.74309240232833,-4321.927227486527 511.9952547298605,-3894.6668620824357 667.1893889813416,-3415.7995388377444 765.067943351935,-2888.746868126849 798.5352694029742,-2317.789402702783 760.7545951838335,-1708.071914022965 645.2482021132166,-1065.598303713081 445.999771634604,-397.215520360758 157.55777133890436,289.41405353838064 -224.8613384662558,985.8521720313304 -705.2713762544039,1682.936560947509 -1286.8175560249508,2370.8451932905477 -1971.6818727340278,3039.1730370896084 -2760.9942221730644,3677.0211549779556 -3654.7507479820156,4273.097872977166 -4651.740918646496,4815.831566853535 -5749.484829478086,5293.494439591698 -6944.182197606331,5694.336484791949 -8230.674470974283,6006.7286501035 -9602.421404469502,6219.314034272797 -11051.493367084653,6321.165773269477 -12568.58053307209,6301.950097633058 -14143.01997735385,6152.092877134742 -15762.84154117225,5862.947812626624 -17414.83315858641,5426.964291154443 -19084.626138707074,4837.852791661915 -20756.800683590267,4090.7456175242964 -22415.011688860555,3182.3506412795805 -24042.134625109913,2111.0956787634805 -25620.431034932782,877.2610667675242 -27131.73290543463,-516.901997456799 -28557.644891823315,-2067.0697830070703 -29879.76307717619,-3766.7634019813368 -31079.9086598647,-5607.287542235533 -32140.37466686033,-7577.692751379646 -33044.18350190919,-9664.76332126712 -33775.35285621729,-11853.032641092263 -34319.167239865565,-14124.827670701721 -34662.452138817185,-16460.343934174223 -34793.84756932529,-18837.7521479057 -34704.07759304904,-21233.337278622796 -34386.21217648599,-23621.670476686082 -33835.91763158559,-25975.813951000586 -33051.691764661766,-28267.55844659887 -32035.079791813787,-30467.692557789032 -30790.867054583872,-32546.30266245475 -29327.24459281031,-34473.101800942524 -27655.943705484846,-36217.78535072949 -25792.335757358484,-37750.410870927626 -23755.49367104326,-39041.79901425846 -21568.211782851733,-40063.95193440409 -19256.98103641504,-40790.48515988902 -16851.91684138583,-41197.068468432764 -14386.637334719728,-41261.87088478088 -11898.090247842854,-40966.00454724073 -9426.32710239019,-40293.96185044205 -7014.224027264313,-39234.03998109887 -4707.149106818352,-37778.74672652251 -2552.5768294848626,-35925.18125888077 -599.65090279196,-33675.38348794868 1101.3025717517455,-31036.645537174314 2499.3088189385885,-28021.778937610306 3543.3214926676687,-24649.33125633944 4182.838873217706,-20943.74608445677 4368.554096918072,-16935.460607637 4053.033593248886,-12660.93537212113 3191.4171628573567,-8162.611341892009 1742.1324204398281,-3488.7899191064407 -332.3843401208369,1306.5677314026043 -3064.96941338493,6164.124953673978 -6483.024184795209,11019.539522346171 -10607.82844041167,15803.920340478484 -15453.884439313995,20444.371034979977 -21028.301988746483,24864.61949796977 -27330.234938480924,28985.73128915189 -34350.379569526754,32726.90363107703 -42070.54528460667,36006.335507350035 -50463.30780612032,38742.168126042336 -59491.75474517818,40853.488750567376 -69109.33291754697,42261.38964292561 -79259.80614532714,42890.07262534731 -89877.33149481282,42667.98856260666 -100886.6609609294,41528.999915970635 -112203.47451844212,39413.553438719515 -123734.84922329964,36269.84909059144 -135379.8676695566,32054.99036262374 -147030.36759605608,26736.100442859293 -158571.8328022268,20291.388035097218 -169884.42378615052,12711.146184522271 -180844.14467461727,3998.667182081263 -191324.14109071804,-5828.943470804564 -201196.12161813644,-16740.07094022824 -210331.8934932133,-28688.029350162702 -218605.00110853816,-41610.6504930738 -225892.45386945186,-55430.03817009572 -232076.52793313653,-70052.5023288534 -237046.624406033,-85368.68587981134 -240701.16470734033,-101253.89553839326 -242949.50205328607,-117568.64626261915 -243713.82640823754,-134159.42684042788 -242931.03881425993,-150859.69193633547 -240554.56977987077,-167491.08344619008 -236556.11541050067,-183864.88134766385 -230927.26422552767,-199783.68139246825 -223680.98715631556,-215043.2939873336 -214852.96308132907,-229434.85548134462 -204502.71245074223,-242747.13984747315 -192714.51210394534,-254769.05544952807 -179598.06530592663,-265292.30825880944 -165288.90233606944,-274114.20956687164 -149948.4886649249,-281040.60297382943 -133764.0198563611,-285888.88225963956 -116947.88483463053,-288491.0687146065 -99736.78205417437,-288696.91366210976 -82390.47639476109,-286376.98929918953 -65190.18826092327,-281425.72865740466 -48436.610372000374,-273764.3734952426 -32447.552061057635,-263343.78732128354 -17555.215525407137,-250147.0895597724 -4103.113350461243,-234192.06615047093 7557.358281452115,-215533.31166284985 17070.67103406587,-194264.0583375818 24081.215489869108,-170517.64837821314 28237.621423891018,-144468.6073301398 29197.311459712415,-116333.27852426165 26631.246983090103,-86369.98134423485 20228.820038957816,-54878.65950740937 9702.840018597017,-22199.989631185206 -5205.440667908488,11286.074918571894 -24721.321965266474,45162.3445479581 -49031.73638678214,78977.03201972693 -78280.48108390073,112246.99627289356 -112563.67139056898,144461.59159683477 -151925.48737348366,175087.1147546076 -196354.2860695988,203571.83471341338 -245779.1524156489,229351.58136260096 -300066.9613112852,251855.86106132081 -359020.0217557107,270514.4581479433 -422374.37151289056,284764.47275819216 -489798.78725782485,294057.73654306954 -560894.5706113406,297868.53926189226 -635196.1648700846,295701.59086664853 -712172.6505808912,287100.1357126422 -791230.1604065245,271654.12805160985 -871715.2450087577,249008.3711138253 -952919.2119751262,218870.51599252425 -1034083.4491926989,181018.81133376464 -1114405.7325960011,135309.4906314843 -1193047.5059725514,81683.68085080174 -1269142.1075992917,20173.714266246046 -1341803.9050222985,-49091.2750885171 -1410138.285411316,-125880.58801047152 -1473252.4347643885,-209858.14492785296 -1530266.8249637464,-300579.73000444815 -1580327.3134618872,-397491.39990697184 -1622617.7463870307,-499929.1551668458 -1656372.9422891282,-607119.9629239711 -1680891.9207986593,-718184.2089795307 -1695551.2283431748,-832139.6445276084 -1699818.2019664897,-947906.8787241952 -1693264.0024299459,-1064316.4524525045 -1675576.2393493082,-1180117.511346414 -1646571.0043361976,-1293988.0774534002 -1606204.1231635045,-1404546.8989947261 -1554581.4350447129,-1510366.8366783326 -1491967.906379274,-1609989.7231280387 -1418795.3879257648,-1701942.609423779 -1335668.8284591043,-1784755.289737399 -1243370.764663015,-1856978.9718536232 -1142863.9163948484,-1917205.938262225 -1035291.7286006561,-1964090.0197889018 -921976.7160873455,-1996367.6817073463 -804416.4850768024,-2012879.5012636646 -684277.3259406181,-2012591.795876218 -563385.2946733296,-1994618.1432837972 -443714.7263985242,-1958240.5189386534 -327374.152368399,-1902929.7623122819 -216589.6223257047,-1828365.0728277564 -113685.46651925432,-1734452.2281679306 -21062.565832028253,-1621340.213033657 58825.765913844974,-1489435.945318688 123500.14671495257,-1339416.7893806556 170483.56004367655,-1172240.5528428552 197331.6415480833,-989152.6743462658 201664.56540559995,-791690.3250312912 181200.24004637674,-581683.1663674503 133788.4872067366,-361250.53131798154 57445.84417792526,-132794.82472714654 -49609.4027839344,101009.0278063699 -188922.37508041237,337228.21557096596 -361767.39549331757,572690.8539816187 -569114.8881205755,804009.0166415233 -811599.8713262355,1027605.9839565638 -1089492.5433225362,1239747.651277673 -1402671.467463096,1436577.9839660544 -1750599.865979944,1614158.348873952 -2132305.5263338713,1768510.4920740803 -2546364.8132077046,1895662.8718782018 -2990891.261153816,1991699.9949402034 -3463529.1977741458,2052814.3422730349 -3961452.8148990967,2075360.4120988767 -4481371.065456715,2055910.3484141054 -5019538.716587786,1991310.568832557 -5571773.835158239,1878738.7535420635 -6133481.920338701,1715760.5099547124 -6699686.829652509,1500384.9857379927 -7265068.57023267,1231118.6672620364 -7824007.946475822,907016.571949459 -8370637.969446257,527730.0223989738 -8898901.842975728,93550.17826121449 -9402617.247249225,-394553.5005949494 -9875546.543677825,-934900.6784092821 -10311472.426058419,-1525074.25575701 -10704278.443511311,-2161901.9405181245 -11048033.721662741,-2841446.007298603 -11337081.111264555,-3559001.922048244 -11566127.899243644,-4309106.443689594 -11730338.127428774,-5085555.737683299 -11825425.480326565,-5881433.947762879 -11847745.626747333,-6689152.571888946 -11794386.832258057,-7500500.877276058 -11663257.601794185,-8306707.467781077 -11453170.065691171,-9098512.985826874 -11163917.789250826,-9866253.791361801 -10796346.667015016,-10599956.313288346 -10352417.559364697,-11289441.615666684 -9835259.341973424,-11924439.563310983 -9249211.068962174,-12494711.810804565 -8599851.999115027,-12990182.677266119 -7894018.301839366,-13401076.808343468 -7139805.34611066,-13718062.36894796 -6346554.581644762,-13932398.357334461 -5524824.1469688425,-14036084.485515466 -4686342.483663643,-14022011.934975943 -3843944.3993016444,-13884113.172562215 -3011489.202734287,-13617508.901597211 -2203760.7333243815,-13218650.130044349 -1436349.3191453086,-12685453.263179423 -725515.9264563033,-12017426.074918965 -88039.00201498638,-11215782.3817698 458955.2411709404,-10283543.238230795 898178.0876632541,-9225622.494139394 1212377.8649577952,-8048894.604431922 1384552.239617447,-6762242.661358417 1398171.4720869323,-5376584.729348503 1237410.5815802617,-3904876.704144215 887388.1242080407,-2362090.090832479 334409.05123120727,-765163.299989891 -433791.10627139366,867074.7031383279 -1427803.6811568227,2514009.2955091363 -2656309.0750686773,4153374.2432895675 -4125847.007846145,5761415.18081673 -5840598.214997314,7313082.45595868 -7802181.0824934635,8782252.906506622 -10009466.7562342,10141979.743053507 -12458416.270849572,11364769.308828337 -15141943.206220977,12422883.070136892 -18049805.297754638,13288662.766803268 -21168528.295956973,13934876.225087542 -24481365.190658156,14335080.911112472 -27968293.684202395,14464001.886305619 -31606054.515553996,14297920.423468841 -35368232.90362352,13815069.158746984 -39225384.99392319,12996029.297063878 -43145210.75929906,11824125.06268785 -47092774.32506713,10285810.298670018 -51030772.16422203,8371041.875089733 -54919849.04305526,6073634.372330155 -58718960.99582208,3391590.36775847 -62385783.97409192,327400.5776568029 -65877166.15786695,-3111691.9039025037 -69149621.23795916,-6913468.966744732 -72159859.28961769,-11060562.008608203 -74865351.16378483,-15530328.969233098 -77224921.63297454,-20294788.9273943 -79199365.85249114,-25320618.93627337 -80752083.04379979,-30569217.31164819 -81849720.68498753,-35996837.04317116 -82462821.91327785,-41554792.37269751 -82566468.31651238,-47189740.87750902 -82140909.82442872,-52844042.613786556 -81172173.01641677,-58456197.021463476 -79652638.84990855,-63961357.37141097 -77581580.59204286,-69291921.55686271 -74965652.61558402,-74378197.00126559 -71819320.70644759,-79149136.3837795 -68165224.63203436,-83533139.7820123 -64034463.943336144,-87458917.71090066 -59466798.334853955,-90856408.40961505 -54510754.368904784,-93657741.60855453 -49223630.987711854,-95798239.91034697 -43671396.989071354,-97217447.8573658 -37928474.5290998,-97860177.7492877 -32077403.73662477,-97677560.33375002 -26208384.674375907,-96628087.63742271 -20418694.1566816,-94678634.45022586 -14811976.32427034,-91805444.33803774 -9497407.37455482,-87995065.55495715 -4588736.438921808,-83245221.87005082 -203206.2736766543,-77565603.13006501 3539640.826994162,-70978560.361897 6519264.696543833,-63519690.38893758 8615527.51901369,-55238295.30393777 9710181.756983206,-46197702.7167639 9688433.113035394,-36475433.484743014 8440564.069966247,-26163204.640988898 5863601.832024483,-15366756.46408271 1863012.8523371634,-4205494.080220779 -3645595.3934908765,7188064.346661475 -10734786.114429379,18669038.906737614 -19463640.340376046,30081142.712239422 -29876162.46719496,41257841.871276096 -41999768.00367353,52023719.95953483 -55843877.886149645,62196043.68983 -71398644.03423285,71586523.75465061 -88633830.8425645,80003261.98466682 -107497877.0192142,87252873.05424355 -127917161.57445447,93142766.0046389 -149795496.8199222,97483567.87996031 -173013869.94707727,100091668.81644076 -197430453.10784966,100791865.03003335 -222880899.91651845,99420073.3509814 -249178943.93074498,95826088.29803586 -276117311.9571467,89876350.21207938 -303468961.9726692,81456690.72186425 -330988652.0727723,70475019.83665392 -358414843.1709432,56863917.29424068 -385471934.20702267,40583089.47984483 -411872824.40444195,21621652.31163978 -437321792.6847748,200.00000053556496" stroke="white" stroke-width="1.5" /></svg>