<?xml version="1.0" encoding="utf-8" ?>
<svg baseProfile="full" height="400" version="1.1" width="400" xmlns="http://www.w3.org/2000/svg" xmlns:ev="http://www.w3.org/2001/xml-events" xmlns:xlink="http://www.w3.org/1999/xlink"><defs /><rect fill="black" height="100%" width="100%" x="0" y="0" /><circle cx="200" cy="200" fill="yellow" r="10.000000000006912" stroke="orange" stroke-width="2" /><polyline fill="none" points="201.62868747604549,200.0 201.66553005664244,200.0874327196965 201.69367191506473,200.1783114628651 201.71249489384928,200.27169290845092 201.72146573096217,200.36653798605235 201.72014872125595,200.4617183421287 201.7082180235513,200.556024348443 201.68546943687508,200.6481746563534 201.65183146418343,200.73682728157655 201.6073754786075,200.82059218397455 201.55232480604994,200.89804528594271 201.48706253898453,200.9677438512977 201.41213789971025,201.02824312440853 201.32827097719706,201.07811410691656 201.2363556701307,201.1159623270237 201.13746067988245,201.14044743426393 201.0328284109399,201.1503034312107 200.92387165283992,201.14435933302047 200.81216793682557,201.12156002638125 200.69945148224187,201.08098708165326 200.58760267199463,201.02187925607947 200.4786350230925,200.943652412226 200.37467964719582,200.84591856461242 200.27796722700276,200.7285037591085 200.19080756695627,200.59146448440575 200.11556681086992,200.43510231299246 200.05464245432006,200.2599764708175 200.01043631566878,200.06691404044577 199.98532566597802,199.8570175121746 199.9816327544139,199.63166941144462 200.00159300157418,199.39253374905297 200.04732216801406,199.1415540632197 200.12078283860163,198.88094784948603 200.22375059468746,198.61319720569062 200.35778027489786,198.34103555478163 200.5241727511342,198.06743034781974 200.72394266855073,197.79556169299084 200.95778761638095,197.5287969034953 201.22605920998217,197.27066100747004 201.52873657289962,197.02480331621825 201.86540271066585,196.7949602025012 202.23522426504599,196.584914297954 202.63693512815445,196.3984503772309 203.06882437999798,196.23930825562226 203.52872899030183,196.11113308591712 204.0140316957734,196.01742349847115 204.52166442715333,195.96147808500046 205.04811761647744,195.94634078074262 205.58945566399808,195.97474575047278 206.14133878634496,196.04906243058144 206.69905140301182,196.1712414211547 207.25753714748413,196.34276195789383 207.81144051274364,196.5645817229321 208.35515505905568,196.83708977534084 208.8828780255336,197.16006339559414 209.38867109675047,197.53262964275942 209.86652698249446,197.9532324180433 210.31044137360985,198.41960581296783 210.71448974077185,198.92875449438446 211.07290834715397,199.4769418413664 211.38017875145695,200.05968650046233 211.63111498595813,200.6717679656982 211.82095250642288,201.30724171804553 211.9454379282599,201.95946437595535 212.00091848758393,202.6211292142507 211.98443009826485,203.28431230360604 211.89378281797775,203.940529407598 211.7276424890854,204.58080364964874 211.485607285196,205.19574382901567 211.1682778726998,205.77563312439602 210.77731988966588,206.3105277769689 210.31551745323904,206.7903651931977 209.7868164320608,207.205080753032 209.19635626304228,207.54473245299297 208.5504891526779,207.79963235783697 207.85678558245544,207.96048368104098 207.1240251360492,208.01852216529684 206.36217178290497,207.9656602916939 205.5823328883537,207.79463271252067 204.7967013740751,207.4991411798754 204.01848062388456,207.07399713280915 203.2617919174738,206.51526001178206 202.54156437766954,205.82036929300332 201.87340763348448,204.98826817888346 201.2734676299472,204.01951684638567 200.75826625437114,202.9163931444156 200.34452569505632,201.6829786462634 200.04897869985848,200.32522800503108 199.88816615582394,198.85101963023354 199.87822366417424,197.27018580337483 200.0346590341363,195.59452048000213 200.37212286109497,193.8377631859264 200.90417458579861,192.0155576060246 201.64304664828128,190.1453836849708 202.59940954911795,188.2464623096623 203.78214080792455,186.3396319218675 205.198100960995,184.4471967151583 206.85191986304847,182.59274640049 208.74579664877325,180.80094787741075 210.87931676490507,179.09730951992074 213.24928949989268,177.5079191741415 215.84960941298579,176.05915736543534 218.6711449953605,174.77738762129067 221.70165778059464,173.68862622861568 224.9257549587586,172.81819415518115 228.32487833644,172.1903542696257 231.87733222352156,171.8279373872163 235.55835251642682,171.75196104376462 239.34021888737698,171.9812452518861 243.19241158116705,172.53202981621473 247.0818138669317,173.41759807126815 250.9729606949107,174.64791215146002 254.82833357060875,176.2292651014588 258.6087010849816,178.1639552810615 262.2735039340868,180.44998860664572 265.7812826304327,183.08081419609763 269.09014545715667,186.04509894135492 272.15827355193414,189.3265464183574 274.9444593375412,192.9037653548919 277.4086738482215,196.7501926098863 279.5126578438938,200.83407527127116 281.22053096667753,205.11851605257405 282.49941258543487,209.56158566085452 283.32004740355256,214.11650522134866 283.6574283826594,218.73190117923582 283.49140907011787,223.35213435933395 282.80729702058414,227.91770405447642 281.59641968115636,232.36572713818146 279.85665387475296,236.6304912635189 277.59290987606767,240.6440802255084 274.81756103680544,244.33706853778335 271.55080998926286,247.63928121558428 267.8209826461477,250.4806136774273 263.6647415252855,252.79190558905043 259.12721036483134,254.5058613884076 254.26200256082544,255.55800916332285 249.13114665599585,255.88768851838643 243.8049029367325,255.43905707980701 238.3614661525865,254.16210436166722 232.88655045626146,252.01366087007747 227.47285386681625,248.95838956886033 222.21940087783133,244.96974618729283 217.23076325683598,240.03089433243986 212.6161606017102,234.13556099055182 208.48844382150645,227.28881777794777 204.96296637877495,219.50777324486364 202.15634985179915,210.82216165781423 200.18515213020714,201.2748139975722 199.16444832664,190.92199741971314 199.2063362494781,179.83361013976105 200.41838001466078,168.0932196301365 202.90200705486475,155.79793315392504 206.75087538729696,143.05809101102653 212.049229501991,129.9967744329793 218.87026460525206,116.74912182831585 227.27452017213687,103.461449042464 237.30832480212126,90.29017144373536 249.00231520849226,77.40052796549226 262.3700527804249,64.96510970682112 277.4067615143452,53.16219829946337 294.0882111967916,42.173921963885704 312.3697695152795,32.1842399757862 332.185646259709,23.37676911678244 353.4483519403746,15.932468557654317 376.0483919784417,10.027202485044285 399.85421611307675,5.829202596519906 424.71244081216,3.4964553161263723 450.4483602706803,3.174041183265331 476.8667590367005,4.991456301088874 503.75303642807216,9.059947955129473 530.8746497072972,15.469898486927178 557.9828794855412,24.288293189626927 584.8149170531105,35.556309342448685 611.0962693111369,49.28706447950006 636.5434727411073,65.46356255858632 660.8671034335387,84.03687682302203 683.7750656475946,104.92460780270869 704.9761367373803,128.00965405248934 724.183741609896,153.13933185297282 741.1199252300265,180.12487818360705 755.5194871186421,208.74136880720255 767.1342373632524,238.72808027300505 775.7373294412034,269.7893210518099 781.1276212095485,301.5957528686602 783.1340118108982,333.7862186108214 781.619699048421,365.9700879831454 776.4862990628534,397.73012638970283 767.6777679656406,428.6258863778444 755.1840635085257,458.19761443496014 739.0444839611022,485.97065903356696 719.3506211799679,511.4603586393774 696.2488654367166,534.1773809998845 669.9424009715389,553.6334774951758 640.6926334919108,569.347608742792 608.8199939708223,580.8523900950835 574.7040671363814,587.7007982472597 538.7829979946048,589.473072988292 501.55213558932576,585.7837412801598 463.56187996560095,576.2886844515047 425.41470594195704,560.69216344915 387.761345775933,538.7537119151148 351.2961220774955,510.29480245677723 316.75143232364115,475.2051879603956 284.8913969793025,433.4488172661506 256.50469444574753,385.06922307371656 232.39661773634623,330.19427967171487 213.38039980644777,269.0402290641458 200.2678667130225,201.9148763740857 193.85949011306923,129.21985909965423 194.93392287984884,51.451899926531894 204.2371136658965,-30.79704060260937 222.47110790684278,-116.84078718232945 250.2826538694616,-205.90121466197695 288.2517427256418,-297.1118098232676 336.8802211030919,-389.5225726086759 396.58062294482875,-482.1062855821224 467.6653746258273,-573.7661653113456 550.3365329532276,-663.3448930879844 644.6762197494681,-749.6350050705568 750.6379190272855,-831.3906036915375 868.0388031649704,-907.3403331786867 996.5532528466863,-976.2015424887861 1135.7077317296764,-1036.6955390447229 1284.8771707404494,-1087.5638166281553 1443.283008509885,-1127.5851208504866 1609.9930236807672,-1155.5931960596163 1783.923081634921,-1170.4950386068335 1963.8409025935805,-1171.2894633751291 2148.3719400767623,-1157.0857736422777 2336.0074384292598,-1127.1223090086287 2525.1147156308953,-1080.7846325511262 2713.949693037431,-1017.6231068590271 2900.6716672132784,-937.3695994447298 3083.360290818584,-839.9530514757671 3260.034699837696,-725.5136400980015 3428.674693553739,-594.4152640535646 3587.243841888329,-447.256085055203 3733.7143623712686,-284.87686364995176 3866.093576446974,-108.36683824667574 3982.4517224536394,80.93309028380021 4080.9508708430394,281.43008841758586 4159.874656479122,491.2822326510329 4217.6585136138,708.4046380573989 4252.92007185243,930.4790164528313 4264.48934655951,1154.9667748548168 4251.438335188761,1379.1257282832257 4213.10961241856,1600.0304609462248 4149.143502189914,1814.596326742298 4059.5033942197983,2019.6070341238355 3944.498766714076,2211.745712092278 3804.8054762171005,2387.6293038701606 3641.482880158217,2543.8460831155744 3455.987367994228,2676.9960349557523 3250.18189315463,2783.733791210647 3026.341120471226,2860.8137565933116 2787.1518325479715,2905.137011085443 2535.708273665287,2913.7995238033445 2275.5021513046454,2884.141166226181 2010.4070631329407,2813.7949684080854 1744.6571711279341,2700.736021503135 1482.8200041936755,2543.3293943637887 1229.7633357559962,2340.376401887489 990.6161529995759,2091.1585389247844 770.7238090734872,1795.4783766390121 575.597528123723,1453.6967088974977 410.8585146909145,1066.7652352028495 282.17700303460236,636.2540744063583 195.20666742273264,164.37342047555256 155.5149003917155,-346.0113216727899 168.50955140098011,-891.3715454981386 239.36280207759876,-1467.5151755391191 372.93293521870595,-2069.5946443665975 573.6848316973922,-2692.1235669931993 845.6101011764052,-3329.002488109117 1192.1478178311622,-3973.553989795306 1616.106889874271,-4618.567350192991 2119.5911403252376,-5256.352837558523 2703.9282149782,-5878.805609931056 3369.603460727405,-6477.479069158773 4116.199932221834,-7043.667390295879 4942.345686220103,-7568.496814563105 5845.669510090376,-8043.0251574733375 6822.766202848738,-8458.348844807688 7869.172483288714,-8805.71664945691 8979.354539612863,-9076.649163406924 10146.708158191519,-9263.06290313381 11363.572275483217,-9357.397815256207 12621.256686795941,-9352.746824415399 13910.084518698379,-9242.985949007492 15219.449928977523,-9022.903404594519 16537.891339786118,-8688.326021597888 17853.180336975023,-8236.241225227392 19152.42618274061,-7664.91276347815 20422.195691068126,-6973.988325316173 21648.648007683736,-6164.597167646447 22817.683620250536,-5239.435867961177 23915.106702494417,-4202.840341183407 24926.799670177785,-3060.8423054439722 25838.90859991465,-1821.208453431999 26638.03793648582,-493.460684365809 27311.45269347405,911.1241229070537 27847.286138749307,2379.53616240425 28234.750753749788,3897.0777658160728 28464.350066862677,5447.432459522586 28528.088789793153,7012.758760849662 28419.678534903745,8573.80920283635 28134.73626436088,10110.074795677407 27670.972521719366,11599.954830478837 27028.366426349217,13020.951609349282 26209.324373758587,14349.889347867605 25218.819383043054,15563.156144727796 24064.508068811894,16636.967552345963 22756.822291087163,17547.6499152573 21309.032654581082,18271.94127440101 19737.281189762205,18787.30726935758 18060.580753100385,19072.269111997342 16300.778933234451,19106.740358781815 14482.484543404324,18872.36888026864 12632.955117639169,18352.880120465168 10781.944207621684,17534.417460890603 8961.507696966271,16405.875259880744 7205.768807336879,14959.21993207981 5550.641963233765,13189.794271366856 4033.5162055966184,11096.600107609114 2692.8993941635035,8682.554328295455 1568.025009726978,5954.713294604335 698.4239543675782,2924.460741694176 123.46434417333897,-392.34562164622935 -118.13711191106694,-3975.2734055800984 11.172041107148829,-7799.26505229759 547.2477023168599,-11834.641563030653 1523.7027902899151,-16047.164025537397 2971.352561573417,-20398.156049807112 4917.658034095408,-24844.68967021614 7386.174327431059,-29339.836654236275 10396.011127434675,-33832.986474118945 13961.312815147405,-38270.231452891836 18090.766060775422,-42594.81879465167 22787.142864863676,-46747.668357723865 28046.88712298375,-50667.9541350268 33859.75279030191,-54293.74647717709 40208.501621989846,-57562.71113974627 47068.6682591108,-60412.860266803444 54408.4001128253,-62783.34944949066 62188.37906906076,-64615.31403271524 70361.8314889091,-65852.73689764188 78874.63231597276,-66443.3390356331 87665.50832109098,-66339.48336421097 96666.34461924322,-65499.081431402374 105802.59758638614,-63886.49192555624 114993.81619060981,-61473.399267487315 124154.27253902976,-58239.660024529934 133193.70113767352,-54174.10446535534 142018.1449763981,-49275.28028325876 150530.90509640166,-43552.125366364045 158633.58878759627,-37024.5564971739 166227.2500120893,-29723.961031328236 173213.6140747721,-21693.578945207286 179496.37698061328,-12988.763161405519 184982.5683498554,-3677.1067657163235 189583.9652273763,6161.573377279089 193218.5426423141,16435.406019088987 195811.94537073784,27040.79606824254 197298.9640502938,37862.92295287112 197624.9976142682,48776.41183970854 196747.4829762339,59646.18093091578 194637.27202804963,70328.46608523768 191279.9353354971,80672.02188732204 186676.97144840725,90519.49603507407 180846.90050572885,99708.97154893643 173826.22082903708,108075.66885090854 165670.20747699108,115453.79723945937 156453.53229260095,121678.54272623088 146270.68582666726,126588.17663084317 135236.18267336767,130026.26678252537 123484.53321353861,131843.9706848842 111169.96653013612,131902.38759759357 98465.89133735222,130074.94421202883 85564.08414473444,126249.78648364652 72673.59655108383,120332.14826941187 60019.3765162553,112246.66574096672 47840.601674355494,101939.60514029695 36388.72620664984,89380.97035013343 25925.246459940212,74566.45600060532 16719.194344785174,57519.21145907112 9044.371542011357,38291.38108146798 3176.34164554977,16965.386567733898 -610.798469208031,-6345.0818159277715 -2047.8425872339903,-31494.396989846417 -874.0648035280824,-58304.67974576174 3159.058768735439,-86565.86393700773 10284.033780497683,-116036.16686077045 20713.478162171028,-146442.98613231356 34636.24404282503,-177484.2404723841 52213.57884608712,-208830.16747383753 73575.37605133124,-240125.5866041373 98816.56837831883,-270992.63046617346 127993.7179188407,-301033.94171748514 161121.85894436567,-329836.32708142773 198171.64971172702,-356974.8536242292 239066.8895210815,-382017.3659775061 283682.4565083652,-404529.3965217469 331842.7201406542,-424079.43378398917 383320.4800963968,-440244.50752003235 437836.4801301047,-452616.04223102116 495059.54162788304,-460805.9242938794 554607.3568500415,-464452.7215566305 616047.9763342753,-463227.9882581755 678902.0186113361,-456842.5825745186 742645.6232902147,-445052.9190680908 806714.1607379996,-427667.07392185036 870506.7030587735,-404550.65717206337 933391.251926113,-375632.3633075113 994710.7091166734,-340909.10966873635 1053789.5654113314,-300450.67114394065 1109941.272970388,-254403.71979677232 1162476.2554564858,-202995.17934579775 1210710.4991894779,-146534.80690668122 1253974.6575978666,-85416.91815585311 1291623.5903167278,-20121.177116278865 1323046.2476148673,48787.621874254975 1347675.8005637995,120660.84476492617 1364999.907642334,194768.43670891642 1374570.9994608124,270302.5147366778 1376016.4551480508,346382.1680667019 1369048.536831363,422059.48717963434 1353473.9427127824,496326.8289089676 1329202.8346561075,568125.3099095278 1296257.1930965064,636354.5050705302 1254778.3506048264,699883.3108792428 1205033.555710221,757561.916568662 1147421.4207204867,808234.8082712307 1082476.1113785086,850754.7135397217 1010870.142335442,883997.3756917241 933415.6506674896,906877.02970544 851064.0300516416,918362.434074108 764903.8207606372,917493.2963570283 676156.7653272428,903396.9143979321 586171.9565236135,875304.8405729268 496418.02313500084,832569.3632396432 408473.3197807248,774679.5880456947 324014.10962067585,701276.892173718 244800.75302289924,612169.5172005506 172661.94096633545,507346.06126784097 109477.03889065933,386987.62892450637 57156.63463026125,251478.39751400272 17621.412700546305,101414.36252591622 -7220.4937670160725,-62389.96892902839 -15497.493053790457,-238897.1572988602 -5399.657663700052,-426844.8897204227 24795.25739212506,-624746.7094300647 76695.16519651616,-830895.5853167109 151766.65635281248,-1043370.4675263716 251307.9808620604,-1260045.9476551034 376422.3374475105,-1478605.111387891 527991.8239587995,-1696555.637613012 706652.4179739109,-1911249.1612767228 912770.3686485077,-2119903.877800732 1146420.3888534042,-2319630.325077104 1407366.0403283755,-2507460.235243384 1695042.7036301629,-2680378.3030357496 2008543.5187656095,-2835356.670977947 2346608.671319917,-2969391.884491524 2707618.3824053355,-3079544.022753399 3089589.9387099803,-3162977.664361463 3490179.071221962,-3217004.30121313 3906685.957806538,-3239125.7700978387 4336066.085757154,-3227078.2300154376 4774946.165832434,-3178876.174836598 5219645.239313562,-3092855.9363036873 5666201.064531782,-2967718.102214093 6110401.809467535,-2802568.249607336 6547823.012836965,-2596955.3735476094 6973869.70806514,-2350907.3792812773 7383823.533288952,-2064962.9997440975 7772894.576705665,-1740199.5021369243 8136277.63093103,-1378255.557064887 8469212.45337334,-981348.6619606579 8767047.55285408,-552286.5375253987 9025306.94675596,-94471.95197582728 9239759.258860076,388099.5268632405 9406488.456785629,890849.2970786579 9521965.460650714,1408633.387564298 9583119.792330256,1935768.331345101 9587410.378611615,2466065.474957868 9532894.572750425,2992873.861806341 9418294.41850218,3509131.729973041 9243059.149713665,4007426.560505484 9007422.898020433,4480063.5015288135 8712456.57206628,4919141.877631457 8360112.874817237,5316639.373916436 7953263.441769633,5664503.361124238 7495727.1128215855,5954748.703646691 6992288.394839012,6179561.267508235 6448705.230907283,6331406.222032968 5871705.266167877,6403140.108569291 5268969.889079241,6388125.534008649 4649105.43081211,6280347.2376646595 4021601.0239994056,6074528.179164234 3396772.7547167214,5766244.204152629 2785693.887667413,5352035.7656325195 2200111.103171061,4829515.113422881 1652346.8545682055,4197467.3142598765 1155188.1347106148,3455943.4321248643 721762.1287315426,2606344.184019051 365399.42551225645,1651492.3920374438 99485.66019549439,595692.5794921515 -62697.33742587799,-555223.8919110709 -108139.61114518171,-1793869.6743456572 -24278.885345804374,-3111289.709700874 200817.5624809871,-4496968.2424124 578266.8246298225,-5938855.737611162 1118182.1195078397,-7423416.703556312 1829484.5830235595,-8935699.224190382 2719717.443849611,-10459426.79156745 3794865.059196093,-11977112.790009769 5059179.393312875,-13470197.725642143 6515016.601474528,-14919209.018291356 8162686.435010742,-16303942.879821427 10000317.205515053,-17603667.496363897 12023739.036389237,-18797346.41449041 14226388.085304616,-19863880.70638909 16599234.340220923,-20782368.160080336 19130735.472873088,-21532377.411469173 21806819.07605769,-22094234.609654207 24610895.41398739,-22449319.889711708 27523902.57823675,-22580370.622636274 30524385.66566974,-22471788.124884382 33588611.280003875,-22109944.244769022 36690718.30667623,-21483484.004562464 39802905.52329828,-20583620.270346697 42895656.18768227,-19404416.25109101 45937999.295205496,-17943051.498683892 48897806.720760405,-16200066.99605402 51742124.96186809,-14179584.88515114 54437539.68344701,-11889498.40416769 56950570.736471266,-9341627.677289877 59248094.78808611,-6551837.133325632 61297792.165887445,-3540110.5240718424 63068613.990674086,-330579.7709533093 64531265.15702918,3048495.8096888526 65658698.22691196,6564802.965962238 66426612.83556502,10182103.267441655 66813954.779168576,13860419.25987054 66803408.56754748,17556279.544119287 66381876.89061684,21223023.67512046 65540940.17171798,24811167.092247244 64277289.171965554,28268825.559888195 62593123.47423299,31542197.82166582 60496508.62006878,34576104.36064204 58001684.70370892,37314579.318637855 55129319.34983774,39701511.76904231 51906698.220441446,41681331.66853712 48367846.51473369,43199734.94418815 44553575.34744613,44204441.314129576 40511447.4163816,44645977.60399684 36295657.000498936,44478478.51924305 31966820.06409204,43660496.07774666 27591671.078676518,42155808.210196845 23242664.108415388,39934216.41022542 18997476.73226346,36972321.77472112 14938416.489931472,33254268.329552382 11151730.73122207,28772442.199049585 7726822.009686303,23528114.9604904 4755372.480822494,17532019.438220557 2330382.1296514804,10804846.245739754 545127.0485179359,3377649.5868269145 -507954.60188056406,-4707848.8139835 -738439.9034281393,-13399068.259504598 -59151.324807143974,-22632500.02584905 1612572.0970855453,-32333769.76731913 4353575.636203858,-42417839.4129459 8233576.14045001,-52789355.39021319 13313851.132173296,-63343148.64910903 19645946.21271666,-73964890.43792176 27270418.113996524,-84531906.1094192 36215631.459400706,-94914147.42285597 46496627.839127176,-104975321.86688259 58114086.152849175,-114574175.47641519 71053393.30791886,-123565923.47097887 85283844.26829071,-131803820.82335897 100757990.1138166,-139140862.59828576 117411152.17949097,-145431601.60621765 135161119.4898701,-150534068.6238644 153908045.57821438,-154311778.1695665 173534559.37871823,-156635800.61814982 193906103.2024957,-157386879.32785708 214871508.85610735,-156457569.46379673 236263820.74131945,-153754373.3711246 257901372.29605764,-149199845.7101 279589119.41274995,-142734640.14746675 301120231.5188665,-134319468.2368422 322277937.8469649,-123936940.24657783 342837623.08337253,-111593257.13699444 362569163.0952981,-97319722.67823222 381239487.82882226,-81174044.86092134 398615354.78197354,-63241396.30741675 414466312.7283328,-43635204.36093189 428567831.64105374,-22497642.92923339 440704571.09132767,199.9999994602928" stroke="white" stroke-width="1.5" /></svg>