<?xml version="1.0" encoding="utf-8" ?>
<svg baseProfile="full" height="400" version="1.1" width="400" xmlns="http://www.w3.org/2000/svg" xmlns:ev="http://www.w3.org/2001/xml-events" xmlns:xlink="http://www.w3.org/1999/xlink"><defs /><rect fill="black" height="100%" width="100%" x="0" y="0" /><circle cx="200" cy="200" fill="yellow" r="10.02053748892755" stroke="orange" stroke-width="2" /><polyline fill="none" points="199.07815691320326,200.0 198.9820383293089,199.94656166242072 198.88673973480053,199.88279485260892 198.79332348842087,199.80855683005663 198.70289381652591,199.72381751223077 198.6165856869407,199.62866712906285 198.53555254882792,199.52332288464316 198.46095301493,199.4081344764643 198.39393658080994,199.28358832673865 198.33562849402637,199.15031038658427 198.28711390431056,199.00906738229293 198.24942144352752,198.86076638350616 198.22350640125552,198.7064525859411 198.21023367794564,198.5473052163176 198.2103607125709,198.3846314843031 198.22452059516934,198.21985852553883 198.25320558647016,198.05452330104433 198.29675127659814,197.89026044138419 198.35532162243112,197.72878804875677 198.4288951082898,197.57189149643733 198.51725227704193,197.4214052925482 198.61996487819258,197.27919310368043 198.7363868759202,197.1471260631662 198.8656475531402,197.02705951848412 199.00664693740376,196.92080840202723 199.15805376066558,196.83012143891347 199.31830614762245,196.75665443427795 199.48561520640578,196.70194291016065 199.6579716709328,196.6673743882651 199.83315571624283,196.65416063909512 200.00875003678348,196.6633102398417 200.1821562430312,196.69560180246074 200.35061459424332,196.7515582492342 200.5112270448125,196.83142252532184 200.66098353894722,196.93513514600238 200.7967914436034,197.06231398008973 200.91550796316153,197.21223667005924 201.01397533175012,197.38382608341888 201.08905853087327,197.5756391785491 201.13768523166505,197.7858596514001 201.1568876132602,198.01229470691135 201.14384566206962,198.25237627070905 201.09593151183523,198.50316692250465 201.01075434189264,198.7613707926968 200.8862053117815,199.02334961807966 200.72050197491785,199.28514410146926 200.51223158317367,199.5425006637425 200.26039266859053,199.79090361559452 199.96443426875334,200.0256127106903 199.6242921492109,200.2417059723376 199.24042137035232,200.43412761294286 198.81382454788994,200.59774079001073 198.3460751660513,200.72738486508018 197.83933532117493,200.81793675358648 197.29636730098227,200.8643758751092 196.72053844161928,200.86185213577875 196.11581875079034,200.80575629879 195.4867708409943,200.69179202608078 194.8385317819628,200.51604880537704 194.17678655571171,200.27507491311283 193.50773288084125,199.9659495063415 192.83803726442264,199.58635288679602 192.17478223941154,199.1346339388578 191.52540485232745,198.60987371143392 190.89762657907926,198.01194409267273 190.29937496532574,197.341560517036 189.73869741051345,196.60032764739788 189.22366764049656,195.79077699135325 188.7622855410458,194.91639544148362 188.36237115212634,193.98164377450635 188.0314537489857,192.9919642044415 187.7766570591857,191.95377616042305 187.6045817829928,190.87445955064928 187.52118669622095,189.76232488010243 187.53166971786547,188.62656971077752 187.6403504178269,187.47722108873882 187.8505555208563,186.32506371165275 188.1645090297367,185.18155377258913 188.58322864188855,184.0587185896847 189.10643016735364,182.96904231533517 189.7324416708949,181.92533821132923 190.45812905528464,180.9406081759388 191.27883477544907,180.0278904134119 192.18833132287278,179.2000963433583 193.1787910456388,178.4698380547697 194.24077377101864,177.8492478143185 195.36323357421705,177.34979133841443 196.53354588859236,176.9820767304532 197.7375559795827,176.7556611658392 198.95964960716728,176.67885757473647 200.18284648080248,176.7585437230868 201.38891686757546,176.9999762232375 202.558521450339,177.40661211359003 203.67137424972606,177.97994072914804 204.70642812444353,178.71932863896603 205.64208205072384,179.6218804497112 206.45640905723042,180.6823182644852 207.12740335936886,181.8928825406119 207.63324490045875,183.24325700747315 207.95257917048573,184.7205201842067 208.06480984034764,186.30912587608964 207.9504014250382,187.99091482705492 207.59118887767065,189.745159463834 206.97069072237304,191.54864338497313 206.07442206272754,193.37577692624612 204.89020355845818,195.19874977414537 203.40846225136792,196.98772120309386 201.62251994687938,198.71104808228827 199.52886472459767,200.33555033774655 197.127401064538,201.82681306786878 194.4216740392141,203.14952400088475 191.41906303949088,204.2678444547823 188.13094057737163,205.145811420057 184.57279184463852,205.7477678387786 180.76429090485064,206.03881760640056 176.7293296593697,205.98530128222728 172.4959960568818,205.55528796767126 168.09649841061173,204.7190783058455 163.5670331475981,203.44971307935748 158.9475938386668,201.72348144326355 154.28171994387867,199.52042243494458 149.6161843530821,196.824813060081 145.00061950069562,193.62563597172965 140.487082582917,189.91701954528503 136.12956119822442,185.69864301306586 131.9834215613481,180.9760992651632 128.1048022989902,175.76120795422258 124.54995771370633,170.07227166651796 121.37455529095521,163.93426814474245 118.63293311301307,157.37897187318882 116.37732372119245,150.44499876623263 114.65705182294784,143.17776823793147 113.51771406083513,135.62937757458513 113.00034983339076,127.85838428242238 113.1406128710216,119.92949293697603 113.96795391005331,111.9131440155245 115.50482536232285,103.88500324404963 117.76591933348016,95.92535112881795 120.75745068821622,88.11837356169424 124.47649708325022,80.55135567785871 128.91040797812298,73.31378249340445 134.03629457960264,66.49635124553609 139.82061246888858,60.18990178550965 146.21884829415632,54.48427281846068 153.17532137816517,49.46709322799697 160.6231103871543,45.22251914891453 168.48411433039462,41.82992883965966 176.66925610884107,39.36258873746172 185.07883560776622,37.88630533299988 193.603037935697,37.458078657284716 202.12260085643555,38.12477421015885 210.50964375085238,39.921831056589355 218.6286585914249,42.872024553204426 226.33766142858235,46.984302723404994 233.48950078978964,52.25271565586198 239.93331719839347,58.65545744049939 245.51614575043936,66.15404006189172 250.08465136717535,74.6926183278797 253.48698399416412,84.19748430881853 255.5747386722869,94.57674889023629 256.2050030906838,105.72022689158327 255.24247297767445,117.49954077190688 252.56161352508798,129.76845622862635 248.04884300732672,142.36346100050625 241.60471288267408,155.10459591646836 233.14605698487975,167.79654469789205 222.60808096182782,180.22998623733181 209.94636192842555,192.18321005901268 195.13872740513,203.42399243790535 178.1869820424817,213.71172724079253 159.1184504145895,222.7998019844708 137.9873043270273,230.4382059171921 114.87564365051712,236.3763531573948 89.89430068104974,240.36610011008668 63.183339455783,242.16493257056754 34.912223333814836,241.53929416512372 5.279626488575616,238.26802411905948 -25.487132244294827,232.14586883621593 -57.1330514671381,222.9870284748384 -89.37681987403795,210.6286966671797 -121.91260993624724,194.9345488099126 -154.41229856328476,175.79813200431462 -186.5281157720235,153.14610780345492 -217.8957171426789,126.94129748069606 -248.1376702879191,97.18547861974794 -276.86733975839604,63.92188148806076 -303.6931488102539,27.23733393528542 -328.22319032920643,-12.735995505212571 -350.07015300892203,-55.819305008916444 -368.8565226913762,-101.78636370451187 -384.22001267102996,-150.36325605503885 -395.81917082476707,-201.22870584403285 -403.33910574039385,-254.01501467139775 -406.4972686659348,-308.3096445607128 -405.0492231789598,-363.6574682531956 -398.7943300698229,-419.5637040403582 -387.5812711343581,-475.49754460437725 -371.31333246818735,-530.8964813400409 -349.95336553154516,-585.1713170833042 -323.52834279152466,-637.7118511382594 -292.1334242237893,-687.8932110566147 -255.9354514373918,-735.0827958719414 -215.1757877357902,-778.6477855252582 -170.17242509671348,-817.9631611485884 -121.3212828849999,-852.4201708173689 -69.09662813614722,-881.4351654668851 -14.050553481272203,-904.4587200251631 43.188543769873945,-920.9849455831181 101.91852922377568,-930.5608897446523 161.36718369000943,-932.7959143198254 220.69696722145565,-927.370932389304 279.01090994612656,-914.047380623352 335.35963171325926,-892.6757977263085 388.7494786636404,-863.2038761362394 438.1517501373828,-825.6838517707304 482.5129739818474,-780.2790957967408 520.7661724653351,-727.269773227333 551.8430448017682,-667.0574357105024 574.6869759265572,-600.1684202594765 588.2667648265942,-527.2559319475741 591.5909496230105,-449.100696802219 583.722590949912,-366.61008130984203 563.7943601905674,-280.81558709111914 531.0237650559354,-192.86864340517246 484.72833205478094,-104.03463614736472 424.34055384720705,-15.685129846694593 349.42239953032276,70.71174125345829 259.679177807812,153.60271576058344 154.97253696869,231.3626614334155 35.33238185817402,302.30960139728404 -99.03251323507544,364.72144148840584 -247.7254154441364,416.854304158393 -410.15428337658204,456.96234803677265 -585.5263645930221,483.3189256557525 -772.8449384804358,494.2389053012048 -970.9083890698769,488.1019568006218 -1178.3117757344216,463.37657564387365 -1393.4510498879586,418.64459552156075 -1614.5300428207786,352.62591653498725 -1839.5703237273972,264.20315536441507 -2066.4239979231807,152.44590496386957 -2292.7894833702926,16.63427526498475 -2516.2302691494197,-143.71862670462048 -2734.196622674733,-328.845628586751 -2944.0501735569824,-538.7061936242862 -3143.091261419475,-772.9692499823936 -3328.5888930548094,-1030.9985052852842 -3497.813111509909,-1311.8405961982915 -3648.0695364762364,-1614.2164110689328 -3776.735792251484,-1936.5159068288972 -3881.299497071366,-2276.796719426132 -3959.3974463565064,-2632.7868399320423 -4008.8555829752713,-3001.8915961438124 -4027.7293105991703,-3381.2051420282323 -4014.343672247571,-3767.526614854865 -3967.332885808052,-4157.381072532719 -3885.6787023014717,-4547.045271762435 -3768.7470315480086,-4932.578291484676 -3616.322264272538,-5309.8569461595325 -3428.638710127717,-5674.615870142158 -3206.4085681356923,-6022.492088391137 -2950.8458501318523,-6349.0738205941925 -2663.6856893591316,-6649.953196227113 -2347.1984857663033,-6920.78248784691 -2004.1983670918144,-7157.33339988855 -1638.0454806677362,-7355.558881270783 -1252.641675168761,-7511.656863149514 -852.4191842711891,-7622.135259153378 -442.3219852885013,-7683.877505391739 -27.779575111618016,-7694.2078624504975 385.32701711075435,-7650.955652505544 790.7070765973489,-7552.51756259888 1181.7099135351823,-7397.91711102993 1551.3823447711086,-7186.860348674894 1892.5337507747597,-6919.7868517726265 2197.808404659783,-6597.915058156007 2459.7646592343126,-6223.281005838835 2670.9604649635558,-5798.769551973394 2824.0445776201045,-5328.137182048831 2911.8527006249014,-4816.025564266233 2927.5076950789003,-4267.965062623944 2864.5228817657357,-3690.367494555437 2716.907355541253,-3090.507505000672 2479.272135133234,-2476.492028408565 2146.9358820997168,-1857.2174230343453 1716.0288431910021,-1242.313987494133 1183.593602271957,-642.077707160012 547.6811728993521,-67.38922671599965 -192.55907782850954,470.3797960570039 -1036.7972079473925,959.4726327469135 -1983.4497225937475,1387.865225845893 -3029.617368300968,1743.3950520011374 -4171.035197129017,2013.900245807001 -5402.036345858476,2187.367937544809 -6715.530901729011,2252.09057345471 -8103.001130452407,2196.8288052392845 -9554.514224199886,2010.979359010739 -11058.753586927696,1684.7461253589288 -12603.069512016593,1209.3125542657297 -14173.54992330337,577.01329389593 -15755.111646022033,-218.49711645634642 -17331.61245011091,-1182.0807991247514 -18885.9838662608,-2316.960725296943 -20400.38451678204,-3624.5749906255496 -21856.373430984993,-5104.4436721285765 -23235.102530740834,-6754.050769877078 -24517.527178973316,-8568.7437171306 -25684.633385076842,-10541.652890522117 -26717.679959985166,-12663.633466105266 -27598.45361340877,-14923.231846361203 -28309.53469042465,-17306.678726790266 -28834.570958139917,-19797.91067803024 -29158.55657971634,-22378.62189052367 -29268.11315691301,-25028.34746402093 -29151.769487826074,-27724.579324551247 -28800.236478039144,-30442.91551830485 -28206.673465287637,-33157.243267049686 -27366.942074231618,-35839.9557756748 -26279.84361312532,-38462.20236215282 -24947.335961966888,-40994.17103711737 -23374.725885736203,-43405.40219834646 -21570.832739873043,-45665.131629208634 -19548.1196211168,-47742.66050453787 -17322.78815766247,-49607.74961786822 -14914.833330206782,-51231.03455630299 -12348.054971210042,-52584.45806971012 -9650.022904297122,-53641.7154159387 -6851.99305918781,-54378.70802009085 -3988.772329184594,-54774.00037051712 -1098.5304265793004,-54809.27469419429 1777.4424659100973,-54469.77761658036 4595.032855497672,-53744.75272297135 7307.655877892762,-52627.852706709986 9866.661296502452,-51117.52462096685 12221.792123853691,-49217.36165156077 14321.693675556011,-46936.414804283275 16114.470092787442,-44289.45795678433 17548.284579947576,-41297.19986695352 18571.998808599827,-37986.43696084172 19135.846146602744,-34390.14104661993 19192.132592481692,-30547.476519014166 18695.958540203002,-26503.74213222867 17605.953779580326,-22310.233028587398 15885.017463859545,-18024.019413808546 13501.054160077007,-13707.639065558928 10427.696551093413,-9428.701745978275 6645.004892209762,-5259.404556132223 2140.13295117682,-1275.958314393723 -3092.0501109771003,2442.073846283142 -9048.392619300133,5812.523294574338 -15716.958761377298,8751.444541094123 -23076.60310259736,11174.02085445175 -31096.631647952607,12995.540721721203 -39736.55947899314,14132.43772932619 -48945.97446532117,14503.385153438596 -58664.51586716218,14030.435284235115 -68821.97580732421,12640.192282973168 -79338.5305972154,10265.006202710376 -90125.10775457657,6844.174710972282 -101083.893254105,2325.1380544191234 -112108.98211237667,-3335.348079688816 -123087.17383371544,-10170.077904098596 -133898.9125444477,-18200.315777019234 -144419.36983213734,-27434.788491788844 -154519.66639897335,-37868.76700276415 -164068.22665172233,-49483.255032676985 -172932.25830398288,-62244.30184650982 -180979.34698133694,-76102.45609102603 -188079.1537197321,-90992.37697712884 -194105.20115717672,-106832.61821614645 -198936.7321652769,-123525.59900538274 -202460.62267825578,-140957.77498997917 -204573.32858198285,-159000.0205074202 -205182.84475405634,-177508.2315511503 -204210.65272841757,-196324.15677730486 -201593.6320247941,-215276.46153354662 -197285.90896464922,-234182.02732504153 -191260.6158207563,-252847.4863669152 -183511.5324455278,-271070.9879260231 -174054.58212079116,-288644.19005208364 -162929.1532938513,-305354.46706730884 -150199.21913419562,-320987.31985617947 -135954.22748190293,-335328.97260798566 -120309.73477947692,-348169.13625213195 -103407.75899638537,-359303.9154309025 -85416.82837903878,-368538.8325197997 -66531.7050927829,-375691.9389772769 -46972.76546638474,-380596.981230909 -26985.0215980655,-383106.5854343772 -6836.77252453783,-383095.42280834756 13182.12302570504,-380463.31495781353 32762.356098660766,-375138.23658779525 51577.65850252537,-367079.17146641493 69287.66982388297,-356278.7763554377 85541.16993172691,-342765.8069872284 99979.66117396289,-326607.26005437126 112241.27906083934,-307910.18563067145 121965.00472092786,-286823.1254921927 128795.14686977302,-263537.13448133535 132386.05551565392,-238286.34437666752 132407.02421167612,-211348.03271070967 128547.3324227436,-183042.16262426873 120521.37458669938,-153730.36415846887 108073.81779000613,-123814.33235537386 90984.72572984209,-93733.62314721718 69074.5828767032,-63962.83423571136 42209.14956424197,-35008.16496052439 10304.076193865987,-7403.356483530966 -26670.797074337363,18294.97858252847 -68687.52979451486,41512.61976125663 -115656.63468355066,61663.5696304743 -167424.16909874245,78156.41738962375 -223769.43686813617,90401.191441804 -284403.3700514232,97816.64834478278 -348967.6564143727,99837.93652583662 -417034.67353241413,95924.56436193045 -488108.284487975,85568.59372009055 -561625.5430929083,68302.97195784602 -636959.3484668682,43709.90782860546 -713422.0796641397,11429.189851941339 -790270.2309092891,-28833.660375515818 -866710.0569356363,-77299.51260718955 -941904.2259950852,-134108.14688827257 -1014979.4654139965,-199311.28670856025 -1085035.1712141123,-272866.267689546 -1151152.93942186,-354630.46335542673 -1212406.9623903062,-444356.5882674523 -1267875.2189065134,-541688.9959496779 -1316651.3722172938,-646161.0845312157 -1357857.2755543985,-757193.9168211009 -1390655.9704630128,-874096.1535793967 -1414265.0494311906,-996065.3890350941 -1427970.2411857026,-1122190.9662298975 -1431139.0647702387,-1251458.3365625192 -1423234.3873665447,-1382755.0130186665 -1403827.7109700523,-1514878.150070018 -1372612.0046986232,-1646543.765208242 -1329413.8929016627,-1776397.5976703565 -1274205.0045445687,-1903027.5792576654 -1207112.2867570226,-2024977.8704255964 -1128427.0851263702,-2140764.3922246615 -1038612.7954458564,-2248891.7614263566 -938310.8963281111,-2347871.512517384 -828345.179481177,-2436241.4664587183 -709724.0046054217,-2512586.082469448 -583640.4188641752,-2575557.60591284 -451469.9967372095,-2623897.8029529005 -314766.27477854816,-2656460.051344323 -175253.67732703674,-2672231.536855895 -34817.8534804171,-2670355.2867511273 104506.62747730355,-2650151.7558047506 240551.24566879135,-2611139.666860439 371031.15711633285,-2553055.797267285 493565.43540513096,-2475873.394990821 605699.8514458522,-2379818.9040813157 704932.0775147502,-2265386.678779673 788739.1639538192,-2133351.3691016035 854607.0984714315,-1984777.6684864704 900062.2193313304,-1821027.126211056 922704.2153211907,-1643761.7438930757 920240.4077461201,-1454944.096639767 890520.9733159206,-1256833.7452774055 831574.7322252898,-1051979.73661798 741645.093514523,-843209.0238105368 619225.7205031296,-633610.6783562549 463095.45327003946,-426515.80914407654 272352.00336572394,-225473.15162738963 46443.91872443574,-34220.3416844949 -214799.69538062115,143349.05660801692 -511142.22003828065,303222.64257113205 -841915.8522587765,441310.2034070668 -1206001.7356472455,553488.4236417664 -1601814.3946932745,635648.9691176512 -2027290.9553197876,683749.5723242349 -2479885.6071424093,693867.6834858805 -2956569.7282120744,662256.1906981372 -3453838.0507788267,585400.6533601381 -3967721.196842746,460077.43706469657 -4493804.855064415,283412.085875562 -5027255.806203614,52937.22045106448 -5562854.932963997,-233350.7913260768 -6095037.272364312,-576937.1797813273 -6617939.08507095,-978736.9512910849 -7125451.827154433,-1439046.7343690104 -7611282.816227257,-1957501.1402234314 -8069022.286742552,-2533034.484577864 -8492216.429343926,-3163848.707616209 -8874445.907618908,-3847388.307909408 -9209409.243574312,-4580323.073621104 -9491010.361856736,-5358539.3498070575 -9713449.483495995,-6177140.523971686 -9871316.464125613,-7030457.343115355 -9959685.580652727,-7912068.5943323765 -9974210.685667004,-8814832.5877924 -9911219.571970416,-9730929.776010051 -9767806.321952417,-10651916.727199627 -9541920.359591803,-11568791.54392042 -9232450.878062267,-12472070.68201645 -8839305.284623424,-13351876.980091592 -8363480.2879882185,-14198038.557666967 -7807124.252866303,-15000198.082140401 -7173589.462971634,-15747931.742280148 -6467472.968384254,-16430877.100961601 -5694644.746553218,-17038868.834073283 -4862261.979007797,-17562081.197991837 -3978768.3384066755,-17991175.906883243 -3053877.293067907,-18317453.945558876 -2098538.568526573,-18533009.69601643 -1124887.0576450187,-18630885.61848925 -146173.64177391795,-18605225.603214774 823322.4254241528,-18451424.99960983 1768399.7137603348,-18166275.23748755 2673059.312492365,-17748100.88267366 3520647.7115057935,-17196886.919111844 4294017.305306732,-16514394.023382135 4975703.700433796,-15704259.597435873 5548118.742878863,-14772082.353019057 5993757.913880963,-13725488.29823517 6295420.473078167,-12574176.064235184 6436440.460744152,-11329939.62908253 6400926.40916506,-10006666.647048967 6174007.360758054,-8620310.775228588 5742082.551052566,-7188836.605296746 5093071.891998898,-5732136.055969909 4216664.18912963,-4271915.360283317 3104559.848780397,-2831552.089801133 1750704.6827309749,-1435921.9934456404 151511.30101190892,-111195.78944851819 -1693935.4971477562,1115393.5678011635 -3783692.9657849874,2215812.2217880855 -6112797.918765613,3161514.006637604 -8673131.085046904,3923754.527258374 -11453311.803480357,4473928.519564537 -14438626.404533846,4783927.845800905 -17610993.43160439,4826517.0458960235 -20948968.607630424,4575722.940892754 -24427792.1530672,4007234.37475608 -28019480.709161177,3098807.7923441823 -31692965.716711678,1830673.9903057627 -35414279.646713495,185941.0504678733 -39146790.97771565,-1849011.8217623981 -42851488.268459976,-4284155.072079933 -46487313.087173805,-7125449.891244885 -50011540.935350984,-10374515.464246409 -53380208.64928366,-14028328.276404949 -56548586.08307873,-18078959.37497092 -59471689.17917336,-22513355.408014353 -62104830.82393237,-27313169.108082976 -64404205.174851045,-32454644.652959835 -66327500.44087706,-37908563.01739007 -67834534.40756923,-43640252.02624329 -68887906.33385748,-49609665.33058891 -69453658.21694545,-55771533.95388783 -69501937.83662626,-62075593.39744208 -69007655.46021836,-68466888.55491737 -67951125.62477037,-74886157.86893868 -66318685.02431243,-81270297.27343221 -64103277.22663691,-87552903.50974238 -61304994.7358925,-93664895.39005233 -57931568.81311562,-99535210.51693892 -53998797.47499225,-105091573.86291623 -49530902.21902932,-110261333.47957006 -44560804.27737855,-114972357.45455095 -39130311.587065,-119153985.07942876 -33290208.185348187,-122738024.04634051 -27100238.39796845,-125659784.37139599 -20628978.986166865,-127859138.66359447 -13953593.354983613,-129281597.33565089 -7159462.998078026,-129879386.40421551 -339692.558935564,-129612514.66818024 6405513.781316279,-128449816.30184181 12969605.431298321,-126369954.27113608 19240567.31835751,-123362369.49205372 25101928.25476337,-119428160.31614672 30433891.644829802,-114580876.76320136 35114582.63969969,-108847213.9391777 39021404.00247884,-102267589.29035859 42032491.075095825,-94896588.76268108 44028254.36113563,-86803267.56713077 44892996.378879294,-78071292.10409765 44516587.62023913,-68798910.6761404 42796184.699495204,-59098741.921029635 39637972.11712653,-49097371.424494036 34958907.52528001,-38934748.720499195 28688448.989911526,-28763378.849556375 20770241.527306132,-18747304.812059145 11163739.17660133,-9060879.611034658 -154261.91906579433,112670.8899144623 -13188204.486749906,8582890.381801236 -27922490.478124846,16153933.06990154 -44320366.092241086,22626593.526998915 -62322996.40109353,27800512.791644834 -81848753.8248025,31476545.021501936 -102792743.66810802,33459265.96206951 -125026588.53648442,33559601.4700045 -148398491.6923304,31597551.37760084 -172733597.28631902,27404981.14185978 -197834662.9084835,20828451.030885983 -223483057.05391628,11732050.105571207 -249440090.90102714,200.00000030547625" stroke="white" stroke-width="1.5" /><circle cx="150.12137650011238" cy="203.4817980637104" fill="red" opacity="0.7" r="14.320390859672262" /></svg>