<?xml version="1.0" encoding="utf-8" ?>
<svg baseProfile="full" height="400" version="1.1" width="400" xmlns="http://www.w3.org/2000/svg" xmlns:ev="http://www.w3.org/2001/xml-events" xmlns:xlink="http://www.w3.org/1999/xlink"><defs /><rect fill="black" height="100%" width="100%" x="0" y="0" /><circle cx="200" cy="200" fill="yellow" r="10.14076604324706" stroke="orange" stroke-width="2" /><polyline fill="none" points="198.92497262643943,200.0 198.83764595384207,199.93898172230487 198.75262605487816,199.86867523106682 198.67091740013248,199.78913670433326 198.5935436996746,199.7005344628593 198.5215362309005,199.6031541738626 198.45592128305373,199.4974029364531 198.39770681521364,199.38381212278057 198.3478684407991,199.26303885598 198.30733486757634,199.13586601497963 198.2769729375648,199.00320066719217 198.25757242587335,198.86607084302983 198.24983077114155,198.72562058103932 198.2543379226658,198.58310318918907 198.27156150022572,198.43987268637545 198.3018324718536,198.2973734084373 198.34533156208266,198.15712778473997 198.402076608346,198.0207223145444 198.4719110859709,197.88979179671873 198.5544940224282,197.7660018916546 198.64929151898028,197.65103012026933 198.75557009247345,197.54654543143064 198.87239204161298,197.45418649573512 198.99861303054612,197.3755389099805 199.1328820678965,197.31211152255756 199.27364404150907,197.26531211498963 199.41914494809134,197.23642269859897 199.567439932717,197.22657470739807 199.71640422588808,197.23672438840737 199.86374703566207,197.26762870830308 200.0070284194239,197.31982211021864 200.1436791244439,197.39359446628927 200.2710233486855,197.48897057978328 200.38630433372862,197.60569159506818 200.48671266052057,197.7431986739019 200.56941707636355,197.90061929233767 200.6315976385465,198.07675650363902 200.67048091681497,198.27008149881797 200.6833769539733,198.4787297775751 200.6677176418784,198.7005012184335 200.62109612949894,198.9328643076722 200.54130684117712,199.17296475229273 200.42638564736052,199.41763866277583 200.27464969749215,199.66343044695336 200.08473639608502,199.90661550715305 199.8556409788809,200.14322777916726 199.58675212700643,200.36909209391777 199.2778850437725,200.57986128138546 198.92931141176433,200.77105787196336 198.54178564764564,200.93812018346753 198.11656687910818,201.07645251326986 197.65543608303386,201.18147908512609 197.16070784653058,201.24870133006215 196.63523624330546,201.2737580109991 196.0824143570179,201.25248763254646 195.50616703088338,201.18099251152023 194.9109364788487,201.05570382122215 194.30166045800107,200.87344686435645 193.68374277425687,200.63150577667187 193.06301597344313,200.32768681701717 192.44569615715363,199.96037936049547 191.83832995662624,199.528613680773 191.24773379762536,199.03211458628502 190.6809256940753,198.47134996397742 190.1450499170081,197.8475732841418 189.64729499718405,197.16285913159314 189.1948056333198,196.42013085253603 188.79458919192697,195.6231794435066 188.4534175979361,194.7766728591643 188.17772552608696,193.88615497970883 187.97350590997434,192.9580335564288 187.84620388705116,191.99955654530203 187.80061039218413,191.0187763434422 187.84075669787703,190.0245015611198 187.96981127437448,189.02623609248275 188.1899804058997,188.03410539018068 188.50241404867413,187.0587700018644 188.90711845058436,186.1113265888118 189.4028770699605,185.2031968173348 189.9871813305799,184.3460046905772 190.65617273050967,183.55144307005688 191.4045977827143,182.83113032089537 192.22577720461916,182.19645820001162 193.11159069138557,181.65843229037398 194.05247850308774,181.22750646432127 195.0374609691067,180.91341303247745 196.05417686395512,180.7249903993088 197.08894143778386,180.67001019925854 198.12682469266258,180.75500602595986 199.15175028333897,180.98510598859158 200.1466151898556,181.36387143134917 201.09343006074596,181.8931442316739 201.97347986147642,182.57290514783546 202.76750418560138,183.40114571435464 203.45589629832315,184.37375618242876 204.01891968666683,185.48443197003863 204.43694059045382,186.72460102109125 204.69067468711492,188.08337437340023 204.7614458047925,189.54752210046897 204.63145424603164,191.10147662123958 204.28405202271412,192.72736516491327 203.70402203595518,194.40507293478737 202.87785798676754,196.11233823639378 201.79404157875686,197.82488052215598 200.4433133773076,199.51656195889257 198.8189335249525,201.15958274789259 196.9169283840896,202.72471002259826 194.73631908994153,204.18153971930604 192.2793279524402,205.49879036541427 189.5515586490619,206.64462726178814 186.56214620468234,207.58701505545773 183.3238728619857,208.29409621125993 179.85324610909095,208.7345924017591 176.17053535154935,208.8782253498068 172.29976399481995,208.69615318375313 168.26865404118462,208.161417908211 164.10852070157102,207.2493991602402 159.8541149768975,205.93826901886237 155.54341267355454,204.20944227202088 151.2173488808861,202.04801622654173 146.91949755159357,199.44319388032804 142.69569648455467,196.3886840687397 138.59361870850375,192.88307205540764 134.6622919983406,188.93015396775863 130.95156901672863,184.53922848496236 127.51155135446868,179.72533927594264 124.39197153552675,174.5094618619312 121.64153784746141,168.91862884539935 119.30724764562058,162.98598780782518 117.43367554957176,156.75078663439047 116.06224369204065,150.25828157505717 115.23048188303872,143.5595639980946 114.97128620347924,136.71130253235123 115.31218513190873,129.77539812545075 116.27462282351227,122.8185504623747 117.87326959092768,115.91173518695187 120.11536997057036,109.12959244059378 123.0001389855236,102.54972836980834 126.5182173266098,96.25193244682164 130.65119615782058,90.31731468491944 135.37122210260992,84.82736809947394 140.64069267650612,79.86296305341381 146.41205199323576,75.50328141732177 152.62769598165954,71.82469975359874 159.2199956064819,68.89963198447282 166.11144568583157,66.79534320757858 173.21494584419065,65.57274746228063 180.4342189325293,65.28520330639347 187.66437089372036,65.97732201773579 194.79259455733626,67.68380406937723 201.6990182229703,70.42832022303793 208.2576981467177,74.22245412393232 214.33775219509315,79.06472364521906 219.80462999037306,84.93969840491579 224.52151285925876,91.81723084776691 228.3508348330709,99.65181803575355 231.15591385462534,108.38211081215982 232.80268024858208,117.9305862859316 233.16148743413993,128.20339861836476 232.1089878286978,139.09042187843616 229.53005493696136,150.4654972646506 225.3197307713492,162.1868952714664 219.3851760365109,174.09800141173045 211.64759896369864,186.02823190104053 202.04413732999606,197.79418327699548 190.52966707295366,209.20101728091942 177.07851004215777,220.04407949053825 161.6860128435693,230.1107471815992 144.36996845640692,239.18249874049545 125.17185236003647,247.03719367815825 104.15784532144713,253.45154894069523 81.41961578107598,258.2037938106996 57.07483595126425,261.0764822839918 31.267407318916725,261.8594384316928 4.167373229214434,260.3528069612448 -24.02950137686929,256.37017801855166 -53.1025001942991,249.7417522746351 -82.80708967302837,240.3175095629482 -112.8764273497228,227.97034182714916 -143.02325075581342,212.59910895302696 -172.9421489593306,194.1315742410528 -202.31221417791733,172.52717487497898 -230.80006600281877,147.77958180236078 -258.06323564092963,119.9190030074067 -283.7538922622369,89.01418426435569 -307.52288808687683,55.17406214567299 -329.02409331842057,18.54902535394956 -347.91898649173584,-20.668257625874247 -363.88146032299414,-62.24248397804183 -376.60279779813504,-105.8958712929338 -385.7967680896479,-151.30885386149487 -391.2047870276067,-198.1213482263861 -392.60108234889367,-245.93461046545605 -389.7977998888283,-294.3137018302283 -382.64998334196423,-342.7905729103969 -371.060357282758,-390.8677694851583 -354.9838408788602,-438.02275570327515 -334.4317182234796,-483.71284226559544 -309.475390527722,-527.380698935348 -280.2496356124855,-568.4604220513327 -246.95530127915634,-606.3841188544566 -209.86136126788028,-640.5889614549463 -169.3062656713505,-670.52465426975 -125.69852189053637,-695.6612498580643 -79.51644751504244,-715.4972393948999 -31.307042891202087,-729.567835670334 18.316061401337635,-737.4533586121531 68.67561842932187,-738.7876260309945 119.03476687067598,-733.266245710304 168.60203728579955,-720.6546992385493 216.53736750369154,-700.7961032365245 261.95911969373634,-673.6185299928903 303.95207872909646,-639.1417671055696 341.57639786794584,-597.4833946473972 373.8774437119994,-548.8640587343609 399.8964779902953,-493.61182226580024 418.68209911620994,-432.1654771070946 429.30235184611627,-365.0767071609931 430.8573989096511,-293.0109986714762 422.49263437472945,-216.74720275357862 403.41210495436184,-137.17566555354273 372.8920926624986,-55.294853604577725 330.2947003923975,27.793584179768118 275.0812713353192,110.89136089773439 206.8254638911508,192.7117283492401 125.22579605415731,271.8892933563251 30.117467388870296,346.9914611315579 -78.51673716325928,416.5314720188232 -200.5366591048006,478.9829758438813 -335.6362906456934,532.796065239017 -483.3368050893323,576.4146658791942 -642.9812812679784,608.2951578403904 -813.7313014776088,626.9260785395275 -994.5655910860364,630.8487342333451 -1184.2808538648533,618.678524150848 -1381.4949401105346,589.1267593343173 -1584.6524647925094,541.0227375014592 -1792.032970352406,473.33581605719235 -2001.7617034738769,385.1972081222391 -2211.8230472808154,275.92121145058564 -2420.076620178976,145.0255677172028 -2624.2760201484234,-7.749359799955528 -2822.0901589805267,-182.42290833008656 -3011.1270950321746,-378.75825836654883 -3188.9602358810257,-596.2487167816071 -3353.156744186457,-834.1064548124518 -3501.307941505808,-1091.254005974515 -3631.0614662321104,-1366.3188150727433 -3740.1549036858123,-1657.6311110444183 -3826.4505692138523,-1963.2253533029398 -3887.971089451133,-2280.84547353776 -3922.9353932249196,-2607.9541025944413 -3929.794692487567,-2941.7459352044843 -3907.268005705001,-3279.1653441109697 -3854.376751867799,-3616.9283097658467 -3770.4779232758133,-3951.548682542162 -3655.2953300108265,-4279.368741665014 -3508.948399064046,-4596.5939592395225 -3331.9780069037993,-4899.331819329772 -3125.3688262925752,-5183.634481573059 -2890.5676767817595,-5445.545016914079 -2629.497383861162,-5681.146880387515 -2344.5656744901453,-5886.616223194624 -2038.668666886645,-6058.276584387288 -1715.1885501204217,-6192.655442112559 -1377.9850942821759,-6286.542046437996 -1031.3806847253295,-6337.045901157033 -680.1386339467515,-6341.655211564394 -329.4345918332997,-6298.294569904908 15.17905110937562,-6205.381110940139 347.815792778452,-6061.878337738777 662.3046201444073,-5867.346793245117 952.2464301383445,-5621.990737240812 1211.0770242926774,-5326.699981764818 1432.1363323400988,-4983.086041605218 1608.743419346192,-4593.511770755863 1734.2767291213192,-4161.113681282525 1802.258914814425,-3689.8161783047653 1806.4455069999337,-3184.3369940902408 1740.9165715659456,-2650.1831657726757 1600.1704156881801,-2093.636974994296 1379.218311566819,-1521.7313537438927 1073.6791258773444,-942.2143585589395 679.8726695188477,-363.50242466473014 194.91051870698047,205.3777680541361 -383.21699379764084,754.8588548803997 -1055.5589581057761,1274.9136698365744 -1822.1286035844962,1755.1472031799806 -2681.835928793442,2184.8992284348815 -3632.4296153795844,2553.3570346913157 -4670.449572699879,2849.6775363224674 -5791.191417971898,3063.117866793624 -6988.684135739774,3183.1733977827275 -8255.682079874918,3199.721961468357 -9583.672380898079,3103.1728947361844 -10962.898701031336,2884.619371474544 -12382.40213922769,2535.9923454089767 -13830.07992889976,2050.214293445107 -15292.762392866063,1421.3508306503536 -16756.308424120176,644.758165199572 -18205.719548653957,-282.77572280958327 -19625.272399272984,-1362.8983585180576 -20998.669188957232,-2595.5707261959956 -22309.205520956588,-3978.958136639133 -23539.95461286304,-5509.336234120756 -24673.966746024827,-7181.014329815381 -25694.482482775522,-8986.278179653147 -26585.157925187235,-10915.35422464415 -27330.300023770185,-12956.397179999905 -27915.109686268024,-15095.502695380615 -28325.93018911992,-17316.746612195635 -28550.498161075633,-19602.252115348532 -28578.194193724696,-21932.285816840784 -28400.289941240655,-24285.383518357175 -28010.18840533134,-26638.506080934603 -27403.653965043042,-28967.225484104998 -26579.02860839808,-31245.94078701896 -25537.430757383598,-33448.12331298273 -24282.93305285768,-35546.58997001924 -22822.715484524542,-37513.80319739506 -21167.1903159386,-39322.195595871286 -19330.09536781333,-40944.516862471646 -17328.552386579027,-42354.20021393616 -15183.087440488755,-43525.74505219878 -12917.610553395285,-44435.11220593578 -10559.352106798071,-45060.12768047058 -8138.7539134288,-45380.890470266 -5689.313289363391,-45380.17964016901 -3247.3789245691682,-45043.85556984198 -851.8978713290144,-44361.249986730494 1455.8864672121979,-43325.53919267738 3632.7848641598334,-41934.09472391579 5634.060191148928,-40188.80557938896 7413.8709503329355,-38096.36611351339 8925.757943333527,-35668.52372152529 10123.170901823172,-32922.280552776145 10960.031194272844,-29880.043673476983 11391.326014019223,-26569.718368396476 11373.728754066928,-23024.739623050296 10866.239593291999,-19284.037265226965 9830.839666692063,-15391.930767544736 8233.151579072153,-11397.95032035652 6043.098457289076,-7356.581474831879 3235.5532311992465,-3326.9314264067116 -209.03060197975674,627.6841452294195 -4304.015831001895,4440.233847302148 -9056.015369171666,8040.542144376857 -14464.372613489655,11355.93788101951 -20520.697920083323,14311.97682819096 -27208.470736727453,16833.234207371155 -34502.716755991554,18844.16200438035 -42369.76914694566,20270.004730872835 -50767.12248461361,21037.76613907551 -59643.38742102862,21077.218258973666 -68938.35342783264,20321.94302202019 -78583.16608745491,18710.395677398796 -88500.62441934223,16186.978212224845 -98605.60260253273,12703.110072438836 -108805.59920114117,8218.282663270958 -119001.41562189866,2701.083403687783 -129087.96404173835,-3869.825465468852 -138955.20344946464,-11504.78854903401 -148489.20076171457,-20202.314938544492 -157573.3122146601,-29948.327418117475 -166089.4784160777,-40715.518732496734 -173919.6245862147,-52462.830121446226 -180947.15564078942,-65135.066822783585 -187058.53389753654,-78662.66452797464 -192144.92534242777,-92961.6198337846 -196103.8985978239,-107933.59656783416 -198841.15901811258,-123466.21847446232 -200272.29872535242,-139433.55713222825 -200324.54191511826,-155696.82214081413 -198938.4634383224,-172105.25857120668 -196069.6575252921,-188497.25443015582 -191690.33259041162,-204701.65846262657 -185790.80736489815,-220539.3060221294 -178380.88317622393,-235824.74799952147 -169491.06704822826,-250368.17494047584 -159173.62045693072,-263977.52552779374 -147503.4090618782,-276460.76558755734 -134578.52955728016,-287628.3207310696 -120520.69096358442,-297295.64270357613 -105475.32921757452,-305285.8865140879 -89611.43582249772,-311432.6725084903 -73121.08359004452,-315582.904762434 -56218.63513951453,-317599.6145543903 -39139.622807773274,-317364.7952765818 -22139.291953233787,-314782.19299649313 -5490.803289523848,-309780.0150382781 10516.906164101452,-302313.51745469036 25581.599707286765,-292367.4311479608 39390.54689306473,-279958.1857120443 51623.64585492649,-265135.88984589785 61956.84430572038,-247986.02746178006 70065.83658292242,-228630.82941385475 75630.00916301478,-207230.28212592797 78336.60212724013,-183982.73632313852 77885.04919409925,-159125.0815852462 73991.45420607907,-132932.45554681082 66393.15743737812,-105717.46027327128 54853.34084594549,-77828.86263554064 39165.61749831436,-49649.76037531214 19158.546921302346,-21595.20097685054 -5299.984847943405,5890.753591738795 -34298.58416287869,32338.516772901527 -67878.43305992695,57257.01558567544 -106029.70347993275,80138.26344936523 -148688.3692993315,100462.44648440264 -195733.48258573152,117703.49430017808 -246984.97916936467,131335.09830732786 -302202.076400346,140837.1325454112 -361082.3228093864,145702.42399125022 -423261.3552834045,145443.81140966926 -488313.4142945744,139601.4241334495 -555752.6616800748,127750.10482379394 -625035.338470548,109506.89338048683 -695562.792330836,84538.48285816335 -766685.3953431026,52568.55261838338 -837707.3631796571,13384.879122451213 -907892.4762441645,-33153.87913913712 -976470.6921831388,-87111.82896813413 -1042645.62737631,-148470.0301715671 -1105602.8727099586,-217121.33233252095 -1164519.0962405175,-292865.96851383295 -1218571.8723984414,-375408.01158405346 -1266950.164308058,-464352.7952081922 -1308865.372762836,-559205.396385434 -1343562.8525620066,-659370.2697049839 -1370333.7844567748,-764152.1152092849 -1388527.279052818,-872758.051898407 -1397562.577855609,-984301.1574983826 -1396941.2064149193,-1097805.4221867402 -1386258.925414005,-1212212.1495800274 -1365217.3177459752,-1326387.8225218428 -1333634.8433093925,-1439133.434169827 -1291457.18861544,-1549195.2666926405 -1238766.7354999732,-1655277.0807028047 -1175790.9724334616,-1756053.658540252 -1102909.6732638802,-1850185.6238779607 -1020660.671839074,-1936335.4390598224 -929744.0669429837,-2013184.4603359017 -831024.7004289683,-2079450.909983362 -725532.7624031355,-2133908.603460655 -614462.3908335257,-2175406.2495200834 -499168.14903975296,-2202887.121892111 -381159.28312369186,-2215408.883055418 -262091.68247272453,-2212163.3240260696 -143757.48990585,-2192495.7693449515 -28072.333706719306,-2155923.8838209915 82939.81847332555,-2102155.6073985873 187164.15426165352,-2031105.9370503784 282414.79896734055,-1942912.270126579 366456.7924009329,-1837948.0223760216 437030.13320515974,-1716834.2361241898 491875.72955457785,-1580448.9000563677 528763.0605574973,-1429933.7118812108 545519.3182898771,-1266698.0289796423 540059.7665447508,-1092419.7700708779 510419.01955031866,-909043.0530036297 454782.9125716651,-718772.3800093163 371520.60695478844,-524063.21208703186 259216.54529528585,-327608.80852491554 116701.84851804023,-132323.24574024405 -56915.273764618694,58679.42857662433 -262220.54470357066,242109.90487843106 -499466.5305801938,414532.13543985796 -768547.9043379119,572395.5722270636 -1068979.5283689508,712070.9659549359 -1399877.8188165594,829889.5187556767 -1759945.8438158003,922185.1272353234 -2147462.5919725336,985339.3965945889 -2560276.8247501245,1015829.0506045191 -2995805.897142217,1010275.3072653973 -3451039.894976105,965494.7366847331 -3922551.394411569,878551.0668618607 -4406511.099754716,746807.3554587377 -4898709.559763955,567977.9020784504 -5394585.100447938,340179.2368774296 -5889258.044295866,61979.488312173744 -6377571.212396264,-267554.593744088 -6854136.627537673,-648813.7026207146 -7313388.253794984,-1081605.881704524 -7749640.522030894,-1565121.0308014466 -8157152.302021449,-2097900.7628139425 -8530195.891474573,-2677814.3453091327 -8863130.50105984,-3302041.435094137 -9150479.623794012,-3967062.2768767024 -9387011.587884223,-4668655.98922318 -9567822.505631521,-5401907.502202371 -9688420.748502031,-6161223.641320665 -9744812.001276297,-6940358.771745837 -9733583.877603384,-7732450.325660948 -9651989.01663697,-8530064.434314001 -9498025.5270275,-9325251.775516052 -9270513.60166912,-10109613.627728913 -8969167.09549309,-10874377.994373212 -8594658.840435486,-11610485.527636005 -8148678.467577906,-12308684.841075838 -7633981.517359065,-12959636.656079108 -7054428.645551281,-13554026.080220718 -6415013.776123563,-14082682.167472364 -5721880.112741135,-14536703.76274801 -4982322.998884136,-14907590.488357726 -4204778.712604685,-15187377.589532603 -3398798.3957860563,-15368773.22233225 -2575006.4491912522,-15445296.642055007 -1745042.8731372638,-15411415.635881225 -921489.1986026991,-15262681.442034742 -117777.8340187396,-14995859.311378073 651915.1523021905,-14609052.79814491 1372793.5866456374,-14101819.816474171 2029580.6352570197,-13475278.470442645 2606673.4668963645,-12732200.659177298 3088312.224360982,-11877091.476965167 3458762.1578030502,-10916252.47248095 3702507.531984495,-9857826.902500052 3804455.6800691104,-8711825.21468725 3750149.341206663,-7490129.121881744 3525985.1912257546,-6206472.787069946 3119436.2585523413,-4876399.8239323115 2519275.7144304076,-3517195.032098573 1715799.34111412,-2147790.0282933316 701043.8174151332,-788642.2032535251 -531002.1787186528,538413.2719093163 -1984197.162660219,1810338.349317385 -3660059.523180961,3003093.5396837695 -5557596.928934119,4091865.1456485647 -7673155.709133154,5051317.189081184 -10000293.425429521,5855866.547030994 -12529677.77912755,6479979.422632579 -15249014.881021755,6898486.886190636 -18143009.748807166,7086916.832562714 -21193361.68817348,7021839.318800846 -24378796.95782797,6681221.876022486 -27675140.81583804,6044791.037076753 -31055430.6954602,5094395.992314259 -34490071.86426897,3814369.9853043244 -37947036.48279609,2191884.7943376466 -41392106.50059446,217293.41962397224 -44789160.311863296,-2115544.084264897 -48100502.54343131,-4808956.820648278 -51287235.76957045,-7861186.571236058 -54309672.34606259,-11266143.901491093 -57127783.93605988,-15013202.07577782 -59701685.66909773,-19087033.88707526 -61992151.23921177,-23467496.31434266 -63961154.61612064,-28129567.654988073 -65572433.4229409,-33043341.438653633 -66792068.43339788,-38174081.01088112 -67589073.06978369,-43482338.18122745 -67935986.24905904,-48924138.76111892 -67809461.43763296,-54451237.17415786 -67190844.34473315,-60011441.6088718 -66066731.31899918,-65549010.40514316 -64429500.2219093,-71005119.52606249 -62277805.343500115,-76318400.07308976 -59617027.808683835,-81425543.86165525 -56459672.90386869,-86261974.09525537 -52825705.8403705,-90762577.16830266 -48742817.66926151,-94862490.60210724 -44246613.37680768,-98497941.08592188 -39380714.62440165,-101607125.56840712 -34196770.15453544,-104131127.33731386 -28754367.56617699,-106014858.0504561 -23120840.968745533,-107208015.753468 -17370969.952017058,-107666048.05413568 -11586566.356360013,-107351108.83412975 -5855946.488663224,-106232996.18175547 -273287.69734115386,-104290058.63863252 5062130.413701762,-101510056.38359348 10046798.397714788,-97890963.6423623 14573959.739496928,-93441698.42513162 18534699.134361252,-88182765.66802157 21819129.775908183,-82146799.99988176 24317671.489315458,-75378994.68244164 25922409.8691507,-67937403.78768301 26528524.913071696,-59893105.387655355 26035776.00655102,-51330214.44300441 24350028.531492036,-42345735.18943472 21384805.866485763,-33049244.135604188 17062849.14250196,-23562396.29898232 11317665.839117814,-14018249.012180246 4095047.177414831,-4560399.523184182 -4645466.68968947,4658065.322649402 -14929195.446943125,13475806.806791091 -26765023.641662467,21724656.589230586 -40144224.55648611,29231218.119415898 -55039425.55833376,35818639.24881515 -71403737.30859478,41308545.423470214 -89170068.68169194,45523120.12473634 -108250648.39332157,48287316.500373535 -128536773.17616445,49431181.41941651 -149898800.85245535,48792270.527373105 -172186404.8367281,46218130.31008344 -195229104.45845014,41568820.7326387 -218837083.02839395,34719449.743184775 -242802302.79301757,25562688.859406717 -266899922.8419543,14011237.227656508 -290890022.67261434,200.0000003562378" stroke="white" stroke-width="1.5" /></svg>