<?xml version="1.0" encoding="utf-8" ?>
<svg baseProfile="full" height="400" version="1.1" width="400" xmlns="http://www.w3.org/2000/svg" xmlns:ev="http://www.w3.org/2001/xml-events" xmlns:xlink="http://www.w3.org/1999/xlink"><defs /><rect fill="black" height="100%" width="100%" x="0" y="0" /><circle cx="200" cy="200" fill="yellow" r="10.00299637925169" stroke="orange" stroke-width="2" /><polyline fill="none" points="199.22972874517433,200.0 199.11956311749157,199.95378108557586 199.00845470639243,199.89560912581265 198.89757377166887,199.82509647800782 198.7881612194649,199.74197282115563 198.68151773505784,199.64609603927113 198.57899143880303,199.53746222760907 198.4819641197185,199.41621463818538 198.3918361225235,199.28265138189724 198.3100099857679,199.13723170775546 198.23787295075965,198.98058068541133 198.17677848305644,198.81349212536773 198.12802697005935,198.63692958208287 198.09284577944325,198.45202529864312 198.0723688834749,198.26007696780874 198.067616273397,198.06254220300127 198.07947340567503,197.86103063414677 198.10867093769406,197.65729356712094 198.15576502413603,197.453211171734 198.2211184564507,197.25077719157184 198.30488293625177,197.0520811993747 198.40698277883192,196.8592884537363 198.52710034503022,196.67461744646346 198.66466349814687,196.50031526462985 198.81883537727143,196.33863092683012 198.98850676907708,196.19178688900445 199.17229134668895,196.06194895103826 199.36852402654583,195.9511948306998 199.57526267218094,195.86148170588655 199.7902933475315,195.79461305912105 200.01113929178746,195.75220518925747 200.23507375300107,195.7356537839189 200.45913677885306,195.74610097175983 200.68015602031912,195.78440329572103 200.89477155777934,195.85110106650697 201.09946470969803,195.94638956907252 201.29059073177083,196.07009260349017 201.464415259856,196.22163884473792 201.6171542935904,196.40004150329918 201.7450174599282,196.60388175964667 201.8442542375523,196.83129643038254 201.91120276489218,197.0799703017899 201.94234079705296,197.34713353763422 201.93433832109685,197.62956453213943 201.88411128561322,197.92359853612768 201.78887585019234,198.22514233441902 201.64620251412182,198.5296951958919 201.45406944219587,198.83237625435703 201.21091426980985,199.12795840894483 200.91568364033193,199.41090875749543 200.56787970590094,199.6754354960252 200.1676028090566,199.91554113237186 199.71558955768353,200.1250817733463 199.21324551028601,200.29783215299108 198.66267170319702,200.4275559758089 198.06668427643928,200.508081054107 197.4288264910048,200.53337862402182 196.75337247757454,200.49764613152573 196.04532211533308,200.3953926890224 195.31038650957126,200.22152631631215 194.55496361810862,199.97144199808957 193.78610366894944,199.64110951508874 193.0114641146047,199.2271599388896 192.23925398159486,198.72696962260994 191.4781675960646,198.13874047257193 190.7373077972913,197.4615752508518 190.02609888909257,196.69554663663453 189.35418972350695,195.84175876665637 188.73134746025295,194.9023999827874 188.16734269782867,193.88078553891438 187.67182682601594,192.78138906053002 187.25420260319163,191.6098616094473 186.9234891132912,190.37303728329968 186.6881824044889,189.07892437521224 186.55611325253713,187.73668123328744 186.53430362406974,186.35657609215997 186.62882353680234,184.94993029941702 186.84465012222412,183.52904452748177 187.18553078985195,182.10710774568912 187.65385246822723,180.69808892654143 188.2505189544683,179.31661167306046 188.97483843934012,177.9778121790073 189.82442328658846,176.69718116853426 190.79510413199893,175.49039070430058 191.88086032776806,174.373107000727 193.07376869002655,173.36079062914928 194.36397241071475,172.4684857512079 195.7396718687384,171.7106002627424 197.18713891902064,171.10067896944093 198.6907560516418,170.65117214408968 200.23308159702773,170.3732020299304 201.7949419078015,170.2763300517705 203.355551174555,170.36832767246318 204.89265923295193,170.65495398358755 206.38272739519527,171.13974324206234 207.80113199237607,171.82380565560413 209.12239494839068,172.7056447761268 210.32044032423244,173.78099487833254 211.3688753771998,175.04268167809545 212.24129427700032,176.48050967932855 212.91160221431267,178.08117932678533 213.35435723189906,179.82823698401614 213.54512670894604,181.70206054930526 213.4608550413221,183.6798832671969 213.08023868947546,185.73585798907664 212.3841044175014,187.84116378372545 211.35578622734812,189.96415639894173 209.98149620709518,192.07056363004205 208.2506842675841,194.12372616280138 206.15638154315945,196.08488393036976 203.69552208544658,197.91350745981256 200.86923738923807,199.5676730887755 197.68311826162102,201.0044803116869 194.14743858394144,202.18050887386303 190.2773356250443,203.05231257751822 186.0929417468004,203.57694610324796 181.619462601913,203.71252049185634 176.88719726126578,203.41878228275502 171.9314961246956,202.65771067530423 166.79265296516633,201.3941264774988 161.51572803104162,199.596306041672 156.15029978261867,197.2365928689224 150.7501435643275,194.29199910233532 145.37283630894092,190.7447887332884 140.079287229555,186.58303402453134 134.9331953726184,181.80113641733988 130.0004358733869,176.40030304644108 125.34837776519697,170.38896994358916 121.04513723614349,163.78316307593064 117.15877129028252,156.6067885450453 113.75641784357661,148.89184357222985 110.90338935473906,140.67854031950236 108.66222814439193,132.01533514699315 107.09173257831296,122.95885658752057 106.2459642672222,113.57372612840034 106.17324735133371,103.9322668274901 106.91517177730486,94.11409585201258 108.50561322269515,84.20559820997745 110.96978296314552,74.29928023835791 114.32332149504388,64.49300281103302 118.57145010681825,54.889095722483546 123.70819482126485,45.59335627806681 129.71569719651006,36.71393676426419 136.5636263625134,28.36012716671351 144.20870637304668,20.641041232489414 152.5943724610497,13.664215716775203 161.65056909121498,7.53413439207236 171.29370180270422,2.350690108449811 181.42675372439314,-1.7924001471287738 191.93957632476128,-4.8092106596486985 202.70936243085941,-6.623234845188392 213.6013078208156,-7.169006182085411 224.46946577005886,-6.393691625432552 235.1577968237544,-4.258635880915762 245.5014137908155,-0.7408340784086818 255.32801952524738,4.1656902263601125 264.4595324984961,10.44862515979574 272.71389249494337,18.07625228472736 279.9070360075801,26.996493350359373 285.85502810090713,37.1361448968681 290.37633467452133,48.40032276598984 293.2942162373133,60.67213743284188 294.4392215245455,73.81261960175975 293.65175659590125,87.66091369593057 290.78470248101945,102.03475471679307 285.7060520302477,116.73124145851601 278.3015344232399,131.52791624378827 268.47719382763916,146.18415821274465 256.16188702524266,160.4428937649262 241.30966347365137,174.03262404758593 223.90199028608987,186.66976543002482 203.94978402745468,198.0612947356762 181.49521107483207,207.90768665881424 156.6132186067017,215.90612631325342 129.4127590940741,221.753975292935 100.03767249185468,225.15246501979098 68.66719218786139,225.8105865675317 35.516043172785885,223.4491416392707 0.834103853678414,217.8049150033803 -35.09439355354246,208.63492451925777 -71.95214505701796,195.7207009781359 -109.39055575865314,178.87254641010824 -147.03203086700302,157.93371633389592 -184.47278257233376,132.78446871679495 -221.28615247012078,103.34592023358624 -257.02644278643453,69.58364882759307 -291.23324287897805,31.510980643975643 -323.4362304221328,-10.80810081993721 -353.1604194019716,-57.25648496975958 -379.9318196238688,-107.66196406221053 -403.28346495402025,-161.79582095979384 -422.76176006606147,-219.37202976294589 -437.9330881397466,-280.04712045925345 -448.39061486002186,-343.42075389879074 -453.7612172950419,-409.037047674479 -453.71245989711076,-476.3866868678613 -447.9595340790937,-544.9098461365686 -436.27207267893414,-613.9999413051737 -418.48074624417063,-683.0082195239255 -394.4835445520805,-751.2491872407934 -364.25164423092724,-818.0068647650997 -327.8347618602205,-882.5418451726414 -285.3658915925726,-944.0991238122149 -237.06532723797505,-1001.9166528337969 -183.24387095460366,-1055.234563093369 -124.30513425863018,-1103.3049836332427 -60.74684204586515,-1145.402376835134 6.838943256807681,-1180.8342954501938 77.7667524056298,-1208.952456187763 151.25986056729698,-1229.1640135608354 226.45371391608415,-1240.9429074139596 302.400674261316,-1243.841148173953 378.0761108219202,-1237.4998955414562 452.385853451511,-1221.6601792569104 524.1750056339499,-1196.1731048989468 592.2380985360378,-1161.0093835713399 655.3305494626159,-1116.2680219632734 712.1813693719973,-1062.1840087718167 761.5070448592115,-999.1348349872455 802.026500402412,-927.6456891767002 832.4770269139485,-848.3931747566512 851.6310429782246,-762.2074043957032 858.3135358444277,-670.0723371886843 851.4200105369257,-573.1242371174775 829.9347576230765,-472.64814656260535 792.9492335181623,-370.0722862214467 739.6803319952734,-266.9603126622587 669.4883120905279,-165.00138680356866 581.8941361347102,-65.99803072785164 476.5959624791446,28.14822374508165 353.48453088395263,115.45336358290382 212.6571747547259,193.8695398354268 54.43019368476581,261.30573897968384 -120.65067770206201,315.6503582975274 -311.80196262089265,354.7955313904406 -517.996545118164,376.6630178377553 -737.960418261112,379.2314390693468 -970.1722954457514,360.5646111603256 -1212.866281731953,318.84069489171725 -1464.0377772448603,252.38185450230503 -1721.4527560071642,159.684089539147 -1982.6605311880107,39.44687956132904 -2245.0100818270553,-109.39774037188488 -2505.6699768249855,-287.65707403001403 -2761.6518896499197,-495.8510435500897 -3009.837652113156,-734.1872801928025 -3247.0097480944014,-1002.5384583508358 -3469.885098677231,-1300.4223059012058 -3675.1519392744344,-1626.984719734338 -3859.509537515477,-1980.9864054144214 -4019.710448516844,-2360.7934441749044 -4152.604952285948,-2764.3721686321032 -4255.18726708592,-3189.2887005748175 -4324.643083306783,-3632.7134698896507 -4358.397915473897,-4091.4309931198213 -4354.165726216978,-4561.85514341201 -4309.9972360769125,-5040.0500908504455 -4224.327297698517,-5521.757033663378 -4096.0206829932295,-6002.426776855883 -3924.415607989533,-6477.258145907982 -3709.364303025718,-6941.242149801701 -3451.2699263468858,-7389.211730418553 -3151.119117666248,-7815.896854983702 -2810.5094954000865,-8215.984625514011 -2431.6714175766047,-8584.18399502511 -2017.483352260835,-8915.294595516672 -1571.4802390500217,-9204.279098502917 -1097.8542689913475,-9446.338446168014 -601.4475662644697,-9636.989211237142 -87.73632113956796,-9772.142267538642 437.19400007307377,-9848.1818821981 966.682656399545,-9862.044275675622 1493.5370379107808,-9811.294638659137 2010.0855646715063,-9694.20154637691 2508.240055661692,-9509.8076723801 2979.5674250013976,-9257.99567641457 3415.3704371851977,-8939.548125735104 3806.7771223312798,-8556.200307119932 4144.838317956223,-8110.6847988243135 4420.63266692207,-7606.766698567297 4625.378263507906,-7049.268446033393 4750.550002693344,-6444.0832368066 4788.001553463583,-5798.176099485448 4730.090747098497,-5119.571799120767 4569.807047903741,-4417.328838046156 4300.89965864187,-3701.498949399533 3918.004708014013,-2983.071618707938 3416.7698749233223,-2273.9033241471016 2793.9747258952507,-1586.6313555764225 2047.6449798647361,-934.572255033079 1177.1588704289638,-331.60511565641616 183.34375135790114,207.95981963418782 -931.438911711876,669.5266058296168 -2163.2220004336177,1038.3722173517162 -3506.376446555983,1299.8172484126276 -4953.571901678071,1439.4073734856706 -6495.756001664846,1443.1040268416787 -8122.153731195003,1297.4825420621835 -9820.288244760972,989.9357816737795 -11576.024324428432,508.88108666554166 -13373.63545218008,-156.03181115835577 -15195.8952464629,-1013.7144410432022 -17024.19375974518,-2071.4374863755274 -18838.67885796586,-3334.6357227171775 -20618.422605611046,-4806.722904813479 -22341.612264053005,-6488.919577522028 -23985.765178401147,-8380.096824269382 -25527.96648248637,-10476.638970408792 -26945.128196142094,-12772.32822534099 -28214.26792741954,-15258.25417438741 -29312.80502887658,-17922.75091744917 -30218.871695995877,-20751.364495105292 -30911.63614177197,-23726.85304310717 -31371.63463943837,-26829.221872796326 -31581.108900241277,-30035.795387909322 -31524.34495028393,-33321.32741818394 -31188.009395024077,-36658.15117837337 -30561.478717269947,-40016.36964954054 -29637.15704969454,-43364.0867302869 -28410.77770106466,-46667.67902194988 -26881.68360145437,-49892.107597496404 -25053.081770302517,-53001.268563181664 -22932.26690656725,-55958.380660000905 -20530.809256288125,-58726.40757409727 -17864.702032951012,-61268.512037724846 -14954.46385296056,-63548.53821176685 -11825.191904410212,-65531.51825432286 -8506.561893633512,-67184.19840506786 -5032.771211383523,-68475.57935989031 -1442.4222287350312,-69377.46518296051 2221.6568291427175,-69865.01451227722 5912.655377349345,-69917.2873684394 9580.089609128681,-69517.78048344438 13170.177821198056,-68654.94373517284 16626.28168329482,-67322.67001216263 19889.41237180647,-65520.750650223636 22898.799607839715,-63255.28848491994 25592.5207260343,-60539.06055887337 27908.185960900675,-57391.82261648817 29783.675182438546,-53840.54771650796 31157.920353116442,-49919.59159930113 31971.727025587967,-45670.77786440311 32168.62726711097,-41143.396546929805 31695.755495417678,-36394.11033003863 30504.737855130752,-31486.763394330756 28552.5849674273,-26492.088782168565 25802.577162391535,-21487.311142003393 22225.130667267895,-16555.642810068162 17798.632688372003,-11785.672377639246 12510.232903144446,-7270.646173298182 6356.578584633177,-3107.644451346355 -655.5195742653294,603.3444918056698 -8508.503873938525,3760.4475650189306 -17173.581039526325,6261.021257875899 -26610.341126074487,8002.849356296958 -36766.49585035967,8885.41465111336 -47577.74761769883,8811.233744897607 -58967.79964132007,7687.242546714337 -70848.51649353321,5426.218581671299 -83120.24318250973,1948.2248539397503 -95672.2894189833,-2817.9412894475954 -108383.58412905442,-8933.312018679795 -121123.50349055775,-16447.344359788316 -133752.8738318429,-25396.566632166654 -146125.14864674193,-35803.29628499387 -158087.75676405948,-47674.44990523158 -169483.6163829739,-61000.466415807445 -180152.80726876057,-75754.36448358225 -189934.39092025912,-91890.95489629824 -198668.36599799647,-109346.22813166138 -206197.74376857944,-128036.93651823308 -212370.72580765805,-147860.38926788222 -217042.963743057,-168694.4772372588 -220079.87844572612,-190397.9425485546 -221359.013824273,-212810.90616875284 -220772.39828524282,-235755.6642165763 -218228.88502264733,-259037.7611463952 -213656.44063315392,-282447.34506159625 -207004.35015412333,-305760.807253867 -198245.30552566843,-328742.7046714135 -187377.3437189972,-351147.96041462646 -174425.60038360633,-372724.3335727822 -159443.84487487975,-393215.14578514796 -142515.7629580148,-412362.2478733948 -123755.95436694907,-429909.2057926584 -103310.61374719584,-445604.68103270145 -81357.86534372024,-459205.97651856253 -58107.724118667094,-470482.71506480186 -33801.65880292506,-479220.61358455487 -8711.735698283523,-485225.3126015576 16860.674154851517,-488326.21721887565 42586.63756028866,-488380.3026218695 68111.85989747943,-485275.83449454955 93059.34726102067,-478935.95246673265 117032.52774436961,-469322.06294173375 139618.8237387602,-456436.9864358395 160393.660961404,-440327.803943345 178924.89353545304,-421088.34687252674 194777.61788170377,-398861.27582165546 207519.34151879553,-373839.694917292 216725.4661808635,-346268.25065052457 221985.0380308135,-316443.6671438785 222906.71125985353,-284714.673577489 219124.86510998732,-251481.2841041455 210305.80842928716,-217193.39598567065 196154.0003655084,-182348.67787416303 176418.21081883513,-147489.7271169494 150897.53990599944,-113200.4826479879 119447.21203133484,-80101.88839444565 81984.057308672,-48846.81111667639 38491.59112076485,-20114.226142863597 -10975.398375638842,5397.305525514224 -66286.84491313466,26976.83486743813 -127234.06985546203,43908.85271659809 -193527.20553721872,55481.692487971675 -264793.45909397566,60996.44152240189 -340576.2947743038,59776.284044678665 -420335.606525853,51176.188196857795 -503448.9451400323,34592.83945805069 -589213.8554298338,9474.71314662982 -676851.3688252468,-24667.830223838115 -765510.6854403383,-68252.55104030833 -854275.0671533681,-121615.56951449216 -942168.9496226367,-185001.9747234876 -1028166.2665315594,-258556.94565395053 -1111199.963831069,-342317.5292794282 -1190172.6654588645,-436205.22224949475 -1263968.435114884,-540019.5025989095 -1331465.5613299655,-653432.4558821026 -1391550.2754660796,-775984.636205262 -1443131.2946334144,-907082.2966843084 -1485155.0640182612,-1045996.1158421596 -1516621.5560142181,-1191861.5363331644 -1536600.467076661,-1343680.8201314954 -1544247.6376238037,-1500326.9099535013 -1538821.5058397679,-1660549.1702387237 -1519699.3931512292,-1822981.0625556423 -1486393.4077051464,-1986149.7899212188 -1438565.7426229443,-2148487.922352991 -1376043.1383917178,-2308346.992164342 -1298830.2737111074,-2464013.0222543203 -1207121.8466671745,-2613723.924150128 -1101313.1084558323,-2755688.6750797764 -982008.6152115383,-2888108.15516048 -850028.969970178,-3009197.4971882245 -706415.33653804,-3117209.772833729 -552431.5201494739,-3210460.810641552 -389563.42633664457,-3287354.91346394 -219515.72942961685,-3346411.2162274043 -44205.605536572526,-3386290.3996298974 134246.58833909594,-3405821.451910753 313529.77731320274,-3404028.1496390663 491157.8288474737,-3380154.9099444347 664488.4291733057,-3333691.651176585 830745.1561475659,-3264397.287025339 987042.6876751966,-3172321.471042674 1130415.0417380675,-3057824.204642677 1257846.6993801494,-2921592.9223451847 1366306.4161657335,-2764656.673570293 1452783.481143274,-2588397.0309405453 1514326.1357473617,-2394555.371014896 1548081.8189270487,-2185236.194820771 1551338.85970499,-1962906.1825680342 1521569.1949805517,-1730388.709558756 1456471.649344043,-1490853.5885189662 1354015.275636513,-1247801.8472720576 1212482.2206450203,-1005045.3996716312 1030509.5503409777,-766681.5217598642 807129.4441144767,-537062.1038821731 541807.1481775264,-320757.7125547784 234476.06532361053,-122516.5627521627 -114430.64787680174,52781.428620442945 -503952.6040586191,200175.26463447692 -932579.4466351677,314677.8476803312 -1398233.4508647313,391334.9227530124 -1898258.0391560304,425287.5154772101 -2429412.750299459,411837.3207199531 -2987875.158190725,346514.42443938676 -3569250.182375246,225146.6709943972 -4168587.1704335716,43929.92155384857 -4780405.061022791,-200501.61241863586 -5398725.856571386,-511005.8322713081 -6017116.546615026,-889864.9320568884 -6628739.527102625,-1338720.2557377957 -7226411.458374156,-1858510.8233167157 -7802670.3957243785,-2449416.538339312 -8349850.9124597795,-3110807.0988521893 -8860166.817199226,-3841197.6314679757 -9325800.946053997,-4638212.052912839 -9739001.387557883,-5498555.134639349 -10092183.375220465,-6417994.20323262 -10378035.960861145,-7391351.352011581 -10589632.463047165,-8412506.967173649 -10720543.570677854,-9474415.28496022 -10764951.87375686,-10569132.594721321 -10717766.493436607,-11687858.586706692 -10574736.393288858,-12820991.21338443 -10332560.87523069,-13958195.289769044 -9988995.698370142,-15088484.902519403 -9542953.208936958,-16200319.530552723 -8994594.836061947,-17281713.602931865 -8345414.293000169,-18320359.034357395 -7598309.827863811,-19303760.08647219 -6757643.893306052,-20219379.706304744 -5829288.651955461,-21054796.293674875 -4820655.804630839,-21797869.64956271 -3740709.3221219885,-22436914.659763847 -2599959.7790156472,-22960881.07522711 -1410439.1298152015,-23359537.565011133 -185654.93329696186,-23623658.042611245 1059476.779793864,-23745208.104364287 2308720.588759205,-23717529.27263837 3544633.0743145826,-23535518.60943763 4748696.625421215,-23195801.16075848 5901475.4958735155,-22696892.611284792 6982793.656959553,-22039349.475457653 7971933.690893424,-21225904.127084848 8847855.657293363,-20261581.9777586 9589434.54490797,-19153798.156456742 10175714.596547356,-17912431.120577995 10586178.470508529,-16549870.743724937 10801028.880706958,-15081038.578863282 10801480.044471385,-13523378.187702846 10570055.965951681,-11896813.658486616 10090892.29888873,-10223674.704571763 9350038.269767743,-8528587.044491362 8335754.905825333,-6838327.109309767 7038805.606701132,-5181640.503198957 5452734.9283484565,-3589024.055893238 3574131.317631487,-2092471.7480584963 1402869.450145095,-725185.2591400458 -1057672.2137725728,478749.62215889746 -3800423.0253996584,1484718.9765882506 -6814465.197126061,2257966.85375661 -10084916.477874957,2764008.696784074 -13592854.438788889,2969068.7692755936 -17315286.10288459,2840537.740208331 -21225166.338516537,2347446.073735013 -25291468.05906379,1460948.3823918463 -29479306.830710474,154813.44118659524 -33750121.987774335,-1594085.8658947074 -38061915.79286238,-3805288.7786362637 -42369551.56018602,-6494275.517130033 -46625110.98854949,-9672015.481630636 -50778310.23064764,-13344541.725088269 -54776973.46311977,-17512558.765417747 -58567561.92393651,-22171090.86357814 -62095755.55770028,-27309177.86787163 -65307083.56369714,-32909625.60916866 -68147599.2852546,-38948817.621441014 -70564594.02207191,-45396594.653305955 -72507343.5003441,-52216208.02653291 -73927879.90985815,-59364352.38491574 -74781781.6245437,-66791282.76112683 -75028971.975249,-74441020.17083825 -74634517.75309816,-82251649.12460826 -73569417.50111552,-90155709.53225389 -71811369.11325245,-98080684.46654557 -69345505.81573002,-105949584.15944996 -66165089.26755191,-113681625.43265939 -62272148.296484835,-121193004.52417122 -57678051.69432721,-128397759.97501147 -52404003.540655896,-135208720.89715904 -46481449.71609877,-141538534.5689601 -39952384.61196658,-147300765.91282278 -32869547.54878709,-152411060.01791725 -25296499.086356696,-156788357.49530306 -17307568.245007202,-160356151.11252964 -8987662.662674874,-163043770.86838725 -431934.88377838605,-164787683.45570534 8254700.68955164,-165532790.9409348 16958204.161372982,-165233712.48389286 25556202.157044075,-163856032.049657 33918936.0452191,-161377494.34692207 41910365.01580753,-157789130.68248004 49389420.645496204,-153096296.06813318 56211407.47168099,-147319598.77159402 62229541.91172512,-140495703.58248568 67296619.62951925,-132677990.38243604 71266799.1898558,-123937050.17660877 73997487.57939896,-114361001.57231009 75351310.93925856,-104055611.7859321 75198151.6779033,-93144207.62643841 73417231.04543585,-81767363.54331054 69899214.2828363,-70082355.73693798 64548313.645399675,-58262373.50451349 57284362.970818505,-46495481.424938 48044836.05217016,-34983328.659269854 36786779.91633167,-23939604.541517287 23488633.230601933,-13588242.737443155 8151899.4939908935,-4161379.531294958 -9197355.556934396,4102924.766485515 -28507212.75948007,10963188.74642246 -49698844.459004916,16177220.984773958 -72665724.53799711,19505019.433541432 -97273131.15566324,20711835.58886058 -123357968.02306917,19571376.28306044 -150728927.80679336,15869112.412463197 -179167018.57937187,9405660.524938546 -208426471.12041745,200.00000025524906" stroke="white" stroke-width="1.5" /></svg>