<?xml version="1.0" encoding="utf-8" ?>
<svg baseProfile="full" height="400" version="1.1" width="400" xmlns="http://www.w3.org/2000/svg" xmlns:ev="http://www.w3.org/2001/xml-events" xmlns:xlink="http://www.w3.org/1999/xlink"><defs /><rect fill="black" height="100%" width="100%" x="0" y="0" /><circle cx="200" cy="200" fill="yellow" r="10.001851864220278" stroke="orange" stroke-width="2" /><polyline fill="none" points="199.3585300123859,200.0 199.2573507520353,199.96101430696424 199.15487181131024,199.91102406416886 199.05215707841947,199.84962162454104 198.9503405466638,199.77650437348433 198.8506167680086,199.69148521067518 198.75422990947288,199.59450228639136 198.66246145475432,199.48562782097585 198.57661661319804,199.36507583595582 198.498009518454,199.23320862737773 198.42794731973427,199.0905418162075 198.36771328924402,198.9377478172722 198.31854908987236,198.77565757726353 198.2816363673183,198.60526044383215 198.25807785022275,198.4277020417967 198.248878160286,198.24428004896689 198.2549245514803,198.05643778299344 198.27696781301688,197.8657555319424 198.31560358440066,197.67393958483518 198.3712543424036,197.48280894406375 198.44415232882517,197.29427972919837 198.5343236942045,197.1103473110468 198.6415741359436,196.93306624564414 198.76547630935332,196.76452810987098 198.90535928672156,196.60683737329364 199.06030033244429,196.46208547424624 199.22911925138885,196.33232330174542 199.4103755528634,196.2195323181434 199.60236865376353,196.12559459004373 199.80314132162215,196.05226202648322 200.01048653141788,196.00112515324616 200.22195787916314,195.9735817799516 200.43488366061308,195.9708059417487 200.64638468508747,195.9937175195881 200.85339585260812,196.04295296162474 201.05269147761413,196.1188375428829 201.2409142947766,196.22135961042747 201.41460803229626,196.35014726650994 201.57025338599811,196.50444794210284 201.70430717405245,196.68311130754947 201.81324439782423,196.88457595542786 201.8936028798009,197.10686027290947 201.94203009543568,197.3475578966867 201.95533176277277,197.6038381128268 201.93052170262806,197.87245152662544 201.86487243364363,198.14974128370775 201.75596592149884,198.4316600733615 201.6017438607309,198.71379308858667 201.40055683178704,198.99138705488494 201.15121164587595,199.2593853717765 200.85301616666956,199.51246933788843 200.50582088166053,199.7451053527791 200.1100564876906,199.95159790710747 199.66676675547012,200.12614808808098 199.17763594737892,200.26291724016394 198.6450100819712,200.3560953327315 198.07191136780853,200.39997349771713 197.46204516883108,200.3890201124072 196.81979891364526,200.31795971652735 196.15023242194485,200.18185396983463 195.45905919274992,199.97618377782013 194.75261828106179,199.69693164010255 194.03783648158142,199.34066320993583 193.32218063984712,198.90460699525056 192.61360002190665,198.3867310830624 191.92045879266777,197.7858157311481 191.25145877945127,197.10152064479877 190.61555282991512,196.33444574332233 190.02184921120121,195.48618422182068 189.4795076385002,194.55936672953277 188.99762766472102,193.55769551751843 188.58513030695164,192.48596745631752 188.25063392814482,191.35008488896062 188.00232553210094,190.15705336664956 187.84782876440258,188.9149654137089 187.79407003946838,187.6329695849515 187.8471443322798,186.32122421211588 188.01218228050598,184.99083538598876 188.29322033662854,183.6537788864652 188.69307578818797,182.32280595310579 189.21322852543307,181.01133298246657 189.85371147753014,179.7333154440922 190.61301165926758,178.50310652281144 191.48798376820108,177.3353012188558 192.47377824592618,176.24456686709152 193.56378566533934,175.24546126985274 194.7495992272865,174.35223987181317 196.02099704409477,173.578653637179 197.36594575361426,172.9377395161992 198.7706268453575,172.44160560640722 200.21948689024308,172.10121332085703 201.69531264781148,171.92615906755006 203.17933178045013,171.92445811787798 204.65133963439047,172.10233349384538 206.0898522536748,172.46401283074343 207.47228547799497,173.0115362705628 208.7751596407427,173.74457850864266 209.9743290326565,174.66028814891024 211.04523493237048,175.7531475188634 211.9631806316126,177.01485605175688 212.7036265037835,178.43424025817149 213.24250278451228,179.99719318054355 213.55653735619507,181.686646051018 213.6235954603915,183.4825746543187 213.4230279074338,185.36204263288553 212.93602401701247,187.2992836615324 212.1459652122851,189.26582406413849 211.03877490871503,191.23064704681008 209.60326009288337,193.16039928259818 207.8314397813627,195.01964010492122 205.7188553906785,196.77113305368883 203.26485794147823,198.37617897377456 200.4728669680502,199.79498929462588 197.35059601267434,200.9870975277526 193.91023965688288,201.91180641154784 190.16861718195773,202.5286675169024 186.1472681616846,202.79798950945195 181.87249557361343,202.68137065262243 177.3753523721752,202.1422505379195 172.6915678984879,201.14647545351212 167.86141100715537,199.6628712577423 162.9294873684896,197.66381711959772 157.94446905305574,195.12581303235947 152.95875522087164,192.03003360851434 148.0280635155963,188.36286033242249 143.21095259911348,184.11638419073319 138.56827714749414,179.28887042736642 134.162577557771,173.8851770877581 130.05740757760225,167.91711903312665 126.31660405704885,161.4037692261248 123.00350402270718,154.37168931990416 120.18011527779906,146.8550819278346 117.90624772519725,138.8958574142669 116.23861358073256,130.54360862994002 115.22990557787381,121.85548771969678 114.92786314792724,112.89597995442992 115.37433737788076,103.7365704814082 116.60436628639383,94.45530094353047 118.64527260268376,85.13621408311752 121.51579676886287,75.8686857123575 125.22527829971546,66.74664479151585 129.77289891162008,57.86768379679012 135.14700096178842,49.33206306978255 141.32449470865447,41.24161440583893 148.2703677037858,33.698550743179226 155.93730924620968,26.804190441510684 164.26546226426402,20.657606268883228 173.1823142325718,15.354210828898971 182.6027377790747,10.98429173578728 192.4291904880254,7.631511360207526 202.55208206057287,5.371387401028841 212.8503154587263,4.269771864410444 223.19200693733075,4.381347227638429 233.4353879712177,5.748159607778206 243.42989002272185,8.39820962102695 253.0174108829005,12.344122285084438 262.033758975529,17.581917762253198 270.31026955658837,24.089904944985506 277.6755841965337,31.82771982951556 283.95758232385396,40.73553029031106 288.9854509645073,50.733428243961924 292.591876163276,61.7210292640564 294.6153369525754,73.57729846979727 294.90248017624856,86.16061995513684 293.3105520163822,99.30912515015962 289.7098597473965,112.84129331426908 283.9862350915813,126.55683485746826 276.04346861224826,140.23786538199096 265.8056828930787,153.65037524641744 253.2196108528017,166.54599609756332 238.25674446977342,178.6640622156697 220.91531847645928,189.73396070431457 201.22209326224052,199.47776056107818 179.23390132471084,207.6131065258889 155.03892216176786,213.85635936302077 128.7576515226442,217.9259599358412 100.54353245452288,219.5459901303213 70.58321760664381,218.4498994271421 39.09643479459456,214.38436176903681 6.33543088665553,207.11322337836802 -27.416027351596597,196.4214984103256 -61.844112738842796,182.11936584130345 -96.60687020250964,164.0461178523436 -131.33663003127145,142.0740072362634 -165.6429040763913,116.1119390955315 -199.1157612649128,86.10895036572187 -231.3296725828577,52.05741955345425 -261.84780918864806,13.995948571635466 -290.2267705871544,-27.988141262296864 -316.02171290125307,-73.75675608369636 -338.79184029537555,-123.11947452589385 -358.1062156151727,-175.83254379816645 -373.54983939544024,-231.59847633006615 -384.7299396462654,-290.0662923666261 -391.28240835000884,-350.83244890745243 -392.8783144877219,-413.4424895546106 -389.2304177632021,-477.39344318590645 -380.09960210750796,-542.1369919294589 -365.301143627485,-607.0834207218446 -344.71072400829576,-671.6063518371141 -318.27009758880445,-735.0482582412344 -285.99231849249315,-796.726739532012 -247.96643340211563,-855.9415336561453 -204.36154589322996,-911.9822266525084 -155.43015976109342,-964.1366114652619 -101.51071154820778,-1011.6996355235074 -43.029206555364,-1053.982865427875 19.500121965898444,-1090.3243858591525 85.47520396472324,-1120.0990388783362 154.20763946610992,-1142.7288992761441 224.9253770452124,-1157.6938717130436 296.7766089398983,-1164.542286231317 368.8349157182722,-1162.9013604832826 440.1056800739015,-1152.4873898688854 509.53377484019575,-1133.1155208730518 576.0125148007055,-1104.708958395582 638.3938454479359,-1067.3074549240291 695.4997246527748,-1021.074928153691 746.1346354126862,-966.3060542376872 789.0991496300319,-903.4316863691733 823.2044444307401,-833.0229529555572 847.2876540823928,-755.7938963211973 860.2279223384803,-672.6025217291347 860.9630022635507,-584.4501375797372 848.5062335342147,-492.4788809353131 821.9637111233351,-397.96733801831385 780.5514444244723,-302.32418699177606 723.6122925284553,-207.07981007934023 650.6324497904867,-113.87584381252367 561.2572462872698,-24.452659767616353 455.30602051403207,59.3652065965145 332.78581695462555,135.68563466687561 193.90365920240438,202.5674326780325 39.077150324537115,258.0406857599688 -131.05684366585325,300.1288071918891 -315.6356638772869,326.8721320523126 -513.5667078615592,336.35286247910733 -723.525869430444,326.72114414152554 -943.9587621382623,296.22202467265885 -1173.0848979177035,243.22301712472114 -1408.9049670877089,166.2419654137529 -1649.2113371721955,63.97488464595821 -1891.601855800554,-64.67657240036971 -2133.49700757771,-220.57839009193646 -2372.1604364384684,-404.3385889236056 -2604.722803914666,-616.2831432171779 -2828.2089102740583,-856.4338196427698 -3039.567960017717,-1124.4883417318542 -3235.7068061798145,-1419.803283778612 -3413.5259597399418,-1741.380090617626 -3569.9581017594614,-2087.8546074631595 -3702.0087871573633,-2457.490486089787 -3806.798980954747,-2848.1768099744213 -3881.6090209775934,-3257.4302515130016 -3923.923556083536,-3682.402039049268 -3931.4769666548127,-4119.889970252731 -3902.2987350785506,-4566.355661482147 -3834.758198923435,-5017.947170370999 -3727.6080892221507,-5470.527071255637 -3580.026231374926,-5919.706000602966 -3391.65476737279,-6360.881622735291 -3162.6362459403254,-6789.282895431829 -2893.645922417944,-7200.019441031675 -2585.919613292393,-7588.135752174662 -2241.2764617298053,-7948.6698830760315 -1862.1359906854432,-8276.716198095008 -1451.5288494953359,-8567.491670250007 -1013.1006985409094,-8816.405144240785 -551.1087247657978,-9019.128902500228 -70.41033854962501,-9171.671799898226 423.5563303717104,-9270.453164075278 924.800443808408,-9312.37659513315 1426.8151933440918,-9294.90274170132 1922.6233925619345,-9216.120081375526 2404.8319482540965,-9074.812693313788 2865.695126787223,-8870.523980464433 3297.186416738935,-8603.615279531834 3691.0786686301994,-8275.318289332294 4039.0320682004617,-7887.780253544652 4332.689372482343,-7444.10085281033 4563.777709322163,-6948.359794359649 4724.2161124676395,-6405.634135378213 4806.227837509397,-5822.004439574718 4802.456380508709,-5204.548945099805 4706.0840028329185,-4561.325016151427 4510.951454368813,-3901.3372601519495 4211.677484743166,-3234.4918169607363 3803.7766403153596,-2571.5364656516986 3283.7737653770932,-1923.986347178146 2649.313561024614,-1304.0352667849854 1899.2635063299854,-724.452717107017 1033.8084154178273,-198.46695008015502 54.53489243119762,260.3653785603695 -1035.4960444105445,638.3022661822238 -2231.689867117599,921.5711887904018 -3527.874613498896,1096.5345534222831 -4916.273698247821,1149.8644268301678 -6387.496920425862,1068.7249838891946 -7930.550999758073,840.9609187430746 -9532.870820509323,455.2898697039824 -11180.372383111264,-98.50327169092162 -12857.528260711575,-829.3724632866906 -14547.466131302717,-1744.8194712011912 -16232.090707310668,-2850.7082579780867 -17892.229115079634,-4151.087477933527 -19507.799488548928,-5648.023836300849 -21058.00223691459,-7341.449118432231 -22521.533127893945,-9229.023713391547 -23876.81699940614,-11306.019440429653 -25102.260576428824,-13565.224434995305 -26176.522530179685,-15996.872761339439 -27078.798577595786,-18588.601290001196 -27789.119084584618,-21325.436209499847 -28288.656311177707,-24189.811331807545 -28560.038125191983,-27161.62010052375 -28587.664718092095,-30218.302919488026 -28358.024587343552,-33334.97108876487 -27860.00580857804,-36484.56826597509 -27085.198413256625,-39638.06996586382 -26028.183518033846,-42764.72117240853 -24686.80472535927,-45832.31166889604 -23062.41723544295,-48807.48819603417 -21160.110081714298,-51656.10203070425 -18988.896929111994,-54343.590043366 -16561.8709603104,-56835.38674589023 -13896.319522176076,-59097.364289741156 -11013.794415637065,-61096.296823449586 -7940.133988378787,-62800.34507511437 -4705.433532296736,-64179.55649752951 -1343.9608966155727,-65206.37580804026 2105.985297611881,-65856.16028017589 5602.276916776552,-66107.69370745186 9099.21852184798,-65943.69256948198 12547.871337791727,-65351.297594643824 15896.439085713311,-64322.543639836185 19090.71501510831,-62854.80060390762 22074.5886676716,-60951.17796434724 24790.610062473967,-58620.885483530845 27180.608123032853,-55879.54267736474 29186.359278849653,-52749.42978100256 30750.30127715098,-49259.67318803689 31816.286345420394,-45446.35868488177 32330.366963089433,-41352.56625360334 32241.606643309562,-37028.32077571726 31502.90730537868,-32530.45363671642 30071.844047838586,-27922.37100525482 27911.49742440783,-23273.725439514306 24991.27269277869,-18659.988452396497 21287.694962821683,-14161.922741360158 16785.168728600245,-9864.953950966546 11476.689940094177,-5858.443077946699 5364.498567360015,-2234.8619397420052 -1539.3404570627608,911.1245036728953 -9212.439952396315,3483.663771456404 -17621.688661105243,5386.802780446035 -26722.956281399238,6525.6479565799655 -36460.91619932845,6807.5889809751925 -46768.99602111537,6143.575179702347 -57569.4650934171,4449.432174307371 -68773.66711079751,1647.205078918624 -80282.4046476472,-2333.486720012233 -91986.48102017984,-7554.099312661336 -103767.40328940058,-14065.835678627112 -115498.2484670095,-21908.356777984915 -127044.69309450385,-31108.551049105947 -138266.20434523452,-41679.38157070817 -149017.3886663757,-53618.83047046689 -159149.4917516998,-66908.96026556406 -168512.04133813907,-81515.11168565504 -176954.62197315288,-97385.2571416248 -184328.76853187795,-114449.52835212395 -190489.9629008729,-132619.9357146106 -195299.7159187814,-151790.29580165382 -198627.71440476895,-171836.38187278944 -200354.01094569615,-192616.3105167265 -200371.2320862617,-213971.17548120272 -198586.77870689155,-235725.93741498693 -194924.99071629666,-257690.5756489982 -189329.2467635073,-279661.50529584376 -181763.9685213189,-301423.25986796594 -172216.49824176525,-322750.43632682116 -160698.81776535374,-343409.8960059816 -147249.07700796658,-363163.2112308419 -131932.9001788024,-381769.34372158087 -114844.43862250482,-398987.53705293004 -96107.14024827274,-414580.4015964111 -75874.20702374709,-428317.16653359914 -54328.7139827786,-439977.06975102855 -31683.365629872183,-449352.85275961476 -8179.86852085216,-456254.3242769313 15912.097845925926,-460511.95282382285 40296.32589172083,-461980.4456731871 64651.9504054184,-460542.2688041143 88635.74977276767,-456111.0602143052 111884.87816978674,-448634.88708222006 134020.02355285131,-438099.2959003033 154648.9806334316,-424530.10387175507 173370.62213730457,-407995.8796223327 189779.24557328402,-388610.06166791706 203469.2665381331,-366532.6641354013 214040.22333118515,-341971.5209904541 221102.05141845264,-315183.02250590234 224280.58015044,-286472.3009264151 223223.19818344578,-256192.8262585568 217604.62836704293,-224745.377840997 207132.7475292698,-192576.36281920655 191554.38170607373,-160175.45884435863 170661.00301332993,-128072.56520862534 144294.25063836182,-96834.05417983659 112351.19542159399,-67058.32245753743 74789.26529308468,-39370.65137917683 31630.747504212668,-14417.393687797614 -17033.21677270599,7140.4857511346945 -71039.22924599014,24634.478019015325 -130148.90473226045,37396.15965950815 -194046.89395372604,44765.326138777826 -262339.73398977617,46098.56162251078 -334555.5962028796,40778.16747781203 -410144.9949730093,28221.362241903294 -488482.5128668398,7889.656571287931 -568869.5889518219,-20701.701961193274 -650538.4068709305,-57974.32727167038 -732656.9080681257,-104277.45646500537 -814334.9432611619,-159879.0009408301 -894631.561978788,-224957.01787197732 -972563.4258128422,-299591.7365718497 -1047114.3160989195,-383758.2763823308 -1117245.6911665609,-477320.1932711085 -1181908.2322423786,-580023.9912154513 -1240054.3007145138,-691494.7315708069 -1290651.212956579,-811232.8688940607 -1332695.2224605042,-938612.4350485986 -1365226.082848849,-1072880.6848151865 -1387342.0496476803,-1213159.3056452677 -1398215.1637290055,-1358447.281620254 -1397106.6453113742,-1507625.4871452858 -1383382.2145765552,-1659463.0694580341 -1356527.1435586934,-1812625.6607490245 -1316160.8342276097,-1965685.4406742856 -1262050.7098524217,-2117133.0484265904 -1194125.2010204205,-2265391.320480297 -1112485.6043123526,-2408830.8058272786 -1017416.5907973476,-2545786.9851963287 -909395.1433891292,-2674579.094642099 -789097.7068584212,-2793530.4272747287 -657405.3420578355,-2900989.9600744126 -515406.68679016485,-2995355.126016261 -364398.53981203254,-3075095.5254594465 -205883.90175072005,-3138777.3452874124 -41567.32722373777,-3185088.229993719 126652.53385078466,-3212862.3261720533 296693.3009610049,-3221105.20107554 466302.1991499251,-3209018.31744909 633072.399437158,-3176022.7310949834 794462.3611613086,-3121781.6649834868 947818.1363780728,-3046221.6045327466 1090398.5569208225,-2949551.553300446 1219403.1835414362,-2832280.08707676 1332002.8541014805,-2695229.847535185 1425372.624520914,-2539549.124442027 1496726.8525970916,-2366720.1881624986 1543356.131400876,-2178564.052000288 1562665.736291843,-1977241.3668861326 1552215.2082514106,-1765249.179150566 1509758.656813708,-1545413.3155759817 1433285.328998708,-1320876.1985589133 1321059.956949615,-1095079.937890693 1171662.367078234,-871744.5941775993 984025.8080550848,-654841.5619909724 757473.4345588601,-448562.0781084029 491752.3689142172,-257280.92124781176 187064.75415950935,-85515.43400046777 -155904.78978122873,62119.935344776895 -535965.8898217636,180963.30437918208 -951403.8933973829,266358.90452655806 -1399966.6412811854,313714.09750456514 -1878857.059582279,318559.38191838475 -2384732.0534323887,276610.8423268663 -2913708.1388092022,183834.42600911518 -3461374.1943709403,36511.368698854494 -4022811.652200087,-168695.96924845586 -4592622.375191312,-434678.6494124948 -5164964.389809423,-763816.9261603099 -5733595.556543537,-1157918.1245548355 -6291925.167174029,-1618157.5410488534 -6833073.35865276,-2145023.306479803 -7349938.12880067,-2738266.1645742 -7835269.630098067,-3396855.1219246644 -8281751.305646941,-4118939.9164509126 -8682087.317097757,-4901821.230025792 -9029095.599237539,-5741929.536674902 -9315805.761409868,-6634813.430103499 -9535560.943442428,-7575138.212963304 -9682122.624830194,-8556695.455091272 -9749777.282157077,-9572424.138941403 -9733443.692770544,-10614443.907769097 -9628779.594215684,-11674100.816179283 -9432286.330555025,-12742025.853967676 -9141410.050100088,-13808206.373515196 -8754637.965879869,-14862070.39928876 -8271588.151927097,-15892583.636402112 -7693091.326656052,-16888358.82505006 -7021263.070603349,-17837776.910489935 -6259564.940853728,-18729119.315839335 -5412852.979659186,-19550710.419211272 -4487412.170998544,-20291069.14969869 -3490975.476821098,-20939068.430692088 -2432726.184963079,-21484101.016350765 -1323282.4234603986,-21916250.090243828 -174662.8411854963,-22226462.82682617 999767.3778912586,-22406724.959174618 2185370.810571481,-22450234.252987333 3366332.8345774775,-22351570.659945235 4525777.618076786,-22106860.81584293 5645905.016735019,-21713934.46303819 6708148.073484057,-21172470.315277535 7693350.539404268,-20484128.848224834 8581963.546026884,-19652669.493280713 9354260.26279065,-18684049.73753699 9990567.071458928,-17586503.69073358 10471509.485415496,-16370597.772342287 10778270.739559263,-15049261.299540495 10892860.679881245,-13637789.920638124 10798392.294797022,-12153820.038871774 10479362.957135096,-10617272.608330138 9921937.190675845,-9050264.956629278 9114227.542683365,-7476989.596829236 8046569.9383748695,-5923559.332487319 6711789.719096055,-4417818.332688031 5105454.427372576,-2989119.255830968 3226109.303102263,-1668066.9288555922 1075491.3998237064,-486229.5388393422 -1341281.778147225,524181.2375755134 -4015553.174618331,1330659.2592963784 -6935000.577764289,1900779.7020606839 -10083548.323736487,2202598.703719436 -13441319.908857921,2205073.4904722455 -16984634.8440347,1878499.1193114303 -20686052.758038886,1194957.506048524 -24514467.370043777,128773.96507320947 -28435252.507052008,-1343023.926537206 -32410461.840270083,-3240250.7046466256 -36399083.45848041,-5579116.5302463565 -40357349.789317876,-8371796.016686799 -44239102.72519617,-11626018.774126625 -47996213.114448585,-15344688.23240567 -51579053.04588022,-19525535.391622186 -54937018.59307644,-24160814.160964 -58019099.90096822,-29237044.875521302 -60774494.699604705,-34734812.423281334 -63153260.52781831,-40628625.16641762 -65107000.15218239,-46886840.499384284 -66589573.88455807,-53471662.44914779 -67557831.7454078,-60339216.18923498 -67972357.70102972,-67439703.70927411 -67798217.5323718,-74717644.15676111 -67005701.28272706,-82112201.55055963 -65571050.69299433,-89557601.66011736 -63477161.577828795,-96983638.8559132 -60714250.73513536,-104316272.67196831 -57280476.7258113,-111478312.68852903 -53182503.720628604,-118390189.15175317 -48435997.59617041,-124970805.50834557 -43066043.58033928,-131138467.75878765 -37107475.0076222,-136811884.23659006 -30605103.151235458,-141911228.11750177 -23613838.65829902,-146359253.66760725 -16198695.82851504,-150082455.9693496 -8434671.84798557,-153012262.63727954 -406494.117453164,-155086244.86882538 7791770.003912405,-156249334.0882148 16057245.386403726,-156455029.45266917 24278926.121626113,-155666580.61805955 32338498.581125483,-153858129.42498317 40111310.0716187,-151015793.58401018 47467480.77343663,-147138675.02815044 54273154.71086862,-142239775.3780969 60391883.488273054,-136346800.94673052 65686134.45398279,-129502839.90780085 70018912.84712549,-121766894.6814809 73255485.36442056,-113214253.25693172 75265190.4803054,-103936684.08657844 75923318.79165651,-94042440.35397378 75113044.66616869,-83656060.8389703 72727388.58080773,-72917956.28016378 68671187.77364315,-61983772.061042204 62863051.22965724,-51023520.21611564 55237273.60921304,-40220476.15547725 45745681.53741315,-29769838.12678612 34359384.732868955,-19877150.25423218 21070403.794309057,-10756492.993313609 5893146.109500283,-2628447.99254006 -11134298.671509305,4282152.370167971 -29949071.82578964,9748677.140322851 -50462694.93194189,13545333.568439271 -72560481.85804284,15449968.018307807 -96101238.2954663,15247007.082806995 -120917271.86472951,12730511.63968159 -146814733.49889842,7707313.346092599 -173574308.0767971,200.00000021256747" stroke="white" stroke-width="1.5" /></svg>