<?xml version="1.0" encoding="utf-8" ?>
<svg baseProfile="full" height="400" version="1.1" width="400" xmlns="http://www.w3.org/2000/svg" xmlns:ev="http://www.w3.org/2001/xml-events" xmlns:xlink="http://www.w3.org/1999/xlink"><defs /><rect fill="black" height="100%" width="100%" x="0" y="0" /><circle cx="200" cy="200" fill="yellow" r="10.000000002604704" stroke="orange" stroke-width="2" /><polyline fill="none" points="200.84980870518686,200.0 200.83763866482505,200.0439722035015 200.81921673581562,200.08624795231447 200.79451755714402,200.1260528055827 200.7635975696169,200.16258674819244 200.72659997068286,200.19503228395828 200.68375892769615,200.2225632835052 200.6354029477357,200.24435452716256 200.58195730576722,200.2595918705387 200.5239454380791,200.2674829478482 200.46198921456892,200.2672683156792 200.39680801162328,200.2582329278877 200.3292165170207,200.2397178208571 200.26012120947658,200.21113187765096 200.19051546810098,200.17196352979357 200.12147328109774,200.12179224672087 200.05414153841215,200.0602996555351 199.9897309096356,199.98728012774933 199.9295053261716,199.90265066539348 199.8747701053133,199.80645991633438 199.82685877330826,199.698896148093 199.7871186645044,199.5802940109556 199.75689539406946,199.45113992489706 199.73751632233086,199.31207593086262 199.73027314924292,199.1639018553704 199.73640379759846,199.0075756482539 199.75707376308526,198.844211766694 199.79335712785985,198.67507749448717 199.8462174516822,198.50158710373665 199.91648877052634,198.3252937867672 200.00485694665642,198.14787930895645 200.11184162614057,197.9711413582158 200.237779069376,197.7969785938711 200.3828061271389,197.6273734264862 200.54684563868992,197.46437259050046 200.72959352931016,197.31006560314137 200.93050788209496,197.16656123561492 201.14880025269525,197.0359621557304 201.38342948580623,196.92033793451003 201.63309827843023,196.82169664256838 201.89625271720024,196.74195529469736 202.17108499529218,196.68290943271575 202.45553948868425,196.64620216677267 202.74732234178933,196.63329302346116 203.04391467889698,196.6454269748153 203.34258952057553,196.68360404505083 203.64043244341602,196.74854991128416 203.934365977525,196.84068792995842 204.22117768932307,196.9601130318648 204.49755184787097,197.10656793504518 204.7601045215728,197.27942212609707 205.00542189920014,197.4776540561157 205.23010157529328,197.6998369873813 205.43079648573683,197.94412891067023 205.6042611253216,198.20826693052632 205.74739962608524,198.4895664868347 205.85731522389503,198.78492574551916 205.93136059184909,199.09083544914546 205.96718847339733,199.40339446973726 205.9628020064067,199.7183312513763 205.916604092501,200.0310312694216 205.8274451346738,200.3365705667998 205.6946684411662,200.62975535623588 205.51815257565355,200.9051676010554 205.2983499235945,201.15721640692956 205.03632074280443,201.38019497338416 204.73376197351507,201.56834276787114 204.3930300998765,201.71591249761065 204.01715738148422,201.81724136623876 203.60986081040002,201.86682601459714 203.17554319651185,201.85940045889961 202.71928584205858,201.79001625618616 202.24683233471814,201.6541240476459 201.76456306767875,201.44765555631756 201.2794601843006,201.16710504812576 200.79906274389884,200.80960920546678 200.3314120132627,200.3730243118803 199.8849869050341,199.85599960597477 199.4686297081241,199.2580456339036 199.09146238590077,198.57959641344755 198.76279385375744,197.82206422019442 198.4920187875241,196.98788581836573 198.28850865654954,196.08055898635382 198.16149581855197,195.10466823069166 198.1199516557894,194.06589864252197 198.17245987191305,192.97103692802798 198.32708620412043,191.8279587389138 198.5912459339306,190.6456015408553 198.97157070002487,189.43392238664487 199.4737762260614,188.20384010605633 200.10253267310597,186.96716158556166 200.86133940826988,185.736491986988 201.7524060462962,184.52512894382272 202.77654166725557,183.34694097570681 203.93305413936966,182.21623057401393 205.21966147957156,181.1475826323545 206.63241716421044,180.1556991231991 208.16565125696016,179.2552211531816 209.81192914938785,178.46053976241566 211.56202961090355,177.7855970645288 213.40494371836346,177.24367955112183 215.32789608114828,176.84720560387598 217.31638959513614,176.60750946632552 219.35427474902946,176.53462412207358 221.42384426974593,176.637065703591 223.5059536311958,176.92162221232968 225.58016766428815,177.39314946336438 227.62493319738786,178.05437727288643 229.6177773280401,178.90572898147047 231.53553058135026,179.9451574471459 233.35457385111124,181.16800064717663 235.0511076501489,182.56685999359794 236.60144182031752,184.1315043928028 237.9823034743656,185.84880296200475 239.17116056607426,187.7026891538299 240.14655811647293,189.674158833663 240.88846376763928,191.7413046022427 241.378618996839,193.8793883584622 241.60089200795483,196.06095375503799 241.54162802975043,198.25597981392704 241.189992496999,200.43207654098347 240.53830237629583,202.55472291288396 239.58234072877215,204.58754710699728 238.32164948202652,206.49264831047918 236.75979531821514,208.2309588829349 234.9046035788577,209.76264506265832 232.76835514354892,211.04754380549548 230.36794136293898,212.04563273415488 227.72497231897896,212.71752956121222 224.86583394977876,213.02501673855508 221.82168991400857,212.9315864874518 218.62842448129643,212.4030007850495 215.326523220368,211.40786033346367 211.96088881464337,209.91817602546925 208.58058996357403,207.90993595502874 205.2385420240865,205.36366061039496 201.99111880595285,202.2649385411121 198.89769575253396,198.60493451651186 196.02012560786326,194.38086200053374 193.4221485851154,189.59641166371023 191.16874000174664,184.26212764518712 189.32539932360953,178.39572337223 187.9573855537659,172.02232894748548 187.12890490029218,165.1746624300494 186.90225764901726,157.89311776878267 187.33695213904818,150.22576269773563 188.48879467771567,142.22824057510303 190.40896512331364,133.9635709385397 193.1430886944644,125.50184445907807 196.73031531968923,116.9198089999203 201.2024185053323,108.30034461994404 206.58292626007668,99.73182659810878 212.88629705593453,91.30737688557745 220.11715411536463,83.12400580703607 228.26959147938362,75.281647319433 237.32656532046087,67.8820926814937 247.2593838060285,61.02782897560451 258.0273084844097,54.820790538091984 269.57727964721056,49.36103297626704 281.84377741488436,44.74534106116178 294.7488293913626,41.06578336286188 308.20217463759747,38.40822801890593 322.1015924231445,36.85083547278447 336.3334027325491,36.462545365971465 350.7731438348821,37.301575989715104 365.28643037861616,39.41395577848536 379.72999346118434,42.832107232306896 393.9529019569161,47.57350436752995 407.7979620852845,53.639425293083406 421.10328978307757,61.013821771391946 433.70404793146935,69.66232763084062 445.434337906984,79.53142763283503 456.12923230146924,90.54780784621755 465.6269330202922,102.61790773271093 473.7710363520026,115.62769298972988 480.4128840405631,129.4426667250795 485.41397691841405,143.90813474898283 488.64842531185894,158.84973866356822 490.0054082471504,174.07426801339713 489.39161150439264,189.3707600420608 486.73361282505766,204.51189259286983 481.9801811153396,219.2556724143542 475.1044553385104,233.34741760628415 466.10596799026655,246.52202919651984 455.0124776351547,258.5065429050084 441.8815749803782,269.0229480649915 426.80202740335824,277.7912564735861 409.8948277555038,284.5327996791157 391.3139146566574,288.9737289294579 371.2465333878497,290.84868775629826 349.91320889437094,289.9046230096656 327.56730533101484,285.90469614316424 304.49415001496425,278.63225274267677 281.0097035907626,267.8948047511662 257.4587626410841,253.5279766315069 234.2126858742703,235.39936389003628 211.6666403552805,213.4122500170232 190.2363699837901,187.50912604625555 170.35449451719276,157.6749556518517 152.46635383530221,123.94012804033302 137.02541878844454,86.38304090996415 124.48829679518204,45.13225648234243 115.30936728725018,0.3681751022285482 109.93508905835668,-47.67582681710482 108.7980284755527,-98.71284462968998 112.31066426729876,-152.40252527354744 120.85903111720854,-208.3518205034057 134.79627046965004,-266.11644937554905 154.43616269343096,-325.2030994011392 180.04671995202511,-385.0723885687838 211.8439236924679,-445.14260246222796 249.98569449062862,-504.79421201317155 294.5661849810342,-563.3751680927734 345.6104886616404,-620.2069592310368 403.0698584101084,-674.5914083455737 466.817528497163,-725.8181735566101 536.6452326617232,-773.1729070715331 612.260508358361,-815.9460148581351 693.2848735484636,-853.4419485200824 779.2529573424576,-884.9889495785733 869.6126593860056,-909.949155396677 963.7264051075376,-927.7289654101728 1060.8735548134166,-937.7895563086961 1160.2540141532108,-939.6574255053742 1260.9930817219824,-932.9348338055481 1362.147556578846,-917.3100107992261 1462.7131143203756,-892.56698031927 1561.632945152476,-858.5948584855271 1657.8076312735695,-815.3964735452741 1750.106223953066,-763.096155064897 1837.3784631198516,-701.9465401581501 1918.4680642408966,-632.3342464704854 1992.226978963876,-554.7842656791952 2057.530517629089,-469.9629373994436 2113.293203549418,-378.6793716704293 2158.485211149994,-281.8851986751969 2192.149222899867,-180.67253703857875 2213.4175237131067,-76.27008694068667 2221.529136409402,29.962728659466762 2215.846788170032,136.54363224151518 2195.8734859700608,241.87740578059754 2161.268468974339,344.26786401842025 2111.8622981088965,441.93187559172304 2047.6708377060977,533.0153944139445 1968.9078815023802,615.6114361681133 1875.9961755545312,687.7799061968356 1769.576594025548,747.5691557549221 1650.5152304393685,793.0391138363187 1519.9081770511239,822.2858119406583 1379.083778528754,833.4670895710581 1229.602163258771,824.8292393398888 1073.251876299692,794.7343227069204 912.0434622943084,741.6878610022587 748.1998744539727,664.3665819218601 584.143616933822,561.6458795584476 422.48056236734465,432.6266266770595 265.9804238104489,276.66096178875733 117.55390059615307,93.37666103331392 -19.773439694153552,-117.30030365007156 -142.89043614503385,-355.1254227309622 -248.63261284758113,-619.5179257566721 -333.81725954198373,-909.5460729383014 -395.2810650817389,-1223.9158471761893 -429.9200057472758,-1560.9634155856509 -434.7311424030753,-1918.6517074291246 -406.85593354522985,-2294.571427407671 -343.6246260824753,-2685.9467894716527 -242.60124291218506,-3089.646216707881 -101.62864668805935,-3502.198207551085 81.12687666961072,-3919.8125177332577 307.13210249544375,-4338.4067512874235 577.4450338187168,-4753.638392908434 892.6753838330326,-5160.942248471665 1252.9480221998301,-5555.573191035716 1657.8700395412438,-5932.654036805856 2106.502083328965,-6287.228299990476 2597.334609024857,-6614.31749800312 3128.2696723439803,-6908.982599882777 3696.6088615350686,-7166.389132026363 4299.04793234349,-7381.875377320333 4931.678662665696,-7551.023027541616 5589.998388760291,-7669.729575541626 6268.927620299664,-7734.281664335422 6962.83605769824,-7741.4285459183575 7665.577252337513,-7688.454744567186 8370.532058954139,-7573.250968691555 9070.660930129023,-7394.382273108362 9758.564996215115,-7151.152441010834 10426.555761008864,-6843.663532944907 11066.733124979326,-6472.869539771136 11671.071325029028,-6040.623078791736 12231.512253809422,-5549.71408776807 12740.065493907772,-5003.899501146891 13188.914274235598,-4407.922937025883 13570.52642925188,-3767.5234826490264 13877.769317911656,-3089.4327408017484 14104.027540179972,-2381.359389472639 14243.322176385744,-1651.9606124753673 14290.43017044636,-910.7998790983745 14241.002383926825,-168.2906857812797 14091.678765855737,564.3739783981988 13840.199015034026,1275.3065189277334 13485.507059015377,1952.0238787537114 13027.84763871047,2581.560655947933 12468.853271271104,3150.595722488258 11811.619868013426,3645.5916707323286 11060.769309958707,4052.9462093975126 10222.497332239578,4359.154423302329 9304.605141060054,4550.980603169291 8316.513283808235,4615.638145997235 7269.256414723914,4540.975825587189 6175.4577453821075,4315.668539575721 5049.282141011347,3929.4104567119757 3906.3670198572436,3373.1083190920413 2763.730432622626,2639.0725016503584 1639.6559413125385,1721.2032984100902 553.554180078018,615.1697947792536 -474.19873698423,-681.4213995697498 -1422.4454968921254,-2168.870339223407 -2269.453780015751,-3845.243660643738 -2993.1432609837684,-5706.253029070526 -3571.331982879577,-7745.154872069671 -3982.000332034103,-9952.67407708953 -4203.570502863847,-12316.954211728098 -4215.199007966225,-14823.536666980834 -3997.079462469904,-17455.37092483907 -3530.752558041464,-20192.85791200782 -2799.419845716664,-23013.928121462148 -1788.2576727033943,-25894.15586383928 -484.7273713905597,-28806.910652591192 1121.1224161211644,-31723.54633228269 3036.365572756381,-34613.62813087918 5264.924931875885,-37445.19735738947 7807.319815407187,-40185.07297943458 10660.439247210576,-42799.18880546069 13817.345390619874,-45252.964468171755 17267.11168803267,-47511.70786469324 20994.70004890182,-49541.04616084378 24980.88123808695,-51307.38191803921 29202.202357470793,-52778.370358565095 33631.0049889199,-53923.41325538011 38235.49717571036,-54714.16442373436 42979.88196288332,-55125.041311421024 47824.5446959186,-55133.73674030008 52726.30069378895,-54721.72445180126 57638.70426997285,-53874.75176137204 62512.41937738358,-52583.31233909601 67295.65140540952,-50843.0919135766 71934.6388652999,-48655.379550926256 76374.20287085738,-46027.437097136506 80558.35146263719,-42972.819396500716 84430.93494431443,-39511.63801670571 87936.34750910477,-35670.76142749293 91020.2695424499,-31483.944898317626 93630.44410564145,-26991.883804090387 95717.48024528619,-22242.184558636436 97235.67494769135,-17289.24803351207 98143.84477788565,-12194.061064553209 98406.1575229393,-7023.8924978488385 97992.95351139067,-1851.8911772052516 96881.54571785564,3243.41567848027 95056.98729698475,8178.72412376458 92512.79483616259,12866.654359941798 89251.61538352397,17216.548743313277 85285.82520805177,21135.363489800882 80638.0482918619,24528.649240784023 75341.58275033403,27301.614225166097 69440.7237312743,29360.262304955988 62990.97186607765,30612.596742894428 56059.11703855086,30969.87909882014 48723.18810349317,30347.93126550253 41072.26022815301,28668.46731432905 33206.112744049235,25860.44055693096 25234.731780857397,21861.390061380393 17277.653502269062,16618.7698119993 9463.145467668419,10091.24279104336 1927.2254923634648,2249.921509185287 -5187.4806403335115,-6920.464060154869 -11733.039165474924,-17420.490560864142 -17557.66037765891,-29235.076923540346 -22507.29481269403,-42332.65112297074 -26427.363331041885,-56664.467198483864 -29164.60851164456,-72164.09112788942 -30569.05241106058,-88747.07329123773 -30496.04341740372,-106310.82412832243 -28808.37266220733,-124734.70817917367 -25378.438278179015,-143880.3699984455 -20090.433740026474,-163592.3034547081 -12842.534632972593,-183698.67366999201 -3549.056493374511,-204012.39833310444 7857.44510795306,-224332.49234576564 21424.162283035075,-244445.67675111257 37176.14130951036,-264128.2496712947 55114.5394418327,-283148.2135705168 75215.06385939902,-301267.64959186036 97426.62442645301,-318245.3260243773 121670.23140201958,-333839.52417888877 147838.1682782826,-347811.0611279091 175793.46852632938,-359926.4849416972 205369.72317700202,-369961.41427611903 236371.24385450274,-377703.9904889477 268573.60310941964,-382958.40693174256 301724.5706695409,-385548.4767383891 335545.46055077313,-385321.19736381795 369732.8998624069,-382150.2673728246 403961.02562309196,-375939.50859451375 437884.1110048011,-366626.14479714405 471139.61717749154,-354183.8865538115 503351.6613788787,-338625.7710118168 534134.886030642,-320006.70489494293 563098.7077195535,-298425.6593014692 589851.9187206973,-274027.4657499139 614007.6075273334,-247004.16450216813 635188.3586405715,-217595.8584863128 653031.6857391344,-186091.02916833994 667195.6463767418,-152826.27449479606 677364.5806270757,-118185.43355004642 683254.9107014778,-82598.0678362983 684620.9335919732,-46537.275076021804 681260.5343320682,-10516.818129112204 673020.7436097322,24912.44102525685 659803.0602994814,59166.80431660488 641568.4570891805,91634.69115983753 618341.9858437247,121682.26709252135 590216.8987487806,148659.722545523 557358.2016832911,171908.16705851277 520005.55774164817,190767.094268182 478475.4614185081,204582.36290031252 433162.607723976,212714.62890510194 384540.38544525695,214548.15391425998 333160.4299316719,209499.90550099476 279651.1781571949,197028.85542845423 224715.3773986076,176645.37332095756 169126.50863164308,147920.6051307884 113724.0966499062,110495.71854791441 59407.89089243949,64090.89125661715 7130.913948748733,8513.91282508666 -42108.61139945598,-56331.732839378 -87276.43105465111,-130439.43999320763 -127312.48350093092,-213692.84497612788 -161142.12195375466,-305860.1173064004 -187688.26176461534,-406589.31127542135 -205884.36367547998,-515404.90710860246 -214688.14712312658,-631705.6646121754 -213095.91161665082,-754763.9041376634 -200157.32846822604,-883726.3196378144 -174990.55007258916,-1017616.4165530434 -136797.469736453,-1155338.6532732234 -84878.95199127955,-1295684.3490087832 -18649.841619633047,-1437339.4031471305 62346.45047637197,-1578893.8516627357 158423.9947033049,-1718853.2650170715 269741.23984726827,-1855651.9693822626 396288.98006508674,-1987668.0491325138 537879.6135289541,-2113240.063581064 694137.9132520712,-2230685.3851358155 864493.5265939557,-2338320.0396694336 1048175.4129521506,-2434479.9032387263 1244208.4190810854,-2517543.0826565227 1451412.178257963,-2585953.281150245 1668402.503093104,-2638243.924786248 1893595.4221478878,-2673062.8008630713 2125213.9877065173,-2689196.936457137 2361297.956119199,-2685597.4241251643 2599716.4132077154,-2661403.8828148674 2838183.385459249,-2615968.2256948426 3074276.4433356877,-2548877.3932640236 3305458.2662448417,-2459974.7001067298 3529101.0998552833,-2349379.437370725 3742513.995831948,-2217504.3707891637 3942972.682113398,-2065070.7761406964 4127751.86897553,-1893120.6607099222 4294159.752802461,-1703025.8307975014 4439574.43622175,-1496493.4818152594 4561481.940600827,-1275568.0091165 4657515.44541565,-1042628.7645301291 4725495.349285471,-800383.5156037046 4763469.710132195,-551857.4017665671 4769754.587593307,-300377.2238824817 4742973.780121422,-49550.950785714755 4682097.422767352,196757.6218770571 4586478.890080513,434459.06917729875 4455889.432466168,659273.3396277019 4290549.964278725,866769.4486863858 4091159.418434527,1052409.6825867598 3858919.0858789175,1211598.063814315 3595552.369268619,1339732.7598517307 3303319.3990953113,1432262.0464053804 2985025.987470324,1484743.3660381334 2644026.430121556,1492904.9538475028 2284219.710941682,1452709.4344738682 1910038.7156929027,1360418.7302679704 1526432.1221353246,1212659.559885946 1138838.7027115787,1006488.7509281487 753153.8526822533,739457.5405160772 375688.24083875446,409673.9949252811 13118.571075252525,15862.644558753484 -327569.4594911031,-442579.5953797889 -639145.8172954984,-965532.1642511742 -914208.1080274255,-1552105.206535004 -1145260.4643639645,-2200600.4786665174 -1324798.8255432488,-2908479.739031262 -1445401.9741729824,-3672341.5170260957 -1499827.581483889,-4487907.112908035 -1481112.3997196045,-5350016.622414862 -1382675.631012415,-6252635.708658974 -1198424.397502101,-7188873.758540041 -922860.139232259,-8151013.962030439 -551184.6761529383,-9130555.740476757 -79404.59002958894,-10118269.825035399 495567.48714417673,-11104266.149216387 1175816.1478889901,-12078074.571144165 1962332.558540266,-13028738.282647604 2854931.4202497452,-13944919.594960837 3852177.0871749753,-14815017.616139462 4951320.377023046,-15627297.154955534 6148247.579007592,-16370028.001891708 7437443.113434543,-17031633.551950898 8811967.224794544,-17600847.548520513 10263449.995870346,-18066877.544822976 11782102.853663247,-18419573.502000563 13356748.598860662,-18649599.77318325 14974870.82933708,-18748608.563602414 16622683.445329081,-18709412.810626615 18285220.72027324,-18526156.297194786 19946448.19798916,-18194478.700195845 21589394.435386788,-17711673.184516434 23196303.35196673,-17076834.08629329 24748806.675168023,-16290992.187788267 26228115.686538134,-15357235.07350133 27615231.180483807,-14280810.074714033 28891170.24805278,-13069207.359424174 30037208.196104504,-11732220.808129212 31035133.610933155,-10281984.43436549 31867514.27869855,-8732982.263173696 32517971.386909947,-7102029.771224402 32971459.155847207,-5408225.219257415 33214546.790476497,-3672869.470379183 33235699.406473663,-1919353.1857612352 33025554.372798357,-173010.6210360936 32577189.332202855,1539060.3896741273 31886378.01439738,3188212.2820219677 30951829.848445658,4744495.042194459 29775409.315261766,6176936.077505077 28362330.96147646,7453851.372103389 26721326.025780674,8543186.146316769 24864776.711060174,9412882.751589991 22808814.272709575,10031273.042062461 20573377.28741482,10367491.974331845 18182226.718820095,10391908.705083087 15662914.70760918,10076570.988516515 13046704.383714056,9395658.228656312 10368438.426969077,8325938.122613215 7666354.588129373,6847221.446796286 4981846.92255795,4942809.196031774 2359172.080990402,2599925.992622667 -154899.35828292998,-189866.55449383636 -2511485.848482193,-3430283.034463832 -4660050.736866421,-7119960.562096618 -6548908.891491677,-11252144.877258044 -8125781.177788513,-15814422.794542661 -9338393.079696637,-20788507.44599455 -10135112.962357078,-26150082.53472311 -10465624.67820091,-31868711.49993113 -10281628.435753109,-37907817.08189691 -9537563.091170529,-44224736.26761446 -8191342.29745736,-50770854.994000584 -6205096.26675784,-57491826.28689783 -3545910.2786212033,-64327874.72288797 -186550.51322908187,-71214189.22081839 3893832.685243213,-78081405.20593537 8709034.392435644,-84856176.14797713 14265168.092343071,-91461833.36329167 20560092.795852438,-97819131.79913478 27582905.06007209,-103847078.29631454 35313506.593863845,-109463837.5661255 43722257.91095277,-114587709.83215506 52769728.12285521,-119138172.79138926 62406550.44445584,-123036979.25746185 72573392.31181113,-126209300.5782789 83201048.18271892,-128584904.68781123 94210662.10564783,-130099356.47546342 105514086.0035975,-130695227.05451879 117014378.3301811,-130323297.50237104 128606446.3216943,-128943741.74842708 140177833.49930817,-126527272.51931912 151609652.38022822,-123056233.63369681 162777660.54834634,-118525621.48801652 173553476.32855207,-112944018.30720142 183805928.3215449,-106334419.66536368 193402531.0070717,-98734938.92619224 202211076.53432065,-90199371.62255165 210101330.71205166,-80797603.40083256 216946819.1129774,-70615846.00590076 222626687.143625,-59756686.88292199 227027615.93031493,-48338939.32591388 230045773.96317723,-36497281.70975751 231588782.65311313,-24381676.19953249 231577672.32172942,-12156559.432095388 229948803.69200712,199.99999971839418" stroke="white" stroke-width="1.5" /></svg>