<?xml version="1.0" encoding="utf-8" ?>
<svg baseProfile="full" height="400" version="1.1" width="400" xmlns="http://www.w3.org/2000/svg" xmlns:ev="http://www.w3.org/2001/xml-events" xmlns:xlink="http://www.w3.org/1999/xlink"><defs /><rect fill="black" height="100%" width="100%" x="0" y="0" /><circle cx="200" cy="200" fill="yellow" r="20" stroke="orange" stroke-width="2" /><polyline fill="none" points="199.04384089315505,200.0 199.030890255039,199.94912616536197 199.0235208754756,199.89719530707072 199.0220135042591,199.84483924804218 199.0265886830548,199.79273928182454 199.03739976877802,199.74162107182917 199.0545263189021,199.69224865898 199.07796794500777,199.64541759268002 199.10763874217398,199.6019472119008 199.14336240184568,199.56267211556994 199.1848681145127,199.5284328741443 199.2317873658225,199.50006604717368 199.28365172556673,199.4783935846357 199.33989172328188,199.46421170270244 199.39983689695558,199.45827933721012 199.46271709252045,199.4613062902779 199.52766508145103,199.47394119707351 199.59372055187964,199.49675945046934 199.65983551526264,199.5302512310851 199.72488115582283,199.5748097987845 199.7876561338581,199.63072020889632 199.8468963366521,199.69814862208494 199.90128605228261,199.77713238072766 199.94947052225587,199.86757102670225 199.99006980877883,199.96921843549308 200.0216938918145,200.08167623935665 200.04295889007068,200.20438870782408 200.05250427898832,200.33663924696216 200.04901095787656,200.4775486694935 200.03121999786165,200.62607537603682 199.99795188255828,200.78101757335205 199.94812603462995,200.9410176385701 199.88078040397903,201.104568718994 199.7950908775056,201.27002363525185 199.69039025649778,201.43560613147264 199.56618653607126,201.59942448988772 199.4221802119519,201.75948749901846 199.25828033357976,201.91372273461 199.07461901926703,202.05999708097036 198.87156414921773,202.19613938766437 198.64972995582917,202.31996512291613 198.4099852380424,202.4293028509566 198.15345893774324,202.52202232629554 197.88154283146417,202.5960639639261 197.5958911099732,202.64946941121656 197.29841664179776,202.68041291518117 196.99128374429927,202.68723314841665 196.67689731752318,202.66846512874255 196.35788823157412,202.62287184198235 196.03709489752956,202.5494751548643 195.71754099466807,202.447585586199 195.40240937275232,202.31683048977985 195.09501219691626,202.15718019231136 194.79875745394244,201.96897162453345 194.51711199190495,201.75292898397214 194.25356131976477,201.51018097377172 194.0115664489537,201.24227417415773 193.7945181146359,200.9511821215011 193.60568876951533,200.6393096948983 193.44818279704128,200.30949244177248 193.3248854429077,199.9649905122934 193.23841101305808,199.60947691737817 193.19105093221052,199.24701987656024 193.18472229839364,198.88205907989797 193.22091760533263,198.51937575204275 193.30065633494695,198.16405647621036 193.42443914594529,197.82145081061282 193.59220540078098,197.49712280932678 193.803294781365,197.19679664292104 194.05641374327428,196.92629660066368 194.34960754816268,196.69148184491718 194.68023859417266,196.4981763784517 195.04497173395035,196.3520947758365 195.4397672290653,196.25876431969684 195.85988193803018,196.22344427028577 196.29987927262184,196.25104308128897 196.7536483838713,196.34603445479823 197.2144329551041,196.5123732026539 197.6748698851026,196.75341194856776 198.12703804031403,197.07181976427927 198.5625171416739,197.4695038821834 198.97245672985272,197.94753566513486 199.34765502351186,198.5060820402755 199.6786473495824,199.14434361661245 199.95580368391904,199.8605007046446 200.1694346963386,200.6516684396537 200.30990554757858,201.51386217753088 200.3677565387851,202.4419742825306 200.33382956855826,203.42976335962507 200.19939921024755,204.46985689985297 199.95630708508997,205.5537682050826 199.59709807697246,206.67192833903238 199.11515681418274,207.813733714512 198.504842734617,208.96760977321654 197.76162195566093,210.12109104480714 196.88219409045712,211.26091768748927 195.86461209055471,212.37314841414775 194.70839315296925,213.44328949787018 193.41461870930516,214.45643933019056 191.9860215175095,215.39744777667352 190.42705790455733,216.2510893398249 188.7439632622336,217.00224890128564 186.9447889792538,217.63611857657142 185.0394191020678,218.13840397918858 183.0395651543423,218.49553795987921 180.95873771150985,218.69489966425755 178.81219352176853,218.7250365415409 176.6168571880013,218.5758867418678 174.39121667536318,218.23899916329188 172.1551921854701,217.70774825539556 169.92997823850874,216.97754055799223 167.73785912706,216.04600985389516 165.60199824745416,214.91319774740776 163.5462021731116,213.58171644802164 161.5946607062148,212.056890544554 159.77166452547092,210.34687460107978 158.10130243455043,208.46274349464954 156.607140603574,206.41855254767364 155.31188658001173,204.23136468630966 154.2370412205184,201.9212420810442 153.40254205630444,199.5111999972226 152.82640194618884,197.02712090130052 152.5243471879527,194.49762723222685 152.50945954438185,191.95391165514604 152.79182688985063,189.42952406441802 153.37820739091705,186.96011509200932 154.27171229478736,184.5831364021611 155.4715125075071,182.3374986097487 156.9725741944921,180.26318824311943 158.765428625063,178.40084577696305 160.8359814059902,176.791307380851 163.16536610325022,175.47511365778135 165.72984703341672,174.491989277146 168.5007757142483,173.88029803024835 171.44460509676844,173.6764784456575 174.52296525795978,173.91446568773605 177.69280371456782,174.6251060157865 180.90659292580517,175.83557059438982 184.11260688839135,177.568775908536 187.25526799481463,179.8428184409496 190.27556452950734,182.67043160460724 193.11153832342836,186.05847318208365 195.69884118208415,190.0074516966785 197.97135775312535,194.5111002203941 199.8618915162236,199.5560061035199 201.30290956988333,205.12130498335569 202.22734086806764,211.17844718989954 202.5694215358047,217.69104430957688 202.26557987990145,224.61480319090967 201.25535272183558,231.89755407627158 199.48232372873787,239.4793788208125 196.89507351948603,247.2928443139922 193.44813049098659,255.26334525325174 189.10291055956105,263.3095593371344 183.82863335878162,271.3440167523145 177.60320189271815,279.27378453294625 170.41403222656336,287.0012649806874 162.25881951856866,294.4251058607261 153.1462265709274,301.44121854586604 143.0964811144082,307.9438986817294 132.14186825265864,313.8270423075704 120.32710488619138,318.98544870678256 107.70958352047916,323.3161995981348 94.35947364280038,326.7201026335918 80.35966983190097,329.1031855629216 65.80557694432184,330.378225881801 50.80472410013439,330.46629932215853 35.476200764995326,329.2983291949016 19.94990998839731,326.8166173800816 4.3656358004271,322.97633670199383 -11.128076120861294,317.7469635504176 -26.37522313725779,311.1136289371995 -41.213831922725944,303.07836573172335 -55.477620039580955,293.66122962019557 -68.99782393790963,282.90127140112236 -81.60518183408061,270.8573385798408 -93.13205722593284,257.6086848730976 -103.41468610047781,243.25536719230846 -112.29552821808898,227.91841095010443 -119.62570025045085,211.73972613451105 -125.26746604473288,194.88175852042792 -129.0967569216083,177.52686263678655 -131.00569272857786,159.87638567359807 -130.90507240178874,142.1494543853462 -128.7268010782346,124.58146021064113 -124.42621938438714,107.42224126287158 -117.98429944432581,90.93396352822516 -109.40967143610936,75.38870750661549 -98.74044421301812,61.06577061382626 -86.04578362721361,48.24869989106469 -71.42721277484605,37.22207389823197 -55.019599447256525,28.268057052532356 -36.9917976418929,21.662754063744757 -17.54691207303864,17.67239645717808 3.0778427648240267,16.549397407776326 24.611714286489985,18.528315174126618 46.75143589678726,23.821769257523272 69.162720919132,32.616356955688076 91.48223914910686,45.06862116958996 113.32008365853288,61.30112309156263 134.26272988373253,81.39867569107223 153.87648303996795,105.4047956602995 171.71140356014504,133.31843262714614 187.30569361512207,165.09103493388818 200.190520898091,200.62401106553827 209.89524881631147,239.76664484844338 215.95303510660307,282.31452078864584 217.90675375914543,328.0085133499929 215.31518808573904,376.5343905611278 207.75943589698477,427.5230780743742 194.84946115517047,480.5516246739456 176.23072024643443,535.1449042520685 151.59078526949656,590.7780824567326 120.66588157233831,646.8798685926635 83.24725228579344,702.8365649685238 39.187258905639936,757.9969167812583 -11.59487583903288,811.6777558784802 -69.10777842936591,863.1704214195211 -133.28318468031875,911.7479296557422 -203.9718455352541,956.6728538728626 -280.94017292610414,997.2058640963285 -363.8677172163517,1032.6148645797505 -452.3455635357217,1062.1846555109064 -545.8757287393628,1085.2270339235686 -643.8716337581989,1101.091237648221 -745.6597177446124,1109.1746254288505 -850.4822506691646,1108.9334762396388 -957.5013899181552,1099.8937815212735 -1065.8045140258257,1081.6618956896632 -1174.4108530152844,1053.934903017694 -1282.2794200060184,1016.5105530181862 -1388.3182328793775,969.2966119233444 -1491.3947980042078,912.3194749156538 -1590.347810459729,845.7318825605273 -1684.0000070183337,769.8195855532888 -1771.1720895526862,685.0068045391795 -1850.697617712175,591.8603364948336 -1921.4387508927343,491.092166053875 -1982.302700935511,383.5604492771456 -2032.258738880424,270.26874874507564 -2070.355581727884,152.3634124955306 -2095.738968791235,31.129005227638913 -2107.6692221246226,-92.01828170686724 -2105.538571959116,-215.53929477543403 -2088.8880163461185,-337.78268820513154 -2057.423474559137,-456.9978062764163 -2011.0309865026684,-571.3496590326525 -1949.7907056681934,-678.9359451516017 -1873.989431294302,-777.8060471545438 -1784.1314265436522,-865.9818945752952 -1680.9472738928691,-941.4805604769663 -1565.4005267041368,-1002.3384261192177 -1438.6919272398395,-1046.6367180003992 -1302.260976288977,-1072.528191307493 -1157.7846581532879,-1078.2647044045636 -1007.1731470066309,-1062.2254007952877 -852.5623465631802,-1022.9451884391556 -696.303144490998,-959.1431818242106 -540.9472959599478,-869.7507502452086 -389.2298869382554,-753.9387967471996 -244.04836711879102,-611.143876605472 -108.43818437946578,-441.0927524450726 14.45490287596536,-243.82497555920133 121.40571268084864,-19.7130800423881 209.1435549015639,230.52002164385442 274.3889550470343,505.7868458020355 313.8929167679318,804.6247386889135 324.4784036429276,1125.1892446380652 303.0836718155,1465.2517896213344 246.807037309392,1822.201998422155 152.95261609443926,2193.0549272706467 19.076531898943244,2574.4634515286525 -156.96695291458934,2962.7359999403475 -376.9799636556053,3353.859773289671 -642.3768077655543,3743.5295263223006 -954.14167358912,4127.181927875085 -1312.7888885732539,4500.035445774741 -1718.3264040917086,4857.135630772496 -2170.2231786835,5193.405598207486 -2667.381128037076,5503.701427962599 -3208.112298050374,5782.872123390135 -3790.1218963283795,6025.823689118767 -4410.497787204555,6227.586806953858 -5065.707015543494,6383.387509457435 -5751.599875055354,6488.720173305542 -6463.421977594997,6539.422080276503 -7195.834711015059,6531.748723863728 -7942.9443948041435,6462.448975194772 -8698.340355311906,6328.83916434631 -9455.142046320223,6128.8750834374005 -10206.05523668173,5861.220877209851 -10943.437175474352,5525.313756273402 -11659.370527509654,5121.4234488652455 -12345.745749126556,4650.705299839031 -12994.351447170702,4115.245931562247 -13596.972134210255,3518.1004012670337 -14145.492661797547,2863.3198238517452 -14632.008482490723,2155.9684787166743 -15048.940762042677,1402.1294843348774 -15389.155237374978,608.8982051378291 -15646.083595480239,-215.63734801492825 -15813.846035095183,-1062.4297501571264 -15887.373568747249,-1921.5195260274381 -15862.52852950253,-2782.097001640872 -15736.221666330355,-3632.5788434853002 -15506.524146307775,-4460.699315842579 -15172.772732721487,-5253.616105643431 -14735.666377204618,-5998.03037291879 -14197.352452973757,-6680.320485000968 -13561.500866481812,-7286.6886860684135 -12833.364317667283,-7803.319742543807 -12019.823035574293,-8216.550391568333 -11129.412397318982,-8513.04820679124 -10172.331944828498,-8679.998285703265 -9160.434445845494,-8705.295958517485 -8107.193803444337,-8577.743523088067 -7027.650801505863,-8287.24882657345 -5938.335881669717,-7825.023345567453 -4857.168379304093,-7183.777265331765 -3803.331900720682,-6357.908928645707 -2797.125799567733,-5343.685918667064 -1859.7930050333212,-4139.414960997371 -1013.3247657915033,-2745.5977806559554 -280.24319876501806,-1165.0700324943625 316.6371323585238,596.8795588960195 754.4670407936514,2532.412659408873 1010.6380278368548,4631.07010249579 1063.0728208795465,6879.728566874986 890.5285365071076,9262.58756469203 472.9095353854637,11761.188934348858 -208.41328163757038,14354.470774882955 -1170.2802848822296,17018.857460114334 -2427.4218572255677,19728.387031738745 -3992.14213283587,22454.87689262835 -5874.012011082566,25168.12830692764 -8079.575894863394,27836.16976477574 -10612.07673014385,30425.53878996351 -13471.204002672474,32901.601262440716 -16652.869374394813,35228.90679882829 -20149.01461218585,37371.57818804521 -23947.456371744778,39293.73232145927 -28031.772246954937,40959.92949377687 -32381.232277401465,42335.64738883981 -36970.77982240562,43387.77551065842 -41771.06535794929,44085.12528182676 -46748.536333075106,44398.9505166808 -51865.585735433924,44303.472493139205 -57080.761463178045,43776.40340323048 -62349.03798484879,42799.4615660259 -67622.15109371,41358.871446181474 -72848.99583254122,39445.84124452043 -77976.08688462114,37057.01062177467 -82948.07990285708,34194.860990081565 -87708.35138909909,30868.080765960534 -92199.63384789258,27091.87802951568 -96364.70203243897,22888.233183042725 -100147.10518539752,18286.084452737625 -103491.93926414254,13321.439433546691 -106346.65224074009,8037.406341990387 -108661.87469327784,2484.139216545317 -110392.26706989777,-3281.3080099219305 -111497.37422289934,-9195.222847244442 -111942.4770907729,-15187.574375768516 -111699.43076427656,-21182.454543341384 -110747.47762187793,-27098.621910418537 -109074.02377297047,-32850.1479331723 -106675.36671678175,-38347.164604654274 -103557.3619227209,-43496.71093386059 -99736.0159751653,-48203.67434392466 -95237.99401249405,-52371.82162710652 -90101.02943547635,-55904.912620712115 -84374.22427146489,-58707.88828087608 -78118.2291642504,-60688.12334786909 -71405.29271916703,-61756.73233596262 -64319.17087144501,-61829.91616257797 -56954.88806320014,-60830.335375950395 -49418.34330890748,-58688.4946689204 -41825.75569648157,-55344.12220015349 -34302.94550450909,-50747.52620465535 -26984.448906562222,-44860.91048432377 -20012.466169077834,-37659.629647457834 -13535.645315718895,-29133.364433989707 -7707.705411425026,-19287.197139983837 -2685.9058940848436,-8142.56705872768 1370.629271097565,4261.913997119466 4302.721444240726,17869.80562285875 5953.0675833907735,32606.361054034493 6168.2749404347,48378.245604301934 4800.981811607342,65073.4679680513 1712.0436714122636,82561.53951512236 -3227.238180797279,100693.8748823347 -10132.870394759471,119304.44505638107 -19105.93058739181,138210.6917518799 -30230.368112072538,157214.70922800136 -43570.872527757194,176104.69677210788 -59170.840882212906,194656.6819285125 -77050.47578035756,212636.51118815914 -97205.04672511041,229802.10130841623 -119603.3473650895,245905.9407330378 -144186.38103434636,260697.82676645534 -170866.30630068833,273927.8202635939 -199525.67313124033,285349.3956696443 -230016.97872107924,294722.76033019606 -262162.57000203896,301818.3131404591 -295754.9173481435,306420.2088650257 -330557.2810211479,308329.9908909205 -366304.7884595323,307370.251832213 -402705.9366188104,303388.27834092436 -439444.52923782275,296259.6337531753 -476182.05415959953,285891.6298680949 -512560.5007077313,272226.6372753633 -548205.6116481691,255245.18226886954 -582730.5584971065,234968.77755973794 -615740.0229198908,211462.433779279 -646834.6607620309,184836.79918427212 -675615.9189259456,155249.87608135128 -701691.1689266254,122908.26430611602 -724679.1146015326,88067.88465111272 -744215.4251956241,51034.13845278922 -759958.5389760034,12161.463630376002 -771595.5767404356,-28147.747680049713 -778848.2991603684,-69444.89914421554 -781479.0369342659,-111237.63080052091 -779296.5183133445,-152992.96602410768 -772161.5147911431,-194141.17299673348 -759992.2227107624,-234080.34044808047 -742769.2963258084,-272181.6585309684 -720540.4465357418,-307795.38630710286 -693424.5191802522,-340257.4775359019 -661614.9674900485,-368896.8263716938 -625382.6351147903,-393043.0842892005 -585077.7691341036,-412034.9891886426 -541131.1866457898,-425229.13730320596 -494054.5239446019,-432009.1183742722 -444439.50397058786,-431794.92471156124 -392956.1656184787,-424052.53535937634 -340350.00764394784,-408303.5677936133 -287438.01024764933,-384134.88152673026 -235103.508915442,-351208.01084974816 -184289.9076772408,-309268.297840659 -135993.2325338151,-258153.59186353683 -91253.54028868343,-197802.37821317042 -51145.21329114005,-128261.19645999865 -16766.186508798768,-49691.20854410679 10773.830251013089,37626.222131913535 30366.055433444228,133285.0763539867 40916.16775549771,236751.48033670863 41358.553987650885,347361.886544743 30671.142837909236,464322.74923303025 7890.679291507014,586711.7989635507 -27871.721486734623,713481.0074510174 -77414.91584655011,843461.3191837857 -141432.15714505562,975369.2094109564 -220495.80481612327,1107815.1093611994 -315042.5266603973,1239313.719071158 -425359.2119192336,1368296.2060876417 -551569.8184396232,1493124.264735373 -693623.3805878793,1612105.9858054062 -851283.4053258988,1723513.4606433613 -1024118.8818418373,1825602.0169533968 -1211497.1251662709,1916630.9564625332 -1412578.6661701575,1994885.6372142637 -1626314.3891262817,2058700.7160074317 -1851445.1035480502,2106484.33971346 -2086503.7192603622,2136743.048256496 -2329820.1726075304,2148107.1273059654 -2579529.227404393,2139356.12559831 -2833581.2467732923,2109444.230669183 -3089756.001511414,2057525.178036078 -3345679.547276382,1982976.3529177976 -3598844.166886138,1885421.7307961453 -3846631.3356735823,1764753.2938886776 -4086337.627436231,1621150.5552614164 -4315203.436441347,1455097.821194353 -4530444.347599229,1267398.8258174246 -4729284.9427558575,1059188.38022078 -4908994.786575407,831940.6914287844 -5066926.291215636,587474.0249835509 -5200554.115510164,327951.40852811444 -5307515.71225309,55877.102772991195 -5385652.597050941,-225911.39943150975 -5433051.874695058,-514256.04557848175 -5448087.524758021,-805695.7224509116 -5429460.91777381,-1096488.6867608435 -5376240.007562972,-1382639.9783954322 -5287896.624636706,-1659933.808597471 -5164341.280759522,-1923970.8529924415 -5005954.886241432,-2170210.313649802 -4813616.77989817,-2394016.5459291884 -4588728.4773420235,-2590709.9753819224 -4333232.55676871,-2755621.958194774 -4049626.1230404186,-2884153.1663821777 -3740968.320906414,-2971835.007020541 -3410881.406840707,-3014393.5141934487 -3063544.936306216,-3007815.083944468 -2703682.679269308,-2948413.357415704 -2336541.94137342,-2832896.4965138775 -1967865.0411056993,-2658434.0409349296 -1603852.7742076428,-2422722.486239833 -1251119.7850186622,-2124048.6809472525 -916641.8598033836,-1761350.107307453 -607695.2586776369,-1334271.08652633 -331788.3096648626,-843213.9356436904 -96585.59971518055,-289384.1008997055 90174.7878906338,325171.6979766327 220770.42365257785,997535.2558676297 287589.3859274176,1723895.5105864285 283230.0186017676,2499536.870097441 200604.67730864318,3318838.0341965454 33046.438147516674,4175282.0289634415 -225582.36279026454,5061478.080942902 -580780.9894475631,5969195.852739252 -1037301.8856992453,6889412.442895496 -1599044.3750082604,7812372.421147604 -2268951.9472099775,8727661.026165584 -3048914.653546524,9624290.49769095 -3939678.1695044683,10490799.349732887 -4940761.1066171825,11315364.217578541 -6050382.157781173,12085923.730385914 -7265398.644542192,12790313.674842104 -8581257.998126928,13416412.525745135 -9991963.647807647,13952296.228541339 -11490056.709772708,14386400.929113418 -13066614.766549807,14707692.15990483 -14711268.900949122,14905838.81133033 -16412239.999495754,14971390.046014387 -18156395.168719873,14895953.153432038 -19929324.91409471,14672370.196757229 -21715441.516785152,14294891.1749188 -23498098.808965094,13759341.313758256 -25259733.2958602,13063280.013457509 -26982026.30380638,12206148.91763399 -28646086.550732374,11189406.535124628 -30232652.2411661,10016646.840765225 -31722311.48501416,8693699.308457056 -33095739.531178173,7228707.890291576 -34333950.99702072,5632186.550963966 -35418564.966513254,3917049.098304041 -36332080.52754316,2098611.2192709204 -37058160.0264896,194562.83657426544 -37581917.040087625,-1775090.8558655072 -37890205.80522009,-3788121.040649532 -37971908.61107612,-5820200.654418037 -37818217.44958982,-7845064.192157884 -37422906.043666184,-9834702.25362891 -36782588.232770175,-11759590.736074662 -35896958.5961657,-13588954.139870033 -34769011.13941994,-15291061.993575746 -33405231.863390964,-16833556.92622249 -31815761.080112424,-18183812.422254562 -30014521.439667325,-19309317.79362609 -28019307.788719136,-20178087.399730098 -25851835.1966993,-20759090.645211153 -23537741.760993768,-21022698.794725746 -21106543.13842962,-20941144.16911182 -18591536.146802187,-20488986.836213637 -16029649.23623745,-19643583.488965124 -13461238.144163692,-18385552.82053839 -10929825.617061254,-16699231.368715212 -8481784.7035948,-14573113.516358003 -6165965.7929689195,-12000269.109006032 -4033268.2842543325,-8978731.990983034 -2136158.52101762,-5511852.67440322 -528136.4039918301,-1608608.347045795 736846.1049352696,2716136.4993969216 1605010.5599408436,7441425.375023265 2023416.84357724,12540067.329005029 1940661.5548541204,17978562.663846903 1307603.5164934325,23717102.322241597 78109.17438369125,29709645.89387504 -1790190.0698236942,35904082.54301098 -4335137.234154999,42242478.41435624 -7589295.101298565,48661413.23735056 -11579207.341319669,55092407.921744816 -16324685.681588428,61462443.92565081 -21838133.757868458,67694574.08810316 -28123918.53710776,73708623.45990382 -35177800.3408119,79421977.4489453 -42986432.50829061,84750453.33046146 -51526941.612876445,89609249.87128428 -60766598.87383236,93913968.49398315 -70662592.98579751,97581698.07672603 -81161914.01143815,100532154.1639362 -92201357.24822003,102688862.06834583 -103707655.08544035,103980372.09476365 -115597743.81325334,104341493.92827417 -127779171.13382795,103714536.12364945 -140150648.76052195,102050535.62770113 -152602752.98082256,99310461.38141596 -165018774.4117589,95466375.30301398 -177275716.40390778,90502533.36519542 -189245439.6655987,84416409.06764404 -200795948.69845077,77219621.38625123 -211792813.57712263,68938749.2691267 -222100718.49058393,59616014.9603851 -231585126.31171829,49309818.87816898 -240114046.301143,38095109.46359583 -247559889.90590796,26063572.360078834 -253801397.511989,13323624.482966164 -258725616.98023555,200.00000031684775" stroke="white" stroke-width="1.5" /></svg>