<?xml version="1.0" encoding="utf-8" ?>
<svg baseProfile="full" height="400" version="1.1" width="400" xmlns="http://www.w3.org/2000/svg" xmlns:ev="http://www.w3.org/2001/xml-events" xmlns:xlink="http://www.w3.org/1999/xlink"><defs /><rect fill="black" height="100%" width="100%" x="0" y="0" /><circle cx="200" cy="200" fill="yellow" r="10.000063781635497" stroke="orange" stroke-width="2" /><polyline fill="none" points="199.92025881231618,200.0 199.86395439336778,199.99285822711926 199.8051037431746,199.97948112833876 199.7442530409202,199.95942490959277 199.68200942039746,199.9322927987849 199.61903748282805,199.8977429220693 199.55605486065903,199.85549601781315 199.49382682394568,199.8053428811782 199.43315993227546,199.74715142843183 199.37489474726084,199.68087326739388 199.31989763332098,199.60654965895395 199.269051687669,199.5243167544535 199.22324685399641,199.43440999501198 199.1833692881483,199.3371675616624 199.15029005796288,199.23303276951793 199.12485327323458,199.1225553051669 199.10786375527582,199.00639121412266 199.10007436861127,198.88530155445466 199.1021731497476,198.76014964369233 199.11477037952378,198.6318968386992 199.13838575605908,198.50159680241578 199.17343583458182,198.3703882270945 199.22022190823546,198.239486000805 199.27891851013436,198.11017082245664 199.3495627212843,197.98377729022639 199.4320444713217,197.86168050892275 199.5260980191957,197.7452812832801 199.63129479876855,197.63598998624116 199.74703780971876,197.5352092137193 199.8725577269871,197.44431535988195 200.00691089222795,197.36463926938748 200.1489793382624,197.29744614495266 200.2974729823507,197.24391490982177 200.45093410621521,197.20511724484038 200.6077442201945,197.18199653858102 200.7661333857708,197.17534700600325 200.9241920451009,197.18579324612531 201.07988537824767,197.21377052182063 201.23107017874892,197.25950605481023 201.3755142062032,197.32300163590105 201.51091794096646,197.40401785423373 201.6349386311536,197.50206024948443 201.7452164862642,197.6163676873786 201.8394028352895,197.74590325130862 201.91519003051584,197.88934793113214 201.97034284186986,198.04509737423126 202.00273105101405,198.21126194354449 202.01036292000023,198.385670302508 201.99141917662445,198.5658767176688 201.94428712823017,198.74917223623265 201.86759448810216,198.9325998581067 201.76024247431408,199.11297378028243 201.62143772046318,199.28690274592515 201.45072252165528,199.4508174816081 201.24800292788947,199.60100215412942 201.01357419109172,199.73362972371783 200.7481430718978,199.84480101367555 200.4528465182682,199.9305872581827 200.12926624047202,199.98707583072235 199.7794387261799,200.0104187960501 199.4058602655703,199.99688386955 199.01148658962208,199.94290730995638 198.599726765198,199.8451482155773 198.17443103809836,199.7005436411642 197.7398723698656,199.50636390327878 197.30072147554247,199.2602673972775 196.8620152375203,198.96035420972584 196.42911844464956,198.60521777702243 196.00767888541435,198.19399381508597 195.60357590857274,197.72640572693757 195.2228626535243,197.20280568564758 194.87170224495787,196.62421059010885 194.55629834114296,195.99233210107116 194.28282052154273,195.30959998537153 194.0573250961523,194.57917802776936 193.885672014922,193.80497181259028 193.77343864956973,192.99162773172156 193.72583131071676,192.1445226414819 193.74759544924268,191.26974366847216 193.84292557067278,190.37405775350592 194.01537596387982,189.46487062278518 194.2677734090055,188.55017498611477 194.6021330828976,187.63848788247918 195.0195789221718,186.73877722289285 195.52026973294187,185.860377718081 196.10333235109894,185.0128965230741 196.7668031566312,184.2061090808737 197.50757922884247,183.44984580146885 198.32138039557265,182.75387036901012 199.20272337791792,182.12775062709204 200.1449091619388,181.58072314794344 201.14002464006978,181.12155274385003 202.17895945725223,180.7583883262195 203.25143887027443,180.49861665714482 204.34607328373272,180.34871566788854 205.4504249629868,180.31410913611685 206.55109224429796,180.39902461669087 207.6338113661024,180.60635660711813 208.68357583444856,180.9375369961959 209.68477301166158,181.3924148908304 210.62133738219697,181.9691479395162 211.47691970559265,182.6641072696714 212.23507101585776,183.47179812830737 212.87944017222986,184.38479825994025 213.3939834108963,185.39371597104713 213.76318409412647,186.48716971584756 213.97228060559235,187.65179089316385 214.00750010191766,188.87225136834874 213.8562956042531,190.13131702789002 213.50758370358494,191.409928437827 212.95197996323597,192.68730941147027 212.18202893531046,193.9411039984522 211.19242556831958,195.14754208764063 209.98022467445264,196.2816334731526 208.54503505035316,197.31738986828435 206.88919480802227,198.2280739697483 205.017924475585,198.9864742777251 202.93945447376652,199.5652039698744 200.66512366535497,199.93702171395867 198.20944581356338,200.0751718888621 195.59014097248746,199.9537412725926 192.82812906971526,199.54802885370557 189.94748322795232,198.83492503508953 186.975340709061,197.79329613200642 183.94176974931656,196.40436972562298 180.87959098743605,194.65211612500357 177.82415266482542,192.5236209206689 174.81305929759299,190.00944338728235 171.88585407855442,187.10395531758692 169.0836558603308,183.80565474991022 166.4487521926419,180.11744899260745 164.0241505322271,176.04690135552696 161.8530904060242,171.60643607527237 159.97851998019075,166.81349607143696 158.44254116156276,161.69064839815942 157.28582802595574,156.26563256161552 156.54702402061108,150.57134726089996 156.26212401694343,144.64577157775432 156.46384788513134,138.53181718937122 157.18101281435224,132.27710880663585 158.4379121018479,125.9336907451489 160.25370857075274,119.55765831459831 162.64185114110572,113.20871355871874 165.60952336131544,106.9496457872588 169.1571328995744,100.8457383059405 173.27785108786378,94.96410376205144 177.95721159745307,89.37295157262096 183.1727771971966,84.14079197857845 188.89388329842356,79.33558236027893 195.08146661785221,75.02382254478924 201.68798678900887,71.26960691991141 208.6574481207119,68.13364222990594 215.92552793738722,65.67224094842192 223.4198170409717,63.93630108990814 231.0601768102968,62.970284216083485 238.75921630522024,62.811204203028524 246.42289147532412,63.487640041283555 253.95122719454258,65.0187865303474 261.23916136331934,67.41355718497161 268.17750875046005,70.6697539790321 274.65404060125337,74.77331869981988 280.55467433204865,79.69768065869688 285.76476588147165,85.40321529187483 290.17049551366404,91.83682777784071 293.66033608977557,98.9316751876695 296.1265910622601,106.60703986511488 297.4669877254146,114.76836570115192 297.58630959917423,123.30746772115006 296.3980502563933,132.10292394320317 293.82606945217094,141.0206567972682 289.806231103019,149.91470952335976 284.28800151953595,158.62822090286255 277.2359853441565,166.9945994328159 268.6313759101864,174.83889564464383 258.4732962433807,181.97936871522933 246.7800066950247,188.2292408414928 233.58995524633085,193.39863007478618 218.96264687628377,197.29664946640023 202.9793090546768,199.73365749099762 185.74333142187945,200.52364182406632 167.38045905658026,199.4867156880724 148.0387204183978,196.4517031874494 127.888073086105,191.25878736412136 107.11975279225095,183.7621921634733 85.94531397477901,173.83286714699972 64.59535311475051,161.3611416641501 43.31790949058302,146.25931334397228 22.37654163242769,128.46413422827175 2.048081679547039,107.93915668225921 -17.379926002116008,84.67690042445746 -35.61209123151755,58.70080165108183 -52.348334230795956,30.066905324371305 -67.28731180318715,-1.1347377208105058 -80.13008893610953,-34.77900609690329 -90.58402659878635,-70.70501121698965 -98.3668518567622,-108.71580209799413 -103.21087188886207,-148.57850227742261 -104.86728912937133,-190.02490618883309 -103.11057063542592,-232.75255846041006 -97.74282096414453,-276.4263351684935 -88.59810440394875,-320.68054111185813 -75.54665940777096,-365.1215316990398 -58.49894558938428,-409.3308620941458 -37.40946173303112,-452.86895988862466 -12.280271993177934,-495.27931080797725 16.835823115826088,-536.0931398818027 49.83253416742494,-574.8345631695795 86.54781096390853,-611.0261776172167 126.76211181616574,-644.1950490021234 170.1972717234947,-673.8790502953466 216.5160236325058,-699.633495222413 265.3222224578898,-721.0380044392292 316.16181613233397,-737.7035346595254 368.52460162395306,-749.2794943831434 421.84679663482757,-755.4608636894078 475.514449603456,-755.9952299874425 528.8677017198647,-750.6896467660684 581.2059049803528,-739.4172183684589 631.7935899286647,-722.123310736883 679.867265733892,-698.8312860316499 724.6430237382668,-669.6476581207513 765.3249036785951,-634.7665662499893 801.1139695641889,-594.473465815352 831.2180298142596,-549.1479381370398 854.8619238622556,-499.26552553230886 871.2982851766908,-445.3985038425568 879.8186786892927,-388.2155119137748 879.7649991306768,-328.47996636683365 870.5410059254799,-267.0472003150484 851.6238602709103,-204.86027646222846 822.5755209947934,-142.9444381957216 783.0538479405463,-82.40017680612675 732.8232551338753,-24.394908727197844 671.7647510208355,29.846726416718894 599.8851997933439,79.05391827691224 517.3256363903097,121.92204134802304 424.3684683216204,157.12624682646862 321.44340013438153,183.33620408169304 209.13192123440385,199.23188494252787 88.17020497883743,203.52026386174956 -40.549723466986705,194.95278711258524 -175.98068102381694,172.34344475447398 -316.9229984410406,134.5872604564458 -462.029269156483,80.67899666835014 -609.8112553522685,9.73185637219052 -758.6490098139434,-79.0040519800221 -906.8022485613428,-186.1237324379464 -1052.4239835627545,-312.05005902242715 -1193.5763973527883,-457.01753728466224 -1328.2489122682166,-621.0573397953619 -1454.3783765487992,-803.9838876480142 -1569.8712580094823,-1005.3832490701354 -1672.6277036973013,-1224.6036218082568 -1760.5672912512941,-1460.7481579104285 -1831.6562649677476,-1712.6703777334096 -1883.936017240601,-1978.9724043445808 -1915.5525445264557,-2258.006229907963 -1924.7865767217668,-2547.878202120239 -1910.0840502968954,-2846.4568913246558 -1870.0865691783474,-3151.384467657632 -1803.6614736811118,-3460.0916826070525 -1709.9311172404468,-3769.8165108693584 -1588.3009337428252,-4077.6264666283932 -1438.4858653611109,-4380.444563643056 -1260.5347123912657,-4675.0788411800295 -1054.8519630721607,-4958.2553282770705 -822.21666311814,-5226.654267539854 -563.7978920357901,-5476.949367183573 -281.1664265163067,-5705.849796901771 23.69780947876339,-5910.144589996664 348.40288271868167,-6086.749061698148 690.1469195927194,-6232.752802429103 1045.7254103029813,-6345.468755667757 1411.5440080327407,-6422.482843763613 1783.637031791289,-6461.703562346469 2157.691824655167,-6461.41092559804 2529.0790564403937,-6420.3041114023345 2892.8889918495443,-6337.547128011062 3243.973672329925,-6212.811803085528 3576.9948828404204,-6046.317382511398 3886.477694127231,-5838.866020880824 4166.869287718647,-5591.873448601794 4412.602685516179,-5307.394112762677 4618.1649195147975,-4988.1401106079375 4778.169090835579,-4637.493266140279 4887.429681973686,-4259.509742225958 4941.0404030852305,-3858.9166328057704 4934.453773439649,-3441.100042449361 4863.561564068009,-3012.084233453473 4724.775158383137,-2578.501503757634 4515.104825389775,-2147.5525517809356 4232.236846288,-1726.9571863652486 3874.6073910311966,-1324.8953506971664 3441.472007921693,-949.938547570307 2932.969567749895,-610.9718786906113 2350.179495372279,-317.10704181974415 1695.1711269556731,-77.58676515002469 971.0440512566222,98.31870297671938 181.9583289972988,201.42229057070003 -666.8464637592875,222.73708599112857 -1569.0443539057997,153.59857220569555 -2517.2291516586024,-14.209060804651386 -3502.9344912139236,-288.32382695285196 -4516.668410951778,-675.6755015375612 -5547.963017073351,-1182.3553608641548 -6585.439623350745,-1813.4877402315774 -7616.889593449286,-2573.105133606213 -8629.370932114163,-3464.0286297860007 -9609.320478703332,-4487.755533804536 -10542.681352645486,-5644.356056887756 -11415.045087205397,-6932.3809717309605 -12211.807667472729,-8348.782120626587 -12918.33846301411,-9888.847630640936 -13520.160817609276,-11546.153631410603 -14003.142830598976,-13312.534186243627 -14353.696639445796,-15178.07103536174 -14558.984294147844,-17131.1046108957 -14607.128104273395,-19158.267616544814 -14487.423141819163,-21244.542270865695 -14190.549401120394,-23373.342092554376 -13708.780953965204,-25526.618859789713 -13036.189297181081,-27684.995105055084 -12168.837974509219,-29827.922213588263 -11104.965467702068,-31933.863879860142 -9845.153296463304,-33980.50434478044 -8392.476245902102,-35944.98048959876 -6752.631656156944,-37804.13650402176 -4934.044764031575,-39534.79947957121 -2947.9471828178444,-41114.073908687285 -808.4257455142921,-42519.65269987894 1467.5608804857716,-43730.14195395914 3860.200171803347,-44725.39639095616 6346.880413147358,-45486.86197674814 8902.283823361804,-45997.921978045335 11498.519560227749,-46244.242379398784 14105.297619558914,-46214.11233180109 16690.144203384123,-45898.77507453163 19218.658654591713,-45292.7445854328 21654.811544805143,-44394.10307488912 23961.28296259591,-43204.774350276224 26099.83948518422,-41730.768045089695 28031.747733920336,-39982.38973451392 29718.221818066097,-37974.41205053122 31120.901369249816,-35726.20206793248 32202.356267515326,-33261.800460291786 32926.61356665736,-30609.94822392751 33259.701549456615,-27804.057139139368 33170.20529076383,-24882.120581815612 32629.827586643427,-21886.56181418332 31613.948629640294,-18864.017469422706 30102.177382416794,-15865.054598506096 28078.88723321319,-12943.820365354382 25533.72821535116,-10157.624253591177 22462.107847602663,-7566.453479133995 18865.632510568783,-5232.423180856866 14752.501223621663,-3219.1638788170108 10137.843734185526,-1591.1496372766726 5043.994982148589,-412.9713382325215 -499.3017379474878,251.43955028799007 -6454.770221516063,339.63034977020675 -12777.562221298007,-208.51763425475787 -19415.30994733729,-1449.906360423849 -26308.27568542585,-3437.319901117365 -33389.603179176826,-6218.514895045516 -40585.674466087505,-9835.31337959487 -47816.574793298285,-14322.709472654036 -54996.66707012959,-19708.0019703595 -62035.276049463144,-26009.965413807364 -68837.48107790234,-33238.07254083523 -75305.01482638877,-41391.781265701095 -81337.26392124132,-50459.89940792367 -86832.36585471945,-60420.04031079181 -91688.39498007522,-71238.18224044348 -95804.6288060106,-82868.34402976013 -99082.88421819586,-95252.38882106071 -101428.91169097864,-108319.96696301452 -102753.83403160848,-121988.6081276498 -102975.61474404913,-136163.97153232418 -102020.53973226482,-150740.26178092454 -99824.69480664619,-165600.81628272653 -96335.42033503696,-180618.86847323366 -91512.72341459089,-195658.48915851198 -85330.62715492753,-210575.70624550706 -77778.43607858475,-225219.80092063866 -68861.89628231483,-239434.7760155807 -58604.228881735406,-253060.98987318782 -47047.015399898664,-265936.94652136066 -34250.914173106496,-277901.23040406726 -20296.187548053513,-288794.5713350491 -5283.020643690662,-298462.0227613999 10668.386243372901,-306755.233883611 27417.967895299636,-313534.7937100029 44806.20146977469,-318672.6227622373 62654.782980755874,-322054.3859313645 80767.5825713295,-323581.89794786944 98931.88536185761,-323175.4911119174 116919.92155808392,-320776.3133686707 134490.6861519777,-316348.5235447707 151392.04496756964,-309881.3496212339 167363.1200240919,-301390.9753387165 182136.94324304466,-290922.2202448375 195443.36345237508,-278549.9785286503 207012.18748186238,-264380.3826696948 216576.53194507325,-248551.65907983168 223876.35811447824,-231234.64455233683 228662.15817025054,-212632.93446658357 230698.75709542978,-192982.63633500363 229769.1906583658,-172551.70542269896 225678.6163270202,-151638.84281393985 218258.2106593851,-130571.94043193107 207369.00377084353,-109706.06212000664 192905.59895322804,-89420.95493798328 174799.72347105638,-70118.09028377033 153023.55504535144,-52217.24027711325 127592.7676091861,-36152.60099186053 98569.23963262503,-22368.48054052209 66063.36871447225,-11314.576638235936 30235.93726513717,-3440.8750339729418 -8700.524006282389,807.7929800001581 -50480.92540941778,997.4889644141546 -94787.40751613854,-3288.850081807523 -141249.77314485714,-12445.243170754738 -189446.59977237997,-26836.375250505593 -238907.06411982756,-46791.25588025837 -289113.5039261357,-72596.90227963314 -339504.73442754324,-104492.12714346657 -389480.12884643726,-142661.51570011658 -438404.4633119619,-187229.6798009492 -485613.517153784,-238255.87926807368 -530420.4095071529,-295729.1022079878 -572122.6427311697,-359563.69643772795 -610009.8123741536,-429595.6434925272 -643371.9324315805,-505579.56482318224 -671508.3135553739,-587186.5466914319 -693736.9208196499,-674002.8658881534 -709404.1267671284,-765529.6927007185 -717894.7648991507,-861183.8405251678 -718642.3786834745,-960299.6231542522 -711139.5516949117,-1062131.8710886254 -694948.1958341934,-1165860.1472475643 -669709.6668509699,-1270594.1902478992 -635154.5697873351,-1375380.6000444684 -591112.1116150796,-1479210.766270376 -537518.8544144842,-1581030.0241883085 -474426.72007862065,-1679748.0068920217 -402010.0968587233,-1774250.1454254591 -320571.8992152266,-1863410.2509803066 -230548.4355129288,-1946104.095473118 -132512.94318804948,-2021223.8887887672 -27177.658191460476,-2087693.5330218652 84605.7051734227,-2144484.516379323 201847.17642044334,-2190632.2922641775 323421.5518141839,-2225252.9726918275 448073.3010341201,-2247560.1498505105 574423.4226580248,-2256881.645567654 700978.2936671358,-2252675.9759441805 826140.5363958357,-2234548.307729013 948221.902818263,-2202265.674380424 1065458.150959459,-2155771.2134446884 1176025.8617459666,-2095197.1831092995 1278061.1170080823,-2020876.514775121 1369679.9308807747,-1933352.660436377 1449000.2978190533,-1833387.4987336204 1514165.6911696491,-1721967.0718993403 1563369.8170719224,-1600304.9375640103 1594882.399767032,-1469842.9346136549 1607075.7465644472,-1332249.1810317666 1598451.8141525958,-1189413.1439208486 1567669.4730614882,-1043437.647641253 1513571.6443117394,-896627.7151400317 1435211.9620406048,-751476.1699348573 1331880.5986030072,-610645.9616831959 1203128.8747167645,-476949.2165692919 1048792.2670547422,-353323.0545946957 869011.4196611006,-242802.2589247618 664250.7640364823,-148488.9273362609 435314.3560176528,-73519.28209374868 183358.5459527307,-21027.86177211886 -90098.88761997185,5890.633886671362 -383173.4913554488,4221.52760920515 -693613.1032400766,-28927.988352936438 -1018801.3265843355,-96285.75199603217 -1355765.7706585454,-200370.73151845255 -1701191.2747968088,-343448.8191583605 -2051438.285323365,-527488.8495288532 -2402566.501898507,-754119.4058488354 -2750363.8521402334,-1024587.0054403942 -3090380.791037438,-1339716.2783538615 -3417969.8551984373,-1699872.7693432474 -3728330.33192472,-2104929.003033234 -4016557.8300959836,-2554234.4544232213 -4277698.464609417,-3046590.0613456736 -4506807.2894195,-3580227.9016791643 -4699010.536931409,-4152796.635628075 -4849571.14453326,-4761353.281920009 -4953956.973388503,-5402361.856128722 -5007911.051278996,-6071699.349395718 -5007523.101360283,-6764669.466596886 -4949301.553260336,-7476024.474595162 -4830245.173137892,-8199995.433873968 -4647913.3962355,-8930331.000920644 -4400494.400228547,-9660344.894720968 -4086869.921370765,-10382972.019261926 -3706675.789121747,-11090833.12578162 -3260357.139606187,-11776307.784554128 -2749217.2648267765,-12431615.317279255 -2175459.063870482,-13048903.218820186 -1542218.0851512433,-13620342.472379012 -853586.1856391322,-14138229.036613189 -114624.88452277302,-14595090.658176793 668632.4448254122,-14983798.040310217 1489190.3191890328,-15297679.27907821 2339113.504141671,-15530636.365400186 3209562.553439028,-15677262.444919167 4090842.9695918104,-15732958.430825504 4972468.286079388,-15694047.478810506 5843237.218589146,-15557885.76017615 6691324.867505973,-15322967.91054221 7504387.777873992,-14989025.489267988 8269682.477673409,-14557116.760265702 8974196.92217646,-14029706.099823726 9604794.07325461,-13410731.35274337 10148366.639888277,-12705657.495715296 10592001.802054062,-11921515.02742655 10923154.53706966,-11066921.589173067 11129827.967960285,-10152085.42830253 11200758.96019088,-9188789.44989959 11125607.009012515,-8190354.759736591 10895144.287600543,-7171582.783336886 10501444.569061454,-6148675.251383208 9938068.596212769,-5139131.569685098 9200243.354727613,-4161623.3411666923 8285032.610650764,-3235846.0761758722 7191496.005204699,-2382348.4138165424 5920833.960829522,-1622339.4785786092 4476515.644979198,-977475.3105523905 2864387.2645305856,-469625.6308908955 1092758.0256859646,-120622.53352986384 -827538.8064177487,48006.974205656305 -2883112.1762752114,15322.329560978524 -5058009.085293202,-238737.90566929473 -7333742.051105869,-733054.9333446593 -9689349.955183921,-1485023.3642805459 -12101493.758622378,-2510243.08862296 -14544588.23135661,-3822213.093884141 -16990970.468764015,-5432031.17859296 -19411105.563818995,-7348103.700868086 -21773829.36542332,-9575869.653907439 -24046627.78754644,-12117543.469914788 -26195951.64327454,-14971881.016101284 -28187565.467237175,-18133973.257155105 -29986928.264175735,-21595072.014404226 -31559603.586144183,-25342452.149653304 -32871695.802038293,-29359314.33876964 -33890308.887279086,-33624732.37446288 -34584023.53539854,-38113648.64796711 -34923387.884195864,-42796921.10480308 -34881416.66451621,-47641424.55054024 -34434093.12722174,-52610208.69937778 -33560867.69135386,-57662714.81314819 -32245146.89164129,-62755052.173654206 -30474765.89411116,-67840334.9705974 -28242437.602187406,-72869079.47523753 -25546171.199588943,-77789660.61173351 -22389652.87747237,-82548826.2402159 -18782581.477997936,-87092266.63528143 -14740951.86062926,-91365235.7889639 -10287278.96606135,-95313220.29729211 -5450755.819947478,-98882650.71413 -267339.0878417037,-102021649.3856049 5220243.733771345,-104680807.92424676 10962570.82673508,-106813986.6556819 16903690.91324004,-108379127.58452582 22981380.33548797,-109339071.69242539 29127495.329462282,-109662370.71269669 35268421.48432158,-109324082.9353466 41325621.30322151,-108306542.09603266 47216279.62224487,-106600088.00497374 52854045.41036334,-104203747.28880952 58149867.175350785,-101125852.46110618 63012917.85014682,-97384587.515995 67351603.64462358,-93008448.36369526 71074649.93369982,-88036606.7046 74092255.83024417,-82519166.37705581 76317307.67729802,-76517301.81818315 77666640.30706805,-70103269.05074832 78062333.57283834,-63360280.553806856 77433030.38430527,-56382236.490438685 75715261.2869831,-49273306.04981517 72854759.5429488,-42147354.10851354 68807749.71374397,-35127210.02024934 63542191.9373182,-28343777.09470859 57038963.44920144,-21934983.212847017 49292958.443066336,-16044575.033625338 40314087.11538261,-10820760.358641623 30128154.71007126,-6414705.417335062 18777601.5868366,-2978896.0945940167 6322085.794787064,-665374.4209418143 -7161109.648265222,376136.0430869297 -21576861.58188089,200.0000000264243" stroke="white" stroke-width="1.5" /><circle cx="191.49830218033995" cy="249.27191019417847" fill="red" opacity="0.7" r="5.0" /></svg>