<?xml version="1.0" encoding="utf-8" ?>
<svg baseProfile="full" height="400" version="1.1" width="400" xmlns="http://www.w3.org/2000/svg" xmlns:ev="http://www.w3.org/2001/xml-events" xmlns:xlink="http://www.w3.org/1999/xlink"><defs /><rect fill="black" height="100%" width="100%" x="0" y="0" /><circle cx="200" cy="200" fill="yellow" r="10.01269286620035" stroke="orange" stroke-width="2" /><polyline fill="none" points="199.05284747884824,200.0 198.9468653127979,199.9447152397271 198.84133165009405,199.87801424431171 198.73740640658463,199.7996854023807 198.6363011463757,199.70963846540823 198.53926727012947,199.60791349841162 198.44758291013832,199.4946887990869 198.36253860837465,199.37028761745066 198.28542187395198,199.23518351172035 198.21750073682537,199.0900041821164 198.16000643486348,198.93553363259042 198.1141153913819,198.77271252122762 198.08093065956828,198.60263657326453 198.06146302866927,198.42655294631132 198.05661200406044,198.245854455434 198.06714688908752,198.06207158617832 198.0936882105549,197.87686224630428 198.13668974165205,197.69199923182106 198.19642138566587,197.5093554096957 198.27295319074383,197.33088664815944 198.3661407699956,197.15861255561023 198.47561240209575,196.99459512044163 198.6007580850629,196.84091537640805 198.74072080984436,196.69964825102815 198.89439031056475,196.57283578766194 199.06039953467803,196.4624589648793 199.23712405870504,196.37040836914468 199.42268465369546,196.29845400823672 199.6149531790292,196.2482145827391 199.81156195371477,196.22112656091502 200.00991672105735,196.21841342782773 200.20721328561075,196.24105550221978 200.40045786091486,196.28976073393173 200.58649112291724,196.36493691006538 200.7620159175218,196.46666570922616 200.92362852177612,196.59467904958746 201.06785330725538,196.74833817781087 201.1911806017127,196.92661594167248 201.290107491603,197.128082679271 201.36118125424215,197.35089614166435 201.40104505478465,197.59279584349326 201.40648549057332,197.85110220745867 201.3744815144524,198.1227208333548 201.30225422008613,198.4041521807246 201.18731692695485,198.69150690618198 201.02752496128699,198.98052704220927 200.82112449250656,199.26661314404123 200.56679975360862,199.54485746544637 200.26371794897284,199.8100831532457 199.91157113521922,200.0568893748152 199.51061435049243,200.27970221322283 199.06169926567068,200.47283108178303 198.5663026380162,200.63053032447831 198.02654886422584,200.74706558179793 197.44522595612665,200.8167844140521 196.8257942987268,200.83419058718718 196.17238759720576,200.79402134066368 195.48980547681873,200.69132687423686 194.78349726759566,200.52155121170676 194.05953658398874,200.28061352613 193.32458639798793,199.96498894386949 192.58585440225667,199.57178778547035 191.85103856696887,199.0988321509443 191.12826290952825,198.5447287168522 190.4260036193476,197.9089365837772 189.75300580932847,197.19182899650147 189.11819130043705,196.3947477564775 188.53055798449248,195.5200491579643 187.99907145151462,194.57114030630146 187.53254971012723,193.5525047199114 187.13954197087287,192.4697161772874 186.82820260105842,191.32943984680668 186.60616149401162,190.1394198308882 186.48039222341936,188.90845236676807 186.45707947271546,187.64634405376196 186.54148733823263,186.3638546208614 186.73783020097554,185.07262390817684 187.04914794336483,183.78508291015726 187.47718735215352,182.514348916505 188.02229159500385,181.27410498683258 188.68329968411695,180.07846420570007 189.45745784414092,178.94181938380896 190.34034468181923,177.87867909665604 191.32581201014665,176.90349118148987 192.40594310905985,176.03045504438077 193.5710301070404,175.2733243588275 194.80957204286065,174.64520196264095 196.10829501377424,174.1583289777689 197.45219563578357,173.8238703850551 198.82460883359568,173.65169947936974 200.20730074326326,173.6501838067682 201.58058725043423,173.8259753409899 202.9234784031322,174.18380778837837 204.21384863199356,174.7263040149556 205.42863238522494,175.45379666379222 206.54404444295463,176.36416507203677 207.53582381925835,177.45269160225865 208.3794997934562,178.7119404696544 209.05067823917167,180.13166207300117 209.5253460443305,181.6987257212172 209.78019104227542,183.39708348761056 209.79293450827845,185.20776771942383 209.54267292197284,187.10892448066068 209.0102253598156,189.07588491149738 208.17848256797524,191.0812761484754 207.03275348044164,193.09517306739752 205.56110469510944,195.0852916872615 203.75468820747864,197.017224611169 201.6080525327034,198.85471838209938 199.119432227062,200.55999210153874 196.29101075430853,202.09409610167043 193.12915163523323,203.4173088822552 189.64459287410756,204.489569927181 185.85259977702302,205.27094540924415 181.77307146735373,205.72212318189534 177.4305966649299,205.8049328508016 172.8544546295229,205.48288612393898 168.07855757660806,204.72173206472203 163.14133135395144,203.49002132686851 158.0855317202706,201.75967294098373 152.95799419001406,199.50653676004472 147.80931609812444,196.7109442628962 142.69347029141454,193.35824007028526 137.66735066373525,189.43928625539453 132.7902506142426,184.95093133849937 128.12327641450116,179.89643575104049 123.72869841259124,174.28584554525804 119.66924397149252,168.1363062180665 116.0073370245431,161.47230871772263 112.8042901215423,154.3258600137475 110.1194558231156,146.7365710381363 108.00934526559672,138.75165535155244 106.52672265059617,130.4258325530721 105.719685298842,121.82113123583943 105.63073973266326,113.00658719191901 106.29588500131577,104.05783358433497 107.74371512387742,95.05658092775175 109.99455308146827,86.08998594479661 113.05962923021451,77.24990968423478 116.94031731534398,68.63206668994411 121.62744143248202,60.33506848404008 127.10066729294255,52.459366160040446 133.32799099507855,45.106098457441334 140.26533817440267,38.37585329079789 147.856285893616,32.36735231617689 156.03191893405616,27.176069716206086 164.71083125849373,22.892797951211975 173.79928232990588,19.602174736508374 183.19151669237215,17.381186942326764 192.77025375152186,16.29766845022516 202.4073530385561,16.40881021477915 211.9646584119599,17.759701848639764 221.29502265556712,20.38192494959617 230.24351178435504,24.292219097559496 238.6487860867985,29.491241945805882 246.34465253412134,35.9624450938949 253.1617806944144,43.67108744056159 258.9295717280872,52.5634074564895 263.4781674376846,62.56597527443378 266.64058372933846,73.585244655363 268.254950246734,85.50732374472571 268.1668353950527,98.19798207639137 266.2316335171008,111.50290951046188 262.31698865318333,125.24824070597239 256.3052271475842,139.2413563354134 248.095769395586,153.2719695540925 237.60748929368054,167.11350325705175 224.78098849943132,180.5247604074729 209.58075146290983,193.2518862256209 191.9971463938163,205.03061731346358 172.04823691049245,215.58880888862015 149.781369109658,224.64922724825036 125.27449922645037,231.93259041915013 98.63722794719811,237.16083571901976 70.01150881215437,240.06058870377095 39.57200001733446,240.3668037584481 7.526031303641929,237.82654245951917 -25.886839488001016,232.20285185117194 -60.39570221646585,223.27870099710003 -95.69962071419712,210.86093065277083 -131.46942326529808,194.7841677128171 -167.34996616498591,174.91465328549552 -202.96287394871416,151.15393089195408 -237.9097541917206,123.44233944165727 -271.7758787374856,91.76225435371524 -304.1343168679664,56.14101953081635 -334.5504993381476,16.65351289764692 -362.587185428019,-26.575711066216286 -387.8097982887855,-73.37075689912854 -409.79208695527973,-123.50325468248201 -428.12206654724025,-176.691807302793 -442.40818147721905,-232.6020643493684 -452.2856300154606,-290.84746382880456 -457.42278242861175,-350.9906773322491 -457.52761920810303,-412.5457879313227 -452.3541107355229,-474.98122292862297 -441.7084551961549,-537.7234556847397 -425.45508774687914,-600.1614821335817 -403.52237096719364,-661.6520683413637 -375.9078745646184,-721.5257556337162 -342.6831512554148,-779.0935994938278 -303.997915778969,-833.6546077179628 -260.0835352016673,-884.503832309895 -211.25574108648976,-930.9410584203597 -157.9164777996162,-972.2800224192911 -100.55480623459812,-1007.8580800638413 -39.74678858360056,-1037.0462348388835 23.84571251515547,-1059.2594260501157 89.47737807980361,-1073.9669662998006 156.32296739549972,-1080.7030087318997 223.48207874163876,-1079.0769160593218 289.98515897038965,-1068.7833960435623 354.80077065258075,-1049.6122619465361 416.84411044070475,-1021.4576716724134 474.986756302298,-984.3266960136721 528.0676044868462,-938.3470647519091 574.9049396614848,-883.7739394707553 614.3095637589831,-820.9955639327607 645.0988909176274,-750.5376468559533 666.111897664092,-673.0663379827171 676.2247994198219,-589.3896665270099 674.367306734166,-500.4573214571592 659.5392976097362,-407.3586656371557 630.8277261420055,-311.3188906003291 587.4235727067392,-213.6932356283499 528.6386273592641,-115.95921378931195 453.92188622265246,-19.706808554510644 362.87533069824036,73.37337256335286 255.26885158523928,161.5039763871165 131.05407489027803,242.83677747659704 -9.623156528330867,315.47048225338665 -166.41189109105431,377.47037120751884 -338.7470086944903,426.8896574581305 -525.8422287144266,461.7924104195943 -726.6854116288255,480.27786370781985 -940.0363666768028,480.5058970705326 -1164.4273610320265,460.72345342325866 -1398.1665054653995,419.2916244199396 -1639.344167418829,354.7131117979013 -1885.842534870596,265.6597474350687 -2135.3484234527,150.99973307152072 -2385.3693851393396,9.82424140651949 -2633.253139673164,-158.526995791108 -2876.210309991966,-354.44149941450155 -3111.3404005755974,-578.0116499655427 -3335.660913214293,-829.014489260911 -3546.1394486191366,-1106.8941159218136 -3739.7285950147348,-1410.7470681541424 -3913.403356881294,-1739.311076544047 -4064.200828898698,-2090.9575533296825 -4189.261772477893,-2463.6881626983613 -4285.873705667607,-2855.1357889936085 -4351.515072349496,-3262.5701862584847 -4383.900014154021,-3682.9085533163297 -4381.023229134038,-4112.731233702282 -4341.204365617573,-4548.302689385009 -4263.131368523359,-4985.597841619046 -4145.902169449385,-5420.3338117853655 -3989.0640917044466,-5848.007030136096 -3792.6503277873685,-6263.935611468582 -3557.212840231839,-6663.306824506823 -3283.8510377820803,-7041.22940683809 -2974.235588045057,-7392.790400392392 -2630.626745508542,-7713.116104489389 -2255.8866004741612,-7997.436665306563 -1853.4846902956847,-8241.15374320372 -1427.4964595056217,-8439.910623684938 -982.5941100196324,-8589.664064949251 -524.0294465819769,-8686.757106072022 -57.60839578587354,-8727.99199598813 410.34304092298737,-8710.702345749374 873.0215492984275,-8632.823556133075 1323.1980299667734,-8492.960530701435 1753.2778365875042,-8290.451651939518 2155.3695572747547,-8025.4279761739035 2521.362054530929,-7698.8665925725245 2843.009357091398,-7312.6370935510695 3112.022872123365,-6869.5401191703795 3320.1702595070756,-6373.3369672964445 3459.380182915029,-5828.769304983693 3521.8520266519636,-5241.56807515741 3500.16954437563,-4618.450766484942 3387.4172876084353,-3967.106303437611 3177.2985501532244,-3296.1669178707684 2864.253460963531,-2615.1664827106065 2443.575764529491,-1934.4849220497563 1911.5267462621682,-1265.2784594231118 1265.4446925046195,-619.3956263485879 503.8482224310097,-9.279125240529822 -373.468206097976,552.146176821257 -1365.3483310814636,1051.5986558274135 -2469.19937188966,1475.578074298719 -3680.930250973582,1810.5155915524472 -4994.9043890195935,2042.9345659245687 -6403.908639227976,2159.6208677381 -7899.13983055916,2147.801217562902 -9470.21026925464,1995.3278648635423 -11105.173402546232,1690.8677302814774 -12790.570678361883,1224.0939534414622 -14511.500440480211,585.8776202686452 -16251.709480771813,-231.52270765821447 -17993.707630033136,-1234.2761712257227 -19718.90550796041,-2426.802118546454 -21407.77527287776,-3811.6026399595876 -23040.033915139065,-5389.1078933236795 -24594.848327232925,-7157.537005558336 -26051.061061452856,-9112.777329377966 -27387.435355804453,-11248.284792111968 -28582.917674175336,-13555.007994599793 -29616.915671558316,-16021.338600895013 -30469.589163425786,-18633.09040280748 -31122.15135456655,-21373.509246457772 -31557.177271371318,-24223.315770776666 -31758.916047399824,-27160.782630500107 -31713.60343989145,-30161.847559450995 -31409.770709546443,-33200.26327506388 -30838.54578225979,-36247.78483406329 -29993.942434315246,-39274.394624392655 -28873.133106485508,-42248.56472292746 -27476.700861986792,-45137.555865804075 -25808.865962479627,-47907.75177254582 -23877.682549127145,-50525.027041315465 -21695.200985550764,-52955.146295874 -19277.591549310353,-55164.19172099215 -16645.225350679364,-57119.0155784304 -13822.708613775461,-58787.713756900775 -10838.866776651032,-60140.115883752565 -7726.675254113811,-61148.287020887066 -4523.134159417225,-61787.0354902648 -1269.0847972725612,-62034.420933143876 1991.0336812524185,-61872.25630976226 5209.488434518511,-61286.59720044022 8335.618177733279,-60268.211482791536 11316.259061493478,-58813.02224043355 14096.229935560059,-56922.51661349506 16618.87492946698,-54604.11323711361 18826.66042969906,-51871.48093721092 20661.822660570397,-48744.80146868873 22067.06119206242,-45250.96929457069 22986.272812981155,-41423.7217194113 23365.319332803403,-37303.69310936687 23152.82202205112,-32938.38745645595 22300.97458101986,-28382.064176298118 20766.365752630878,-23695.532766286535 18510.801979789645,-18945.85279264526 15502.119863743412,-14205.936616631765 11714.977620333062,-9554.05330726642 7131.614268339703,-5073.233313892483 1742.5649305790737,-850.5746785301501 -4452.679604296715,3023.5471542169817 -11445.081012179282,6456.362534144209 -19215.541167875683,9353.679028576074 -27734.481203280273,11620.934872399004 -36961.523258510926,13164.326809334943 -46845.28577962843,13892.003251139844 -57323.30253146955,13715.31226031506 -68322.07463669195,12550.092476173824 -79757.26392141212,10317.993773308885 -91534.03464512988,6947.813185905059 -103547.54932132045,2376.830471576754 -115683.62280096952,-3447.8733546605813 -127819.53710258976,-10568.132091267422 -139825.0176395333,-19013.463348527206 -151563.36953187184,-28799.909366791402 -162892.77061142318,-39928.96892002818 -173667.71555279233,-52386.63972840635 -183740.60331114917,-66142.59073097465 -192963.45774178833,-81149.4832512659 -201189.76894238536,-97342.45951237332 -208276.44052343012,-114638.81611360198 -214085.8257045538,-132937.87896074518 -218487.83288490653,-152121.09474183465 -221362.0791763,-172052.35235853426 -222600.06835140227,-192578.5457622606 -222107.36777941172,-213530.3874092927 -219805.75723223673,-234723.4790500532 -215635.32097905275,-255959.6438178123 -209556.45337940424,-277028.5205986632 -201551.7472670739,-297709.418469242 -191627.73381958285,-317773.4256068843 -179816.44236026224,-336985.76353829517 -166176.74866793858,-355108.37393084826 -150795.48089687273,-371902.72138270846 -133788.25315699822,-387132.79187487456 -115299.99818795685,-400568.2627541559 -95505.17239197972,-411987.81636817474 -74607.60877752614,-421182.5658214603 -52839.99610979685,-427959.55781737005 -30462.96576230437,-432145.31424747786 -7763.77140621487,-433589.3711427942 14945.44925438234,-432167.7708647015 37329.83701467132,-427786.46104273014 59034.399425172756,-420384.5518152493 79687.02102760367,-409937.38145013835 98901.88632419764,-396459.33946559776 116283.3004783341,-380006.3959833542 131429.88678957103,-360678.2862704658 143939.13389323695,-338620.30030001595 153412.25947016806,-314024.62871785887 159459.35108784476,-287131.2188685627 161704.73870679803,-258228.09752814093 159792.54745661718,-227651.1207256273 153392.37359849093,-195783.11551306545 142205.0212329617,-163052.38375820196 125968.23237115954,-129930.54397057867 104462.33855460893,-96929.69380421177 77515.75837197813,-64598.88317295836 45010.26206843548,-33519.89582121312 6885.9220597020385,-4302.345655771599 -36854.33337043191,22421.896903630684 -86140.64651739477,46004.923936009356 -140832.71978737018,65789.6200914893 -200716.9498059651,81117.05951835391 -265504.28503976995,91334.41542081082 -334828.8821563117,95803.31800891999 -408247.63145342097,93908.58671577678 -485240.6155919544,85067.25293050139 -565212.5585613833,68737.78026598574 -647495.313306028,44429.38068910781 -731351.4267662801,11711.31683240983 -815978.8102858183,-29777.926374624385 -900516.5314613584,-80321.72382477765 -984051.7306419065,-140116.77426609833 -1065627.6515131665,-209265.0782521857 -1144252.760640681,-287766.5644687172 -1218910.915620728,-375512.49984264234 -1288572.5257458067,-472279.8181671428 -1352206.6329930555,-577726.4995811891 -1408793.8248655514,-691388.1290417988 -1457339.8743485538,-812675.7558514086 -1496889.986188387,-940875.1683015813 -1526543.5130751003,-1075147.687539002 -1545468.990334107,-1214532.5728425605 -1552919.3236366345,-1357951.1166385899 -1548246.9512583741,-1504212.491817092 -1530918.7907865085,-1652021.3963138415 -1500530.7701321328,-1799987.5205875605 -1456821.7344794935,-1946636.8426721988 -1399686.5146194615,-2090424.733074384 -1329187.9381856513,-2229750.828095995 -1245567.563837837,-2362975.6054008193 -1149254.919601468,-2488438.570048688 -1040875.0305362332,-2604477.9330526507 -921254.0278091402,-2709451.638062059 -791422.6411994377,-2801759.5653470615 -652617.390144138,-2879866.7161879344 -506279.30469098,-2942327.1554045277 -354050.02717090055,-2987808.465459588 -197765.16800585994,-3015116.4427082166 -39444.81476075694,-3023219.7453255067 118718.8777826473,-3011274.1836092593 274377.0572637367,-2978646.3271061275 425042.5097226389,-2924936.0897235 568110.9320796928,-2849997.944029588 700885.0727300523,-2753960.4096565954 820601.631593958,-2637243.458431871 924460.7693430237,-2500573.480864417 1009658.032983684,-2344995.465173081 1073418.4619891192,-2171882.051380597 1113032.5962348229,-1982939.1392941144 1125894.0646483656,-1780207.750577302 1109538.3922970612,-1566061.8716658896 1061682.6241981785,-1343202.0360035996 980265.3270527852,-1114644.4409308825 863486.4959951323,-883705.4364296043 709846.8629384103,-653981.2696282081 518186.0768052405,-429323.02024636907 287719.20446684945,-213806.71767407333 18070.98516909307,-11698.689731083767 -290692.7388412347,172583.74414267254 -638036.996334351,334516.0570126019 -1022933.6431752736,469514.52996421274 -1443841.8670359906,572988.1839329149 -1898693.7887018314,640394.2429141721 -2384885.681254364,667296.6738673779 -2899275.293464926,649427.2798583887 -3438185.720394652,582748.7561219584 -3997416.2124455594,463519.05472582456 -4572260.254024801,288356.3433706847 -5157531.174756528,54303.788571313504 -5747595.480111403,-241106.65595373395 -6336414.004838784,-599792.3173945529 -6917590.902226571,-1023060.6248441034 -7484430.385639996,-1511553.605395175 -8030001.036789501,-2065196.9936620574 -8547207.388654921,-2683154.8985570413 -9028868.380970016,-3363790.9652892025 -9467802.173782755,-4104636.952630753 -9856916.691093206,-4902369.614930245 -10189305.15326748,-5752796.734675095 -10458345.745258048,-6650853.094283793 -10657804.45912671,-7590607.105051283 -10781940.045525247,-8565278.72674577 -10825609.911247807,-9567269.213396823 -10784375.710364264,-10588203.109636178 -10654607.296419196,-11618982.798050242 -10433583.634376433,-12649855.762067536 -10119589.215010865,-13670494.581820518 -9712004.47285203,-14670089.523271061 -9211388.683050396,-15637453.414955482 -8619553.804047726,-16561138.333461702 -7939627.742951236,-17429563.439867113 -7176105.550147686,-18231153.126686078 -6334887.099899414,-18954484.450417805 -5423299.885186356,-19588442.640729733 -4450105.648440527,-20122383.295970913 -3425489.6853591735,-20546299.698521074 -2361031.7967307204,-20850993.514985908 -1269658.0229354214,-21028246.988055237 -165572.47697595472,-21070994.581607655 935831.2062641825,-20973491.911046214 2018079.0654724785,-20731479.67954946 3063746.674568623,-20342340.25052191 4054609.43632817,-19805244.419562165 4971812.803757975,-19121285.908130966 5796061.643237446,-18293601.088041592 6507827.662566514,-17327471.462950446 7087573.5301006,-16230406.482007466 7515992.011389364,-15012204.343254674 7774258.150712769,-13684988.56146014 7844292.230393225,-12263218.22770349 7709030.954722726,-10763670.076672321 7352704.031903695,-9205390.702348672 6761113.0708097145,-7609617.523187199 5921909.473943856,-5999667.393156466 4824867.798058058,-4400792.083799371 3462150.8738150788,-2840000.222919525 1828562.8298610465,-1345845.665251851 -78213.94116300525,51817.31334839952 -2257401.902921171,1322111.1674863407 -4704935.630316721,2433443.290593737 -7413297.21844406,3353843.5181623474 -10371383.784067582,4051328.681225688 -13564410.862854825,4494291.478357032 -16973855.31394065,4651910.448687667 -20577441.093989644,4494577.35016907 -24349170.954989612,3994337.782956502 -28259406.753461447,3125340.454089042 -32275000.63424217,1864290.0634842003 -36359478.87089263,190898.40967664385 -40473279.60928636,-1911672.0262294624 -44574045.174078934,-4456378.051237719 -48616968.9633937,-7451885.5543942265 -52555196.27990348,-10902185.566212168 -56340277.73208992,-14806243.130918093 -59922673.09423181,-19157685.569553357 -63252302.74479296,-23944536.662899975 -66279143.018355355,-29149003.149641987 -68953861.01476875,-34747319.713122 -71228483.6201555,-40709658.31634576 -73057094.7177856,-47000107.33728182 -74396553.81314339,-53576725.45380713 -75207228.57760814,-60391674.629695006 -75453733.14033727,-67391435.86095737 -75105663.33955766,-74517110.55788913 -74138319.5940078,-81704809.56594035 -72533407.58415045,-88886130.87300636 -70279706.55214861,-95988726.018173 -67373694.750273,-102936954.11508179 -63820121.39963808,-109652621.24093875 -59632514.474523015,-116055801.7302307 -54833613.71068976,-122065736.66213419 -49455718.45674963,-127601803.55544448 -43540940.35219731,-132584549.998773 -37141351.32934142,-136936782.66204312 -30319018.102599517,-140584701.87417808 -23145915.129440393,-143459070.7284259 -15703709.00277018,-145496406.50869098 -8083408.363017348,-146640181.13584253 -384874.6957673454,-146842016.33075285 7283809.198368588,-146062858.2994531 14807114.718976738,-144274115.98376143 22062986.942642312,-141458746.30625132 28923906.2446703,-137612269.38889036 35258088.35840345,-132743696.45690328 40930817.19362887,-126876353.06871282 45805902.702952765,-120048580.4534376 49747254.01222193,-112314298.10168952 52620555.94108188,-103743411.35373059 54295034.95753928,-94422048.56981905 54645298.56225104,-84452613.5563196 53553230.11207587,-73953640.26123495 50909919.19692111,-63059438.34409796 46617605.90890285,-51919520.06497372 40591615.718281485,-40697801.01911038 32762260.227042142,-29571569.55818569 23076677.838179734,-18730222.27256124 11500587.386468269,-8373765.6449961895 -1980072.947127307,1288913.0959416884 -17357649.54285336,10041999.818768594 -34601448.28369228,17664922.71857302 -53656608.50616772,23934724.318567824 -74443203.33481787,28628620.26004612 -96855592.79294145,31526725.500923157 -120762054.70667794,32414925.160613984 -146004716.64032778,31087863.922984485 -172399809.91377383,27352024.68495196 -199738264.15718052,21028864.062682662 -227786657.85941082,11957969.488659922 -256288536.9744201,200.00000031386318" stroke="white" stroke-width="1.5" /><circle cx="150.12137650011238" cy="203.4817980637104" fill="red" opacity="0.7" r="14.99573603041505" /></svg>