<?xml version="1.0" encoding="utf-8" ?>
<svg baseProfile="full" height="400" version="1.1" width="400" xmlns="http://www.w3.org/2000/svg" xmlns:ev="http://www.w3.org/2001/xml-events" xmlns:xlink="http://www.w3.org/1999/xlink"><defs /><rect fill="black" height="100%" width="100%" x="0" y="0" /><circle cx="200" cy="200" fill="yellow" r="10.000002196756622" stroke="orange" stroke-width="2" /><polyline fill="none" points="200.35328463495253,200.0 200.28623406713598,200.01502598098406 200.21320372101712,200.02244629969044 200.13476987513084,200.0213816808899 200.05161687493495,200.0109903700345 199.9645359312894,199.99048081668298 199.87442251146172,199.95912457292866 199.78227226092864,199.91626926044248 199.6891754083899,199.86135144907388 199.59630962209542,199.79390928052402 199.5049313027192,199.71359466261308 199.41636531647777,199.62018485330924 199.3319931918446,199.51359324915447 199.25323982389347,199.3938791901914 199.1815587518208,199.26125659313416 199.11841609734148,199.11610122648005 199.065273274188,198.9589564456623 199.0235686016177,198.7905372133042 198.9946979773718,198.61173223923743 198.9799947876458,198.42360408724872 198.9807092530189,198.22738711054868 198.9979874296351,198.02448309570764 199.03285010390977,197.81645451524048 199.08617183632222,197.60501531206833 199.15866042512147,197.39201916462918 199.25083707369174,197.17944520930135 199.3630175555797,196.96938122685427 199.4952946784696,196.76400433161717 199.64752235241826,196.56555923569664 199.8193015681562,196.3763341955617 200.00996858798857,196.1986347843154 200.21858564457065,196.03475566959548 200.44393443141618,195.88695061388674 200.68451265328486,195.75740095063628 200.9385338844942,195.64818282547012 201.20393095866945,195.56123352652267 201.47836308448865,195.4983172608971 201.75922684866543,195.46099076504754 202.04367122986,195.45056916488585 202.3286167056019,195.4680925261278 202.61077848889659,195.5142935562795 202.8866938822754,195.5895669362109 203.15275368501494,195.6939407709675 203.40523753453272,195.82705065587007 203.6403530060622,195.98811685460532 203.85427823618326,196.17592508052684 204.04320777625568,196.3888113604253 204.203401321943,196.62465144129848 204.3312349055473,196.88085517494127 204.42325407956795,197.15436628233144 204.47622856355116,197.4416678597415 204.4872077727442,197.73879394127476 204.45357659716572,198.04134737821218 204.3731107543093,198.3445242343671 204.24403099868763,198.64314482887633 204.06505543764828,198.93169148391357 203.83544917619443,199.20435295519837 203.5550704947265,199.45507543850294 203.22441275344642,199.67761995634427 202.8446412163436,199.86562583650607 202.41762399684126,200.01267989888004 201.945956346885,200.11239087035617 201.43297754195765,200.15846845022443 200.8827796565648,200.1448063519517 200.30020757838741,200.06556855251245 199.69084967465423,199.91527788898833 199.06101860131557,199.68890605526184 198.417721834126,199.38196397070078 197.76862160043547,198.99059141916862 197.12198400085322,198.51164479191135 196.48661723033007,197.94278171325456 195.87179893777278,197.28254128495828 195.28719290106622,196.53041865483007 194.74275533916645,195.6869325990212 194.2486313334132,194.75368480647552 193.81504198489947,193.7334095692931 193.45216309199162,192.63001261520935 193.16999629012284,191.44859786872198 192.97823375288334,190.1954809961915 192.88611770716147,188.8781886778811 192.90229616353963,187.50544265655478 193.03467640410497,186.08712773787127 193.2902779010522,184.63424306209754 193.67508645864177,183.15883612907902 194.19391147594786,181.67391923813415 194.85024831612208,180.19336820051404 195.6461478373998,178.7318033929349 196.58209518966777,177.30445344482158 197.65690000608492,175.927002087399 198.86760012015134,174.6154189374651 200.20938091308244,173.38577524014374 201.67551234291267,172.25404585047505 203.25730562422254,171.2358989904527 204.94409141483314,170.34647557293846 206.72322122263117,169.6001601334856 208.58009357160657,169.0103456520219 210.49820626129886,168.58919477500461 212.45923581864528,168.34740016139585 214.44314497659352,168.29394686890794 216.4283187211152,168.43587986671153 218.39172912918258,168.77807990351323 220.30912887706222,169.3230510720046 222.15527293358713,170.0707234887183 223.90416756998877,171.01827454904483 225.52934541994006,172.1599722175602 227.0041649146331,173.48704377118477 228.30213200234942,174.98757332468602 229.39724164480262,176.64643133270516 230.26433616861468,178.44523907834753 230.8794771449949,180.36237092444654 231.220327079641,182.3729968194708 231.26653682390153,184.44916721585872 231.000134273277,186.5599421751481 230.4059096064376,188.67156600308434 229.4717920431305,190.7476882811088 228.1892128686159,192.74963164112552 226.55344929142484,194.63670607181794 224.56394357586905,196.3665689513701 222.22459182612647,197.89562937828887 219.54399679975074,199.17949472488414 216.5356791994892,200.17345667328897 213.21824203715047,200.83301331878417 209.6154828850803,201.11442324732877 205.75644913197664,200.9752868218425 201.6754317418727,200.3751492536653 197.41189347880612,199.27611940087834 193.0103281046687,197.64349763326723 188.52004768265823,195.4464055443327 183.99489582121862,192.65840978370977 179.49288546979972,189.25813183845773 175.07576072350253,185.22983521862525 170.80848300280888,180.56398121073147 166.75864294006834,175.25774416140598 162.99580031799073,169.31547715095755 159.59075545768277,162.7491189209922 156.61475653427397,155.57853303847673 154.1386483953483,147.8317705169989 152.23196955870196,139.54524747949102 150.9620051579604,130.76382993921703 150.3928046730999,121.54081839988773 150.58417431306742,111.93782573240519 151.59065489409204,102.02454267442769 153.46049696418186,91.87838631744975 156.2346457457711,81.58402809046187 159.94574918857592,71.23279901366126 164.61720302769308,60.92197137245387 170.26224721248207,50.75391744149525 176.8831283950865,40.835147459272605 184.4703433296936,31.275230702253765 193.00197802199708,22.18560521867363 202.44315727131266,13.678283538449023 212.74561885543957,5.864463458725794 223.84742601246052,-1.1469452062438563 235.672831068,-7.250865248669498 248.13230203700746,-12.347653667259834 261.1227227942476,-16.344744174962955 274.5277759582954,-19.158312961813778 288.2185159736395,-20.714948590054036 302.05413801098894,-20.953305567893068 315.8829462466055,-19.82571998286693 329.54352283999356,-17.299764601276223 342.86609652126333,-13.359720081551586 355.67410714374785,-8.007938430526593 367.7859598758948,-1.2660745749878402 379.0169599240012,6.823838052722664 389.1814158218825,16.198491688208378 398.0948964256868,26.772611294933654 405.5766238449936,38.4384866610165 411.4519816606379,51.06575036541713 415.5551149629513,64.5014207806608 417.73159603066927,78.570227263752 417.84112690126983,93.07523232304965 415.7602476995935,107.79876284262718 411.38501743535096,122.50365940776311 404.63363209360875,136.93484942128967 395.448943267087,150.82124605111923 383.800839355577,163.87797112997052 369.6884505247374,175.80889596981896 353.14213821048605,186.30948969159658 334.2252300098421,195.06996014581253 313.03546134451,201.7786678574133 289.7060863458953,206.1257887182638 264.4066220109406,207.80719642713933 237.3431918333527,206.52853099794447 208.75843783476927,202.00941508318624 178.93097320918037,193.98777545548631 148.17435164865395,182.22422282125618 116.83553382907795,166.50643927521548 85.2928364835787,146.6535192105959 53.953354952999916,122.52020644599374 23.24985604373751,94.00096778337603 -6.362855598558383,61.03384123831751 -34.41208762525898,23.60399584619597 -60.41190956228519,-18.2530606941487 -83.86827740259577,-64.44869017015048 -104.28460124090822,-114.83881052326848 -121.16771632374821,-169.2221220122571 -134.03421021403528,-227.33893122690728 -142.41705116996275,-288.8706277832194 -145.8724554124356,-353.43986408901094 -143.98692380780648,-420.61148320280347 -136.384371730657,-489.89423352336576 -122.73326960482666,-560.7433018591286 -102.75370596093984,-632.5636883647625 -76.22427990635714,-704.7144379384148 -42.98872578836918,-776.5137330021951 -2.9621696500535677,-847.2448422089258 43.8630850672362,-916.1629086114856 97.41234613430314,-982.5025492922509 157.52399881015657,-1045.486226487081 223.9457516299736,-1104.3333379714077 296.3317606770325,-1158.2699620376266 374.2407270127609,-1206.5391799262027 457.1350561755478,-1248.4118862311632 544.3811614034553,-1283.1979857456756 635.25098347873,-1310.2578636143865 728.924789841548,-1329.0140046911904 824.4953039039561,-1338.9626278424416 920.9732023604857,-1339.6851917673393 1017.2940038074472,-1330.859620909374 1112.326356238461,-1312.2710933833505 1204.8817140907827,-1283.8222277146915 1293.725377608648,-1245.542501747099 1377.5888485209646,-1197.5967354770296 1455.1834365771392,-1140.2924699622336 1525.2150315427423,-1074.086076954946 1586.3999350414597,-999.5874386387034 1637.4816263745565,-917.563043891478 1677.2483164033097,-828.9373569242402 1704.5511240065814,-734.7923259955771 1718.3226908006845,-636.3649141945814 1717.5960320155352,-535.0425510015064 1701.5234049508404,-432.3564224332481 1669.3949615818958,-329.97253898033784 1620.6569389395922,-229.6805441318051 1554.929130142449,-133.38025191730713 1472.0213706907123,-43.06592939020152 1371.948769112696,39.19163088652542 1254.9454085343923,111.2651727597539 1121.4762464572498,170.99306558462155 972.2469441832117,216.2032808550832 808.211365100337,244.7390838647604 630.5764925808662,254.4862349860833 440.8045336565018,243.40146259592677 240.61199398970444,209.54193789524882 31.96553297858398,151.09545131603747 -182.92556490813848,66.41096134343027 -401.6204353458428,-45.97084012364837 -621.4612938377845,-187.2873258166578 -839.591769373789,-358.52449544252715 -1052.9789298429603,-560.3887205954891 -1258.4389722365527,-793.2801038320417 -1452.666503272894,-1057.267892360694 -1632.2672864217104,-1352.0683907678074 -1793.7942798679358,-1677.0258159089992 -1933.7867372550681,-2031.096530205251 -2048.812089656663,-2412.837076805254 -2135.5102737595844,-2820.396421175344 -2190.64011836405,-3251.512778480371 -2211.1273497106613,-3703.5153745150637 -2194.1137265613816,-4173.33144990005 -2137.006769141009,-4657.49877281122 -2037.5295027559573,-5152.183874790281 -1893.7695979229875,-5653.2061673988255 -1704.2272549351524,-6156.068034927868 -1467.8611527275802,-6655.990930452604 -1184.131760422519,-7147.957429711968 -853.0412957385404,-7626.759120174365 -475.16960820871,-8087.050121894828 -51.70526747626715,-8523.405953135458 415.5288516307006,-8930.38736805896 924.0561745344613,-9302.608707044166 1470.7338791752093,-9634.810213317412 2051.747810228569,-9921.933683719839 2662.6154187742377,-10159.200737672418 3298.1972288338725,-10342.192907939852 3952.717259717597,-10466.932680854976 4619.79275045068,-10529.96454349476 5292.473440038474,-10528.435032153822 5963.290555463853,-10460.170721602713 6624.315548734473,-10323.75304927859 7267.228505801389,-10118.58883393991 7883.396024699535,-9844.975325573427 8463.958228907008,-9504.15861354706 8999.924445924968,-9098.384224147501 9482.27694182456,-8630.938757608521 9902.081961504326,-8106.181449280259 10250.607183289192,-7529.56459032636 10519.444557029165,-6907.641810718734 10700.637358864673,-6248.063311602144 10786.810165244471,-5559.557235413181 10771.300325595283,-4851.896480332934 10648.289399278538,-4135.850400395351 10412.932920176452,-3423.1209832938343 10061.486763465191,-2726.2632638219825 9591.428315868958,-2058.5899109043235 9001.570594895758,-1434.0601190255095 8292.167426096294,-867.1531390119735 7465.007772012042,-372.72699677586104 6523.497313790324,34.13683022389722 5472.725417870066,338.3017826637939 4319.515676908329,524.7564098824455 3072.458297214063,578.8049266834865 1741.9227151120863,486.26645531256924 340.0489623195667,233.68105070802764 -1119.2835342921812,-191.4796048063492 -2620.510840460697,-800.5991510521233 -4146.4639921468615,-1603.7036418569323 -5678.473719813476,-2609.2514430747624 -7196.500806044891,-3823.9287442830437 -8679.292170151295,-5252.453610067238 -10104.562459570132,-6897.39158673171 -11449.200595766737,-8758.985938716116 -12689.500374850753,-10835.005613112278 -13801.413863559064,-13120.614017870059 -14760.825963271673,-15608.261647237208 -15543.84814233988,-18287.60549471828 -16127.128964553869,-21145.458057761818 -16488.178673686914,-24165.768558317242 -16605.704735609448,-27329.638778637498 -16459.954895560277,-30615.375642045587 -16033.063984044205,-33998.582354176644 -15309.400405854505,-37452.28956238085 -14275.907978298514,-40947.127591056604 -12922.43855221879,-44451.54037083213 -11242.070658150955,-47932.04120252494 -9231.4092750842,-51353.50998613378 -6890.861725697124,-54679.53100484666 -4224.884664231406,-57872.76978892422 -1242.1971455503551,-60895.386999711176 2044.0451498471148,-63709.48667589693 5616.119306816631,-66277.59557903241 9451.652731631957,-68563.1697702822 13523.593127771417,-70531.1239529557 17800.234779027378,-72148.37853349652 22245.3045875336,-73384.41879556199 26818.110801951687,-74211.86005616086 31473.75678787432,-74607.01218822389 36163.42154100361,-74550.43645925292 40834.70792737888,-74027.48725957569 45432.05885842748,-73028.83098482172 49897.240777524166,-71550.93410388446 54169.892955755095,-69596.51229380986 58188.1401754113,-67174.9324642008 61889.26542913291,-64302.559532685606 65210.43829031191,-61003.03995583629 68089.49362697144,-57307.51427180367 70465.754348373,-53254.75127605115 72280.89090331766,-48891.19693295007 73479.80930441446,-44270.93172544346 74011.55854696238,-39455.53086294817 73830.2474384192,-34513.82260315684 72895.96006884966,-29521.54089388837 71175.65844853898,-24560.86960250899 68644.06023033273,-19719.87676692414 65284.47893518675,-15091.838566252687 61089.61372343287,-10774.454061848044 56062.275514316,-6868.953189446912 50216.03616451646,-3479.101978270462 43575.78748371386,-710.1105186663136 36178.1971015924,1332.5492194961603 28072.048614417614,2544.4070172958354 19318.454037154977,2823.329188709706 9990.927373956127,2070.91264076036 175.30909857438644,193.92480480770908 -10030.467492437778,-2894.225437813651 -20516.77572872077,-7272.002095758075 -31162.866943363795,-13008.259206725224 -41837.618175643845,-20160.779449860867 -52400.458697104485,-28774.853890643884 -62702.47580117617,-38881.92332373304 -72587.69809558062,-50498.30228502944 -81894.55221028524,-63624.007188477255 -90457.48640231806,-78241.71018626526 -98108.75202552542,-94315.8402351681 -104680.3312641515,-111791.85246087861 -110005.99693215328,-130595.68623277888 -113923.48754587473,-150633.43138280459 -116276.77831854865,-171791.22071599847 -116918.42623527197,-193935.3653624557 -115711.96498220612,-216912.74760964213 -112534.32326050548,-240551.48363326347 -107278.23795125417,-264661.8660209735 -99854.63175017537,-289037.59316720173 -90194.92329754888,-313457.28952479985 -78253.23652649092,-337686.3173499718 -64008.47497721136,-361478.87699558 -47466.226210067056,-384580.38902335835 -28660.46122800689,-406730.1474513362 -7654.994018401516,-427664.2293667148 15455.333028979017,-447118.6419585019 40543.7709550064,-464832.6838043763 67451.12483951074,-480552.49303208047 95985.58260671466,-494034.75081990013 125922.9388404017,-505050.5046591152 157007.237303927,-513389.07193166885 188951.8522391166,-518861.9807182663 221441.02440481045,-521306.9014065348 254131.86322850152,-520591.51967696304 286656.82140850805,-516617.2988669352 318626.64285199443,-509323.07761016773 349633.77900591056,-498688.44707821385 379256.26248081424,-484736.8511675053 407062.0204361914,-467538.3526313581 432613.60355192504,-447212.00849852856 455473.2996224104,-423927.79918989365 475208.5939521714,-397908.05757825566 491397.93188557116,-369428.34686128603 503636.7320539997,-338817.739554713 511543.59236240806,-306458.4541735918 514766.6244574161,-272784.81125610444 512989.846518358,-238281.47628876817 505939.5587894267,-203480.96379559467 493390.62142497755,-168960.38432674974 475172.5500499196,-135337.42428315192 451175.3410401993,-103265.55738899381 421354.93599870044,-73428.49610914021 385738.2333289273,-46533.90132554985 344427.5542763468,-23306.379047358423 297604.47139151406,-4479.803732590965 245532.90913759026,9210.981165785954 188561.42937494832,17039.02367236682 127124.6187529566,18294.611900508575 61743.50065644577,12295.026961079557 -6975.098689610961,-1605.3943250698976 -78340.29205594654,-24004.99159560571 -151580.0334580655,-55444.422252227676 -225845.22236758762,-96396.33495055643 -300215.03926270397,-147255.20617135218 -373703.52854171087,-208327.47751734505 -445267.43037670257,-279822.13686697907 -513815.24765067204,-361841.89059079246 -578217.5178257901,-454375.07655235595 -637318.2425788812,-557288.468438212 -689947.410475604,-670321.120966366 -734934.5300191316,-793079.4026012887 -771123.0723003831,-925033.3574623467 -797385.704408836,-1065514.5310783514 -812640.1769631793,-1213715.3854608873 -815865.7118288256,-1368690.4176135988 -806119.7195537976,-1529359.0820593901 -782554.6605321622,-1694510.6022749487 -744434.8496557929,-1862810.7381227016 -691152.9915035481,-2032810.5565447852 -622246.2222029687,-2202957.2310428116 -537411.4252394025,-2371606.87195311 -436519.5819289464,-2537039.3644137047 -319628.9132504875,-2697475.1644119495 -186996.56846828823,-2851093.97563654 -39088.617670506,-2996055.2013014997 123411.88982225694,-3130520.0359583707 299599.0311109811,-3252675.032888607 488340.4978504293,-3360756.95331921 688276.6702696534,-3453078.674801226 897822.4619504948,-3528055.9080218635 1115172.0981511734,-3584234.4444920626 1338306.9648763682,-3620317.632379214 1565006.636888574,-3635193.7546635377 1792863.160560656,-3627962.9632126954 2019298.632067522,-3597963.4047169643 2241586.073138286,-3544796.160122751 2456873.5657225475,-3468348.608647037 2662211.5638005235,-3368815.821032491 2854583.255572248,-3246719.584769195 3030937.8028299515,-3102924.666888353 3188226.2369318125,-2938651.9279131866 3323439.742980156,-2755487.913874759 3433650.0161284795,-2555390.5721573085 3516051.3270021603,-2340690.7614655504 3568003.887650809,-2114089.2564798775 3587078.0659142947,-1878648.9837923145 3571098.9552576384,-1637782.2674341889 3518190.769701541,-1395232.9095777392 3426820.5001380914,-1155052.984602051 3295840.239764419,-921574.2823620873 3124527.563266113,-699374.3988085075 2912623.3273894773,-493237.5386123286 2660366.250278242,-308110.16460643813 2368523.62399402,-149051.70203673543 2038417.5195176094,-21180.581112495336 1671945.85670291,70384.0216273093 1271597.7335199392,120584.30491147116 840462.4397874487,124489.31162015848 382231.62067776447,77363.15304529072 -98805.89530420833,-25264.677357303946 -597777.03039897,-187527.63725705337 -1109245.5122491212,-413149.9185312117 -1627241.3306313495,-705374.5435623523 -2145298.7920740037,-1066892.692165847 -2656503.274308888,-1499775.2227612867 -3153546.6810888913,-2005407.3887092771 -3628791.4896865985,-2584427.7780916593 -4074343.169263559,-3236672.521612118 -4482130.629289594,-3961125.8177974815 -4843994.234449995,-4755877.816435441 -5151780.797282106,-5618090.879440252 -5397444.833525196,-6543975.202460981 -5573155.2393482765,-7528774.730037168 -5671406.425833629,-8566764.231611846 -5685132.826016166,-9651258.325044256 -5607825.575151455,-10774633.138410036 -5433650.057501094,-11928361.190012464 -5157562.914601608,-13103059.941028062 -4775427.022554754,-14288554.335650874 -4284122.871158319,-15473953.490784446 -3681654.717469685,-16647741.532265138 -2967249.842377398,-17797882.39852029 -2141449.212583986,-18911938.246924743 -1206187.8435956647,-19977200.904585864 -164863.17325361358,-20980835.60574174 977610.2087570842,-21910036.054476094 2214761.0710961344,-22752189.646311633 3538538.803647685,-23495051.477871437 4939308.839043156,-24126925.572800595 6405867.507079947,-24636851.557236355 7925477.4399176575,-25014794.832142413 9483924.465183036,-25251838.115688283 11065596.719602767,-25340372.069526516 12653586.488459503,-25274282.58125946 14229815.027333876,-25049132.15455772 15775180.353907418,-24662332.76117774 17269727.711071413,-24113307.438320924 18692842.100583293,-23403637.87302829 20023461.971759528,-22537195.205085024 21240312.825247858,-21520251.30344693 22322159.161175266,-20361567.830474578 23248072.867610097,-19072460.5049214 23997715.81328133,-17666836.10996893 24551634.082084876,-16161199.967553698 24891560.97051308,-14574631.815245772 25000725.56737397,-12928728.277044166 24864163.452757042,-11247510.414149845 24469025.794958666,-9557295.175051857 23804882.894842096,-7886529.934557521 22864018.031656478,-6265589.716580029 21641707.30738347,-4726537.132869523 20136481.072741266,-3302845.5361470785 18350362.45135693,-2029086.3774127716 16289078.463313792,-940582.2691131657 13962239.288924469,-73027.7833832076 11383481.311349846,537919.447795562 8570569.735266395,857074.2219641967 5545456.800272133,850182.1971910585 2334291.893576386,484397.08673133334 -1032619.782506196,-271228.07426808664 -4520912.916643993,-1445240.7713042854 -8092314.616153049,-3063285.6016097404 -11704855.661205767,-5147603.671678885 -15313141.787454588,-7716541.230358958 -18868685.63925297,-10784074.28278286 -22320299.323788073,-14359356.183843162 -25614546.73776685,-18446295.393257797 -28696254.03909539,-23043170.68056383 -31509075.803524725,-28142291.091142625 -33996113.54860196,-33729707.91772538 -36100582.433461696,-39784985.76060588 -37766521.06280518,-46281039.49966852 -38939538.44736366,-53184043.638934165 -39567591.31240387,-60453420.01729621 -39601784.11213863,-68041909.30626023 -38997183.31344467,-75895731.03686742 -37713636.76956091,-83954836.11491153 -35716588.32616004,-92153254.89881867 -32977877.20110275,-100419542.93233663 -29476511.167946216,-108677325.35016897 -25199402.164261635,-116845939.81609584 -20142052.650962465,-124841176.61872247 -14309180.879455522,-132576113.25002371 -7715273.190025911,-139962039.4381387 -385051.57696729765,-146909467.21161762 7646154.978073909,-153329219.15218988 16332146.47626419,-159133586.56301564 25615705.65385901,-164237547.85647056 35428579.231994115,-168560036.0679197 45691595.44422392,-172025243.04880002 56314925.51502869,-174563946.60343078 67198495.48587571,-176114845.62965897 78232553.34375478,-176625887.22436383 89298394.80722035,-176055568.74171785 100269249.37621921,-174374196.96547365 111011326.3661294,-171565085.89651352 121385018.63775451,-167625674.1828176 131246259.62029977,-162568542.9492747 140448027.02276248,-156422314.73634815 148841984.36231798,-149232414.44502 156280249.12996632,-141061673.6241345 162617274.08989125,-131990760.13658813 167711825.89750734,-122118416.2115422 171429042.95168647,-111561489.13707165 173642552.20008028,-100454740.37429503 174236622.52518687,-88950420.67994425 173108330.3856822,-77217600.90557683 170169711.60637674,-65441250.49096133 165349871.63431433,-53821058.275100105 158597025.24175197,-42569993.0958816 149880435.59123233,-31912604.719009005 139192221.8156014,-22083068.905544113 126549003.83591722,-13322983.86760842 111993353.07087122,-5878928.942356394 95595018.00708446,199.99999988293013" stroke="white" stroke-width="1.5" /></svg>