<?xml version="1.0" encoding="utf-8" ?>
<svg baseProfile="full" height="400" version="1.1" width="400" xmlns="http://www.w3.org/2000/svg" xmlns:ev="http://www.w3.org/2001/xml-events" xmlns:xlink="http://www.w3.org/1999/xlink"><defs /><rect fill="black" height="100%" width="100%" x="0" y="0" /><circle cx="200" cy="200" fill="yellow" r="10.00000000000073" stroke="orange" stroke-width="2" /><polyline fill="none" points="201.19866933079507,200.0 201.23475710913823,200.0648191077585 201.26493072323441,200.13317316398573 201.28865028917335,200.2044485775106 201.30542768425008,200.27795431864598 201.31483633750045,200.35292532931572 201.31652091852402,200.42852708251613 201.31020679752186,200.5038613113686 201.29570914382307,200.577972914827 201.27294152578864,200.64985803293686 201.24192387201256,200.71847326952056 201.20278965231307,200.78274602440416 201.1557921372453,200.84158588096233 201.10130959687953,200.8938969779976 201.0398493034692,200.93859127797003 200.97205020845706,200.9746026265498 200.89868417209445,201.00090148158705 200.8206556338139,201.01651017310033 200.73899962341375,201.02051854000933 200.65487802707275,201.0120997743192 200.56957403817873,200.99052628954277 200.48448474085993,200.9551854175761 200.40111179386273,200.90559472726346 200.32105020389827,200.84141674874533 200.24597520063546,200.7624728806159 200.17762724996447,200.66875625214777 200.11779526778523,200.56044331058843 200.06829812314692,200.43790390398885 200.0309645468128,200.30170963336744 200.00761158895259,200.1526402543924 200.0000217973578,199.99168791830854 200.00991931499064,199.8200590546311 200.03894512245577,199.63917371424014 200.08863167675116,199.4506622109562 200.16037722202046,199.25635892243983 200.25542007059795,199.05829313727725 200.37481317300757,198.8586768642832 200.5193993133479,198.65988955221863 200.6897872812724,198.46445970308773 200.88632938317153,198.2750433996954 201.1091006628144,198.09439980791942 201.357880205267,197.92536375583626 201.63213489704947,197.77081553504468 201.9310060099475,197.63364811382326 202.2532989654016,197.5167319966564 202.59747662076592,197.42287800965167 202.96165639780432,197.35479833589477 203.34361154748115,197.3150661682641 203.74077681337502,197.30607438903985 204.1502587189275,197.3299937251668 204.56885066133432,197.38873086461433 204.99305294737223,197.48388705227498 205.4190978540718,197.61671771260038 205.8429797402294,197.78809367004894 206.260490173697,197.9984645567913 206.66725797468382,198.2478250093877 207.05879400750774,198.53568426175588 207.43054048298333,198.86103974017334 207.77792446163744,199.22235525684061 208.0964151749802,199.6175443812784 208.3815847089741,200.04395954321396 208.629171521535,200.4983873863925 208.8351461953202,200.9770508497753 208.99577875920255,201.47561840080658 209.10770684772461,201.9892207849008 209.16800390851762,202.5124755861868 209.17424661422226,203.03951981713132 209.12458058891218,203.56405066935687 209.0177835204441,204.07937446530474 208.85332470055167,204.5784637510258 208.63142001483044,205.054022365106 208.35308139594548,205.49855820845568 208.0201597562583,205.90446332545451 207.63538043137308,206.2641007899003 207.2023701944772,206.56989777062887 206.725674943328,206.8144440329268 206.2107672176989,206.9905950144129 205.66404277528937,207.09157849946916 205.09280553860103,207.11110380617106 204.5052403239954,207.04347229567182 203.9103728768009,206.88368791783898 203.3180168624603,206.62756642034623 202.73870760263748,206.27184177310593 202.18362249606503,205.8142682975811 201.6644882256325,205.25371694278394 201.19347502450572,204.59026411822379 200.78307845344128,203.82527148018715 200.44598932722525,202.96145507287238 200.19495261844017,202.0029422512714 200.04261635948444,200.95531485932972 200.00137175669832,199.82563720566807 200.08318592120736,198.62246747064057 200.29942880715583,197.35585129312074 200.6606961267434,196.03729642326775 201.17663018018217,194.67972748847794 201.85574069458815,193.29742010331069 202.70522790611443,191.90591375962643 203.73081024153308,190.52190315939833 204.93655905622774,189.16310789823245 206.32474296250584,187.8481206707954 207.89568433271938,186.59623444801116 209.6476305835064,185.4272493676152 211.57664283833304,184.36126038169638 213.67650452346768,183.4184270141446 215.93865237587437,182.61872689409384 218.35213222890832,181.9816950448702 220.90358179212447,181.52615121774082 223.5772424543568,181.26991786181316 226.35500191430035,181.22953161148288 229.21646918040202,181.41995144645546 232.13908318268878,181.8542669320727 235.09825590449884,182.54341017491194 238.0675505737148,183.4958753258614 241.01889505335635,184.7174496256486 243.92283014314404,186.21096011177224 246.74879205031567,187.9760401868272 249.46542781351874,190.00892028242643 252.04094197250942,192.30224683675726 254.44347227365137,194.84493373408407 256.641491692304,197.62205022851012 258.6042335440352,200.61474918983146 260.30213595351006,203.80023926473933 261.70730145955434,207.15180424096582 262.79396706422756,210.63887253493772 263.5389795899377,214.22713929555715 263.92227079900795,217.87874312911094 263.92732636205204,221.55249890509114 263.5416424423914,225.20418750281598 262.7571634008018,228.78690270796687 261.57069392514484,232.2514547712002 259.9842787596383,235.546829403424 258.005543154946,238.6207002106036 255.64798718870182,241.41999177239646 252.9312272216552,243.89148975164505 249.8811779617374,245.9824935946935 246.53016891056137,247.64150655527527 242.91698936678284,248.81895695762168 239.0868566599426,249.46794381830972 235.09130288731723,249.54499918250912 230.98797612415694,249.0108588103705 226.84035287242986,247.83123218521249 222.71735940142656,245.97756221892212 218.69290061051618,243.42776451353674 214.84529610378058,240.1669356130985 211.25662430052455,236.18801935798373 208.01197660567638,231.49242024590683 205.19862491932568,226.09055261990218 202.90510706318156,220.0023145531524 201.22023603031576,213.25747549187537 200.23204030867294,205.89596705772658 200.02664387280007,197.96806690605496 200.68709576534295,189.5344661900696 202.29216048243927,180.66621199603597 204.9150816168164,171.4445170916978 208.6223323802103,161.9604304678976 213.47236770332498,152.31436344846236 219.51439357743942,142.61546759026228 226.78717013752427,132.9808621860817 235.31786567322746,123.53471090743861 245.1209792728024,114.40714897023645 256.19735013828927,105.73306415829782 268.5332717414527,97.6507370812572 282.0997289039683,90.30034815455546 296.85177556865585,83.82236094879858 312.72807046967205,78.35579373988773 329.65058709923477,74.03639327456465 347.5245132998878,70.99472692113403 366.2383544805486,69.35421147342728 385.6642528605717,69.22909888764536 405.6585332910558,70.72244112573807 426.0624840921773,73.9240580239989 446.7033789886257,78.90853366989413 467.3957436350488,85.73326812224616 487.9428674164046,94.43661241870385 508.1385582046344,105.03611564988246 527.769134577338,117.52691341293662 546.6156466841212,131.88028716176882 564.4563135136386,148.0424238220066 581.0691608042156,165.93340451447654 596.2348402918279,185.44645031255985 609.7396074426074,206.44745163153797 621.3784313173319,228.7748061010079 630.9582068091188,252.23958759822852 638.3010362314734,276.62606651937745 643.2475441620725,301.69259834085443 645.6601866192696,327.17289408319596 645.4265131147774,352.7776824508834 642.4623379386089,378.1967692033177 636.7147752415287,403.1014947426187 628.165091134795,427.14758601596253 616.8313251734864,449.978393663407 602.7706332717178,471.2284999421763 586.0813043554255,490.5276773766818 566.9044039264636,507.50517237753246 545.4249992205924,521.7942823049506 521.8729228157454,533.0371886900898 496.5230344031904,540.8900036437565 469.6949439830542,545.0279809519236 441.75216398939176,545.1508380602897 413.1006627823229,540.9881301674957 384.1867975504513,532.3046130614746 355.49461092124716,518.9055272294956 327.5424824459218,500.64173223301736 300.8791335642694,477.41461744532876 276.07899260963165,449.1807130824189 253.7369348201924,415.95592409116404 234.4624211057927,377.819308964329 218.87306839547702,334.91632599369854 207.58769366667926,287.4614709080222 201.21888313035404,235.74023232009014 200.3651474073911,180.11029496614776 205.60273276303934,121.00192538913282 217.47716744429724,58.917480511118185 236.49463076165608,-5.570013536826991 263.11324063870546,-71.81925691789837 297.73436278593624,-139.12408138191984 340.69405130269377,-206.71789061542154 392.25473623827804,-273.7791497338776 452.59727831688826,-339.4379258922669 521.813514522666,-402.783469046164 599.8994204279701,-462.87280822116816 686.7490159156196,-518.740324364783 782.149140189576,-569.4082460987494 885.7752195957399,-613.8979996132209 997.1881477064976,-651.2423287131988 1115.8323912964402,-680.4980858214134 1241.0354282069966,-700.7595797511572 1372.0086136387308,-711.1723514884396 1507.8495601170428,-710.9472352744021 1647.5461032672295,-699.3745491715761 1789.9819106504424,-675.8382472508684 1933.943774318529,-639.8298547707489 2078.1306095357095,-590.9619984560018 2221.1641624064123,-528.9813364362035 2361.601408086307,-453.7806867827462 2497.9485990090875,-365.4101500866917 2628.676899332333,-264.0870203337668 2752.239517814811,-150.20427962691423 2867.0902268325435,-24.33747623104523 2971.7031304920442,112.75020790369136 3064.593520098011,260.1048844432689 3144.3396308900014,416.58105262632563 3209.605090304915,580.8430162612017 3259.161825389885,751.368761723317 3291.9131757334876,926.4564135370878 3306.9169387586708,1104.2333598688783 3303.4080567875326,1282.6681132265358 3280.820640302835,1459.5849420074073 3238.809009644318,1632.681276453565 3177.267428328752,1799.547858296763 3096.3481955937777,1957.6915671859172 2996.4777639381555,2104.5608192085247 2878.370549640243,2237.5733938083577 2743.040110724476,2354.1465055670365 2591.807377819064,2451.7288970983336 2426.3056389702797,2527.834689174572 2248.4819998669946,2580.078684670282 2060.595066149216,2606.2127845009372 1865.208624535753,2604.1631370069886 1665.181134359537,2572.0676077554367 1463.6508806318475,2508.3131250822244 1264.0166837900626,2411.5724284618195 1069.9141095717152,2280.8397225455906 885.1871746845616,2115.4647200268346 713.8555997222744,1915.1845419178517 560.0777196521938,1680.1529348868519 428.1092236508407,1410.9662624888892 322.25795949155537,1108.6857308794697 246.83510244125736,774.8553203164923 206.10305398232322,411.51491176769 204.22050086891176,21.208123511827893 245.18512923252638,-393.0155940593871 332.77455080434936,-827.6050160611169 470.4860579222031,-1278.5177147429158 661.4758799121294,-1741.2374498910817 908.4986647365674,-2210.7986183571647 1213.8479555352342,-2681.8179313436012 1579.2984709096775,-3148.533409456418 2006.0510295933045,-3604.850700527149 2494.680983613451,-4044.396634444167 3045.0910383400305,-4460.579833458551 3656.469342134835,-4846.65809649858 4327.253721945385,-5195.81217290485 5055.102923490257,-5501.225435753067 5836.875685120967,-5756.168858731624 6668.618432592165,-5954.090594643528 7545.562327523918,-6088.709349343697 8462.130335131696,-6154.110643710915 9411.954896812807,-6144.8449595519105 10387.906700551772,-6056.026674647125 11382.134937146224,-5883.432609006248 12386.119313441855,-5623.598930345157 13390.733965755182,-5273.915103354372 14386.323278303576,-4832.71351600373 15362.789463777131,-4299.353378366947 16309.691607392031,-3674.297466632912 17216.355713254903,-2959.180278382012 18071.995124212408,-2156.8661760141645 18865.840515303003,-1271.4961244516285 19587.27848836924,-308.5216777747803 20225.997623372215,725.275062028942 20772.140672655223,1821.7767020277854 21216.461420117175,2971.5421091109147 21550.484570357134,4163.835202153792 21766.66688578942,5386.671782158059 21858.5576549875,6626.88502589332 21820.956455600008,7870.21007828307 21650.066072578287,9101.387970332924 21343.63834959398,10304.288864173484 20901.11069076721,11462.054386458703 20323.730893399457,12557.258557904608 19614.66798240151,13572.086562444323 18779.106735412635,14488.530326875376 17824.323635895373,15288.599603820157 16759.74207116897,15954.54697040535 15596.964704520817,16469.10487561839 14349.781095994702,16815.732594362642 13034.148825615877,16978.870679529933 11668.146585702436,16944.200248806854 10271.897955144008,16698.904204409548 8867.46484727112,16231.927265545128 7478.7099329009325,15534.23149918869 6131.127679564102,14599.04386878169 4851.64401454362,13422.092186655242 3668.3850104498733,12001.825758178595 2610.4154043921912,10339.61694745856 1707.4481916784473,8439.939879247828 989.5269782074256,6310.52252262577 486.6832276957664,3962.4684816985614 228.57099556503147,1410.34494930061 244.08219528446458,-1327.7665367414397 560.94588945959,-4230.259657539175 1205.3155309209947,-7272.036027580954 2201.348492209128,-10424.583542741566 3570.782608703083,-13656.102443541053 5332.5148146310585,-16931.680721154946 7502.187265723203,-20213.519988842865 10091.786610767991,-23461.212388846714 13109.262290388931,-26632.06850809053 16558.16989876981,-29681.495639661993 20437.345736937554,-32563.42505633014 24740.618709084945,-35230.78626329783 29456.56566131005,-37636.02547680304 34568.316130688865,-39731.66484058637 40053.412258105294,-41470.89815183801 45883.7293178479,-42808.21813084933 52025.46192862381,-43700.06954358993 58439.180533282306,-44105.521783667165 65079.96216816373,-43986.95384983205 71897.59888867193,-43310.74402788169 78836.88647766486,-42047.956012162045 85837.9952410405,-40175.01269262737 92836.9237951747,-37674.34839920499 99766.03577965709,-34535.030046481836 106554.67839336657,-30753.33736853344 113129.88056089489,-26333.29228560178 119417.12739954593,-21287.127410175992 125341.20648563375,-15635.683787910708 130827.1202249006,-9408.728185784483 135801.05742884803,-2645.1805919283074 140191.41600103167,4606.756916708129 143929.8674601561,12289.578147990436 146952.4528861208,20336.565039345387 149200.6987876732,28672.00067947657 150622.7403731092,37211.50854613772 151174.43877586984,45862.5221931692 150820.4779623684,54524.888280691615 149535.42634724124,63091.60437733984 147304.74757835912,71449.69138251018 144125.74454671767,79481.19873169168 140008.4204402355,87064.33877305903 134976.24060990574,94074.74485466287 129066.77916474757,100386.84575681643 122332.23457004898,105875.34716360489 114839.7991010742,110416.80891255304 106671.86780927538,113891.30481576007 97926.0736953033,116184.1499340681 88715.13705539389,117187.67833411609 79166.51847496063,116803.05259351505 69421.86668242527,114942.08466965082 59636.25444134498,111529.04624097414 49977.19784049123,106502.4452944324 40623.45672697572,99816.74459699242 31763.616600875022,91443.9967805231 23594.455031584836,81375.3701141277 16319.098543543492,69622.53866148833 10144.978925830836,56218.91044625809 5281.601017062246,41220.66749714176 1938.1371714751128,24707.59223461871 320.8667887543843,6783.655608810764 630.4824509350411,-12422.65628507997 3059.2873142728154,-32758.298692678152 7788.311409902411,-54045.92728999335 14984.377370408025,-76084.47692062958 24797.14877494331,-98650.07418965723 37356.196747398164,-121497.29492153236 52768.12260429401,-144360.77393645194 71113.77618596832,-166957.1707158338 92445.61097155165,-188987.4903393856 116785.21813221817,-210139.75461516395 144121.08227743555,-230092.01362735726 174406.60175760882,-248515.68303691744 207558.41596931854,-265079.187435487 243455.08113627593,-279451.88492626394 281936.13448503293,-291308.24294412736 322801.5845798634,-300332.2301933974 365811.8628124925,-306221.8845406927 410688.26765310863,-308694.01182152785 457113.9292596333,-307488.9658739637 504735.3174210954,-302375.45577432367 553164.3105946553,-293155.3222932283 601980.8380092945,-279668.22208971094 650736.1004863279,-261796.1551911198 698956.3688104243,-239467.768939349 746147.3512264312,-212662.36988946868 791799.1139977374,-181413.574191208 835391.5310107402,-145812.52682837102 876400.2302251147,-106010.62079160642 914302.9964373293,-62221.64886466922 948586.581438968,-14723.323253988932 978753.8643125838,36141.89818245093 1004331.2964229486,89966.73582664598 1024876.5577429214,146279.8134993439 1039986.3436168757,204547.22961264095 1049304.194030228,264175.0113892718 1052528.271042257,324512.4807614919 1049418.984372399,384856.5511372194 1039806.3603280894,444456.96392590686 1023597.045442681,502522.46262125747 1000780.8334680898,558227.8904268956 971436.602846264,610722.1849832007 935737.5515654512,659137.2308224253 893955.6174818805,702597.5168716945 846464.9748332463,740230.5327801093 793744.5018530837,771177.8242195331 736379.120165698,794606.6137627749 675059.914034129,809721.8806515632 610582.9465655981,815778.7799124606 543846.7006473609,812095.2690508743 475848.08466768905,798064.7991455316 407676.95692722365,773168.9167751701 340509.1379979208,736989.6140331294 275597.89704976813,689221.2561194178 214263.91622545017,629681.9098348044 157883.75636237685,558323.8919215128 107876.86757846159,475243.3537740641 65691.20926815202,380688.7187432004 32787.56569129665,275067.7902213392 10622.665350896774,158953.35305690728 631.2344981156507,33087.09770335423 4207.137107262259,-101618.29405129419 22683.7752468685,-244079.05085139396 57313.94463876741,-393042.33537363925 109249.36003759866,-547090.5066974319 179520.08356304187,-704647.7183642163 269014.1059561794,-863988.9264784327 378457.34558931406,-1023251.3572011791 508394.34261753754,-1180448.455697145 659169.9356103285,-1333486.309202845 830912.2150438784,-1480182.5056141657 1023517.0518874405,-1618287.356107212 1236634.4999181498,-1745507.3761091807 1469657.3671123565,-1859530.883763077 1721712.244281594,-1958055.53925388 1991653.2678762174,-2038817.6123885703 2278058.8784373268,-2099622.7300827852 2579231.816448874,-2138377.820363129 2893202.5732850013,-2153123.9356286363 3217736.4865722656,-2142069.605728045 3550344.636656395,-2103624.341414281 3888298.66409919,-2036431.8814534154 4228649.587413915,-1939402.7526137854 4568250.655819097,-1811745.6914575514 4903784.223954383,-1652997.460805053 5231792.5846258355,-1463050.582426743 5548712.642160637,-1242178.5013960516 5850914.253343174,-991057.6970331523 6134742.005725468,-710786.2608671552 6396560.144962418,-402898.4738756257 6632800.304372241,-69374.933703815 6840011.6318752095,287352.19216694694 7014912.852564901,664399.1790968889 7154445.7502031205,1058436.3763387061 7255829.498714164,1465699.7627053577 7316615.226120668,1882008.6799050395 7334740.149157023,2302789.9366896744 7308580.577862896,2723108.4106443105 7237003.056637066,3137704.202106304 7119412.882338386,3541036.316841987 6955799.221841443,3927332.7713231132 6746776.041733309,4290646.927435999 6493618.0622619735,4624919.773022617 6198290.956835678,4924047.771690217 5863475.037865795,5181955.8108216645 5492581.699992192,5392674.681745443 5089761.933071821,5550422.431731233 4659906.269978923,5649688.835083739 4208635.598361541,5685322.1413903665 3742282.340991728,5652617.174259485 3267861.5960611072,5547403.775021648 2793031.926380917,5366134.514228021 2326045.594463597,5105970.530745704 1875688.1582419057,4764864.305176166 1451207.4689144462,4341638.132541135 1062232.2471114192,3836057.0299632135 718680.5551144339,3248894.799623902 430658.62993284647,2581991.966721502 208350.69317920553,1838304.3274816764 61900.507289593654,1021940.8743664869 1285.6019554583725,138189.91520742697 36185.247800240635,-806467.7293914384 175843.40436411276,-1804359.4800051856 428928.0142769967,-2846636.6287202714 803388.1529531939,-3923305.6477600643 1306310.6710273437,-5023275.836982063 1943778.0828395172,-6134423.811807011 2720729.5563326674,-7243675.157231613 3640826.9455393716,-8337103.381835955 4706327.874251176,-9400046.099447327 5917967.9264125535,-10417238.146959517 7274854.02330753,-11372961.116591549 8774371.067903938,-12251208.541726446 10412103.91116086,-13035865.729774717 12181776.642277583,-13710902.985879652 14075211.123595182,-14260580.720559536 16082306.58026437,-14669664.685616134 18191041.914274108,-14923649.33905186 20387502.241743386,-15008987.104708102 22655930.95160761,-14913321.069361653 24978808.353477642,-14625718.45267533 27336957.723384555,-14136901.997319993 29709679.269657403,-13439476.26139833 32074912.22903457,-12528145.656591918 34409424.96745612,-11399920.966726296 36689032.60341259,-10054311.00605762 38888841.29728231,-8493496.037705956 40983517.961229354,-6722479.573220039 42947583.74483228,-4749215.216891566 44755729.245928586,-2584705.3054312924 46383148.98882885,-243068.2268644418 47805892.30801813,2258428.5165632786 49001227.379983544,4899372.207109519 49948014.76437071,7656248.198927117 50627086.453966536,10502524.693706995 51021626.09684923,13408780.728648279 51117545.74934475,16342878.678728258 50903854.251057334,19270182.108671837 50373012.08905123,22153819.301806577 49521267.442915455,24954992.246666923 48348967.98140623,27633330.28202535 46860842.9197669,30147286.99192334 45066249.84943656,32454578.309907626 42979380.92292225,34512659.142325975 40619423.1198451,36279235.16117948 38010667.538625956,37712805.7551692 35182562.95426156,38773233.47128962 32169709.257684115,39422334.63715232 29011786.846914373,39624485.235096514 25753418.57429586,39347235.512310766 22443961.466203324,38561926.26610775 19137226.119371634,37244299.24975211 15891122.437890962,35375093.71140231 12767231.202352298,32940620.71627309 9830301.85182545,29933306.619266123 7147677.803389772,26352196.860909745 4788651.624742014,22203411.161830295 2823753.403786969,17500541.19785511 1323976.7147937415,12264981.956119142 359947.6523743106,6526188.208216747 1043.4799486605436,321847.8944300633 314468.5053756133,-6302035.302882771 1364295.8391605695,-13291157.306121282 3210484.6955700587,-20583033.276876215 5907883.849055262,-28107227.034430046 9505232.74222803,-35785694.75716766 14044172.541685995,-43533246.345346734 19558280.13866879,-51258126.58618801 26072138.67749682,-58862716.91527429 33600458.65100324,-66244357.121154964 42147263.91437115,-73296284.80418117 51705157.123394266,-79908688.78908515 62254679.08771161,-85969871.01864909 73763776.33283621,-91367509.73973916 86187390.77709891,-95990015.05138864 99467184.84300935,-99727966.13748834 113531414.53096315,-102475617.77532475 128294961.98282577,-104132462.01830444 143659537.85214734,-104604829.32034007 159514062.3776116,-103807511.82501681 175735232.43039456,-101665390.10977237 192188279.98090175,-98115043.37924676 208727925.41518924,-93106321.9679426 225199526.9386272,-86603860.06536211 241440424.9493898,-78588505.84114699 257281477.76564464,-69058645.64677463 272548782.4692406,-58031398.72596569 287065571.9097562,-45543658.898402944 300654276.1231827,-31652960.0087571 313138733.5892883,-16438142.571057172 324346534.9132722,199.9999996027903" stroke="white" stroke-width="1.5" /></svg>