<?xml version="1.0" encoding="utf-8" ?>
<svg baseProfile="full" height="400" version="1.1" width="400" xmlns="http://www.w3.org/2000/svg" xmlns:ev="http://www.w3.org/2001/xml-events" xmlns:xlink="http://www.w3.org/1999/xlink"><defs /><rect fill="black" height="100%" width="100%" x="0" y="0" /><circle cx="200" cy="200" fill="yellow" r="20" stroke="orange" stroke-width="2" /><polyline fill="none" points="199.47491256294106,200.0 199.54752419688654,199.97624708728296 199.62754862931328,199.96078794944728 199.7143853570328,199.95468630398688 199.80730556799514,199.9589711094678 199.90545250423824,199.974621779817 200.00784343720875,200.00255303597282 200.11337333875167,200.0435995594327 200.22082031554544,200.09850062572858 200.32885285735776,200.16788490804853 200.43603893030155,200.25225565185758 200.5408569254024,200.3519764302229 200.64170845039473,200.46725769638266 200.73693292891855,200.5981443546971 200.82482394640076,200.74450457327782 200.90364725610328,200.90602006111465 200.9716603323681,201.08217802924025 201.02713333126968,201.27226504924332 201.06837129200926,201.47536301314025 201.09373738578094,201.6903473861559 201.10167699285972,201.9158879282864 201.09074236366692,202.15045204160174 201.05961759593876,202.39231087811433 201.00714363824454,202.63954831774475 200.93234301035963,202.8900728975704 200.83444391378484,203.14163274228386 200.7129033914031,203.3918335118194 200.5674291842452,203.63815934566279 200.3979999259615,203.87799674472964 200.204883312195,204.108661291221 199.98865188293863,204.3274270649112 199.7501960614059,204.53155857132666 199.49073410319016,204.7183449536908 199.2118186247284,204.8851362168493 198.9153394004616,205.02938114818411 198.6035221436905,205.14866657834818 198.27892301699197,205.24075758409134 197.944418654155,205.30363819712312 197.60319151682046,205.33555214748867 197.25871045519352,205.33504313795822 196.91470639309944,205.30099411807723 196.57514311295785,205.2326650034156 196.24418317556106,205.12972826779975 195.92614907239104,204.99230182448392 195.62547977405163,204.82097860686716 195.346682906609,204.61685226098612 195.0942828575354,204.38153837106063 194.87276518377956,204.11719065622174 194.6865177654266,203.82651160152602 194.53976921858236,203.51275701968527 194.43652514959913,203.17973408176653 194.38050289858586,202.83179240548864 194.37506548232045,202.4738078486063 194.42315550418493,202.11115872206702 194.52722985054942,201.74969421287204 194.68919603811054,201.39569488947348 194.9103511140342,201.05582525257566 195.19132403937775,200.7370783907409 195.5320225052331,200.44671290245836 195.93158513945647,200.19218235343385 196.3883400589229,199.98105764878997 196.8997707072389,199.8209428135041 197.4624898901435,199.71938478952822 198.0722228799196,199.68377797329282 198.72380040564974,199.72126433127372 199.41116227785005,199.83863004249451 200.12737231382957,200.04219972367417 200.86464513413827,200.33772939359278 201.6143852909622,200.7302994264815 202.3672390667457,201.2242088281741 203.1131591463289,201.82287224172228 203.8414822193201,202.52872114953075 204.54101941233614,203.34311078521768 205.20015928437908,204.2662342988231 205.80698294443218,205.29704573224512 206.34939066998592,206.43319335656102 206.81523922048393,207.67096489802074 207.19248885260964,209.00524613397405 207.4693588570891,210.4294942729925 207.63449025158343,211.9357274443723 207.67711408372784,213.51453151067867 207.58722362499964,215.1550852829058 207.35574857249762,216.84520506133123 206.97472922458215,218.5714092466891 206.4374884603708,220.3190035666213 205.73879923501946,222.07218724255222 204.87504520520974,223.81418018355703 203.84437202489767,225.52737103816816 202.64682680263485,227.19348566442537 201.28448319097066,228.79377529518604 199.76154958771488,230.30922338244778 198.08445797008187,231.7207698041809 196.26193095757966,233.0095508131829 194.3050248092673,234.15715280329235 192.22714620665658,235.1458776676984 190.04404085567126,235.95901723104043 187.77375215987496,236.58113395565675 185.4365484723715,236.99834485700063 183.05481772463426,237.19860531826515 180.6529285557981,237.1719892740582 178.25705742391474,236.9109620419473 175.89498156906043,236.41064192317478 173.59583811420217,235.6690465740401 171.38985003004967,234.6873200713654 169.30802015089532,233.46993656287654 167.3817949053095,232.02487640969127 165.642699913661,230.36377079648895 164.1219500984516,228.5020109079716 162.85003744763944,226.4588179500495 161.85630005934257,224.25727053235585 161.168476572088,221.92428622616688 160.8122505413486,219.49055446884213 160.81078975352793,216.99041840205504 161.1842858657027,214.46170370513877 161.9495001161425,211.9454930148078 163.11932115975895,209.48584510548002 164.70234133714706,207.12945863672252 166.70245787895746,204.92528095140673 169.1185056724536,202.92406312457138 171.94392826816028,201.1778632124672 175.1664937759006,199.73950042669753 178.76806218626854,198.66196375185697 182.72441045143347,197.99777932795192 187.00512136468302,197.79834172179764 191.57354188875752,198.11321500454486 196.38681609730654,198.98941032496145 201.39599731128962,200.4706474091014 206.54624333361912,202.59660811520857 211.77709791280404,205.40219081657472 217.02286070312493,208.9167749629514 222.21304703960658,213.1635056713965 227.27293781680868,218.1586086086945 232.12421865867074,223.9107457386519 236.68570640117457,230.4204227080579 240.87415969065927,237.6794587250111 244.60516923981987,245.6705297335746 247.79412199362775,254.36679550127403 250.35723215272702,263.73162090390355 252.21263069751924,273.71840120989623 253.28150376840372,284.2705005300989 253.48926900361735,295.32131180575243 252.7667777336772,306.7944457571873 251.05152979898665,318.6040551095068 248.288886713494,330.65529915264995 244.4332679613221,342.8449522871499 239.44931440387427,355.0621586612626 233.3130021106127,367.18933332982084 226.01268942548015,379.10320857231636 217.55007975995676,390.6760221117837 207.94108247906735,401.77684199370333 197.2165543329901,412.2730208342693 185.4229041973152,422.03177005093085 172.62254443060442,430.92184256809037 158.89417294769083,438.81531037202524 144.3328711476374,445.58942119792187 129.0500041303049,451.12851659626097 113.17291118600977,455.32599167467345 96.84437634657093,458.0862749748005 80.2218708377179,459.3268052520766 63.47656156340014,458.97998041054524 46.79208226952571,456.9950525353909 30.363066761910375,453.3399418929656 14.39344647089078,448.00294196089595 -0.9054822604007029,440.9942870372131 -15.317212562868463,432.347553783391 -28.622391169017902,422.12086820556164 -40.60137693897161,410.3978900921194 -51.036974997394594,397.2885478224441 -59.717324251514015,382.92949775509896 -66.43891266417353,367.48428410500117 -71.00969135096773,351.14317733395603 -73.25225540419723,334.12267160892185 -73.00705636733278,316.66462482378824 -70.13560854149802,299.03502802428096 -64.52364885013986,281.52239480718765 -56.084207869306795,264.43576536399445 -44.760547897720556,248.1023242788441 -30.528922640473183,232.86463593907504 -13.40111225787652,219.07750643507188 6.573312771002975,207.1044860704093 29.30504526366886,197.31403202321803 54.663457871870236,190.07535623963037 82.47542651274397,185.7539892392599 112.52460254651791,184.70709610519924 144.5511727732694,187.2785864469955 178.25214286829754,193.79406549073394 213.28217574830663,204.555678588914 249.25501156498365,219.83690627510526 285.7454905735942,239.8773714338027 322.2921940459425,264.87772413325104 358.4007117228932,294.9946730974429 393.54753707480813,330.33623559364196 427.1845839114746,370.95727960664476 458.74430971921254,416.8554334874075 487.6454225739449,467.96743873298885 513.2991396668805,524.1660211145215 535.1159564746926,585.2573539646394 552.5128765077983,650.9791850183244 564.9210424854974,720.9996947337809 571.7937008292103,794.9171494755299 572.6144226548226,872.2604073048134 566.9054961071442,952.4903273896044 554.236397042339,1035.0021262283894 534.2322378589548,1119.1287150029514 506.5820878368005,1204.1450424752225 471.04705279672777,1289.2734569763518 427.46799737224086,1373.6900892732936 375.77278981071146,1456.5322455254316 315.9829471166735,1536.9067862634372 248.2195576233349,1613.8994534524147 172.7083588324664,1686.5850933745041 89.78385068696846,1754.0387084302215 -0.10767158907682983,1815.34725617409 -96.40627527032171,1869.6220991428781 -198.43784128881236,1916.0119944891164 -305.4149023256638,1953.7164982937536 -416.4389504054084,1981.999645903095 -530.5042838150573,2000.2037569254164 -646.503448700277,2007.763201845229 -763.2343145636497,2004.217956782192 -879.4088051946226,1989.2267639504948 -993.6632874125214,1962.5797080726634 -1104.5705995437947,1924.2100135716364 -1210.6536799491332,1874.2048639996679 -1310.4007333573752,1812.815044042301 -1402.2818494679757,1740.463205724607 -1484.766964492669,1657.7505642904018 -1556.345032282686,1565.4618357466727 -1615.5442477137278,1464.5682373629854 -1660.9531413782267,1356.2283845597785 -1691.242341681155,1241.7869326494592 -1705.1867784815722,1122.770829816654 -1701.6880818077598,1000.8830685095262 -1679.7969102450793,877.9938459959487 -1638.7349267010845,756.1290711104402 -1577.9161247383374,637.456183033569 -1496.9671968718703,524.2672791168366 -1395.7466274840385,418.95958206289106 -1274.3621876279735,324.01331192149024 -1133.186507263847,241.96706505278755 -972.8704026659627,175.39084008793125 -794.3536430890675,126.85688959124785 -598.872851487785,98.9086151701814 -387.966249303135,94.02776272809444 -163.4749751770981,114.60021291995143 72.45926800659178,162.88069913558328 317.40045412094344,240.95682096238184 568.6285453126643,350.7127545160455 823.1540180904169,493.793091711757 1077.7367052448567,671.567267912837 1328.9090079425287,885.0950608768252 1573.0034815983722,1135.0936629678786 1806.1847449512916,1421.9068426858278 2024.4856045862819,1745.4767201675163 2223.8472274769283,2105.3186839725868 2400.1631325377552,2500.4999727410514 2549.3267093157647,2929.622434823485 2667.281908510878,3390.8099614140465 2750.076685746023,3881.701063805601 2793.918717708054,4399.447032953632 2795.232849290544,4940.716079481139 2750.719672562088,5501.70380456788 2657.41458415825,6078.150296926283 2512.7466179661355,6665.364088455006 2314.596305657244,7258.253131463702 2061.351779640974,7851.36288397306 1751.962302254663,8438.921507013136 1385.98838234209,9014.89208968452 963.6476266260646,9573.031724733646 485.85546921925516,10106.957160357006 -45.740071059362236,10610.216653827852 -628.7304385705646,11076.367550372106 -1259.9261981046034,11499.059007640664 -1935.3450648732355,11872.11918335545 -2650.209017612847,12189.646102545743 -3398.9511397707242,12446.101322604789 -4175.232755946497,12636.405420605803 -4971.971340696094,12756.034239384051 -5781.379574772048,12801.114748299788 -6595.015810343971,12768.5193028458 -7403.846082354469,12655.95702583231 -8198.317668741443,12462.060983229667 -8968.444058797566,12186.469791282605 -9703.90103762012,11829.902269562943 -10394.133436786435,11394.223748448812 -11028.471938600358,10882.502650240329 -11596.259155184072,10299.055991740981 -12086.98403618471,9649.482503495617 -12490.423491914706,8940.682127646154 -12796.78995446115,8180.860743011234 -12996.88343990636,7379.519072774634 -13082.246522610178,6547.424857093935 -13045.320489887572,5696.567519790306 -12879.600814792264,4840.0947245585385 -12579.789968512607,3992.230401075784 -12141.945494513655,3168.174023938168 -11563.621186383325,2383.9811461763547 -10843.999152641136,1656.425422560989 -9984.010516716799,1002.8426040840482 -8986.442490921883,440.9572416813244 -7856.029581356088,-11.306898045124143 -6599.526727927035,-336.0314323936616 -5225.762261384522,-515.5214325023238 -3745.6686685457307,-532.5351475221921 -2172.2892984779996,-370.52330008578406 -520.759316707653,-13.875611368553507 1191.7405784371263,551.8280329268453 2946.0589238478647,1339.5645956453984 4721.177719586131,2360.6161120250463 6494.3467911046455,3624.322344224186 8241.248630297032,5137.841247199799 9936.193703770628,6905.920756077844 11552.345836862261,8930.685499642845 13061.976881466973,11211.442100551692 14436.749458329505,13744.50673707335 15648.02613411206,16523.058610595457 16667.20295478932,19537.02288520409 17466.064814627294,22772.98653813227 18017.15969943954,26214.15038104989 18294.18840958178,29840.32028082228 18272.40594812365,33627.94032385887 17929.030358932985,37550.17033048223 17243.654424303495,41577.009735514126 16198.655288632577,45675.46940983477 14779.596769919954,49809.79250708404 12975.618860874201,53941.72488275148 10779.80871241501,58030.835053227296 8189.547240355437,62034.88304429836 5206.825406752283,65910.23682719348 1838.5242061336303,69612.33436149066 -1903.347561631575,73096.1885645903 -6001.463521424216,76316.93181435278 -10433.043536268042,79230.39587287091 -15169.776391660347,81793.72240373859 -20177.80626040743,83965.99855173548 -25417.78739305587,85708.91137209689 -30845.010928140808,86987.41424644669 -36409.60708026444,87770.39781422359 -42056.82524467407,88031.35739240944 -47727.393757912534,87749.0483629913 -53357.9601798593,86908.12058717503 -58881.61201891369,85499.72256804902 -64228.47681629174,83522.06583893593 -69326.3994457529,80980.9399123124 -74101.69338112156,77890.16809254799 -78479.96154649294,74271.99454262541 -82386.98120490629,70157.39320729708 -85749.6461735113,65586.28953858276 -88496.95849079668,60607.686448628316 -90561.06051909737,55279.68653284247 -91878.2973589163,49669.403364528924 -92390.29839675006,43852.75556090329 -92045.06582167119,37914.13835764214 -90798.05704476443,31945.968601344735 -88613.24715656093,26048.100370951197 -85464.15687763381,20327.109862728168 -81334.83091295426,14895.449709355074 -76220.75122729878,9870.474540366695 -70129.66953196583,5373.3413150747 -63082.34322626694,1527.7897545422559 -55113.159183358584,-1541.1899513499234 -46270.63012008316,-3708.7931016067005 -36617.74885388472,-4851.929148835717 -26232.186533850832,-4850.830224791623 -15206.321942519498,-3590.724825420379 -3647.0902028276964,-963.5601575345638 8324.359309643885,3130.2450624202024 20573.20435812268,8780.03716687027 32951.69713881855,16063.174722836453 45300.12195684577,25043.308908668518 57447.965445194495,35768.72074543964 69215.29898819355,48270.739725832405 80414.37034780982,62562.26901614526 90851.398686998,78636.44276909121 100328.5642645778,96465.44115370707 108646.1810693555,115999.48846344107 115605.03759900994,137166.05908637488 121008.8879059886,159869.31519750544 124667.07196527236,183989.79875033314 126397.24140658499,209384.39869560898 126028.16373760179,235886.61233497714 123402.5754076795,263307.1173266106 118380.051467446,291434.6681038715 110839.85721276801,320037.3273561901 100683.7451068219,348864.0397687161 87838.65849551473,377646.5514439597 72259.30221265536,406101.67436009424 53930.539153771366,433933.89088764304 32869.571320869254,460838.28882513574 9127.863741437577,486503.8126665019 -17207.22992319869,510616.81192493526 -46011.180313341596,532864.8623612232 -77121.37256742713,552940.830955049 -110336.61039770508,570547.1504756131 -145417.06796802353,585400.264616957 -182084.72019896744,597235.1999305778 -220024.2782260967,605810.2162826825 -258884.65224390896,610911.48335712 -298280.95889757155,612357.7268900062 -337797.08476080484,610004.7849308065 -376988.8112944834,603750.0115491742 -415387.50005817926,593536.4631174802 -452504.32989626884,579356.8006633414 -487835.0704004597,561256.8408688324 -520865.3682292145,539338.688152912 -551076.5149174444,513763.3809646348 -577951.6567206358,484752.98698422767 -600982.3988976504,452592.0844162011 -619675.7487433365,417628.5699939952 -633561.3337398579,380273.7387199268 -642198.8235131557,341001.58574761 -645185.4769710789,300347.28717504663 -642163.7291784602,258904.8238417068 -632828.726309333,217323.72048552588 -616935.7115254473,176304.88177583806 -594307.1599801066,136595.51674202614 -564839.5574513107,98983.15389717408 -528509.7144780944,64288.760829067636 -485380.50641292887,33358.994101289114 -435605.92960758373,7057.617864722659 -379435.3651070409,-13743.857499065813 -317216.9438122045,-28176.25223274566 -249399.91115077265,-35383.431859388176 -176535.89491590424,-34533.568796017134 -99278.98712762065,-24830.847183182883 -18384.559558207184,-5527.494718176056 65293.25706257855,24063.986581368405 150805.48820654102,64558.529819018746 237113.6696523058,116486.3020743895 323096.6702005277,180280.75077086303 407558.9963758813,256267.06317609156 489240.574948826,344651.21061935415 566827.9904426957,445509.7532391358 638967.1351580411,558780.5834001043 704277.2088256921,684254.7861844964 761365.9839941446,821569.7934275827 808846.2318876081,970204.003506943 845353.1819799525,1129473.0324081315 869562.8671760893,1298527.752395598 880211.185550727,1476354.2628638863 876113.489353182,1661775.9236049561 856184.4927447438,1853457.5638083431 819458.2717981025,2049911.9606492193 765108.1139672803,2249508.659387296 692465.9598425863,2450485.1826043464 601041.1678463632,2650960.649693666 490538.3229027913,2848951.7991624526 360873.8033183262,3042391.375936727 212190.8164121586,3229148.813923666 44872.61309211376,3407053.110880942 -140446.40519053795,3573917.758495061 -342871.966654237,3727567.5558418664 -561243.8651478714,3865867.099486062 -794132.8053958215,3986750.7087944653 -1039840.3918601985,4088253.5110366917 -1296402.4721473786,4168543.377995887 -1561596.018289766,4225953.374596765 -1832949.6975080932,4259014.350976463 -2107758.2483236655,4266487.282979985 -2383100.7383193253,4247394.94276233 -2655862.736678229,4201052.461524387 -2922762.3881565365,4127096.330887208 -3180380.325726889,4025511.3784901337 -3425193.307181691,3896655.247526253 -3653611.406985274,3741279.909514762 -3862018.5391465533,3560549.7450249093 -4046816.0304380897,3356055.738633733 -4204468.906552958,3129825.3523871386 -4331554.497454416,2884327.6666479646 -4424812.91296279,2622473.4085931433 -4481198.886300715,2347609.5268270248 -4497934.43267239,2063508.0155920943 -4472561.722794202,1774348.7437774504 -4402995.528442509,1484696.1021550584 -4287574.559361861,1199469.3467260008 -4125110.9790960927,923906.5863485691 -3914937.3622584166,663522.4384634964 -3656950.338208248,424059.4571469134 -3351650.156771806,211433.52222726203 -3000175.411197965,31673.466022525965 -2604332.162579643,-109144.6954838169 -2166616.729018435,-204968.46846285567 -1690231.4322988966,-249843.97330274043 -1179092.6351011887,-237994.7806468408 -637830.4530379277,-163903.75948647872 -71779.58815154945,-22397.118831488562 513039.1960805197,191270.25769093854 1109947.353886202,481329.16143282695 1711646.891269803,851411.139083676 2310268.95083434,1304465.4114329212 2897432.72874411,1842678.7895688782 3464314.6821075142,2467399.7879618793 4001727.854223922,3179068.162082564 4500211.007685035,3977151.113028634 4950127.112517876,4860087.401994642 5341770.589820628,5825240.602346065 5665482.562236763,6868862.6857052855 5911773.212833301,7986069.090123015 6071450.2053133175,9170826.352557663 6135751.972927285,10415953.304164145 6096484.542968192,11713136.725146187 5946160.43043111,13052962.236212306 5678138.010426052,14424961.066281576 5286759.66642153,15817673.181531651 4767486.912532326,17218727.089950282 4117030.6049941718,18614936.449265394 3333474.2927790456,19992413.405777887 2416388.7120088823,21336698.378760073 1366935.405316497,22632905.781516906 187957.44733305546,23865884.93800464 -1115944.7173728852,25020395.215368595 -2538354.265949009,26081294.15044945 -4070997.6813034504,27033737.10496627 -5703724.883610862,27863386.74268413 -7424511.427578122,28556630.385540016 -9219484.21770311,29100803.077716913 -11072971.998508083,29484413.970413115 -12967581.652766144,29697373.439037878 -14884301.088925099,29731218.16228293 -16802629.22053827,29579331.23250762 -18700733.237217482,29237154.232607514 -20555633.040536437,28702388.109411042 -22343412.371960625,27975179.60092212 -24039455.79621982,27058289.937481325 -25618710.325927757,25957242.537982296 -27055970.085462358,24680446.46421807 -28326182.01828543,23239292.481453657 -29404770.246501956,21648218.703252506 -30267976.299346887,19924742.97482871 -30893212.04354414,18089459.372645017 -31259421.77843695,16165996.469029631 -31347449.60796765,14180935.329047514 -31140407.87563233,12163685.571950005 -30624042.153185748,10146318.239827551 -29787088.01482977,8163354.669518066 -28621614.611557264,6251511.057635936 -27123349.890742484,4449398.939339354 -25291982.18926443,2797182.365021021 -23131432.869404737,1336193.1506754009 -20650094.670088038,108506.19178246846 -17861030.51585352,-843522.5389798526 -14782127.665859984,-1477752.049767649 -11436202.298177797,-1752782.540481983 -7851049.912857565,-1628507.22676663 -4059437.3022401403,-1066684.614177422 -99032.27928990667,-31525.458965434518 3987732.125935568,1509711.9172694073 8153861.696517606,3586124.8203384476 12348075.31201727,6222575.223521584 16515150.77291798,9439112.414164985 20596342.650260948,13250417.356995834 24529871.780803435,17665277.157899905 28251485.11111558,22686098.199506324 31695083.63185205,28308466.613490995 34793415.1448918,34520764.74655822 37478827.581137,41303852.16090198 39684077.54648437,48630819.47978238 41343187.72973447,56466823.03990203 42392345.77174484,64769007.84092461 42770836.183444515,73486525.68639907 42421995.92553399,82560654.68861993 41294183.33937584,91925025.46310326 39341749.261687815,101505958.36857107 36525998.38027986,111222915.05942772 32816128.209340382,120989066.41526227 28190132.49558557,130711977.60325599 22635655.425475243,140294409.6237201 16150782.702586403,149635235.19727278 8744755.416257774,158630465.2872329 438592.6398638265,167174380.9271926 -8734391.109602094,175160763.35771754 -18728187.040169954,182484213.78558028 -29483824.799336243,189041552.3832897 -40929248.880931355,194733284.46662802 -52979349.897343285,199465120.14545405 -65536160.71216276,203149532.16109225 -78489226.04718877,205707335.12594765 -91716152.5970089,207069267.99184248 -105083344.91024968,207177560.31751168 -118446930.33826,205987461.80726597 -131653874.221445,203468713.67625275 -144543284.19567376,199606939.6865891 -156947900.07410342,194404934.2155603 -168695763.21420935,187883824.48327813 -179612056.6395721,180084084.10236746 -189521104.47751176,171066375.43391633 -198248516.5261306,160912198.8573013 -205623461.00925988,149724327.9990195 -211481045.8490307,137627011.22673985 -215664786.11892805,124765921.30534677 -218029132.77265128,111307837.03414509 -218442035.31442702,97440042.93688446 -216787508.8240935,83369435.65295836 -212968173.71516696,69321328.56868432 -206907734.82613933,55537949.417067304 -198553364.96368507,42276629.04318877 -187877956.86966097,29807683.255952563 -174882206.80838227,18411993.636066526 -159596492.6012094,8378297.310845071 -142082509.00374573,200.00000017400114" stroke="white" stroke-width="1.5" /></svg>