<?xml version="1.0" encoding="utf-8" ?>
<svg baseProfile="full" height="400" version="1.1" width="400" xmlns="http://www.w3.org/2000/svg" xmlns:ev="http://www.w3.org/2001/xml-events" xmlns:xlink="http://www.w3.org/1999/xlink"><defs /><rect fill="black" height="100%" width="100%" x="0" y="0" /><circle cx="200" cy="200" fill="yellow" r="20" stroke="orange" stroke-width="2" /><polyline fill="none" points="199.0247614026437,200.0 199.02289639441227,199.94870652419567 199.02734266940868,199.89759766933517 199.03827919444637,199.84741985291922 199.05580997421387,199.79896113859385 199.07995753224898,199.75304432829049 199.11065696221084,199.71051916306268 199.1477506614281,199.67225367006333 199.19098385770585,199.63912470624064 199.2400010379328,199.61200776271554 199.29434338307138,199.5917661072881 199.35344730859137,199.5792393559467 199.41664420228213,199.575231577447 199.4831614426302,199.58049904781132 199.5521247705824,199.5957377837849 199.6225620755455,199.62157099568265 199.6934086429455,199.658536610473 199.76351389564817,199.70707502518042 199.8316496451102,199.7675172585494 199.89651985040246,199.84007367521195 199.95677186435265,199.92482346115432 200.01100912615277,200.02170503191232 200.0578052390492,200.13050755547982 200.09571935037752,200.25086377024135 200.12331272945093,200.38224427421204 200.1391664168963,200.52395345537923 200.14189979722485,200.67512722390106 200.13018992499846,200.83473269527778 200.1027914142016,201.00156995933318 200.0585566806567,201.1742760529351 199.99645630883848,201.35133123487432 199.91559929756474,201.53106763928116 199.81525292408992,201.71168035949387 199.694861953411,201.89124098754172 199.55406690942843,202.06771360555234 199.39272111727928,202.23897319465107 199.21090622195973,202.4028263945498 199.00894588754142,202.55703451331453 198.78741738409593,202.69933865208606 198.547160776083,202.82748677417152 198.28928543660464,202.93926251232142 198.01517362671513,203.03251547258483 197.72648089799748,203.10519275834682 197.4251330999213,203.15537140447373 197.11331980107653,203.18129137941295 196.79348396518037,203.18138878312658 196.46830775866624,203.1543288413907 196.1406944065094,203.09903827278518 195.81374605649833,203.0147365841394 195.4907376591235,202.90096583379278 195.17508692027403,202.75761839025125 194.87032043658934,202.58496220713434 194.58003617812943,202.38366313413312 194.30786253946349,202.1548037884208 194.05741423774387,201.89989852191385 193.8322453941802,201.62090403724986 193.63580019286485,201.32022522955143 193.47136156738898,201.00071586213005 193.3419984203552,200.66567372232714 193.2505119329358,200.3188299486815 193.1993815702215,199.96433227246092 193.19071143242004,199.6067219751144 193.22617764115753,199.25090442810787 193.30697748337835,198.90211315252319 193.43378106181913,198.5658674122453 193.60668621996675,198.24792343595735 193.825177520058,197.9542194488258 194.0880900543525,197.69081478390729 194.39357886198897,197.4638234350717 194.73909470567168,197.27934250664487 195.12136693377923,197.14337610897624 195.53639411388164,197.06175534260444 195.97944307286045,197.04005510542686 196.4450569167274,197.08350854602094 196.92707252984903,197.1969200707109 197.41864796876067,197.38457789078663 197.91230007040318,197.65016716810118 198.3999524888973,197.99668488074133 198.87299425950548,198.42635758423074 199.32234886400377,198.94056328646923 199.73855363924312,199.539758685065 200.11184923133203,200.22341303267763 200.4322786528905,200.9899498983424 200.68979535163717,201.836698079485 200.87437954674934,202.75985288957816 200.9761619366909,203.75444899940305 200.9855537303798,204.81434594509187 200.89338180460518,205.93222733315258 200.69102764656046,207.099614671333 200.370568603344,208.30689663449368 199.92491983247626,209.54337443689204 199.3479752310928,210.79732382693467 198.63474551871113,212.05607404828754 197.78149156152844,213.3061039232583 196.7858509572226,214.5331550118626 195.6469558502684,215.72236158450332 194.36553992078782,216.85839691953706 192.9440324867402,217.92563520125162 191.38663768145267,218.908328051251 189.69939671752343,219.79079447950744 187.89023132518417,220.55762279317793 185.96896655920233,221.19388275469 183.94733130396008,221.68534603874937 181.8389349717551,222.0187128041365 179.65921908457344,222.18184197389132 177.42538265415058,222.1639826102688 175.15628052823973,221.9560035822704 172.87229415140402,221.5506185572131 170.59517449468694,220.94260320724374 168.34785723809705,220.12900141042257 166.1542506404512,219.1093171473276 164.03899689979497,217.8856887512332 162.02720819099036,216.4630421657268 160.14417896133773,214.8492199007845 158.41507646610978,213.05508245914382 156.86461192908246,211.0945791312018 155.51669511367925,208.98478523011778 154.39407548304294,206.74590306029557 153.51797350679826,204.40122418243485 152.90770603286472,201.9770508567538 152.58030997867317,199.5025749120878 152.55016890169819,197.00971270098898 152.82864727851194,194.5328952576746 153.42373754880256,192.10881327396845 154.33972516034686,189.77611704485028 155.57687697734923,187.5750721057426 157.13115848272847,185.5471718834158 158.9939852100996,183.7347093058711 161.1520137790749,182.18030995760526 163.58697777436493,180.92643001846736 166.27557350189122,180.01482287950387 169.18940037134712,179.4859789798266 172.294960292761,179.37854404623027 175.55372003390244,179.7287215332344 178.92223996602726,180.56966564630667 182.3523720286744,181.93087187589958 185.79152907224488,183.8375724651234 189.1830269932344,186.31014466990297 192.4665002656937,189.3635400379352 195.57839059932948,193.00674322251285 198.45250752635812,197.24226905050625 201.02065874362745,202.06570667216153 203.21334702261265,207.4653196262002 204.96052945770265,213.42171055002927 206.19243376380416,219.90755904566655 206.8404252697227,226.88744087223174 206.83791719693227,234.31773617170995 206.12131577788148,242.14663384359693 204.6309907682143,250.31423846484395 202.31226095804038,258.7527853045948 199.11638340386037,267.3869680105348 195.00153430033149,276.13438244892785 189.9337687051587,284.9060889690504 183.88794573626592,293.6072940419871 176.8486053929125,302.1381508027605 168.81078282587097,310.3946765144654 159.78074570967664,318.2697833862888 149.7766403647747,325.6544175286383 138.82903245038008,332.4387991344307 126.98132840979744,338.5137552539485 114.2900644069315,343.77213480112624 100.82505025194327,348.1102937126725 86.66935677958031,351.42963650029066 71.91913631743108,353.6381988137272 56.68326726257081,354.65225409253776 41.08281537048248,354.39792595203835 25.25030614371252,352.8127866489002 9.32880468052781,349.84742082929694 -6.529198505968338,345.4669328021913 -22.16309487513456,339.65237482639156 -37.405655172084465,332.40207337563265 -52.08471080554537,323.73283007303905 -66.02501074793855,313.680973985133 -79.05024266118994,302.303242254299 -90.9852041537535,289.6774666431109 -101.65810726428725,275.9030444772615 -110.90299647953844,261.10117371600455 -118.56225786442252,245.41483345658907 -124.48919424887686,229.0084930949827 -128.55063891807663,212.06753561805112 -130.6295779300973,194.7973830868701 -130.6277490788242,177.42231527699803 -128.46818367046546,160.18397565477986 -124.09765572965455,143.3395623696417 -117.48900203506929,127.1597057066026 -108.64327554235558,111.92603744168179 -97.591694319478,97.92846174146341 -84.39734812923177,85.46214160796684 -69.15662527504617,74.82421934772591 -52.0003233049799,66.31029409180024 -33.094408666137355,60.210683959438 -12.640392433670911,56.806504986692886 9.124708184331524,56.365603373658274 31.928849738039958,59.13838187847796 55.46590732083371,65.35356523924449 79.39710353289189,75.21395327099306 103.35293617333919,88.89221369820741 126.9356139776617,106.5267697774738 149.72200401738522,128.2178402748326 171.26708825243875,154.02369132433637 191.10792022082364,183.95716104721578 208.7680660207049,217.98251849726225 223.762506650119,256.01271846437083 235.6029714898977,297.9071128668495 243.8036653240111,343.4696778526856 247.88734387275693,392.4478132762157 247.39168545857652,444.53176789376573 241.87589922743538,499.35473941279815 230.9275034108678,556.4936934270298 214.16920053858283,615.4709392784833 191.26577040505302,675.7564940214994 161.93089606310764,736.7712579502094 125.93383327060495,797.8910166290287 83.1058297588377,858.4512750872791 33.346197526769316,917.7529198688434 -23.37206080730462,975.0686940434413 -86.99717165213832,1029.6504591784037 -157.3941560586723,1080.7372067415506 -234.34113994087124,1127.5637695725777 -317.5265048891621,1169.3701720486756 -406.5469715419846,1205.411545517606 -500.9067020463941,1234.9685236253395 -600.0175012638668,1257.3580204812915 -703.200188051499,1271.9442833451233 -809.6871981781075,1278.1501008535777 -918.6264692440898,1275.4680379062672 -1029.0866454073914,1263.4715593702026 -1140.0636258397883,1241.8258969186586 -1250.4884657328025,1210.2985067628556 -1359.2366224463494,1168.7689609327854 -1465.1385221730548,1117.238111277215 -1566.991404424016,1055.836363634 -1663.572382896262,984.8308998102267 -1753.6526420457099,904.6316872326526 -1836.0126691685768,815.7961204909878 -1909.4584022128338,719.0321455889425 -1972.8381541388926,615.199726607955 -2025.060155678601,505.3105257194416 -2065.110540068928,390.5256810703719 -2092.071576035322,272.1515830028444 -2105.139939249949,151.63356730994715 -2103.644797975528,30.547464705392656 -2087.0654759093904,-89.41103171245209 -2055.048444644804,-206.43919462855905 -2007.423389939599,-318.6422735279375 -1944.2180903870449,-424.0506477578896 -1865.6718443665864,-520.6390514435217 -1772.2471815390593,-606.3477695796528 -1664.6395988453373,-679.105673348087 -1543.785068144851,-736.8549309816915 -1410.8650734348494,-777.5771986801103 -1267.308950131197,-799.321064566017 -1114.7933172364535,-800.230487868032 -955.2384153973071,-778.5739458572505 -790.8011898421322,-732.7739729949578 -623.864986922414,-661.4367507245721 -457.0257663399932,-563.3813828222602 -293.07476795344496,-437.66847066833066 -134.97761209459009,-283.6275856696109 14.150144691649615,-100.88322279393623 151.07093098161607,110.62118980464295 272.45644357543915,350.6016543885863 374.9221274898395,618.4147690307527 455.06463712165726,913.0421172257086 509.5020112983784,1233.0782923420027 534.9162432383889,1576.7229498381985 528.0978752549779,1941.777256391105 485.99219802511266,2325.645075126792 405.74658610732763,2725.3391899611547 284.7584558573314,3137.4928296807634 120.72328969574906,3558.3767039386853 -88.31786742153696,3983.9217089998087 -343.93206674580506,4409.747401127491 -647.2499247958198,4831.196270328712 -998.9235792371471,5243.373777229207 -1399.0878224959345,5641.194041682991 -1847.3251108084257,6019.430993972847 -2342.635144970105,6372.774718857789 -2883.409708853393,6695.892640079443 -3467.413432352872,6983.495109146733 -4091.7711164142493,7230.4048782391155 -4752.962218927269,7431.629853937177 -5446.82305133592,7582.438447296713 -6168.557176776518,7678.436757666995 -6912.754431452968,7715.646753795029 -7673.418911985302,7690.584547359118 -8444.006182942478,7600.3377923523685 -9217.469861156153,7442.641189906286 -9986.317627314142,7215.949033404418 -10742.676601501978,6919.503694250134 -11478.367898696359,6553.398925539383 -12184.990053760472,6118.636850195405 -12854.010874430785,5617.17750281441 -13476.867146443383,5051.979811411994 -14045.071478773398,4427.032937192263 -14550.325440527258,3747.3769379932405 -14984.638006014258,3019.111784646295 -15340.448192704313,2249.393839407694 -15610.750650008431,1446.4190019776777 -15789.22283701286,619.391841318546 -15870.35231641187,-221.51983978957156 -15849.562591897096,-1065.2454162863683 -15723.335829146583,-1899.8870783142647 -15489.330728258139,-2712.810771763319 -15146.493759885274,-3490.752333728 -14695.161940266153,-4219.938518394745 -14137.155303491256,-4886.222403184449 -13475.85723429816,-5475.232451847629 -12716.280852806154,-5972.534292805503 -11865.11969511837,-6363.804049710209 -10930.781011597877,-6635.011839521506 -9923.400108603879,-6772.613834097849 -8854.834290003815,-6763.751067264487 -7738.635112014681,-6596.452963565438 -6589.997848704388,-6259.843370544309 -5425.687275291733,-5744.34669661091 -4263.93911135649,-5041.8915945499375 -3124.3367249713956,-4146.1094897214925 -2027.6629799764341,-3052.5251351497736 -995.7274101298742,-1758.736286068483 -51.169223298940835,-264.5795270274288 782.7630265786433,1427.7207418764704 1482.4539154697034,3313.4231441627367 2024.1842338189526,5385.16292940436 2384.412780700474,7632.871190508788 2540.0746083728036,10043.722419852953 2468.8931018851554,12602.112958295105 2149.702930877517,15289.672677944332 1562.7805767896002,18085.311983033655 690.1788234063703,20965.305913601 -483.9386928089774,23903.41679477295 -1972.9670385883428,26871.05649169079 -3787.538040138733,29837.488908552114 -5935.211422859166,32770.07291248818 -8420.18376200181,35634.54537235846 -11243.020067131298,38395.34348289149 -14400.412864982916,41015.96500047702 -17884.973629355052,43459.36445343913 -21685.061329327877,45688.38281250822 -25784.652725232212,47666.20752273455 -30163.25883284091,49356.85921301444 -34795.89169832749,50725.70082097959 -39653.085278474384,51739.96430687145 -44700.97380204339,52369.28958815439 -49901.43049963283,52586.26981525237 -55212.26903213068,52366.99663633005 -60587.50932435916,51691.59867395418 -65977.70882401758,50544.76606723723 -71330.35946088929,48916.25362801392 -76590.34978282054,46801.35492682041 -81700.49089957358,44201.3394716796 -86602.10398067647,41123.84507720282 -91235.66613719171,37583.21754995251 -95541.51057921395,33600.78994431577 -99460.57599109842,29205.093876408508 -102935.19911592556,24431.9957258875 -105909.94360133349,19324.75101003923 -108332.45724299256,13933.970783015226 -110154.34888267207,8317.494596123654 -111332.07538839431,2540.1653518745725 -111827.82837827942,-3326.497707303253 -111610.40966113709,-9204.730618929034 -110656.08376938642,-15011.06255417478 -108949.39546703515,-20656.960317551082 -106483.93974036352,-26049.57860521718 -103263.07153417103,-31092.61375904934 -99300.54239375103,-35687.257314103335 -94621.05122294731,-39733.244147243466 -89260.69658132379,-43129.98850963939 -83267.3183268939,-45777.79968216784 -76700.71697167827,-47579.167448462016 -69632.73986047614,-48440.106054586206 -62147.22421163313,-48271.54383730636 -54339.78817312056,-46990.74427577368 -46317.462346501175,-44522.74287589152 -38198.155711568324,-40801.783054909705 -30109.951539310357,-35772.73307828251 -22190.23070147493,-29392.465133862446 -14584.621759852964,-21631.17683206461 -7445.779333230293,-12473.63481605896 -931.9944778144086,-1920.3197736744178 4794.35684171497,10011.54801832226 9568.518690826113,23287.123399157073 13225.202534574722,37853.21170760419 15600.563550372903,53637.72464371763 16534.28988767725,70549.33548994543 15871.786400182045,88477.3513581216 13466.431961908858,107291.81861301004 9181.887162506355,126843.8758048355 2894.4269944963335,146966.366324955 -5504.728867787381,167474.72058673884 -16107.11740481916,188168.11483818584 -28984.795976048594,208830.91074834825 -44188.20049038551,229234.3766951371 -61744.13105598062,249138.68824077342 -81653.89877086085,268295.2016406859 -103891.6675679648,286448.99042393634 -128403.02487515743,303341.63114448416 -155103.81426768014,318714.22037301783 -183879.26225563965,332310.600922671 -214583.42984519058,343880.77122634405 -247039.0175263232,353184.44775931165 -281037.54986504436,359994.74648178864 -316339.9629112715,364101.94551798765 -352677.61417993734,365317.2877484551 -389753.7310320011,363476.778729743 -427245.3088910698,358444.9324289397 -464805.4659042701,350118.41472919355 -502066.25542337116,338429.53258400125 -538641.9320821177,323349.51512896194 -574132.661323294,304891.5320535534 -608128.6560362242,283113.39414242335 -640214.7175612346,258119.8811617322 -669975.1517675809,230064.64323204255 -696999.0242871104,199151.6235299704 -720885.7123650166,165635.9526243713 -741250.7042540453,129824.26799969093 -757731.5907163849,92074.41636128617 -769994.18709905,52794.50115805674 -777738.7187073816,12441.243389852127 -780705.9969125809,-28482.369826227245 -778683.5086891813,-69430.16730312414 -771511.3381827769,-109816.61695607181 -759087.835551142,-149021.392092667 -741374.9457944696,-186394.67369973482 -718403.1086798231,-221263.17197014185 -690275.640252375,-252936.84023989612 -657172.5068861769,-280716.2440920904 -619353.4044262472,-303900.53773621836 -577160.0577677926,-321795.98900590657 -531017.6602531313,-333724.9835611288 -481435.37757474097,-339035.42826704984 -429005.847473561,-337110.46339225094 -374403.6144193178,-327378.3833718361 -318382.44764308596,-309322.65656787786 -261771.50133334,-282491.92588581896 -205470.28745969242,-246509.86442691254 -150442.44448966125,-201084.75372911585 -97708.29913076044,-146018.6467248417 -48336.2330618405,-81215.97347169285 -3432.8822940676673,-6691.445132978928 35867.78681523145,77422.8892694938 68416.46393991266,170871.57801647842 93061.46528878229,273270.83580811066 108662.59247626764,384104.88429025776 114105.76652492539,502723.69483888696 108318.30652707879,628342.2557756598 90284.70572350423,760041.4754119668 59062.741695938355,896770.8194352434 13799.74226449252,1037352.7661797918 -46251.18521725452,1180489.1463109623 -121715.16591393338,1324769.4144711643 -213080.0263748075,1468680.879593308 -320681.44444455893,1610620.898016429 -444689.01100763696,1748911.009404608 -585093.4384832996,1881812.9699689446 -741695.1524713254,2007546.6108498068 -914094.5015898125,2124309.4219870036 -1101683.816173585,2230297.7336724815 -1303641.5389668169,2323729.3395530167 -1518928.6401286584,2402867.3764633206 -1746287.5146906795,2466045.2484785407 -1984243.5430108807,2511692.355354175 -2231109.473751292,2538360.3594614905 -2484992.764496611,2544749.700828933 -2743805.987406719,2529736.0473747714 -3005280.3763791854,2492396.34727549 -3266982.5582595393,2432034.1330682226 -3526334.473897306,2348203.7129371217 -3780636.455574076,2240732.874073179 -4027093.3858448383,2109743.716395985 -4262843.819503551,1955671.2326319318 -4484991.905624274,1779279.2530734208 -4690641.900900439,1581673.3805780956 -4876935.019311727,1364310.553744917 -5041088.317034015,1129004.8939153547 -5180435.266051516,877929.5148298441 -5292467.625741447,613614.0025003453 -5374878.179415555,338937.30715288187 -5425603.863071425,57115.82889658646 -5442868.77709748,-228313.4760400549 -5425226.539056519,-513515.091299024 -5371601.407612225,-794382.1061348538 -5281327.584813616,-1066568.5586258015 -5154186.0869488,-1325526.9001591313 -4990438.563624099,-1566550.4575016876 -4790857.441180657,-1784820.698290673 -4556751.770542032,-1975459.0329978387 -4289988.171547916,-2133582.8120843004 -3993006.2861557016,-2254365.1019933065 -3668828.1818915536,-2333097.7487093406 -3321061.1848258507,-2365257.163786253 -2953893.6682581357,-2346572.1960058073 -2572083.3792450796,-2273093.383203605 -2180937.9500006707,-2141262.814354198 -1786287.314832382,-1947983.7728225682 -1394447.8353203894,-1690689.278854026 -1012178.0264413583,-1367408.6039714185 -646625.8736966522,-976830.7930395257 -305267.835309666,-518364.20237029414 4160.266640831935,7808.954643082793 273740.14766193426,600684.0683460046 495455.31803432805,1258392.6073043584 661282.1380847245,1978168.5938970658 763286.9918913167,2756324.0351044666 793728.77806196,3588234.215109978 745165.796331925,4468333.694408918 610565.9922634015,5390123.78354033 383419.41097095533,6346192.168296363 57851.606273110156,7328245.257471429 -371263.3442619323,8327153.704232083 -908191.6534798163,9333011.418562533 -1556231.9765686593,10335208.24171566 -2317612.4689166057,11322516.29513708 -3193394.3621570473,12283189.847100183 -4183383.6976546976,13205078.361678505 -5286052.865098257,14075752.208280152 -6498473.58234788,14882640.317578267 -7816262.920045353,15613178.87327857 -9233543.91972434,16254969.930950124 -10742922.276456079,16795948.657449733 -12335480.455863582,17224557.689788964 -14000790.490318919,17529926.923248045 -15726946.550266702,17702056.857866567 -17500618.214142304,17732003.46293813 -19307125.164845727,17612062.3636694 -21130533.82307649,17335950.015602544 -22953776.18926099,16898979.41360091 -24758790.90787078,16298227.785965724 -26526686.29256106,15532693.653289242 -28237924.76000095,14603440.58853879 -29872527.817126255,13513725.002004351 -31410300.433743075,12269105.294315975 -32831073.313201096,10877529.774679199 -34114961.25176731,9349400.83141102 -35242635.456191644,7697612.9690845525 -36195607.37281627,5937562.49201772 -36956521.2747113,4087126.8179730335 -37509452.56015659,2166611.648823337 -37840208.44090682,198664.50615856127 -37936627.4467031,-1791846.5415729699 -37788873.94811616,-3777989.779233957 -37389723.70764989,-5730962.802825409 -36734836.31365653,-7620321.545442799 -35823010.23740611,-9414244.933699375 -34656416.18480158,-11079834.264249442 -33240804.394616354,-12583445.896998325 -31585681.568311907,-13891055.352972906 -29704453.205579635,-14968650.385929555 -27614527.267388538,-15782650.073362945 -25337375.29658658,-16300346.45085529 -22898547.396476578,-16490364.700281905 -20327637.801057268,-16323137.404195407 -17658198.16685399,-15771387.902980214 -14927596.17475728,-14810617.345513105 -12176817.549495487,-13419589.615634114 -9450210.181908274,-11580807.95331571 -6795169.671777387,-9280976.778548727 -4261766.292429644,-6511441.975029747 -1902314.1075585857,-3268602.7068705545 229116.2602882007,445712.2684618972 2077238.9082453542,4623910.857617028 3586144.850422279,9252353.469829308 4699941.162244293,14311125.29995386 5363432.249597769,19773871.677399553 5522837.57300596,25607702.7614622 5126539.323287551,31773173.421784963 4125852.7364205318,38224343.59867945 2475810.9633893003,44908923.791756295 135955.68769819633,51768509.577923566 -2928875.9787429073,58738908.2138454 -6747778.379187965,65750559.43732609 -11343028.53575352,72729051.55217488 -16729372.679090774,79595732.76872377 -22913359.345780533,86268416.58564952 -29892730.480857357,92662178.74788468 -37655882.02800884,98690242.01142102 -46181405.39536055,104264943.60141769 -55437720.94211896,109298778.87920214 -65382814.2338396,113705513.35180646 -75964085.25627916,117401353.78105278 -87118320.05587593,120306167.79536183 -98771793.38689359,122344740.09480827 -110840509.89105201,123448052.08752567 -123230590.11707251,123554570.62303881 -135838806.30911815,122611530.41537179 -148553271.36106426,120576193.79589926 -161254282.6566366,117417070.62273763 -173815320.70490882,113115080.51951829 -186104200.5499688,107664639.14039764 -197984371.89878172,101074649.87803243 -209316361.79069328,93369382.36354811 -219959351.44629264,84589219.26734577 -229772876.70528778,74791253.31016137 -238618639.21758226,64049717.04628074 -246362413.31556055,52456228.893939964 -252876031.29722196,40119840.06784187 -258039427.71907204,27166868.51855831 -261742721.26565954,13740507.703418775 -263888310.86118016,200.0000003231702" stroke="white" stroke-width="1.5" /></svg>