<?xml version="1.0" encoding="utf-8" ?>
<svg baseProfile="full" height="400" version="1.1" width="400" xmlns="http://www.w3.org/2000/svg" xmlns:ev="http://www.w3.org/2001/xml-events" xmlns:xlink="http://www.w3.org/1999/xlink"><defs /><rect fill="black" height="100%" width="100%" x="0" y="0" /><circle cx="200" cy="200" fill="yellow" r="10.000000046759524" stroke="orange" stroke-width="2" /><polyline fill="none" points="200.5711723032221,200.0 200.54398120039306,200.0285565280701 200.51155128893282,200.05385662822226 200.4740454890194,200.07520886521314 200.43170441401628,200.09191938220866 200.38484870051246,200.10330019827663 200.33388050284947,200.10867798284247 200.279284077713,200.10740322970923 200.2216253907078,200.09885974308176 200.1615506844451,200.0824743382836 200.09978395654537,200.05772665065908 200.03712330606976,200.02415893766874 199.9744361181968,199.98138575155957 199.91265306939667,199.929103353385 199.8527609488456,199.86709873370205 199.79579430626964,199.79525810114075 199.74282595169444,199.7135746973546 199.69495634857236,199.6221557957571 199.65330195830887,199.5212287420441 199.618982611147,199.4111458969031 199.59310799550775,199.2923883456081 199.5767633750261,199.1655682454691 199.57099465945353,199.03142969039766 199.57679297209242,198.89084798220213 199.59507887225453,198.7448272106428 199.62668640614928,198.5944960587447 199.67234717336348,198.44110176634058 199.7326746084445,198.28600220322767 199.80814868779197,198.1306560235723 199.89910128086095,197.97661089515256 200.00570237133925,197.82548982053848 200.12794737826312,197.67897559217786 200.26564580876212,197.53879344936811 200.41841147308622,197.40669203200287 200.58565448859093,197.2844227535119 200.7665752922924,197.17371774326315 200.9601608713376,197.07626653654063 201.16518340717394,196.99369171770658 201.38020151230086,196.9275237489335 201.6035642182245,196.87917524257077 201.83341784964773,196.84991495939863 202.0677158930777,196.8408418373189 202.3042319380403,196.85285937503141 202.5405757361169,196.88665071254826 202.77421238727368,196.9426547646027 203.0024846246981,197.02104377374124 203.2226381288971,197.12170265676755 203.43184975950467,197.24421052090509 203.6272585494917,197.3878247242359 203.80599926172275,197.551467848386 203.96523826254324,197.7337179398187 204.10221142184457,197.93280235927787 204.21426370440125,198.14659555675232 204.2988900738032,198.37262106172633 204.35377728863207,198.60805794542313 204.37684613129923,198.84975197327887 204.36629357381753,199.09423162212485 204.32063435238464,199.33772908769186 204.2387413946595,199.5762063543524 204.1198845206622,199.80538634082396 203.96376682094368,200.02078907329644 203.77055810465058,200.2177727716187 203.54092480590566,200.39157966536345 203.27605574004983,200.53738628544417 202.97768311219443,200.6503579042078 202.64809819960175,200.72570672337338 202.29016115695393,200.75875333569022 201.9073044298141,200.7449909136653 201.50352930665588,200.68015150812883 201.08339519377563,200.5602737717762 200.65200126012022,200.38177135918113 200.2149601703786,200.1415011961813 199.77836370427903,199.83683075905654 199.34874014747552,199.46570345861662 198.93300343412946,199.0267011872346 198.53839412261127,198.51910305901077 198.17241239283655,197.942939355603 197.84274336567108,197.29903968370675 197.5571751605189,196.5890743555437 197.32351022545885,195.81558802174817 197.14947059382146,194.9820246173534 197.04259784049458,194.09274272667076 197.0101486290236,193.15302053208998 197.0589868551519,192.169049585414 197.19547350219273,191.147916728328 197.42535542684726,190.09757359085313 197.75365438905794,189.0267932128405 198.18455772448783,187.94511346320363 198.7213121315084,186.86276707395953 199.36612210447404,185.79059826032676 200.1200545899131,184.73996606299062 200.9829514705094,183.72263472285073 201.95335149192084,182.7506515805769 203.0284232382469,181.83621318137273 204.20391073212681,180.99152045754607 205.47409318402228,180.22862405570373 206.8317603413977,179.55926106933416 208.2682047916863,178.99468462879358 209.7732324527722,178.5454879867035 211.33519234117614,178.2214249148359 212.94102654140875,178.03122839596017 214.5763411105851,177.9824297480581 216.22549844120832,178.081180455958 217.87173137319903,178.33207910399872 219.49727909527036,178.73800590005163 221.08354460746682,179.29996735343832 222.61127323327648,180.01695371444563 224.06075137370516,180.88581179888092 225.41202438990163,181.90113580526605 226.64513218850036,183.05517868291787 227.7403607682394,184.33778652467578 228.6785076713343,185.7363583371117 229.44115897249603,187.2358333827573 230.01097513653787,188.81870809267403 230.37198278655873,190.46508431347527 230.5098691531827,192.15275038105392 230.41227572582278,193.85729620463363 230.06908740399908,195.55226320072708 229.47271325493205,197.20932953905213 228.6183548274177,198.7985307538869 227.50425785570621,200.2885153377359 226.1319431148658,201.64683447308747 224.50641216476976,202.84026457656284 222.63632374690772,203.83516083251456 220.5341366797981,204.5978393852545 218.21621523750537,205.0949853461872 215.70289319374214,205.29408326023454 213.01849297277158,205.16386617150022 210.19129666866957,204.67477893790957 207.25346607659694,203.799450975625 204.24090932295877,202.51317317363566 201.1930921842637,200.79437331444302 198.15279274489012,198.6250839756501 195.1657986586925,195.9913965769042 192.28054694442994,192.88389498430516 189.5477069554727,189.2980618970958 187.0197079143387,185.23465112588445 184.75021318565973,180.70001883405246 182.7935442696359,175.70640686006334 181.20405832355843,170.27217137314418 180.0354838524298,164.4219503425104 179.34022004126086,158.18676362436207 179.16860602079194,151.60403989369024 179.56816715416173,144.71756517087078 180.58284619295915,137.57734831628008 182.25222786534331,130.23939958870878 184.6107661144936,122.76541918283499 187.68702379046934,115.2223935737535 191.5029351006056,107.68209849741582 196.0731015310566,100.2205084782893 201.40413225362,92.91711397156938 207.49404021668664,85.85414840743927 214.33170517694109,79.11572869826998 221.89641485006385,72.78691408402486 230.15749513602202,66.95268953285608 239.07404000068038,61.69688126810607 248.59475106494338,57.10101334364475 258.65789626156993,53.24311551962958 269.19139606601436,50.19649398246841 280.11304479087835,48.02847768732531 291.3308732555338,46.79915425976486 302.7436578070534,46.560110455562125 314.2415791818391,47.35319312466356 325.70703306762516,49.20930743726694 337.01559246355544,52.14726978785379 348.0371200548509,56.17273327823315 358.6370268336226,61.27720397565662 368.6776711263766,67.43716623043264 378.0198900517142,74.61333520423337 386.5246532508113,82.75005439231265 394.05482653266324,91.77485530894586 400.4770308818577,101.5981956367557 405.66358011651505,112.11339101093884 409.4944783871813,123.19675421532055 411.859456704178,134.70795390827624 412.6600258024128,146.4906030757719 411.81152093065157,158.37308523243314 409.24511261865985,170.16962396962296 404.9097561621255,181.68159879566105 398.7740515029757,192.69910734504887 390.82798440161923,203.00277097216104 381.0845193263534,212.36577751552258 369.5810143502704,220.5561516503877 356.3804285716964,227.3392397724911 341.57229318184613,232.480392810639 325.27341831099693,235.74782678964007 307.62830920632615,236.91563740035497 288.8092671406885,235.7669413254803 269.01615272747114,232.0971136655083 248.4757920227271,225.71708755842445 227.44100892722037,216.45667903983644 206.1892709473106,204.1678973989205 185.02093931850504,188.7281988016886 164.25711881653862,170.04363882807786 144.23710724953793,148.05187785374065 125.31544960632792,122.72499194991259 107.85860708926076,94.07204122168275 92.24125673792832,62.14134729954219 78.84224299966917,27.02243208046687 68.04020836510145,-11.152429182444365 60.20893599788758,-52.20708568945949 55.71244307851765,-95.92086272369778 54.89986927870109,-142.0284270049773 58.10021030882737,-190.22020195752395 65.61695175569926,-240.14336466732658 77.7226633689305,-291.40345120031554 94.65361847822282,-343.5665911744736 116.60450724596089,-396.1623860540607 143.7233158965648,-448.68743859906954 176.10644683386772,-500.6095333044275 213.7941565812955,-551.3724595581323 256.7663896816657,-600.401460702383 304.9390870040289,-647.1092832736023 358.16104626056995,-690.9027915126838 416.2114108812407,-731.1901028714904 478.79786068037413,-767.3881907999859 545.5555739409979,-798.9308916928821 616.0470256127935,-825.2772436245059 689.7626802551215,-845.920075531536 766.1226311564624,-860.3947569454838 844.4792287396625,-868.2880103643995 924.1207319468878,-869.2466810225535 1004.276005833071,-862.9863523045215 1084.1202771417547,-849.299689492062 1162.7819472688564,-828.06439006154 1239.3504488306692,-799.2506154947878 1312.8851181514447,-762.927777649167 1382.425041498496,-719.2705522666955 1446.9998179599186,-668.563993290338 1505.641166637426,-611.2076243886011 1557.3952904848948,-547.7183885435061 1601.3358938443262,-478.73234279171163 1636.577735709821,-405.0049932657962 1662.2905861906947,-327.4101755842561 1677.7134397591676,-246.93739738499892 1682.1688258740658,-164.6875733654985 1675.0770456909895,-81.86709853651604 1655.9701530237728,0.21977755656101294 1624.5054887325055,80.18029423809722 1580.4785704959315,156.5442391920966 1523.8351346890174,227.77670103425362 1454.6821240280656,292.29246934780144 1373.2974139494113,348.47201300244024 1280.1380725208126,394.67894329523034 1175.8469531934463,429.2788437080974 1061.2574270101893,450.65932314514964 937.3960710891831,457.25112469199337 805.4831433674983,447.55009754480426 666.9306897526909,420.1398161210956 523.3381489898907,373.7146078317659 376.48534267110466,307.1027299192949 228.32276281473085,219.2894165096839 80.95909720879438,109.43949994713488 -63.35403691884056,-23.08070406096587 -202.2401475699342,-178.6825696148664 -333.21867272758107,-357.5357226624966 -453.72846014519723,-559.5503273423611 -561.1538088095488,-784.3614330976816 -652.8529192397066,-1031.3157159491263 -726.1885595659629,-1299.4609398792434 -778.5607138225181,-1587.5384522953818 -807.4409385693755,-1893.97901084353 -810.4081143468953,-2216.9022173356047 -785.185240100928,-2554.1198081724874 -729.6768821580121,-2903.143019396167 -642.0068551546932,-3261.194208450032 -520.5556811173891,-3625.222873992472 -363.9973452361372,-3991.9261698898144 -171.33484335942762,-4357.773960071806 58.06600257258347,-4719.038407598605 324.4449984934719,-5071.828034465637 627.618846689656,-5412.126128835198 966.9557754267414,-5735.833314073213 1341.354071177096,-6038.814029796108 1749.225042641153,-6316.946609770293 2188.480926089691,-6566.1765756877385 2656.5282142338842,-6782.572700354632 3150.26685568233,-6962.38532951375 3666.0957289807184,-7102.1063892509055 4199.924744258545,-7198.530446627348 4747.193866730238,-7248.816135765611 5302.899289925176,-7250.547211048617 5861.626912869178,-7201.7924443244265 6417.593194937301,-7101.163544985937 6964.693375287294,-6947.8702514422475 7496.556951322711,-6741.77172070756 8006.610213295355,-6483.423330447894 8488.145530823374,-6174.118005630613 8934.396982767365,-5815.921190627066 9338.621815668095,-5411.69860784408 9694.187109001245,-4965.135976229337 9994.660919129601,-4480.749907710053 10233.907069392217,-3963.889257064231 10406.182652694106,-3420.726271025646 10506.237216729372,-2858.2369655742164 10529.412512108851,-2284.170256189545 10471.74160171473,-1707.0054740038177 10330.046057117352,-1135.8980207609966 10102.029906400376,-580.6130465717067 9786.368948751444,-51.447175760726964 9382.794016131324,440.8615434365632 8892.166742607555,885.2351312199258 8316.546398798564,1270.368111697909 7659.246363471555,1584.8502229367261 6924.878837679394,1817.298560344823 6119.3864597475185,1956.4981383636348 5250.059552585885,1991.5496826293852 4325.537828649328,1912.02329516547 3355.79549261635,1708.11647108335 2352.108817481461,1370.8147891244996 1327.0054259602282,892.0534526388387 294.1946853348287,264.87772477805356 -731.5211807373795,-516.3998156985233 -1734.3554465122559,-1456.047371057562 -2697.6646576130192,-2556.769625797998 -3604.0955319048785,-3819.573360927433 -4435.750438460446,-5243.6453212312645 -5174.370637280911,-6826.2446798821475 -5801.536186647235,-8562.612420298672 -6298.8811443091745,-10445.899900230621 -6648.322406343018,-12467.118776266083 -6832.30024681882,-14615.11434726784 -6834.028346020236,-16876.564221939483 -6637.750828635085,-19236.00402845134 -6229.003580002469,-21675.881662876338 -5594.876872185055,-24176.641318577855 -4724.276116412384,-26716.838251585632 -3608.177368401945,-29273.284918783742 -2239.8740522609664,-31821.228778294517 -615.2112410617522,-34334.56166714039 1267.1962584236865,-36786.06027295496 3405.7658193401016,-39147.65679754474 5795.772715276064,-41390.738474310056 8429.203415333359,-43486.47415319182 11294.640130845371,-45406.165710687164 14377.180148516512,-47121.62158369529 17658.39328892327,-48605.54927006778 21116.320578836647,-49831.96319159528 24725.516920153324,-50776.60388292112 28457.140177466412,-51417.36405890853 32279.08869126214,-51734.71672983247 36156.18875592571,-51712.140185054806 40050.43308346559,-51336.53435822048 43921.27070818383,-50598.62282705176 47725.948178295694,-49493.33449495311 51419.90123240095,-48020.15885605535 54957.1954771822,-46183.468665863926 58291.013874000324,-43992.803831760546 61374.18811316911,-41463.110406126994 64159.77021333084,-38614.92871407815 66601.6399379145,-35474.524881262056 68655.14288014294,-32073.960347647797 70277.75334199483,-28451.094362510703 71429.7554309335,-24649.514954802886 72074.93513145523,-20718.394461565604 72181.27548719925,-16712.26637366724 71721.64646429331,-12690.721020423505 70674.48056855961,-8718.018458844617 69024.42486888108,-4862.617854312629 66762.95974684246,-1196.623631142359 63888.9744587637,2204.850273906337 60409.28946992343,5264.395613412796 56339.11551089824,7903.100892042663 51702.439420455674,10041.413510842058 46532.32708523734,11600.067008646696 40871.13416928357,12501.066204877987 34770.61585070423,12668.721845069645 28291.927451444102,12030.725171434136 21505.508660469397,10519.251701901972 14490.845010455396,8072.082419208561 7336.10137097644,4633.729564038443 137.62346315480505,156.5533104739992 -7000.695224417891,-5398.145204423237 -13968.182239119786,-12059.069704791726 -20648.290193784527,-19843.929197885966 -26919.63381299262,-28758.509113861306 -32657.155983539138,-38795.82948439909 -37733.41692217247,-49935.40649242664 -42019.998647104425,-62142.63353407777 -45389.01498134228,-75368.29752935929 -47714.715347821184,-89548.24559049029 -48875.16866244341,-104603.21629938803 -48754.011716744404,-120438.84875364411 -47242.244593435855,-136945.8812113516 -44240.05390294798,-154000.5496000308 -39658.642995387636,-171465.19435729345 -33422.04681850553,-189189.08204759285 -25468.907786811593,-207009.44596046265 -15754.187928089012,-224752.74745447803 -4250.791708734332,-242236.15718461224 9048.926664974912,-259269.25255894376 24131.79799144296,-275655.9248374836 40962.6413962177,-291196.48623826524 59483.26244539137,-305689.9642839861 79611.6715965183,-318936.56743976095 101241.54750476405,-330740.3028951381 124241.96829925511,-340911.7241701993 148457.43216038376,-349270.7831174288 173708.18635979746,-355649.7578911569 199790.88137216106,-359896.22560926544 226479.56373759444,-361876.04578318686 253527.0180571421,-361476.3181883013 280666.46485716547,-358608.276733852 307613.61708411586,-353210.07911531534 334069.0937162248,-345249.4506374199 359721.1844363122,-334726.1396255426 384248.95453865296,-321674.1413376149 407325.67428691505,-306163.64728529763 428622.551848597,-288302.67740573635 447812.7437586082,-268238.35362296004 464575.6116695019,-246157.77502516174 478601.1889914873,-222288.45717912912 489594.81597861525,-196898.30101820387 497281.8969484535,-170295.06028058394 501412.72870355786,-142825.28063836673 501767.34492836165,-114872.6884344322 498160.3174399356,-86856.01231572802 490445.45175051823,-59226.22699072603 478520.3115282402,-32463.214809953894 462330.5042925285,-7071.847826676719 441873.6591218511,16422.499613937674 417203.02634949377,37478.989947406044 388430.62923861947,55546.88725467941 355729.89851544274,70071.613771515 319337.72244639636,80501.25548721844 279555.84791076626,86293.46583594027 236751.57167417355,86922.70811102758 191357.66583003363,81887.76903790096 143871.4871540226,70719.46803740218 94853.22690663103,52988.47921734658 44923.26540476577,28313.17616581137 -5241.395565566468,-3632.5966924406716 -54911.63975095068,-43111.92795281079 -103311.68956706978,-90317.52472017652 -149625.5007660714,-145364.78977988503 -193004.0820051343,-208285.4030039572 -232573.71006216464,-279021.5208180755 -267444.99833838595,-357420.7074963457 -296722.7628304609,-443231.7105732559 -319516.61609056394,-536101.1896890231 -334952.2059776408,-635571.5036524503 -342183.00240417116,-741079.6543665382 -340402.52197699103,-851957.4784850943 -328856.86760334077,-967433.1682405374 -306857.4479758921,-1086634.1918107835 -273793.7305591339,-1208591.6709040084 -229145.87147267433,-1332246.2589838954 -172497.05670326838,-1456455.5478071342 -103545.38157275225,-1580003.0127951498 -22115.08953469112,-1701608.4893330333 71833.01264823096,-1819940.1525241868 178192.14830845443,-1933627.9523962764 296701.3576703449,-2041278.435243611 426938.6603899722,-2141490.859915973 568315.7712949712,-2232874.495658542 720074.5393527291,-2314066.965825833 881285.2698543426,-2383753.4797070413 1050847.077098074,-2440686.7730983533 1227490.399469697,-2483707.5574408807 1409781.790759664,-2511765.257622549 1596131.080874323,-2523938.800237371 1784800.9758718167,-2519457.197528302 1973919.1416014512,-2497719.657733024 2161492.787305028,-2458314.9404242206 2345425.735545084,-2401039.6659968207 2523537.9329925706,-2325915.282002399 2693587.3232083092,-2233203.3858456253 2853293.967898726,-2123419.103697483 3000366.267564296,-1997342.2295771972 3132529.0963704665,-1856025.8366101028 3247553.6298688385,-1700802.0846465917 3343288.608324209,-1533284.964852838 3417692.7433292544,-1355369.7426373104 3468867.9416023106,-1169228.885389565 3495092.987872113,-977304.2909593766 3494857.29907453,-782295.6665190726 3466894.335244035,-587144.945295915 3410214.229001273,-395016.6704406963 3324135.1759347636,-209274.3207566348 3208313.1129528247,-33452.60183112422 3062769.2013244955,128774.22209187377 2887914.626089823,273627.8258323325 2684572.2242198493,397264.9645662555 2453994.460719926,495820.0148519241 2197877.2851218856,565450.6128968436 1918369.4207673927,602386.0287495309 1618076.6661469694,602977.8568319932 1300060.8214554826,563752.5462765762 967832.894504663,481465.23969144997 625340.2881608884,353154.33707594406 276947.7264269387,176196.15348266374 -72588.26206036804,-51641.00447049809 -418151.41630691674,-332144.0561475564 -754304.4101988167,-666604.4031005218 -1075334.0744383668,-1055769.9930854507 -1375303.048646148,-1499800.9776681927 -1648107.650731042,-1998229.7571679878 -1887541.658993279,-2549926.2053162823 -2087365.6084387817,-3153068.854689508 -2241381.1074581724,-3805122.802183047 -2343509.585456639,-4502825.061098341 -2387874.7873846777,-5242178.042493197 -2368888.238653513,-6018451.793091792 -2281336.814918558,-6826195.550185759 -2120471.4670192343,-7659259.09564714 -1882096.073342706,-8510824.301620787 -1562655.3214164567,-9373447.160031226 -1159320.4590135363,-10239110.477248231 -670071.703838383,-11099287.294790028 -93776.06127783623,-11945014.96765472 569740.7269772445,-12766979.694775112 1319629.3932131683,-13555611.152375916 2153960.8000288447,-14301186.732014561 3069679.3110682573,-14993944.73231255 4062567.108647709,-15624205.698477922 5127220.637199001,-16182500.948467115 6257040.2796202,-16659707.17094222 7444234.283215381,-17047185.83006876 8679837.842792569,-17336925.96776999 9953748.120781237,-17521688.85749065 11254775.838269813,-17595152.837047197 12570713.907243367,-17552056.534004763 13888423.393873787,-17388338.597466554 15193936.906601148,-17101271.967410192 16472579.292330196,-16689590.648904564 17709105.30101465,-16153606.915760694 18887853.645139303,-15495316.848347075 19992916.638329476,-14718492.115217177 21008324.34895861,-13828755.939456556 21918241.952876408,-12833641.249624923 22707178.71714071,-11742629.10297704 23360206.797016203,-10567165.586128049 23863187.78477806,-9320655.546011826 24203004.714463532,-8018431.682053146 24367797.00517939,-6677697.738751272 24347195.620525535,-5317444.775790965 24132555.536784485,-3958339.759379651 23717182.451403927,-2622586.0123610413 23096550.52956062,-1333755.379946561 22268507.883742925,-116592.31036936256 21233466.41266414,1003209.5873085216 19994572.594576415,1999257.5657594288 18557855.839080513,2844735.0058527566 16932351.053409062,3512700.186782916 15130192.17612141,3976406.4104646593 13166673.57500626,4209640.920962765 11060276.39808651,4187079.6542685106 8832657.207809083,3884654.457999774 6508596.5190631505,3279929.040157968 4115905.2012973293,2352479.5466804076 1685287.0927618071,1084275.3350617941 -749843.3908188269,-539944.7882786746 -3153589.392308479,-2532305.8600057387 -5487845.713354543,-4901444.790534562 -7712618.540785139,-7652178.508478195 -9786389.870826527,-10785197.704089638 -11666525.084301164,-14296791.706148049 -13309721.48532385,-18178610.010432255 -14672494.959668508,-22417465.891889986 -15711701.244042978,-26995187.373246573 -16385087.631684093,-31888520.58717846 -16651870.28118785,-37069090.255122654 -16473331.653007504,-42503421.61196314 -15813431.980647475,-48153027.63178248 -14639428.100614898,-53974564.856118575 -12922492.426219901,-59920060.494268656 -10638324.364995984,-65937212.75777596 -7767746.057466931,-71969765.6120418 -4297273.9657113645,-77957958.28193443 -219657.57288444653,-83839048.9413476 4465623.721634335,-89547911.05611303 9751914.504211104,-95017699.84383799 15624997.009525659,-100180585.27262692 22062773.364499133,-104968546.95378074 29035024.972340524,-109314225.20306414 36503257.209472604,-113151821.46350281 44420637.09456458,-116418040.21329471 52732030.94573125,-119053063.43943672 61374148.268422246,-121001547.7557993 70275797.2135491,-122213633.29886726 79358255.91553093,-122645952.66072708 88535762.86749367,-122262627.33280337 97716128.22197697,-121036238.4509974 106801466.52814737,-118948758.06862292 115689049.9405845,-115992426.75288011 124272279.37193799,-112170563.01783286 132441769.42578676,-107498289.98539363 140086541.25229818,-102003164.71797805 147095315.73502585,-95725695.903278 153357897.66120335,-88719736.00238863 158766639.77063632,-81052734.60499981 163217973.8415033,-72805840.57512882 166613994.27804813,-64073841.621387124 168864078.03922898,-54964931.18806978 169886523.21369496,-45600294.03594516 169610187.13011783,-36113503.560215876 167976103.6185795,-26649725.770710196 164939057.93360233,-17364726.92583656 160469096.93777576,-8423684.054214206 154552951.4507962,199.99999981072747" stroke="white" stroke-width="1.5" /></svg>