<?xml version="1.0" encoding="utf-8" ?>
<svg baseProfile="full" height="400" version="1.1" width="400" xmlns="http://www.w3.org/2000/svg" xmlns:ev="http://www.w3.org/2001/xml-events" xmlns:xlink="http://www.w3.org/1999/xlink"><defs /><rect fill="black" height="100%" width="100%" x="0" y="0" /><circle cx="200" cy="200" fill="yellow" r="10.000000001609344" stroke="orange" stroke-width="2" /><polyline fill="none" points="201.428363633598,200.0 201.41362864770508,200.07420904643348 201.38869741981344,200.1462034448357 201.35347317160856,200.21473293954065 201.30798978357913,200.27849984604816 201.25242042406464,200.33617179416035 201.18708503332115,200.38639574872687 201.11245649314102,200.4278132189016 201.0291653175728,200.45907654605364 200.93800270768415,200.47886613968967 200.83992182315396,200.4859085101933 200.73603713581474,200.47899492713864 200.62762174510718,200.45700051267525 200.5161025527353,200.41890356130023 200.4030532135772,200.3638048605305 200.29018480202794,200.29094677186498 200.17933415731355,200.1997318182827 200.07244989775992,200.08974051365587 199.97157612234514,199.96074816115365 199.87883384787594,199.81274034224657 199.79640026155403,199.64592681555564 199.72648590123163,199.46075354575396 199.67130990897658,199.25791258724135 199.63307353730426,199.03834955554828 199.61393212120325,198.80326843153725 199.61596576245975,198.55413345956103 199.64114900533454,198.2926679208799 199.69131981390422,198.02084958784914 199.76814819086917,197.7409026926403 199.87310480487184,197.45528627646945 200.00743001786643,197.16667882134092 200.17210372535234,196.87795910598203 200.3678164398423,196.5921832706923 200.59494206131842,196.31255812195243 200.8535127871886,196.04241075646408 201.14319661797308,195.78515463539574 201.46327791324128,195.54425229250953 201.8126414448432,195.32317491400136 202.18976038094064,195.1253590827106 202.59268861450792,194.9541610342116 203.01905782365992,194.81280882650464 203.46607961827578,194.70435287786069 203.93055308788348,194.63161537809677 204.40887801970604,194.5971391263882 204.8970740032754,194.6031363928789 205.39080557931868,194.65143844102892 205.88541352602783,194.74344638205233 206.37595230574664,194.88008406116134 206.85723362005345,195.06175369689265 207.32387594178357,195.28829500881926 207.7703598094175,195.55894857477188 208.19108858324725,195.87232415568164 208.58045427469935,196.22637471376018 208.93290797109867,196.61837682747677 209.24303428904108,197.04491817429303 209.50562920150978,197.5018927090924 209.71578049809148,197.98450411252279 209.8689500553379,198.48727801901015 209.96105701673565,199.00408345907945 209.98856091017404,199.52816386505916 209.9485436665264,200.05217789360958 209.83878944727888,200.56825021332097 209.65786114331644,201.0680322915412 209.4051723722391,201.54277309243918 209.0810537791107,201.98339946906853 208.68681243643366,202.38060589699862 208.2247831444093,202.72495305721176 207.69837045307858,203.00697463284973 207.11208026451087,203.21729153959714 206.47153992643882,203.34673266469827 205.7835057990769,203.38646104662178 205.05585736458303,203.32810428811374 204.29757705379754,203.16388786179252 203.51871508738486,202.88676984158573 202.7303387679439,202.49057547726875 201.9444658154463,201.97012992524162 201.1739815096625,201.32138735856537 200.43253958895352,200.54155460523253 199.7344470535966,199.62920740766634 199.09453323207492,198.58439736043297 198.5280036886539,197.40874756890034 198.05027977799327,196.10553508071675 197.67682488518346,194.6797581759679 197.42295862490226,193.1381866619406 197.30366050861187,191.4893934055795 197.33336482093006,189.7437654516923 197.52574867241805,187.913493218181 197.89351541281104,186.01253643115191 198.44817579285694,184.05656566245858 199.199829451033,182.0628785594533 200.15694947007051,180.05029011048302 201.3261728940295,178.03899656858374 202.71210021628778,176.05041295812188 204.31710693899774,174.1069844125997 206.14117036222765,172.23197193388762 208.18171478324567,170.44921352075056 210.43347827057644,168.78286198429566 212.88840412120865,167.2571011460965 215.53556001064894,165.8958424971041 218.36108770279176,164.7224047775582 221.34818599862916,163.759179315199 224.47712936897045,163.02728432611826 227.72532443641356,162.54621173434282 231.06740614620475,162.33347039731092 234.475375095331,162.40422992928026 237.9187770758279,162.7709695878486 241.3649254341067,163.44313692464806 244.77916635603242,164.42682109446454 248.12518666109446,165.72444586227073 251.36536313256383,167.33448743992443 254.46115182892248,169.25122231888102 257.37351522064785,171.46451023790274 260.06338438178943,173.9596173316116 262.49215284444233,176.7170843435796 264.622198103484,179.71264455387137 266.4174261465548,182.91719576366776 267.84383378841056,186.29683029769387 268.87008301797727,189.81292652841537 269.46808102947335,193.42230489501188 269.613559114776,197.07745078662765 269.2866431518156,200.72680598598248 268.4724080421517,204.31512962979699 267.1614081388408,207.78392884140987 265.3501754717822,211.07195833429316 263.04167743008225,214.115787379837 260.2457255072055,216.85043158677917 256.9793267617621,219.21004596204557 253.26696980085975,221.1286747235862 249.1408373593028,222.5410523260234 244.640937930727,223.38344915142858 239.81514940908656,223.5945543229396 234.7191683224842,223.1163871315256 229.41635898654772,221.8952276398605 223.97749777026422,219.88255615624726 218.48040865069524,217.03599047038853 213.00948732997276,213.32020902616983 207.65511239235656,208.70784758908232 202.51294328314629,203.18035646178416 197.68310628532294,196.7288049244497 193.2692711426463,189.35461934019338 189.37762251650153,181.07024128233115 186.11573205334057,171.8996921208354 183.59133846373308,161.87903076002877 181.91104465495314,151.056691656849 181.1789425973777,139.49369087568462 181.49517822022273,127.26368875671997 182.9544702026371,114.45289879272657 185.64459802939507,101.15983352485507 189.64487609315395,87.49487967928742 195.02463192385446,73.57969636919853 201.84170778652808,59.54643197318791 210.14100588787076,45.53675726229679 219.95309824619403,31.700714470194924 231.29292288625516,18.195384269514108 244.158588398577,5.183375013178505 258.53030903215796,-7.168858898338584 274.3694923516681,-18.692860078618025 291.6180010691743,-29.220160560722576 310.19760994237976,-38.5844087951468 330.0096776053625,-46.62361382770234 350.93505185598605,-53.18248662187469 372.83422526207073,-58.11485594091852 395.54775596530044,-61.2861337659611 418.89696626084907,-62.57580293536881 442.684928919188,-61.87989758601151 466.6977483061835,-59.11344509752337 490.7061401645772,-54.21283662464313 514.4673104650967,-47.13809198797318 537.7271300441544,-37.87498371660132 560.2225978475151,-26.436984431693446 581.6845815300687,-12.867001560938746 601.8408199600781,2.7611363908339968 620.419167885385,20.34147709323952 637.1510586864592,39.7350590630968 651.7751568179788,60.76937597719473 664.0411672812331,83.23822065034327 673.713765331324,106.90193598993895 680.5766056655094,131.4880970026253 684.436366623368,156.6926441766986 685.1267815183045,182.18148430780437 682.5126061759449,207.59257009431897 676.4934691408293,232.5384646291933 667.0075488896466,256.6093912908366 654.0350208164755,279.37676352842703 637.601215789496,300.397182695905 617.7794317720678,319.2168854703561 594.6933404019331,335.3766155582813 568.518931572985,348.41688741805615 539.4859410004651,357.8836026859075 507.87870850112586,363.3339729691469 474.0364183051959,364.34269575276073 438.3526771481078,360.5083234468839 401.27439116861206,351.45975918012834 363.2999087569486,336.8628069168807 324.9764034324761,316.42669794702596 286.8964785529853,289.9105108661822 249.69398412453006,257.1293979348997 214.0390451354954,217.96052727594795 180.63231061399816,172.3486478360407 150.19844292352826,120.31118249368217 123.47887757586594,61.94275422364936 101.22389494887177,-2.5809490912833724 84.18405663461989,-73.00006371078956 73.10107058485114,-148.96828228106557 68.69816063047853,-230.05151410204746 71.67002718579599,-315.72755238863385 82.6724968546445,-405.38682026349056 102.31196907742887,-498.3342586089848 131.1347777324685,-593.7924089339473 169.6165945677631,-690.9057331101209 218.15200932398315,-788.7461992549339 277.04442825154445,-886.3201492525611 346.4964382623492,-982.5764485047368 426.6007880339324,-1076.4159025972097 517.3321398518156,-1166.7019087875565 618.5397466963252,-1252.2722927154246 729.9412079271467,-1331.9522626767298 851.1174537809725,-1404.5683953757225 981.5091036813857,-1468.963548478683 1120.4143359908164,-1524.0125767598531 1266.9883972597816,-1568.6387103889028 1420.2448672200196,-1601.8304362061983 1579.05878172284,-1622.6587059235649 1742.1716995669196,-1630.2942793376985 1908.1987807451321,-1624.0249961190955 2075.6379231522606,-1603.2727568106445 2242.88098235069,-1567.6099826046932 2408.2270747376097,-1516.7753145279562 2569.8979385755383,-1450.6883061035633 2726.055300050622,-1369.462859619948 2874.8201630557905,-1273.419155041639 3014.293912033268,-1163.0938225514326 3142.5810872592897,-1039.248114896979 3257.8136617459086,-902.8738442791523 3358.1766188291886,-755.1968605846309 3441.9345998914237,-597.6778634153426 3507.4593629281285,-432.01035964821267 3553.257765235035,-260.1156011732517 3577.9999577850717,-84.1343639649055 3580.547455325639,93.58454034848022 3559.980725290297,270.4990958781036 3515.62592072167,443.8922957430576 3447.08036796918,610.8937366445734 3354.236409368719,768.5045520580071 3237.3031948219254,913.6255969450497 3096.826014534519,1043.0887505878 2933.7027684772606,1153.691156403433 2749.197176690508,1242.232168910533 2544.948348609526,1305.5527289281008 2322.976349336322,1340.5768391796034 2085.683426360163,1344.3547643676911 1835.8505917053033,1314.1075331324907 1576.6292918647532,1247.2722747857365 1311.5279410928895,1141.547882020328 1044.393142531365,994.9404526393175 779.3854760039402,805.8079294403198 520.9497908264727,572.9033284378734 273.7800062427654,295.41592229916375 42.77849063419686,-26.990271124281776 -166.98983710524863,-394.14135533032925 -350.3484653373116,-805.3224394318196 -502.0650102763839,-1259.2511972503676 -616.9113239627685,-1754.0567442180368 -689.7275343916872,-2287.2644520065887 -715.4894831281897,-2855.787288488255 -689.3789476179556,-3455.9242288438445 -606.8559596730948,-4083.3662322563096 -463.73245937341846,-4733.2102176613025 -256.2464560089743,-5399.981401583588 18.86419414983945,-6077.6642814130455 364.28933837660156,-6759.742458938703 782.0763982596069,-7439.247402072101 1273.5635902990243,-8108.816138097765 1839.3175532521411,-8760.757760274 2479.0764551747284,-9387.128512096067 3191.6996568604836,-9979.815091084967 3975.1249989929893,-10530.625687771982 4826.334757033693,-11031.388146932275 5741.331270030936,-11474.054508514075 6715.123196649363,-11850.811056664907 7741.723283432627,-12154.19287841084 8814.158446445388,-12377.20181062708 9924.492867992942,-12513.426536740806 11063.864695281116,-12557.16348496906 12222.536798054049,-12503.537079687758 13389.961898045087,-12348.617808631152 14554.86222532552,-12089.536492895726 15705.323686393887,-11724.59308599468 16828.90434739651,-11253.358284239284 17912.75684471332,-10676.7662051777 18943.764136010257,-9997.19638525728 19908.687799695825,-9218.543363695164 20794.32788166905,-8346.27215798346 21587.693077655145,-7387.457998555211 22276.17982980439,-6350.80877670667 22847.758710256596,-5246.668771474101 23291.166264853455,-4087.0023580866537 23596.100300026796,-2885.3565628531364 23753.41641809717,-1656.8015165676952 23755.32344382513,-417.8480700820187 23595.575241114555,813.6579294125494 23269.656296305286,2018.6649459804398 22774.958346469768,3177.06861388072 22110.945260402386,4267.887820037191 21279.30333927178,5269.46337124496 20284.074195707155,6159.678283451937 19131.767396693675,6916.198396866938 17831.45011906017,7516.731680839179 16394.811168223525,7939.304250236368 14836.19685253231,8162.550774517192 13172.616387911306,8166.016626196815 11423.71473102409,7930.4687915075465 9611.711003804152,7438.212257498802 7761.300977426271,6673.408301467727 5899.522428518345,5622.390845404781 4055.582563005925,4273.976805034257 2260.6471212162405,2619.7661649454153 547.5912289289071,654.4273530548796 -1049.2874604664553,-1624.0366261495983 -2494.5922816653238,-4214.045905065156 -3752.186153261068,-7110.229930603615 -4785.58313358875,-10303.246678828873 -5558.370264202402,-13779.639374924414 -6034.65647252255,-17521.735019722437 -6179.5447520352045,-21507.588792242095 -5959.623295254745,-25710.97809975807 -5343.470728906894,-30101.449682130402 -4302.170100150242,-34644.42274552998 -2809.8257950459515,-39301.350603186824 -844.0771439349048,-44029.94273914888 1613.3979090559303,-48784.44858795326 4576.396015493238,-53516.003642217795 8053.725709653297,-58173.037766070294 12048.776154617883,-62701.74481058211 16559.12483243991,-67046.61180454382 21576.19168063118,-71151.00513745059 27084.947102332415,-74957.81026989197 33063.681105231226,-78410.12060892335 39483.84055021912,-81451.97028254255 46309.94111151901,-84029.10464895857 53499.56006324058,-86089.78149441881 61003.41541188803,-87585.59502004678 68765.53619038928,-88472.31390596733 76723.527918217,-88710.72398280594 84808.93631705837,-88267.4653495055 92947.71135667362,-87115.8531653953 101060.77259700536,-85236.67082653096 109064.67559777499,-82618.92382418866 116872.37789482829,-79260.54228925968 124394.10170400533,-75169.02006169508 131538.2891205263,-70361.9780998403 138212.6441484928,-64867.64017016659 144325.25443620374,-58725.20904202537 149785.78412502885,-51985.13186171283 154506.72776023598,-44709.24400082556 158404.7137801315,-36970.78146934451 161401.84471483572,-28854.252955907683 163427.05990830355,-20455.163706089006 164417.5053477819,-11879.584771659516 164319.8940649092,-3243.562655017094 163091.83958342264,5327.633974030728 160703.14405099885,13700.43200687308 157137.02202767547,21734.03564295955 152391.24043043467,29281.669657942584 146479.1548716223,36191.97951868124 139430.62259530058,42310.58140553798 131292.77242612126,47481.75287184028 122130.6126135877,51550.25249902536 112027.45819206482,54363.254520599294 101085.16049248527,55772.38201736119 89424.12274136652,55635.81996084533 77183.0872693467,53820.48713356838 64518.68172446519,50204.24381657498 51604.71384073771,44678.11014093971 38631.206742285576,37148.46818475993 25803.169455549392,27539.219295323022 13339.10024103041,15793.866761759215 1469.2235215160915,1877.49289001604 -9566.535448333714,-14221.40122841541 -19520.830484176076,-32489.2253794951 -28141.41757546111,-52885.831492073885 -35173.906030715014,-75343.27832455114 -40364.7186509679,-99764.86062028684 -43464.23804177388,-126024.43257016248 -44230.1123234963,-153966.05375943868 -42430.68972342944,-183403.983653052 -37848.547883887135,-214123.04808424404 -30284.080251477724,-245879.3981568774 -19559.098679657553,-278401.6784588246 -5520.408435318196,-311392.6175254237 11956.690793255797,-344531.0491075638 32965.026479653796,-377474.3680145266 57562.34775860896,-409861.4191500125 85768.344388282,-441315.8128802708 117561.94238548893,-471449.6541121805 152878.92860171336,-499867.66646931885 191609.95591939922,-526171.6867946556 233598.979477458,-549965.498944824 278642.1723522788,-570859.9695439169 326487.366402754,-588478.4421104686 376834.0605195089,-602462.3398404252 429334.03429256636,-612476.9214060617 483592.6001298611,-618217.1285034835 539170.5211327439,-619413.458639428 595586.6155852438,-615837.7918826216 652321.0617732637,-607309.09610702 708819.409060354,-593698.9317142214 764497.2927621688,-574936.6740282795 818745.8414460756,-551014.3695927092 870937.7559113754,-521991.1415467946 920434.0293651955,-487997.0591905183 966591.268295679,-449236.3878312045 1008769.5633640056,-405990.1370986396 1046340.8494055513,-358617.829167246 1078697.68347185,-307558.4127709221 1105262.3598903157,-253330.25456320163 1125496.2717054682,-196530.1462736547 1138909.4187359638,-137831.27423753717 1145069.9539822128,-77980.10721080413 1143613.6523977024,-17792.16889157678 1134253.1792413348,41853.32680016547 1116787.0295048694,100019.98694999766 1091108.0054019503,155721.8930011274 1057211.095750557,207932.37734120077 1015200.619409072,255593.88898955027 965296.4948576262,297628.8984097137 907839.4996590454,332951.77519171097 843295.3869819117,360481.5558018682 772257.7317000674,379155.50197294494 695449.3858577734,387943.333805505 613722.4325480507,385862.00548635464 528056.5385102608,371990.8759252278 439555.61900648836,345487.1117982541 349442.74375290156,305601.14670345857 259053.22980450583,251692.00762004015 169825.88623413382,183242.30886015648 83292.39609530826,99872.70444739559 1064.843371337307,1355.5825823434202 -75178.58378201748,-112372.21921424354 -143709.65739610133,-241197.90234551628 -202767.8597868225,-384822.62288077147 -250579.71105824233,-542753.0561682156 -285379.53878766665,-714294.8260150404 -305431.5276553344,-898548.0053928652 -309052.8599781957,-1094404.8837283512 -294637.7318596858,-1300550.1807173619 -260682.0043396275,-1515463.8682287054 -205808.2248971097,-1737426.740251187 -128790.73231012588,-1964528.846037114 -28580.537599638545,-2194680.8737016516 95670.34402638505,-2425628.5406904835 244585.4502749755,-2654970.013913754 418541.6696961397,-2880176.346195371 617648.6403608541,-3098614.877283287 841730.1134260766,-3307575.5073353057 1090307.6456889356,-3504299.708908216 1362586.980667003,-3686012.1004537907 1657447.468397918,-3849954.360621335 1973434.8598266575,-3993421.2187816845 2308757.792186705,-4113798.21365567 2661288.257080524,-4208600.86931645 3028566.3129813503,-4275514.896730944 3407809.2686316175,-4312436.990023663 3795925.523389678,-4317515.750413988 4189533.205131409,-4289192.237929309 4584983.696076382,-4226239.622167768 4978390.0821836125,-4127801.37920308 5365660.502929233,-3993427.4628019105 5742536.31579496,-3823107.8650496323 6104634.924195022,-3617302.9748073677 6447497.049456802,-3376970.142663149 6766638.157526614,-3103585.868653627 7057603.680044627,-2799163.0444189063 7316027.598131807,-2466262.704940692 7537693.886526768,-2107999.7768538245 7718600.2465210045,-1728042.350676807 7855023.489428557,-1330604.0532459351 7943585.869087364,-920429.1541269731 7981321.603144379,-502770.10567440296 7965742.769654624,-83357.29045639775 7894903.718860636,331639.16841432994 7767463.100930491,735655.5894018124 7582742.579915529,1121788.866719589 7340781.28319502,1482858.4144832846 7042385.025104605,1811475.6720569115 6689169.34412798,2100120.811038849 6283595.405711189,2341226.170618202 5828997.848083147,2527265.83258705 5329603.686966116,2650850.631439323 4790541.447138738,2704827.780136174 4217839.754734374,2682384.1797669795 3618414.7040258525,2577152.3730496624 3000045.4062041584,2383317.999012785 2371337.235067972,2095727.5109423085 1741672.4051811497,1709994.833434654 1121147.6513114097,1222605.5588513128 520498.92302335147,631017.2202750912 -48986.83585154411,-66245.87116253263 -575572.5877224931,-869504.7704321585 -1047184.3729992958,-1777846.5868325871 -1451536.1642556537,-2789055.2773223836 -1776265.6290818031,-3899554.0848967396 -2009079.8402885154,-5104361.12029364 -2137909.7838890343,-6397059.522226795 -2151072.328742521,-7769783.546183797 -2037438.1393226706,-9213221.824169697 -1786603.8373255539,-10716638.907455385 -1389066.5513840984,-12267916.051509574 -836398.8397063724,-13853612.027243167 -121421.83072583783,-15459044.546169141 761625.6954319241,-17068392.67008465 1816924.6640100873,-18664820.339747377 3046921.959947894,-20230620.903394964 4452188.092342139,-21747382.256834976 6031288.8084085,-23196171.924518764 7780673.192995315,-24557741.11813738 9694580.754622351,-25812746.50877374 11764969.930480666,-26941988.143747468 13981470.339446483,-27926661.633485194 16331360.972886723,-28748622.4307947 18799576.337193895,-29390659.728767373 21368742.349323347,-29836777.21832582 24019243.537293226,-30072477.676446684 26729322.812299933,-30085048.10571219 29475214.758929532,-29863841.9194911 32231313.036564928,-29400554.46915941 34970372.10066616,-28689488.044704333 37663743.03984547,-27727802.352062374 40281642.88679857,-26515746.383708764 42793456.30196811,-25056867.557163596 45168068.05257512,-23358194.002757683 47374224.22115272,-21430385.940366697 49380919.58219957,-19287852.19761296 51157808.08874833,-16948828.091498535 52675632.918589376,-14435411.123248 53906672.04906354,-11773551.223389627 54825194.86646029,-8992992.631190037 55407924.878097035,-6127164.899172466 55634503.189221464,-3213020.9785201903 55487947.040182546,-290820.8628265297 54955097.37902344,2596140.1568023046 54027049.17787842,5401858.946401638 52699557.9951924,8078007.342865271 50973416.14644943,10574369.26358459 48854791.780008115,12839330.301923266 46355524.16754443,14820417.223977756 43493368.61559857,16464883.987881344 40292184.59026638,17720340.101549584 36782060.92477077,18535416.32750597 32999372.352222055,18860461.944185305 28986762.075042505,18648266.992364667 24793045.64892804,17854802.184076667 20473032.122315176,16439968.440823514 16087259.130330807,14368347.3697144 11701639.492075292,11609943.391979208 7387017.797382697,8140907.719847597 3218636.488128233,3944233.9465485774 -724487.9675041166,-989585.3186158817 -4360277.050235502,-6661951.56180429 -7604387.341894259,-13065614.118832776 -10371088.622764748,-20184195.443922732 -12574217.391172765,-27991798.603863396 -14128198.973542877,-36452707.40341538 -14949130.08161425,-45521189.09287748 -14955912.375393718,-55141408.999593005 -14071426.32280411,-65247465.659026496 -12223733.427667823,-75763554.09692569 -9347293.745046575,-86604263.83289547 -5384184.535849758,-97675016.94039926 -285304.9500238033,-108872650.113802 5988449.211481869,-120086143.16682458 13465057.302701917,-131197494.72816439 22160309.389865626,-142082744.12084958 32076823.101844,-152613136.52615365 43203159.48041318,-162656426.55695823 55513055.49227832,-172078313.3178537 68964790.59745395,-180743997.93064895 83500704.26702818,-188519852.37707496 99046880.59802103,-195275186.37981543 115513015.17698467,-200884096.93488348 132792478.09276296,-205227383.05049855 150762585.49089798,-208194506.26896352 169285090.2991441,-209685575.67856482 188206900.7402224,-209613334.39270785 207361032.9926552,-207905122.91431856 226567801.87507814,-204504793.44575155 245636250.7293677,-199374548.07846355 264365818.78242332,-192496672.932036 282548241.1985157,-183875139.7370884 299969673.82026285,-173537046.09766737 316413031.266844,-161533865.750321 331660523.64661425,-147942480.58100203 345496373.68482625,-132865966.98596014 357709692.6056431,-116434110.38412756 368097489.6838595,-98803623.31756355 376467787.0407101,-80158044.62027672 382642808.04709345,-60707299.59661524 386462204.6650316,-40686904.025675446 387786286.2539523,-20356798.08983857 386499209.8425429,199.99999952667523" stroke="white" stroke-width="1.5" /></svg>