<?xml version="1.0" encoding="utf-8" ?>
<svg baseProfile="full" height="400" version="1.1" width="400" xmlns="http://www.w3.org/2000/svg" xmlns:ev="http://www.w3.org/2001/xml-events" xmlns:xlink="http://www.w3.org/1999/xlink"><defs /><rect fill="black" height="100%" width="100%" x="0" y="0" /><circle cx="200" cy="200" fill="yellow" r="10.000000011037525" stroke="orange" stroke-width="2" /><polyline fill="none" points="201.16493139406765,200.0 201.1317681808195,200.0594126594836 201.08913601401085,200.1146653222445 201.03715613456205,200.16454820842327 200.97608160746594,200.20782928186628 200.90630324690713,200.24326782182084 200.82835423262338,200.26962900292838 200.74291327268998,200.285699369381 200.65080617629965,200.29030307032755 200.55300571076387,200.28231870523447 200.4506296298899,200.26069661017561 200.34493677609007,200.2244763992075 200.2373211760121,200.17280455935716 200.1293040690793,200.10495188357595 200.02252382999586,200.02033051357543 199.91872376987428,199.9185103540255 199.81973782601716,199.7992346114286 199.7274741773345,199.66243420533826 199.6438968506723,199.5082407967058 199.5710054127071,199.33699817823472 199.51081287222894,199.14927177489946 199.46532194827216,198.94585600941335 199.43649989030945,198.72777929755216 199.42625206722246,198.49630645196535 199.43639457160901,198.25293829050312 199.4686261147651,197.99940826618698 199.52449951496075,197.7376759607381 199.60539310697285,197.46991731199134 199.7124824237998,197.1985114774499 199.84671252161775,196.9260242715199 200.008771335906,196.65518815238423 200.19906446984078,196.38887877576954 200.41769182512272,196.13008817670433 200.66442648997236,195.8818946863854 200.93869629874683,195.64742973903856 201.23956847217357,195.4298417727007 201.5657377362878,195.2322574776366 201.9155183015688,195.0577406960694 202.28684006132198,194.90924932643628 202.67724933993603,194.78959063383536 203.0839144872117,194.70137541503377 203.5036365745352,194.64697151065758 203.9328654023572,194.62845719827214 204.36772097642086,194.64757503725832 204.80402055272117,194.7056867689764 205.23731128862704,194.80372990297005 205.66290847039173,194.94217664119947 206.07593921594184,195.12099580684165 206.47139147698067,195.33961845142574 206.84416808676437,195.596907813401 207.1891455201854,195.89113429214737 207.501236951883,196.2199560834781 207.77545911692053,196.58040609548456 208.00700239811934,196.96888572685035 208.1913034854627,197.38116604333703 208.3241198771864,197.81239683194403 208.4016054203838,198.25712394631435 208.42038602233728,198.70931528146505 208.37763460352178,199.16239563116466 208.27114431047994,199.6092905876942 208.09939896270708,200.0424795418851 207.8616396734346,200.45405773194153 207.55792656084645,200.8358071734824 207.18919445482612,201.17927618147186 206.75730150575095,201.47586706838717 206.26506961696896,201.71693147335714 205.71631565214392,201.89387264549157 205.11587241323002,201.99825387271753 204.46959844489737,202.02191211675728 203.7843757970569,201.95707578713393 203.06809496884597,201.79648546405735 202.3296263649534,201.53351626357514 201.5787777182089,201.1623004303543 200.82623707044374,200.6778486458049 200.08350105603856,200.07616845387003 199.3627883983717,199.35437813557502 198.67693870740422,198.5108143081863 198.0392968554877,197.54513148733156 197.46358340653563,196.45839183233872 196.96375177911,195.25314329787938 196.55383303468005,193.93348444012423 196.24776939604348,192.50511417421245 196.05923781520423,190.9753648528685 196.00146512224993,189.35321713420274 196.08703649418632,187.64929523056455 196.32769918236204,185.87584127995584 196.7341636260534,184.046667756831 197.31590425490478,182.1770870396347 198.0809624411328,180.28381747736597 199.03575420060167,178.38486554563502 200.18488535700024,176.4993839525703 201.53097697242706,174.64750584463238 203.0745039078564,172.85015556962438 204.81364940554138,171.1288367763019 206.744178579931,169.50539896397424 208.85933366192722,168.00178393798979 211.1497537613761,166.63975397432193 213.60342179300952,165.4406038446188 216.2056410504581,164.42485919777718 218.9390437107014,163.61196413082493 221.7836333071317,163.01996110592663 224.71686292351308,162.6651666767819 227.71375053428218,162.56184677157495 230.7470325501851,162.72189553591448 233.78735622407964,163.1545219628363 236.80351113236,163.86594872296084 239.76269947598678,164.85912775146747 242.63084444524452,166.13347724503944 245.3729353684217,167.6846447669932 247.953407821519,169.504301148429 250.3365563193103,171.57996980384064 252.4869766436266,173.89489594811107 254.37003429910152,176.42796000567583 255.95235502677636,179.1536392399645 257.20233275926284,182.0420213008457 258.09064987528006,185.05887298928096 258.5908041142612,188.1657670721219 258.6796360514744,191.32026944724058 258.3378506189136,194.47618836212345 257.5505257952758,197.5838867308187 256.3076012877203,200.59065787878563 254.60433979664717,203.4411642778353 252.44175329995272,206.0779380200269 249.82698672217583,208.44194092714446 246.77365137313845,210.47318130920777 243.30210065590686,212.11138348029215 239.43964076015865,213.29670522252735 235.2206693784098,213.97049747011107 230.6867359120825,214.07609957582795 225.88651717397084,213.55966263487673 220.87570324395685,212.37099248726406 215.71678889515934,210.4644032135321 210.47876687598406,207.7995711923295 205.23672030620622,204.3423791156319 200.07131251715109,200.065738771559 195.06817383056142,194.95038091883103 190.31718601955922,188.9856002036885 185.91166651834115,182.16994282176347 181.94745583341455,174.51182451538594 178.52191304524817,166.03006653165733 175.73282576066927,156.75433735773555 173.6772423672373,146.72548840522575 172.45023593393208,135.9957723419546 172.14361057937649,124.62893347161761 172.84456257001685,112.70016044286444 174.63430979588654,100.2958926303573 177.58670457979989,87.51347277002691 181.7668459856343,74.46063984574593 187.22970888111638,61.25485780902426 194.01880795863735,48.02247745879532 202.16491570280343,34.897730703935 211.68485389499625,22.021558463332923 222.58037864340307,9.540275610977488 234.83717910318944,-2.3959213720930563 248.42400998868618,-13.634596042204493 263.2919776624128,-24.02285254528698 279.3739990013703,-33.40924226569206 296.58445137869614,-41.645781334809385 314.81903095057135,-48.59006136428505 333.95483499935534,-54.1074334290322 353.8506823527355,-58.07324307745222 374.34768387715934,-60.375092024447724 395.2700727376933,-60.915100221776584 416.4263015353373,-59.61214023520938 437.6104105904172,-56.40401432389359 458.6036685548403,-51.24954334887849 479.1764832288184,-44.1305356684648 499.09057695545965,-35.0536035400045 518.1014172998974,-24.05179427115624 535.9608899229934,-11.186003475976833 552.4201966716149,3.453861682665007 567.2329579703304,19.748000421916828 580.1584946587382,37.54614718359812 590.9652605233916,56.667339261545806 599.4343929748568,76.90004872829576 605.3633456725966,98.00270135262089 608.5695634585993,119.7046019027385 608.8941567815632,141.70728147114562 606.2055299341456,163.68627825183972 600.402914943321,185.29335857156912 591.4197609043333,206.1591799528737 579.2269269866167,225.8963926041654 563.8356263174542,244.10317003380663 545.3000675148949,260.36715352087026 523.7197408404076,274.26978900136214 499.24129681379986,285.39102860792576 472.05996671234095,293.31436270221644 442.42047669052727,297.63214183660955 410.61741032695033,297.951141755085 376.99497824267826,293.89831837578544 341.9461580451655,285.1266937772833 305.9111732272413,271.3213086271893 269.3752857767191,252.20517133743084 232.86588410255098,227.54512959817322 196.94885542163627,197.15758592453182 162.22423992860928,160.91397553807565 129.32117283032034,118.74592238710309 98.89212959725978,70.64998747029475 71.60649948475304,16.69192294685601 48.14352241550782,-42.98965413472925 29.18463458979636,-108.18025321301337 15.405278588183279,-178.58724882389708 7.4662441332122,-253.83844478378194 6.004615951644723,-333.4815372660546 11.624415191404722,-416.98454382505645 24.887030455200602,-503.73725790152196 46.30154356922711,-593.0537795793499 76.3150635608145,-684.1761633809447 115.30318982249621,-776.2792127299983 163.56073194132827,-868.4764384364487 221.29281902339306,-959.8271852464707 288.60653540067347,-1049.3449162468467 365.50322223375815,-1136.0066298321033 451.87158559062686,-1218.7633681666994 547.4817509713669,-1296.5517597529679 651.9804018563113,-1368.306522014884 764.8871355913328,-1432.9738329107 885.5921637162711,-1489.5254636906711 1013.3554756382048,-1536.973548230258 1147.3075743184204,-1574.3858481156049 1286.4518803721778,-1600.9013570680902 1429.6688866898864,-1615.7460736068217 1575.7221294195244,-1618.2487573050728 1723.2660229729308,-1607.856471844082 1870.855586731376,-1584.1497075497498 2016.9580694559309,-1546.856867454778 2159.9664542125156,-1495.8678943938808 2298.214802086489,-1431.246812435387 2429.9953673029413,-1353.2429542871457 2553.5773898299294,-1262.3006473790617 2667.2274443947726,-1159.0671352883269 2769.2311973842975,-1044.3985181813368 2857.916395650025,-919.3635061152784 2931.676884140472,-785.2447924574815 2988.997422895618,-643.5378713924317 3028.4790486394536,-495.94714350787444 3048.8647023825683,-344.37917675514325 3049.064822493394,-190.93301659475276 3028.182583012407,-37.88746875170406 2985.5384399650875,112.31468944508327 2920.6936344669284,257.08557788665837 2833.47229088608,393.7141336680519 2723.98174159667,519.3910133108161 2592.6307072571462,631.2363665669842 2440.144963391801,726.3303279927069 2267.5801306148296,801.7460283476219 2076.331237349227,854.5848832498463 1868.1387205458434,882.0138719183956 1645.0905518381658,881.3044748214754 1409.620203856608,849.8728962071874 1164.5002040915608,785.3211564341219 912.831061690992,685.4786003732022 658.0253957904142,548.4433325614506 403.7871422124722,372.62305790034446 154.0857683764229,156.77477915084194 -86.87451631537726,-99.95722008231712 -314.6905059146426,-398.00569514847723 -524.8005855468837,-737.3476619854741 -712.5299796941018,-1117.4751236986472 -873.1404094533364,-1537.3699020158258 -1001.8838353470362,-1995.4831626980044 -1094.0598897420891,-2489.7202050796222 -1145.0765304828185,-3017.431058648342 -1150.5133758651557,-3575.407393731434 -1106.1871115288216,-4159.886208805384 -1008.218293216031,-4766.560703658898 -853.0988066636589,-5390.5986856937 -637.7591882047294,-6026.66878623463 -359.63495800683756,-6668.974685148368 -16.731073316472816,-7311.297455769854 392.31642736141293,-7947.046048663461 868.1825455428856,-8569.315832784956 1410.8001831551874,-9170.955006968341 2019.312721991199,-9744.638584273367 2692.0332967165814,-10282.949537650604 3426.411717965329,-10778.466578782145 4219.009971006124,-11223.857924120126 5065.487170818129,-11611.980284456491 5960.594795822966,-11935.982198285788 6898.1829497785775,-12189.410716326662 7871.218314403788,-12366.320336458512 8871.814354302676,-12461.382986676295 9891.274221010042,-12469.997760166034 10920.146674988751,-12388.399022962993 11948.295203882968,-12213.761442576886 12964.980363177287,-11944.300427125154 13958.955202743082,-11579.36642052266 14918.573470890968,-11119.53147167808 15831.910108014463,-10566.666485885593 16686.893356423287,-9924.007575988147 17471.447623434946,-9196.209960596514 18173.646043308356,-8389.387907662755 18781.871492411687,-7511.139294823846 19284.984623520904,-6570.553453720725 19672.497301866497,-5578.201084285798 19934.74965011641,-4546.105166842387 20063.088744611425,-3487.691964551971 20050.04685361078,-2417.7213957601357 19889.516972840527,-1352.1962642992762 19576.923297028163,-308.2500646508649 19109.38417106537,695.9866734325958 18485.86499359688,1641.5412715148063 17707.318501687143,2508.774511326464 16776.80985010531,3277.5761649215833 15699.623914827978,3927.5793435689206 14483.352299472543,4438.392254707692 13137.957607147637,4789.845645105111 11675.812659921392,4962.253897735434 10111.712504674111,4936.687443757326 8462.857238053737,4695.2538534084 6748.803914663292,4221.3846849371 4991.386071127027,3500.12490325757 3214.5997034391125,2518.4214343242807 1444.4548746371934,1265.4072017935275 -291.20749752712607,-267.32319614324103 -1962.9337200544128,-2085.4501653981565 -3539.9098876419976,-4191.682259852222 -4990.248090571384,-6585.529970835081 -6281.304954084754,-9263.104365972997 -7380.030705403564,-12216.944753800199 -8253.346463738437,-15435.879469390195 -8868.546942957146,-18904.92373875142 -9193.72525198059,-22605.218383781546 -9198.21598081587,-26514.01287371207 -8853.052277092065,-30604.69591236767 -8131.432155993511,-34846.876373085084 -7009.1888527461215,-39206.51695540521 -5465.25962858894,-43646.12244107562 -3482.147085790101,-48124.98387371844 -1046.366742033841,-52599.47937982379 1851.1256334330767,-57023.43169247874 5214.5336032263,-61348.52173828456 9042.853359072913,-65524.75690798879 13329.547563098724,-69500.99185902548 18062.266516792624,-73225.4989009032 23222.623307200938,-76646.58420040795 28786.029354133516,-79713.2452219383 34721.59646136636,-82375.86399865041 40992.11105663215,-84586.93002280107 47554.08578828128,-86301.78575961119 54357.893030688014,-87479.38703942923 61347.98413680761,-88083.06987959964 68463.1974670899,-88081.3146420822 75637.15732288282,-87448.49785742366 82798.76492457846,-86165.621552009 89872.78150654414,-84221.00951523468 96780.50246023983,-81610.95964757133 103440.52025319776,-78340.34135011876 109769.57259548723,-74423.12686116729 115683.47102901005,-69882.84552453054 121098.10379191817,-64752.950196031656 125930.50547528407,-59077.08536528525 130099.9846576654,-52909.247095185485 133529.29939221873,-46313.82556511622 136145.86914821758,-39365.52184793908 137883.0105925816,-32149.131555529064 138681.18345629048,-24759.18915127796 138489.2316845336,-17299.468046768416 137265.6041375537,-9882.33306767054 134979.53831055367,-2627.943482604911 131612.18989466038,4336.693472361113 127157.69052500198,10878.816784659473 121624.11577377662,16861.149824330474 115034.34536195126,22143.276681083684 107426.7976976374,26583.14878134311 98856.02121519901,30038.711736604306 89393.12559773654,32369.640204656156 79126.03682543476,33439.16638209201 68159.56110947597,33115.98561740324 56615.24414916443,31276.220567578872 44631.01378889944,27805.423347438813 32360.596048754676,22600.593270657155 19972.69665137943,15572.18608587665 7649.942558856345,6646.08910192761 -4412.419347509237,-4234.464695814569 -16008.066481007338,-17107.07147983159 -26921.384672932636,-31988.449073812888 -36929.486035788876,-48872.8762736659 -45804.451074048906,-67730.80829344224 -53315.7821233026,-88507.6974061664 -59233.05170285884,-111123.04724550627 -63328.72584109667,-135469.72823558055 -65381.13891900488,-161413.5802091053 -65177.59311984975,-188793.32644854602 -62517.55221859472,-217420.82113573662 -57215.89624218496,-247081.6495221232 -49106.20053111958,-277536.09703926824 -38043.99998469539,-308520.50006787607 -23909.99682803776,-339748.9871895651 -6613.168149284218,-370915.61548108736 13906.272230214017,-401696.9018038665 37674.10422300526,-431754.7441270239 64679.571685569164,-460739.72274001356 94873.13997171973,-488294.76580810983 128164.58804563785,-514059.15815274726 164421.48137356184,-537672.8664571609 203468.0701742425,-558781.1483691307 245084.6553050654,-577039.4072650805 289007.4610774399,-592118.2488257476 334929.05062319554,-603708.6901291555 382499.3150728773,-611527.4667708339 431327.0627651404,-615322.3786554832 480982.2290009716,-614877.6106510741 530998.7205137723,-610018.9603388692 580877.9018826614,-600618.9017134737 630092.7236178555,-586601.410966422 678092.4836495898,-567946.4785031053 724308.2055222545,-544694.2301699977 768158.6078086501,-516948.5803760285 809056.6302012738,-484880.34044120024 846416.4725027652,-448729.7071522193 879661.0934290078,-408808.0591952116 908230.1068669001,-365498.99290609674 931588.004112274,-319258.5336552739 949232.6217755716,-270614.4651783114 960703.7666123731,-220164.72627872287 965591.9006449316,-168574.83254915514 963546.7827236287,-116574.29005512333 954285.9562688153,-64951.97825741649 937602.9674677163,-14550.490756146843 913375.1938089542,33740.56535424104 881571.159645497,78992.29771541434 842257.2136055548,120245.25700307639 795603.4422317191,156519.12348360266 741888.6953229989,186823.29529257558 681504.6011714482,210168.30688706128 614958.4542995535,225577.99099657123 542874.864475372,232102.2823356401 465996.06375049724,228830.54653556048 385180.77805218555,214905.3034053718 301401.58146611677,189536.19995188437 215740.66474686298,152014.0757901862 129383.9647435956,101724.95187800222 43613.61825700817,38163.7631286544 -40201.27774678329,-39052.353384298076 -120615.59777168016,-130171.4100094602 -196120.7883061445,-235294.7604023052 -265159.09193716163,-354366.3352138392 -326139.3265432949,-487163.1257400251 -377454.1271013786,-633287.1178483504 -417498.53324248275,-792158.8740177135 -444689.78111323604,-963012.9540867849 -457488.13363203825,-1144895.355209302 -454418.5591880773,-1336663.1384967372 -434093.0455419656,-1536986.393855863 -395233.3134902434,-1744352.6756015231 -336693.67410134093,-1957074.0195811861 -257483.75437258667,-2173296.627864043 -156790.7993526053,-2391013.279640209 -34001.24447425809,-2608078.497003689 111278.75960415219,-2822226.46195744 279204.1956140131,-3031091.646523654 469673.7324735394,-3232232.081554401 682314.3139586097,-3423155.152045506 916468.1118442632,-3601345.767829565 1171182.164723772,-3764296.7188700666 1445201.011832717,-3909540.9844432925 1736962.614682175,-4034685.725755192 2044597.8380334224,-4137447.65250443 2365933.7356727677,-4215689.416103296 2698500.8555721375,-4267456.646258195 3039544.743411388,-4291015.213958493 3386041.783217743,-4284888.273203389 3734719.4692382542,-4247892.606590276 4082081.1543613696,-4179173.776767507 4424435.267772718,-4078239.5672818506 4757928.938466145,-3944991.183067056 5078585.902200909,-3779751.673237227 5382348.508036135,-3583291.037443871 5665123.5772857955,-3356847.4822598104 5922831.803286251,-3102144.3062439193 6151460.315477933,-2821401.911834981 6347117.966751328,-2517344.46926716 6506092.839619756,-2193200.792462704 6624911.40542507,-1852699.0294244424 6700398.712356549,-1500054.820014572 6729738.923490354,-1139952.632062364 6710535.47627473,-777520.0522855626 6640870.090834892,-418294.8812232313 6519359.81708221,-68184.96083942734 6345211.280797535,266579.2508720745 6118271.267495265,579499.2527186301 5839072.770796349,863870.0189806648 5508875.630015314,1112848.1623736315 5129700.890398726,1319526.3368474857 4704358.039551472,1477013.371007856 4236464.305563784,1578519.5174963016 3730455.2466043797,1617446.09880278 3191585.918545184,1587478.7270453474 2625921.9766639755,1482683.1756494578 2040320.149618715,1297602.8860546402 1442397.6185275447,1027357.0040705284 840489.9407804844,667737.7598198391 243597.27663866716,215305.93387064815 -338681.19394945505,-332516.90831223567 -896224.6374447909,-977360.7795973365 -1418479.540409137,-1719825.6324610356 -1894559.9592621967,-2559407.137914914 -2313358.5520231063,-3494431.304570542 -2663667.730661133,-4521999.345701601 -2934310.102406338,-5637944.169047037 -3114277.1970367455,-6836799.811665091 -3192875.3068240047,-8111785.069756666 -3159877.098669821,-9454802.480586147 -3005677.4962950214,-10856453.700235376 -2721452.176528338,-12306072.186954912 -2299316.8802230475,-13791773.945618268 -1732485.6075817668,-15300526.9147996 -1015425.6521742605,-16818239.385126106 -144007.33014855423,-18329867.6269383 884353.8165356345,-19819542.678354025 2070564.6192664655,-21270716.003310975 3413733.9913767166,-22666323.475077584 4911067.057204954,-23988966.876401037 6557775.988152145,-25221111.83550098 8347009.777686519,-26345300.84039372 10269805.101253007,-27344379.69566313 12315060.288596142,-28201735.509143084 14469534.284404814,-28901544.02458585 16717872.288101356,-29429023.85400315 19042659.545085263,-29770694.913839925 21424504.51028321,-29914638.136445798 23842152.32137254,-29850753.31646357 26272629.204921104,-29571011.764797844 28691418.095770966,-29069700.284741506 31072665.380632285,-28343652.85953466 33389418.283865135,-27392466.35185879 35613892.00012239,-26218696.46707731 37717765.24867994,-24828030.226723142 39672502.48214233,-23229431.23976034 41449700.53244746,-21435254.149118803 43021457.024798155,-19461324.772068594 44360757.44076895,-17326982.646831878 45441877.27117283,-15055082.945554994 46240795.27337273,-12671955.015898138 46735613.44289096,-10207315.169941757 46906978.931843676,-7694131.749053793 46738502.803447396,-5168440.955296583 46217170.20915693,-2669112.4516112744 45333736.319395736,-237564.29136858616 44083102.13664421,2082572.6609046825 42464664.17697236,4245840.016327566 40482631.928686924,6205385.382342282 38146306.98995283,7913441.944547481 35470317.85584984,9321851.218098776 32474804.473549932,10382625.346034734 29185546.91561758,11048544.586924223 25634032.838551965,11273784.904243613 21857458.798396353,11014569.854292095 17898660.988371752,10229840.278106619 13805971.544837825,8881934.645968363 9632997.236116756,6937272.291182282 5438318.101353074,4367031.213481634 1285104.439893566,1147811.6423034158 -2759348.539280547,-2737723.8631670442 -6624168.120009787,-7300243.326595041 -10235532.204741482,-12543181.058533551 -13517375.741409991,-18462226.05380336 -16392171.892372241,-25044872.99231085 -18781783.217672538,-32270045.638866965 -20608376.956751022,-40107802.19352953 -21795397.29854824,-48519131.76479594 -22268586.344252434,-57455850.61929499 -21957044.30499907,-66860606.200574614 -20794318.354712665,-76666996.10484609 -18719508.49260096,-86799808.25350723 -15678377.777615167,-97175387.41314168 -11624453.395731365,-107702131.987551 -6520104.227487818,-118281123.64932671 -337579.91493084107,-128806890.89860691 6940004.0993259605,-139168306.04418376 15317751.456790086,-149249613.40928397 24788155.782911878,-158931584.7855134 35330373.70188987,-168092796.30995193 46909615.87507339,-176611019.04058707 59476671.569668755,-184364713.57436654 72967581.64271095,-191234617.11204767 87303473.97677866,-197105409.4482937 102390574.32398991,-201867442.47898033 118120404.20141275,-205418515.99657324 134370175.93483832,-207665680.8157265 151003393.17253375,-208527048.6626264 167870663.1928884,-207933586.8011646 184810725.1197015,-205830874.08478114 201651695.74954724,-202180794.04264033 218212532.1037964,-196963139.75973347 234304707.06351024,-190177104.7186142 249734091.5519106,-181842633.46033645 264303033.72320226,-172001605.9165519 277812622.527956,-160718829.58402437 290065119.88704467,-148082814.37491453 300866542.55389595,-134206305.99573086 310029371.61691767,-119226555.09613435 317375364.53084385,-103305301.19321844 322738441.6099996,-86628452.52075712 325967616.11189705,-69405445.47489575 326929934.43132514,-51868270.221874855 325513390.5586644,-34270152.28849826 321629776.8772874,-16883883.555898327 315217431.6285404,199.99999961397023" stroke="white" stroke-width="1.5" /></svg>