<?xml version="1.0" encoding="utf-8" ?>
<svg baseProfile="full" height="400" version="1.1" width="400" xmlns="http://www.w3.org/2000/svg" xmlns:ev="http://www.w3.org/2001/xml-events" xmlns:xlink="http://www.w3.org/1999/xlink"><defs /><rect fill="black" height="100%" width="100%" x="0" y="0" /><circle cx="200" cy="200" fill="yellow" r="20" stroke="orange" stroke-width="2" /><polyline fill="none" points="198.4771948916079,200.0 198.4742827385515,199.91990681337495 198.48122546035944,199.84010190668172 198.4983025082128,199.7617507879162 198.52567628223733,199.6860839942507 198.56338195224538,199.61438630562296 198.61131816897984,199.54798456658222 198.66923884071113,199.48823417486008 198.7367461484842,199.43650431564237 198.8132849694978,199.39416204141742 198.89813887192057,199.36255531833368 198.9904278358232,199.34299518096222 199.08910784377994,199.33673715796232 199.19297247103398,199.34496215110843 199.30065658893295,199.3687569691652 199.41064227665072,199.40909473589298 199.5212670150904,199.4668154077267 199.63073421340488,199.5426066510902 199.73712609291636,199.63698534158337 199.83841892553116,199.75027995711636 199.93250059424585,199.88261414417377 200.01719041226409,200.03389174050687 200.09026110487687,200.2037835384153 200.14946282491485,200.3917160701695 200.1925490386114,200.5968626908345 200.2173040844987,200.81813722362313 200.22157217390654,201.054190418794 200.20328756817693,201.3034094589332 200.16050563530743,201.56392072116424 200.0914344578611,201.8335959804294 199.99446663512092,202.11006220752012 199.86821089611436,202.39071508112121 199.71152311678495,202.67273629493093 199.52353631473346,202.95311469914773 199.30368917907444,203.22867127056153 199.05175268151544,203.49608785748458 198.7678543082097,203.75193959521175 198.45249945066155,203.99273083506532 198.10658949835272,204.21493437587475 197.73143618612855,204.4150337315315 197.32877176600562,204.58956811266697 196.90075459615414,204.7351797451913 196.449969769509,204.84866309410964 195.9794244408509,204.9270155084433 195.49253755426474,204.9674887529948 194.99312372254212,204.96764084590117 194.48537106616692,204.92538757821893 193.97381288174483,204.8390530539839 193.46329307774312,204.7074185570886 192.95892538873932,204.52976902569895 192.46604645748005,204.30593639654364 191.99016295627345,204.03633907096747 191.53689300483094,203.72201675280672 191.11190222980036,203.3646599155171 190.72083490096347,202.96663317309213 190.369240669399,202.53099185658635 190.06249752275463,202.06149113585028 189.80573166097426,201.5625870746212 189.60373508118883,201.03942906651778 189.46088174174065,200.49784316973992 189.38104325119448,199.94430593923528 189.36750509738238,199.38590844646873 189.42288449272948,198.83031027828108 189.54905096401626,198.2856834170568 189.74705085607908,197.76064602378878 190.01703694851668,197.26418627272244 190.3582044010971,196.80557652002042 190.7687342461723,196.39427822809517 191.2457456340383,196.03983821053978 191.7852580089758,195.7517769084432 192.38216434895935,195.53946955565718 193.0302165401819,195.41202123652914 193.72202387823194,195.37813698285328 194.44906559079413,195.44598819535986 195.20171816215068,195.6230768069228 195.9692981077804,195.91609872772835 196.7401206984649,196.33080822479414 197.5015749682361,196.87188498732917 198.24021516020323,197.54280571337924 198.94186857000926,198.34572211994455 199.59175953985994,199.28134732630966 200.17464913848147,200.3488525868081 200.67498983597957,201.54577635291977 201.07709424961826,202.86794762388993 201.36531679947137,204.30942549859407 201.52424687439617,205.86245676800246 201.53891187170572,207.5174532864334 201.394988241324,209.26299073022406 201.07901844028228,211.0858301941998 200.57863148947519,212.9709638894355 199.88276462503228,214.90168599068326 198.9818833549229,216.85968943927367 197.86819707095495,218.8251892384634 196.53586723056935,220.77707248468477 194.98120501511812,222.6930750619516 193.20285529486083,224.54998459020436 191.20196368876793,226.32386886446602 188.98232350219908,227.99032865355986 186.55049936018477,229.52477334844386 183.9159244305984,230.9027175649426 181.0909682518245,232.10009641816129 178.09097234503614,233.09359680081891 174.93425100286004,233.86100162009245 171.64205490448933,234.38154358251668 168.23849551210913,234.63626476941783 164.7504285541547,234.6083779217984 161.2072952961321,234.28362505913185 157.64092073756572,233.65062879678504 154.0852683515045,232.7012315073175 150.5761514976496,231.43081729713873 147.1509021876314,229.83861164715995 143.84799845663807,227.92795349909503 140.70665219421775,225.70653456252037 137.76635990273138,223.1866006758254 135.06641947809632,220.38511018037707 132.64541673705793,217.32384446457903 130.54068604064383,214.02946610533988 128.7877499766401,210.5335203803291 127.41974365642838,206.8723763460134 126.4668297445808,203.08710417366282 125.95561086425568,199.2232860071694 125.90854649855649,195.33075825050597 126.34338192851006,191.46328390580885 127.27259710314483,187.67815436114586 128.70288361750633,184.03572086470953 130.63465817185113,180.59885681302023 133.06162099170575,177.43235291721456 135.97036769654287,174.6022482850388 139.34006300782383,172.17510145713715 143.14218447925674,170.2172064540008 147.34034410847664,168.79375991299693 151.89019524624553,167.96798641084715 156.7394316542044,167.80023006266347 161.8278848740473,168.3470214504319 167.08772526004702,169.66012984742335 172.44377109500314,171.785611555816 177.81390916040465,174.76286594803884 183.10962897008443,178.62371148318644 188.23667160982856,183.39149454364454 193.09579276198835,189.08024438950244 197.58363804462996,195.69388784565726 201.59372727139217,203.22553750572897 205.0175426550344,211.656867246 207.7457143503103,220.95758868070908 209.66929507759798,231.0850418477471 210.68111390642855,241.98391288328665 210.6771976278196,253.58609071913122 209.55824652747373,265.81067391358926 207.2311498107955,278.56413760368355 203.61052444846285,291.740669244057 198.6202598316872,305.22268027913987 192.1950493733411,318.8814991857313 184.28188908889075,332.5782494316395 174.84152226335505,346.16491383371965 163.84980858054132,359.48558457981505 151.29899558091142,372.37789582081655 137.19887004569603,384.6746332613315 121.57776689677732,396.2055126031263 104.483413471978,406.799116050107 85.98358759898119,416.2849733953119 66.16656876081427,424.49577150975676 45.14136283133956,431.2696733727753 23.037682366904676,436.45272515845306 0.005666273037434166,439.9013273592073 -23.784675178202463,441.4847435231603 -48.14430152902281,441.0876179452655 -72.86627827865942,438.61247162222674 -97.72721367142907,433.9821439971877 -122.48899845595014,427.14214652066266 -146.90084733024304,418.06289287689503 -170.7016369504368,406.7417699060362 -193.62253135064037,393.2050128264141 -215.38988143536938,377.5093483592976 -235.72838090540694,359.743369809436 -254.3644566089397,340.02860908293303 -271.02986692201927,318.5202720501631 -285.46547740920374,295.4076056010449 -297.4251787530901,270.91386720331434 -306.67990782947106,245.29587076592938 -313.0217289043087,218.8430861275257 -316.26792830220234,191.87627352547557 -316.2650726071257,164.74563893896726 -312.8929775683623,137.8285012169032 -306.0685324605917,111.52646736794442 -295.74932274823016,86.26211826781694 -281.9369925891701,62.475213282454604 -264.6802880374532,40.618428861513195 -244.07772181943432,21.152652964618028 -220.27980130966682,4.541864174585413 -193.4907628610688,-8.752368546861646 -163.96975798195564,-18.27672237570016 -132.031440025334,-23.59224325810777 -98.04590407996625,-24.280697581436925 -62.4379376350152,-19.951089131745306 -25.685545327368516,-10.246271257405994 11.682282341107339,5.150421722321681 49.08857903562998,26.508605154503755 85.91220591764468,54.04442270164617 121.49245391887207,87.9143628879899 155.13444104163094,128.2094064917997 186.11529060819882,174.94959984496342 213.69106571791136,228.07915017270602 237.10442410000582,287.4621390536605 255.5929461833507,352.87894882926935 268.3980776627657,424.02349427687994 274.77461625744303,500.50134802944586 274.0006608713687,581.8288430361796 265.38793012798953,667.4332287862213 248.2923464181532,756.653950050666 222.1247713333717,848.7451075427431 186.36176882138352,942.8791491749957 140.55626376543992,1038.1518285478705 84.34795612038472,1133.5884539973815 17.473344403056018,1228.151437041497 -60.22479260681774,1320.7491334967247 -148.7886104913518,1410.2459540092946 -248.1372663784092,1495.473703400978 -358.0599947858708,1575.2440902285582 -478.21034614483074,1648.3623294787637 -608.1017378823132,1713.6417425646257 -747.1044616648317,1769.9192399696058 -894.4442819181943,1816.0715532323331 -1049.2027500041868,1851.0320647204942 -1210.3193454340378,1873.8080660617106 -1376.5955402419413,1883.4982594454034 -1546.7008651680665,1879.3103005517896 -1719.1810366782536,1860.578167874763 -1892.4681821773197,1826.7791309569284 -2064.8931771870575,1777.5500798163407 -2234.7000829232898,1712.7029698776328 -2400.0626458175657,1632.239131276483 -2559.102792317796,1536.362188722362 -2709.911023031528,1425.4893383986478 -2850.5685802384746,1300.2607318471617 -2979.1712323176703,1161.546723595402 -3093.8544880589693,1010.452749578573 -3192.820023532301,848.3216172899364 -3274.363074566894,676.7330061297702 -3336.9005193603916,497.4999976419627 -3378.9993487222173,312.6624802106431 -3399.405196394268,124.47730127296494 -3397.0705792281424,-64.59492792444195 -3371.1824771734937,-251.90643470373396 -3321.188866484345,-434.6423157460674 -3246.8238067039597,-609.843976333003 -3148.130673252311,-774.4359143262396 -3025.483123197154,-925.2557392825563 -2879.603382393999,-1059.0872695001372 -2711.577447948892,-1172.6965009588002 -2522.866811165312,-1262.8701925750854 -2315.3163230072905,-1326.4567625125012 -2091.157846814512,-1360.409141076077 -1853.0093716502129,-1361.829177622778 -1603.8692942903676,-1328.013152607437 -1347.1056184431923,-1256.497902054409 -1086.4398662151195,-1145.1070211086264 -825.9255489272352,-991.9965765961886 -569.9211018659491,-795.699726432748 -323.05725006930845,-555.1696169670407 -90.19883936576241,-269.81990862764593 123.59876193164664,60.43773378488078 313.1385106287922,435.15985652837765 473.1355280999273,853.3418072602735 598.2755947436485,1313.3933598952297 683.2778820900321,1813.1200151552812 722.9614244857306,2349.7105903493434 712.3147523542315,2919.7316747960353 646.568030934711,3519.129480525497 521.2669732389705,4143.239561395956 332.3477248632898,4786.804807591933 76.21185240709887,5444.002046808328 -250.19949224777497,6108.477498574186 -649.3332114870943,6773.391234571179 -1122.954728269994,7431.4706960337035 -1672.0823355262153,8075.073210099385 -2296.9265074880805,8696.257331169194 -2996.835262396307,9286.862711935544 -3770.246663774338,9838.598082881394 -4614.649531546737,10343.136790007246 -5526.553403969164,10792.219209703406 -6501.468746050499,11177.76122855403 -7533.898339444029,11491.967846052308 -8617.340712386818,11727.450831426226 -9744.306376072833,11877.349243799528 -10906.347525946081,11935.451509584154 -12094.101743085499,11896.317644198143 -13297.350092624329,11755.400108825126 -14505.089863724905,11509.161708876687 -15705.622029961045,11155.188870958593 -16886.653331217738,10692.29858129315 -18035.412689803627,10120.637232459387 -19138.781476018255,9441.769608614624 -20183.436933769004,8658.756243564463 -21156.007867062704,7776.217412500761 -22043.241475564526,6800.382068088317 -22832.180014379388,5739.120105800032 -23510.34574239236,4601.95644268516 -24065.932417672004,3400.065518548373 -24488.0014004927,2146.2449789763277 -24766.680237459368,854.8674756199482 -24893.361427072778,-458.1902798558683 -24860.898910947,-1775.641846532326 -24663.799698863557,-3078.9091598425434 -24298.407922954848,-4348.264532438547 -23763.07852951296,-5562.996381446315 -23058.33775903994,-6701.598206671037 -22187.027538852795,-7741.9800231286345 -21154.430920274564,-8661.701118489347 -19968.375736357924,-9438.222664987145 -18639.313738088425,-10049.178369764428 -17180.372588619593,-10472.661001481365 -15607.378257453403,-10687.5222885898 -13938.845560297565,-10673.683350462336 -12195.934835852619,-10412.452501285687 -10402.373037744857,-9886.846963137476 -8584.33784742929,-9081.914743931911 -6770.303780790091,-7985.052682961056 -4990.849665430615,-6586.316446580708 -3278.427304743727,-4878.718074127145 -1667.0916156582418,-2858.5065341998034 -192.19302573477808,-525.4266585936756 1109.9665622973594,2117.0482202781486 2202.512389325835,5061.514588706454 3048.4076383340466,8296.472615160077 3610.893447311352,11806.200010551993 3853.9546089631344,15570.670138755333 3742.8068734281806,19565.51836539747 3244.4012275927703,23762.06030014568 2327.9400031729647,28127.36518712654 965.399173425196,32624.387230239918 -867.9492567868797,37212.15710624749 -3193.021272640516,41846.03532085499 -6026.418144125905,46478.028404744415 -9379.94415020296,51057.16823174544 -13260.152114200324,55529.95397521757 -17667.92428119489,59840.85540729351 -22598.09613329634,63932.87539600154 -28039.130713831928,67748.16857543447 -33972.850910657246,71228.71226299128 -40374.2369272965,74317.02478507702 -47211.29584434367,76956.92545907527 -54445.00973958117,79094.32957622124 -62029.36829178354,80678.07084913502 -69911.49113959001,81660.7429416628 -78031.8445039144,81999.55090018762 -86324.55571228625,81657.1625678334 -94717.82828992006,80602.54939922862 -103134.4592103774,78811.80551694852 -111492.4587351733,76268.93337442672 -119705.77202490935,72966.58402664684 -127685.10038444215,68906.7397713847 -135338.8186227269,64101.326821506154 -142573.9835773559,58572.74571322513 -149297.42738898107,52354.30735557079 -155416.92762771103,45490.56299055692 -160842.44488940225,38037.51686812698 -165487.417012963,30062.71114962343 -169270.09763970223,21645.173441225885 -172114.92546272086,12875.21842534945 -173953.9092191722,3854.096302153316 -174728.0122823038,-5306.517828531472 -174388.51963504608,-14485.197928363554 -172898.3690739749,-23551.60686252735 -170233.42772290565,-32367.502766192018 -166383.69434969043,-40787.9105498131 -161354.40759756265,-48662.455009881225 -155167.0400820216,-55836.849763989696 -147860.15838261702,-62154.533902717514 -139490.1292910844,-67458.4458694717 -130131.65327597066,-71592.92166904974 -119878.10699959863,-74405.7020943137 -108841.67788357082,-75750.03127793287 -97153.27516867837,-75486.82655423603 -84962.20365538796,-73486.89738775762 -72435.58833983477,-69633.18902403257 -59757.54047155441,-63823.024579276935 -47128.05814320783,-55970.31754376033 -34761.65736539985,-46007.7251637915 -22885.732663351453,-33888.711923625684 -11738.649534425927,-19589.491404573495 -1567.5745998572952,-3110.8141859120697 7373.947060038033,15520.430799230408 14828.654115137397,36249.83390282192 20538.45359613652,58994.333295610144 24247.50684622177,83641.36531193354 25705.491835886656,110048.32608808344 24671.01299366267,138042.37207990693 20915.12593584368,167420.58467843157 14224.940861799376,197950.52130317007 4407.264973444847,229371.17204512874 -8707.75886578737,261394.33716515108 -25263.06283869954,293706.4365442149 -45371.16229831866,325970.75755340833 -69110.81136691027,357830.14279195544 -96523.85758999606,388910.1137681754 -127612.34820686535,418822.42091377854 -162335.9409925401,447169.00437627186 -200609.67238730003,473546.3438839746 -242302.13471934685,497550.1696860744 -287234.11271029507,518780.50020496664 -335177.72710480785,536846.9656741989 -385856.1301650186,551374.3707519277 -438943.79390555056,562008.4429803829 -494067.4273128968,568421.7080936197 -550807.5533998868,570319.4276486265 -608700.7708081376,567445.5293602135 -667242.7178149911,559588.4559504048 -725891.7490641255,546586.854370378 -784073.3271684225,528335.0240076907 -841185.1225893832,504788.04004148254 -896602.8059496734,475966.46653727227 -949686.5072654937,441960.5732592188 -999787.90658554,402933.9705931268 -1046257.9102956522,359126.57848180004 -1088454.8570047272,310856.8479299613 -1125753.186589108,258523.1574827312 -1157552.4957684667,202604.31215152357 -1183286.8936519336,143659.07857295015 -1202434.5611707275,82324.69774467206 -1214527.4093488466,19314.325476525064 -1219160.7231052415,-44586.63930096009 -1216002.6698794926,-108525.36705872045 -1204803.5459778965,-171587.56743516927 -1185404.6282947147,-232804.6193578588 -1157746.495116878,-291161.8504015226 -1121876.6772054825,-345607.9392171998 -1077956.4993909786,-395065.39913875115 -1026266.9736375028,-438442.0848122717 -967213.607028649,-474643.6470673414 -901329.9924897753,-502586.8444390788 -829280.0563620783,-521213.60295326984 -751858.8452317218,-529505.6992135411 -669991.7447241052,-526499.9257005102 -584732.0353052821,-511303.58173858817 -497256.70447220065,-483110.1190440894 -408860.4510168038,-441214.75738050137 -320947.8352447431,-385029.8738569843 -235023.54901804854,-314099.95905726275 -152680.80114392185,-228115.92471664932 -75587.83679095714,-126928.54130620026 -5472.634092405971,-10560.779855465727 55894.15332259632,120781.16914482735 106717.91268900476,266698.42568308866 145200.32514901742,426591.72080427146 169561.0059528538,599655.6824541925 178060.35500408406,784875.3109066704 169023.41402038344,981024.8345431888 140864.5003957266,1186669.1199284124 92112.36277104852,1400167.790007894 21435.579733334926,1619682.1808765873 -72332.09863868885,1843185.2410009285 -190166.78608443442,2068474.447139957 -332830.2087735195,2293187.778665462 -500846.51734768634,2514822.75673743 -694480.5227628137,2730758.5171071524 -913717.7227469073,2938280.845500765 -1158246.4880053662,3134610.0629344806 -1427442.775183481,3316931.60532621 -1720357.7267679698,3482429.097839353 -2035708.5063438253,3628319.6800064743 -2371872.7007357418,3751891.293355066 -2726886.5984217846,3850541.599549799 -3098447.6261343854,3921818.154561024 -3483921.192745213,3963459.4236774533 -3880352.151415653,3973436.183928717 -4284481.047703532,3949992.8253110372 -4692765.273041169,3891688.030760088 -5101405.190006196,3797434.2877295464 -5506375.23843854,3666535.6621415573 -5903459.970135376,3498723.2489855937 -6288294.895078201,3294187.7035349286 -6656411.954487392,3053608.253567934 -7003289.366108722,2778177.596619721 -7324405.515732305,2469622.0975860576 -7615296.496815329,2130216.721329004 -7871616.828074313,1762794.1625896448 -8089202.807933947,1370747.6717110462 -8264137.895720185,958027.1195366858 -8392819.44345686,529127.8983970956 -8472026.040085873,89072.31824811432 -8498984.672923105,-356616.7724222077 -8471436.860228784,-801950.33265595 -8387702.864955281,-1240515.547496997 -8246743.064056852,-1665526.3309216332 -8048215.521195017,-2069881.8254813235 -7792528.794191624,-2446232.7055213926 -7480889.003047805,-2787054.980792774 -7115340.190563906,-3084730.883627634 -6698797.026273113,-3331636.306776262 -6235068.936140969,-3520234.1417833334 -5728874.7857653145,-3643172.750798011 -5185847.303980404,-3693388.6894357773 -4612526.5070178425,-3664212.686288099 -4016341.4707386307,-3549477.7775210477 -3405579.899783292,-3343628.3943748926 -2789345.0574651095,-3041829.108961697 -2177499.7483396227,-2640071.6612575273 -1580597.1859071068,-2135278.81929023 -1009798.7299268014,-1525403.5668914584 -476778.64022202423,-809522.070618853 6383.834691943053,12081.1489120925 427324.53684577026,937837.4245894396 773525.963826166,1964829.1019840352 1032459.4487863665,3088737.1920172116 1191736.8942018286,4303803.006891667 1239270.808071626,5602805.1949408 1163441.204057058,6977053.493360049 953267.7451929796,8416400.39820953 598585.3369252831,9909271.808575563 90221.21201692837,11442717.536587173 -579828.5999302252,13002482.387636663 -1418225.6592076244,14573098.30650028 -2430120.714549893,16137997.85626078 -3618992.962142002,17679649.049499523 -4986499.482576227,19179711.286978982 -6532337.415402381,20619211.880139973 -8254121.444050774,21978742.34267765 -10147279.145923018,23238673.336047795 -12204966.711479068,24379386.847093735 -14418007.450626252,25381523.866477475 -16774855.383386906,26226245.527902953 -19261586.053796764,26895505.36413022 -21861916.510773897,27372330.040591814 -24557256.167239673,27641105.64530521 -27326789.97945951,27687866.3491018 -30147595.08329196,27500582.007436376 -32994791.684172355,27069441.058681726 -35841728.62513136,26387124.888311617 -38660203.654394105,25449069.6781121 -41420717.984125495,24253711.648755543 -44092764.27819,22802711.53675523 -46645146.733449176,21101154.12673519 -49046331.43068904,19157718.69051351 -51264824.632833295,16984816.26872585 -53269576.20516812,14598689.87114598 -55030404.8308547,12019473.870518524 -56518441.20136356,9271209.123029092 -57706584.88229808,6381810.667281988 -58569970.09730951,3382985.2329178145 -59086435.24358504,310096.2291197755 -59236990.55894141,-2798025.6192294066 -59006278.01019596,-5899327.266341741 -58383017.1724423,-8948834.6432432 -57360430.626239054,-11899010.274768092 -55936642.221387826,-14700166.532433277 -54115041.44846741,-17300933.101681765 -51904607.128663115,-19648776.472109072 -49320183.68424114,-21690568.46510219 -46382703.3911245,-23373200.00307939 -43119348.24555712,-24644235.507225137 -39563645.40204517,-25452602.495958477 -35755490.56194311,-25749310.15467808 -31741094.212442894,-25488189.869413074 -27572846.234431412,-24626649.974170048 -23309095.11360555,-23126436.265576307 -19013838.79996099,-20954389.200666174 -14756325.162583442,-18083188.126193926 -10610560.974439649,-14492072.402443405 -6654729.429065382,-10167528.89267947 -2970517.3297201064,-5103935.002287924 357645.7076513085,695853.720129862 3243432.444223753,7219982.4540520245 5599542.716170633,14447153.397535086 7338701.438916717,22346270.194169994 8374722.387978255,30876180.835499596 8623628.903213527,39985528.84570932 8004821.361393513,49612721.8655843 6442279.999196136,59686025.903296314 3865790.463359659,70123792.51043074 212178.33564063787,80834824.97463617 -4573462.1534358235,91718888.29932967 -10536560.927021394,102667366.27213012 -17711902.870754104,113564067.31551936 -26122513.77076061,124286179.07627918 -35778618.965727024,134705369.85753533 -46676692.57219699,144689033.04405168 -58798615.21273973,154101668.63528877 -72110958.02886023,162806393.90151724 -86564410.38165234,170666573.03777638 -102093368.0225028,177547553.5326017 -118615697.64515366,183318494.8188829 -136032692.60318387,187854272.66023383 -154229233.19037065,191037440.67659312 -173074163.23527357,192760228.45715767 -192420892.8588951,192926553.87788814 -212108235.09186944,191454025.5657936 -231961481.65539005,188275909.96430668 -251793720.59166068,183343036.18431938 -271407395.60254455,176625610.80432147 -290596103.9403847,168114914.03984106 -309146626.5177191,157824848.2649806 -326841180.59138876,145793309.7631285 -343459881.96359247,132083354.83347546 -358783400.1633886,116784132.00544235 -372595786.5659175,100011553.13196637 -384687451.9148923,81908677.55841275 -394858266.28122,62645785.40625742 -402920751.1635469,42420118.27456534 -408703330.263581,21455268.34775251 -412053602.4999638,200.00000050462037" stroke="white" stroke-width="1.5" /></svg>