<?xml version="1.0" encoding="utf-8" ?>
<svg baseProfile="full" height="400" version="1.1" width="400" xmlns="http://www.w3.org/2000/svg" xmlns:ev="http://www.w3.org/2001/xml-events" xmlns:xlink="http://www.w3.org/1999/xlink"><defs /><rect fill="black" height="100%" width="100%" x="0" y="0" /><circle cx="200" cy="200" fill="yellow" r="10.02053748892755" stroke="orange" stroke-width="2" /><polyline fill="none" points="198.9493142292299,200.0 198.8397614974789,199.9390927786818 198.73114336207337,199.8664135118128 198.62467066380654,199.78179950855892 198.52160196277023,199.68521648185987 198.42323085714958,199.57676727275938 198.33087200953722,199.45669944318018 198.24584596780056,199.32541156657234 198.16946288835223,199.18345805062674 198.10300529054436,199.03155233339197 198.04770999157293,198.8705683037287 198.00474939146946,198.70153980913136 197.9752122971916,198.52565812855326 197.9600844932076,198.34426730498052 197.9602292830043,198.15885725206186 197.97636824133144,197.97105457104064 198.00906243042513,197.78261103843565 198.0586943446317,197.59538975123087 198.12545085649063,197.41134894457323 198.20930744315365,197.23252352692245 198.31001397475652,197.06100440898564 198.427082345777,196.89891573531273 198.55977622629638,196.7483901607942 198.70710320224313,196.61154234813515 198.86780956198578,196.49044089628438 199.04037797094517,196.3870789433634 199.22302825613914,196.30334372042014 199.41372149873362,196.2409853638728 199.6101676047711,196.2015853243298 199.80983649236106,196.1865247370886 200.0099729978711,196.19695314453705 200.20761556424407,196.23375798241642 200.39961873172567,196.29753525997023 200.58267940532463,196.38856187792723 200.75336682460608,196.50677003760111 200.9081561103577,196.65172419870788 201.04346520974957,196.8226010424166 201.15569500736152,197.0181728893111 201.24127231446778,197.23679500904842 201.29669539387598,197.47639723931152 201.31858162310078,197.7344803059817 201.303716845423,198.0081172041907 201.2491059071941,198.29395996100894 201.15202383136693,198.5882520550261 201.01006703245474,198.88684671610807 200.82120393774224,199.18523127038114 200.58382434439005,199.47855763130704 200.29678681287464,199.76167896797088 199.95946337475095,200.02919250690118 199.5717808177502,200.27548834447273 199.1342578044111,200.49480406389165 198.64803708242852,200.68128486471107 198.11491205624634,200.8290488246421 197.5373470106116,200.93225682406478 196.9184903082394,200.98518657413814 196.26217992570585,200.98231010086232 195.5729407443759,200.91837395102544 194.85597307664406,200.78848130288748 194.11713198195355,200.58817508597545 193.36289701175588,200.31352114176804 192.6003321174304,199.9611903916327 191.8370355597015,199.5285389214408 191.08107977161563,199.01368484509777 190.34094124886556,198.41558077303034 189.62542067020343,197.73408068765528 188.94355358575712,196.9700000171292 188.30451215097406,196.12516770226955 187.71749852725625,195.20246907035886 187.19163071556022,194.2058783643806 186.73582173463703,193.14047982772794 186.3586531993842,192.01247631304923 186.06824449507593,190.82918446993932 185.87211887805205,189.59901566975265 185.77706796073403,188.3314419467842 185.78901615651085,187.0369463731016 185.91288676599126,185.72695743883895 186.15247147824817,184.41376717996462 186.51030513691373,183.1104329803415 186.98754767930674,181.8306631729905 187.5838751952635,180.58868677526846 188.2973820691879,179.39910791235815 189.12449616238476,178.27674571096668 190.0599089615009,177.23646067813274 191.09652256161277,176.29296881602477 192.22541526812236,175.4606449598324 193.43582748940128,174.7533170593904 194.71516945157842,174.1840533529446 196.04905209785818,173.7649446002482 197.42134233747257,173.50688374864768 198.81424358437977,173.41934559657878 200.20840227405958,173.51016919052697 201.5830407695685,173.7853458405914 202.9161167671413,174.24881576296448 204.18450898922828,174.90227645163256 205.36422861149615,175.74500594329115 206.430655512981,176.77370416592242 207.35879806863366,177.98235555001125 208.12357482470227,179.36211602958338 208.70011601386972,180.90122746607798 209.06408248326363,182.58496238984904 209.19199922913592,184.39560177059846 209.0616003621881,186.312448298523 208.6521819724352,188.31187738218432 207.94495902755665,190.3674277474184 206.92342212939653,192.4499331549093 205.57368967520847,194.5276963439175 203.8848507289494,196.56670585826112 201.84929370886815,198.53089592085303 199.46301584612064,200.38244899842172 196.72590827023825,202.08214014267466 193.64201153573606,203.5897216129562 190.21973642432917,204.86434568390763 186.47204494301312,205.8650229258727 182.41658659298415,206.55111262251754 178.07578521071815,206.88284136660235 173.47687198247328,206.82184525878515 168.6518606082353,206.33173053392923 163.63746104102162,205.37864686313472 158.47492875194973,203.93186703641197 153.20984706901865,201.9643662295236 147.8918408056138,199.45339360808657 142.57422012972947,196.38102863156413 137.31355442216275,192.73471409816065 132.16917672570003,188.50775772747332 127.20262029077347,183.69979391927865 122.47698966828952,178.3171972617472 118.05626977836229,172.37343939775178 114.00457738455638,165.8893810000488 110.38536041603003,158.8934908603549 107.26055159287002,151.4219844680503 104.68968381033181,143.51887494460948 102.72897571236045,135.2359298118055 101.43039681981536,126.63252780577567 100.84072245997376,117.77541080422942 101.00058955657022,108.73832690789001 101.94356506914403,99.60156180552887 103.69523950216866,90.45135674878935 106.27235842391947,81.37921276079848 109.68200532831375,72.48108209194329 113.9208494266886,63.85644940598826 118.9744720581642,55.60730671703297 124.8167853454181,47.83702768806188 131.40955648719887,40.649148528762424 138.70205066101755,34.146064376118744 146.63080490216623,28.42765168680097 155.11954452339012,23.589828795089232 164.07925264012664,19.723068372366043 173.40840216841914,16.91087704158548 182.99335826803437,15.228258829323352 192.70895761612277,14.740180455376276 202.41926912380586,15.500057641497705 211.97853875897016,17.54828264296785 221.23231902574315,20.910814045880443 230.01878138993243,25.597850506599627 238.17020754833118,31.602610516145802 245.5146529392502,38.90024043102633 251.87777330571774,47.44687290469156 257.0848024779679,57.17885746385818 260.96266686704274,68.01218428735385 263.3422194878523,79.8421212505392 264.06057369120526,92.54308298751913 262.96351421529073,105.96874909138565 259.9079607044922,119.95244661842345 254.76445652501357,134.3078097882874 247.41965357108484,148.82972718551054 237.77876184130542,163.29558387954137 225.76793091061967,177.46680270658197 211.33652906747932,191.09068551717078 194.45928486483217,203.9025515136556 175.138255182717,215.62816591123166 153.40458365243035,225.98644808923024 129.32001347746177,234.69244419469777 102.97811933140277,241.46054486104725 74.50522414058129,246.00792435784768 44.06096818754227,248.05817314454097 11.838500113981183,247.3450915152896 -21.93573793389237,243.6166078514489 -57.00265558651802,236.63878100189203 -93.07161082045002,226.19984255099706 -129.8219744629837,212.11423127209454 -166.90517457452705,194.22656896365186 -203.9472274834905,172.415524189173 -240.5517566503023,146.59750825146614 -276.3034945494911,116.73014608734236 -310.77225643001043,82.8154637269765 -343.51736820000724,44.90273357640717 -374.09252384620606,3.090919100720157 -402.0510408102174,-42.469338447425 -426.95147468111065,-91.57424675727782 -448.36354750835255,-143.96595548445407 -465.87433708001686,-199.33226490516262 -479.0946677410534,-257.3069951847212 -487.6656368421195,-317.47105604361343 -491.2652048110782,-379.35425056011184 -489.6147712282011,-442.43783997971343 -482.48565426503706,-506.15788873877216 -469.70538651769414,-569.9094004948029 -451.1637367281405,-633.0512468433112 -426.81836423916945,-694.9118806573442 -396.7000113623336,-754.7958156901781 -360.9171382399379,-811.9908433247828 -319.6599053310829,-865.7759462388804 -273.2034104177681,-915.4298573958656 -221.91009006973547,-960.2402012944715 -166.2311998737178,-999.5131429488663 -106.70729345850452,-1032.5834587692625 -43.96762745135683,-1058.824932522664 21.271572012060517,-1077.6609690314558 88.21003574602473,-1088.575308376533 155.9676142685746,-1091.1227142768316 223.5897076944434,-1084.9395021849668 290.0539799072083,-1069.7537656348904 354.2783593160043,-1045.395153664621 415.13031264494145,-1011.8040478729199 471.43736145250875,-969.0399850032054 521.9987935822298,-917.2891700213079 565.598503672486,-856.8709255938597 601.0188783887402,-788.2429267946567 627.0556233890965,-712.0050748632358 642.5334104134696,-628.9018709904836 646.3222045315024,-539.8231604652923 637.3541137408374,-445.8031291158376 614.6405860316655,-348.0174478246081 577.2897629894599,-247.7784769660919 524.5237842641909,-146.52846085912518 455.6958240615579,-45.830662660911 370.3066294789611,52.6415875562283 268.02032128028776,147.11793465618365 148.67921083482037,235.74610752473478 12.317382680151894,316.6090454448334 -140.8272092655942,387.7439633614865 -310.30238221334895,447.16324824998355 -495.43334728023274,492.87704878719774 -695.3165518771549,522.9173902152457 -908.8159673452972,535.3636160370872 -1134.5620321848949,528.3689283750936 -1370.9534422839695,500.18776985652846 -1616.1619569699062,449.2037621809924 -1868.140363509623,373.95789050313056 -2124.6337129583935,273.17659886601336 -2383.193907137058,145.7994405860009 -2641.1976801861115,-8.994090844125026 -2895.867978841378,-191.75893967170538 -3144.2987035881224,-402.76047501843743 -3383.4827285220476,-641.9524944508387 -3610.3430714708825,-908.9576534176028 -3821.7670381548915,-1203.0507272521181 -4014.643115382195,-1523.1451044643654 -4185.9003390247635,-1867.782896578813 -4332.549813384954,-2235.1290306134847 -4451.728010159216,-2622.969665297153 -4540.741428186088,-3028.7152412063897 -4597.1121502085425,-3449.408438161265 -4618.623790681682,-3881.7372705073117 -4603.367289927774,-4322.053502472923 -4549.785975393705,-4766.396511842077 -4456.719281112434,-5210.522671025889 -4323.44449240631,-5649.940250639957 -4149.715865069333,-6079.949782370122 -3935.8004573693634,-6495.689745796739 -3682.510009817608,-6892.187368590223 -3391.2282123058244,-7264.414251813416 -3063.9327113932313,-7607.346452774213 -2703.211232642127,-7916.028577843301 -2312.2712242769057,-8185.6413578322245 -1894.9424693051778,-8411.57209992422 -1455.6721637204,-8589.487333823537 -999.5120185166845,-8715.406896839535 -532.0970128880865,-8785.778634185257 -59.61550492660422,-8797.552827997708 411.22950598258376,-8748.255412641005 873.2680745382467,-8636.058985886737 1318.9199679953642,-8459.850586708339 1740.2601818654239,-8219.29518177299 2129.0930896564673,-7914.8937853052885 2477.034881060802,-7548.035131800195 2775.6038166939597,-7121.03982896252 3016.3176985945224,-6637.195940025605 3190.797825638819,-6100.784980909114 3290.878573350184,-5517.09736904023 3308.7216099253747,-4892.43642745024 3236.9336363856396,-4234.110130173574 3068.68642037869,-3550.4098730402707 2797.8377821531553,-2850.5756674926697 2419.0520894744636,-2144.74728369808 1927.9187276359646,-1443.9010123822748 1321.066933114088,-759.771871664331 596.2753166586942,-104.76125469894157 -247.42564452510663,508.1698051324138 -1209.6598936745456,1065.621383883557 -2288.6226165592525,1553.888864888864 -3481.0093415106226,1959.1098127659143 -4781.959024194915,2267.4225420383477 -6185.012764355868,2465.135187506649 -7682.089717693645,2538.9038728406863 -9263.481656914462,2475.918366561845 -10917.867501458117,2264.093413427613 -12632.348975460724,1892.2637371414464 -14392.5083684251,1350.380530282642 -16182.489163471204,629.7070824320883 -17985.100064887592,-276.98894927651736 -19781.942701327545,-1375.2492484820502 -21553.5630050773,-2668.747249432676 -23279.625973425493,-4159.12204522446 -24939.11320770938,-5845.826635770866 -26510.542301888323,-7725.993368905859 -27972.206818639002,-9794.319405413336 -29302.43525045543,-12042.974979440893 -30479.86701985838,-14461.537127976426 -31483.7432306537,-17036.951425478823 -32294.209545567006,-19753.52408141214 -32892.628239081925,-22592.946538818716 -33261.896162658064,-25534.354451152012 -33386.765067576365,-28554.422612853225 -33254.16046340931,-31627.497077619286 -32853.494952511406,-34725.76531855257 -32176.97177792156,-37819.46486857312 -31219.874158501996,-40877.13043037047 -29980.83586568427,-43865.87896612902 -28462.088425293536,-46751.73177223402 -26669.680309714124,-49499.9720177016 -24613.663523892057,-52075.53568228088 -22308.243086654682,-54443.43327671576 -19771.88506934496,-56569.19916969847 -17027.379079007475,-58419.36479023307 -14101.851364860686,-59961.9514275141 -11026.725085357672,-61166.977820438005 -7837.624698802812,-62006.97722319558 -4574.221932457978,-62457.51815997295 -1280.0213416578144,-62497.72264866736 1997.9159109381858,-62110.77528877938 5209.310748735543,-61284.416280310674 8301.067308951871,-60011.411176441565 11217.735686863798,-58289.98998056439 13902.034657091424,-56124.24808512245 16295.431876197708,-53524.501522347826 18338.778188315344,-50507.58906149339 19972.99175585208,-47097.113848860856 21139.78683061621,-43323.617550339375 21782.441077755873,-39224.68032482801 21846.594477200164,-34844.94043327249 21281.071966893047,-30236.027873399846 20038.72117155598,-25456.407124600715 18077.255792873777,-20571.124889445033 15360.09453495715,-15651.459625265958 11857.184815833698,-10774.470666849196 7545.799984592772,-6022.445843725599 2411.298337428596,-1482.2476855274529 -3552.168083491216,2755.4404226116335 -10341.007104972065,6596.965436076646 -17941.614689139587,9946.649107147128 -26329.88998023972,12707.82017574437 -35470.84899426846,14783.927306259775 -45318.348381717275,16079.724308841242 -55814.93009051438,16502.517716744358 -66891.79697795451,15963.465349831893 -78468.92846502794,14378.91309765374 -90455.34419404138,11671.755824136571 -102749.52234309555,7772.807050695313 -115239.97777329935,2622.1609368021923 -127806.00354360067,-3829.4709319303583 -140318.57753325623,-11619.466297105493 -152641.43397526082,-20772.061559597474 -164632.29764011715,-31297.2032251795 -176144.27623531225,-43189.5012865522 -187027.40432142263,-56427.30442527632 -197130.32971304012,-70971.91673453101 -206302.13095613537,-86766.97522376485 -214394.25207966688,-103738.0066574151 -221262.538436849,-121792.18129274668 -226769.35511091558,-140818.27981015778 -230785.76709335425,-160686.88816976477 -233193.75828259386,-181250.8332808438 -233888.46433205527,-202345.87023949804 -232780.39253282506,-223791.6294822028 -229797.6002827225,-245392.82953011538 -224887.8023045874,-266940.7580767243 -218020.37566584672,-288215.02101916895 -209188.23085131502,-308985.55567522923 -198409.51668249982,-329014.90089153696 -185729.1267879466,-348060.71306607133 -171219.9756363477,-365878.5133154446 -154984.01286983097,-382224.6471547832 -137152.9458381595,-396859.43416842015 -117888.64185026109,-409550.481279761 -97383.1837378155,-420076.12942804006 -75858.55487168492,-428228.99978018505 -53565.93278540671,-433819.6021014819 -30784.57403462966,-436679.96463455824 -7820.2768449117375,-436667.2418485422 14996.587546034987,-433667.2537754113 37313.47918710961,-427597.9084044377 58758.52855789892,-418412.456812923 78943.80429738121,-406102.52942470496 97468.99750337773,-390700.90105716465 113925.50459974317,-372283.9322890111 127900.8846019168,-350973.635196831 138983.6603326847,-326939.3127050704 146768.4268194252,-300398.7227024871 150861.22381752674,-271618.7207220344 150885.12323257653,-240915.33837705976 146485.97624078082,-208653.25890273816 137338.25922048517,-175244.6560669637 123150.95229758594,-141147.36837927272 103673.37946533062,-106862.38691945953 78700.93495600927,-72930.6421985532 48080.61690919203,-39929.083212516234 11716.286487065287,-8466.050200688864 -30426.431482348456,20824.048486512464 -78315.69141783543,47286.73564740702 -131849.4987214197,70254.11111328915 -190852.39474236275,89052.10472870004 -255072.8374006112,103008.28669414269 -324181.35677225055,111460.17526749228 -397769.5606141852,113763.97160862305 -475350.05925761606,109303.64152942099 -556357.3725171263,97500.25421574773 -640149.8732458977,77821.4787615378 -726012.8129349338,49791.13074426517 -813162.4643385742,12998.653223845424 -900751.404560317,-32891.590387608114 -987874.9494198919,-88131.34001247422 -1073578.7363302815,-152879.91224879987 -1156867.4384453709,-227196.25979202852 -1236714.5776165382,-311031.75521732215 -1312073.3878586912,-404223.83766068163 -1381888.6647286487,-506490.6594893213 -1445109.5194334525,-617426.866801854 -1500702.939800272,-736500.6424665161 -1547668.0436537545,-863052.1333288731 -1585050.893874021,-996293.3741564683 -1611959.7286726285,-1135309.8098172427 -1627580.4456562302,-1279063.5041137696 -1631192.164286048,-1426398.1086453332 -1622182.6786267813,-1576045.6480994055 -1600063.601052975,-1726635.1595657654 -1564484.9880832809,-1876703.2029310744 -1515249.2319776327,-2024706.237289123 -1452323.9963842314,-2169034.834761158 -1375853.9713752875,-2308029.6783593795 -1286171.222860267,-2439999.2647712845 -1183803.9137913794,-2563239.2064470365 -1069483.179933699,-2676053.0004161163 -944147.951391618,-2776774.104147994 -808947.5226645671,-2863789.1318314057 -665241.6888156353,-2935561.958024196 -514598.28340915794,-2990658.4900844437 -358787.97520109,-3027771.846510463 -199776.20510165227,-3045747.6556782643 -39712.17258311863,-3043609.1688623196 119085.18865856012,-3020581.8632517364 274144.27254271787,-2976117.1953175897 422860.8906882765,-2909915.152728265 562521.343181327,-2821945.244413907 690328.3821829417,-2712465.5636931085 803429.9386470965,-2582039.558916328 898950.4393401224,-2431550.1501384983 974024.4975381976,-2262210.8391616005 1025832.7167244863,-2075573.4740949352 1051639.3028443053,-1873532.3485289642 1048831.13776923,-1658324.3396164 1014957.9251602923,-1432524.8188519806 947772.9805190951,-1199039.104128461 845274.2005019576,-961089.2616422246 705744.7131825734,-722196.1112786352 527792.6815213426,-486156.3390036959 310389.70746589784,-257014.67422798148 52907.26448385967,-39031.14871817406 -244849.42749126707,163356.48403877372 -582610.6781763765,345575.0245901033 -959615.3481659943,502962.58584504505 -1374588.2025416673,630819.5513948675 -1825722.1695982919,724463.3800318941 -2310666.054787992,779286.8310925617 -2826518.2289894414,790819.1141642415 -3369826.7706853007,754789.3970240979 -3936596.4934925856,667192.0383819427 -4522303.233762344,524352.8480742795 -5121915.707777744,322995.6178242541 -5729925.17467448,60308.11157725443 -6340383.059952417,-265993.3432197133 -6946946.605822281,-657601.5621787998 -7542932.519249101,-1115559.4388180182 -8121378.48714646,-1640205.0603487082 -8675112.321601663,-2231121.9689054177 -9196828.387251673,-2887095.533363314 -9679170.849079512,-3606076.385569805 -10114823.163171176,-4385151.850876512 -10496603.116678191,-5220526.265747826 -10817562.607778143,-6107511.024522244 -11071091.243308824,-7040525.132833404 -11251022.722535232,-8013106.966633866 -11351742.871810524,-9017937.843245719 -11368298.098373512,-10046877.904604746 -11296502.943868482,-11091014.693271698 -11133045.341059523,-12140724.669448135 -10875588.11230955,-13185747.7729499 -10522865.197327843,-14215274.97885304 -10074771.062020587,-15218048.630531235 -9532441.721483296,-16182475.160451995 -8898325.809613844,-17096749.628985032 -8176244.146732188,-17948991.326392155 -7371436.29603058,-18727389.495079942 -6490592.660538345,-19420358.04024314 -5541870.755237512,-20016697.90950489 -4534894.394465448,-20505765.63849502 -3480734.6629791823,-20877646.382041622 -2391871.689965909,-21123329.582422726 -1282136.418503578,-21234885.269628156 -166631.75784510162,-21205638.846551627 938367.2785550948,-21030342.087202825 2015534.611428697,-20705337.97111032 3046635.2199728377,-20228716.894707114 4012687.9930187715,-19600461.743196838 4894148.666088895,-18822579.276575927 5671111.910426261,-17899215.28334958 6323531.33916186,-16836750.987014968 6831455.890070739,-15643878.255327968 7175280.737338351,-14331651.262141176 7336010.5801467225,-12913512.387301568 7295532.857646024,-11405290.312438041 7036898.15213838,-9825168.47976608 6544604.769349038,-8193622.327157197 5804884.230883725,-6533323.995074395 4805984.183807621,-4869013.518469174 3538445.030179144,-3227335.867781107 1995366.4097226039,-1636643.5856546403 172659.53590904074,-126765.17723418852 -1930718.7063439428,1271260.1512612668 -4312554.0404758165,2525480.3522844505 -6967189.593724235,3603359.4652970545 -9885371.293811819,4472135.594761286 -13054127.845621258,5099205.421983758 -16456689.103089048,5452532.236156292 -20072446.429626536,5501073.975167336 -23876958.35889771,5215227.282499067 -27842004.526257347,4567283.119506175 -31935690.439810023,3531889.029557392 -36122605.19987223,2086512.7390389435 -40364033.7584004,211901.40728897715 -44618224.73828765,-2107469.4896275783 -48840714.209810756,-4882963.930645848 -52984705.152249396,-8121376.280661814 -57001501.618010536,-11824552.032311613 -60840995.87053086,-15989045.085172046 -64452205.992727675,-20605818.285360407 -67783860.66753007,-25659993.86101931 -70785027.02457678,-31130660.213286947 -73405776.6367249,-36990741.25434124 -75597883.9464677,-43206934.121134475 -77315550.61615314,-49739720.63365001 -78516148.53800288,-56543457.30917877 -79160973.52162616,-63566548.089575775 -79216001.00964811,-70751703.18841934 -78652634.56792663,-78036286.62233704 -77448437.36734164,-85352754.05978331 -75587836.43091922,-92629181.60692944 -73062789.07436837,-99789885.06111507 -69873400.73080905,-106756128.00601658 -66028483.231753,-113446915.90918188 -61546042.62570896,-119779872.1231651 -56453685.761545,-125672190.39871311 -50788935.153313115,-131041657.20620309 -44599442.082632266,-135807735.8447979 -37943088.488516904,-139892703.0136736 -30887968.945671428,-143222827.24317095 -23512244.94196019,-145729577.35367492 -15903864.73328605,-147350847.9447812 -8160143.276781996,-148032187.83576557 -387198.1162077917,-147728016.39955366 7300761.390260247,-146402811.87537113 14782292.4593191,-144032255.0288464 21929724.075549744,-140604310.97087535 28610306.29332062,-136120231.5656457 34687498.97876637,-130595460.67034627 40022393.27489931,-124060424.46963175 44475256.97112375,-116561189.41050206 47907192.825567074,-108159970.71971498 50181896.749153316,-98935475.20607483 51167500.64036157,-88983063.02104379 50738482.58689792,-78414714.27813488 48777625.153885,-67358787.9160047 45178000.587742865,-55959561.93121756 39844960.01111889,-44376546.09942791 32698102.098229606,-32783560.540709205 23673195.332508575,-21367575.95406282 12724026.790356744,-10327314.033012768 -175850.5044868402,128390.54061532633 -15031500.223016312,9782462.066333914 -31825144.233939257,18411682.088931896 -50514891.7900857,25789002.956987597 -71033684.81772853,31686062.259527415 -93288486.94450639,35875880.25797246 -117159742.7218647,38135718.95449195 -142501131.90978804,38250077.994550064 -169139641.68805635,36013799.236100994 -196875977.23583198,31235248.57738282 -225485328.28278488,23739540.568493865 -254718505.98697606,13371768.488476617 -284303460.85095996,200.00000034817157" stroke="white" stroke-width="1.5" /><circle cx="150.12137650011238" cy="203.4817980637104" fill="red" opacity="0.7" r="14.738476308781951" /></svg>