<?xml version="1.0" encoding="utf-8" ?>
<svg baseProfile="full" height="400" version="1.1" width="400" xmlns="http://www.w3.org/2000/svg" xmlns:ev="http://www.w3.org/2001/xml-events" xmlns:xlink="http://www.w3.org/1999/xlink"><defs /><rect fill="black" height="100%" width="100%" x="0" y="0" /><circle cx="200" cy="200" fill="yellow" r="10.00000575118541" stroke="orange" stroke-width="2" /><polyline fill="none" points="200.20684506308177,200.0 200.13877567557822,200.00728508902924 200.0656339079647,200.00691000307594 199.9880299054108,199.99810090539538 199.90667150647354,199.9801283072656 199.82236202382794,199.9523188252017 199.7359966900588,199.91406701815987 199.64855772336747,199.86484716251712 199.5611079821935,199.80422481385176 199.47478319323227,199.73186799707867 199.39078275403764,199.64755786049463 199.3103591292138,199.55119862493297 199.23480587797096,199.44282665667734 199.1654443703777,199.32261849219873 199.1036092697975,199.1908976442891 199.05063287953786,199.04814002289956 199.00782847243795,198.8949778100454 198.97647274272634,198.73220163660017 198.95778753973468,198.56076091971966 198.95292106267664,198.38176223304305 198.96292871441196,198.19646559771303 198.98875382961563,198.00627860060902 199.03120850876454,197.8127482669312 199.09095480354023,197.61755063731363 199.16848651132545,197.4224780248467 199.26411184615628,197.22942395458549 199.3779372604975,197.04036581710443 199.5098526962716,196.85734529819268 199.65951854444188,196.68244667858838 199.8263545899052,196.51777313041606 200.0095312122905,196.36542117037644 200.20796310332258,196.22745346336464 200.4203057475637,196.10587020366515 200.64495489550367,196.00257933375605 200.88004923608116,195.91936589260817 201.12347644979096,195.85786081571928 201.37288279361263,195.81950953749967 201.6256863351929,195.805540772542 201.87909391618416,195.8169358752732 202.13012188360628,195.85439919702077 202.3756205838307,195.9183298751522 202.61230256662014,196.00879550021392 202.83677439698667,196.12550811346694 203.0455719209066,196.267802988495 203.23519877765577,196.43462064627673 203.40216789726563,196.62449254295308 203.54304566695578,196.83553085321432 203.6544983960267,197.06542274956897 203.733340655293,197.31142954859726 203.77658501543124,197.57039105956068 203.78149265936355,197.83873542844148 203.74562429777734,198.1124947217091 203.66689077487985,198.3873264390246 203.54360271429726,198.65854108296494 203.37451852343554,198.92113584703034 203.15889004939143,199.1698344111396 202.8965051613801,199.39913275706826 202.58772652432802,199.60335083547977 202.23352582641996,199.7766898320763 201.8355127305763,199.9132946937784 201.39595783658723,200.00732148763905 200.917808967376,200.0530090764005 200.4047001299424,200.04475450627788 199.86095254917777,199.97719141582837 199.2915672310627,199.8452706908296 198.70220858074495,199.64434251017153 198.09917868050496,199.3702388531311 197.48938192236653,199.0193554703257 196.88027978966815,198.58873226041956 196.27983569069656,198.07613094356017 195.69644986476106,197.4801088817968 195.1388845059666,196.8000878675811 194.61617938137925,196.03641668500845 194.13755835707627,195.19042624578444 193.71232738638807,194.26447611394795 193.34976465799207,193.26199126098697 193.0590037457932,192.1874879368456 192.84891074598926,191.04658760297997 192.72795652753393,189.84601795145312 192.70408535844666,188.59360012923918 192.78458130007252,187.29822139941945 192.97593388241802,185.96979260055363 193.28370468399183,184.61918991173445 193.71239653707545,183.2581805929725 194.26532716196635,181.89933254766564 194.94450909945132,180.55590774477562 195.75053785762967,179.2417397415174 196.68249021537153,177.97109576115517 197.7378346284506,176.7585240029492 198.9123556641894,175.61868709021667 200.20009434494196,174.56618279544816 201.5933062087874,173.61535341582808 203.08243879654052,172.7800854055255 204.65613014700875,172.07360109975613 206.30122972705226,171.50824458673063 208.00284303947768,171.09526399394517 209.74440094051542,170.84459265149522 211.50775446036687,170.76463177382016 213.2732956562112,170.8620374591169 215.020104738698,171.141514939232 216.7261234022718,171.60562311886775 218.36835395905857,172.2545925182542 219.92308352826137,173.0861597750512 221.366132171248,174.09542186637955 222.67312349032187,175.27471317802667 223.81977583049104,176.61350847284365 224.78221184265686,178.09835469232152 225.53728378812795,179.7128343628906 226.0629115930948,181.4375631706764 226.33843030277777,183.2502240148162 226.34494324367915,185.12563955007312 226.06567688415805,187.0358848850463 225.48633309390394,188.95044171402887 224.595434247333,190.83639473040466 223.38465639992947,192.6586706999467 221.84914559544004,194.38032006668806 219.98781224073701,195.96284042604563 217.8035984189541,197.3665406341222 215.3037130046632,198.55094373376735 212.49982950146833,199.47522627285048 209.4082416459836,200.09869097469317 206.0499720156877,200.3812691016835 202.4508291438863,200.28404823822376 198.64140898448892,199.76982061626478 194.65703698324518,198.8036465240556 190.53764750031232,197.35342678499396 186.32759789045528,195.39047777742118 182.07541517971927,192.89010199681135 177.83347397796814,189.83214674802056 173.65760503107944,186.201543205959 169.60663463960296,181.9888178068929 165.74185604600916,177.19056773790476 162.12643481288882,171.80989218672113 158.82475117118048,165.85677100544936 155.90168330123186,159.34838253632847 153.4218365098299,152.30935255113712 151.44872427191058,144.77192657316874 150.04390810434322,136.77605828536088 149.26610421807922,128.36940728270187 149.17026584056268,119.60724010256331 149.8066509986241,110.55222926281641 151.21988638878074,101.2741459526724 153.44803872240897,91.84944305170205 156.52170560307255,82.36072629336236 160.4631385579795,72.89611263377728 165.2854112910327,63.548476225946445 170.99164653770845,54.41458382367557 177.5743150692646,45.594122936313084 185.01462040371862,37.188627611054216 193.28198262298906,29.300308318760585 202.33363436026846,22.03079404492749 212.11434150139883,15.479796321182363 222.55626043283465,9.743706554725549 233.57894276275667,4.9141396024600965 245.08949733928034,1.076438071242137 256.98291809102443,-1.6918467170406473 269.14258472358836,-3.322479800287823 281.4409416263811,-3.7580551634246717 293.740358486061,-2.9534762263557184 305.89417407672795,-0.8773837081281499 317.7479225169094,2.486490375770046 329.1407389660978,7.138064328435917 339.9069392987901,13.059766009809834 349.87776576404804,20.21553171843675 358.883288038654,28.549966473003877 366.75444643963795,37.98768689753038 373.3252214073249,48.43286706085439 378.43491073530174,59.76900645747307 381.9304934429366,71.85893783649004 383.6690566950207,84.54509078567204 383.52025980874805,97.65002485934808 381.36880718849636,110.97724360715041 377.1169000321022,124.31229812464977 370.68663489700435,137.42418572041655 362.02231573873087,150.06704599515564 351.0926448748248,161.98215308009847 337.8927575200636,172.90019901121536 322.44606411734605,182.54385925506983 304.80586468399196,190.63062728779977 285.05669983336185,196.8759009016905 263.31540404106755,200.99629861910103 239.73182812357337,202.7131802800638 214.48919980019687,201.75634159004628 187.80409362743242,197.86784822366943 159.92598453157834,190.8059710367052 131.13636262006855,180.34918010258946 101.74739091537185,166.30015172259377 72.100092112616,148.4897393230878 42.56205539083777,126.7808563114405 13.524659678226243,101.07221657577634 -14.600184453321447,71.3018764432237 -41.3837659543226,37.45052061425562 -66.3847627722825,-0.4555660781818176 -89.15386819232333,-42.34189922651254 -109.23882572992954,-88.08362513171573 -126.1898372823365,-137.5038367237055 -139.56530223711917,-190.37242873857286 -148.93783828542905,-246.40554265976573 -153.9005278833593,-305.26564798104715 -154.0733277425852,-366.56230155630556 -149.10957250854233,-429.85362116810256 -138.70249800113868,-494.6485029870639 -122.59170415071901,-560.4096053328333 -100.56947316215525,-626.5571131209304 -72.4868545827992,-692.4732886372535 -38.25942593331169,-757.5078048836568 2.1273645221189383,-820.9838477573802 48.61336734942461,-882.2049628489717 101.0595083008185,-940.4626117649461 159.24426466970087,-995.0443917111957 222.86093239664365,-1045.2428607306053 291.5157709209157,-1090.3648996029701 364.7271076802509,-1129.7415301258854 441.92547770990996,-1162.7380984487788 522.4548659697449,-1188.7647214822907 605.5751108404061,-1207.2868843108145 690.4655167000285,-1217.836067160141 776.2297116615133,-1220.0202719793056 861.9017734783123,-1213.534311251056 946.4536323925447,-1198.1697154113683 1028.803744402816,-1173.824110393954 1107.8270121893515,-1140.509913472941 1182.3659138898531,-1098.3621938993997 1251.2427822289485,-1047.6455449474408 1313.2731583441207,-988.7598160223158 1367.2801262159721,-922.2445575392003 1412.109515111507,-848.7820374419821 1446.6458391117405,-769.1986965608303 1469.8288248582173,-684.46492054699 1480.670361366975,-595.6930188904594 1478.2716893817765,-504.1333165108423 1461.8406325355813,-411.1682805762723 1430.7086588281431,-318.30462448213734 1384.3475488759418,-227.16335221212046 1322.385437312819,-139.46772947884267 1244.6219858733311,-57.029192938080314 1151.0424413229796,18.268764805286054 1041.8303287428544,84.48866895615903 917.3785309456127,139.6590008408523 778.2985081875953,181.79587703535339 625.4274190150395,208.9263156114457 459.83291317782704,219.11290574382818 282.81538116555953,210.47966713557005 95.90746213476447,181.2388565942968 -99.12936717089633,129.7184510341118 -300.3112754701437,54.39000960888197 -505.44175695104616,-46.10340696866038 -712.1246018195127,-172.91960416541076 -917.7802163020967,-326.99027217695095 -1119.6653132894623,-508.9950353319764 -1314.8959542900075,-719.3369250528687 -1500.473880372769,-958.1196776921995 -1673.316024684784,-1225.1272627699911 -1830.287052349013,-1519.8060465785052 -1968.234725556123,-1841.2499904898827 -2084.027842970421,-2188.1892723257365 -2174.596453737205,-2558.9827026063804 -2236.9739980036284,-2951.6142852237463 -2268.3409785799035,-3363.694243968977 -2266.0697228340227,-3792.4648023522623 -2227.769750814758,-4234.810964307787 -2151.3332256335634,-4687.2764977841325 -2034.9799260135155,-5146.08527206275 -1877.3011493391923,-5607.168043187938 -1677.301927212697,-6066.194720478074 -1434.4409151166055,-6518.612081152287 -1148.6673039559225,-6959.686830166679 -820.4540946090395,-7384.553829011119 -450.82707772792844,-7788.269241157035 -41.38887039437611,-8165.868263831586 405.662620700807,-8512.427036664414 887.5219127776492,-8823.1282384204 1400.7704039772648,-9093.329804466952 1941.3780947321443,-9318.636120857895 2504.713038889433,-9494.970977023439 3085.5589249984387,-9618.651489147089 3678.14111385849,-9686.462141524198 4276.161375075221,-9695.728034682206 4872.841473421854,-9644.386377944771 5460.975655818304,-9531.055221578212 6032.991982427405,-9355.098390766345 6581.022331570348,-9116.685561477641 7096.980788863785,-8816.846407809615 7572.650007293717,-8457.517752532218 7999.774998111776,-8041.582668124765 8370.16368383567,-7572.900505315874 8675.793415736918,-7056.32687056891 8908.92253059083,-6497.722633541451 9062.205896819549,-5903.951120559785 9128.813280227501,-5282.862740686608 9102.549246117553,-4643.266396938786 8977.973209534402,-3994.8871563448365 8750.518150574047,-3348.309788329004 8416.606428992574,-2714.907930662848 7973.761063580337,-2106.7588050071554 7420.710788730206,-1536.543578725603 6757.487165033659,-1017.4336548089755 5985.512004196046,-562.9633658046606 5107.673372555881,-186.8897487830701 4128.388463347371,96.95971543757763 3053.651676703423,274.8503065704935 1891.066319189061,333.31291097431165 649.8584320860615,259.32500066218 -659.1286198531569,40.49803388163647 -2023.4600197354084,-334.7306287146798 -3429.156877687903,-876.9033822738922 -4860.765968182828,-1595.347870604214 -6301.452454641184,-2497.984727581695 -7733.115986571657,-3591.140114863529 -9136.530289514405,-4879.365714817754 -10491.506083828284,-6365.268923100666 -11777.076867131727,-8049.356042426847 -12971.706779589602,-9929.891305169685 -14053.519444194244,-12002.774545100217 -15000.546339022452,-14261.440295672872 -15790.992918785498,-16696.781011948744 -16403.520362751107,-19297.096994003612 -16817.54048950068,-22048.075430377776 -17013.52105041863,-24932.800780084155 -16973.29829792293,-27931.798470661608 -16680.39342601564,-31023.113607997268 -16120.329204638363,-34182.426071917056 -15280.942880494047,-37383.203011188554 -14152.691200364261,-40596.889354490006 -12728.943233359234,-43793.136522550165 -11006.256530703873,-46940.06906413101 -8984.632070097576,-50004.58844847582 -6667.743390625267,-52952.71273352832 -4063.1353375367853,-55749.950297473864 -1182.3879074292295,-58361.7052763476 1958.7591835497578,-60753.71179849015 5340.325390472956,-62892.49355390209 8938.05561088353,-64745.84468988842 12723.437431296856,-66283.32749097589 16663.772550408692,-67476.78178848597 20722.305120965422,-68300.8405610955 24858.40922787589,-68733.44574017289 29027.83713305985,-68756.35783063593 33183.02927084122,-68355.65260754366 37273.486275460156,-67522.19785848675 41246.2025695082,-66252.10291972476 45046.16024476845,-64547.13360726195 48616.88113200427,-62415.08507953251 51901.034091548165,-59870.10519237942 54841.09367086497,-56932.96102520243 57380.04537821626,-53631.24147435602 59462.13192352474,-49999.48913001847 61033.63388964309,-46079.25507875123 62043.67743119508,-41919.07080761263 62445.06076620872,-37574.33202754519 62195.09044054085,-33107.08998309459 61256.41761950097,-28585.746670215463 59597.864008128185,-24084.65134039377 57195.22643425723,-19683.5967224925 54032.04865962152,-15467.214536981764 50100.348626198174,-11524.271102353598 45401.28910968882,-7946.865130788107 39945.7796506028,-4829.531168242154 33754.99767607917,-2268.253540221686 26860.816921486694,-359.3971043313577 19306.131617794184,801.4374314038649 11145.065435058043,1120.6244063968431 2443.0548688122753,507.7796613574045 -6723.202372462825,-1122.9295181615807 -16265.942373400158,-3851.4443850822013 -26086.680584149202,-7750.459331333568 -36076.71373907773,-12884.066972343579 -46117.7823436683,-19306.420640071636 -56082.89623656759,-27060.432127339605 -65837.32387275291,-36176.523283958995 -75239.74398010805,-46671.450642289434 -84143.55613125401,-58547.22262711987 -92398.34456369984,-71790.12906406033 -99851.48729516112,-86369.90262539592 -106349.90024047713,-102239.03152780575 -111741.90366744489,-119332.24220983582 -115879.19595862318,-137566.16985829105 -118618.91730414587,-156839.2335142219 -119825.78366785527,-177031.7310663577 -119374.26917799682,-198006.1677313413 -117150.81302768446,-219607.82962809052 -113056.02506344723,-241665.61178376595 -107006.86252676841,-263993.10737092816 -98938.74892791736,-286389.9621830157 -88807.6048072701,-308643.49532602454 -76591.7592094752,-330530.58386002976 -62293.71009152443,-351819.8056909459 -45941.701636334874,-372273.8314206831 -27591.08657573037,-391652.0521467013 -7325.442164638912,-409713.42639777716 14742.59058763248,-426219.5255430369 38470.7734164639,-440937.7531608476 63687.07015721293,-453644.71005087154 90189.80375895902,-464129.6728668957 117748.19297110991,-472198.15079262736 146103.28746889287,-477675.4813318273 174969.3164843589,-480410.4231932355 204035.46187494064,-480278.70147566916 232968.06201412907,-477186.45795512607 261413.24795736303,-471073.55729841144 289000.0080564044,-461916.69852995395 315343.67160967103,-449732.28011083615 340049.79629317124,-434578.96659910784 362718.4380723383,-416559.9050918083 382948.776110891,-395824.5405405332 400344.05893642205,-372569.9806168512 414516.8318666563,-347041.8631083112 425094.39952327707,-319534.68186953716 431724.47124378337,-290391.5311477875 434080.93143177085,-260003.23265137404 431869.6714505903,-228806.8150264884 424834.4146544737,-197283.32143739203 412762.46165580826,-165954.92768072328 395490.2790376811,-135381.3606703264 372908.8515260691,-106155.61515726725 344968.71522239776,-78898.97514239684 311684.58794703364,-54255.35552689349 273139.5121346156,-32884.989049737866 229488.42612365543,-15457.493389701118 180961.08115823136,-2644.3633626404403 127864.22402241087,4889.056687317291 70582.96900144037,6492.0550405652275 9581.287839179295,1537.414004034232 -54598.44744267982,-10569.434500393441 -121336.92657666407,-30381.053588245955 -189940.4170094489,-58398.54954983219 -259644.37304081427,-95062.13484030629 -329618.1664209109,-140741.82457244862 -398970.9546265432,-195728.39145646512 -466758.68996923225,-260224.70929296254 -531992.2587051461,-334337.6190143867 -593646.7245327808,-418070.4537533701 -650671.6354082723,-511316.36036822747 -702002.336628003,-613852.5541620747 -746572.216787304,-725335.6410910728 -783325.7967017629,-845298.1374825335 -811232.5548671872,-973146.3111053426 -829301.3667419443,-1108159.4593028282 -836595.4192784808,-1249490.7297821185 -832247.4469356562,-1396169.5775471414 -815475.1211035294,-1547105.93738202 -785596.4117053202,-1701096.1752808362 -742044.7279469497,-1856830.8643482558 -684383.6350016382,-2012904.411061176 -612320.9350801242,-2167826.536510714 -525721.8950733554,-2320035.5944911637 -424621.39898093004,-2467913.684252162 -309234.8018579031,-2609803.490594437 -179967.26321012853,-2744026.758008049 -37421.34180865185,-2868904.2789916233 117597.35908309277,-2982777.249843675 284076.69695703837,-3084029.8203969277 460796.83337571233,-3171112.6377095743 646331.5864280621,-3242567.1579870433 839052.4436454189,-3297050.476352003 1037135.3637375166,-3333360.400888807 1238570.4694151713,-3350460.476047668 1441174.704452566,-3347504.6413933486 1642607.496168842,-3323861.1952102785 1840389.4298817331,-3279135.7190120663 2031923.904858547,-3213192.6089174836 2214521.7021615375,-3126174.853498448 2385428.353901815,-3018521.69540758 2541854.161169636,-2890983.8161541265 2681006.6647330737,-2744635.6900831684 2800125.3289668625,-2580884.765151268 2896518.1559010865,-2401477.1446634424 2967599.903310772,-2208499.4658720973 3010931.5389778777,-2004376.698314394 3024260.523245317,-1791865.6169956683 3005561.474365083,-1574043.7429637255 2953076.736547915,-1354293.586345529 2865356.3396831583,-1136282.0743456266 2741296.813043786,-923935.0987727965 2580178.2935420605,-721407.1740310746 2381699.3528549876,-533046.2567704441 2146008.957565824,-363353.84205174336 1873734.9729024123,-216940.5173759511 1566008.6241811847,-98477.22462216631 1224484.3411197003,-12642.55012500471 851354.4291252993,35933.565973793935 449358.0387976205,42729.23917549452 21783.94040776321,3392.6371670379685 -427533.34584246535,-86194.03609905801 -894224.4603989531,-229849.23327602993 -1373403.491354466,-431026.15895123413 -1859693.9041542793,-692747.0490176184 -2347262.3030421506,-1017538.4657892676 -2829860.12850295,-1407368.4836886502 -3300873.3032052508,-1863586.6754670667 -3753379.7408930343,-2386867.8350885385 -4180214.5291184494,-2977160.3896851847 -4574042.488566479,-3633640.4585139244 -4927437.7000360405,-4354672.510821161 -5232969.476062668,-5137777.556255989 -5483294.138953617,-5979609.770370199 -5671251.852015099,-6875942.41333268 -5789967.637428499,-7821663.841927987 -5832955.604099198,-8810784.343011588 -5794225.30344213,-9836454.430826211 -5668389.032112146,-10890995.151081331 -5450768.809796073,-11965940.82178118 -5137501.679025421,-13052094.514961502 -4725641.904208355,-14139596.44545901 -4213258.590345332,-15218005.283496853 -3599527.1997656394,-16276392.248318745 -2884813.41920129,-17303447.671646457 -2070747.8210056718,-18287599.543871798 -1160289.7726037116,-19217143.374313943 -157779.0784595299,-20080382.511454303 931026.1100753435,-20865777.881850835 2098926.5089518228,-21562105.919646654 3337275.336666215,-22158623.274567943 4635989.55017641,-22645236.707535923 5983579.721179901,-23012676.41206818 7367199.430205318,-23252670.839168604 8772714.871950645,-23358120.95609756 10184795.16033321,-23323271.737996534 11587023.596943367,-23143878.57850271 12962029.923487438,-22817366.21388771 14291643.319161238,-22342977.687446352 15557065.629836496,-21721910.839286417 16739064.029910954,-20957439.793599673 17818182.02242968,-20055018.933007352 18774967.381679427,-19022366.899489198 19590215.33823347,-17869528.245284725 20245225.002972458,-16608910.476223677 20722066.72775649,-15255294.385073988 21003857.81019974,-13825815.76418568 21075043.672590982,-12339916.815005902 20921681.384719346,-10819265.836572144 20531722.161591362,-9287644.074982846 19895289.254170254,-7770798.949738506 19004947.468722865,-6296263.238867989 17855960.402413946,-4893140.200497408 16446531.373609778,-3591855.0310558327 14778023.958891958,-2423873.5061779907 12855158.028727533,-1421389.1155765068 10686177.203449948,-616980.4832232749 8282983.7336433595,-43241.35412498999 5661236.946690722,267614.076632693 2840411.596136639,284167.2239155297 -156187.2959669553,-23771.192358889075 -3301456.2006460917,-684714.0422195474 -6564574.172030394,-1725041.9460782288 -9911135.559086038,-3168543.7981122667 -13303336.1436673,-5035959.137145111 -16700213.965661736,-7344528.194324091 -20057945.50005767,-10107555.742227342 -23330197.206630133,-13333995.108966244 -26468531.785404112,-17028058.896633025 -29422867.74577241,-21188863.04967125 -32141990.140585657,-25810110.94941609 -34574109.53604781,-30879824.160751715 -36667465.49191915,-36380126.32074163 -38370970.02320782,-42287086.433163576 -39634885.71374649,-48570627.51391871 -40411532.36393149,-55194506.118018255 -40656015.29010148,-62116367.76805475 -40326967.66262458,-69287882.69662233 -39387298.58514652,-76654965.61216018 -37804937.99019537,-84158082.40148102 -35553568.86810206,-91732645.79649428 -32613336.86853603,-99309501.06235172 -28971526.92821819,-106815501.71584992 -24623196.295505356,-114174174.1642144 -19571753.152964458,-121306468.97460821 -13829469.992449576,-128131595.2543879 -7417920.9823932955,-134567933.35324728 -368332.79178295174,-140534019.80410895 7278161.293832739,-145949597.11437 15470373.606799366,-150736719.71836126 24147029.647681125,-154820906.1221641 33236859.082898483,-158132326.03051692 42658817.33014839,-160607010.06050333 52322443.725920126,-162188068.5365212 62128360.97190067,-162826904.8445403 71968919.11425762,-162484407.9197662 81728985.7298394,-161132107.66934365 91286882.28676336,-158753276.5090575 100515464.82640076,-155343959.7379091 109283345.19442862,-150913917.20383123 117456247.04768343,-145487458.64342487 124898488.80040574,-139104155.22266766 131474583.56965189,-131819410.17670895 137050944.05858788,-123704872.05566998 141497678.20330945,-114848674.93816829 144690459.3305935,-105355491.08094777 146512452.55871984,-95346382.83457333 146856277.25057784,-84958442.27185263 145625983.5276664,-74344208.8443484 142739019.20609465,-63670857.496817455 138128162.0517906,-53119152.01964175 131743391.00262606,-42882160.99204144 123553668.99966781,-33163736.44680108 113548609.33743288,-24176758.349747684 101739997.01091975,-16141151.10964949 88163136.43119496,-9281681.588577323 72877997.1241321,-3825551.4372912324 55970129.63937231,199.9999999314566" stroke="white" stroke-width="1.5" /><circle cx="180.69113542661592" cy="246.1212288310569" fill="red" opacity="0.7" r="12.173560908995228" /></svg>