<?xml version="1.0" encoding="utf-8" ?>
<svg baseProfile="full" height="400" version="1.1" width="400" xmlns="http://www.w3.org/2000/svg" xmlns:ev="http://www.w3.org/2001/xml-events" xmlns:xlink="http://www.w3.org/1999/xlink"><defs /><rect fill="black" height="100%" width="100%" x="0" y="0" /><circle cx="200" cy="200" fill="yellow" r="10.001851864220278" stroke="orange" stroke-width="2" /><polyline fill="none" points="199.42282151001623,200.0 199.3317829675522,199.96492165826643 199.23957500551984,199.9199417006571 199.14715488365334,199.86469333663382 199.0555429404778,199.79890428122744 198.96581400367472,199.72240618629337 198.87908754329763,199.63514340101398 198.79651660600467,199.53718090742944 198.71927558619228,199.4287112767033 198.64854690812098,199.3100604936658 198.5855067116304,199.18169250103637 198.53130965263267,199.04421232068987 198.48707294802838,198.89836761746804 198.4538598127667,198.74504858139386 198.43266245422146,198.5852860167384 198.42438480561975,198.4202475412127 198.4298251956719,198.2512318155777 198.44965916554372,198.0796607431138 198.48442265661458,197.90706959957814 198.53449580281125,197.73509507737108 198.60008756943802,197.5654612524769 198.68122148608933,197.39996350914106 198.77772272419608,197.24045048498166 198.88920676980248,197.08880412803822 199.01506993910232,196.94691798686324 199.15448197790928,196.81667388483564 199.30638097645715,196.69991716008286 199.4694708176113,196.59843068237353 199.6422213596546,196.51390788769262 199.8228715342569,196.44792509953456 200.00943551605812,196.40191343282007 200.19971209255147,196.37713060133274 200.39129733175025,196.37463297224122 200.58160061061477,196.39524823118683 200.76786402961548,196.4395490381413 200.9471851983722,196.5078280673544 201.1165433343536,196.60007483380951 201.27282857150726,196.7159547133074 201.41287432884155,196.85479056324863 201.5334925408542,197.01554734606776 201.6315115028223,197.19682014681104 201.70381603488184,197.39682596031497 201.74738962013743,197.61339960166512 201.75935812437945,197.84399406597453 201.73703465901514,198.08568562997482 201.6779651052206,198.33518394847917 201.57997377679865,198.58884735355227 201.44120866249094,198.84270351338276 201.26018565625174,199.09247555165467 201.035831156949,199.33361366699657 200.7675223977996,199.5613322262746 200.4551248512264,199.7706522356017 200.09902604736732,199.95644901955325 199.70016514473963,200.11350486289112 199.26005760008482,200.236566290861 198.78081430163252,200.32040558468012 198.26515455629922,200.35988604908007 197.71641235695307,200.3500304696836 197.1385354010184,200.2860921206049 196.5360763864342,200.16362760804617 195.91417617528364,199.97857076493005 195.2785384891193,199.72730674590392 194.63539588282777,199.4067454125244 193.99146683539627,199.0143930462412 193.3539038955995,198.54842138308123 192.73023292772524,198.0077329298054 192.1282836161704,197.3920214978311 191.55611150708995,196.70182687939646 191.02191198916438,195.93858259120665 190.53392674272865,195.10465562499124 190.10034331561656,194.20337717272727 189.72918861364033,193.23906333734755 189.42821722206696,192.2170248980054 189.20479560009528,191.1435652726975 189.0657833114313,190.02596591037693 189.01741256879313,188.87245844955274 189.0651674766974,187.6921831005026 189.2136644533081,186.4951328431533 189.466535396599,185.29208318172127 189.82631523072848,184.09450735944012 190.2943355235573,182.91447711100483 190.87062590391741,181.76454921536737 191.5538250259366,180.65763830564526 192.34110282593232,179.60687659434657 193.22809579376232,178.6254613788565 194.2088569338867,177.7264914019548 195.2758220207999,176.92279335263655 196.41979365820018,176.2267400011164 197.62994453081285,175.65006166588788 198.8938410919858,175.20365290723564 200.19748875914354,174.8973765277175 201.5253994933631,174.73986713282792 202.8606824194891,174.73833666128252 204.18515790047235,174.89838443107453 205.47949521547167,175.2238143616401 206.72337370756492,175.71646212120413 207.89566696588324,176.3760350088507 208.97464929120434,177.19996741042576 209.93822336644766,178.18329466359975 210.7641677174005,179.31854812810505 211.43040220797093,180.5956741804279 211.91526947223053,182.00197973652365 212.19782984666165,183.5221067502691 212.25816703478984,185.13803793861226 212.07770141739374,186.82913574644078 211.63950761952785,188.5722162852635 210.92863266556938,190.3416596606113 209.9324108003562,192.10955774488767 208.64077083317278,193.84590005707855 207.0465316767475,195.51879798069916 205.14568161030311,197.09474708963086 202.93763669861275,198.53892686171235 200.4254737522445,199.8155365463029 197.61613322168162,200.88816541932698 194.52058748332627,201.72019511288852 191.15397010158566,202.27523115228686 187.53566184081762,202.51756027754703 183.68932945575344,202.41262957620768 179.6429136103276,201.92754291629788 175.42856266308038,201.03156965070616 171.08250951210886,199.69666007429254 166.64488921272746,197.89796166107206 162.1594956644726,195.61432969865822 157.673476307816,192.82882557893532 153.23696447097808,189.5291957055627 148.90264975860782,185.7083237481256 144.72528767091757,181.36464881692675 140.7611504772564,176.50254205852505 137.06742223426676,171.13263418657675 133.70154172698136,165.27208657105396 130.7204980119061,158.9447987164596 128.18008414393333,152.18154527027446 126.13411556274494,145.0200361195981 124.63362048747648,137.5048936587064 123.72601050857475,129.68754194374645 123.45424036033133,121.62600319243494 123.85596659357212,113.38459793442014 124.96271553235337,105.03354606848767 126.79907147819564,96.6484671310825 129.3818966074889,88.30977922019194 132.71959437970037,80.10199724142115 136.811428523899,72.11293243946288 141.6469097876004,64.43279653690533 147.20526260463845,57.15321521071675 153.45498365840123,50.36615708059526 160.35350397532062,44.16278584709207 167.8469656744296,38.632244684113545 175.87012381721186,33.8603834420592 184.34638294478447,29.928440635358925 193.18797685558306,26.911693551645897 202.29629896718131,24.878091108627785 211.56238922395912,23.886885277887416 220.8675819636849,23.987277971093306 230.084317448781,25.21710122220813 239.0771179127319,27.6015492783321 247.70372698192284,31.151981811457233 255.816409223889,35.864817864162234 263.26340436278576,41.720540325838385 269.89052841258035,48.68283068557628 275.5429116311522,56.697853508306366 280.0668608195509,65.69370951922127 283.3118311075715,75.58007534735593 285.1324900089381,86.24804686456291 285.3908542277618,97.57020165609396 283.9584774849436,109.40089447187725 280.718665542316,121.57679753511694 275.5686926677245,133.91769533246708 268.42199204048813,146.22754098703254 259.21029107822545,158.295778535036 247.88566140684645,169.89893240658546 234.42245222864824,180.8024621720022 218.81907520049748,190.76287718333262 201.0996086447362,199.53010214571694 181.31518900699157,206.85008092902612 159.5451579718736,212.46760211427343 135.89793457056766,216.12932590308856 110.51158298063707,217.58698814673602 83.55404854063234,216.60075342155542 55.223036788235675,212.9426853407633 25.74551308324311,206.400298700979 -4.623196407220547,196.78015467003382 -35.60071791333431,183.91145708616241 -66.8793688992958,167.6496051136815 -98.12832944695896,147.87965504272938 -128.99624818463633,124.51964198575457 -159.11427948859665,97.5237106648201 -188.09954310181377,66.88500345271717 -215.55899146784463,32.63825337551444 -241.09366402239414,-5.137970051276568 -264.30330148251164,-46.31941345678638 -284.791286890776,-90.73474050572753 -302.16987388207616,-138.16462859471198 -316.06565642137457,-188.34140592300798 -326.1252281943881,-240.94926977357773 -332.02097400497405,-295.62512234900584 -333.45693003176666,-351.96005526294823 -330.17464471253265,-409.50150780575586 -321.9589674490096,-467.756117407964 -308.6436883486486,-526.193273352939 -290.116948932299,-584.2493767864802 -266.3263412254781,-641.3328014938711 -237.28361099872035,-696.829540832077 -203.06888020766246,-750.1095166956188 -163.83430397768228,-800.5335165488158 -119.80707884497917,-847.4607144746612 -71.29172146088229,-890.2567219809605 -18.67154063325998,-928.3021040862263 37.5907695487584,-961.0012861075948 96.95348166295904,-987.7917667243448 158.79719080225743,-1008.1535434327625 222.42722459820823,-1021.6186475850307 287.07714794488766,-1027.7806779633213 351.91339204076553,-1026.3042144284511 416.041025359624,-1016.9339867482611 478.5106711316804,-999.5036683996734 538.3265619563533,-973.9441610915333 594.4557073900529,-940.2912331079103 645.8381348848086,-898.6923734501302 691.3981484429942,-849.4127242766349 730.0565329624131,-792.8399564063741 760.7436156531243,-729.4879567524373 782.4130793055145,-659.9992025600824 794.0564057841437,-585.1457052899885 794.7178121310682,-505.82841694566605 783.5095263124024,-423.07500360301253 759.6272351666355,-338.0359048452317 722.3655237513336,-251.97861369727212 671.1331132771761,-166.28012942331463 605.4676944047776,-82.41755510325157 525.0501440968587,-1.956833116008454 429.7179076953122,73.46036562410181 319.4773236487495,142.1315587884257 194.51466655662253,202.31011106498283 55.205685109243944,252.2235428178958 -97.87658474334359,290.09337124850094 -263.95594432315136,314.15633936567804 -442.04929754870454,322.6868611006595 -630.9652471215246,314.02048425782175 -829.3051953848367,286.57814703118225 -1035.467104154522,238.89097890515225 -1247.652045086301,169.62537327774277 -1463.8736462476006,77.60803748289769 -1681.9705116187313,-38.149293562930325 -1899.621658411152,-178.42581071632964 -2114.364982563467,-343.7685954587108 -2323.6187258075056,-534.4709512500384 -2524.7058785839513,-750.5524631902116 -2714.881412172334,-991.7411505489845 -2891.3621910721545,-1257.4580751305377 -3051.3593733624116,-1546.804762222618 -3192.1130629490026,-1858.5537798104174 -3310.9289337939704,-2191.142805624481 -3405.2165029537364,-2542.6724903034938 -3472.5286871084627,-2910.908398403363 -3510.6022368432705,-3293.2872771537072 -3517.3986048603815,-3686.927865791869 -3491.1447691911208,-4088.6464161044178 -3430.3735009737306,-4494.977047658068 -3333.962539100039,-4902.197009360681 -3201.1721116350195,-5306.3568627896675 -3031.6802269824398,-5703.3155425668465 -2825.6151468836006,-6088.780185428446 -2583.5844490354457,-6458.350553096337 -2306.700089893445,-6807.567805234305 -1996.5988885231277,-7131.967308374334 -1655.457870557439,-7427.135095493459 -1286.0039377084058,-7688.767519742895 -891.5173630902414,-7912.733575565658 -475.8286559693954,-8095.139292022039 -43.30839149712395,-8232.393537548625 401.1503385687246,-8321.274513611601 852.1571293660505,-8358.99615780406 1303.8573190573672,-8343.273625912127 1749.973011563112,-8272.386978365492 2183.8520883798437,-8145.242160307245 2598.5251340576774,-7961.428337244882 2986.7700963851935,-7721.270630816878 3341.1843940961357,-7425.877292502861 3654.2640729999807,-7077.180357921191 3918.48949699609,-6677.968841408614 4126.416944710608,-6231.913560469044 4270.775366851813,-5743.582722901025 4344.567445256954,-5218.447466321905 4341.1739835226135,-4662.876610608552 4254.460552657444,-4084.119968520442 4078.8852150050966,-3490.2796583410304 3809.606057421363,-2890.2689744659924 3442.5871820323405,-2293.7584969946925 2974.7017315213907,-1711.1092588604108 2403.8304674346855,-1153.2929379815312 1728.9543760511112,-631.7992012467971 950.2397484512103,-158.53049557487697 69.11417096197226,254.31524267310172 -911.6681295505362,594.3733066802488 -1987.9731128684639,849.2515272785738 -3154.247403328939,1006.6791428343876 -4403.493825925856,1054.6640157028353 -5727.263315070824,981.6567946963136 -7115.664394885663,776.7204426737422 -8557.391291652966,429.70337560443267 -10039.77157835237,-68.58570305150721 -11548.834068557391,-726.2033383673833 -13069.397473155723,-1549.899429985774 -14585.18010951302,-2544.9502232675295 -16078.93071026061,-3714.998595088857 -17532.580119626982,-5061.904114609427 -18927.413391247814,-6585.605404012369 -20244.26151510455,-8283.997340480817 -21463.7117053905,-10152.825626420412 -22566.33487873176,-12185.601208294704 -23532.92864661653,-14373.536943824607 -24344.773840704427,-16705.50880143972 -24983.902288713663,-19168.04372383942 -25433.373265848637,-21745.336098794844 -25677.55576642736,-24419.29455479039 -25702.413476813454,-27169.620537103412 -25495.78908835515,-29973.91982227246 -25047.68437221627,-32807.847796924456 -24350.532251158835,-35645.28896244619 -23399.456950840915,-38458.57073235649 -22192.518199221733,-41218.71116735421 -20730.935371215102,-43895.69984730119 -19019.287450541204,-46458.810613803325 -17065.684705207863,-48876.944436037105 -14881.90805022433,-51119.00016098027 -12483.512203586657,-53154.27041266107 -9889.888931326397,-54952.8594092819 -7124.2869259602785,-56486.118978312596 -4213.785170865942,-57727.098574441115 -1189.2170110983104,-58651.00465043868 1914.9574216224325,-59235.664303553654 5060.832296919469,-59461.98772715694 8207.292013115406,-59314.423646222866 11310.302696729905,-58781.40161299761 14323.25936449588,-57855.754792934844 17197.38815168517,-56535.116687460395 19882.20228538216,-54822.28512586703 22326.00972405324,-52725.54681968266 24476.469602602272,-50258.95581473822 26281.193823143574,-47442.559303779664 27688.389324774376,-44302.56447996808 28647.535760194358,-40871.440422316504 29110.092513223037,-37187.949410397734 29030.228219756144,-33297.10256886659 28365.565216573777,-29250.03534271011 27077.93064908546,-25103.799000710933 25134.105332189465,-20921.06515515202 22506.56088964436,-16769.741166774216 19174.175208336397,-12722.495270516538 15122.915845998901,-8856.191303325038 10346.48073536062,-5251.234032612916 4846.88534489211,-1990.827263682726 -1365.0146038929977,839.8518639149225 -8269.075691277741,3154.557709352586 -15835.505244191274,4866.954112375913 -24024.595931906253,5891.658232253912 -32786.5662648564,6145.341643585704 -42061.516084878414,5547.8787995756265 -51779.505313732974,4023.531720911291 -61860.76324743205,1502.1585705885986 -72216.0345483464,-2079.567349501977 -82747.0667989414,-6776.942676791751 -93347.24304608851,-12636.0385588292 -103902.36119125524,-19692.540925571455 -114291.56037977182,-27970.643314606823 -124388.39272437207,-37482.009576691285 -134062.03677916806,-48224.82408128275 -143178.6471772607,-60182.94713447983 -151602.8327775851,-73325.19320039192 -159199.25355575373,-87604.7491686589 -165834.3243429536,-102958.74932474125 -171378.01139153956,-119308.02284707293 -175705.70565264858,-136557.02857006667 -178700.1546181488,-154593.99041087963 -180253.4326358196,-173291.24526030358 -180268.92778305846,-192505.81328685654 -178663.32171131994,-212080.19850416036 -175368.53738179393,-231843.42511449486 -170333.62833325146,-251612.31257916344 -163526.5820856567,-271192.98959579505 -154936.00951715084,-290382.64420445985 -144572.69158513605,-308971.50412267534 -132470.9546201767,-326745.03815201274 -118689.84562790503,-343486.3661374192 -103314.0796097719,-358978.86152944824 -86454.73187592244,-373008.9271373527 -68249.64968663837,-385368.9212084668 -48863.55933252091,-395860.2075700061 -28487.84695336363,-404296.30026927445 -7339.994002084909,-410506.0699949735 14337.348721362208,-414336.9766048786 36277.66112044835,-415658.2893735406 58192.23678393826,-414364.2541580999 79772.2535738236,-410377.1646105719 100691.23198392871,-403650.292890067 120607.87661961473,-394170.63409561216 139169.29107018717,-381961.4178944506 156014.55114761274,-367084.34060385206 170778.61599921418,-349641.47133471223 183096.551024868,-329776.7867561188 192608.0309028132,-307677.2906200603 198962.08541921232,-283573.6764170726 201822.04527598128,-257740.49443263144 200870.6396937564,-230495.78804925294 195815.1925097635,-202200.16839134888 186392.85867351285,-173255.30133123737 172375.8386478528,-144101.7864491639 153576.50431049772,-115216.41374186231 129852.366602726,-87108.79066817972 101110.81246695732,-60317.33946161659 67313.53663011733,-35404.67247369717 28480.59259797422,-12952.361574391372 -15306.013105038386,6444.873747707648 -63899.258823847835,22185.52605557061 -117084.65159255694,33668.16480895859 -174578.44809739076,40298.75464647172 -236026.6203420787,41498.36625442222 -301004.6288379469,36711.210007288544 -369018.06030524924,25412.913867139527 -439504.17993682984,7118.958726062178 -511834.4402526887,-18606.82340404277 -585317.9794914193,-52143.7900740612 -659206.1323838336,-93806.17600848939 -732697.9650927968,-143835.04111671465 -804946.8341546509,-202390.5967447559 -875067.9565109132,-269545.0312020528 -942146.9642791582,-345275.95750096964 -1005249.4039000378,-429460.60674809315 -1063431.1248492412,-521870.8896260084 -1115749.4883693568,-622169.4458140803 -1161275.3118211064,-729906.7969421556 -1199105.449453261,-844519.7126941708 -1228375.8958332287,-965330.8919377755 -1248275.2840633127,-1091550.0512297875 -1258058.637436122,-1222276.5017344134 -1257061.2205674273,-1356503.2825128485 -1244712.3245000173,-1493122.9033434596 -1220548.8100133184,-1630934.7337801992 -1184228.2246144766,-1768654.057147285 -1135541.301636418,-1904922.788719981 -1074423.6447295803,-2038321.836600358 -1000966.3979983553,-2167385.061934639 -915425.7012793603,-2290614.772331824 -818230.7317487798,-2406498.6588534974 -709990.1373229031,-2513528.062997278 -591496.674299474,-2610217.4359582355 -463729.87147218065,-2695124.8284115638 -327856.5556023885,-2766873.2254215362 -185229.0886855907,-2824172.5181669896 -37381.185906014114,-2865841.8823160697 113978.79550386999,-2890832.312425667 266977.1821647861,-2898249.043031591 419586.9840802272,-2887373.5704844324 569642.5973351669,-2857684.9754204205 714857.2078471063,-2808880.2343758927 852842.8603000279,-2740893.20078723 981133.1208252314,-2653911.930775768 1097208.224932201,-2548394.0279898215 1198522.5639993171,-2425079.6846255544 1282534.324707346,-2285002.1028064922 1346737.056573486,-2129494.991962008 1388692.903688176,-1960196.853860162 1406067.1983681258,-1779051.7876258777 1396664.0772395064,-1588306.5724667641 1358462.7447970093,-1390503.8159353328 1289653.9763050263,-1188470.9903198339 1188676.421582502,-985305.2190556268 1054252.244311329,-784353.7186997408 885421.6085936071,-589189.8497617488 681575.5061077502,-403584.78121473297 442486.4039097033,-231474.82843303293 168336.18519882133,-76924.58216276519 -140259.14631217823,55913.99359636086 -482228.52299161255,162846.25482184548 -856029.1437774576,239683.0585632697 -1259634.5726915929,282292.0649138176 -1690528.0733069212,286651.72942737024 -2145701.6133145257,248907.49321062988 -2621660.9318960467,165429.6175339314 -3114437.013502286,32872.05225422974 -3619604.254974362,-151768.3264648851 -4132305.5489131124,-391092.8227985555 -4647284.435112021,-687243.129496055 -5158924.394128677,-1041845.4319922067 -5661295.273202115,-1455957.2323447815 -6148206.745361321,-1930017.7383501022 -6613268.608456988,-2463802.675510022 -7049957.632837185,-3056384.3820016277 -7451690.565436582,-3706098.038746562 -7811902.795216388,-4410514.867484428 -8124132.0813319255,-5166423.098917139 -8382106.642357177,-5969817.470112503 -8579836.803675279,-6815897.955162133 -8711709.302133864,-7699078.365443231 -8772583.253698671,-8613005.37574396 -8757886.702589247,-9550588.44013979 -8663712.590743275,-10504040.95718097 -8486912.915931575,-11464932.928166445 -8225189.78692048,-12424255.225708958 -7877182.036209642,-13372495.453294018 -7442546.0164619535,-14299725.231132302 -6922029.187120903,-15195698.590517063 -6317535.0941093555,-16049960.999512427 -5632178.359045999,-16851968.378675338 -4870328.326075412,-17591215.298382472 -4037640.0650099204,-18257371.38106748 -3141071.4996607294,-18840424.764290337 -2188885.5204338566,-19330831.316204756 -1190636.0506999248,-19719668.135905698 -157137.1670981888,-19998789.719660975 899585.4754672701,-20160985.032550216 1966361.4933744217,-20200133.595987275 3028961.2890081797,-20111358.587416388 4072200.4152044486,-19891174.85157481 5080062.75175996,-19537629.645461287 6035842.219744932,-19050433.88382132 6922302.510308329,-18431081.62071017 7721854.045447188,-17682955.497531027 8416747.121363433,-16811415.91067055 8989279.913364412,-15823871.704061907 9422019.747832842,-14729830.275015997 9698035.774881538,-13540925.096507493 9801140.908402076,-12270918.806485636 9716140.64197197,-10935680.195050346 9429086.103291042,-9553133.63344573 8927528.480369898,-8143179.734330839 8200771.74353865,-6727586.309803697 7240120.402442457,-5329849.0008412255 6039118.880471037,-3975021.287383803 4593778.9643621035,-2689513.94994994 2902791.6977260048,-1500864.438677927 967720.0374551641,-437477.0108217161 -1206831.4153458448,471665.0807101966 -3613073.2602105993,1197313.6313356971 -6239918.282223473,1710293.6033020965 -9072902.005158328,1981862.716416395 -12094140.05312858,1984089.4670182911 -15282325.320266156,1690246.0977983654 -18612767.65374123,1075212.62187294 -22057478.40787555,115887.60572602513 -25585301.82693553,-1208398.9564568438 -29162094.762876276,-2915475.683489454 -32750955.734030724,-5019928.068729266 -36312503.78444502,-7532710.521712812 -39805207.01496318,-10460777.950394774 -43185760.030758396,-13806742.787598336 -46409508.89104215,-17568563.44453158 -49430921.4611874,-21739270.184364136 -52204100.362218514,-26306734.34513465 -54683334.99500514,-31253486.699520312 -56823688.39463952,-36556590.51577686 -58581613.95309958,-42187574.57679241 -59915596.34458279,-48112431.02083659 -60786810.30755987,-54291682.38741859 -61159790.29063721,-60680521.68480765 -61003103.366023116,-67229028.64348279 -60290017.26520821,-73882464.58446145 -58999154.90683645,-80581647.51668708 -57115126.37702206,-87263408.18825741 -54629128.997663975,-93861126.85830143 -51539505.88837613,-100305349.53711599 -47852253.30166833,-106524481.37029208 -43581466.997537315,-112445553.72784299 -38749718.03034457,-117995060.41276288 -33388348.55449869,-123099857.23714189 -27537678.621613394,-127688118.04111126 -21247115.444809593,-131690339.06468232 -14575157.248562312,-135040382.43992504 -7589284.60634065,-137676548.4666939 -365733.0929416825,-139542665.28551677 7010857.858191554,-140589183.5830609 14447923.804188937,-140774263.0757025 21845584.43291797,-140064836.73218477 29097384.130344998,-138437638.03390822 36091163.55204118,-135880176.04753947 42710060.11730372,-132391642.71508792 48833633.60066961,-127983736.5664049 54339111.18271192,-122681387.04190136 59102744.45782259,-116523363.79182002 63001269.00094237,-109562755.70330814 65913455.18942401,-101867305.00708097 67721737.08334924,-93519582.63836795 68313904.3122075,-84616992.07702833 67584840.12331001,-75271590.17106384 65438287.044356726,-65609714.95599443 61788620.02617267,-55771412.21595521 56562605.48955193,-45909654.48473933 49701123.42974324,-36189348.34642903 41160828.66097399,-26786128.253152616 30915726.43787952,-17884937.61538237 18958637.09677218,-9678400.61885621 5302524.041203848,-2364991.0585500533 -10018340.623936323,3852992.571618601 -26947398.207698468,8771633.463972952 -45405038.0616576,12187769.006522471 -65288068.50152039,13901510.969470674 -86469446.45524809,13718891.8469241 -108798286.55604178,11454612.81912976 -132100168.3105064,6934865.891036833 -156177757.5129659,200.00000019126284" stroke="white" stroke-width="1.5" /></svg>