<?xml version="1.0" encoding="utf-8" ?>
<svg baseProfile="full" height="400" version="1.1" width="400" xmlns="http://www.w3.org/2000/svg" xmlns:ev="http://www.w3.org/2001/xml-events" xmlns:xlink="http://www.w3.org/1999/xlink"><defs /><rect fill="black" height="100%" width="100%" x="0" y="0" /><circle cx="200" cy="200" fill="yellow" r="10.08699819918807" stroke="orange" stroke-width="2" /><polyline fill="none" points="198.76165848771143,200.0 198.65498270592667,199.92939273620993 198.5506324068613,199.84740913900555 198.44982223726035,199.75405923457794 198.3537962731447,199.6494869529955 198.26381425444856,199.53397703689353 198.1811366942891,199.4079606522578 198.10700897245945,199.27201954428136 198.0426445427036,199.12688858884783 197.98920740302486,198.97345660013355 197.94779399743283,198.81276526716184 197.91941473587704,198.6460061068914 197.90497533636147,198.47451533855536 197.90525820909852,198.299766603435 197.92090411675184,198.12336147596608 197.95239435704664,197.94701773591703 198.00003372401108,197.7725553971912 198.0639345115756,197.60188051640415 198.14400182794208,197.4369668335431 198.23992049079024,197.2798353274767 198.3511437717988,197.13253180055045 198.47688425391848,196.99710263866038 198.6161070561808,196.8755689256828 198.76752566842313,196.76989912357723 198.92960062205967,196.68198056145843 199.10054120287603,196.61359000802958 199.2783103877605,196.5663636315319 199.4606331593443,196.54176667933922 199.6450083207958,196.54106323503902 199.82872389763978,196.56528643382663 200.00887617464795,196.6152095368229 200.18239237382414,196.6913182810525 200.34605693459443,196.79378493383973 200.49654130987346,196.92244448787082 200.63043714213734,197.07677343573656 200.74429263246148,197.25587156004582 200.8346518632107,197.45844716687085 200.8980967822722,197.6828061760727 200.93129150402282,197.926845461747 200.93102853028142,198.1880508094697 200.8942764440137,198.46349982411752 200.81822858025404,198.74987008277958 200.70035213333466,199.04345278172153 200.5384371178289,199.3401720746604 200.33064456338465,199.63561024198745 200.075553291611,199.92503876735705 199.77220459713155,200.203455329656 199.42014413555634,200.46562664528065 199.01946030913717,200.70613701847535 198.5708184369058,200.9194423769137 198.07549000073215,201.09992948650276 197.53537627250415,201.24197995442572 196.95302565095662,201.34003854364425 196.33164406991952,201.38868523647147 195.67509788316232,201.38271040047763 194.98790868472247,201.3171923280366 194.27523958764726,201.18757634244164 193.54287255833992,200.98975458992913 192.79717648794667,200.7201455693842 192.04506577607174,200.3757723912064 191.29394930503628,199.95433870502575 190.55166979423396,199.45430119388942 189.8264336430573,198.87493750136684 189.12673149640472,198.21640843885783 188.46124989780805,197.4798133142822 187.83877453048336,196.66723723122692 187.2680856847046,195.78178923036955 186.75784672930104,194.82763018329726 186.31648650413962,193.80998940325898 185.95207668741944,192.73516900833508 185.672205324631,191.61053516020053 185.48384783320384,190.44449540612982 185.39323691620234,189.24646147296662 185.40573292792558,188.02679699906486 185.52569633190106,186.796749843077 185.756363975524,185.56836877606472 186.09973097351184,184.354404544634 186.5564400425143,183.1681954863133 187.1256801598269,182.02353808261304 187.80509642850996,180.93454304830388 188.59071301777732,179.9154777753736 189.4768710099281,178.98059617459 190.4561829222012,178.14395718412007 191.51950558282414,177.41923344055405 192.6559329245561,176.81951183010662 193.85281011583785,176.35708785371196 195.0957702792078,176.0432559460797 196.36879484923043,175.8880980823207 197.65429839844796,175.90027318322214 198.9332385108399,176.08680998836434 200.18525100935307,176.45290620176561 201.38881054904752,177.00173682441368 202.52141627247948,177.7342746687987 203.55980189169304,178.64912609946515 204.48016921459583,179.7423850579024 205.2584437758963,181.00750840730157 205.87055086789428,182.43521557062263 206.29270989829627,184.01341533217308 206.50174463522984,185.72716252703503 206.47540653840312,187.558647153142 206.19270802477263,189.48721820703997 205.63426218222114,191.48944426630987 204.7826251308249,193.5392125197761 203.6226369436133,195.6078675820487 202.14175678263342,197.66439102331347 200.33038768692188,199.6756221009022 198.1821862718619,201.60651969896327 195.69435246937846,203.4204649700975 192.86789436027775,205.07960363233104 189.70786312820965,206.54522631111988 186.22355320327094,207.77818473467212 182.42866276573346,208.73934099778364 178.341409949784,209.3900465112048 173.98460032587386,209.6926466573893 169.38564154997218,209.6110065868747 164.5765014495929,209.11105302044277 159.5936062699983,208.16132637886093 154.47767632863454,206.7335370528943 149.27349691987766,204.8031191600315 144.02962297280789,202.34977471965306 138.79801668823274,199.35800082380197 133.6336181627531,195.81759209473063 128.5938498414801,191.7241105111448 123.73805652018457,187.07931456029021 119.1268835343003,181.89153963993562 114.82159671741137,176.17602169945349 110.88334867578432,169.95515627835348 107.37239689742353,163.25868537864167 104.34728018247559,156.12380499810305 101.86396083429528,148.5951866577081 99.97494097420532,140.7249068792708 98.72836222451559,132.57227930930384 98.16709882991624,124.20358504034996 98.32785504290962,115.69169764901676 99.24027827040905,107.11560054600132 100.92610005201738,98.55979541142064 103.39831740210931,90.11360176092938 106.66042738444357,81.87034904489138 110.70572798706961,73.92646411306815 115.51669841506997,66.38045836800816 121.06447180858645,59.33182046708015 127.30841311426772,52.879821999863964 134.19581438189886,47.12224514689464 141.6617191183368,42.154042898755705 149.62888650366756,38.06594396123441 158.00790525745182,34.94301597169715 166.69746573596393,32.86320208217029 175.58479744675464,31.895847303434152 184.54627758946498,32.1002322289273 193.44821447895987,33.52413284456759 202.14780778859142,36.20242605796963 210.49428548052927,40.15576132575407 218.33021508214983,45.389319299226315 225.49298464073618,51.89167872624827 231.81644626420587,59.63381292172616 237.13271265685836,68.56823693354048 241.27409451232637,78.62832606987149 244.07516405950633,89.72782570499189 245.37492750182355,101.76057123375179 245.0190865782978,114.60043569322679 242.8623670406722,128.10152090972707 238.77088951983535,142.09860606058027 232.62455608335972,156.40786526660804 224.3194238012306,170.82786326090914 213.77003487593547,185.14083532452653 200.91167139292963,199.1142545562565 185.7025015442099,212.50268617314103 168.12558330615263,225.04992494544632 148.19069104600277,236.49140808495073 125.93593042011102,246.55689196242042 101.42910723913927,254.9733769676423 74.76881673541888,261.4682606858883 46.085220896017546,265.7726953945172 15.540483237919887,267.62512173241174 -16.671167389797205,266.77494631601803 -50.32376968209286,262.9863271244661 -85.16038192667179,256.0420267103167 -120.89427201370182,245.74728977115035 -157.21056000723996,231.933698400685 -193.7683232293444,214.46295548679555 -230.20316872291158,193.23054429766384 -266.1302724734142,168.16921035492786 -301.14787892415154,139.25221029072958 -334.8412481630925,106.49627157758219 -366.78703174763564,69.96420685583718 -396.55805152929304,29.76712710838271 -423.7284491126868,-13.933800814333779 -447.87916680779404,-60.92610480059608 -468.6037141921612,-110.94531589363407 -485.51416777690736,-163.67488058769482 -498.24734485720046,-218.74671865051198 -506.47108651830433,-275.74246288112937 -509.8905790585744,-334.1954111707224 -508.2546378788538,-393.5932144106247 -501.36187327160724,-453.3813162184059 -489.0666536203224,-512.9671521738023 -471.2847783853392,-571.7251073271576 -447.9987709981766,-629.0022212313958 -419.2627004996357,-684.1246197337305 -385.20644051824263,-736.4046423362145 -346.0392750681066,-785.1486231969108 -302.0527627131923,-829.6652729088114 -253.6227739519481,-869.2745971843897 -201.2106212640777,-903.3172776218107 -145.36320715868538,-931.1644289745416 -86.71212278450867,-952.2276369362551 -25.971638207131633,-965.9691705402381 36.06446469252259,-971.9122540135356 98.52725462476003,-969.6512744797981 160.47823419297117,-958.8617944306993 220.9161562000894,-939.3102315420635 278.7850705343209,-910.8630633520388 332.983583730638,-873.4954106937366 382.3752970121866,-827.2988517250237 425.8003716573961,-772.4883180544227 462.0881530805364,-709.4079259430193 490.07076723950746,-638.535598971629 508.59758509458453,-560.4863439870373 516.5504330506515,-476.0140496483157 512.8594098508863,-386.01168653024445 496.5191534911531,-291.5097995283232 466.60538563960597,-193.6731972463336 422.2915460298035,-93.79575910336985 362.86531560634455,6.706700985024725 287.74481509883515,106.30555540479384 196.49425543965762,203.37048722462268 88.83880827458857,296.182613607757 -35.32154101531995,382.9495785164139 -175.89939862822035,461.8225584684551 -332.608867328654,530.9150975276825 -504.9561899636002,588.3236593262798 -692.2323647459799,632.1497550293266 -893.507956649373,660.5234770827485 -1107.6303169766293,671.6282396869669 -1333.2234074237263,663.7264985797249 -1568.6904057228185,635.1861952821146 -1812.219247220047,584.5076448651239 -2061.79123057328,510.35056194395185 -2315.192786237661,411.5608974238557 -2570.0304736856265,287.1971389254106 -2823.7492375755455,136.55571122576504 -3073.653914581878,-40.80490012632063 -3316.933941623793,-245.0416882381411 -3550.6911731220976,-476.0067187577895 -3771.970670069886,-733.2291703077855 -3977.7942775620013,-1015.9002094050811 -4165.196760479478,-1322.8610785469973 -4331.264219797576,-1652.594761554486 -4473.174465048393,-2003.2215701701452 -4588.238972425298,-2372.4989701900117 -4673.94601349874,-2757.8259340085533 -4728.0044971773805,-3156.252069385312 -4748.388028068727,-3564.4917315817056 -4733.378648450085,-3978.943277921887 -4681.609699340218,-4395.713570539628 -4592.107209339681,-4810.647774895825 -4464.3291986466475,-5219.364438986971 -4298.202270591937,-5617.295771492402 -4094.154854773704,-5999.732966987692 -3853.14646496795,-6361.876353425455 -3576.6923419496234,-6698.890062072202 -3266.8828666201575,-7005.9608437837405 -2926.3971527677845,-7278.3605787650795 -2558.510261669585,-7511.511950720017 -2167.093522769383,-7701.05668153124 -1756.607495922649,-7842.925650353769 -1332.0871711705324,-7933.410152319883 -899.119071552444,-7969.233488034639 -463.81000283574485,-7947.622016799186 -32.747280845883495,-7866.374755142971 387.0496381928924,-7723.930558877965 788.1860968955757,-7519.431892581974 1162.9576096299193,-7252.784166207198 1503.4234191321548,-6924.709605372532 1801.48786824987,-6536.794620739113 2048.9890962752606,-6091.529653503658 2237.7944453022437,-5592.34049918672 2359.9018373483786,-5043.610151135277 2407.5462591322375,-4450.690258955084 2373.3103699883936,-3819.901365746983 2250.238131106936,-3158.5211716809513 2031.9502428384794,-2474.760170067986 1712.7600729868773,-1777.7241154584474 1287.788664622068,-1077.3629109820954 753.0773287909369,-384.40564352171907 105.69625737148422,289.71835046348036 -656.1524640507679,932.9723396349707 -1533.0391023272628,1532.818747634697 -2524.2194618470076,2076.3389871994987 -3627.558689925154,2550.365974754392 -4839.467364384814,2941.628523429833 -6154.8514838419305,3236.9066108668853 -7567.077916874842,3423.1963155719145 -9067.95677826931,3487.883014414992 -10647.74208838305,3418.9212367300993 -12295.151935149559,3205.019380093537 -13997.409197405857,2835.827312050508 -15740.30370345347,2302.1247137184646 -17508.276490743545,1596.0078682491633 -19284.526602346792,711.0724625128221 -21051.14060480145,-357.4101430205375 -22789.244741758263,-1612.32581055388 -24479.179350640712,-3054.5623842807663 -26100.694867742895,-4682.869042822901 -27633.168433577157,-6493.7329763093285 -29055.839787964826,-8481.276087187056 -30348.064816765047,-10637.174345675512 -31489.584782982307,-12950.602325309199 -32460.808948269692,-15408.205300070143 -33243.107970782425,-17994.10110140344 -33819.115156362306,-20689.913710592562 -34173.03234673561,-23474.84029965842 -34290.93695548116,-26325.75313275919 -34161.08641473285,-29217.337401148372 -33774.21607769203,-32122.26568978897 -33123.826438744625,-35011.40936496769 -32206.455388912185,-37854.0867325308 -31021.931123931652,-40618.34734906939 -29573.60126962371,-43271.29137747881 -27868.533788235643,-45779.422368334664 -25917.685283602972,-48109.03132453439 -23736.03243527987,-50226.6093742228 -21342.662464744208,-52099.285842217054 -18760.818772298055,-53695.28797946609 -16017.898182616258,-54984.418090393134 -13145.396600598782,-55938.54329648577 -10178.800307042744,-56532.09269867462 -7157.420614639851,-56742.55625851027 -4124.170157047526,-56550.97931664976 -1125.2796945093423,-55942.44631444544 1790.0450149698188,-54906.54698813364 4570.0260141604385,-53437.81807272586 7160.774589747392,-51536.15339137736 9506.80953638945,-49207.17512251295 11551.629588649595,-46462.5590375815 13238.336515812232,-43320.30659261281 14510.30450920748,-39804.956941651835 15311.89062266004,-35947.73222367552 15589.180164642012,-31786.60985984055 15290.76009682647,-27366.316086888008 14368.512679722404,-22738.23554610059 12778.420834051183,-17960.232444999245 10481.3759689157,-13096.379609275917 7443.978377185128,-8216.592642195686 3639.3197274526988,-3396.1674033354743 -952.2632971470061,1284.779897960499 -6342.475537931994,5741.969534164792 -12534.401661352615,9887.710318770647 -19521.90793770745,13631.74389675788 -27289.11920985744,16882.17692128333 -35809.98261353595,19546.495386582905 -45047.929306608516,21532.65398060045 -54955.64499998933,22750.2319089451 -65474.95945290952,23111.645241623428 -76536.86429662515,22533.404463803578 -88061.6675820754,20937.404590692255 -99959.29230916104,18252.23395416421 -112129.72489095187,14414.486605259997 -124463.61804043579,9370.06222248989 -136843.05094770636,3075.4364914864273 -149142.4478516614,-4501.115852871879 -161229.65421461937,-13378.363735510502 -172967.1676954999,-23561.047031258502 -184213.51900456223,-35038.90747576107 -194824.795529761,-47785.84222408494 -204656.29837343397,-61759.19883348164 -213564.32115240014,-76899.2299460329 -221408.03662076854,-93128.72518530756 -228051.47490078965,-110352.83675070519 -233365.57488257485,-128459.11388866621 -237230.28820945378,-147317.75983927495 -239536.7132341583,-166782.12300112197 -240189.2344447633,-186689.43193130562 -239107.641151577,-206861.78140949193 -236229.19773011736,-227107.37415715161 -231510.63646377833,-247222.01993156222 -224930.04305470848,-266990.8906289707 -216488.60420342445,-286190.5267565087 -206212.18632566257,-304591.08719609363 -194152.71450558712,-321958.83061758586 -180389.3212015546,-338058.81323855266 -165029.2350450009,-352657.78391334997 -148208.38132155483,-365527.2538074813 -130091.66740919571,-376446.7142198168 -110872.92857938129,-385206.9725034557 -90774.5121469443,-391613.572556204 -70046.4809811532,-395490.26305596106 -48965.42085589532,-396682.473558041 -27832.840007794202,-395060.7558046018 -6973.15356728046,-390524.145174858 13268.749797099339,-383003.39518180734 32530.356659288842,-372464.0363487408 50434.785350819264,-358909.2097265431 66594.43693010567,-342382.2247875333 80615.02152652222,-322968.7914965634 92099.93502958235,-300798.8770540111 100654.95505606159,-276048.1391616133 105893.21907244019,-248938.88970834052 107440.4415507477,-219740.54553045862 104940.32117113551,-188769.52638082212 98060.08343626389,-156388.56445253218 86496.09871564139,-123005.39473782919 69979.5107790632,-89070.8011516381 48281.806394956955,-55075.99968806661 21220.25264939686,-21549.34687475398 -11336.874628794345,10947.630598803971 -49465.35048772009,41824.88103025853 -93180.42938944991,70469.13491252287 -142432.7243680147,96249.85239056438 -197104.61838234984,118525.77972652024 -257007.28828522682,136652.07385977232 -321878.41959870997,149987.94433657703 -391380.6869342059,157904.75204552565 -465101.0703873237,159794.4944511498 -542551.0725532008,155078.59749589209 -623167.8939385987,143216.92517376714 -706316.6164990856,123716.90910517154 -791293.4358240939,96142.69240235236 -877329.972166652,60124.174851520904 -963598.6791215402,15365.840092839715 -1049219.3563657461,-38344.75980602982 -1133266.7595757903,-101128.99107674805 -1214779.2865323853,-173009.72773414935 -1292768.7036353713,-253904.6765864138 -1366230.8617192723,-343620.57028989855 -1434157.334336417,-441848.35905088444 -1495547.8957296086,-548159.5279075659 -1549423.7397335037,-662003.6610320988 -1594841.325019533,-782707.367120556 -1630906.7166405905,-909474.6706542992 -1656790.2789558857,-1041388.9626064685 -1671741.5609473097,-1177416.591043344 -1675104.2019055241,-1316412.1570665399 -1666330.6736981296,-1457125.5647195322 -1644996.6655650886,-1598210.8549282537 -1610814.9088463017,-1738236.833375389 -1563648.232454387,-1875699.4805640148 -1503521.635475215,-2009036.1093791528 -1430633.1612093349,-2136641.211403764 -1345363.3574428638,-2256883.9083138355 -1248283.1109214008,-2368126.89911682 -1140159.6500369739,-2468746.768084817 -1021960.5187415786,-2557155.4922669707 -894855.3367584996,-2631822.9617643 -760215.1763288485,-2691300.3008521865 -619609.4040249459,-2734243.753893243 -474799.85756650934,-2759438.8771610716 -327732.25203198683,-2765824.756565759 -180524.73726595452,-2752517.9522107868 -35453.55850112751,-2718835.854094349 105064.19494756678,-2664319.1194664054 238490.73283224955,-2588752.8517259276 362190.54154284764,-2492186.173636034 473456.09955334634,-2374949.8443722986 569536.1936537141,-2237671.570798752 647666.6573228046,-2081288.6686548577 705103.3104818524,-1907057.7392628877 739156.8376770472,-1716561.0421174017 747229.2999934916,-1511709.2634354304 726851.935250517,-1294740.4055154321 675723.861843454,-1068214.5516052686 591751.2645718486,-835004.2958831635 473086.60653411195,-598280.6680152996 318167.3802850829,-361494.42640540266 125753.88455616515,-128352.64346064217 -105034.5094707018,97209.44034218918 -374685.1554791963,311061.2594764728 -683260.5574713278,508914.36861183774 -1030369.9930469885,686364.3315914392 -1415144.9026028,838936.8297188026 -1836218.6037715417,962137.6973814045 -2291710.8741076034,1051506.524593886 -2779217.920861242,1102673.3974981282 -3295808.224449787,1111418.2800561292 -3838024.70178786,1073732.4740080992 -4401893.586934568,985881.5305752351 -4982940.3696059575,844468.9273272909 -5576213.067144149,646499.7680933954 -6176313.032801297,389443.7137636727 -6777433.423066854,71296.30830125356 -7373405.359747929,-309362.17176481994 -7957751.729220079,-753311.2437151241 -8523748.462444607,-1260639.0385162777 -9064493.03585462,-1830696.3399242049 -9572979.82602184,-2462056.7656608555 -10042181.841215141,-3152483.9989600093 -10465138.241740514,-3898906.9519542707 -10835046.9495998,-4697403.702791191 -11145361.537899071,-5543194.995659642 -11389891.483028766,-6430648.026854616 -11562904.759444764,-7353291.160537559 -11659231.659469027,-8303840.125050687 -11674368.630497614,-9274236.134778421 -11604580.840968743,-10255696.264059598 -11447002.11601497,-11238776.269169591 -11199730.82548618,-12213445.912730522 -10861920.262526935,-13169176.693085065 -10433862.021596203,-14095041.720394006 -9917060.872110792,-14979827.312887648 -9314299.629048109,-15812155.7124081 -8629692.5459879,-16580618.139888195 -7868725.800182506,-17273917.230667792 -7038283.704103168,-17881017.708642505 -6146659.3641066775,-18391303.97941456 -5203548.614750946,-18794743.14823722 -4220026.186977975,-19082051.801078036 -3208503.219719188,-19244864.72911646 -2182665.397032605,-19275903.63104222 -1157391.1859263373,-19169143.69625186 -148649.8625298933,-18919975.85807005 826620.7550963344,-18525362.4120243 1750656.7021272418,-17983983.62248352 2605029.9631376173,-17296372.894014686 3370829.568484141,-16465038.063870287 4028860.706695876,-15494566.38114239 4559860.578493497,-14391710.778144743 4944729.424301399,-13165455.11208063 5164774.863190563,-11827056.161299538 5201967.390737311,-10390060.301371684 5039204.600150784,-8870292.962392611 4660581.419222154,-7285819.180536149 4051663.3993212017,-5656873.803644611 3199759.856035756,-4005760.191864687 2094193.4483805695,-2356716.5688174153 726562.5990427017,-735749.524842564 -909006.9939335616,829565.4507046489 -2815625.6192269954,2310316.129007269 -4993421.528565061,3676517.688510524 -7439345.599070856,4897407.698802901 -10147002.637403423,5941770.330789539 -13106513.215176774,6778287.710601955 -16304409.8060404,7375915.857308948 -19723570.82082461,7704282.166979122 -23343195.906791456,7734100.933929701 -27138825.589370668,7437602.94033302 -31082407.989545926,6788974.704268816 -35142414.94772764,5764802.560537515 -39284009.42668517,4344516.364954452 -43469265.55386607,2510827.2683541784 -47657442.099968575,250153.70805318558 -51805309.57952161,-2446970.481159334 -55867530.50489006,-5585512.120714601 -59797091.632797025,-9165585.311444009 -63545786.318214834,-13182135.080048485 -67064744.341185674,-17624664.474664763 -70305005.80545384,-22477011.42553887 -73218134.93207048,-27717181.491102554 -75756868.79544093,-33317242.324800327 -77875795.28325795,-39243285.32140007 -79532053.81558937,-45455459.431786984 -80686051.64266424,-51908081.57198735 -81302187.86660254,-58549827.39616754 -81349576.71057284,-65324005.45649832 -80802761.00094594,-72168916.93834263 -79642406.345131,-79018302.24167585 -77855966.09095962,-85801874.68485032 -75438306.85344888,-92445940.54198024 -72392284.20172107,-98874103.49888991 -68729258.02236415,-105008050.43464592 -64469537.12433073,-110768414.21736181 -59642742.832401864,-116075707.95670632 -54288081.63790612,-120851323.89495164 -48454517.442173645,-125018588.85823153 -42200834.54401239,-128503866.9456215 -35595583.28964866,-131237698.92227136 -28716901.222664032,-133155966.62135889 -21652203.641240615,-134201069.56592184 -14497738.687262345,-134323100.01375055 -7358003.451264046,-133481001.7248288 -345019.07147583074,-131643696.96949376 6422535.575282296,-128791165.65443702 12820330.26009101,-124915459.96033329 18719526.702496976,-120021637.57572745 23988053.705885727,-114128596.49248448 28492007.06726939,-107269794.41264708 32097165.175102584,-99493836.11772119 34670609.16004326,-90864912.67987996 36082434.4161697,-81463077.15896441 36207538.28960657,-71384342.43593174 34927466.764687404,-60740588.08598997 32132301.09285124,-49659264.69427676 27722563.53523033,-38282885.7611175 21611119.75599738,-26768299.32770664 13725053.939514205,-15285733.667453188 4007491.4399947724,-4017613.8215398076 -7580657.26340717,6842851.606565788 -21059058.311962627,17093311.16263136 -36426449.41425853,26524133.542989712 -53659295.6817877,34920484.553228654 -72710633.89478178,42064606.4706594 -93509132.24165004,47738284.96360468 -115958391.7076939,51725485.39142708 -139936514.03712663,53815136.98301989 -165295959.54719985,53804040.11011095 -191863716.02801833,51499868.678705305 -219441797.51559132,46724236.60322233 -247808088.88185883,39315794.45016602 -276717548.95317113,29133319.689649932 -305903781.2615722,16058761.621877609 -335080977.571587,200.00000041035608" stroke="white" stroke-width="1.5" /></svg>