<?xml version="1.0" encoding="utf-8" ?>
<svg baseProfile="full" height="400" version="1.1" width="400" xmlns="http://www.w3.org/2000/svg" xmlns:ev="http://www.w3.org/2001/xml-events" xmlns:xlink="http://www.w3.org/1999/xlink"><defs /><rect fill="black" height="100%" width="100%" x="0" y="0" /><circle cx="200" cy="200" fill="yellow" r="20" stroke="orange" stroke-width="2" /><polyline fill="none" points="199.18505269335967,200.0 199.1918563277084,199.95757614887094 199.20438994832233,199.91623738285853 199.22272394937892,199.87668261574328 199.24685609369035,199.8396390670687 199.27670650508193,199.8058552326207 199.31211328560525,199.7760931234183 199.35282885377296,199.75111982090564 199.3985170974684,199.73169840773906 199.44875143131418,199.71857834531443 199.50301384303947,199.71248538083157 199.56069500673783,199.71411107809618 199.6210955328436,199.7241020772538 199.68342841518492,199.74304919907362 199.74682272461365,199.77147651908305 199.81032858651201,199.8098305456256 199.8729234659954,199.85846964360826 199.93351976994794,199.91765385214757 199.99097375925095,199.9875352493572 200.0440957478105,200.0681490209817 200.09166154740626,200.15940539132785 200.1324250991325,200.2610825748359 200.16513221346278,200.37282090454914 200.18853532194709,200.49411828957017 200.20140912445834,200.6243271472544 200.20256699697907,200.76265294731323 200.19087800640443,200.90815449414205 200.16528436099208,201.05974606053277 200.12481910818133,201.21620147048492 200.06862387580378,201.37616021113604 199.9959664384937,201.5381356339567 199.90625787865554,201.70052528340267 199.79906910092765,201.86162336731647 199.6741464509659,202.01963535769522 199.5314261838101,202.17269468318568 199.37104752433203,202.3188814460681 199.1933640625167,202.45624306681378 198.9989532297998,202.58281672884027 198.78862360954201,202.69665346517428 198.56341984511184,202.79584369771638 198.32462492307565,202.8785440090647 198.07375962672785,202.9430048967951 197.81257897666424,202.9875992311369 197.54306550028696,203.01085110955543 197.26741920097018,203.01146477630076 196.9880441299947,202.9883532519575 196.70753150011157,202.94066629787832 196.42863931850178,202.86781732354933 196.1542685586876,202.76950883185117 195.8874359352946,202.6457559882567 195.63124339208042,202.49690789563715 195.3888444619056,202.3236661568909 195.16340770683735,202.12710031338648 194.9580774968194,201.9086597585002 194.7759324357312,201.67018174256253 194.61994179358274,201.41389510847148 194.4929203523953,201.1424194262043 194.39748212031645,200.858759229499 194.33599341301274,200.56629309905426 194.31052584264447,200.26875738361048 194.3228097920328,199.97022440302803 194.37418898424454,199.67507503571076 194.46557678502748,199.387965656067 194.5974148966298,199.11378945571542 194.76963511585348,198.85763225429693 194.98162483609977,198.62472298142112 195.23219697207418,198.42037908975615 195.51956497621237,198.2499472397729 195.84132359731456,198.11873967831235 196.19443600396272,198.03196681502263 196.57522785776786,197.9946665818031 196.9793888741727,198.01163123963667 197.4019823513534,198.08733237347957 197.8374630807733,198.22584488806137 198.27970397631609,198.43077088435564 198.722031672978,198.70516435692696 199.1572712512661,199.05145770515864 199.57780014032585,199.47139109534865 199.97561114212567,199.9659457446895 200.34238440163386,200.5352822211357 200.66956802484364,201.1786848640783 200.94846691888668,201.89451342865135 201.1703392976066,202.68016304054066 201.32650016325323,203.53203351762394 201.4084309419314,204.4455090690439 201.40789431873176,205.41494932095625 201.31705318980707,206.43369254091755 201.12859252484623,207.49407183957948 200.83584281630016,208.5874450191242 200.43290368323645,209.70423861300122 199.9147660997724,210.83400652151633 199.27743163257887,211.96550349340458 198.51802700086301,213.08677353564968 197.63491221737112,214.18525315367722 196.627780532071,215.24788913307003 195.49774838294306,216.26127037377935 194.24743356225804,217.21177308030926 192.88101983321766,218.08571839862825 191.40430628206255,218.86954137490062 189.824739765675,219.5499698950268 188.15142891504158,220.11421205008565 186.3951382811501,220.5501501638986 184.56826136213527,220.84653951801732 182.68477142860988,220.99320961950562 180.76014926764125,220.9812656810423 178.81128719392063,220.803287824246 176.8563689281415,220.45352537884162 174.91472521588042,219.92808353543163 173.0066653534296,219.22509952121035 171.15328509774093,218.34490540882175 169.37625176322408,217.29017464142407 167.6975676455357,216.06604936435767 166.13931325830043,214.6802456978368 164.72337221917672,213.1431341677148 163.47113997277563,211.4677926341572 162.40321888532785,209.6700292221651 161.53910258511138,207.76837296404727 160.8968527487173,205.78403011239334 160.4927718413199,203.74080437259732 160.34107560419108,201.66497963572104 160.4535693396678,199.58516416410603 160.8393322675687,197.53209559168968 161.50441441265247,195.5384065459011 162.45155062525268,193.63835117513906 163.67989643204982,191.86749337138988 165.1847904566799,190.26235800714306 166.95754813650652,188.86004705442824 168.9852913888098,187.69782301597962 171.25081874377918,186.81266266814794 173.73252026052455,186.24078468563212 176.40434127396665,186.01715528235889 179.2357986837773,186.1749765534593 182.19205309111493,186.74516273251572 185.2340396151922,187.75581007806602 188.31865968102855,189.2316665655618 191.39903546433106,191.19360797732344 194.42482801249926,193.65812734525605 197.34261933644646,196.63684500106535 200.09635799143598,200.1360467185346 202.62786684260746,204.15625758453731 204.8774108494749,208.69185930277183 206.78432181150967,213.73075861018813 208.28767610303638,219.254114364929 209.3270204999626,225.2361306413174 209.84314027407007,231.6439228379327 209.77886281416846,238.437463366116 209.07988913944516,245.56961293647262 207.69564481146543,252.98624279949547 205.58014094051606,260.62645252407293 202.69283523265378,268.42288701654087 198.9994823493522,276.3021554967758 194.4729622654416,284.18535406183366 189.094074826306,291.98869228864334 182.85228833487432,299.62422306369683 175.7464297550697,307.0006734896078 167.78530401258092,314.02437331748416 158.98822991665347,320.60027590349125 149.3854804274808,326.63306520251336 139.0186153608046,332.0283408075673 127.94069516105685,336.69387153806133 116.21636509165383,340.5409065917587 103.92180008885094,343.4855318240682 91.14450160480277,345.4500573245899 77.98293902487468,346.3644211458753 64.5460296802203,346.16759282474703 50.952453083126755,344.808959244109 37.329796781081,342.24967443473156 23.813533144758935,338.4639541334437 10.54582846142992,333.4402953173693 -2.3258121178334363,327.18260054314806 -14.650057950220713,319.7111867542013 -26.273416407003282,311.0636582951299 -37.04203591287825,301.29562420552855 -46.803635474092545,290.4812404689565 -55.40954520468105,278.71355877710687 -62.71683994316584,266.1046645421702 -68.59054569602301,252.7855883567505 -72.90589638251913,238.9059768618542 -75.55061622259666,224.63351103729116 -76.42720114053992,210.15306226932472 -75.45517078760605,195.6655791677184 -72.57326125209278,181.3867009843659 -67.74152726020515,167.54509661028916 -60.943321709397196,154.3805314744182 -52.187119749900745,142.14166820947716 -41.50815437015797,131.08361065651394 -28.969830575618516,121.46520461501943 -14.664885802542813,113.54611267113143 1.283734799761021,107.5836844093082 18.72231813636148,103.82964728684095 37.466165984111285,102.52664737628253 57.299746464761824,103.90467300623656 77.97723690587635,108.1773980016791 99.22347747269735,115.53848468502581 120.73535113965556,126.1578899913974 142.183601306502,140.17822091828958 163.2150936740526,157.71118801368732 183.45552390804306,178.8342076510194 202.51256717331805,203.5872053893654 219.97945985818146,231.9696737206158 235.43899778072083,263.9380379127507 248.46792893248656,299.40338342506703 258.6417124336784,338.22959745704145 265.5396089176454,380.2319755633275 268.7500611063405,425.176341895581 267.8763169626818,472.7787284970456 262.5422415953067,522.7056551661778 252.39825813423647,574.5750467176185 237.12735218361726,627.9578190088516 216.4510692828374,682.3801588850605 190.1354301636366,737.3265162497682 157.99668457164125,792.2433188323699 119.90682111791862,846.5434119442976 75.79874812869436,899.6112166532997 25.67105885432767,950.8085904313446 -30.407706238368576,999.4813645282773 -92.29538696052822,1044.966522183929 -159.77320603875665,1086.599971419253 -232.54352957558933,1123.7248556560407 -310.2284641283487,1155.70033492711 -392.3693640773488,1181.9107600854018 -478.42731657036086,1201.7751523389638 -567.7846636817727,1214.756890772934 -659.7476125223945,1220.3735014174406 -753.5499739062,1218.2064330328826 -848.3580588672405,1207.9106972634609 -943.2767498850103,1189.2242443077785 -1037.3567501992563,1161.9769399209235 -1129.603000173556,1126.0990055402535 -1218.9842344167846,1081.6287807550214 -1304.4436374276556,1028.7196663472255 -1384.9105390410728,967.646106835628 -1459.3130740954227,898.8084739618494 -1526.5917136915607,822.7367169562255 -1585.7135583766753,740.0926517837236 -1635.6872667721939,651.6707699491021 -1675.5784767984824,558.3974578663974 -1704.5255609638857,461.3285302781671 -1721.755542422529,361.6449957270838 -1726.5999849095624,260.64698859227025 -1718.510657481502,159.74582063316262 -1697.0747644695095,60.454125234374175 -1662.0295224366355,-35.625910514501214 -1613.275859451312,-126.81620729921093 -1550.8910078721892,-211.3783052046494 -1475.1397602933253,-287.53065613178796 -1386.484159515226,-353.4676008491558 -1285.5913975561348,-407.37990711251257 -1173.339705944063,-447.4767175797599 -1050.8220299496982,-472.0087285674375 -919.3472931176493,-479.29239338639877 -780.439075477681,-467.7349174220418 -635.8315491797638,-435.859786668825 -487.4625389671372,-382.3325474809028 -337.46360180723946,-305.9865332598134 -188.14705002335347,-205.84821406779082 -41.989875245436565,-81.16182813179734 98.38543378559882,68.5870597181299 230.23314833072328,243.64943807125275 350.7095600878068,443.9925394068265 456.9011311748234,669.2817154076611 545.8553762979222,918.8648694221874 614.6142751891646,1191.7598115207234 660.2499683741112,1486.6448897265675 679.9024443604635,1801.8532339445842 670.8188819888187,2135.3709267239037 630.394268548345,2484.839387198133 556.2128729517352,2847.562221330717 446.09011442146846,3220.516753003981 298.1143314115995,3600.370406648532 110.68792352902135,3983.5020632086153 -117.43268832464713,4366.028457548444 -387.0988608563298,4743.835627271199 -698.7338804083236,5112.615360772251 -1052.3000727363492,5467.906526685687 -1447.2694789016336,5805.141098289242 -1882.5987020578918,6119.694615564836 -2356.708518570297,6406.940755200107 -2867.4688274176265,6662.309605655682 -3412.1894839001666,6881.349171377082 -3987.617527084454,7059.789558211963 -4589.9412650378745,7193.609222069893 -5214.801627717478,7279.102595837357 -5857.311134461625,7312.948346569111 -6512.080751588855,7292.277457072846 -7173.254835953749,7214.740274248873 -7834.554272884531,7078.571621994555 -8489.327822299741,6882.653040172366 -9130.611585666684,6626.571184074798 -9751.196399643783,6310.6714019526935 -10343.702850691225,5936.105502402093 -10900.66348971074,5504.872729540213 -11414.611708071765,5019.852982666889 -11878.176617499006,4484.831349115874 -12284.183157632146,3904.513064738651 -12625.7565381156,3284.5280762836483 -12896.430008403888,2631.4244540346344 -13090.254839708967,1952.6499914876733 -13201.91130135331,1256.5214314360999 -13226.819319939748,552.1808742702451 -13161.247425928115,-150.46094593796334 -13002.418520136831,-840.7946896279182 -12748.610934047265,-1507.5957622368342 -12399.253214208002,-2139.120840407774 -11955.011034068859,-2723.217253555551 -11417.864627665544,-3247.4447189794846 -10791.175150047715,-3699.208741352181 -10079.738400364347,-4065.904796076644 -9289.824396077589,-4335.072222803601 -8429.201361664414,-4494.5565626153575 -7507.142792941311,-4532.678882438499 -6534.416379134496,-4438.410445697984 -5523.253709060989,-4201.550911726526 -4487.2998550506745,-3812.9080807310556 -3441.5421179866316,-3264.477048976156 -2402.2174282151273,-2549.6165030737106 -1386.6981288979105,-1663.2197656546066 -413.3561191330833,-601.8781099757507 498.59439799490923,635.9662091721034 1329.275034547765,2049.879804026317 2058.3413810584907,3637.3134913910176 2665.200086426753,5393.495710856252 3129.243415748864,7311.346564167649 3430.0995334954227,9381.414929951123 3547.896446268164,11591.84098542662 3463.537230903667,13928.346306962394 3158.983874098681,16374.253523823809 2617.546763330342,18910.537264187118 1824.1766000812079,21515.907859816933 765.7552597784884,24166.92896663483 -568.618097029583,26838.169914135768 -2187.349546383661,29502.39321917002 -4096.085592604037,32130.777291484555 -6297.465180052629,34693.1739226104 -8790.892744005943,37158.39968978844 -11572.336540762259,39494.55992672513 -14634.156466864295,41669.40341771228 -17964.965492686228,43650.70546615347 -21549.52869402185,45406.67647841965 -25368.703664666504,46906.39269524884 -29399.42583184912,48120.24520202441 -33614.741873940635,49020.40286297456 -37983.894056050216,49581.28435966165 -42472.457854579625,49780.03407829357 -47042.534738005554,49596.996190752056 -51653.00141040097,49016.180918191734 -56259.8162096438,48025.71666095878 -60816.38268794297,46618.28143162697 -65273.96969317077,44791.506846116295 -69582.18652134077,42548.34781776324 -73689.51093011092,39897.41106703329 -77543.86699797389,36853.23561092499 -81093.24899216549,33436.518535959534 -84286.38657941301,29674.27959117544 -87073.44588728256,25599.958466067754 -89406.76011050589,21253.439045264975 -91241.58256728345,16680.995458198155 -92536.85435657311,11935.155368226462 -93255.97806056401,7074.476670499385 -93367.58828882751,2163.2345888792083 -92846.30928406277,-2728.9829242721976 -91673.48931585986,-7527.772580883767 -89837.9011901666,-12154.505956563906 -87336.39790949877,-16527.01135656936 -84174.51234311574,-20560.344991173242 -80366.9897173989,-24167.64783387661 -75938.24182363426,-27261.08322661556 -70922.71207133897,-29752.8489605222 -65365.14089693877,-31556.256213751985 -59320.721575366355,-32586.866385385154 -52855.1371797667,-32763.6755434515 -46044.470293987346,-32010.33492358765 -38974.97810405977,-30256.39469129961 -31742.726676585073,-27438.5570343775 -24453.07956984326,-23501.923602114195 -17220.03741138041,-18401.221374146506 -10165.426705324997,-12101.99024335495 -3417.9378929522,-4581.714953326276 2887.9854320806426,4169.116440240247 8613.402272344596,14146.045695677463 13616.268993203192,25329.787284958446 17752.965032670778,37685.49910583227 20879.93930900978,51162.19866452413 22855.464891614465,65692.34176081131 23541.48731989054,81191.57982728077 22805.549809713862,97558.71093471652 20522.776506720442,114675.83807264625 16577.89296035713,132408.74664791874 10867.261133371972,150607.51121789133 3300.90455981691,169107.33929493045 -6195.502247604991,187729.65763558133 -17678.707331391026,206283.44377480683 -31186.045994489697,224566.80270075673 -46733.72566529959,242368.78551003162 -64315.260359116925,259471.4436626185 -83900.08428496763,275652.10909860185 -105432.37389896862,290685.8870180048 -128830.10707651534,304348.3445968162 -153984.38704800076,316418.37535580556 -180759.05730250326,326681.21535642 -208990.6318012175,334931.58391496126 -238488.562552248,340976.91814965586 -269035.86388056487,344640.66745424777 -300390.1095866351,345765.6109769089 -332284.8156352468,344217.1584258811 -364431.21706899966,339886.5920748468 -396520.4435213386,332694.20575276355 -428226.0930409248,322592.2949249052 -459207.1989672617,309567.9507524246 -489111.5793582097,293645.6103028281 -517579.5530105572,274889.31491602096 -544248.0004882675,253404.62914872027 -568754.7428382838,229340.17375814405 -590743.2048949392,202888.7278725663 -609867.3243199581,174287.8578539981 -625796.661869053,143820.03340257498 -638221.662895187,111812.19519130637 -646859.0148724755,78634.74275366728 -651457.0408356428,44699.916466492796 -651801.0641613131,10459.553259031654 -647718.6761528731,-23597.797891436414 -639084.8345133674,-56950.4075833235 -625826.7180822304,-89047.54404892144 -607928.2612500128,-119314.28887142733 -585434.2903251521,-147156.97306160594 -558454.1838774885,-171969.20731555598 -527164.9797872958,-193138.47112656853 -491813.85344129446,-210053.21610223097 -452719.8942846958,-222110.42944709244 -410275.11179684405,-228723.59422357654 -364944.6069328888,-229330.97381852526 -317265.8511775802,-223404.13914502683 -267847.02258983714,-210456.64862886257 -217364.3565635122,-190052.78309950492 -166558.4784617411,-161816.23046264373 -116229.69575471853,-125438.608610793 -67232.23874306546,-80687.7095655602 -20467.451304370443,-27415.343471767723 23124.05373424974,34435.342092838546 62571.24612915568,104823.19384732255 96882.4937500196,183603.16230059165 125056.28432383906,270521.314548815 146092.78045895993,365210.8730947249 159006.11975568833,467189.3988671239 162837.35662572365,575857.2303057713 156667.92752707106,690497.2822493672 139633.5068778661,810276.2984022313 110938.10715296972,934247.6393595735 69868.26380819944,1061355.6745658368 15807.133938951549,1190441.8312135662 -51751.67281617176,1320252.3360348819 -133190.72145111303,1449447.6672928354 -228756.0342312356,1576613.714171381 -338545.2312560396,1700274.6193424352 -462496.734305306,1818907.257935301 -600380.239866562,1930957.2826518663 -751788.665255509,2034856.6405910824 -916131.7670851318,2129042.4427217585 -1092631.6238931986,2211977.0421504304 -1280320.1644073562,2282169.1526682274 -1478038.9096474748,2338195.81484284 -1684441.080803875,2378724.993479679 -1897996.205590246,2402538.5679539414 -2116997.3335914495,2408555.4560654187 -2339570.946087781,2395854.593047972 -2563689.618058829,2363697.470535389 -2787187.4597139684,2311549.926000724 -3007778.3321674666,2239102.8617951456 -3223076.7970226393,2146291.5647506076 -3430621.7229429507,2033313.2926962068 -3627902.434101564,1900642.7934654593 -3812387.2460896163,1749045.4253083088 -3981554.194841283,1579587.5553010965 -4132923.72385019,1393643.9245650498 -4264093.054891167,1192901.68601137 -4372771.928136994,979360.8420324749 -4456819.3595097475,755330.8361052284 -4514281.026889721,523423.08365780866 -4543426.862995374,286539.26371018833 -4542788.401926025,47855.23360013772 -4511195.399110212,-189199.5256461781 -4447811.221303567,-420966.97631084465 -4352166.484897379,-643590.0930849444 -4224190.40767617,-853046.8672940579 -4064239.331815907,-1045188.6195868658 -3873121.874822172,-1215782.432320663 -3652120.170701673,-1360557.4489610842 -3403006.6763196923,-1475254.722758632 -3128056.0379362823,-1555680.2315048575 -2830051.540579594,-1597760.6100932448 -2512285.698372984,-1597601.0887492753 -2178554.5872641588,-1551545.0630268336 -1833145.572797496,-1456234.66290235 -1480818.144514988,-1308671.633466176 -1126777.6350528707,-1106277.7897582392 -776641.6756973023,-846954.2641699502 -436399.3206404214,-529138.7274761341 -112362.85889057047,-151859.73488726435 188887.57492378337,285212.6725928514 460566.382532383,781720.9929189187 695751.5674629252,1336579.7968004395 887460.0707064421,1947941.6441159223 1028728.8576373153,2613170.235664928 1112701.13085341,3328821.620118557 1132716.93789314,4090634.2307734652 1082407.3390893398,4893528.468791192 955791.2005604323,5731616.478888028 747373.5819946798,6598222.679953335 452244.59996846877,7485915.516999177 66177.56659136483,8386550.792534017 -414274.8681704672,9291326.815434929 -991687.9025493349,10190851.474377686 -1667676.477352173,11075221.201762099 -2442813.292528693,11934111.643923135 -3316554.3784167734,12756879.695508214 -4287173.656193509,13532676.391672974 -5351707.906396795,14250569.982820565 -6505913.530021984,14899678.344773004 -7744236.432815058,15469309.704455527 -9059796.289341878,15949110.489485458 -10444386.348782986,16329218.94169433 -11888489.828983644,16600422.971893985 -13381313.80912212,16754320.578524891 -14910841.374752691,16783481.008665998 -16463902.592508657,16681604.708729569 -18026264.696284186,16443679.996522829 -19582741.65340819,16066134.288702713 -21117323.049641326,15546977.640401954 -22613321.987522718,14885936.299294397 -24053541.435735814,14084573.946790723 -25420458.200097747,13146398.296456082 -26696423.41215009,12076950.745954825 -27863878.152044754,10883876.835457461 -28905582.541648295,9576975.353828548 -29804856.364912704,8168224.05507196 -30545828.999188572,6671780.102136161 -31113696.17705019,5103953.543591082 -31494980.847270302,3483152.3508000956 -31677795.16982693,1829797.7985191972 -31652100.46731114,166209.25940948335 -31409961.76788791,-1483542.19867146 -30945793.41707811,-3093811.6764220004 -30256592.11099868,-4637589.657856359 -29342153.616102114,-6086742.068500994 -28205269.393462233,-7412280.251605739 -26851899.34257274,-8584659.502619654 -25291316.923425574,-9574104.355673218 -23536223.008925736,-10350958.361860724 -21602824.964623608,-10886055.64287721 -19510877.650964566,-11151111.050555866 -17283683.295870226,-11119125.31892463 -14948047.492979264,-10764801.166689623 -12534188.943140011,-10064965.9009031 -10075600.972916638,-8998995.693501564 -7608863.33239076,-7549236.357996979 -5173403.293075488,-5701415.150476762 -2811205.632218965,-3445037.863754815 -566471.6982621886,-773765.2823914965 1514771.6009539627,2314237.0745019526 3385111.365944156,5815982.070448821 4996234.601705199,9723383.079775924 6299457.488714817,14023021.20468372 7246294.337507466,18695963.505561266 7789061.7942297235,23717637.9313386 7881513.128756247,29057770.312472023 7479496.716125903,34680388.36654203 6541632.126210387,40543897.16462769 5029996.575979807,46601229.91586375 2910813.884065575,52800077.24929011 155137.50925813138,59083197.40883645 -3260481.2361512287,65388808.932857834 -7353349.120054746,71651066.46910916 -12134020.71758441,77800619.38579327 -17605731.80410752,83765251.78696038 -23763886.405299116,89470601.43503287 -30595607.49767594,94840953.93476465 -38079361.23105249,99800107.35291499 -46184664.29153009,104272301.24891894 -54871883.63418738,108183202.88748474 -64092137.28433177,111460942.20898835 -73787304.23214905,114037185.96324986 -83890150.62660766,115848240.28297491 -94324578.51103352,116836169.90164979 -105006002.23715569,116949921.22414806 -115841856.45089023,116146435.55420479 -126732238.16789648,114391737.9886476 -137570683.95830598,111661986.82109691 -148245081.6483508,107944467.77455744 -158638714.23442337,103238517.01909764 -168631431.90689486,97556356.74284422 -178100946.2134735,90923827.04593462 -186924238.47354516,83380998.13050067 -194979072.6062978,74982647.17622228 -202145600.57866728,65798584.92956223 -208308046.73811954,55913817.902433224 -213356455.39511007,45428533.17726215 -217188484.18721136,34457894.15219383 -219711224.0186087,23131637.131633982 -220843024.75294417,11593460.469653208 -220515304.37259483,200.00000027005362" stroke="white" stroke-width="1.5" /></svg>