<?xml version="1.0" encoding="utf-8" ?>
<svg baseProfile="full" height="400" version="1.1" width="400" xmlns="http://www.w3.org/2000/svg" xmlns:ev="http://www.w3.org/2001/xml-events" xmlns:xlink="http://www.w3.org/1999/xlink"><defs /><rect fill="black" height="100%" width="100%" x="0" y="0" /><circle cx="200" cy="200" fill="yellow" r="10.00000575118541" stroke="orange" stroke-width="2" /><polyline fill="none" points="200.16373406447747,200.0 200.10985181408,200.00576671842714 200.0519543776317,200.0054698085239 199.99052473281176,199.99849671791142 199.92612318926555,199.98426999914344 199.85938563187895,199.96225661646224 199.7910207073442,199.93197731587244 199.7218059182804,199.89301594595958 199.65258260036995,199.84502860994456 199.58424977022554,199.78775252355217 199.51775684493006,199.72101444852208 199.45409524829233,199.64473856814385 199.39428893371962,199.55895366917866 199.33938386909145,199.46379949406702 199.29043654497102,199.35953212851652 199.2485015837526,199.2465282925197 199.2146185437245,199.12528840764477 199.18979802834045,198.99643832013874 199.1750072270236,198.8607295680247 199.17115502936159,198.71903809098856 199.17907686936147,198.57236129443098 199.1995194702865,198.42181339358842 199.23312567325587,198.268618980047 199.2804195440176,198.1141047712113 199.3417919618671,197.9596895232398 199.41748690234863,197.80687210948653 199.50758863092386,197.65721778943114 199.61201002800632,197.51234271725042 199.73048226645034,197.37389676435865 199.86254606056787,197.2435447561818 200.00754470087162,197.1229462498566 200.16461908087646,197.01373400616507 200.33270491133086,196.91749133550897 200.5105323031264,196.8357285237616 200.69662788280766,196.7698585690462 200.88931958408057,196.72117248452003 201.08674423503413,196.69081444470393 201.28685803403198,196.6797570734127 201.48744997752303,196.68877718952047 201.68615827053796,196.71843234225733 201.88048971559544,196.76903848010423 202.0678420384081,196.8406491062713 202.24552906945937,196.93303627886792 202.41080865957812,197.0456738148842 202.56091316546787,197.1777230537119 202.6930822981928,197.32802152789196 202.80459808436737,197.49507487586513 202.8928216467575,197.67705231356544 202.95523146872728,197.87178595861297 202.98946276603584,198.0767742725787 202.99334755050242,198.2891898533128 202.96495493362696,198.50589177071592 202.90263118500772,198.72344259572932 202.80503903095786,198.93813022393059 202.67119565371598,199.14599454222923 202.50050883167486,199.34285893011756 202.2928106467074,199.52436652617763 202.04838817650148,199.686021126582 201.76801058834354,199.82323251573646 201.4529520564801,199.9313659606475 201.10500993844485,200.005795530777 200.72651766691158,200.0419608348584 200.3203518429823,200.03542669623042 199.88993305453292,199.98194521959695 199.439219989402,199.87751963567896 198.9726964678165,199.71846924696263 198.4953510813873,199.50149473866784 198.0126491970512,199.22374306517676 197.53049716314365,198.88287107449068 197.05519864090013,198.47710699283738 196.5934030775165,198.00530885931278 196.15204643575237,197.46701897736565 195.7382843991015,196.8625134369191 195.35941837984092,196.1928457588055 195.0228147687363,195.45988372272777 194.7358179786565,194.6663384618118 194.5056579485538,193.81578494153425 194.3393528878303,192.9126729888275 194.2436081525762,191.96232809877282 194.22471225300646,190.9709413216369 194.28843109405577,189.9455476220676 194.43990164688836,188.89399220485544 194.6835263363945,187.8248844174138 195.02286950692022,186.74753896747904 195.46055739387583,185.671904334723 195.9981830808865,184.60847840606024 196.63621795924422,183.5682115252662 197.37393122713166,182.56239731675257 198.20931896906063,181.60255181943378 199.13904433997646,180.7002816478253 200.15839034245334,179.86714208193524 201.2612266284491,179.1144861730618 202.43999167851118,178.45330613706167 203.68569161065483,177.89406848763593 204.98791674814447,177.4465445372099 206.33487693013467,177.11963805948386 207.71345638188134,176.92121206306 209.10928877262978,176.85791676702604 210.50685288023305,176.93502099431205 211.88958905329156,177.15624930436886 213.2400364156777,177.52362727064386 214.53999049660013,178.03733736795007 215.77068069406573,178.6955879677622 216.9129666932317,179.49449794353913 217.94755266652197,180.4279993613739 218.8552177826301,181.48776067188217 219.61706125002343,182.66313272580942 220.2147598209389,183.94111980725125 220.63083538797127,185.30637771388317 220.84893002123863,186.74124071282677 220.85408552395933,188.22577896380943 220.63302433238457,189.7378877286227 220.17442835675524,191.25340937855688 219.46921215766378,192.74628887098496 218.5107866812177,194.1887629945989 217.29530964095233,195.5515832825078 215.82191853858632,196.80427206654485 214.0929422633004,197.91541069829165 212.11408720381078,198.85295849660653 209.89459385231635,199.58460050243878 207.44735997723174,200.07812163448816 204.78902659480897,200.3018043493435 201.9400231801023,200.22484642301401 198.92456882645408,199.8177949935262 195.7706263903419,199.0529925430674 192.50980704489913,197.9050300598238 189.17722310983467,196.35120221117523 185.81128752618275,194.371958988346 182.45345889885598,191.95134795506834 179.1479316350553,189.07744095631602 175.9412713580723,185.74273892456432 172.8819964689032,181.94454826693098 170.02010745653195,177.68532223318417 167.40656631505453,172.97296065774137 165.09272920451633,167.82106154363862 163.1297362841721,162.24911811756522 161.56786344287033,156.28265523620075 160.4558414418011,149.9532993681722 159.84014875971843,143.29877681490797 159.7642851792688,136.36283536839602 160.26803386415446,129.19508523411673 161.38672033917217,121.8507557717792 163.1504773871985,114.39036542222325 165.58352540740628,106.87930309194026 168.70347822599138,99.38732025171998 172.5206847033322,91.98793406619268 177.03761672908476,84.75774299833756 182.24831432912165,77.77565751785629 188.13789861609112,71.12204977374984 194.68216319026445,64.87782735731858 201.84725433190542,59.12343756866224 209.58944991453853,53.937809892997336 217.85504640553336,49.39724567707333 226.58036260323595,45.574265254050545 235.69186788706756,42.53642398002728 245.10644172900635,40.34510979895094 254.73177003405644,39.05433602647784 264.46688254816485,38.709544018730185 274.2028341011495,39.346431250151284 283.82353084837104,40.989821047210626 293.20670094915886,43.65259079351762 302.2250072856946,47.33467581957626 310.7472978987106,52.02216640053902 318.6399878137262,57.686515292728245 325.76856387348334,64.28387303071855 331.9992021006557,71.75456776950924 337.2004850135619,80.02274578091507 341.24520423200465,88.99618779223277 344.01223166747207,98.56631518346603 345.38844062007524,108.6083986347464 345.27065623301746,118.98198013881202 343.56761301411666,129.531517368499 340.20189555330364,140.08725722348288 335.11183717554496,150.46634298478043 328.2533501003502,160.4741568941968 319.6016597612826,169.9058971670155 309.1529152999004,178.54838546148756 296.92564791491804,186.1820976934393 282.96204874371364,192.5834078274982 267.32903830173336,197.52703093041956 250.11910022517353,200.7886483724014 231.45085316936667,202.14769464785033 211.46933622183968,201.39028189923695 190.3459851029762,198.31223491041956 168.27827875213043,192.72220613508776 145.48903863148124,184.4448372894163 122.22536621730694,173.32393121438594 98.75720767665847,159.2255951519085 75.37553862889513,142.04131432932064 52.39016614269181,121.69091285784161 30.127149690453194,98.12535746988056 8.925847638158046,71.32935859337306 -10.864399051823398,41.32372273183563 -28.88792893160408,8.167410126382691 -44.78674557964624,-28.04074774351443 -58.20479857607211,-67.16071507913557 -68.79252645651388,-109.01034554565337 -76.21162265725218,-153.3649428996132 -80.13998007851671,-199.95732531492774 -80.27676469822512,-248.47842646771318 -76.3475637425326,-298.57846198118267 -68.10954934165943,-349.8686847183925 -55.3565944497889,-401.92374666268233 -37.92427416668929,-454.2846787721378 -15.69468254549156,-506.4624932739598 11.399007416922188,-557.9424054251166 43.36831455892363,-608.1886638651965 80.16562589343329,-656.6499703931021 121.68085326308821,-702.7654613881346 167.73864409923036,-745.9712142538999 218.09621812229346,-785.7072332849432 272.44189884651746,-821.424860343619 330.39440472139245,-852.5945467982388 391.50295963524775,-878.7139144293637 455.24827631440394,-899.3160245808415 521.0444588786272,-913.9777668416607 588.2418624784596,-922.3282711229908 656.1309385746642,-924.0572402719995 723.947084072344,-918.9230944710055 790.8765012549069,-906.7608137358291 856.063063354708,-887.4893609765788 918.616167742152,-861.1185654380643 977.6195452232257,-827.7553450091355 1032.1409799319758,-787.6091459852857 1081.242879929408,-740.9964804810669 1123.9936240275013,-688.3444448997051 1159.4795957134954,-630.193107743929 1186.8178005341433,-567.196661645449 1205.168949101288,-500.1232428334878 1213.7508741968754,-429.85333136901875 1211.8521374920524,-357.37665733287656 1198.8456693607611,-283.78755174303546 1174.202274375261,-210.27869623546945 1137.5038255311606,-138.1332423963379 1088.4559622721463,-68.7152899778817 1026.900101173587,-3.4587329380945278 952.8245638951221,56.14549683895723 866.3746249094062,108.56373633856305 767.861281727433,152.2353741502959 657.7685530226261,185.59001119562114 536.7591153382166,207.06587778357064 405.67809705378534,215.1293615365369 265.5548590692156,208.29547715044853 117.60260529054587,185.14908589891647 -36.78431750679084,144.3666505813172 -196.0355515193163,84.7382905830391 -358.41239039901495,5.18988220277987 -522.018046458128,-95.1950682487207 -684.8105692293129,-217.1540665174715 -844.6184321518292,-361.22508847776805 -999.1587720821344,-527.7271650598897 -1146.0582322970447,-716.7424117099946 -1282.8763239622106,-928.0998233868665 -1407.1311840093663,-1161.3611556584206 -1516.3275693757491,-1415.8092080031524 -1607.9868890147463,-1690.4388167331624 -1679.6790364316842,-1983.9508518615758 -1729.0557472059102,-2294.749494605836 -1753.8851685303596,-2620.9430499646805 -1752.0872917563129,-2960.3485218981286 -1721.7698648153146,-3310.500147099634 -1661.264369755448,-3668.6620472594873 -1569.161622035408,-4031.845119223207 -1444.3465232263206,-4396.828237756813 -1286.0314779300295,-4760.183797017092 -1093.7879695708928,-5118.307564631875 -867.5757787716038,-5467.452766932204 -607.769322765848,-5803.768265821566 -315.18059517942345,-6123.340627559389 8.921807074151417,-6422.23982198099 362.79806874153206,-6696.568228039265 744.2274305184237,-6942.512558755214 1150.5038013391459,-7156.39825647424 1578.4371209760113,-7334.745848558437 2024.3608413434702,-7474.328695153243 2484.1458434638816,-7572.231505328872 2953.2210482255205,-7625.908946613437 3426.6009130869256,-7633.243626615806 3898.919934094898,-7592.602684988377 4364.47419343847,-7502.892200303068 4817.269907814104,-7363.608590377056 5251.078842798022,-7174.886167025902 5659.500363986497,-6937.539997926646 6036.029797756778,-6653.103229965035 6374.132674105818,-6323.8580407680765 6667.3243222239535,-5952.859408644782 6909.25418742731,-5543.950926330233 7093.794137060902,-5101.7719310951 7215.12992431871,-4631.7552831609155 7267.854883991944,-4140.115196028818 7247.06484438294,-3633.824606219749 7148.453156473373,-3120.5816658102954 6968.404666387729,-2608.765048642452 6704.087391725038,-2107.377879627619 6353.540607897307,-1625.9802254198144 5915.758008629761,-1174.6102229889925 5390.764576601911,-763.694069191974 4779.685787113824,-403.94524804891023 4084.807770823101,-106.25353164885149 3309.627082063909,118.43554617664928 2458.888757934267,259.2498788202991 1538.611410958988,305.52760813304457 556.0981752597938,246.96038348136796 -480.0675768697089,73.74170398070311 -1560.0427141474859,-223.2811648274087 -2672.761850619172,-652.453354226491 -3805.9925482112726,-1221.1584246939492 -4946.40871551592,-1935.6661781696585 -6079.682507767306,-2800.984266976769 -7190.594823212805,-3820.715704130077 -8263.164266090458,-4996.924447464228 -9280.794207978668,-6330.011275223962 -10226.437329447677,-7818.6021914131525 -11082.77676506139,-9459.451593397145 -11832.422709467648,-11247.362400294827 -12458.123073443745,-13175.12527711873 -12942.98650943903,-15233.478995231259 -13270.715859698594,-17411.093843594204 -13425.849819966168,-19694.579846941124 -13394.010361714323,-22068.521356208337 -13162.153219619151,-24515.53935352269 -12718.81853244674,-27016.38255937402 -12054.378528555395,-29550.048144351113 -11161.278975736182,-32093.93253349164 -10034.270972953345,-34624.01244985023 -8670.629552439683,-37115.05597775774 -7070.355488120832,-39540.863038332485 -5236.356673839798,-41874.53426347347 -3174.6054454125942,-44088.76683364034 -894.2682769200137,-46156.175413468176 1592.1956138051432,-48049.63588234193 4268.970060872007,-49742.64911952723 7116.855251384849,-51209.72167072961 10113.281377399764,-52426.75970071995 13232.365172986762,-53371.47223090099 16445.01150686988,-54023.77927752525 19719.061786033228,-54366.2201520089 23019.490460957415,-54384.3568657467 26308.650411247556,-54067.16730435835 29546.567434540746,-53407.42260662198 32691.283465704797,-52402.043007527755 35699.24752219658,-51052.426288715644 38525.752710529814,-49364.742928487896 41125.41694433016,-47350.19206259524 43452.70432337277,-45025.21246055327 45462.483412914364,-42411.6428941812 47110.61795177186,-39536.826528470236 48354.58481476236,-36433.65430210079 49154.113369582905,-33140.5426873483 49471.83970965671,-29701.341727197145 49273.96862290915,-26165.169840641596 48530.935582073944,-22586.172563713117 47218.060525266286,-19023.203150897374 45316.18474648265,-15539.423795276642 42812.281844525656,-12201.827130708542 39700.033395433384,-9080.678649145646 35980.3598272251,-6248.881693088476 31661.896895487887,-3781.2677582103356 26761.408192105428,-1753.8159542229505 21304.124274501974,-242.80661179181914 15323.999285331543,676.0848226467858 8863.876347609697,928.7463073601559 1975.553571570802,443.63170271860486 -5280.25680069202,-847.2023059123931 -12834.082757792972,-3007.0354800381006 -20607.96606667099,-6093.4111232207915 -28515.85958054498,-10157.063559358025 -36464.15164916862,-15240.85939118426 -44352.31961583817,-21378.766662935406 -52073.712912484836,-28594.866650926917 -59516.464686035295,-36902.423462645405 -66564.52921864027,-46303.02692358146 -73098.84065594875,-56785.824357127196 -78998.58674788466,-68326.85680330651 -84142.58945376026,-80888.51496520026 -88410.78238822203,-94419.12970765698 -91685.7732082744,-108852.71125313269 -93854.47718773941,-124108.85031829943 -94809.806418552,-140092.7933087863 -94452.39734388742,-156695.70233700678 -92692.35769269126,-173795.10925117973 -89451.01237572344,-191255.57106689023 -84662.62654693644,-208929.5321835922 -78276.08285803221,-226658.39655801194 -70256.48896506656,-244273.81060852102 -60586.69060992992,-261599.1550564779 -49268.66512118433,-278451.24119285576 -36324.76998127562,-294642.2042149358 -21798.821211850234,-309981.5833354242 -5756.976754719057,-324278.5753550423 11711.599210872353,-337344.44534224697 30494.313960478677,-348995.07501580176 50454.987398455654,-359053.6264153156 71433.97634663375,-367353.295511523 93248.59937379247,-373740.127593682 115693.87702071198,-378075.86361903383 138543.59934721765,-380240.7842625637 161551.7294547843,-380136.5162086118 184454.14803858276,-377688.7633232915 206970.74011920724,-372849.92378146865 228807.82092492835,-365601.55303639045 249660.8934737197,-355956.6317540889 269217.7257792489,-343961.59752600157 287161.7308204504,-329698.0993563911 303175.6275190439,-313284.43462676543 316945.35601690743,-294876.6294937308 328164.21559329587,-274669.12550085335 336537.18867227796,-252895.03759447407 341785.40960828605,-229825.95173736857 343650.7323702126,-205771.23391504583 341900.34694190795,-181076.82652259077 336331.3902904476,-156123.51289270757 326775.49419506366,-131324.63605752616 313103.2091507492,-107123.26369889364 295228.24103164993,-83988.7975968634 273111.4352887626,-62413.03268788956 246764.44222938953,-42905.67803815304 216252.99644320362,-25989.359560227207 181699.7437576175,-12194.132081419328 143286.55027304112,-2051.536330029936 101256.2300889383,3911.7555456290347 55913.63131854058,5180.654265364139 7626.023928522355,1258.6679106914553 -43177.26215538601,-8324.850710003615 -96005.99436125271,-24007.298571238163 -150311.0290502409,-46185.340541030186 -205487.16843270685,-75207.43924856749 -260876.90520636667,-111366.49062973073 -315775.06775649084,-154892.66405366902 -369434.3684137861,-205946.5500196403 -421071.8461972397,-264612.72149187827 -469876.1837663482,-330893.81690586306 -515015.86607251444,-404705.2536327922 -555648.135549804,-485870.6801398769 -590928.6857501802,-574118.2731518726 -620022.0222496502,-669077.982735434 -642112.4065824326,-770279.8233373016 -656415.286063599,-877153.3023699388 -662189.0998086593,-989028.0699305823 -658747.339230381,-1105135.8636561013 -645470.7299735816,-1224613.8115703317 -621819.3918259741,-1346509.1431067637 -587344.8238070281,-1469785.344342779 -541701.5535762222,-1593329.7779395303 -484658.2837027433,-1715962.7714440185 -416108.3623804711,-1836448.1595993778 -336079.4030266867,-1953505.2472716197 -244741.87603089123,-2065822.1397040896 -142416.49686807243,-2172070.366244502 -29580.237989010257,-2270920.7026648056 93129.20254034607,-2361060.0759422854 224910.63466881932,-2441209.4141400387 364798.4607534323,-2510142.283082202 511663.746134098,-2566704.1311437776 664217.3956708373,-2609831.9439578964 821015.5378504492,-2638574.092485421 980467.1974146605,-2652110.1409988133 1140844.3144160383,-2649770.3664126354 1300294.1422986232,-2631054.727353471 1456854.0301902886,-2595651.010704315 1608468.565283715,-2543451.875374682 1753009.0202097956,-2474570.508015998 1888295.0179452586,-2389354.603582804 2012118.2933550545,-2288398.385271951 2122268.3962929766,-2172552.383664519 2216560.146647278,-2042930.7040286514 2292862.617227275,-1900915.523859273 2349129.3863739385,-1748158.5799362517 2383429.7690977342,-1586579.4255360262 2393980.7038744637,-1418360.2639451933 2379178.942452614,-1245937.194059055 2337633.1626413628,-1071987.7375113042 2268195.599557898,-899414.5543238833 2169992.7697142577,-731325.2952812633 2042454.8451074606,-571008.583854405 1885343.221616446,-421906.1681994739 1698775.8179567223,-287581.33414768643 1483249.6386212516,-171683.72273913762 1239660.1370288387,-77910.75023026777 969316.9238514146,-9965.884062659348 673955.380487847,28485.91559301739 355743.75912754197,33865.223068851265 17285.37896795545,2727.222317867595 -338384.4369882328,-68187.64467644297 -707806.9985102797,-181901.9821938937 -1087114.7237312014,-341149.2720693236 -1472051.6645402096,-548321.8506688483 -1858000.231410898,-805419.6899070852 -2240014.200192211,-1114000.6747999191 -2612858.0107595413,-1475133.0978585964 -2971052.2898057606,-1889351.11134553 -3308925.4480783455,-2356613.891297367 -3620671.1167666283,-2876269.271591797 -3900411.0993347107,-3447022.601566751 -4142263.424792848,-4066911.566241601 -4340414.9971989365,-4733287.68357007 -4489198.2451572465,-5442805.158000038 -4583171.085377697,-6191417.723658133 -4617199.42717976,-6974384.05356465 -4586541.361424961,-7786282.243392216 -4486932.099030317,-8621033.799517669 -4314668.652267671,-9471937.471734269 -4066693.1878109793,-10331713.171390833 -3740673.925272828,-11192556.106457971 -3335082.410061921,-12046201.146806674 -2849265.956046284,-12883997.306687756 -2283514.032909487,-13696992.098052936 -1639117.3663515635,-14476025.369148562 -918418.5274232607,-15211832.099078037 -124852.81118727631,-15895153.472255532 737021.7546683439,-16516855.40848197 1661506.3730772242,-17068053.576517835 2641756.4393910603,-17540243.77336099 3669790.4354871134,-17925436.409927268 4736513.579181734,-18216293.7085116 5831756.923521627,-18406268.0903781 6944332.454859503,-18489740.11522201 8062104.576372517,-18462154.230219346 9172078.185756246,-18320150.49705909 10260503.363389337,-18061690.39284364 11312996.481735155,-17686174.727067184 12314677.329807566,-17194551.683972165 13250321.620111736,-16589412.989237376 14104528.011762554,-15875076.213814167 14861898.544897169,-15057651.267239464 15507231.14068062,-14145089.199151713 16025722.580997692,-13147211.521987638 16403180.145360611,-12075718.390636293 16626239.852827264,-10944174.126564724 16682589.037134575,-9767968.754644213 16561190.777216425,-8564254.430303866 16252507.516267708,-7351855.872026315 15748721.03402481,-6151154.1785035655 15043945.792433456,-4983943.699505714 14134432.557764472,-3873261.9427766227 13018759.115815228,-2843192.8337416104 11698004.844225215,-1918643.9977500625 10175905.8900596,-1125099.102827828 8458987.724330809,-488346.6809249915 6556671.910384561,-34187.23347473909 4481354.0320515465,211879.18157298703 2248449.8817371866,224982.29384519873 -123592.79069952459,-18775.07582156177 -2613319.4197278796,-541963.0967618073 -5196332.813250516,-1365464.0957717602 -7845398.204332076,-2508108.845387382 -10530590.59404258,-3986314.3146015913 -13219485.383417724,-5813727.496367599 -15877392.820799971,-8000880.160014151 -18467636.28094319,-10554859.565833734 -20951873.84802369,-13479000.318251077 -23290462.10058373,-16772602.618067106 -25442860.397556853,-20430682.198550485 -27368073.34671046,-24443757.190333046 -29025128.506482143,-28797677.052338008 -30373585.736294914,-33473498.527133517 -31374073.97655299,-38447413.32662047 -31988850.615661543,-43690731.926039286 -32182377.99601451,-49169927.4399453 -31921911.032719545,-54846743.07296368 -31178089.376901437,-60678366.08166334 -29925527.058902454,-66617670.553624704 -28143392.104810275,-72613530.60863383 -25815968.241638992,-78611204.85888158 -22933190.501147367,-84552792.13516094 -19491146.308366563,-90377757.6005094 -15492533.506676795,-96023527.43885323 -10947066.734380746,-101426149.33231649 -5871823.635162821,-106521014.93643714 -291522.5627376939,-111243639.53800863 5761276.266431836,-115530493.04705517 12246053.805135706,-119319875.44480488 19114306.48895729,-122552828.79653133 26309618.26802921,-125174076.9554584 33767836.009244725,-127132983.14587104 41417353.013892904,-128384514.73477164 49179504.36859773,-128890203.69678666 56969076.705347516,-128619090.56153077 64694933.695748,-127548639.02115214 72260757.25374985,-125665607.88288736 79565902.98006265,-122966866.69122219 86506366.86216141,-119460141.1300425 92975858.65989357,-115164674.25944728 98866975.77355404,-110111789.75593667 104072469.72596268,-104345343.6184939 108486595.7110927,-97922051.28499551 112006533.9891371,-90911677.78002566 114533870.2628123,-83397079.39118132 115976120.57445562,-75474086.44874865 116248284.7413295,-67251218.0633799 115274410.92122395,-58849221.15562231 112989152.59632242,-50400427.78492182 109339298.104505,-42047926.64611419 104285251.85818702,-33944546.63792983 97802445.59485908,-26251652.606996067 89882657.42379808,-19137755.715877626 80535216.09137203,-12776943.35534387 69788067.80345975,-7347136.0971425325 57688683.135717094,-3028181.838925528 44304782.04723973,199.99999994574253" stroke="white" stroke-width="1.5" /><circle cx="180.69113542661592" cy="246.1212288310569" fill="red" opacity="0.7" r="6.986693307950612" /></svg>