<?xml version="1.0" encoding="utf-8" ?>
<svg baseProfile="full" height="400" version="1.1" width="400" xmlns="http://www.w3.org/2000/svg" xmlns:ev="http://www.w3.org/2001/xml-events" xmlns:xlink="http://www.w3.org/1999/xlink"><defs /><rect fill="black" height="100%" width="100%" x="0" y="0" /><circle cx="200" cy="200" fill="yellow" r="10.0001669824915" stroke="orange" stroke-width="2" /><polyline fill="none" points="199.74748083184267,200.0 199.66105110481124,199.9822067313488 199.57156840173664,199.95489429543912 199.47989265310025,199.91748327058176 199.3869670589,199.86947177886083 199.2938118790211,199.81044661753938 199.20151684731528,199.74009402278097 199.1112322115243,199.65820990682496 199.02415841841912,199.56470940565293 198.94153448167586,199.4596355718355 198.86462508890787,199.3431670467997 198.79470652373547,199.21562454833892 198.7330514985954,199.07747601291894 198.68091301395157,198.92934023830753 198.63950737942397,198.77198888035502 198.6099965518526,198.60634666842154 198.59346996419134,198.4334897170197 198.59092603710508,198.25464182671013 198.60325358193785,198.0711686851212 198.63121331904637,197.8845698991052 198.6754197490549,197.6964688113847 198.7363236261069,197.50860007946648 198.81419529137773,197.3227950209311 198.90910913170507,197.14096475725157 199.02092943193344,196.96508121781636 199.1492978902167,196.79715609656392 199.293623062864,196.63921788527495 199.45307199916172,196.49328713978414 199.6265643168001,196.361350167801 199.8127689549516,196.24533135928067 200.01010382461155,196.14706441194886 200.2167385544728,196.0682627352246 200.43060050537127,196.01048934495225 200.64938419726326,195.97512658858855 200.87056425987873,195.96334606532199 201.09141198179984,195.9760791275618 201.30901549294856,196.01398836885662 201.52030357260583,196.0774405181322 201.72207302944864,196.16648117073666 201.9110195520651,196.28081179273283 202.08377187842785,196.41976943579854 202.2369290813626,196.5823095956346 202.36710071468713,196.76699263663548 202.4709495119991,196.97197418949227 202.54523627770186,197.19499990617538 202.58686655843817,197.43340492824842 202.59293863336453,197.68411838963374 202.5607923143714,197.94367323378677 202.4880580031877,198.20822157783468 202.37270541206308,198.473555802763 202.21309131916308,198.7351354894509 202.00800569969266,198.9881202556121 201.75671554982773,199.2274084789301 201.4590057034882,199.44768181741915 201.115215932507,199.64345535991382 200.72627361946118,199.80913315830986 200.2937212998974,199.93906880953887 199.8197383873997,200.02763067015033 199.3071564213219,200.06927120074874 198.759467213363,200.05859985242898 198.18082331571156,199.99045882385687 197.5760302903347,199.86000093690572 196.95053032611662,199.66276880196844 196.31037682781596,199.39477437244136 195.66219968792853,199.05257792265488 195.01316104908759,198.63336542594922 194.37090147003772,198.1350232608876 193.7434765217652,197.55620913496602 193.1392839611851,196.89641808777088 192.5669817568644,196.1560424204492 192.03539737343183,195.3364243966005 191.55342885729218,194.4399005721907 191.12993840458475,193.4698366396275 190.7736392314393,192.43065171438315 190.492976704813,191.32783105202498 190.296004827757,190.16792625955833 190.19025930399874,188.9585421577663 190.18262853129986,187.7083095607132 190.27922398918017,186.4268433645189 190.48525159227228,185.12468547944516 190.80488567377628,183.81323229656877 191.2411473422237,182.5046465519181 191.79578901708686,181.21175363574562 192.46918699280837,179.94792259118506 193.26024390480458,178.72693225324315 194.1663029732723,177.56282319400265 195.18307587972052,176.46973636095288 196.30458608576302,175.46173952016315 197.52312933277176,174.55264284204122 198.82925296367242,173.7558051919328 200.21175558390965,173.08393290793086 201.6577084271598,172.54887306094022 203.15249961278593,172.16140339413906 204.6799022767197,171.93102132727202 206.22216732617997,171.86573458243234 207.76014131253558,171.97185613887035 209.27340963721662,172.25380635166076 210.740465004786,172.71392516961066 212.13890071741145,173.35229745855017 213.44562806873225,174.16659447424146 214.6371167455742,175.15193453191225 215.689656786597,176.30076588445797 216.5796402815654,177.60277474657977 217.28386062766447,179.04482128578968 217.77982679457622,180.61090624198496 218.04608969260062,182.2821706342814 218.06257739288145,184.03693076658934 217.81093562089177,185.8507504521329 217.27486963898798,187.69655204242522 216.4404833563636,189.54476746937382 215.29661126044266,191.36353009206712 213.83513855790986,193.1189076848763 212.05130475131537,194.7751764139224 209.94398576345554,196.29513512847763 207.51594966118031,197.64045874689376 204.77408102722714,198.7720889482144 201.72956908702665,199.6506597963596 198.39805482054027,200.2369553298832 194.79973247989452,200.4923955535365 190.95940119401484,200.3795466754585 186.9064626730711,199.8626508534113 182.67486142896195,198.90817015311916 178.302964403085,197.48533888975666 173.83337743814107,195.56671802848984 169.31269664464622,193.1287448703256 164.79119339211485,190.1522708540152 160.32243239546048,186.62307997192974 155.96282316392677,182.5323800360159 151.77110592666875,177.8772588471695 147.8077740387572,172.66109722518735 144.1344357956903,166.89393085388159 140.8131195342868,160.59275299325887 137.9055268629882,153.78175031336076 135.47223983414264,146.4924644169667 133.57188883301257,138.76387204434826 132.26028890057142,130.64237749492958 131.589553116589,122.18171145905661 131.6071925325242,113.44273122773716 132.355212946513,104.49311813733456 133.8692195412263,95.40696910638445 136.17754104554584,86.26428022794742 139.30038561898584,77.15032158656582 143.24904108003452,68.15490376559589 148.0251323931012,59.371537888424854 153.61994948125465,50.89649248412712 160.01385843208922,42.82775197111769 167.17580900164754,35.26388309635536 175.0629509874948,28.302817236193533 183.62037152945558,22.040558040174687 192.7809646995909,16.56982546179441 202.4654438580311,11.978648750215086 212.58250617671177,8.348922452883642 223.02915746955148,5.754940879009808 233.6912040182154,4.261927775387335 244.4439164529294,3.9245791463075648 255.1528689460259,4.785638185506599 265.6749550129043,6.874522157680673 275.8595791045154,10.206021748095253 285.55002093367796,14.779093870125962 294.58496712362603,20.575769162272763 302.8002023229314,27.560195399904018 310.0304494207061,35.67783777619246 316.111345946575,44.85485645702812 320.88154118040774,54.99768097431422 324.18489595837707,65.99279988194624 325.8727646775607,77.70678265304119 325.8063366055518,89.98654904314611 323.85901133012123,102.65989908340438 319.91878107348214,115.53631450502716 313.8905906831538,128.4080397411537 305.6986444338834,141.05144771763838 295.288627369149,153.22869244832958 282.62980781212445,164.68964701523106 267.71698691888804,175.17412186627104 250.57226076339109,184.41435453439976 231.24656046406918,192.13775790687504 209.8209363127757,198.06991009255125 186.40755277114155,201.9377647914236 161.15036257667103,203.47305691194407 134.2254300653659,202.41587405844646 105.84087617893759,198.5183604770517 76.23642048651898,191.54851615984785 45.6824989112439,181.29405012204256 14.47893970265008,167.56624344464788 -17.04681547846954,150.20377457626034 -48.54195371739871,129.0764566718272 -79.63099939691449,104.08883447340614 -109.91898670432118,75.18358646575109 -138.99508772120174,42.34467682367071 -166.43668149526036,5.600201060893141 -191.8138430304652,-34.97513066005058 -214.69422449774117,-79.25792784730436 -234.64829423471588,-127.07452543078335 -251.25489234673654,-178.19991249028328 -264.10705502490504,-232.35723245678798 -272.81805314768627,-289.2178994266242 -277.02758442199394,-348.4023705580838 -276.4080523420351,-409.4816090402454 -270.6708596963143,-471.9792658479304 -259.5726393328073,-535.3746014497808 -242.92134049722898,-599.106160854365 -220.58208538609455,-662.5762069095985 -192.4827076989519,-725.1559076729488 -158.61888302292203,-786.191264014902 -119.05875992249992,-845.009753488976 -73.94700071680182,-900.9276559921936 -23.508142175245354,-953.2580159558972 31.95081118803833,-1001.3191848636948 92.038644841119,-1044.4438769167643 156.27912161483007,-1081.9886597909426 224.11117106924033,-1113.3437917971314 294.89014555640904,-1137.9433065150838 367.89019875236534,-1155.2752362741492 442.3078322013405,-1164.8918568603262 517.2666439336026,-1166.419827695861 591.8233005437531,-1159.5700946244142 664.9747403269453,-1144.1474164985382 735.6666002627954,-1120.0593721592534 802.8028439271482,-1087.3247012665063 865.2565509350164,-1046.0808309218837 921.8818114277165,-996.5904402481233 971.5266515849532,-939.2469171676239 1013.0468983568556,-874.5785656525445 1045.3208737759887,-803.2514277829283 1067.264791543815,-726.0705931073725 1077.8487113209849,-643.9798780918331 1076.1128895278314,-558.0597708810594 1061.1843497303457,-469.5235511730806 1032.293481103136,-379.71151168178585 988.7904602826436,-290.0832263693213 930.1612804094259,-202.20783127188434 856.0431615620593,-117.75230619259628 766.2391093552835,-38.467769635211795 660.7313834486984,33.82617508681221 539.6936353132733,97.25897783002726 403.50147503690266,149.92847116202043 252.7412304015922,189.92187043383976 88.21666809270769,215.3382944475394 -89.04654316458567,224.3126278048194 -277.7988344071536,215.04051732931518 -476.56739323340344,185.80426692196593 -683.6596453636272,134.99936822899423 -897.1697069573158,61.16137898154969 -1114.987926508322,-37.00716277982454 -1334.813604665514,-160.61012173433227 -1554.1709467133387,-310.5317973401347 -1770.4282659014789,-487.41197221098844 -1980.8204165937495,-691.6223560790587 -2182.4743946223302,-923.2448126790873 -2372.43799864341,-1182.0517606780888 -2547.711401102172,-1467.4891389527047 -2705.2814310837184,-1778.6623207845003 -2842.15832435257,-2114.325350645006 -2955.4146488066754,-2472.873860965372 -3042.226066973127,-2852.3420044743857 -3099.913551661936,-3250.4037102420807 -3125.9866271113265,-3664.3785384494754 -3118.1871665634394,-4091.2423701501775 -3074.5332388774173,-4527.643124000742 -2993.3624622001826,-4969.921642294651 -2873.3742925548013,-5414.137833898604 -2713.670650143442,-5856.102102198864 -2513.79426685027,-6291.412022341727 -2273.7641254944647,-6715.494164399814 -1994.1073554127302,-7123.65088819921 -1675.8869504849356,-7511.111862067434 -1320.7246852401252,-7873.089982449026 -930.8186226082812,-8204.841294998849 -508.9546335574844,-8501.728441284218 -58.511384529047405,-8759.287079546759 416.54170658547116,-8973.294654089317 911.6539911362972,-9139.840816802047 1421.710969083777,-9255.398737197254 1941.0598368607305,-9316.896475183155 2463.5434326675518,-9321.78753478069 2982.542718994415,-9268.119668179947 3491.0278453103906,-9154.60095903599 3981.6177299839533,-8980.662182778009 4446.647990423222,-8746.514420964346 4878.246935104378,-8453.200897315077 5268.419211673544,-8102.64200586767 5609.136582870211,-7697.672517514182 5892.435177954297,-7242.069980664985 6110.518443057522,-6740.5733754914445 6255.864890956544,-6198.891139538674 6321.339630799107,-5623.697755723627 6300.308542994892,-5022.618181928196 6186.753855556509,-4404.199504468675 5975.389777426222,-3777.8693153858835 5661.776753551193,-3153.8804452668637 5242.432827471612,-2543.2418284869113 4714.940531734557,-1957.635435439955 4078.04767626137,-1409.3193753832263 3331.7603715266546,-911.0174526173503 2477.4266085976938,-475.7956462995197 1517.8087231558402,-116.92617848045552 457.14309684465076,152.2599660019503 -698.8145022471897,318.5310025061213 -1942.7594665692213,368.92152529127424 -3265.826214783691,290.9074351345879 -4657.5946877871465,72.58695427183476 -6106.116642843623,-297.1341200883135 -7597.962745533951,-828.3549491275401 -9118.291267479728,-1529.9921614538132 -10650.938983157332,-2409.594673664888 -12178.53462272024,-3473.1632861499816 -13682.634981077788,-4724.977623615167 -15143.883508372419,-6167.433070717759 -16542.19091564096,-7800.890406547553 -17856.937024377374,-9623.540864988296 -19067.19277280859,-11631.28933893067 -20151.96096815922,-13817.658402832483 -21090.434046525177,-16173.715748469142 -21862.266774003274,-18688.027511456246 -22447.861498493137,-21346.639810197095 -22828.663245380325,-24133.090623659456 -22987.461646599408,-27028.45389961499 -22908.69640597872,-30011.41751095664 -22578.762738992096,-33058.39636522067 -21986.312986846955,-36143.68162279516 -21122.55039796499,-39239.62659435776 -19981.510899030447,-42316.86947027355 -18560.32854743085,-45344.59258699808 -16859.48027143281,-48290.817461542414 -14883.005467885503,-51122.73432889476 -12638.69604336357,-53807.06440364971 -10138.25255677427,-56310.45256119237 -7397.402252413215,-58599.88760133552 -4435.974964572537,-60643.14672450355 -1277.9331297914225,-62409.26032400654 2048.6475382723356,-63868.992684610086 5511.649773262236,-64995.33368476087 9075.041494892213,-65763.99613498268 12699.05966779254,-66153.91295575375 16340.452816534444,-66147.72801236491 19952.783106033403,-65732.27408952208 23486.788216335797,-64899.03121240228 26890.802512187318,-63644.558310846485 30111.23623658905,-61970.89108642297 33093.11065051097,-59885.89888481841 35780.6462056887,-57403.593404452404 38117.89998248116,-54544.382191759694 40049.447759432434,-51335.26008885978 41521.10521552416,-47809.93211405972 42480.68191087739,-44008.86167256872 42878.76085820349,-39979.238515601115 42669.495697432925,-35774.86149117681 41811.41673187371,-31455.931858617078 40268.23638841764,-27088.75376884766 38009.64403927127,-22745.33944062081 35012.07958096456,-18502.91758367376 31259.474720302267,-14443.34472717284 26743.950578418797,-10652.420297560424 21466.46000460115,-7219.107544633724 15437.362901755516,-4234.6637273479 8676.922915113408,-1791.6843290021557 1215.7140337211688,16.932538713781554 -6905.073992073807,1099.0939770195182 -15633.441998555081,1364.683414497403 -24906.509421860424,726.7846334872737 -34650.57302603763,-897.0530059686039 -44781.3043756158,-3583.521157133897 -55204.0928943238,-7402.245128251605 -65814.53999885797,-12414.4779386653 -76499.10828499793,-18671.812165701118 -87135.92808104758,-26214.92683527869 -97595.76188112976,-35072.38732999407 -107743.12524132944,-45259.516833908645 -117437.56068054197,-56777.35818495751 -126535.05899306822,-69611.74514640546 -134889.6201717937,-83732.50202224223 -142354.94388173535,-99092.79021368638 -148786.23713854695,-115628.61973298482 -154042.12456192792,-133258.54284672966 -157986.64431821293,-151883.54590683422 -160491.31066975888,-171387.15403890022 -161437.22194236773,-191635.76169387042 -160717.1907381205,-212479.20013183416 -158237.8713925543,-233751.5507024485 -153921.85803525196,-255272.21032417836 -147709.72519462815,-276847.2128578147 -139561.98172352597,-298270.80713573494 -129460.90794362655,-319327.2892685328 -117412.24534373671,-339793.08353012067 -103446.70794784873,-359439.0626504606 -87621.28461924825,-378033.09475475585 -70020.30210975693,-395342.8005159931 -50756.21961794444,-411138.50037432543 -29970.127002571604,-425196.3279654025 -7831.920619065396,-437301.48223669577 15459.866985778126,-447251.58716489124 39678.60457074694,-454860.1245694399 64570.48478007074,-459959.9022998251 89855.84610465691,-462406.51711039635 115230.9045118756,-462081.7688806896 140369.90062311298,-458896.98054463445 164927.6635419749,-452796.1762116683 188542.58732604136,-443759.068547677 210840.01069269175,-431803.8055827014 231435.9849023329,-416989.4267710031 249941.40892423972,-399417.97838921327 265966.5050210186,-379236.2392569312 279125.6018528613,-356637.00933281385 289042.18617298856,-331859.91600334685 295354.17823633575,-305191.6958595272 297719.3802539859,-276965.9134592762 295821.0416788261,-247562.08300321433 289373.4798887158,-217404.16400183772 278127.6900288707,-186958.40786751374 261876.8734728319,-156730.53889934014 240461.81064842254,-127262.26030704673 213776.0009371376,-99127.08369551631 181770.49007550575,-72925.48874749136 144458.30404422735,-49279.42863134652 101918.4078993239,-28826.20584580814 54299.10844679779,-12211.752706444793 1820.8211483895318,-83.360382171038 -55221.875778011025,6918.08980272181 -116458.97339290223,8166.3292893973 -181444.61866695056,3058.2662542541475 -249657.61812735072,-8977.171945615362 -320502.91370981664,-28470.009426435412 -393314.0776104423,-55900.105572164255 -467356.86339036893,-91688.05979875657 -541833.8399424487,-136186.2520866597 -615890.123241529,-189670.14008776945 -688620.2081440064,-252329.93852068274 -759075.8889705444,-324262.81024073885 -826275.2433080211,-405465.70068062644 -889212.6385294406,-495828.9481833565 -946869.7050965056,-595130.8019821797 -998227.2049379506,-703032.9771249805 -1042277.7072607712,-819077.3714106561 -1078038.9682385959,-942684.0633362061 -1104567.8953310987,-1073150.702097935 -1120974.9617307244,-1209653.3908210318 -1126438.9218267037,-1351249.1524033223 -1120221.6648468548,-1496880.0536693565 -1101683.0312145797,-1645379.0479833146 -1070295.404872664,-1795477.5791321981 -1025657.8851071827,-1945814.9702604893 -967509.8334798517,-2094949.6010372785 -895743.5855640859,-2241371.8542176913 -810416.1134873063,-2383518.7895013853 -711759.4240043509,-2519790.4782983516 -600189.4781416288,-2648567.907918875 -476313.4225164181,-2768232.338069198 -340934.92938398616,-2877185.966639778 -195057.4524036094,-2973873.735923547 -39885.21811985339,-3056806.084922127 123178.21072879223,-3124582.428630458 292533.9447278486,-3175915.1214900496 466394.47246339486,-3209653.6399348862 642793.1573503339,-3224808.698494983 819596.5953630147,-3220575.9956457084 994519.871428782,-3196359.269870635 1165144.718710267,-3151792.3336078385 1328940.5491681746,-3086759.7432300188 1483288.2859555897,-3001415.757304789 1625506.8886834192,-2896201.233409135 1752882.4217943305,-2771858.116019269 1862699.474610357,-2629441.1747181197 1952274.6995375254,-2470326.6633740216 2018992.1929155306,-2296217.587217967 2060340.4016196618,-2109145.286005905 2073950.1983119266,-1911467.0677668925 2057633.7297774665,-1705859.659018674 2009423.6066660248,-1495308.273727977 1927611.9697932228,-1283091.144587213 1810788.9385528255,-1072759.4061864568 1657879.9215556262,-868112.2701227978 1468181.2489388909,-673167.4866793624 1241393.5704586876,-492127.14602070674 977652.4540339992,-329338.93341380236 677555.6163684175,-189253.01724637244 342186.2210988701,-76374.81495824124 -26868.30897659948,4786.050259315577 -427502.5003086616,49770.220755547176 -857084.5657238709,54226.05423845335 -1312454.1436061126,13969.535450105386 -1789926.4695131038,-74953.93224883823 -2285303.35942025,-216206.49974646512 -2793891.3244511317,-413094.3124385451 -3310527.069667776,-668504.1745778467 -3829610.5545594697,-984841.2423603307 -4345145.710706211,-1363968.5915455413 -4850788.823239738,-1807149.5387952996 -5339904.4878388,-2314993.620602246 -5805628.954852616,-2887407.1487783017 -6240940.567640495,-3523549.266152563 -6638736.894354481,-4221794.419632548 -6991918.042293322,-4979702.1494448045 -7293475.532838665,-5793995.062625188 -7536586.004163313,-6660545.815227531 -7714708.899775028,-7574373.870943559 -7821687.19499806,-8529652.733700275 -7851850.112229211,-9519728.268302113 -7800116.68081046,-10537148.626458053 -7662098.910236246,-11573706.18589406 -7434203.267773486,-12620491.78820044 -7113729.085015054,-13667961.427286122 -6698962.463986152,-14706015.395689981 -6189264.213691779,-15724089.741603736 -5585150.323880458,-16711259.726555917 -4888363.475645935,-17656354.80375501 -4101934.0995239336,-18548084.46172872 -3230229.522042182,-19375174.09894561 -2278989.7921653828,-20126509.91455424 -1255348.8504645498,-20791291.62035901 -167839.79664470852,-21359191.601948656 973616.874433762,-21820518.984893106 2157743.0618779054,-22166386.89762157 3371951.7089544125,-22388881.068539392 4602414.971600905,-22481227.753746193 5834152.363686184,-22437958.865994286 7051139.119609757,-22255072.067878723 8236434.779406888,-21930183.505224094 9372331.750269616,-21462670.792700388 10440523.333369417,-20853803.825191587 11422290.428450646,-20106860.977549344 12298705.843529886,-19227228.274068315 13050854.84614875,-18222479.15907255 13660070.29921866,-17102432.582877737 14108180.432050165,-15879187.234265931 14377767.009373616,-14567129.90229111 14452431.381930484,-13182916.13718021 14317065.63558832,-11745421.602335555 13958125.806068905,-10275662.76657892 13363903.897511646,-8796685.876953283 12524795.239472542,-7333423.476256928 11433557.54281034,-5912518.084203211 10085557.874374542,-4562113.044320864 8479003.667483423,-3311610.947580523 6615153.823667086,-2191400.4748853426 4498505.94458411,-1232552.950123261 2136955.764622534,-466490.3590892002 -458075.06270388304,75372.93758084768 -3271546.535465713,362012.09252875304 -6284746.750777182,363194.080824438 -9475280.50079564,49896.78276972682 -12817102.983899672,-605259.2603153074 -16280601.235189844,-1627570.9506453865 -19832725.461288765,-3039809.537427631 -23437171.989996415,-4861779.628748249 -27054619.01788152,-7109885.951177193 -30643015.761374626,-9796713.778088845 -34157924.99319742,-12930629.174626855 -37552918.280689746,-16515405.37290193 -40780022.5412668,-20549881.689237583 -43790215.79917043,-25027661.420334432 -46533969.27396321,-29936855.101890042 -48961832.16273442,-35259875.37692178 -51025054.7032751,-40973289.49789672 -52676244.33380194,-47047735.173783354 -53870049.005936556,-53447905.068142 -54563860.9718851,-60132604.75625726 -54718533.66482218,-67054888.35804948 -54299103.634350225,-74162275.38019258 -53275508.89776362,-81397051.52785687 -51623294.533916175,-88696655.38738436 -49324295.89093193,-95994151.94093671 -46367289.41270359,-103218792.85896043 -42748600.8226517,-110296662.43383324 -38472660.24655372,-117151406.87723325 -33552493.81870868,-123705043.51490037 -28010141.40571718,-129878845.18709715 -21876990.307166256,-135594293.91406092 -15194015.158734988,-140774096.6269661 -8011914.775603586,-145343254.51145452 -391137.33595570526,-149230176.27854756 7598213.882401717,-152367824.48350346 15876601.03469767,-154694882.87430608 24355404.21947032,-156156931.68588582 32937410.415095117,-156707616.8219857 41517441.89179155,-156309798.0020965 49983125.61726437,-154936660.21415505 58215803.52160005,-152572772.22248313 66091581.725527436,-149215075.45181048 73482514.98021017,-144873786.3184324 80257920.63317136,-139573195.02364796 86285814.44261552,-133352343.97635227 91434458.53210938,-126265569.38292249 95574009.73212084,-118382890.14361365 98578254.51859125,-109790229.03323644 100326414.75763305,-100589452.22567263 100705006.52668478,-90898214.54936063 99609732.43449925,-80849599.43445842 96947386.13404088,-70591544.32860737 92637746.14350149,-60286044.41101248 86615434.69055212,-50108129.71393578 78831716.10336316,-40244613.25379332 69256208.3172745,-30892610.46386133 57878480.37640699,-22257833.08712489 44709508.41089273,-14552663.706953932 29782962.487672396,-7994020.237992623 13156296.987640845,-2801022.938933552 -5088382.225701374,807520.1910020699 -24843699.595251452,2615790.4462369382 -45976664.99381323,2413775.386103174 -68328624.79178149,200.00000008367869" stroke="white" stroke-width="1.5" /></svg>