<?xml version="1.0" encoding="utf-8" ?>
<svg baseProfile="full" height="400" version="1.1" width="400" xmlns="http://www.w3.org/2000/svg" xmlns:ev="http://www.w3.org/2001/xml-events" xmlns:xlink="http://www.w3.org/1999/xlink"><defs /><rect fill="black" height="100%" width="100%" x="0" y="0" /><circle cx="200" cy="200" fill="yellow" r="20" stroke="orange" stroke-width="2" /><polyline fill="none" points="198.89084151314276,200.0 198.88202640603743,199.9413114933116 198.8800241873595,199.88208783309852 198.88510176642558,199.8231177536385 198.89744879384511,199.76524255385687 198.91716989513097,199.70934924716153 198.94427743422693,199.6563626869185 198.97868493221532,199.60723669702534 199.0202012666989,199.56294425139353 199.0685257760361,199.5244667609209 199.12324438965868,199.49278254156462 199.18382690104877,199.46885455224768 199.24962549353307,199.45361750636084 199.31987462083617,199.44796447536947 199.39369233429866,199.45273311729395 199.47008313681312,199.46869167639525 199.5479424298897,199.49652491304977 199.6260626048804,199.53682013431725 199.70314081234355,199.59005350587856 199.77778842491765,199.65657683462484 199.84854218902277,199.7366050180074 199.91387703937158,199.83020436110178 199.97222052783147,199.93728196501095 200.02196879483574,200.05757639054607 200.06150398753041,200.19064979892497 200.0892130044123,200.3358817663705 200.10350742164488,200.49246496185987 200.10284443182275,200.65940286677886 200.08574860201048,200.83550970181307 200.05083423473488,201.01941271002715 199.99682809360388,201.20955692575694 199.92259223470907,201.40421253670178 199.8271466662987,201.60148492154525 199.70969154273922,201.7993274176691 199.56962858486753,201.99555684322416 199.40658140781875,202.18787176519106 199.22041442962498,202.37387347034903 199.01125002963457,202.55108955957112 198.7794836253851,202.71700004790654 198.52579634024315,202.86906581387552 198.25116494212514,203.0047592017004 197.95686874612534,203.12159654027698 197.64449319105077,203.21717230303602 197.31592982179012,203.28919459396732 196.97337243617562,203.33552160751262 196.6193091865208,203.3541986743337 196.25651046226022,203.34349547169987 195.88801242094763,203.30194294698876 195.51709608008343,203.22836947613592 195.14726193157418,203.1219357563731 194.78220009373464,202.98216791482298 194.42575607222437,202.8089883020037 194.08189226068214,202.60274343255142 193.75464537354497,202.36422853496026 193.44808006699773,202.09470817829356 193.1662390685241,201.7959324570043 192.91309020038926,201.47014823552706 192.692470746791,201.1201049824015 192.50802967754245,200.74905475951854 192.36316830212013,200.3607459757142 192.2609799858264,199.95941056535736 192.20418961374872,199.549744311662 192.1950935372119,199.13688010098542 192.2355007805741,198.72635396801945 192.3266763225856,198.32406387210438 192.46928729520025,197.93622123133937 192.66335296283464,197.56929533306945 192.90819935578423,197.22995083591277 193.20241943206432,196.9249786788713 193.5438396316643,196.66122081624403 193.92949366548407,196.44548930194034 194.35560434756638,196.28448035218176 194.81757423327008,196.1846841202047 195.30998576748988,196.15229101908324 195.82661157580864,196.19309552776278 196.36043544760028,196.31239850936362 196.90368446378727,196.51490915827347 197.44787261355415,196.80464777197923 197.98385612437306,197.18485061346018 198.50190059892157,197.65787818877087 198.9917599117743,198.22512831071032 199.44276666920953,198.8869553517862 199.84393387835917,199.64259710670427 200.184067308695,200.49011068510927 200.45188786110216,201.4263188381574 200.6361630893305,202.44676808674862 200.72584684737342,203.5456999640834 200.71022586637943,204.7160366100248 200.57907189825448,205.94938185912994 200.3227979024694,207.2360388479956 199.93261660013312,208.5650450307967 199.40069957757115,209.924225334918 198.72033499294116,211.3002640119804 197.8860818262984,212.67879554423354 196.8939185184464,214.04451475339394 195.74138376926402,215.3813060300328 194.42770721428383,216.67239135832352 192.95392767127956,217.90049655542197 191.3229966485023,219.04803487932148 189.53986483479267,220.0973068863511 187.61154935065258,221.03071514246392 185.54717962978356,221.83099211425932 183.35801992357585,222.4814392896714 181.0574665772143,222.96617530802283 178.66101841573624,223.27039061843163 176.18621880141188,223.3806059382573 173.6525681796846,223.28493155334613 171.08140621861742,222.97332429331934 168.49576296489954,222.43783883205998 165.92017878605003,221.67286980988285 163.3804932411112,220.6753811534945 160.9036034179586,219.44511888649689 158.51719269100087,217.9848036803745 156.24943128465242,216.30029939687788 154.12865047123657,214.40075392040026 152.18299268218252,212.2987086758693 150.4400402633801,210.01017337593873 148.92642605384748,207.55466274245748 147.66742940562307,204.95519220235883 146.68656168591974,202.23822986769136 146.00514570376117,199.43360247329676 145.641893876099,196.57435336273704 145.61249028624601,193.69655108186276 145.92918208380837,190.8390476575273 146.60038592369523,188.04318620324685 147.63031533592462,185.35245810015755 149.01863505178073,182.81211064570982 150.76014837970467,180.4687067386725 152.84452372085423,178.36963887092662 155.25606623481679,176.56260041720833 157.97354050639933,175.0950179456998 160.97004982137247,174.01344900681204 164.21297732994103,173.36295058568876 167.66399395987924,173.18642411641574 171.27913743602372,173.52394364272723 175.00896616950828,174.4120743608942 178.79879110025234,175.8831893849614 182.58898781242502,177.96479312194123 186.3153903987873,180.67886012433905 189.90976763110007,184.04119868898218 193.30038100658837,188.06084878431332 196.412623192466,192.73952410328306 199.16973429071578,198.0711081464706 201.49359220389783,204.0412142315512 203.3055722111337,210.6268191930457 204.52746967414237,217.7959802737908 205.08247859989393,225.50764431130756 204.8962176036717,233.71155778405904 203.89779365951892,242.34828560183323 202.0208929103121,251.34934570005012 199.20488675374042,260.6374655303317 195.39594044035235,270.12696543163287 190.54811053282157,279.7242726219848 184.6244167989642,289.3285681768076 177.59787346185362,298.8325678641942 169.45246422523965,308.1234361010506 160.1840451473249,317.0838305890001 149.80115926577383,325.59307340021155 138.32574689548244,333.52844242735864 125.79373574052018,340.7665752074099 112.2554953935162,347.18497519629034 97.77614144842542,352.66360863281477 82.43567533273777,357.0865782093965 66.32894707707555,360.3438578889555 49.56542958544867,362.33307139841713 32.268794547095524,362.96129521636044 14.576281936771977,362.1468652834632 -3.362142922632131,359.82116522748424 -21.3848485235537,355.93037263768997 -39.31981391705233,350.4371388745321 -56.98612177518254,343.32217708602377 -74.19566373780305,334.5857325484708 -90.75505109975683,324.248909180332 -106.46772087652181,312.35482611645904 -121.13622419045419,298.96957859588326 -134.56468077891566,284.18297812707004 -146.56138027597132,268.1090479643996 -156.9415077995522,250.886251369299 -165.52996832679924,232.67743194580632 -172.164281404446,213.66944753601408 -176.6975149625993,194.07248173394586 -179.00122442433826,174.11902002017266 -178.968360975706,154.06248082214597 -176.51611082653938,134.17549544971854 -171.58862559713378,114.74783481922138 -164.159602652768,96.0839851348373 -154.23467331952702,78.50037920944844 -141.85355649020244,62.322294839769825 -127.0919352046306,47.880436558220396 -110.06301439722114,35.507222117300984 -90.91871917378631,25.532800167043035 -69.85049473307686,18.280830703637093 -47.08967140302585,14.06406493487637 -22.90736122852678,13.179766159097085 2.386143869241778,15.905018019552386 28.442498145676183,22.491971003831367 54.87697328335386,33.1630822347399 81.2706904452249,48.10640737086288 107.17342279986528,67.47100672778018 132.10697173496555,91.3625304715691 155.56911304956208,119.83904985372703 177.03810207200752,152.90720288290248 195.97771895269048,190.51872349980405 211.84282740006373,232.56742317841827 224.0854119460041,278.88669286650486 232.16105053010716,329.2475912556533 235.53577087787548,383.35758249893854 233.69323091701474,440.8599826443869 226.1421554372771,501.334169207579 212.42395346531168,564.2966024603595 192.12043351342965,629.202700170463 164.86152708925403,695.4495997073409 130.3329247423488,762.3798326643648 88.28352359439916,829.2859274826602 38.53258086996729,895.4159450570179 -19.02353546932781,959.9799410340485 -84.40511017276617,1022.1573365660793 -157.54347047479206,1081.10516676426 -238.27611417329138,1135.9671631187002 -326.3426863123791,1185.8836128527682 -421.38191160877204,1230.0019246968009 -522.9295850550774,1267.4878170590066 -630.4177168383889,1297.537031204557 -743.1749198002819,1319.3874590034518 -860.4281181248512,1332.3315622573648 -981.3056447844438,1335.7289487548355 -1104.841782528727,1329.018959226644 -1229.982788923935,1311.7331094747856 -1355.5944302105165,1283.5072233244566 -1480.4710316466474,1244.0930848916005 -1603.3460336642893,1193.369433156134 -1722.9040237281217,1131.3521181621743 -1837.7941934247137,1058.2032364999914 -1946.6451492107399,974.2390642147543 -2048.0809836280864,879.9366080728047 -2140.7384918845373,775.9386013163381 -2223.285396754452,663.0567777489346 -2294.439423045111,542.2732682896551 -2352.9880416872406,414.7399770574442 -2397.8086831409782,281.775809615584 -2427.8892005695184,144.86164420125445 -2442.3483454370103,5.632957537853542 -2440.4560021526804,-134.12995990877317 -2421.6529144274805,-272.51423873661173 -2385.5696244453306,-407.4891271419366 -2332.0443370824423,-536.923130996797 -2261.13941552624,-658.6035476602744 -2173.1562120231074,-770.2583105914977 -2068.6479383725723,-869.5800275226234 -1948.4302854088496,-954.252059800577 -1813.589509261399,-1021.976454898306 -1665.4877148209102,-1070.5035084417445 -1505.765083672707,-1097.6626968384332 -1336.3388148672982,-1101.394687192159 -1159.3985723018388,-1079.7840981314287 -977.3982621578771,-1031.0926539685015 -793.043997697009,-953.7923457525508 -609.278146615913,-846.5981868019551 -429.2593979049948,-708.5001277123275 -256.3388304788035,-538.7936771469141 -94.03201442745757,-337.1087604179846 54.012772809723174,-103.43633843368428 184.05007917196832,161.84769454220532 292.2763676392934,457.96181428332113 374.872413722285,783.7018434486953 428.04870380338775,1137.4280601359342 448.0934694262713,1517.0568756960738 431.42293536132865,1920.0574918445816 374.63330342177824,2343.4539126366944 274.55394035604786,2783.832645429143 128.30118751304047,3237.3563765720655 -66.66783680039367,3699.7838524025265 -312.5021134361166,4166.496134375364 -610.9049847180728,4632.529329196854 -963.0845408767752,5092.613821050166 -1369.70689157543,5541.21995394701 -1830.8530986225542,5972.610028537754 -2345.9805524505223,6380.896390093336 -2913.889572123452,6760.105293661644 -3532.6959959356946,7104.246139524163 -4199.810506567625,7407.385578041876 -4911.925400871051,7663.725888877352 -5665.009469360683,7867.686946578605 -6454.311594206392,8013.990993839361 -7274.373606898265,8097.74935669486 -8119.052867874803,8114.550153797644 -8981.554940490236,8060.545976095081 -9854.476631130632,7932.540445065668 -10729.859556607602,7728.072498525306 -11599.254279862438,7445.497204226047 -12453.794926365465,7084.061864341539 -13284.284057424788,6643.976149705859 -14081.287434112828,6126.474992512643 -14835.238158030072,5533.872971157997 -15536.549524151245,4869.608941974386 -16175.7357681864,4138.279710570167 -16743.539738016552,3345.6615910202427 -17231.06636772637,2498.718774732366 -17629.920685558332,1605.5975227351346 -17932.348945843525,675.605305482653 -18131.381341774657,-280.8258570918288 -18220.974632979203,-1252.1924559907557 -18196.152911440466,-2225.989390911286 -18053.144633611722,-3188.796961974736 -17789.51396775255,-4126.385016534978 -17404.284445694077,-5023.834102800657 -16898.052869431063,-5865.673260451856 -16273.091407033542,-6636.033846637832 -15533.43582109771,-7318.818555906608 -14684.957807862584,-7897.884547183142 -13735.419487517014,-8357.23934256111 -12694.508177184327,-8681.247914296117 -11573.8496983738,-8854.849131074234 -10386.99862080231,-8863.779495636049 -9149.404024544388,-8694.801876559883 -7878.349572228343,-8335.936720949972 -6592.8669218422965,-7776.693035510769 -5313.621777623655,-7008.296244620478 -4062.7721700363363,-6023.909879135666 -2863.798874125614,-4818.847922298432 -1741.3082162784876,-3390.7745427061823 -720.8078798724881,-1739.8878821118756 171.54330269443034,130.91545908287492 909.2101941176091,2215.8985805922002 1465.5790559946215,4506.368369442167 1814.2759322779993,6990.588697273883 1929.503128798412,9653.725760486897 1786.3908068690519,12477.828399314143 1361.3603209702085,15441.845986828417 632.4955584291635,18521.686185145307 -420.0818114505147,21690.314524103844 -1813.8375943856206,24917.897368495185 -3563.455539556441,28171.989405159984 -5680.477975438105,31417.766303323762 -8172.961774730453,34618.302683469745 -11045.15496543996,37734.89497558825 -14297.199404782035,40727.4281612729 -17924.864971483898,43554.78478100252 -21919.320705728634,46175.29395389292 -26266.9482303488,48547.217508714326 -30949.202618500087,50629.26966914126 -35942.52562914614,52381.16608070593 -41218.31591024309,53764.19731994143 -46742.96036932803,54741.82139633859 -52477.93043199726,55280.26915399005 -58379.94635117996,55349.15591141774 -64401.21209585041,54922.092154506805 -70489.7226396404,53977.28562822318 -76589.64469157222,52498.126767350055 -82641.77106781416,50473.74907414844 -88584.04800110488,47899.55580067045 -94352.17373057969,44777.70413404274 -99880.26571755843,41117.53802244951 -105101.5928019374,36935.96082515728 -109949.36755973792,32257.73912828468 -114357.59305664165,27115.729344704898 -118261.95712750268,21551.01911595926 -121600.76626112551,15612.976059630953 -124315.91014711998,9359.19705915074 -126353.8469619327,2855.352074956271 -127666.59854930922,-3825.082634844964 -128212.74380179448,-10601.20596242831 -127958.39778987742,-17385.190991231695 -126878.16352943926,-24082.9032870023 -124956.04274140346,-30594.638723071184 -122186.29155455185,-36815.97965564089 -118574.20684736111,-42638.7667128685 -114136.82883050272,-47952.18183960702 -108903.54555026522,-52643.93656332019 -102916.58525522267,-56601.55773312049 -96231.38302300939,-59713.76125192701 -88916.80869828958,-61871.902591701066 -81055.24405218971,-62971.4911752536 -72742.49814062474,-62913.75404803609 -64087.55111473728,-61607.23267337436 -55212.11821920621,-58969.39518926977 -46250.027398861595,-54928.24508911029 -37346.40581344476,-49423.906057520995 -28656.672624147108,-42410.161631150084 -20345.337650427864,-33855.927487007255 -12584.60788517907,-23746.633511814136 -5552.80638127118,-12085.49239742633 567.3893395510951,1105.3686391271976 5590.879478711546,15783.936277635183 9332.232091609669,31887.52249213261 11607.915680456792,49332.181010875014 12238.65596181871,68012.34985493871 11051.89575015642,87800.73956734245 7884.334203572101,108548.48500239618 2584.519097822568,130085.57646383632 -4984.536630751928,152221.58356337575 -14942.745062882503,174746.68242617187 -27390.373178169863,197432.99380857023 -42405.54714194447,220036.23633321526 -60041.86709886688,242297.6954090154 -80326.16962048273,263946.50451519777 -103256.47560746074,284702.2314213392 -128800.16167434864,304277.7576252663 -156892.39281400864,322382.43485922366 -187434.8534226406,338725.4979873285 -220294.81254086093,353019.709043994 -255304.55741284232,364985.20259755186 -292261.227170449,374353.4981229875 -330927.07560493663,380871.64069294673 -371030.18859370175,384306.427109782 -412265.6778091793,384448.67066806526 -454297.3678636082,381117.45412258734 -496759.9890573134,374164.31720777246 -539261.882426698,363477.32227654115 -581388.217867125,348984.9393648101 -622704.7197787821,330659.69030472887 -662761.8880019118,308521.490465051 -701099.6948309075,282640.6263465542 -737252.7316917706,253140.30765499375 -770755.7717085368,220198.7336586557 -801149.7069528729,184050.61565039135 -827987.8117547064,144988.10020549517 -850842.276143648,103361.04167867602 -869310.9463893897,59576.57702801971 -883024.202816378,14097.961593232129 -891651.8986889605,-32557.369119401625 -894910.278105056,-79820.53930258896 -892568.7856070157,-127074.79389865014 -884456.6757247278,-173659.89145986183 -870469.3270135225,-218877.32980434728 -850574.1624398233,-261996.39515658317 -824816.0762974917,-302261.01459094265 -793322.2672979775,-338897.3802489503 -756306.378150159,-371122.3020853053 -714071.8439037274,-398152.2339353678 -667014.3546353161,-419212.9056198557 -615623.3427578908,-433549.48175375763 -560482.4113667285,-440437.15605749254 -502268.62761882826,-439192.0784389335 -441750.614179836,-429182.5010912111 -379785.38224848325,-409840.0195042592 -317313.8615490397,-380670.7747918184 -255355.09591379267,-341266.4752652675 -194999.0875859277,-291315.08791527007 -137398.28906339148,-230611.04456256286 -83757.75806041353,-159064.80307552792 -35324.0088482671,-76711.60138163585 6627.388307249991,16280.758831024548 40805.38884514376,119605.26068347743 65918.14653407499,232810.31167454945 80688.66718618636,355295.82755153097 83871.3140496839,486310.9060908091 74269.01619482462,624953.2263748525 50751.01249114371,770170.2967725217 12270.945885468378,920762.6600885639 -42114.89409146171,1075389.1472706331 -113229.39805427103,1232574.25170408 -201756.76391099807,1390717.6745742897 -308225.1673744195,1548106.0681547066 -432990.22830888274,1702926.9783412009 -576219.5324100856,1853284.9604889236 -737878.4719836694,1997219.8138407257 -917717.6708617273,2132726.849822943 -1115262.2565583612,2257779.078515218 -1329803.2374251382,2370351.165997216 -1560391.2336633732,2468444.9833873673 -1805832.7984546213,2550116.5365945785 -2064689.549093045,2613504.034505091 -2335280.3077941253,2656856.8229462467 -2615686.4278079104,2678564.882745562 -2903760.452624147,2677188.562989879 -3197138.224513444,2651488.19564496 -3493254.523547253,2600453.2154828324 -3789362.279778515,2523330.3902420118 -4082555.3596980316,2419650.7505649193 -4369794.883717438,2289254.79795206 -4647938.984633242,2132315.5621580705 -4913775.868217038,1949359.0775158976 -5164059.986726518,1741281.8509625825 -5395551.084764142,1509364.90336289 -5605055.825096115,1255283.980346239 -5789471.650397853,981115.5494941723 -5945832.486067652,689338.2274859698 -6071355.839935613,382829.3138068867 -6163490.80760295,64856.14685496682 -6219966.448014885,-260937.9563242559 -6238839.953443127,-590553.3640403246 -6218544.002084842,-919659.5278834928 -6157932.650718227,-1243626.182130032 -6056325.100022728,-1557560.3445189614 -5913546.6469808975,-1856349.0460960318 -5729966.1278993245,-2134707.6416883497 -5506529.152643695,-2387233.4731874904 -5244786.43624634,-2608464.5759502286 -4946916.548613074,-2792943.0351258623 -4615742.42705268,-2935282.514517326 -4254741.030109874,-3030239.396680333 -3868045.5549341296,-3072786.8904242283 -3460439.694288295,-3058191.381818192 -3037343.473300052,-2982090.228389431 -2604790.2800674923,-2840570.12461976 -2169394.787997979,-2630245.101318779 -1738311.5608983245,-2348333.1631958834 -1319184.2338128325,-1992730.5191810399 -920085.2727480902,-1562082.3199436245 -549446.4339054038,-1055848.787775527 -215980.1668945993,-474365.60662905546 71407.66448916728,181102.56435665232 303713.23723219626,908316.581120475 471937.75739501993,1704026.41197987 567197.2024868655,2563944.9058409114 580837.9023788101,3482732.739951107 504556.909171832,4453995.484341157 330525.9764719751,5470293.632169587 51517.84452737975,6523166.340799473 -338966.58840696485,7603169.5077952845 -846571.7343173284,8699928.669543918 -1475963.043473948,9802207.058511706 -2230706.6929575186,10897988.98911951 -3113155.0011045677,11974578.56295459 -4124339.3804302565,13018713.492885709 -5263872.669321328,14016693.644186618 -6529862.689494239,14954523.68082283 -7918838.860390801,15818068.98865455 -9425693.662025394,16593223.82672074 -11043640.67320051,17266090.4354559 -12764190.821604788,17823167.609303925 -14577148.365495123,18251547.02354655 -16470627.983129494,18539115.394220512 -18431094.17585091,18674760.34882319 -20443423.99405848,18648577.697265767 -22490993.872913554,18452077.620429657 -24555791.117565773,18078387.140937664 -26618550.307358533,17522446.110567424 -28658914.596703224,16781193.84423473 -30655621.57927748,15853743.45468559 -32586713.054493807,14741540.897819852 -34429767.693753146,13448505.728590965 -36162155.25218308,11981150.594107358 -37761310.6130288,10348676.556017337 -39205025.59064198,8563041.44028131 -40471756.05840258,6638998.560416035 -41540941.61449792,4594103.351206671 -42393334.656078555,2448685.684223064 -43011335.40592082,225785.91424265777 -43379329.13046577,-2048946.9736769176 -43484021.50920576,-4347396.38433047 -43314767.86807566,-6639159.165108505 -42863891.77897429,-8891767.116582861 -42126988.358870775,-11070948.911217388 -41103207.48005307,-13140931.86434281 -39795512.032584004,-15064782.468401503 -38210906.36528311,-16804784.04617188 -36360630.07645275,-18322849.306645084 -34260312.433561005,-19580965.00444496 -31930082.875056103,-20541665.31668321 -29394633.28968122,-21168529.966953345 -26683228.08063425,-21426702.552229196 -23829658.404467747,-21283423.972592376 -20872137.42772757,-20708575.33408017 -17853133.96705823,-19675224.199869234 -14819142.469033657,-18160167.61296779 -11820387.941490335,-16144464.913080126 -8910465.164847907,-13613953.029770078 -6145912.284979936,-10559736.661733333 -3585719.7128078914,-6978645.5558551 -1290776.1230669424,-2873650.987313256 676745.7522248048,1745766.4796986184 2254059.910011763,6863305.795668171 3378489.869323084,12455598.460898213 3988237.9446035028,18492033.173775427 4023194.5236057383,24934659.077620767 3425779.9421989447,31738174.081883967 2141810.646161357,38850004.1090719 121380.47066488377,46210478.379824646 -2680252.93471006,53753104.99649387 -6301787.240198872,61404950.12345569 -10775011.482612288,69087122.99481568 -16123970.92867527,76715367.81333753 -22364173.098555364,84200762.34623055 -29501847.608673926,91450521.68340358 -37533272.672029704,98368904.21309209 -46444181.12573779,104858215.4012588 -56209258.72897377,110819903.44920324 -66791747.18103498,116155739.36432365 -78143163.84124728,120769072.4292539 -90203149.48408695,124566150.51323295 -102899454.59015739,127457493.15632036 -116148073.65454328,129359303.89261244 -129853535.78878544,130194906.88446885 -143909358.50378323,129896191.6379573 -158198669.99333242,128405048.38265356 -172595003.49926123,125674775.64903718 -186963265.43944326,121671440.68627809 -201160876.93214273,116375172.65392396 -215039086.16979423,109781368.01388243 -228444446.80065027,101901787.26395926 -241220455.08865696,92765522.10949863 -253209336.16386363,82419812.38201474 -264253967.17359897,70930692.49771488 -274199922.626629,58383448.0166172 -282897624.7189162,44882863.92406894 -290204578.97246486,30553247.617281634 -295987673.1417851,15538211.243180051 -300125515.08063376,200.00000036754798" stroke="white" stroke-width="1.5" /></svg>