<?xml version="1.0" encoding="utf-8" ?>
<svg baseProfile="full" height="400" version="1.1" width="400" xmlns="http://www.w3.org/2000/svg" xmlns:ev="http://www.w3.org/2001/xml-events" xmlns:xlink="http://www.w3.org/1999/xlink"><defs /><rect fill="black" height="100%" width="100%" x="0" y="0" /><circle cx="200" cy="200" fill="yellow" r="10.000000198080347" stroke="orange" stroke-width="2" /><polyline fill="none" points="200.70913723007044,200.0 200.65506643231944,200.03438799529985 200.5933836934437,200.06247202511722 200.52448356190908,200.08321103022357 200.44888131211346,200.09557672230085 200.36721476864096,200.09856693905994 200.2802447330307,200.09121955917783 200.18885391431448,200.0726268411243 200.0940442765831,200.04195003556057 199.99693273072975,199.99843410751077 199.89874511324447,199.94142239215975 199.8008084124222,199.87037099714698 199.70454122150295,199.78486275483573 199.61144241895204,199.68462052045948 199.52307809816625,199.56951960650395 199.44106679216728,199.43959914037328 199.3670630631131,199.29507213150887 199.3027395514856,199.13633403584709 199.24976760533355,198.9639696099763 199.20979663568693,198.77875785470707 199.18443236989705,198.58167485810938 199.17521419988105,198.37389436146304 199.1835918467087,198.1567858880546 199.2109015863144,197.93191029433564 199.2583423029806,197.70101262559635 199.32695165724996,197.46601218393138 199.4175826727076,197.22898974475814 199.53088106126523,196.99217188933355 199.6672636188088,196.75791245439208 199.8268980319928,196.5286711359464 200.00968444224534,196.3069893221555 200.2152391143752,196.0954632696302 200.4428805542705,195.89671477823256 200.6916184127939,195.71335956090672 200.96014550090982,195.54797354689134 201.24683322415498,195.40305739831362 201.54973072267657,195.2809995611168 201.86656797614688,195.18403821097638 202.1947631009199,195.11422249273448 202.53143402988607,195.07337348733404 202.87341472372944,195.0630453726613 203.21727601589396,195.08448727350006 203.55935114279015,195.13860632036457 203.89576595595398,195.22593245671695 204.2224737544224,195.3465855484266 204.53529461399503,195.50024535774705 204.82995902586796,195.6861249460748 205.10215559097378,195.90294806485343 205.34758244893922,196.14893108179825 205.56200205262547,196.42176996980496 205.74129883156172,196.71863285820234 205.88153922107725,197.036158610236 205.97903346948834,197.37046184672712 206.0303985742415,197.71714478373855 206.03262164041945,198.0713161919018 205.9831229024616,198.42761771701956 205.87981760332136,198.78025772598113 205.72117588555423,199.12305275934537 205.5062798169616,199.4494765827125 205.23487665032715,199.7527167338924 204.9074274033508,200.02573836267214 204.52514984192456,200.26135505559517 204.09005495814228,200.45230623060854 203.60497605453932,200.59134057683482 203.07358957856403,200.67130490431424 202.50042689661504,200.68523765865257 201.89087625543291,200.62646624750872 201.25117425036336,200.48870722122925 200.58838620500856,200.26616825021446 199.91037496488462,199.9536507483528 199.2257577185636,199.54665190667737 198.54385058287454,199.04146482588334 197.87460082335582,198.4352753720829 197.22850672639035,197.72625432871857 196.61652529421661,196.913643380404 196.04996809701035,195.99783344303597 195.54038578599173,194.98043385013526 195.0994419463762,193.86433091923402 194.7387771471201,192.6537344552712 194.46986422381386,191.35421080127256 194.30385600960588,189.97270112076228 194.25142690441135,188.51752369185402 194.32260984248893,186.99835911003893 194.52663038025997,185.4262174353189 194.87173977745888,183.81338647923994 195.36504908274128,182.17336060800062 196.0123663571455,180.52074963828665 196.81803927272207,178.87116762164422 197.78480540669304,177.24110154958404 198.91365261125156,175.647760263412 200.20369187325244,174.1089041179141 201.65204508444162,172.64265622407612 203.25375011958616,171.26729638028922 205.00168556519927,170.0010390909969 206.88651735408587,168.86179736322092 208.89666943955302,167.86693426137725 211.01832048707556,167.03300448554086 213.2354283701031,166.37548851395496 215.529784030562,165.90852211306154 217.88109600392266,165.64462426351287 220.26710661438835,165.59442677429558 222.66374051923228,165.7664090550397 225.04528592446422,166.16664168460608 227.38460840926138,166.79854254805565 229.65339688686146,167.66264941015183 231.82244079831926,168.75641284790436 233.8619371865877,170.0740134738505 235.74182583620777,171.60620734265578 237.43215019333934,173.34020334344743 238.90344130723153,175.2595762367756 240.12712156320117,177.3442187964367 241.07592451479792,179.57033626137542 241.7243266754129,181.91048599089567 242.04898670370477,184.33366484753182 242.02918701961397,186.80544640692506 241.6472725252524,189.2881696144594 240.8890807844532,191.74117997653042 239.74435774304413,194.12112379327831 238.20715285561573,196.38229531333548 236.27618733009328,198.47703602439128 233.95518911485544,200.35618459173682 231.25318824009423,201.96957522681885 228.1847661906703,203.26658151637346 224.7702531363295,204.19670197785095 221.0358670805285,204.71018283719653 217.01378931415368,204.7586727598746 212.7421709770637,204.29590351513073 208.26506603960365,203.27838982717816 203.6322866178841,201.6661409759502 198.89917722940467,199.42337606524094 194.1263053770114,196.5192342885737 189.37906671542507,192.92847100414724 184.72720400057216,188.63212999074605 180.24424004126178,183.61818190736815 176.00682595760964,177.8821187308995 172.09400719191763,171.427493808303 168.58641090503974,164.26639714158867 165.56535961293386,156.41985563354874 163.11191716120226,147.9181482670709 161.30587438593946,138.80102657678628 160.22468305207343,129.11783130351753 159.94234787963,118.92749680261718 160.52828764722344,108.29843560832455 162.04617748320752,97.30829653746439 164.55278550049658,86.04359084500537 168.09681788302203,74.59918221706396 172.71778737200606,63.07763779765696 178.44492081078505,51.588438985581604 185.29612197026654,40.24705239668191 193.27700627639857,29.173863151827362 202.38002428030646,18.492974507282355 212.58369073622947,8.330879774835637 223.85193596871983,-1.1849855349612994 236.13359580708283,-9.92780139284497 249.3620557320535,-17.773018768868553 263.4550640097177,-24.600098984469156 278.31472747563146,-30.29432091503594 293.8277022756285,-34.748638146172425 309.8655902693963,-37.865566368087485 326.28554996214933,-39.5590795973136 342.93112875542516,-39.756492272571364 359.6333210103323,-38.40030291150137 376.21185390912694,-35.44997386632323 392.4767004009226,-30.883620807685844 408.2298156453274,-24.6995849244137 423.2670903480968,-16.917860478442066 437.3805112431244,-7.5813503229050525 450.3605157463252,3.243077701269783 461.9985245233696,15.463759909895174 472.0896324120072,28.963656842585635 480.4354348607458,43.60004821011569 486.8469638312256,59.20452486277702 491.14770400603044,75.58329770616417 493.17665719288,92.51784088027185 492.791420067185,109.76588351691503 489.87123789555415,127.06276101046831 484.31999468083603,144.12313299440783 476.0690983119621,160.643071133416 465.0802178354172,176.3025154458689 451.3478289340455,190.76809319814555 434.9015231450612,203.69628949982464 415.8080363114604,214.73695362263342 394.1729522745332,223.53711981645802 370.1420389104122,229.74511605855878 343.90217531588075,233.01492880786785 315.6818312775039,233.01078650979508 285.75106312650337,229.41191937712688 254.42099369562104,221.91744793144252 222.04274835173746,210.25134800167288 189.00582396940996,194.16743541851037 155.7358732173749,173.45430959290618 122.69189262509136,147.94019160150737 90.36280954326742,117.49758939848596 59.26347026511809,82.04772040671833 29.93003917892267,41.56462008385216 2.9148268127799213,-3.9211358214951417 -21.219427064157856,-54.31916764830973 -41.90578058559453,-109.4765583046713 -58.579783804675685,-169.17571951723522 -70.68658749522041,-233.13292472346058 -77.68840599817685,-300.99757167234446 -79.07226489858772,-372.3522329509408 -74.35795613638709,-446.7135467566794 -63.10611538712061,-523.5339932925123 -44.92632932062287,-602.2045941897184 -19.485173782803486,-682.0585633917506 13.485921825826779,-762.3759280068563 54.18309355659275,-842.3891268166058 102.722858703166,-921.289582486811 159.13544443774018,-998.2352311563777 223.35874675152533,-1072.358980083491 295.23303718775185,-1142.7780505269625 374.4965334254239,-1208.6041491676385 460.78194680266,-1268.9543972783076 553.6141152934588,-1322.9629326908787 652.4088242204693,-1369.7930855586271 756.4729090655611,-1408.6500151512732 865.0057251147557,-1438.7936816419501 977.1020573504378,-1459.5520142455418 1091.7565310084028,-1470.3341253493516 1207.8695686001734,-1470.643409644527 1324.254923035303,-1460.090357925196 1439.6487988614604,-1438.4049073744497 1552.720554693892,-1405.4481439998133 1662.0849597771555,-1361.223168605703 1766.3159564819568,-1305.8849354755946 1863.9618585837077,-1239.748872947859 1953.561892615694,-1163.2980974555176 2033.6639666790045,-1077.1890374907086 2102.8435280844674,-982.255291456569 2159.7233483792033,-879.5095535639684 2202.994051967481,-770.1434548716254 2231.435182983119,-655.525182278656 2243.936584629452,-537.1947567485229 2239.5198462016124,-416.85687322770855 2217.3595557775257,-296.37122853959966 2176.8040814416304,-177.7402898640325 2117.3955912179013,-63.094485096444885 2038.889011957562,45.3251727814677 1941.2696205597767,145.18698243469953 1824.7689573912814,234.09089273778434 1689.8787518821428,309.59316818715394 1537.3625542502325,369.23322951445493 1368.2647753566719,410.5624806138793 1183.916848990687,431.17489551333307 985.9402475566504,428.7391020463741 776.2461032744353,401.03166260130297 557.0312126424733,345.9712173399679 330.77023203361233,261.65312211377625 100.20390682254013,146.38418249246914 -131.67678475419092,-1.2829425967075565 -361.6506489249922,-182.51611860456012 -586.290484120274,-398.1713659685212 -801.9914581549266,-648.7622311146114 -1005.0035806029084,-934.4313964047772 -1191.4681401756923,-1254.9250331506 -1357.4579188544171,-1609.5704014860855 -1499.0209349162787,-1997.2571942757254 -1612.2274064768224,-2416.423108990336 -1693.2195664333753,-2865.0441113333395 -1738.2638994819808,-3340.6298271324526 -1743.8053129747054,-3840.2244644884263 -1706.5226966066784,-4360.41362633728 -1623.3852721215178,-4897.337324466402 -1491.7090842683292,-5446.709449750628 -1309.2129390123757,-6003.843890163808 -1074.0730553741132,-6563.687418294814 -784.9756641151619,-7120.859394081403 -441.1667606517095,-7669.698246801384 -42.49820186654239,-8204.31461366496 410.53067232439537,-8718.65092137767 916.7367110111297,-9206.547102635608 1474.2227252786292,-9661.812042616933 2080.354147693043,-10078.300252185647 2731.7433308046134,-10449.993165852402 3424.24219258593,-10771.08436474637 4152.943860330246,-11036.067929219595 4912.193896260436,-11239.829033565251 5695.6116079956455,-11377.735808060737 6496.12185529826,-11445.731412563073 7305.997661537187,-11440.42519261056 8116.913824583929,-11359.181724852528 8920.011598101268,-11200.206505048229 9705.974381256672,-10962.626990217772 10465.114213834517,-10646.567678111289 11187.468725743061,-10253.217893227755 11862.908036390305,-9784.890950303441 12481.250941877013,-9245.073384529407 13032.389568116843,-8638.46297363468 13506.421507675615,-7970.994331113018 13893.788299286603,-7249.850922829996 14185.41895372336,-6483.462451372367 14372.877080162907,-5681.486663933879 14448.51002559835,-4854.774770176991 14405.598308552173,-4015.3198060290288 14238.503509623957,-3176.1874471697806 13942.812677598617,-2351.4289611816766 13515.47722323177,-1555.9761888254748 12954.94420564902,-805.5186612583469 12261.27787068249,-116.36318953105427 11436.269278431744,494.723496586946 10483.531860730276,1010.6882337461794 9408.580779688955,1414.37995130938 8218.894017500199,1688.751896199986 6923.953216408428,1817.0759532190903 5535.262407061049,1783.1671997445387 4066.3429139189225,1571.6165815947604 2532.7029082399226,1168.0293541059295 951.7802921914446,559.2667027830132 -657.1421586601699,-266.3122550261427 -2273.050193874196,-1318.6110783464717 -3873.3405254468125,-2605.5623796379564 -5433.992473667292,-4132.903269668137 -6929.768639177999,-5903.963277508505 -8334.44404548107,-7919.4682261942 -9621.06280461864,-10177.363579424287 -10762.220952795939,-12672.660768125623 -11730.373686401173,-15397.309955067165 -12498.164806686616,-18340.102598670197 -13038.775758171363,-21486.60703181297 -13326.291226805153,-24819.140076350657 -13336.077854585123,-28316.77746835618 -13045.172233385583,-31955.405572402822 -12432.67396817761,-35707.81651583282 -11480.139254643573,-39543.84847681191 -10171.97010456315,-43430.57241466689 -8495.794080385325,-47332.52603985905 -6442.829174142867,-51211.99528699495 -4008.228291190082,-55029.34298129746 -1191.397681777812,-58743.38378147088 2003.71639148665,-62311.80384513366 5568.3784498395535,-65691.62300292532 9488.857673635282,-68839.6965506834 13746.270312481902,-71713.2530830042 18316.47584785443,-74270.46410399937 23170.031806766743,-76471.04047055513 28272.21172375333,-78276.85005885876 33583.090264260514,-79652.55040569289 39057.69895605146,-80566.22947167016 44646.25532792561,-80990.04711404738 50294.46752957671,-80900.8693519715 55943.91570655752,-80280.88706692492 61532.51053505467,-79118.21041556621 66995.02838866311,-77407.42995063009 72263.72162095546,-75150.13525720139 77269.0014119252,-72355.38182509661 81940.18955304688,-69040.09690115401 86206.3344455873,-65229.41520502147 89997.0854718092,-60956.93565461519 93243.61878169932,-56264.89063775275 95879.60643259702,-51204.21988825126 97842.21974013482,-45834.54168033786 99073.1566614022,-40224.01484534377 99519.68205090248,-34449.086038534275 99135.66872271766,-28594.117739034464 97882.6264344978,-22750.89364779934 95730.70519662944,-17017.999451241234 92659.65871912542,-11500.078333368934 88659.75335491469,-6306.962137001049 83732.60759609747,-1552.6806828205324 77891.94704330568,2645.64656023685 71164.25981036352,6169.0305143398 63589.337558398074,8897.936514466415 55220.687785251794,10713.702772893019 46125.803635504024,11500.041932008085 36386.27834956694,11144.612555760623 26097.752540894788,9540.645658132955 15369.68377957385,6588.609683116445 4324.9294670458985,2197.895760264903 -6900.86429372223,-3711.496410947032 -18160.073202798932,-11207.293019720804 -29294.10789145391,-20343.323070124556 -40134.6306189867,-31157.96085441414 -50504.97401337746,-43672.65778480448 -60221.757714542815,-57890.58787963231 -69096.69603886138,-73795.43141472839 -76938.58694557677,-91350.32117521681 -83555.46967842983,-110496.97535836187 -88756.93551095287,-131155.04046858306 -92356.57307539055,-153221.66649842064 -94174.52683963474,-176571.33529449234 -94040.1444523352,-201055.96125932722 -91794.68594366252,-226505.28143662738 -87294.0651894922,-252727.54957122332 -80411.59166239777,-279510.545932763 -71040.67834653033,-306622.91155566275 -59097.47982787077,-333815.812093717 -44523.423028461824,-360824.9327376646 -27287.59187388675,-387372.8016248118 -7388.926406466692,-413171.4349134986 15141.803480977549,-437925.2922388029 40240.289380792965,-461334.52665146545 67807.27982765809,-483098.5084164515 97707.51776288387,-502919.5972621001 129769.05617567514,-520507.1328810496 163782.9858105285,-535581.6087493602 199503.6059749996,-547878.9897130197 236649.06604988695,-557155.1293566714 274902.501298507,-563190.238985396 313913.68200458994,-565793.3561854335 353301.18985861103,-564806.7574533825 392655.12988734315,-560110.2563649509 431540.3801164871,-551625.3262618799 469500.3746152543,-539318.9845355551 506061.408646901,-523207.374341374 540737.4474009163,-503358.97904843563 573035.4122791953,-479897.40496920794 602460.9110266839,-453003.6689719304 628524.3702198738,-422917.9294963166 650747.5208448181,-389940.60230433923 668670.1800064441,-354432.8060274242 681857.2643146131,-316816.0872342705 689905.9632959215,-277571.3803443514 692452.994393276,-237237.16424405493 689181.8548495726,-196406.78490646457 679829.9801403091,-155724.9216404934 664195.7137352283,-115883.18375589662 642144.9889417865,-77614.83436959471 613617.6205210069,-41688.648724267034 578633.1017718579,-8901.925657205667 537295.801949901,19927.317352597704 489799.4593080081,43968.92292983433 436430.86680005013,62389.89122301766 377572.65063989785,74364.32824228003 313705.0465123681,79083.9647144829 245406.5843299357,75769.15256522656 173353.6000431698,63680.23396606709 98318.50215090488,42129.166205526155 21166.731206540604,10491.27463254664 -57147.63725186544,-31783.004237354206 -135587.68235909365,-85156.53648630154 -213040.84126226368,-149994.216367348 -288327.53105783,-226552.16513338353 -360211.1769178758,-314967.5695038628 -427409.61566768953,-415249.32934821385 -488607.8249013856,-527269.6854662985 -542471.907883554,-650756.9976095067 -587664.2441849892,-785289.83998364 -622859.695461119,-930292.5762977987 -646762.7352422333,-1085032.5688840372 -658125.3513205553,-1248619.1664461836 -655765.5495600826,-1420004.6025644948 -638586.2690018046,-1597986.922175085 -605594.5002792168,-1781215.035879106 -555920.3828925471,-1968195.982168062 -488836.0421126758,-2157304.4555630176 -403773.91349445714,-2346794.634376518 -300344.2924661461,-2534814.315471517 -178351.83851019788,-2719421.335201984 -37810.758331397396,-2898602.2259017024 121041.60962556921,-3070293.0261031482 297733.08566347393,-3232402.1304132543 491547.0858720655,-3382835.031977315 701515.4687599563,-3519520.7770870617 926414.0421706776,-3640439.918123768 1164760.9648801587,-3743653.718087733 1414818.2569722445,-3827334.3278904213 1674596.6087648398,-3889795.626831529 1941863.6497459225,-3929524.3877211823 2214155.806760699,-3945211.401418139 2488793.8447080636,-3935782.1716224737 2762902.1434515277,-3900426.770067677 3033431.7217800035,-3838628.425277348 3297186.9733786285,-3750190.405245643 3550856.0312581593,-3635260.7462067227 3791044.626370685,-3494354.3764880616 4014313.2536925883,-3328372.1866715173 4217217.405419233,-3138616.605247878 4396350.576677775,-2926803.2529308177 4548389.694959367,-2695068.269023828 4670142.570975788,-2445970.929875144 4758596.916571751,-2182491.2126097125 4810970.42541599,-1908021.9970174339 4824761.3652169155,-1626355.644646956 4797799.086943724,-1341664.746664422 4728293.817767913,-1058476.8906578575 4614885.070956499,-781643.3609803743 4456687.978517708,-516301.7570160117 4253336.831768918,-267832.5884120988 4005025.10187737,-41809.98525040238 3712541.2074827794,156053.25637222463 3377299.3003568184,319965.9875992655 3001364.353228573,444123.9859585942 2587470.8568675295,522779.71930151666 2139034.466637234,550316.0253765553 1660155.9822816092,521323.0509916496 1155617.0988382977,430677.7101726994 630867.4313253241,273624.83972947893 92002.39112431483,45859.154437187965 -454268.4224461851,-256392.96609781214 -1000662.5563848345,-636292.8896175034 -1539375.9002228852,-1096311.4273498035 -2062143.7667316492,-1638153.9433350165 -2560311.7581596146,-2262690.039412214 -3024916.1906365566,-2969888.9993441356 -3446773.715209121,-3758762.183253118 -3816579.635309522,-4627313.556933636 -4125014.278730629,-5572499.518824009 -4362856.638944064,-6590199.149714703 -4521104.357534588,-7675195.956047057 -4591098.978424357,-8821172.10648132 -4564655.267312808,-10020716.073038066 -4434193.258325637,-11265344.482490301 -4192871.5662753065,-12545538.860958913 -3834720.3892479334,-13850797.815231763 -3354772.5245252675,-15169705.038794486 -2749190.6331921997,-16490013.359788701 -2015388.9172028957,-17798744.86320581 -1152147.3191483251,-19082306.92193362 -159716.32135980215,-20326623.76240331 960089.5909506895,-21517282.97238324 2203811.7264717245,-22639696.133029107 3566282.132420938,-23679272.526937984 5040575.513015945,-24621604.641212188 6617979.858990851,-25452663.952147532 8287987.409013622,-26159005.249037277 10038307.419557068,-26727977.53179381 11854902.047443582,-27147939.30383797 13722046.449185455,-27408475.881272137 15622413.974010343,-27500616.15510007 17537187.074103583,-27417046.078553718 19446194.277518917,-27152316.009796944 21328073.26820779,-26703038.924691834 23160459.79590979,-26068076.42813849 24920201.798840493,-25248709.438761357 26583597.767230988,-24248790.40326954 28126658.00921532,-23074873.916250233 29525387.10611046,-21736322.68075817 30756085.465912502,-20245385.846799303 31795667.50630294,-18617246.910213083 32621993.62635538,-16870038.5446686 33214212.76445495,-15024821.975128474 33553111.9938808,-13105528.782315565 33621469.28241882,-11138863.35399771 33404405.243700642,-9154164.569238314 32889729.441206288,-7183225.714498017 32068276.57646738,-5260072.08331491 30934227.706326716,-3420696.2012930918 29485411.495327376,-1702751.1416842174 27723580.423363786,-145202.94968964573 25654656.84022374,1212056.2291758358 23288943.79179886,2328632.1252799346 20641295.64124989,3164086.6255426374 17731243.675438955,3678426.9438410224 14583072.124991128,3832621.6530586802 11225840.33722504,3589138.946357386 7693347.225896553,2912501.9080565455 4024034.5804008595,1769855.0129076634 260826.3490187086,131535.5452457968 -3549098.385736765,-2028356.8546558376 -7354600.349330155,-4731399.741794309 -11100943.807290325,-7994304.111147272 -14730229.161897052,-11828395.23336707 -18181893.63625575,-16239126.202457795 -21393278.369200792,-21225632.45390343 -24300259.305739928,-26780335.555672184 -26837938.298677314,-32888604.51815564 -28941389.847654775,-39528482.706393115 -30546457.903077077,-46670488.16378594 -31590596.166031785,-54277494.7668656 -32013744.333941527,-62304701.12266763 -31759231.788496237,-70699693.49225563 -30774699.311162535,-79402608.27572958 -29013028.55639305,-88346398.72688678 -26433268.227959536,-97457209.58241084 -23001545.20408628,-106654862.19548796 -18691948.25666819,-115853451.56325775 -13487371.52293123,-124962055.33932878 -7380304.528100732,-133885553.53637284 -373555.3379679395,-142525556.16088027 7519106.647193145,-150781434.49558836 16272401.650073847,-158551450.16959578 25849097.349012114,-165733974.54811287 36199686.259673804,-172228789.35093585 47262194.701596566,-177938457.7903253 58962134.555135675,-182769753.92542225 71212607.98899542,-186635136.38313657 83914574.11791815,-189454251.11696228 96957285.1362607,-191155446.48839185 110218897.87081794,-191677282.68392235 123567264.91264175,-190970016.34759942 136860907.53279436,-188997040.33799464 149950170.47385302,-185736257.73244023 162678556.4531834,-181181368.6223386 174884235.8340799,-175343047.89258298 186401724.43809366,-168249992.07516074 197063719.91024998,-159949813.52976894 206703084.43495917,-150509760.6485105 215154958.96331984,-140017243.5208211 222258991.48336902,-128580145.5391938 227861659.27698165,-116326902.78354943 231818662.5954543,-103406334.69626552 233997364.78672376,-89987211.55135264 234279251.65798032,-76257546.52650078 232562380.79632893,-62423602.798120156 228763789.73506886,-48708608.98496405 222821830.2824747,-35351179.44916386 214698395.0604668,-22603439.403365087 204381001.36869782,-10728858.443673993 191884696.92905673,199.99999976500928" stroke="white" stroke-width="1.5" /></svg>