<?xml version="1.0" encoding="utf-8" ?>
<svg baseProfile="full" height="400" version="1.1" width="400" xmlns="http://www.w3.org/2000/svg" xmlns:ev="http://www.w3.org/2001/xml-events" xmlns:xlink="http://www.w3.org/1999/xlink"><defs /><rect fill="black" height="100%" width="100%" x="0" y="0" /><circle cx="200" cy="200" fill="yellow" r="10.000000006821114" stroke="orange" stroke-width="2" /><polyline fill="none" points="200.92149425214544,200.0 200.89999489776463,200.04724562088248 200.87126348387937,200.0917274856893 200.83535110534189,200.1325311813794 200.79240747834922,200.1687210125784 200.74268587642277,200.19935002558032 200.6865471150577,200.2234708374823 200.62446247196576,200.24014718945153 200.55701543550924,200.24846612868302 200.48490218131636,200.24755070938693 200.40893068619803,200.23657308933426 200.3300183993606,200.21476788529313 200.24918840350543,200.18144563830444 200.16756401268586,200.13600622838976 200.0863617696898,200.07795206816073 200.00688282314178,200.00690089612007 199.9305026833563,199.9225979834129 199.85865937608972,199.82492756260083 199.79284003455825,199.71392328387878 199.7345659922338,199.58977750321287 199.68537646177546,199.4528492083016 199.64681090877184,199.30367039219996 199.6203902524958,199.14295069101044 199.6075970493309,198.9715801113315 199.60985483762158,198.79062968523448 199.62850684511605,198.60134990544296 199.66479428158559,198.40516681112453 199.7198344592854,198.20367561524114 199.79459900232976,197.99863178766904 199.88989242244722,197.79193953419338 200.00633135262146,197.58563763985083 200.1443247414775,197.38188267575887 200.30405531962035,197.182929601294 200.48546265416806,196.99110982800505 200.68822810916146,196.80880684765344 200.911762027115,196.63842956391744 201.15519344047485,196.4823835051933 201.41736261097503,196.3430401341519 201.69681667967782,196.22270450781303 201.99180869074706,196.1235815793965 202.3003002276682,196.04774146959363 202.619967871699,195.99708406964922 202.94821365885423,195.9733033712055 203.28217967381613,195.9778519476918 203.6187668769871,196.01190603858458 203.9546582147077,196.07633171057006 204.2863460127519,196.17165258796803 204.61016359995946,196.2980196582066 204.9223210527057,196.4551836661732 205.21894489235086,196.64247061344975 205.4961215074191,196.85876087434613 205.74994401066095,197.10247242991247 205.9765621790378,197.37154870341735 206.17223506277153,197.6634514558912 206.33338578870982,197.975159168067 206.45665802419566,198.30317129532273 206.53897351125173,198.6435187350271 206.57759002808052,198.991780791105 206.57015908653557,199.34310885885236 206.51478263123502,199.69225698432987 206.41006796926504,200.03361937744273 206.25518012982775,200.36127487656714 206.0498908315779,200.6690382759226 205.79462322256285,200.95051833552571 205.49049155438246,201.19918219831905 205.13933495909882,201.40842584087204 204.74374451514498,201.571650083925 204.3070828175151,201.68234158810475 203.8334953082583,201.7341581595878 203.32791267602485,201.7210175915958 202.7960436982709,201.63718917172315 202.2443579767255,201.47738689361114 201.68005810571287,201.2368633258301 201.11104091360275,200.9115030124647 200.54584752956066,200.49791421028507 199.99360215025027,199.9935177079746 199.46393951338243,199.39663142510096 198.96692122602352,198.70654945373087 198.51294124419942,197.9236141851043 198.11262095522284,197.04928015881507 197.776694473823,196.08616828359087 197.51588492590272,195.0381091079943 197.3407726577672,193.91017386699494 197.261656472011,192.70869209702508 197.28840915183514,191.44125469827935 197.43032869121052,190.11670142887942 197.69598679674635,188.7450919411082 198.0930763660254,187.33765961497502 198.62825977417248,185.90674760841057 199.30701991314754,184.46572672563397 200.13351602434219,183.02889490463798 201.1104464421998,181.6113583399698 202.23892042254607,180.2288944864286 203.51834126199176,178.89779743105086 204.94630292219193,177.63470637263075 206.51850235312546,176.45641820756788 208.22866966133464,175.37968548533433 210.0685181909165,174.4210012633472 212.02771647595694,173.5963726563419 214.0938838823265,172.92108513608304 216.25261158394784,172.40945988987565 218.4875103137972,172.07460678716302 220.78028609342556,171.92817572873028 223.11084487749633,171.98010935883315 225.45742675300275,172.23840030307025 227.7967700081598,172.70885625019162 230.10430503563958,173.39487632052902 232.35437766147408,174.2972422537333 234.52050109768945,175.41392800057582 236.5756353071192,176.7399313145319 238.49249214687012,178.26713090581828 240.24386422700803,179.9841726409726 241.80297498800525,181.87638814281055 243.14384706952865,183.92574896701336 244.2416856197442,186.11085930153095 245.07327278424688,188.4069898528576 245.61736922298454,190.78615524905527 245.8551181382927,193.21723690385207 245.77044696363902,195.66615285057156 245.35046156717024,198.09607557113003 244.5858275728816,200.4676983166719 243.47113320127778,202.73954984615423 242.0052278866369,204.86835690164298 240.19153084498777,206.80945309931587 238.0383037508364,208.51723224896685 235.55888173621332,209.94564342870717 232.77185705686205,211.04872444274628 229.70120998079264,211.78116958646615 226.3763817466646,212.09892694289184 222.8322848153877,211.95981974706817 219.10924609886553,211.32418568915895 215.2528793948919,210.1555273930468 211.31388388573052,208.42116671483043 207.34776626762738,206.09289496505585 203.41448486603676,203.14761067996727 199.5780149521017,199.5679361606377 195.9058354041088,195.34280367441318 192.46833784621174,190.46800198021774 189.33816043743,184.9466737069346 186.5894495673285,178.78975409069582 184.2970538302457,172.01634167004843 182.5356557857441,164.6539917542881 181.37884815632833,156.73892382529218 180.89816225070552,148.31613451129687 181.1620575173875,139.43940838519427 182.23488221397992,130.17121959155443 184.17581620621746,120.58251819555387 187.0378078714176,110.75239617146674 190.86651795703065,100.7676291046616 195.699284019793,90.7220909636065 201.5641197282316,80.71604069970223 208.4787638348668,70.85528094337056 216.44979399896067,61.25019067323868 225.47182085140122,52.01463542803759 235.52677772672888,43.26476039253694 246.58332133109428,35.11767350219944 258.59635825833027,27.690027557137654 271.5067117003567,21.096512193607794 285.2409419158107,15.448268408370524 299.71133301737143,10.85124014408504 314.8160574113883,7.404479197637585 330.4395277734302,5.198421382173592 346.45294477334585,4.313153431136271 362.7150468793976,4.8166915519943245 379.07306648211215,6.76329379166188 395.3638942969477,10.191829438190922 411.41545154618564,15.124229528109367 427.0482668033539,21.564043130692454 442.0772516298971,29.49512441569965 456.3136662688864,38.880475557709474 469.5672637124506,49.661270268168494 481.6485974594452,61.756082158265144 492.37147526147584,75.06034120721355 501.55553815510325,89.44604033022173 509.0289411344128,104.76171240069662 514.6311089715282,120.83269607843452 518.2155379850423,137.46170643023845 519.6526120306808,154.42972360675776 518.8323986884309,171.497209769283 515.6673895895997,188.40566105768687 510.0951471090719,204.87949767570478 502.0808182847868,220.6282911676429 491.6194758588236,235.34932370187818 478.7382458010528,248.73046969701036 463.49818061277756,260.45338546715845 445.9958381464269,270.19698776958217 426.36452664633237,277.6411972612111 404.77517823842345,282.47091796586665 381.4368151914314,284.3802189800877 356.5965759511596,283.07667986522733 330.53927121838177,278.2858565526028 303.58644419877413,269.7558201951222 276.0949135914973,257.2617173028527 248.45478288518402,240.6102957723308 221.08690507178943,219.6443381310561 194.43979793717287,194.24694053990737 168.98601160111326,164.34557389585996 145.21795690885745,129.915861821474 123.64321056289124,90.98500947868402 104.77932046068638,47.63481706035202 89.14814249691122,0.004212546126751704 77.26974801450028,-51.7087600950197 69.65594905838239,-107.24555857670299 66.80349650234552,-166.28642373614542 69.18701388144564,-228.45037826296408 77.25173726264502,-293.2959908995341 91.40613861414103,-360.3229480054084 112.01451677552615,-428.9744671444653 139.38964617131185,-498.6405792041867 173.78557873405094,-568.6622965317304 215.3906989960729,-638.3366747249214 264.32113585917034,-706.9227651154317 320.6146370521602,-773.6484437075228 384.2250136356727,-837.7180904840814 455.01726201792604,-898.3210806709653 532.7634697199121,-954.6410368827217 617.13960849964,-1005.8657781920597 707.7233143513446,-1051.1978892177374 803.9927482900163,-1089.86581946775 905.3266246824136,-1121.135410572517 1011.0054851786234,-1144.3217368702249 1120.2142860371823,-1158.801133243848 1232.0463548453233,-1164.0232733411954 1345.5087593582623,-1159.523151522904 1459.5291164832731,-1144.9328132661103 1572.9638534033136,-1119.9926714890678 1684.6079155812777,-1084.5622405353272 1793.2058980424201,-1038.6301155394426 1897.464557054352,-982.323022753907 1996.0666392881742,-915.9137663014417 2087.6859449499516,-839.8278988650359 2171.0035204368432,-754.648948159622 2244.7248550351433,-661.1220377431928 2307.597935292654,-560.1557498974124 2358.431990235432,-452.82208998895476 2396.1167408418787,-340.35442593570053 2419.6419484283897,-224.14329313922093 2428.1170391404967,-105.7299744675721 2420.790565886015,13.202213492320737 2397.0692550966237,130.83897275306617 2356.5363739628174,245.24843355447734 2298.969144548579,354.39691195512523 2224.354924738541,456.16697619372206 2132.9058725691493,548.3777512653656 2025.0718103928073,628.8073585737328 1901.5510087425412,695.2173540365952 1763.2986168977532,745.378993994865 1611.5324781590493,777.101124091655 1447.736082844583,788.2594523622864 1273.6584311029242,776.8269345481557 1091.3106008339014,740.9049675769331 902.9588433060512,678.7550567151436 711.1140603924583,588.8305935849376 518.5175525964487,469.80835653903046 328.12296602835437,320.61932230138723 143.07440899022518,140.47835879551175 -33.319245467145265,-71.08764582542682 -197.61380608457432,-314.21367330340433 -346.2628430902755,-588.6729453136312 -475.65423212250107,-893.8562342063133 -582.1499390158094,-1228.75456954511 -662.1287667851268,-1591.9457837955981 -712.0317306011087,-1981.585322476406 -728.4096714465743,-2395.4017195466436 -707.9726651916442,-2830.697107635615 -647.6407317730179,-3284.353094868938 -544.5952997853559,-3752.842295531363 -396.33083588325803,-4232.245750739624 -200.70600675441187,-4718.276417874019 44.006295138049865,-5206.308844024086 339.07076153817957,-5691.415069525031 685.2440376460543,-6168.406733277844 1082.732390831764,-6631.883272533194 1531.1534275796498,-7076.286026850729 2029.5026072541714,-7495.957969789064 2576.1252917819793,-7885.208703394547 3168.6950510183583,-8238.384260684532 3804.198913993396,-8549.941171089535 4478.930216093385,-8814.524154323515 5188.4896413210345,-9027.046720560304 5927.794997002886,-9182.773870319294 6691.1001857165065,-9277.406007367317 7472.023755972258,-9307.163103516026 8263.587319626096,-9268.868086738603 9058.264020595014,-9160.028364854486 9848.037126822064,-8978.914347426422 10624.468696376249,-8724.633789737394 11378.778140015977,-8397.200755975025 12101.930367590243,-7997.597985186629 12784.733065549573,-7527.831444228658 13417.942508986747,-6990.975867767634 13992.37716556576,-6391.210117211608 14499.038202092506,-5733.841238939291 14929.235859123259,-5025.316167860569 15274.720516785965,-4273.2201055202495 15527.817137885711,-3486.260702785532 15681.561644428732,-2674.237295564814 15729.837663022729,-1847.9945776944764 15667.511965319316,-1019.3602475718515 15490.566833878895,-201.06633353186794 15196.22750365335,593.3459136631612 14783.082766743193,1349.637475806472 14251.196785151049,2052.999075104667 13602.21013477007,2688.1942207822826 12839.428105519877,3239.71705246264 11967.894308901155,3691.9640044800435 10994.447696611212,4029.418077876107 9927.761173337325,4236.8442686204 8778.360094245108,4299.494464481111 7558.619073548919,4203.31989203372 6282.735695094398,3935.188972753127 4966.679908986067,3483.108236319244 3628.1181194565256,2836.443743584406 2286.311217531579,1986.1402945516932 961.9860863278393,924.9355416439686 -322.8195946501396,-352.434001092044 -1544.9390991560078,-1849.0381630872917 -2680.2844703897995,-3565.5727158524414 -3704.0795592465065,-5500.1965783029 -4591.117069647301,-7648.389838367061 -5316.038015774839,-10002.835756608392 -5853.631610207709,-12553.329831449246 -6179.153214920083,-15286.71887536649 -6268.6576036156675,-18186.872875805424 -6099.344408906173,-21234.69219267105 -5649.912266660907,-24408.15237576766 -4900.917827861389,-27682.388570689214 -3835.1354910318996,-31029.821121222223 -2437.913421387278,-34420.323571743495 -697.5211718440507,-37821.433826456 1394.515988491947,-41198.60873634313 3843.101095433275,-44515.52186284633 6649.27302816714,-47734.40361358355 9809.942786619511,-50816.42236465468 13317.663721756857,-53722.10458167681 17160.44085995766,-56411.79133366256 21321.584320862166,-58846.12796687124 25779.61161470652,-60986.583077007 30508.203317922274,-62795.99229532163 35476.216263365146,-64239.12179545166 40647.75794339764,-65283.24584168663 45982.325310569315,-65898.7321446402 51435.010573161555,-66059.62827598714 56956.77592373705,-65744.24192912888 62494.79841146308,-64935.70740646967 67992.88537784414,-63622.530375401926 73391.96002616543,-61799.10267284401 78630.6157940909,-59466.17876063171 83645.73725423506,-56631.30534911737 88373.1842879486,-53309.19572122976 92748.53527287718,-49522.04041050241 96707.88400589052,-45299.746119805335 100188.684061445,-40680.0951173042 103130.63327388073,-35708.817815985996 105476.5900438239,-30439.571835125924 107173.51221759594,-24933.821557141775 108173.40838866975,-19260.61303073428 108434.29063636424,-13496.240028843356 107921.11696396707,-7723.798143860098 106606.71104106153,-2032.624987189406 104472.6463076204,3482.3741516849877 101510.08107459775,8721.51444911147 97720.5309708791,13581.231290835372 93116.56495233765,17955.08787530901 87722.41111716154,21734.88534384189 81574.45877307237,24811.8684713166 74721.64358566065,27078.01829506873 67225.70321023304,28427.42139972366 59161.29157786379,28757.703932697583 50615.94097328797,27971.516820266024 41689.86220914415,25978.05711010983 32495.57456673128,22694.60890634022 23157.358734230475,18048.086010979 13810.527722901319,11976.55716577043 4600.5126709720835,4430.733724037501 -4318.237458156428,-4624.601302246502 -12783.541027041309,-15209.24455688898 -20626.950083495805,-27326.326209311625 -27675.39178760987,-40961.18878542381 -33752.97617572705,-56080.413312387944 -38682.95887539017,-72631.0147957946 -42289.84469379063,-90539.82841710788 -44401.61530563539,-109713.10690037555 -44852.061597724314,-130036.34824105442 -43483.19862201734,-151374.37141082188 -40147.73860319055,-173571.65574842767 -34711.595078490434,-196452.95751992695 -27056.389055762247,-219824.2145880894 -17081.92609893196,-243473.7472808277 -4708.611527969334,-267173.7604070848 10120.230509092844,-290682.1479552908 27436.169433764324,-313744.5983485193 47243.64817928211,-336096.9942508177 69518.16708598871,-357468.0968544239 94204.70806164716,-377582.5003659315 121216.43476341118,-396163.8380934805 150433.70352120802,-412938.2171634047 181703.4181840149,-427637.8545140294 214838.76001649577,-440004.88248055085 249619.32119470616,-449795.2880551092 285791.66734301415,-456782.9458399555 323070.35092334606,-460763.700870549 361139.3931423517,-461559.4539323078 399654.24739924126,-459022.1987931222 438244.25218132354,-453037.9579870167 476515.5757576758,-443530.5614748727 514054.6490633439,-430465.2107367181 550432.0768545553,-413851.7696747567 585207.0106040969,-393747.7231816051 617931.9597576903,-370260.74440424156 648158.0109561803,-343550.8126557321 675440.4177206022,-313831.8256322743 699344.5159800733,-281372.65211384726 719451.9137838947,-246497.5746860218 735366.8966719852,-209586.0762325876 746722.983578773,-171071.92901837046 753189.5619150611,-131441.55110331494 754478.5247121906,-91231.60158594823 750350.8275263717,-51025.79373866277 740622.878291242,-11450.913428808553 725172.6695749214,26827.960733899872 703945.5598426413,63113.02938630894 676959.6084417417,96680.12012963567 644310.3682007417,126785.78381473508 606175.0398496888,152675.1010968954 562815.8939974903,173590.1495561395 514582.8692055964,188779.07012714277 461915.25882684486,197505.66001918697 405342.40477097494,199059.40787411903 345483.3232369844,192765.8757600688 283045.19572488853,177997.32188830394 218820.6682953668,154183.44783279242 153683.9130583728,120822.14469285581 88585.41819451799,77490.10423640696 24545.486380553753,23853.153761905392 -37353.56378286854,-40323.83261394084 -95976.48296237548,-115167.59813862323 -150145.4358145254,-200687.89799411592 -198651.5606614625,-296769.78046988556 -240267.68143291588,-403166.91039449547 -273762.0906464653,-519496.08794904395 -297913.30342499126,-645233.1113788149 -311525.6637636312,-779710.1253567736 -313445.66569118167,-922114.5877736704 -302578.83386840427,-1071489.9764978662 -277906.9907843787,-1226738.3441522988 -238505.7213164659,-1386624.8132126208 -183561.83027958043,-1549784.0857848155 -112390.57497871037,-1714729.0223481553 -24452.44296668254,-1879861.3216575868 80630.76453547712,-2043484.3100281872 203060.79051595772,-2203817.8225453263 342848.97315035557,-2359015.1315628896 499803.74371844967,-2507181.849405903 673519.8243113047,-2646396.7027523257 863369.3739826821,-2774734.0460308813 1068495.3244275784,-2890287.950666692 1287807.1351932883,-2991197.6764882603 1519979.1837483945,-3075674.3014571904 1763451.9873935857,-3142028.2564955396 2016436.4319782904,-3188697.4839818487 2276921.1567162503,-3214275.9118954465 2542683.2151462124,-3217541.9110486656 2811302.0995854503,-3197486.3808010016 3080177.1804490867,-3153340.0895387377 3346548.5727855507,-3084599.8804630605 3607521.4005894694,-2991053.3412806885 3860093.385231961,-2872801.5286356322 4101185.638082337,-2730279.334936892 4327676.489523343,-2564273.0869702864 4536438.13757178,-2375934.9726406694 4724375.849742617,-2166793.9046373684 4888469.40221543,-1938762.4479634475 5025816.391392782,-1694139.462274135 5133677.005231898,-1435608.1399255397 5209519.795961466,-1166229.1565674725 5251067.952663463,-889428.6929767906 5256345.532419253,-608981.1344971671 5223723.0730093615,-328986.30772260303 5151961.979233411,-53841.17264939338 5040257.049487064,211794.0479503968 4888276.489979844,463035.2521686312 4696198.75155551,694819.2338998279 4464745.519096352,901953.6521100587 4195210.186515571,1079171.919621455 3889481.161866024,1221192.6569559649 3550059.367544764,1322783.276214473 3180069.330294904,1378827.179414421 2783263.294950692,1384393.976173747 2364017.844787309,1334812.0481687272 1927322.569963576,1225742.7135107997 1478760.393804651,1053255.1742196763 1024479.2443583008,813901.3654760838 571154.8454381656,504789.7674864827 125944.4967698002,123657.19074858418 -303568.1837292533,-331062.4955843257 -709437.4718249938,-860173.75356934 -1083428.5022355344,-1463659.965802825 -1417098.664134119,-2140630.31323239 -1701886.977152759,-2889274.02523514 -1929210.8686928258,-3706823.0666768146 -2090569.6424219774,-4589524.293077076 -2177653.7969732014,-5532622.056342822 -2182459.2246928294,-6530352.179385669 -2097405.1945321276,-7575948.138079358 -1915454.9026330712,-8661660.193372777 -1630237.2606721988,-9778788.10509058 -1236168.4874815787,-10917727.9323625 -728571.9757619736,-12068033.284273455 -103794.82473208949,-13218491.228990257 640680.6368206933,-14357212.901291074 1506132.0626052176,-15471738.668328686 2492500.7933913167,-16549157.52304461 3598305.823600286,-17576240.175602026 4820569.790391228,-18539585.107415054 6154758.714153517,-19425776.641931523 7594737.16413643,-20221553.873580407 9132740.443254365,-20913989.083720505 10759365.281247968,-21490674.062671576 12463580.394978583,-21939912.552779045 14232758.118596392,-22250916.831870116 16052728.124876246,-22414006.272410233 17907854.052713618,-22420805.542223994 19781133.62552216,-22264439.960897088 21654322.592328273,-21939725.394988228 23508082.54935019,-21443349.967982806 25322152.40677254,-20774044.780434333 27075542.955656037,-19932740.784755398 28746753.666184045,-18922708.94025428 30314010.51384588,-17749680.789641116 31755523.28811559,-16421946.650476271 33049760.492469173,-14950428.705698216 34175739.59924083,-13348726.4078963 35113330.0821821,-11633131.783434987 35843566.31819355,-9822612.43549054 36348967.13230528,-7938760.299668106 36613858.461465314,-6005704.501743874 36624695.338037334,-4049987.003309113 36370379.1481212,-2100400.0961996773 35842565.90789357,-187785.21851510124 35035961.12800958,1655206.9888957636 33948596.70647834,3394394.9896390704 32582085.208840244,4994382.122832941 30941846.8651729,6418908.411617261 29037304.640295316,7631236.438623791 26882042.819963455,8594568.761886908 24493924.70475496,9272493.782829108 21895165.21707536,9629456.416891858 19112354.506953865,9631249.364132078 16176428.990008451,9245520.239073811 13122586.666338302,8442289.30400487 9990144.051511668,7194472.065685042 6822332.598753222,5478400.550174469 3666033.102455602,3274336.6723487843 571447.2438877332,566970.7737499679 -2408293.8339122813,-2654101.8773093545 -5217583.2589038415,-6393934.0383006735 -7798852.987400714,-10651816.443191065 -10093146.846558487,-15420912.342283815 -12040748.8378756,-20687944.176258408 -13581862.573780213,-26432939.78665477 -14657336.806368763,-32629045.320580557 -15209431.09590436,-39242411.6375504 -15182614.768214641,-46232160.56838437 -14524391.4366972,-53550436.808458045 -13186140.528786266,-61142550.55002071 -11123966.471376186,-68947215.17186162 -8299545.467980188,-76896883.41177894 -4680959.155573764,-84918184.45209476 -243503.87429791442,-92932463.2563729 5029536.168587979,-100856422.31363988 11146163.895393087,-108602864.68346217 18105004.779065114,-116081535.90150303 25894715.022684325,-123200060.91247998 34493474.753004886,-129864970.75918645 43868578.24756826,-135982812.28725 53976132.813468724,-141461332.64178398 64760877.36304427,-146210728.8515614 76156130.98318247,-150144951.33738515 88083880.86815538,-153183048.7635675 100455017.88050626,-155250540.2952511 113169726.72229211,-156280800.05069035 126118036.2440677,-156216437.3679793 139180533.79788005,-155010655.4615111 152229245.7622987,-152628570.1461458 165128684.4437101,-149048469.57760033 177737059.50295737,-144262995.41630182 189907649.8866542,-138280225.4881754 201490329.97751045,-131124637.90766929 212333241.3395061,-122837936.76213807 222284599.0459781,-113479719.84712586 231194619.16800353,-103127969.60139696 238917551.59534752,-91879349.32858045 245313799.992969,-79849288.01601489 250252108.39457244,-67171838.57473722 253611791.73403987,-53999296.128086574 255284985.55000246,-40501565.06713391 255178888.202996,-26865265.96230017 253217967.25357375,-13292576.061383639 249346100.19816008,199.99999969463934" stroke="white" stroke-width="1.5" /></svg>