<?xml version="1.0" encoding="utf-8" ?>
<svg baseProfile="full" height="400" version="1.1" width="400" xmlns="http://www.w3.org/2000/svg" xmlns:ev="http://www.w3.org/2001/xml-events" xmlns:xlink="http://www.w3.org/1999/xlink"><defs /><rect fill="black" height="100%" width="100%" x="0" y="0" /><circle cx="200" cy="200" fill="yellow" r="20" stroke="orange" stroke-width="2" /><polyline fill="none" points="198.28660714884103,200.0 198.24132838427718,199.90767777393003 198.20484727681426,199.81100453677578 198.17787585353543,199.71091405253839 198.16104462025177,199.6084458788754 198.15488889852367,199.50473954473256 198.15983541987805,199.40102709514616 198.17618936083034,199.298623986627 198.2041220091199,199.1989183359469 198.24365925645566,199.10335854582206 198.2946711158518,199.01343935275492 198.35686246214138,198.93068636495613 198.42976519232286,198.8566391816038 198.51273199788892,198.79283320845786 198.60493193408666,198.74078030876944 198.70534796107447,198.70194845222278 198.81277661911233,198.67774054801046 198.92582998421543,198.66947267075977 199.04294003212163,198.67835190956004 199.16236551700686,198.70545409045286 199.28220144720828,198.75170164109053 199.40039121339692,198.81784188249728 199.51474139533758,198.90442604663994 199.6229392417803,199.01178932949315 199.72257278438684,199.14003229714487 199.81115351118558,199.2890039669249 199.88614148819497,199.45828688626915 199.94497277991564,199.6471845287936 199.98508898077063,199.85471131962538 200.00396863069832,200.07958559023035 199.99916024944974,200.32022574664276 199.96831668619635,200.57474991404445 199.90923044434578,200.84097929500606 199.8198696065217,201.1164454484007 199.69841395204995,201.3984016610918 199.54329082956414,201.68383854511123 199.35321032106347,201.9695039493668 199.12719921148332,202.2519272272114 198.86463326011827,202.52744784978688 198.56526725759505,202.7922483003202 198.22926234502472,203.0423911269539 197.8572100709325,203.27385997176265 197.45015266698599,203.4826043319324 197.00959903578243,203.66458774630814 196.53753596331873,203.8158390373583 196.03643409548962,203.93250617581944 195.50924825219943,204.01091227367638 194.95941169451007,204.04761315155096 194.39082400967004,204.03945586988905 193.80783233576835,203.98363756045316 193.2152057119289,203.8777638464565 192.61810241109063,203.71990609713242 192.02203019008965,203.50865672652168 191.4327994754436,203.24318171766967 190.85646959229547,202.92326953310587 190.29928823765798,202.54937556123593 189.76762449655342,202.1226612468623 189.2678957999083,201.64502706313436 188.80648932507776,201.11913850240956 188.38967844248944,200.54844429526742 188.02353491387484,199.93718611064799 187.71383764758568,199.29039904603445 187.46597891319814,198.61390228489395 187.2848690095655,197.91427937920804 187.1748404662247,197.1988477076831 187.13955293611372,196.47561676479623 187.18190000642824,195.75323505168987 187.30391921266354,195.0409254663934 187.5067065870175,194.34840922706348 187.79033710498462,193.6858185068498 188.1537924118436,193.06359811139293 188.59489721261892,192.49239668845144 189.11026569388383,191.98294812217006 189.6952593125154,191.54594393031675 190.3439572344142,191.19189764955922 191.04914063465012,190.93100235950538 191.8022919790763,190.77298265866835 192.5936102959756,190.726942562494 193.41204331480662,190.80121094279252 194.24533719789866,191.0031862669674 195.08010442056423,191.33918252192402 195.90191016639176,191.8142783190544 196.6953773985685,192.43217127084023 197.44431054637448,193.195039804062 198.13183751018244,194.10341462710062 198.7405694403854,195.1560620972461 199.25277748792365,196.3498817363211 199.65058545904975,197.67982011751172 199.91617703745445,199.13880329152514 200.03201596593917,200.717689834784 199.98107731073026,202.40524648532428 199.7470876677624,204.18814818273142 199.31477191544744,206.05100414651844 198.67010387636367,207.9764114129017 197.80055802480925,209.94503700345624 196.69535917218167,211.93572962155136 195.3457268815944,213.92566146515034 193.74511121090413,215.89050040933813 191.88941626318876,217.80461245111448 189.77720793933142,219.64129392533886 187.40990224217032,221.37303259747313 184.79193047886162,222.97179631964852 181.93087775053715,224.40934750573467 178.83759120853128,225.65758124308172 175.52625469647262,226.68888441841443 172.01442658898333,227.4765127983096 168.3230378816644,227.9949825764291 164.47634788394836,228.22047248613129 160.5018552161285,228.1312321843713 156.43016221360514,227.70799224720477 152.29479129362363,226.9343707850986 148.13195234025144,225.797271393998 143.98026070908077,224.2872669120053 139.88040604036962,222.3989632577493 135.87477269353656,220.13133749097713 132.007013271802,217.48804416416837 128.32157738729484,214.4776840312244 124.86319851734365,211.11402925017367 121.67634251450848,207.41619936541076 118.80462204808538,203.40878258460526 116.29018196466117,199.12189717864845 114.17306125061754,194.59118823155393 112.49053795066638,189.85775545185246 111.27646403356532,184.96800832744978 110.56059778891031,179.97344556080895 110.36794187698513,174.93035645817832 110.71809562670974,169.89944276174134 111.62463057453151,164.9453603021107 113.0944985496531,160.13618080440125 115.12748182869343,155.54277519679064 117.71569499666512,151.23812083740575 120.84314815265854,147.2965361837032 124.48538098029542,143.79284756723678 128.6091769583099,140.80149389368606 133.17236661010963,138.39557625009775 138.12372817871196,136.6458605543385 143.4029934623194,135.61974251083433 148.9409657548006,135.38018522612037 154.65975590494907,135.98464087134377 160.47314144084083,137.48396874004823 166.2870525050016,139.92136292151656 172.0001870184336,143.33130357583235 177.50475604487,147.7385464400129 182.68735877092217,153.15716569884046 187.42998486512894,159.58966570380562 191.61114024336615,167.02617720417248 195.10709046566757,175.4437537520056 197.79321413818565,184.80578374584272 199.54545681354455,195.0615331749608 200.24187399463733,206.14583350909268 199.7642499739735,217.97892834033934 197.99977740731072,230.46649132050499 194.84278075195797,243.4998266463 190.1964650231783,256.9562618276321 183.97466976351785,270.6997407342694 176.10360670696804,284.5816229602234 166.5235583799591,298.44169338312577 155.19051384129426,312.10938344078164 142.0777169496003,325.40520311530025 127.17710198496836,338.14237992643496 110.50059116503083,350.1286984129167 92.08122860677986,361.1685306497853 71.97412561376117,371.06504534024316 50.25719283103817,379.62257996454764 27.031635821674143,386.64915740080176 2.422191989172461,391.95912539061953 -23.422911492618994,395.3758942460618 -50.33229697429789,396.73474532438354 -78.11208860836626,395.8856800768594 -106.5468905315218,392.6962769511021 -135.40110068748936,387.05452113726494 -164.4205665052175,378.8715701417255 -193.33458481331883,368.0844164911381 -221.85824425138537,354.65840755789105 -249.69510406433085,338.58958159601366 -276.5401985745844,319.90677862312475 -302.08335186141454,298.6734848147954 -326.01278228449144,274.98936962474096 -348.0189715223697,248.99147593535375 -367.79876781278335,220.8550252010766 -385.05968814118285,190.79380178939294 -399.5243792913709,159.06008356193064 -410.935193014578,125.94408917600317 -419.0588261606357,91.77291662221643 -423.690972518329,56.90895213638859 -424.66092940366786,21.747733815788507 -421.83609878684,-13.284739995869302 -415.12632003227225,-47.73526124812389 -404.48796921092276,-81.12721863547705 -389.92775849618556,-112.96494983060205 -371.5061684374282,-142.7386219000128 -349.3404459759481,-169.9296145533682 -323.60710197901335,-194.01637292401676 -294.5438438635472,-214.48068850649992 -262.4508815988665,-230.8143587788344 -227.6915490456534,-242.52616801262144 -190.69218722401797,-249.14912392704736 -151.94124171423198,-250.2478772831729 -111.98753297505226,-245.42624435587993 -71.43766589958898,-234.33474557831374 -30.952553387573147,-216.67806764485982 8.756961947690485,-192.22235110084216 46.93539365666874,-160.8022010559152 82.7887997194589,-122.32731524620323 115.49185642300534,-76.7886213456647 144.19578892388063,-24.26381429171704 168.03711696822342,35.077815462511296 186.14716131002626,100.97137034259245 197.66224324980016,173.05325531320253 201.73449655821642,250.85910897055766 197.54319801475518,333.82285023527925 184.30651005005515,421.27692724328705 161.293516710691,512.4538458771739 127.83642255071011,606.4890446488025 83.34277328381778,702.4251703635205 27.307547294131666,799.2177952163973 -40.67504140774224,895.7426007624105 -120.90019529488137,990.8040376587287 -213.5418125147932,1083.14545231501 -318.6425689067654,1171.4606527458782 -436.10498038755907,1254.4068661607903 -565.6836229549017,1330.619020334723 -706.9786850417614,1398.7252597842578 -859.4310220960285,1457.3635864539542 -1022.3188759636789,1505.1994932424668 -1194.7564118461737,1540.9444375288417 -1375.6942132386032,1563.3749811739553 -1563.9218603165327,1571.3524035599837 -1758.072699740236,1563.842575391488 -1956.630893830651,1539.9358635214153 -2157.9408146234996,1498.8668212937673 -2360.218823541779,1440.0334051209225 -2561.5674504959243,1363.0154465430276 -2759.9919573150414,1267.5921001463164 -2953.419239759053,1153.7579817311457 -3139.718990224916,1021.7377082867365 -3316.7270099405646,871.9985518943524 -3482.2705252731425,705.2609238645402 -3634.1953281320048,522.5064134075146 -3770.3945257205633,324.98311709448615 -3888.8386505110643,114.20801140828861 -3987.6068477338513,-108.03385912149554 -4064.918825358556,-339.69358132437674 -4119.167220986322,-578.4661349216647 -4148.950011766941,-821.8018581491405 -4153.1025679060485,-1066.9217228588657 -4130.728928037659,-1310.8364841546565 -4081.2318562019836,-1550.3697257703286 -4004.3412258694734,-1782.184775353832 -3900.1402668514447,-2002.8154139448593 -3769.0892064693817,-2208.700251659363 -3612.0458374181308,-2396.2205874110728 -3430.2825517109122,-2561.741514954465 -3225.4993932430457,-2701.655981224115 -2999.8327011094034,-2812.4314465231632 -2755.858942044784,-2890.6587402712644 -2496.5933633456034,-2933.1026514945884 -2225.483137417403,-2936.7537407933464 -1946.394715635638,-2898.8808109473034 -1663.595162381081,-2817.0834274263475 -1381.7272996985046,-2689.3438386790017 -1105.778558716072,-2514.0776099924997 -841.043505345009,-2290.1822547590414 -593.0800843478262,-2017.083123926714 -367.65970701341257,-1694.7757990090013 -170.71139270604476,-1323.8642269781476 -8.260262665402706,-905.5938373228844 113.63922526482655,-441.8788930872738 188.97482078650455,64.67665067520849 211.8522323086814,610.7654754950427 176.57442255461692,1192.3710666973464 77.72369751261844,1804.7703169285735 -89.75424749361395,2442.545098783331 -330.4652412626533,3099.603263425089 -648.4815007570427,3769.209435437857 -1047.25750385042,4444.025877079406 -1529.5479872974963,5116.163588140651 -2097.329234864621,5777.24369141919 -2751.7248577313935,6418.469029212156 -3492.9372939853365,7030.705764215768 -4320.186265138143,7604.574639928051 -5231.6554240451715,8130.551412389375 -6224.448409472613,8599.075818312447 -7294.555487022362,9000.668295937588 -8436.831903537462,9326.05352602266 -9644.989011983727,9566.289713078497 -10911.599135832315,9712.902383230168 -12228.115036054041,9758.021336950487 -13584.904720094937,9694.519264467803 -14971.302190979353,9516.150411031818 -16375.674576566576,9217.687570589755 -17785.505904808677,8795.055591932933 -19187.49760170709,8245.459503144131 -20567.685585899922,7567.50530027205 -21911.573619036175,6761.311406551506 -23204.282346177984,5828.608791030606 -24430.713227537388,4772.8277418593625 -25575.726324256608,3599.1693212548075 -26624.330659274045,2314.659587591039 -27561.885632381644,928.1847562276275 -28374.311729362755,-549.4944146282131 -29048.308531764837,-2105.7505830488 -29571.577809703103,-3726.1215246864426 -29933.04926851214,-5394.366771637401 -30123.10632454122,-7092.550154076329 -30133.809109428264,-8801.148952261725 -29959.11174928981,-10499.190082849109 -29595.07083887866,-12164.413435512219 -29040.041934228087,-13773.462145868572 -28294.860823832638,-15302.09924125966 -27363.006311003224,-16725.449730096545 -26250.741251446405,-18018.266826698877 -24967.228642802504,-19155.220615675284 -23524.619658950465,-20111.20706713224 -21938.11066305888,-20861.67492091694 -20225.966420893943,-21382.967569563276 -18409.506970561783,-21652.676690758748 -16513.05588690286,-21650.0040163468 -14563.848007830418,-21356.127281653407 -12591.8950650744,-20754.5660819301 -10629.808081475785,-19831.543077638937 -8712.575858932625,-18576.335742848387 -6877.299382415697,-16981.613646765163 -5162.882502547747,-15043.756102828867 -3609.6798277883277,-12763.144918036047 -2259.1033523235465,-10144.426932111905 -1153.189961699088,-7196.74105627943 -334.13258879121634,-3933.904608665137 156.2215689792673,-374.5539012436402 276.9017216430125,3457.765735579088 -11.631632711008479,7534.564998077111 -746.9129144202055,11822.434848169516 -1963.8846419628426,16283.133610263627 -3694.3040278097756,20873.74005345216 -5966.149947245765,25546.87497516946 -8803.037698808123,30250.993118777656 -12223.649375463523,34930.746505346215 -16241.187995683693,39527.41944385977 -20862.863794364835,43979.43461012052 -26089.42123663775,48222.92865969717 -31914.71538513281,52192.39487250047 -38325.34621595577,55821.389325109456 -45300.35933405206,59043.2960620368 -52811.02127926535,61792.145699876826 -60820.677235772084,64003.48086081118 -69284.69845642468,65615.26080714863 -78150.5260878825,66568.79665003374 -87357.81733170518,66809.7075473665 -96838.69900178965,66288.88740295607 -106518.1325422193,64963.470745903884 -116314.39345601924,62797.785721231136 -126139.66687048353,59764.28147483699 -135900.7596364312,55844.41668274774 -145499.92793656062,51029.49557062401 -154835.81787342316,45321.43750830883 -163804.51493359022,38733.466158629286 -172300.6965963394,31290.7042214454 -180218.88068916826,23030.6600535328 -187454.76040697505,14003.59287117942 -193906.61522636554,4272.743862611356 -199476.7852823148,-6085.578643210525 -204073.19515342833,-16982.07078310758 -207610.91144735218,-28314.671148239548 -210013.717113281,-39968.97333490752 -211215.68405827097,-51818.819613986205 -211162.72443259874,-63727.08046121789 -209814.0999011216,-75546.62269594515 -207143.8673564724,-87121.46681343566 -203142.23887913383,-98288.13178139954 -197816.83333129543,-108877.16312325811 -191193.79680654377,-118714.83755066477 -183318.76926503514,-127625.03476010088 -174257.675080592,-135431.2643000656 -164097.3159268043,-141958.832676196 -152945.74544506898,-147037.13312344332 -140932.40647733357,-150502.03777150667 -128208.01331487679,-152198.3692978781 -114944.1634132832,-151982.42663979717 -101332.66534983831,-149724.53696057244 -87584.57244616761,-145311.60387682216 -73928.9144342816,-138649.61999063348 -60611.1227925037,-129666.11007429384 -47891.14889803459,-118312.46986392645 -36041.27790963681,-104566.16436968352 -25343.645276860934,-88432.748940453 -16087.466936090896,-69947.6760635223 -8565.99855905347,-49177.8510657446 -3073.2436219609035,-26222.90053917342 99.56548486829669,-1216.1184649428405 667.6846385443368,25674.94332760097 -1643.2596020698059,54248.27153943925 -7093.259680418104,84267.60306689185 -15923.830250582834,115463.0771409736 -28353.87018947433,147532.34933677103 -44575.532241081884,180142.1845356763 -64750.15229998416,212930.54110962278 -89004.29308630232,245509.1533072287 -117425.9592121825,277466.61309195677 -150061.04232926975,308371.94655279286 -186910.05611931326,337778.67352902214 -227925.22129105855,365229.3323186122 -273007.960426366,390260.444340186 -322006.86143225984,412407.8864623251 -374716.16646608466,431212.6314805851 -430874.84047729406,446226.8099959741 -490166.2699302358,457020.03981994715 -552218.6378242052,463185.96209474944 -616606.0158077662,464348.9166738448 -682850.2080013847,460170.68305728585 -750423.3741147461,450357.2074251263 -818751.4516041308,434665.23116379767 -887218.3880031966,412908.73183957377 -955171.1852337861,384965.0839430942 -1021925.7477293843,350780.8440083456 -1086773.5156639428,310377.0629936597 -1148988.8535655933,263854.0281895018 -1207837.1532142907,211395.33746936702 -1262583.5980908945,153271.21049743818 -1312502.524891151,89840.94461114482 -1356887.3058791454,21554.427557158288 -1395060.664278187,-51047.37488895794 -1426385.3236376874,-127333.03112585648 -1450274.881333783,-206582.42177946004 -1466204.7862252889,-287989.73955121235 -1473723.2911643018,-370667.75535357255 -1472462.242723286,-453653.38245102856 -1462147.5633167312,-535914.556300939 -1442609.2750329473,-616358.4326051926 -1413790.9101110157,-693840.8898520904 -1375758.150253505,-767177.3054799815 -1328706.5360009826,-835154.5568815434 -1272968.0883403672,-896544.1799622828 -1209016.6876930564,-950116.59905918 -1137472.0605277517,-994656.322923317 -1059102.2311477487,-1028977.982399267 -974824.3057682435,-1051943.066632225 -885703.4678600624,-1062477.1963544884 -792950.0778965582,-1059587.7553068695 -697914.7870801383,-1042381.684409923 -602081.5932898341,-1010083.228187437 -507058.7883007778,-962051.4094399862 -414567.7681628452,-897796.9965424566 -326429.7033429307,-816998.718269764 -244550.09164970735,-719518.4739983946 -170901.24485853303,-605415.2827409769 -107502.7890875819,-474957.7129758529 -56400.28906669186,-328634.53685062856 -19642.13717568079,-167163.35725146494 745.1208284585896,8503.03539694041 2782.820493056214,197172.80777982937 -15432.659677680407,397413.9453329918 -55701.87271324792,607556.0270582039 -119693.70531672596,825695.0865947703 -208916.52582779416,1049701.705829729 -324689.4206792695,1277232.4569135536 -468113.88389231276,1505744.7746548578 -640046.3429615974,1732515.3040855313 -841071.9197785641,1954661.7277556795 -1071479.8366046697,2169168.0343377227 -1331240.884130594,2372913.14473482 -1619987.3709660205,2562702.76451127 -1936995.9711506115,2735304.282540223 -2281173.8781583877,2887484.4858091697 -2651048.660123461,3016049.8098820085 -3044762.1914425693,3117888.794188974 -3460069.0103584677,3190016.3617301947 -3894339.4205198544,3229619.4946077517 -4344567.616830773,3234103.8307326883 -4807385.07221239,3201140.6638071868 -5279079.372339123,3128713.7889801213 -5755618.63020726,3015165.6011518794 -6232681.551851417,2859241.822485204 -6705693.159043748,2660134.210980251 -7169866.104870487,2417520.583680575 -7620247.444257368,2131601.4768524785 -8051770.644463602,1803132.761933513 -8459312.541029083,1433453.5407368327 -8837754.863461306,1024508.6568191068 -9182049.872990254,578865.1824885287 -9487289.572964141,99722.2729793443 -9748777.87194348,-409086.178916031 -9962105.001354706,-943096.6028528401 -10123223.414819859,-1497228.9791956365 -10228524.32614343,-2065808.617914995 -10274913.9785954,-2642596.789731508 -10259888.680767197,-3220830.4211905417 -10181607.59507781,-3793270.96676601 -10038962.22512638,-4352262.464495743 -9831641.518651072,-4889798.667835859 -9560191.48492001,-5397599.026317113 -9226068.219950499,-5867193.162267984 -8831683.24092502,-6290013.361544246 -8380440.05335247,-6657494.464216838 -7876760.911577906,-6961180.407977748 -7326102.785720417,-7192836.544210796 -6734961.616382731,-7344566.7159088515 -6110864.022751341,-7408933.959675914 -5462345.730001367,-7379083.572755355 -4798916.098075696,-7248867.172273695 -4131008.265526395,-7012966.269589472 -3469914.5686005373,-6667013.789735032 -2827707.056283051,-6207711.886338171 -2217143.0955296033,-5632944.338006551 -1651556.24613947,-4941881.764760172 -1144732.7801086444,-4135077.874433807 -710774.4241272247,-3214554.9406675817 -363948.1141584966,-2183876.7276006513 -118523.76559015425,-1048207.1130058756 11398.721114030206,185647.2775909492 12071.78356668139,1509212.0273738825 -129709.79864064141,2912338.9653024543 -426413.0734260067,4383220.63622688 -889567.3100649898,5908426.392909236 -1529562.8528670662,7472961.109447357 -2355450.83920375,9060347.301146137 -3374746.336879124,10652731.19727584 -4593237.584602257,12231013.051797437 -6014804.123329326,13775001.69470126 -7641246.682548454,15263593.025245925 -9472131.731365466,16674971.830534011 -11504653.616916029,17986835.98141753 -13733517.189785102,19176641.715853564 -16150843.755684467,20221868.371130377 -18746103.092837133,21100300.57469432 -21506074.133969992,21790325.552842055 -24414836.729519665,22271242.87170528 -27453796.68410766,22523583.59045113 -30601745.99148281,22529435.487267707 -33834959.884455204,22272770.71951754 -37127331.96690864,21739772.005479634 -40450548.30636548,20919153.171459224 -43774300.94003867,19802469.699800793 -47066540.78761758,18384414.74543141 -50293769.47367894,16663095.965807274 -53421369.04558327,14640288.43605788 -56413968.03370965,12321658.901982354 -59235841.74508695,9716956.66218217 -61851344.11472323,6840166.470415176 -64225367.867501676,3709619.0130741266 -66323829.17423284,348054.7467865199 -68114172.42551662,-3217362.820930307 -69565890.20409967,-6955087.958399402 -70651053.01828572,-10829290.758991873 -71344842.87378353,-14800015.0246436 -71626084.3174038,-18823398.02605227 -71477766.19152741,-22851953.548917554 -70887547.00147972,-26834918.942648325 -69848236.52691282,-30718666.139696043 -68358246.11081557,-34447175.81569283 -66421999.94318451,-37962573.01946195 -64050299.627612695,-41205721.72531376 -61260634.38429074,-44116874.85636721 -58077429.4076657,-46636375.4063544 -54532225.16589476,-48705403.35880273 -50663780.80586258,-50266762.17765135 -46518095.31448027,-51265697.73405785 -42148340.68551997,-51650741.65268215 -37614702.05147052,-51374570.21999603 -32984120.560377173,-50394869.21026037 -28329935.705631465,-48675194.26523101 -23731424.847764377,-46185815.82475352 -19273238.79563864,-42904537.060652494 -15044733.532419486,-38817472.82866449 -11139199.470276147,-33919777.33537758 -7652990.986073073,-28216308.03102779 -4684560.416097197,-21722213.19589275 -2333402.1571580977,-14463430.797825214 -698914.0189098225,-6477086.4702723855 120815.51883558485,2188221.098828387 30283.987642578715,11472258.460502598 -1062096.0820011718,21303129.678238586 -3242628.9308766257,31597391.90217027 -6590942.526972287,42260322.40628373 -11178586.411361158,53186343.91341521 -17067637.304535434,64259613.52090423 -24309330.37833022,75354778.86038901 -32942734.97975242,86337903.2882247 -42993494.29960077,97067559.92066544 -54472648.99015419,107396092.21503131 -67375565.03308804,117171036.5724128 -81680986.22297603,126236700.11884712 -97350231.4469939,134435884.43328592 -114326556.49325411,141611743.55678245 -132534699.39664318,147609762.16568503 -151880627.3225041,152279837.35127133 -172251501.6886537,155478445.05058897 -193515876.6315034,157070869.85068503 -215524144.0327603,156933474.67509943 -238109236.1429125,154955984.7920929 -261087594.37425086,151043758.69414127 -284260410.10106295,145120016.72313127 -307415140.31388235,137127996.89082056 -330327297.7481533,127033006.2038045 -352762511.66993755,114824334.97984998 -374478851.88081354,100517001.16943553 -395229404.73379457,84153291.60201594 -414765086.0687266,65804067.387419365 -432837672.0200369,45569801.442179576 -449203024.6661822,23581317.297979373 -463624485.5264092,200.00000056777648" stroke="white" stroke-width="1.5" /><circle cx="154.10328460079143" cy="219.83662056813236" fill="red" opacity="0.7" r="14.99573603041505" /></svg>