<?xml version="1.0" encoding="utf-8" ?>
<svg baseProfile="full" height="400" version="1.1" width="400" xmlns="http://www.w3.org/2000/svg" xmlns:ev="http://www.w3.org/2001/xml-events" xmlns:xlink="http://www.w3.org/1999/xlink"><defs /><rect fill="black" height="100%" width="100%" x="0" y="0" /><circle cx="200" cy="200" fill="yellow" r="10.000000000054289" stroke="orange" stroke-width="2" /><polyline fill="none" points="201.3184673970232,200.0 201.3344591746298,200.07005301074963 201.34265307026828,200.14135584994375 201.34267961739837,200.2130205069101 201.3342546011349,200.28409220444237 201.3171885802773,200.35355671288264 201.29139587717856,200.4203488906512 201.25690288827414,200.4833624270204 201.21385556669588,200.54146074634633 201.16252592875472,200.59348901579008 201.1033174383022,200.6382871809457 201.03676912717478,200.6747039359379 200.9635583161613,200.7016115166676 200.88450180927788,200.717921188181 200.8005554446172,200.7225992798594 200.71281189767947,200.71468360550745 200.62249664787188,200.69330008971434 200.53096203574628,200.65767940732684 200.43967935745965,200.60717342977017 200.350228963788,200.54127126053433 200.26428835367665,200.4596146326714 200.18361827660124,200.36201243386662 200.11004688375752,200.24845411979257 200.0454519950666,200.11912177425387 199.99174157692616,199.97440057528485 199.9508325542717,199.81488743005644 199.92462810952767,199.64139754834093 199.9149936500887,199.45496873450043 199.92373165472029,199.25686319160462 199.95255563732533,199.04856664840236 200.00306349349248,198.83178464049374 200.07671052071998,198.60843580114874 200.17478242677052,198.38064204473048 200.298368661845,198.1507155564929 200.44833642874002,197.9211425364682 200.62530574046394,197.69456368203058 200.82962590652562,197.47375143325442 201.06135383689522,197.26158404706354 201.32023455610275,197.0610166100305 201.60568431875853,196.87504914511882 201.91677671165135,196.70669201420392 202.25223211625124,196.5589288653592 202.61041088870647,196.43467742110394 202.98931059212427,196.33674845049617 203.386567587968,196.26780331350193 203.79946325975743,196.23031050983852 204.22493510296283,196.2265017058092 204.65959287014545,196.25832775084365 205.09973991020718,196.32741522984696 205.5413997853331,196.43502412735796 205.98034818919083,196.58200720425103 206.412150125619,196.7687717066334 206.8322022389072,196.99524403906366 207.23578011542824,197.2608380396641 207.6180903025139,197.56442749257735 207.9743267148047,197.90432350304923 208.29973102168395,198.27825734178978 208.589656532711,198.68336933783985 208.83963502214544,199.11620436270326 209.04544585971087,199.57271440284103 209.20318674372277,200.04826866271884 209.30934526568365,200.53767157651353 209.36087047353098,201.035189033504 209.35524354501916,201.53458304039938 209.29054663434,202.029154953833 209.16552891512308,202.51179731853532 208.97966881247623,202.97505424200014 208.73323139673354,203.41119012560418 208.42731990303207,203.81226645610255 208.06392034460688,204.17022624129459 207.64593820455863,204.47698555065818 207.17722622147213,204.72453149722384 206.66260232919424,204.90502587234852 206.1078568707084,205.01091352189798 205.5197482806182,205.0350344322864 204.90598652034603,204.97073837955193 204.27520365465392,204.81200088592217 203.6369110772049,204.55353912793674 203.0014430260979,204.1909263499492 202.37988617691636,203.72070325853275 201.78399525990417,203.14048480873544 201.2260948182754,202.4490607439943 200.7189674050209,201.64648821946858 200.27572870431098,200.73417482513457 199.90969025893068,199.71495033161082 199.63421068512764,198.59312550961536 199.46253645862936,197.3745364242745 199.4076335580379,196.06657267907664 199.4820114518246,194.6781881817421 199.69754111007325,193.2198931260427 200.06526890919207,191.70372602977142 200.59522847417958,190.14320483944124 201.2962526657739,188.5532563063945 202.17578806600835,186.95012305599423 203.2397144424033,185.35124801028766 204.49217177537054,183.77513608346231 205.93539751259348,182.24119334668805 207.56957676550442,180.76954415233482 209.392708184006,179.38082701450688 211.40048823398692,178.09597036042425 213.58621655591895,176.93594959217845 215.9407250001488,175.92152722724157 218.45233281400408,175.07297821498295 221.10683029648334,174.40980285125778 223.88749303747738,173.95043002956209 226.77512861999966,173.71191387080174 229.74815738610422,173.70962705976126 232.78272855085592,173.95695448014743 235.85287259525106,174.4649909768539 238.9306904802734,175.24224727908955 241.9865798027846,176.29436828655616 244.9894975627439,177.6238680484134 247.90725873394445,179.22988584699797 250.70686933124065,181.10796783110982 253.3548921508595,183.24987862342633 255.8178428321183,185.64344724995192 258.0626133544836,188.27245160352672 260.0569195496437,191.11654545603545 261.7697686807817,194.15123177340334 263.17194262754515,197.34788576275872 264.2364917226297,200.67383069201696 264.9392338219634,204.09246906913168 265.2592527628935,207.56347125271444 265.17938998128716,211.04302298987807 264.6867227267883,214.48413274412806 263.7730220432232,217.836998989961 262.43518347568,221.04943691650368 260.6756233341385,224.0673632059535 258.5026332922708,226.8353367405855 255.93068613519938,229.2971522524112 252.98068559693604,231.39648307079327 249.6801534514973,233.0775682548446 246.06334734498273,234.28593852942797 242.17130328188105,234.96917458684828 238.05179720911568,235.0776904823078 233.7592207762541,234.56553405177593 229.3543670889768,233.39119552836448 224.90412311311275,231.5184148401034 220.48106632463396,228.91697745077607 216.16296423185503,225.5634880687474 212.03217651308978,221.4421111088379 208.17496070805683,216.545266461221 204.68068366475157,210.8742689104565 201.6409422641861,204.439899467791 199.14859831074,197.26289694052196 197.29673387187415,189.37435827219593 196.17753476232195,180.8160365540813 195.88111127806476,171.64052613766557 196.49426667678927,161.91132497416118 198.0992252555604,151.7027651727084 200.7723331737661,141.0998038046974 204.58274639007067,130.19766718590802 209.5911212058333,119.10134323728862 215.84832391372868,107.92491805317202 223.39417691877495,96.79075448418995 232.256259409591,85.82851236028426 242.44878119105388,75.1740119237913 253.97154862711858,64.96794409781742 266.80904176706616,55.35443336293537 280.92962162405775,46.47946123504252 296.28488622755737,38.48916060626473 312.80919346899105,31.527993504132326 330.41936789336745,25.73682711498182 349.0146074515577,21.250925176984765 368.4766048145042,18.197874046175002 388.6698961609445,16.69546484385947 409.4424483868084,16.84955507345464 430.62649345338207,18.75193491607203 452.03961610243243,22.47822504379144 473.4860984334924,28.08583419443437 494.758521879029,35.61200589922092 515.6396239489313,45.07198461346775 535.9044037722966,56.45733204043873 555.3224669714693,69.73442463150744 573.6605967941362,84.84316306630738 590.6855347411015,101.6959239418153 606.1669502007999,120.1767829099963 619.8805748803868,140.14103708429525 631.611474154068,161.4150526747258 641.1574238813262,183.7964615032052 648.332357831991,207.05472729379724 652.9698476444554,230.93209943096628 654.9265742913765,255.14496824278487 654.0857473879765,279.38563181145815 650.360426405405,303.3244798629155 643.6966959983129,326.6125954694327 634.0766462729781,348.8847701496136 621.5211079587607,369.76292251042605 606.0920921468401,388.8599048945971 587.8948845676528,405.78367662800457 567.0797453290056,420.1418164662307 543.84316666172,431.5463407832686 518.42864354383,439.6187879997153 491.1269151157335,443.99552378865815 462.2756385674792,444.3332158046746 432.2584616774243,440.3144211382247 401.50346540167686,431.6532244898277 370.48095383949095,418.10086027305556 339.7005755046601,399.4512475803693 309.7077670802592,375.5463632685232 281.07951867670454,346.28137542644896 254.41946799334528,311.6094572612294 230.3523396334244,271.54620005602186 209.51775506261126,226.17354339141386 192.5634482436068,175.6431413459887 180.13793172514357,120.17908496249711 172.8826678053327,60.0799039333491 171.42380921085405,-4.280225736398904 176.36358341134041,-72.45113636007943 188.27140409249694,-143.90724761352345 207.67480230669906,-218.049124774058 235.0502782667392,-294.2060624261257 270.81418250524786,-371.63973024963957 315.3137420463889,-449.54890674944386 368.81835318582205,-527.0753149844074 431.5112673103273,-603.3105615896684 503.48179977522165,-677.3041667497041 584.7181940673531,-748.0726583842315 675.1012741945639,-814.6096887820416 774.3990173497535,-875.897116404059 882.2621763027305,-930.9169797367499 998.2210765941737,-978.6642740856798 1121.6837073782458,-1018.1604262453347 1251.9352166373178,-1048.4673462661988 1388.1389114480876,-1068.7019202751646 1529.3388520093226,-1078.0507937105472 1674.4641142675537,-1075.7852806347726 1822.334780243295,-1061.2762222167628 1971.6696976381165,-1034.0086062638936 2121.096031089871,-993.5957500607444 2269.1606066661716,-939.7928409648848 2414.343028997664,-872.5096234372495 2555.070527034956,-791.8220176545076 2689.7344599749185,-697.9824537571799 2816.7083896791733,-591.4287073069477 2934.367600161323,-472.79102581584186 3041.109918735007,-342.89734340080986 3135.37766749939,-202.77639081448683 3215.680548319548,-53.65852138137615 3280.619239680144,103.02591023077375 3328.9094601097236,265.6507599468811 3359.406230658201,432.40101784836816 3371.1280485359716,601.2825386444906 3363.280665866618,770.1346457864811 3335.280151940617,936.6456446735364 3286.7749047520037,1098.3712465766837 3217.6662683089216,1252.7558687977776 3128.127406569631,1397.156738482435 3018.6200831827887,1528.8706877582367 2889.9089987911807,1645.163486857091 2743.073344744373,1743.301520028772 2579.5152438712753,1820.585566825509 2400.9647656583447,1874.3864092358178 2209.4812248819785,1902.1819437007985 2007.4504995208695,1901.595436818591 1797.5781356318485,1870.4345251134234 1582.878043755368,1806.730523213967 1366.6566332020122,1708.777571760135 1152.4922770675669,1575.1711269500001 944.2100517686457,1404.845268457582 745.8517499477912,1197.1082820941544 561.6412243567086,951.6759586264876 395.94518230615233,668.7020411530251 253.22961491547528,348.8052508836669 138.01211207830892,-6.907674465130697 54.81038209022876,-396.8234837518618 8.08736350377734,-818.8089916870092 2.1933851712005037,-1270.203241703185 41.3058977404784,-1747.8157243523767 129.3673651750318,-2247.9310794553267 270.02196722570545,-2766.3206582647213 466.5518222221412,-3298.261261780114 721.8134930800443,-3838.561303269432 1038.1755870463871,-4381.594567323541 1417.458300438513,-4921.341654827128 1860.8757925071143,-5451.439113618916 2368.982296631661,-5965.236159005816 2941.6228914522303,-6455.858787477388 3577.8898584245676,-6916.280981841597 4276.085544905798,-7339.402597593948 5033.6926325715785,-7718.133409763974 5847.352679174526,-8045.48268798945 6712.853756937768,-8314.653556474257 7625.127952926393,-8519.141286198112 8578.259425388662,-8652.834560747238 9565.503625298481,-8710.118655963566 10579.318194316304,-8685.979378846614 11611.405939449978,-8576.106524396684 12652.77016135466,-8376.995531976181 13693.782478165052,-8086.045956890688 14724.263140899622,-7701.655319828024 15733.57368090811,-7223.30685805703 16710.72156583144,-6651.649679321634 17644.47636958731,-5988.569813511832 18523.496785641688,-5237.250669669038 19336.467633117456,-4402.221437762962 20072.24582413027,-3489.392026863256 20720.01408028296,-2506.073204531752 21269.441008787602,-1460.9806969782674 21710.845976627912,-364.2221260169157 22035.36705702281,772.7342028602014 22235.130168781056,1937.1094871706553 22303.417388557784,3114.8842339844646 22234.832291162198,4290.888130498428 22025.460066530846,5448.910202915183 21673.02007632137,6571.829250478133 21177.00845076412,7641.764288351182 20538.828289773912,8640.244466225975 19761.905023540407,9548.397651493802 18851.784508869652,10347.15657924019 17816.21149016384,11017.481179202505 16665.186139574194,11540.59539543617 15410.996510680176,11898.236521273857 14068.224894840137,12072.914783963171 12653.726259541098,12048.18063405142 11186.577173649812,11808.89692821743 9687.993885001755,11341.51294501384 8181.218510357906,10634.336945125735 6691.372625027393,9677.803785538563 5245.277897515561,8464.733924674068 3871.2438010199207,6990.580017242928 2598.822845554473,5253.65719727404 1458.5342085202744,3255.3530893096026 481.5570937357531,1000.3135746289704 -300.60438511516435,-1503.39962521721 -856.4825258402907,-4244.183398506471 -1155.030814744636,-7206.8034375311245 -1166.0289338974424,-10372.34369127006 -860.5043052633703,-13718.198338039656 -211.16602488111187,-17218.109229205456 807.1533919380477,-20842.2513871243 2217.053437623332,-24557.36871579972 4038.1235640974787,-28326.96160276227 6286.509339249045,-32111.527557675847 8974.492766842217,-35868.85545023447 12110.092951870083,-39554.373280924105 15696.693454709153,-43121.548747948385 19732.70277069034,-46522.34116761204 24211.254391145343,-49707.70257012035 29119.95284243315,-52628.1250352697 34440.67195634754,-55234.230560807824 40149.411394838746,-57477.39897898705 46216.21713116976,-59310.42866331693 52605.171176406,-60688.22400761179 59274.45533346003,-61568.50292349219 66176.49316083077,-61912.51690130562 73258.17363588767,-61685.77552401381 80461.15922550154,-60858.76672518874 87722.28020373224,-59407.6635521232 94974.01610717927,-57315.00774435763 102145.06419487213,-54570.36007758646 109160.99368896567,-51170.9071634712 115944.98342408724,-47122.01424733006 122418.63933738295,-42437.713517278535 128502.88699983824,-37141.117538563456 134118.9331352125,-31264.74766292267 139189.28881004488,-24850.767640980397 143638.84572173757,-17951.11319078667 147395.99577783668,-10627.508950897789 150393.78296509926,-2951.3650735711894 152571.07536930186,4996.453307429781 153873.74414396874,13125.989371261472 154255.8352564914,21338.695029106435 153680.7189817934,29528.071416385166 152122.20138490858,37580.45086107731 149565.58145230197,45375.92006476438 146008.6371145978,52789.382458270076 141462.52316678135,59691.7558255201 135952.56405092977,65951.29934444148 129518.92463473734,71435.06219144368 122217.14250844796,76010.4438173323 114118.50594324419,79546.85395031307 105310.26251344867,81917.45834068385 95895.64448837755,83000.99425802354 85993.69844995542,82683.63781257998 75738.9081890126,80860.90332660235 65280.60177318049,77439.55325775783 54782.13575586537,72339.4956051432 44419.851798945325,65495.64433849044 34381.80349812531,56859.71721243744 24866.253912239983,46401.944388964665 16079.947185679172,34112.66062009964 8236.160692253787,20003.753365961275 1552.5472916476108,4109.939164613303 -3751.2194550189224,-13510.159147980574 -7455.980950315946,-32773.161128034575 -9345.79061149269,-53570.32906676229 -9210.749496979035,-75767.2443228619 -6849.954444170215,-99203.78217890009 -2074.5295066278945,-123694.40555210522 5289.291516293032,-149028.79528585973 15397.066459518634,-174972.8317490469 28383.067631142647,-201269.93908722448 44357.26590976883,-227642.79971872075 63402.41780617795,-253795.4425722175 85571.29871034111,-279415.70414803375 110884.1266238387,-304178.0567867449 139326.221278035,-327746.7935854051 170845.94362038377,-349779.55425860896 205352.9601792572,-369931.1709494886 242716.87576047238,-387857.80761038046 282766.2762602145,-403221.36115509184 325288.22107911034,-415694.0871995983 370028.2216771348,-424963.4079248663 416690.7392122644,-430736.85448686325 464940.22995847854,-432747.09153989685 514402.76230991795,-430756.9669073966 564668.2236659838,-424564.52530746715 615293.1293832954,-414007.92139734526 665804.0393110578,-398970.1643191123 715701.5802418534,-379383.6234845638 764465.0649649994,-355234.223603059 811557.6905687425,-326565.2560016911 856432.2902742304,-293480.7331762991 898537.604480766,-256148.21430253834 937325.0279493156,-214801.0311790184 972255.7812486088,-169739.84681150995 1002808.4458413748,-121333.4826108881 1028486.7936100625,-70018.95498983258 1048827.8333297619,-16300.668014688832 1063409.9887132267,39251.28430282178 1071861.3153044533,96003.74451953218 1073867.656810443,153264.07654394352 1069180.6355629084,210284.72820194016 1057625.3668191363,266268.7802391377 1039107.7826673241,320376.4787194727 1013621.4485148893,371732.735339703 981253.7536209141,419435.5670988731 942191.356989871,462565.43316031527 896724.7712666849,500195.4127557833 845251.9701452025,531402.1537547761 788280.9092908076,555277.507218344 726430.8569361819,570940.7490481238 660432.438171867,577551.2759113217 591126.3065369446,574321.6491627664 519460.36781582044,560530.8476949647 446485.49393908057,535537.5787301626 373349.6795214992,498793.4847315778 301290.6097764548,449856.075061353 231626.62622682774,388401.2029553308 165746.09566681154,314234.9020197191 105095.20807081851,227304.39197461508 51164.25042382116,127708.06095610815 5472.425566826287,15704.231510799 -30448.692107120387,-108281.48037404056 -55072.94914818505,-243650.39913242494 -66898.51553618954,-389626.7949428547 -64467.73587848147,-545255.8290091214 -46387.74541985418,-709403.594451689 -11351.645117819817,-880759.3928228153 41839.99071498682,-1057840.367829672 114257.52002371136,-1238998.596674134 206820.81526284677,-1422430.7155751144 320278.3011308507,-1606190.1296473301 455186.7396606088,-1788201.8285269737 611892.0648088059,-1966279.7981571334 790511.5758876887,-2138146.9862135784 990917.8030174023,-2301457.744042346 1212724.3579733763,-2453822.632013252 1455274.0801148538,-2592835.4382243874 1717629.7792934238,-2716102.222914733 1998567.8655766023,-2821272.163181772 2296575.139144803,-2906069.935115977 2609848.9927400737,-2968329.333739457 2936301.2535208436,-3006027.7956789485 3273565.861122014,-3017321.455840326 3619010.5442047194,-3000580.3380218036 3969752.6189351305,-2954423.2509514894 4322678.989850461,-2877751.936209295 4674470.386710713,-2769783.993434046 5021629.820519246,-2630084.0916512045 5360515.18831356,-2458592.9639925323 5687375.900034456,-2255653.6769949393 5998393.342294968,-2022034.6655041492 6289724.933771442,-1758949.0303686936 6557551.465867849,-1468069.6089378835 6798127.360954518,-1151539.3481604345 7007833.419599376,-811976.5370387204 7183231.5685826065,-452474.48947140283 7321121.063938402,-76595.31018002238 7418595.548658227,311642.5745632283 7473100.313892138,707783.3834231946 7482489.066387929,1106959.6424274743 7445079.464398427,1503924.6720466404 7359706.65024482,1893091.9513487918 7225773.981004922,2268581.329588996 7043300.1402218295,2624271.9684069953 6812961.803878168,2953861.8062327155 6536131.033871675,3250933.2413841165 6214906.582504363,3509024.6326315864 5852138.312621747,3721707.116739242 5451443.970474772,3882666.142807223 5017217.592477912,3985787.02434155 4554628.8830366125,4025243.7131530596 4069612.9686156046,3995589.9057775615 3568850.013173897,3891851.5045060604 3059734.271809433,3709619.372741199 2550332.2625831137,3445141.2496961025 2049329.8505090654,3095411.623867048 1565968.1619173926,2658258.3096691146 1109968.3809545867,2132424.4285139865 691445.6218503487,1517644.4657683563 320812.2195373241,814713.0597170943 8670.935887670854,25545.179035197518 -234301.26231794994,-846773.6376123303 -397478.0362398144,-1797948.2714604037 -470416.1392259338,-2822447.481484004 -442994.3723956225,-3913490.9965251195 -305557.7342801445,-5063051.316580353 -49065.31562676739,-6261871.18716399 334759.6532748905,-7499497.580280054 853279.3289511247,-8764332.866055908 1512792.2020348357,-10043703.691087691 2318387.4189077835,-11323947.893875938 3273804.520098796,-12590519.585513046 4381300.707383663,-13828112.306431567 5641527.799462235,-15020799.939221967 7053421.0603637025,-16152194.815254748 8614102.08346507,-17205622.20133529 10318797.885506367,-18164310.094395347 12160778.307779694,-19011592.99004306 14131313.73454693,-19731128.027650848 16219655.020782514,-20307121.653765764 18413037.37194808,-20724564.690380123 20696709.737433914,-20969473.4485479 23053991.06668404,-21029134.294659387 25466354.533384975,-20892348.860150743 27913540.559402484,-20549676.88933595 30373699.167777475,-19993673.548217855 32823561.864897296,-19219117.873319518 35238642.898226775,-18223228.92744817 37593469.36048219,-17005866.152375612 39861839.21706642,-15569710.370004894 42017105.92462486,-13920421.886756044 44032487.88880489,-12066772.20338122 45881400.58321868,-10020745.926596582 47537808.72408961,-7797609.621746343 48976595.471333936,-5415944.538677324 50173945.212409936,-2897640.3870559675 51107736.085951224,-267847.6328927302 51757938.0239457,2445113.8651817422 52107011.74016699,5209891.664195468 52140303.77488311,7992284.328027881 51846432.42775562,10755472.64740629 51217659.17840246,13460298.798615644 50250240.01329531,16065593.175095558 48944750.95418417,18528548.015103754 47306382.02248466,20805136.307613447 45345193.88097098,22850573.793545887 43076331.4731422,24619821.196981948 40520189.13561352,26068123.128469232 37702521.892996825,27151579.407896563 34654497.96035228,27827743.86612283 31412687.876953784,28056245.011637744 28018986.177424453,27799422.300378736 24520462.071851887,27022971.133158 20969136.253842905,25696589.135914635 17421681.682038877,23794615.763250057 13939046.982657269,21296656.815486684 10586001.993228508,18188185.083729796 7430605.904735319,14461108.045779116 4543599.4534857245,10114293.337481033 1997723.6567258197,5154042.627966116 -133031.33250036146,-405495.4587932005 -1774242.5662593406,-6541982.602337606 -2851930.0278962613,-13224627.19532317 -3293484.80430835,-20414008.49213576 -3028641.6472344724,-28061996.56819663 -1990486.773870154,-36111775.51057976 -116490.70513873332,-44497976.4735917 2650445.055600338,-53146926.31077109 6360939.623581828,-61977016.43975913 11058095.567600368,-70899195.41291589 16776486.661862796,-79817587.36050634 23541184.84504757,-88630237.05281126 31366841.14720444,-97229980.80264916 40256835.6633227,-105505440.81246416 50202511.80437592,-113342138.87433298 61182510.02934501,-120623723.57274733 73162216.04349548,-127233303.33655944 86093338.0289543,-133054875.85744308 99913626.84514782,-137974842.55865583 114546752.29274774,-141883594.98233065 129902347.47146852,-144677158.18971297 145876231.97793412,-146258874.56161743 162350823.18604603,-146541109.77156317 179195743.13285536,-145446961.20786026 196268626.60478848,-142911947.76989195 213416133.89226213,-138885658.78454798 230475169.3683256,-133333338.80731362 247274304.5654021,-126237384.31444162 263635401.79295787,-117598727.78227332 279375431.5807469,-107438084.4100917 294308474.3729366,-95797036.79498151 308247893.96679074,-82738933.22996315 321008667.2171811,-68349575.98640479 332409851.5493932,-52737676.971772544 342277168.87402236,-36035059.53409287 350445681.6179852,-18396586.92138009 356762533.81517094,199.99999956309216" stroke="white" stroke-width="1.5" /></svg>