<?xml version="1.0" encoding="utf-8" ?>
<svg baseProfile="full" height="400" version="1.1" width="400" xmlns="http://www.w3.org/2000/svg" xmlns:ev="http://www.w3.org/2001/xml-events" xmlns:xlink="http://www.w3.org/1999/xlink"><defs /><rect fill="black" height="100%" width="100%" x="0" y="0" /><circle cx="200" cy="200" fill="yellow" r="10.000015056800791" stroke="orange" stroke-width="2" /><polyline fill="none" points="200.10288701787547,200.0 200.0097102338134,200.00050974291807 199.91077543218063,199.99060634880354 199.8069476254821,199.96937161021356 199.69921128679,199.93595545517735 199.58866612512386,199.88959071246438 199.47652114501938,199.8296078221566 199.36408694929207,199.75544930445167 199.25276626311293,199.66668379008934 199.14404267817525,199.56301940806406 199.0394676377937,199.44431632058385 198.94064570705723,199.31059819176048 198.84921819644705,199.16206237546592 198.76684523239803,198.9990886093374 198.69518639386357,198.82224600621416 198.635880059759,198.63229814147346 198.59052163789914,198.43020604490698 198.56064087138935,198.21712891901095 198.5476784430307,197.9944224219007 198.5529621218074,197.7636343725007 198.5776827175682,197.52649775817625 198.62287013022382,197.28492095048466 198.68936979778576,197.04097506311746 198.77781986299203,196.79687841722023 198.88862939074411,196.55497811290738 199.02195797775826,196.31772874168703 199.17769710138222,196.0876683123801 199.35545355613166,195.86739150261982 199.55453532387443,195.65952038876978 199.77394021648587,195.4666728486781 200.0123476180031,195.29142887363022 200.26811363665075,195.13629506767575 200.53926995548105,195.00366765365567 200.82352664369932,194.89579434519155 201.1182791590274,194.8147354820364 201.4206197347502,194.76232486193527 201.72735330351492,194.74013073489647 202.03501806370042,194.74941745492427 202.3399107435088,194.79110830920533 202.6381165631854,194.86575006488422 202.92554383735722,194.97347978833457 203.1979630978714,195.1139945006875 203.4510505532699,195.2865242358141 203.6804356347756,195.48980906251032 203.88175231107664,195.72208062089814 204.0506937860355,195.98104870369102 204.18307012552128,196.26389338570772 204.27486829273516,196.56726316966265 204.32231400656804,196.8872795727153 204.32193477564252,197.21954852651513 204.27062340271104,197.55917890362863 204.16570120099416,197.90080841548232 204.0049801168337,198.2386370516145 203.78682291268754,198.5664681475263 203.51020053196592,198.87775707930695 203.17474574343393,199.1656674881458 202.78080214876013,199.42313483761652 202.32946763310215,199.642937002129 201.82263134612833,199.8177714772077 201.26300332024056,199.94033869239033 200.65413586453764,200.0034307967769 200.00043591767837,200.00002517690973 199.30716760057382,199.92338185813273 198.5804442809204,199.76714383533485 197.82720954598847,199.52543927855632 197.05520657764433,199.1929844648999 196.27293553397874,198.7651862021416 195.4895986646235,198.23824243297813 194.7150330211617,197.6092396435804 193.9596307690819,196.8762456475987 193.23424726240438,196.0383962784996 192.55009720514244,195.0959745005305 191.9186393936829,194.05048044304377 191.3514507093247,192.9046908755706 190.86009020877572,191.66270667298403 190.45595434038282,190.32998687222053 190.1501244931099,188.913367995047 189.95320826151263,187.42106740575215 189.87517598078378,185.86266958866867 189.92519424887885,184.24909436809662 190.1114583052198,182.59254625224034 190.44102527491862,180.90644426263944 190.91965041125445,179.20533181042964 191.55162857468926,177.5047663994613 192.33964327148317,175.8211891723749 193.2846256365246,174.17177456740885 194.38562578100343,172.5742606189127 195.63969893386533,171.04676071085942 197.0418087846369,169.60755787740794 198.58475038248216,168.27488303477693 200.25909486079317,167.06667882111364 202.05315813710308,166.00035101218256 203.95299558384173,165.09250976685462 205.94242447603364,164.3587032336499 208.00307579746143,163.81314631393448 210.1144767275242,163.46844762463897 212.2541648379136,163.3353379293323 214.39783470269097,163.42240350691125 216.51951726925006,163.7358280978518 218.5917919533835,164.27914720479282 220.58603101212296,165.0530186232213 222.47267531659855,166.05501313543095 224.221540197765,167.2794293132339 225.8021495748535,168.71713633894868 227.1840961046841,170.3554486671717 228.33742461479102,172.17803620943732 229.2330356103576,174.16487352824817 229.84310518025936,176.29223127484457 230.14151717740455,178.53271279584206 230.10430311962506,180.85533846750886 229.71008485635085,183.22567989371908 228.9405146800685,185.60604562598397 227.78070723699318,187.95571953369478 226.21965731531137,190.231252372882 224.25063736845553,192.386806476295 221.8715684715968,194.3745528211619 219.08535831799816,196.14511902914418 215.90019984373114,197.64808612211652 212.32982412966575,198.83253110462837 208.3937013731093,199.64761167713294 204.11718395176734,200.04318861190862 199.53158592278427,199.9704805552864 194.67419371152303,199.3827452651538 189.5882032494863,198.2359805620324 184.32257941830593,196.48963757601612 178.93183434581576,194.10733822149254 173.47572187842937,191.057588237996 168.01884641766713,187.31447660994493 162.63018525267907,182.85835173149127 157.3825245386451,177.67646432610206 152.3518101552865,171.7635668742647 147.61641582134897,165.12245915676604 143.25633202944908,157.76446949454083 139.35228058947118,149.7098613674533 135.98476081489355,140.98815533085696 133.2330346410177,131.6383565264944 131.17405921201234,121.70907860798849 129.88137669900968,111.25855557412063 129.42397229744012,100.354533826903 129.8651124809689,89.0740377459882 131.2611766439631,77.50300319418804 133.66049622624598,65.73577463678907 137.1022162648154,53.874462963855194 141.61519503920022,42.02816264159716 147.2169580525814,30.312028475762304 153.91272300275023,18.84621403429861 161.6945126293247,7.754675633486727 170.5403723614897,-2.836152275535113 180.41370952036272,-12.798802493438899 191.2627704401034,-22.006331380784815 203.02027125220636,-30.33397419733791 215.6031972203732,-37.66088555548612 228.91278441371568,-43.87194908108083 242.8346961612175,-48.85963845016224 257.23940514070637,-52.52591013813003 271.98279012442356,-54.784106507998786 286.9069543372259,-55.56084630586403 301.8412700925113,-54.79787825416423 316.60365186853,-52.45387226596657 331.00205729081824,-48.50612187498169 344.8362126155896,-42.952130813841706 357.89955628808855,-35.81105630343623 369.98139100671955,-27.12498156300498 380.86923148909005,-16.959990336079386 390.35133184407766,-5.4070168703689205 398.2193731417618,7.417554193716569 404.27128848039524,21.371562168676974 408.31419961880044,36.287041245559834 410.16743611801587,51.97050815018406 409.66560496364275,68.2035840874399 406.66167586736015,84.74396554586009 401.0300449203047,101.32675516807943 392.66953704044596,117.66616016124986 381.5063057682512,133.4575616469271 367.496587466261,148.37995396012036 350.6292659133883,162.09874823558332 330.92820269613424,174.26892970525856 308.4542887256873,184.5385530189639 283.3071726874631,192.5525546412701 255.62662328900797,197.95685602663096 225.59348383913706,200.40272589258655 193.43017998560688,199.55136456215453 159.40074437408174,195.0786681001009 123.81032557401461,186.6801248957758 87.00415284613292,174.0757925223807 49.36593319216013,157.01529820558085 11.315662612344624,135.28280214106053 -26.693160426476027,108.70185928888638 -64.17692467611101,77.14011221957823 -100.62589716492835,40.51374516798589 -135.5088062469929,-1.2083722609945937 -168.27799926781518,-48.000924227584306 -198.37514915963544,-99.77884322362587 -225.23747572963146,-156.39453186240598 -248.30443870809046,-217.63568193877705 -267.0248508789475,-283.22375807352176 -280.8643509276256,-352.8132095025775 -289.31316712273855,-425.99146877650617 -291.8940947162588,-502.2797902883475 -288.1706021227693,-581.1349746510117 -277.75497364706973,-661.9520170141288 -260.31638989710206,-744.0677084742273 -235.58884117251688,-826.7652098351132 -203.37876418358098,-909.279606176086 -163.57228855293897,-990.8044390582381 -116.14197680180769,-1070.499200832484 -61.15294003369047,-1147.4977625117592 1.2317885941084228,-1220.9176931530876 70.74673918514802,-1289.8704147966278 147.0204629032549,-1353.472122875713 229.57307147278868,-1410.8553878044197 317.814961454575,-1461.181339339137 411.04681853740675,-1503.6523214799145 508.4609875405589,-1537.5248923170147 609.1442825730062,-1562.1230305356469 712.0822988656672,-1576.851398469959 816.1652732325252,-1581.208500851588 920.1955239964658,-1574.7995689338666 1022.89648363267,-1557.3489916940594 1122.9233184567454,-1528.7121095213406 1218.875109562194,-1488.8861813786802 1309.3085480624684,-1438.0203340632165 1392.753075711027,-1376.4243020488839 1467.7273793761815,-1304.5757686278382 1532.7571248761415,-1223.1261238047973 1586.3937925940816,-1132.904461749543 1627.234454372874,-1034.9196506611665 1653.9423087305665,-930.3603206989103 1665.2677697510785,-820.5926312136246 1660.069884411262,-707.1556968634629 1637.337833935176,-591.7545732744553 1596.2122573525241,-476.2507266317532 1536.0061201153685,-362.649937842786 1456.2248377258786,-253.08762054213747 1356.585354170746,-149.81156301246494 1237.033867855233,-55.162136838854025 1097.7618939744596,28.44995048194994 939.220352122389,98.56824600763854 762.1313716641558,152.71733518397008 567.4975151972229,188.43163200123254 356.60813247698957,203.28595091742145 131.04257361827834,194.92759876086674 -107.32998870603166,161.10968835633253 -356.3543529236654,99.72534041679765 -613.5968930091278,8.842406831130717 -876.3571342940738,-113.26168260887874 -1141.683422566473,-268.06537621772145 -1406.3927656255194,-456.76921014546497 -1667.0948798528732,-680.2632436714488 -1920.2204242278845,-939.09620829543 -2162.0533509423694,-1233.4468702729614 -2388.7672458115417,-1563.0981122051444 -2596.465473548788,-1927.4142393673092 -2781.224883249432,-2325.322010250057 -2939.142768750761,-2755.295877947609 -3066.3867175912164,-3215.347909276622 -3159.2469218224246,-3703.0228216273977 -3214.190464717374,-4215.39854339552 -3227.9170402871464,-4749.092662352778 -3197.4155083175388,-5300.275077517107 -3120.0206372362504,-5864.687114089874 -2993.46934140203,-6437.667298059351 -2815.955679252204,-7014.183917438331 -2586.183845026332,-7588.874421231778 -2303.4183603517454,-8156.091625642201 -1967.5306536482271,-8709.956610349504 -1579.0412058557085,-9244.41809668521 -1139.156441120844,-9753.318004999874 -649.7995514381226,-10230.4627914391 -113.63446538316487,-10669.700065732337 465.91779653978995,-11064.99989258574 1084.6710934377284,-11410.540081060419 1737.6751201597992,-11700.794670184867 2419.2259380061278,-11930.624726331547 3122.886590409553,-12095.37047996502 3841.5182227134874,-12190.943747655885 4567.3220225700325,-12213.919511185255 5291.8921840753,-12161.625460572766 6006.279975227426,-12032.228253359828 6701.068855500301,-11824.815199855879 7366.460449299708,-11539.47005462844 7992.371033014182,-11177.341579541762 8568.538039661109,-10740.70354427758 9084.635927291687,-10233.004847540293 9530.400597044565,-9658.90847695982 9895.761385858255,-9024.318078799903 10170.979499326118,-8336.39098052052 10346.791594081373,-7603.536600399222 10414.557068605101,-6835.399288941112 10366.40747870257,-6042.824776619782 10195.396361396493,-5237.809551275199 9895.647630964224,-4433.432655661338 9462.500605630355,-3643.7695803446727 8892.649635317634,-2883.788128278108 8184.276232097119,-2169.2263435116124 7337.17155771651,-1516.4528259682806 6352.8470988509725,-942.3099950507478 5234.631362383445,-463.9411148129759 3987.7504517632105,-98.60215003926339 2619.390442767966,136.54021693211246 1138.739564003739,224.62281739889931 -442.9916948712014,149.31062513462382 -2112.574275329881,-104.97032094985701 -3854.7895903461654,-552.7940484243555 -5652.485249041374,-1207.4924167674912 -7486.658559211927,-2080.9123109810503 -9336.56862900868,-3183.175252245361 -11179.877588247828,-4522.442584798744 -12992.821122424028,-6104.689540667519 -14750.408160750438,-7933.4915947878235 -16426.649186226794,-10009.826598961783 -17994.812244021814,-12331.896220683453 -19427.70531799882,-14894.970209124562 -20697.983328080012,-17691.256962763382 -21778.47757781075,-20709.80377891703 -22642.545056800176,-23936.430022860557 -23264.434581871425,-27353.69626182074 -23619.666349248953,-30940.912165978414 -23685.42107368229,-34674.18568432177 -23440.93451499943,-38526.515658003205 -22867.89284427792,-42467.92963865186 -21950.82398676183,-46465.66823544425 -20677.479802987807,-50484.41682491623 -19039.203739381057,-54486.58492451221 -17031.278400747557,-58432.63295844763 -14653.247375291272,-62281.445537091786 -11909.205583358618,-65990.74973397888 -8808.052428971643,-69517.57618365232 -5363.702112767541,-72818.76014547431 -1595.2456200271943,-75851.4789905804 2472.940868825077,-78573.82187921007 6811.146083169378,-80945.3867121612 11384.336823308271,-82927.89877203963 16152.238238175827,-84485.84482662173 21069.484717095685,-85587.11585771797 26085.844248853562,-86203.65101426055 31146.518378526056,-86312.0748779604 36192.519094766496,-85894.31968374936 41161.12311250022,-84938.22376521127 45986.403084333455,-83438.09720690131 50599.834285739074,-81395.24549004178 54930.97428275387,-78818.44182422446 58908.21201618146,-75724.33887342099 62459.58163393135,-72137.81071692679 65513.63528500879,-68092.21614102482 68000.3679676571,-63629.57474020457 69852.18641398883,-58800.64782149826 71004.91290866752,-53664.91675432961 71398.81389501675,-48290.45219211982 70979.64223403587,-42753.66851004492 69699.68106625871,-37138.95885336916 67518.77639944469,-31538.207368464544 64405.34482294522,-26050.176487855097 60337.34214826123,-20779.768553386577 55303.178310367955,-15837.162577943118 49302.5635507451,-11336.82855408425 42347.27075474914,-7396.423403688961 34461.798845936515,-4135.574410428435 25683.92235972618,-1674.557769019597 16065.112738387297,-132.88170245795675 5670.817516897031,372.21458016008864 -5419.41558913473,-272.66699059409444 -17111.981622670985,-2175.4549722952934 -29299.439001797804,-5436.94032401981 -41860.91696669615,-10149.086739876722 -54662.71729883287,-16393.339021810116 -67559.11583569163,-24238.950450629076 -80393.36718868473,-33741.35128313496 -92998.91377210864,-44940.58147518823 -105200.79778341243,-57859.8114803092 -116817.27215910499,-72503.97547673363 -127661.60378892378,-88858.54160997442 -137544.05942912417,-106888.44378193746 -146274.06184257724,-126537.19915277461 -153662.50074022356,-147726.23483177292 -159524.18013940257,-170354.44620550022 -163680.38082607725,-194298.0079753007 -165961.5137484565,-219410.45724585117 -166209.8374192017,-245523.06591966847 -164282.2098038132,-272445.51721128426 -160052.8427663373,-299966.8983059392 -153416.02497312974,-327857.018062412 -144288.7772638203,-355868.0552144992 -132613.40292809837,-383736.5387819903 -118359.8941184789,-411185.6583863898 -101528.15482212034,-437927.8979108479 -82150.00044598151,-463667.98148467205 -60290.894173030436,-488106.11615218763 -36051.38085323308,-510941.5108503255 -9568.180327758804,-531876.1465203686 18985.09623047125,-550618.7673721698 49397.641126203496,-566889.0585631756 81421.58744122114,-580421.9709123642 114772.61675814973,-590972.14880602 149131.06126209104,-598318.4132357233 184143.51962776907,-602268.2480079938 219425.001008278,-602662.2336493224 254561.6058308153,-599378.3704694083 289113.7460100263,-592336.2297079288 322619.90065413184,-581500.869742545 354600.8964146841,-566886.453042009 384564.6943776943,-548559.4989680053 412011.6578801735,-526641.7077177011 436440.26793787815,-501312.29170510935 457353.2451706669,-472809.7525455562 474264.02930159366,-441433.04456803034 486703.559581064,-407542.0694608028 494227.29195005895,-371557.45127200166 496422.3815126843,-333959.54654425604 492914.9520480712,-295286.6508548917 483377.36796702514,-256132.37044237272 467535.41842294496,-217142.13589492967 445175.3183324533,-179008.84401479503 416150.4269601973,-142467.62389391035 380387.58158249984,-108289.73387349848 337892.94166945,-77275.60732604259 288757.2381117612,-50247.07699600988 233160.3223563868,-28038.819853913545 171374.9119831381,-11489.076933230104 103769.43232172904,-1429.7152954485962 30809.85823028356,1324.2880417880351 -46939.533826400955,-4014.152168207499 -128816.58572234795,-18192.846638510797 -214062.9228959621,-41908.68412658208 -301826.92752610403,-75795.84682555645 -391168.0702546254,-120414.02629562028 -481062.6375386526,-176236.78689015686 -570410.8768368674,-243640.2316494533 -658045.5656822042,-322892.13226229395 -742741.9933845625,-414141.68975730415 -823229.3257787745,-517410.0959132371 -898203.3042455275,-632582.0668135397 -966340.2103667698,-759398.5193704563 -1026312.0072343403,-897450.5588790257 -1076802.5478322117,-1046174.9406209126 -1116524.720298057,-1204851.1611324793 -1144238.3794939842,-1372600.3249144608 -1158768.8944489167,-1548385.9200516779 -1159026.122157422,-1731016.621418064 -1144023.600221844,-1919151.2228823544 -1112897.734202809,-2111305.780252769 -1064926.7405964427,-2305863.024687903 -999549.0933829586,-2501084.0820730417 -916381.2113843558,-2695122.507569477 -815234.1155138022,-2886040.6163779665 -696128.7796680738,-3071828.0619408516 -559309.8967628202,-3250422.581601216 -405257.78247264324,-3419732.797437053 -234698.14382263448,-3577662.926921888 -48609.448064157565,-3722139.2245911006 151772.36059997126,-3851137.9424046306 364952.03279051144,-3962714.563406897 589176.2904738253,-4055034.031032398 822438.4003382385,-4126401.6654480663 1062486.2079864312,-4175294.4291322525 1306833.7648343134,-4200392.176947406 1552776.643747891,-4200608.501754369 1797410.9999936414,-4175120.765625519 2037656.391275865,-4123398.889417779 2270282.324794351,-4045232.4603280146 2491938.4507444547,-3940755.708514535 2699188.270923703,-3810469.900342943 2888546.1785854464,-3655262.6976828133 3056517.5919261645,-3476424.040281583 3199641.889194719,-3275658.1218624343 3314537.799003015,-3055091.050468193 3397950.8456745017,-2817273.8098751954 3446802.397102318,-2565180.171732159 3458239.812346911,-2302199.247469083 3429687.138850905,-2032122.4149191384 3358895.7654688847,-1759124.4068669567 3243994.398291541,-1487738.4071567906 3083537.692273921,-1222825.0642486855 2876552.8437300464,-969535.4017913046 2622583.4275823687,-733267.6803833297 2321729.749571544,-519618.343622969 1974684.9781111837,-334327.26410466264 1582766.3237297959,-183217.59043018628 1147940.546624297,-72130.58368575475 672843.0952262031,-6855.920243805709 160790.21122772724,6941.97385490751 -384216.6204904159,-36199.09560482928 -957494.4449816087,-141459.53120470766 -1553691.3370963181,-313656.62487150606 -2166808.056943019,-557162.3755552924 -2790229.2046250342,-875821.410333822 -3416764.1227710806,-1272870.0392020247 -4038697.6907518003,-1750857.528778448 -4647851.041051706,-2311570.725317217 -5235652.106867021,-2955963.191535213 -5793215.781601278,-3684090.0436862805 -6311433.3366609095,-4495049.683947854 -6781070.605088957,-5386933.617532818 -7192874.296536594,-6356785.523114325 -7537685.665414423,-7400570.7083972255 -7806560.610465584,-8513157.029376082 -7990895.142252483,-9688308.281542715 -8082555.017035127,-10918690.983782815 -8074008.203208228,-12195895.370863965 -7958458.721885688,-13510471.2884132 -7729980.288440492,-14851979.545476345 -7383648.078912637,-16209059.124748612 -6915666.856259388,-17569510.48020864 -6323493.618486394,-18920394.96726312 -5605952.8757405365,-20248150.252967194 -4763342.628356792,-21538721.34501079 -3797529.104395796,-22777706.65979476 -2712028.3250056054,-23950518.324147403 -1512072.6004236946,-25042555.6743604 -204660.11982886834,-26039390.68278671 1201414.114458882,-26926963.80897102 2695547.643033452,-27691788.54209545 4265341.687386812,-28321162.677479796 5896635.390437879,-28803384.15518552 7573564.281277933,-29127969.08672684 9278643.859582698,-29285869.409854777 10992878.942628076,-29269687.444733005 12695899.140424421,-29073884.480949372 14366120.523933182,-28694980.407005165 15980933.229842307,-28131741.30542133 17516914.40554875,-27385351.880451843 18950065.54282757,-26459569.56446857 20256072.881546605,-25360857.165995505 21410589.18948539,-24098490.97945533 22389534.844949335,-22684641.375915673 23169415.769891337,-21134423.037087344 23727655.387397196,-19465912.18267631 24042937.41365556,-17700128.374592416 24095555.946119223,-15860978.76063138 23867768.981834013,-13975162.944641635 23344151.198325377,-12072037.038881982 22511941.55949573,-10183435.865637232 21361381.07617187,-8343452.726931622 19886035.860641725,-6588176.650453206 18083100.47193639,-4955387.542995783 15953676.458728531,-3484210.2356079835 13503020.974171624,-2214728.9823187306 10740760.366044495,-1187564.571260344 7681063.739954355,-443416.81709995645 4342771.656294695,-22575.82020740045 749475.3557110152,35594.006306251424 -3070457.785145698,-306807.46663682157 -7083916.484736512,-1085660.062343414 -11253138.936466943,-2334255.615922071 -15535870.270199934,-4082724.9270394784 -19885586.427628156,-6357466.132629907 -24251786.113643732,-9180581.72157877 -28580351.750248745,-12569331.790110508 -32813979.56315991,-16535611.444036791 -36892678.079913035,-21085460.483699936 -40754333.4188706,-26218613.651309807 -44335338.80906956,-31928099.77090004 -47571284.810281545,-38199898.061407916 -50397705.711033255,-45012659.74736181 -52750876.5805404,-52337502.8241251 -54568654.45033667,-60137887.45147271 -55791356.115388304,-68369578.94748938 -56362664.08588004,-76980704.73266968 -56230551.30340669,-85911910.83135663 -55348214.37316662,-95096622.67542861 -53675004.271376766,-104461413.97618008 -51177342.77901738,-113926486.33896878 -47829612.28364654,-123406261.09750204 -43615006.094576985,-132810083.54836424 -38526326.04692875,-142043038.38108733 -32566713.94003589,-151006873.63598543 -25750303.277630005,-159601028.9941485 -18102777.862276565,-167723762.6260297 -9661824.0545884,-175273369.21329874 -477463.94714790635,-182149480.13081837 9387742.669479927,-188254435.1509319 19858638.85097926,-193494713.4311204 30847563.840270836,-197782409.99005356 42254608.27994214,-201036742.38841465 53968038.9649232,-203185570.9327375 65864899.20878745,-204166914.4362637 77811789.11918518,-203930442.4241363 89665828.127587,-202438923.68455973 101275800.00834522,-199669610.26593223 112483478.36768131,-195615535.4246926 123125128.20293938,-190286703.66094807 133033176.64748074,-183711150.85866815 142038043.45087212,-175935852.69245496 149970119.12399346,-167027459.8895321 156661876.03337145,-157072839.65725353 161950095.08962333,-146179403.61386797 165678188.074573,-134475203.90114835 167698593.12543517,-122108780.81622928 167875218.47870585,-109248747.2770912 166085907.3086803,-96083097.72849266 162224894.41373312,-82818231.69518651 156205223.64629415,-69677685.08544886 147961093.38761452,-56900565.52385864 137450096.07376704,-44739691.42737834 124655316.82063808,-33459438.20748182 109587255.60782968,-23333298.853590205 92285537.2960523,-14641170.194675455 72820373.99957988,-7666380.307828074 51293745.03990803,-2692476.801494742 27840260.891466968,199.99999996590577" stroke="white" stroke-width="1.5" /><circle cx="191.49830218033995" cy="249.27191019417847" fill="red" opacity="0.7" r="14.738476308781951" /><circle cx="180.69113542661592" cy="246.1212288310569" fill="red" opacity="0.7" r="14.738476308781951" /></svg>