<?xml version="1.0" encoding="utf-8" ?>
<svg baseProfile="full" height="400" version="1.1" width="400" xmlns="http://www.w3.org/2000/svg" xmlns:ev="http://www.w3.org/2001/xml-events" xmlns:xlink="http://www.w3.org/1999/xlink"><defs /><rect fill="black" height="100%" width="100%" x="0" y="0" /><circle cx="200" cy="200" fill="yellow" r="20" stroke="orange" stroke-width="2" /><polyline fill="none" points="198.8016233788921,200.0 198.76697680006194,199.93527191455388 198.73832105734263,199.86716918670595 198.71618234353326,199.79631813545322 198.70103339161395,199.72342138677314 198.69328376195875,199.64925424900437 198.69327025663506,199.57465994145463 198.70124758827734,199.50054365879382 198.71737943638672,199.4278654671053 198.74173002797576,199.35763204172588 198.77425638211645,199.2908872720937 198.8148013590264,199.22870177460604 198.8630876537293,199.1721613708209 198.91871287194263,199.1223546050476 198.9811458215913,199.08035939228182 199.04972414714652,199.04722890435062 199.12365342579068,199.02397681883545 199.20200783418295,199.01156207161145 199.2837324823329,199.0108732694489 199.3676474968025,199.02271293383114 199.45245391918627,199.04778176070602 199.53674146764178,199.08666309306074 199.61899818925022,199.13980781375145 199.69762200930998,199.20751987468233 199.77093416046225,199.28994268498676 199.83719444999997,199.38704658508956 199.89461829803898,199.4986176352163 199.94139545267407,199.62424794587227 199.97571026107616,199.76332777386972 199.99576334800497,199.9150396004935 199.99979452573777,200.07835439824262 199.98610673228765,200.25203027918596 199.95309076836983,200.43461370127116 199.89925057824237,200.62444338891567 199.82322879569153,200.81965710091166 199.72383225444324,201.01820135216724 199.60005714256138,201.21784416619258 199.4511134633387,201.41619090268935 199.2764484511842,201.6107031693169 199.0757685804469,201.79872078894908 198.84905979834332,201.9774867538036 198.59660561052146,202.14417505607256 198.31900264960075,202.2959212415072 198.01717336355338,202.42985548825118 197.69237547227374,202.54313796856167 197.34620785730385,202.6329962064256 196.98061257158693,202.6967641000279 196.59787268338414,202.73192223514604 196.2006057011368,202.7361390744424 195.79175236403546,202.70731256893328 195.3745606262605,202.64361170227355 194.95256471109101,202.5435174465578 194.52955916408374,202.40586258074498 194.10956789195484,202.2298698002024 193.69680823524368,202.0151875288466 193.295650187796,201.76192283452437 192.9105709440092,201.47067084417125 192.5461050249802,201.14254005841315 192.2067903064716,200.7791729760815 191.8971103441758,200.3827614579756 191.6214334642576,199.9560562864318 191.38394915869142,199.50237041306826 191.1886023945207,199.0255754315982 191.0390265128618,198.5300908658704 190.9384754562284,198.02086592522878 190.8897561205169,197.50335344969218 190.89516167972033,196.98347584603135 190.9564067760754,196.46758290213506 191.0745655048689,195.9624014605537 191.25001315053257,195.4749770321038 191.48237264799374,195.01260753610495 191.77046674962722,194.58276946426494 192.11227687276298,194.19303687937528 192.50490958482038,193.85099377665745 192.94457165214882,193.56414045352415 193.42655453406647,193.33979465131046 193.94522914504336,193.1849883487093 194.4940516352707,193.10636119966327 195.06558085294571,193.11005171670072 195.65150805061563,193.2015874024943 196.24269928317318,193.38577512606213 196.82925081709166,193.66659312382112 197.40055772992736,194.04708607793017 197.9453957269153,194.5292647833597 198.45201603875006,195.11401195926982 198.90825309269655,195.80099578803308 199.30164446954123,196.58859277514878 199.61956247328612,197.47382151405435 199.84935645082126,198.45228891027077 199.9785048071683,199.51815036843337 199.99477547052496,200.66408537276084 199.88639337265084,201.88128979583183 199.6422133266525,203.15948615183873 199.25189650857453,204.48695286871109 198.70608858409807,205.85057348886107 197.9965973698454,207.23590652131966 197.1165677830712,208.62727645953314 196.0606517166496,210.00788625022912 194.8251703809628,211.3599512510218 193.4082665831843,212.66485444962558 191.8100443700403,213.90332243783644 190.03269344476084,215.05562134130176 188.080595784738,216.1017716043345 185.96041193527998,217.02178022074554 183.68114453839775,217.79588869026682 181.25417677506158,218.40483466928396 178.6932835557482,218.83012497819297 176.0146134878799,219.0543173298518 173.23663988003824,219.0613078585913 170.38007931124315,218.83662126149045 167.46777659827734,218.3677001175878 164.5245553336381,217.64418973091793 161.57703353933402,216.6582146542137 158.6534043849862,215.4046428962177 155.78318234957163,213.8813337010666 152.99691566116024,212.0893647172123 150.3258663240922,210.03323434962314 147.80165953366017,207.72103511602546 145.45590477943304,205.1645939087638 143.31979144435422,202.3795752010749 141.42366221170013,199.38554343225746 139.79656808954084,196.2059810618554 138.4658093458233,192.86825909939702 137.4564671096356,189.40355729357427 136.79093082844912,185.84673160239768 136.48842716987977,182.23612706241397 136.56455631242773,178.6133347282931 137.0308418754411,175.02289196089401 137.8943009870516,171.51192599834462 139.157041173111,168.1297414458726 140.81589086362888,164.92735306038549 142.86207034971684,161.95696597851816 145.28090997797324,159.2714063346117 148.05162223563516,156.92350602960565 151.14713415448819,154.96544623411248 154.53398614110296,153.4480650292841 158.1723029230963,152.4201353971426 162.01584178444907,151.9276205569553 166.0121226472726,152.01291439467445 170.10264384382623,152.71407543678492 174.22318661336632,154.0640634662658 178.30421045721351,156.08998845484365 182.27134049731342,158.8123819804503 186.04594691500142,162.2445017001609 189.545815405573,166.3916797456383 192.68590637994262,171.25072608954432 195.37919938789344,176.80939798752007 197.53761794029668,183.04594652209306 199.0730285836501,189.9287510542141 199.8983067440158,197.41605201826886 199.92846052473013,205.45579197195082 199.08180232993448,213.9855741295013 197.28115691171988,222.93274676339934 194.45509322089484,232.21462085535524 190.53916629900505,241.73882721415998 185.4771544015135,251.40381795937836 179.22227560836933,261.09951580204716 171.73836737779658,270.7081129447306 163.0010118509109,280.1050196840452 152.9985892369743,289.1599609420117 141.73324131908032,297.73821699354244 129.2217270340139,305.70200261355126 115.49615221267614,312.91197675832757 100.60455593180009,319.2288727438296 84.611336534702,324.51523671229415 67.59750123719752,328.637260013773 49.66072435074096,331.4666889982298 30.91520053165442,332.8827936454592 11.49128110338799,332.77437448423643 -8.46511660484353,331.041785399549 -28.793334811208013,327.5989482288088 -49.319041243648996,322.3753335360742 -69.85553840957198,315.31788065878436 -90.20531624003922,306.3928290750033 -110.1618451544856,295.58743237030774 -129.5116034052122,282.9115256203843 -148.03632923720846,268.39891687439166 -165.5154849703286,252.10857364903725 -181.72891661316072,234.12557594517318 -196.45968908998015,214.56180829527398 -209.49707364576523,193.55636475549358 -220.6396605340035,171.27564257994834 -229.6985667346343,147.91310256284416 -236.50070524367902,123.68867670645139 -240.89207947192898,98.84780696492936 -242.7410635383714,73.66010231524609 -241.9416267959581,48.41760530078406 -238.4164588336954,23.432663458548404 -232.1199495096223,-0.9645943510165864 -223.04097733211012,-24.429171776104482 -211.20545876782347,-46.60449884763898 -196.67861085609445,-67.12609036980581 -179.56687989012363,-85.62554772678914 -160.01948991936,-101.73487732001337 -138.22956646334836,-115.0910931170938 -114.43479312792738,-125.34106508120442 -88.91756179580858,-132.14656963006837 -62.00458073374733,-135.18949282341816 -34.06590931826378,-134.1771317756955 -5.5133931231046915,-128.84753491830998 23.201521182710763,-118.97481727561888 51.59060533378934,-104.37438295407253 79.13231062635316,-84.90798365715335 105.27587049639865,-60.48853931067805 129.44603627847164,-31.084644891786013 151.04842947130805,3.275313625348076 169.47548504482526,42.49951159443802 184.11295125890626,86.42958303776109 194.3469022227057,134.8381381077267 199.57121010685051,187.4269730903421 199.19541464080675,243.8260416067216 192.65291840170937,303.59325079767643 179.40942755294972,366.21514028556646 158.97154924946756,431.1084945965147 130.89544902424188,497.6229315082258 94.79546424131748,565.044499492132 50.35256327984612,632.6003070867605 -2.677465364894573,699.4641957313647 -64.45621428251053,764.763455380194 -135.0553720742114,827.5865691999131 -214.45007731308561,886.9919599333084 -302.51303729754505,942.0176962152947 -399.00953627539275,991.6921023914755 -503.59345511058086,1035.0452003690534 -615.8044199611043,1071.12089689257 -735.0661913756546,1098.989814563227 -860.6863972575748,1117.7626501021714 -991.8577033658983,1126.6039289966088 -1127.6605034248032,1124.746011972211 -1267.0671975165308,1111.5031959208395 -1408.9481122858588,1086.285740197863 -1552.0790996568214,1048.6136388072666 -1695.150832352042,998.1299501333884 -1836.7797946344654,934.6134887683272 -1975.5209455099089,857.990678829595 -2109.8820093125264,768.3463651585271 -2238.339325345525,665.9333781176658 -2359.3551642929606,551.1806495293338 -2471.396394706105,424.6996817624754 -2572.9543582726524,287.28917920184756 -2662.565788092775,139.93766141777618 -2738.8345801248543,-16.176109637762664 -2800.4542046530787,-179.68504011863956 -2846.230522409604,-349.03808524437727 -2875.1047492048037,-522.507211680754 -2886.176293935466,-698.1970276063794 -2878.7251780091306,-874.0571393207472 -2852.233729896414,-1047.89726327162 -2806.407237048372,-1217.405090034876 -2741.193229126438,-1380.166862312058 -2656.7990617046758,-1533.6905927063517 -2553.7074686120413,-1675.43180922513 -2432.689754152972,-1802.8216775063072 -2294.816303811357,-1913.2973090840756 -2141.464103902391,-2004.334025043011 -1974.3209771419774,-2073.4793046349614 -1795.3862623603009,-2118.388109359035 -1606.9676926488307,-2136.8592351642187 -1411.6742570956867,-2126.8723093797435 -1212.4048668710861,-2086.6250152787643 -1012.3326866470322,-2014.5700964132352 -814.8850369820259,-1909.4516656007204 -623.7188221137064,-1770.3403202720006 -442.69149025148033,-1596.6665473633802 -275.8275895494828,-1388.251887601115 -127.28104200024603,-1145.3373213910816 -1.2933189857490106,-868.6083370713266 97.85223444712786,-559.2161474405078 165.8796150198181,-218.79453262017745 198.5725398519796,150.52819323982243 191.82954716379024,546.1225668982538 141.7213144728242,964.8571533578871 44.54962827998176,1403.1039138173703 -103.09261926320244,1856.7501121161847 -304.2610858664319,2321.2170495087476 -561.6000158182526,2791.4858520701937 -877.2834310739718,3262.1304623229953 -1252.9582873564673,3727.3579072055027 -1689.6904358168636,4181.05582881361 -2187.914252255555,4616.847173089252 -2747.386808071986,5028.151835561876 -3367.1474592218196,5408.254963247372 -4045.48372081268,5750.381508853012 -4779.904274951278,6047.776528609082 -5567.119927553276,6293.790609527387 -6403.033285643999,6481.969706940341 -7282.737869939472,6606.148570144751 -8200.527308068922,6660.54683427287 -9149.915171695666,6639.866761603043 -10123.665926185451,6539.391526903549 -11113.837354699037,6355.0828606021405 -12111.834700164472,6083.676792116805 -13108.476639204317,5722.776175086678 -14094.073062633097,5270.938627986833 -15058.51448865728,4727.758489122964 -15991.372778648729,4093.941365633823 -16882.012662746645,3371.3698531339937 -17719.713415167564,2563.1590171406174 -18493.799848733437,1673.7002604374366 -19193.78162668396,708.6922528665132 -19809.499719378826,-324.8423276550319 -20331.278666208917,-1418.5554013810902 -20750.083141214025,-2562.788485395064 -21057.677166927486,-3746.604995901439 -21246.784177279547,-4957.84061113429 -21311.24599946253,-6183.172277883298 -21246.178708980522,-7408.206251748691 -21048.12321413348,-8617.585350575344 -20715.188348322314,-9795.115373513867 -20247.184193128836,-10923.91039654024 -19645.743324308376,-11986.556401066058 -18914.427668671993,-12965.292427805205 -18058.818684160506,-13842.208175933156 -17086.588629833775,-14599.456690654495 -16007.550778354229,-15219.4805037073 -14833.686541868039,-15685.24931443206 -13579.147633686878,-15980.50702737682 -12260.23157318417,-16090.025699730837 -10895.32905978368,-15999.863702042529 -9504.841993360518,-15697.62516265454 -8111.071201874929,-15172.717554104172 -6738.073251237863,-14416.604092424428 -5411.486055411182,-13423.047461837914 -4158.323374238837,-12188.341251666918 -3006.738679664477,-10711.525403145206 -1985.759284511858,-8994.58191476746 -1124.9920581059,-7042.607049146495 -454.30249545422805,-4863.95632504012 -3.469356814866728,-2470.3586678598 198.18245284076843,123.00376725464797 122.16764515806909,2897.4533921452335 -258.7586099221059,5830.815646992422 -970.1887489770202,8897.460869241586 -2035.6441786155965,12068.391956728363 -3476.1547077873597,15311.379801797895 -5309.841162849077,18591.148011326826 -7551.506602641577,21869.607915896107 -10212.241807052373,25106.144312950117 -13299.050915356049,28257.951787431153 -16814.50323393521,31280.42081370513 -20756.417311021058,34127.572169981584 -25117.58338351239,36752.537497042424 -29885.530232915495,39108.08311383829 -35042.34233978591,41147.17347100152 -40564.53299525129,42823.56988784266 -46422.97871155864,44092.459487830616 -52582.91986930307,44911.1085313132 -59004.03204622493,45239.53365219361 -65640.57189141036,45041.183847666834 -72441.60074071112,44283.62545742162 -79351.28841669914,42939.22181156178 -86309.29882320187,40985.798735550045 -93251.25803536832,38407.28668626089 -100109.30460753501,35194.32996604565 -106812.72078041613,31344.853231463363 -113288.64217510034,26864.575389365382 -119462.84242407989,21767.460964000806 -125260.58802026173,16076.099132560968 -130607.55747609267,9822.000869881855 -135430.8176899777,3045.805021552842 -139659.84923058574,-4202.615357230888 -143227.61108673608,-11864.154399177738 -146071.6343073747,-19870.589756529782 -148135.13288933574,-28144.820116808845 -149368.11927719307,-36601.22906368212 -149728.51093678677,-45146.17921781635 -149183.21366929545,-53678.63923538139 -147709.16666312737,-62090.94476169 -145294.33375312225,-70269.69284449471 -141938.62498666797,-78096.76761796827 -137654.73239952745,-85450.49328871297 -132468.86389445557,-92206.90860563041 -126421.35930574314,-98241.15509447923 -119567.17313366632,-103428.96940565397 -111976.20905356167,-107648.26818206767 -103733.4921519133,-110780.81192654905 -94939.16592108604,-112713.93245980525 -85708.30235723095,-113342.30673684854 -76170.51505176771,-112569.75805890173 -66469.36694208389,-110311.06410689747 -56761.56638492982,-106493.74975982538 -47215.94742655893,-101059.84137450437 -38012.23255361708,-93967.55812063727 -29339.578801593383,-85192.91511340543 -21394.91085323237,-74731.21249142331 -14381.047654332036,-62598.38427523777 -8504.632082131167,-48832.18083348459 -3973.876292153125,-33493.15910079035 -996.1385100356208,-16665.45535137421 224.6498101896324,1542.683650186804 -509.3155910144112,20998.63391312629 -3386.908893361114,41545.41292884553 -8585.196927003448,63002.00271019596 -16266.518404704359,85163.99352745446 -26575.553154439665,107804.56181334666 -39636.4172214729,130675.79245468052 -55549.82179208242,153510.3520882519 -74390.3356417294,176023.5160953536 -96203.79218448675,197915.5477696105 -121004.88315568813,218874.42364961162 -148774.9814560662,238578.89429903612 -179460.23568624037,256701.86492616756 -212969.97837206363,272914.0752104735 -249175.48879520595,286888.05259989237 -287909.1496755885,298302.3082167656 -328964.03468473925,306845.739425287 -372093.960889679,312222.1981348589 -417014.03673072107,314155.1791110265 -463401.73202543263,312392.57801008783 -510898.4917751395,306711.4646183662 -559111.9102478859,296922.81293662864 -607618.4759492963,282876.12637838756 -655966.8917058345,264463.8935212321 -703681.9672178385,241625.80763440285 -750269.0741456487,214352.68167217786 -795219.1461333336,182689.98963610057 -838014.1982218542,146740.96522946676 -878133.3319361226,106669.18960855318 -915059.1840356392,62700.6018235422 -948284.76859092,15124.86827648993 -977320.653789024,-35703.9487666925 -1001702.4067886327,-89367.47886921109 -1020998.2321506742,-145383.93687372393 -1034816.7219805785,-203209.8649572373 -1042814.629052051,-262242.7584504148 -1044704.5679602955,-321824.6019415462 -1040262.5438952843,-381246.33263723674 -1029335.2040522272,-439753.237553046 -1011846.7031229835,-496551.2799302243 -987805.0718499352,-550814.338406349 -957307.9763783049,-601692.3300091668 -920547.7562105726,-648320.1751101593 -877815.6300350921,-689827.549196006 -829504.9616453935,-725349.3528344698 -776113.4826494888,-754036.8176803282 -718244.374736978,-775069.1529518743 -656606.1219564999,-787665.6236837866 -592011.052769873,-791097.9394105978 -525372.5025853735,-784702.8199457069 -457700.54000347696,-767894.5937872342 -390096.21408515034,-740177.6745999665 -323744.29550378496,-701158.7523880302 -259904.5013723337,-650558.5285790806 -199901.2117290536,-588222.8184763433 -145111.7049765779,-514132.84058058576 -96952.9598345819,-428414.5103103686 -56867.09239793072,-331346.55581306515 -26305.518479557708,-223367.27600222934 -6711.953329090852,-105079.76580113584 495.61719640067645,22744.559081665604 -6056.161857196064,159164.29559498723 -27676.417527481088,303068.3902050069 -65589.95413176331,453178.6091738164 -120916.87783718377,608054.2544244989 -194652.1758218388,766099.2167379984 -287645.501580324,925571.4350946173 -400581.4322289262,1084594.805649254 -533960.4756185209,1241173.556268187 -688081.1143612639,1393209.0729500463 -863023.1802268547,1538519.1330356938 -1058632.8554891234,1674859.4671506947 -1274509.5974490542,1799947.5376263673 -1509995.2782974942,1911488.3860537882 -1764165.8245120286,2007202.3670164263 -2035825.627945206,2084854.5493292576 -2323504.984532816,2142285.530722629 -2625460.7960526696,2177443.3773100567 -2939680.7455649506,2188416.365853583 -3263891.1280854987,2173466.175288508 -3595568.4847584683,2131061.1447025356 -3931955.1514368644,2059909.188499466 -4270078.791340603,1958989.936331746 -4606775.936595486,1827585.6460696366 -4938719.515277238,1665310.423084029 -5262450.289470758,1472137.2689314838 -5574412.076245217,1248422.4775922846 -5870990.567839983,994926.8981379977 -6148555.510312929,712833.5894649584 -6403505.942035692,403761.40584357764 -6632318.1353923,69774.07176414285 -6831595.827562832,-286615.6688964005 -6998122.270101055,-662447.2108772025 -7128913.57293319,-1054318.8937231728 -7221272.767224971,-1458400.7497525774 -7272843.964118031,-1870453.4331383419 -7281665.943465067,-2285853.5085724513 -7246224.469234747,-2699625.210819526 -7165502.597041553,-3106478.7134192763 -7039028.215089366,-3500854.866382982 -6866918.043472092,-3876976.279561994 -6649917.308978636,-4228904.541163075 -6389434.31397233,-4550603.270460895 -6087569.129155512,-4836006.611020787 -5747135.661607101,-5079092.676694119 -5371676.381818586,-5273961.3683667 -4965469.036869327,-5414915.886083952 -4533524.731578505,-5496547.169969501 -4081576.8255233257,-5513820.415574671 -3616060.1711594164,-5462162.72626616 -3144080.306715242,-5337550.888330005 -2673372.316699086,-5136598.185005961 -2212249.1822416056,-4856639.1050339015 -1769539.562420028,-4495810.7508357745 -1354515.0753352407,-4053129.7124851183 -976807.2830307626,-3528563.1473826966 -646314.7261893102,-2923092.7932433174 -373100.5015877857,-2238770.6446884507 -167281.0260559383,-1478765.0424053736 -38906.783540454395,-647395.9593127026 2163.994936271665,249841.67885043484 -53602.383001583155,1206267.7301059293 -215278.06919648964,2214020.632260454 -491333.34889287077,3264076.152869456 -889494.5171800981,4346281.861519566 -1416601.6093607007,5449407.948682151 -2078467.7492070356,6561214.853846598 -2879741.97721289,7668537.987521551 -3823777.5025021224,8757389.638102889 -4912507.384898622,9813077.946918828 -6146329.695755976,10820342.6146166 -7524004.225577972,11763506.771354841 -9042562.80147324,12626644.204174971 -10697235.246504731,13393760.889854237 -12481392.954664074,14048989.533144677 -14386511.968412967,14576795.561437914 -16402157.329666087,14962192.780635456 -18515990.329222113,15190966.656582573 -20713800.10380567,15249902.955224162 -22979560.82423332,15127019.256157218 -25295515.483337946,14811796.6520556 -27642287.029127978,14295408.76413555 -29999017.298611447,13570945.04501498 -32343533.89257966,12633625.208543543 -34652544.79367087,11481001.524898414 -36901860.17188381,10113145.651748398 -39066640.44649967,8532816.641695684 -41121669.2846187,6745606.775358073 -43041649.81815479,4760061.9209046345 -44801521.95746832,2587773.2167965053 -46376798.27553025,243437.01669983842 -47743915.5365705,-2255119.7746430696 -48880598.552855976,-4886951.607545573 -49766232.67805537,-7628045.781507991 -50382240.89126867,-10451415.53797562 -50712461.09802211,-13327236.379505713 -50743518.97922968,-16223026.81439041 -50465191.46212698,-19103874.253413897 -49870755.67427745,-21932706.27237687 -48957318.07852195,-24670606.903956123 -47726118.378555335,-27277177.039746486 -46182802.73669466,-29710937.413013816 -44337660.86198846,-31929772.000530493 -42205821.61221209,-33891409.034241155 -39807401.91106538,-35553936.1574737 -37167604.014917046,-36876345.60353854 -34316756.47385544,-37819104.62497309 -31290294.52094691,-38344745.767961904 -28128676.0918906,-38418470.97753412 -24877230.22417358,-38008762.944250345 -21585935.20883156,-37087996.57166697 -18309124.56641635,-35633042.9654397 -15105119.688050505,-33625857.92898565 -12035788.817695001,-31054046.606539417 -9166032.946987772,-27911395.651296705 -6563200.1421142565,-24198364.122838106 -4296430.814890676,-19922524.242324244 -2435937.4782189257,-15098943.163551833 -1052223.5788775855,-9750497.059528884 -215247.06681800997,-3908109.083519181 6464.572631628892,2389096.854830345 -453259.9578064561,9093734.050177656 -1657278.0987035045,16150189.615462525 -3664153.618717713,23494765.9016198 -6527165.384110212,31055931.983742118 -10293316.30583616,38754689.457497224 -15002354.832162557,46505055.65180862 -20685822.027932424,54214666.111141026 -27366137.8376556,61785496.84114417 -35055740.553776175,69114705.35459195 -43756293.78965136,76095588.01216118 -53457975.375734106,82618649.53806467 -64138862.54503509,88572778.91913928 -75764427.53933597,93846524.18469033 -88287157.34153482,98329456.83180024 -101646310.61442095,101913614.92707753 -115767824.09653701,104495012.20242423 -130564379.66822283,105975198.79202451 -145935642.05441457,106262857.65405218 -161768675.67684162,105275419.20800465 -177938547.51106927,102940675.32197009 -194309120.95043173,99198372.52871402 -210734043.6391708,94001763.26027022 -227057930.02395627,87319092.99244004 -243117737.0023084,79135000.50718951 -258744328.53727326,69451808.03530906 -273764222.48186404,58290677.85528754 -288001510.1392276,45692612.01688089 -301279936.3028232,31719272.246824186 -313425124.70546263,16453597.794571098 -324266930.989567,200.0000003971127" stroke="white" stroke-width="1.5" /><circle cx="154.10328460079143" cy="219.83662056813236" fill="red" opacity="0.7" r="8.894183423086506" /></svg>