<?xml version="1.0" encoding="utf-8" ?>
<svg baseProfile="full" height="400" version="1.1" width="400" xmlns="http://www.w3.org/2000/svg" xmlns:ev="http://www.w3.org/2001/xml-events" xmlns:xlink="http://www.w3.org/1999/xlink"><defs /><rect fill="black" height="100%" width="100%" x="0" y="0" /><circle cx="200" cy="200" fill="yellow" r="20" stroke="orange" stroke-width="2" /><polyline fill="none" points="199.35879116982312,200.0 199.4115831823059,199.96911080500712 199.47147071173387,199.94435591113043 199.5380600789887,199.9267117226919 199.61084378330665,199.91714006653692 199.68919905798384,199.9165755298327 199.77238775886593,199.92591229788624 199.85955767612774,199.94599062254005 199.94974534819977,199.9775830650551 200.04188044328671,200.02138066984338 200.1347917588011,200.07797923675733 200.22721487227187,200.14786586965917 200.3178014589857,200.231405987472 200.40513027189985,200.32883099064307 200.4877197583821,200.44022678073048 200.56404226625997,200.5655233334651 200.63253976870126,200.70448552596662 200.6916410138261,200.85670541664385 200.73977998091837,201.02159617154808 200.77541550092977,201.1983878234587 200.7970518749483,201.38612503967022 200.80326030074002,201.5836670612635 200.792700894695,201.78968996054633 200.76414507484938,202.00269134435212 200.71649805046144,202.2209976090258 200.6488211452387,202.4427738282882 200.56035366509596,202.66603632787138 200.45053400761745,202.88866797102213 200.3190196995382,203.10843614687852 200.16570604087704,203.32301341958498 199.99074303015357,203.53000076010883 199.79455024468965,203.72695324538603 199.57782935359123,203.91140807102394 199.34157394885247,204.08091468473177 199.08707639230838,204.23306680837342 198.81593139302936,204.36553607752293 198.53003605129842,204.47610698914488 198.23158613158438,204.56271281105433 197.92306835791078,204.6234720716758 197.60724856065394,204.65672521587794 197.28715554394756,204.66107098288097 196.96606058733354,204.63540203598222 196.64745254381106,204.57893935168727 196.33500854866824,204.49126485831928 196.03256040903295,204.3723518018352 195.74405680247926,204.22259230990497 195.47352147374318,204.04282162477315 195.22500768103066,203.83433848143576 195.00254920688246,203.59892112059634 194.8101083123765,203.33883844601388 194.65152107682354,203.0568558634553 194.53044062723265,202.75623537367323 194.45027882182865,202.44072953471473 194.41414700890917,202.1145689594133 194.42479653542125,201.78244307200384 194.48455972789657,201.4494739132175 194.59529211088486,201.12118285563028 194.75831666385224,200.80345017003 194.97437094577342,200.5024674685855 195.24355793648434,200.22468314099515 195.56530145446655,199.97674099479727 195.9383070113509,199.7654124097673 196.3605289533856,199.59752241782817 196.82914471881884,199.47987022308445 197.34053700711206,199.41914478028585 197.89028461075011,199.42183615297455 198.47316260290157,199.49414347344626 199.08315250419096,199.64188042405948 199.71346296941073,199.87037925191927 200.356561440317,200.18439441506118 201.0042171040769,200.58800703646747 201.64755537899418,201.0845314110612 202.27712402054252,201.67642486875818 202.882970802366,202.36520234226404 203.45473257983312,203.15135702018884 203.98173538919715,204.0342884829016 204.4531050748498,205.01223971914297 204.8578877721449,206.0822444046632 205.18517940557325,207.24008578909542 205.42426319359305,208.48026848313012 205.56475398420716,209.7960043642108 205.59674808159258,211.17921372503093 205.51097706599694,212.6205426748961 205.2989639590687,214.1093976695871 204.95317994718832,215.63399789104082 204.46719974865292,217.18144602453845 203.8358535991747,218.73781778902753 203.05537373649986,220.28827036685718 202.12353319138626,221.81716965402063 201.03977464096278,223.30823601271968 199.80532705375842,224.7447079567223 198.42330785541094,226.10952293889733 196.8988083720192,227.3855141420736 195.23896036582778,228.5556219018453 193.45298156671083,229.60311811623203 191.5521982237228,230.5118417255264 189.55004285445162,231.26644307974934 187.4620255563244,231.85263475456563 185.30567746326253,232.25744613311267 183.10046518263334,232.46947884487122 180.8676753303362,232.4791599474168 178.63026859466763,232.27898955660126 176.4127031004491,231.86377947933758 174.24072721140536,231.23087928452222 172.14114229811474,230.3803861653944 170.14153640769712,229.31533490426233 168.26999019598247,228.04186425121966 166.554756918986,226.5693560751105 165.02391872344697,224.91054374006762 163.70502192091948,223.08158630651727 162.6246943710203,221.1021053531785 161.80824853121118,218.99518146731884 161.2792741469252,216.787307754798 161.05922495072957,214.5082980790353 161.16700410619498,212.19114814810365 161.61855346477847,209.8718480300889 162.4264519958882,207.58914518633887 163.5995289950181,205.38425766716793 165.1424978662183,203.30053771112824 167.05561640725097,201.3830866224679 169.33437959295384,199.67832246646915 171.96925084941304,198.23350281283166 174.9454377338753,197.09620546625493 178.2427177788641,196.31377084329495 181.83532002037785,195.9327103772024 185.6918674068044,195.99808604898664 189.77538487563768,196.55286684406673 194.04337738854682,197.63726860981453 198.4479816321679,199.288084429973 202.93619442362606,201.5380132270095 207.45018010885119,204.41499484248718 211.92765841203985,207.94156031804343 216.30237329118282,212.13420649522473 220.50464238372484,217.00280436116938 224.46198559571246,222.55005077929707 228.09983030602578,228.77097335064238 231.3422895345293,235.65249814386507 234.11300827042297,243.17308990272983 236.33607198708165,251.30247408243739 237.9369701956186,260.0014496752257 238.84360672563415,269.221801257067 238.98734728327565,278.9063180184122 238.3040937397101,288.988926731721 236.735373563803,299.3949446575622 234.22943184800758,310.0414573017917 230.7423125031844,320.8378247129875 226.23891443328864,331.6863186582092 220.6940078613613,342.4828915444655 214.0931954803845,353.11807637335244 206.433802761991,363.47801533946244 197.72568158752762,373.44561292376034 187.9919113831781,382.90180750752495 177.26938215597593,391.72695365893844 165.6092442511701,399.8023053430802 153.07721029222478,407.0115883987295 139.75369562932218,413.24264873533923 125.73378471483377,418.3891608554604 111.1270121464817,422.35237952761645 96.0569486697927,425.0429157487911 80.66058420694706,426.3825165716395 65.0875019722061,426.3058269568611 49.49883993454998,424.7621105734769 34.06603828247276,421.7169054363128 18.969374117267506,417.15358946732283 4.396287329470084,411.07483052093176 -9.460495525036379,403.5038951473149 -22.405029564061664,394.48579040353195 -34.240399302340705,384.0882133804707 -44.77112983789391,372.40228381081147 -53.80574248148065,359.5430361736532 -61.15943273921863,345.64964912572356 -66.65684555778648,330.8853918739462 -70.13491985215205,315.4372692621964 -71.44577160089926,299.5153498744981 -70.45958225831464,283.3517643510977 -67.0674569403202,267.19936436122475 -61.18421483796152,251.3300362601775 -52.751072641728314,236.0326673566068 -41.738180465568604,221.61076690107194 -28.146968882379156,208.37974834626638 -12.012265261838849,196.6638840845769 6.595862327483218,186.7929486963506 27.57057479471294,179.09857169395204 50.76708527808532,173.91032576906125 76.00187424606578,171.55158158597064 103.05233241031387,172.33516515010373 131.65686449756376,176.5588586533052 161.51548340601664,184.5007903873825 192.29092014715133,196.41476375435698 223.61027025686866,212.5255795137764 255.06719206958505,233.0244091213152 286.22466641274224,258.0642802559181 316.61832093315,287.75573833299615 345.7603154555582,322.1627498887922 373.1437775513244,361.2989151289398 398.2477699233493,405.12405759942425 420.5427633634215,453.5412588026314 439.4965809886975,506.3944045929583 454.5807713020821,563.4663083007783 465.27735944072964,624.4774727137478 471.08591787829175,689.0855492630269 471.5308899361327,756.8855480016144 466.1690918475189,827.4108462163298 454.5973119214929,900.1350367894735 436.4599186870065,974.4746497389816 411.4563838814629,1049.7927717480807 379.34862089936985,1125.4035789920395 339.96803495316306,1200.5777882394536 293.222177832896,1274.5490201217629 239.10089789315126,1346.5210567147813 177.68187484645318,1415.6759632615233 109.13542919668532,1481.1830311019019 33.72849778765092,1542.2084857906236 -48.172329956519434,1597.9258911212094 -136.0988159017466,1647.5271664844777 -229.48021180373905,1690.234121837582 -327.6436194805542,1725.3104017178043 -429.8156500251846,1752.0737173839836 -535.1254485577684,1769.9082344946705 -642.6091384875546,1778.2769729260533 -751.2157252149125,1776.7340655871644 -859.8144837269137,1764.9367145971325 -967.2038377226338,1742.656676138782 -1072.1217198657055,1709.791099879019 -1173.2573836445204,1666.3725452257227 -1269.2646172903405,1612.577995038976 -1358.7762894484752,1548.7366878838757 -1440.420135027301,1475.3365926391982 -1512.83566809444,1393.0293543780206 -1574.6920870975523,1302.6335480087077 -1624.7070163258015,1205.1360862787228 -1661.6659066775312,1101.6916414438654 -1684.441898754277,993.6199552071489 -1692.0159323638875,882.4009294183595 -1683.496868996119,769.667410448073 -1658.1413780456435,657.1956030244194 -1615.3733238121727,546.8930745267131 -1554.8023789132299,440.78433810987394 -1476.24158100133,340.9940323923604 -1379.723543870179,249.7277465454422 -1265.5150314326247,169.25057220295685 -1134.1296039044262,101.86349736214981 -986.3380500517824,49.87779202573756 -823.17632774806,15.587570368834974 -645.9507474897872,1.2407492960529396 -456.24015005886986,9.008657950903597 -255.89485025813474,40.954586594198304 -47.03214361418057,99.00159580284837 167.971797892364,184.89993766227133 386.4937817252475,300.1944690308635 605.6793057125211,446.1924625352417 822.4621863352197,623.9322432027581 1033.58812216133,834.1530970532579 1235.642162424085,1077.2669120693395 1425.0800001390412,1353.3320212790934 1598.2629561627498,1662.0297217811092 1751.496465716564,2002.6439420180568 1881.0718226885376,2374.044522105085 1983.3108800944358,2774.6745582354984 2054.613348085586,3202.5422418694284 2091.5062745416835,3655.217597376879 2090.6952383244957,4129.8344879407205 2049.1167324706335,4623.098218791907 1963.9911647699191,5131.299019295485 1832.875857128688,5650.331631165808 1653.7173836812062,6175.721169391335 1424.9025516114448,6702.655355613665 1145.3072988934332,7226.023151155315 814.3427604402232,7740.459739143927 431.9977392224719,8240.397722856955 -1.123187514387297,8720.124321228193 -483.766694091609,9173.844253229938 -1014.0036190160522,9595.747911476868 -1589.208496435656,9980.0843328846 -2206.046405207085,10321.238381631487 -2860.467790146348,10613.81146816241 -3547.711854725252,10852.705038749647 -4262.319058011164,11033.205984452194 -4998.153171101603,11151.073037491697 -5748.433259905196,11202.62314842559 -6505.775862235494,11184.816770384377 -7262.2475183441975,11095.34091839172 -8009.427695912718,10932.68882372195 -8738.48202399309,10696.234966647506 -9440.245616452286,10386.30424701391 -10105.316125298003,10004.234041999372 -10724.15601917416,9552.427905220313 -11287.20343378695,9034.399681971943 -11784.99079067607,8454.80685264827 -12208.270230326652,7819.471970915199 -12548.144756994638,7135.391135498609 -12796.203847759643,6410.72852477958 -12944.662139278578,5654.796131851791 -12986.499674612021,4878.017964153894 -12915.602071493411,4091.878115874748 -12726.898864692233,3308.852282430798 -12416.498180862287,2542.3224635681195 -11981.81582660317,1806.4747939226115 -11421.696811477957,1116.180645796333 -10736.527289406753,486.8613668274899 -9928.33488605332,-65.66275676136246 -9000.87538824804,-525.3384847185953 -7959.703805661082,-876.0594870464251 -6812.227876154373,-1101.8587755903045 -5567.742175550919,-1187.112146124191 -4237.4411107338055,-1116.7508327264452 -2834.409222489682,-876.4813410438719 -1373.587401472432,-453.0102013830534 128.28617315063957,165.72883010670807 1652.761327993131,990.3477900680821 3179.7881158825035,2029.7805904276458 4687.856366996171,3291.0651613351197 6154.162662267471,4779.134776635873 7554.804485523825,6496.621779029857 8865.00095629822,8443.676983488847 10059.339174425988,10617.80806225608 11112.044823923046,13013.740200074697 11997.275291155685,15623.302251726554 12689.433155242723,18435.34153340809 13163.497511612024,21435.67023323066 13395.370197607734,24607.04623297006 13362.233607221566,27929.190892361385 13042.916415835956,31378.846058547373 12418.263190921474,34929.87222712704 11471.503546637803,38553.38939861733 10188.61621500911,42217.961746682675 8558.683159521055,45889.82674452434 6574.228654262033,49533.168886347725 4231.538098582604,53110.43759553708 1530.951238900043,56582.70833445081 -1522.8755693788808,59910.08532767037 -4920.743401321635,63052.143686831005 -8648.726351155017,65968.40808722301 -12688.033752772175,68618.86450113196 -17014.92387515247,70964.50084796452 -21600.67361997841,72967.87178458879 -26411.608355467844,74593.68223950894 -31409.195549409742,75809.38370031265 -36550.20531625223,76585.77670439165 -41786.94036949872,76897.61246753384 -47067.53717432286,76724.18612296619 -52336.33933000665,76049.91364412752 -57534.343382446874,74864.88419703805 -62599.716379578604,73165.37942148378 -67468.38354429469,70954.35098284038 -72074.6834585593,68241.84767615727 -76352.0871382653,65045.38340835667 -80233.97634136367,61390.23753953243 -83654.47540327004,57309.67933585401 -86549.32984579248,52845.10867890335 -88856.82397191906,48046.105692614685 -90518.72865255065,42970.38259123601 -91481.26954701413,37683.63182031639 -91696.1050917732,32259.26545656017 -91121.30275625727,26778.041848742192 -89722.30131635547,21327.576616307957 -87472.84625003276,16001.736368581544 -84355.8848305957,10899.914857685402 -80364.40709580369,6126.192722458092 -75502.21861903241,1788.3835072141776 -69784.63091493028,-2003.0297653776274 -63239.05538822989,-5136.061538937331 -55905.48699101042,-7498.486571364674 -47836.86419965745,-8979.189367974432 -39099.292565164884,-9469.589179301971 -29772.119934423605,-8865.12786388771 -19947.85248876296,-7066.806282618251 -9731.901999903885,-3982.7533263275454 757.8438392023713,470.1897935797875 11391.634494939566,6364.888716193163 22028.65772341041,13762.358500845958 32518.031359694018,22710.250578048017 42699.98617727324,33241.405918633325 52407.23787883785,45372.496898309066 61466.543796275204,59102.78073824148 69700.4372829284,74412.98754818758 76929.13009995942,91264.36586791897 82972.57035845293,109597.9081783798 87652.64080988102,129333.77812179686 90795.47951223934,150370.96011830313 92233.90217220369,172587.15068726157 91809.90281153096,195838.90906951335 89377.20686666256,219962.08270138467 84803.84844320964,244772.52071545183 77974.74125159181,270067.08594428777 68794.21078672638,295624.97289361176 57188.453623296315,321209.33584708045 43107.888317997465,346569.22768773674 26529.36137931924,371441.8461971275 7458.1711200485815,395555.08055336494 -14070.12801834863,418630.3465297006 -37988.1778561201,440385.6945359897 -64195.56206525995,460539.1701916552 -92557.88024141874,478812.4026194106 -122906.1840178657,494934.3911570769 -155036.80652682748,508645.4567566869 -188711.61371824905,519701.32003503194 -223658.7027088942,527877.2638197191 -259573.5684609683,532972.334163342 -296120.7556913315,534813.5302402488 -332936.00800948177,533259.9303609545 -369628.92090203526,528206.6986034202 -405786.0993583202,519588.9143318575 -440974.81470875675,507385.16521421366 -474747.1486755668,491620.8433178202 -506644.6057724165,472371.0835135976 -536203.1681016329,449763.283802957 -562958.7593580311,423979.1483422906 -586453.0775367134,395256.1959153578 -606239.7485448282,363888.67942394206 -621890.7457259,330227.8656533969 -633003.0133164277,294681.6291341918 -639205.225168619,257713.31936545024 -640164.6037938382,219839.86698293375 -635593.7190138651,181629.1016217431 -625257.1803574985,143696.262211083 -608978.1329138665,106699.68920027168 -586644.4627544204,71335.69769463544 -558214.6153632593,38332.64060719497 -523722.9288654869,8444.181624515602 -483284.38330465544,-17558.19105241414 -437098.6678742319,-38893.36770624455 -385453.4699261548,-54779.48258549073 -328726.8928226874,-64443.37573390624 -267388.914314382,-67130.57317445688 -202001.80315161715,-62115.69577580467 -133219.41908913045,-48713.19578272231 -61785.33032523742,-26288.309141879323 11470.307284707762,5731.898430783366 85635.15322107526,47847.523044199566 159720.39846958377,100474.9916319381 232667.81157219262,163936.555263237 303358.11583370797,238450.25948484734 370620.6824792933,324120.5487169525 433244.5071640509,420929.6643652784 489990.4190822584,528729.9971411998 539604.4531855856,647237.552970646 580832.2968906763,776026.6887048008 612434.7033486783,914526.2685226607 633203.7440907694,1062017.3843592892 641979.7548973984,1217632.7738485504 637668.8103203871,1380358.0571044963 619260.5446819073,1549034.89917723 585846.1208562562,1722366.1882317343 536636.1329876046,1898923.300466756 470978.215789294,2077155.5016016327 388374.1214861798,2255401.511531221 288496.01607383357,2431903.233635346 171201.73964095794,2604821.6234152215 36548.77128516778,2772254.6428351826 -115193.36211865462,2932257.217226556 -283532.4921508801,3082863.0811465234 -467745.2837002599,3222108.368494396 -666871.0233182234,3348056.7708158037 -879707.9535846659,3458826.056443032 -1104812.3699038967,3552615.712322427 -1340500.676288842,3627735.440483242 -1584854.573055287,3682634.212538676 -1835729.521977967,3715929.558823534 -2090766.6034467567,3726436.744216588 -2347407.8456460214,3713197.460824204 -2602915.067958103,3675507.648966635 -2854392.239911983,3612944.0427530403 -3098811.313364442,3525389.02538441 -3333041.4395714216,3413053.372591424 -3553881.4347943193,3276496.4606772 -3758095.3085541795,3116643.5188378775 -3942450.618110183,2934799.5140811545 -4103759.3617593003,2732659.271411763 -4238921.072736122,2512313.4522068338 -4344967.725478173,2276250.0400062655 -4419110.017488987,2027351.0153719722 -4458784.543682016,1768883.9400321231 -4461701.336645099,1504488.2151529188 -4425891.206463731,1238155.8291225652 -4349752.278320459,974206.4664572229 -4232095.095781213,717256.9110278363 -4072185.633207201,472184.7433534201 -3869785.5427883174,244086.40271409726 -3625188.950941276,38229.759722745155 -3339255.1158681554,-139998.57691633023 -3013436.263488375,-285150.9151944398 -2649799.9332323135,-391780.70971520065 -2251045.188732913,-454508.8974794459 -1820512.0816015583,-468093.78771910566 -1362183.7994566392,-427503.87273678574 -880680.9823112218,-327992.84791723726 -381247.75432869355,-165176.05386299372 130270.90929305246,64892.51685563081 647460.7781930099,365643.5703615664 1163379.131780082,739917.1989365685 1670604.7992548277,1189889.9337133744 2161297.4724317673,1717005.23053683 2627266.173531667,2321908.4858201966 3060046.6382971727,3004387.696398607 3450987.2477904363,3763320.8818514035 3791343.011291039,4596631.378622359 4072376.969191465,5501252.091713976 4285468.250173212,6473099.751096496 4422225.882841463,7507060.165725336 4474607.330101482,8596985.397830535 4435040.586665826,9735703.693733165 4296548.558045218,10915042.904848017 4052874.3251093933,12125868.013937512 3698605.793748588,13358133.24750041 3229298.136273201,14600949.10602857 2641592.351894017,15842664.48060169 1933328.2098269674,17070963.84800064 1103649.7920950355,18272979.348523322 153101.82569472332,19435417.352539755 -916285.0129269913,20544698.91530705 -2100921.6227076766,21587113.306695797 -3395602.5948633375,22548983.585470006 -4793464.621181168,23416842.96904534 -6285962.804259407,24177620.531825237 -7862866.365470288,24818834.551054366 -9512275.105356477,25328791.61154063 -11220657.803808184,25696789.38260985 -12972913.554025477,25913320.79536717 -14752456.805616088,25970277.178912498 -16541326.64923656,25861147.763756916 -18320320.60935052,25581212.832462557 -20069152.924724173,25127727.69455603 -21766636.99036592,24500094.588026106 -23390891.3122728,23700019.56601839 -24919567.990488727,22731651.41731851 -26330102.399875358,21601699.695243534 -27599982.385270413,20319528.993729968 -28707034.932298455,18897226.71348014 -29629727.921256393,17349641.70637147 -30347484.223717485,15694391.373915246 -30841005.064524643,13951835.025859866 -31092599.250583958,12145011.578066744 -31086514.567382842,10299539.984014096 -30809267.369559288,8443481.150602581 -30249966.14830299,6607160.484673546 -29400624.650976945,4822950.649518617 -28256459.962114464,3125014.57776215 -26816170.8346934,1549009.2848174237 -25082191.490898997,131751.55151907963 -23060916.096702173,-1089152.9092269777 -20762889.15836788,-2075714.6241893973 -18202957.194846723,-2789997.119010023 -15400377.210734775,-3194581.9363671103 -12378877.732331056,-3253058.0097839227 -9166668.475821637,-2930530.92498033 -5796395.092550264,-2194147.0536270663 -2305035.8816805356,-1013627.0230641972 1266262.1255830978,638197.5018050557 4872409.7254697345,2784850.1933003394 8464666.115524048,5445686.455697997 11990994.148845311,8635387.038646521 15396480.17436244,12363476.336382972 18623817.558816765,16633873.033361785 21613852.133096356,21444480.868066907 24306186.917264782,26786827.30871754 26639842.56373595,32645757.861046948 28553969.026165567,38999193.553852595 29988603.023214627,45817958.86799717 30885464.932624135,53065686.98539262 31188787.833961513,60698808.7337699 30846170.530467324,68666630.98946178 29809445.534658432,76911509.57410173 28035552.212064147,85369120.84353712 25487404.556241166,93968835.22135033 22134742.429619506,102634194.87967305 17954954.56226584,111283496.62260737 12933861.167483535,119830479.79021895 7066443.722023279,128185117.68315576 357509.28158902086,136254509.6204407 -7177723.329525641,143943869.2985038 -15513127.992321318,151157603.6321978 -24611278.680401742,157800474.74405015 -34423171.55121668,163778836.24330974 -44888072.89491398,169001933.41979176 -55933503.27626674,173383255.488485 -67475367.20353526,176841926.57973886 -79418236.47337747,179304120.79773936 -91655793.97542793,180704485.38859415 -104071443.19886208,180987554.890706 -116539086.97352612,180109138.106309 -128924077.1100285,178037658.85595146 -141084334.58921245,174755430.77878553 -152871637.80691013,170259845.9413252 -164133074.12279314,164564456.73546734 -174712647.61299595,157699930.5011176 -184453033.50807306,149714856.51614672 -193197467.33619714,140676385.47096157 -200791754.31407225,130670682.2987388 -207086382.0645125,119803174.27459948 -211938717.32167783,108198577.63412213 -215215264.9456435,96000687.5966725 -216793965.34171328,83371918.61171032 -216566504.30189353,70492583.87238832 -214440607.39208552,57559905.65238404 -210342289.33461064,44786750.80682524 -204218027.41732207,32400088.82009903 -196036826.83246297,20639173.061607834 -185792145.04412535,9753449.400219657 -173503641.83430085,200.00000021248093" stroke="white" stroke-width="1.5" /></svg>