<?xml version="1.0" encoding="utf-8" ?>
<svg baseProfile="full" height="400" version="1.1" width="400" xmlns="http://www.w3.org/2000/svg" xmlns:ev="http://www.w3.org/2001/xml-events" xmlns:xlink="http://www.w3.org/1999/xlink"><defs /><rect fill="black" height="100%" width="100%" x="0" y="0" /><circle cx="200" cy="200" fill="yellow" r="20" stroke="orange" stroke-width="2" /><polyline fill="none" points="198.91164975768976,200.0 198.94552940743944,199.94464511079832 198.98841349824156,199.89349916749595 199.0401613401041,199.8477184614755 199.10050562445096,199.80847782738326 199.16904704089933,199.77695752819398 199.24525016811916,199.75432920287508 199.3284407749782,199.74174098896358 199.41780465974716,199.74030195016468 199.51238814455382,199.75106595645028 199.61110032952422,199.77501518083437 199.71271719614282,199.81304339277742 199.81588763234703,199.86593924276335 199.91914143281,199.9343697457453 200.02089930686543,200.0188641826023 200.11948490371478,200.11979864823888 200.2131388400969,200.23738148223924 200.3000346896855,200.3716398228218 200.37829686633546,200.52240752700172 200.44602030518132,200.68931469915643 200.5012918167834,200.87177906641315 200.54221296033307,201.0689994322869 200.56692425270387,201.27995142965585 200.57363050123342,201.5033857803807 200.5606270199207,201.73782925159009 200.5263264616239,201.98158847784993 200.46928597325575,202.23275679413288 200.38823435731604,202.4892241967701 200.28209890179758,202.74869051852195 200.15003152197613,203.008681869706 199.99143384226224,203.26657036018787 199.80598083455857,203.5195970772356 199.59364262181717,203.76489825208134 199.35470405209028,203.99953450388708 199.08978164964887,204.22052300409484 198.79983755600438,204.42487235731684 198.4861900851639,204.60961994749593 198.15052053438873,204.77187145059364 197.7948759142593,204.90884216812552 197.42166729007715,205.01789979008518 197.03366346058053,205.09660815182414 196.63397973957865,205.14277150795232 196.22606165130858,205.1544788079775 195.81366340089562,205.1301474238968 195.40082103698808,205.06856574997937 194.99182028408663,204.96893407020966 194.59115908686596,204.83090306995425 194.2035049773749,204.65460935599987 193.83364744780312,204.44070734377365 193.48644558584044,204.1903968728407 193.1667713057713,203.9054459221611 192.87944858551856,203.5882078154904 192.62918919697734,203.24163233506079 192.42052549321005,202.86927019853283 192.2577408903969,202.47527040030877 192.14479875379948,202.0643699736955 192.08527046431536,201.64187579503266 192.0822635043665,201.2136381245695 192.13835045775832,200.78601566127816 192.25549986665288,200.36583197948417 192.4350099288203,199.96032331361025 192.67744604880107,199.57707776275527 192.9825832765105,199.22396609842806 193.3493546751875,198.90906447554724 193.7758066565603,198.64056946770256 194.25906230388648,198.42670597141608 194.79529367245974,198.27562864939964 195.3797040117165,198.19531770811705 196.00652079282455,198.19346992877527 196.66900035035144,198.27738599154222 197.35944485622403,198.45385524861385 198.06923223881148,198.72903921096017 198.78885953990306,199.10835511436835 199.50800006811687,199.59636102095496 200.21557455958666,200.19664399082384 200.8998363965694,200.91171292322056 201.54847076304884,201.74289771564548 202.14870743485272,202.6902564212843 202.68744671184757,203.75249209824548 203.15139780321755,204.92688103704066 203.52722877568561,206.20921402424028 203.80172697098126,207.59375224920262 203.9619685952784,209.07319938633486 203.99549598224422,210.63869128685852 203.89050083542926,212.27980459113348 203.63601156776747,213.98458542513862 203.22208267882144,215.7395991729005 202.639983947022,217.53000212101793 201.882387067475,219.3396355527775 200.9435472388772,221.15114262888318 199.81947709859972,222.9461081310518 198.50811032586813,224.7052208655499 197.00945218187582,226.4084582283977 195.32571423512601,228.03529212504142 193.4614305326085,229.56491511772566 191.4235525246258,230.97648534684578 189.22152013494454,232.24938844180258 186.86730648986392,233.3635143061743 184.37543398080757,234.2995463354832 181.76295953576292,235.03926030780988 179.04942721548153,235.56582988251841 176.25678653049093,235.86413535507504 173.40927519381455,235.921072051125 170.53326538047975,235.72585450544065 167.6570729564845,235.27031236584713 164.8107295643864,234.54917379347668 162.02571790700273,233.5603320032546 159.33467105120639,232.30509050673757 156.77103707625054,230.78838258738026 154.36871091066865,229.0189605597283 152.16163573326784,227.00955044224662 150.18337685123709,224.77696781131147 148.46667150565173,222.3421908036114 147.0429585849676,219.73038649746914 145.94189274339908,216.97088723140297 145.19084791600662,214.0971138108276 144.81441568828893,211.14644301061713 144.8339044073492,208.1600173009244 145.26684530648095,205.18249530392774 146.1265122475363,202.2617421268893 147.42146195805415,199.4484594079791 149.1551018454374,196.79575565071846 151.32529260141644,194.3586582046676 153.92399286000494,192.1935690672338 156.93695313510648,190.35766752642388 160.34346613448858,188.90826352834492 164.1161803204368,187.90210652680503 168.22098326035137,187.39465544524745 172.61696088017663,187.4393162425704 177.2564381983056,188.0866544126477 182.08510647709574,189.3835905506014 187.04224098429884,191.3725878747509 192.06101270981836,194.09084128909436 197.0688964379645,197.56947819450033 201.98817653695096,201.8327817948805 206.73655070244521,206.89744808507757 211.22783068874625,212.77188803801818 215.37273778934255,219.45558671839026 219.07978949942884,226.93853112798794 222.2562724191232,235.2007185241262 224.80929505173117,244.21175673847867 226.64691273186276,253.93056765191085 227.6793155001846,264.3052044454598 227.8200683428044,275.27279254422206 226.98739185244406,286.75960329707624 225.10547006511914,298.6812683903263 222.10577100007447,310.9431417790692 217.92836430266092,323.4408145401015 212.5232193802701,336.0607865105784 205.85146655086535,348.6812968858703 197.8866030122003,361.1733141190466 188.6156249070041,373.4016835065364 178.04006642382652,385.2264287756384 166.17692675227048,396.5042018279623 153.059465820854,407.08987255929696 138.73785009982507,416.83824839375325 123.27963036187894,425.6059108634365 106.77003417046285,433.2531542614869 89.31205701513744,439.64600912490585 71.02633744026394,444.65833109461346 52.05080321790646,448.1739335852882 32.54007759568941,450.0887407093421 12.664636899217186,450.31293507112287 -7.3902867234004646,448.77307341254334 -27.426060874218052,445.41414168311474 -47.232267274084734,440.2015199585189 -66.58857221992258,433.1228267740521 -85.26684705760147,424.1896119026513 -103.0335290817847,413.43886642002826 -119.65220964243287,400.9343190873312 -134.88643252723756,386.7674886675946 -148.50268194101244,371.0584627953449 -160.27353566107826,353.9563754545823 -169.98095525894263,335.6395570000941 -177.4196816925181,316.31533298700106 -182.40070114125263,296.2194508547749 -184.75474273189303,275.61511674032784 -184.33576683914043,254.79162835993748 -181.02439999756717,234.06259398540084 -174.7312701829208,213.76373202323163 -165.40019436543355,194.2502505578358 -153.01116885640545,175.89381140468586 -137.5831121110602,159.07908869543968 -119.1763093611998,144.19993773502176 -97.89450877222475,131.65519577601273 -73.88661978752236,121.8441423873489 -47.34796597036191,115.16165318575383 -18.52104700427978,111.99308677772295 12.304232414666501,112.70895075083939 44.79090525631767,117.65939837526092 78.5558903305903,127.16861324564218 113.17157461903601,141.52914432435176 148.1680524527021,160.9962586508371 183.03603757018453,185.7823832710607 217.23045678938354,216.051711627233 250.17472612840595,251.915052645373 281.26570177349595,293.42500298311194 309.87928938365746,340.5715242732083 335.37668592204284,393.2780076453341 357.11121860271,451.3979072622515 374.43573573719675,514.7120230067802 386.71049436694125,582.9265097523265 393.3114796916868,655.6716868019123 393.6390815750237,732.5017160598074 387.12704395701604,812.8952112900506 373.2515939665884,896.2568334147454 351.5406490431752,981.9199182246047 321.58299259069355,1069.1501731423064 283.03730174071194,1157.150468839945 235.64090483843785,1245.0667396257954 179.2181414248541,1331.9949936605776 113.68819390641112,1416.9894203344422 39.07225790896254,1499.0715676451805 -44.50008237466673,1577.2405472950925 -136.78540660448584,1650.484209614202 -237.42206859824034,1717.7912144826837 -345.92699020043244,1778.1639083421194 -461.69375809503435,1830.6319013433083 -583.9921347354598,1874.2662228806432 -711.9690844267786,1908.1939184219987 -844.6514035209404,1931.6129358803068 -980.9500296964363,1943.807136016398 -1119.6660894351344,1944.161248743975 -1259.498725153056,1932.175585960029 -1399.054724087926,1907.480311879395 -1536.8599501215253,1869.8490640378193 -1671.3725573741472,1819.2117123635621 -1800.9979408351276,1755.666040212468 -1924.1053546981534,1679.4881302102306 -2039.0461036900388,1591.1412393259357 -2144.173186780858,1491.2829519693869 -2237.8622465281314,1380.7704071935511 -2318.5336512484228,1260.6634063978113 -2384.6755115550613,1132.2252213417528 -2434.867407897052,996.9209388337099 -2467.8045819419617,856.4131981577901 -2482.322322334809,712.5552001130028 -2477.420254912622,567.3808923830866 -2452.286229239417,423.09226471747877 -2406.319477725205,282.04371892011204 -2339.152710974336,146.72351270566875 -2250.6728037302,19.732312839821105 -2141.0397201835867,-96.24106866847052 -2010.7033258074757,-198.44664155115038 -1860.4177355588567,-284.10275240255135 -1691.2528555020456,-350.42795079532675 -1504.6027868719666,-394.67496677628037 -1302.1907784792934,-414.16651779147776 -1086.0704352815703,-406.33262142527803 -858.6229179704724,-368.749049907841 -622.5499005606241,-299.17652373582234 -380.86209015242423,-195.60020556356648 -136.8631551558122,-56.26902236959489 105.87104488976004,120.26568559878741 343.5179834479925,335.112715839934 572.0387451749464,589.005301687052 787.2129991083256,882.2677195258639 984.678545411484,1214.7847761417688 1159.975249169343,1585.9747496416358 1308.5931076379024,1994.7663528702788 1426.0241289137193,2439.5802763370575 1507.8176309761132,2918.3158480376824 1549.6385012827668,3428.3433199269866 1547.3278894405985,3966.502254978402 1496.9657398443455,4529.1064446517175 1394.9345085276782,5111.955734176581 1237.9833497849338,5710.355072439991 1023.2920043908276,6319.141034647945 748.5335734714291,6932.715989631198 411.9353212551571,7545.090000117826 12.33661703110377,8149.930454055058 -450.75689739651784,8740.619328804407 -977.1238427520962,9310.317888551033 -1565.7832715212417,9852.038509473767 -2214.957395418024,10358.723218144243 -2922.0417754815667,10823.328417397712 -3683.5838469798487,11238.915161785268 -4495.2706060763685,11598.74423301305 -5351.926226676424,11896.375155912237 -6247.520303854862,12125.768188961423 -7175.18733476543,12281.388221742603 -8127.257949106261,12358.30941654853 -9095.302289403366,12352.319344290776 -10070.185817094398,12260.021287506795 -11042.137684360529,12078.933317246729 -12000.831664770518,11807.582697516511 -12935.479479166996,11445.594132286775 -13834.936188137839,10993.770347297313 -14687.817150362664,10454.163493341792 -15482.625868779101,9830.135870627817 -16207.89186572767,9126.408506253463 -16852.31754602798,8349.096169722838 -17404.932825481148,7505.727485454844 -17855.256123895284,6605.2488969152355 -18193.460148813454,5658.011354581324 -18410.540731206456,4675.738739436638 -18498.486820065544,3671.477194821624 -18450.449601717617,2659.5247216800144 -18260.908584432087,1655.3405946855987 -17925.83238211427,675.434378246893 -17442.831845148507,-262.76543951102445 -16811.303124243823,-1141.0629217941414 -16032.55821679559,-1940.6657256477633 -15109.940536988814,-2642.3748905284206 -14048.92307262164,-3226.792263184826 -12857.186745155317,-3674.5441552248126 -11544.676676266929,-3966.519533651165 -10123.63418533968,-4084.120749864649 -8608.60249866464,-4009.524522911498 -7016.404343067373,-3725.9506120388514 -5366.089824198681,-3217.9353460100747 -3678.85325240456,-2471.6069263295526 -1977.9178759947708,-1474.9591928055704 -288.3878114660265,-218.12033703173125 1362.933179099954,1306.3871233520795 2947.7560240668504,3103.3989351829887 4436.553337547925,5174.878190757083 5798.8381829368855,7519.704882930116 7003.473258543449,10133.48993031522 8019.008690397486,13008.417631994304 8814.046139644644,16133.120422901087 9357.626450838356,19492.589658712026 9619.63758859055,23068.125960847377 9571.23913958623,26837.332396760725 9185.29920130767,30774.153457427125 8436.839044613089,34848.96242285142 7303.480531410902,39028.699278256 5765.890898007246,43277.06085987066 3808.219186253954,47554.74437223595 1418.5183252992945,51819.74483175888 -1410.853356691734,56027.70635786735 -4682.8575725012615,60132.326558282824 -8395.434941590596,64085.81254430102 -12541.203773764393,67839.38637195056 -17107.205201480872,71343.83694277253 -22074.700945955035,74550.11462168387 -27419.02976871344,77409.96404770228 -33109.52833585619,79876.58983555553 -39109.52180491464,81905.34910232817 -45376.38893282927,83454.46401374617 -51861.70589827365,84485.74684028252 -58511.47233355979,84965.32935511493 -65266.42227315431,84864.38780536273 -72062.42185117214,84159.85415629476 -78830.95462418934,82835.10385656735 -85499.69436477809,80880.6100120096 -91993.16407311139,78294.55359659463 -98233.47879798868,75083.37918206345 -104141.16865519606,71262.28564151427 -109636.07719202377,66855.64138555665 -114638.32898504857,61897.31392974904 -119069.35908814418,56430.90397517397 -122852.99568432133,50509.874714952624 -125916.58605461109,44197.56776157264 -128192.15477676147,37567.09792472967 -129617.58192360953,30701.120056811033 -130137.7879637159,23691.462321105493 -129705.91109352346,16638.62152226925 -128284.46186936164,9651.117563289497 -125846.4392772605,2844.7056498914653 -122376.39179662846,-3658.5534585273235 -117871.40659755991,-9731.36306550939 -112342.00977713123,-15242.396055174733 -105812.96050262904,-20057.630387126 -98323.92210289929,-24041.80663020513 -89929.99354483774,-27059.997545817256 -80702.08536047452,-28979.27766754809 -70727.12495888883,-29670.478771489365 -60108.077371606225,-29010.01511736131 -48963.76884278275,-26881.760391786014 -37428.50228604026,-23178.956430558195 -25651.455484842147,-17806.132065853657 -13795.855006102674,-10681.008866827935 -2037.9211171880097,-1736.3691478842527 9434.418469027007,9078.139562351722 20423.0454650212,21794.290337662365 30721.39503196674,36423.68037236191 40116.42043300653,52956.27999020701 48390.768611045256,71359.15498614017 55325.153710262675,91575.38985287685 60700.912227272536,113523.2387922109 64302.72012419317,137095.53038044434 65921.4489022856,162159.3503361701 65357.134364002006,188556.02501813098 62422.02862820149,216101.4260570248 56943.70295448321,244586.61389854862 48768.16612582806,273778.8350114023 37762.96058246274,303422.8841043961 23820.196242654572,333242.83891781425 6859.480036115403,362944.1710280741 -13169.302340155806,392216.2316595037 -36283.39701016262,420735.106766739 -62464.830012042505,448166.83067554387 -91658.3381289361,474170.9423942295 -123769.62720486619,498404.36338330904 -158664.0016181558,520525.5701538749 -196165.40689496207,540199.029616539 -236055.92512015827,557099.8596883604 -278075.7598284571,570918.6723546925 -321923.743428839,581366.5512492266 -367258.3959313027,588180.1109344899 -413699.5588161977,591126.5805143527 -460830.6223310108,590008.8500682974 -508201.3583446525,584670.4147433853 -555331.364171435,575000.1482520952 -601714.1155419581,560936.8350787768 -646821.6192012039,542473.3889679168 -690109.6475204963,519660.6843231566 -731023.5290932579,492610.9270513582 -769004.4606281074,461500.49219912366 -803496.296648317,426572.15750071936 -833952.7646535404,388136.66472842684 -859845.0446050045,346573.5445415484 -880669.6429723585,302331.1453904798 -895956.483247774,255925.8129575807 -905277.1269138791,207940.17360469868 -908253.0314729714,159020.48333241115 -904563.7454334635,109873.01280842863 -893954.9342340549,61259.4490477597 -876246.1260935867,13991.30526557608 -851338.0628287252,-31076.65779969264 -819219.5379018617,-73053.98327097463 -779973.6024605953,-111023.01323609288 -733783.0200120758,-144048.28489327832 -680934.8517345561,-171186.7709874761 -621824.0573467616,-191498.89347518643 -556956.0010011371,-204060.22496981072 -486947.7578922585,-207973.77823297263 -412528.12521176774,-202382.76997443382 -334536.2507519183,-186483.73169718368 -253918.80385740288,-159539.82747527977 -171725.62652264553,-120894.22658521344 -89103.8171808929,-69983.36803493672 -7290.216058810952,-6349.944456501023 72397.72122122884,70344.57524532985 148572.65594184474,160308.07146394014 219789.67826661334,263606.7391252264 284560.15124633984,380155.08641604596 341367.0169513984,509707.16097275086 388681.4719451346,651849.1952276344 424980.8960540376,805993.8578065858 448767.8950166301,971376.2904203163 458590.2943878249,1147052.0995095768 453061.899338855,1331897.4589356198 430883.81303905527,1524611.464225543 390866.0854601893,1723720.8602958594 331949.4450403177,1927587.2432302402 253226.84802030356,2134416.812659508 153964.56476034806,2342272.724702891 33622.509291250404,2549090.066438598 -108126.49191795879,2752693.4416789864 -271378.8031738487,2950817.1246710517 -455983.76974109374,3141127.7035082 -661529.5101058828,3321249.098845009 -887331.0216465902,3488789.8063120954 -1132420.9031254495,3641372.1732287873 -1395542.9851991837,3776663.482237488 -1675149.1434899282,3892408.576795476 -1969399.547571015,3986463.7265456584 -2276166.5734650814,4056831.394958568 -2593042.5769390757,4101695.5378232477 -2917351.690083842,4119457.0297062495 -3246165.7645176956,4108768.7869453286 -3576324.5412497213,4068570.130647808 -3904460.080039149,3998119.912065576 -4227025.430318994,3897027.906150743 -4540327.47180766,3765283.967567187 -4840563.796269366,3603284.4374242052 -5123863.443026312,3411855.288954226 -5386331.240357879,3192271.506677089 -5624095.4434885075,2946272.2066258886 -5833358.298166594,2676071.025241888 -6010449.0976214465,2384361.331798003 -6151879.240747539,2074315.8538260942 -6254398.741536608,1749580.3470656865 -6315053.5849197265,1414260.9908952718 -6331243.273173569,1072905.2469321734 -6300777.860781186,730475.9822758358 -6221933.735010964,392318.7294008604 -6093507.365370226,64122.031556251044 -5914866.218364203,-248129.09483945317 -5685996.015472813,-538206.4615389187 -5407543.502727964,-799698.562099792 -5080853.900452348,-1026076.670649414 -4708002.212255879,-1210766.7803079248 -4291817.593840621,-1347226.875945085 -3835900.0150030027,-1429028.935691093 -3344628.49279805,-1449944.9561839423 -2823160.2303758278,-1404036.199207242 -2277420.064612984,-1285744.7635047499 -1714079.706297588,-1089986.4965507367 -1140526.3490853014,-812244.178341563 -564820.3273708102,-448659.83430368657 4358.381914134566,3875.031361828418 557774.8934519294,547632.5457243288 1085715.3290277675,1183966.2275035344 1578073.7169260595,1913234.7344804148 2024449.5278759745,2734732.9497514754 2414255.3445359617,3646631.7579531665 2736834.001686303,4645927.8450454855 2981584.372017234,5728404.819943518 3138094.8095123754,6888606.902472453 3196283.100918609,8119826.3492267085 3146541.6177649405,9414105.696560735 2979886.20904486,10762255.787982175 2688107.2302834103,12153890.421729516 2263920.970600864,13577478.303627167 1701119.6179174366,15020412.821010474 994717.7959746026,16469099.96645948 141093.61770781325,17909064.53641275 -861877.8700380786,19325074.510870375 -2014701.0232277284,20701283.288047735 -3316147.915506715,22021389.203989916 -4763160.826163396,23268811.51406979 -6350771.066917485,24426881.75349764 -8072036.255175361,25479049.130251046 -9917998.05318817,26409098.339205302 -11877662.273319716,27201377.923946455 -13938003.098780083,27841037.056188155 -16083992.986468684,28314268.355477538 -18298659.60413546,28608554.13765811 -20563170.908454437,28712913.263147194 -22856949.19477586,28618145.55930971 -25157814.644694105,28317070.618906625 -27442158.565991957,27804757.63253546 -29685146.163325727,27078742.800858848 -31860948.29997628,26139230.795761187 -33943001.31435436,24989276.701712396 -35904293.54339485,23634944.87262937 -37717676.78263689,22085441.18815045 -39356200.4841848,20353215.288874153 -40793466.06380043,18454029.51471002 -42003998.26234142,16406991.465529246 -42963630.09020641,14234547.349743249 -43649897.48217716,11962433.584647119 -44042439.41009215,9619584.462109106 -44123398.8482896,7237994.093561817 -43877819.66795014,4852531.297668518 -43294034.257567324,2500706.5901919054 -42364036.433932714,222390.97544295687 -41083834.027204365,-1940513.1815582572 -39453775.40058651,-3944448.3079555593 -37478844.10527104,-5744623.261504412 -35168915.87956143,-7295478.245858674 -32538972.281971622,-8551190.107325016 -29609265.405434847,-9466214.421099806 -26405428.356717277,-9995860.076406213 -22958526.50411183,-10096891.377928866 -19305044.899001833,-9728152.004547471 -15486807.763524922,-8851204.515060304 -11550826.506915322,-7430978.474145458 -7549073.385664723,-5436419.700236348 -3538178.654819397,-2841132.620403732 420950.1342743597,375992.7341538159 4263587.155599573,4230177.934825242 7921725.171768788,8730186.698959092 11324688.76049587,13877798.101890512 14399821.376296032,19667331.88432271 17073242.631173357,26085235.265551902 19270671.06183886,33109740.538673677 20918306.518887214,40710602.46518215 21943765.178358834,48848924.09815226 22277059.052158274,57477079.14164472 21851610.77560697,66538738.29664657 20605293.39336846,75969006.24984674 18481483.864998173,85694675.03155877 15430118.084707048,95634598.40562743 11408734.373015145,105700190.76145004 6383491.667241089,115796052.66252121 330148.0294203898,125820723.77528127 -6765015.379963529,135667562.36662713 -14904340.031016352,145225748.93029588 -24078020.774332266,154381409.79553863 -34263436.89884012,163018854.80197686 -45424598.56143535,171021921.31013882 -57511723.22668361,178275414.97745398 -70460956.1187115,184666635.8856198 -84194247.8345016,190086976.77994156 -98619401.19419798,194433578.3983983 -113630298.10833317,197611025.1528545 -129107315.72533235,199533062.80287272 -144917939.3893048,200124318.26040357 -160917577.99507082,199322000.30799896 -176950585.1846735,197077558.83070654 -192851487.50062576,193358279.1788632 -208446418.1123037,188148787.52113032 -223554752.08295465,181452442.53885645 -237990936.36861148,173292588.57721448 -251566504.8628736,163713645.42679396 -264092265.85195446,152782010.2803054 -275380646.2545627,140586748.10919753 -285248174.0255073,127240047.74757251 -293518077.137313,112877422.36580683 -300022974.6595201,97657634.769979 -304607632.67150974,81762330.07781212 -307131755.11356133,65395360.79516948 -307472777.24550956,48781792.14251582 -305528627.1861422,32166578.646562953 -301220419.0927565,15812906.501995439 -294495039.95174986,200.00000036065265" stroke="white" stroke-width="1.5" /><circle cx="249.92582360940372" cy="197.27747600144508" fill="red" opacity="0.7" r="14.854497299884601" /></svg>