<?xml version="1.0" encoding="utf-8" ?>
<svg baseProfile="full" height="400" version="1.1" width="400" xmlns="http://www.w3.org/2000/svg" xmlns:ev="http://www.w3.org/2001/xml-events" xmlns:xlink="http://www.w3.org/1999/xlink"><defs /><rect fill="black" height="100%" width="100%" x="0" y="0" /><circle cx="200" cy="200" fill="yellow" r="20" stroke="orange" stroke-width="2" /><polyline fill="none" points="199.00230775653435,200.0 198.9759423656851,199.94624165217732 198.95469976628698,199.88994975228158 198.93899456488947,199.8316680221455 198.9291938989863,199.77200178623437 198.9256094811939,199.71161458133705 198.92848979319245,199.6512238154755 198.93801253634336,199.59159546637434 198.95427744985642,199.53353782113206 198.97729961022563,199.4778942707751 199.00700332727445,199.42553518604967 199.04321675244535,199.377348914002 199.08566731384482,199.33423194848467 199.13397808993005,199.2970783415629 199.1876652295316,199.26676843672473 199.2461365200927,199.24415701865456 199.3086911985354,199.23006098793584 199.3745210900193,199.22524668221644 199.44271314903767,199.23041697790953 199.5122534648278,199.24619831821303 199.58203277899358,199.27312782391238 199.65085354762448,199.31164065288084 199.71743856312975,199.36205778221208 199.78044113261205,199.42457439331105 199.83845679001385,199.49924904484735 199.8900364986533,199.58599382105857 199.93370127930461,199.68456564331564 199.96795817688832,199.79455893097767 199.9913174563456,199.9153997932377 200.0023108956374,200.04634192678623 199.99951102129913,200.18646438460823 199.9815511098883,200.33467136902482 199.94714575728634,200.4896941871651 199.89511179747007,200.65009548940773 199.8243893333781,200.81427589100602 199.7340626251853,200.980483054175 199.6233805659968,201.14682328248838 199.49177646200357,201.3112756516512 199.33888682382286,201.47170867077605 199.1645688683857,201.62589943641663 198.96891642661726,201.77155520807588 198.75227395155704,201.90633729900935 198.5152483247208,202.02788714023094 198.25871816563608,202.13385433907808 197.98384036075612,202.22192651691685 197.69205354351737,202.2898606740083 197.38507827724393,202.33551579368466 197.0649137169626,202.35688636328817 196.7338305549713,202.35213645632064 196.39436008813507,202.31963398945794 196.04927928224987,202.25798474003454 195.70159175023343,202.16606568483067 195.3545046061288,202.04305720002654 195.0114012056352,201.88847364553902 194.6758098357369,201.70219184512555 194.3513684705535,201.48447696709226 194.0417857672796,201.2360053096213 193.75079853446678,200.95788350002167 193.48212596430176,200.6516636289585 193.23942098028763,200.31935385921048 193.0262191111151,199.96342407396762 192.84588535975726,199.58680616225965 192.70155959313206,199.19288857887358 192.59610103122264,198.78550486305988 192.5320324644741,198.3689158543411 192.5114848737339,197.9477854046229 192.53614316710645,197.52714945327048 192.60719378199167,197.11237840545397 192.72527492743876,196.70913283337978 192.89043026095993,196.3233126044099 193.1020668043565,195.9609996288109 193.3589179042028,195.6283945121619 193.65901203377553,195.33174749237315 193.99964821384995,195.07728413781956 194.37737879944973,194.87112638018638 194.78800033797208,194.7192095520828 195.22655315087863,194.6271961940644 195.6873302262287,194.6003874871117 196.1638959327633,194.64363325349183 196.6491149781947,194.7612415498988 197.1351919351456,194.9568889504217 197.61372154830062,195.23353268182254 198.0757499164308,195.59332582842742 198.51184651385438,196.03753686728203 198.91218687858787,196.56647482479255 199.26664565008474,197.1794213626268 199.5648994893744,197.87457110204383 199.79653926008598,198.64898148102003 199.95119069190733,199.49853340664848 200.0186425902635,200.41790391555202 199.98898149931165,201.40055198690007 199.8527315717586,202.43871856566318 199.6009982506344,203.5234417478026 199.22561422719284,204.644587954222 198.71928600780825,205.7908997767884 198.07573930338035,206.9500610180965 197.28986134962392,208.10877926770348 196.35783817797525,209.2528861623654 195.2772847868941,210.3674552677009 194.04736611420287,211.43693729531137 192.66890668478942,212.44531213458373 191.14448680636022,213.37625693435325 189.47852321064147,214.21332921872335 187.67733208994287,214.9401637662942 185.7491725605326,215.54068172573065 183.70426869574948,215.99931018611164 181.55480841381956,216.30121017113333 179.3149176782289,216.43251078543057 177.00060867214611,216.38054701260972 174.62970084231412,216.13409845170304 172.22171397116065,215.6836260853687 169.7977327272989,215.0215040029851 167.38024246236722,214.14224285848837 164.992936364094,213.04270172996974 162.66049443893974,211.72228496911939 160.40833517958157,210.18312058683674 158.26234116934876,208.430216719726 156.2485602835572,206.47159276347418 154.39288456218367,204.3183818456231 152.72070924476367,201.98490144395143 151.2565748717303,199.48868913907563 150.02379576129272,196.8505007219481 149.0440785617748,194.09426815912406 148.33713495029284,191.24701525082273 147.92029289380352,188.33872919814698 147.80811120187246,185.40218672489138 148.01200237597442,182.4727338740258 148.53986899177156,179.5880191163335 149.39575903281232,176.78767996524311 150.5795457208576,174.11298388331136 152.08663745430005,171.60642488707535 153.90772346701817,169.31127790236468 156.02856075110708,167.2711135852304 158.42980764443746,165.52927699734843 161.08690926475992,164.1283342014207 163.9700396736717,163.1094915135057 167.0441052746166,162.5119928066611 170.26881348849702,162.37250089465556 173.59881020871887,162.72446962637432 176.98388891586507,163.59751388123186 180.3692736330879,165.01678516363182 183.69597713022895,167.00236094048176 186.90123494228425,169.56865624029467 189.91901486196159,172.72386632604304 192.68060060375302,176.46944945760893 195.11524732634808,180.79965886483313 197.15090565069147,185.7011330509025 198.71500973297944,191.15255343101336 199.73532385690766,197.12437807673743 200.14084091000058,203.57865997719412 199.86272501825582,210.4689577401052 198.83528954577986,217.7403460365329 196.99700063640222,225.32953234149332 194.291495497776,233.16508563916955 190.66860372091594,241.16778174830245 186.08535910539356,249.25106878441323 180.5069887384238,257.32165501655726 173.90786547055873,265.28022000496156 166.27240945699214,273.0222484316663 157.59592410628818,280.4389844706454 147.88535161156307,287.41850290016544 137.15993324558912,293.84689145357606 125.45175979247203,299.60953715233404 112.80619787447283,304.59250758557846 99.28217852144579,308.6840163143091 84.95233512850585,311.775959806958 69.90297895901497,313.76551157991184 54.23390157647623,314.55675754545297 38.05799502961801,314.0623549855975 21.500682266216785,312.20519609894706 4.699152106647972,308.9200557347946 -12.19860484166685,304.1552017601868 -29.034960715279908,297.87394552698635 -45.64401435838681,290.05610914209615 -61.85315115910993,280.6993857187898 -77.48479252487499,269.82056852304845 -92.35832598842768,257.45662494672956 -106.29220408737405,243.66559155792947 -119.10619726822432,228.5272671142377 -130.62378316390965,212.14368139000985 -140.674651716953,194.63931897444462 -149.09730280651928,176.16107884962534 -155.74171032553903,156.87795255950235 -160.47202408463994,136.98040613050958 -163.16927853422055,116.67945359621797 -163.73407513667172,96.20541300153663 -162.089203329481,75.8063391010805 -158.18216343826475,55.74613060104252 -151.98755366704523,36.302313698828016 -143.50928245008942,17.763507819350252 -132.78256703190937,0.4265837957391909 -119.87567918323379,-15.406470745158742 -104.89139949115423,-29.431959400823814 -87.96814270738304,-41.348134322801855 -69.28071822113628,-50.85907405096219 -49.040691858865245,-57.67874837235041 -27.496317912367203,-61.53523215548762 -4.932013563879451,-62.175025709048214 18.332648290991102,-59.367435045211266 41.94444743407033,-52.90896156010163 65.5185406151825,-42.62764714486832 88.64101099024863,-28.3873176793536 110.87194603702801,-10.091665303340193 131.74904092304592,12.311892126359453 150.79171755653152,38.828637338289354 167.50574247715275,69.41332931468432 181.38831940495524,103.96739184643693 191.93362473666258,142.33657761359322 198.63874663933245,184.30916871021012 201.00998072991834,229.6147719393003 198.56942773938167,277.9237637112202 190.86183114084113,328.8474349704527 177.46158557656196,381.9388812447835 157.9798401556361,436.69467666189735 132.07161442267977,492.55736362769034 99.44283912871275,548.9187818366411 59.85722897941298,605.1242514288299 13.142890402654274,660.4776154749122 -40.80143582696749,714.2471366275779 -102.00059944184852,765.6722318066506 -170.39783639418533,813.9710172795378 -245.85023863853962,858.3486245665706 -328.1249997294975,898.0062353616979 -416.89653515079453,932.1507712447498 -511.74457204355815,960.0051615147706 -612.1532972906181,980.8191001474115 -717.5116457142448,993.8801908344134 -827.114801446111,998.5253674686022 -940.1669753386032,994.1524664678773 -1055.7855096324508,980.2318171647087 -1173.0063480244503,956.3177073040468 -1290.7908948579081,922.0595726722077 -1408.034271476838,877.2127532001003 -1523.5749609532913,821.6486527189184 -1636.2058145479568,755.3641360607882 -1744.6863745512594,678.4899955467732 -1847.7564487505683,591.2983192334741 -1944.1508518739583,494.20859572570816 -2032.6152091868826,387.7923950172682 -2111.9226971972575,272.7764717851975 -2180.8915764053327,150.0441469032931 -2238.4033514799207,20.63483470096611 -2283.4213754263756,-114.2584023105506 -2315.0096965178686,-253.2933729043445 -2332.351930279662,-394.98543346006807 -2334.7699239392837,-537.7163825093916 -2321.741967776348,-679.7456113852925 -2292.920297012803,-819.2235233250398 -2248.147619558218,-954.2072059823054 -2187.472399334409,-1082.678313261789 -2111.1626223018425,-1202.563081951004 -2019.717772929343,-1311.7543770734324 -1913.8787528970943,-1408.1356275435635 -1794.635481479456,-1489.6064809158336 -1663.2319284659154,-1554.1099731653799 -1521.1683457544054,-1599.660976922048 -1370.2004829605098,-1624.3756598280795 -1212.3355955531476,-1626.5016541504604 -1049.8250811288601,-1604.4486099118565 -885.1536103994372,-1556.818777080791 -721.024654164776,-1482.4372382582644 -560.342345792786,-1380.3813922894178 -406.18966029329863,-1250.0092717840043 -261.80293565816277,-1090.9862641040525 -130.5428093925948,-903.3097964071908 -15.861692674273684,-687.3315412297358 78.73204411769989,-443.7767002321532 149.71294818074736,-173.75993044696298 193.58014376172815,121.20251004326578 206.9014413326903,439.1848013768016 186.35951066321186,777.8481655354067 128.7996804300876,1134.4423823529933 31.27887743895593,1505.8125281453558 -108.88482829720215,1888.4112030058513 -294.0626497051186,2278.316462352525 -526.2660961578023,2671.255611791295 -807.09922447801,3062.634962074549 -1137.7128057707112,3447.5755732743364 -1518.7611080619447,3820.9549447342774 -1950.3620091107819,4177.454530491668 -2432.0611602283047,4511.612879335734 -2962.800919872221,4817.884115248041 -3540.8947646423135,5090.70138850071 -4164.0078646105585,5324.5448410923 -4829.144479298777,5514.0135434827525 -5532.64278978222,5653.900773818311 -6270.1777311729475,5739.2719271443975 -7036.772328064124,5765.544261670365 -7826.81796346303,5728.567613193563 -8634.103929507639,5624.705138555261 -9451.856516189671,5450.913085745916 -10272.787792884681,5204.818533255374 -11089.154127349464,4884.793995711194 -11892.824368778494,4490.02775796665 -12675.35749644938,4020.58877673692 -13428.08940452135,3477.484978716577 -14142.228357915119,2862.713787834293 -14808.958515269662,2179.3037327945067 -15419.550774250845,1431.3460200810277 -15965.480053609865,624.0150077705879 -16438.547987095677,-236.4234177174289 -16831.009868457193,-1142.6164761444936 -17135.704556245666,-2086.1429528165036 -17346.18592392737,-3057.5461788516814 -17456.854326966328,-4046.382094383589 -17463.086456076744,-5041.282806728261 -17361.361856813844,-6030.035890369743 -17149.384322078768,-6999.679496309902 -16826.196307902945,-7936.61314617023 -16392.284485920158,-8826.723882954244 -15849.674529972512,-9655.527237354296 -15202.013240941746,-10408.322247924978 -14454.636144575192,-11070.35954758651 -13614.618753018136,-11627.0213002206 -12690.809762967274,-12064.01154223361 -11693.844572557553,-12367.555257720882 -10636.137635738916,-12524.604295264518 -9531.852337128776,-12523.048022557821 -8396.847261942838,-12351.926415192474 -7248.597954064504,-12001.643091360538 -6106.093499690744,-11464.175638231642 -4989.707542985081,-10733.280431674279 -3921.043632080243,-9804.689032060742 -2922.7551065072116,-8676.293148291943 -2018.340068187536,-7348.315102924384 -1231.9123246219187,-5823.460706214787 -587.9495515634788,-4107.051458620407 -111.02028963104942,-2207.1330521207556 174.50823900021672,-134.5572326486456 244.7791358184386,2096.9657794573777 76.7689276368075,4470.846935556264 -351.37831893921793,6967.632472821567 -1060.0092976812023,9565.054629898887 -2067.6159291868257,12238.120785202793 -3390.4900445055855,14959.242482957152 -5042.382605748631,17698.405414009067 -7034.172016681888,20423.380980443508 -9373.546268480679,23099.97959786006 -12064.703811853287,25692.345380269726 -15108.07814171363,28163.291314000904 -18500.091119897945,30474.673463479383 -22232.94004086062,32587.802168609014 -26294.423361097888,34463.8875966694 -30667.80986201822,36064.51640766935 -35331.75579550917,37352.155687986626 -40260.27426963604,38290.67971039437 -45422.76076759584,38845.914497133126 -50784.078255921784,38986.19460479943 -56304.70482854979,38682.92602400228 -61940.946253215385,37911.14860167518 -67645.21513822502,36650.0909583891 -73366.3777244409,34883.71049572964 -79050.16853385595,32601.21077836695 -84639.67227801045,29797.528340205998 -90075.87155335848,26473.780811919423 -95298.25793419895,22637.668205692913 -100245.50312567175,18303.819228987395 -104856.18586921472,13494.074638635066 -109069.5693114435,8237.699894812919 -112826.4225660362,2571.5197355943346 -116069.87922913961,-3460.0322300765492 -118746.32466492923,-9804.955218173709 -120806.3029726725,-16403.819848045627 -122205.43369382092,-23190.008366795773 -122905.32753142358,-30090.060337305826 -122874.48964873118,-37024.12655125819 -122089.19850345055,-43906.5327670456 -120534.3476726886,-50646.45361329701 -118204.23774467561,-57148.69565100682 -115103.30510987823,-63314.58716178384 -111246.77438812057,-69042.97073903825 -106661.22129098518,-74231.29321720824 -101385.03294981412,-78776.78589710781 -95468.75314760614,-82577.72643047811 -88975.30048462679,-85534.7721323904 -81980.04828772043,-87552.35291626179 -74570.75604490317,-88540.11051374578 -66847.34331071233,-88414.36917260796 -58921.49838223544,-87099.62164226783 -50916.11558683063,-84530.01298210997 -42964.55674341487,-80650.80358489098 -35209.734250659596,-75419.79181980374 -27803.015305256373,-68808.67588960633 -20902.948946746525,-60804.33388558848 -14673.819944634544,-51410.00063418917 -9284.035968079159,-40646.31977913219 -4904.356985429845,-28552.249651312155 -1705.9784044242292,-15185.801860890448 141.51794396985113,-624.5922161670625 472.32828475273953,15033.815457723515 -873.3124084384485,31671.790751986482 -4046.795244775365,49151.75992467504 -9188.751893695757,67316.58563519038 -16426.64507424217,85990.21562126977 -25872.363488476756,104978.61026563546 -37619.8514822656,124070.95619650904 -51742.80531510421,143041.16998632465 -68292.46922958881,161649.69267656602 -87295.56549484475,179645.57228744417 -108752.39322283366,196768.8276985142 -132635.1309899686,212753.0833430217 -158886.37811000756,227328.46008300982 -187417.9687716909,240224.70346520707 -218110.09215433575,251174.52634580154 -250810.75004864263,259917.13866420835 -285335.5814258591,266201.9329949634 -321468.08080836484,269792.2904679862 -358960.23419737804,270469.4677786546 -397533.59271321207,268036.52236989525 -436880.80001136055,262322.2295192964 -476667.58497195394,253184.94206651807 -516535.22614543006,240516.34093043787 -556103.4890063939,224245.02245166907 -594974.0312598838,204339.86701192366 -632734.265306972,180813.1323825766 -668961.6605637489,153723.21489214516 -703228.4617009982,123177.02182355578 -735106.7920989346,89331.8994986427 -764174.1049671179,52397.06331503583 -790018.9377441958,12634.47859783884 -812246.9186511999,-29640.855464119508 -830486.96771586,-74061.26229829062 -844397.6283078534,-120207.42329166621 -853673.4593227025,-167610.12457367725 -858051.4127237789,-215752.74114602414 -857317.1162970224,-264074.47682868596 -851310.9772899678,-311974.37032533594 -839934.0191929721,-358816.06887028855 -823153.3613697964,-403933.3614676052 -801007.2496466362,-446636.45374794805 -773609.5454070469,-486218.9560384059 -741153.5812910546,-521965.54546505434 -703915.2933284143,-553160.2518982653 -662255.5423050661,-579095.3064278171 -616621.5414153879,-599080.4799499682 -567547.3128228997,-612452.828500541 -515653.1026585412,-618586.7513241682 -461643.6922310733,-616904.2574820754 -406305.5527968444,-606885.3272275268 -350502.8021045822,-588078.2455782176 -295171.93304801686,-560109.7776512819 -241315.29805655897,-522695.04855810106 -189993.34724684118,-475646.98514198576 -142315.63373878464,-418885.17273282446 -99430.61578505424,-352443.9775362869 -62514.30232688025,-276479.7844045105 -32757.80611058104,-191277.20067676264 -11353.886395970336,-97254.07963924523 517.4186363254835,5034.77797117278 1703.9516304992844,114895.37903269571 -8902.747974354159,231493.87518283277 -32351.124958579465,353857.5962764257 -69612.95606197059,480877.8809410398 -121566.54971902909,611314.7894086529 -188979.99732315142,743803.7660917866 -272494.6882908935,876864.2996364711 -372609.31214809796,1008910.6065336592 -489664.579766867,1138264.340943971 -623828.9024993888,1263169.3083637962 -775085.2720446622,1381808.1343339996 -943219.5852284736,1492320.8118050075 -1127810.6562733536,1592825.0222850526 -1328222.1544079666,1681438.0968101134 -1543596.6966622402,1756300.4534023902 -1772852.3142976528,1815600.3183789216 -2014681.4964437783,1857599.5099987804 -2267552.996106916,1880660.0348878345 -2529716.5617743586,1883271.2208548568 -2799210.7323975284,1864077.0845309007 -3073873.804678402,1821903.609145764 -3351358.0494389245,1755785.5871292774 -3629147.2185996883,1664992.664512393 -3904577.3461654726,1549054.2097213056 -4174860.8058896656,1407782.618706888 -4437113.545303179,1241294.6618159346 -4688385.370926838,1050030.4757455203 -4925693.113173826,834769.8066532714 -5146056.452167781,596645.1183112472 -5346536.137978666,337151.1923327639 -5524274.291173213,58150.86616382289 -5676536.422693284,-238123.4211500387 -5800754.76654269,-549072.5753566676 -5894572.475239761,-871738.5496873325 -5955888.187153891,-1202817.0264996432 -5982900.437378403,-1538675.253499264 -5974151.350390665,-1875375.157801676 -5928569.024101896,-2208701.803690027 -5845507.991676922,-2534197.1978554516 -5724787.1303634625,-2847199.379632769 -5566724.376127746,-3142886.6638088054 -5372167.599731709,-3416326.830608986 -5142521.004529134,-3662530.982163132 -4879766.41917334,-3876511.707896088 -4586478.880005652,-4053345.1237323135 -4265835.928450354,-4188236.2726679486 -3921620.0884913537,-4276587.298120441 -3558214.038378299,-4314067.727548066 -3180588.0491111055,-4296686.133201536 -2794279.3298878386,-4220862.370633193 -2405362.9973411844,-4083499.5348565667 -2020414.4706907866,-3882054.71995319 -1646463.1884141394,-3614607.6215728614 -1290937.6430779686,-3279925.9842715575 -961601.8388220859,-2877526.8680321225 -666483.3897616117,-2407732.691622398 -413793.59625808767,-1871721.0056102844 -211839.958450179,-1271566.9557142735 -68931.71136684222,-610277.4184931777 6720.90802447645,108184.1732146622 7112.825842928793,878883.2476795695 -75445.23125346522,1695910.622120963 -248212.705837002,2552390.9285168266 -517902.98096007825,3440503.6296418905 -890566.2545778736,4351517.20733191 -1371472.9172747738,5275836.980098042 -1964998.9210411122,6203066.868277865 -2674514.7018276746,7122085.272722408 -3502279.279168461,8021135.068560095 -4449341.200593985,8887927.54009986 -5515448.025217656,9709759.897854405 -6698966.048253846,10473645.825668238 -7996811.954924041,11166458.306865912 -9404398.057019625,11775083.77529124 -10915592.70727606,12286586.432322511 -12522697.404873885,12688381.366875838 -14216441.999232363,12968414.914613355 -15985999.268509138,13115350.497794406 -17819019.993830178,13118758.00125137 -19701689.470536605,12969304.565758133 -21618806.194261003,12658944.520533774 -23553883.233360216,12181106.03475382 -25489272.551444072,11530871.946683286 -27406312.276067805,10705152.131274104 -29285496.624126326,9702844.695591073 -31106667.89342677,8524983.248877432 -32849229.616056412,7174867.482926373 -34492379.64552948,5658174.320918323 -36015361.61967924,3983046.950996933 -37397732.90852184,2160159.1562465033 -38619646.82483259,202752.48671480783 -39662146.54913032,-1873356.0073886602 -40507467.90459986,-4049797.548706592 -41139347.815782204,-6305708.72584821 -41543335.002350144,-8617823.427448582 -41707099.200765714,-10960600.806426104 -41620734.976908855,-13306390.095096687 -41277055.99665814,-15625632.68831133 -40671875.46358505,-17887101.476076525 -39804268.31793082,-20058176.94246035 -38676810.723148085,-22105159.057816416 -37295792.34953312,-23993613.48089014 -35671397.00246169,-25688750.06117189 -33817847.238674656,-27155831.095407203 -31753508.770632178,-28360606.251481332 -29500950.67826477,-29269770.53437086 -27086957.73099495,-29851441.139378164 -24542491.47142528,-30075648.524593547 -21902597.12564938,-29914836.544975813 -19206253.882898875,-29344366.03223404 -16496166.627606397,-28343015.785688132 -13818497.807356972,-26893474.567259986 -11222538.777223267,-24982817.376541693 -8760320.6702002,-22602959.02704397 -6486165.599601137,-19751077.85968422 -4456179.7960296385,-16430002.321202034 -2727691.111763197,-12648553.110087326 -1358634.1809390243,-8421833.656543182 -406887.39591894316,-3771461.86127403 70433.26115925581,1274263.7252943492 17717.617809141273,6680269.742841583 -618364.8320871873,12404691.876277369 -1888068.2211690212,18398942.15348093 -3837759.152385197,24607864.438508254 -6509100.238080441,30969982.09426397 -9938238.157921914,37417840.90826744 -14155006.661652384,43878449.397257805 -19182155.455761917,50273817.53671158 -25034616.32459893,56521593.80704859 -31718818.134219453,62535799.21796948 -39232062.540145494,68227655.67638257 -47561972.25758508,73506504.71326803 -56686023.645093516,78280811.19396079 -66571175.0916804,82459245.2191011 -77173602.27604607,85951833.99593475 -88438550.77937472,88671174.03865133 -100300315.77621919,90533692.66030903 -112682357.59942184,91460946.36647664 -125497560.87489939,91380942.47193567 -138648643.65256757,90229469.0567916 -152028721.52523673,87951417.27784896 -165522030.1346787,84502079.07571337 -179004807.7225762,79848402.48839325 -192346337.50529584,73970186.11817704 -205410147.64966324,66861193.81969584 -218055364.51875257,58530170.401645996 -230138212.66127858,49001739.07972455 -241513652.75693136,38317161.59935729 -252037146.42669454,26534942.37734294 -261566534.49761778,13731258.70293212 -269964013.00347227,200.00000033061082" stroke="white" stroke-width="1.5" /><circle cx="154.10328460079143" cy="219.83662056813236" fill="red" opacity="0.7" r="5.0" /></svg>