<?xml version="1.0" encoding="utf-8" ?>
<svg baseProfile="full" height="400" version="1.1" width="400" xmlns="http://www.w3.org/2000/svg" xmlns:ev="http://www.w3.org/2001/xml-events" xmlns:xlink="http://www.w3.org/1999/xlink"><defs /><rect fill="black" height="100%" width="100%" x="0" y="0" /><circle cx="200" cy="200" fill="yellow" r="10.00000575118541" stroke="orange" stroke-width="2" /><polyline fill="none" points="200.24477747333586,200.0 200.16422513896347,200.00862106960173 200.0776702229069,200.00817719827813 199.98583476218636,199.9977526387528 199.88955640277177,199.9764841245618 199.78978577333166,199.94357478337204 199.68758227923396,199.89830814495807 199.58410826337433,199.84006207554415 199.4806214971469,199.7683224598487 199.37846598319186,199.68269644332952 199.27906107132776,199.5829250400281 199.1838889101575,199.46889490625574 199.09448027904975,199.3406490773497 199.01239886834318,199.19839646403116 198.93922409947035,199.04251990668624 198.87653260100765,198.87358259030776 198.82587848114878,198.69233263000217 198.78877256148576,198.49970564697645 198.76666076094807,198.29682516784067 198.76090184197477,198.0850006959275 198.77274475313396,197.86572332213882 198.80330582311544,197.64065876454745 198.85354607994594,197.41163775052993 198.92424898606558,197.18064368247204 199.01599889419649,196.9497975579126 199.129160540397,196.7213401471739 199.2638598989833,196.49761146582793 199.41996672880896,196.2810276154794 199.5970791414234,196.07405510398291 199.79451051861665,195.87918279498837 200.01127909957114,195.69889167621253 200.24610054608007,195.5356226756324 200.4973837779078,195.39174279440257 200.7632303492522,195.26950986421645 201.0414376113679,195.1710362745243 201.32950587572634,195.09825205094222 201.62464975668266,195.05286769976686 201.92381383261673,195.03633726417888 202.22369272010403,195.04982206489586 202.52075560711108,195.09415562115052 202.81127523882415,195.1698102663643 203.09136129390404,195.27686598621776 203.35699803018176,195.41498201447996 203.60408601759823,195.5833717234683 203.82848771314818,195.78078134094358 204.02607656837293,196.00547301321984 204.19278929528156,196.25521271497138 204.32468085223684,196.52726347940194 204.41798164814546,196.81838438793332 204.46915640210358,197.1248357162873 204.47496403736395,197.4423905837805 204.4325179340296,197.7663533949295 204.33934581517624,198.0915852972759 204.19344849709546,198.41253680700166 203.99335669696478,198.72328767483236 203.73818506139654,199.0175939794545 203.4276825578703,199.28894234484588 203.06227835884513,199.53061108229755 202.64312234614655,199.73573795835307 202.1721193717285,199.89739418739063 201.65195643073272,200.0086641431932 201.0861219344186,200.0627301787718 200.47891631441473,200.05296183918475 199.83545324612072,199.97300864946584 199.16165084810237,199.81689556044776 198.46421229596058,199.57912004069064 197.75059538324567,199.25474971440462 197.02897066819733,198.83951936469742 196.30816796290642,198.32992605021286 195.59761105023017,197.72332102275863 194.90724065257652,197.0179970853282 194.24742582445384,196.21326999542313 193.62886409622138,195.30955249912657 193.06247085836102,194.3084195782132 192.5592586422296,193.21266350683737 192.13020712289284,192.02633734700888 191.78612484037427,190.7547855639704 191.53750380542485,189.40466051437565 191.39436832255814,187.98392365227173 191.36611952431417,186.5018304105241 191.46137726414807,184.9688978484693 191.68782115855373,183.39685430994672 192.05203269956604,181.79857050890132 192.5593404741587,180.1879716516231 193.21367062482477,178.57993041427372 194.0174047633921,176.99014082022293 194.97124760558245,175.43497330216016 196.07410662478608,173.9313114869417 197.32298602796774,172.4963715043772 198.71289733271246,171.14750489206003 200.23678877056074,169.90198644404776 201.88549565663638,168.77678862859437 203.64771374809857,167.78834447588417 205.5099974634506,166.95230110728164 207.45678465087207,166.28326633927435 209.47044937655875,165.79455104419952 211.53138395402866,165.49791018205644 213.61811115339398,165.40328562920797 215.7074272170718,165.51855411654944 217.77457596715948,165.84928374778949 219.7934539220487,166.39850269395717 221.73684594860305,167.16648374937796 223.5766905646653,168.1505484836044 225.2843735785519,169.34489472986405 226.83104831174754,170.74045111052482 228.18798020289125,172.32476221129164 229.3269131404025,174.08190787617247 230.22045442316522,175.99245990301887 230.84247480933226,178.03347917352727 231.16851968856778,180.17855595144403 231.17622700917806,182.39789572845177 230.84574721501318,184.65845258961093 230.16016010426267,186.92411161078394 229.10588321985244,189.15592129142476 227.67306612553614,191.31237647048243 225.85596471928073,193.34975157473943 223.6532895922467,195.22248341225497 221.06852236330886,196.8836020540773 218.11019391097614,198.28520765115027 214.79211849155516,199.3789903172408 211.1335778786603,200.11678948033148 207.1594498881871,200.45118837249808 202.90027596733734,200.3361386006609 198.39226292801504,199.72760902713716 193.6772143947603,198.58425249945415 188.80238811514974,196.86808331358864 183.8202759449785,194.54515768412415 178.78830406907727,191.58624893934083 173.76845184764164,187.96750866958973 168.8267885825285,183.67110464394074 164.03292847191958,178.6858259832958 159.4594050575922,173.00764584777895 155.18096755803123,166.6402317715811 151.273802612778,159.59539376818157 147.81468612754443,151.8934604407711 144.88007109339443,143.56357357356788 142.5451184432794,134.643892055165 140.88267919104254,125.18169649943931 139.96223725641795,115.23338658578207 139.84882349856656,104.86436393981714 140.60191254375758,94.148794317998 142.2743149829429,83.16924394236696 144.91107841498751,72.01618605125887 148.5484116039725,60.78737508182297 153.21264668723148,49.587087372864346 158.91925489797057,38.525228861564955 165.67193163644944,27.716311932927255 173.46176692164047,17.27830535206411 182.2665172670484,7.331363050424159 192.04999483733764,-2.003560570503737 202.76158934559874,-10.606199230651782 214.33593753537247,-18.358555737287617 226.69275424994186,-25.146561885184212 239.73683801923048,-30.861801970052397 253.35826278982034,-35.40328277811702 267.4327658867669,-38.679231190200426 281.82234053061035,-40.608898933333194 296.376039245955,-41.12435255474182 310.93099229903817,-40.17222541000467 325.3136429040354,-37.71540737697103 339.3411983579441,-33.73464715669377 352.82329352165317,-28.230041428113026 365.56386018348627,-21.222384809097946 377.3631928476242,-12.754354565374825 388.020198413073,-2.8915043212806495 397.33481408198907,8.276958320019162 405.1105746947199,20.637634329510405 411.15730757100357,34.05265868419244 415.29392988271536,48.359709631741964 417.35132063567477,63.37232061209565 417.17523654007493,78.88051115333968 414.6292384459416,94.65175018161685 409.5975926570861,110.43226194707952 401.9881093597891,125.94868118637805 391.73487865590016,140.91006023832017 378.8008633180425,155.01022663013688 363.1803064293367,167.93048518969178 344.9009115712804,179.34265405188611 324.0257532179455,188.91241905866562 300.6548755155368,196.3029860498396 274.9265387024795,201.1790054596332 247.0180740802075,203.21073852942874 217.14631069705015,202.0784293824615 185.5675397689432,197.47684224702772 152.5769863363596,189.1199183297763 118.5077617447681,176.74550230108647 83.72927522623046,160.12008413328618 48.64508813444721,139.04349820337345 13.690200218165955,113.35351820885636 -20.672236326802107,82.93028362137846 -53.95477245271516,47.70049118917851 -85.65007766823794,7.641283464539356 -115.23589780240974,-37.21623445919167 -142.1805297496208,-86.7839188051326 -165.94877968928796,-140.91401950118797 -186.00836301444224,-199.3971872644418 -201.83669591030667,-261.96111883436765 -212.92802029810622,-328.2699001242029 -218.80079580762572,-397.92410238636467 -219.0052846762693,-470.4616808160961 -213.13124810829748,-545.3597183512976 -200.81566578408456,-622.0370497820822 -181.75038400560658,-699.857792690587 -155.68959252097335,-778.1358022432502 -122.45702550634434,-856.1400565119236 -81.95277861361694,-933.1009678783355 -34.159631527877735,-1008.2176042654844 20.851235775512293,-1080.6657915398453 82.91524483153117,-1149.6070555549493 151.77024885456007,-1214.1983490881987 227.05329867090282,-1273.6024955001592 308.298447362757,-1326.9992674723028 394.9356905461158,-1373.5970058194325 486.29113157029116,-1412.6446703007439 581.5884516698975,-1443.4442017504748 679.951754227702,-1465.3630629035183 780.409839845929,-1477.8468141961253 881.9019549227064,-1480.4315707714939 983.2850409608853,-1472.7561781101322 1083.3424949920513,-1454.573936327649 1180.7944333969458,-1425.7636974260793 1274.3094321856104,-1386.3401558290723 1362.5176966307122,-1336.4631505461261 1444.0255922127649,-1276.4457974531215 1517.431447345715,-1206.7612725866243 1581.3425165355945,-1128.0480721495233 1634.392970733299,-1041.113582215988 1675.2627599423588,-946.9358009806888 1702.6971719165088,-846.6630688697117 1715.526890325806,-741.6116769391393 1712.6883363900693,-633.2612417198645 1693.2440599875918,-523.247754979561 1656.402929962393,-413.3542396846432 1601.5398590915127,-305.49896864028113 1528.2147872478524,-201.72122971120342 1436.1906370088366,-104.16465098842065 1325.4499496089034,-15.05813053698958 1196.209905990028,63.30555183036395 1048.9354380232755,128.59332926452356 884.3501389835473,178.4575026486352 703.4446902565935,210.56327353921213 507.4825332042247,222.61793782446563 298.002531232955,212.40148739654404 76.8183874821344,177.7983326683279 -153.9853917988276,116.82982556271398 -392.06116919803765,27.687231160503813 -634.809631322168,-91.23523297883531 -879.3951379570337,-241.30769719623942 -1122.7650349242383,-423.6327102719815 -1361.6729557055116,-639.0145298640264 -1592.706088959297,-887.9300975622559 -1812.3163381799618,-1170.5021734746338 -2016.8552463864676,-1486.4751102375503 -2202.6125033696694,-1835.193745682208 -2365.8577962334,-2215.585886724721 -2502.8857063419064,-2626.1488440585126 -2610.0632979978914,-3064.940457652697 -2683.87998692895,-3529.575026701872 -2720.9992207034643,-4017.224524404108 -2718.311449313163,-4524.62543771663 -2672.987813157513,-5048.091525087032 -2582.5339283721123,-5583.532731204334 -2444.843106696425,-6126.480437274827 -2258.2483097117088,-6672.119158514762 -2021.5721061229747,-7215.3247278757635 -1734.1738766125318,-7750.708926991718 -1395.9934944279685,-8272.670442569784 -1007.5907020072891,-8775.451939655017 -570.1794052577458,-9253.202953189075 -85.65611818919825,-9700.048206961636 443.37818802510424,-10110.160875412752 1013.6035454045999,-10477.840209863138 1620.9744296670451,-10797.59285777684 2260.721797273366,-11064.217112816414 2927.3642697510404,-11272.889246007162 3614.72893913693,-11419.250985598437 4315.9821804370085,-11499.497136542663 5023.670758367574,-11510.462261267541 5729.773406828451,-11449.705282948462 6425.762941239321,-11315.590822142241 7102.678836877098,-11107.366038719241 7751.2100716862205,-10825.231724780708 8361.787890856314,-10470.406381847506 8924.688004091817,-10045.18201813518 9430.14157640998,-9552.970420158797 9868.454221115706,-8998.338688075326 10230.132051064862,-8387.032876752632 10506.01369331809,-7725.988655067504 10687.407024784996,-7023.327984703716 10766.229244533444,-6288.340926861618 10735.148764229696,-5531.451810704325 10587.727273870181,-4764.1691407124135 10318.560227771672,-3999.0187808195396 9923.413897913964,-3249.460130418081 9399.35706035115,-2529.7851999577933 8744.885317643833,-1855.0007005488324 7960.036018142147,-1240.6934810931637 7046.491713373356,-702.8798761113153 6007.670099513693,-257.83976545399486 4848.798419519776,78.06360890987581 3576.970360312803,288.57677649042415 2201.183565550574,357.7605818826984 732.3559998206832,270.2043527236489 -816.6804549503119,11.247666843639763 -2431.2106152566535,-432.7925368967784 -4094.692063831417,-1074.391977321028 -5788.837675793635,-1924.5888539855036 -7493.725347611155,-2992.7563311248846 -9187.935384785364,-4286.380697477665 -10848.715690583444,-5810.848348507564 -12452.174561788492,-7569.244838741362 -13973.500540968616,-9562.169319531153 -15387.208401268415,-11787.567708426961 -16667.409952706945,-14240.587927671499 -17788.107962335223,-16913.460498562443 -18723.511078651813,-19795.407683380432 -19448.367248042312,-22872.584225470222 -19938.312712662366,-26128.052549560536 -20170.233290362983,-29541.795047683183 -20122.63426344002,-33090.765790820995 -19776.01484983142,-36748.98367297977 -19113.242903660466,-40487.66861365508 -18119.925197568944,-44275.42201822589 -16784.76838292475,-48078.4522258958 -15099.925511461965,-51860.84516435066 -13061.32283880061,-55584.87988294635 -10668.961521936099,-59211.38805632354 -7927.188774198114,-62700.155942893936 -4844.9330569647,-66010.36665337211 -1435.8979716950637,-69101.07993981105 2281.2903278498975,-71931.74606241287 6282.987152112251,-74462.7496372947 10540.489361619244,-76655.97872147924 15020.055776245557,-78475.41376015257 19682.991696410845,-79887.73041462782 24485.800781003483,-80862.9097166346 29380.406906282285,-81374.84846493685 34314.447935260556,-81401.9623033279 39231.6425617969,-80927.77350423511 44072.23056260342,-79941.47513880933 48773.48589956524,-78438.46305152567 53270.301171224855,-76420.82688365213 57495.84092423178,-73897.79131358974 61382.26031229291,-70886.09871050497 64861.48454206157,-67410.32453754054 67866.04348385075,-63503.1170979297 70329.9547623412,-59205.35359618642 72189.64759173572,-54566.20499066645 73384.91859495317,-49643.10274529922 73859.90986194283,-44501.60134785512 73564.09857297946,-39215.13134886768 72453.28665414543,-33864.638686767576 70490.57815951027,-28538.10719666309 67647.33140316157,-23329.962446516354 63904.072309366005,-18340.35639737538 59251.35502543683,-13674.333834134171 53690.555563419286,-9440.883048459244 47234.58411667908,-5751.874862682609 39908.50174797313,-2720.8957474076637 31750.027377410577,-461.9824894515788 22809.921421125095,911.7324079930446 13152.233051993646,1289.4536844714614 2854.398877891364,564.2220255528007 -7992.818135835869,-1365.5357688137558 -19285.559433738115,-4594.421027826178 -30907.279815674436,-9208.459249589114 -42729.34140018714,-15283.496713584358 -54611.79760196902,-22883.617694158358 -66404.37009012123,-32059.603389889202 -77947.6194916274,-42847.4545803948 -89074.30824518525,-55267.0007051201 -99610.9515130657,-69320.6185050803 -109379.54944483061,-84992.08355704689 -118199.49138126244,-102245.57794062913 -125889.6198172446,-121024.87689463764 -132270.43913875692,-141252.73662504472 -137166.45134421287,-162830.50441065413 -140408.59818886014,-185637.9708053218 -141836.78648961775,-209533.48205181872 -141302.4707348424,-234354.3288006173 -138671.26469860534,-259917.42486954303 -133825.55150246326,-286020.28709413053 -126667.05954009542,-312442.32431521284 -117119.36992212795,-338946.4402457253 -105130.31964987962,-365280.9513739346 -90674.2636264036,-391181.8172211154 -73754.15789808471,-416375.1762088457 -54403.426224851675,-440580.1761400888 -32687.572233603823,-463512.0838993987 -8705.500046029267,-484885.6544757696 17409.492587172113,-504418.73485589464 45489.082948954965,-521836.0737790185 75329.68591586426,-536873.3038438156 106692.63976584257,-549281.0580724601 139304.841285443,-558829.1788296193 172859.85238388873,-565310.9730287914 207019.4960436111,-568547.463900664 241415.95454408502,-568391.5863141797 275654.3775143653,-564732.2697966829 309316.00153389375,-557498.3510595829 341961.7767530831,-546662.2560634433 373136.48939502815,-532243.3905113087 402373.36208537506,-514311.17719761207 429199.1068045864,-492987.6789137926 453139.39793858427,-468449.74666663475 473724.72549998376,-440930.63484037603 490496.58118915965,-410721.02766066935 503013.92265456094,-378169.4249204214 510859.8541919245,-343681.83941833646 513648.45529382344,-307720.7639442356 511031.682028763,-270803.37191379693 502706.2602992545,-233498.92289047886 488420.484708494,-196425.35220343026 467980.832162425,-160245.03263393787 441258.29555334634,-125659.70564348374 408194.340014948,-93404.58978496214 368806.3824042178,-64241.68469329525 323192.69394420413,-38952.3002980192 271536.626436776,-18328.852531468066 214110.0642004827,-3165.978703011375 151276.0069687443,5748.9622577867 83490.19344899568,7645.927458810117 11301.68113126861,1782.676501116732 -64647.69473296899,-12544.39392938512 -143625.05127852125,-35989.17907806621 -224809.43537726588,-69144.68092325289 -307296.0946412975,-112531.84055436827 -390102.07554370916,-166588.52853526853 -472173.1678523631,-231658.8411100641 -552392.1991075855,-307982.8562171825 -629588.6663278221,-395687.00787976786 -702549.6746318776,-494775.24047904887 -770032.1341759503,-605121.1055436431 -830776.1478929118,-726460.9628667757 -883519.5031837461,-858388.4448747803 -927013.1611588133,-1000350.3381115478 -960037.6174883688,-1151644.0283923121 -981419.9896416552,-1311416.6465564643 -990051.6665290402,-1478666.0397778773 -984906.3385799262,-1652243.6790640878 -965058.2093667518,-1830859.5969131484 -929700.1743038626,-2013089.4301500325 -878161.737992801,-2197383.62181562 -809926.4297352419,-2382078.8127463125 -724648.4668690121,-2565411.428310704 -622168.4081702455,-2745533.438844554 -502527.534862454,-2920530.2438643794 -365980.695021106,-3088440.6003946187 -213007.34857946428,-3247278.484997174 -44320.55492272961,-3395056.747660974 139126.34663126955,-3529812.38393834 336135.6011925239,-3649633.2199763297 545263.6694947155,-3752685.7737824274 764822.8283719945,-3837244.025603174 992885.919586027,-3901718.8011169466 1227294.3989025948,-3944687.443697611 1465669.806438577,-3964923.4267511917 1705428.7448474565,-3961425.5345245027 1943801.4140748163,-3933446.2202908485 2177853.710438245,-3880518.7348849494 2404512.8539683246,-3802482.6066236678 2620596.4616435757,-3699507.046126916 2822844.9357719766,-3572111.846833743 3007956.9867780306,-3421185.3544478165 3172628.0585606596,-3247999.086458771 3313591.372955868,-3054218.596540097 3427661.2582754656,-2841910.1982349735 3511778.3760447395,-2613543.188063232 3563056.410608766,-2371987.2401054595 3578829.738927594,-2120504.682262102 3556701.553364478,-1862737.4086881215 3494591.869332503,-1602688.2332291817 3390784.813052472,-1344696.5448108048 3243974.553133304,-1093408.1873473928 3053309.213948197,-853739.5534451139 2818432.089554088,-630835.9524823992 2539519.4648635476,-430024.3889852904 2217314.346558857,-256760.96590480366 1853155.410413103,-116573.20869516082 1449000.4847642793,-14997.689149319283 1007443.9123073203,42486.58814490815 531727.1644744017,50528.49009386137 25742.12471368467,3978.1209151549715 -505973.4909062451,-102037.46002222209 -1058249.0451179717,-272036.95468091924 -1625302.6200271258,-510106.8357144839 -2200771.701953174,-819823.5736205868 -2777753.1342391134,-1204177.0659111782 -3348852.4614054915,-1665496.3035580094 -3906242.6794449906,-2205378.3515488757 -4441732.291017928,-2824621.7513576453 -4946842.441760907,-3523165.4723940557 -5412892.785948266,-4300034.546033685 -5831095.597577969,-5153293.508700734 -6192657.5079536475,-6080008.758860421 -6488888.114491647,-7076220.895971803 -6711314.569402937,-8136928.056896866 -6851801.122795267,-9256081.196556997 -6902672.464410712,-10426592.174545646 -6856839.583532967,-11640355.40790939 -6707926.749495515,-12888283.73255984 -6450398.107662454,-14160358.98215493 -6079682.289712727,-15445697.644388385 -5592293.35450496,-16732631.791276107 -4985946.308661879,-18008805.303300593 -4259665.4061603425,-19261285.21846454 -3413883.3954206496,-20476687.83795413 -2450529.8723190906,-21641319.01199799 -1373106.909712292,-22741327.81462838 -186750.16979916027,-23762872.596629456 1101726.2339098668,-24692298.184415247 2483802.772192735,-25516322.77153925 3949246.968153806,-26222232.831770733 5486126.693645504,-26798084.17111894 7080845.524426128,-27232907.033887163 8718201.19241751,-27516912.987933606 10381467.955661373,-27641701.13999426 12052503.464016963,-27600461.076405566 13711880.432649137,-27388169.7910328 15339043.147667665,-27001779.75381064 16912488.521019,-26440395.193058793 18409971.08741458,-25705433.61553653 19808730.997593846,-24800769.57273234 21085743.712833766,-23732857.702609252 22217989.748937294,-22510832.13509639 23182742.457918573,-21146579.448879 23957871.476501968,-19654782.507943083 24522159.11689693,-18052932.68991077 24855626.6318638,-16361308.245046075 24939866.95780513,-14602916.79497368 24758380.231600847,-12803400.293196665 24296908.09434439,-10990901.124387039 23543762.5432477,-9195888.414548362 22490144.876960848,-7450944.057294204 21130450.104475398,-5790508.429802608 19462552.058581274,-4250586.272030606 17488064.376197673,-2868413.7304042713 15212572.484166231,-1682088.1177253379 12645831.764250945,-730162.5091399484 9801927.16864547,-51207.87380939693 6699389.7202025205,316653.973023868 3361265.5622308324,336242.7294934761 -184866.47728637993,-28167.164345313406 -3906932.471894746,-810317.4288858465 -7768459.357439043,-2041426.5109850187 -11728731.981219657,-3749645.8459414346 -15743013.375086222,-5959518.305775921 -19762829.74445151,-8691445.732123448 -23736320.959974222,-11961172.801537873 -27608656.57640224,-15779294.753762407 -31322516.589446124,-20150796.72153815 -34818635.28326486,-25074632.526231844 -38036405.62584386,-30543350.839857336 -40914540.745931655,-36542776.55454169 -43391788.082834475,-43051755.03943786 -45407690.84972927,-50041966.6977306 -46903390.50351956,-57477818.85892739 -47822462.98160867,-65316421.551388726 -48111780.56091196,-73507653.09558411 -47722390.330074675,-81994320.73972015 -46610399.45569729,-90712420.72747971 -44737856.68108301,-99591501.24538386 -42073618.83541313,-108555130.64910258 -38594190.56600082,-117521472.21982254 -34284525.04979702,-126403965.46112582 -29138773.105581176,-135112112.6229702 -23160967.92759523,-143552367.7432225 -16365632.606227834,-151629124.04125592 -8778297.70217774,-159245793.99654254 -435916.40650271974,-166305974.9135415 8612834.74215227,-172714691.22956395 18307380.99393473,-178379703.2830102 28575210.98730498,-183212870.74497864 39331984.43433213,-187131557.44817695 50481794.341694035,-190060062.9447054 61917590.86096529,-191931064.8104978 73521772.32631166,-192687054.5113026 85166947.33031335,-192281748.5754371 96716869.81895196,-190681455.90440023 108027547.16726607,-187866381.315565 118948519.0428727,-183831844.87263596 129324302.59323339,-178589396.23931566 138995997.1246664,-172167803.2083375 147803038.99960843,-164613893.7285083 155585094.9890088,-155993231.19163668 162184079.806704,-146390603.46167046 167446281.0520441,-135910307.13992733 171224572.32768422,-124676209.86991024 173380692.91461623,-112831575.09646946 173787570.11095625,-100538635.6072591 172331658.21019116,-87977904.39582737 168915266.14495817,-75347213.8879183 163458844.09007424,-62860477.35378877 155903197.83989152,-50746169.37387087 146211598.5851637,-39245525.51248486 134371754.84797728,-28610464.860096846 120397612.82195185,-19101242.79965447 104330951.2394861,-10983845.203711929 86242737.1751709,-4527139.238747358 66234209.91928309,199.99999991888674" stroke="white" stroke-width="1.5" /><circle cx="180.69113542661592" cy="246.1212288310569" fill="red" opacity="0.7" r="14.854497299884601" /></svg>