<?xml version="1.0" encoding="utf-8" ?>
<svg baseProfile="full" height="400" version="1.1" width="400" xmlns="http://www.w3.org/2000/svg" xmlns:ev="http://www.w3.org/2001/xml-events" xmlns:xlink="http://www.w3.org/1999/xlink"><defs /><rect fill="black" height="100%" width="100%" x="0" y="0" /><circle cx="200" cy="200" fill="yellow" r="10.0001669824915" stroke="orange" stroke-width="2" /><polyline fill="none" points="199.70686910548196,200.0 199.6065392042608,199.9793451055847 199.5026653281208,199.9476401113536 199.39624570699073,199.9042124093645 199.28837523224496,199.84847940652753 199.18023824840267,199.77996144623373 199.07309974719138,199.69829430316622 198.96829496645427,199.6032410668826 198.86721741638848,199.49470322499738 198.77130537666932,199.37273075406736 198.68202692995405,199.23753102576129 198.60086361984986,199.08947633773235 198.5292928444401,198.9291098829419 198.4687691196315,198.7571499781203 198.4207043696336,198.57449238168192 198.38644742451893,198.38221054379878 198.36726292672486,198.18155364651128 198.36430986922895,197.97394230970988 198.37862000762524,197.76096185952684 198.41107640611932,197.5443530790529 198.4623923932042,197.32600038723282 198.5330912161496,197.1079174201416 198.62348669410486,196.89223001941124 198.73366517726836,196.68115666513177 198.86346912391687,196.47698642482146 199.01248260783996,196.28205452573448 199.18001906563947,196.09871569450218 199.36511158621116,195.92931544550106 199.56650603334344,195.7761595369828 199.78265727660568,195.64148185144055 200.01172878545438,195.52741099344144 200.25159581671667,195.43593593372117 200.49985239631695,195.36887106219694 200.7538222623601,195.327821044168 201.01057389859088,195.31414590279866 201.2669397449993,195.32892677647072 201.51953962618356,195.37293282120916 201.76480838832498,195.4465897456002 201.99902768265554,195.5499504779235 202.21836177754744,195.68266847213002 202.41889722333676,195.84397416036433 202.5966861342767,196.03265505455354 202.7477927912316,196.24703998780805 202.86834320755372,196.48498796770627 202.95457723976682,196.74388208774042 203.00290276499453,197.02062891012153 203.00995138933357,197.311663692708 202.9726350964332,197.61296178504 202.888203194273,197.9200564634357 202.75429887141277,198.228063413035 202.56901463271168,198.53171199585782 202.33094584955026,198.82538336878923 202.0392416318032,199.10315543441374 201.69365220902338,199.3588545214214 201.29457199729433,199.58611360061605 200.8430775267122,199.77843674820122 200.34095941312574,199.92926947093065 199.79074757716663,200.03207440891083 199.19572894421842,200.0804118324482 198.55995690117558,200.068024250541 197.88825183987785,199.98892435169182 197.18619218309752,199.83748540399537 196.46009536688274,199.60853315231583 195.7169883427506,199.29743816722473 194.96456726435167,198.90020752466094 194.21114613530028,198.41357462843698 193.46559431722062,197.8350859311768 192.73726292886647,197.16318326442416 192.0359003074213,196.39728045684478 191.37155685060046,195.53783290193218 190.75447971160747,194.58639873458935 190.19499797682874,193.54569029045953 189.7033991167191,192.4196145538455 189.28979766181854,191.21330135026028 188.96399721629987,189.93311810869108 188.73534707881666,188.5866701069312 188.61259489253024,187.18278522103884 188.60373689080544,185.73148232706825 188.7158674398701,184.24392264941633 188.95502970240446,182.7323435148868 189.3260693542195,181.20997415409607 189.83249337758807,179.69093339104398 190.47633602714217,178.19010927618888 191.25803411537163,176.7230209465581 192.17631379259458,175.30566323636717 193.22809099891202,173.9543348111163 194.40838774138808,172.68545085471845 195.71026629701328,171.51534160016888 197.1247833596627,170.46003825664124 198.64096603629224,169.53504814651862 200.24581145337825,168.75512112138023 201.9243115587989,168.13400957284492 203.65950449705244,167.68422458877092 205.4325536973776,167.41679102388773 207.22285554587143,167.34100445269524 209.00817621540963,167.46419314761022 210.76481790283665,167.79148837310893 212.467814373723,168.3256064033339 214.0911553436745,169.06664575277358 215.60803883485247,170.01190315384434 216.9911502406099,171.1557118184188 218.2129664139819,172.48930547976127 219.2460826716112,174.00071162452718 220.0635601783532,175.67467718943777 220.6392907544453,177.49262981240355 220.94837573220917,179.43267749220888 220.96751508850886,181.4696492239054 220.6754026985477,183.5751788389346 220.05312320213244,185.71783389048338 219.08454565142992,187.86329098713406 217.75670882566226,189.97455849366204 216.06019285923784,192.01224698975463 213.98947164146176,193.93488730910272 211.54324031394006,195.69929537712895 208.7247121215037,197.26098243067113 205.541878868937,198.574608543086 202.00772930352355,199.59447670000077 198.14041988633787,200.27506398154375 193.9633926365865,200.57158571413848 189.50543503562483,200.44058776725882 184.8006773622167,199.84056149679796 179.8885232989002,198.73257518622006 174.81351020073578,197.08091521909307 169.62509605094792,194.85372964182358 164.3773708406304,192.02366625345383 159.12869089822325,188.56849690026183 153.94123555415828,184.4717192665495 148.88048645097595,179.7231271490902 144.01463079221446,174.31933999053985 139.4138908561019,168.26428233547261 135.14978317305014,161.56960386970997 131.29431186848802,154.25503081658334 127.91910179294707,146.34863969906098 125.09447818678889,137.88704483955152 122.88850074387082,128.915491463693 121.36596103232418,119.4878469032168 120.58735328631134,109.66648315720377 120.60782958444581,99.52204497029335 121.47615136243328,89.1330986185237 123.23365005313859,78.58565775452114 125.91321039041495,67.9725839479159 129.53829053753043,57.392860956415944 134.12199369118392,46.9507432682193 139.6662061528168,36.754781055757974 146.1608170359534,26.91672536053676 153.58303477847838,17.55031907355456 161.89681544023216,8.769981068105523 171.05241737878154,0.6893926625677125 180.98609630120336,-6.580002580683981 191.61995388069815,-12.930572900044552 202.86195209956645,-18.26013162691754 214.6061042326902,-22.473613415870204 226.73285191894962,-25.484775477988165 239.10963608551043,-27.217904371868116 251.5916675981403,-27.609507536602763 264.0229014191574,-26.609967548272152 276.2372157759119,-24.185136072008618 288.059795392695,-20.317843691193218 299.30871523662375,-15.009301248224546 309.7967184955751,-8.280368050729976 319.3331796688831,-0.17266230438252705 327.7262407375645,9.25051055216818 334.7851054214089,19.903435296661314 340.3224735591332,31.677492867764585 344.15709470113404,44.440916192200035 346.1164171204724,58.03881560362416 346.03930566667196,72.29349152652772 343.7787992501892,87.00504970624768 339.20487629549285,101.9523315235805 332.20719428055367,116.89416885018416 322.69776753321,131.57096949445952 310.61354582283144,145.70663557763203 295.9188550103658,159.01081319211397 278.6076601410004,171.18146745992127 258.7056109187555,181.90777266410976 236.27182952597772,190.87330251207248 211.40040127399337,197.7595008521564 184.22152962106227,202.2494083550982 154.90231869247083,204.03161584421147 123.64714860194073,202.80441017196011 90.69761161455423,198.2800738578209 56.331980513507034,190.18929518837567 20.864184433907894,178.28564120281428 -15.3577281032928,162.35004201452546 -51.95365420281351,142.19523132205177 -88.51403935026627,117.67008481026386 -124.6030215699073,88.66379550418533 -159.7621141542744,55.10982308071195 -193.5144172462306,16.98955273203734 -225.36934132462187,-25.66440153027196 -254.82781814214604,-72.76531418382439 -281.3879669631563,-124.1699502991026 -304.55117613241157,-179.67671489338903 -323.8285521629124,-239.0244093701691 -338.7476807575209,-301.89165133965747 -348.85963657659306,-367.8970096393308 -353.7461712382732,-436.5999009522484 -353.0270020991296,-507.5022880597536 -346.36711792267533,-580.0512124800318 -333.48401171552143,-653.6421860637212 -314.1547459089785,-727.6234570841273 -288.2227507999439,-801.3011565278365 -255.60425384805995,-873.9453197305386 -216.29423516107528,-944.7967672950915 -170.37180338573694,-1013.0748174706434 -118.00488634833613,-1077.9857899720569 -59.454132238679165,-1138.7322487005038 4.924080025526223,-1194.5229181230618 74.67561832223181,-1244.5831953272661 149.24765401502475,-1288.1661671416523 227.98888177471036,-1324.5640293703866 310.1509776500071,-1353.1197933015044 394.89136013005077,-1373.2391533923515 481.2773070662533,-1384.402379595086 568.2914679928283,-1386.1760883439547 654.8387966724106,-1378.2247379688736 739.7549126861037,-1360.3216874088264 821.8158836981281,-1332.359651750744 899.749401789123,-1294.3603844849579 972.2473081253954,-1246.4834146068833 1037.979400392546,-1189.0336669536373 1095.6084370699864,-1122.4677965761084 1143.8062319766855,-1047.3990726255718 1181.270711815179,-964.6006542730097 1206.743788934241,-875.0071106494293 1219.0298814888301,-779.7140487416002 1217.0148938795176,-679.9757276170528 1199.6854520925144,-577.2005542722903 1166.1481716322028,-472.9443757545098 1115.6487204404325,-368.90150392233636 1047.5904258305463,-266.8934331726803 961.5521633245256,-168.8552375214993 857.3052566567708,-76.81966140224893 734.8291123733734,7.101051782584705 594.3253096708397,80.73551820978123 436.22986662200714,141.8756518751967 261.2234079433054,188.30104203037536 70.23896715129615,217.80509576598524 -135.5328325111169,228.22273805396986 -354.6414585136773,217.45942825223165 -585.3772314689289,183.52121953407223 -825.7753666190672,124.54555638564084 -1073.6234638556468,38.832475689798315 -1326.4725842025457,-75.12415053397268 -1581.6520153184574,-218.6057174494652 -1836.287789556059,-392.63874313482813 -2087.3249756923424,-597.9659040816565 -2331.553719918101,-835.0186907272337 -2565.638963402702,-1103.8921326487932 -2786.153713149837,-1404.3220474470338 -2989.615690404353,-1735.6652663918617 -3172.527127087632,-2096.883283249679 -3331.4174262103884,-2486.529760060263 -3462.888347563859,-2902.7423047366096 -3563.6613258973553,-3343.2389100421956 -3630.626475959905,-3805.3194116394407 -3660.892787959453,-4285.872284460474 -3651.8389689411047,-4781.387051663658 -3601.164341089264,-5287.972529027732 -3506.939167809361,-5801.381070009575 -3367.6537434339007,-6317.038913152523 -3182.2655533038646,-6830.082664473394 -2950.2437885590493,-7335.401873368257 -2671.610484955421,-7827.687582044276 -2346.9775480965127,-8301.486646186304 -1977.578929246884,-8751.261539275043 -1565.2972269509319,-9171.455265548142 -1112.684010491789,-9556.56091798191 -622.9731921892387,-9901.195328892509 -100.08681694564257,-10200.176172903948 451.36731050972253,-10448.601796261815 1026.1066774904752,-10641.93296399365 1618.1942377811688,-10776.075638473656 2221.06806826811,-10847.46383081639 2827.5807735310577,-10853.141501487604 3430.048800672773,-10790.84242986327 4020.311714232073,-10659.066925458124 4589.801360444839,-10457.154217413297 5129.620722338137,-10185.349334755554 5630.632133276264,-9844.863279027786 6083.5543778782985,-9437.925294156854 6479.0680670984575,-8967.826056780912 6807.928530241438,-8438.950644487135 7061.085322439061,-7856.800190147422 7229.807303421961,-7228.001198260854 7305.812104160208,-6560.301584212111 7281.3986640807,-5862.552599733455 7149.581395124743,-5144.675927506243 6904.22441195621,-4417.615364424164 6540.17416225906,-3693.272665998499 6053.388699359763,-2984.4272929120543 5441.061763432129,-2304.63998376655 4701.739779286032,-1668.1402743152207 3835.4298401211695,-1089.6982913707407 2843.696729435911,-584.4813673223705 1729.7470391699612,-167.89624673670835 498.49847260009454,144.58211243017132 -843.3675232342976,337.5939064201684 -2287.371567694532,396.08855111201296 -3823.2222606983046,305.5277426018569 -5438.823723472475,52.09558410910725 -7120.306121474695,-377.0863668698969 -8852.08032996724,-993.7414823574497 -10616.917680142502,-1808.2204194502447 -12396.055474536319,-2829.286159157166 -14169.328686049244,-4063.904588459195 -15915.327956946347,-5517.043608317859 -17611.583694855955,-7191.483844269178 -19234.775724573246,-9087.644098173178 -20760.967600343607,-11203.42470673102 -22165.864316588926,-13534.071961862408 -23425.091779470982,-16072.066697568125 -24514.496021334744,-18807.040055439957 -25410.459759354762,-21725.719304860042 -26090.23352333218,-24811.906412925426 -26532.278210528057,-28046.491832483847 -26716.615572863975,-31407.5057041386 -26625.182809131427,-34870.208349992914 -26242.187127492136,-38407.2215741592 -25554.455867047414,-41988.70187918154 -24551.777527110742,-45582.556260672805 -23227.22885445434,-49154.70075745981 -21577.482987486826,-52669.36141484571 -19603.093557088705,-56089.41676837984 -17308.7496014045,-59376.78037956715 -14703.496170601655,-62492.821358699184 -11800.915581317255,-65398.82019950451 -8619.264432534732,-68056.45663223647 -5181.561717650158,-70428.32558332224 -1515.623663482352,-72478.47671846388 2345.958702844705,-74172.97245018608 6365.902813495647,-75480.45871871691 10502.381681621626,-76372.74231548353 14709.23732954619,-76825.36802027375 18936.262306586785,-76818.18837525375 23129.550351935017,-76335.91853046292 27231.916468430427,-75368.66827495469 31183.385827277045,-73912.44312394924 34921.75002853151,-71969.60617338908 38383.18830536274,-69549.29236680042 41502.95029051007,-66667.7668523755 44216.095970920214,-63348.71924696595 46458.28745204089,-59623.485873574864 48166.62614837117,-55531.19240427774 49280.528024098465,-51118.80982448835 49742.628540150356,-46441.11723904253 49499.70803547834,-41560.565766242245 48503.62739503854,-36547.038611884236 46712.26304919179,-31477.503378915033 44090.42962368182,-26435.553745601163 40610.77793050242,-21510.838830197456 36254.65547213402,-16798.379845516236 31012.916238685462,-12397.775023270817 24886.666322679852,-8412.295244569284 17887.931771993757,-4947.874336708749 10040.23515917585,-2111.99957301539 1379.0675751541448,-12.509525813661412 -8047.756834110038,1243.691944903376 -18179.876071206298,1551.9951519451795 -28944.29672313064,811.5054629685382 -40255.46213435787,-1073.4879942773887 -52015.48163819813,-4192.010908762237 -64114.52878838361,-8624.886170230551 -76431.41496254742,-14443.217895186175 -88834.34295454783,-21706.896104859803 -101181.843242924,-30463.142082859158 -113323.89353044011,-40745.115276895616 -125103.21990982053,-52570.60324220133 -136356.77564137257,-65940.81653248984 -146917.39105004366,-80839.31060742606 -156615.58548611758,-97231.0567251179 -165281.52967138615,-115061.68340771293 -172747.14409992096,-134256.90939376422 -178848.31651049154,-154722.18801133175 -183427.2188292394,-176342.58161253354 -186334.70143127476,-198982.88309855646 -187432.74012472463,-222487.99963271213 -186596.9089578392,-246683.61139056948 -183718.84982725914,-271377.11563726614 -178708.70796195103,-296358.8635638449 -171497.50071093408,-321403.6941724002 -162039.38571152306,-346272.7660939643 -150313.7934948967,-370715.68457825296 -136327.38893232826,-394472.91703984386 -120115.82567099555,-417278.48651502846 -101745.25788285461,-438862.9282158391 -81313.57428017099,-458956.49010526395 -58951.32045959804,-477292.55410705303 -34822.277241450414,-493611.2502552411 -9123.664785310768,-507663.2318363469 17914.055104840103,-519213.57543772063 46027.80292122867,-528045.7658478351 74922.9524072618,-533965.7220193188 104274.86512491204,-536805.8168651763 133730.90057613375,-536428.8405755673 162912.90870306193,-532731.854478984 191420.20604724888,-525649.8802888597 218833.03091639184,-515159.3679339677 244716.4666357795,-501281.38412507845 268624.8154062813,-484084.463414107 290106.3985136568,-463687.063803942 308708.75170475995,-440259.570010324 323984.1775408065,-414025.78929808986 335495.60953836207,-385263.88744239265 342822.73600254755,-354306.71582248947 345568.32473630126,-321541.4849537502 343364.68337039923,-287408.74490578735 335880.1840003641,-252400.63903333308 322825.7752391078,-217058.40424356906 303961.39979988505,-181969.09860917862 279102.23141403054,-147761.54546896048 248124.6413614083,-115101.492183729 210971.80224492797,-84685.99136864461 167658.83496571757,-57237.02262598602 118277.40423848442,-33494.383464565886 62999.6685057888,-14207.889111649436 2081.491835048151,-128.93218721921698 -64135.171627659474,7998.535405032581 -135220.80576992471,9447.524644035406 -210657.85266430065,3517.950672790947 -289841.2972142495,-10453.102658282034 -372080.3803619649,-33080.90128894825 -456601.4951780559,-64922.47861785616 -542552.3090772775,-106466.07751358568 -629007.1430489612,-158120.74992903415 -714973.6252235544,-220206.25435418595 -799400.6214052966,-292943.3970391948 -881187.4294930397,-376444.96718302486 -959194.2081139241,-470707.41896357125 -1032253.5924549781,-575603.4542440546 -1099183.4323614656,-690875.6588998697 -1158800.569462729,-816131.3428578656 -1209935.5515873807,-950838.7290297137 -1251448.1642576053,-1094324.6292762116 -1282243.640838551,-1245773.7363046294 -1301289.3952073546,-1404229.6489448454 -1307632.1038509507,-1568597.7345656517 -1300414.9483642983,-1737649.9165013332 -1278894.8146674177,-1910031.4563104534 -1242459.2321588015,-2084269.7805635333 -1190642.8247414855,-2258785.379765439 -1123143.03645856,-2431904.783105069 -1039834.887610848,-2601875.5871645003 -940784.5129428734,-2766883.4897200223 -826261.232000064,-2925071.251568065 -696747.9032863727,-3074559.4801799934 -552949.3185699852,-3213469.099231566 -395798.4017505204,-3339945.3379936907 -226459.9882378897,-3452183.0445643296 -46331.97588985474,-3548453.0973442015 142956.34273711083,-3627129.6604081453 339548.93474173587,-3686718.0009121667 541370.8098428973,-3725882.560829006 746139.0445477443,-3743474.9515556637 951377.1273305549,-3738561.518720086 1154432.6686557834,-3710450.106265558 1352498.4807507393,-3658715.6340353056 1542636.9904362136,-3583224.092029283 1721807.9043968513,-3484154.5476515256 1886899.0004071929,-3362018.7599769593 2034759.870664969,-3217677.9976751325 2162238.3950090683,-3052356.6650303253 2266219.6729498995,-2867652.3537440016 2343667.094690616,-2665541.957096669 2391665.1832816913,-2448383.5077243303 2407463.793374239,-2218913.4308110806 2388523.2073910725,-1980238.9409270126 2332559.6280097375,-1735825.3529897225 2237590.5273529217,-1489478.1257633003 2101979.27891704,-1245319.5097150605 1924478.46874355,-1007759.729629303 1704271.2583412817,-781462.6957471267 1441010.1540707697,-571306.3048942268 1134852.5267393442,-382337.46452198626 786492.2216232704,-219722.0471848259 397186.60357179464,-88690.05999052306 -31221.605263872578,5523.60780620133 -496288.31578981114,57742.41651262179 -994958.4802092041,62914.8652585875 -1523563.4676046749,16184.039045591886 -2077825.906460483,-87040.6619561013 -2652872.4343009777,-251010.35885352944 -3243254.7257463667,-479562.91221126105 -3842979.0921793752,-776049.4003616358 -4445544.859230523,-1143261.7918998392 -5043991.6329132,-1583362.7941875942 -5630955.462096607,-2097818.898445514 -6198733.794858167,-2687337.670671984 -6739359.010008714,-3351810.3551532216 -7244680.183770445,-4090260.8627611496 -7706452.626379664,-4900802.208695516 -8116434.595580969,-5780601.4430394955 -8466490.464991625,-6725854.081807669 -8748699.496670732,-7731768.995551317 -8955469.240551218,-8792564.646679152 -9079652.460389815,-9901477.485246634 -9114666.368338903,-11050783.216039458 -9054612.839971434,-12231831.537493188 -8894398.180454588,-13435094.825718483 -8629850.922441091,-14650231.095221354 -8257836.058985715,-15866161.412615571 -7776364.052224337,-17071161.771743294 -7184692.91243198,-18252969.2593936 -6483421.614085118,-19398902.15170416 -5674573.107249668,-20495993.384047177 -4761665.195426228,-21531136.633636978 -3749767.5861584544,-22491244.04636585 -2645543.4793130304,-23363414.429786306 -1457274.1408084158,-24135110.525190696 -194865.0172996057,-24794343.76603691 1130167.919757829,-25329864.730306506 2504732.7541052494,-25731357.303654484 3914218.0991041358,-25989634.391378596 5342572.229537591,-26096832.853332896 6772405.40294766,-26046605.189967494 8185115.649792024,-25834305.382715825 9561038.038417194,-25457166.190928634 10879617.129180958,-24914465.133339047 12119602.024409149,-24207676.337341044 13259263.100000164,-23340605.426720902 14276629.173499612,-22319504.640193444 15149743.525797598,-21153165.431197595 15856936.853004064,-19852985.895609684 16377114.885578817,-18433010.509700775 16690058.077723512,-16909939.836740624 16776730.445908196,-15303108.077662721 16619594.32589826,-13634426.599188726 16202927.527599517,-11928291.871298695 15513139.101363782,-10211456.583938053 14539079.693027781,-8512863.08879599 13272342.26280192,-6863438.72375651 11707548.779986361,-5295853.02247722 9842618.386012102,-3844237.2861787854 7679012.446898693,-2543867.495220903 5221951.896989393,-1430812.059901264 2480602.312509296,-541546.4480855803 -531777.7506236692,87462.72384555389 -3797729.4624470198,420200.99677310686 -7295531.553755466,421573.07988644944 -10999187.078037035,57889.33302869937 -14878462.54429562,-702633.039826408 -18898982.443718776,-1889359.3483654484 -23022381.706569254,-3528723.057810428 -27206518.074958514,-5643713.878313852 -31405745.764853697,-8253374.848108674 -35571251.12027435,-11372315.28366345 -39651450.238592245,-15010246.73351943 -43592447.773580566,-19171549.264789548 -47338555.30873817,-23854875.525323 -50832866.84477048,-29052800.053623926 -54017888.070176505,-34751521.24670217 -56836215.19181992,-40930623.237825155 -59231258.20305637,-47562904.67710933 -61148002.57120536,-54614281.044563726 -62533802.44523551,-62043766.65506537 -63339197.63044022,-69803541.93652357 -63518745.76204943,-77839110.87613225 -63031860.34690594,-86089552.73640567 -61843644.64451363,-94487871.24536435 -59925710.73896397,-102961443.46795866 -57256972.62442273,-111432569.47433096 -53824401.701653644,-119819122.74205129 -49623732.773728065,-128035299.97288936 -44660108.44721112,-135992467.6803897 -38948649.80153228,-143600101.52444148 -32514941.29374029,-150766812.94660342 -25395418.127038073,-157401456.21005267 -17637644.736620028,-163414307.48681125 -9300473.641101757,-168718306.17985204 -454074.6761922188,-173230347.23726478 8820174.4287182,-176872611.82934752 18429944.050670985,-179573922.4374462 28272361.87633972,-181271107.16641054 38234580.4724165,-181910356.96166635 48194506.7628037,-181448558.40838754 58021695.17492645,-179854583.93503186 67578404.2991748,-177110520.55720744 76720814.86067514,-173212817.8002652 85300404.64816564,-168173335.14904857 93165473.80021365,-162020269.30833346 100162811.53625903,-154798941.73362398 106139493.06313623,-146572427.32294187 110944793.01330294,-137422005.85799515 114432199.40718323,-127447418.75652856 116461509.8091243,-116766914.9534209 116900989.09590128,-105517071.26918124 115629566.11154895,-93852374.4511421 112539044.4760432,-81944554.18095995 107536300.98256545,-69981658.72496837 100545443.39281859,-58166867.5498941 91509898.0566413,-46717038.12049613 80394396.67398289,-35860987.21809528 67186830.7168063,-25837510.446502928 51899941.56576572,-16893147.096568055 34572814.32047088,-9279701.191013454 15272143.537967041,-3251533.291479986 -5906760.135077985,937358.5194018305 -28839252.32678306,3036446.2097156914 -53370954.5983487,2801941.812622835 -79317697.64213745,200.00000009713642" stroke="white" stroke-width="1.5" /></svg>