<?xml version="1.0" encoding="utf-8" ?>
<svg baseProfile="full" height="400" version="1.1" width="400" xmlns="http://www.w3.org/2000/svg" xmlns:ev="http://www.w3.org/2001/xml-events" xmlns:xlink="http://www.w3.org/1999/xlink"><defs /><rect fill="black" height="100%" width="100%" x="0" y="0" /><circle cx="200" cy="200" fill="yellow" r="20" stroke="orange" stroke-width="2" /><polyline fill="none" points="199.1820345884654,200.0 199.22406965712082,199.95926720151198 199.2737759257096,199.92354240753315 199.33089077953446,199.89384363665403 199.3950366431292,199.87118997115385 199.4657178062881,199.85658920902523 199.54231850150097,199.85102483787855 199.6241023403388,199.8554424476384 199.71021320662626,199.8707357137649 199.79967769266077,199.89773209690821 199.8914091513122,199.9371784182147 199.98421342160742,199.98972648172358 200.0767962684354,200.05591892620058 200.16777255839907,200.13617549812403 200.25567717370956,200.2307799451509 200.33897764451675,200.33986773503403 200.41608845736891,200.4634148084318 200.48538697380383,200.60122757516322 200.5452308686112,200.75293436204043 200.59397697233666,200.91797851630463 200.63000137738558,201.09561336177467 200.65172064193862,201.28489919498432 200.6576139011187,201.48470249576377 200.64624567079042,201.69369751087137 200.61628910637188,201.91037035039952 200.566549457452,202.1330257147915 200.4959874392002,202.3597963454905 200.40374222389087,202.58865526460565 200.28915374070917,202.8174308386807 200.1517839597133,203.04382466888677 199.99143682674335,203.26543227497191 199.80817651052067,203.4797665033786 199.60234362147645,203.68428355140804 199.37456906426368,203.87641145954592 199.12578519268988,204.0535808834764 198.85723394716493,204.21325791634948 198.57047167085614,204.3529786910172 198.26737032169666,204.47038545173274 197.95011482327004,204.5632637457531 197.62119632839912,204.6295803479672 197.28340120494946,204.66752149666732 196.93979559379818,204.6755309864816 196.59370543393567,204.65234763588424 196.24869189900312,204.5970416221881 195.90852224290268,204.50904915707932 195.57713610905117,204.3882049611368 195.25860741791584,204.23477198692035 194.95710201013466,204.04946783760886 194.67683128717786,203.8334873322729 194.4220021574824,203.58852068007383 194.19676366255123,203.31676674433103 194.00515072386926,203.02094090375525 193.85102551680728,202.70427705239797 193.73801704108027,202.3705233221186 193.6694595178826,202.0239311616303 193.648330300594,201.6692374643651 193.67718803797754,201.3116395033061 193.75811187510962,200.956762504264 193.89264251693433,200.61061976941613 194.08172601137727,200.27956534974606 194.3256611324837,199.970239357673 194.62405125819612,199.68950610888643 194.97576164135296,199.44438538431996 195.37888296554476,199.24197720832706 195.83070205895777,199.08938064636575 196.32768060872775,198.9936072336662 196.86544267518576,198.9614897541628 197.43877174940192,198.99958719505287 198.04161802845914,199.11408680526594 198.6671165009025,199.31070428439406 199.30761633996195,199.59458322071526 199.95472199475364,199.9701949812759 200.59934625022285,200.44124033201808 201.2317753957815,201.01055413008507 201.8417465012779,201.68001448218914 202.4185366481717,202.45045780080378 202.95106380481673,203.32160121254867 203.4279988690029,204.29197377916756 203.83788822998852,205.35885797976638 204.16928602794144,206.51824287244557 204.41089511294538,207.7647903032402 204.55171553060563,209.0918154596845 204.58119918902705,210.4912829748559 204.4894091948706,211.95381967516968 204.2671821867515,213.46874493147172 203.90629184491226,215.02411941836573 203.39961161942736,216.60681291173262 202.7412745977162,218.20259155987114 201.92682832838923,219.796224850716 200.95338233490534,221.37161226759196 199.8197459915707,222.9119293806559 198.52655439832873,224.3997928625951 197.07637988169697,225.81744364761133 195.47382676901526,227.14694717485267 193.72560713357166,228.37040937415034 191.84059529059186,229.4702067663438 189.8298589396301,230.42922876602765 187.70666499836696,231.23112999484954 185.48645835661856,231.8605901423211 183.18681199749562,232.3035786524226 180.82734718471735,232.54762127214096 178.42962270020945,232.58206527659718 176.01699243297497,232.3983399887386 173.61443096699463,231.9902090437925 171.24832719028913,231.354010713834 168.94624634644182,230.4888825097884 166.73666137053738,229.39696622065458 164.64865478982244,228.0835895361321 162.71159292117355,226.55742043226678 160.95477455793832,224.83059058293836 159.40705680276116,222.9187841952935 158.09646116507068,220.84128885638583 157.04976349611871,218.62100522257538 156.29207177464102,216.28441268331844 155.84639617593922,213.86148848684817 155.7332162498762,211.38557822621442 155.97005039223046,208.89321604880058 156.57103311234897,206.42389346857667 157.5465058713958,204.01977622501025 158.9026274831875,201.7253692419698 160.64101022732694,199.58713038952803 162.7583879161235,197.65303443592035 165.24632217705152,195.97208928985114 168.09095315621823,194.59380736790965 171.27280071105338,193.56763567037518 174.7666219384807,192.94234890277633 178.54133057527832,192.76541073121487 182.55998340815762,193.08230899710318 186.77983834126024,193.93587143154923 191.1524881883016,195.3655690907177 195.6240735866375,197.40681537039004 200.1355776734313,200.09026903975118 204.62320432343793,203.44115025022478 209.01884082855645,207.47857891411883 213.25060490740756,212.21494519933066 217.24347487623106,217.65532214015286 220.92000069918578,223.79693051063438 224.20109247672912,230.62866613695894 227.00688173649715,238.1306997307437 229.2576496745183,246.274159098866 230.87481526931134,255.02090322139196 231.78197497210454,264.32339718270254 231.9059844786317,274.12469628876465 231.1780719280584,284.3585469040223 229.53497076953312,294.9496105946738 226.92005950406045,305.81381707306167 223.2844945665493,316.85885020440793 218.58832177774778,327.98476996800736 212.80155108594226,339.08477176825477 205.9051787509925,350.04608287654077 197.8921407151025,360.75099406535895 188.76818067142116,371.0780226852395 178.5526162977393,380.90320154979315 167.27898728144555,390.1014860526833 154.99556913510736,398.5482699631235 141.76573739927426,406.1209983557427 127.66816765794188,412.70086415020376 112.79685785773877,418.1745727911763 97.2609607269406,422.43615771667896 81.18441563464908,425.3888274700593 64.70537101071815,426.9468236362609 47.975390456925766,427.03726725528566 31.158437909848857,425.6019700137564 14.429639652897862,422.5991853677921 -2.0261763974353357,418.0052738349949 -18.01616090781104,411.8162560371686 -33.34133667790613,404.04922670396485 -47.7986962890177,394.74360278465974 -61.18349146003118,383.9621790821995 -73.29169850568826,371.79196543921233 -83.92264105732175,358.344780485647 -92.88174798922296,343.7575783142179 -99.98342133576631,328.19248619128837 -105.05398592860251,311.83653354132605 -107.9346895744801,294.90105496216495 -108.4847198786116,277.6207529306933 -106.58420134269795,260.2524091338424 -102.13713417760647,243.0732369920823 -95.07423441470826,226.37887191078934 -85.35563342243131,210.48100007194134 -72.97339387939604,195.70463113214973 -57.95379866398838,182.3850249848576 -40.359369030809944,170.86428773103424 -20.29056889185574,161.48765713484588 2.1128469650847705,154.5995030645073 26.67088128107079,150.53907367496714 53.162777694440024,149.63602331505587 81.32697456854366,152.20576327017733 110.86156129687903,158.54468141222264 141.42526499500494,168.92528154818532 172.6389907574393,183.59129766310565 204.0879333212979,202.75284226556624 235.32427206248363,226.5816515888259 265.87045478969196,255.2064934024351 295.22306884012784,288.7088055740729 322.85729057176684,327.11863521842406 348.23189655239696,370.410949211991 370.79481163668595,418.5023869775347 389.9891607789599,471.24852569305904 405.2597829393402,528.4417264087342 416.0601569001444,589.8096269198534 421.85968032091256,655.0143436131149 422.1512350331127,723.6524398556957 416.45896352393675,795.2557128214086 404.3461739012278,869.2928439476407 385.42328349015156,945.1719505051996 359.35570471012386,1022.2440670691846 325.871571141449,1099.8075760446332 284.7691968375972,1177.113595883036 235.92415809074274,1253.3723242964581 179.29588413029143,1327.760321721566 114.93364173562209,1399.4287076077874 42.98179857612115,1467.5122289179567 -36.31574865499692,1531.1391466663144 -122.61209249202426,1589.4418725209835 -215.45488619015515,1641.56827362198 -314.28506937727127,1686.693549979001 -418.4368411865413,1724.0325752928197 -527.138964929189,1752.8525789766063 -639.5174774375968,1772.4860347313888 -754.5998636382207,1782.3436094511358 -871.3207427479845,1781.9270156981486 -988.5290967962931,1770.8416016994765 -1104.997055050549,1748.8085049688839 -1219.4302294832448,1715.6761894509275 -1330.479576804544,1671.4311817007754 -1436.754741961129,1616.207819232325 -1536.838816559011,1550.2968239517506 -1629.304423616888,1474.1525156914129 -1712.7310176307428,1388.3984853990962 -1785.723266384276,1293.8315546268066 -1846.9303585450791,1191.423857684415 -1895.0660591326323,1082.3228952317331 -1928.9293137334816,967.8494232036453 -1947.425182185057,849.4930587903534 -1949.5858636741827,728.9055056881384 -1934.591558125152,607.8913239189001 -1901.7908937118332,488.3961950753592 -1850.7206376418862,372.49266173115694 -1781.124397344227,262.3633497699023 -1692.9700121466265,160.28171430383134 -1586.4653317459997,68.59038340185236 -1462.0720775142315,-10.322791280204541 -1320.5174861873816,-74.05083202191793 -1162.8034429637564,-120.19569931700494 -990.2128226599973,-146.3981048759111 -804.3127734770926,-150.36881894136138 -606.9546981987318,-129.92118185541074 -400.2707123231339,-83.00449538599264 -186.66638770468103,-7.73793662047683 31.190376313935218,97.5553932140418 250.38447469032025,234.31470030945317 467.77279017778454,403.7084498727658 680.0074919194935,606.6024979329959 883.5634236833572,843.5298796974128 1074.7695143492858,1114.6627421186013 1249.8440886898782,1419.7869143493156 1404.9338997767145,1758.2796100399744 1536.1566460593974,2129.0907495860897 1639.6466769228705,2530.728378122506 1711.603531003311,2961.24863600846 1748.3428924553507,3418.250712537426 1746.3494924780618,3898.8771804962885 1702.3314275246441,4399.820068926117 1613.2753125702352,4917.332984022578 1476.501638443474,5447.249533670144 1289.7196574012214,5985.008249836136 1051.0810817036347,6525.684135264623 759.2318467815214,7064.026887012494 413.36116451063776,7594.505769870327 13.24707391780899,8111.3610282234795 -440.7023129041455,8608.661636151124 -947.4126721042446,9080.36909335029 -1505.1132292764557,9520.406879724787 -2111.3131929579654,9922.73508520462 -2762.7856015843176,10281.429634653936 -3455.559282513281,10590.765431760257 -4184.919567640835,10845.302651818893 -4945.418344402946,11039.975322632694 -5730.89394362777,11170.181246692855 -6534.501276956101,11231.872237766785 -7348.752536724573,11221.643572396295 -8165.568660806455,11136.821493003456 -8976.341644592776,10975.54754569508 -9772.007652905608,10736.858493801465 -10543.130747167927,10420.760518978075 -11279.996898777968,10028.296406562153 -11972.717809685604,9561.604411942482 -12611.343907135573,9023.967520987202 -13185.985723069763,8419.851850963118 -13686.942711551703,7754.932989604521 -14104.838401702691,7036.109139603297 -14430.760631041669,6271.500024163852 -14656.40545692093,5470.430616552142 -14774.223204136657,4643.398882699365 -14777.564977014026,3802.026870591922 -14660.827846595159,2958.9946428319813 -14419.596820266433,2127.956728567462 -14050.781614500489,1323.44096688022 -13552.74618354961,560.7298243260351 -12925.428910013183,-144.27550699482566 -12170.451339200272,-775.2076895988882 -11291.213339952697,-1315.4017139141404 -10292.972601728488,-1748.0782291804871 -9182.906432706293,-2056.5404421029853 -7970.153907632791,-2224.3830380882896 -6665.836527998383,-2235.7113266955976 -5283.055701478092,-2075.3685651438127 -3836.8655226569917,-1729.1691747807533 -2344.219542760056,-1184.1353389040266 -823.8904519078775,-428.7342598755097 703.6381375865316,546.8868372129789 2216.3083255260867,1750.6710342913013 3690.653175480671,3188.430603564292 5101.9904407620625,4863.637773798507 6424.64425776627,6777.2307845377345 7632.193917716346,8927.438671201724 8697.74843129774,11309.628221806204 9594.245193566014,13916.176500880147 10294.770643179632,16736.37224573381 10772.900395195038,19756.349302643797 11003.055915416455,22959.055084319483 10960.874401974857,26324.256794261666 10623.588152022263,29828.587877932787 9970.40932396474,33445.63682523788 8982.915664454058,37146.08006450813 7645.432460417015,40897.860256495595 5945.405705725741,44666.41082001922 3873.7612456331435,48414.92700176011 1425.2444855921253,52104.68324491582 -1401.26486991322,55695.39601933564 -4602.468643145373,59145.63065444145 -8170.402162819222,62413.25007147626 -12092.22791186168,65455.90264983561 -16350.07620854479,68231.54579056031 -20920.938060789897,70699.00106615709 -25776.615028887227,72818.5361780293 -30883.730546778294,74552.4682896391 -36203.8066858066,75865.78267420254 -41693.40979782262,76726.76001967383 -47304.367848123795,77107.60518063216 -52984.061545397024,76985.06966621225 -58675.79059921172,76341.05971517325 -64319.215590431406,75163.22144319736 -69850.87503209754,73445.49426294086 -75204.77623499477,71188.62358322268 -80313.05758148454,68400.62369848497 -85106.71876271247,65097.18179112424 -89516.41445846022,61301.99409446706 -93473.30584726931,57047.025509106345 -96909.96323954094,52372.68433500459 -99761.31204152004,47327.90427996736 -101965.61319755958,41970.1265341924 -103465.46823667095,36365.17546156115 -104208.83808241838,30587.02235052077 -104150.06388837972,24717.43268849569 -103250.87735053747,18845.493569692862 -101481.38723891522,13067.019111058446 -98821.02829919542,7483.833127192143 -95259.45821614681,2202.9297926019826 -90797.38801906873,-2664.485412823093 -85447.33115886599,-7004.070535297508 -79234.25650944517,-10699.532110687906 -72196.13075423267,-13633.912866162444 -64384.336021559175,-15690.972991713214 -55863.949238458365,-16756.65403425221 -46713.870487156535,-16720.612704909647 -37026.78867603657,-15477.810168152231 -26908.974078607516,-12930.140723489481 -16479.888748911224,-8988.082221771609 -5871.607486024921,-3572.3491038836437 4771.956112816028,3384.472364231951 15296.021911089792,11936.328234093153 25536.11496431635,22122.16292493617 35319.435479652624,33964.47045205384 44466.423209305845,47467.95460381882 52792.509809429575,62618.32207609695 60110.04992362861,79381.23252817361 66230.41890689617,97701.42917867171 70966.26222236984,117502.07289736993 74133.87865290909,138684.3017563815 75555.71660763459,161127.03667199388 75062.96000778102,184687.05209055782 72498.17754566434,209199.32864573592 67718.00656579234,234477.70234214366 60595.84045956809,260315.82210823367 51024.48633652016,286488.4245201889 38918.75787734838,312752.9311443758 24217.966728563184,338851.3702993399 6888.274605246382,364512.6211252112 -13075.132534099143,389454.9736995009 -35646.08725235309,413388.9945894859 -60765.73926558332,436020.68272341194 -88341.14829493857,457054.8958409652 -118244.20840191317,476199.02309780306 -150310.9394439689,493166.874703402 -184341.17910899487,507682.7548237867 -220098.70624649318,519485.6794419141 -257311.8229071652,528333.6965023889 -295674.4186339603,534008.2615395748 -334847.53612711316,536318.6181664425 -374461.45245128963,535106.1293537118 -414118.2844905068,530248.5024228254 -453395.12141997763,521663.84817915206 -491847.6805955283,509314.5126886647 -529014.4765110897,493210.61891447584 -564421.4854012242,473413.25483779336 -597587.2807353802,450037.24484490795 -628028.6073371884,423253.4421159684 -655266.3542470972,393290.4815440722 -678831.8788178554,360435.9353784914 -698273.6269836971,325036.81734887685 -713163.9872749244,287499.38550391805 -723106.3090636374,248288.19939366978 -727742.0088306424,207924.39353398254 -726757.6820476017,166983.13629693887 -719892.1326828669,126090.25144329907 -706943.22747437,85917.98840926647 -687774.4780773842,47179.93712500079 -662321.2510946188,10625.093507460628 -630596.5039321356,-22968.907246717084 -592695.943492117,-52803.36093670483 -548802.5050000079,-78066.82764923223 -499190.0498469471,-97944.17529986691 -444226.184275976,-111626.26828061376 -384374.1051069716,-118320.22367539754 -320193.3845211973,-117260.14524396243 -252339.61323720476,-107718.2334093998 -181562.8302140478,-89016.15798356707 -108704.67730567473,-60536.56950220364 -34694.22903382295,-21734.614995565575 39457.53920353007,27850.685029575885 112664.66668383447,88585.34949530498 183774.51313371054,160729.7971666119 251577.44431857704,244428.81719428074 314817.8691733524,339702.31571768527 372206.58148555196,446437.0059272973 422434.3397592002,564379.208471616 464186.5990323743,693128.9264678964 496159.2883081744,832135.3545317514 517075.5071215012,980693.9740891416 525702.9948510756,1137945.3777099082 520872.20696037175,1302875.9532643529 501494.81368686684,1474320.5443403672 466582.4190794605,1650967.1865845118 415265.2819981344,1831364.000493378 346810.80602992774,2013928.2997614208 260641.55253233778,2196957.950701966 156352.52047615428,2378644.9926471002 33727.4287032992,2557091.501783184 -107246.26909207347,2730327.6518101483 -266363.9086590528,2896331.8943774947 -443191.94984108995,3053053.150735285 -637058.3883073623,3198434.8737642835 -847045.5031254275,3330440.8068662058 -1071985.1872199331,3447082.2334818845 -1310457.0921890498,3546446.4786675354 -1560789.7994543712,3626726.392624189 -1821065.2062820264,3686250.5157889067 -2089126.2878597844,3723513.5965191484 -2362588.365425385,3737207.1060037883 -2638853.9755459772,3726249.3712896626 -2915131.3972334447,3689814.92669467 -3188456.851887951,3627362.6668535224 -3455720.3463908867,3538662.3716618526 -3713695.082375263,3423819.164881827 -3959070.305199207,3283295.4645530763 -4188487.4149039905,3117929.9849883826 -4398579.108973305,2928953.357356327 -4586011.273596232,2717999.9489473174 -4747527.286989298,2487115.480414891 -4879994.345812698,2238760.065751581 -4980451.374517559,1975806.3316007624 -5046158.028309966,1701532.3107536044 -5074644.254062469,1419608.849286954 -5063759.830709025,1134081.3176347339 -5011723.272194937,849345.4727367642 -4917169.442688586,570117.3809709871 -4779195.2062531635,301397.37945125526 -4597402.41225824,48428.125976248266 -4371937.504185024,-183353.1351377075 -4103527.033802997,-388367.8835867135 -3793508.3655731617,-560954.9188893876 -3443854.8681003745,-695433.8651029248 -3057194.9109751354,-786173.1217481908 -2636824.0167854014,-827661.7118970869 -2186709.5597146656,-814584.393070946 -1711487.4541390142,-741899.3134708062 -1216450.339040259,-604917.4162889854 -707526.8367848762,-399382.7196534366 -191251.54766682716,-121552.53037375836 325274.46577688726,231723.41265694427 834432.8487943168,662925.9235485237 1328146.8124143824,1173792.5855859253 1797949.594722361,1765248.3348002275 2235062.315542862,2437341.569091848 2630480.88369907,3189186.949956247 2975071.4805255835,4018916.058839355 3259674.004669905,4923637.050336472 3475212.7229387593,5899404.409101137 3612813.231664575,6941199.865847935 3663924.694530787,8042925.459776163 3620446.1878410997,9197409.649847182 3474855.8547668173,10396427.275540931 3220341.4481370295,11630734.049138417 2850930.7288668286,12890116.12657169 2361620.0861837147,14163455.153032996 1748499.6584412123,15438809.01365745 1008873.1614957318,16703508.33974323 141370.57730375562,17944268.628453866 -853948.179581438,19147317.630302425 -1975500.5138402143,20298537.445740867 -3220101.2070212723,21383620.551886592 -4582897.135643378,22388238.755070712 -6057318.446344979,23298223.836947944 -7635047.900343246,24099758.434032172 -9306009.988198455,24779575.465549324 -11058381.277249018,25325164.20543205 -12878623.287976118,25724980.88422794 -14751539.00220375,25968661.50888319 -16660353.886018721,26047234.406069934 -18586822.064558506,25953329.831259303 -20511358.015694797,25681383.844393793 -22413193.856870133,25227833.537030447 -24270561.9860415,24591300.608339727 -26060902.506378256,23772760.231363405 -27761094.517963,22775692.12925798 -29347710.001555674,21606210.79644443 -30797288.653163627,20273171.853940167 -32086631.657735568,18788251.623597495 -33193112.02008915,17165997.14409414 -34094998.705817446,15423844.033445826 -34771791.489262275,13582099.829212049 -35204563.064777546,11663890.708610373 -35376304.65664899,9695069.806052137 -35272271.067535974,7704085.704213715 -34880320.84052003,5721810.075096175 -34191246.9811403,3781323.8874197723 -33199093.498424977,1917662.0733248533 -31901452.882999465,167517.05723931678 -30299739.550715107,-1431097.9111923052 -28399434.24646237,-2839224.114792731 -26210294.429061994,-4017369.3293743944 -23746525.748062886,-4925953.703829614 -21026909.880062424,-5525786.27450725 -18074884.218336966,-5778568.227124149 -14918569.206950095,-5647418.4260457335 -11590739.480175626,-5097416.153335686 -8128735.410266184,-4096155.4467723332 -4574312.180676761,-2614304.9055638053 -973424.08623547,-626166.3534328348 2624057.586125869,1889774.680184992 6164694.026170426,4950314.070178838 9591895.87293526,8567017.509110583 12846407.015600046,12745740.163017059 15866853.67024108,17486185.65233948 18590356.263720013,22781512.493258398 20953200.708939735,28617996.08965138 22891564.68773816,34974754.21718359 24342293.57942101,41823543.683593415 25243719.69584198,49128635.47897512 25536517.520247824,56846775.243827 25164586.70971172,64927235.27913109 24075953.723296944,73311963.60139278 22223682.093954924,81935834.70748255 19566780.585649982,90727005.76188588 16071097.782514079,99607380.8568027 11710191.058079766,108493184.82926619 6466157.383702098,117295646.85663986 330413.06959122175,125921792.70172447 -6695590.697757235,134275343.05222592 -14599729.739559345,142257713.90911418 -23358659.33065359,149769113.43875107 -32937370.101839,156709728.13037103 -43288859.87030839,162980989.51093233 -54353933.2635624,168486911.0821802 -66061140.2076773,173135483.5798778 -78326863.36541086,176840115.133548 -91055563.43276463,179521101.4485383 -104140189.83614397,181107109.76326153 -117462762.82045461,181536659.07597587 -130895131.18822747,180759578.0104852 -144299908.05077988,178738420.72164863 -157531584.89677155,175449820.45204732 -170437822.08643243,170885759.76244855 -182860911.55905303,165054736.09155428 -194639405.1176531,157982801.17436472 -205609899.15130427,149714452.9810061 -215608964.098235,140313359.24479634 -224475204.36971825,129862892.342896 -232051431.87631658,118466456.28581478 -238186933.7566861,106247587.8708993 -242739812.4389314,93349815.66406941 -245579373.80093855,79936262.39425012 -246588536.9757961,66188978.57313935 -245666237.3084636,52307997.68201996 -242729792.14782628,38510106.086012825 -237717197.59137514,25027323.928771276 -230589323.0245929,12105096.607028747 -221331969.34907725,200.00000027105372" stroke="white" stroke-width="1.5" /></svg>