<?xml version="1.0" encoding="utf-8" ?>
<svg baseProfile="full" height="400" version="1.1" width="400" xmlns="http://www.w3.org/2000/svg" xmlns:ev="http://www.w3.org/2001/xml-events" xmlns:xlink="http://www.w3.org/1999/xlink"><defs /><rect fill="black" height="100%" width="100%" x="0" y="0" /><circle cx="200" cy="200" fill="yellow" r="20" stroke="orange" stroke-width="2" /><polyline fill="none" points="198.9636390738196,200.0 198.9650076967304,199.94566763200766 198.9732658802353,199.89190441121428 198.98857209104372,199.8395336586055 199.01100113272636,199.7894203488931 199.04053739438535,199.74246326603932 199.07706876477408,199.69958621695295 199.12038133191083,199.66172834971852 199.17015498649027,199.62983363697066 199.2259600440686,199.60483959947453 199.2872549960169,199.58766535945853 199.35338549255394,199.5791991275847 199.42358465275106,199.58028524145277 199.49697478624222,199.5917108870124 199.57257059947432,199.61419264700862 199.64928394573377,199.64836303239562 199.72593016293771,199.69475716331505 199.80123602636087,199.75379977553916 199.87384932518893,199.825792736017 199.94235005217172,199.91090325713427 200.00526317485244,200.0091530033119 200.06107293505113,200.1204082854413 200.1082386006839,200.24437153822325 200.145211570836,200.3805742725887 200.17045371152147,200.52837168990894 200.18245677603014,200.68693913654164 200.17976274047066,200.85527056633137 200.1609848623739,201.0321791649384 200.1248292483418,201.21630027329047 200.07011669604543,201.40609672805377 199.99580455672842,201.59986671485754 199.90100834709799,201.79575420516778 199.78502282442963,201.99176202032214 199.64734222620342,202.18576753648034 199.48767936596272,202.37554101232166 199.30598327064524,202.55876648748767 199.10245504168282,202.73306516431504 198.87756162296313,202.89602114866562 198.6320471635414,203.04520938800565 198.36694167198698,203.17822560672496 198.08356667261847,203.29271800045706 197.78353759175081,203.38642041333537 197.46876262452446,203.4571866851967 197.14143785993994,203.5030258202399 196.80403847335077,203.5221375951019 196.4593058317894,203.51294819327498 196.1102303979632,203.47414542481087 195.7600303633499,203.40471306589154 195.41212598926617,203.30396383264133 195.07010968673103,203.17157048803674 194.73771192099318,203.00759457044836 194.41876308425162,202.81251222769947 194.1171515398379,202.58723664198567 193.8367781023365,202.33313653896045 193.5815072801381,202.0520502890901 193.35511566902716,201.74629513128963 193.16123794683847,201.41867107807653 193.00331097916435,201.07245909814324 192.88451660370959,200.71141321639914 192.80772371530486,200.33974622311615 192.77543032390744,199.9621087426894 192.78970630323943,199.58356147844754 192.85213758714374,199.2095405225714 192.96377260338753,198.84581569904893 193.1250717596526,198.4984419921446 193.33586081300234,198.1737042024244 193.59528896142618,197.8780550661712 193.9017924934342,197.6180471711693 194.25306481846403,197.4002591013446 194.64603367653388,197.2312163435421 195.0768462896788,197.1173075906321 195.54086316992323,197.06469717491956 196.03266123865959,197.0792344631652 196.54604684026378,197.16636113804068 197.07407914865985,197.33101737911272 197.6091043695878,197.5775480380336 198.14280103393085,197.90960997604643 198.66623655919093,198.33008179573002 199.16993512780687,198.8409772516775 199.6439567934085,199.4433636651229 200.0779875803857,200.13728669407143 200.46144018959353,200.92170282199248 200.78356476505434,201.79442092345636 201.03356901475524,202.75205424320492 201.2007468148349,203.78998408516514 201.2746142625066,204.90233644912962 201.24505198100528,206.0819727747076 201.10245232181822,207.32049585437636 200.83786995769498,208.60827185993026 200.443174216744,209.93446928947685 199.91120137566287,211.2871154857561 199.2359050111938,212.65317120161814 198.41250240562135,214.0186234959208 197.4376149168613,215.3685970341138 196.30940015870547,216.68748364386406 195.02767379424444,217.95908973903022 193.594018727427,219.16680097718552 192.01187948599303,220.2937632590616 190.28663962529683,221.32307891535268 188.42568004824597,222.23801666014197 186.43841623286679,223.0222336238846 184.336312486727,223.66000751570704 182.1328715071077,224.1364767082467 179.84359771758156,224.43788579199335 177.4859330752805,224.55183391385876 175.07916429797712,224.4675230003203 172.64430074508314,224.17600277282114 170.2039225002535,223.67040929601612 167.78199854349447,222.94619366171995 165.40367526505668,222.0013373067209 163.09503595903928,220.83655039448774 160.8828323381567,219.4554496625136 158.79418952871532,217.86471215162936 156.8562864322476,216.07420129377212 155.09601377280416,214.0970619427146 153.5396125815707,211.94978109000917 152.21229629787993,209.652211217249 151.13786008216258,207.22755349651496 150.33828133600835,204.70229836380312 149.83331580119113,202.10612135490723 149.64009395702848,199.47173250859697 149.772722747514,196.83467810621167 150.24189794003047,194.23309402748478 151.05453263996128,191.70741055627536 152.21340765419563,189.3000090629181 153.71684950566316,187.05483161735432 155.5584419452944,185.01694524357328 157.72677678228263,183.2320632049491 160.20524975386957,181.74602640487473 162.97190697836035,180.60424869008173 165.9993472766922,179.85113054699713 169.25468530642652,179.52944637567936 172.69958002619566,179.67971120206974 176.29033249805366,180.33953333787738 179.9780564405373,181.54296010846974 183.70892426829536,183.31982433254552 187.42449059781273,185.69509974293035 191.06209436712234,188.68827397538814 194.55533981576883,192.31274811188987 197.83465560619084,196.57527203662463 200.82793034687762,201.47542503792357 203.4612217100987,207.00515115852565 205.65953523284998,213.1483587523063 207.34766776019308,219.88059354066735 208.45110934773857,227.16879417021576 208.89699629798395,234.97113885029046 208.6151068777967,243.2369910907887 207.53889016653162,251.90695186548066 205.60651743173526,260.91302469307334 202.76194443824045,270.17889915880625 198.95597218312966,279.62035729626706 194.14729273012705,289.1458060171702 188.30350610896664,298.6569374227448 181.4020936644236,308.0495173627952 173.43133280171742,317.2143010380803 164.39113779492433,326.038072781071 154.29381121693322,334.40480541397596 143.1646906261933,342.19693278776003 131.0426754184735,349.2967272700475 117.98061923081507,355.58777209345527 104.04557397765633,360.9565166207494 89.3188725114422,365.2939007524051 73.89603803524943,368.49703292011316 57.886509753871024,370.4709044019269 41.41317583048516,371.13012108729964 24.611706513667855,370.40063233996705 7.629682306266403,368.22143528039135 -9.374485747434477,364.5462316641247 -26.23284419089245,359.34501359435694 -42.76939167995502,352.60555360159753 -58.80177518059139,344.3347741753113 -74.14318029369792,334.55997166416194 -88.60440524212936,323.3298695941488 -101.99610507103733,310.7154769058867 -114.13118959602019,296.8107273992971 -124.82735561985794,281.73287780873187 -133.9097309654282,265.6226434232059 -141.21360497945494,248.6440520203098 -146.5872173904046,230.98399909972846 -149.8945747967531,212.8514899798308 -151.01826166239653,194.47655725063913 -149.8622105479854,176.108845345701 -146.3543944539395,158.01585758611174 -140.44940263568333,140.48086493898433 -132.1308601157113,123.8004798916614 -121.41365039997697,108.2819032382412 -108.34590064476248,94.23985616770354 -93.010688748434,81.99321478915475 -75.5274325902588,71.86136908070375 -56.052922931232274,64.16033315091025 -34.78196335011026,59.19863859806037 -11.947583026249816,57.273047581405564 12.179208791960264,58.66412691538122 37.29015417665386,63.63172899538753 63.04098710888843,72.41042959272202 89.05320183208669,85.20497644606108 114.91636221118355,102.185806056416 140.19095949109865,123.48468909096547 164.41181951739833,149.19056724906997 187.09205371390772,179.3456462737844 207.72754096147818,213.94181094015343 225.80192005244626,252.91742825753664 240.79206467808524,296.1546047324326 252.1740050209679,343.4769623022316 259.429252057471,394.64799542785545 262.05147272128164,449.37006879124505 259.55345623654597,507.2841110585818 251.47430430423816,567.9700552282084 237.3867705268591,630.9480701809689 216.9046675973487,695.6806211992168 189.69025447285864,761.5753894406736 155.46151011832444,827.9890716792434 113.99919555353965,894.2320721048129 65.15360198355975,959.5740876698229 8.850879845027265,1023.2505774576005 -54.90115823548771,1084.4700949156454 -126.00786820364016,1142.4224496496267 -204.28334602428566,1196.287652927102 -289.44684473436604,1245.2455882236181 -381.1201385375848,1288.4863351989563 -478.8259303964853,1325.2210625704445 -581.9873930640438,1354.6933926158272 -689.9289254284764,1376.191127661017 -801.8781964178625,1389.058217066065 -916.9695375408407,1392.7068320991048 -1034.2487324616022,1386.6294058692906 -1152.6792378784326,1370.410486363603 -1271.149854473759,1343.7382427855841 -1388.483849931095,1306.4154590098815 -1503.4495180935633,1258.369843222264 -1614.772139416554,1199.6634798795162 -1721.147288111108,1130.5012491547946 -1821.2554109753542,1051.2380401756482 -1913.7775820791535,962.3845877409266 -1997.4123164322018,864.6117679270818 -2070.8933047765295,758.753196149921 -2133.0079109645712,645.8059818958643 -2182.616253291837,526.9295075118373 -2218.6706719381386,403.44211415038717 -2240.2353666309523,276.8155961806824 -2246.505972081953,148.66742603791067 -2236.828823968329,20.75065450051372 -2210.7196555369956,-105.05854337249866 -2167.8814546005174,-226.7756791075609 -2108.2212030557994,-342.32509178540863 -2031.8652163647453,-449.559361626929 -1939.1727989456917,-546.2809065777392 -1830.747933368478,-630.2656391032758 -1707.448726830276,-699.2885265417809 -1570.394347788393,-751.1508641785757 -1420.969198978502,-783.7090361052115 -1260.8240904508825,-794.9045053412447 -1091.8741977683578,-782.7947420770024 -916.2936161348973,-745.584767712817 -736.5063509202878,-681.6589631085452 -555.1736187170416,-589.6127626088668 -375.1773705581684,-468.2838314708563 -199.59999002819762,-316.7823037832262 -31.700163445312143,-134.51964131462103 125.1150332492613,78.76433857106883 267.32173617604303,322.976725296769 391.3144367984412,597.6495294068297 493.4444658905027,901.9209072108908 570.061562235938,1234.5200448728206 617.5582145539107,1593.756135655167 632.4164097516987,1977.5118621764266 611.2563660619762,2383.2417670980844 550.8867766690131,2807.9758605446605 448.3560388284379,3248.328770761711 301.00389602658237,3700.5146961067894 106.51287720852224,4160.36836160593 -137.04112166590477,4623.372122243981 -431.1398017014325,5084.6892882349375 -776.7756856358999,5539.203675178737 -1174.4083375517555,5981.565304791316 -1623.9243243724325,6406.242100427969 -2124.6016692893472,6807.5773366359535 -2675.079541673855,7179.852514293108 -3273.3339128004873,7517.355243422758 -3916.6598813898454,7814.451625518739 -4601.661337208374,8065.662537233861 -5324.248584484254,8265.743128720836 -6079.644489574939,8409.76476396323 -6862.399649138454,8493.198548338145 -7666.416996138996,8511.999511693113 -8484.986171620594,8462.690444698428 -9310.827890720206,8342.444323460299 -10136.148422427681,8149.1642036504645 -10952.704184853925,7881.559421999183 -11751.876332116408,7539.216911139784 -12524.75507642626,7122.6664146574 -13262.23335075413,6633.438383869367 -13955.109274898112,6074.113347343238 -14594.196742362683,5448.361569313572 -15170.443298796714,4760.971854727 -15675.054336574316,4017.8684172096687 -16099.622486286818,3226.1148022216316 -16436.26094639139,2393.9039512592285 -16677.739359057563,1530.5336042058623 -16817.620715447414,646.3663656116436 -16850.397659371363,-247.22609363000004 -16771.62645660811,-1137.9350657188022 -16578.056810274742,-2012.6032555709057 -16267.755632548506,-2857.3296480301046 -15840.222831778032,-3657.590585586925 -15296.4971434722,-4398.376633923528 -14639.250025590256,-5064.344587816064 -13872.86565458388,-5639.983738137136 -13003.505100170769,-6109.795284323674 -12039.152825048526,-6458.483538342344 -10989.643751618525,-6671.157328730987 -9866.669261948191,-6733.53977973193 -8683.76065000151,-6632.18441402799 -7456.248726632381,-6354.695311434855 -6201.198487626022,-5889.9488534770935 -4937.3179924754895,-5228.314398515485 -3684.8408654916775,-4361.871067456563 -2465.3821197577954,-3284.617679490039 -1301.7673164328253,-1992.672764125146 -217.83540464910254,-484.46149327747787 761.7840620136451,1239.1136716269311 1611.9182709194833,3174.521834748357 2307.1216192128886,5315.475213329839 2821.9674834667726,7652.82649928048 3131.3590802277586,10174.495044601583 3210.8568218106943,12865.42472354515 3037.0191924092883,15707.576121535632 2587.7538019028443,18679.95545147721 1842.6749240015322,21758.682302095538 783.4634970827011,24917.097980990176 -605.7747341849042,28125.91582827242 -2338.157524939486,31353.414446842715 -4423.685699850359,34565.67432499738 -6868.9189850863095,37726.857819259545 -9676.673233930956,40799.53192394732 -12845.744255293735,43745.032683475874 -16370.66347263343,46523.86950891067 -20241.490595280047,49096.167047621144 -24443.648371105795,51422.141630440325 -28957.804305842903,53462.608691494606 -33759.803977628544,55179.5169293316 -38820.66024387645,56536.50436212252 -44106.60223045038,57499.47083292871 -49579.187510339834,58037.160951991944 -55195.4803215571,58121.750930681716 -60908.29804371977,57729.43227519024 -66666.52745271624,56840.98487641897 -72415.51150701099,55442.33166480453 -78097.50659265672,53525.066703943216 -83652.20927315464,51086.94838333073 -89017.35066225957,48132.3492464488 -94129.35557106089,44672.653963339915 -98924.06258460037,40726.59703353952 -103337.50020835755,36320.53199179108 -107306.71320250632,31488.624190385373 -110770.63220412297,26272.959652182562 -113670.97873751348,20723.56303011972 -115953.19674411057,14898.318373699507 -117567.40084017199,8862.787190525778 -118469.33064726775,2689.9191998697493 -118621.29975206792,-3540.3477976879417 -117993.1271530496,-9741.601370141636 -116563.03845710288,-15821.582412033442 -114318.52361303759,-21682.92745371209 -111257.13762553871,-27224.02373154164 -107387.23049532283,-32339.97391894583 -102728.59259134736,-36923.66584582737 -97313.00178998598,-40866.94091435809 -91184.65902380829,-44061.853269378305 -84400.4993771397,-46402.0101201716 -77030.36655329396,-47783.98195708529 -69157.03942362904,-48108.7697824496 -60876.10045361713,-47283.31490268415 -52295.63708581811,-45222.035330375234 -43535.76864138569,-41848.371445079305 -34727.992975292436,-37096.322283647976 -26014.34897786159,-30911.952699051362 -17546.393045638215,-23254.850664860438 -9483.989834462018,-14099.513234091619 -1993.9199402536692,-3436.6391085338173 4751.690390979782,8725.694540729524 10577.109865314207,22360.99341925094 15304.902763552831,37423.467822708924 18757.976611151502,53847.33641182259 20761.761222498975,71546.33293150924 21146.500760998293,90413.43563196731 19749.637819232223,110320.83770311838 16418.26597084398,131120.17526295508 11011.62481504192,152643.02734510973 3403.609264246697,174701.69991573328 -6514.737245680213,197090.303223152 -18832.777775841318,219586.1287588299 -33617.918844019594,241951.32880256625 -50913.36427274605,263934.8979609019 -70736.02176348076,285274.95231245045 -93074.59853715361,305701.2977790408 -117887.92246543469,324938.27518345765 -145103.52475380304,342707.86517401395 -174616.519401319,358733.031838249 -206288.81333170427,372741.2794417071 -239948.67924934978,384468.3923657092 -275390.7209109335,393662.32403621025 -312376.25761282945,400087.1964927914 -350634.1512771005,403527.36830349447 -389862.09558178525,403791.5248499694 -429728.38213865296,400716.74165159574 -469874.15379484196,394172.4684304341 -509916.14975301066,384064.37910405267 -549449.9414039223,370338.0308919351 -588053.6515901166,352982.2742926729 -625292.1435211723,332032.35488961276 -660721.6587991774,307572.64782407624 -693894.8770539452,279738.96638486173 -724366.3626046132,248720.38754162742 -751698.3564372746,214760.53943229502 -775466.8647030208,178158.29882751283 -795267.9879881665,139267.85045661445 -810724.4288837677,98498.0647981518 -821492.1089838457,56311.156512739486 -827266.8204725212,13220.592114584377 -827790.8320223546,-30211.777282649487 -822859.3639229647,-73379.37428513306 -812326.8432927146,-115635.35197961381 -796112.8469967413,-156297.84706991405 -774207.6375981986,-194656.01727470875 -746677.1963973833,-229976.8403009072 -713667.6574496898,-261512.64070984643 -675409.047474518,-288509.29967875604 -632218.2388400378,-310215.0911470645 -584501.0263883724,-325890.0762560425 -532753.2437957894,-334815.9764804435 -477560.8414714301,-336306.434560314 -419598.85570036183,-329717.56142499537 -359629.2078294364,-314458.6569204675 -298497.2827577954,-290002.9824705752 -237127.24778948797,-255898.45498966493 -176516.08597597966,-211778.1235864363 -117726.3323442146,-157370.28402252318 -61877.51677401795,-92508.08067672605 -10136.333639489401,-17138.442073059472 36294.42447489426,68669.80599436739 76188.11378881683,164718.8059273035 108307.59348125136,270675.6668604413 131419.5946838269,386067.7470066013 144309.99319244685,510279.3646779328 145799.85608122122,642550.0747869042 134762.11406923545,781974.6373249169 110138.69377189834,927504.7917467754 70957.92712615551,1077952.9363606577 16352.039580949298,1231997.7947688822 -54425.49563711907,1388192.1321878205 -141982.96246540925,1544972.5631898495 -246774.00207030462,1700671.4691826368 -369082.05236328236,1853531.0189301951 -509005.8772314756,2001719.2588178518 -666446.4389664192,2143348.2115933825 -841095.3676581162,2276493.8932363945 -1032425.2784671977,2399218.127704081 -1239682.1815216795,2509592.0088910693 -1461880.2195612998,2605720.8285684595 -1697798.9552600123,2685770.2587020625 -1945983.4133208403,2747993.5467834654 -2204747.0619224533,2790759.4540507053 -2472177.893912534,2812580.6391533935 -2746147.740344023,2812142.164365709 -3024324.9176406953,2788329.7783120926 -3304190.275012703,2740257.608787501 -3583056.670926801,2667294.882064434 -3858091.866729791,2569091.271510779 -4126344.7822402525,2445600.4688072624 -4384775.012628145,2297101.5659390795 -4630285.458612764,2124217.835803575 -4859757.87339506,1927932.5040486846 -5070091.080315872,1709601.1149177493 -5258241.565558477,1470960.1096599426 -5421266.100893299,1214131.2576522215 -5556366.003131277,941621.607888179 -5660932.5902783265,656318.6619764921 -5732593.350058595,361480.50923976436 -5769258.29520609,60720.709823457655 -5769165.942433033,-242012.23725846535 -5730928.318986223,-542460.9477503716 -5653574.37291329,-836090.772491081 -5536591.141271654,-1118126.9632387816 -5379962.015193275,-1383597.292332505 -5184201.432597905,-1627379.96052847 -4950385.329009456,-1844256.5504433503 -4680176.684900355,-2028969.7039962283 -4375845.524724623,-2176285.121907091 -4040282.7486802093,-2281057.402594702 -3677007.2135561346,-2338299.1576992683 -3290165.5239626598,-2343252.762972296 -2884524.0498983217,-2291464.0275128507 -2465452.750947507,-2178856.9924110575 -2038900.4612744492,-2001809.0029382976 -1611361.3727030577,-1757225.1376659432 -1189832.5451332072,-1442611.0244697353 -781762.3737904736,-1056143.028440584 -394990.05064571725,-596734.7614019447 -37676.171940644104,-64098.83811278875 281775.23585753166,541197.2086640167 554802.8742845432,1217681.9422791244 772781.9894040215,1962939.0402645955 927125.1901757165,2773575.3635689057 1009389.4810680391,3645199.081759183 1011388.5911810087,4572408.801232689 925309.5547096917,5548794.570073773 743832.3746066426,6566951.544003492 460251.4846235097,7618506.992949212 68597.61639975496,8694161.207362814 -436241.4201828567,9783742.727998817 -1058402.621649007,10876278.173108848 -1800933.9915001043,11960076.773815848 -2665686.764604486,13022829.552933715 -3653215.4028588613,14051722.89605278 -4762687.130038899,15033566.067906205 -5991802.7736039385,15954932.023674022 -7336730.659070235,16802310.655998453 -8792055.257220114,17562273.406298917 -10350742.214882543,18221647.95591191 -12004121.305548817,18767701.501228124 -13741888.71618066,19188330.910102922 -15552129.941013902,19472257.857245076 -17421364.38205582,19609226.84702388 -19334612.559729986,19590203.856210105 -21275486.616502743,19407573.16967456 -23226304.5524375,19055329.842087425 -25168228.36594785,18529265.1012417 -27081425.987396114,17827141.916740287 -28945256.589838635,16948857.894285463 -30738478.542729225,15896592.623389438 -32439478.94371344,14674936.607466508 -34026523.324069716,13290998.942204418 -35478023.77851714,11754490.982787637 -36772823.42393846,10077783.354549505 -37890494.748290434,8275933.816186869 -38811649.07504912,6366683.680568871 -39518254.04463983,4370420.735744504 -39993955.70726133,2310106.8878366486 -40224401.53629027,211169.06741351873 -40197560.4130393,-1898647.699596615 -39904035.40706669,-3989465.7581533836 -39337364.986437224,-6029499.096654475 -38494308.14414519,-7985316.230036426 -37375108.82495286,-9822141.004076498 -35983734.98555079,-11504190.113460517 -34328087.62421944,-12995045.588410957 -32420175.177701462,-14258059.952587565 -30276248.805904035,-15256791.194487486 -27916894.27193063,-15955464.132093681 -25367076.377746128,-16319454.192910902 -22656132.235784072,-16315789.086056644 -19817710.044528227,-15913663.317327445 -16889650.491249558,-15084960.00001341 -13913808.426521586,-13804773.951722125 -10935813.04080922,-12051929.648739094 -8004765.4203577405,-9809487.242639944 -5172873.063848114,-7065229.53701664 -2495021.6979121543,-3812122.583120945 -28285.532711981483,-48742.38947592533 2168622.0584929953,4220339.840856145 4035954.5773748057,8984221.524107745 5513591.400223813,14225389.037165703 6541745.072432828,19919501.860692836 7061711.31702487,26035247.4920349 7016655.270778139,32534273.682537723 6352426.575826481,39371204.03128537 5018395.101311152,46493742.334619604 2968298.2615158353,53842870.348622836 161090.14700730398,61353142.77193224 -3438217.993141557,68953082.3021716 -7857736.973726015,76565676.56581463 -13117910.152069328,84108977.57489797 -19230767.100201916,91496803.13269648 -26199232.67067748,98639538.30390921 -34016503.78489608,105445033.69429511 -42665506.25680678,111819595.86277932 -52118443.79467035,117669063.73012148 -62336450.990916654,122899963.3679222 -73269361.60832332,127420732.06705837 -84855602.79467379,131143001.11374734 -97022225.00445855,133982925.2635592 -109685076.37381399,135862545.5189564 -122749129.08458804,136711170.50507545 -136108963.86835125,136466760.52278584 -149649417.24684328,135077297.2590291 -163246394.3897701,132502121.17356111 -176767848.60457307,128713217.77968116 -190074926.46894076,123696433.41501378 -203023275.4910849,117452600.67664583 -215464508.95349315,109998553.49159698 -227247820.2837675,101368011.8258379 -238221736.92449215,91612316.31826109 -248236001.26834115,80800993.67342691 -257143563.81254515,69022134.46946765 -264802671.29786912,56382566.143385716 -271079030.2627825,43007805.31039257 -275848024.19615495,29041775.258853216 -278996960.3454115,14646276.436333306 -280427320.26614887,200.00000034342466" stroke="white" stroke-width="1.5" /></svg>