<?xml version="1.0" encoding="utf-8" ?>
<svg baseProfile="full" height="400" version="1.1" width="400" xmlns="http://www.w3.org/2000/svg" xmlns:ev="http://www.w3.org/2001/xml-events" xmlns:xlink="http://www.w3.org/1999/xlink"><defs /><rect fill="black" height="100%" width="100%" x="0" y="0" /><circle cx="200" cy="200" fill="yellow" r="10.000000000613985" stroke="orange" stroke-width="2" /><polyline fill="none" points="201.46390195909575,200.0 201.45941786675945,200.07661277126493 201.44506287738344,200.15213765624048 201.42063729723722,200.22538874745058 201.38606265765077,200.29512328124807 201.3413911173423,200.36005310191624 201.2868138795409,200.4188574520784 201.22266845353943,200.47019701892452 201.1494445932916,200.51272914541352 201.06778875092297,200.5451240950263 200.97850689065615,200.56608223806734 200.88256551870967,200.57435200720064 200.78109079726374,200.56874845012658 200.6753656255985,200.54817218834424 200.56682458898422,200.51162857308708 200.45704669578328,200.45824681306672 200.34774584542643,200.38729883390724 200.24075899432893,200.29821761639946 200.13803201325985,200.19061475024273 200.04160325797818,200.06429693205448 199.9535849048746,199.9192811313866 199.8761421346431,199.75580814654543 199.81147027935674,199.57435427339882 199.76177008140232,199.3756408152793 199.729221246179,199.16064117072744 199.71595450389538,198.93058524830872 199.72402242878712,198.6869609741819 199.75536929618934,198.43151267855802 199.8118002886686,198.16623617168005 199.89495039138367,197.89337034843956 200.00625334351534,197.6153851931445 200.14691103650063,197.33496609211363 200.31786377044196,197.05499440150828 200.51976179696305,196.7785242608607 200.75293858948828,196.5087556888079 201.01738628999377,196.2490040462198 201.31273378430546,196.00266600279105 201.6382278556252,195.77318219575827 201.99271785781866,195.56399682317593 202.3746443358143,195.3785144685357 202.78203200001158,195.2200545078174 203.21248743471654,195.09180350362865 203.66320188721417,194.99676604321434 204.1309594441317,194.93771452704777 204.61215085529992,194.91713846168707 205.10279321252793,194.93719385380714 205.59855563179786,194.9996533410167 206.09479102268838,195.10585772844814 206.58657395876008,195.25666962740337 207.06874458770037,195.45242991279576 207.53595844083227,195.69291772904054 207.9827419188422,195.97731477874336 208.40355314506849,196.30417462441383 208.79284779029237,196.6713977199448 209.1451493846487,197.07621286529337 209.45512354406023,197.5151657443047 209.71765545160392,197.98411516167172 209.92792984960138,198.4782375404672 210.08151271720334,198.99204017648984 210.17443373205688,199.51938366992832 210.20326854457562,200.05351386880676 210.16521983066005,200.58710356270757 210.058196034712,201.11230405990648 209.8808866707052,201.62080666697827 209.63283301612728,202.10391396797604 209.31449301295447,202.55262067144338 208.92729918253423,202.9577036589258 208.47370836832553,203.30982072959762 207.95724214275003,203.59961739354137 207.38251675268498,203.8178409226765 206.75526153297497,203.95546072501793 206.0823247891792,204.00379396665141 205.37166623985132,203.95463522843608 204.6323352150146,203.80038885295434 203.8744339309823,203.53420251365696 203.10906530189095,203.15010042456305 202.3482649046398,202.64311450735354 201.60491688549726,202.009411745314 200.89265378233102,201.24641588236864 200.22574043487907,200.35292157237765 199.61894236508948,199.32919905081283 199.08737922845933,198.17708738963773 198.64636416339204,196.90007440829567 198.3112300965427,195.50336135056537 198.09714429537897,193.99391049988256 198.0189126920091,192.38047399550288 198.09077573178908,190.6736022292867 198.32619772324165,188.8856303483068 198.73765187919167,187.03064156198545 199.3364034394485,185.12440615377812 200.1322934494827,183.18429532589644 201.13352593397232,181.2291692601795 202.34646134546563,179.27923905756268 203.77541928342237,177.355902520839 205.4224935643591,175.4815540683326 207.287382776689,173.6793694070734 209.36723947127828,171.97306595004852 211.6565411181461,170.38664032967702 214.146985898821,168.9440847350256 216.82741630069899,167.66908417929307 219.68377333276976,166.58469718228125 222.69908399019215,165.71302272517116 225.8534843577815,165.07485669693085 229.12428045942772,164.6893413978796 232.48604863225472,164.57361199095777 235.91077683202585,164.7424440896402 239.36804786156318,165.20790693768726 242.82526505911153,165.97902686458738 246.24792049160084,167.0614658862455 249.5999051722897,168.45722045802432 252.8438602675871,170.16434547171602 255.94156767891045,172.17670861480127 258.85437778780715,174.48378017524664 261.54367154243846,177.0704632743906 263.9713534476481,179.91696934102904 266.10037140649115,182.9987433991446 267.89525875602567,186.28644342804316 269.3226932525204,189.74597766598873 270.3520671994879,193.33860326662062 270.9560623848272,197.0210891822832 271.11122300974387,200.74594554163593 270.7985193609272,204.461721113299 270.0038946075878,208.11336970661117 268.7187868050978,211.64268555970057 266.9406179655524,214.98880690991476 264.6732419205974,218.0887860392337 261.9273426608014,220.87822314565642 258.7207748955102,223.29196041979725 255.07883874349477,225.26483171411988 251.03448074288036,226.7324621913756 246.6284137628473,227.63211134073816 241.90914891227837,227.90355176744234 236.9329331734723,227.48997520769768 231.7635872424195,226.33891630904344 226.47223892964465,224.4031838613216 221.136948464389,221.64178837949882 215.84222314541134,218.02085424117556 210.67841998773284,213.51450398319798 205.74103631829934,208.10570187747857 201.12988966510505,201.78704354959766 196.9481897523911,194.56147818799607 193.30150694596804,186.44294982869218 190.29664307269542,177.4569443014792 188.0404121502923,167.64092869821116 186.63834019004275,157.04467068026838 186.1932948563222,145.7304255871179 186.80405736270248,133.77298014562655 188.56385053312843,121.25954261296161 191.5588384358808,108.28947041474319 195.8666143846907,94.97382776242603 201.5546953720012,81.43476734493794 208.67904213040327,67.80473198199576 217.2826249862937,54.22547409009013 227.39405645184024,40.846892933942286 239.02631207522552,27.825691900448675 252.1755614137873,15.32386042015105 266.82013109043527,3.5069876516684246 282.9196217227602,-7.4575823868361795 300.41420006080506,-17.402741934889235 319.22408692027614,-26.163741908808333 339.2492604425451,-33.580428042251356 360.3693928437467,-39.49957057654768 382.4440371286473,-43.777264815335855 405.3130782404596,-46.2813774580988 428.7974607990427,-46.89401137861665 452.70020295478304,-45.51395945527395 476.8077029660086,-42.05911622886009 500.8913419106853,-36.4688145980158 524.7093824895186,-28.706053500124597 548.009160193278,-18.759581602177974 570.5295592225041,-6.64580147620444 592.003761497703,7.589541410932668 612.1622529219524,23.869920274263706 630.7360667990838,42.08687378597574 647.4602400166889,62.09917145130072 662.0774533251911,83.73232925925095 674.3418228364454,106.77850504472904 684.0228057847953,130.9968002447336 690.909179699517,156.1139914611306 694.8130504911169,181.82571146188826 695.5738416168374,207.79809497456887 693.0622135253728,233.6698998702234 687.1838600488308,259.05510912972704 677.8831263720367,283.5460133626814 665.1463917237622,306.7167676533509 649.005159056863,328.1274101882675 629.5387937662546,347.3283235330142 606.8768539820526,363.86511263535306 581.2009562112983,377.2838667091377 552.7461221201343,387.1367651755975 521.8015550764767,392.9879808887282 488.7107987300927,394.41982703799385 453.87123440265805,391.0390874971124 417.7328793949922,382.4834640688389 380.7964544821566,368.42806816136454 343.61069583826645,348.59187902296014 306.76889437907516,322.7440858588866 270.90465398721074,290.7102270587588 236.68686923585219,252.3780364717574 204.81393298294287,207.7029042761921 176.00719448892497,156.71285858893813 151.0036994236975,99.51297363293045 130.54825416869568,36.289111103167016 115.38486807226921,-32.689096589659556 106.24763865510798,-107.06610920769782 103.85115605210557,-186.3992710887249 108.88051407396915,-270.15861047058644 121.98102602520945,-357.7277158068962 143.74775366803857,-448.40575044286516 174.71496731313886,-541.4106569733159 215.34566378461165,-635.8835912469337 266.0212767833701,-730.8946133650823 327.0317207977994,-825.4496492227408 398.56591502307697,-918.4987212457013 480.7029375971901,-1008.945431104145 573.4039626963313,-1095.6576604598667 676.5051335193807,-1177.4794383841283 789.7115228072072,-1253.2439061349976 912.5923291798671,-1321.78729169556 1044.5774521423768,-1381.9637880518396 1184.95558103679,-1432.6612108520665 1332.8739234555933,-1472.8172930708722 1487.3396866537835,-1501.436456848583 1647.2234113049951,-1517.6068860419264 1811.2642405691004,-1520.5177074701328 1978.0771889320363,-1509.476074635386 2146.1624547309357,-1483.923935105839 2313.916797807892,-1443.4542520378259 2479.6469794948334,-1387.8264417404525 2641.5852363024146,-1316.9807830003729 2797.906731483522,-1231.051550324207 2946.748900312184,-1130.3786225406936 3086.232575739348,-1015.5173205339329 3214.4847513636546,-887.2462334278036 3329.662808721503,-746.5728014564038 3429.980006114792,-594.7364361508749 3513.731996937096,-433.20897442799924 3579.3241171289433,-263.6922827204928 3625.2991544052593,-88.11285044083195 3650.3652866781904,91.38676122736494 3653.42385407874,272.45971905847534 3633.596608594906,452.5700364121644 3590.2520680218217,629.0110445488367 3523.0305870821117,798.9272109639568 3431.867748627332,959.33925704011 3317.0156721584676,1107.172483061585 3179.061835862052,1239.2881625617185 3018.9450122714256,1352.517820529452 2837.9679268133323,1443.70016168698 2637.8062631254224,1509.7203664077874 2420.5136593151037,1547.551423456928 2188.52236540099,1554.2971212219295 1944.6392640986767,1527.2362731132698 1692.036994876939,1463.8677090214114 1434.2399647406492,1361.955523815759 1175.1050783372343,1219.574036561116 918.7970744989492,1035.151881114594 669.758415905425,807.514620748699 432.67374277735746,535.9252571074817 212.42896990577879,220.12198780060893 14.065178310305015,-139.64744210168288 -157.2724722506806,-542.5954509129618 -296.39050655982373,-987.3690431952423 -398.1071911237199,-1472.0295792449044 -457.31642433316256,-1994.0385018170405 -469.05492007496173,-2550.2495975202146 -428.57206811555466,-3136.9083277225 -331.40177992547353,-3749.6587117142535 -173.43555756142496,-4383.558183283385 49.00404310569519,-5033.100770906035 339.09044399160837,-5692.248871694901 699.4215138558009,-6354.473800465376 1131.9504627506135,-7012.805198295867 1637.9201858520707,-7659.889280430816 2217.802106394425,-8288.055792098643 2871.2405818291304,-8889.393423723246 3597.0039394558303,-9455.833315164633 4392.943196780865,-9979.240153230867 5255.959497003219,-10451.510239077526 6181.981250693463,-10864.675773697212 7165.951920433869,-11211.014482038468 8201.829315603303,-11483.16357102345 9282.597179460117,-11674.236895574764 10400.28975022277,-11777.94409149523 11546.029862188472,-11788.710326499919 12710.081022486374,-11701.795222733594 13881.913754463929,-11513.409417576175 15050.286340806268,-11220.827156289084 16203.33992936161,-10822.49325188692 17328.707783587954,-10318.122706262953 18413.63826906779,-9708.791263698397 19445.130969399837,-8997.01516496104 20410.08512091719,-8186.818388625768 21295.459348257704,-7283.785707227972 22088.441474161933,-6295.0999503903195 22776.62696951291,-5229.56195592004 23348.204406227855,-4097.591803581449 23792.146078955226,-2911.210065055629 24098.401774525093,-1683.9979674620474 24258.09349371763,-431.0355563741058 24263.708771166792,831.1828431792527 24109.29009912835,2084.8563337081846 23790.617842407406,3311.0085291328205 23305.383937877843,4489.64194748986 22653.353605557684,5599.915349807665 21836.512261783162,6620.343352632715 20859.194821121047,7529.017319450431 19728.194604500437,8303.846204792899 18452.849138570702,8922.81568767185 17045.100237125316,9364.26359192724 15519.525900814448,9607.169254234714 13893.341757149139,9631.454170203224 12186.369989366085,9418.290929765864 10420.973969990871,8950.417149635228 8621.957122310483,8212.45082779324 6816.424879303048,7191.203287712033 5033.608993177818,5875.985653169085 3304.653867274919,4258.904602986678 1662.3650327975274,2335.143003538353 140.9203722453193,103.22090999156516 -1224.454804556664,-2434.7676306871554 -2397.8472019058495,-5272.946546953167 -3343.0473283546276,-8401.483000598195 -4023.9709187516482,-11806.450344623941 -4405.1067205182035,-15469.73301684397 -4451.986829331895,-19368.977367177875 -4131.675223037196,-23477.592113140767 -3413.2696244460894,-27764.80174829032 -2268.4113313967077,-32195.75579253479 -671.7971938599273,-36731.69627222424 1398.31249901498,-41330.18525371137 3959.5968262646165,-45945.39362936056 7025.1946509275385,-50528.451673538504 10603.249802781049,-55027.861152582955 14696.488358235112,-59389.9679928007 19301.835439706872,-63559.49369074039 24410.078962736712,-67480.12279788383 30005.5876730453,-71095.14293591927 36066.09063258101,-74348.13290820536 42562.5250291475,-77183.69357801692 49458.95879518172,-79548.21529550126 56712.59402551256,-81390.67478446297 64273.85658049285,-82663.45355916243 72086.57655004997,-83323.16914271278 80088.2634375968,-83331.50961517112 88210.47900346687,-82656.0613439856 96379.30969013163,-81271.1191550275 104515.93944202203,-79158.4677018417 112537.32253894697,-76308.1223964998 120356.95479307092,-72719.0179895563 127885.74012593734,-68399.63274045875 135032.9481563883,-63368.536113858754 141707.257006153,-57654.84808106339 147817.8740825246,-51298.59840760975 153275.72614336017,-44350.97477445982 157994.70850623472,-36874.4492168272 161892.9818496767,-28942.77317462449 164894.30368952028,-20640.832433534062 166929.3803178617,-12064.354395169685 167937.2237865945,-3319.4614460286966 167866.49742309595,5477.934307157867 166676.83240339826,14202.89801094209 164340.09709889707,22722.402016416323 160841.6002766719,30896.418133899348 156181.2087903312,38579.169451777125 150374.36016635687,45620.53681101187 143452.95048726743,51867.61277337459 135466.07821287913,57166.39360614689 126480.62507782852,61363.59745352903 116581.65596838624,64308.5945020628 105872.62072286356,65855.43260272841 94475.34212313728,65864.9395163876 82529.77595243836,64206.88073374766 70193.53088561242,60762.14971896937 57641.13814800753,55424.96547116842 45063.063319685745,48105.05052455555 32664.45536054191,38729.760950029005 20663.630872871337,27246.138612488037 9290.294780595183,13622.854911963675 -1216.4980357630636,-2147.9854754507037 -10610.632080773325,-20049.21270909307 -18641.459830336942,-40037.16359646879 -25056.554066291526,-62040.4885563117 -29604.66463972704,-85959.22436329536 -32038.856504093408,-111664.16205219674 -32119.802050803417,-138996.53765639852 -29619.197052001557,-167768.07129441397 -24323.265919228634,-197761.37749480933 -16036.318576448039,-228730.76656617082 -4584.318076171098,-260403.4532821657 10181.584786240508,-292481.1851759076 28381.5961270238,-324642.29834282765 50103.951279577566,-356544.2038636827 75401.7647888198,-387826.3028124405 104290.10927581007,-418113.32234754384 136743.3749378916,-447019.0596461291 172692.96142861343,-474150.51448221295 212025.35319567713,-499112.38513113884 254580.62800921797,-521511.89606909984 300151.4463580663,-540963.919699215 348482.5666063416,-557096.348150473 399270.9272725596,-569555.665143359 452166.3335123553,-578012.6620802039 506772.7798569619,-582168.2369864824 562650.4354951849,-581759.2097905738 619318.3119093045,-576564.0827740955 676257.6255177218,-566408.6709431789 732915.8601831652,-551171.5236521829 788711.5260687346,-530789.0561421853 843039.6024305149,-505260.307820663 895277.6426008737,-474651.2431846994 944792.5097273682,-439098.5113503622 990947.7018853192,-398812.58126080997 1033111.2150840632,-354080.1718617214 1070663.8825530612,-305265.89990123775 1103008.1186481928,-252813.07256813397 1129576.9858916157,-197243.55794925292 1149843.494187267,-139156.67327465775 1163330.0322802418,-79227.03912132552 1169617.8231968458,-18201.357142847428 1168356.2878596503,43105.92055342362 1159272.194465156,103818.05060275641 1142178.4656856228,163002.59368388494 1116982.5114521903,219679.1398214308 1083693.9521291205,272828.14311583113 1042431.5954264677,321400.83014209196 993429.5305381223,364330.13050174847 937042.2048397898,400542.56184083887 873748.3521284945,428970.98523390596 804153.646906421,448568.13036805677 728991.9666648479,458320.7736431002 649125.1535444424,457264.43634686805 565541.1781516428,444498.4546914835 479350.62168762396,419201.2589369931 391781.40786252986,380645.68531906797 304171.73326252354,328214.1322757585 217961.1638226198,261413.36177280394 134679.8857180846,179888.73759308958 55936.121176508175,83437.68551261033 -16598.256742152353,-27977.84444761565 -81203.85165120958,-154220.1358198526 -136131.52925931892,-294965.9053719962 -179621.75004987422,-449698.1634364686 -209925.31188410564,-617699.9476499116 -225325.33844122122,-798050.133821415 -224160.32290486398,-989621.5154605568 -204848.0103964578,-1191081.3281114749 -165909.8777048668,-1400894.3760327534 -105995.9452426761,-1617328.8969507203 -23909.634255376062,-1838465.2756525187 81367.63749186158,-2062207.6891747664 210652.4456371878,-2286298.7354277615 364536.2732826397,-2508337.0634642555 543363.6989167779,-2725797.9874922773 747212.2155208295,-2936057.028426756 975874.0418403996,-3136416.2866035644 1228840.2862212812,-3324133.507618045 1505287.8183020332,-3496453.6605154998 1804069.1939891633,-3650642.804213677 2123705.9643165874,-3784023.974575321 2462385.678862087,-3894014.781505342 2817962.869265691,-3978166.3633854575 3187964.268032636,-4034203.305668276 3569598.4822343737,-4060064.0921422974 3959770.301038154,-4053941.621870758 4355099.770363076,-4014323.292730969 4751946.117614559,-3940030.124465606 5146436.5546999145,-3830254.3708232255 5534499.928761919,-3684595.0523165767 5911905.127747189,-3503090.8289426146 6274304.082588233,-3286249.626431148 6617279.1400337545,-3035074.4307215936 6936394.510692844,-2751084.673857858 7227251.426412963,-2436332.65072675 7485546.570500936,-2093414.4303627717 7707133.274388006,-1725474.7581393234 7888084.906050203,-1336205.486213252 8024759.809782592,-929837.119142273 8113867.094781087,-511123.1196052915 8152532.512418465,-85316.6854708659 8138363.610137618,341860.21619276784 8069513.304544026,764255.6905752769 7944740.978571007,1175334.6753218044 7763470.178493668,1568233.567096595 7525841.967020901,1935822.5607368227 7232762.979581979,2270775.4409393743 6885947.233056589,2565646.456257646 6487950.75030215,2812953.7922457196 6042198.090536521,3005269.046093006 5552999.915448389,3135311.9903634195 5025560.774215551,3196049.7999010333 4465976.357653643,3180799.8050806685 3881219.5525794704,3083334.727924454 3279114.722074845,2897989.256784465 2668299.745421848,2619766.7219521957 2058175.4726065835,2244444.5503595294 1458842.3818233917,1768677.1041434074 881024.3735246055,1190094.446893907 335979.7902224333,507395.53448402445 -164600.0837700529,-279565.7039869393 -608704.6156011362,-1169702.9439844806 -984128.9039486344,-2160630.2469886146 -1278609.5560983338,-3248606.5671241647 -1479970.1861620725,-4428493.46059405 -1576275.4721664055,-5693727.410322475 -1555992.4253140525,-7036308.091059826 -1408157.344689747,-8446803.790725397 -1122546.757583076,-9914375.07183378 -689850.4820509187,-11426817.602603002 -101844.79701536453,-12970624.911202172 648436.4312095882,-14531071.619287034 1566534.93585102,-16092317.493533554 2656407.91846197,-17637532.417664617 3920277.0435922025,-19149042.134158924 5358489.053686971,-20608494.336437635 6969390.521207857,-21997044.411173787 8749219.24783113,-23295559.83910222 10692014.78174489,-24484841.96427596 12789550.451894965,-25545863.53934232 15031289.21118833,-26460020.1516053 17404365.438157566,-27209393.33513205 19893594.667806268,-27777022.881901227 22481513.00708506,-28147185.584095825 25148447.738931358,-28305677.37437852 27872620.331736263,-28240095.585686695 30630282.74967776,-27940117.8311489 33395887.605271906,-27397773.81252804 36142292.31096741,-26607706.206454217 38840996.97437784,-25567416.655823655 41462415.34509909,-24277492.81310878 43976177.663777545,-22741812.34672673 46351463.79049716,-20967719.83450137 48557364.50442868,-18966172.53271435 50563268.37531073,-16751851.127933625 52339271.115384154,-14343231.753876904 53856603.83397939,-11762615.788622843 55088076.14247169,-9036114.239501392 56008529.60147738,-6193583.874295783 56595296.57188167,-3268512.6675719414 56828659.133642286,-297852.59885931655 56692302.37841475,2678201.6369177965 56173756.071032666,5616488.869692754 55264818.41774322,8471212.882096566 53961955.48266043,11194328.59087489 52266669.66465855,13735981.837413179 50185830.59100869,16045000.899090573 47731961.80704661,18069437.063035972 44923476.748072885,19757150.815196205 41784857.674802266,21056439.399014834 38346771.54048649,21916700.69873092 34646117.13890167,22289127.612234134 30725998.359298144,22127426.308011293 26635618.94763865,21388551.020874035 22430094.842316136,20033447.34313748 18170180.91514614,18027795.323196743 13921909.801541744,15342743.103614239 9756141.442867905,11955621.327449868 5748022.983103549,7850628.126014826 1976359.753800639,3019474.1845635124 -1477100.762792766,-2538022.8247840866 -4528468.892773515,-8813405.241463711 -7092592.299825048,-15789114.604235403 -9084009.45064793,-23438113.609193105 -10417970.084719606,-31723601.098322347 -11011514.457962556,-40598829.86922775 -10784601.846730592,-50007036.47372292 -9661277.547741117,-59881491.394296266 -7570866.40891132,-70145677.05228181 -4449179.793794455,-80713600.01103787 -239721.8371229208,-91490242.49472383 5105120.090318275,-102372156.95364039 11622916.603863668,-113248205.8779951 19340085.781993035,-124000447.4030854 28270847.976343896,-134505165.47215804 38416263.36491825,-144634041.44285476 49763369.796467625,-154255462.0556329 62284438.40274384,-163235956.6464641 75936364.16189207,-171441754.40226588 90660208.06943817,-178740450.34856352 106380906.80405694,-185002766.64942557 123007164.75691432,-190104393.7159442 140431542.02183503,-193927893.5890832 158530750.4177496,-196364646.11446577 177166167.83673137,-197316816.5902892 196184579.1857119,-196699321.87545112 215419149.92627433,-194441770.42370367 234690635.72698694,-190490350.39174914 253808829.04233983,-184809638.88463902 272574240.5410546,-177384304.5798202 290780010.247437,-168220675.43940565 308214040.0594521,-157348143.0048859 324661335.9966288,-144820374.89334193 339906545.14356506,-130716307.60054648 353736668.8276556,-115140892.58227374 365943930.1427736,-98225569.84538491 376328770.54650533,-80128444.94547786 384702946.96228063,-61034147.364565074 390892697.65615386,-41153350.73204975 394741942.1794745,-20721938.25192448 396115477.9225051,199.9999995148987" stroke="white" stroke-width="1.5" /></svg>