<?xml version="1.0" encoding="utf-8" ?>
<svg baseProfile="full" height="400" version="1.1" width="400" xmlns="http://www.w3.org/2000/svg" xmlns:ev="http://www.w3.org/2001/xml-events" xmlns:xlink="http://www.w3.org/1999/xlink"><defs /><rect fill="black" height="100%" width="100%" x="0" y="0" /><circle cx="200" cy="200" fill="yellow" r="10.000000001609344" stroke="orange" stroke-width="2" /><polyline fill="none" points="200.88091647519767,200.0 200.87182894907366,200.04576703724058 200.8564530819765,200.09016823185422 200.83472918769615,200.13243251211352 200.80667816138853,200.17175955544727 200.77240680137834,200.20732764753095 200.73211242481653,200.2383023293182 200.68608667267733,200.2638457770648 200.63471840267187,200.28312684759186 200.57849557321586,200.29533170821796 200.5180060276602,200.29967495811258 200.45393709560025,200.29541113546108 200.387073937233,200.28184649295173 200.318296567416,200.2583509128826 200.24857550827386,200.22436982282377 200.1789660328403,200.17943596344287 200.11060097724922,200.12318085199578 200.04468211529746,200.05534577828269 199.98247010668277,199.97579216474838 199.92527304873093,199.88451111903532 199.87443368080494,199.78163200583802 199.8313153106559,199.66742986550236 199.79728655252347,199.5423315095966 199.77370498760146,199.40692012875968 199.7618998783104,199.26193825560202 199.76315408840463,199.1082889353593 199.77868538101492,198.94703496942037 199.80962728600565,198.7793961117827 199.8570097462134,198.60674411591194 199.9217397689339,198.43059554934698 200.00458232413342,198.25260231561617 200.10614174397864,198.07453984749426 200.22684388910787,197.8982929621784 200.3669193553208,197.7258393974065 200.52638799976472,197.55923107765358 200.70504506798872,197.40057319105946 200.90244920218257,197.2520011903655 201.11791260630613,197.11565586453918 201.35049363546636,196.99365666157712 201.5989920646637,196.88807347680748 201.86194727580477,196.8008971544441 202.1376395815922,196.73400898273044 202.4240948805408,196.6891494942924 202.7190928089597,196.66788691281891 203.0201785233644,196.6715856144195 203.32467821058077,196.701374996479 203.6297183829648,196.7581191680541 203.93224897294425,196.8423878933483 204.22907019479916,196.95442923309858 204.51686309260703,197.09414433735836 204.79222364201976,197.2610648467514 205.0517002204893,197.45433335741254 205.29183420626774,197.6726873971879 205.50920341155924,197.9144473469392 205.70046800024082,198.17750872075544 205.86241848627643,198.45933919233957 205.99202535604576,198.75698072170923 206.08648980704638,199.0670570965946 206.14329504757976,199.38578715658784 206.1602575578902,199.70900391532936 206.13557767358623,200.03217973703659 206.0678888178331,200.35045765880224 205.95630468054406,200.65868887973 205.80046362137432,200.95147636263877 205.60056955946413,201.2232244143598 205.35742860725895,201.46819402727036 205.07248070898257,201.68056367844608 204.74782555700403,201.8544951945509 204.3862420818948,201.98420420128312 203.991200844801,202.06403458689888 203.56686870413694,202.0885363211535 203.11810518270593,202.0525458851051 202.65045002622008,201.95126848483972 202.17010151973403,201.7803611445573 201.68388521450524,201.53601570289402 201.19921281387607,201.21504067213863 200.7240310724196,200.81494086442538 200.26676067712853,200.3339936433181 199.83622520202732,199.77132062467513 199.44157035726263,199.12695362847717 199.09217388934178,198.40189367451083 198.79754662944944,197.59816182043636 198.56722533025015,196.7188406617299 198.41065807670336,195.76810535003528 198.3370832014907,194.75124304021534 198.35540277886585,193.67465974729626 198.47405191018743,192.54587368282924 198.7008651480923,191.3734942460086 199.04294153216478,190.1671859680481 199.50650982496845,188.93761684845182 200.09679564132446,187.6963906783172 200.8178922536472,186.45596311782643 201.672636929923,185.22954148151578 202.66249471654046,184.03096838440644 203.78745161374252,182.8745896130301 205.045919105189,181.77510680592889 206.43465199335523,180.74741575625097 207.94868145780126,179.8064313822682 209.581265192484,178.9669006474496 211.32385639026322,178.243204947383 213.16609322683797,177.64915371339526 215.095810352127,177.19777120908734 217.09907372446492,176.90107871293807 219.16023992217586,176.76987448430975 221.26204083871497,176.81351409821679 223.38569441263508,177.03969390267417 225.5110417635307,177.45424049791674 227.61671080163285,178.06090925592738 229.68030605408984,178.86119498828364 231.67862410778824,179.85415792723475 233.5878937098737,181.03626820625774 235.38403919634965,182.40127200946358 237.0429655400615,183.9400825017848 238.54086292617876,185.6406985518713 239.854528380458,187.48815411544192 240.96170159789307,189.46450095732652 241.8414117518777,191.5488271549007 242.47433171197707,193.71731354391687 242.84313576724088,195.94332994027923 242.93285664721074,198.19757259910733 242.73123735993477,200.44824395711578 242.22907313094183,202.66127524818484 241.42053853467797,204.80059208794864 240.3034947656421,206.82842259489072 238.87977190539786,208.7056470570891 237.15542100847782,210.39218757032734 235.14093085923062,211.8474354703662 232.85140434668858,213.03071376594403 230.30668956880027,213.9017711563181 227.53146101346408,214.42130359518617 224.55524647359627,214.55149874942364 221.41239573804816,214.25659810444256 218.14198755978094,213.50347089667264 214.7876719366165,212.26219351647967 211.39744534644493,210.50662753074482 208.02335725530907,208.21498903236005 204.72114695956654,205.37040164303966 201.5498106275533,201.96142518493681 198.5710992659483,197.98255180413764 195.84894924439115,193.43466118333464 193.4488479607876,188.32542642946896 191.43713821006364,182.66966227183482 189.8802658208059,176.48960736321519 188.84397613622585,169.81513274630544 188.3924659263084,162.68386893416763 188.5874983141793,155.1412445597569 189.48748926829964,147.24043017739166 191.14657513917788,139.0421815487505 193.61367159056286,130.61457761637263 196.93153507597452,122.03264935600733 201.13583872726136,113.37789680107802 206.25427513804652,104.73769274190826 212.30569902709846,96.20457291135077 219.2993231409518,87.8754138674483 227.23398098829398,79.8505012613658 236.09747007837163,72.23249272194299 245.86598925068154,65.12528118202607 256.5036834235352,58.632766099797294 267.96230864623647,52.85754167269144 280.18102970684566,47.89951278278542 293.0863617199673,43.85445103015738 306.59226609393687,40.81250478292603 320.60041005373614,38.85667867688613 335.0005974768726,38.06129941059669 349.67137718885107,38.49048597976383 364.48083306996,40.196643653928334 379.2875583558632,43.21900199511555 393.941814383776,47.5822180289486 408.2868717594691,53.29506628120794 422.16052951659174,60.349237765533246 435.3968053301677,68.71827013083228 447.827787254764,78.35663103176019 459.28563481150394,89.19897635619704 469.60471457604973,101.15960421628132 478.6238527534283,114.13212457335761 486.18868459867014,127.98936301436667 492.1540779900058,142.58351552336575 496.38660602056507,157.74656909634206 498.7670411829596,173.29100073354974 499.1928416173625,189.0107647187266 497.58059801638314,204.6825751705332 493.8684081678155,220.0674876447881 488.0181448069172,234.9127800974548 480.0175814798921,248.95412981351438 469.8823405244881,261.9180789960818 457.6576270845515,273.5247776282614 443.41971332260425,283.4909880065963 427.27713770416847,291.533331043149 409.3715854218223,297.37175009085945 389.8784177233881,300.7331637151611 369.00682011982923,301.3552745685117 346.99954218123787,298.9904973809407 324.1322048848162,293.40996511872476 300.7121552513257,284.4075686463517 277.07685228396235,271.80398181662275 253.5917729865196,255.45062087302392 230.64783245932847,235.23348443995727 208.658317717561,211.07681826144298 188.05534090526874,182.9465472868658 169.28582394060913,150.8534167496934 152.80703326628668,114.85578359451085 139.08169023023294,75.06200002714877 128.5726896139702,31.632332134460285 121.7374658824377,-15.219641519754788 119.02205376581266,-65.22620363968917 120.85489671216624,-118.06529298712923 127.64046347623781,-173.36096445852286 139.75273953696157,-230.68455338224362 157.52866606467364,-289.55657681883315 181.26160468644343,-349.4493976774178 211.1949112224027,-409.7906697041187 247.51570578565315,-469.9675728968341 290.3489300536193,-529.3318397111636 339.75178503322394,-587.2055626127917 395.7086441643928,-642.8877631827748 458.12653705072717,-695.6616921865307 526.8312983950941,-744.8028188794291 601.5644747826408,-789.587456457009 681.981078736733,-829.3019590927142 767.6482749284368,-863.2524145760638 858.045077515194,-890.774745314194 952.5631303016069,-911.2451195416916 1050.5086327530785,-924.0905641555892 1151.1054648668055,-928.7996608168842 1253.4995525477216,-924.9331980023442 1356.7645025015775,-912.1346437168297 1459.9085218149514,-890.1402967520162 1561.8826224340553,-858.7889688641731 1661.5900947921411,-818.031046197851 1757.897218000174,-767.9367758526569 1849.6451564587203,-708.7036228151998 1935.6629746401802,-640.6625436836415 2014.7816833183767,-564.2830268091415 2085.8492118923173,-480.1767537603856 2147.7461828838786,-389.09974445827663 2199.40234642058,-291.9528579798635 2239.81351479166,-189.7805329216303 2268.058820245326,-83.76766534442913 2283.318103341842,24.76546133004112 2284.8892246594287,134.37026159324773 2272.205079737986,243.4789948334956 2244.850086107791,350.4159980275059 2202.575902348928,453.41100378897045 2145.316132616697,550.614517446968 2073.19976618932,640.1151994384791 1986.5631005716382,719.9591707440668 1885.9598987261886,788.1711296512404 1772.1695362807197,842.7771381028231 1646.2029032300577,881.8289056122698 1509.305836829836,903.4293685643886 1362.9598781533657,905.7593330510002 1208.88016419536,887.1049206188643 1049.0102904598607,845.8855288499492 885.5140056210851,780.6819929809255 720.7636300051213,690.2646112370437 557.3251231666054,573.620675643406 397.93976253658406,429.9811322201561 245.50243475166053,258.84598009386775 103.03658354357303,60.00800857743013 -26.334097376706893,-166.4255349237302 -139.41709156663399,-420.0137548661718 -232.98542448493646,-699.9658006355653 -303.81473395651,-1005.1278392720665 -348.7227657206025,-1333.9736901777799 -364.61096431469355,-1684.5994842000275 -348.5077813673237,-2054.722683712078 -297.6132766675318,-2441.6857686267854 -209.3445428267309,-2842.4648556785605 -81.38144264877172,-3253.683474864923 88.28788981439568,-3671.6316778007426 301.32236740773953,-4092.2905981357617 558.9846989866098,-4511.362524432733 862.1002044728048,-4924.306481397322 1211.0183476898478,-5326.379246576502 1605.5776486980533,-5712.681657169303 2045.0746396651025,-6078.209986075779 2528.2375225183027,-6417.912088482848 3053.205172260428,-6726.747940963635 3617.5121064948844,-6999.754115134377 4218.080009089683,-7232.111648326846 4851.216353795333,-7419.2166955046905 5512.620621908411,-7556.75327084487 6197.398546740105,-7640.767315126148 6900.084746826243,-7667.741257449282 7614.674029748193,-7634.668178012972 8334.661559499884,-7539.124623844199 9053.091983046554,-7379.341082679461 9762.617506727254,-7154.269082740564 10455.564801245984,-6863.643859031135 11124.010496104114,-6508.041511025146 11759.864901515273,-6088.929573186855 12354.96346931312,-5608.709929517636 12901.165375434448,-5070.753027033083 13390.458476682124,-4479.422381372827 13815.069765192631,-3840.088421135487 14167.580317002918,-3159.130786360015 14441.04360806106,-2443.928281019637 14629.105953751035,-1702.8357794507333 14726.127718351168,-945.1475021078704 14727.303840693454,-181.0462065134775 14628.782133516914,578.4620158618061 14427.777738481804,1321.6274876328264 14122.682058358056,2036.0512183828534 13713.164444282322,2708.793500223741 13200.264890865687,3326.4964320686245 12586.475986877338,3875.5197789136937 11875.812385637173,4342.089366692231 11073.866098355891,4712.4570036945215 10187.845976494647,4973.070708491036 9226.599836593461,5110.753814279867 8200.617793484365,5112.891313284571 7122.015505654052,4967.621605071523 6004.496199728596,4664.031622358452 4863.290529292181,4192.353130049728 3715.0735358566326,3544.1578309059323 2577.858215755031,2712.548767492508 1470.8654546709706,1692.3453878875366 414.3703696980641,480.2595450278514 -570.4746048529463,-924.9403706054798 -1461.839239690051,-2522.2800053064007 -2237.436667780329,-4308.447171208308 -2874.764869071098,-6277.680350303162 -3351.366834540825,-8421.680329169356 -3645.107418485657,-10729.547617112172 -3734.464546799148,-13187.748157472248 -3598.832114013548,-15780.109658116982 -3218.8315776207987,-18487.850642152294 -2576.6289494323696,-21289.644053713033 -1656.2535953481633,-24161.716946862176 -443.9149918377319,-27077.98743924813 1071.686645340413,-30010.239727893386 2899.0601422175246,-32928.337544558635 5043.6379970621065,-35800.4759753904 7507.510412624807,-38593.47108742986 10289.183346407723,-41273.086297096124 13383.365205831564,-43804.393887545855 16780.786768985683,-46152.16953805532 20468.05880538665,-48281.31717498252 24427.571702140627,-50157.32089667901 28637.441167003653,-51746.72017062669 33071.50377962496,-53017.60395716753 37699.365795036625,-53940.118887927805 42486.50816930139,-54486.98612614549 47394.45027706237,-54634.02106850905 52380.97422635904,-54360.64962186673 57400.41105020519,-53650.41441133732 62403.98937072912,-52491.46395693787 67340.24639479046,-50877.017601667816 72155.50031552179,-48805.79879258466 76794.38236875623,-46282.429214895266 81200.42593432932,-43317.77626409345 85316.70918822568,-39929.24641867796 89086.54691179148,-36141.017251209974 92454.22615889959,-31984.201092788993 95365.77958192935,-27496.933748827698 97769.78933424044,-22724.382154588526 99618.21361262594,-17718.665458422405 100867.22709055415,-12538.684728877222 101478.06573478864,-7249.857297260476 101417.86580724559,-1923.7526669162453 100660.48624385196,3362.3720600675542 99187.30308569309,8526.138174760701 96987.96422756386,13480.71250847556 94061.09245740519,18135.574195070432 90414.9245985827,22397.37816561224 86067.87454625565,26170.911095549964 81049.00811890046,29360.134087221122 75398.41793485617,31869.304908025933 69167.48697859357,33604.17113346094 62419.03014775418,34473.224082131106 55227.30387355154,34389.001995652565 47677.87488562757,33269.42952972022 39867.340347606376,31039.17930398572 31902.89291884286,27631.040028730444 23901.72579634199,22987.274606874955 15990.274451231571,17060.95062195467 8303.293586690874,9817.224787407948 982.769796508682,1234.562270477091 -5823.327519454648,-8694.128664943488 -11962.452242171918,-19960.466509294372 -17279.037610185052,-32539.690692864326 -21616.192936847474,-46389.899729460645 -24817.52924175343,-61451.45246622238 -26729.09967965218,-77646.55084184655 -27201.43827525194,-94879.0215309545 -26091.67814347865,-113034.31254300215 -23265.7281240305,-131979.71924726674 -18600.4846196833,-151564.85241161342 -11986.053433831212,-171622.3586761873 -3327.9545887330155,-191968.90144191295 7450.718493508207,-212406.40744966766 20407.21541580335,-232723.58137528264 35577.15187363656,-252697.68758831432 52972.67115597741,-272096.5948431434 72580.77627904102,-290681.07611792407 94361.86498810608,-308207.3521228053 118248.49949975056,-324429.86320015235 144144.44207326928,-339104.2504764812 171923.9862772787,-351990.5232422678 201431.612141376,-362856.38567857054 232481.99124369668,-371480.69226831995 264860.3651789345,-377656.99757732433 298323.3177789456,-381197.16261949064 332599.95792648685,-381934.97678791377 367393.5258251086,-379729.7513944662 402383.4311843957,-374469.8382715376 437227.72697570396,-366076.02470631554 471566.0172425307,-354504.75425481534 505022.7919511096,-339751.12177195505 537211.1760874206,-321851.5903447496 567737.0741996025,-300886.3777738885 596203.6854091546,-276981.4608556865 622216.3576359343,-250310.14700762834 645387.7434720398,-221094.16478622294 665343.2138745168,-189604.2275885095 681726.4797074434,-156160.02832359707 694205.3652351891,-121129.6270950015 702477.6720382181,-84928.19894614693 706277.0665808995,-48016.114478660194 705378.9198985872,-10896.33263429151 699606.023680053,25888.907895693916 688834.1034916593,61762.1043478734 672997.047109681,96115.2099479856 652091.7639816154,128315.0467061959 626182.5908063685,157709.38989462832 595405.1581809332,183633.69338591426 559969.6342742615,205418.41499091382 520163.2636156377,222396.8907288993 476352.12237315474,233913.69671031326 428982.01598454674,239333.427135029 378578.4507125214,238049.80693950737 325745.6176402224,229495.0480023747 271164.335796305,213149.34868252298 215588.91048366585,188550.42796325422 159842.8734456914,155302.97775851842 104813.58318627284,113087.91015139368 51445.676494594205,61671.270627384685 733.3759249788718,912.6838791558499 -46288.32745999058,-69226.8043674504 -88553.58148186686,-148677.6276939072 -124976.61988595559,-237255.47971220725 -154463.68221657455,-334656.11169803137 -175925.82313069823,-440451.28016082756 -188292.51109342178,-554085.9719882978 -190525.8998680566,-674877.0274647705 -181635.640025965,-802013.2721370717 -160694.08208081208,-934557.2571707213 -126851.70803106719,-1071448.6945102853 -79352.61431122398,-1211509.657862428 -17549.85664729025,-1353451.6033172633 59079.54367319045,-1495884.2443993175 150920.14183358318,-1637326.295608345 258204.37677674877,-1776218.076216047 380999.86572617304,-1910935.9424001677 519197.91051430395,-2039808.4909239789 672503.4402712716,-2161134.4517363175 840426.6122116357,-2273202.160332933 1022276.2864942856,-2374310.4737663562 1217155.582295965,-2462790.9671264 1423959.710236042,-2537031.2204659237 1641376.26105636,-2595498.979865331 1867888.1119683105,-2636766.950979082 2101779.0903415373,-2659537.9593660794 2341142.5094781304,-2662670.1895602546 2583892.6631888,-2645202.1945789135 2827779.334904827,-2606377.349786809 3070405.343309186,-2545667.4101206274 3309247.1101862886,-2462794.8180087386 3541678.197654288,-2357753.4012575434 3764995.7214855696,-2230827.096060333 3976449.5052139983,-2082606.3304325666 4173273.7965909485,-1914001.708072994 4352721.3241473315,-1726254.6421391948 4512099.4276451655,-1520944.602911617 4648807.952596307,-1299992.6629568809 4760378.556354631,-1065661.0482896094 4844515.032144364,-820548.4342142668 4899134.218385919,-567580.7599839651 4922407.024450553,-309997.3770533461 4912799.071151632,-51332.391370468365 4869110.415501253,204608.8893852119 4790513.805154038,453778.4377597755 4676590.889139101,691918.8927603445 4527365.798533586,914601.7627491248 4343335.504212078,1117270.2915618315 4125496.359227211,1295286.7661022833 3875366.2411968457,1443983.9735332045 3595001.7256915,1558720.444984622 3287009.745359889,1634939.0512499758 2954553.2216491112,1668228.445107949 2601350.1966310646,1654386.7756178253 2231666.0417039315,1589487.0329531438 1850298.3777601407,1469943.3190610507 1462554.4076548885,1292577.2806851969 1074220.4362119136,1054683.888102346 691523.4351864262,754095.696331052 321084.6000680675,389244.6865963202 -30135.05827596734,-40779.244527874405 -354896.9420961044,-536174.1016717203 -645754.6633202211,-1096376.8766209043 -895131.0450166326,-1720020.8664021585 -1095401.8505865685,-2404900.173232033 -1238985.647798994,-3147942.310367452 -1318439.0986899328,-3945189.798989168 -1326556.85130154,-4791791.58872899 -1256475.096732136,-5682005.068055484 -1101777.7465781257,-6609209.350359903 -856604.0831958863,-7565930.427297865 -515756.63995741203,-8543878.67298351 -74807.9824982746,-9533999.061429348 469795.01345970953,-10526534.325796492 1120630.8551269236,-11511101.142388444 1879208.61288656,-12476779.265904106 2745880.137521427,-13412213.376490293 3719760.880533097,-14305727.22502193 4798660.88161626,-15145449.482412996 5979027.465716182,-15919450.513430977 7255901.149828602,-16615889.107447615 8622886.195941765,-17223168.009960238 10072137.160624862,-17730096.91187621 11594362.683321206,-18126061.370906036 13178847.624247426,-18401195.963513885 14813494.509041153,-18546559.79936518 16484885.06134152,-18554312.37579588 18178362.407026555,-18417887.610229045 19878134.315890625,-18132163.76641942 21567397.60945983,-17693626.88860455 23228483.609083783,-17100525.278704148 24843024.228400227,-16353012.498156248 26392138.031074986,-15453276.350167513 27856635.28100734,-14405651.302273111 29217240.710917003,-13216711.845097711 30454832.429628033,-11895344.352770584 31550695.081959244,-10452795.114961743 32486785.071665157,-8902692.351006625 33246005.361330483,-7261040.193742896 33812487.07765055,-5546182.844742099 34171874.88042585,-3778737.3533910387 34311612.8032468,-1981493.7591018237 34221227.04769189,-179281.65765348653 33892602.015328005,1601197.3923754562 33320245.697275534,3331571.821122136 32501540.41383029,4982036.140617743 31436974.810703363,6521620.523957356 30130352.977681674,7918492.7541242475 28588976.56346894,9140290.94849607 26823795.820287716,10154484.975257007 24849525.62625369,10928763.981249418 22684722.704796433,11431446.952936573 20351820.490178805,11631912.739231016 17877118.377516557,11501045.483431654 15290722.44501483,11011690.948165484 12626435.145089757,10139118.779019905 9921591.928531583,8861485.346621672 7216843.290008794,7160291.440475534 4555881.301270824,5020828.768122756 1985110.3268106382,2432608.947224213 -446737.70895286376,-610231.5270763063 -2689042.4190315073,-4108556.995075454 -4689786.582534036,-8057895.745658879 -6396097.694733075,-12448147.234707197 -7754836.0323815895,-17263340.014484096 -8713225.020916158,-22481446.791604564 -9219518.881311283,-28074262.750627868 -9223701.733765258,-34007352.9046406 -8678211.55361691,-40240073.761689164 -7538681.622900892,-46725674.02599004 -5764691.410093144,-53411478.386043556 -3320518.152478846,-60239157.67992176 -175879.8219098562,-67145087.8741978 3693340.362791103,-74060799.35170111 8304398.143337666,-80913516.98036358 13667031.746858176,-87626790.33814101 19782855.54685262,-94121212.30599922 26644814.78042905,-100315223.02233063 34236712.214492284,-106125994.92935008 42532817.48867549,-111470393.34773391 51497569.55347256,-116266005.70405033 61085382.16236854,-120432231.22148871 71240561.76246275,-123891421.58425598 81897346.35640603,-126570061.81685895 92980072.97848664,-128399979.39919282 104403480.34038533,-129319568.48539233 116073151.96043727,-129275015.02757253 127886103.69933009,-128221507.64399096 139731518.09231645,-126124418.23377167 151491626.20280832,-122960435.64590192 163042735.93647707,-118718635.17694256 174256403.86289448,-113401466.31724426 185000745.60966995,-107025641.00575696 195141877.8406618,-99622904.70385946 204545482.7258941,-91240672.87242392 213078483.67910606,-81942515.9451441 220610819.0040327,-71808476.6443973 227017297.97897017,-60935204.49060175 232179521.84865758,-49435893.61647941 235987850.21215168,-37440011.515329175 238343391.42512745,-25092808.125678487 239159993.90558124,-12554596.678583726 238366213.67414758,199.99999970808582" stroke="white" stroke-width="1.5" /></svg>