<?xml version="1.0" encoding="utf-8" ?>
<svg baseProfile="full" height="400" version="1.1" width="400" xmlns="http://www.w3.org/2000/svg" xmlns:ev="http://www.w3.org/2001/xml-events" xmlns:xlink="http://www.w3.org/1999/xlink"><defs /><rect fill="black" height="100%" width="100%" x="0" y="0" /><circle cx="200" cy="200" fill="yellow" r="10.00000051858299" stroke="orange" stroke-width="2" /><polyline fill="none" points="200.63489716719715,200.0 200.56772352053906,200.02980289142093 200.49271155034378,200.0518731618154 200.4103921192729,200.06511005019112 200.32142659360957,200.0684388043086 200.22660748938122,200.06082545829796 200.12685753459633,200.04129208159995 200.023227053323,200.0089323407333 199.9168895919061,199.96292720087106 199.8091357241533,199.9025605808697 199.70136499075016,199.82723476347923 199.59507594838342,199.7364853522152 199.4918543259302,199.62999555803478 199.3933593084492,199.50760959275743 199.3013079943944,199.36934494232872 199.21745809724644,199.21540329175025 199.1435889893701,199.04617987497298 199.0814812130888,198.8622710274469 199.03289461141085,198.6644797264726 198.99954525823296,198.45381891512676 198.98308139483024,198.23151241940963 198.98505860566414,197.9989932854371 199.00691449161704,197.75789938397776 199.04994312230954,197.5100661533834 199.1152695707769,197.25751637890514 199.2038248530767,197.00244693640144 199.31632161197626,196.7472124613664 199.45323089733415,196.49430593981623 199.61476040577364,196.24633625561214 199.800834548386,196.0060027689509 200.01107671716707,195.77606704267035 200.24479411837504,195.55932187628505 200.5009655337348,195.35855785184597 200.77823235817462,195.17652764031274 201.07489324538372,195.01590836161654 201.38890266979814,194.87926233541123 201.7178736855795,194.76899660207138 202.05908512974466,194.68732163418585 202.4094934778822,194.63620969698016 202.76574951698578,194.61735335114045 203.12421995104106,194.63212462275652 203.48101400139547,194.68153539191152 203.83201500597357,194.7661995731882 204.17291695949913,194.88629767742768 204.49926587155917,195.04154435388583 204.80650575117673,195.23115951494466 205.0900289562042,195.45384364125528 205.34523057404132,195.70775785318594 205.56756642770932,195.99050931434854 205.7526142290428,196.2991425044923 205.8961373295954,196.63013686197584 205.99415045076307,196.97941125024238 206.04298670860058,197.3423356482154 206.03936518687559,197.7137504013985 205.9804582551099,198.08799329890746 205.86395777775408,198.4589346620153 205.68813931727053,198.82002054249702 205.4519233987885,199.16432403469713 205.15493287812788,199.4846046045076 204.79754543931415,199.7733752321635 204.38094024309544,200.0229770548913 203.9071377552286,200.22566108104866 203.3790318031248,200.3736764306639 202.80041294243358,200.45936443951388 202.17598226176935,200.47525784646533 201.5113548143776,200.41418416823117 200.81305194028252,200.26937225352268 200.08848183137115,200.0345609014301 199.34590779479473,199.70410832841353 198.59440378666284,199.2731011762234 197.84379691773577,198.73746167110974 197.10459677495172,198.0940514745126 196.38791155621962,197.34077070871848 195.70535117982283,196.4766505993234 195.06891770266566,195.5019381512927 194.49088356190478,194.4181712683693 193.9836583404934,193.22824273785392 193.55964494689593,191.93645153550116 193.23108629059345,190.54853995940582 193.00990372572707,189.0717151780579 192.90752872289767,187.5146538767548 192.9347294112231,185.887488808566 193.10143380660153,184.20177620107174 193.41655170503498,182.47044313787853 193.88779736906434,180.70771422388844 194.5215152680878,178.92901705458954 195.32251124681898,177.15086624103984 196.29389158769396,175.3907259922039 197.4369125000459,173.66685152300647 198.75084260885706,171.99810983769206 200.23284102656325,170.40378073129492 201.87785357062882,168.90333915438987 203.67852963558184,167.51622039465684 205.62516213934938,166.26156983972183 207.7056528388277,165.15797939553173 209.90550514780614,164.22321293925552 212.20784639117477,163.47392348124706 214.59348119276066,162.92536499266018 217.0409774205938,162.59110211946927 219.52678580382994,162.48272124542515 222.02539399139079,162.60954658136558 224.50951544558788,162.97836514182507 226.95031315707752,163.59316461766508 229.31765773349343,164.4548882612448 231.58041895660924,165.56121096444653 233.70678942600935,166.90634072592948 235.66463841563325,168.48084966890264 237.4218935683273,170.27153868149938 238.94694754828862,172.26133960598523 240.20908626802702,174.42925869855836 241.17893481160212,176.7503648170216 241.8289166961315,179.19582546839456 242.13372165588822,181.73299346256377 242.07077670489258,184.32554647207638 241.62071484203608,186.93368129369117 240.7678354147819,189.51436404667336 239.50054986063458,192.0216369292629 237.81180630697463,194.4069814923567 235.6994863363914,196.61973768318367 233.16676712282765,198.6075771674724 230.2224421197501,200.31702866302115 226.88119354067592,201.6940522182347 223.16381001956282,202.68465855444057 219.09734307787036,203.23556876974544 214.7151963597201,203.29490888463005 210.05714202874245,202.81293290581382 205.1692592510553,201.74276730607392 200.1037903183774,200.04116907503192 194.91891069232605,197.66928880108318 189.678410072955,194.59342960948794 184.451282507702,190.7857922180661 179.31122455587015,186.22519589174632 174.3360416018911,180.89776469197045 169.6069635597958,174.7975681377961 165.20787242201743,167.92720523305346 161.22444536693493,160.29832077793512 157.7432184391136,151.93204298283757 154.8505771404341,142.8593316449767 152.63168160437922,133.1212265408341 151.16933535374733,122.76898623500693 150.54280794704613,111.86410821210183 150.8266230830206,100.47822210476821 152.08932493772218,88.69284881776716 154.3922366352788,76.59901953308561 157.78822578281566,64.29674992038937 162.3204929124852,51.89436636423315 168.02139945010305,39.5076826457902 174.91135245170165,27.25902727156111 182.99776379829805,15.276123511276893 192.27410179817198,3.690826176537257 202.71905319901444,-7.3622787772672496 214.29581344498544,-17.747403630523536 226.9515226133388,-27.329206913042412 240.61686382118768,-35.974547536814896 255.20583999691104,-43.55433037590632 270.6157437568937,-49.94542650262477 286.7273337138372,-55.03264923720275 303.4052288679424,-58.71076521339825 320.49853080020716,-60.88651783540098 337.8416812047376,-61.48063883358378 355.2555598747262,-60.429822149331244 372.54882560865644,-57.68863312356325 389.51949964718835,-53.231324960130365 405.95678820865055,-47.053533713356416 421.643137487471,-39.1738226364657 436.3565111443113,-29.635046650349693 449.87287688175775,-18.50550797348427 461.9688852012642,-5.879874614320812 472.4247199149078,8.12016551561598 481.02709648163517,23.345540643085428 487.5723807968371,39.61974521849851 491.86979773334684,56.73912562570993 493.7446955600881,74.473520364303 493.04182940174286,92.5672704025248 489.6286241998023,110.74061184277971 483.3983752432251,128.6914590960281 474.2733423062784,146.09758244955344 462.20769181141145,162.61917926347735 447.1902402738983,177.9018330803559 429.2469516276527,191.57984972055968 408.44314091998035,203.27995401126964 384.8853373350196,212.62532521207334 358.72276059446745,219.23994351401197 330.1483665176497,222.75321426550994 299.39941992268916,222.804830886589 266.75755613122936,219.0498318450481 232.54829610815113,211.16380166136875 197.13998472421477,198.84816076235674 160.9421267641594,181.8354841984 124.40310109704129,159.89478485836236 88.00723985160796,132.83669294246457 52.27126645960902,100.5184601691484 17.74009399670507,62.84871457727317 -15.018006693628877,19.7918899173267 -45.416851130394235,-28.62774742198829 -72.85837079498708,-82.32255116451609 -96.73919233670324,-141.1385039968273 -116.45772127830065,-204.85285714573587 -131.42167581670407,-273.1724724685426 -141.05600706845655,-345.73293491564004 -144.81113303656872,-422.0984981924122 -142.17140479942321,-501.762920296209 -132.6637150724169,-584.1512383361978 -115.86615150146287,-668.6225236746377 -91.41658994867237,-754.473648988142 -59.02111675920344,-840.9440883822035 -18.462163687794913,-927.221760263563 30.39376505562717,-1012.4499103602418 87.58889718413826,-1095.7350191722983 153.06765334519665,-1176.1557043475082 226.67089019520566,-1252.772574131131 308.1310496423366,-1324.6389732789596 397.0683354052518,-1390.8125478036166 492.9880333728409,-1450.3675398153298 595.2790858263007,-1502.4077087019166 703.2140213617479,-1546.0797601614993 815.9503323110094,-1580.5871503581136 932.5333796031302,-1605.2041189243548 1051.900891365915,-1619.2897919022348 1172.8891061849977,-1622.3021842114417 1294.2405948926805,-1613.8119210821947 1414.6137761506723,-1593.5154893046683 1532.5941210467452,-1561.247822340149 1646.7070205982895,-1516.9940185144962 1755.4322676253503,-1460.8999888650285 1857.220081126978,-1393.2818309161537 1950.5085772977222,-1314.633726878283 2033.742566909632,-1225.6341696397585 2105.39353423522,-1127.1503275697569 2163.980628294309,-1020.2403696622152 2208.0924732870817,-906.1535859876101 2236.4095819555478,-786.3281548097738 2247.7271336378008,-662.3864270627764 2240.9778582934546,-536.1276211250629 2215.2547491394207,-409.51784589231534 2169.833310098338,-284.6773979142697 2104.193030379385,-163.86530865922737 2018.0377675267055,-49.46115059621562 1911.3147125151145,56.05585451129102 1784.231606258772,150.13034521704319 1637.2718765156487,230.15683008616787 1471.2073678806985,293.5080406327718 1287.1083455908833,337.5654309833757 1086.3504664058764,359.7515878561958 870.6184270248757,357.5642748224335 641.9060224506718,328.61179597112516 402.5123734622736,270.64932656918666 155.03411389559312,181.61582264796706 -97.64663531367421,59.67108822570722 -352.3786375348583,-96.76745133161876 -605.7623442886224,-288.9887479228707 -854.1751692013588,-517.9534018593492 -1093.8012166346336,-784.2607238366279 -1320.6653930915556,-1088.1181184875954 -1530.6717701498442,-1429.3133269754176 -1719.6460059758083,-1807.190066550228 -1883.3815690458864,-2220.6275987990125 -2017.6894432156469,-2668.0247450953407 -2118.450928461277,-3147.288847197868 -2181.673087260161,-3655.8301428186437 -2203.5463235064226,-4190.5619901272385 -2180.5035199447216,-4747.907331502715 -2109.280102253947,-5323.81173541365 -1986.9743440461584,-5913.763296215753 -1811.1071781021915,-6512.8196051288205 -1579.680736082296,-7115.641932020201 -1291.234802656919,-7716.536677319711 -944.900341404594,-8309.504066974447 -540.4492297931344,-8888.293971486506 -78.33932991892829,-9446.468633539627 440.2459788110824,-9977.471988400892 1013.3646685233766,-10474.705158176184 1638.2901749357466,-10931.607596197415 2311.4935606074037,-11341.743252517485 3028.6344913416024,-11698.891026962216 3784.5617291228436,-11997.138673787684 4573.323773719374,-12230.979223134373 5388.190201196349,-12395.408890624401 6221.684151259899,-12486.025359113915 7065.626306957234,-12499.125237318587 7911.19059032847,-12431.799430294717 8748.971666864092,-12282.02509809318 9569.064210970158,-12048.752832779908 10361.153735166095,-11731.987651845806 11114.618628706985,-11332.86238914838 11818.642888181439,-10853.702064171111 12462.338855006072,-10298.077827663232 13034.879104405103,-9670.849117601496 13525.636459366076,-8978.192714695411 13924.33093327617,-8227.617461947337 14221.18223867028,-7427.963508488525 14407.066339064373,-6589.385054211314 14473.674368590835,-5723.315708544681 14413.672102542656,-4842.415733745047 14220.858033441362,-3960.5006196961986 13890.317994349683,-3092.450632547804 13418.574176302922,-2254.1011923943897 12803.726312319284,-1462.1141641316403 12045.582748766104,-733.8303888533699 11145.779098070503,-87.10403860150728 10107.88216686865,459.8803574061848 8937.476882490142,888.8070944101678 7642.23399973475,1181.4432840905338 6231.956460510422,1319.8659813663546 4718.602402050825,1286.7004946856803 3116.2829657633893,1065.367658479163 1441.2332485540535,640.3375859948806 -288.24503838669676,-2.612826299219165 -2051.870382417867,-876.1416011953245 -3827.4986452299204,-1991.0857567752605 -5591.271174794031,-3356.2111054338707 -7317.794080143201,-4977.971278696647 -8980.348523065019,-6860.279600691295 -10551.131485057764,-9004.297516170736 -12001.526052405381,-11408.243321490057 -13302.399830805478,-14067.22494566782 -14424.429657939723,-16973.100480697623 -15338.450332440683,-20114.370063089085 -16015.824626017911,-23476.1025601197 -16428.83139756148,-27039.90031288218 -16551.068189666923,-30783.9049328799 -16357.864265314442,-34682.846839217666 -15826.699641695917,-38708.14085956876 -14937.625305873835,-42828.02980097484 -13673.679459608906,-47007.777427768364 -12021.29434484924,-51209.911765876815 -9970.687953492921,-55394.51908861911 -7516.2347314115505,-59519.58833276261 -4656.809253399706,-63541.40504979452 -1396.096778390941,-67414.99332157845 2257.1354017892554,-71094.60336807165 6288.811826951417,-74534.24185458211 10679.373793191155,-77688.2411748651 15403.660941062059,-80511.86325252523 20430.854781248643,-82961.93267569922 25724.48901460679,-84997.49326827869 31242.53099798741,-86580.48151493556 36937.538113824856,-87676.40960716932 42756.892121547215,-88255.05027401299 48643.113805120214,-88291.11501453535 54534.25938735217,-87764.91687047211 60364.39926310829,-86663.00847670795 66064.17861673143,-84978.78581514163 71561.45844142853,-82713.04788348502 76782.03437913628,-79874.50238403406 81650.42965863469,-76480.20754692152 86090.75723884156,-72555.94033546264 90027.64507584677,-68136.48154456871 93387.21723995097,-63265.80870228223 96098.1224273107,-57997.18822339024 98092.60025518957,-52393.15894547895 99307.57461639438,-46525.40000276425 99685.76231389705,-40474.47696091675 99176.78421798667,-34329.46124443719 97738.26530281648,-28187.41913254569 95336.90914415335,-22152.76797365771 91949.53181255586,-16336.498763917472 87564.03959268668,-10855.265841496584 82180.33461592376,-5830.34615283443 75811.13232485329,-1386.47233512376 68482.67470843038,2349.454285543403 60235.323467974515,5249.762777434999 51124.017707433915,7187.513833422954 41218.58139532253,8038.091276491427 30603.86672704721,7680.870049385874 19379.720629256906,6000.945020848167 7660.76299403826,2890.9031336436856 -4424.033190874233,-1747.3802913445327 -16731.967843300612,-8000.941867570498 -29107.451919380484,-15943.949279245833 -41383.061440334626,-25635.962703821755 -53380.80874124211,-37120.26302951285 -64913.62965584644,-50422.272188993404 -75787.08257830462,-65548.09148199335 -85801.252434433,-82483.18402624731 -94752.84957850994,-101191.2274357128 -102437.49053735338,-121613.16245710391 -108652.14438447208,-143666.4625832309 -113197.72537966118,-167244.64859017835 -115881.80939206699,-192217.07050429046 -116521.44857826324,-218428.97768745915 -114946.05585391018,-245701.89553263833 -111000.32792221091,-273834.3246879334 -104547.17304970187,-302602.77578365133 -95470.60745549675,-331763.1493342492 -83678.58214949671,-361052.4668432336 -69105.70036322462,-390190.9551762399 -51715.78440755245,-418884.4820136377 -31504.249906596575,-446827.33568254655 -8500.244935878765,-473705.3379379862 17231.48832821445,-499199.2733581669 45589.07122906653,-522988.6139890331 76432.3061296833,-544755.5127723068 109581.8926449544,-564189.0341780771 144819.07910266725,-580989.5854002904 181885.78276093904,-594873.506527703 220485.208725169,-605577.7733432328 260282.99331050858,-612864.7619029499 300908.8927974106,-616527.019875475 341959.0331474418,-616391.9858572802 382998.7303121946,-612326.5945933781 423565.8843165746,-604241.703299148 463174.9433745182,-592096.2721684531 501321.4269549094,-575901.2307338845 537486.9890214851,-555722.961080856 571144.9946948916,-531686.3290671002 601766.5754080021,-503977.19571574125 628827.1193356701,-472844.3428787604 651813.1455724767,-438600.7501455458 670229.5023091481,-401624.16382603283 683606.8212281157,-362356.90368727077 691509.1526138362,-321304.8589722473 693541.6983706919,-279035.6320748415 689358.553379613,-236175.7960662999 678670.3595243215,-193407.2410347204 661251.7713995267,-151462.5938639448 636948.6282950882,-111119.70658197373 605684.7236471999,-73195.21967699211 567468.0608705409,-38537.21872240947 522396.48343777517,-8017.015167606203 470662.56735007785,17479.904879052774 412557.6658298909,37063.70675479148 348474.99923832953,49850.73764084634 278911.68793440924,54974.67716295086 204469.63209635695,51598.21074584753 125855.15044467617,38925.11523501111 43877.299352015856,16212.633760895846 -40555.19501350886,-17215.995026421064 -126438.44611767828,-61958.99918769549 -212679.39838810288,-118523.68290937108 -298103.32502780214,-187314.34743090646 -381462.83980296034,-268620.694954211 -461448.41195604805,-362606.8924917981 -536700.3539649564,-469301.47626375186 -605822.2315133583,-588588.2789052929 -667395.6239485497,-720198.5612420597 -719996.1418936716,-863704.5275910118 -762210.5867854985,-1018514.3983322842 -792655.1151801359,-1183869.2057746663 -809994.2489774568,-1358841.4690324839 -812960.5515467795,-1542335.8906998858 -800374.7693895173,-1733092.2025348844 -771166.2197573463,-1929690.269166604 -724393.1868716583,-2130557.538065776 -659263.0733795558,-2333978.9007566986 -575152.0397504441,-2538109.00462107 -471623.8527781034,-2740987.0268109743 -348447.6555097104,-2940553.8919484015 -205614.36506607357,-3134671.883678613 -43351.402219334275,-3321146.5670392825 137864.54249385896,-3497750.9043185953 337296.9967005372,-3662251.4119501207 553941.7301668712,-3812436.1704117698 786521.5841737979,-3946144.463472578 1033484.3587950809,-4061297.7879045014 1293003.989459144,-4155931.9404118503 1562985.2187633081,-4228229.85551378 1841071.9398315982,-4276554.836946468 2124659.353649655,-4299483.796342318 2410910.044913327,-4295840.087010789 2696774.0391923827,-4264725.498104455 2979012.858899339,-4205550.955811808 3254227.5469899653,-4118065.4639685997 3518890.575893225,-4002382.807094011 3769381.5053215004,-3859005.5347780855 4002026.1968553993,-3688845.747980001 4213139.3360970365,-3493242.215504787 4399069.955361181,-3273973.3630195973 4556249.591996513,-3033265.6977026877 4681242.660215986,-2773797.2591753905 4770798.558521499,-2498695.721863484 4821904.9812236,-2211530.8154057045 4831841.851996369,-1916300.7781248007 4798235.250701789,-1617412.6137620765 4719110.662706773,-1319655.983418345 4592944.843436624,-1028170.6326135901 4418715.560784679,-748407.3271457145 4195948.455030504,-486082.3504667646 3924760.240872804,-247125.69897189245 3605897.469776363,-37623.19918333264 3240770.073722394,136247.1385211048 2831478.9242263716,268284.12215731246 2380836.6636493187,352337.2349066701 1892381.0997851184,382384.7509195557 1370380.4997586,352615.4217323577 819830.1755995903,257512.95429062666 246439.8215210736,91942.41460361227 -343388.85815714806,-148762.3909657574 -942594.6015628487,-468711.5804948102 -1543499.3928511033,-871372.9991602661 -2137861.7766774152,-1359488.3105844615 -2716940.723350603,-1934992.5763712735 -3271569.955831519,-2598938.5603557737 -3792242.513612924,-3351427.0182123245 -4269205.186065479,-4191544.2431219807 -4692562.300413036,-5117308.133124343 -5052388.1986087235,-6125624.024621397 -5338847.584666347,-7212251.498447716 -5542322.77123655,-8371783.309314091 -5653546.703301834,-9597637.515787126 -5663740.489799238,-10882063.795992589 -5564754.03285319,-12216164.82384342 -5349208.211265049,-13589933.451934772 -5010636.952158776,-14992306.300690157 -4543627.414439064,-16411234.189518642 -3943956.412188834,-17833769.66552605 -3208721.12748973,-19246171.689861 -2336462.1025030073,-20634027.33248091 -1327276.4620122325,-21982390.104669485 -182919.30189161963,-23275934.326967638 1093108.812146136,-24499124.690489482 2495490.2561117695,-25636399.9243356 4017036.6276610536,-26672369.23365517 5648654.761340847,-27592019.92474972 7379334.225715156,-28380934.38853558 9196157.898727546,-29025514.374947965 11084337.037539577,-29513210.261868 13027272.04928975,-29832752.806394458 15006639.930363303,-29974384.667322487 17002509.074877825,-29930088.80914591 18993481.85961429,-29693810.743347354 20956865.094429277,-29261671.435716826 22868868.086571496,-28632167.612361997 24704827.707037278,-27806356.135222264 26439459.47028948,-26788019.093319397 28047133.248923942,-25583806.271488015 29502171.84617189,-24203351.716412574 30779170.245841585,-22659361.222582605 31853332.956131395,-20967667.709990412 32700826.465720713,-19147251.662271645 33299143.44295295,-17220224.03928991 33627474.9372934,-15211769.3720727 33667086.49225989,-13150047.090119347 33401693.75649969,-11066049.520400075 32817832.890460007,-8993415.432157336 31905220.81601265,-6968198.479553738 30657100.151171867,-5028590.412223307 29070563.51724778,-3214599.478117203 27146851.806707446,-1567685.029227703 24891620.96164312,-130349.95366796778 22315171.839604065,1054306.808658191 19432637.839680582,1943074.761426654 16264125.130573668,2493149.797520192 12834800.566713577,2662681.3791032764 9174922.700319413,2411344.08987074 5319811.697811829,1700928.0679094573 1309754.4484820466,495942.2244800134 -2810158.288884844,-1235776.4136964632 -6990265.221335802,-3522454.4239393584 -11176640.150685916,-6387782.422717626 -15311470.929500645,-9850332.274892138 -19333511.9343594,-13922999.467199828 -23178609.344569527,-18612479.285509016 -26780297.560885623,-23918785.594054263 -30070464.102002997,-29834821.074722428 -32980079.28616333,-36346007.73815873 -35439985.951696515,-43429986.359456874 -37381743.4052832,-51056393.21391853 -38738518.722637385,-59186722.08834744 -39446017.476474315,-67774279.01733007 -39443444.945070244,-76764236.54007071 -38674487.876024276,-86093793.49114147 -37088305.95905972,-95692445.42913714 -34640521.31417615,-105482369.7734725 -31294193.542638827,-115378928.56596541 -27020767.233543824,-125291290.50672393 -21800978.28315142,-135123172.54139093 -15625704.982467158,-144773699.8089691 -8496749.57464519,-154138381.20817176 -427535.89074088354,-163110196.21920127 8556291.247917363,-171580786.9425605 18416378.909353137,-179441747.60413355 29101304.805686757,-186586002.045208 40546354.86103482,-192909257.98758104 52673451.6706905,-198311525.1591173 65391244.861987285,-202698682.70685378 78595373.09101547,-205984079.73674595 92168905.92662013,-208090151.32587528 105982972.18838535,-208950030.97931477 119897579.42609477,-208509139.2749805 133762627.16478129,-206726727.38067052 147419114.30526787,-203577353.26263204 160700538.68144298,-199052267.7582333 173434484.25172612,-193160687.2792087 185444388.76566797,-185930929.76776898 196551482.02259636,-177411390.6648812 206576882.0557293,-167671336.0854064 215343833.76282942,-156801491.143063 222680071.69640005,-144914402.441073 228420285.9577326,-132144555.15014802 232408667.44702205,-118648226.83910622 234501506.144742,-104603062.30569756 234569813.6774749,-90207356.07306549 232501939.1946647,-75679031.96292052 228206145.5924598,-61254312.21795181 221613111.40706345,-47186072.006089464 212678322.3031816,-33741878.77639244 201384315.04130715,-21201719.82367381 187742736.15800914,-9855425.525066368 171796177.36986384,199.9999997896106" stroke="white" stroke-width="1.5" /></svg>