<?xml version="1.0" encoding="utf-8" ?>
<svg baseProfile="full" height="400" version="1.1" width="400" xmlns="http://www.w3.org/2000/svg" xmlns:ev="http://www.w3.org/2001/xml-events" xmlns:xlink="http://www.w3.org/1999/xlink"><defs /><rect fill="black" height="100%" width="100%" x="0" y="0" /><circle cx="200" cy="200" fill="yellow" r="10.000000011037525" stroke="orange" stroke-width="2" /><polyline fill="none" points="201.00353634533812,200.0 200.9749677189004,200.05118135151014 200.93824201205544,200.09877905171777 200.89346366843898,200.14175092932848 200.84085069223508,200.17903564024496 200.78073975240162,200.20956435897568 200.7135901594596,200.23227333864796 200.63998659009027,200.24611724130202 200.560640442015,200.2500831239681 200.47638971080804,200.24320495019225 200.38819729143168,200.22457848140238 200.29714762037742,200.19337638801954 200.20444158931534,200.14886340675352 200.11138967803768,200.0904113583139 200.0194032731474,200.01751382905144 199.92998415927445,199.92980031105645 199.84471219146238,199.82704958820463 199.7652311805822,199.70920215077805 199.69323304800645,199.5763714188034 199.63044033108378,199.42885355433367 199.5785871469429,199.26713564572043 199.53939874854785,199.09190205263536 199.51456983342004,198.9040387093183 199.50574179171667,198.70463519535335 199.51447910606538,198.4949843982599 199.54224514034703,198.27657961036306 199.59037757811933,198.051108923759 199.66006379320677,197.8204468116686 199.7523164547631,197.58664281197716 199.8679496864578,197.35190725915155 200.00755611396832,197.11859404382653 200.17148514630819,196.88918041492258 200.35982284432873,196.66624387692877 200.57237373367067,196.45243627462725 200.8086449191978,196.250455198687 201.06783285324457,196.06301288780054 201.34881310061166,195.8928028459263 201.65013342895026,195.74246443624315 201.970010533838,195.6145457560919 202.30633068336923,195.51146513892238 202.65665453741906,195.4354716694956 203.018226361919,195.38860513671278 203.3879878185849,195.37265588383633 203.7625964657276,195.38912504791298 204.1384490562773,195.43918570828026 204.51170966526607,195.52364548752095 204.87834262112025,195.6429111665251 205.23415015366027,195.79695588785273 205.5748146072234,195.98528952781757 205.8959450004079,196.20693281713565 206.19312764525932,196.46039578215357 206.46198046901534,196.7436610631993 206.6982106115919,197.0541726431671 206.89767480268944,197.3888304878131 207.0564419546232,197.74399155924516 207.17085734168393,198.11547761567707 207.23760767499354,198.4985901537207 207.2537863244347,198.88813278445554 207.2169578873142,199.2784412615019 207.12522125798358,199.66342129870372 206.97727031468298,200.03659422729277 206.77245131036932,200.3911504481771 206.51081603417185,200.72001053500256 206.19316980026582,201.01589373874307 205.82111332217673,201.2713935357537 205.39707754355263,201.4790597495639 204.92435052189734,201.63148666339583 204.4070955001586,201.72140642676186 203.8503593528022,201.74178694692097 203.26007065832755,201.68593334592205 202.64302672918367,201.5475919579763 202.00686902266875,201.32105574156705 201.3600464623933,201.00126988765396 200.7117663188394,200.58393632120104 200.07193242884134,200.06561571970335 199.45107067664108,199.44382561102324 198.8602418125296,198.71713306525777 198.31094184777152,197.88524046305696 197.81499043512565,196.9490628072231 197.38440782122626,195.91079504685982 197.03128113860296,194.77396790497943 196.76762098923936,193.54349074233932 196.60520945618282,192.22568005319252 196.5554408625618,190.82827227323372 196.6291567760447,189.36041968669818 196.83647692878588,187.8326683484799 197.18662788566556,186.25691708816203 197.68777144449243,184.64635683559763 198.3468348881322,183.01538970145174 199.16934532757588,181.37952745990984 200.1592704741373,179.7552693132566 201.3188682557018,178.15995906759264 202.6485477437814,176.61162211362327 204.14674388275222,175.1287828839404 205.80980850793227,173.7302637459349 207.63192010318951,172.43496658452602 209.6050146799131,171.26163862809798 211.71874005608353,170.22862437094753 213.96043567583158,169.35360574248656 216.3151399356421,168.653332963517 218.76562677300063,168.14334880903291 221.29247302699554,167.83770926100166 223.87415779883344,167.74870377913373 226.48719472454474,167.88657863842514 229.1062977239853,168.25926697490632 231.7045804117412,168.87212934127987 234.25378894938834,169.72770869780646 236.72456768795297,170.82550384692445 239.08675649807813,172.16176535890344 241.30971821755307,173.7293180268945 243.3626941662231,175.51741382995408 245.21518519204216,177.51161926932946 246.83735522476644,179.69374077432195 248.2004538315084,182.04179164776522 249.27725379741327,184.53000373654393 250.04249930169695,187.12888666927023 250.4733598310367,189.80533710156564 250.5498845758193,192.52279995045782 250.25545169708622,195.24148308506403 249.5772065402203,197.91862637368638 248.50648261244618,200.50882537121092 247.03919894182738,202.9644092696556 245.176227302105,205.23587203407038 242.9237227265247,207.2723549118249 240.2934107503271,209.02217774250798 237.30282492083728,210.4334157158916 233.97548830038636,211.45451743510878 230.34103296414318,212.0349593504874 226.4352518649516,212.12593084612297 222.3000779020904,211.6810434965683 217.98348559107262,210.65705727572953 213.53931138659237,209.01461580530014 209.02698945871535,206.7189820871978 204.5112005603164,203.74076558496523 200.06143254718955,200.0566310144042 195.751452115442,195.6499787851269 191.65868839658367,190.5115867131987 187.86353019063057,184.6402024111145 184.44853981166017,178.04307566486526 181.49758775736586,170.73642013787102 179.09491368175173,162.74579390619175 177.32412043445203,154.10638863563094 176.26710921640426,144.86321766480413 176.00296517387463,135.0711938631665 176.60680399436387,124.79508889200302 178.14859126121476,114.10936641036143 180.69194745071383,103.09788283584585 184.2929524976806,91.85345048914458 188.99896479431288,80.47725931604111 194.8474703038126,69.07815488429836 201.86497814671336,57.771771985756516 210.0659795360563,46.67952492461529 219.4519872805796,35.927457427276664 230.01067322688556,25.64495705118071 241.71512095745018,15.96334098149407 254.5232107882154,7.01432216491213 268.37715360607876,-1.0716331831052344 283.2031893437288,-8.167043571862195 298.91146490014694,-14.149230537783922 315.39610507553914,-18.902200048197386 332.5354885981166,-22.31856786277359 350.1927395786974,-24.301507881002806 368.21644274247706,-24.766700814732417 386.4415885638043,-23.644259004253115 404.6907519811863,-20.880601874896513 422.77550571144263,-16.440255438394104 440.4980663329342,-10.307548408248152 457.6531682908044,-2.488176948723094 474.03015781844334,6.98939016122975 489.4152954987548,18.07269407099585 503.5942528394406,30.68428377693286 516.3547848448264,44.72095625746829 527.4895571720845,60.05326444829038 536.7991031041167,76.52531706368899 544.0948822991912,93.95489224549684 549.2024101349693,112.133884587363 551.9644234996264,130.82910224212196 552.2440461441076,149.78342758193924 549.9279142464047,168.71735125831955 544.9292207002007,187.3308855212904 537.1906348746293,205.3058583292226 526.6870532462083,222.30858514395595 513.4281354230743,237.99291039707535 497.4605797075657,252.00360547522655 478.8700925145833,263.9801047538191 457.783006714405,273.5605557634108 434.36750532921076,280.38615406076053 408.83440900641614,284.10572786104774 381.4374883365999,284.38053203748274 352.47326539003353,280.88920578164056 322.28027281678806,273.3328431176366 291.2377434861771,261.44012065341053 259.7637089185647,244.97242251218245 228.3124906638623,223.7288983965785 197.37157527485127,197.5513872767452 167.45787056863207,166.32913634050595 139.11334841532616,130.0032426744508 112.90008727930761,88.57074373260211 89.39473609485596,42.08828206222327 69.18242970605993,-9.324729943007043 52.850194951997594,-65.48351824811914 40.979895436171546,-126.13599909067818 34.14077197960819,-190.96154208872406 32.88164460863763,-259.5705077051533 37.72285055374519,-331.50461683269907 49.14800101259053,-406.23820378537744 67.5956472320018,-483.1803964323685 93.45095366161053,-561.6782586107142 127.03748239581458,-641.0209203407825 168.60919872138652,-720.4447107948257 218.34281219778092,-799.1392975013749 276.3305711923336,-876.2548229894467 342.5736310549669,-950.9100170849692 416.9761170360032,-1022.2012494814251 499.3400025248596,-1089.212473146397 589.360921126485,-1151.025994738852 686.6250274193646,-1206.7339936559652 790.6070158912127,-1255.4506967724299 900.6694004808642,-1296.3251015611008 1016.0631483397266,-1328.5541262820661 1135.9297508563109,-1351.3960524971753 1259.3048026767397,-1364.1841125140331 1385.1231454393105,-1366.3400626969108 1512.2256172823388,-1357.38757311311 1639.3674319664035,-1336.9652549226323 1765.2281927844886,-1304.8391394734558 1888.4235264514919,-1260.914417435185 2007.5183010287699,-1205.2462426820061 2121.0413698355424,-1138.0494042012208 2227.501760436902,-1059.7066702205648 2325.4062044121306,-970.7756121621026 2413.2778799521375,-871.9937220675147 2489.6762156879563,-764.2816458997107 2553.2175808078314,-648.744366682236 2602.5966637891006,-526.6701858343979 2636.6083202769805,-399.5273683077021 2654.1696501191273,-268.95833720428465 2654.3420446529763,-136.77132640029504 2636.35292838575,-4.929425207815598 2599.6169045463084,124.46302285076051 2543.756001959967,249.1766746914242 2468.618711628238,366.87607075536414 2374.297495595685,475.14108716102123 2261.1444484473877,571.4908615952302 2129.7847933689295,653.4100604415038 1981.1279003529362,718.3773166255977 1816.3755240541318,763.8956292150431 1637.0269731406852,787.5244773900785 1444.880941881555,786.9133634878675 1242.033758217118,759.8364629155076 1030.8738307002081,704.2280233567758 814.0721094270147,618.2181224056699 594.5684133025163,500.1683620999994 375.5535175412477,348.70705135820504 160.4469409639268,162.76340359758694 -47.12957787886529,-58.39974262184904 -243.38287380365415,-315.1551866974909 -424.3833194149579,-607.483128886742 -586.1038044790762,-934.9459525628142 -724.4625134335781,-1296.6665426377642 -835.3692224171377,-1691.3106476186176 -914.774774732374,-2117.0737764759474 -958.7233312405922,-2571.673098017506 -963.4069306121467,-3052.3447795825846 -925.2218344415878,-3555.8471634944813 -840.8260748394532,-4078.470133804605 -707.1975681151731,-4616.0509724981985 -521.6921084672797,-5163.996943674105 -282.1005111044535,-5717.314776524594 13.295864164347421,-6270.64714359746 365.67200922353186,-6818.316150300576 775.6094077192442,-7354.37376549724 1243.050257659833,-7872.659032034731 1767.2566207346815,-8366.861800953977 2346.775337829595,-8830.592634854313 2979.409534751542,-9257.458425442694 3662.1975154244633,-9641.143168786257 4391.399801359305,-9975.493240403734 5162.495025727066,-10254.606412340387 5970.185327700587,-10472.923757116509 6808.4118178384515,-10625.323490307977 7670.38059827774,-10707.215715947636 8548.599722652192,-10714.63695838975 9434.927370394256,-10644.343292227133 10320.631389021944,-10493.90081975893 11196.460226937597,-10261.772194816207 12052.725139133778,-9947.397853854634 12879.393400149764,-9551.270591449138 13666.192103961755,-9075.002108916176 14402.721970701432,-8521.380172876214 15078.58041682602,-7894.415046161198 15683.492980407467,-7199.373897418382 16207.452028505153,-6442.801958748958 16640.86151120611,-5632.529283238421 16974.68636902992,-4777.662056565909 17200.60504927091,-3888.5575390775475 17311.16344482055,-2976.7818565840375 17299.928438452167,-2055.0500192477357 17161.639118852643,-1137.1477275441425 16892.353634232644,-237.83472142220927 16489.589567472474,627.2703578319541 15952.455655731894,1441.823395469446 15281.7726394224,2188.9060824571006 14480.181012422507,2851.1943559706137 13552.233459250918,3411.1430513871214 12504.469807221283,3851.185550547344 11345.472393769618,4153.946942979728 10085.899852273822,4302.46894919559 8738.497454559316,4280.444591435895 7318.082315365597,4072.460340917401 5841.501963398515,3664.2432253706907 4327.565014909016,3042.910150279731 2796.9429482737446,2197.216475582642 1272.0422706361553,1117.8007005644379 -223.15331132919277,-202.5780528686534 -1663.2707571326328,-1768.813200602002 -3021.7652641613167,-3583.2380407823803 -4271.166822986076,-5645.430883562159 -5383.35462480153,-7952.041587463926 -6329.857767065832,-10496.643100143325 -7082.18027198639,-13269.611531430717 -7612.147996875051,-16258.038168071573 -7892.274580708594,-19445.676670783374 -7896.143142948579,-22812.92847383238 -7598.800034554126,-26336.869134590906 -6977.15654315411,-29991.318055353644 -6010.394080698173,-33746.95362260599 -4680.368038854328,-37571.47538115862 -2972.005191283088,-41429.81438402118 -873.6892589736431,-45284.39233624698 1622.370958759916,-49095.42958565094 4519.79664329032,-52821.301409459156 7817.723058641914,-56418.9414085355 11510.518580332844,-59844.29015549986 15587.5444948964,-63052.786556254454 20032.961298374194,-65999.89868323317 24825.587027582187,-68641.69013087505 29938.812881598216,-70935.41723773949 35340.581030664835,-72840.15182423704 40993.4290644074,-74317.42341951228 46854.60500077625,-75331.87430531738 52876.25616232821,-75851.92009878905 59005.69452937247,-75850.40804009407 65185.7404032729,-75305.26465518845 71355.1453621833,-74200.12403865706 77449.09457127715,-72524.92765677319 83399.78752692156,-70276.48631620698 89137.09527729003,-67458.9947884347 94589.29107987483,-64084.48953244568 99683.85033967422,-60173.2400266136 104348.31453207914,-55754.06441151303 108511.212664301,-50864.56046485428 112103.03268216495,-45551.24338220631 115057.23409973616,-39869.5824260713 117311.29203278628,-33883.929232978335 118807.76176936482,-27667.331433779415 119495.35202804743,-21301.22624476368 119329.99415333392,-14875.009823278462 118275.89369488241,-8485.479446031875 116306.55012931896,-2236.1469540680096 113405.72992653759,3763.57659358975 109568.37775240744,9399.323516548886 104801.4503515501,14552.836131797645 99124.6575812829,19103.15240658649 92571.09518360939,22927.90384169487 85187.75419743908,25904.71692860122 77035.8924374898,27912.707654909613 68191.25420704352,28834.056668948724 58744.12537415577,28555.650880306617 48799.212127957166,26970.775492980298 38475.33314360204,23980.838767567595 27904.91651870515,19497.110215003493 17233.294695337587,13442.45146369744 6617.792641323136,5753.017741658267 -3773.3931789784747,-3620.09319778901 -13762.525075878353,-14709.268777391451 -23163.861076958605,-27528.910655283384 -31785.39322606216,-42074.0902697699 -39430.77906153214,-58319.356107855965 -45901.45514441493,-76217.71774001564 -50998.918495894926,-95699.83114333625 -54527.15876593471,-116673.40897488495 -56295.22092806455,-139022.87824499753 -56119.875316783684,-162609.30626757175 -53828.3689344427,-187270.61382685756 -49261.229195656226,-212822.09219730584 -42275.08869233469,-239057.2379889667 -32745.49719511105,-265748.91677465057 -20569.685001310703,-292650.86310052895 -5669.239939386299,-319499.5208081517 12007.341112243783,-346016.223627283 32482.266396359864,-371909.71176515985 55746.26997591766,-396878.9757536744 81756.67996650042,-420616.4141616448 110435.77497694328,-442811.28697996086 141669.46857375794,-463153.44159298664 175306.36017312724,-481337.28331463475 211157.18878013245,-497065.95755072 248994.723424894,-510055.70581296476 288554.1209821625,-520040.3531198452 329533.7783042224,-526775.8798435326 371596.7012537779,-530045.0268705549 414372.4083084797,-529661.8791075698 457459.3809448069,-525476.368954426 500428.0670273504,-517378.6384555039 542824.4369699188,-505303.1964966529 584174.0855454953,-489232.80570617237 623986.8649601806,-469202.03270792466 661762.0272368535,-445300.3951221713 696993.8461512186,-417675.0392690224 729177.6810075656,-386532.8839479203 757816.436522584,-352142.1679841575 782427.3650986176,-314833.34248154506 802549.1499142518,-274999.25292087474 817749.1996466963,-233094.5614082742 827631.0783779167,-189634.36550628647 831841.9874387742,-145191.97716187363 830080.2097281028,-100395.83325519638 822102.4215230624,-55925.51819356319 807730.7720885726,-12506.888715291845 786859.627610015,29093.698416556683 759461.8732238443,68076.04393939846 725594.6653087208,103613.62512979668 685404.5258213985,134861.94033919563 639131.671404352,160967.63032278046 587113.4723327237,181078.31472592213 529786.9401710561,194353.06906151914 467690.1483261531,199973.4545362969 401462.4965465679,197155.00032994288 331843.7388496399,185159.02557127574 259671.70435430593,163304.67647066325 185878.65204193824,130981.04304271282 111486.21351889567,87659.20977588736 37598.89235143448,32904.08566497927 -34603.895597171104,-33614.14859432624 -103877.23928212047,-112109.14455883777 -168921.58725735836,-202668.21387413226 -228395.0011142018,-305243.055301303 -280926.7485511214,-419641.55680614116 -325132.1564198218,-545520.8469972769 -359628.6230741882,-682381.7663403038 -383052.6681744907,-829564.9223370996 -394077.8770223878,-986248.4841616976 -391433.5757914975,-1151447.8610296294 -373924.053955781,-1324017.394817693 -340448.1310966366,-1502654.1811461682 -290018.8473903899,-1685904.1143180856 -221783.04074639434,-1872170.2302461583 -135040.55908898925,-2059723.3978879072 -29262.843958448248,-2246715.3838900663 95889.38825539952,-2431194.2872878774 240549.64825081435,-2611122.3114233315 404630.64382844267,-2784395.808985845 587811.003719842,-2948867.5035226056 789524.0383018296,-3102370.7572318967 1008948.8139020659,-3242745.7206926723 1245003.807167625,-3367867.1657811473 1496343.3917342129,-3475673.7687913976 1761357.3911090642,-3564198.577149207 2038173.9092191495,-3631600.3605457796 2324665.623480615,-3676195.5162969925 2618459.694569262,-3696490.169743328 2916951.4124236405,-3691212.0840424937 3217321.659557403,-3659341.9702698407 3516558.230718692,-3600143.768824298 3811481.002595118,-3513193.457224278 4098770.8989661667,-3398405.9279344967 4375002.545853106,-3256059.473332501 4636680.458271497,-3086817.413713478 4880278.545671878,-2891746.408715232 5102282.667632258,-2672331.0030470095 5299235.915465848,-2430483.9741993523 5467786.239799318,-2168552.0731095197 5604735.9895712,-1889316.7787039191 5707092.875044285,-1595989.7239084833 5772121.817094614,-1292202.494104216 5797397.098027559,-981990.5490179148 5780854.186286319,-669771.0754996672 5720840.569470007,-360314.6412777386 5616164.8978692815,-58710.58823409519 5466143.715043335,229673.8224546 5270645.033558647,499240.4223723768 5030128.0036048135,744213.1314510991 4745677.920460042,958696.6773165822 4419035.824301314,1136740.6899759257 4052621.9631686765,1272408.733179387 3649552.4174394063,1359851.7429524206 3213648.2222893382,1393385.2534576256 2749436.3735494004,1367569.7016697782 2262142.1622200245,1277293.016543875 1757672.353672481,1117854.6166862098 1242588.8090944812,885049.8642947011 724072.238733973,575253.9536287053 209875.87851704544,185504.15081642062 -291731.00693456613,-286420.75028640835 -772029.771738952,-841924.9329349186 -1221929.0356138183,-1481525.2293808542 -1632051.0445628697,-2204787.182734769 -1992827.3197600916,-3010268.7242116444 -2294603.02488663,-3895472.6785683217 -2527749.3354916414,-4856809.28201301 -2682782.9463516744,-5889569.851697722 -2750491.7060675365,-6987912.6835425515 -2722065.224145604,-8144862.175205941 -2589229.1565386793,-9352322.073332636 -2344381.7431169637,-10601103.628800469 -1980731.046904516,-11880969.310800336 -1492431.2322831957,-13180692.580703348 -874716.1198718802,-14488134.060520755 -124028.17155174434,-15790334.249324327 761859.0078019656,-17073622.745498475 1783726.6129117426,-18323743.72463564 2940807.012428687,-19525997.20400398 4230692.545849157,-20665395.396815192 5649258.712761498,-21726833.22523906 7190603.677150483,-22695271.82272598 8847005.935404927,-23555933.616396762 10608901.894636827,-24294507.34193592 12464884.977323245,-24897361.10963441 14401727.708839003,-25351761.41419198 16404428.056209669,-25646095.76593363 18456281.06979405,-25770096.420638025 20538976.6353961,-25715062.502680257 22632723.87370212,-25474077.655136917 24716402.42853294,-25042220.214317903 26767740.567212455,-24416762.798246305 28763519.67781197,-23597358.122134928 30679804.39198621,-22586207.81196211 32492197.19182304,-21388210.98267493 34176115.97824669,-20011089.382890213 35707092.691062175,-18465485.985470537 37061090.68109617,-16765034.02487594 38214838.14776897,-14926393.64916908 39146174.57582053,-12969253.567955177 39834406.73801939,-10916295.337813966 40260670.48193939,-8793118.233839242 40408294.19383904,-6628123.009051082 40263159.53695838,-4452353.241381766 39814054.80079611,-2299293.408707957 39053015.97774305,-204623.31339598531 37975650.50926593,1794071.0042481346 36581438.5209235,3657629.173343442 34874006.29880659,5345689.951127299 32861366.75412678,6817104.361276389 30556121.68177507,8030386.02088107 27975620.74636108,8944195.535328982 25142072.32851189,9517855.207216725 22082601.637392063,9711889.67655679 18829251.844042327,9488587.493089428 15418924.41494571,8812578.025944637 11893255.32603329,7651417.550035831 8298424.412994435,5976177.821433126 4684895.762119751,3762029.97471122 1107087.7637652887,988816.1530622935 -2377027.766369172,-2358399.0741160684 -5706397.149997458,-6288805.732550332 -8817425.94854536,-10805362.327332422 -11644587.518343871,-15904355.120121764 -14121095.952763515,-21575011.336411696 -16179639.338564994,-27799174.74130046 -17753168.23019505,-34551051.811976485 -18775733.21703926,-41797036.40846767 -19183364.43721088,-49495620.39738668 -18914984.890497975,-57597397.113936916 -17913348.43643529,-66045163.85420025 -16125992.445431614,-74774128.77303448 -13506194.216150535,-83712226.62467615 -10013919.495776279,-92780546.72687884 -5616750.756299965,-101893875.36037979 -290782.3042666103,-110961353.54065192 5978531.152088161,-119887249.72704954 13195586.171885712,-128571845.57614677 21353916.348846108,-136912431.31368375 30435566.046025537,-144804405.70713088 40410565.802609384,-152142473.98429272 51236522.7710955,-158821935.37997842 62858339.00759729,-164740050.32145768 75208069.70706517,-169797475.60448962 88204932.54490429,-173899754.2865913 101755478.15502858,-176958845.45541015 115753930.44242029,-178894677.5408613 130082703.89889616,-179636707.4539289 144613103.36984998,-179125466.57692805 159206209.81578055,-177314073.52370507 173713953.53690198,-174169692.65772864 187980374.09636098,-169674916.62458992 201843063.804829,-163829050.6455451 215134789.13660157,-156649276.05156416 227685281.85786775,-148171670.53251514 239323188.98714903,-138452062.85117674 249878168.004472,-127566700.34213728 259183111.01033872,-115612708.39392889 267076478.84100157,-102708322.3086968 273404723.5078228,-88992873.45368487 278024774.7822501,-74626513.46566747 280806564.3319144,-59789662.44203301 281635558.56646645,-44682169.5453751 280415269.31319344,-29522177.25258905 277069709.651602,-14544683.580574019 271545760.7317396,199.99999966745258" stroke="white" stroke-width="1.5" /></svg>