<?xml version="1.0" encoding="utf-8" ?>
<svg baseProfile="full" height="400" version="1.1" width="400" xmlns="http://www.w3.org/2000/svg" xmlns:ev="http://www.w3.org/2001/xml-events" xmlns:xlink="http://www.w3.org/1999/xlink"><defs /><rect fill="black" height="100%" width="100%" x="0" y="0" /><circle cx="200" cy="200" fill="yellow" r="20" stroke="orange" stroke-width="2" /><polyline fill="none" points="198.33731606520416,200.0 198.26401244541586,199.90886858351718 198.19764467797594,199.81024624001012 198.13918169142258,199.704775097332 198.08954838755494,199.59322275553828 198.04961083793359,199.47648105115144 198.0201612092841,199.35556319014748 198.00190258680058,199.23159917597656 197.995433876924,199.10582947520214 198.0012349823287,198.97959688141827 198.01965245135915,198.8543365578815 198.05088581178984,198.73156426063588 198.0949748043076,198.61286276666206 198.1517877343377,198.49986655554915 198.221011161547,198.39424481816033 198.30214114439303,198.29768289149186 198.39447625228263,198.21186224514406 198.49711255013617,198.1384391712373 198.60894074931392,198.07902235589924 198.72864570488323,198.0351495362899 198.85470842205325,198.0082634721631 198.98541071427357,197.99968748482212 199.11884263203123,198.01060083864056 199.25291275486367,198.0420142607014 199.38536140966133,198.0947459121794 199.51377684613246,198.16939814047151 199.63561436556003,198.26633535339678 199.7482183619583,198.38566336568292 199.84884719574262,198.5272105730904 199.93470077941376,198.69051131058293 200.00295071292354,198.87479174764619 200.0507727637711,199.07895866593705 200.0753814439556,199.3015914516997 200.07406639319655,199.5409376176503 200.04423023587046,199.7949121461946 199.98342753847618,200.06110091784356 199.88940445572504,200.33676845553572 199.76013861716564,200.61887017732792 199.5938787732161,200.90406930671116 199.38918369021246,201.18875854185444 199.14495975920448,201.46908653265248 198.8604967633455,201.74098915790617 198.53550123441144,202.00022553472633 198.17012682079596,202.2424186288221 197.76500108777978,202.46310026829264 197.32124817641997,202.65776029552796 196.84050676046306,202.82189952256053 196.32494276158837,202.95108608546667 195.77725631230484,203.04101472403502 195.20068249313476,203.08756844478324 194.5989854164156,203.0868819594473 193.97644528312787,203.03540622825327 193.33783810150038,202.92997337860442 192.68840782653547,202.76786121628277 192.0338307576954,202.54685649888273 191.38017211734456,202.26531610096995 190.7338348245724,201.9222251683668 190.10150057703268,201.51725133595534 189.49006345660666,201.05079407034867 188.90655638209236,200.5240281965469 188.35807084268723,199.93894067701342 187.8516704586032,199.29835973313757 187.39429902846538,198.60597543334654 186.99268383583848,197.8663509196121 186.65323509785537,197.0849235050683 186.38194254597423,196.26799495005218 186.18427023079425,195.422710312089 186.0650507380026,194.5570248669811 186.02838008926767,193.67965871285654 186.07751467859939,192.8000387962446 186.21477165973323,191.92822823821652 186.44143425187593,191.0748429884305 186.75766346814103,190.25095599440206 187.16241779175408,189.4679892411566 187.65338232827125,188.73759419107645 188.22690894641707,188.0715213335163 188.87796888463967,187.48147973673545 189.60011924421784,186.97898767881742 190.38548471204123,186.57521561730894 191.22475575655642,186.2808229369582 192.107204418593,186.1057900887055 193.02071867489514,186.059247898422 193.9518561864847,186.1493059781822 194.88591805708035,186.38288231343435 195.80704301959364,186.76553622363167 196.6983222424367,187.30130699906596 197.54193470354377,187.99256060021727 198.31930282048987,188.83984686541888 199.01126775205833,189.84176970567492 199.5982835025606,190.99487276988188 200.06062866793957,192.29354303752015 200.3786343652765,193.72993473737486 200.53292658812924,195.29391589857886 200.50468093275558,196.97303971313298 200.2758873485432,198.7525427262933 199.82962228388323,200.6153716724639 199.15032533044266,202.54224053955446 198.2240772185729,204.51171917467448 197.0388757887637,206.50035443951936 195.58490636294002,208.48282458635055 193.8548027693036,210.4321271570664 191.84389513952752,212.3198003110157 189.55044050145898,214.11617706495517 186.97583213789244,215.79067148444244 184.12478367597623,217.3120954040545 181.00548391560898,218.6490037786761 177.62971850155668,219.77006628474132 174.01295469529788,220.6444623041958 170.17438571058145,221.24229594094106 166.1369313425629,221.53502724583973 161.92719194475112,221.49591536852233 157.57535319071584,221.10046891899768 153.11503949773663,220.3268984163566 148.58311448568503,219.15656533269978 144.01942739399183,217.5744219148539 139.46650497930904,215.56943569143556 134.96918906232872,213.13499235518913 130.57422057921826,210.26927055680937 126.32977171548806,206.97558206285845 122.28492845119881,203.2626707226339 118.48912661882788,199.14496376211665 114.9915453606567,194.6427690819393 111.84046266233416,189.78241248442276 109.08257842375771,184.59630909502027 106.76231129749216,179.12296367793027 104.92107626800703,173.40689507508836 103.59655065107657,167.49848062200442 102.82193685048242,161.45371711155354 102.6252308072795,155.33389568519343 103.0285056038843,149.2051889261753 104.04722012980683,143.13814940582242 105.68956306692041,137.20711998517112 107.955842699113,131.4895572921288 110.83793318394683,126.06527096936047 114.31878793327435,121.01558250958037 118.37203062722071,116.42240875071529 122.96163412425271,112.36727638018968 128.04169712313373,108.93027508088804 133.55632787575814,106.18895822565048 139.43964354004532,104.21720127599012 145.61589289784274,103.08402924684599 151.99970914453849,102.85242574474769 158.4964982871794,103.5781371534415 165.00296737071233,105.3084865102748 171.40779529404676,108.08121246986514 177.5924473876811,111.92334947040926 183.43213321357936,116.85016578447295 188.79690522899844,122.86417653298524 193.5528940444594,129.95424895215965 197.56367401959866,138.0948172130896 200.69175089892477,147.24522388923737 202.8001611142384,157.34920473612914 203.75417029521955,168.33453278048268 203.42305645970887,180.11283680520378 201.68196132729597,192.57960815720472 198.41379124200418,205.61440839459766 193.51114733119348,219.0812886292109 186.87826279803892,232.82942951350984 178.4329236742421,246.69400867506363 168.10834797818367,260.4973000273902 155.8549970613867,274.05000679757484 141.64229201206885,287.15282732634023 125.46020734670758,299.59824973676086 107.32071388536707,311.17256845865677 87.2590426984736,321.6581123655357 65.33474235378651,330.835670961857 41.632502401635776,338.48710168569096 16.262717129905468,344.3980980039247 -10.638234890100932,348.36109461512797 -38.908018051936835,350.1782827826173 -68.35869403985009,349.6647056427456 -98.77742080761078,346.65140031822887 -129.9275106778187,340.9885508617931 -161.549858533203,332.54861351057343 -193.36474720488843,321.2293734955771 -225.07403294880044,306.95689077162575 -256.36370936948913,289.6882905588224 -286.90684333573535,269.4143535621754 -316.366871375292,246.16186020443985 -344.4012397837856,219.99564320810873 -370.6653662872577,191.02030343149983 -394.8168956168332,159.38154503193283 -416.5202158497855,125.2670878217462 -435.45119691091804,88.90711711984412 -451.3021072825003,50.57423449544575 -463.7866598141826,10.582876557235863 -472.64513263315644,-30.711826642165278 -477.6495066080081,-72.91577695031731 -478.6085566968429,-115.59823487546043 -475.3728308909865,-158.29475913382703 -467.8394474287451,-200.51076349363115 -455.9566385760386,-241.7256880495221 -439.7279676259683,-281.39777422679 -419.21614492713877,-318.9694245886841 -394.54636877496444,-353.87311997871325 -365.9091179491087,-385.5378577580683 -333.56232460366107,-413.3960659899285 -297.83285915603557,-436.89093947909885 -259.11726280737986,-455.4841347060992 -217.88166838203404,-468.6637520147747 -174.66085630493643,-475.9525250423552 -130.05639973970852,-476.9161294456047 -84.73386116863628,-471.1715156040658 -39.41901197683461,-458.39516330081744 5.1069431404650345,-438.3311505221368 48.013143958467566,-410.7989236078712 88.42584969660388,-375.7006521488188 125.43619344307994,-333.0280493857256 158.10888490655032,-282.86853752938043 185.49181648081725,-225.41063749686668 206.62651334737222,-160.94846413888183 220.55935386148704,-89.88521119824276 226.35347193593032,-12.735515057033183 223.10123872948358,69.87340714988198 209.93720685283427,157.2019412211842 186.05138671837747,248.39966753599754 150.70271178601644,342.5084350745965 103.2325375020607,438.4669787659074 43.07800790302221,535.1171259948483 -30.21488562912873,631.2116213995055 -116.97873691114961,725.4235809039858 -217.41283844034263,816.3575663944335 -331.57216969513127,902.5622517055489 -459.3574562510954,982.5446288204754 -600.5064955286232,1054.7856806003451 -754.5869423601239,1117.75742317695 -920.9907423576424,1169.941197611416 -1098.9303931677778,1209.8470668128673 -1287.4372030384638,1236.0341503123018 -1485.3617026381876,1247.1317066033616 -1691.3763497421658,1241.8607507127258 -1903.9806472437776,1219.055973778426 -2121.5087730126047,1177.6877120325094 -2342.139795489089,1116.8836950467658 -2563.9105217061247,1035.950287748397 -2784.73099482634,934.3929278839747 -3002.4026264877134,811.935450633339 -3214.6389155080064,668.5379852653301 -3419.088669100005,504.41310538132143 -3613.361606023901,320.03991468399647 -3795.05618341854,116.17575458296702 -3961.78945081415,-106.13477148151077 -4111.2286964743325,-345.5537491767021 -4241.1246132138,-600.4471546171166 -4349.345673687165,-868.8855586196173 -4433.9133693619215,-1148.648559943016 -4493.037933512918,-1437.2331423398284 -4525.1541371547855,-1731.8661144905648 -4528.956718418423,-2029.5207517600356 -4503.434981033143,-2326.937714417136 -4447.906076844951,-2620.650268766359 -4362.04647121718,-2907.0137858893063 -4245.92107923434,-3182.2394377941523 -4100.009555343592,-3442.4319531906285 -3925.2292198661216,-3683.6312353869025 -3722.95411308868,-3901.857583539904 -3495.0296817482335,-4093.1601963424628 -3243.782623931709,-4253.66857491285 -2972.0254469396386,-4379.646379928211 -2683.0553286431586,-4467.547237721247 -2380.6469163497445,-4514.071931983706 -2069.0387481455928,-4516.226362762963 -1752.91303996855,-4471.379603492699 -1437.3686470507678,-4377.321340767475 -1127.8870805169227,-4232.317941355548 -830.291538387007,-4035.166357434264 -550.6989944605793,-3785.2450550950994 -295.46547788808437,-3482.561133628093 -71.12476989725678,-3127.7927947420667 115.6791587379618,-2722.32632242394 258.2655462978444,-2268.286746233074 349.99555058954604,-1768.561384020439 384.3556458399786,-1226.8154948120007 355.04498029890857,-647.4993192434175 256.06587089538425,-35.84584369523762 81.81651702787535,602.1413047655817 -172.81507359066603,1259.710342446341 -512.3570367163472,1929.3946069068504 -940.6606452537312,2603.056936954169 -1460.809574196118,3271.9453455662183 -2075.032720358474,3926.760048826893 -2784.621902264502,4557.73177688511 -3589.855793695723,5154.711147619617 -4489.931457606683,5707.268731354492 -5482.904844191171,6204.805277053075 -6565.641596807204,6636.671408512084 -7733.779471333264,6992.295934928494 -8981.703617600802,7261.321755712331 -10302.535895277391,7433.748176591606 -11688.13930061603,7500.078295038442 -13129.138464710097,7451.469960071056 -14614.957048420554,7279.888666864154 -16133.872704330273,6978.260612686262 -17673.090102567683,6540.624019862407 -19218.832326029435,5962.276726112172 -20756.450732610014,5239.917955084452 -22270.55315898992,4371.782112483638 -23745.150104101933,3357.762408041555 -25163.818282635035,2199.5220827904386 -26509.880682171934,900.5910265234324 -27766.60199437663,-533.5543963208169 -28917.39802390222,-2095.430431389307 -29946.057411452406,-3775.505955514451 -30836.973742995695,-5562.185335203912 -31575.385858978643,-7441.815866806168 -32147.623929142377,-9398.7213537075 -32541.35862396932,-11415.263154984259 -32745.85049671099,-13471.929787606477 -32752.19649423773,-15547.455881602165 -32553.570344484222,-17618.97097602599 -32145.453426840486,-19662.17830507914 -31525.852623172985,-21651.563360701042 -30695.501574790746,-23560.631633274214 -29658.041737933854,-25362.174529084947 -28420.179640319722,-27028.56204565429 -26991.81679666539,-28532.06035821194 -25386.14884427213,-29845.1720370661 -23619.73061262723,-30940.99618143812 -21712.504044971072,-31793.605325834993 -19687.78614578667,-32378.43555588587 -17572.214436491333,-32672.685867679727 -15395.647761912556,-32655.722424105297 -13191.020701414907,-32309.483009748295 -10994.1502991093,-31618.876668837056 -8843.494334989975,-30572.173234823003 -6779.860909936028,-29161.377231629907 -4846.069708352684,-27382.580451420905 -3086.5659281234925,-25236.28739766373 -1546.9885230623324,-22727.70773073103 -273.69508202206333,-19867.009871215567 686.7536356410994,-16669.530007998088 1288.1457839727839,-13155.930927690131 1485.2027039738673,-9352.305332475638 1234.1902594749272,-5290.21864690459 493.55142745080377,-1006.6867322455478 -775.4463190080111,3455.9155699333996 -2608.0559141760805,8050.018555795649 -5035.395539357604,12723.097259448801 -8083.801562159568,17417.988605652252 -11774.198185358695,22073.287359067755 -16121.49278472443,26623.821217014673 -21134.006197589068,31001.2044311997 -26812.947410102213,35134.46832564428 -33151.94217220456,38950.76601189294 -40136.62503736125,42376.14749860998 -47744.30417183655,45336.40026206324 -55943.70799960151,47757.94919902533 -64694.82233885172,49568.808737583415 -73948.82614087127,50699.57874842315 -83648.13325934325,51084.474794307505 -93726.54685746769,50662.38219433646 -104109.53210237395,49377.92237827964 -114714.61170402408,47182.51908127665 -125451.88763369538,44035.451097123114 -136224.69101171478,39904.877585779235 -146930.36069385533,34768.82133396939 -157461.1495212152,28616.094912634686 -167705.25554187968,21447.154376722352 -177547.97377878416,13274.865025530222 -186872.96232321995,4125.1637986366295 -195563.61469567526,-5962.396865059174 -203504.52855516053,-16934.23841951192 -210583.05897642486,-28722.492897373406 -216690.94267464103,-41244.90004039885 -221725.9777635761,-54404.876910452396 -225593.7419113539,-68091.77067789708 -228209.33013391253,-82181.30372214426 -229499.09196691975,-96536.21839888758 -229402.34640920523,-111007.12683757521 -227873.05186166198,-125433.5689416464 -224881.40732155758,-139645.27938683386 -220415.36035898628,-153463.66186650548 -214481.9969243934,-166703.46613794545 -207108.78783676843,-179174.66060323003 -198344.66690233405,-190684.49023962047 -188260.91603220018,-201039.7067068984 -176951.83348063123,-210048.95443538192 -164535.16242629485,-217525.29347364733 -151152.2585767341,-223288.836886816 -136967.977297136,-227169.4775842946 -122170.26294983955,-229009.6766613575 -106969.42567829766,-228667.28270460933 -91597.09377077465,-226018.349080647 -76304.83298270528,-220959.9140440357 -61362.427764819324,-213412.70660874713 -47055.823214251184,-203323.73956953463 -33684.730709974894,-190668.7498781275 -21559.90457881603,-175454.4458134524 -11000.10172559582,-157720.52007276338 -2328.740907137501,-137541.38808582458 4129.716813491019,-115027.6115475887 8053.639982019277,-90326.96840225748 9128.31967254457,-63625.13231423889 7050.247193541453,-35145.9270447382 1531.5356342889836,-5151.124125805987 -7695.560229623847,26060.2442108809 -20874.07542644242,58153.08074009151 -38217.77136952338,90757.94674502149 -59906.63476205087,123473.32719261192 -86082.49911934353,155868.4456494615 -116844.85171986632,187486.63070587182 -152246.8907003494,217849.22893190902 -192291.89823730005,246460.05225590183 -236929.99624604874,272810.3401951764 -286055.35072378,296384.2096519467 -339503.88971548935,316664.5570930045 -397051.5978490747,333139.3699463836 -458413.4474342152,345308.39606497897 -523243.0222240753,352690.112225381 -591132.8850847167,354828.9249549626 -661615.7350005182,351302.52962080284 -734166.3920727504,341729.3467829926 -808204.6414631015,325775.9484272304 -883098.9586277031,303164.3809632118 -958171.1287267206,273679.28692153847 -1032701.7628403809,237174.7232162481 -1105936.7026489077,193580.57077268488 -1177094.2936293732,142908.42835622825 -1245373.49468924,85256.88267477554 -1309962.7796098576,20816.047356761137 -1370049.7728417115,-50128.734693209866 -1424831.5492174167,-127194.12771908536 -1473525.5141801708,-209897.07564196616 -1515380.768326234,-297654.2016471981 -1549689.8476007255,-389782.4178576583 -1575800.7185444518,-485500.8186303119 -1593128.8967485987,-583933.9199720921 -1601169.5463208845,-684116.2950132453 -1599509.40888958,-784998.6414561295 -1587838.4026577047,-885455.3015116667 -1565960.7254535423,-984293.2381426356 -1533805.2907836067,-1080262.4535749396 -1491435.322751094,-1172067.8171583272 -1439056.9345157687,-1258382.2499236062 -1377026.5158862285,-1337861.1927823497 -1305856.7587819223,-1409158.2644566235 -1226221.154790333,-1470941.9941391328 -1138956.8069631234,-1521913.492815466 -1045065.4084080859,-1560824.906393267 -945712.2531787576,-1586498.473555389 -842223.160449355,-1597845.991874709 -736079.2109667521,-1593888.4774952028 -628909.2152380961,-1573775.786900509 -522479.85575288767,-1536805.9542636299 -418683.47062672133,-1482443.9849041933 -319523.4732287564,-1410339.8347719156 -227097.43141823026,-1320345.297916794 -143577.86073179342,-1212529.5188745665 -71190.81796173034,-1087192.8450484914 -12192.414738558917,-944878.7357419976 31156.595360619398,-786383.4497008108 56617.96838694879,-612763.2420359341 62004.63825726962,-425338.81436364027 45210.64587288672,-225696.77901876208 4242.040497694894,-15687.919332439986 -62751.56667672316,202577.9467709972 -157445.14642722905,426740.66325072886 -281306.46971249714,654202.1225402467 -435564.80140232685,882142.435089251 -621180.4917045153,1107539.933843039 -838815.9046080215,1327195.0214122918 -1088808.1354817,1537757.8203933646 -1371143.978023292,1735759.5373305099 -1685437.6036243849,1917647.398609467 -2030911.4135206435,2079822.962636077 -2406380.5154935527,2218683.557539119 -2810241.262091716,2330666.537950076 -3240464.266115466,2412295.998808291 -3694592.281291896,2460231.529315321 -4169743.3015632383,2471318.5368516752 -4662619.191200669,2442639.6196366292 -5169520.110102,2371566.41894535 -5686364.944285962,2255811.337599087 -6208717.890998536,2093478.4720210677 -6731821.28133379,1883113.071206866 -7250634.651274419,1623748.808282606 -7759879.995103145,1314952.1296811812 -8254093.053851333,956862.9340841009 -8727680.406558014,550230.828833698 -9174982.044421636,96446.2161394314 -9590339.018347543,-402434.5243700976 -9968165.659908649,-943670.4658919869 -10303025.78541468,-1523824.8518786472 -10589712.203757983,-2138761.7295685024 -10823328.762167562,-2783651.072193485 -10999374.081200922,-3452982.8952026074 -11113826.052514445,-4140590.7938150736 -11163226.10148233,-4839685.240649372 -11144762.152893938,-5542896.883462545 -11056349.183053667,-6242329.974724533 -10896706.196918972,-6929625.947550984 -10665428.435681654,-7596037.027287095 -10363053.59960375,-8232509.635794129 -9991120.864067238,-8829777.207415657 -9552221.474691266,-9378461.893019443 -9050039.730900241,-9869184.482894145 -8489383.207246788,-10292681.732236754 -7876201.118706513,-10639930.12623115 -7217589.81049531,-10902274.977134392 -6521784.444959038,-11071563.60530103 -5798136.067786139,-11140281.221705725 -5057073.363020221,-11101688.00335602 -4310048.550688118,-10949955.737134796 -3569467.041667056,-10680302.304211378 -2848600.640786684,-10289122.188329825 -2161484.279954258,-9774111.119105546 -1522796.4668903914,-9134382.907946955 -947723.8502083957,-8370576.501287244 -451810.5261439024,-7484951.265247695 -50792.94408183666,-6481468.52928953 239578.49526276666,-5365857.455284882 403729.8161933578,-4145663.36397188 426464.2477042207,-2830276.7439205255 293171.60045675223,-1430941.289620539 -9955.793038912396,39260.53450756854 -495702.8271906652,1565445.7284256518 -1175609.5178409987,3130993.905950632 -2059749.6871313048,4717636.241022848 -3156513.250792521,6305570.830485073 -4472395.063661588,7873604.805912435 -6011793.395805119,9399323.216486394 -7776821.197807122,10859284.373284634 -9767133.36643752,12229240.995375944 -11979773.238164565,13484386.132891672 -14409041.515163962,14599622.46531232 -17046390.7642813,15549853.188467396 -19880348.52184616,16310292.315459583 -22896471.884756655,16856791.829485457 -26077336.26972705,17166182.745218858 -29402560.777424626,17216626.765194897 -32848872.306321327,16987974.863825656 -36390210.22296688,16462128.799797336 -39997873.01215469,15623401.253237177 -43640707.90385618,14458870.01283125 -47285344.006233156,12958721.405608065 -50896468.968587704,11116577.973872181 -54437148.6585168,8929805.265075775 -57869188.76823608,6399792.516299567 -61153536.6711094,3532201.9901782107 -64250721.2366232,337181.7578309802 -67121327.68671402,-3170463.169582557 -69726503.9454574,-6971146.282475707 -72028494.3051168,-11040426.259772452 -73991195.61239374,-15348989.248848287 -75580730.5777666,-19862690.685858898 -76766032.23677303,-24542660.127636697 -77519433.05389215,-29345472.015055373 -77817251.666445,-34223384.66324064 -77640369.82678397,-39124649.07910466 -76974791.72507711,-43993888.44533318 -75812177.57111423,-48772548.28717367 -74150343.09039758,-53399416.46030439 -71993716.45547801,-57811211.17188083 -69353744.13571578,-61943234.28091899 -66249237.21430561,-65730086.127789594 -62706649.89660572,-69106437.12613782 -58760282.223735064,-72007850.32531732 -54452399.41410717,-74371648.12958674 -49833260.78594186,-76137815.35482103 -44961051.86736056,-77249929.82790259 -39901714.07760473,-77656110.80249518 -34728667.26173245,-77309974.59199397 -29522421.37892799,-76171586.02100915 -24370074.776512057,-74208393.58549608 -19364697.72152278,-71396135.60350327 -14604601.201062683,-67719704.1477668 -10192492.43156706,-63173953.19220825 -6234520.023886642,-57764437.18984063 -2839213.32213758,-51508066.242258325 -116322.05435097349,-44433664.13177129 1824435.9147631659,-36582415.77648754 2874709.2725751945,-28008191.144325156 2928919.272417928,-18777733.33091191 1885724.3232305802,-8970699.372911057 -350471.17815307016,1320456.5647150197 -3867979.6167581375,11990766.721806495 -8746281.79167639,22923207.625451453 -15054485.966995388,33989338.29241471 -22849814.049585734,45050122.87854843 -32176135.585718475,55956939.88357433 -43062571.06090965,66552777.83975832 -55522186.56557865,76673615.08781298 -69550802.23169981,86149978.79245082 -85125936.93237652,94808675.79503654 -102205911.54919167,102474685.2669656 -120729132.6350255,108973200.4418238 -140613577.51956376,114131803.9973784 -161756500.81004047,117782758.961884 -184034380.82378548,119765394.36767548 -207303122.74760124,119928562.30419305 -231398533.25212792,118133140.57018553 -256137078.90071124,114254552.828983 -281316937.99040943,108185276.07075043 -306719352.45990366,99837303.32051091 -332110283.2128481,89144527.93964615 -357242368.65704024,76065014.58944415 -381857182.47678477,60583120.99509447 -405687782.66886723,42711434.10209894 -428461539.71798235,22492484.086995088 -449903227.50532484,200.0000005509728" stroke="white" stroke-width="1.5" /></svg>