<?xml version="1.0" encoding="utf-8" ?>
<svg baseProfile="full" height="400" version="1.1" width="400" xmlns="http://www.w3.org/2000/svg" xmlns:ev="http://www.w3.org/2001/xml-events" xmlns:xlink="http://www.w3.org/1999/xlink"><defs /><rect fill="black" height="100%" width="100%" x="0" y="0" /><circle cx="200" cy="200" fill="yellow" r="10.0000000000331" stroke="orange" stroke-width="2" /><polyline fill="none" points="201.05847641377733,200.0 201.07418742346616,200.05638993275613 201.0837948930053,200.1141030037155 201.0869750182483,200.17245213704408 201.083469003823,200.23069442479664 201.07309085862633,200.28803656688282 201.05573481503242,200.34364130021098 201.03138225455592,200.39663480321258 201.00010802100567,200.44611504888897 200.96208600182467,200.49116106592135 200.91759385943467,200.53084305337626 200.86701679707002,200.56423328026898 200.81085024787083,200.59041768687692 200.74970138195843,200.6085080903972 200.68428933388054,200.6176548834965 200.61544406220415,200.61706010070276 200.54410376415305,200.60599071463412 200.4713107810079,200.58379201195498 200.39820594446962,200.54990088790026 200.32602133025566,200.50385888842527 200.25607140276819,200.44532482072574 200.18974255361624,200.3740867462331 200.12848105695562,200.290073165418 200.07377948585543,200.19336320101593 200.02716165602004,200.08419558579232 199.99016618597184,199.9629762628476 199.9643287859941,199.83028441085915 199.95116341148312,199.6868767136832 199.95214243958767,199.53368970348092 199.96867605081985,199.3718400190536 200.00209101939748,199.20262243639868 200.05360913709677,199.02750554663186 200.124325515026,198.84812497732025 200.2151870256362,198.66627407686562 200.3269711631288,198.48389200774903 200.46026561386304,198.3030492230488 200.61544883908385,198.12593033147672 200.79267197996634,197.95481438901143 200.99184239930526,197.79205268976554 201.212609174892,197.64004416469277 201.45435085646514,197.50120853376833 201.7161657908718,197.3779573949703 201.99686530855618,197.27266347132905 202.29497004855108,197.18762827503804 202.60870967869468,197.1250484846512 202.93602624277702,197.08698136722043 203.27458133674634,197.0753096113273 203.62176728203713,197.09170596879255 203.9747224256402,197.13759813186257 204.33035065390976,197.21413429831793 204.6853451605385,197.32214989868598 205.03621645894933,197.4621359770324 205.3793245759295,197.6342097291428 205.71091530712016,197.83808770880017 206.02716035648297,198.0730622138683 206.32420112166972,198.3379813585933 206.59819582595728,198.63123332658674 206.84536963576832,198.95073528004872 207.0620673415198,199.29392737470553 207.2448081194123,199.65777229651073 207.39034183362114,200.03876069531972 207.49570628302712,200.43292284250472 207.55828474501294,200.83584678393552 207.57586312183622,201.24270319711204 207.54668595357015,201.64827709180287 207.469510526458,202.04700641772803 207.34365827762434,202.43302756113798 207.16906267725724,202.80022762521145 206.94631275840555,203.14230329774702 206.67669146315922,203.45282601449748 206.36220798285152,203.72531302862558 206.00562328962258,203.95330389717927 205.61046808768864,204.13044179531974 205.18105245534676,204.2505589694915 204.72246650335757,204.30776554308045 204.2405714420132,204.29654079370772 203.74198052788654,204.21182593154177 203.23402945180325,204.04911732431017 202.72473583164205,203.80455903849867 202.2227475866584,203.47503349899335 201.73728009346942,203.05824901258552 201.27804215679492,202.5528228557224 200.85515096950033,201.95835859500266 200.47903638524573,201.27551629145663 200.160334981747,200.50607423780667 199.90977455177332,199.6529808927362 199.73804982086025,198.72039570864234 199.6556903534747,197.71371760018317 199.6729217710657,196.63959987075208 199.7995215639902,195.50595050322582 200.04467093253302,194.32191683012587 200.4168042378807,193.09785372666235 200.92345777964357,191.8452746177112 201.57111973999258,190.57678475605587 202.36508324333454,189.30599641339654 203.30930457235357,188.04742582659054 204.4062686539257,186.81637195797114 205.6568639796679,185.6287773587297 207.06026915364794,184.50107166630622 208.61385326213338,183.44999851828783 210.3130922354667,182.4924269239849 212.15150331871376,181.64514839789268 214.1205996843823,180.92466142367806 216.20986710628978,180.34694507995454 218.40676446792057,179.9272239165411 220.69674970105973,179.67972641858694 223.06333254119772,179.6174396322085 225.48815524565046,179.75186274535366 227.95110214942503,180.09276261766024 230.4304386339283,180.6479344292805 232.90297975644148,181.4229707672124 235.3442884361238,182.42104258491284 237.72890271786528,183.64269555330807 240.03059124174715,185.08566536540548 242.22263563681017,186.74471555943305 244.27813813732155,188.61150138398767 246.17035229223688,190.67446314061547 247.87303420892633,192.9187523025533 249.3608113456756,195.32619352146867 250.60956544949258,197.87528539591455 251.59682583212714,200.54124258539002 252.30216879392742,203.29608151251793 252.70761864833844,206.1087515037012 252.79804547571536,208.94531277718838 252.56155444988966,211.76916219894753 251.9898613407527,214.54130719404668 251.0786486070071,217.22068762803048 249.8278963609603,219.76454486349064 248.2421824172458,222.12883655680815 246.33094563470104,224.2686950947984 244.1087068298482,226.13892688731082 241.59524168546807,227.69454903699298 238.81570030190662,228.89135920932642 235.8006683445112,229.6865338331375 232.58616512962868,230.03924908305405 229.21357446464629,229.91131844020802 225.7295046143574,229.26784000560482 222.18557440517964,228.07784616195758 218.63812319800013,226.3149476545132 215.14784325609813,223.9579636995879 211.77933390190233,220.99152934117248 208.60057778930596,217.40667097081993 205.68234060966165,213.20134071345063 203.0974965910045,208.38090027055677 200.92028323189365,202.95854481072473 199.22548982277155,196.95565761278817 198.08758543707597,190.40208640566652 197.57979320864862,183.33633271633383 197.77311883748686,175.80564603743346 198.73534236799287,167.8660152614856 200.52998334730955,159.58205060057463 203.21525048027644,151.02675011840142 206.84298783579155,142.28114604344518 211.45763051051927,133.433827203729 217.0951834035213,124.58033521940965 223.78223738327273,115.82243350133274 231.5350376208253,107.2672496220096 240.3586192043983,99.02629323841659 250.24602532705768,91.21435343987692 261.1776233371411,83.94828115339172 273.12053374877564,77.34566404563425 286.02818691686093,71.52340319613194 299.8400214787104,66.59620265899747 314.4813378466335,62.67498485852053 329.86331899782465,59.865246553260704 345.8832295481952,58.26537182912821 362.42480261603504,57.96492021859501 379.3588222832718,59.04290956430711 396.54390755313193,61.56611462429447 413.8275015928812,65.58740362604613 431.0470677517638,71.1441359915386 448.0314913732763,78.25664524920116 464.60268379667707,86.92683169708503 480.57738218754685,97.13688966090348 495.76913597678447,108.8481941796432 509.9904677501606,122.00037163081039 523.0551934478926,136.51057816029686 534.7808837396792,152.27300879453855 544.9914454717357,169.1586587745685 553.5197991772611,187.0153569559132 560.2106258407742,205.66808906214837 564.9231534518062,224.91962616481499 567.5339514172554,244.5514709942368 567.9396986676641,264.3251315754101 566.0598893341023,283.9837282463071 561.839438232065,303.25393637354784 555.2511471085006,321.8482630585331 546.2979917278801,339.4676518571114 535.0151894308011,355.80440505418215 521.4720068288257,370.5454083828756 505.7732678333893,383.3756383025873 488.0605232817616,393.98192710232235 468.51284504153176,402.05695623092106 447.3472096638501,407.3034434332608 424.8184394256467,409.43848455419527 401.2186719567602,408.1980063256029 376.87633358681035,403.3412821444314 352.15459605880113,394.65545885065706 327.44930132413623,381.9600388940233 303.18634473109444,365.1112591076991 279.818513011732,344.0063046551454 257.8217800180241,318.5872946512274 237.6910701057488,288.84497454495596 219.93550635463384,254.82204965039955 205.07316837786612,216.61609428072023 193.62539223752776,174.38197182869254 186.1106528615492,128.33370288920705 183.0380772621638,78.74572117132432 184.90064468892282,25.95346052661236 192.1681375088967,-29.646779055613734 205.27991398583282,-87.59873315995122 224.6375811181945,-147.3878826143747 250.5976521800475,-208.44400401464765 283.46427947427435,-270.14458574534393 323.48215794019205,-331.81912502425473 370.82969954437874,-392.75431157845696 425.6125817144639,-452.20009290790324 487.8577753452285,-509.3766047891745 557.5081590154723,-563.4819388153923 634.4178259110404,-613.7007064683299 718.3481884721939,-659.2133465990046 808.9649829011435,-699.2061103890096 905.8362713198256,-732.8816450235006 1008.4315335148922,-759.4700845852883 1116.1219328183474,-778.2405442443214 1228.1818317373372,-788.512901841714 1343.7916224728626,-789.6697396322345 1462.0419254819235,-781.1683084377298 1581.9391957887492,-762.5523669621696 1702.4127619073095,-733.4637407127611 1822.323306091074,-693.6534380443173 1940.4727772899423,-642.9921554742045 2055.6157098049325,-581.4800007740116 2166.471901346551,-509.2552605925341 2271.7403842027456,-426.60203965112396 2370.1146027079935,-333.95660100994087 2460.2986893970938,-231.91224164687736 2541.024711364728,-121.22254471407189 2611.0707376909454,-2.8028594107520632 2669.2795586037873,122.27012851928386 2714.577867616074,252.7608580750732 2745.995699486439,387.2794913982774 2762.6858998136454,524.288735076601 2763.9433866804916,662.1129482297131 2749.223951320899,798.9495770818667 2718.1623335889826,932.8829294374924 2670.5892993519865,1061.900274260392 2606.547441087479,1183.9102216357146 2526.3054202003914,1296.7633070245645 2430.37037012799,1398.2746711972056 2319.498183385885,1486.2486938796715 2194.7014135113914,1558.5054053294714 2057.2545345343647,1612.9084661588183 1908.696316263456,1647.3944721641017 1750.829093390246,1660.00330813922 1585.7147302109356,1648.9092431069662 1415.6671106228257,1612.4524295727088 1243.2410148962192,1549.1704417739743 1071.2172804221318,1457.8294629589207 902.5841830068402,1337.4547099668607 740.5150180818027,1187.3596652885806 588.3419071188753,1007.1736728235751 449.52590322419337,796.8674441762964 327.62352090886793,556.7760179677684 226.2498679228386,287.6187156722083 149.03861125667186,-9.484355730776372 99.59906437971554,-332.99969116805744 81.47073785745683,-680.9720827055073 98.07574999908326,-1051.0210147566884 152.66954741171196,-1440.3421192295762 248.2904365327134,-1845.7140117454906 387.7084756031026,-2263.510784641661 573.3743213434188,-2689.7203805741988 807.3686650009075,-3119.969012383924 1091.3529276564584,-3549.5517307778873 1426.5219139260957,-3973.469171712899 1813.5591457008306,-4386.470440638488 2252.5956126097826,-4783.10201155701 2743.172682776099,-5157.762435871552 3284.209915533344,-5504.76257000011 3873.9785065151596,-5818.3909426023365 4510.08107443769,-6092.983792948034 5189.4384675661595,-6322.999222486244 5908.284225997648,-6503.0948131518235 6662.1672833176335,-6628.20797953873 7445.963427834795,-6693.638238992502 8253.89596953241,-6695.130505183924 9079.565974300163,-6628.95843810658 9915.992332275588,-6492.006817989577 10755.661822727614,-6281.851853625803 11590.589224506852,-5996.838288363972 12412.38739947783,-5636.152130737063 13212.347147497701,-5199.887812588444 13981.526496535846,-4689.10856672466 14710.848951704938,-4105.898819593724 15391.21008371338,-3453.407413175619 16013.591692103331,-2735.880504964037 16569.182633285804,-1958.6830462550242 17049.505259620528,-1128.3078074160035 17446.546275508827,-252.37100468245478 17752.890681648656,660.4063135825763 17961.8573512885,1600.2318424426132 18067.63466459557,2556.291141178247 18065.414521230574,3516.812728393206 17951.52295900126,4469.14941049374 17723.545530118117,5399.875917967305 17380.445528113592,6294.902725961444 16922.673119837214,7139.605726018 16352.263419905728,7918.971196273995 15672.921551238605,8617.755290066512 14890.092766315753,9220.65702997992 14011.015760839582,9712.503558476274 13044.75739559315,10078.446160087324 12002.227154231634,10304.165336639764 10896.169804996805,10376.0829892176 9741.134903052616,10281.579541752742 8553.421967114391,10009.213634600772 7351.0003887261955,9548.941825594522 6153.40338399096,8892.335564296694 4981.595574441677,8032.7925559104715 3857.814084318655,6965.739507919218 2805.383363633985,5688.8231582785065 1848.5042874970643,4202.086422002204 1012.0184392714677,2508.126466200497 321.14885486304155,612.2315347312126 -198.78111595066122,-1477.5066049826235 -522.6487918641213,-3750.1076266782934 -625.8505630846176,-6191.647917477418 -484.63491283957694,-8785.238870559115 -76.44688531733482,-11511.040682223866 619.71952711009,-14346.313862043982 1622.9649395657136,-17265.51034363956 2950.128244866248,-20240.405717479643 4615.434848129242,-23240.273697510314 6630.1541572397555,-26232.103482566527 9002.271220013241,-29180.86018425213 11736.177550799326,-32049.78796880515 14832.386288630083,-34800.75500557575 18287.27687107166,-37394.63873398255 22092.8743883295,-39791.74935967214 26236.66869699812,-41952.28887519534 30701.47821880587,-43836.8422775369 35465.363124089505,-45406.89703153673 40501.59230055134,-46625.38621234789 45778.66813390141,-47457.25015975148 51260.41267791519,-47870.01090090543 56906.118267794154,-47834.35305471484 62670.76503402571,-47324.70442944586 68505.30710673536,-46319.80907450247 74357.02856637604,-44803.28515645311 80169.96940016524,-42764.15970731162 85885.4208706969,-40197.37204835427 91442.48880043963,-37104.237533613064 96778.72233128955,-33492.863191341195 101830.80474093203,-29378.50687626943 106535.3018974199,-24783.871686648577 110829.46292103732,-19739.327653290893 114652.06660993365,-14283.05307745191 117944.30618582403,-8461.088383602742 120650.70394146992,-2327.295963884314 122720.04643656067,4056.779776166676 124106.33000728107,10622.157107109115 124769.7055418235,17292.77036426467 124677.41074409084,23985.934912531047 123804.67747548284,30612.925368724744 122135.60124435218,37079.66746624908 119663.95951845765,43287.54255866013 116393.96528087015,49134.302289979336 112340.94214680251,54515.08942325281 107531.90741919937,59323.55922946754 102006.04969483652,63453.09421272986 95815.08804883194,66798.10330234512 89023.50043091364,69255.39499730768 81708.60970666906,70725.61232419587 73960.51677436936,71114.71588714303 65881.871383665,70335.4997709477 57587.472674885365,68309.12362870287 49203.69304269397,64966.6429672336 40867.72069864494,60250.51846101211 32726.61825417103,54116.084101861736 24936.196756262325,46532.95315103383 17659.706867338118,37486.340224886386 11066.35127033074,26978.277437005487 5329.624878872812,15028.702358530949 625.4920168890394,1676.3956632006489 -2869.587624551283,-13020.253289263143 -4980.769771497394,-28982.673994248555 -5537.0559381288795,-46111.75553930837 -4373.62359174487,-64287.719301226876 -1334.2337500165977,-83370.24073875007 3726.3088140843834,-103198.83546600556 10939.669903332844,-123593.5225214786 20421.504043694164,-144355.7751645629 32269.007644282374,-165269.76664734824 46558.54002192407,-186103.91523913323 63343.3465006882,-206612.72934547192 82651.41882046517,-226538.94988730995 104483.52874271641,-245615.98321857554 128811.47099298147,-263570.61379671167 155576.55149852525,-280125.98161875026 184688.35623891355,-295004.8051386962 216023.8349045391,-307932.82603731647 249426.73193483404,-318642.4478737206 284707.39537079015,-326876.536363615 321642.99129763374,-332392.3448589643 359978.1484712524,-334965.52460748766 399426.0540206164,-334394.17560934176 439670.0169095545,-330502.8904250802 480365.5111428789,-323146.740186474 521142.70553988795,-312215.14938286133 561609.481305837,-297635.6038020581 601354.9326497308,-279377.13435624813 639953.3393731472,-257453.51847674575 676968.593745557,-231926.14037042685 711959.0571497938,-202906.45174368244 744482.8149970773,-170557.9756602648 774103.2913510446,-135097.79804424994 800395.1776472179,-96797.49399806163 822950.6229365682,-55983.43959958279 841385.6263122441,-13036.464184278007 855346.5656938769,31609.1966892728 864516.791043969,77467.68135658036 868623.2044774231,124004.04215355527 867442.7447005602,170637.56476428692 860808.6888820673,216745.8776564611 848616.681515407,261669.8533464044 830830.3971772521,304719.29350006673 807486.7424120753,345179.3795879049 778700.5013657236,382317.8600615928 744668.330329358,415392.9339115946 705672.0081100703,443661.779110916 662080.8521749179,466389.6629768952 614353.2148692652,482859.56002417585 563036.9797222917,492382.19158167136 508768.98494247504,494306.3904555641 452273.30967777636,488029.68339664425 394358.3684562882,473008.9742357251 335912.7704026054,448771.20145076583 277899.9122937116,414923.8357901027 221351.28820689765,371165.076563375 167358.51333267416,317293.5994880856 117064.07536921476,253217.70470279985 71650.84365296287,178963.71087779175 32330.383664413534,94683.44041084778 330.14261118978015,660.6416179935646 -23120.409753576027,-102683.8032704817 -36804.582274122266,-214788.03052267138 -39534.08407708236,-334946.84681259975 -30165.327027148538,-462311.0103736174 -7616.251338707031,-595888.2595740134 29116.500349085818,-734546.1932714141 80940.25117519332,-877017.0912590123 148649.00603028812,-1021904.7449001026 232906.43397711683,-1167693.3477388364 334229.3471402315,-1312758.4735873134 452971.91533281904,-1455380.1454661652 589310.8625769462,-1593757.9729958475 743231.8959615374,-1726028.3086077727 914517.6187426233,-1850283.3445103692 1102737.1780151615,-1964592.0429780176 1307237.8924914603,-2067022.7625335527 1527139.097751855,-2155667.4122983213 1761328.434664482,-2228666.93654477 2008460.7914136376,-2284237.9016852654 2266960.0906795915,-2320699.928967094 2535024.090968338,-2336503.68843405 2810632.3449338856,-2330259.143688464 3091557.4278515507,-2300763.7130800923 3375379.516321478,-2247029.9915996585 3659504.3609917024,-2168312.6594020757 3941184.657825276,-2064134.1879559297 4217544.780486127,-1934308.94372731 4485608.792125477,-1778965.2824524709 4742331.608608294,-1598565.2248037627 4984633.137472918,-1393921.3069434834 5209435.168159585,-1166210.2073880336 5413700.739813825,-916982.7650220342 5594475.663849517,-648170.0222100149 5748931.83006293,-362084.95189465524 5874411.878072227,-61419.558427125834 5968474.770896406,250762.92134286862 6028941.765278077,571040.9475408073 6053942.234607292,895652.9197515362 6041958.765731123,1220520.861073613 5991870.921246703,1541279.6132076592 5902997.034770369,1853311.5481242584 5775133.388825477,2151786.73358821 5608590.114038222,2431708.417754756 5404223.144872559,2687963.6228423016 5163461.5717164045,2915378.5602495708 4888329.742233942,3108778.500226614 4581463.486930948,3263051.64920609 4246119.875164659,3373216.5080988123 3886179.948598363,3434492.106262087 3506143.9294815524,3442370.429519725 3111118.4611454266,3392690.28764938 2706795.5076401876,3281711.7982898545 2299422.618277533,3106190.601411169 1895764.3506210803,2863450.8624930615 1503054.7416966532,2551456.0745268064 1128940.8212416433,2168876.630020925 781417.2719083456,1715153.105448554 468752.4585685064,1190554.1830606125 199406.17119093143,596228.1296779593 -18060.448003443642,-65753.24015329882 -175082.19356919167,-792359.1676231341 -263193.57249935553,-1579574.1345573699 -274138.2073342146,-2422382.5933735664 -199982.8798872416,-3314765.1390903285 -33235.104845401635,-4249706.938146922 233036.99589751993,-5219219.130906195 605083.858356244,-6214373.811357404 1088354.123007975,-7225353.059079159 1687376.29546639,-8241512.355554436 2405644.031658816,-9251458.560255194 3245506.7207655637,-10243142.45256543 4208067.085454755,-11203965.664844934 5293087.546932268,-12120901.641238892 6498907.1104505565,-12980630.057913337 7822370.513752059,-13769683.93517171 9258771.345199626,-14474608.462511213 10801810.779002652,-15082130.346437046 12443573.491138171,-15579336.280269783 14174522.21069832,-15953858.927924562 15983512.227141086,-16194068.612505065 17857827.01425458,-16289268.708458934 19783235.94684694,-16229892.555975694 21744074.87686487,-16007699.551319875 23723350.102778148,-15615967.919945493 25702866.010976136,-15049681.55357137 27663376.392278574,-14305708.190895637 29584759.142528795,-13382966.147171728 31446213.746025745,-12282576.753193323 33226480.61705505,-11007999.651897721 34904081.041119695,-9565148.123107662 36457576.11713145,-7962481.665941239 37865842.758583196,-6211073.165847373 39108364.46965964,-4324648.1104334835 40165534.27568974,-2319593.4961990556 41018966.86086461,-214934.28749025325 41651816.65446013,1967724.4505200482 42049098.31479939,4204291.321717685 42198005.79280532,6468319.507585303 42088225.91921146,8731175.670854887 41712242.25625204,10962247.295347605 41065624.79079593,13129188.454375338 40147300.92608223,15198203.521418657 38959803.15791531,17134367.832125362 37509488.80251071,18901983.780527033 35806727.18091179,20464970.289855875 33866049.762325,21787283.045110222 31706258.92864363,22833362.31673875 29350491.247032247,23568604.649105985 26826231.42826991,23959854.140840232 24165273.506424,23975908.514144633 21403626.200370904,23588034.664377976 18581359.908918533,22770487.90760536 15742393.347135788,21501028.710418873 12934218.449374964,19761430.30122475 10207562.84084881,17537970.233406294 7615989.9100041175,14821898.70617115 5215437.292841711,11609876.25605643 3063695.401337391,7904373.318212662 1219828.48382051,3714024.1284157005 -256458.4127515692,-946072.4996428504 -1305502.3094310702,-6054112.826507766 -1868409.81524686,-11581415.310913488 -1887823.2221892676,-17492321.88036019 -1308718.2093071996,-23744179.547948215 -79225.32960940356,-30287407.990975186 1848533.367226044,-37065658.01369351 4517601.991433825,-44016065.01586531 7965352.8665780565,-51069600.683095686 12222663.720994191,-58151525.10860592 17313121.290260706,-65181940.45490698 23252263.030930083,-72076446.07510647 30046868.956042044,-78746893.74622232 37694315.7846477,-85102240.33143274 46182005.63978495,-91049493.79667157 55486881.42221904,-96494747.07296507 65575040.722120136,-101344292.79438604 76401459.70040591,-105505810.46880573 87909837.77002844,-108889616.17234902 100032573.13104153,-111409963.41723998 112690878.25980665,-112986382.44620644 125795043.32217479,-113545043.87513702 139244854.17513466,-113020131.3601846 152930170.14575973,-111355206.82722707 166731665.1373046,-108504550.79189985 180521733.81939393,-104434459.43843116 194165562.72446486,-99124479.43601759 207522364.01049852,-92568560.97243391 220446767.47775424,-84776109.19496171 232790364.16431898,-75772914.1861588 244403392.51395094,-65601939.78249168 255136555.7342578,-54323951.9814056 264842956.57039908,-42017968.38883032 273380133.33778185,-28781511.14360262 280612178.71703255,-14730647.024221286 286411920.54773736,199.9999996492468" stroke="white" stroke-width="1.5" /></svg>