<?xml version="1.0" encoding="utf-8" ?>
<svg baseProfile="full" height="400" version="1.1" width="400" xmlns="http://www.w3.org/2000/svg" xmlns:ev="http://www.w3.org/2001/xml-events" xmlns:xlink="http://www.w3.org/1999/xlink"><defs /><rect fill="black" height="100%" width="100%" x="0" y="0" /><circle cx="200" cy="200" fill="yellow" r="10.00000000000191" stroke="orange" stroke-width="2" /><polyline fill="none" points="201.19740958270395,200.0 201.23048847943764,200.06459502419867 201.2574974046575,200.13239057681662 201.27792516552552,200.20274700161227 201.29131582537016,200.2749495929403 201.29727832763095,200.34821244890728 201.2954959655176,200.4216834679217 201.28573556951767,200.49445050304712 201.26785627984046,200.56554867512855 201.24181776715707,200.63396883131043 201.20768776271697,200.69866712041951 201.1656487582193,200.75857564088048 201.1160037368039,200.8126141005197 201.05918079930638,200.85970241096211 200.99573655457615,200.89877412252244 200.92635814925575,200.92879058873257 200.85186382101205,200.9487557331451 200.77320186982064,200.95773127502966 200.69144795453767,200.95485225526588 200.6078006366279,200.93934268937355 200.52357510950281,200.9105311614467 200.44019507038743,200.86786616102017 200.35918271186898,200.8109309548352 200.28214683215847,200.73945777732263 200.21076908644898,200.65334111761814 200.1467884263952,200.5526498772815 200.09198380044506,200.43763817181457 200.04815521427656,200.30875455074747 200.01710327766,200.16664941564852 200.00060739137217,200.01218042305484 200.00040275501541,199.8464156701206 200.0181564033945,199.6706344748209 200.05544250511633,199.4863255798703 200.11371718192626,199.29518263012164 200.19429313059177,199.0990967970664 200.29831435049672,198.90014645108437 200.42673129912112,198.7005838121608 200.58027681385983,198.50281854273845 200.7594431517913,198.30939828197694 200.9644605086741,198.1229861586924 201.1952773842695,197.94633536033265 201.45154316273175,197.78226087714472 201.73259327397574,197.63360858381566 202.03743729435854,197.50322186485414 202.36475033247373,197.3939060343546 202.71286802818008,197.30839084500624 203.07978547004245,197.24929142473007 203.46316030808867,197.21906802154783 203.86032030517313,197.21998497760342 204.26827553134876,197.2540693910371 204.68373536161343,197.32306995901595 205.10313038841846,197.42841652600816 205.5226393066824,197.57118088771483 205.93822077110062,197.7520394223156 206.34565016370937,197.97123813623574 206.7405611444641,198.22856072093367 207.11849178960932,198.52330021969763 207.47493505251364,198.8542348986463 207.80539321014382,199.2196089036223 208.10543588625853,199.61711826408472 208.3707611705662,200.043902776168 208.59725928242764,200.49654425957516 208.78107815915038,200.97107163680954 208.9186902835082,201.46297322841298 209.0069600038572,201.9672165944734 209.04321054414126,202.4782761809027 209.02528985123496,202.9901689492035 208.95163438449586,203.49649808109197 208.8213299181088,203.99050475500763 208.63416840178277,204.4651278909212 208.39069991053913,204.91307165378288 208.0922787105747,205.32688039538792 207.74110247628508,205.6990206004493 207.34024371418232,206.02196928644744 206.89367248322344,206.28830818967128 206.40626954844032,206.49082295316646 205.88382916604843,206.62260641754895 205.33305077358008,206.6771650043843 204.76151894804642,206.64852707568915 204.1776710985072,206.53135205374997 203.5907524763692,206.32103899456123 203.01075821669323,206.0138332274604 202.44836226602504,205.6069296046661 201.91483320582535,205.09857084905866 201.42193714431178,204.48813944827143 200.98182802208115,203.77624151950081 200.60692585670216,202.96478106379806 200.30978363680236,202.05702304225304 200.10294376508617,201.0576437405448 199.9987851400996,199.97276694375398 200.0093621561347,198.80998452085592 200.14623708702763,197.57836011844876 200.42030750021945,196.28841478629485 200.84163051968025,194.95209350316165 201.4192459174483,193.58271173996144 202.1610001608543,192.1948813877259 203.07337367322899,190.80441558961323 204.16131367729625,189.42821224771632 205.42807507984662,188.08411622537312 206.8750719210903,186.7907605320941 208.50174194984274,185.56738705890578 210.30542689412653,184.43364772433114 212.28127097380425,183.40938719252992 214.42214014567952,182.51440863215643 216.7185644805826,181.7682242938204 219.15870594510847,181.1897929919636 221.72835369705925,180.79724687956843 224.4109488028432,180.60761019727147 227.18764004709834,180.6365129578861 230.03737223011726,180.89790278864936 232.93700803820386,181.40375839223236 235.86148422736647,182.1638082992107 238.78400248373174,183.185258764834 241.6762549172817,184.4725348072107 244.50868371203882,186.0270384882379 247.25077399925502,187.84692859877828 249.87137854463376,189.92692592201644 252.3390723507776,192.25814821026458 254.62253477704178,194.82797891779168 256.69095627637915,197.61997358305317 258.51446634859934,200.61380754607416 260.06457881811946,203.7852684193579 261.31465006845593,207.10629640287118 262.24034541236165,210.54507514544076 262.8201083527885,214.0661754070513 263.0356271030175,217.63075327065454 262.8722923916177,221.1968040905788 262.31964028660633,224.7194727507355 261.37177354033855,228.15142014367285 260.0277547890799,231.44324507614604 258.2919648453535,234.54396006412304 256.17441930301106,237.4015187067746 253.69103673998043,239.96339153256812 250.86385195655402,242.1771863994668 247.72116793188553,243.99130871453036 244.29764052117181,245.35565592571095 240.63429035294385,246.22233994072388 236.77843692104813,246.5464303554546 232.78355049918912,246.28671063875248 228.70901823601912,245.4064387332803 224.6198216131029,243.87410290512435 220.5861233627178,241.66416311995874 216.68276294202832,238.75776775242574 212.9886607379721,235.1434350595165 209.58613232502668,230.81768857916788 206.560115306315,225.7856354625036 203.99731252626697,220.06147672186557 201.9852567379533,213.6689384858054 200.61130312662402,206.64161360423654 199.9615574180926,199.02320334843458 200.11974862048308,190.8676495065256 201.166056743594,182.23914788895618 203.17590709400002,173.2120351318774 206.2187439376019,163.87054171923984 210.35679743576907,154.308405334494 215.6438587773289,144.62833999585848 222.12407932721496,134.9413579187039 229.8308103745521,125.3659426759536 238.78550066969095,116.02707398154527 248.99666937327444,107.05510628956729 260.4589722838286,98.58450536706366 273.1523792478574,90.75244904378421 287.04148047373144,83.69730044725063 302.07493905531896,77.55696417423137 318.1851063528989,72.4671380059401 335.28781596934107,68.55947491806049 353.2823708933174,65.95967224056267 372.05173695576775,64.78550685736693 391.4629540613071,65.14483727229324 411.3677747163973,67.13359517472952 431.60353718789383,70.8337907848906 451.994278199649,76.31155771320427 472.3520874254339,83.61526430030472 492.4787031815581,92.77371938308798 512.1673456839487,103.79450112917479 531.204781037605,116.66243796937323 549.3736058004575,131.33827070976594 566.4547385414467,147.75752459878476 582.2301013302276,165.82961943987502 596.485470592622,185.4372447602841 609.01347328389,206.43602555804813 619.6167009159353,228.6545022436321 628.1109106715126,251.89444606559618 634.3282796970716,275.9315285618866 638.1206757359754,300.51636041586585 639.36290459606,325.37591153058173 637.9558925906064,350.2153201833756 633.8297601000497,374.72009480907616 626.9467408222517,398.55870731309955 617.3039001591379,421.3855718712779 604.9356055717312,442.8443979727535 589.9157016654656,462.57190105337173 572.3593432805951,480.2018485029438 552.424440991208,495.3694131694787 530.312675187962,507.715800790836 506.27003735528564,516.8931121279877 480.5868602675313,522.5693950269376 453.59730262716414,524.4338362746696 425.6782581501167,522.202038017402 397.24766425896985,515.6213187580539 368.7621913545804,504.47597462640704 340.71430007277473,488.5924328024792 313.6286609565758,467.8442257526836 288.0579385381749,442.1567123891758 264.5779498705213,411.5114704620838 243.7822160082501,375.9502835146403 226.27593373408763,335.5786456396877 212.66940387310882,290.56870813332165 203.57096173737702,241.1615940004003 199.57946449348432,187.6690091712474 201.27639943358298,130.47408327303546 209.21768613821797,70.03137788576561 223.9252542225038,6.866006412026479 245.87848662727927,-58.42818300077403 275.5056261219366,-125.19140164383799 313.17524969195597,-192.70172222862055 359.18792165787465,-260.1799088779536 413.7681415808247,-326.79528390307405 477.05670712358227,-391.6726278332753 549.1036149306804,-453.90009607458694 629.8616241489565,-512.5381218136952 719.1806073220163,-566.6292604795312 816.8028119602849,-615.2089163690863 922.3591530269842,-657.3168770920913 1035.3666518185075,-692.0095664607662 1155.2271302005988,-718.3729115277237 1281.2272608529943,-735.5357048499844 1412.5400640581286,-742.683328931873 1548.2279296490542,-739.0716963835088 1687.2472290349413,-724.0412468389927 1828.4545668015883,-697.030830326685 1970.6147043148524,-657.5912967905309 2112.410169139376,-605.3986030417768 2252.452544051159,-540.2662417845929 2389.2954081247203,-462.15679270918747 2521.4488799942296,-371.19239317281574 2647.395690128805,-267.6639258691939 2765.6086850557535,-152.038723279301 2874.5696421660978,-24.966593739981562 2972.789249320077,112.71601822410582 3058.828079232454,259.9839139968312 3131.3183648719178,415.6232285114929 3188.9863591840235,578.2338700390429 3230.6750406831216,746.2344392828082 3255.3669062041818,917.8697326112493 3262.2065737132402,1091.2209091330224 3250.522901899193,1264.2183735168567 3219.8503196593547,1434.6573961492552 3169.949047887671,1600.2164596148116 3100.823888505918,1758.4782858288054 3012.7412517539424,1906.9534617436814 2906.244092661161,2043.1065437253937 2782.1644316164166,2164.384481828547 2641.6331422601743,2268.247165703581 2486.086702728434,2352.1998541954795 2317.2706237227117,2413.8272113219964 2137.2392890594024,2450.8286327609753 1948.3519713057572,2461.054509765072 1753.2648168229134,2442.543042110807 1554.918630933468,2393.557178844317 1356.5223348728468,2312.6212357822105 1161.532011465089,2198.556712536659 973.625505812278,2050.5168098275367 796.6726003611235,1868.0191305748826 634.7008400993757,1650.97603626413 491.8571428593665,1399.7221238466332 372.3653912196131,1115.0382884435408 280.48026568533993,798.1718437784688 220.43764302214123,450.8521859377341 196.40194808177066,75.30150704481447 212.41091141182326,-325.75990603231526 272.31824755190854,-749.1142165962344 379.734829319093,-1191.052811327896 537.96899067551,-1647.3896347413447 749.9666440301304,-2113.4813585175757 1018.2519461222938,-2584.2545926507155 1344.8692890333843,-3054.240271598937 1731.3274284531265,-3517.6152682968223 2178.546589188085,-3968.251202510648 2686.809407180054,-4399.770318276691 3255.7165771851282,-4805.608208833681 3884.148074998994,-5179.083067437212 4570.23081202389,-5513.471039722621 5311.313557470526,-5802.0871489603 6103.94992908977,-6038.371160814527 6943.890206665872,-6215.97765034964 7826.082663333551,-6328.869432374635 8744.685038004753,-6371.413418192945 9693.08668785583,-6338.477868890868 10663.941863140299,-6225.529928951648 11649.21443793103,-6028.732245739667 12640.234310310982,-5745.0374117753645 13627.765554748741,-5372.278909214787 14602.086268828552,-4909.257191018464 15553.07990724419,-4355.819502343002 16470.337739289043,-3712.932030037427 17343.271903433422,-2982.7429689942587 18161.23836559636,-2168.6351125874944 18913.668918181913,-1275.2666114767012 19590.21118679697,-308.5986014505696 20180.875442872664,724.091522681413 20676.186855373675,1814.212313478533 21067.341655695396,2951.8769667192437 21346.365539096034,4125.939378343515 21506.272486025184,5324.048276511989 21541.22205995066,6532.7199657626625 21446.673127218408,7737.430024663273 21219.53185153771,8922.72408542832 20858.291743233825,10072.347595181647 20363.163493730895,11169.394215680133 19736.192300957395,12196.472263453847 18981.36039348739,13135.888327826613 18104.672492011847,13969.846932805223 17114.22200771659,14680.6648332745 16020.2358695907,15250.998259465285 14835.095997556182,15664.081149648555 13573.3355962179,15903.972143026791 12251.608635229739,15955.807846580927 10888.63110660853,15806.059645052663 9505.09290623224,15442.791096254856 8123.539475218725,14855.912748509898 6768.222655419267,14037.431037215883 5464.920559931235,12981.687767286783 4240.7266319078335,11685.586571353335 3123.8084601079418,10148.802653834182 2143.137334198241,8373.97209177069 1328.1899529344494,6366.856967867369 708.6241396993423,4136.482662366301 313.9308677250556,1695.2437306970498 173.0653465398023,-941.0250546751149 314.0603662577987,-3753.0157155886714 763.6255314624831,-6717.955092204673 1546.7364355382665,-9809.656527218915 2686.218223097283,-12998.617491962199 4202.328356195855,-16252.165017392246 6112.3437328361815,-19534.650323060356 8430.15759730226,-22807.69351841833 11165.891924768475,-26030.478686492937 14325.531151097503,-29160.099053963528 17910.583246823157,-32151.951308783995 21917.774196354854,-34960.17745221607 26338.781934248313,-37538.15187277465 31160.015705309084,-39839.010612151375 36362.44665030315,-41816.2190653868 41921.495170846,-43424.173627771066 47806.98029314459,-44618.83207811334 53983.13582908557,-45358.366781582816 60408.69762409599,-45603.83411518225 67037.06558469869,-45319.852875291304 73816.54349630185,-44475.283830057146 80690.65887624361,-43043.90204028919 87598.56426241854,-41005.053101493926 94475.52041913524,-38344.28406717753 101253.46095568126,-35053.93950969911 107861.63680715028,-31133.712969490676 114227.33793040956,-26591.14394551404 120276.68843093685,-21442.050597818485 125935.5101700083,-15710.888474552641 131130.24871901725,-9431.025847252624 135788.95434207527,-2644.9266450326027 139842.30951410136,4595.767475570278 143224.69333471914,12230.263700352933 145875.2720945155,20188.76021126442 147739.1042062107,28392.709895909033 148768.2467460392,36755.21047207783 148922.84997729547,45181.524639421536 148172.22546573952,53569.732494674456 146495.8727622999,61811.51695117644 143884.4491387098,69793.08129838435 140340.6665321459,77396.19633525929 135880.099700451,84499.37272755695 130531.88962373172,90979.15238982163 124339.32642327022,96711.51079692325 117360.29651530944,101573.36020774361 109667.57938394378,105444.14185724799 101348.98025055397,108207.49326637827 92507.2860410092,109752.9749569982 83260.03340768069,109977.83906765758 73739.07914985756,108788.82067225115 64089.96518914748,106103.93103535644 54471.07228845953,101854.23062302308 45052.55894367125,95985.55845396429 36015.08431206827,88460.19335091085 27548.31665394662,79258.42186209591 19849.231532694608,68379.9870940024 13120.206920304205,55845.39245270156 7566.925362383152,41697.034354462645 3396.0964390042614,26000.138356589654 813.0158818331582,8843.473893698592 18.980837856503854,-9660.176103214488 1208.5838671413767,-29373.8129671712 4566.911285673247,-50136.30786217434 10266.674371908408,-71762.7933716555 18465.304703297687,-94045.37673638429 29302.047431798288,-116754.18741519624 42895.0885999395,-139638.7683317354 59338.754596069855,-162429.8165220652 78700.82350435425,-184841.2749342112 101019.98937852525,-206572.77287966633 126303.52131679155,-227312.40813222787 154525.1595996511,-246739.85895031723 185623.29103679812,-264529.8094095111 219499.44502179537,-280355.6664217718 256017.15058614168,-293893.541741077 295001.1929553492,-304826.46717051434 336237.3057219733,-312848.80615613953 379472.33175365964,-317670.8200442128 424414.882344979,-319023.34256011865 470736.5199036494,-316662.51161062677 518073.4846466408,-310374.5033892504 566028.980389469,-299980.2100509844 614176.0285711057,-285339.7989911453 662060.8932045784,-266357.0890859489 709207.0725255322,-242983.67720025062 755119.8457825981,-215222.74690790827 799291.3559380805,-183132.49076581 841206.2010975367,-146829.07769188256 880347.4993426672,-106489.09807219224 916203.3833919768,-62351.42120723055 948273.87325347,-14718.402638885675 976078.0668651841,36043.61719566145 999161.5807504826,89504.57664216253 1017104.165058304,145171.76660861232 1029527.4101299659,202491.75533576353 1036102.4550524324,260853.19720069805 1036557.6026429179,319590.5498103459 1030685.7400806693,377988.7139667187 1018351.4600765572,435288.600581082 999497.7741641499,490693.6173554661 974152.3075162657,543377.056126412 942432.8637416766,592490.3492812484 904552.2484914333,637172.1507296314 860822.242487635,676558.183673312 811656.6178512034,709791.7840091381 757573.0964081163,736035.0547796327 699194.15503891,754480.5338182504 637246.5911305305,764363.2637978469 572559.7708012431,764973.1414640461 506062.4937870474,755667.4111089446 438778.4216697992,735883.1565076398 371820.0304394618,705149.6357951112 306381.06413932843,663100.295298115 243727.48344435444,609484.2913470283 185186.92134633253,544177.3437617125 132136.6775194318,467191.7412108818 85990.3032463153,378685.31715251686 48182.84980684356,278969.215726355 20154.874754625067,168514.2699245031 3335.322297216926,47955.8197293983 -876.5841995227379,-81903.19422565398 8869.721986109453,-220091.01547956828 33856.567398608815,-365467.8760028621 75278.00788605477,-516728.9451646925 134219.57086138,-672409.5303888792 211638.0076736242,-830892.6156346344 308341.3092057862,-990418.8005238711 424969.2515122607,-1149098.6772808188 561974.7496037697,-1304927.6548123704 719606.3060800297,-1455803.2094400285 897891.8469121668,-1599544.5102345669 1096624.2390182142,-1733914.3338786485 1315348.7831083476,-1856643.1498031144 1553352.9703814164,-1965455.2213575214 1809658.7828421742,-2058096.5333661996 2083017.8041264424,-2132364.3209993104 2371909.390657127,-2186137.9398943093 2674542.1316398117,-2217410.783360776 2988858.800822891,-2224322.919774505 3312544.973126342,-2205194.092414519 3643041.445272704,-2158556.695528756 3977560.561577896,-2083188.3148440474 4313106.504282624,-1978143.3985761765 4646499.56249278,-1842783.6067503758 4974404.345275553,-1676806.3728004002 5293361.853116469,-1480271.2024427706 5599825.268230872,-1253623.2311596712 5890199.268650641,-997713.563670177 6160882.614140126,-713815.9268823498 6408313.694456044,-403639.18230293866 6629018.6729228515,-69335.26498486474 6819661.80146696,286497.8560058863 6977097.427891444,660818.565812608 7098423.163067595,1050149.6691618199 7181033.625680312,1450592.4127225785 7222674.13602016,1857846.6889180122 7221493.688900799,2267237.583788357 7176096.499927642,2673748.3634706526 7085591.389871357,3072059.920092902 6949638.249602429,3456596.618913958 6768490.8136772225,3821578.4050082383 6543034.964943116,4161078.9404304884 6274821.796100049,4469089.452430246 5966094.667595699,4739587.88084139 5619809.525035996,4966612.819260034 5239647.773860269,5144341.651136371 4830021.054650559,5267172.189606531 4396067.319291671,5329807.04000772 3943637.6763167945,5327339.817833944 3479273.5530698663,5255342.273719291 3010173.812553692,5109951.302228145 2544151.5636213045,4887954.744142118 2089580.5139615177,4586874.833915333 1655330.835417458,4205048.096349746 1250694.6396915491,3741700.4606122253 885301.2983929919,3197016.336702193 569022.9834829103,2572200.3905368866 311870.9511121028,1869530.7600017427 123883.24212494117,1092402.47655428 15004.624473768907,245359.8960685912 -5040.245325688342,-665883.0007924367 73120.68533899228,-1634435.5038210715 258369.9917542753,-2652237.2364546736 558960.9303385667,-3710080.248115328 982376.1734830738,-4797646.867620292 1535186.7865520131,-5903563.902537896 2222913.2214961136,-7015473.605192751 3049890.195418834,-8120121.645623743 4019137.399369894,-9203462.136327296 5132238.040532895,-10250779.544496724 6389227.257827944,-11246827.10638555 7788492.464898641,-12175981.12732667 9326687.663788402,-13022410.312034838 10998663.735817106,-13770259.025554894 12797416.651955837,-14403843.138275906 14714055.452323975,-14907856.861698903 16737791.722549483,-15267588.738212256 18855952.143197138,-15469144.711239956 21054015.507184356,-15499675.975170348 23315675.38932404,-15347609.090935282 25622929.412519526,-15002875.656546772 27956195.787723333,-14457138.645892683 30294457.511035204,-13704012.377211515 32615434.28313918,-12739272.948412284 34895781.87599502,-11561055.883179383 37111318.31204678,-10170037.672835466 39237275.84537967,-8569597.877262415 41248577.34583047,-6765958.466564739 43120135.29002856,-4768297.146056855 44827171.16207346,-2588831.5126549476 46345552.66575903,-242871.04253163832 47652145.754935116,2251165.890843765 48725178.10405778,4871772.521700461 49544610.272712156,7594413.977622911 50092510.47157677,10391629.259803124 50353428.51870537,13233176.441300018 50314764.28996793,16086222.171088597 49967125.721787445,18915576.093341645 49304671.22364729,21683970.273428313 48325431.20772416,24352383.16832598 47031603.34868342,26880407.094014402 45429816.15306225,29226657.531130817 43531355.449258454,31349221.978576947 41352348.50989494,33206145.41935512 38913900.69163561,34755948.81080705 36242179.72609082,35958176.36027463 33368443.121204562,36773966.70516898 30329004.536597602,37166642.49212585 27165135.478957076,37102312.25228693 23922899.223976597,36550477.90800603 20652914.507796615,35484640.7298207 17410047.240555834,33882898.10082567 14253029.27360406,31728523.0480246 11244004.095108688,29010518.176084157 8448000.230015311,25724135.397103895 5932334.072279307,21871352.699076846 3765944.871522497,17461299.143608492 2018665.6232542961,12510619.3374614 760434.6609433764,7043768.789021549 60453.80797172034,1093231.845318256 -13699.994627981067,-5300345.68787219 602998.3739575584,-12088116.607911833 1972065.6830147065,-19213091.764569547 4150534.167581263,-26610304.814790405 7189966.547487789,-34207087.28745631 11135473.93852588,-41923457.925549865 16024749.093966873,-49672629.117254406 21887128.05788365,-57361631.95922637 28742693.83534409,-64892060.12287015 36601436.073997565,-72160931.2279709 45462480.993052945,-79061662.87948067 55313405.87622787,-85485158.90635903 66129652.353153884,-91320999.67167473 77874052.4185436,-96458728.61793676 90496480.6713089,-100789225.48963964 103933645.58973856,-104206154.95661674 118109031.78874773,-106607477.66858765 132933004.1282716,-107897009.12602669 148303083.25762227,-107986010.17883708 164104400.69118264,-106794791.48668338 180210339.8209195,-104254312.91799231 196483367.38850158,-100307757.65358506 212776057.87478712,-94912059.72045712 228932311.0305992,-88039362.83576015 244788760.38648787,-79678387.8141229 260176368.06013468,-69835685.4055465 274922198.55053,-58536751.307114005 288851361.4934648,-45826980.24880334 301789110.58122486,-31772436.508617163 313563083.0513705,-16460418.97935351 324005661.35809916,199.99999960320775" stroke="white" stroke-width="1.5" /></svg>