<?xml version="1.0" encoding="utf-8" ?>
<svg baseProfile="full" height="400" version="1.1" width="400" xmlns="http://www.w3.org/2000/svg" xmlns:ev="http://www.w3.org/2001/xml-events" xmlns:xlink="http://www.w3.org/1999/xlink"><defs /><rect fill="black" height="100%" width="100%" x="0" y="0" /><circle cx="200" cy="200" fill="yellow" r="10.01269286620035" stroke="orange" stroke-width="2" /><polyline fill="none" points="199.3389124802328,200.0 199.2649397190047,199.9614126930631 199.19128000130263,199.91485715460394 199.1187429178461,199.86018568545617 199.04817410847878,199.79733529452506 198.98044701791156,199.72633394613777 198.91645374882933,199.64730608739129 198.85709506554682,199.5604773382855 198.80326961552316,199.46617822998667 198.75586245027782,199.36484688072028 198.71573294142266,199.2570305046006 198.68370220145496,199.1433856562021 198.66054013245457,199.02467712288768 198.6469522387,198.90177538782967 198.64356635125804,198.7756525992692 198.6509194236071,198.64737699581707 198.6694445671171,198.51810575343453 198.69945850352582,198.3890762370555 198.74114961822053,198.26159565850745 198.79456680296366,198.13702916231478 198.85960927950774,198.01678638195983 198.93601759615555,197.90230653104592 199.02336598758643,197.7950421163368 199.12105628404802,197.6964413826044 199.22831354919427,197.6079296223439 199.34418361634465,197.53088950643476 199.46753268068434,197.46664061444713 199.59704908988903,197.4164183652034 199.73124745784312,197.3813525690882 199.86847520555932,197.36244584312465 200.00692161017537,197.36055214767072 200.14462941710872,197.3763557193954 200.2795090422412,197.41035068864596 200.4093553605742,197.4628216800818 200.53186704536776,197.53382570321875 200.64466838762644,197.6231756440009 200.74533349022838,197.73042566941737 200.83141269436038,197.8548588542624 200.9004610586052,197.9954773321741 200.9500686734448,198.15099526190016 200.9778925565477,198.31983488418197 200.98168983747303,198.50012592462213 200.95935190485503,198.6897085733574 200.90893915524418,198.8861402432971 200.82871595111598,199.0867062751702 200.71718536665043,199.28843471976822 200.57312327428653,199.4881152857556 200.3956113033011,199.6823224954913 200.1840681842799,199.867443041771 199.93827898085235,200.03970728563542 199.65842170292785,200.1952247798359 199.34509079435358,200.3300236447079 198.99931699281328,200.44009356364325 198.62258307126268,200.52143210469805 198.21683498854435,200.57009401380634 197.78448800227673,200.58224306432305 197.3284273298282,200.5542059879683 196.85200298324528,200.48252795450713 196.35901845139958,200.364029012518 195.85371295725102,200.1958608522488 195.34073707980215,199.97556320471637 194.82512159874238,199.7011191497509 194.31223949455355,199.37100857050805 193.8077611174655,198.98425896391566 193.31760262449706,198.5404927964235 192.84786787418116,198.03997058306143 192.4047840626268,197.48362886591158 191.99463148139523,196.87311227632182 191.62366787624248,196.21079888410478 191.298047984996,195.4998180670614 191.02373893150053,194.74406017581364 190.80643224941915,193.94817732238465 190.65145340338765,193.1175746863486 190.56366976421447,192.2583918096777 190.5473980780841,191.37747344047128 190.60631254562486,190.48232958624504 190.74335469380694,189.5810845489011 190.96064628051505,188.68241483523735 191.25940651690723,187.7954759680675 191.63987492497552,186.92981836270482 192.10124116580698,186.09529258055284 192.64158317671715,185.30194442449613 193.2578149416351,184.55990049819815 193.94564518792254,183.87924501162436 194.69954825343476,183.26988877631945 195.51274829947522,182.74143149423 196.37721795794522,182.3030186011299 197.28369239425027,181.96319407781098 198.2216996414224,181.7297507869109 199.1796079157245,181.60958002826982 200.14469046024726,181.60852212870398 201.10320828148625,181.73121999072663 202.04051094565997,181.98097761671977 202.94115538795322,182.35962569810255 203.78904246056604,182.86739641097932 204.56757070632972,183.50280958852008 205.25980659589857,184.26257244402103 205.8486702105901,185.14149499548503 206.31713509252873,186.13242329114655 206.64844072178914,187.22619245438193 206.82631581989017,188.4116014549271 206.83521042360502,189.67541137060505 206.66053442613992,191.00236872953852 206.28890004792532,192.37525531713985 205.7083654803001,193.77496559548499 204.90867674602777,195.18061261585933 203.88150464466375,196.5696630096106 202.62067350204882,197.918101319704 201.1223783253066,199.2006235877489 199.3853868812062,200.39085974141238 197.41122316995398,201.46162393816363 195.20432876150016,202.38519161676444 192.7721985000779,203.13360159182417 190.12548716737984,203.67898110347437 187.27808382754628,203.99389130857352 184.2471507595596,204.05169027696292 181.05312411577168,203.82691014160324 177.71967372962317,203.2956446506382 174.27361983104245,202.43594298847293 170.74480481378887,201.22820537788547 167.1659186336957,199.65557565216463 163.57227689824643,197.70432570144678 160.00155123332755,195.36422645691223 156.49345207874242,192.62889988625832 153.08936466581463,189.49614633962057 149.83193956307326,185.96824151229234 146.76463983380341,182.05219728420917 143.93124752565598,177.75998076074976 141.37533290038186,173.1086859789126 139.13969050328637,168.12065296063028 137.26574685884097,162.82352909341802 135.79294525218063,157.25026819941252 134.7581137066661,151.43906311791693 134.19482288568844,145.4332081736367 134.13274122257056,139.2808885316133 134.59699510578218,133.0348941480989 135.60754240771467,126.75225681076458 137.1785680340543,120.49380961703228 139.31791047766433,114.32366916009607 142.02652857654095,108.30864167127011 145.29801779104656,102.51755539639652 149.11818532311156,97.02052255371737 153.46469329209881,91.88813532026089 158.30677895214262,87.19060141175062 163.60506057871186,82.99682594462658 169.311437163825,79.37344738437953 175.36908943704316,76.3838364776108 181.71258897185842,74.08706812096707 188.2681212447436,72.53687712268595 194.9538274890083,71.78060974592356 201.6802690315682,71.85818377104698 208.35101652351176,72.80107056040713 214.8633650825697,74.63131323766831 221.1091748668485,77.3605955888294 226.9758350060289,80.98937663856007 232.3473471421455,85.506106039098 237.1055230924591,90.8865354165474 241.1312893590678,97.0931406390699 244.30608939277812,104.07466959285108 246.51337269302059,111.76582946626475 247.64015801338522,120.08712674378334 247.57865616711257,128.9448720945444 246.22793621317282,138.2313611041247 243.49561717683684,147.8252403426751 239.299565944945,157.5920665915601 233.56958060182154,167.38506517036353 226.24903726339417,177.04609122595176 217.29647745069275,186.40679557771824 206.68711224504682,195.2899942737984 194.4142189104471,203.51123842083152 180.49040537685298,210.8805781267105 164.9487179730786,217.2045115668468 147.84356809854114,222.288107277872 129.25145414634164,225.93728482936316 109.27145594971962,227.9612360577203 88.0254803304723,228.17496610276703 65.65823798843624,226.40193060513948 42.33693398864523,222.47674264102002 18.25065647612223,216.2479203316284 -6.390549028295652,207.5806436104637 -31.356929334514973,196.35948640451028 -56.40060348808265,182.49108852941063 -81.25747537795871,165.90672995543804 -105.6494775819504,146.56476881236787 -129.28714076724333,124.45290360682164 -151.87247853439254,99.59021966286835 -173.10217299326047,72.02897980028703 -192.671041634507,41.85611976610943 -210.27576126075638,9.194409960962844 -225.61881992217195,-25.796753425299073 -238.41266302053253,-62.92096261708758 -248.3839950660663,-101.94484983170452 -255.27819405719993,-142.5986049765317 -258.86379117237874,-184.5769843377263 -258.93696448394843,-227.54083069422688 -255.32599179659974,-271.1191203003812 -247.89560454676314,-314.911546663728 -236.55118204357387,-358.49164503482143 -221.24272325384624,-401.410455065228 -201.96853189742234,-443.2007122281241 -178.7785498861586,-483.38155139175433 -151.7772741659249,-521.4636984561246 -121.12619285680483,-556.9551182822444 -87.0456782760561,-589.3670793430717 -49.816277007452754,-618.2205876952072 -9.779340676961056,-643.0531351055953 32.66305447389996,-663.4256985691324 77.0489457515231,-678.9299211267523 122.85812013197186,-689.1953969486578 169.51458132615463,-693.8969771958052 216.3898726420646,-692.7620073278912 262.8072715123557,-685.577401401258 308.0468617708155,-672.1964546072661 351.35147924544054,-652.5452919500125 391.93351507067564,-626.6288486564617 428.9825494023268,-594.5362767508453 461.6737760544543,-556.445672299737 489.1771660895632,-512.6280192263349 510.6673057154991,-463.4502483730963 525.333831119432,-409.37731471944744 532.3923702565237,-350.97320138006717 531.0958892726028,-288.90076624806267 520.7463293482579,-223.92035591788357 500.70640848404565,-156.8871218185983 470.41145228499323,-88.74698528325786 429.38110833135545,-20.53121152817846 377.2307904258246,46.650432850409885 313.6826920669807,111.61794832496285 238.57620309180618,173.13078917829063 151.87755972669032,229.89894271979128 53.68855644646635,280.5953560957487 -55.74585178745181,323.8696460323754 -176.03122602337942,358.36300654875066 -306.61876308960626,382.7242090721655 -446.80201625095526,395.6265687166552 -595.7153650124783,395.78572999935614 -752.3343705090797,381.97810523602095 -915.4781386089207,353.0597795561025 -1083.8137960700437,307.985678198443 -1255.8631658665674,245.82877478656306 -1430.011706219365,165.7991039370436 -1604.5197540364532,67.26232812480382 -1777.5360875368594,-50.24240248962721 -1947.1137949797935,-186.98556728563415 -2111.228406866743,-343.0316454210083 -2267.798217981101,-518.2250179546272 -2414.7066934669865,-712.17768036184 -2549.826820148259,-924.2590400999111 -2671.047230804933,-1153.588066355487 -2776.299895541465,-1399.0280477540448 -2863.589141110888,-1659.1841985176136 -2931.0217265350766,-1932.4043342478058 -2976.8376720399137,-2216.782815158292 -2999.441508673662,-2510.1679272027077 -2997.4335884799307,-2810.1728402134436 -2969.6410702379508,-3114.1902470071473 -2915.148174049445,-3419.410748606059 -2833.3252799226716,-3722.845008508941 -2723.8564314468495,-4021.3496536177654 -2586.76479611215,-4311.656851342386 -2422.4356292330554,-4590.407441978846 -2231.6362891638937,-4854.187453157589 -2015.5328579030534,-5099.567769511583 -1775.7029335669906,-5323.146676298054 -1514.1441798229564,-5521.594941146545 -1233.2782423855765,-5691.703044069626 -935.9496742257586,-5830.430113068198 -625.419549254302,-5934.954071830023 -305.353488894525,-6002.722457923165 20.196122970568865,-6031.503325305922 346.8139039053299,-6019.435604702612 669.7513197077546,-5965.078260219905 983.962649368432,-5867.457551279278 1284.1470297205103,-5726.111686276719 1564.7964630607855,-5541.132139077266 1820.2495889947825,-5313.200892191861 2044.750936709018,-5043.622871897382 2232.515286657721,-4734.352851211093 2377.796682207603,-4388.016117002643 2474.961543132888,-4007.922228020566 2518.5652450806087,-3598.0712315220844 2503.431443385157,-3163.1517577150958 2424.7333371036725,-2708.5304734192628 2278.0759911125915,-2240.2324491695495 2059.578761821521,-1764.9120772267597 1765.9568068075907,-1289.8142712880287 1394.6006017338848,-822.7257816200221 943.6523405549108,-371.91657123200935 412.07805846129344,53.92868122647337 -200.2657075479653,445.7887588655436 -892.5719170424293,794.3934378524544 -1663.030877414444,1090.3199079089275 -2508.787124259243,1324.097475527066 -3425.906473635796,1486.3197996862816 -4409.354339011255,1567.7637658205942 -5452.986338801165,1559.5139612280502 -6549.552136286199,1453.091575904054 -7690.71335220545,1240.5864188739213 -8867.076271597198,914.7906135180012 -10068.239930802672,469.332418190532 -11282.86001851976,-101.19148728241692 -12498.728857187694,-801.0870007966369 -13702.871548841695,-1633.4387109664062 -14881.658174190401,-2599.993010964548 -16020.93172658396,-3701.0501396496097 -17106.151245547488,-4935.36709450463 -18122.54938969031,-6300.073356016656 -19055.30345833726,-7790.601333777205 -19889.718637654194,-9400.633389509607 -20611.422013054518,-11122.06721038877 -21206.56565816083,-12945.001196642865 -21662.036884601206,-14857.741390026937 -21965.673519622982,-16846.83130417019 -22106.48187319562,-18897.10582419306 -22074.854866306097,-20991.77012190076 -21862.787620912906,-23112.50428519432 -21464.087662906226,-25239.59408740067 -20874.576765758695,-27352.08802571468 -20092.28136758368,-29427.980439974606 -19117.60843115313,-31444.42018607929 -17953.503587980067,-33377.943985424885 -16605.588416518294,-35204.733206103825 -15082.27375327079,-36900.89245697192 -13394.846026185814,-38442.74799610784 -11557.523733831275,-39807.163575051876 -9587.4813727212,-40971.87096420979 -7504.838339597614,-41915.81203790415 -5332.610605702435,-42619.48894491237 -3096.6232758161136,-43065.31855729891 -825.382505212151,-43237.98708238561 1450.0943488160126,-43124.800445311615 3696.491019684059,-42716.025808318656 5878.447264597171,-42005.219393077314 7958.856116558597,-40989.535619303984 9899.202585706858,-39670.012471649905 11659.94236629371,-38051.82796209686 13200.918511034946,-36144.52257121683 14481.813425511726,-33962.18263251427 15462.632918380388,-31523.579773006688 16104.218425512214,-28852.261742917522 16368.782915464646,-25976.590259857934 16220.46538794374,-22929.721859402962 15625.898304569897,-19749.528184920408 14554.78175098798,-16478.4526643822 12980.457630041668,-13163.301109230211 10880.476736313783,-9854.96442772646 8237.151171749792,-6608.07236910103 5038.0842391331225,-3480.5780006748414 1276.6697034140773,-533.2734623512911 -3047.447851519845,2170.7615652621143 -7927.959913434104,4566.776309091448 -13351.53649382732,6589.026931362264 -19297.53232161928,8171.5118099834135 -25737.764713824025,9248.758742058222 -32636.370698748076,9756.657737587298 -39949.750489080485,9633.332078539777 -47626.60380377588,8820.039351255615 -55608.06481821865,7262.093231281024 -63827.940682712,4909.79592336167 -72213.05759219546,1719.3703498337945 -80683.71731932933,-2346.119547382769 -89154.26594439048,-7315.8726580645525 -97533.77523623088,-13210.49149694488 -105726.83576804902,-20041.17312537197 -113634.45940085169,-27808.963648110563 -121155.08724889431,-36504.08984254026 -128185.69766945024,-46105.38142678103 -134623.0072099568,-56579.79725115963 -140364.7558164247,-67882.06829520108 -145311.06597692615,-79954.46976292938 -149365.86386321706,-92726.73378749342 -152438.34896341822,-106116.11327883217 -154444.4971914425,-120027.60627432363 -155308.58103748638,-134354.34878357654 -154964.6890118082,-148978.18255867768 -153358.22545486002,-163770.40247691429 -150447.37076420052,-178592.6863036135 -146204.4812456698,-193298.20752040332 -140617.40715560588,-207732.92967391043 -133690.70708394249,-221737.07833951883 -125446.73665498296,-235146.78432495054 -115926.58961205742,-247795.8891824778 -105190.86972051988,-259517.90148262738 -93320.2725848049,-270148.08965475205 -80415.95744087831,-279525.6945516779 -66599.69026378942,-287496.2422796826 -52013.741126203226,-293913.93528604397 -36820.52065917328,-298644.0972504656 -21201.94269858252,-301565.6450212138 -5358.502743069681,-302573.558709884 10491.93530898137,-301581.3191487184 26115.648549971982,-298523.2802596738 41264.86159766807,-293356.94252265675 55679.847660565996,-286065.0926980287 69091.31768034601,-276657.7742905953 81223.08708030648,-265174.0529715415 91795.00549241071,-251683.54133108928 100526.13058286732,-236287.64794474034 107138.1227934577,-219120.5168226228 111358.83351328303,-200349.624893059 112926.05494676948,-180176.00726151397 111591.39580510836,-158834.08259264252 107124.24297865294,-136591.05408834034 99315.76560787449,-113745.86517444125 87982.91452220189,-90627.69315215766 72972.36692183088,-67593.96869966642 54164.36349965691,-45027.91419950293 31476.382999980546,-23335.599385985177 4866.597546961429,-2942.5187139756367 -25662.948994421076,15710.298901679716 -60063.49778583785,32170.6307925555 -98237.12480105858,45979.827747306495 -140034.74050926548,56677.976871975465 -185254.59455131443,63809.42225304265 -233641.33791436232,66928.5985863978 -284885.6916940615,65606.12603500119 -338624.7672779208,59435.10785892749 -394443.077685133,48037.56591946933 -451874.27386418334,31070.94309271862 -510403.63299774926,8234.596038173606 -569471.3183239587,-20723.803244132785 -628476.421695006,-56002.042967661975 -686781.7911115099,-97737.41367916824 -743719.6358589712,-146001.10907923084 -798597.8917087538,-200793.07939233052 -850707.3180196671,-262037.43179658864 -899329.2875885981,-329578.47195332573 -943744.2188623146,-403177.4790054572 -983240.5887606788,-482510.30348175066 -1017124.4530069429,-567165.8733032933 -1044729.3896552833,-656645.6875038993 -1065426.7705987964,-750364.3703276718 -1078636.255388377,-847651.3500490707 -1083836.3918546955,-947753.7171857224 -1080575.1989654903,-1049840.3057711748 -1068480.599233503,-1153007.029071914 -1047270.5609805228,-1256283.4876371366 -1016762.8050217663,-1358640.852947828 -976883.9260185297,-1459001.0142901062 -927677.776004727,-1556246.9599427453 -869312.9565642657,-1649234.3464862376 -802089.2669487695,-1736804.1921757557 -726442.9581920211,-1817796.6120558928 -642950.6480952748,-1891065.4940317904 -552331.758903731,-1955493.996665649 -455449.3486249467,-2010010.7312700017 -353309.2182876851,-2053606.4731628224 -247057.19101194805,-2085351.229987732 -137974.47453779078,-2104411.479045826 -27471.03679347011,-2110067.370900153 82923.05590618438,-2101729.6833674028 191568.36646239294,-2078956.298670347 296728.8850233707,-2041467.9672512317 396586.8766148586,-1989163.1147946306 489259.7306394973,-1922131.4446197015 572818.7364035973,-1840666.086003423 645309.6797800624,-1745274.0403940883 704775.1264249863,-1636684.6820522908 749278.2269596688,-1515856.0775701546 776927.8495614975,-1383978.9000940798 785904.8158517139,-1242477.729002037 774488.9872207558,-1093009.5443154166 741086.9212044264,-937459.2472686967 684259.7916408109,-777932.0641843519 602751.24253054,-616742.7200250801 495514.82422707794,-456401.3005917629 361740.64223225997,-299595.75812382373 200880.8338907104,-149171.05380728957 12673.477077235091,-8104.972121318029 -202835.47205363237,120519.31427990242 -445272.6176701268,233543.80473384587 -713920.3422386621,327769.1841346343 -1007703.1993262676,399991.0699827922 -1325177.8636915744,447038.7242455 -1664527.0025056899,465815.91266805306 -2023557.407151362,453343.54617867275 -2399702.69479988,406803.69235972146 -2790030.8528441126,323584.500288413 -3191256.8573301164,201325.54006873062 -3599760.5489086346,37963.0197860044 -4011609.8967368496,-168225.6918767229 -4422589.722490412,-418578.83881193545 -4828235.893576853,-714008.9720998809 -5223874.927235564,-1054964.2097457561 -5604668.876015441,-1441392.716465858 -5965665.290771075,-1872711.0622912762 -6301851.980525098,-2347777.1146657085 -6608216.210099992,-2864868.1062047826 -6879807.897193179,-3421664.498950007 -7111806.2914864365,-4015240.235465197 -7299589.540439265,-4642059.927253501 -7438806.470661912,-5297983.481586736 -7525449.8412853265,-5978278.608912093 -7555930.257664292,-6677641.584628994 -7527149.871208121,-7390226.561429136 -7436574.935278325,-8109683.64191223 -7282306.239068733,-8829205.826310286 -7063146.402312239,-9541584.847492764 -6778662.984624583,-10239275.795738136 -6429246.3453342095,-10914470.319940345 -6016161.183721785,-11559178.070999363 -5541590.696585502,-12165315.928288687 -5008672.310733657,-12724804.422587061 -4421523.98304851,-13229670.640114767 -3785260.1106857886,-13672156.76384885 -3105996.1591527555,-14044833.281720571 -2390841.1966514345,-14340715.76832339 -1647877.6192180098,-14553384.029154493 -886127.462675181,-14677102.285997674 -115504.82388246471,-14706938.98068674 653245.9453497696,-14638884.684031587 1408626.4538103733,-14469966.519004734 2138474.910907487,-14198357.444188973 2830071.027660394,-13823478.696746374 3470254.8267373815,-13346093.66545714 4045558.8129421086,-12768391.455261407 4542352.752529187,-12094058.416641148 4947000.102458983,-11328335.947367558 5246024.921474624,-10478062.931672208 5426287.886173843,-9551701.263632227 5475169.829684727,-8559343.008090883 5380761.020906158,-7512697.884102636 5132054.2114197025,-6425059.912740552 4719139.298084808,-5311252.252871772 4133397.2850063676,-4187549.4545973833 3367691.082049035,-3071576.589535966 2416550.5513802534,-1982184.9687153297 1276349.1116103826,-939304.4308731126 -54530.86617093556,36227.52555316438 -1575546.682074978,922859.1869315917 -3283860.7764331833,1698539.7457599326 -5174225.849579558,2340954.869035515 -7238892.381371804,2827781.146986238 -9467541.20500377,3136957.5154855778 -11847243.655894656,3246971.406424102 -14362451.64235915,3137157.046482932 -16995019.76983266,2788003.000653201 -19724261.39458511,2181465.747152874 -22527040.18654724,1301285.7799258009 -25377898.445074383,133302.46856902953 -28249223.037711326,-1334236.3317487126 -31111449.422411025,-3110374.131143089 -33933303.77089099,-5201159.491981964 -36682082.738173775,-7609378.048473503 -39323969.92472731,-10334307.428739836 -41824387.55746926,-13371499.670670358 -44148381.37924158,-16712595.688603373 -46261036.18878325,-20345176.254664537 -48127918.920801304,-24252653.80360468 -49715545.605015725,-28414209.151020348 -50991868.000991635,-32804776.93034238 -51926775.179513305,-37395083.20310902 -52492604.81878423,-42151738.27968381 -52664658.512721226,-47037387.30452159 -52421714.95699544,-52010920.61289953 -51746534.494264685,-57027745.25724241 -50626348.17120978,-62040118.43423239 -49053324.1943205,-66997542.823198706 -47025004.476414904,-71847223.07720514 -44544703.8487765,-76534581.89710893 -41621864.48123957,-81003833.27294874 -38272358.11059344,-85198609.60449763 -34518728.83167675,-89062638.52278978 -30390369.459991954,-92540464.33678138 -25923624.833155617,-95578208.1346992 -21161815.883518223,-98124359.68939155 -16155178.887193762,-100130593.46306093 -10960714.975622486,-101552600.19147104 -5641945.78342464,-102350924.76386067 -268571.9980308739,-102491800.41527396 5083967.4317201525,-101947968.62586766 10335036.584787125,-100699473.58987786 15399444.338522192,-98734419.68803148 20188185.352677986,-96049680.08342405 24609277.679212134,-92651544.37398294 28568693.0344399,-88556293.18528897 31971374.351375856,-83790687.68568286 34722333.783345126,-78392362.25982782 36727822.871187545,-72410108.99451055 37896565.13304196,-65904043.21729781 38141039.906146124,-58945640.08858092 37378804.88378205,-51617633.18288285 35533843.4674853,-44013767.105975635 32537921.815723088,-36238397.47849471 28331939.336349033,-28405933.069771107 22867255.362552483,-20640116.480998285 16106973.891551841,-13073141.545142291 8027167.572695681,-5844607.520687733 -1381978.3734329392,899687.8071502025 -12115121.921777671,7009111.857317048 -24150839.386883996,12329711.317982726 -37450839.470211886,16705867.741166418 -51959335.31728775,19982083.51074884 -67602593.00603871,22004884.657269467 -84288673.92755957,22624824.632057317 -101907387.27875838,21698570.831775144 -120330467.35982813,19091053.41407707 -139411988.55777106,14677653.798371702 -158989028.8041645,8346408.236444423 -178882589.92770246,200.00000021906823" stroke="white" stroke-width="1.5" /><circle cx="150.12137650011238" cy="203.4817980637104" fill="red" opacity="0.7" r="8.894183423086506" /></svg>