<?xml version="1.0" encoding="utf-8" ?>
<svg baseProfile="full" height="400" version="1.1" width="400" xmlns="http://www.w3.org/2000/svg" xmlns:ev="http://www.w3.org/2001/xml-events" xmlns:xlink="http://www.w3.org/1999/xlink"><defs /><rect fill="black" height="100%" width="100%" x="0" y="0" /><circle cx="200" cy="200" fill="yellow" r="20" stroke="orange" stroke-width="2" /><polyline fill="none" points="198.35957676687391,200.0 198.31622632490868,199.91160957367327 198.28129886725537,199.81905343621648 198.25547609733593,199.7232255846839 198.23936166911125,199.62512130426796 198.23346810597855,199.52583159389292 198.2382039659113,199.42653602851755 198.25386142863107,199.32849404226465 198.28060448711062,199.23303463507793 198.3184579303881,199.1415445254003 198.36729730733646,199.05545479220714 198.4268400615179,198.97622607142432 198.49663802540408,198.9053323941007 198.5760714579276,198.84424377645527 198.6643448024377,198.79440769482187 198.76048433257384,198.75722960129738 198.86333784128882,198.7340526582698 198.97157651321555,198.7261368916542 199.08369910278276,198.73463798328098 199.19803851998097,198.76058594213637 199.31277090253565,198.80486391171578 199.42592722756785,198.86818738629128 199.53540748776666,198.95108412207745 199.63899742685086,199.05387503979253 199.73438779688763,199.17665642263685 199.81919606613516,199.3192837179588 199.89099047079142,199.48135725157715 199.94731626770846,199.66221016062846 199.98572400815323,199.86089884369744 200.00379961548037,200.0761962156826 199.99919601257136,200.30658803921273 199.96966600856845,200.55027258436266 199.91309611928463,200.80516384387434 199.82754096221768,201.06889850207764 199.71125783587266,201.33884682228333 199.5627410646321,201.6121275797114 199.3807556652545,201.88562712520337 199.16436986975575,202.15602261928902 198.91298602246368,202.41980942695105 198.62636935693072,202.67333261102604 198.30467415162386,202.91282240703643 197.9484667623229,203.1344335048721 197.55874503435015,203.33428790368959 197.13695360947315,203.5085210463011 196.68499466086044,203.6533308788571 196.20523361505374,203.76502942151447 195.70049945270245,203.8400963767993 195.17407921986117,203.8752342453277 194.6297064289685,203.86742436427897 194.07154308310155,203.81398323338448 193.50415511853888,203.7126184470776 192.9324811287654,203.56148351071724 192.36179430741578,203.35923078432194 191.7976576277728,203.10506176987752 191.24587236170171,202.7987739388272 190.71242013059558,202.44080328559005 190.20339877420977,202.03226179159904 189.72495241925859,201.57496899304877 189.28319622731763,201.07147686486306 188.88413639982087,200.5250872638015 188.53358611557528,199.93986121549045 188.23707817198678,199.32061938372968 187.99977519377748,198.67293312581236 187.82637836101537,198.0031056147789 187.72103569037145,197.3181425983347 187.6872509782463,196.62571246427362 187.72779458034654,195.93409539317196 187.84461725802993,195.25212150019792 188.03876836590334,194.58909799829323 188.31031968642048,193.95472555372686 188.65829623433893,193.35900415093124 189.08061535569271,192.81212893527123 189.57403543137238,192.32437665846822 190.13411546356383,191.9059835101574 190.75518677341762,191.56701527869566 191.43033796981683,191.3172309429387 192.15141426158561,191.1659409522227 192.90903207874987,191.1218616020791 193.692609842565,191.19296705605944 194.49041557924784,191.38634069717773 195.28963190922522,191.70802761357953 196.0764387630417,192.1628901298122 196.8361139779269,192.75446838520688 197.55315171675494,193.48484803215786 198.21139842536493,194.35453717734802 198.79420580685667,195.36235471618622 199.28460004470327,196.50533221301436 199.6654662527749,197.77863145530748 199.91974687233218,199.17547975765262 200.03065247664716,200.6871250095165 199.98188318628135,202.302812348757 199.75785864551378,204.00978419985833 199.34395426645432,205.7933052416887 198.72674121560522,207.63671366426294 197.89422740174552,209.52149983801627 196.8360965277616,211.42741325333546 195.54394209618516,213.33259829386435 194.01149311244507,215.2137590861581 192.23482811482478,217.04635332279938 190.21257407932194,218.80481458877932 187.94608670434076,220.46280233487644 185.43960857745074,221.99347824049943 182.70040176707585,223.3698072959572 179.73885146832774,224.56488151476862 176.56853746625546,225.55226376517788 173.20627036307835,226.30634879160692 169.67208974951427,226.8027380867564 165.98922178457627,227.01862487912905 162.1839939830415,226.93318512476145 158.2857053944214,226.5279700419244 154.32645079023467,225.78729540958568 150.3408979555448,224.69862257061985 146.3660177032192,223.25292584513753 142.44076679158795,221.4450408737819 138.6057245237946,219.27398828106664 134.9026844350817,216.74326698015122 131.37420312675084,213.86111143782037 128.06310897611112,210.6407072863037 125.01197413325124,207.10035981081967 122.26255390018696,203.26361006156858 119.85519826755284,199.1592936387914 117.82824104971424,194.82153758108473 116.21737270177589,190.28969125114898 115.05500351189754,185.60818765928096 114.36962442983327,180.82633229192479 114.18517330777601,175.99801721807324 114.52041478250608,171.18135902675118 115.38834240870206,166.43825999951792 116.79561195251186,161.83389283703093 118.74201496291245,157.43611023113337 121.2200018473282,153.31478159541734 124.21426367942054,149.54106032834585 127.70138185367264,146.18658607324244 131.64955446711102,143.3226275471692 136.01840794803311,141.01917262329656 140.75890196097873,139.34397345531391 145.8133349937813,138.3615555134184 151.11545727522412,138.1322004444723 156.5906967810564,138.71091365851888 162.15650306403788,140.14638846409693 167.7228124941998,142.47997940960744 173.19263722439464,145.7446982212548 178.4627788111327,149.96424634388217 183.42466593125695,155.15209857382038 187.96531405273382,161.31065260776015 191.96840325619993,168.4304595045612 195.31546867825793,176.4895500548355 197.88719627503653,185.45287186438173 199.5648148041377,195.2718515719632 200.2315731153096,205.88409603111222 199.774290047001,217.21324548322488 198.08496247066063,229.1689907309845 195.062415331609,241.64726508534244 190.61397592976732,254.53062040667533 184.65715319130604,267.6887948948999 177.1213013295272,280.9794784106923 167.9492461061929,294.2492790399606 157.09885090890737,307.3348923589256 144.5444990812758,320.0644724332105 130.2784684045896,332.25920101007307 114.31217335555876,343.73504866029145 96.67725077520042,354.3047188202455 77.42646489833852,363.7797628034276 56.63440832770485,371.97285092475045 34.39797650491295,378.7001819440167 10.836594542894943,383.7840101225696 -13.907823052521593,387.0552663373354 -39.671197227587925,388.3562469488336 -66.2679088790361,387.5433415153036 -93.4917353777468,384.4897680258623 -121.11710843876739,379.08828213406434 -148.90069928783015,371.25382495190945 -176.58333340385298,360.92607235520927 -203.8922331721289,348.0718474952424 -230.5435825947332,332.6873573480509 -256.2454038088805,314.80021369858747 -280.70073060137554,294.47119898639505 -303.611059423477,271.79573796324445 -324.68005365557417,246.90503715778374 -343.6174720995393,219.96685572963338 -360.1432879465543,191.18587344214234 -373.99195984145103,160.80362419988933 -384.9168122054383,129.09796688843096 -392.69447775433594,96.3820691172479 -397.129351227317,63.00288389259279 -398.0579997907589,29.339104217595235 -395.35347247213735,-4.201413892803458 -388.9294483782563,-37.184763518241795 -378.74416142688165,-69.154631176274 -364.8040379347648,-99.63646370357748 -347.1669827182278,-128.14214082549478 -325.94524943024226,-154.17512914463828 -301.3078317300085,-177.2360856644343 -273.4823136004667,-196.82887123536887 -242.75611973126104,-212.46692655866173 -209.4771103962579,-223.67995569908896 -174.05346969296295,-230.02085454586847 -136.952841382965,-231.07281442281345 -98.70067287358279,-226.45652419480928 -59.877735095028186,-215.83738785803638 -21.116794126054117,-198.93266884845792 16.901580637259144,-175.5184672691666 53.45407724500609,-145.43643203297307 87.7805659147363,-108.60010665001556 119.09087164786116,-65.00080516458502 146.57236704727814,-14.712913658279746 169.39834557640887,42.10148712234508 186.73712312012404,105.18878100561216 197.7618031475787,174.20085766586487 201.66062817990098,248.69313182610802 197.6478277862197,328.12363055011883 184.9748611328063,411.8532315336265 162.94194036269008,499.1471265389108 130.9097099633419,589.1775738424978 88.31094696826838,681.0279918082772 34.66213751702364,773.6984325052345 -30.42522285055091,866.1124597282114 -107.23376458606754,957.1254399408868 -195.92997989893178,1045.5342376544013 -296.55472715867245,1130.088288715714 -409.014673913892,1209.5020060623342 -533.0748482286323,1282.4684528809616 -668.3524656276406,1347.6741979838985 -814.3121942905843,1403.8152478053341 -970.2630141494394,1449.613928954524 -1135.356816153645,1483.836574995392 -1308.5888761299232,1505.311851317576 -1488.8003233613247,1512.9495328998526 -1674.6827072560313,1505.759531729921 -1864.7847463144735,1482.8709539278184 -2057.52132211143,1443.5509515203728 -2251.184757298278,1387.2231206269328 -2443.958390846592,1313.4851868345384 -2633.9324360794144,1222.1257100479265 -2819.122077688442,1113.1395353686275 -2997.4877331673224,986.7417138442886 -3166.957372190727,843.3796174700583 -3325.4507547569247,683.7429768295726 -3470.9054157409496,508.7715774161195 -3601.3041902579994,319.6603621239765 -3714.7040413208765,117.86170275734672 -3809.26591912295,-94.91537725898365 -3883.2853503402007,-316.7092234420654 -3935.2234265889774,-545.3129812369535 -3963.737834076329,-778.2855733438281 -3967.713542019106,-1012.9663242869476 -3946.292746067451,-1246.4932945094342 -3898.903645222289,-1475.8253442997477 -3825.2876170464715,-1697.7679028133032 -3725.5243467774426,-1909.0023697012412 -3600.0544616713323,-2106.119026810448 -3449.699222926283,-2285.653285543135 -3275.6768341893553,-2444.125042284211 -3079.614938240389,-2578.0808603932455 -2863.5588922096504,-2684.1386432385493 -2629.975436803031,-2759.0344092866935 -2381.751406592835,-2799.670728055262 -2122.187166523863,-2803.1663255230865 -1854.9845043453538,-2766.9063201285394 -1584.228759588593,-2688.5925065475267 -1314.3650267597022,-2566.2930648115716 -1050.1683333082954,-2398.4910377835886 -796.7077612748492,-2184.1308913259045 -559.3045548274406,-1922.6624494207922 -343.48433359254113,-1614.081481755319 -154.92361309210747,-1258.966214533812 0.6090820431621466,-858.5090371532233 117.31713995974648,-414.5426884216257 189.44435882351019,70.43977330320325 211.34747190664265,593.2718809421712 177.57206616987585,1150.108174311169 82.9311752261741,1736.4266927693168 -77.41425392546694,2347.040054993159 -307.873898005637,2976.115563312488 -612.3465472486756,3617.204687077288 -994.1395609437282,4263.282186592649 -1455.890357690106,4906.795036747971 -1999.4910556925615,5539.721198218748 -2626.017414011702,6153.638164822875 -3335.6632493439247,6739.801089218087 -4127.681513538736,7289.230156725641 -5000.333213665545,7792.806739904804 -5950.845338119771,8241.377725970802 -6975.3789182370665,8625.867266766621 -8069.008304536836,8937.395058414979 -9225.712669575545,9167.400116751396 -10438.380665165994,9307.768877030028 -11698.829060315315,9350.96631414265 -12997.836067763137,9290.168654702322 -14325.189931792449,9119.39613686175 -15669.753198599417,8833.644169731277 -17019.542923747973,8429.011153793484 -18361.82689014037,7902.82114881328 -19683.235715804567,7253.739518389422 -20969.89052517047,6481.879642372657 -22207.545642170575,5588.898771661643 -23381.745540486027,4578.081106008814 -24477.99505782313,3454.4062058763125 -25481.941649730412,2224.6009053269627 -26379.568226833435,897.1729754306275 -27157.394890335796,-517.5751025357197 -27802.687657236977,-2007.5537572535181 -28303.672052106154,-3558.916678574698 -28649.74923968239,-5156.11504426149 -28831.712185377393,-6781.976546354927 -28841.95916228989,-8417.809894637414 -28674.701776954666,-10043.53520307155 -28326.16456504621,-11637.840370275291 -27794.773115835094,-13178.363249143807 -27081.32762342946,-14641.899066164255 -26189.158736589077,-16004.63220071075 -25124.262589825532,-17242.39107195535 -23895.411948943292,-18330.924509669923 -22514.240496157916,-19246.197609159623 -20995.297415087098,-19964.704694227694 -19356.069615455144,-20463.796640081713 -17616.969162023943,-20722.019445374615 -15801.283742292595,-20719.4605942641 -13935.088322567328,-20438.09942076545 -12047.116501195336,-19862.157384176575 -10168.590469566152,-18978.443891427447 -8333.00893376693,-17776.693065288586 -6575.892829744591,-16249.886661827208 -4934.489179030977,-14394.558191528342 -3447.4339764220126,-12211.073201071664 -2154.3755707169967,-9703.880631539587 -1095.560589331679,-6881.7301881065705 -311.3850613011609,-3757.850739831393 158.08599568532037,-350.08491931419826 273.62664713189554,3319.024686668453 -2.6187087968289404,7222.202070926501 -706.5859843592468,11327.461012537373 -1871.7295733313736,15598.188464426978 -3528.4542186309104,19993.291116134114 -5703.547237026928,24467.407540708085 -8419.618203639115,28971.187680169478 -11694.553582348317,33451.640703791534 -15540.99410422433,37852.551492183775 -19965.842936180703,42114.96516341152 -24969.81283822224,46177.73817186039 -30547.020572292684,49978.15358399837 -36684.636791925645,53452.59717638219 -43362.599503480626,56537.29001996797 -50553.39894142039,59169.07222171632 -58221.941337586504,61286.231501195994 -66325.49858462361,62829.36929873626 -74813.7501946949,63742.29615566178 -83628.92323589716,63972.94718985432 -92706.03509124652,63474.30762532419 -101973.24293122346,62205.337536923245 -111352.30272471593,60131.88425520599 -120759.13944053459,57227.57025611021 -130104.52881993387,53474.64384970745 -139294.88973895396,48864.77959548552 -148233.18473882994,43399.81512156418 -156819.92479579707,37092.410924171076 -164954.27284271826,29966.61978285489 -172535.23895989324,22058.35265630179 -179462.9585387202,13415.72833175993 -185640.043108278,4099.294694897457 -190972.9919215416,-5817.889728551872 -195373.65084599346,-16250.324329742245 -198760.70361491095,-27100.294269864855 -201061.17909338075,-38258.26546132319 -202211.95692035573,-49603.4529540951 -202161.25272819592,-61004.56726755286 -200870.06313749438,-72320.74129830516 -198313.54990053936,-83402.63836429374 -194482.34194369224,-94093.73972939666 -189383.7336586258,-104231.80760900497 -183042.75763453636,-113650.5172060086 -175503.11012645878,-122181.24879170855 -166827.907934708,-129655.02825320889 -157100.25604127056,-135904.60190631502 -146423.6063215592,-140766.62875136937 -134921.88893271747,-144083.9707616416 -122739.39957716431,-145708.0592741282 -110040.42775377091,-145501.3131370124 -97008.61333606605,-143339.5819933751 -83846.02135075316,-139114.5859850644 -70771.92765929768,-132736.32128165825 -58021.31135532077,-124135.39921535338 -45843.05306089029,-113265.28547054391 -34497.841911114636,-100104.4047728382 -24255.79782975685,-84658.0758810823 -15393.819685114191,-66960.24143941588 -8192.674037419012,-47074.95742456117 -2933.8434040473903,-25097.607552010657 103.84276908920357,-1155.8091065804097 647.7669825255567,24590.021744808866 -1564.759245886182,51946.47500345977 -6782.655855536575,80687.34948956389 -15237.15192470093,110554.27720838317 -27137.823910492407,141257.78991642702 -42668.64119584367,172478.84424294255 -61984.068735843706,203870.81711334543 -85205.2792238383,235061.97815724058 -112416.52934987324,265658.44029789936 -143661.75634148758,295247.58385150536 -178941.45200385904,323401.9432614752 -218209.87186024192,349683.5391095033 -261372.6366870575,373648.63134354464 -308284.78269802296,394852.86281147535 -358749.3148226491,412856.7552638688 -412516.3149167773,427231.5130704553 -469282.65331609553,437565.08306973404 -528692.3478849164,443468.4123303841 -590337.6096197603,444581.8392419811 -653760.6079476554,440581.5473688152 -718455.9821306791,431186.0059938047 -783874.1176812092,416162.3163505716 -849425.1984470843,395332.37829006906 -914484.0360963512,368578.78865259985 -978395.6691820594,335850.3800113549 -1040481.7138765167,297167.30681083497 -1100047.43792026,252625.58532725796 -1156389.5184351818,202400.99440610592 -1208804.433115076,146752.2456527606 -1256597.4230534148,86023.33472444754 -1299091.9542291868,20644.989642145145 -1335639.5935880644,-48864.86235640879 -1365630.2048762618,-121901.68094744693 -1388502.3590627776,-197776.01505087313 -1403753.8444812205,-275716.37492160045 -1410952.1528971728,-354873.3165997556 -1409744.8097246243,-434324.76908721274 -1399869.4097372168,-513082.62119120633 -1381163.2140071746,-590100.5704390735 -1353572.1596108256,-664283.2209278597 -1317159.1310120632,-734496.4005549427 -1272111.3411116237,-799578.6509260398 -1218746.6708557573,-858353.8255197591 -1157518.819145134,-909644.7135854319 -1089021.1196666262,-952287.5889623949 -1013988.8882643968,-985147.5647500302 -933300.173625082,-1007134.6167567895 -847974.7954076137,-1017220.121155548 -759171.5675054912,-1014453.7350217104 -668183.6198689067,-997980.4326899811 -576431.7501841738,-967057.4963968634 -485455.75663113635,-921071.2467464556 -396903.724803077,-859553.2874082411 -312519.26553819625,-782196.0293891837 -234126.72570119833,-688867.2534663728 -163614.42066416887,-579623.465163014 -102915.96512862839,-454721.7952190073 -53989.8077395678,-314630.2000554939 -18797.104368589367,-160035.72143631754 721.9053361052281,8149.427454069443 2672.823871616888,188784.1708499893 -14766.899221900174,380497.48052536044 -53321.13539638062,581690.0750236657 -114587.69715543983,790539.0737071907 -200010.71476193532,1005005.7456782438 -310853.0976703046,1222846.464504674 -448169.429703656,1441626.9472321286 -612779.6650008201,1658739.8205669017 -805244.0064039414,1871425.518594583 -1025839.3588370198,2076796.4752501075 -1274537.7569507186,2271864.53130343 -1550987.1685191027,2453571.4302652557 -1854495.0724372435,2618822.2307784054 -2184015.202395978,2764521.415233022 -2538137.834151176,2887611.426050339 -2915083.975565922,2985113.3128955583 -3312703.7941408074,3054169.1266066153 -3728479.586485259,3092085.6495061833 -4159533.5581049668,3096379.007657828 -4602640.640051035,3064819.669222728 -5054246.521526291,2995477.2950622025 -5510491.024691335,2886764.8738175244 -5967236.889948526,2737481.54457484 -6420103.977290322,2546853.4865763267 -6864508.8223366365,2314572.237926212 -7295709.415006871,2040829.7944940403 -7708854.995001798,1726349.8368219445 -8099040.5821227385,1372414.4373338488 -8461365.881715354,980885.6129939299 -8790998.127057469,554221.1101693596 -9083238.342236904,95483.83913730184 -9333590.431978714,-391655.5843378908 -9537832.43001528,-902923.6835160303 -9692089.16603112,-1433456.7855802923 -9792905.544065902,-1977821.8730188077 -9837319.563657137,-2530045.910255875 -9822934.160084715,-3083653.848201139 -9747986.892975282,-3631715.4149983805 -9611416.474341916,-4166900.699199575 -9412925.098951757,-4681544.422621828 -9153035.522743888,-5167718.685155344 -8833141.829821575,-5617313.843809426 -8455552.836175587,-6022127.064466102 -8023527.099530786,-6373957.958444185 -7541298.540184856,-6664710.588456765 -7014091.727949537,-6886501.001388549 -6448125.95566157,-7031769.320123125 -5850607.3004165,-7093395.30511329 -5229707.969702749,-7064816.180256334 -4594532.340821714,-6940145.408728555 -3955069.22799289,-6714291.004575498 -3322130.051798216,-6383071.876909044 -2707272.739313739,-5943330.62735171 -2122711.349407181,-5393041.159707235 -1581211.5950090084,-4731409.41545754 -1095972.6212336214,-3958965.5212434074 -680495.5933706873,-3077645.6265361947 -348439.8500849293,-2090861.7226298414 -113467.58257837291,-1003557.7691456887 10921.792310694369,177749.4875412861 11566.190519737322,1444946.537314205 -124177.22718213288,2788317.3973281155 -408244.56467177224,4196557.465874951 -851674.0851051334,5656808.077325223 -1464413.6309714117,7154712.715076841 -2255128.8716881056,8674495.634122439 -3231014.824916223,10199063.416403132 -4397613.221059749,11710129.73188781 -5758638.379992302,13188363.30791157 -7315814.342109459,14613558.82078172 -9068726.039640512,15964830.119346002 -11014687.306281202,17220824.87288948 -13148628.501337374,18359959.408413727 -15463006.466712888,19360672.168501973 -17947739.439523496,20201693.884261865 -20590169.408556625,20862332.222296957 -23375054.22826406,21322768.3345069 -26284591.58898896,21564362.419257767 -29298476.686635077,21569965.096711032 -32393995.139458314,21324231.11465462 -35546152.365105145,20813931.638884835 -38727840.25895961,20028261.14892256 -41910041.60744398,18959134.760472115 -45062072.22980759,17601471.6352737 -48151860.37246565,15953460.021473806 -51146262.384938546,14016799.39767186 -54011413.19038959,11796915.175476667 -56713109.53163433,9303141.452390568 -59217223.430875555,6548867.402389866 -61490142.75432011,3551643.0484115006 -63499235.22780013,333240.3812504645 -65213331.71343087,-3080333.925378865 -66603224.037493624,-6658877.6028526705 -67642172.16366981,-10368086.66114612 -68306415.04124221,-14169706.548439743 -68575679.0328134,-18021742.552214947 -68433677.4484034,-21878730.79117984 -67868594.39034335,-25692070.483938362 -66873545.853892654,-29410417.46391788 -65447010.839434154,-32980138.146073982 -63593225.12048192,-36345822.345601656 -61322530.28418396,-39450852.50956172 -58651670.72346251,-42238026.05714458 -55604031.41766862,-44650226.64224525 -52209809.59606803,-46631139.26300689 -48506113.73906714,-48126003.25753862 -44536983.83829906,-49082396.35443787 -40353327.409735076,-49451042.102818325 -36012766.43397158,-49186632.20161114 -31579391.18337736,-48248654.494513564 -27123417.784268018,-46602216.70802295 -22720747.349449035,-44218855.39830333 -18452425.59675879,-41077319.05107643 -14404003.035354562,-37164313.85971197 -10664797.0447543,-32475200.402439002 -7327058.481680626,-27014629.26141415 -4485046.814819537,-20797103.585108332 -2234019.194323085,-13847456.700599426 -669140.296621459,-6201233.142586591 115678.77023043236,2095038.111796912 29002.77704006005,10983688.823161464 -1016855.2376209659,20395884.944171503 -3104524.007494957,30251737.271679025 -6310240.321247518,40460557.111405216 -10702506.582992375,50921263.48928597 -16340755.802773187,61522946.996081896 -23274041.159593638,72145593.74399784 -31539768.123244166,82660971.15528415 -41162487.797652446,92933675.40487619 -52152770.63809669,102822338.31619294 -64506179.978859924,112180989.37833382 -78202364.86936721,120860566.33303852 -93204291.53997417,128710565.49288711 -109457632.38947557,135580820.62197858 -126890330.69365934,141323396.86309633 -145412358.26865405,145794583.85894462 -164915682.07832268,148856969.9194838 -185274454.2481493,150381576.86372128 -206345438.13923588,150250033.04526913 -227968681.04860482,148356760.08970526 -249968441.74346516,144611147.06232446 -272154378.4184662,138939684.18110847 -294322999.80157924,131288026.82555278 -316259379.0451353,121622959.50023316 -337739126.7472194,109934228.62463385 -358530615.98233247,96236212.56788489 -378397448.6104808,80569397.25675203 -397101148.41586596,63001625.98287067 -414404062.8392244,43629092.74312276 -430072451.2539883,22577049.58386002 -443879733.9415126,200.00000054359614" stroke="white" stroke-width="1.5" /><circle cx="154.10328460079143" cy="219.83662056813236" fill="red" opacity="0.7" r="14.854497299884601" /></svg>