<?xml version="1.0" encoding="utf-8" ?>
<svg baseProfile="full" height="400" version="1.1" width="400" xmlns="http://www.w3.org/2000/svg" xmlns:ev="http://www.w3.org/2001/xml-events" xmlns:xlink="http://www.w3.org/1999/xlink"><defs /><rect fill="black" height="100%" width="100%" x="0" y="0" /><circle cx="200" cy="200" fill="yellow" r="10.00114451503023" stroke="orange" stroke-width="2" /><polyline fill="none" points="199.54977511740933,200.0 199.470530551963,199.97220527263772 199.3899249345256,199.9357706906428 199.30878288144785,199.8903361464113 199.22798804615553,199.83562164399734 199.14847598584922,199.77143589316543 199.07122590163368,199.69768436711536 198.9972512792765,199.61437668744156 198.92758947329136,199.52163319911125 198.86329029304196,199.41969059912134 198.8054036659059,199.30890648512698 198.7549664690416,199.1897626948042 198.71298863777128,199.06286731308685 198.68043867482282,198.9289552327515 198.65822870044374,198.7888871641377 198.6471991984855,198.64364700209524 198.6481036277224,198.49433747251686 198.66159308067753,198.3421739970073 198.68820118384085,198.1884767322767 198.72832944314155,198.03466076063378 198.78223324664805,197.88222442935904 198.85000874248283,197.73273585960476 198.93158081364783,197.58781766960757 199.0266923726516,197.44912998220042 199.13489519733417,197.31835181262514 199.25554252493427,197.19716095921154 199.38778361410166,197.0872125463059 199.53056047411403,196.99011639558628 199.68260694693575,196.90741342825766 199.84245031091334,196.8405513262191 200.00841555482978,196.79085970477306 200.1786324477735,196.75952507241934 200.3510455038928,196.74756587436102 200.5234269117198,196.75580793515337 200.6933924655283,196.78486063206773 200.85842050134363,196.83509414383633 201.01587380301132,196.90661812912847 201.16302440445716,196.99926219503143 201.2970811732852,197.11255851764673 201.4152200185581,197.24572697436727 201.51461652242315,197.3976631402113 201.59248075166613,197.56692948853316 201.64609396180975,197.75175011933354 201.6728468635708,197.95000931612674 201.6702790799291,198.15925420482193 201.63611938233927,198.37670175532963 201.56832625735538,198.59925032867014 201.4651283207598,198.82349592936242 201.32506406583082,199.04575327500385 201.14702040627049,199.26208174248583 200.93026945316342,199.46831619356797 200.6745029497455,199.6601026219787 200.3798637782904,199.8329385003181 200.04697395060532,199.9822176383787 199.67695849794057,200.10327929571966 199.27146468798878,200.19146122113935 198.8326760164326,200.24215622087138 198.36332044848456,200.25087178671808 197.86667242224368,200.2132922458249 197.3465481705852,200.12534282632922 196.80729397171262,199.98325496866127 196.25376700033934,199.78363215183998 195.69130852152873,199.52351544870984 195.1257092471836,199.20044797473713 194.5631667605976,198.81253735274092 194.0102350068013,198.3585152817805 193.47376594496555,197.83779327331763 192.96084356305607,197.25051360264342 192.47871056333355,196.59759451925805 192.03468813911505,195.88076876719487 191.6360893772924,195.10261448588048 191.29012693617221,194.2665775945912 191.00381576289902,193.3769848093679 190.78387172758997,192.43904650070664 190.63660716082657,191.45884867362426 190.56782438572236,190.4433334388255 190.58270843378995,189.4002674445088 190.68572022360115,188.33819785250898 190.8804915611067,187.26639556945713 191.16972338879722,186.1947855827215 191.55508876602207,185.13386440115787 192.03714210316986,184.09460476102328 192.61523619656091,183.08834792647232 193.28744861742223,182.12668409034202 194.0505189959456,181.22132156273193 194.89979870906149,180.38394562030368 195.82921442725274,179.6260680762015 196.83124690075044,178.9588688168018 197.89692626827514,178.3930307347807 199.01584505183502,177.93856966575487 200.17618985895126,177.6046611054276 201.3647926493117,177.39946564309804 202.5672022368123,177.3299551928813 203.76777649109667,177.401742233317 204.94979547622395,177.618914376535 206.0955955194891,177.98387667715363 207.18672394251658,178.4972041560679 208.2041139116998,179.15750705282062 209.12827857834233,179.96131133009004 209.93952338325568,180.90295693292867 210.6181750991654,181.97451625194844 211.1448258804334,183.1657351521563 211.5005902869358,184.46399880640368 211.66737295128675,185.85432441359632 211.62814427000745,187.3193826864682 211.36722122390435,188.83954976184717 210.8705501751521,190.3929909183611 210.12598825276166,191.95577718337057 209.1235797286514,193.50203557398174 207.8558236078046,195.00413334822127 206.3179285122681,196.43289624429565 204.50805083415912,197.75786026129933 202.42751207132065,198.94755608729088 200.08099124445175,199.96982481435433 197.47668832974975,200.79216309964812 194.62645472924643,201.38209544153065 191.54588694455552,201.70757074611294 188.25437982058756,201.73737986791403 184.77513598528085,201.44159032493266 181.13512843023642,200.79199391997298 177.3650135553406,199.7625625532967 173.49899243728476,198.32990709362886 169.57461857583425,196.47373379234588 165.63255092044466,194.17729238647442 161.71625158021146,191.42780974703197 157.87162826816262,188.21690269719096 154.1466222216885,184.5409634564597 150.59074306872026,180.4015110689053 147.25455286754783,175.80550215131757 144.18910232950543,170.7655943564907 141.4453230299875,165.30035609220042 139.07338021546832,159.4344162719354 137.12199161281467,153.19854820210526 135.63771843201897,146.62968213444734 134.66423551386077,139.77084153279577 134.2415882988268,132.6709987202551 134.4054449714792,125.38484628490257 135.18635275379327,117.97248142696249 136.609007870151,110.49900132414488 138.69154917415207,103.03400856935039 141.4448858019001,95.65102678967156 144.87206948705136,88.42682767961378 148.96772232935461,81.44067186537038 153.71753084106885,74.77346725010258 159.09781699582032,68.50684976044968 165.0751967645271,62.72219270861598 171.60633623657228,57.499552287835996 178.63781488644054,52.91655801623625 186.10610485309863,49.04725821850627 193.93767424972873,45.960931869012626 202.0492215150949,43.72087929596162 210.3480466568581,42.383205345426234 218.73256392564764,41.995609607682866 227.09295900286475,42.596199197451085 235.3119921934993,44.212340335584514 243.2659473983744,46.85956558418172 250.82572481116355,50.54055402231316 257.858073359513,55.2442018988358 264.2269569040865,60.94480134655143 269.7950461439774,67.6013445741446 274.4253260733772,75.15697055657671 277.98280671626213,83.53857061056416 280.33632275853773,92.6565683613496 281.3604056275044,102.40488847464577 280.9372095649396,112.6611271406064 278.9584713318966,123.28693565513912 275.32748140060255,134.12862655120978 269.9610428621989,145.018009595717 262.79139283917476,155.77346259624264 253.7680599686405,166.20123937034288 242.85963054680786,176.09701443549176 230.0553952248828,185.247661001515 215.36684774918558,193.43325571420093 198.8290071689319,200.42930033721655 180.5015352165539,206.0091472014688 160.46962121771287,209.94661183193784 138.84460792797842,212.01875272021985 115.76433313353573,212.00879478784117 91.39316370315994,209.70916972467322 65.92170104241839,204.92464313448426 39.566139578313965,197.47549532351562 12.567262987559445,187.2007196769581 -14.810933636501375,173.96119993201202 -42.28300362150148,157.64282532471316 -69.54419428211014,138.15950061030182 -96.2729773903406,115.4560063819132 -122.13395888343342,89.5106639863231 -146.78115704639316,60.33775870246021 -169.86163310260525,27.989674749292135 -191.01945268699353,-7.441303838503245 -209.89995111943472,-45.82157135358926 -226.15426980418044,-86.97520075890213 -239.44412552105035,-130.68340705491528 -249.44676891751203,-176.68451147346968 -255.86008323218323,-224.67444060554357 -258.4077692574538,-274.30779020387246 -256.8445578613864,-325.19947837254006 -250.9613871176141,-376.92700718277354 -240.5904773176208,-429.03334546462565 -225.61023394280983,-481.030438654965 -205.9499061325654,-532.4033441798313 -181.593926374666,-582.6149829701772 -152.5858561373774,-631.1114894203789 -119.03186202465514,-677.3281334742553 -81.10364782703783,-720.6957796486726 -39.04076961344782,-760.6478387735912 6.847736193191309,-796.6276591417233 56.18247795687259,-828.0962947300375 108.51364844767068,-854.5405792952886 163.32183416926594,-875.4814265781579 220.01974250219945,-890.4822687017347 277.9548865718965,-899.1575372493148 336.4132585065099,-901.1810845850948 394.62401150495,-896.2944368709807 451.7651599505273,-884.3147650637236 506.97029475655876,-865.1424560762068 559.3362983092097,-838.7681633777606 607.9320298873167,-805.2792147065328 651.8079384125565,-764.8652543800415 690.0065449540289,-717.8229990148883 721.5737227318401,-664.5599883881251 745.5706876003736,-605.5972177615803 761.0865973216588,-541.5705443010512 767.2516435513381,-473.2307682915492 763.2505065521198,-401.442299695153 748.3360294274552,-327.1803322159535 721.8429563418543,-251.52646040123602 683.2015679771855,-175.66269037028468 631.9510375801481,-100.86381144810821 567.7523225968437,-28.488114192572624 490.400400272405,40.03354008506619 399.8356509162644,103.21027234404772 296.15418998483295,159.50531348343083 179.61694988740908,207.35163594729067 50.657314635356954,245.16899509707272 -90.1128847337933,271.3822623230784 -241.89919850258838,284.44090787758734 -403.7223846129202,282.83946758219247 -574.4183940398557,265.13880419865836 -752.6406601743806,229.98795167790914 -936.8648182427737,176.1463090491939 -1125.395959007114,102.50593072319269 -1316.3784964526071,8.113641805367962 -1507.8087019937784,-107.80730900321214 -1697.549928084662,-245.8363598573323 -1883.3505122010552,-406.33582119024106 -2062.8643182208543,-589.4324552446544 -2233.6738365479487,-795.0007729018174 -2393.315727233588,-1022.6483713022151 -2539.3086522135927,-1271.703632052169 -2669.18320400468,-1541.2060918858576 -2780.5136992278576,-1829.8997853176481 -2870.9515666236007,-2136.2298419338645 -2938.2600212904135,-2458.342599439996 -2980.349680241187,-2794.089467357711 -2995.3147395708306,-3141.034745365925 -2981.4693011213353,-3496.467564774013 -2937.3834070798825,-3857.4180816360868 -2861.9183150158347,-4220.678005760334 -2754.2605240123294,-4582.825501601528 -2613.954045322778,-4940.254445079745 -2440.9303989054074,-5289.207965143396 -2235.535810755771,-5625.816140857856 -1998.555085625606,-5946.137664485842 -1731.2316358993612,-6246.205219029599 -1435.2831604563914,-6522.0742556872265 -1112.9124875760322,-6769.874793351339 -766.8131235716936,-6985.865799414796 -400.16908402244167,-7166.491649559295 -16.648627273092103,-7308.440104738424 379.6084397246876,-7408.701187110463 784.0101552756619,-7464.626284131752 1191.538703410486,-7473.986762303359 1596.7837557818386,-7435.03133009012 1993.9829112210036,-7346.541354208933 2377.0692046383288,-7207.883305696126 2739.7255670892832,-7019.057492763603 3075.446024417581,-6780.742227243016 3377.6033237964084,-6494.332571138212 3639.5225766940825,-6161.972820128754 3854.5604043621906,-5786.581902371776 4016.188969048382,-5371.870904117888 4118.084172021267,-4922.351978858529 4154.217199483135,-4443.337954199139 4118.948500923257,-3940.9320205136237 4007.1231928645657,-3422.006967640573 3814.166795748412,-2894.1735302342763 3536.180134374308,-2365.737508524404 3170.032164353984,-1845.6454486363468 2713.44942992411,-1343.4187945724148 2165.100813626746,-869.0765615687126 1524.6762071913704,-433.0467267577154 792.9577167391627,-46.06668664045043 -28.117984616234907,280.9267096131579 -935.4075264945543,536.9168781483531 -1924.5202676306071,710.9361303300605 -2989.7905588786375,792.2022080161938 -4124.2640488806965,770.2615517812877 -5319.6991445613285,635.1379672778221 -6566.584624610249,377.4851982539026 -7854.174270061675,-11.25823386501267 -9170.539222301606,-538.7137020877107 -10502.63860591827,-1211.4085612197812 -11836.4087626342,-2034.6256640508532 -13156.871234268374,-3012.2584122791136 -14448.259408723316,-4146.673520415417 -15694.16350510985,-5438.583720989661 -16877.693324340053,-6886.932665100329 -17981.657932143786,-8488.794271753128 -18988.76117508446,-10239.288750769887 -19881.81165960606,-12131.517465794092 -20643.945552526828,-14156.51871481491 -21258.860292008798,-16303.246384721286 -21711.05703437932,-18558.573283054713 -21986.0894079262,-20907.320764091593 -22070.81590372018,-23332.316047774555 -21953.653009524165,-25814.47837936846 -21624.825989856035,-28332.934896012903 -21076.614037212064,-30865.16675500206 -20303.586370217105,-33387.18573953349 -19302.825737834442,-35873.74119319378 -18074.135708372945,-38298.55674741795 -16620.228081303365,-40634.59589988131 -14946.886762002332,-42854.355080022586 -13063.104487321454,-44930.18240485983 -10981.18888579816,-46834.61988858405 -8716.834502414504,-48540.76642812475 -6289.157615611285,-50022.65844935299 -3720.6909247826147,-51255.66467052169 -1037.335490124271,-52216.8910269003 1731.7323367326699,-52885.59140950157 4554.200844291684,-53243.579507637296 7394.811148957871,-53275.636716169654 10215.59452590308,-52969.91078011767 12976.15921784977,-52318.29960806332 15634.026463357377,-51316.81449770964 18145.01485644189,-49965.91688788722 20463.671488470223,-48270.82268683174 22543.747637384477,-46241.768231802154 24338.716065286357,-43894.23201467894 25802.32627078981,-41249.10646605724 26889.193325512195,-38332.81432981921 27555.41521338055,-35177.36448371794 27759.212896341916,-31820.342470733467 27461.586660280303,-28304.831501523593 26626.981660486083,-24679.260269806782 25223.95499714921,-20997.174588496455 23225.83611844065,-17316.930602238102 20611.371882182164,-13701.308157856922 17365.347217128357,-10217.043813055618 13479.172021480204,-6934.283929219068 8951.424728989514,-3925.959318839745 3788.3428709112472,-1267.08399308673 -1995.7490265656243,966.018329594611 -8378.083737473245,2696.5551484202538 -15327.177092177813,3848.1675718668585 -22802.64407045458,4345.887044034491 -30755.113578445744,4117.138119516232 -39126.24958810575,3092.777871913884 -47848.885509119646,1208.1614340364945 -56847.27771506062,-1595.7778614680221 -66037.48306016525,-5371.446227097153 -75327.86400486442,-10163.518400588337 -84619.72362337397,-16007.891964849698 -93808.07130347994,-22930.681742829584 -102782.51837741144,-30947.269491745203 -111428.30125570207,-40061.424453815 -119627.42788752135,-50264.510482146776 -127259.94155740093,-61534.79543724526 -134205.2941677888,-73836.87832963832 -140343.81926945492,-87121.24925694462 -145558.29320909234,-101323.99654074498 -149735.57088872406,-116366.67460342699 -152768.2807992674,-132156.34503363605 -154556.562226433,-148585.80196948865 -155009.82585758463,-165533.99138244896 -154048.51747035753,-182866.63207579043 -151605.86298511777,-200437.04422693027 -147629.57194115486,-218087.18911290323 -142083.4754378592,-235648.9212763169 -134949.0737933222,-252945.45183209432 -126226.96863906976,-269793.01890319114 -115938.15391466132,-286002.758329732 -104125.14027155946,-301382.76484710246 -90852.8877615198,-315740.330904164 -76209.52238768642,-328884.347225469 -60306.81315044086,-340627.84614647593 -43280.38763521098,-350790.66570597235 -25289.665972522194,-359202.2095051629 -6517.495154014045,-365704.2744798617 12830.531790036419,-370153.9160240084 32527.084362635625,-372426.31739340205 52324.44029884629,-372417.6280526656 71956.17420202188,-370047.7336504664 91139.19105010612,-365262.9186618448 109576.10234279359,-358038.3814648827 126957.93824749762,-348380.56076270127 142967.1844762606,-336329.23185945494 157281.12783026553,-321959.33138600015 169575.48943174002,-305382.4696788913 179528.31967782605,-286748.09117268445 186824.1239548846,-266244.2448925627 191158.18320608645,-244097.9294487034 192241.02861496186,-220574.97984622305 189803.02502064512,-195979.46693875687 183599.01328691945,-170652.58446627855 173412.95777848922,-144971.0033177254 159062.54142655857,-119344.67792702508 140403.64766403282,-94214.09551992621 117334.66584979162,-70046.96524246117 89800.55475083643,-47334.35097523223 57796.59727703996,-26586.25881752203 21371.779028163968,-8326.697749422625 -19368.276625859144,6911.760221794929 -64258.88320134147,18593.886131651478 -113074.43986291409,26188.123943339426 -165527.21583119693,29173.29372875633 -221266.8281919824,27045.609594253532 -279880.4661069473,19325.945957206357 -340893.908692215,5567.278237590802 -403773.3771254234,-14637.783098697946 -467928.25388264906,-41649.45280459882 -532714.6934250357,-75773.31903256087 -597440.1391962199,-117253.07822109631 -661368.7515145801,-166263.55977756745 -723727.7399220516,-222904.1469537341 -783714.5818708538,-287192.70251480053 -840505.097392288,-359060.10880374216 -893262.3367127241,-438345.53150751273 -941146.2247891233,-524792.514757329 -983323.8935704752,-618046.0120697059 -1018980.619604789,-717650.4530005272 -1047331.2715662082,-823048.9391972634 -1067632.1595452444,-933583.6557677621 -1079193.165706495,-1048497.5745285905 -1081390.0243578076,-1166937.514761748 -1073676.6087817613,-1287958.6146258656 -1055597.072545861,-1410530.2523884643 -1026797.684622692,-1533543.4412431456 -987038.1907033573,-1655819.7047458852 -936202.5277596059,-1776121.4219672987 -874308.7153770162,-1893163.6124551448 -801517.7458073767,-2005627.111198313 -718141.2952239763,-2112173.0631675483 -624648.0814435262,-2211458.645888022 -521668.6985184534,-2302153.907103266 -409998.76619764965,-2382959.583166899 -290600.2423722743,-2452625.7426127624 -164600.75930901075,-2509971.0786846597 -33290.859740501204,-2553902.6547458917 101880.97328552463,-2583435.8877374833 239315.57855077242,-2597714.537519672 377272.73378105415,-2596030.4543247246 513883.1656226207,-2577842.822980474 647162.9631352612,-2542796.631337873 775030.3762634048,-2490740.081749677 895324.9498283392,-2421740.658783949 1005828.9112103389,-2336099.563882463 1104290.6963648521,-2234364.2286339216 1188450.46448166,-2117338.622943737 1256067.4168231024,-1986091.082833234 1304948.7004701297,-1841959.395043049 1332979.6432939311,-1686552.892161276 1338155.0329108834,-1521751.3327154545 1318611.120143798,-1349700.3655802791 1272657.9970929115,-1172803.4071313194 1198811.9718157712,-993709.7927362616 1095827.5363305272,-815299.1012799003 962728.5026958555,-640661.5922702276 798837.8637784601,-473074.7394130598 603805.9214772115,-315975.8920537502 377636.2160918108,-172931.14618815627 120708.78663525428,-47600.559402372266 -166199.7064107254,56300.10138565056 -481899.45675629657,135040.83469330784 -824775.033352909,184921.80054852107 -1192777.373427615,202320.28012149 -1583420.64705049,183739.78527290246 -1993784.3589544364,125860.84989123509 -2420521.0126813278,25592.98257754369 -2859869.6147191906,-119872.78910859849 -3307675.242255254,-313011.39819109003 -3759414.8377299528,-555911.8979167888 -4210229.326859189,-850226.993342663 -4654962.084617411,-1197124.666036307 -5088203.696361315,-1597242.635364497 -5504342.879440601,-2050646.414400047 -5897623.345003733,-2556791.7245791215 -6262206.291073869,-3114492.030247413 -6592238.12724445,-3721891.941572164 -6881922.939514353,-4376447.211477968 -7125599.111917821,-5074912.018891569 -7317819.430844086,-5813334.186362321 -7453433.909489583,-6587058.924884684 -7527674.4849971235,-7390741.632436473 -7536240.660804893,-8218370.195444051 -7475385.092875887,-9063297.154319942 -7341998.052137631,-9918281.995763911 -7133689.63796046,-10775543.726203756 -6848868.57014909,-11626823.76326568 -6486816.350983425,-12463459.056350911 -6047755.565535242,-13276465.214266274 -5532911.078939119,-14056629.278575255 -4944562.894554245,-14794611.637222547 -4286089.45793984,-15481056.425513074 -3562000.2290778826,-16106709.612301495 -2777956.3999486156,-16662543.820009433 -1940778.7068694117,-17139888.77969412 -1058441.3772256484,-17530566.178797808 -140051.35843152966,-17827027.521455336 804187.8969822701,-18022493.491429802 1763028.6727207752,-18111093.188036144 2724247.6786851482,-18088001.497957014 3674731.435315164,-17949572.772820145 4600578.406819857,-17693468.90590987 5487217.733045024,-17318779.84348938 6319544.193122214,-16826134.528878126 7082068.807495617,-16217800.26250815 7759084.250581245,-15497768.470352052 8334844.006572022,-14671824.907882119 8793753.958382605,-13747602.38836093 9120574.857260292,-12734614.213814821 9300633.881192155,-11644266.605255783 9320043.257099733,-10489848.576048572 9165923.698246721,-9286497.868878497 8826630.197718527,-8051141.782330005 8291977.524752823,-6802411.947017485 7553462.596625748,-5560532.372507109 6604480.748237731,-4347180.373522403 5440532.797938585,-3185320.2952884547 4059419.7148317196,-2099010.291095315 2461421.632989204,-1113182.7575600748 649457.9346806942,-253399.40154354885 -1370774.8593954125,454417.7062758689 -3590690.597364463,984277.3464509621 -5998729.504155792,1310430.4955942552 -8580305.64683039,1407699.2682245863 -11317788.620652555,1251820.5340680587 -14190521.97876255,819800.910744245 -17174880.640276834,90279.46895787583 -20244369.176520392,-956105.8542358675 -23369762.493900426,-2336352.453144653 -26519290.006316535,-4064732.463154645 -29658863.92229092,-6152442.227100765 -32752351.765188985,-8607266.862630254 -35761892.70267975,-11433265.125216907 -38648256.68831906,-14630479.85725636 -41371244.81889101,-18194679.35005759 -43890128.69162126,-22117134.918111186 -46164125.9119337,-26384439.889829922 -48152908.26200022,-30978375.052662637 -49817138.40045075,-35875825.35040314 -51119030.33222927,-41048752.314660765 -52022928.273165934,-46464226.31973052 -52495897.94513805,-52084522.28019603 -52508323.78376462,-57867281.864213645 -52034505.030649975,-63765744.67423545 -51053243.22554274,-69729050.15364575 -49548413.21966171,-75702611.21621263 -47509509.50894494,-81628559.77028237 -44932159.4439267,-87446263.42731182 -41818594.71971396,-93092911.75174111 -38178072.49300069,-98504169.43462999 -34027237.52038486,-103614892.76620083 -29390416.86981965,-108359904.75280838 -24299839.030250493,-112674823.18318567 -18795769.637723386,-116496934.90933566 -12926556.552627169,-119766108.58211568 -6748577.664092864,-122425737.08414605 -326085.5642992793,-124423699.94741262 6269055.873612199,-125713335.14455144 12957746.967892902,-126254408.8162654 19654142.575268805,-126014070.7577689 26266258.896993145,-124967782.84954585 32696696.98511424,-123100207.0968699 38843481.75425568,-120406039.55272068 44601013.786910996,-116890776.15359536 49861129.635101385,-112571396.40999499 54514264.68333216,-107476950.974655 58450710.964028314,-101649039.37229969 61561960.62538236,-95142164.62345259 63742124.06274751,-88023952.13882042 64889410.05945275,-80375221.10487148 64907653.66358255,-72289897.6285313 63707875.976966895,-63874760.15981584 61209858.57541258,-55249009.16399722 57343713.93926876,-46543654.66476923 52051432.075475186,-37900717.11976745 45288382.480490975,-29472239.10930103 37024749.75214242,-21419107.50541208 27246880.530417792,-13909688.12513336 15958519.054975238,-7118277.340314871 3181908.4909476726,-1223377.6945088261 -11041264.686258083,3594192.7593492 -26649105.525753,7153344.966005232 -43558946.19721701,9274902.036829917 -61667002.83587281,9783903.154203856 -80848272.74434708,8512007.58045651 -100956689.34985523,5299975.511556535 -121825550.274418,200.0000001491935" stroke="white" stroke-width="1.5" /></svg>