<?xml version="1.0" encoding="utf-8" ?>
<svg baseProfile="full" height="400" version="1.1" width="400" xmlns="http://www.w3.org/2000/svg" xmlns:ev="http://www.w3.org/2001/xml-events" xmlns:xlink="http://www.w3.org/1999/xlink"><defs /><rect fill="black" height="100%" width="100%" x="0" y="0" /><circle cx="200" cy="200" fill="yellow" r="20" stroke="orange" stroke-width="2" /><polyline fill="none" points="199.73955155870487,200.0 199.79498087519656,199.9892374324919 199.85514572414826,199.98474959784144 199.91956448036166,199.9872386420819 199.98766868346155,199.99737439099246 200.058804239251,200.01578409792222 200.13223376504288,200.0430420426646 200.20714012635057,200.07965910106515 200.28263120067115,200.12607241343608 200.3577458912209,200.18263528720695 200.43146139946106,200.24960747540857 200.5027017501825,200.32714597740315 200.57034754691622,200.41529651159436 200.63324691863897,200.51398581152978 200.69022760130687,200.62301489671574 200.74011007984848,200.74205346748624 200.78172169807172,200.87063556929598 200.81391162569838,201.00815666576491 200.83556655365246,201.15387225161905 200.84562697103652,201.30689812631203 200.84310386017347,201.46621243655554 200.82709562992827,201.63065958124122 200.7968050925167,201.79895605534546 200.75155627541642,201.9696982904282 200.69081084808752,202.14137252837372 200.61418393324405,202.31236674219628 200.5214590646486,202.48098459320855 200.41260204807446,202.6454613878178 200.28777347942133,202.80398196989472 200.14733967419653,202.95470045630773 199.99188176586873,203.09576169411545 199.8222027371385,203.22532428837167 199.6393321580749,203.3415850198611 199.44452841845256,203.44280444271206 199.23927825854716,203.5273334231048 199.02529342314128,203.59364035261615 198.80450428753872,203.6403387435232 198.5790503319224,203.6662148890575 198.35126737131068,203.67025524958427 198.12367148251246,203.65167320640833 197.89893960663989,203.60993480880276 197.6798868456546,203.54478312733008 197.4694405137816,203.456260817976 197.2706110490631,203.34473049741317 197.08645993643177,203.21089253020145 196.92006484099102,203.05579983422086 196.77448219819743,202.88086932138876 196.65270755579334,202.68788960695358 196.55763401004643,202.4790246425494 196.49200912549713,202.25681295584405 196.45839077233902,202.02416221306024 196.45910235809106,201.78433885986828 196.49618796967215,201.5409526410348 196.5713679776614,201.29793584959202 196.68599568572554,201.05951721190064 196.8410156342296,200.830190375482 197.03692418724796,200.6146770314601 197.27373304592024,200.4178847723778 197.55093633774297,200.24485985843785 197.86748193039938,200.10073514019692 198.22174760960473,199.9906734626547 198.6115227427541,199.91980695370614 199.03399602354662,199.8931726781635 199.48574985696266,199.91564521605125 199.9627618988142,199.99186679961184 200.46041420951158,200.12617571637995 200.9735104177387,200.32253375468602 201.4963012165712,200.5844535319202 202.0225184325021,200.9149266036884 202.5454178172811,201.31635330249557 203.0578306139842,201.79047529667523 203.55222384300404,202.33831189286659 204.02076914152124,202.96010112737545 204.45541987244303,203.65524670226407 204.84799609688375,204.42227182009577 205.19027687923148,205.25878095610364 205.47409926704563,206.16143057745907 205.691463160923,207.12590977571853 205.83464116360835,208.1469317199916 205.89629237466795,209.21823676463154 205.86957897870784,210.33260795619776 205.74828436318694,211.48189958016377 205.5269313981717,212.6570792686162 205.20089941674206,213.84828405649972 204.76653835302795,215.0448906264965 204.22127842684762,216.23559982230515 203.5637337113958,217.4085353380317 202.79379788508297,218.55135630898292 201.91273045204844,219.6513833379316 200.92323171951887,220.69573729269777 199.82950484537488,221.67149000765176 198.6373033171448,222.56582581569222 197.3539622950957,223.36621263075494 195.9884123478224,224.06058109650908 194.55117422918593,224.63751011727967 193.05433349077742,225.0864168951985 191.51149389414144,225.39774941603395 189.9377087813237,225.56317915803703 188.34938978012408,225.5757916464641 186.7641924605926,225.43027234417934 185.2008788203207,225.12308525885237 183.67915675609638,224.65264156260918 182.21949697630174,224.0194554633178 180.8429281194654,223.2262845405634 179.5708111667267,222.27825176617364 178.4245945663665,221.1829464710051 177.42555182344353,219.95050159842805 176.594503643079,218.59364470203997 175.95152704792122,217.12772030170757 175.5156542144337,215.57068140878397 175.3045640843241,213.9430482685122 175.33427010195442,212.26783264496632 175.6188077011363,210.5704262906382 176.16992541045627,208.87845259765118 176.99678366033652,207.2215808187092 178.10566555264103,205.63130267083406 179.49970399012386,204.14067159068523 181.17862965394156,202.7840053931858 183.13854435862834,201.59655359111142 185.3717243015172,200.61413115748195 187.8664576541496,199.87272104972942 190.60692081379187,199.4080483588881 193.57309744136268,199.25512949216773 196.74074415608118,199.44780033650787 200.08140643585378,200.018227876965 203.56248788545165,200.99641024964257 207.14737558231147,202.40967068667345 210.7956236935678,204.28215125268778 214.4631969798339,206.63431267034161 218.10277516434,209.48244687896042 221.66411845429312,212.83820925739795 225.09449375967557,216.70817766226975 228.33916036903474,221.0934455785736 231.34191301895893,225.98925674456655 234.0456794416301,231.3846885904059 236.39316860172147,237.26239171490755 238.32756494943925,243.59839241205816 239.79326313093173,250.36196494474098 240.73663672154692,257.51557984461925 241.1068336930727,265.01493399247863 240.8565905051926,272.8090676019901 239.94305593639422,280.84057249251106 238.3286150531895,289.04589519528554 235.9817030715854,297.3557374957268 232.87759830408666,305.6955559773687 228.99918292174036,313.9861610070532 224.33765990610001,322.144414394057 218.89321433222062,330.0840236777144 212.67560702189263,337.71642965984086 205.7046886463869,344.9517824124745 198.010822549021,351.6999995722314 189.6352049076059,357.87189929530484 180.63007137156674,363.3803988085137 171.05877999290595,368.14176806961876 160.99576112702954,372.07692666318906 150.52632600968306,375.1127707262078 139.74632691864974,377.18351544061557 128.76166319999655,378.23203746877806 117.6876289727885,378.2112006632685 106.64810001513426,377.0851474752076 95.77455916754785,374.830537736187 85.20496155376064,371.4377159174028 75.08244299863233,366.91178759508847 65.55387719954717,361.27358569148936 56.76828946108142,354.56050713182765 48.87513710987662,346.8272008745821 42.02246904246135,338.1460888474443 36.35497919608818,328.6077021646413 32.011971042515256,318.3208161204617 29.125252456488937,307.4123688532676 27.81698247257728,296.0271502554515 28.197493483036624,284.32724966562307 30.363114311988937,272.4912531141292 34.39402129341852,260.71318339238974 40.352145948589,249.2011789670749 48.279169069147486,238.17591074448455 58.1946319331102,227.86873888713788 70.09419598127147,218.51961526800108 83.94808253238484,210.37474068839649 99.6997239902178,203.6839896499188 117.26465747062663,198.6981192213604 136.52969083193057,195.66578233780828 157.3523697106758,194.83036966658162 179.5607723353592,196.42670792635693 202.95365660554071,200.67764620194768 227.30098118093656,207.79056530588556 252.34481912801297,217.95384854566976 277.8006790296416,231.33335530770086 303.35924439204683,248.06894161041907 328.6885377044565,268.2710741551064 353.43651064898756,292.0175863591546 377.2340567564237,319.3506263409271 399.6984372992795,350.27384778751536 420.43710545522595,384.7498950298765 439.0519078160772,422.6982334309226 455.1436362209445,463.9933753229448 468.3168967233637,508.46355017849754 478.1852563331049,555.889865437134 484.37662208071856,606.00600141979 486.53880101755806,658.4984800315608 484.34518407041975,713.007542478894 477.5004913050924,769.1286660147665 465.74651120574936,826.4147437905862 448.86776213675773,884.378945261847 426.69700030932444,942.4982673018635 399.1204954152055,1000.217778270501 366.0829926985599,1056.9555488201477 327.5922786962373,1112.1082542670079 283.7232672624301,1165.0574239909051 234.621522875398,1215.1763036400494 180.50613966386,1261.8372860077109 121.67189714158785,1304.4198564237452 58.490617343408815,1342.318988482457 -8.58834705457852,1374.9539160343113 -79.03855795473538,1401.7771977340483 -152.25792742040585,1422.2839811990264 -227.57119214449915,1436.0213651307536 -304.23346565481194,1442.5977497335589 -381.4348963032737,1441.6920585729574 -458.3064472102408,1433.0627087971338 -533.9268014624218,1416.5562015406915 -607.3303820873634,1392.1152004786118 -677.5164617595298,1359.785964032022 -743.4593219610258,1319.7249957692911 -804.1194055690186,1272.2047782092452 -858.4553907330385,1217.6184576181186 -905.4370976150258,1156.4833515839393 -944.0591232837708,1089.443157220348 -973.3550839864522,1017.2687458464007 -992.4123283772587,940.8574399394778 -1000.386970290077,861.2306800720448 -996.519075528551,779.5300034030842 -980.1478241473387,697.0112710594917 -950.7264580491701,615.0370993430006 -907.8368136588458,535.0674690382932 -851.2032311889886,458.64850805387005 -780.7056258074551,387.39946504644746 -696.3915020667098,322.9979153812858 -598.4866914614481,267.1632655559896 -487.4045941253254,221.63864782763906 -363.75370962316003,188.171322970037 -228.34324868035338,168.49173556226987 -82.18662762715013,164.29139266135002 73.4973395969495,177.1997628101136 237.2857207870261,208.76041772830914 407.55536563737144,260.4066633670865 582.48955360224,333.43692990088414 760.0874906388568,428.990211304892 938.1767273501189,548.021864036815 1114.4285395533163,691.2800906262542 1286.376278190444,859.2834472979163 1451.4366590139873,1052.2997247518856 1606.9339239249473,1270.326557548552 1750.126765547105,1513.0741198721944 1878.237864979321,1779.9502634799624 1988.4858501025083,2070.048447118033 2078.1194387982273,2382.1387953805843 2144.453488466249,2714.662608720314 2184.906630846518,3065.730624961388 2197.040129923668,3433.125306141986 2178.597561209712,3814.307392808025 2127.544873570585,4206.4269310392965 2042.110360604562,4606.338935628854 1920.8240380191614,5010.623806140673 1762.5558971089124,5415.612561296009 1566.5524829194294,5817.416901617462 1332.471229585101,6211.964050896948 1060.411975210593,6595.036264331645 750.9450750577971,6962.3148256455725 405.1355351797597,7309.428287810745 24.56259943801544,7632.004642797792 -388.665758588226,7925.727035883452 -831.9039606536653,8186.39257024174 -1301.9660527970195,8409.973678723203 -1795.1294818168165,8592.681472804303 -2307.1458111701727,8731.03041462521 -2833.2587081221423,8821.903597818846 -3368.2294657533425,8862.617867474113 -3906.3702473642434,8850.987960083277 -4441.585157319436,8785.388801710349 -4967.419151992727,8664.815067870772 -5477.11470786894,8488.937082694458 -5963.676061815737,8258.152118768063 -6419.940731963039,7973.630153470254 -6838.657917541632,7637.353143406528 -7212.573263571096,7252.146896407467 -7534.519362688915,6821.704651060732 -7797.511253015888,6350.601517371978 -7994.846059181782,5844.298989228967 -8120.20581498795,5309.138810065827 -8167.7624022224045,4752.325557527885 -8132.2834424743905,4181.897410884731 -8009.2378890556065,3606.6846761212637 -7794.8999859729465,3036.2557675561134 -7486.45019194986,2480.850480804856 -7082.071611370084,1951.3005390385556 -6581.040432276233,1458.9375517033307 -5983.808845677297,1015.48869088315 -5292.078911789646,632.9605638307786 -4508.86584871778,323.5119391947079 -3638.549248590143,99.31616728541243 -2686.9107762494364,-27.585680666551355 -1661.156977012927,-45.439745080936774 -569.9259133025525,57.059008279547584 576.7235345940628,290.6000605889337 1767.3407306867468,665.087234015499 2989.1315757413954,1189.4671017834721 4228.026716235138,1871.5579539361918 5468.770154168285,2717.8814883425457 6695.0285207051365,3733.4995080435815 7889.521037129846,4921.857996691217 9034.16993078282,6284.641011056751 10110.270803578313,7821.636870979058 11098.682168799756,9530.619140435423 11980.03308084086,11407.24487660666 12734.947485415345,13444.972575063006 13344.28361778463,15635.00215698692 13789.38647729317,17966.239227455204 14052.35111172465,20425.285681356054 14116.2941586677,22996.458545032958 13965.630817335215,25661.838717159266 13586.354167363246,28401.35101202845 12966.313515348053,31192.876613242446 12095.488239613633,34012.3987170321 10966.253423257875,36834.181783989 9573.633419148007,39630.9844281897 7915.539382327559,42374.30555643883 5992.986739158084,45034.662931046834 3810.2885420921275,47581.90287111685 1375.2206875743645,49985.53933416831 -1300.8449448782778,52215.120136965146 -4202.843239378122,54240.61758700197 -7311.958091728972,56032.84031000238 -10605.607525241641,57563.86258011599 -14057.474732955568,58807.46699474622 -17637.5877385096,59739.59589178533 -21312.44994347061,60338.80649040384 -25045.223347855743,60586.72435445008 -28795.965695065614,60468.48943703684 -32521.92220549991,59973.188673051794 -36177.87192860627,59094.268850003245 -39716.52806572899,57829.9233134741 -43088.990901433106,56183.44595783211 -46245.25123536931,54163.545921632074 -49134.74143742485,51784.61645572355 -51706.93046385949,49066.951565189425 -53911.958380059914,46036.90424787989 -55701.30514585007,42726.98046565902 -57028.48764195343,39175.86339178734 -57849.778161704875,35428.362980344195 -58124.936871380334,31535.286501381037 -57817.95006677807,27553.226377534298 -56897.76543435957,23544.262441815463 -55339.014973831014,19575.57660864691 -53122.71576692581,15718.978905990618 -50236.93839551195,12050.344849318988 -46677.43253181005,8648.965240516003 -42448.19905474317,5596.810637528232 -37561.99799881124,2977.7139532587507 -32040.781724104345,876.4758931039394 -25916.042915811922,-622.100783346976 -19229.067385329025,-1434.2409037747286 -12031.082157918669,-1478.2818721648737 -4383.289997476604,-675.8041873907499 3643.217660793418,1047.2035515545617 11967.67642389564,3759.157366141186 20499.99922668937,7521.681653165069 29141.265838158408,12388.418286231414 37784.354815951505,18403.85626929455 46314.71958067557,25602.197911472616 54611.308600231845,34006.27810866667 62547.62788080418,43626.55376880861 69992.94206972161,54460.1806871761 76813.60850331062,66490.1952506265 82874.53649914876,79684.81821070453 88040.76211800537,93996.89740294777 92179.12652931211,109363.50569288312 95160.04403008545,125705.70958990764 96859.34371726941,142928.52288268539 97160.16682525324,160921.05831077372 95954.89984270594,179556.8886967573 93147.12174554088,198694.62712408887 88653.5420559429,218178.73366445818 82405.90499127457,237840.55384438753 74352.83373141581,257499.591507145 64461.58783817977,276965.0159897806 52719.706134364336,296037.4006166086 39136.50691976438,314510.6864338558 23744.41729226936,332174.36190317676 6600.1035768566235,348815.84596549073 -12214.624536031117,364223.0585155437 -32592.16256162389,378187.1589294007 -54398.73754651305,390505.42990217987 -77474.3354164941,400984.28052470996 -101632.95042824687,409442.33930064883 -126663.17521197157,415713.6047269003 -152329.14689378877,419650.61817809235 -178371.86139491713,421127.6211995138 -204510.8642352175,420043.65697151003 -230446.3220432188,416325.57371073717 -255861.47452070113,409930.8861677999 -280425.4618607359,400850.4502128886 -303796.51761303534,389110.9048148597 -325625.5117747143,374776.83555566776 -345559.82350888406,357952.61421818397 -363247.51741404214,338783.86997369275 -378341.7917451493,317458.5493032743 -390505.66148860805,294207.52403620124 -399416.8337878226,269304.7097934592 -404772.7279772878,243066.66069330683 -406295.58748751465,215851.61040852105 -403737.6262089396,188057.93455338987 -396886.1476300235,160122.0149057754 -385568.57127304823,132515.49210969053 -369657.2977200115,105741.90022145202 -349074.34092830756,80332.68371274322 -323795.65465657384,56842.6052723112 -293855.0787262759,35844.56089040098 -259347.8306005397,17923.827192863057 -220433.46842840672,3671.7747324198767 -177338.25333275713,-6320.910148629086 -130356.841357916,-11471.443296595498 -79853.2391730917,-11212.540045009528 -26260.96237429424,-5000.322534783865 29917.658947336073,7677.5407473583155 88113.07579902814,27293.54912181296 147691.05750122608,54272.031050733036 207956.2019774751,88980.85307035109 268156.4405726804,131723.28287744135 327488.54791608854,182730.1183528231 385104.6555447464,242152.19849079513 440119.7554284301,310053.41522745707 491620.166292222,386404.346907313 538672.9218382167,471076.6344892368 580336.0257579347,563838.2204725137 615669.5039509356,664349.5678359763 643747.1697850295,772160.9719566506 663669.0037238585,886711.0724529176 674574.0343937109,1007326.6641424128 675653.5943575767,1133223.896797044 666164.8107126156,1263510.9421175215 645444.1783346817,1397192.1933604926 612921.0523706857,1533174.0483783297 568130.8866377516,1670272.310544798 510728.0361368047,1807221.2242337596 440497.9351322734,1942684.1423123688 357368.45738669916,2075265.802650207 261420.26235649656,2203526.1691021314 152895.930626748,2325995.769990393 32207.69374640428,2441192.4440106717 -100056.43194134705,2547639.379959691 -243128.29077989317,2643884.312992899 -396057.18604288774,2728519.7165534585 -557709.5917201017,2800203.8059698422 -726771.1231038007,2857682.147314775 -901750.8930660557,2899809.6437814203 -1080988.3597414945,2925572.6519007483 -1262662.7474203054,2934110.961738801 -1444805.0959279172,2924739.3591173124 -1625312.9647750405,2896968.4742361465 -1801967.7871004457,2850524.6101743025 -1972454.835135758,2785368.2369279563 -2134385.723874897,2701710.8322134656 -2285323.3431492257,2600029.7495024507 -2422809.070750425,2481080.7969198455 -2544392.081001971,2345908.2179481504 -2647660.5246868865,2195851.776528872 -2730274.3179559154,2032550.665280423 -2789999.2402569153,1857943.9762604607 -2824742.004957783,1674267.4990389312 -2832585.931714755,1484046.6408104002 -2811826.817313887,1290085.2977981346 -2761008.5722417003,1095450.5461636325 -2678958.1641786424,903453.0638463165 -2564819.3875092757,717623.2419662452 -2418084.960346183,541682.9953083701 -2238626.437990541,379513.3355831434 -2026721.424694717,235117.82817204762 -1783077.5645075527,112582.11239805991 -1508852.7972858537,16029.726428337386 -1205671.378006345,-50425.45992527074 -875635.1766145444,-82729.83869166535 -521329.8020343674,-76943.2555055608 -145825.1277946734,-29294.310613577807 247330.16191567853,63762.77895477548 654120.3380850907,205490.36030220578 1070080.9806546394,398809.2253374098 1490324.1327988568,646240.8956450195 1909570.3979042652,949851.0581913947 2322188.044580467,1311194.934247851 2722239.102220183,1731265.3923172494 3103532.341476648,2210444.63607201 3459682.9412885183,2748460.3095518574 3784178.5476003275,3344346.8633867144 4070451.329650307,3996413.016934203 4311955.53867434,4702216.131366331 4502249.972245217,5458544.27741804 4635084.646453843,6261406.738343279 4704490.879041079,7106033.633355323 4704873.890767247,7986885.279335093 4631106.941171459,8897671.828894027 4478625.929874069,9831383.631152404 4243523.317178819,10780332.658174781 3922640.1494109933,11736205.225392329 3513654.916639891,12690126.109219205 3015167.924604413,13632734.030284509 2426779.830158376,14554268.32728311 1749162.971676377,15444666.495606758 984124.1238121825,16293672.108027453 134657.32086578998,17090952.473317195 -795014.5742598603,17826225.224505786 -1799410.8271566785,18489392.86336199 -2871777.5160735426,19070684.1236168 -4004087.05384696,19560800.85455047 -5187053.548134042,19951068.971045487 -6410164.87048627,20233591.868364338 -7661732.155271341,20401404.56209347 -8928957.28093644,20448626.688295916 -10198018.699432613,20370612.38831745 -11454175.775894418,20164095.00927057 -12681891.581283066,19827324.477285143 -13864973.847335698,19360195.148390744 -14986733.547783915,18764361.913485654 -16030160.314662606,18043342.331205033 -16978113.63614016,17202602.587376066 -17813528.515448015,16249625.133683454 -18519634.00218777,15193955.942435121 -19080182.740791257,14047229.429897232 -19479689.41963639,12823169.248227593 -19703675.75188335,11537563.325870387 -19738919.379219666,10208211.748320624 -19573703.866219126,8854846.314935286 -19198066.74980062,7499020.882054012 -18604042.429212824,6163971.906746552 -17785896.53090396,4874448.937213208 -16740348.263327027,3656515.1529591456 -15466777.192784952,2537318.4375984725 -13967410.826252408,1544833.8663133306 -12247489.383878946,707578.9049325841 -10315404.18543476,54303.04419907672 -8182806.163781635,-386345.9734627751 -5864681.156605461,-586176.7414023444 -3379388.8167137383,-517826.56423264305 -748662.2222417303,-155148.1708969963 2002434.438394044,526393.0949151616 4845592.386143165,1549315.8564333164 7749390.857586389,2933717.6693974063 10679477.232476039,4696873.312748157 13598795.622038057,6852841.635513491 16467864.317496654,9412086.435266512 19245101.917113192,12381117.036063783 21887201.332203764,15762154.368709201 24349550.223321747,19552828.427974235 26586695.743064713,23745912.984942768 28552850.768451676,28329103.363301594 30202438.10089928,33284842.94215866 31490668.40350796,38590203.82150846 32374146.942233246,44216826.77722045 32811503.508659367,50130925.238708384 32764039.237033557,56293357.543479085 32196383.396837845,62659771.158824496 31077152.65456461,69180821.91331227 29379604.764780648,75802470.55192308 27082278.181257237,82466358.12229207 24169608.68405933,89110260.82037966 20632513.807917938,95668623.9780808 16468935.64047497,102073173.87010343 11684332.44505681,108253604.96140029 6292109.559817933,114138339.11929281 313980.1408665795,119655352.18705176 -6219753.4421529705,124733062.17011258 -13270006.378212273,129301272.13531874 -20788814.669049058,133292159.78160875 -28719342.536343712,136641304.52213535 -36996000.87120237,139288741.8384728 -45544682.695436895,141180033.6433435 -54283120.54845384,142267342.43562585 -63121369.52609324,142510496.16693103 -71962418.38437574,141878029.9794224 -80702929.68977302,140348190.3362699 -89234108.45819962,137909886.56525388 -97442697.08934377,134563574.48797908 -105212092.68513857,130322056.62653327 -112423581.05695191,125211183.47962995 -118957679.89322636,119270440.55347985 -124695581.69735132,112553406.22932689 -129520685.23572616,105128066.15847154 -133320202.38099182,97076970.70331651 -135986825.41937774,88497222.9938919 -137420438.13917294,79500286.44528031 -137529852.35563573,70211602.08162059 -136234549.98287535,60770007.7332409 -133466409.36244625,51326953.108350016 -129171393.32863885,42045506.87984815 -123311175.45852275,33099154.258298248 -115864680.14672962,24670386.027718425 -106829511.58585724,16949082.682209738 -96223246.44682612,10130700.09582293 -84084565.06136198,4414266.0596515285 -70474196.23062323,200.00000008630624" stroke="white" stroke-width="1.5" /></svg>