<?xml version="1.0" encoding="utf-8" ?>
<svg baseProfile="full" height="400" version="1.1" width="400" xmlns="http://www.w3.org/2000/svg" xmlns:ev="http://www.w3.org/2001/xml-events" xmlns:xlink="http://www.w3.org/1999/xlink"><defs /><rect fill="black" height="100%" width="100%" x="0" y="0" /><circle cx="200" cy="200" fill="yellow" r="20" stroke="orange" stroke-width="2" /><polyline fill="none" points="199.43455237608663,200.0 199.46854100479283,199.9721008304997 199.50810150477847,199.94821243743613 199.5530056621624,199.92908288827934 199.60293990207427,199.9154571560631 199.6575033539224,199.9080678422409 199.7162068691631,199.90762543862044 199.77847306745625,199.91480821886586 199.84363747937786,199.9302518607324 199.9109508447788,199.95453891033142 199.97958261545605,199.98818820914957 200.04862569907613,200.03164441310457 200.11710246831643,200.08526774043978 200.18397204505223,200.14932409158533 200.24813885420713,200.2239756890804 200.30846242572437,200.30927238910846 200.36376840614102,200.4051438180029 200.4128607236132,200.51139248709714 200.45453483212555,200.62768803740576 200.48759194221142,200.7535627617221 200.5108541270254,200.88840854572322 200.5231801742683,201.03147536151295 200.52348203650635,201.18187143666873 200.51074171509865,201.33856520926895 200.4840283965091,201.50038916456924 200.44251564449473,201.6660456320087 200.38549843779705,201.8341146021211 200.31240983078905,202.00306360180267 200.22283700430592,202.1712596433679 200.1165364658762,202.3369832380765 199.99344815301694,202.49844443851958 199.85370819039366,202.65380084664562 199.69766005169458,202.80117749553264 199.52586388021624,202.93868848356624 199.33910372857878,203.06446020977035 199.13839248781906,203.17665602900655 198.9249742894566,203.27350211596973 198.70032418105913,203.3533142977509 198.46614489638293,203.41452558661837 198.22436056531126,203.45571411800387 197.97710723650687,203.47563117390007 197.7267201168206,203.47322894941604 197.47571746590424,203.44768770053065 197.22678112194944,203.39844189456164 196.98273367475866,203.32520497194767 196.7465123451339,203.2279923190261 196.52113967447937,203.10714204695694 196.30969117513973,202.9633331721459 196.11526013987105,202.79760079877025 195.94091985745482,202.61134791458184 195.78968353026065,202.4063534272809 195.66446223794702,202.1847760905867 195.56802133883082,201.9491539967969 195.50293574609697,201.70239934616208 195.47154455927813,201.44778824279243 195.4759055716132,201.18894531195394 195.51775021028476,200.92982298432855 195.5984394984366,200.67467534885034 195.71892165458033,200.42802653674374 195.87969196584083,200.194633664958 196.08075558580583,199.97944443680115 196.32159391492402,199.78754957063305 196.60113522087056,199.62413030330174 196.91773014755745,199.49440129284383 197.26913274407008,199.40354932398182 197.6524876183955,199.35666829923875 198.06432378509587,199.35869107708203 198.5005557308984,199.41431879538126 198.95649216744187,199.52794839254764 199.42685287618687,199.70359910890656 199.90579397692213,199.9448388160065 200.38694186867122,200.2547110805373 200.86343600054744,200.63566392117454 201.3279805307735,201.08948125984793 201.77290482537444,201.61721810254858 202.19023263479832,202.21914050778338 202.5717596678914,202.89467141215616 202.90913915935786,203.64234338138664 203.19397490030093,204.45975934054294 203.4179210730329,205.3435623086474 203.57278810252623,206.28941511953184 203.6506536092307,207.29199105242424 203.64397742317115,208.344976221956 203.54571949900824,209.44108448797772 203.3494594578916,210.57208554083113 203.04951637630757,211.72884669781646 202.64106734658358,212.90138881199238 202.120263250127,214.07895654584186 201.48434011468154,215.2501031006421 200.7317243726791,216.4027893187237 199.8621303008608,217.5244968915556 198.8766479033589,218.602355213328 197.77781950286305,219.62328121922852 196.56970332867314,220.5741313419246 195.25792243752716,221.44186451109334 193.84969737403077,222.21371491156842 192.35386107302256,222.87737300837034 190.7808546267418,223.42117314426028 189.14270268540034,223.8342858203416 187.45296743057332,224.1069125855614 185.72668025626692,224.23048128973005 183.98025051181475,224.1978392999113 182.23135090276963,224.00344214476985 180.49877940919765,223.64353493868236 178.80229786340402,223.11632385003395 177.16244762889758,222.42213481892225 175.60034313675794,221.56355670109946 174.13744436157128,220.54556601981605 172.7953096534697,219.37563054745465 171.5953306819476,218.0637890163266 170.55845158713683,216.62270437428134 169.70487477092712,215.06768815700084 169.05375608931075,213.41669374574835 168.62289252400254,211.69027651719088 168.42840571096897,209.91151917050013 168.48442498112595,208.10592083551848 168.80277381920857,206.30124892307663 169.39266386575432,204.5273530727073 170.26040076942587,202.81594098158925 171.40910633780157,201.20031635854593 172.83846152976196,199.71507973469855 174.544474877438,198.3957933737223 176.51928091644834,197.27861205480295 178.75097313632617,196.3998820449922 181.22347583560168,195.79571112886435 183.91645907548337,195.50151311582567 186.8053006706194,195.55153079234216 189.8610988338469,195.97834182054825 193.05073870372078,196.8123525986888 196.33701552933218,198.08128558487618 199.67881676769474,199.80966603580006 203.0313647669051,202.01831451830213 206.34652106640507,204.72385190613346 209.57315264796546,207.93822386886217 212.65755972241703,211.66825208712893 215.54396384357378,215.91521958091357 218.17505430909094,220.67449760827574 220.49258994596576,225.9352215748162 222.43805249471325,231.68002328318948 223.95334691048078,237.88482664249298 224.9815430018332,244.51871364526434 225.46765193969134,251.54386700214286 225.35943030161715,258.91559529913246 224.6082034824972,266.58244590916377 223.16969951427933,274.48641014894093 221.00488360764015,282.56322432588024 218.08078307030277,290.7427693717825 214.3712916831754,298.9495707146724 209.85794213933602,307.1033989045159 204.53063478459947,315.1199702903308 198.3883106538818,322.9117457551951 191.4395566860213,330.3888241629917 183.70313103141368,337.4599257691271 175.20839655098328,344.0334594110667 165.9956509495447,350.01866583889716 156.1163424979777,355.3268280880676 145.63316098165524,359.8725383539469 134.61999437021302,363.57500941987945 123.1617427370774,366.35941733681386 111.3539821650687,368.15826077384224 99.30247275354475,368.91272127601815 87.1225063872538,368.57400759975417 74.9380916291948,367.10466636804074 62.880974948708456,364.47984051845384 51.08949947857437,360.6884564266379 39.70730459534812,355.73432019599966 28.88187181731064,349.6371034288918 18.762924793516504,342.43319885226197 9.500693492468116,334.1764264765419 1.2440550645859503,324.93857153319993 -5.861433778474236,314.80973627436765 -11.675595681748092,303.89848883497973 -16.065763390271883,292.33179375874806 -18.908960649132524,280.25471047561894 -20.094109517289922,267.8298479882602 -19.5242384343496,255.23656627309236 -17.11866365242389,242.66991741807357 -12.815115143255298,230.33932229156002 -6.571776847644145,218.46698154671736 1.6307898172631212,207.28602299264358 11.787870905749685,197.0383907809695 23.869005335308685,187.97248543545544 37.81660260787655,180.34056745832723 53.5448042388486,174.395941043188 70.93861934071191,170.38993826911735 89.85336343544522,168.56872799945387 110.11442774347941,169.16997751414937 131.51740390931172,172.41939861622842 153.82858637238883,178.52721351833986 176.7858713797895,187.68457918049927 200.10006797363178,200.06001187961394 223.4566321863831,215.79585658946502 246.51783116307564,235.00484818080542 268.92533902932666,257.7668134603283 290.30326107304495,284.1255646011874 310.2615772476525,314.08603552562334 328.3999901840131,347.6117132342943 344.31215687198767,384.6224158932982 357.5902770018364,424.9924686495208 367.8300047076436,468.5493266143354 374.6356442020938,515.0726922076068 377.62558361175235,564.294171068359 376.43791529623945,615.8975070030867 370.7361851486355,669.5194319537626 360.21520791615615,724.7511617305715 344.6068805394416,781.1405622841936 323.6859209763725,838.1950046144112 297.27545604260695,895.3849190614527 265.2523785550411,952.1480517503109 227.5523915925715,1007.8944174135603 184.174656073493,1062.0119337732049 135.18595716805578,1113.872713195819 80.7243053891767,1162.8399775372197 21.001889597343137,1208.2755520629034 -43.692698328409904,1249.5478841776148 -112.99304371900041,1286.040522539846 -186.45436592730073,1317.1609821009017 -263.55391730739757,1342.3499108261767 -343.6923826204355,1361.090464467541 -426.1963285866167,1372.9177869030327 -510.3217435728608,1377.4284853896374 -595.2586965265385,1374.2899827341118 -680.137132295961,1363.2496220224498 -764.0338074937707,1344.1433943052482 -845.9803571536734,1316.904155654319 -924.972467715327,1281.5691974193523 -999.9801164754772,1238.2870324479234 -1069.9588217115731,1187.3232606028537 -1133.8618313795027,1129.065379220274 -1190.6531617874152,1064.0264082875224 -1239.3213811454625,992.8472061530812 -1278.8940165913368,916.2973595630964 -1308.4524474104326,835.27454178203 -1327.1471319327406,750.8022445072382 -1334.2130012288967,664.0258032133913 -1328.9848394826838,576.2066514216064 -1310.9124590260135,488.7147571121183 -1279.5754677236343,403.01921399267627 -1234.697417923397,320.6769814736906 -1176.159119771568,243.31978983268425 -1104.010897548781,172.63925099319113 -1018.4835660148892,110.37024038710743 -919.9979047462682,58.27264127647388 -809.1724122735768,18.11156941666556 -686.8291286230989,-8.363777241877045 -553.9973247451937,-19.44247230468048 -411.9148703627933,-13.4752201541707 -262.027108041186,11.10150312719847 -105.98308078072375,55.74077562793852 54.37101685945953,121.76029406295395 217.00126825394017,210.31747007727776 379.69842009524245,322.3848709260259 540.0932672032696,458.72633372548745 695.6750458830958,619.8740961587359 843.8128081258373,806.1072968596884 981.7797099962036,1017.4322053389425 1106.7801068193623,1253.564543922737 1215.9793056563067,1513.9142624505555 1306.5357824716702,1797.573120148379 1375.6356278225414,2103.305417933922 1420.5289413405449,2429.5422082326736 1438.5678522852998,2774.3792880542833 1427.2458015879236,3135.5792545182644 1384.2376806752613,3510.57787020627 1307.4403845840498,3896.4949486990786 1195.0133020664366,4290.149928542296 1045.418234186574,4688.082256857475 857.4582059415594,5086.576652131806 630.314613328519,5481.693259710363 363.58213162281226,5869.302653587006 57.30080000304642,6245.125574727068 -288.01530640738446,6604.777229914943 -671.3534030250911,6943.815906633642 -1091.181896284471,7257.795589453322 -1545.4354152390981,7542.322192599758 -2031.505504923125,7793.112952619819 -2546.2374772396715,8006.05845524345 -3085.933871772381,8177.286702592763 -3646.3649270122937,8303.228561776203 -4222.786402132058,8380.683874633516 -4809.965020805027,8406.887451981094 -5402.211731959314,8379.574125176463 -5993.4228981952665,8297.0419841981 -6577.129431419464,8158.212895726452 -7146.553797724343,7962.689367889306 -7694.674710458301,7710.806811329 -8214.299222695447,7403.6802399275475 -8698.141818957092,7043.244459684891 -9138.909992200994,6632.286811589404 -9529.395677028959,6174.47156444739 -9862.571795118407,5674.355097034131 -10131.693055497211,5137.391065938469 -10330.400041967061,4569.92482630112 -10452.825514319651,3979.176457337646 -10493.701750604861,3373.211842964341 -10448.467666260367,2760.901369706218 -10313.3743640662,2151.865928868258 -10085.58769830584,1556.4100470082642 -9763.286378831759,985.4421171783296 -9345.754097529023,450.3818621171132 -8833.464132451834,-36.944671708736166 -8228.154875085149,-464.4221150822417 -7532.8947350448125,-819.7741168255762 -6752.134905213186,-1090.7021841399448 -5891.748519788273,-1265.033995234931 -4959.054808776048,-1330.8799702389433 -3962.826945641671,-1276.7967022263256 -2913.2824004784716,-1091.9556710967856 -1822.0547492170615,-766.3154915651214 -702.1460498753623,-290.79578530811057 432.1409208646742,342.54938093689947 1565.2910741771161,1140.3606821078743 2680.6863389622777,2107.807651385491 3760.735953713631,3248.4301247786407 4787.027500755926,4563.989481516056 5740.498190388337,6054.332191599778 6601.6256174754135,7717.268197124407 7350.636918619107,9548.466638809206 7967.7349572483035,11541.371391779796 8433.339860092346,13687.138793402131 8728.343925137035,15974.599829660407 8834.37762210169,18390.248894278026 8734.084115733971,20918.26104599345 8411.399463969161,23540.53946402514 7851.835381539713,26236.79454014376 7042.761219326805,28984.655748743793 5973.681595025587,31759.817105196198 4636.505925932447,34536.21665940173 3025.8059641617974,37286.25007821337 1139.057322528522,39981.01795014923 -1023.1390903430422,42590.606001988745 -3456.859830693027,45084.39695337944 -6154.6899551828255,47431.412256938864 -9105.586332041392,49600.68148243158 -12294.777095109328,51561.63660986044 -15703.70091764246,53284.52800352504 -19309.98953380366,54740.85835348293 -23087.496627525557,55903.83039891049 -27006.37584073176,56748.80379639262 -31033.210226354116,57253.756072165124 -35131.19498754069,57399.742207895266 -39260.37480508584,57171.347061883076 -43377.93646343775,56557.12452872037 -47438.55684550146,55550.01709743807 -51394.80568257906,54147.74928777555 -55197.601723753214,52353.18833285943 -58796.720235245666,50174.66544028117 -62141.34896202723,47626.251007804596 -65180.688889261495,44727.97729955566 -67864.59533881136,41506.00230764893 -70144.25413549952,37992.70883606305 -71972.88678917442,34226.73325052338 -73306.47787248962,30252.918841484006 -74104.51704170537,26122.18934722608 -74330.7474601266,21891.338879608265 -73953.91175255406,17622.735283867427 -72948.48605599465,13383.93484250842 -71295.39224840511,9247.207196842553 -68982.67804479758,5288.970401801611 -66006.15435957484,1589.1371425986988 -62369.97915594835,-1769.6256834899568 -58087.176947466185,-4702.720590954992 -53180.08319190903,-7124.521640763678 -47680.70303195548,-8949.349099377743 -41630.97419671009,-10092.509331598212 -35082.924388694715,-10471.391336188131 -28098.714145986756,-10006.610052399708 -20750.556990923895,-8623.18532170875 -13120.509655446098,-6251.744200184487 -5300.126307058627,-2829.733201468889 2610.028015139598,1697.3739729012884 10501.008113750264,7374.888571220806 18256.265286246842,14237.754934999077 25752.570012376982,22309.451419490015 32861.0789591525,31600.96133058373 39448.542675827266,42109.83140189746 45378.64835742871,53819.33542162132 50513.48999794535,66697.76049109915 54715.15615451436,80697.83304355934 57847.4234251908,95756.30116111605 59777.54163019804,111793.6888926507 60378.09460663388,128714.23718836131 59528.91850753295,146406.04472542976 57119.057567128744,164741.4203029423 53048.735485160316,183577.45663575304 47231.31892466678,202756.83328248386 39595.24814063283,222108.85411191118 30085.908491595397,241450.7221577336 18667.415562832874,260589.05195097832 5324.285876957265,279321.61647262867 -9937.035286899036,297439.322760597 -27086.8175749304,314728.4069628015 -46070.88913487216,330972.8362832039 -66809.70789594697,345956.9018549354 -89197.68739290463,359467.9831320317 -113102.80260675099,371299.4609596442 -138366.49951853885,381253.7531052845 -164803.9298826513,389145.4427563734 -192204.53012189848,394804.46735960746 -220332.96023310715,398079.3322441666 -248930.41517878277,398840.3107832696 -277716.3174435913,396982.59045695746 -306390.39527533704,392429.3221327479 -334635.1466363193,385134.5282286267 -362118.68409590726,375085.8242116516 -388497.95083838794,362306.9071597978 -413422.2926868704,346859.76491620054 -436537.36560562433,328846.55973137653 -457489.35259599617,308411.14125361707 -475929.45830690494,285740.14531861595 -491518.6441062907,261063.63722871407 -503932.5608753402,234655.26111540175 -512866.6314672212,206831.8605543648 -518041.22969357664,177952.5398508987 -519206.8979444982,148417.14032716272 -516149.54119182314,118664.1115049371 -508695.53125252156,89167.76326254605 -496716.65187906387,60434.89181713886 -480134.8125759893,33000.77969873579 -458926.45709261415,7424.577685668881 -433126.59138323297,-15715.915102114013 -402832.3555257067,-35830.04817890679 -368206.06470823725,-52320.66012239978 -329477.6459861723,-64590.91982315387 -286946.4001213539,-72051.61683057647 -240982.02148152373,-74128.84001517382 -192024.8137216201,-70271.97485983453 -140585.04480576408,-59961.941056077245 -87241.3918589303,-42719.58384012 -32638.434347563518,-18114.124787277757 22516.83684819759,14228.429277218944 77459.51683422244,54617.0268657136 131372.30191048706,103287.57488300568 183392.0220173849,160395.3214255429 232617.177152867,226007.73873944377 278116.45111035457,300098.02860185987 318938.16193975706,382539.3728433035 354120.5941570621,473100.05068562063 382703.1430719639,571439.5419440955 403738.1868314397,677105.7308593219 416303.5870661239,789533.3193273289 419515.70456283906,908043.5505448328 412542.80236716557,1031845.3345592621 394618.69534866494,1160037.8559100258 365056.4927480692,1291614.7304901003 323262.2687834746,1425469.7639902178 268748.4862354662,1560404.3478810503 201146.98927158146,1695136.510936206 120221.37481654373,1828311.6249200846 25878.546727083358,1958514.7424055503 -81820.74592066128,2084284.522918175 -202652.58580008874,2204128.6809228463 -336221.9771706132,2316540.865796031 -481956.5418592426,2420018.8601074275 -639102.0076370187,2513083.9585343963 -806719.6654243383,2594301.365837811 -983685.9590919919,2662301.4288435536 -1168694.3560717015,2715801.4946191143 -1360259.6285518566,2753628.16534157 -1556724.6537469341,2774739.7000628086 -1756269.8176669192,2778248.2950366633 -1956925.0800892024,2763441.9578280644 -2156584.729204259,2729805.676421816 -2353024.822863719,2677041.5733259376 -2543923.2797425543,2605087.7265470847 -2726882.548315493,2514135.3346127467 -2899454.7446619635,2404643.901814004 -3059169.1121135456,2277354.122803483 -3203561.617041493,2133298.1528348783 -3330206.4560832786,1973806.9614646 -3436749.211291963,1800514.4836025205 -3520941.351556163,1615358.3025014834 -3580675.7417015373,1420576.6246671663 -3614022.7854861896,1218701.3367489614 -3619266.795797161,1012546.9691788391 -3594942.1553061996,805195.4305368194 -3539868.804214754,599976.4201524054 -3453186.5690718107,400443.4740493486 -3334387.8285317775,210345.65068604244 -3183347.998861978,33594.91764907414 -3000353.31451176,-125770.64193413017 -2786125.377583341,-263627.6245065388 -2541841.955020574,-375811.862173669 -2269153.5141251264,-458166.4363008511 -1970195.0059306582,-506592.7817661425 -1647592.4322562765,-517104.45196387393 -1304463.7660871341,-485883.05272196827 -944413.8363768425,-409335.7933337682 -571522.8374279955,-284154.04578996997 -190328.17958312697,-107372.24992951001 194200.53815145255,123573.54647513694 576693.5820272693,410788.26680464926 951420.2350034192,755862.2945881047 1312335.033137001,1159818.6923912743 1653130.985315312,1623063.9915900307 1967299.5810206195,2145343.4059748747 2248197.2932604454,2725701.324277849 2489118.1833467865,3362447.928366258 2683372.111922332,4053132.764409581 2824367.957660154,4794526.063296126 2905701.14264025,5582608.5635634605 2921244.662843201,6412570.534844747 2865242.7248728536,7278820.632189351 2732405.997354219,8175005.131599621 2518007.3989147823,9094038.004908934 2217977.2657340323,10028142.188034205 1828996.671828516,10968902.28117036 1348587.6160073802,11907328.793330722 775198.7422312066,12833933.90762693 108285.2263283084,13738818.598859677 -651618.5570136037,14611770.78256528 -1502834.976131695,15442374.016025817 -2442489.068294836,16220126.10845221 -3466465.7927310993,16934566.8313167 -4569379.902972391,17575413.75251062 -5744559.660328395,18132705.05164751 -6984045.520005467,18596948.010550655 -8278604.81096816,18959271.715000622 -9617763.300126117,19211582.3534861 -10989854.38109634,19346719.358388763 -12382086.458182415,19358610.50715286 -13780628.908147817,19242423.98796765 -15170716.79694174,18994715.338725004 -16536774.307160413,18613567.09185854 -17862556.596373502,18098718.903375722 -19131309.558496177,17451685.914110694 -20325946.702398244,16675863.086930953 -21429242.09645456,15776613.287121128 -22424038.057550214,14761336.926015904 -23293465.991213683,13639521.071460545 -24021178.519325472,12422766.04386699 -24591590.766713914,11124787.664187992 -24990128.421538383,9761393.50038545 -25203479.940454885,8350431.671872518 -25219850.04202108,6911711.016494941 -25029211.42456498,5466891.700997962 -24623551.461744905,4039345.662255063 -23997110.47417117,2653986.6010106835 -23146608.052550044,1337069.6102343448 -22071453.820523962,115960.90364969739 -20773938.97717983,-981121.4866349258 -19259404.95330768,-1925394.7548907395 -17536385.554815397,-2687824.388767617 -15616719.05378392,-3239461.0991930338 -13515626.824594278,-3551799.0121011892 -11251755.311014224,-3597152.0819529737 -8847178.351195738,-3349045.2564474023 -6327357.181738823,-2782616.505595137 -3721055.789214324,-1875025.4325615338 -1060209.677044977,-605863.8146844463 1620253.4340499742,1042436.9127860796 4282641.954939392,3084206.5139980554 6886778.264628232,5530150.68506885 9390325.886323957,8386985.394509721 11749165.230944753,11657096.704455191 13917816.479875237,15338232.02236053 15849907.496472733,19423228.740675665 17498683.95407488,23899786.15627286 18817558.15448461,28750286.417989433 19760692.293184027,33951670.026124686 20283611.21452241,39475371.099469274 20343839.00101503,45287317.231663845 19901553.065312404,51347998.27856114 18920248.771330375,57612607.851987675 17367407.01270378,64031260.644146256 15215156.632509658,70549287.97327632 12440923.088500995,77107613.12871854 9028054.363177244,83643207.20701212 4966414.797948535,90089625.17618497 252937.30508516764,96377620.89028442 -5107875.710780416,102435838.70901461 -11103512.399657464,108191578.26787584 -17713082.049861703,113571627.8034351 -24907025.540214267,118503160.27835327 -32646914.624457438,122914685.38473588 -40885348.50723429,126737049.34633726 -49565955.527615935,129904473.30508195 -58623506.98251948,132355619.98094092 -67984149.19873722,134034677.25262746 -77565758.90084875,134892446.33650568 -87278425.72696963,134887421.3593813 -97025064.42100509,133986846.34435105 -106702157.78673682,132167734.97436492 -116200629.93555772,129417837.98185925 -125406847.70796598,125736542.6504924 -134203746.41298196,121135688.72143397 -142472074.22543186,115640284.98555937 -150091747.72639945,109289111.02662343 -156943309.18682155,102135188.96983069 -162909474.2995314,94246110.69405985 -167876757.184044,85704206.79124667 -171737157.64530087,76606544.60761018 -174389893.88794634,67064743.980594486 -175743162.19784936,57204600.79193954 -175715903.52960894,47165510.18769807 -174239555.51000035,37099683.26371453 -171259767.1102535,27171153.170438565 -166738052.18178082,17554568.941028446 -160653357.21700647,8433777.87533059 -153003518.11471528,200.00000018737552" stroke="white" stroke-width="1.5" /></svg>