<?xml version="1.0" encoding="utf-8" ?>
<svg baseProfile="full" height="400" version="1.1" width="400" xmlns="http://www.w3.org/2000/svg" xmlns:ev="http://www.w3.org/2001/xml-events" xmlns:xlink="http://www.w3.org/1999/xlink"><defs /><rect fill="black" height="100%" width="100%" x="0" y="0" /><circle cx="200" cy="200" fill="yellow" r="10.00000000000073" stroke="orange" stroke-width="2" /><polyline fill="none" points="201.29552020666134,200.0 201.3345238291417,200.07005640481617 201.36713543082809,200.14393337720094 201.39277150591374,200.22096774863877 201.41090449203313,200.3004126551697 201.42107335185977,200.38144122305013 201.4228940447729,200.46315149661254 201.41606975125387,200.54457263021817 201.40040070656121,200.62467235193603 201.37579349549526,200.7023656912724 201.34226965685372,200.7765249470365 201.2999734446373,200.8459908543975 201.24917859332265,200.90958489252776 201.1902939366949,200.9661226561134 201.12386773392586,201.01442819563903 201.05059056287877,201.05334921293348 200.97129664907905,201.08177298022068 200.88696350945358,201.09864283309457 200.7987098028216,201.10297507067918 200.70779129420833,201.09387608000134 200.615594857308,201.07055948656063 200.52363045877448,201.03236311949127 200.43352108936887,200.97876556784647 200.34699063020747,200.90940209465427 200.26584966727182,200.82407966775455 200.19197929376406,200.72279086127438 200.12731296759185,200.60572637916238 200.07381651998654,200.47328595269653 200.0334664407068,200.32608736749162 200.00822659514142,200.16497338242908 200.00002355855509,199.99101631324498 200.01072078235129,199.80552006734288 200.04209183616877,199.61001943381132 200.09579299747767,199.4062764536431 200.17333548667497,199.19627371975588 200.2760576700724,198.98220448453472 200.40509757518538,198.76645948414276 200.56136608193844,198.5516104236127 200.74552116937343,198.34039010452273 200.95794360976498,198.13566921760963 201.1987145103183,197.94042986565725 201.46759510646862,197.75773592705224 201.76400920988127,197.59070041709532 202.0870287082528,197.44245005202583 202.4353625026767,197.31608726924438 202.80734925144088,197.21465000584186 203.20095426651017,197.1410695856634 203.61377088051034,197.0981271121241 204.04302656773834,197.08840880918638 204.4855940626066,197.11426079562355 204.93800767310083,197.17774381723825 205.39648493547438,197.28058849736493 205.85695369979015,197.4241516970687 206.31508467440233,197.60937460225747 206.76632939148413,197.8367431747788 207.20596348577442,198.1062516178342 207.62913510544283,198.41736951209958 208.03091819804462,198.76901327723888 208.40637033672434,199.15952260353677 208.7505946729688,199.5866424797268 209.0588055232191,200.04751141540552 209.32639701850061,200.53865641943833 209.54901416994818,201.0559952493153 209.7226256297654,201.59484639045382 209.84359735787086,202.14994715902205 209.90876634038568,202.71548024715818 209.91551344834684,203.28510894579185 209.86183447473772,203.8520211880737 209.74640834623173,204.4089824562669 209.5686614740455,204.94839748755908 209.3288271870416,205.46238060046986 209.0279991806885,205.94283434434163 208.6681779185866,206.38153605093362 208.2523089398052,206.7702317406389 207.78431205594586,207.1007367076819 207.26910046721383,207.36504198031312 206.7125888872637,207.55542572508372 206.12168984244755,207.66456854042772 205.50429740241887,207.68567146574978 204.86925770573453,207.61257541981968 204.2263257658522,207.43988067834835 203.58610817923338,207.1630649070279 202.9599915074164,206.77859818491564 202.36005626797518,206.28405338565767 201.79897664406454,205.67821023245926 201.28990620738352,204.96115130861568 200.84635014325542,204.13434829041694 200.482024667297,203.20073667479346 200.21070452879883,202.1647773014904 200.04605970423034,201.03250301996513 200.00148259280155,199.81154892550964 200.08990723218253,198.51116468798386 200.32362225357812,197.1422076204224 200.71407948853687,195.71711528377836 201.27170032220855,194.24985659802442 202.0056820562582,192.75586062824888 202.92380669627278,191.25192243643357 204.03225471024547,189.75608563410236 205.3354264136199,188.28750153644427 206.83577371953828,186.8662651029432 208.5336450476067,185.5132281507237 210.4271462080758,184.24979064212067 212.51202006846535,183.09767117442706 214.78154776421565,182.07865813405195 217.2264741321111,181.21434331579587 219.83495992351914,180.52584014669532 222.59256319283054,180.0334889887037 225.48225205421153,179.75655232093666 228.4844507566799,179.71290291569207 231.57712074388633,179.91870841819247 234.7358780416329,180.38811601312096 237.93414795445625,181.13294110661874 241.14335765447385,182.16236416558473 244.3331668136503,183.4826400320431 247.47173596779518,185.09682416433452 250.52603181064262,187.00452034447477 253.46216810357174,189.20165442800186 256.24578035575274,191.68027869516146 258.8424318861469,194.4284112869205 261.2180483287648,197.42991507311905 263.33937709229554,200.6644201006854 265.1744677414862,204.10729350550088 266.69316873767866,207.72966044114264 267.86763546721807,211.4984791810467 268.67284400678506,215.37667308811052 269.08710463198753,219.32332161873833 269.0925686777518,223.29391193905985 268.6757220141492,227.24065208269016 267.8278581170996,231.11284587604197 266.5455234975254,234.8573291039326 264.8309281122372,238.41896559106408 262.6923133219356,241.7412010408742 260.14426999243915,244.7666716101711 257.2079994601624,247.43786331465515 253.91151030671497,249.697817466547 250.2897442141229,251.49087645148086 246.38462460440059,252.76346326870555 242.24502230673045,253.4648873981787 237.9266331428025,253.54816873256115 233.49176307510632,252.9708705340328 229.00901742191874,251.6959316581092 224.55289160273668,249.69248764222073 220.20326193377534,246.93666969863955 216.04477613818818,243.41237019213514 212.16614446158542,239.11196283484057 208.659333580402,234.0369656060037 205.61866684732178,228.19863431362225 203.13983582141867,221.61847476853112 201.31882946660673,214.3286617483154 200.2507888547097,206.37235329615714 200.02879666202298,197.8038894345919 200.74261218256314,188.68886508068974 202.4773639782216,179.1040678300925 205.3122136258811,169.137272333363 209.31900528372046,158.8868842178099 214.56091696252236,148.4614279076872 221.09113043173156,137.97887425941138 228.95153759329077,127.56580564769885 238.17150189824946,117.35641800236309 248.76669394176497,107.49136129038816 260.73802073227796,98.11642204779733 274.0706682724366,89.3810537722054 288.73327699638446,81.4367632687972 304.67726926574306,74.43536337648065 321.8363475225784,68.52710486158324 340.12618082182496,63.85870262610035 359.44429631074,60.571273706752294 379.67019078467,58.798206808949516 400.6656757256061,58.66298529387109 422.27546722512204,60.27698758391611 444.3280299123175,63.73729083780361 466.6366814602678,69.12450543733411 489.000961445028,76.5006692891742 511.2082652974274,85.90723214342931 533.035740841731,97.3631610337229 554.2524414829143,110.86319851997742 574.6217265160353,126.37630563604978 593.9038953211904,143.84432128326074 611.8590384137779,163.18086924408072 628.2500844839391,184.2705429976901 642.8460187258593,206.96839708461445 655.4252439751419,231.0997718794486 665.7790524910044,256.4604762818705 673.715172692243,282.81735002511874 679.061351835953,309.9092240318585 681.6689325710627,337.4482935298786 681.4163785604999,365.1219144905684 678.2127020017085,392.5948293943088 672.0007439396954,419.51182338807234 662.7602568126092,445.5008066176482 650.5107377474083,470.17631293267516 635.3139607794863,493.14339932637336 617.276156448301,514.0019244391838 596.5497881592469,532.3511782884543 573.3348763327672,547.7948291524476 547.8798237111464,559.9461473094647 520.4816982804309,568.4334591896309 491.4859341005209,572.905779519943 461.2854149230838,573.0385633180524 430.318910807792,568.5395142050112 399.0688440060271,559.154380551614 368.0583671410046,544.6726665374542 337.84774413711204,524.933181376385 309.03003239126315,499.82934683518266 282.2260732764738,469.314180829532 258.07880715311734,433.40487340470634 237.2469385559511,392.1868708737578 220.39798703435946,345.8173843635519 208.20076914841823,294.52824057032467 201.3173672541408,238.62799520426194 200.394650828658,178.5032334490463 206.05542606335524,114.61898680778341 218.8892991566512,47.51820196875627 239.44334802910998,-22.17979519335651 268.21270591872843,-93.78188867419578 305.63116834762695,-166.52485277514523 352.0619421361088,-239.58015122774668 407.78866132983524,-312.05987022955514 473.0067999571907,-383.0237875272694 547.8156153075856,-451.4875656931615 632.2107577850179,-516.4320429615587 726.0776842208377,-576.8135795543276 829.1860107122947,-631.5754014759327 941.1849384889251,-679.6598674638545 1061.5998819121096,-720.0215683185369 1189.830421416169,-751.6411514021622 1325.1496959532126,-773.5397468936463 1466.7053392806924,-784.7938566355332 1613.5220522251427,-784.5505513330281 1764.5058888865537,-772.0428076989972 1918.4503186607594,-746.6048041186984 2074.044108022939,-707.6869817727769 2229.8810463339464,-654.8706681444089 2384.4715186301296,-587.8820516794863 2536.2559055932034,-506.6052902931798 2683.619766854933,-411.09453263718046 2824.9107386852725,-301.584629760116 2958.4570511831976,-178.5003161923018 3082.587543604459,-42.463643727293544 3195.653029711878,105.70054160575309 3296.0488383368925,264.96127857350905 3382.238328031395,434.0805114879176 3452.777149119754,611.6146216946929 3506.3380019999704,795.9186189076904 3541.7356175687605,985.1531183931925 3557.9516645432755,1177.2942037904631 3554.159269610317,1370.1462461399144 3529.7468201378742,1561.3577176405981 3484.340706012304,1748.440003983292 3417.826647384204,1928.7891820597697 3330.3692490655567,2099.710690735039 3222.429420345629,2258.44678153526 3094.7793013808455,2402.2065939431027 2948.5143443259794,2528.1986569389815 2785.0622092341246,2633.6655749582164 2606.1881516372955,2715.9206130622906 2413.9966007551557,2772.385853393854 2210.928654537186,2800.63155347451 1999.7552502339306,2798.4162972093127 1783.5658068624575,2763.727492198096 1565.752178658061,2694.8217327476546 1349.9878061954787,2590.2645174603495 1140.2020040526486,2448.968784071016 940.5493803368278,2270.231702929872 755.3744436797517,2053.7691547792338 589.1715169424906,1799.7473088121021 446.5401432849545,1508.8107139597298 332.13623880861047,1182.1063204131087 250.61931596552762,821.3028599662417 206.5961725667915,428.6050332358782 204.56151168419422,6.761979449587358 248.83602713228197,-440.93045949514305 343.5025566086052,-910.6341245009623 492.3409689859626,-1397.9799650715197 698.7625126910009,-1898.0868348350236 965.7444075506522,-2405.5879165618962 1295.7655119172712,-2914.664958932641 1690.743939277517,-3419.0904223385614 2151.9775329095146,-3912.277539121621 2680.088132513512,-4387.338195564398 3274.9705821836715,-4837.148439427453 3935.747433757196,-5254.421308826149 4660.730292692076,-5631.786566784715 5447.388734497926,-5961.876812056774 6292.327687793948,-6237.419322020765 7191.274134833047,-6451.332869004808 8139.073921483823,-6596.828638713021 9129.699396023656,-6667.514270035828 10156.268509646463,-6657.499931011598 11211.075911478269,-6561.505247691525 12285.63645745223,-6374.965812800605 13370.74142614326,-6094.13792104724 14456.527596309727,-5716.200109366728 15532.559191351043,-5239.35002491125 16587.922536272392,-4662.895102787059 17611.333104364898,-3987.3355108790392 18591.254455168786,-3214.4378119820626 19516.028384085446,-2347.2978051400833 20374.015419125953,-1390.3910396927197 21153.74461378231,-349.60954798566615 21844.071399092445,767.7165832401947 22434.34207499643,1952.8140865804814 22914.56334352094,3195.478998018901 23275.57511675244,4484.107775461015 23509.224673615296,5805.747912686674 23608.54009384283,7146.168724790307 23567.900767925574,8489.952775518292 23383.202670926723,9820.608191626541 23052.015998498824,11120.70186595771 22573.732697768715,12372.01329118743 21949.701386387937,13555.708492254136 21183.347142234004,14652.533239822313 20280.273666032495,15643.02443250321 19248.345371360178,16507.73823503572 18097.747042605566,17227.493256557602 16841.018822703612,17783.626751070777 15493.06444967341,18158.26152505322 14071.130854625162,18334.580948918087 12594.757463993148,18297.10919384648 11085.693814878283,18031.993557726866 9567.784393648091,17527.28550789093 8066.819942948868,16773.216858435037 6610.354849128452,15762.467320521695 5227.490618317039,14490.41951944255 3948.6258721066342,12955.397466518418 2805.17373942201,11158.884411037156 1829.2479857803423,9105.715981036712 1053.3197001824897,6804.244555143601 509.84684837511605,4266.470893798379 230.87949372524506,1508.1391994983169 247.64397759900572,-1451.2080259004686 590.1098337070891,-4588.218701893057 1286.5436788265472,-7875.766527047058 2363.0547688313413,-11283.035657426477 3843.1373270733056,-14775.656955592944 5747.215134746828,-18315.89756918655 8092.194212806587,-21862.905052463244 10891.029715202603,-25373.006646899386 14152.313386709546,-28800.063692040774 17879.88810875721,-32095.88045000502 22072.49615705471,-35210.66590212705 26723.46781952207,-38093.5463206985 31820.456966727637,-40693.1256399453 37345.23002494738,-42958.08985643644 43273.51457013925,-44837.8508888894 49574.913436437826,-46283.22453036893 56212.88981303661,-47247.13634229335 63144.82828739762,-47685.348580115235 70322.17618058846,-47557.20051609194 77690.66881336176,-46826.35384656174 85190.64154179694,-45461.53425114468 92757.43051267255,-43437.25962089355 100321.86311632124,-40734.54500312955 107810.83806503538,-37341.57393378717 115147.993906029,-33254.325554439914 122254.46359877264,-28477.14675109645 129049.7115578886,-23023.25851494492 135452.44829663206,-16915.185820204544 141381.6165156164,-10185.10054874213 146757.44118120987,-2875.0673715818907 151502.53484351296,4962.816971093497 155543.0481714929,13266.399863876051 158809.8544500018,21963.572514130206 161239.7556080407,30972.500185577668 162776.69624822805,40201.98884602832 163372.97114272718,49551.99280449989 162990.41076975656,58914.26646544327 161601.5287059302,68173.16174440844 159190.61408134364,77206.57098084032 155754.75186419868,85887.01336265399 151304.75348659485,94082.86095893638 145865.98026844498,101659.69845889584 139479.04225643247,108481.80865654408 132200.3554819015,114413.7736231186 124102.5412659286,119322.17939641007 115274.65206972459,123077.40991322084 105822.20950957718,125555.51384497207 95867.04153062757,126640.12599514559 85546.90736280994,126224.42301005278 75014.90076201153,124213.09137139675 64438.62416330746,120524.28401071335 53999.12873099204,115091.54044268654 43889.617868308495,107865.64408686814 34313.91453105941,98816.38946522793 25484.695652591126,87934.23125484603 17621.50010835332,75231.78676810839 10948.519898051702,60745.16335221678 5692.187570552363,44535.082468518725 2078.576326051165,26687.772850170175 330.6326633398649,7315.606160755164 665.2648561797525,-13442.550000186618 3290.3138981906504,-35421.28506718651 8401.436804466104,-58428.9255324941 16178.935252782354,-82248.16044447794 26784.565438958813,-106637.02773785953 40358.36766008712,-131330.27329254762 57015.55647623166,-156041.0907777662 76843.51428650082,-180463.24614067125 99898.93274085801,-204273.58607202535 126205.14754817897,-227134.92495998665 155749.71288980538,-248699.2997669171 188482.2617652953,-268611.57697943423 224312.69814616535,-286513.39034045336 263109.7657617216,-302047.38253092824 304700.0366614207,-314861.7183906478 348867.3603694927,-324614.8317186823 395352.81145510485,-330980.36224586365 443855.16967826104,-333652.23409865925 494031.96253820736,-332349.82205313776 545501.0950566111,-326823.1471888893 597843.0859900037,-316858.03927630855 650603.923411909,-302281.1994473179 703298.5457713372,-282965.0934895801 755414.947167094,-258832.60354581758 806418.8977324978,-229861.3641684768 855759.2617682643,-196087.70764714363 902873.8876677137,-157610.1433581911 947196.0348322537,-114592.2966430652 988161.2937696077,-67265.23445599366 1025214.9465038064,-15929.107777587073 1057819.7054133506,39045.95539809527 1085463.7597677803,97219.76780561625 1107669.0506744122,158082.86670202314 1123999.687001822,221058.2119664687 1134070.4072438583,285503.83861713123 1137554.9853586128,350716.49467021704 1134194.4724918725,415936.2850790492 1123805.1613044562,480352.33136421343 1106286.1554946937,543109.4445538856 1081626.42416333,603315.7962881465 1049911.219024737,660051.5595090319 1011327.7322325486,712378.4761821625 966169.8738574164,759350.2951130471 914842.050914095,800024.008283485 857861.8343557544,833471.799405844 795861.4066902242,858793.6037526301 729587.6908630346,875130.1639535285 659901.0708138484,881676.4525592444 587772.6256433608,877695.3189554703 514279.81260188745,862531.2058807922 440600.5490804917,835623.7695721696 368005.6603778964,796521.2276441612 297849.6781338054,744893.2504144468 231559.99383848882,680543.2047250646 170624.39260060567,603419.5545748991 116577.01420571709,513626.2202623187 70982.81122726371,411431.69741195004 35420.597336027684,297276.7393839141 11464.802746224901,171780.41127493282 666.0776677649095,35744.33113332534 4530.908416483289,-109845.07578728581 24500.43416146291,-263816.4708578341 61928.67484027658,-424815.78917793056 118060.40221658995,-591310.8463400486 194008.90604920266,-761598.4696032113 290733.92554128374,-933814.2338364342 409020.0322969812,-1105944.8555705075 549455.764586305,-1275843.2690011552 712413.8234731081,-1441246.3760191735 898032.6489724339,-1599795.4285465877 1106199.6985673704,-1749058.9659168236 1336536.7508491285,-1886558.1930765696 1588387.553492106,-2009794.6473721394 1860808.1270156628,-2116279.963016296 2152560.023630653,-2203567.503449531 2462106.8237786028,-2269285.59318244 2787614.1316486755,-2311172.042830624 3126953.304956932,-2327109.624451696 3477709.1236043125,-2315162.1195065104 3837191.5665633124,-2273610.5293478793 4202451.826608772,-2200989.0086513865 4570302.648501084,-2096120.056208005 4937343.028211869,-1958148.475554308 5299987.259080877,-1786573.600567197 5654498.255805776,-1581279.2689201836 5997025.029357479,-1342561.0196822511 6323644.125812469,-1071149.9907962475 6630404.780294751,-768232.9981155341 6913377.474379583,-435468.290464926 7168705.522138442,-74996.49512566537 7392659.2472672565,310553.7045472162 7581692.252243647,718065.5828268722 7732499.221054988,1143940.4576469176 7842074.640604607,1584110.1799517 7907771.773340539,2034056.2998609792 7927361.165873177,2488836.118401319 7899087.936268929,2943115.7618790655 7821727.047232678,3391210.337786418 7694635.744406298,3827131.1469798447 7517802.319362359,4244639.83739573 7291890.346365531,4637309.29052853 7018277.54135188,4998590.934156142 6699088.401507287,5321888.074323231 6337219.8048946895,5600634.737453064 5936358.782270032,5828379.410811435 5500991.717908912,5998872.967634482 5036404.293189134,6106159.963373722 4548671.5559494365,6144672.393085901 4044637.5802372266,6109324.908431272 3531884.2747786855,5995610.407507373 3018689.003998717,5799694.833318999 2513970.8021637993,5518509.94855742 2027225.0885161464,5149842.797000114 1568446.9282402827,4692420.516684537 1148043.0296920897,4145989.1384316455 776732.8212966075,3511384.9866024097 465439.11047249765,2790597.2983650877 225168.99029306212,1986820.6943199912 66885.82560788849,1104496.168014598 1373.3171388931141,149339.31546753735 39092.807606919494,-871645.4010957794 190035.156097275,-1950165.4681131598 463568.6633904565,-3076657.2139277705 868284.6795435074,-4240319.647108664 1411842.6632268822,-5429165.953801928 2100816.5877895467,-6630093.196198074 2940544.699326399,-7828970.564079563 3934984.7247694344,-9010746.324179452 5086576.700887636,-10159573.38916798 6396115.6458225995,-11258953.191213293 7862636.321294713,-12291897.296246348 9483312.3339355,-13241105.93659412 11253371.796577265,-14089162.374097485 13166031.713235509,-14818741.736033032 15212453.163686108,-15412832.695177935 17381719.244005695,-15854970.096491471 19660837.56757065,-16129476.3696182 22034768.94652652,-16221709.31239789 24486483.65674652,-16118313.589575572 26997046.440332185,-15807473.066811321 29545731.11971224,-15279160.89681414 32110165.387783762,-14525384.095890345 34666506.00117216,-13540419.199280784 37189644.24091287,-12321035.46614927 39653441.11947506,-10866702.023601977 42030991.40835014,-9179775.297097806 44294915.14014814,-7265663.075214567 46417674.807471916,-5132961.6028139265 48371916.04237554,-2793562.1906711576 50130829.11997006,-262723.97364710964 51668528.19305769,2440890.3549672794 52960444.737243414,5295218.757186481 53983731.27371636,8274846.635285466 54717671.04596324,11351098.457200967 55144088.96335874,14492176.085758084 55247758.79525596,17663345.218892537 55016801.3102259,20827170.84376734 54443067.81278958,23943802.05840627 53522503.34047377,26971306.024001673 52255483.65320434,29866050.18399029 50647120.080479786,32583131.227671005 48707526.29458949,35076848.5926763 46452041.154947445,37301219.59879176 43901401.923420064,39210532.592985116 41081862.38663368,40759933.77016991 38025250.74114723,41906042.62491679 34768962.50272083,42607590.295269534 31355884.19236873,42826074.390671946 27834244.12911495,42526423.26176391 24257387.32093328,41677662.08068057 20683472.188675523,40253572.56685328 17175087.679090552,38233337.72549862 13798790.217330825,35602162.57424209 10624560.910387108,32351861.52760912 7725184.433207296,28481402.899001732 5175552.10011495,23997400.874273222 3051892.7356163687,18914545.3184467 1430936.0996593898,13255959.904951097 389014.7806708019,7053479.3114600135 1111.631998358213,347836.61333341023 339860.97953078814,-6811247.471175023 1474512.9552526425,-14365081.167755138 3469871.3976055905,-22246130.94677582 6385216.788526201,-30378269.47849295 10273226.652284805,-38677147.10507354 15178906.705946349,-47050690.4808598 21138546.80857393,-55399730.694820054 28178716.389610805,-63618761.73332843 36315314.5300009,-71596828.57740055 45552690.20703464,-79218542.56854372 55882848.38100539,-86365219.93566132 67284757.58504377,-92916137.56817332 79723774.46687181,-98749898.26578929 93151200.31219345,-103745895.81306042 107503983.94542198,-107785868.3385457 122704584.54791261,-110755526.54722126 138661006.85264048,-112546241.58507659 155267019.86565763,-113056775.53220557 172402568.72976586,-112195035.85156256 189934387.58854258,-109879833.57189256 207716819.33617377,-106042623.58254619 225592845.9605647,-100629204.19224791 243395330.81727955,-93601352.08039737 260948471.62660772,-84938367.97440426 278069460.28545284,-74638507.84510745 294570342.7528845,-62720274.14818262 310260069.3295723,-49223541.674509995 324946722.63633657,-34210492.92632177 338439907.53814423,-17766338.625544373 350553284.192101,199.99999957069627" stroke="white" stroke-width="1.5" /></svg>