<?xml version="1.0" encoding="utf-8" ?>
<svg baseProfile="full" height="400" version="1.1" width="400" xmlns="http://www.w3.org/2000/svg" xmlns:ev="http://www.w3.org/2001/xml-events" xmlns:xlink="http://www.w3.org/1999/xlink"><defs /><rect fill="black" height="100%" width="100%" x="0" y="0" /><circle cx="200" cy="200" fill="yellow" r="10.000000000994179" stroke="orange" stroke-width="2" /><polyline fill="none" points="201.42120661061836,200.0 201.41185979493576,200.07411618974334 201.39265764759932,200.14662038155376 201.36345356858206,200.21631636211958 201.32422461300692,200.28195659896244 201.27508035654367,200.34225412083808 201.21627071579258,200.3958956778087 201.14819255669934,200.4415561027591 201.0713949279512,200.47791377593563 200.9865827625016,200.5036670737656 200.89461889893303,200.5175516630095 200.7965242853493,200.51835848146808 200.69347624191445,200.50495222728284 200.58680467402203,200.47629016061373 200.4779861463514,200.43144100444093 200.3686357486822,200.3696037157135 200.26049670719289,200.2901258843474 200.1554277199313,200.19252150595457 200.05538802204487,200.07648786494659 199.96242021498963,199.94192125807308 199.878630924062,199.78893128479223 199.80616937993966,199.6178534303624 199.74720405216826,199.4292596704141 199.703897495353,199.22396683219557 199.67837960183144,199.00304245784585 199.67271948742652,198.76780792905706 199.68889626907807,198.51983863042616 199.72876902429076,198.26096095070886 199.79404625195272,197.99324594706215 199.8862551817073,197.71899952714801 200.00671130421742,197.44074903755399 200.15648851687584,197.16122618420704 200.3363902983058,196.88334625109542 200.54692233990662,196.61018362739011 200.78826707328076,196.34494369964233 201.06026053820912,196.0909312147311 201.36237203653383,195.85151527020025 201.69368701250545,195.63009114105256 202.05289358954732,195.4300392054085 202.43827317672947,195.2546812850824 202.84769553532578,195.10723477043675 203.27861866652052,194.99076495115577 203.72809384556749,194.9081360251176 204.1927760855034,194.86196130559043 204.66894026496547,194.854553191771 205.15250309994542,194.8878735084469 205.6390510786917,194.96348485651876 206.12387441281106,195.08250364650021 206.6020069863682,195.24555551116433 207.0682722089871,195.45273381050768 207.51733459925543,195.70356195147124 207.94375684185636,195.99696024575644 208.34206197661612,196.3312180210364 208.7068002909669,196.70397168338405 209.0326204001594,197.1121894014103 209.31434391297486,197.55216304510094 209.54704299579558,198.01950796445288 209.7261200658663,198.50917113463103 209.84738876663005,199.01544812552675 209.9071553053906,199.53200927444988 209.9022991675039,200.05193535152193 209.83035216309096,200.56776290860066 209.68957471314692,201.0715393948383 209.4790282431146,201.55488800599906 209.19864252466738,202.00908211132335 208.84927679171895,202.4251289720707 208.43277345556893,202.7938623310873 207.9520032575318,203.10604331416323 207.41090072618906,203.35246894303748 206.81448885122117,203.5240874182714 206.16889194713195,203.61211918956067 205.48133575841803,203.60818269320117 204.76013395301945,203.5044235032753 204.0146602631672,203.2936455166471 203.25530566176437,202.9694426740715 202.49342010771366,202.52632961267994 201.74123855441832,201.9598695508556 201.01179109107503,201.26679762708102 200.31879727514183,200.44513785171557 199.67654491504743,199.4943117867379 199.09975377311417,198.41523704507586 198.60342487785465,197.21041369989953 198.20267636010115,195.88399671668031 197.91256695644245,194.44185256822044 197.7479085535764,192.89159826632095 197.72306937564917,191.24262114410732 197.8517696404906,189.50607785083227 198.14687172677347,187.69487117646145 198.62016709932143,185.82360350645067 199.28216243077546,183.90850591740752 200.14186753128078,181.96734216100276 201.2065878504392,180.01928704538062 202.48172444419106,178.08477900884333 203.9705844003315,176.1853469877816 205.67420478693583,174.34341200732473 207.5911932251512,172.58206426621754 209.71758818890552,170.9248168438384 212.0467420966639,169.3953375235151 214.56923018230694,168.0171605984749 217.27278801177175,166.81338090064895 220.14228034793845,165.80633266360414 223.15970385748145,165.01725619428794 226.30422589964192,164.46595567901514 229.55226133826287,164.1704517819855 232.8775889756665,164.1466330042574 236.25150882135975,164.4079100521121 239.64304098205037,164.9648777107078 243.0191664946114,165.82498892649284 246.34510992366282,166.9922459647995 249.58466301421075,168.46691362236322 252.7005481318112,170.24525953346452 255.65481964316407,172.31932660860684 258.40930079464914,174.6767425821776 260.9260530414405,177.30057151697866 263.1678741723743,180.16921191601813 265.0988209730683,183.25634582338222 266.6847515797342,186.5309429549171 267.893882106856,189.95732348524822 268.69735159192015,193.49528263059253 269.0697887983389,197.10027960806372 268.98987396240665,200.72369292387546 268.4408881703608,204.31314324817873 267.41124271607595,207.81288437741208 265.89498052707955,211.1642619712615 263.89224156458107,214.3062388869184 261.40968400973105,217.1759850256586 258.46085305046466,219.709528664236 255.06648918741305,221.84246527558147 251.25476818902547,223.510718860152 247.06146514979645,224.65134982221178 242.53003554482683,225.20340244635517 237.71160673113042,225.10878407142334 232.664874022101,224.3131671349379 227.45589625592083,222.76690438505375 222.15778668946584,220.4259467429277 216.8502960729224,217.2527525605919 211.6192858916847,213.21717637219663 206.5560909943073,208.29732469396774 201.756772149758,202.4803660041666 197.3212604836634,195.76328174195967 193.35239721965033,188.15354501584898 189.95487368459024,179.6697137196904 187.23407811024293,170.34192492765493 185.29485736164904,160.21227778773297 184.24020332637417,149.3350926639274 184.1698752888058,137.77703499572857 185.1789711694549,125.61709325346327 187.35646200896414,112.946401471185 190.78370549785973,99.86789813409143 195.53295567308425,86.49581468182795 201.66588709779273,72.95498855662044 209.23215288857912,59.37999756751947 218.26799683129704,45.914114347906775 228.79494051059692,32.708081838827695 240.81856684779802,19.918713018842226 254.32742167653782,7.707320502383453 269.29205496714934,-3.762015879227647 285.6642230221936,-14.324332841872717 303.3762723925013,-23.815805488951156 322.3407253935454,-32.075891353600326 342.4500859269316,-38.94957818606855 363.5768828254076,-44.2897145037299 385.5739661397119,-47.95939948738035 408.27506967317385,-49.83440650193586 431.4956506506145,-49.8056123797341 455.03401469131944,-47.78140266806298 478.6727312555387,-43.69002134699156 502.1803414684583,-37.48183210629102 525.3133567177256,-29.131457167520807 547.8185426978454,-18.63975888393759 569.4354796689754,-6.035628979596879 589.8993856451991,8.622449669968347 608.9441850688154,25.245103332677246 626.3058013072105,43.71106346430645 641.7256470758317,63.86649075078583 654.9542826964666,85.52465747464184 665.7552079992054,108.46601610362343 673.9087497264463,132.43867906157703 679.2160025572591,157.1593311963251 681.5027784010608,182.31459251554148 680.6235154720271,207.5628443350322 676.4650959113753,232.53652709723787 668.9505184339648,256.84491280106056 658.0423706975125,280.0773492746779 643.746044883568,301.80696746553735 626.1126393923619,321.5948365682725 605.2414896377168,338.9945452210668 581.2822717273064,353.5571802401282 554.436624365623,364.83666750311636 524.959236653146,372.3954327143265 493.15835259893555,375.8103329714769 459.39564713008,374.67880339517797 424.0854331759799,368.62515667070846 387.69316502406116,357.3069672839805 350.7332095715792,340.4214666079571 313.76586430990676,317.7118699119606 277.3936088358654,288.97355192375494 242.2565853402795,254.0599838712415 209.02731281602505,212.8883420626595 178.40464958345993,165.4446961229316 151.10702906538984,111.78868407546324 127.86500446015631,52.05758162267085 109.41314895230678,-13.530325694108626 96.48136924728958,-84.67315622245724 89.7857013914731,-160.98371675434754 90.01866890442575,-241.98873770887639 97.83929406176476,-327.12913226492697 113.8628635725464,-415.7613449435223 138.6505597384564,-507.15984597816976 172.6990773028853,-600.5208173356822 216.43035443447732,-694.9670645021528 270.1815534802447,-789.5541751899204 334.19543310834433,-883.2779320315194 408.61125808492005,-975.082971205419 493.4563960443928,-1063.872662904788 588.6387520783462,-1148.520172752895 693.9401916561671,-1227.8806458445272 809.0111001853913,-1300.8044372270724 933.3662233223274,-1366.1512945208633 1066.3819258724047,-1422.805380224273 1207.2949987141606,-1469.6910032783135 1355.203132602435,-1505.7889119139438 1509.067164941229,-1530.1529829192878 1667.715190677164,-1541.927126498202 1829.8486113908143,-1540.362211106393 1994.0501775248622,-1524.8327993095609 2158.794057584744,-1494.8534740724206 2322.457945210327,-1450.0945252171532 2483.3371904087116,-1390.3967583365572 2639.6609151523035,-1315.7851834523265 2789.610046209257,-1226.481338399197 2931.3371697405296,-1122.914002499686 3062.9880831558057,-1005.7280597585498 3182.724890282658,-875.7912777114466 3288.750456409499,-734.1987783398479 3379.3340105762923,-582.2749912120885 3452.837653991329,-421.572896289877 3507.743506048232,-253.87038467221026 3542.6811935191613,-81.1635899133567 3556.4553645306405,94.34292961820545 3548.0728873150065,270.249245691523 3516.7693749001346,443.9764064573936 3462.034661273015,612.7860906235834 3383.6368425384535,773.8035461472981 3281.6444885836863,924.0437475873689 3156.4466271210317,1060.4406617908342 3008.7701030519993,1179.8794655145161 2839.69392217965,1279.2315113674165 2650.6601996512854,1355.3917906151346 2443.4813503530386,1405.318593466197 2220.34318095905,1426.0750200530626 1983.8035715590258,1414.8719490517942 1736.7864687825768,1369.1120264060075 1482.570952070511,1286.43419460552 1224.7751801021825,1164.7582441063082 967.3350751868362,1002.3288334599331 714.4776593979603,797.7583942410274 470.6890170232227,550.0683116038288 240.6769230851684,258.7277519268762 29.32824674281477,-76.31050384576798 -158.33868928820783,-454.57786829154736 -317.226537239806,-875.0620422170293 -442.2158079094959,-1336.1840310909681 -528.2257988272032,-1835.7806996446336 -570.2790785492285,-2371.093453500209 -563.5689616617303,-2938.7635999355853 -503.5293339555345,-3534.834893811587 -385.90611504938954,-4154.763719225819 -206.8295775843618,-4793.437292676134 37.11332089430579,-5445.200199598741 348.80749398126363,-6103.8894933985985 730.5401203214442,-6762.87849495145 1183.9338661421295,-7415.129331598832 1709.8839583870706,-8053.254148587272 2308.5001510375328,-8669.584813564767 2979.0546362215023,-9256.250817117567 3719.9369482519733,-9805.264950518394 4528.616892006962,-10308.616217100036 5401.616496384466,-10758.369307316156 6334.491948386307,-11146.769841075982 7321.826403292821,-11466.354455899927 8357.234491136729,-11710.064697494647 9433.379249189882,-11871.36355221272 10542.002104544978,-11944.353350321286 11673.966410406903,-11923.893666874736 12819.314904910781,-11805.717755102698 13967.341312871506,-11586.545967413393 15106.676149778736,-11264.194553177658 16225.386614736748,-10837.678172150227 17311.09027628495,-10307.304429371743 18351.082063716443,-9674.758723251589 19332.473878448036,-8943.177704692696 20242.345937193622,-8117.209672871777 21067.908753365,-7203.060283732045 21796.67445765002,-6208.522021271471 22416.635955646907,-5142.985979978223 22916.45222245458,-4017.4346296771437 23285.63784402919,-2844.4143817268814 23514.754735820366,-1637.9869477708864 23595.603803639024,-413.6586785978169 23521.414162873636,811.7127097183421 23287.02740302193,2020.0343735285867 22889.0742779812,3192.1176320375826 22326.14112146712,4307.840118385983 21598.92323403582,5346.330301956506 20710.36246600187,6286.173581278945 19665.76623141464,7105.638824827623 18472.905234256326,7782.9239073151175 17142.087270929052,8296.418455378614 15686.20459436558,8624.981682715115 14120.752485757026,8748.232864886691 12463.81688062647,8646.851682570874 10736.029136922669,8302.885353514743 8960.486313716468,7700.059182594491 7162.635649079172,6824.086890955615 5370.122283500439,5662.976844088184 3612.5996687863126,4207.3300896658 1921.5025293266071,2450.625943841563 329.7826997978979,389.4907340089325 -1128.391352827788,-1976.0547787398937 -2417.9700089626176,-4642.373809024616 -3503.3911400398943,-7602.02228099821 -4348.979542455461,-10843.592302976782 -4919.37424583887,-14351.594663056185 -5179.980237326087,-18106.38442735377 -5097.440607817038,-22084.13345985951 -4640.124604332896,-26256.85335518218 -3778.626571916126,-30592.47188235245 -2486.270296725122,-35054.965579908494 -739.6128268371928,-39604.55062099312 1481.0585433187243,-44197.93348447012 4191.242777200796,-48788.62232716167 7401.762019494663,-53327.2992574082 11118.326079534283,-57762.25296617879 15341.131751616378,-62039.87038495748 20064.504303436865,-66105.18521648954 25276.588430747128,-69902.48033297238 30959.095850209025,-73375.9401651896 37087.11647864356,-76470.34832484294 43628.99982168892,-79131.82482132505 50546.31276553083,-81308.59636426027 57793.87943024201,-82951.79239599287 65319.90810190827,-84016.25868579636 73066.20951402107,-84461.37955242075 80968.50989878166,-84251.89907630414 88956.86127969739,-83358.73103020538 96956.15043325677,-81759.74670983147 104886.70681626051,-79440.52939683084 112665.00854472925,-76395.08384740428 120204.48422996985,-72626.48898236906 127416.40713860137,-68147.48186963734 134210.87675888912,-62980.96114769036 140497.88143974135,-57160.39824754953 146188.43433671395,-50730.145138515865 151195.7734680967,-43745.62785563515 155436.61527142933,-36273.41576885227 158832.44967550546,-28391.1574277615 161310.86338460713,-20187.37486240242 162806.87683065582,-11761.109438185942 163264.27910575093,-3221.4137481332214 162636.94416293755,5313.314427890936 160890.11068780068,13716.158367765393 158001.60731780197,21852.669284744083 153963.0043400706,29582.012297052628 148780.67265025267,36758.26786525422 142476.73062280694,43231.88289562195 135089.85964269732,48851.263456477216 126675.96939432666,53464.49875257934 117308.69460766176,56921.20367536004 107079.70583393886,59074.46492142185 96098.81797089141,59782.87337721818 84493.88168459083,58912.62323493323 72410.44458236927,56339.65616503923 60011.17097680136,51951.82685788042 47475.011337884396,45651.06439319955 34996.11504991146,37355.502236799395 22782.482856880088,27001.548230846212 11054.358378215082,14545.864772023917 42.36128285297099,-32.77150849822158 -10014.631901188635,-16731.76180660661 -18871.849823062916,-35523.160397801126 -26281.21801190734,-56352.364358904175 -31994.163325181467,-79137.048465187 -35764.61043958108,-103766.37497716061 -37352.145903742516,-130100.50660297506 -36525.321545715306,-157970.44904686933 -33065.06540306827,-187178.24722416082 -26768.164871642755,-217497.5564380885 -17450.783503589275,-248674.606576869 -4951.9698810812615,-280429.5737113675 10862.88569632901,-312458.36937024555 30098.693290622297,-344434.85326367605 52827.45264417553,-376013.4703470516 79085.23962991373,-406832.3078989702 108869.44061611239,-436516.56277470384 142136.28584934116,-464682.40323691745 178798.73266491693,-490941.20381390426 218724.74838848796,-514904.12555405404 261736.04116299754,-536187.0078998673 307607.28459691734,-554415.5322684151 356065.8790637044,-569230.6113740155 406792.28867860476,-580293.952444749 459420.9884347778,-587293.7368509036 513542.05070354237,-589950.3533681013 568703.3943095808,-588022.1174286832 624413.7127080931,-581310.9043614211 680146.0904536629,-569667.6208702292 735342.3092080579,-552997.4359445482 789417.8360441169,-531264.6901117254 841767.4778344642,-504497.4005153444 891771.676146639,-472791.27880829107 938803.4073899371,-436313.1793536922 982235.6430736937,-395303.89679158776 1021449.3150508676,-350080.23470578826 1055841.720651927,-301036.2709549408 1084835.2927876282,-248643.7502440807 1107886.6505468788,-193451.54072464455 1124495.8366748744,-136084.09882519362 1134215.6397280602,-77238.89512017519 1136660.8908106296,-17682.763812780355 1131517.617746196,41752.85070343146 1118551.9334730576,100177.76479123827 1097618.5305125217,156650.04568184254 1068668.6496850525,210184.10859255318 1031757.3889676793,259759.89409912188 987050.217621443,304333.0837760763 934828.5615789014,342846.29638428206 875494.3286690121,374241.1908150901 809573.2466516778,397471.38577185234 737716.8933046767,411516.08997398586 660703.3059985805,415394.3207094217 579436.0683369875,408179.57305270276 494941.783535932,389014.787231653 408365.8582456789,357127.4476941685 320966.5364380444,311844.63463351515 234107.1407185928,252607.83730916833 149246.49787939317,178987.32868663722 67927.54655484078,90695.89294140783 -8235.852672078343,-12398.308546184373 -77573.86062907912,-130259.95072795478 -138377.28751558482,-262676.057159949 -188915.81101977752,-409247.02874736045 -227457.66402398824,-569379.4024261335 -252290.64495985446,-742280.5460316737 -261744.2775639123,-926955.4853409252 -254212.9208672341,-1122206.0458868816 -228179.6050760325,-1326632.475587142 -182240.34492855,-1538637.694498994 -115128.65951874024,-1756434.2951405533 -25740.00684071283,-1978054.3908799554 86844.17718914486,-2201362.3810047507 223333.1613520554,-2424070.669408272 384204.6623921939,-2643758.339571118 569683.997460697,-2857892.751932551 779725.0001046997,-3063853.9911331204 1013993.0559831712,-3258962.050313702 1271850.6119988703,-3440506.5980656557 1552345.5054761781,-3605779.131170427 1854202.448171481,-3752107.2734186603 2175817.98310163,-3876890.9380610324 2515259.210295412,-3977640.029359598 2870266.5505430875,-4052013.317841726 3238260.784033183,-4097858.0848033205 3616354.5634772996,-4113250.094967373 4001368.5590563593,-4096533.422598405 4389852.345466212,-4046359.6264219023 4778110.089763684,-3961725.743020542 5162231.042952362,-3842010.5475785 5538124.778716319,-3687008.5155096264 5901561.05989641,-3496960.909189766 6248214.147769772,-3272583.411237859 6573711.301571686,-3015089.7300270433 6873685.146691925,-2726210.6147729913 7143829.520350196,-2408207.7369943075 7379958.334131849,-2063881.9226482916 7578066.924424786,-1696575.2550131087 7734395.295460832,-1310166.6125212596 7845492.596293122,-909060.258262358 7908282.113619341,-498167.15867127245 7920126.007893626,-82878.77780228651 7878888.971669029,330966.82975786185 7782999.947575689,737126.7202954628 7631511.009758276,1129002.5588792486 7424152.487910566,1499697.8190792257 7161383.398168964,1842082.4876088256 6844436.240891808,2148864.9704161095 6475355.2325334735,2412670.7867975608 6057027.058085449,2626127.5259322976 5593203.262483731,2781955.42708498 5088513.444408609,2873062.8319402826 4548468.474363231,2892645.646543434 3979453.0309667373,2834289.842624643 3388706.835067178,2692075.9252478858 2784294.0603977907,2460684.1973422947 2175060.511754126,2135499.563389546 1570578.2865222476,1712714.5359806828 981077.772151154,1189429.0417642186 417366.9799115568,563745.5690650198 -109261.62706387395,-165141.84027983033 -587136.4872243133,-996866.2760997044 -1004323.977941798,-1929815.8497516206 -1348756.4603960009,-2961072.304207868 -1608370.4733136632,-4086361.828117593 -1771254.0330082902,-5300019.505210161 -1825801.8139535922,-6594968.756721036 -1760876.8038822068,-7962717.038999309 -1565976.8525811003,-9393368.94085237 -1231404.36668273,-10875657.685450232 -748437.2464458698,-12396995.880039899 -109499.01742428668,-13943546.17382109 691674.017292015,-15500312.280990768 1659870.8872693193,-17051250.603302 2798251.6979350247,-18579402.446011115 4108203.441324725,-20067046.564572535 5589208.346854717,-21495871.50903367 7238727.254343163,-22847166.951181147 9052100.47102251,-24102032.888865948 11022468.521811144,-25241605.32558942 13140715.116159234,-26247296.72469519 15395434.534172086,-27101049.239913523 17772925.478633266,-27785598.431352124 20257213.247553952,-28284744.892262653 22830101.853958994,-28583630.941187903 25471257.456204973,-28669019.280632265 28158324.164116688,-28529570.29151982 30867072.955011338,-28156114.426730834 33571584.07115675,-27541915.991247747 36244462.87879027,-26682924.45509075 38857088.75144045,-25578009.342361964 41379896.10040885,-24229174.679186486 43782686.21683428,-22641748.96873856 46034968.11725204,-20824546.696125563 48106326.10289929,-18789997.452532597 49966811.25759776,-16554238.909122426 51587353.62563898,-14137170.068622112 52940191.33586404,-11562461.477634082 53999312.477530874,-8857519.39617304 54740905.09429389,-6053401.292756195 55143810.2515966,-3184680.4628526303 55189972.75698508,-289258.0541413357 54864883.779339634,2591878.6784395357 54158009.32875244,5414952.47455209 53063198.33062347,8133746.476764683 51579063.862047665,10700008.215626372 49709331.02204241,13063905.726194331 47463144.885373265,15174533.605100907 44855332.04801645,16980466.048963193 41906609.41521913,18430353.131994687 38643734.1146562,19473555.79185281 35099588.74029442,20060814.20743982 31313196.549477912,20144943.48060442 27329661.74744153,19681549.785945483 23200030.600000646,18629759.440123595 18981069.81532802,16952952.675459873 14734959.427054983,14619493.293488253 10528898.289755238,11603444.83402391 6434621.259007204,7885263.435468708 2527828.1653689365,3452457.1936975867 -1112474.2032098835,-1699798.4394582964 -4404714.731823103,-7568099.831108582 -7265581.630650107,-14140319.56092767 -9610922.268220184,-21395186.580887787 -11356713.07296546,-29301952.452850334 -12420092.108313734,-37820153.59598491 -12720445.650934631,-46899478.94733376 -12180538.84846232,-56479751.75770194 -10727679.319267787,-66491033.40992937 -8294901.400293725,-76853856.15731269 -4822157.667898223,-87479590.53873797 -257503.36951253036,-98270951.93771693 5441741.470669916,-109122649.32137436 12307868.252416179,-119922177.63054481 20361710.881714832,-130550753.60430896 29611648.73805083,-140884393.0239866 40052698.77570664,-150795125.46807915 51665714.05554538,-160152340.69784915 64416705.83918091,-168824258.7625748 78256305.98882507,-176679513.8453292 93119385.79315075,-183588839.78751463 108924846.47437619,-189426843.1584592 125575595.51891826,-194073847.70144176 142958721.61070806,-197417792.01753503 160945879.33273956,-199356160.47235385 179393892.94199634,-199797925.55789444 198145586.42212573,-198665478.34212762 217030844.6872108,-195896522.22314057 235867908.26223427,-191445904.0022134 254464901.01856765,-185287355.33061203 272621587.6168656,-177415116.89624387 290131354.22948706,-167845417.32535115 306783402.9080537,-156617778.70596167 322365146.6603764,-143796120.91628605 336664788.9394884,-129469637.58233799 349474067.8636473,-113753417.51117131 360591142.1206504,-96788786.86214574 369823592.2055171,-78743349.1372189 376991507.44301146,-59810702.29686958 381930626.20227134,-40209814.940359935 384495493.8683792,-20184046.522204198 384562600.5436301,199.99999952904687" stroke="white" stroke-width="1.5" /></svg>