<?xml version="1.0" encoding="utf-8" ?>
<svg baseProfile="full" height="400" version="1.1" width="400" xmlns="http://www.w3.org/2000/svg" xmlns:ev="http://www.w3.org/2001/xml-events" xmlns:xlink="http://www.w3.org/1999/xlink"><defs /><rect fill="black" height="100%" width="100%" x="0" y="0" /><circle cx="200" cy="200" fill="yellow" r="20" stroke="orange" stroke-width="2" /><polyline fill="none" points="199.07542111742015,200.0 199.07979503317955,199.95169344281334 199.09048734646723,199.9042456037068 199.10760958562142,199.85841934593378 199.13119487301788,199.81501224463062 199.16119206781377,199.774849114482 199.19746055827156,199.73877370216528 199.23976581174406,199.7076395911192 199.28777578820814,199.6823003791691 199.3410583195757,199.66359920264574 199.3990795518372,199.65235769370176 199.46120354036154,199.64936447039264 199.5266930803738,199.65536327157534 199.5947118447507,199.67104086060624 199.66432788983371,199.69701483300634 199.73451857699814,199.7338214735137 199.80417694329114,199.78190381707512 199.87211953864878,199.84160007614867 199.93709573011822,199.91313260301328 199.9977984552816,199.99659756043027 200.05287638784606,200.09195547680693 200.10094745830548,200.19902286281217 200.14061365188775,200.31746506504967 200.17047698488958,200.44679052877083 200.18915653920627,200.58634663560932 200.19530641363812,200.73531727384824 200.18763442966468,200.89272228773552 200.1649214091101,201.05741893880892 200.12604082176577,201.22810549607482 200.06997858289614,201.40332705323652 199.9958527639352,201.58148365004854 199.90293296489315,201.7608407513799 199.7906590843441,201.93954211183868 199.65865921265288,202.1156250260071 199.50676636661638,202.28703793467338 199.33503377921633,202.45166032616314 199.1437484569618,202.60732483925537 198.93344271957727,202.75184144052656 198.70490344277025,202.8830235146555 198.4591787346616,202.99871567162162 198.19758179032726,203.09682304025154 197.92169168686567,203.1753417836498 197.63335090353556,203.2323905391499 197.33465937779664,203.26624245401797 197.02796493848862,203.27535745872547 196.71584999179723,203.2584143926756 196.40111437392062,203.2143425733273 196.08675432624602,203.1423523792025 195.77593759409933,203.04196440077993 195.47197469839946,202.91303670123997 195.178286480436,202.7557897218799 194.89836807303726,202.57082836518163 194.635749506089,202.3591607923645 194.39395321013183,202.12221348212725 194.1764487379877,201.86184211345503 193.9866050803712,201.58033785806052 193.82764100652042,201.28042869739954 193.70257391428618,200.96527541532805 193.61416772507252,200.63846196035817 193.56488040672548,200.30397992103948 193.55681175111192,199.96620691407446 193.59165207189977,199.62987874710694 193.67063252113638,199.30005528634723 193.79447774983166,198.98208003286035 193.9633616571211,198.68153348989446 194.17686698398563,198.404180486413 194.43394951026355,198.15591170827255 194.73290760719505,197.9426797774188 195.07135788144691,197.7704303101234 195.44621762002697,197.64502847665042 195.85369470835323,197.5721816757226 196.28928564574662,197.55735902660808 196.7477822236376,197.60570846834582 197.22328736181282,197.72197233831 197.70924051721582,197.9104023796873 198.19845298843103,198.1746751981819 198.683153337454,198.51780925105243 199.1550430392651,198.94208450510544 199.60536234982217,199.44896594323748 200.0249662552684,200.03903213028903 200.40441023047813,200.7119100671725 200.7340453947475,201.46621756636614 201.0041225078506,202.29951437093487 201.2049041023352,203.20826321237186 201.32678389947256,204.18780195902147 201.36041250847916,205.23232794606736 201.29682826337282,206.33489549965336 201.12759191109222,207.48742757143924 200.84492373034925,208.68074228578652 200.4418415352072,209.90459507003948 199.9122979027275,211.14773688947653 199.25131486235395,212.39798894315913 198.45511419814187,213.64233399605197 197.52124144557538,214.86702432764355 196.44868161456952,216.05770606933035 195.23796464122984,217.19955948376742 193.8912585648209,218.27745451121754 192.41244844478317,219.2761206728785 190.8071990769512,220.18033018169436 189.0829996395464,220.9750928699489 187.2491884989739,221.64586130287876 185.31695653358594,222.17874421169546 183.29932749070693,222.56072615098518 181.21111407834087,222.7798910678025 179.0688487077197,222.82564726631767 176.89068804545252,222.68895106609813 174.69629080334286,222.36252628750074 172.50666848839725,221.84107655768554 170.3440091531708,221.12148731882718 168.23147452498543,220.203014339468 166.19297124889795,219.08745548372295 164.2528973503499,217.77930248409507 162.4358654055776,216.28586949459645 160.76640429708056,214.61739527397975 159.26864182337377,212.7871159660885 157.96597082218995,210.8113056071212 156.8807018492661,208.70928169900648 156.03370582561547,206.50337344461812 155.444050419316,204.21885054418905 155.12863425777437,201.88381080238503 155.10182336748124,199.52902519083352 155.37509450478748,197.18773944957886 155.95669026756937,194.89543179040123 156.85129105830828,192.68952678195578 158.0597090987775,190.60906604734998 159.5786097701805,188.69433698447844 161.40026556554866,186.9864613229131 163.512347889262,185.52694595248568 165.89776181799283,184.35719909136603 168.53452874510563,183.51801549832317 171.39572156415437,183.04903506731478 174.4494567049566,182.98817976447515 177.6589469169725,183.3710744694545 180.9826181994532,184.2304578560701 184.3742937070876,185.59558998230642 187.78344681570738,187.49166374764135 191.15552481811204,189.93922780726248 194.4323439394161,192.95362889881872 197.55255551978655,196.54448182899367 200.4521823164191,200.71517557577073 203.0652229335935,205.4624240796308 205.32432140823448,210.77587031551155 207.16149796822512,216.63775215031566 208.50893595240873,223.02263829209454 209.29981884635495,229.8972423217458 209.46921035898927,237.22032236226303 208.95496945528703,244.94267338161583 207.69869128325132,253.00721844191185 205.6466640036939,261.349204399787 202.7508306636406,269.89650663268725 198.96974446344544,278.570046316226 194.26950506890236,287.2843226141903 188.62466302764557,295.94806087186 182.01907887844598,304.46497653372484 174.44672320661795,312.73465304885474 165.9124037118821,320.6535304933493 156.4324053289651,328.11600004340846 146.0350295870316,335.0155977903911 134.76101972145528,341.246289718021 122.66385856851777,346.70383798056383 109.80992698665217,351.2872369495411 96.27851146107528,354.9002058568399 82.16165066412368,357.45272327644284 67.56381206098928,358.8625871787825 52.6013911669815,359.0569828848546 37.40202777237917,357.97403996602634 22.10373534607365,355.5643580042737 6.85384189836131,351.7924801705087 -8.192257187650654,346.63829281929515 -22.872531474553767,340.09832875925935 -37.019927562592585,332.1869515613779 -50.46415298342717,322.9373982319451 -63.033621254290665,312.4026578213607 -74.55754473498575,300.65616407964245 -84.86815919831423,287.7922811178154 -93.80306130992443,273.92656220117743 -101.2076375511233,259.1957632927149 -106.93756054454326,243.75759478586662 -110.86132629563696,227.79019701478197 -112.86280358175935,211.49132760240232 -112.84376464450526,195.07725149305654 -110.72636450964455,178.78132760311416 -106.45553471154659,162.85228939237584 -100.00125597371391,147.5522202872495 -91.36067353076862,133.15422874660885 -80.56001830477499,119.93983182003643 -67.6562971023796,108.19606026875725 -52.73871540805635,98.21230266029724 -35.9297972381259,90.27691026280243 -17.386167911319774,84.67358900407984 2.7010324992137384,81.677609170165 24.106134829490315,81.55186784175426 46.569352428723136,84.54284324462682 69.79764202367608,90.87648416044844 93.4660331332408,100.75408124385561 117.21944078319804,114.3481704562674 140.6749712435307,131.79852179220387 163.42472502527738,153.20826897636283 185.03909546833606,178.6402377871977 205.07055497116664,208.11353205548568 223.05791431101832,241.60043713789412 238.5310336396951,279.02370072354296 251.01595668285754,320.2542501488632 260.040432495265,365.1094039315329 265.13978191153177,413.35163295384916 265.8630586690979,464.68792360316934 261.7794481596994,518.7697911946414 252.48483998449427,575.193987151137 237.60850404656068,633.5039376994318 216.819793915616,693.191945273325 189.83479574775953,753.7021764181957 156.42283624227628,814.4344518040446 116.41275907138315,874.7488450241615 69.69887602812818,933.9710872456553 16.246496899444963,991.3987645600654 -43.90305912272461,1046.3082841436026 -110.62806774459978,1097.9625741760767 -183.7227157002535,1145.6194709956076 -262.8942224082376,1188.54073530498 -347.7608571166361,1226.0016275270837 -437.85093638980686,1257.300960773386 -532.602880284331,1281.771538491235 -631.366397645775,1298.7908728504983 -733.4048616358012,1307.7920694808276 -837.8989258927941,1308.2747544450335 -943.9514196789289,1299.815910500981 -1050.5935470324227,1282.0804819338455 -1156.7924004054707,1254.8316007003132 -1261.4597836264236,1217.9402814801374 -1363.4623223994158,1171.394429635748 -1461.6328230874997,1115.3070041860499 -1554.7828223766119,1049.9231778434987 -1641.7162517680815,975.6263380678804 -1721.244121895056,892.9427770635671 -1792.2001126187333,802.5449247785353 -1853.4569359647944,705.2529873214196 -1903.9433204535017,602.0348638424578 -1942.6614475148872,494.004227845264 -1968.704653728782,382.41667410173625 -1981.2751968599205,268.6638497958752 -1979.7018693463224,154.26550815720782 -1963.4572303205027,40.8594445630533 -1932.1742166700105,-69.81070124010938 -1885.6618853426603,-175.90976768557823 -1823.920033327656,-275.52748254267476 -1747.1524387379393,-366.6968981025751 -1655.778466404277,-447.4147563012232 -1550.442784568387,-515.6636593654893 -1432.022945804929,-569.4358907639896 -1301.6345953547263,-606.7587003067013 -1160.6340837239945,-625.7208365436558 -1010.6182777690187,-624.5000795606419 -853.4213855741,-601.391498276005 -691.108635229557,-554.8361288385265 -525.9666760662503,-483.4497451543781 -360.4906028941007,-386.051369378342 -197.367539163593,-261.6911498390314 -39.45675350776301,-109.6772167723571 110.23367443976421,70.39888715646427 248.5735790386209,278.6386138398009 372.3407183153844,514.8150712913564 478.2539141889956,778.3543567568552 563.0091198256828,1068.319973050536 623.3181606353478,1383.4007290299194 655.9498451549077,1721.9025086468014 657.7730922089165,2081.744270652846 625.8016719415223,2460.45861267673 557.2401112545531,2855.1971989785156 449.5302695658549,3262.7413107477173 300.3980493383781,3679.5177314442717 107.89966825117433,4101.620127565952 -129.53311308397656,4524.836027625265 -413.04944159319075,4944.679439382395 -743.3381557361257,5356.429077945037 -1120.589573264946,5755.172105735476 -1544.4609605467115,6135.853210150681 -2014.0463608865962,6493.328766699179 -2527.851450476784,6822.425755269192 -3083.7740728754147,7118.005015819753 -3679.091075918022,7375.028348124557 -4310.452038392339,7588.6288792284995 -4973.88042748169,7754.184043055642 -5664.782671825353,7867.390440237012 -6377.9655690959125,7924.3397738471795 -7107.66237141868,7921.5949895185195 -7847.567807052926,7856.265687523967 -8590.882202948862,7726.081821063088 -9330.364770660224,7529.464650321857 -10058.396008342554,7265.593887041186 -10767.049055056656,6934.469940412989 -11448.169711321954,6536.970163157338 -12093.464712962119,6074.897997566181 -12694.597715021415,5551.023935982586 -13243.292310303823,4969.11723935742 -13731.441274408104,4333.96740179457 -14151.221097623207,3651.3944088226726 -14495.210735424356,2928.2469128132766 -14756.51338536215,2172.3875406225297 -14928.87998072219,1392.664656095994 -15006.832982349726,598.8700232714205 -14985.788951400713,-198.3180455437514 -14862.178299420433,-987.4063198613992 -14633.560539959417,-1756.1731560190663 -14298.733309758558,-2491.7697952229387 -13857.833389146852,-3180.8361831661164 -13312.427932360873,-3809.6308408586337 -12665.594120555988,-4364.17410993067 -11921.985474716957,-4830.403883890047 -11087.883113680333,-5194.342721901612 -10171.230315041392,-5442.275026072844 -9181.648834567968,-5560.932749614839 -8130.4355633672185,-5537.687894389218 -7030.538251631075,-5360.749855166194 -5896.509203203327,-5019.365477423972 -4744.436046013612,-4504.019518800868 -3591.8489088121382,-3806.633044488995 -2457.60358345809,-2920.757147052904 -1361.740522738,-1841.759264447746 -325.3198144166056,-566.9992793974154 629.7674193241215,904.0074783505496 1481.0104243721928,2569.4432353430334 2205.511910821946,4425.059687557485 2780.2413901955497,6464.071686988615 3182.306951904491,8677.075486364954 3389.2433268405216,11051.994207795184 3379.3137390272805,13574.053041142808 3131.8227071506662,16225.786476042445 2627.4366312611965,18987.07962740628 1848.5086909105698,21835.24542823741 779.4042944633399,24745.13913631677 -593.1769396158693,27689.311234170058 -2279.886914988887,30638.199396545708 -4288.426937314807,33560.35975894689 -6623.262322012185,36422.73724764376 -9285.35840909795,39190.97422978957 -12271.942711645843,41829.75621606871 -15576.297916148957,44303.1928026501 -19187.59038557077,46575.23147957766 -23090.73868600037,48610.10136513139 -27266.32646303032,50372.7833566697 -31690.563732322396,51829.50262499085 -36335.30031909592,52948.23882871665 -41168.09478301132,53699.24889532412 -46152.341698486576,54055.59671419381 -51247.45962711844,53993.68362257204 -56409.141520737336,53493.77314589791 -61589.66863380132,52540.50308775098 -66738.28830641451,51123.377759863804 -71801.65520930663,49237.23290711649 -76724.33482568701,46882.665723752114 -81449.36708903889,44066.422282351545 -85918.88720865786,40801.73471293722 -90074.79980498468,37108.60058179703 -93859.50155435961,33013.997133300734 -97216.64661836176,28552.023377256763 -100091.94821774086,23763.963432324996 -102434.00881713624,18698.265074614876 -104195.17052682224,13410.42809058707 -105332.37651463105,7962.797794080569 -105808.03346819375,2424.2599366929844 -105590.86446812938,-3130.1657847080123 -104656.74104017142,-8619.83534494085 -102989.48266163118,-13959.093685505657 -100581.61161789892,-19057.99098803254 -97435.05085016493,-23823.099898195112 -93561.75231773828,-28158.43027994386 -88984.2434278891,-31966.436637045834 -83736.07927254376,-35149.11185989578 -77862.18876259176,-37609.15945636101 -71419.10327371882,-39251.234923340504 -64475.05711755213,-39983.24542925169 -57109.95003160948,-39717.69552633896 -49415.16294220127,-38373.065215937575 -41493.2194949626,-35875.205370712516 -33457.28726470052,-32158.734296958854 -25430.51414393323,-27168.418119069665 -17545.197159549338,-20860.516708978197 -9941.782868526787,-13204.076087179948 -2767.7005231198464,-4182.14760967171 3823.968642782861,6207.086153253413 9675.980390049985,17949.29912623489 14628.566751131655,31013.143251940488 18521.215240668982,45349.523744670405 21194.57519677345,60891.04741342413 22492.476009453632,77551.66253646737 22264.039578396034,95226.50762522615 20365.86698596323,113791.98497883698 16664.27710604297,133106.0732001816 11037.572729550931,153008.89082157283 3378.3078079751112,173323.5208790418 -6404.472367285834,193857.10368792072 -18383.047784589868,214402.2022227551 -32608.928152205466,234738.44140933087 -49110.877167432416,254634.4193178006 -67893.08927813612,273849.8847298703 -88933.55189269545,292138.1718703124 -112182.6258965906,309248.8792783105 -137561.87682083127,324930.7758859678 -164963.1880577297,338934.9134120898 -194248.18611571315,351017.92021487944 -225248.0060340025,360945.4478264652 -257763.42273207224,368495.7375669383 -291565.37124518293,373463.27095972607 -326395.8754991084,375662.4641994738 -361969.4015137011,374931.3637150574 -397974.64671184635,371135.29698133003 -434076.7723698048,364170.4302211119 -469920.0812063178,353967.18256025953 -505131.136706855,340493.4446082411 -539322.3150591529,323757.5483870296 -572095.7745864802,303810.93507160665 -603047.8213622364,280750.4671810987 -631773.6433365595,254720.33271100913 -657872.3788715305,225913.49025877644 -680952.4791408767,194572.60649512228 -700637.3174825322,160990.44039322264 -716570.9925821718,125509.63245945155 -728424.2664005439,88521.86181730177 -735900.5721278639,50466.33937480793 -738742.0222471607,11827.611440072149 -736735.3421086326,-26867.344986394433 -729717.6503519757,-65052.74645632934 -717582.0041550958,-102128.34986595655 -700282.6247245527,-137464.51601618284 -677839.716760839,-170407.97485398664 -650343.7949100551,-200288.26756532435 -617959.4305259445,-226424.83060320085 -580928.3334780583,-248134.67640656623 -539571.6863091587,-264740.6151087345 -494291.65181302547,-275579.9510695242 -445571.9801066305,-280013.577722901 -393977.6475280762,-277435.38414852927 -340153.4672105017,-267281.87709396385 -284821.61995287694,-249041.91304164438 -228778.064006214,-222266.42648177 -172887.7935759665,-186578.032970298 -118078.92814844247,-141680.37897200696 -65335.62810326176,-87367.10506084029 -15689.84637919288,-23530.28491821951 29788.058897142717,49831.800127121554 69999.81006349786,132607.69240732968 103830.73669764734,224566.73591143754 130162.26956992089,325354.1394704803 147885.31083221632,434487.259415081 155914.37250207868,551353.2298181124 153202.35850326347,675208.0602574156 138755.84915349915,805177.310816399 111650.73127814122,940258.4417742079 71048.00231460604,1079324.9211373273 16209.563101354586,1221132.1568727123 -53486.198236652745,1364325.3024881405 -138529.2395408761,1507448.9645661637 -239263.33201505704,1648958.8191209624 -355872.3854264138,1787235.1203693005 -488367.85909648426,1920598.0608740982 -636577.4884411597,2047324.9162471578 -800135.5558562069,2165668.8809314566 -978474.9308706278,2273879.4742941754 -1170821.0975593233,2370224.3686475093 -1376188.3770999797,2453012.4631968457 -1593378.5399900882,2520618.0006388146 -1820981.9857561872,2571505.4965565936 -2057381.647974457,2604255.2262647864 -2300759.7591057825,2617588.9897306655 -2549107.5830979506,2610395.8530394984 -2800238.1940366244,2581757.5449802317 -3051802.346495388,2530973.1701031737 -3301307.447850805,2457582.8854361656 -3546139.6049471926,2361390.177321503 -3783588.6774218893,2242482.3679164876 -4010876.2280863095,2101248.9781264686 -4225186.217399683,1938397.5754231748 -4423698.244713872,1754966.741420603 -4603623.094093342,1552335.8054727237 -4762240.297648537,1332231.0071135275 -4896937.385022346,1096727.7720202585 -5005250.444526525,848248.813428165 -5084905.580052567,589557.8035820655 -5133860.808913142,323748.3978317653 -5150347.909850413,54228.437252571974 -5132913.698229145,-215300.79598969512 -5080460.1775625665,-480870.3431678479 -4992282.993636843,-738274.3684502129 -4868107.600223384,-983105.9466678154 -4708122.534288146,-1210797.727573451 -4513009.194276493,-1416667.2965967406 -4283967.517976392,-1595966.981593924 -4022736.967091987,-1743937.7829791761 -3731612.2443775586,-1855867.0316951475 -3413453.1962972437,-1927149.3065866572 -3071688.3899139385,-1953350.070792127 -2710311.8972049425,-1930271.416721022 -2333872.873284138,-1854019.2420406216 -1947457.5770075142,-1721071.115881863 -1556663.5529628564,-1528344.0362413984 -1167565.772588799,-1273261.2273631303 -786674.6187048528,-953817.0807813489 -420885.69150750694,-568639.3067352679 -77421.51441616901,-117047.33482526906 236234.67577217874,400894.0149670735 512412.7590741083,984326.576533861 743336.7728698829,1631557.577761982 921212.6356052995,2340026.0395301175 1038321.907921931,3106277.765850815 1087120.8270709577,3925949.813033841 1060343.7336159449,4793765.267334814 951109.8957119283,5703539.087911972 753032.6272860443,6648195.684994047 460329.4939125618,7619798.802088329 67932.3057787813,8609594.156140074 -428404.487403119,9608065.161293773 -1031998.4576576878,10605001.921007907 -1745138.4340260935,11589583.520640524 -2568989.874554942,12550473.489369702 -3503507.966096634,13475928.127757968 -4547360.053548051,14353917.216938676 -5697858.991461375,15172256.439014854 -6950908.981872941,15918750.647735633 -8300965.411707693,16581346.935938 -9741010.130424298,17148296.25387734 -11262543.513085851,17608322.14282217 -12855594.535435366,17950794.963694792 -14508749.945749719,18165909.823739316 -16209203.453453565,18244866.237918228 -17942825.667202022,18180047.40874433 -19694255.306216735,17965196.871346734 -21447011.97922947,17595590.132524338 -23183630.576935634,17068198.836089436 -24885817.05819714,16381844.914598582 -26534625.12952253,15537342.14212274 -28110653.024065975,14537622.486388745 -29594259.283340216,13387844.673578741 -30965796.135141548,12095482.427212594 -32205858.748254403,10670389.925487809 -33295548.332002394,9124842.140505284 -34216746.7405712,7473547.878911255 -34952399.94236434,5733633.537171237 -35486807.42776417,3924595.816069876 -35805914.35897939,2068221.907747302 -35897603.01768233,188475.9737968331 -35751979.88440005,-1688648.9266938362 -35361654.49265254,-3535313.9266533568 -34722006.0450571,-5322052.521118577 -33831433.66234006,-7018023.448592202 -32691586.063502423,-8591297.457638504 -31307566.45010913,-10009176.655660197 -29688108.39328637,-11238544.644024787 -27845718.60162514,-12246245.140266074 -25796782.584416483,-12999486.279522939 -23561629.419587675,-13466267.279677454 -21164552.090873946,-13615823.65418938 -18633780.175008804,-13419086.67010995 -16001402.037204787,-12849152.28317146 -13303234.131325584,-11881754.344395068 -10578635.498543387,-10495736.470656144 -7870266.112699414,-8673516.612470496 -5223788.328975552,-6401538.043255815 -2687511.3508803584,-3670700.2426806903 -311979.334114582,-476762.9594133879 1850495.511117509,3179283.3777378974 3746352.6819453067,7290887.770440128 5321353.070187302,11845656.109655546 6521194.818250062,16825122.677577272 7292170.760166211,22204582.16396438 7581862.039590571,27952988.3490615 7339861.683820603,34032925.18828958 6518521.123095614,40400655.51763395 5073711.88891697,47006251.98289819 2965594.0156176398,53793814.081744455 159382.01779839402,60701774.39698408 -3373901.265475308,67663296.19656211 -7656693.1687406935,74606763.58512081 -12704192.65591096,81456364.3204088 -18523705.650794037,88132764.26300164 -25114045.345399402,94553871.21917799 -32464998.649442777,100635684.6751124 -40556869.86999301,106293226.61792067 -49360112.49285138,111441547.30903119 -58835059.57009767,115996798.53252175 -68931762.6958472,119877365.50133818 -79589948.87072855,123005047.2845589 -90739103.71272904,125306274.33684069 -102298688.46756491,126713350.48537908 -114178497.1072569,127165705.57910962 -126279158.4849331,126611143.94886494 -138492787.042987,125007072.88522698 -150703783.95884165,122321694.53224605 -162789788.86824632,118535143.93901806 -174622780.44319838,113640555.52572334 -186070322.13541773,107645039.92355576 -196996947.3444046,100570553.05537319 -207265676.15122938,92454639.45069215 -216739653.5972838,83351032.14796832 -225283897.3051917,73330092.14004123 -232767140.0627826,62479071.17401626 -239063750.84785527,50902182.83094148 -244055715.69035825,38720468.18691481 -247634657.77959278,26071443.996145695 -249703874.35803384,13108523.235203736 -250180366.23178688,200.00000030638282" stroke="white" stroke-width="1.5" /></svg>